<?xml version="1.0" encoding="UTF-8" standalone="no"?>
<!DOCTYPE svg PUBLIC "-//W3C//DTD SVG 1.1//EN"
 "http://www.w3.org/Graphics/SVG/1.1/DTD/svg11.dtd">
<!-- Generated by graphviz version 2.38.0 (20140413.2041)
 -->
<!-- Title: Event Pages: 1 -->
<!--zoomable 484 -->
<svg id="main" version="1.1" xmlns="http://www.w3.org/2000/svg" xmlns:xlink="http://www.w3.org/1999/xlink" xml:space="preserve" onload="init(evt)">
<style type="text/css"><![CDATA[
.edge:hover path { stroke: red; }
.edge:hover polygon { stroke: red; fill: red; }
]]></style>
<script type="text/javascript"><![CDATA[
var edges = document.getElementsByTagName('g');
if (edges && edges.length) {
  for (var i=0;i<edges.length;i++) {
    if (edges[i].id.substr(0,4)=='edge') {
      edges[i].setAttribute('class','edge');
    }
  }
}
]]></script>
        <defs>
                <circle id="rim" cx="0" cy="0" r="7"/>
                <circle id="rim2" cx="0" cy="0" r="3.5"/>
                <g id="zoomPlus">
                        <use xlink:href="#rim" fill="#404040">
                                <set attributeName="fill" to="#808080" begin="zoomplus.mouseover" end="zoomplus.mouseout"/>
                        </use>
                        <path d="M-4,0h8M0,-4v8" fill="none" stroke="white" stroke-width="1.5" pointer-events="none"/>
                </g>
                <g id="zoomMin">
                        <use xlink:href="#rim" fill="#404040">
                                <set attributeName="fill" to="#808080" begin="zoomminus.mouseover" end="zoomminus.mouseout"/>
                        </use>
                        <path d="M-4,0h8" fill="none" stroke="white" stroke-width="1.5" pointer-events="none"/>
                </g>
                <g id="dirArrow">
                        <path fill="none" stroke="white" stroke-width="1.5" d="M0,-3.0v7 M-2.5,-0.5L0,-3.0L2.5,-0.5"/>
                </g>
               <g id="resetDef">
                       <use xlink:href="#rim2" fill="#404040">
                               <set attributeName="fill" to="#808080" begin="reset.mouseover" end="reset.mouseout"/>
                       </use>
               </g>
        </defs>

<script type="text/javascript">
var viewWidth = 368;
var viewHeight = 484;
var sectionId = 'dynsection-0';
</script>
<script xlink:href="svgpan.js"/>
<svg id="graph" class="graph">
<g id="viewport">
<title>Event</title>
<!-- Node0 -->
<g id="node1" class="node"><title>Node0</title>
<polygon fill="#bfbfbf" stroke="black" points="149,-228.5 149,-247.5 191,-247.5 191,-228.5 149,-228.5"/>
<text text-anchor="middle" x="170" y="-235.5" font-family="Helvetica,sans-Serif" font-size="10.00">Event</text>
</g>
<!-- Node2 -->
<g id="node3" class="node"><title>Node2</title>
<g id="a_node3"><a xlink:href="classtutorial_1_1BankEv_1_1Arrival.html" target="_top" xlink:title="BankEv.Arrival">
<polygon fill="none" stroke="black" points="252.5,-456.5 252.5,-475.5 334.5,-475.5 334.5,-456.5 252.5,-456.5"/>
<text text-anchor="middle" x="293.5" y="-463.5" font-family="Helvetica,sans-Serif" font-size="10.00">BankEv.Arrival</text>
</a>
</g>
</g>
<!-- Node0&#45;&gt;Node2 -->
<g id="edge2" class="edge"><title>Node0&#45;&gt;Node2</title>
<path fill="none" stroke="midnightblue" d="M170.298,-258.062C169.993,-299.329 175.338,-394.266 227,-447 233.794,-453.935 242.957,-458.377 252.272,-461.211"/>
<polygon fill="midnightblue" stroke="midnightblue" points="173.8,-257.994 170.5,-247.926 166.801,-257.854 173.8,-257.994"/>
</g>
<!-- Node3 -->
<g id="node4" class="node"><title>Node3</title>
<g id="a_node4"><a xlink:href="classtutorial_1_1BankEv_1_1Departure.html" target="_top" xlink:title="BankEv.Departure">
<polygon fill="none" stroke="black" points="245,-418.5 245,-437.5 342,-437.5 342,-418.5 245,-418.5"/>
<text text-anchor="middle" x="293.5" y="-425.5" font-family="Helvetica,sans-Serif" font-size="10.00">BankEv.Departure</text>
</a>
</g>
</g>
<!-- Node0&#45;&gt;Node3 -->
<g id="edge3" class="edge"><title>Node0&#45;&gt;Node3</title>
<path fill="none" stroke="midnightblue" d="M171.722,-257.792C174.104,-293.23 184.231,-367.668 227,-409 232.023,-413.855 238.21,-417.481 244.758,-420.187"/>
<polygon fill="midnightblue" stroke="midnightblue" points="175.214,-257.548 171.189,-247.748 168.224,-257.919 175.214,-257.548"/>
</g>
<!-- Node4 -->
<g id="node5" class="node"><title>Node4</title>
<g id="a_node5"><a xlink:href="classtutorial_1_1CallCenter_1_1Arrival.html" target="_top" xlink:title="CallCenter.Arrival">
<polygon fill="none" stroke="black" points="246.5,-380.5 246.5,-399.5 340.5,-399.5 340.5,-380.5 246.5,-380.5"/>
<text text-anchor="middle" x="293.5" y="-387.5" font-family="Helvetica,sans-Serif" font-size="10.00">CallCenter.Arrival</text>
</a>
</g>
</g>
<!-- Node0&#45;&gt;Node4 -->
<g id="edge4" class="edge"><title>Node0&#45;&gt;Node4</title>
<path fill="none" stroke="midnightblue" d="M173.883,-257.806C179.162,-286.863 193.131,-340.855 227,-371 232.572,-375.959 239.368,-379.629 246.449,-382.342"/>
<polygon fill="midnightblue" stroke="midnightblue" points="177.292,-256.965 172.214,-247.667 170.385,-258.102 177.292,-256.965"/>
</g>
<!-- Node5 -->
<g id="node6" class="node"><title>Node5</title>
<g id="a_node6"><a xlink:href="classtutorial_1_1CallCenter_1_1CallCompletion.html" target="_top" xlink:title="CallCenter.CallCompletion">
<polygon fill="none" stroke="black" points="227,-342.5 227,-361.5 360,-361.5 360,-342.5 227,-342.5"/>
<text text-anchor="middle" x="293.5" y="-349.5" font-family="Helvetica,sans-Serif" font-size="10.00">CallCenter.CallCompletion</text>
</a>
</g>
</g>
<!-- Node0&#45;&gt;Node5 -->
<g id="edge5" class="edge"><title>Node0&#45;&gt;Node5</title>
<path fill="none" stroke="midnightblue" d="M177.469,-257.424C185.646,-279.014 201.774,-313.413 227,-333 231.957,-336.849 237.668,-339.918 243.61,-342.366"/>
<polygon fill="midnightblue" stroke="midnightblue" points="180.66,-255.951 174.001,-247.711 174.068,-258.306 180.66,-255.951"/>
</g>
<!-- Node6 -->
<g id="node7" class="node"><title>Node6</title>
<g id="a_node7"><a xlink:href="classtutorial_1_1CallCenter_1_1NextPeriod.html" target="_top" xlink:title="CallCenter.NextPeriod">
<polygon fill="none" stroke="black" points="236,-304.5 236,-323.5 351,-323.5 351,-304.5 236,-304.5"/>
<text text-anchor="middle" x="293.5" y="-311.5" font-family="Helvetica,sans-Serif" font-size="10.00">CallCenter.NextPeriod</text>
</a>
</g>
</g>
<!-- Node0&#45;&gt;Node6 -->
<g id="edge6" class="edge"><title>Node0&#45;&gt;Node6</title>
<path fill="none" stroke="midnightblue" d="M184.145,-255.569C194.49,-268.236 209.967,-284.83 227,-295 233.405,-298.824 240.624,-301.917 247.869,-304.406"/>
<polygon fill="midnightblue" stroke="midnightblue" points="186.777,-253.254 177.847,-247.553 181.273,-257.579 186.777,-253.254"/>
</g>
<!-- Node7 -->
<g id="node8" class="node"><title>Node7</title>
<g id="a_node8"><a xlink:href="classtutorial_1_1CallEv_1_1Arrival.html" target="_top" xlink:title="CallEv.Arrival">
<polygon fill="none" stroke="black" points="255,-266.5 255,-285.5 332,-285.5 332,-266.5 255,-266.5"/>
<text text-anchor="middle" x="293.5" y="-273.5" font-family="Helvetica,sans-Serif" font-size="10.00">CallEv.Arrival</text>
</a>
</g>
</g>
<!-- Node0&#45;&gt;Node7 -->
<g id="edge7" class="edge"><title>Node0&#45;&gt;Node7</title>
<path fill="none" stroke="midnightblue" d="M200.654,-248.337C209.137,-251.219 218.412,-254.299 227,-257 237.165,-260.197 248.279,-263.495 258.417,-266.427"/>
<polygon fill="midnightblue" stroke="midnightblue" points="201.741,-245.01 191.146,-245.079 199.471,-251.632 201.741,-245.01"/>
</g>
<!-- Node8 -->
<g id="node9" class="node"><title>Node8</title>
<g id="a_node9"><a xlink:href="classtutorial_1_1CallEv_1_1CallCompletion.html" target="_top" xlink:title="CallEv.CallCompletion">
<polygon fill="none" stroke="black" points="235.5,-228.5 235.5,-247.5 351.5,-247.5 351.5,-228.5 235.5,-228.5"/>
<text text-anchor="middle" x="293.5" y="-235.5" font-family="Helvetica,sans-Serif" font-size="10.00">CallEv.CallCompletion</text>
</a>
</g>
</g>
<!-- Node0&#45;&gt;Node8 -->
<g id="edge8" class="edge"><title>Node0&#45;&gt;Node8</title>
<path fill="none" stroke="midnightblue" d="M201.232,-238C211.62,-238 223.617,-238 235.427,-238"/>
<polygon fill="midnightblue" stroke="midnightblue" points="201.063,-234.5 191.063,-238 201.063,-241.5 201.063,-234.5"/>
</g>
<!-- Node9 -->
<g id="node10" class="node"><title>Node9</title>
<g id="a_node10"><a xlink:href="classtutorial_1_1CallEv_1_1NextPeriod.html" target="_top" xlink:title="CallEv.NextPeriod">
<polygon fill="none" stroke="black" points="244.5,-190.5 244.5,-209.5 342.5,-209.5 342.5,-190.5 244.5,-190.5"/>
<text text-anchor="middle" x="293.5" y="-197.5" font-family="Helvetica,sans-Serif" font-size="10.00">CallEv.NextPeriod</text>
</a>
</g>
</g>
<!-- Node0&#45;&gt;Node9 -->
<g id="edge9" class="edge"><title>Node0&#45;&gt;Node9</title>
<path fill="none" stroke="midnightblue" d="M200.654,-227.663C209.137,-224.781 218.412,-221.701 227,-219 237.165,-215.803 248.279,-212.505 258.417,-209.573"/>
<polygon fill="midnightblue" stroke="midnightblue" points="199.471,-224.368 191.146,-230.921 201.741,-230.99 199.471,-224.368"/>
</g>
<!-- Node10 -->
<g id="node11" class="node"><title>Node10</title>
<g id="a_node11"><a xlink:href="classtutorial_1_1PreyPred_1_1EndOfSim.html" target="_top" xlink:title="PreyPred.EndOfSim">
<polygon fill="none" stroke="black" points="241,-152.5 241,-171.5 346,-171.5 346,-152.5 241,-152.5"/>
<text text-anchor="middle" x="293.5" y="-159.5" font-family="Helvetica,sans-Serif" font-size="10.00">PreyPred.EndOfSim</text>
</a>
</g>
</g>
<!-- Node0&#45;&gt;Node10 -->
<g id="edge10" class="edge"><title>Node0&#45;&gt;Node10</title>
<path fill="none" stroke="midnightblue" d="M184.145,-220.431C194.49,-207.764 209.967,-191.17 227,-181 233.405,-177.176 240.624,-174.083 247.869,-171.594"/>
<polygon fill="midnightblue" stroke="midnightblue" points="181.273,-218.421 177.847,-228.447 186.777,-222.746 181.273,-218.421"/>
</g>
<!-- Node11 -->
<g id="node12" class="node"><title>Node11</title>
<g id="a_node12"><a xlink:href="classtutorial_1_1PreyPred_1_1PrintPoint.html" target="_top" xlink:title="PreyPred.PrintPoint">
<polygon fill="none" stroke="black" points="242,-114.5 242,-133.5 345,-133.5 345,-114.5 242,-114.5"/>
<text text-anchor="middle" x="293.5" y="-121.5" font-family="Helvetica,sans-Serif" font-size="10.00">PreyPred.PrintPoint</text>
</a>
</g>
</g>
<!-- Node0&#45;&gt;Node11 -->
<g id="edge11" class="edge"><title>Node0&#45;&gt;Node11</title>
<path fill="none" stroke="midnightblue" d="M177.469,-218.576C185.646,-196.986 201.774,-162.587 227,-143 231.957,-139.151 237.668,-136.082 243.61,-133.634"/>
<polygon fill="midnightblue" stroke="midnightblue" points="174.068,-217.694 174.001,-228.289 180.66,-220.049 174.068,-217.694"/>
</g>
<!-- Node12 -->
<g id="node13" class="node"><title>Node12</title>
<g id="a_node13"><a xlink:href="classtutorial_1_1QueueEv_1_1Arrival.html" target="_top" xlink:title="QueueEv.Arrival">
<polygon fill="none" stroke="black" points="249.5,-76.5 249.5,-95.5 337.5,-95.5 337.5,-76.5 249.5,-76.5"/>
<text text-anchor="middle" x="293.5" y="-83.5" font-family="Helvetica,sans-Serif" font-size="10.00">QueueEv.Arrival</text>
</a>
</g>
</g>
<!-- Node0&#45;&gt;Node12 -->
<g id="edge12" class="edge"><title>Node0&#45;&gt;Node12</title>
<path fill="none" stroke="midnightblue" d="M173.883,-218.194C179.162,-189.137 193.131,-135.145 227,-105 233.368,-99.3321 241.335,-95.3495 249.498,-92.5525"/>
<polygon fill="midnightblue" stroke="midnightblue" points="170.385,-217.898 172.214,-228.333 177.292,-219.035 170.385,-217.898"/>
</g>
<!-- Node13 -->
<g id="node14" class="node"><title>Node13</title>
<g id="a_node14"><a xlink:href="classtutorial_1_1QueueEv_1_1Departure.html" target="_top" xlink:title="QueueEv.Departure">
<polygon fill="none" stroke="black" points="242,-38.5 242,-57.5 345,-57.5 345,-38.5 242,-38.5"/>
<text text-anchor="middle" x="293.5" y="-45.5" font-family="Helvetica,sans-Serif" font-size="10.00">QueueEv.Departure</text>
</a>
</g>
</g>
<!-- Node0&#45;&gt;Node13 -->
<g id="edge13" class="edge"><title>Node0&#45;&gt;Node13</title>
<path fill="none" stroke="midnightblue" d="M171.722,-218.208C174.104,-182.77 184.231,-108.332 227,-67 231.257,-62.8859 236.35,-59.6541 241.789,-57.1169"/>
<polygon fill="midnightblue" stroke="midnightblue" points="168.224,-218.081 171.189,-228.252 175.214,-218.452 168.224,-218.081"/>
</g>
<!-- Node14 -->
<g id="node15" class="node"><title>Node14</title>
<g id="a_node15"><a xlink:href="classtutorial_1_1QueueEv_1_1EndOfSim.html" target="_top" xlink:title="QueueEv.EndOfSim">
<polygon fill="none" stroke="black" points="241,-0.5 241,-19.5 346,-19.5 346,-0.5 241,-0.5"/>
<text text-anchor="middle" x="293.5" y="-7.5" font-family="Helvetica,sans-Serif" font-size="10.00">QueueEv.EndOfSim</text>
</a>
</g>
</g>
<!-- Node0&#45;&gt;Node14 -->
<g id="edge14" class="edge"><title>Node0&#45;&gt;Node14</title>
<path fill="none" stroke="midnightblue" d="M170.298,-217.938C169.993,-176.671 175.338,-81.7342 227,-29 230.977,-24.9402 235.766,-21.7349 240.922,-19.2063"/>
<polygon fill="midnightblue" stroke="midnightblue" points="166.801,-218.146 170.5,-228.074 173.8,-218.006 166.801,-218.146"/>
</g>
<!-- Node1 -->
<g id="node2" class="node"><title>Node1</title>
<polygon fill="none" stroke="#bfbfbf" points="0,-228.5 0,-247.5 113,-247.5 113,-228.5 0,-228.5"/>
<text text-anchor="middle" x="56.5" y="-235.5" font-family="Helvetica,sans-Serif" font-size="10.00">Comparable&lt; Event &gt;</text>
</g>
<!-- Node1&#45;&gt;Node0 -->
<g id="edge1" class="edge"><title>Node1&#45;&gt;Node0</title>
<path fill="none" stroke="midnightblue" d="M123.352,-238C132.57,-238 141.407,-238 148.808,-238"/>
<polygon fill="midnightblue" stroke="midnightblue" points="123.25,-234.5 113.25,-238 123.25,-241.5 123.25,-234.5"/>
</g>
</g>
</svg>
        <g id="navigator" transform="translate(0 0)" fill="#404254">
                <rect fill="#f2f5e9" fill-opacity="0.5" stroke="#606060" stroke-width=".5" x="0" y="0" width="60" height="60"/>
                <use id="zoomplus" xlink:href="#zoomPlus" x="17" y="9" onmousedown="handleZoom(evt,'in')"/>
                <use id="zoomminus" xlink:href="#zoomMin" x="42" y="9" onmousedown="handleZoom(evt,'out')"/>
                <use id="reset" xlink:href="#resetDef" x="30" y="36" onmousedown="handleReset()"/>
                <g id="arrowUp" xlink:href="#dirArrow" transform="translate(30 24)" onmousedown="handlePan(0,-1)">
                  <use xlink:href="#rim" fill="#404040">
                        <set attributeName="fill" to="#808080" begin="arrowUp.mouseover" end="arrowUp.mouseout"/>
                  </use>
                  <path fill="none" stroke="white" stroke-width="1.5" d="M0,-3.0v7 M-2.5,-0.5L0,-3.0L2.5,-0.5"/>
                </g>
                <g id="arrowRight" xlink:href="#dirArrow" transform="rotate(90) translate(36 -43)" onmousedown="handlePan(1,0)">
                  <use xlink:href="#rim" fill="#404040">
                        <set attributeName="fill" to="#808080" begin="arrowRight.mouseover" end="arrowRight.mouseout"/>
                  </use>
                  <path fill="none" stroke="white" stroke-width="1.5" d="M0,-3.0v7 M-2.5,-0.5L0,-3.0L2.5,-0.5"/>
                </g>
                <g id="arrowDown" xlink:href="#dirArrow" transform="rotate(180) translate(-30 -48)" onmousedown="handlePan(0,1)">
                  <use xlink:href="#rim" fill="#404040">
                        <set attributeName="fill" to="#808080" begin="arrowDown.mouseover" end="arrowDown.mouseout"/>
                  </use>
                  <path fill="none" stroke="white" stroke-width="1.5" d="M0,-3.0v7 M-2.5,-0.5L0,-3.0L2.5,-0.5"/>
                </g>
                <g id="arrowLeft" xlink:href="#dirArrow" transform="rotate(270) translate(-36 17)" onmousedown="handlePan(-1,0)">
                  <use xlink:href="#rim" fill="#404040">
                        <set attributeName="fill" to="#808080" begin="arrowLeft.mouseover" end="arrowLeft.mouseout"/>
                  </use>
                  <path fill="none" stroke="white" stroke-width="1.5" d="M0,-3.0v7 M-2.5,-0.5L0,-3.0L2.5,-0.5"/>
                </g>
        </g>
        <svg viewBox="0 0 15 15" width="100%" height="30px" preserveAspectRatio="xMaxYMin meet">
         <g id="arrow_out" transform="scale(0.3 0.3)">
          <a xlink:href="classumontreal_1_1ssj_1_1simevents_1_1Event__inherit__graph_org.svg" target="_base">
           <rect id="button" ry="5" rx="5" y="6" x="6" height="38" width="38"
                fill="#f2f5e9" fill-opacity="0.5" stroke="#606060" stroke-width="1.0"/>
           <path id="arrow"
             d="M 11.500037,31.436501 C 11.940474,20.09759 22.043105,11.32322 32.158766,21.979434 L 37.068811,17.246167 C 37.068811,17.246167 37.088388,32 37.088388,32 L 22.160133,31.978069 C 22.160133,31.978069 26.997745,27.140456 26.997745,27.140456 C 18.528582,18.264221 13.291696,25.230495 11.500037,31.436501 z"
             style="fill:#404040;"/>
          </a>
         </g>
        </svg>
</svg>
