<?xml version="1.0" encoding="UTF-8" standalone="no"?>
<!DOCTYPE svg PUBLIC "-//W3C//DTD SVG 1.1//EN"
 "http://www.w3.org/Graphics/SVG/1.1/DTD/svg11.dtd">
<!-- Generated by graphviz version 2.40.1 (20161225.0304)
 -->
<!-- Title: ContinuousDistribution2Dim Pages: 1 -->
<svg width="259pt" height="196pt"
 viewBox="0.00 0.00 259.00 196.00" xmlns="http://www.w3.org/2000/svg" xmlns:xlink="http://www.w3.org/1999/xlink">
<g id="graph0" class="graph" transform="scale(1 1) rotate(0) translate(4 192)">
<title>ContinuousDistribution2Dim</title>
<!-- Node0 -->
<g id="node1" class="node">
<title>Node0</title>
<polygon fill="#bfbfbf" stroke="#000000" points="96,-112.5 96,-131.5 235,-131.5 235,-112.5 96,-112.5"/>
<text text-anchor="middle" x="165.5" y="-119.5" font-family="Helvetica,sans-Serif" font-size="10.00" fill="#000000">ContinuousDistribution2Dim</text>
</g>
<!-- Node2 -->
<g id="node3" class="node">
<title>Node2</title>
<g id="a_node3"><a xlink:href="classumontreal_1_1ssj_1_1probdistmulti_1_1BiNormalDist.html" target="_top" xlink:title="Extends the class ContinuousDistribution2Dim for the bivariate normal distribution   (page 84)...">
<polygon fill="none" stroke="#000000" points="81,-56.5 81,-75.5 156,-75.5 156,-56.5 81,-56.5"/>
<text text-anchor="middle" x="118.5" y="-63.5" font-family="Helvetica,sans-Serif" font-size="10.00" fill="#000000">BiNormalDist</text>
</a>
</g>
</g>
<!-- Node0&#45;&gt;Node2 -->
<g id="edge2" class="edge">
<title>Node0&#45;&gt;Node2</title>
<path fill="none" stroke="#191970" d="M150.8128,-104.5004C142.8204,-94.9775 133.2375,-83.5596 126.593,-75.6427"/>
<polygon fill="#191970" stroke="#191970" points="148.2036,-106.8358 157.3132,-112.2455 153.5654,-102.3357 148.2036,-106.8358"/>
</g>
<!-- Node5 -->
<g id="node6" class="node">
<title>Node5</title>
<g id="a_node6"><a xlink:href="classumontreal_1_1ssj_1_1probdistmulti_1_1BiStudentDist.html" target="_top" xlink:title="Extends the class ContinuousDistribution2Dim for the standard bivariate Student’s &#160;distribution   (...">
<polygon fill="none" stroke="#000000" points="174,-56.5 174,-75.5 251,-75.5 251,-56.5 174,-56.5"/>
<text text-anchor="middle" x="212.5" y="-63.5" font-family="Helvetica,sans-Serif" font-size="10.00" fill="#000000">BiStudentDist</text>
</a>
</g>
</g>
<!-- Node0&#45;&gt;Node5 -->
<g id="edge5" class="edge">
<title>Node0&#45;&gt;Node5</title>
<path fill="none" stroke="#191970" d="M180.1872,-104.5004C188.1796,-94.9775 197.7625,-83.5596 204.407,-75.6427"/>
<polygon fill="#191970" stroke="#191970" points="177.4346,-102.3357 173.6868,-112.2455 182.7964,-106.8358 177.4346,-102.3357"/>
</g>
<!-- Node1 -->
<g id="node2" class="node">
<title>Node1</title>
<g id="a_node2"><a xlink:href="classumontreal_1_1ssj_1_1probdistmulti_1_1ContinuousDistributionMulti.html" target="_top" xlink:title="Classes implementing continuous multi&#45;dimensional distributions should inherit from this class...">
<polygon fill="none" stroke="#000000" points="97,-168.5 97,-187.5 234,-187.5 234,-168.5 97,-168.5"/>
<text text-anchor="middle" x="165.5" y="-175.5" font-family="Helvetica,sans-Serif" font-size="10.00" fill="#000000">ContinuousDistributionMulti</text>
</a>
</g>
</g>
<!-- Node1&#45;&gt;Node0 -->
<g id="edge1" class="edge">
<title>Node1&#45;&gt;Node0</title>
<path fill="none" stroke="#191970" d="M165.5,-158.1575C165.5,-149.155 165.5,-138.9199 165.5,-131.6427"/>
<polygon fill="#191970" stroke="#191970" points="162.0001,-158.2455 165.5,-168.2455 169.0001,-158.2456 162.0001,-158.2455"/>
</g>
<!-- Node3 -->
<g id="node4" class="node">
<title>Node3</title>
<g id="a_node4"><a xlink:href="classumontreal_1_1ssj_1_1probdistmulti_1_1BiNormalDonnellyDist.html" target="_top" xlink:title="Extends the class BiNormalDist for the bivariate normal distribution   (page 84) using a translation...">
<polygon fill="none" stroke="#000000" points="0,-.5 0,-19.5 113,-19.5 113,-.5 0,-.5"/>
<text text-anchor="middle" x="56.5" y="-7.5" font-family="Helvetica,sans-Serif" font-size="10.00" fill="#000000">BiNormalDonnellyDist</text>
</a>
</g>
</g>
<!-- Node2&#45;&gt;Node3 -->
<g id="edge3" class="edge">
<title>Node2&#45;&gt;Node3</title>
<path fill="none" stroke="#191970" d="M100.0779,-49.3607C89.3519,-39.6727 76.2066,-27.7995 67.1758,-19.6427"/>
<polygon fill="#191970" stroke="#191970" points="97.9334,-52.14 107.7004,-56.2455 102.6254,-46.9453 97.9334,-52.14"/>
</g>
<!-- Node4 -->
<g id="node5" class="node">
<title>Node4</title>
<g id="a_node5"><a xlink:href="classumontreal_1_1ssj_1_1probdistmulti_1_1BiNormalGenzDist.html" target="_top" xlink:title="Extends the class BiNormalDist for the bivariate normal distribution   (page 84) using Genz’s algor...">
<polygon fill="none" stroke="#000000" points="131.5,-.5 131.5,-19.5 229.5,-19.5 229.5,-.5 131.5,-.5"/>
<text text-anchor="middle" x="180.5" y="-7.5" font-family="Helvetica,sans-Serif" font-size="10.00" fill="#000000">BiNormalGenzDist</text>
</a>
</g>
</g>
<!-- Node2&#45;&gt;Node4 -->
<g id="edge4" class="edge">
<title>Node2&#45;&gt;Node4</title>
<path fill="none" stroke="#191970" d="M136.9221,-49.3607C147.6481,-39.6727 160.7934,-27.7995 169.8242,-19.6427"/>
<polygon fill="#191970" stroke="#191970" points="134.3746,-46.9453 129.2996,-56.2455 139.0666,-52.14 134.3746,-46.9453"/>
</g>
</g>
</svg>
