<?xml version="1.0" encoding="UTF-8" standalone="no"?>
<!DOCTYPE svg PUBLIC "-//W3C//DTD SVG 1.1//EN"
 "http://www.w3.org/Graphics/SVG/1.1/DTD/svg11.dtd">
<!-- Generated by graphviz version 2.40.1 (20161225.0304)
 -->
<!-- Title: PreyPred Pages: 1 -->
<svg width="290pt" height="364pt"
 viewBox="0.00 0.00 289.50 364.00" xmlns="http://www.w3.org/2000/svg" xmlns:xlink="http://www.w3.org/1999/xlink">
<g id="graph0" class="graph" transform="scale(1 1) rotate(0) translate(4 360)">
<title>PreyPred</title>
<!-- Node1 -->
<g id="node1" class="node">
<title>Node1</title>
<polygon fill="#bfbfbf" stroke="#000000" points="102,-.5 102,-19.5 159,-19.5 159,-.5 102,-.5"/>
<text text-anchor="middle" x="130.5" y="-7.5" font-family="Helvetica,sans-Serif" font-size="10.00" fill="#000000">PreyPred</text>
</g>
<!-- Node2 -->
<g id="node2" class="node">
<title>Node2</title>
<g id="a_node2"><a xlink:href="classumontreal_1_1ssj_1_1simevents_1_1Simulator.html" target="_top" xlink:title="Represents the executive of a discrete&#45;event simulator. ">
<polygon fill="none" stroke="#000000" points="131.5,-212.5 131.5,-231.5 189.5,-231.5 189.5,-212.5 131.5,-212.5"/>
<text text-anchor="middle" x="160.5" y="-219.5" font-family="Helvetica,sans-Serif" font-size="10.00" fill="#000000">Simulator</text>
</a>
</g>
</g>
<!-- Node2&#45;&gt;Node1 -->
<g id="edge1" class="edge">
<title>Node2&#45;&gt;Node1</title>
<path fill="none" stroke="#9a32cd" stroke-dasharray="5,2" d="M158.0724,-202.194C154.6247,-174.4096 148.0034,-122.2946 141.5,-78 138.4425,-57.1754 134.3898,-32.844 132.1555,-19.6705"/>
<polygon fill="#9a32cd" stroke="#9a32cd" points="154.6098,-202.7125 159.3082,-212.2086 161.5571,-201.8552 154.6098,-202.7125"/>
<text text-anchor="middle" x="157" y="-119" font-family="Helvetica,sans-Serif" font-size="10.00" fill="#000000"> sim</text>
</g>
<!-- Node2&#45;&gt;Node2 -->
<g id="edge2" class="edge">
<title>Node2&#45;&gt;Node2</title>
<path fill="none" stroke="#9a32cd" stroke-dasharray="5,2" d="M200.103,-227.0845C204.5912,-226.1323 207.5,-224.4375 207.5,-222 207.5,-218 199.6667,-216 189.875,-216"/>
<polygon fill="#9a32cd" stroke="#9a32cd" points="199.5231,-223.6223 189.875,-228 200.1473,-230.5944 199.5231,-223.6223"/>
<text text-anchor="middle" x="244.5" y="-219.5" font-family="Helvetica,sans-Serif" font-size="10.00" fill="#000000"> defaultSimulator</text>
</g>
<!-- Node7 -->
<g id="node7" class="node">
<title>Node7</title>
<g id="a_node7"><a xlink:href="classumontreal_1_1ssj_1_1simevents_1_1Event.html" target="_top" xlink:title="This abstract class provides event scheduling tools. ">
<polygon fill="none" stroke="#000000" points="78.5,-145.5 78.5,-164.5 120.5,-164.5 120.5,-145.5 78.5,-145.5"/>
<text text-anchor="middle" x="99.5" y="-152.5" font-family="Helvetica,sans-Serif" font-size="10.00" fill="#000000">Event</text>
</a>
</g>
</g>
<!-- Node2&#45;&gt;Node7 -->
<g id="edge9" class="edge">
<title>Node2&#45;&gt;Node7</title>
<path fill="none" stroke="#9a32cd" stroke-dasharray="5,2" d="M139.7416,-205.7321C135.5141,-202.0553 131.2247,-198.0391 127.5,-194 119.0242,-184.8088 110.8679,-172.9989 105.5667,-164.7947"/>
<polygon fill="#9a32cd" stroke="#9a32cd" points="137.7061,-208.5917 147.6303,-212.3012 142.1855,-203.2125 137.7061,-208.5917"/>
<text text-anchor="middle" x="137" y="-186" font-family="Helvetica,sans-Serif" font-size="10.00" fill="#000000"> sim</text>
</g>
<!-- Node3 -->
<g id="node3" class="node">
<title>Node3</title>
<g id="a_node3"><a xlink:href="interfaceumontreal_1_1ssj_1_1simevents_1_1eventlist_1_1EventList.html" target="_top" xlink:title="An interface for implementations of event lists. ">
<polygon fill="none" stroke="#000000" points="79.5,-279.5 79.5,-298.5 137.5,-298.5 137.5,-279.5 79.5,-279.5"/>
<text text-anchor="middle" x="108.5" y="-286.5" font-family="Helvetica,sans-Serif" font-size="10.00" fill="#000000">EventList</text>
</a>
</g>
</g>
<!-- Node3&#45;&gt;Node2 -->
<g id="edge3" class="edge">
<title>Node3&#45;&gt;Node2</title>
<path fill="none" stroke="#9a32cd" stroke-dasharray="5,2" d="M117.6122,-270.164C121.215,-263.5102 125.6549,-256.1567 130.5,-250 135.7871,-243.2816 142.7093,-236.7094 148.5721,-231.6225"/>
<polygon fill="#9a32cd" stroke="#9a32cd" points="114.4318,-268.6957 112.9829,-279.191 120.6605,-271.89 114.4318,-268.6957"/>
<text text-anchor="middle" x="152" y="-253" font-family="Helvetica,sans-Serif" font-size="10.00" fill="#000000"> eventList</text>
</g>
<!-- Node4 -->
<g id="node4" class="node">
<title>Node4</title>
<polygon fill="none" stroke="#bfbfbf" points="62.5,-336.5 62.5,-355.5 154.5,-355.5 154.5,-336.5 62.5,-336.5"/>
<text text-anchor="middle" x="108.5" y="-343.5" font-family="Helvetica,sans-Serif" font-size="10.00" fill="#000000">Iterable&lt; Event &gt;</text>
</g>
<!-- Node4&#45;&gt;Node3 -->
<g id="edge4" class="edge">
<title>Node4&#45;&gt;Node3</title>
<path fill="none" stroke="#191970" d="M108.5,-326.2342C108.5,-316.8491 108.5,-306.0651 108.5,-298.5265"/>
<polygon fill="#191970" stroke="#191970" points="105.0001,-326.3307 108.5,-336.3307 112.0001,-326.3308 105.0001,-326.3307"/>
</g>
<!-- Node5 -->
<g id="node5" class="node">
<title>Node5</title>
<g id="a_node5"><a xlink:href="classumontreal_1_1ssj_1_1simevents_1_1ContinuousState.html" target="_top" xlink:title="Represents the portion of the simulator’s state associated with continuous&#45;time simulation. ">
<polygon fill="none" stroke="#000000" points="156,-279.5 156,-298.5 245,-298.5 245,-279.5 156,-279.5"/>
<text text-anchor="middle" x="200.5" y="-286.5" font-family="Helvetica,sans-Serif" font-size="10.00" fill="#000000">ContinuousState</text>
</a>
</g>
</g>
<!-- Node5&#45;&gt;Node2 -->
<g id="edge5" class="edge">
<title>Node5&#45;&gt;Node2</title>
<path fill="none" stroke="#9a32cd" stroke-dasharray="5,2" d="M189.5208,-270.6099C181.9803,-257.9795 172.2756,-241.7241 166.2204,-231.5817"/>
<polygon fill="#9a32cd" stroke="#9a32cd" points="186.6376,-272.6085 194.769,-279.4005 192.648,-269.0202 186.6376,-272.6085"/>
<text text-anchor="middle" x="219.5" y="-253" font-family="Helvetica,sans-Serif" font-size="10.00" fill="#000000"> continuousState</text>
</g>
<!-- Node6 -->
<g id="node6" class="node">
<title>Node6</title>
<g id="a_node6"><a xlink:href="classumontreal_1_1ssj_1_1simevents_1_1Continuous.html" target="_top" xlink:title="Represents a variable in a continuous&#45;time simulation. ">
<polygon fill="none" stroke="#000000" points="66.5,-78.5 66.5,-97.5 132.5,-97.5 132.5,-78.5 66.5,-78.5"/>
<text text-anchor="middle" x="99.5" y="-85.5" font-family="Helvetica,sans-Serif" font-size="10.00" fill="#000000">Continuous</text>
</a>
</g>
</g>
<!-- Node6&#45;&gt;Node1 -->
<g id="edge6" class="edge">
<title>Node6&#45;&gt;Node1</title>
<path fill="none" stroke="#9a32cd" stroke-dasharray="5,2" d="M107.1555,-68.7379C113.3513,-53.1484 121.818,-31.845 126.6677,-19.6426"/>
<polygon fill="#9a32cd" stroke="#9a32cd" points="103.7421,-67.85 103.3012,-78.4357 110.2472,-70.4354 103.7421,-67.85"/>
<text text-anchor="middle" x="124" y="-52" font-family="Helvetica,sans-Serif" font-size="10.00" fill="#000000"> x</text>
<text text-anchor="middle" x="124" y="-41" font-family="Helvetica,sans-Serif" font-size="10.00" fill="#000000">z</text>
</g>
<!-- Node7&#45;&gt;Node6 -->
<g id="edge7" class="edge">
<title>Node7&#45;&gt;Node6</title>
<path fill="none" stroke="#9a32cd" stroke-dasharray="5,2" d="M99.5,-135.1079C99.5,-122.714 99.5,-107.3263 99.5,-97.5817"/>
<polygon fill="#9a32cd" stroke="#9a32cd" points="96.0001,-135.4005 99.5,-145.4005 103.0001,-135.4006 96.0001,-135.4005"/>
<text text-anchor="middle" x="106.5" y="-119" font-family="Helvetica,sans-Serif" font-size="10.00" fill="#000000"> ev</text>
</g>
<!-- Node8 -->
<g id="node8" class="node">
<title>Node8</title>
<polygon fill="none" stroke="#bfbfbf" points="0,-212.5 0,-231.5 113,-231.5 113,-212.5 0,-212.5"/>
<text text-anchor="middle" x="56.5" y="-219.5" font-family="Helvetica,sans-Serif" font-size="10.00" fill="#000000">Comparable&lt; Event &gt;</text>
</g>
<!-- Node8&#45;&gt;Node7 -->
<g id="edge8" class="edge">
<title>Node8&#45;&gt;Node7</title>
<path fill="none" stroke="#191970" d="M68.0649,-203.9803C76.2037,-191.2989 86.7775,-174.8235 93.3506,-164.5817"/>
<polygon fill="#191970" stroke="#191970" points="65.1166,-202.0942 62.6609,-212.4005 71.0077,-205.8751 65.1166,-202.0942"/>
</g>
</g>
</svg>
