<?xml version="1.0" encoding="UTF-8" standalone="no"?>
<!DOCTYPE svg PUBLIC "-//W3C//DTD SVG 1.1//EN"
 "http://www.w3.org/Graphics/SVG/1.1/DTD/svg11.dtd">
<!-- Generated by graphviz version 2.40.1 (0)
 -->
<!-- Title: KorobovLatticeSequence Pages: 1 -->
<svg width="133pt" height="266pt"
 viewBox="0.00 0.00 133.00 266.00" xmlns="http://www.w3.org/2000/svg" xmlns:xlink="http://www.w3.org/1999/xlink">
<g id="graph0" class="graph" transform="scale(1 1) rotate(0) translate(4 262)">
<title>KorobovLatticeSequence</title>
<!-- Node4 -->
<g id="node1" class="node">
<title>Node4</title>
<g id="a_node1"><a xlink:title=" ">
<polygon fill="#bfbfbf" stroke="#000000" points="0,-.5 0,-19.5 125,-19.5 125,-.5 0,-.5"/>
<text text-anchor="middle" x="62.5" y="-7.5" font-family="Helvetica,sans-Serif" font-size="10.00" fill="#000000">KorobovLatticeSequence</text>
</a>
</g>
</g>
<!-- Node5 -->
<g id="node2" class="node">
<title>Node5</title>
<g id="a_node2"><a xlink:href="classumontreal_1_1ssj_1_1hups_1_1KorobovLattice.html" target="_top" xlink:title="This class implements Korobov lattices, which represents the same point sets as in class LCGPointSet,...">
<polygon fill="none" stroke="#000000" points="21.5,-57.5 21.5,-76.5 103.5,-76.5 103.5,-57.5 21.5,-57.5"/>
<text text-anchor="middle" x="62.5" y="-64.5" font-family="Helvetica,sans-Serif" font-size="10.00" fill="#000000">KorobovLattice</text>
</a>
</g>
</g>
<!-- Node5&#45;&gt;Node4 -->
<g id="edge1" class="edge">
<title>Node5&#45;&gt;Node4</title>
<path fill="none" stroke="#191970" d="M62.5,-47.2342C62.5,-37.8491 62.5,-27.0651 62.5,-19.5265"/>
<polygon fill="#191970" stroke="#191970" points="59.0001,-47.3307 62.5,-57.3307 66.0001,-47.3308 59.0001,-47.3307"/>
</g>
<!-- Node6 -->
<g id="node3" class="node">
<title>Node6</title>
<g id="a_node3"><a xlink:href="classumontreal_1_1ssj_1_1hups_1_1Rank1Lattice.html" target="_top" xlink:title="This class implements point sets specified by integration lattices of rank.">
<polygon fill="none" stroke="#000000" points="25.5,-114.5 25.5,-133.5 99.5,-133.5 99.5,-114.5 25.5,-114.5"/>
<text text-anchor="middle" x="62.5" y="-121.5" font-family="Helvetica,sans-Serif" font-size="10.00" fill="#000000">Rank1Lattice</text>
</a>
</g>
</g>
<!-- Node6&#45;&gt;Node5 -->
<g id="edge2" class="edge">
<title>Node6&#45;&gt;Node5</title>
<path fill="none" stroke="#191970" d="M62.5,-104.2342C62.5,-94.8491 62.5,-84.0651 62.5,-76.5265"/>
<polygon fill="#191970" stroke="#191970" points="59.0001,-104.3307 62.5,-114.3307 66.0001,-104.3308 59.0001,-104.3307"/>
</g>
<!-- Node7 -->
<g id="node4" class="node">
<title>Node7</title>
<g id="a_node4"><a xlink:href="classumontreal_1_1ssj_1_1hups_1_1PointSet.html" target="_top" xlink:title="This abstract class defines the basic methods for accessing and manipulating point sets.">
<polygon fill="none" stroke="#000000" points="35.5,-171.5 35.5,-190.5 89.5,-190.5 89.5,-171.5 35.5,-171.5"/>
<text text-anchor="middle" x="62.5" y="-178.5" font-family="Helvetica,sans-Serif" font-size="10.00" fill="#000000">PointSet</text>
</a>
</g>
</g>
<!-- Node7&#45;&gt;Node6 -->
<g id="edge3" class="edge">
<title>Node7&#45;&gt;Node6</title>
<path fill="none" stroke="#191970" d="M62.5,-161.2342C62.5,-151.8491 62.5,-141.0651 62.5,-133.5265"/>
<polygon fill="#191970" stroke="#191970" points="59.0001,-161.3307 62.5,-171.3307 66.0001,-161.3308 59.0001,-161.3307"/>
</g>
<!-- Node8 -->
<g id="node5" class="node">
<title>Node8</title>
<g id="a_node5"><a xlink:href="interfaceumontreal_1_1ssj_1_1rng_1_1RandomStream.html" target="_top" xlink:title="This interface defines the basic structures to handle multiple streams of uniform (pseudo)random numb...">
<polygon fill="none" stroke="#000000" points="20,-238.5 20,-257.5 105,-257.5 105,-238.5 20,-238.5"/>
<text text-anchor="middle" x="62.5" y="-245.5" font-family="Helvetica,sans-Serif" font-size="10.00" fill="#000000">RandomStream</text>
</a>
</g>
</g>
<!-- Node8&#45;&gt;Node7 -->
<g id="edge4" class="edge">
<title>Node8&#45;&gt;Node7</title>
<path fill="none" stroke="#9a32cd" stroke-dasharray="5,2" d="M62.5,-228.1079C62.5,-215.714 62.5,-200.3263 62.5,-190.5817"/>
<polygon fill="#9a32cd" stroke="#9a32cd" points="59.0001,-228.4005 62.5,-238.4005 66.0001,-228.4006 59.0001,-228.4005"/>
<text text-anchor="middle" x="89.5" y="-212" font-family="Helvetica,sans-Serif" font-size="10.00" fill="#000000"> shiftStream</text>
</g>
</g>
</svg>
