<?xml version="1.0" encoding="UTF-8" standalone="no"?>
<!DOCTYPE svg PUBLIC "-//W3C//DTD SVG 1.1//EN"
 "http://www.w3.org/Graphics/SVG/1.1/DTD/svg11.dtd">
<!-- Generated by graphviz version 2.38.0 (20140413.2041)
 -->
<!-- Title: Continuous Pages: 1 -->
<svg width="290pt" height="286pt"
 viewBox="0.00 0.00 289.50 286.00" xmlns="http://www.w3.org/2000/svg" xmlns:xlink="http://www.w3.org/1999/xlink">
<g id="graph0" class="graph" transform="scale(1 1) rotate(0) translate(4 282)">
<title>Continuous</title>
<!-- Node3 -->
<g id="node1" class="node"><title>Node3</title>
<polygon fill="#bfbfbf" stroke="black" points="57.5,-0.5 57.5,-19.5 123.5,-19.5 123.5,-0.5 57.5,-0.5"/>
<text text-anchor="middle" x="90.5" y="-7.5" font-family="Helvetica,sans-Serif" font-size="10.00">Continuous</text>
</g>
<!-- Node4 -->
<g id="node2" class="node"><title>Node4</title>
<g id="a_node2"><a xlink:href="classumontreal_1_1ssj_1_1simevents_1_1Event.html" target="_top" xlink:title="This abstract class provides event scheduling tools. ">
<polygon fill="none" stroke="black" points="69.5,-67.5 69.5,-86.5 111.5,-86.5 111.5,-67.5 69.5,-67.5"/>
<text text-anchor="middle" x="90.5" y="-74.5" font-family="Helvetica,sans-Serif" font-size="10.00">Event</text>
</a>
</g>
</g>
<!-- Node4&#45;&gt;Node3 -->
<g id="edge1" class="edge"><title>Node4&#45;&gt;Node3</title>
<path fill="none" stroke="#9a32cd" stroke-dasharray="5,2" d="M90.5,-57.037C90.5,-44.6703 90.5,-29.1198 90.5,-19.6273"/>
<polygon fill="#9a32cd" stroke="#9a32cd" points="87.0001,-57.2338 90.5,-67.2338 94.0001,-57.2338 87.0001,-57.2338"/>
<text text-anchor="middle" x="97.5" y="-41" font-family="Helvetica,sans-Serif" font-size="10.00"> ev</text>
</g>
<!-- Node5 -->
<g id="node3" class="node"><title>Node5</title>
<polygon fill="none" stroke="#bfbfbf" points="0,-134.5 0,-153.5 113,-153.5 113,-134.5 0,-134.5"/>
<text text-anchor="middle" x="56.5" y="-141.5" font-family="Helvetica,sans-Serif" font-size="10.00">Comparable&lt; Event &gt;</text>
</g>
<!-- Node5&#45;&gt;Node4 -->
<g id="edge2" class="edge"><title>Node5&#45;&gt;Node4</title>
<path fill="none" stroke="midnightblue" d="M65.8299,-125.163C72.3868,-112.628 80.87,-96.4104 85.9873,-86.6273"/>
<polygon fill="midnightblue" stroke="midnightblue" points="62.6191,-123.751 61.0854,-134.234 68.8218,-126.995 62.6191,-123.751"/>
</g>
<!-- Node6 -->
<g id="node4" class="node"><title>Node6</title>
<g id="a_node4"><a xlink:href="classumontreal_1_1ssj_1_1simevents_1_1Simulator.html" target="_top" xlink:title="Represents the executive of a discrete&#45;event simulator. ">
<polygon fill="none" stroke="black" points="131.5,-134.5 131.5,-153.5 189.5,-153.5 189.5,-134.5 131.5,-134.5"/>
<text text-anchor="middle" x="160.5" y="-141.5" font-family="Helvetica,sans-Serif" font-size="10.00">Simulator</text>
</a>
</g>
</g>
<!-- Node6&#45;&gt;Node4 -->
<g id="edge3" class="edge"><title>Node6&#45;&gt;Node4</title>
<path fill="none" stroke="#9a32cd" stroke-dasharray="5,2" d="M143.653,-127.356C129.891,-114.578 110.952,-96.9915 99.7909,-86.6273"/>
<polygon fill="#9a32cd" stroke="#9a32cd" points="141.35,-129.994 151.059,-134.234 146.113,-124.864 141.35,-129.994"/>
<text text-anchor="middle" x="139" y="-108" font-family="Helvetica,sans-Serif" font-size="10.00"> sim</text>
</g>
<!-- Node6&#45;&gt;Node6 -->
<g id="edge4" class="edge"><title>Node6&#45;&gt;Node6</title>
<path fill="none" stroke="#9a32cd" stroke-dasharray="5,2" d="M200.103,-149.084C204.591,-148.132 207.5,-146.438 207.5,-144 207.5,-140 199.667,-138 189.875,-138"/>
<polygon fill="#9a32cd" stroke="#9a32cd" points="199.523,-145.622 189.875,-150 200.147,-152.594 199.523,-145.622"/>
<text text-anchor="middle" x="244.5" y="-141.5" font-family="Helvetica,sans-Serif" font-size="10.00"> defaultSimulator</text>
</g>
<!-- Node7 -->
<g id="node5" class="node"><title>Node7</title>
<g id="a_node5"><a xlink:href="interfaceumontreal_1_1ssj_1_1simevents_1_1eventlist_1_1EventList.html" target="_top" xlink:title="An interface for implementations of event lists. ">
<polygon fill="none" stroke="black" points="78.5,-201.5 78.5,-220.5 136.5,-220.5 136.5,-201.5 78.5,-201.5"/>
<text text-anchor="middle" x="107.5" y="-208.5" font-family="Helvetica,sans-Serif" font-size="10.00">EventList</text>
</a>
</g>
</g>
<!-- Node7&#45;&gt;Node6 -->
<g id="edge5" class="edge"><title>Node7&#45;&gt;Node6</title>
<path fill="none" stroke="#9a32cd" stroke-dasharray="5,2" d="M116.7,-192.41C120.559,-185.726 125.348,-178.228 130.5,-172 136.128,-165.197 143.483,-158.55 149.502,-153.553"/>
<polygon fill="#9a32cd" stroke="#9a32cd" points="113.521,-190.928 111.777,-201.378 119.657,-194.297 113.521,-190.928"/>
<text text-anchor="middle" x="152" y="-175" font-family="Helvetica,sans-Serif" font-size="10.00"> eventList</text>
</g>
<!-- Node8 -->
<g id="node6" class="node"><title>Node8</title>
<polygon fill="none" stroke="#bfbfbf" points="61.5,-258.5 61.5,-277.5 153.5,-277.5 153.5,-258.5 61.5,-258.5"/>
<text text-anchor="middle" x="107.5" y="-265.5" font-family="Helvetica,sans-Serif" font-size="10.00">Iterable&lt; Event &gt;</text>
</g>
<!-- Node8&#45;&gt;Node7 -->
<g id="edge6" class="edge"><title>Node8&#45;&gt;Node7</title>
<path fill="none" stroke="midnightblue" d="M107.5,-248.117C107.5,-238.817 107.5,-228.056 107.5,-220.715"/>
<polygon fill="midnightblue" stroke="midnightblue" points="104,-248.406 107.5,-258.406 111,-248.406 104,-248.406"/>
</g>
<!-- Node9 -->
<g id="node7" class="node"><title>Node9</title>
<g id="a_node7"><a xlink:href="classumontreal_1_1ssj_1_1simevents_1_1ContinuousState.html" target="_top" xlink:title="Represents the portion of the simulator’s state associated with continuous&#45;time simulation. ">
<polygon fill="none" stroke="black" points="155,-201.5 155,-220.5 244,-220.5 244,-201.5 155,-201.5"/>
<text text-anchor="middle" x="199.5" y="-208.5" font-family="Helvetica,sans-Serif" font-size="10.00">ContinuousState</text>
</a>
</g>
</g>
<!-- Node9&#45;&gt;Node6 -->
<g id="edge7" class="edge"><title>Node9&#45;&gt;Node6</title>
<path fill="none" stroke="#9a32cd" stroke-dasharray="5,2" d="M189.021,-192.535C181.47,-179.95 171.604,-163.507 165.676,-153.627"/>
<polygon fill="#9a32cd" stroke="#9a32cd" points="186.094,-194.46 194.24,-201.234 192.097,-190.858 186.094,-194.46"/>
<text text-anchor="middle" x="218.5" y="-175" font-family="Helvetica,sans-Serif" font-size="10.00"> continuousState</text>
</g>
</g>
</svg>
