<?xml version="1.0" encoding="UTF-8" standalone="no"?>
<!DOCTYPE svg PUBLIC "-//W3C//DTD SVG 1.1//EN"
 "http://www.w3.org/Graphics/SVG/1.1/DTD/svg11.dtd">
<!-- Generated by graphviz version 2.40.1 (20161225.0304)
 -->
<!-- Title: PartialVariance Pages: 1 -->
<svg width="403pt" height="162pt"
 viewBox="0.00 0.00 402.50 162.00" xmlns="http://www.w3.org/2000/svg" xmlns:xlink="http://www.w3.org/1999/xlink">
<g id="graph0" class="graph" transform="scale(1 1) rotate(0) translate(4 158)">
<title>PartialVariance</title>
<!-- Node5 -->
<g id="node1" class="node">
<title>Node5</title>
<polygon fill="#bfbfbf" stroke="#000000" points="150,-.5 150,-19.5 232,-19.5 232,-.5 150,-.5"/>
<text text-anchor="middle" x="191" y="-7.5" font-family="Helvetica,sans-Serif" font-size="10.00" fill="#000000">PartialVariance</text>
</g>
<!-- Node6 -->
<g id="node2" class="node">
<title>Node6</title>
<g id="a_node2"><a xlink:href="classumontreal_1_1ssj_1_1stat_1_1Tally.html" target="_top" xlink:title="A subclass of StatProbe. ">
<polygon fill="none" stroke="#000000" points="89.5,-67.5 89.5,-86.5 126.5,-86.5 126.5,-67.5 89.5,-67.5"/>
<text text-anchor="middle" x="108" y="-74.5" font-family="Helvetica,sans-Serif" font-size="10.00" fill="#000000">Tally</text>
</a>
</g>
</g>
<!-- Node6&#45;&gt;Node5 -->
<g id="edge1" class="edge">
<title>Node6&#45;&gt;Node5</title>
<path fill="none" stroke="#191970" d="M120.3794,-59.0805C125.8541,-51.9683 132.7032,-44.0577 140,-38 148.782,-30.7093 159.7479,-24.3994 169.2587,-19.625"/>
<polygon fill="#191970" stroke="#191970" points="117.3273,-57.3249 114.2496,-67.4629 122.9777,-61.4569 117.3273,-57.3249"/>
</g>
<!-- Node6&#45;&gt;Node5 -->
<g id="edge7" class="edge">
<title>Node6&#45;&gt;Node5</title>
<path fill="none" stroke="#9a32cd" stroke-dasharray="5,2" d="M128.0697,-60.7992C144.033,-47.9131 165.8266,-30.3207 179.1302,-19.5817"/>
<polygon fill="#9a32cd" stroke="#9a32cd" points="125.4746,-58.3959 119.8919,-67.4005 129.8715,-63.8427 125.4746,-58.3959"/>
<text text-anchor="middle" x="173.5" y="-41" font-family="Helvetica,sans-Serif" font-size="10.00" fill="#000000"> totalVar</text>
</g>
<!-- Node7 -->
<g id="node3" class="node">
<title>Node7</title>
<g id="a_node3"><a xlink:href="classumontreal_1_1ssj_1_1stat_1_1StatProbe.html" target="_top" xlink:title="The objects of this class are statistical probes or collectors, which are elementary devices for coll...">
<polygon fill="none" stroke="#000000" points="0,-134.5 0,-153.5 60,-153.5 60,-134.5 0,-134.5"/>
<text text-anchor="middle" x="30" y="-141.5" font-family="Helvetica,sans-Serif" font-size="10.00" fill="#000000">StatProbe</text>
</a>
</g>
</g>
<!-- Node7&#45;&gt;Node6 -->
<g id="edge2" class="edge">
<title>Node7&#45;&gt;Node6</title>
<path fill="none" stroke="#191970" d="M48.8606,-127.7992C63.8624,-114.9131 84.3431,-97.3207 96.8452,-86.5817"/>
<polygon fill="#191970" stroke="#191970" points="46.4806,-125.2296 41.1755,-134.4005 51.0418,-130.5396 46.4806,-125.2296"/>
</g>
<!-- Node8 -->
<g id="node4" class="node">
<title>Node8</title>
<polygon fill="none" stroke="#bfbfbf" points="78,-134.5 78,-153.5 138,-153.5 138,-134.5 78,-134.5"/>
<text text-anchor="middle" x="108" y="-141.5" font-family="Helvetica,sans-Serif" font-size="10.00" fill="#000000">Cloneable</text>
</g>
<!-- Node8&#45;&gt;Node6 -->
<g id="edge3" class="edge">
<title>Node8&#45;&gt;Node6</title>
<path fill="none" stroke="#191970" d="M108,-124.1079C108,-111.714 108,-96.3263 108,-86.5817"/>
<polygon fill="#191970" stroke="#191970" points="104.5001,-124.4005 108,-134.4005 111.5001,-124.4006 104.5001,-124.4005"/>
</g>
<!-- Node9 -->
<g id="node5" class="node">
<title>Node9</title>
<polygon fill="none" stroke="#bfbfbf" points="156.5,-134.5 156.5,-153.5 227.5,-153.5 227.5,-134.5 156.5,-134.5"/>
<text text-anchor="middle" x="192" y="-141.5" font-family="Helvetica,sans-Serif" font-size="10.00" fill="#000000">Tally.CIType</text>
</g>
<!-- Node9&#45;&gt;Node6 -->
<g id="edge4" class="edge">
<title>Node9&#45;&gt;Node6</title>
<path fill="none" stroke="#9a32cd" stroke-dasharray="5,2" d="M172.1358,-128.1559C155.942,-115.2395 133.6013,-97.4201 120.0128,-86.5817"/>
<polygon fill="#9a32cd" stroke="#9a32cd" points="169.9646,-130.9011 179.9648,-134.4005 174.3295,-125.4287 169.9646,-130.9011"/>
<text text-anchor="middle" x="197.5" y="-108" font-family="Helvetica,sans-Serif" font-size="10.00" fill="#000000"> confidenceInterval</text>
</g>
<!-- Node10 -->
<g id="node6" class="node">
<title>Node10</title>
<polygon fill="none" stroke="#bfbfbf" points="145,-67.5 145,-86.5 297,-86.5 297,-67.5 145,-67.5"/>
<text text-anchor="middle" x="221" y="-74.5" font-family="Helvetica,sans-Serif" font-size="10.00" fill="#000000">Comparable&lt; PartialVariance &gt;</text>
</g>
<!-- Node10&#45;&gt;Node5 -->
<g id="edge5" class="edge">
<title>Node10&#45;&gt;Node5</title>
<path fill="none" stroke="#191970" d="M212.5988,-58.2374C206.9678,-45.6614 199.7871,-29.6246 195.2903,-19.5817"/>
<polygon fill="#191970" stroke="#191970" points="209.4206,-59.704 216.7017,-67.4005 215.8094,-56.8433 209.4206,-59.704"/>
</g>
<!-- Node11 -->
<g id="node7" class="node">
<title>Node11</title>
<g id="a_node7"><a xlink:href="classumontreal_1_1ssj_1_1mcqmctools_1_1anova_1_1CoordinateSet.html" target="_top" xlink:title="Represents a set of coordinates. ">
<polygon fill="none" stroke="#000000" points="315.5,-67.5 315.5,-86.5 394.5,-86.5 394.5,-67.5 315.5,-67.5"/>
<text text-anchor="middle" x="355" y="-74.5" font-family="Helvetica,sans-Serif" font-size="10.00" fill="#000000">CoordinateSet</text>
</a>
</g>
</g>
<!-- Node11&#45;&gt;Node5 -->
<g id="edge6" class="edge">
<title>Node11&#45;&gt;Node5</title>
<path fill="none" stroke="#9a32cd" stroke-dasharray="5,2" d="M322.1525,-63.5806C290.2738,-50.557 242.6873,-31.1162 214.4536,-19.5817"/>
<polygon fill="#9a32cd" stroke="#9a32cd" points="320.9218,-66.8586 331.5028,-67.4005 323.5692,-60.3785 320.9218,-66.8586"/>
<text text-anchor="middle" x="298.5" y="-41" font-family="Helvetica,sans-Serif" font-size="10.00" fill="#000000"> coords</text>
</g>
</g>
</svg>
