<?xml version="1.0" encoding="UTF-8" standalone="no"?>
<!DOCTYPE svg PUBLIC "-//W3C//DTD SVG 1.1//EN"
 "http://www.w3.org/Graphics/SVG/1.1/DTD/svg11.dtd">
<!-- Generated by graphviz version 2.40.1 (0)
 -->
<!-- Title: PODWeights Pages: 1 -->
<svg width="642pt" height="110pt"
 viewBox="0.00 0.00 642.00 109.50" xmlns="http://www.w3.org/2000/svg" xmlns:xlink="http://www.w3.org/1999/xlink">
<g id="graph0" class="graph" transform="scale(1 1) rotate(0) translate(4 105.5)">
<title>PODWeights</title>
<!-- Node2 -->
<g id="node1" class="node">
<title>Node2</title>
<g id="a_node1"><a xlink:title="This class implements so&#45;called product&#45; and order dependent weights (POD weights).">
<polygon fill="#bfbfbf" stroke="#000000" points="560,-38.5 560,-57.5 634,-57.5 634,-38.5 560,-38.5"/>
<text text-anchor="middle" x="597" y="-45.5" font-family="Helvetica,sans-Serif" font-size="10.00" fill="#000000">PODWeights</text>
</a>
</g>
</g>
<!-- Node3 -->
<g id="node2" class="node">
<title>Node3</title>
<g id="a_node2"><a xlink:href="classumontreal_1_1ssj_1_1latnetbuilder_1_1weights_1_1Weights.html" target="_top" xlink:title="This abstract class implements generic weights that can be used to search for good quasi&#45;Monte Carlo ...">
<polygon fill="none" stroke="#000000" points="314.5,-76.5 314.5,-95.5 391.5,-95.5 391.5,-76.5 314.5,-76.5"/>
<text text-anchor="middle" x="353" y="-83.5" font-family="Helvetica,sans-Serif" font-size="10.00" fill="#000000">Weights&lt; T &gt;</text>
</a>
</g>
</g>
<!-- Node3&#45;&gt;Node2 -->
<g id="edge1" class="edge">
<title>Node3&#45;&gt;Node2</title>
<path fill="none" stroke="#191970" d="M401.9913,-82.0054C440.3273,-78.4068 494.858,-72.2461 542,-63 549.5756,-61.5142 557.6407,-59.5413 565.1938,-57.516"/>
<polygon fill="#191970" stroke="#191970" points="401.2674,-78.5569 391.6276,-82.9529 401.9048,-85.5278 401.2674,-78.5569"/>
</g>
<!-- Node4 -->
<g id="node3" class="node">
<title>Node4</title>
<g id="a_node3"><a xlink:title=" ">
<polygon fill="none" stroke="#bfbfbf" points="0,-71 0,-101 218,-101 218,-71 0,-71"/>
<text text-anchor="start" x="8" y="-89" font-family="Helvetica,sans-Serif" font-size="10.00" fill="#000000">ArrayList&lt; umontreal.ssj.latnetbuilder.weights.</text>
<text text-anchor="middle" x="109" y="-78" font-family="Helvetica,sans-Serif" font-size="10.00" fill="#000000">SingletonWeight&lt; T &gt; &gt;</text>
</a>
</g>
</g>
<!-- Node4&#45;&gt;Node3 -->
<g id="edge2" class="edge">
<title>Node4&#45;&gt;Node3</title>
<path fill="none" stroke="#9a32cd" stroke-dasharray="5,2" d="M228.2572,-86C259.4328,-86 290.8473,-86 314.3522,-86"/>
<polygon fill="#9a32cd" stroke="#9a32cd" points="228.1541,-82.5001 218.154,-86 228.154,-89.5001 228.1541,-82.5001"/>
<text text-anchor="middle" x="254.5" y="-89" font-family="Helvetica,sans-Serif" font-size="10.00" fill="#000000"> weights</text>
</g>
<!-- Node5 -->
<g id="node4" class="node">
<title>Node5</title>
<g id="a_node4"><a xlink:href="classumontreal_1_1ssj_1_1latnetbuilder_1_1weights_1_1OrderDependentWeights.html" target="_top" xlink:title="Class implementing order dependent weights.">
<polygon fill="none" stroke="#000000" points="291,-38.5 291,-57.5 415,-57.5 415,-38.5 291,-38.5"/>
<text text-anchor="middle" x="353" y="-45.5" font-family="Helvetica,sans-Serif" font-size="10.00" fill="#000000">OrderDependentWeights</text>
</a>
</g>
</g>
<!-- Node5&#45;&gt;Node2 -->
<g id="edge3" class="edge">
<title>Node5&#45;&gt;Node2</title>
<path fill="none" stroke="#9a32cd" stroke-dasharray="5,2" d="M425.34,-48C469.599,-48 524.372,-48 559.9707,-48"/>
<polygon fill="#9a32cd" stroke="#9a32cd" points="425.2029,-44.5001 415.2028,-48 425.2028,-51.5001 425.2029,-44.5001"/>
<text text-anchor="middle" x="487.5" y="-51" font-family="Helvetica,sans-Serif" font-size="10.00" fill="#000000"> orderDependentWeights</text>
</g>
<!-- Node6 -->
<g id="node5" class="node">
<title>Node6</title>
<g id="a_node5"><a xlink:href="classumontreal_1_1ssj_1_1latnetbuilder_1_1weights_1_1WeightsComparable.html" target="_top" xlink:title=" ">
<polygon fill="none" stroke="#000000" points="53.5,-13 53.5,-43 164.5,-43 164.5,-13 53.5,-13"/>
<text text-anchor="start" x="61.5" y="-31" font-family="Helvetica,sans-Serif" font-size="10.00" fill="#000000">WeightsComparable&lt;</text>
<text text-anchor="middle" x="109" y="-20" font-family="Helvetica,sans-Serif" font-size="10.00" fill="#000000"> Integer &gt;</text>
</a>
</g>
</g>
<!-- Node6&#45;&gt;Node5 -->
<g id="edge4" class="edge">
<title>Node6&#45;&gt;Node5</title>
<path fill="none" stroke="#191970" d="M175.0699,-33.4156C211.0531,-36.365 255.3204,-39.9935 290.699,-42.8934"/>
<polygon fill="#191970" stroke="#191970" points="174.9252,-29.8921 164.6727,-32.5633 174.3533,-36.8687 174.9252,-29.8921"/>
</g>
<!-- Node7 -->
<g id="node6" class="node">
<title>Node7</title>
<g id="a_node6"><a xlink:href="classumontreal_1_1ssj_1_1latnetbuilder_1_1weights_1_1ProductWeights.html" target="_top" xlink:title="Class implementing product weights.">
<polygon fill="none" stroke="#000000" points="310,-.5 310,-19.5 396,-19.5 396,-.5 310,-.5"/>
<text text-anchor="middle" x="353" y="-7.5" font-family="Helvetica,sans-Serif" font-size="10.00" fill="#000000">ProductWeights</text>
</a>
</g>
</g>
<!-- Node6&#45;&gt;Node7 -->
<g id="edge6" class="edge">
<title>Node6&#45;&gt;Node7</title>
<path fill="none" stroke="#191970" d="M174.7336,-23.1508C217.5784,-19.9901 272.2782,-15.9549 309.7175,-13.193"/>
<polygon fill="#191970" stroke="#191970" points="174.3881,-19.6667 164.6727,-23.893 174.9031,-26.6477 174.3881,-19.6667"/>
</g>
<!-- Node7&#45;&gt;Node2 -->
<g id="edge5" class="edge">
<title>Node7&#45;&gt;Node2</title>
<path fill="none" stroke="#9a32cd" stroke-dasharray="5,2" d="M406.3991,-14.413C444.4323,-18.0625 496.637,-24.1028 542,-33 549.5756,-34.4858 557.6407,-36.4587 565.1938,-38.484"/>
<polygon fill="#9a32cd" stroke="#9a32cd" points="406.3476,-10.893 396.0651,-13.4466 405.6958,-17.8625 406.3476,-10.893"/>
<text text-anchor="middle" x="487.5" y="-36" font-family="Helvetica,sans-Serif" font-size="10.00" fill="#000000"> productWeights</text>
</g>
</g>
</svg>
