<?xml version="1.0" encoding="UTF-8" standalone="no"?>
<!DOCTYPE svg PUBLIC "-//W3C//DTD SVG 1.1//EN"
 "http://www.w3.org/Graphics/SVG/1.1/DTD/svg11.dtd">
<!-- Generated by graphviz version 2.40.1 (20161225.0304)
 -->
<!-- Title: TransformingList&lt; OE, IE &gt; Pages: 1 -->
<svg width="136pt" height="218pt"
 viewBox="0.00 0.00 136.00 218.00" xmlns="http://www.w3.org/2000/svg" xmlns:xlink="http://www.w3.org/1999/xlink">
<g id="graph0" class="graph" transform="scale(1 1) rotate(0) translate(4 214)">
<title>TransformingList&lt; OE, IE &gt;</title>
<!-- Node0 -->
<g id="node1" class="node">
<title>Node0</title>
<polygon fill="#bfbfbf" stroke="#000000" points="6.5,-123.5 6.5,-153.5 121.5,-153.5 121.5,-123.5 6.5,-123.5"/>
<text text-anchor="start" x="14.5" y="-141.5" font-family="Helvetica,sans-Serif" font-size="10.00" fill="#000000">TransformingList&lt; OE,</text>
<text text-anchor="middle" x="64" y="-130.5" font-family="Helvetica,sans-Serif" font-size="10.00" fill="#000000"> IE &gt;</text>
</g>
<!-- Node2 -->
<g id="node3" class="node">
<title>Node2</title>
<g id="a_node3"><a xlink:href="classumontreal_1_1ssj_1_1simevents_1_1ListWithStat.html" target="_top" xlink:title="Implements a list with integrated statistical probes to provide automatic collection of statistics on...">
<polygon fill="none" stroke="#000000" points="0,-56.5 0,-86.5 128,-86.5 128,-56.5 0,-56.5"/>
<text text-anchor="start" x="8" y="-74.5" font-family="Helvetica,sans-Serif" font-size="10.00" fill="#000000">ListWithStat&lt; E, ListWith</text>
<text text-anchor="middle" x="64" y="-63.5" font-family="Helvetica,sans-Serif" font-size="10.00" fill="#000000">Stat.Node&lt; E &gt; &gt;</text>
</a>
</g>
</g>
<!-- Node0&#45;&gt;Node2 -->
<g id="edge2" class="edge">
<title>Node0&#45;&gt;Node2</title>
<path fill="none" stroke="#191970" d="M64,-113.0249C64,-104.128 64,-94.4287 64,-86.6432"/>
<polygon fill="#191970" stroke="#191970" points="60.5001,-113.2966 64,-123.2967 67.5001,-113.2967 60.5001,-113.2966"/>
</g>
<!-- Node1 -->
<g id="node2" class="node">
<title>Node1</title>
<polygon fill="none" stroke="#bfbfbf" points="13.5,-190.5 13.5,-209.5 114.5,-209.5 114.5,-190.5 13.5,-190.5"/>
<text text-anchor="middle" x="64" y="-197.5" font-family="Helvetica,sans-Serif" font-size="10.00" fill="#000000">AbstractList&lt; OE &gt;</text>
</g>
<!-- Node1&#45;&gt;Node0 -->
<g id="edge1" class="edge">
<title>Node1&#45;&gt;Node0</title>
<path fill="none" stroke="#191970" d="M64,-180.3693C64,-171.681 64,-161.6241 64,-153.5446"/>
<polygon fill="#191970" stroke="#191970" points="60.5001,-180.3906 64,-190.3906 67.5001,-180.3907 60.5001,-180.3906"/>
</g>
<!-- Node3 -->
<g id="node4" class="node">
<title>Node3</title>
<g id="a_node4"><a xlink:href="classumontreal_1_1ssj_1_1simevents_1_1LinkedListStat.html" target="_top" xlink:title="This class extends ListWithStat, and uses a linked list as the internal data structure. ">
<polygon fill="none" stroke="#000000" points="12,-.5 12,-19.5 116,-19.5 116,-.5 12,-.5"/>
<text text-anchor="middle" x="64" y="-7.5" font-family="Helvetica,sans-Serif" font-size="10.00" fill="#000000">LinkedListStat&lt; E &gt;</text>
</a>
</g>
</g>
<!-- Node2&#45;&gt;Node3 -->
<g id="edge3" class="edge">
<title>Node2&#45;&gt;Node3</title>
<path fill="none" stroke="#191970" d="M64,-46.2849C64,-36.9858 64,-26.9883 64,-19.8469"/>
<polygon fill="#191970" stroke="#191970" points="60.5001,-46.2977 64,-56.2977 67.5001,-46.2978 60.5001,-46.2977"/>
</g>
</g>
</svg>
