<?xml version="1.0" encoding="UTF-8" standalone="no"?>
<!DOCTYPE svg PUBLIC "-//W3C//DTD SVG 1.1//EN"
 "http://www.w3.org/Graphics/SVG/1.1/DTD/svg11.dtd">
<!-- Generated by graphviz version 2.40.1 (20161225.0304)
 -->
<!-- Title: MultivariateBrownianMotion Pages: 1 -->
<svg width="659pt" height="127pt"
 viewBox="0.00 0.00 659.00 127.00" xmlns="http://www.w3.org/2000/svg" xmlns:xlink="http://www.w3.org/1999/xlink">
<g id="graph0" class="graph" transform="scale(1 1) rotate(0) translate(4 123)">
<title>MultivariateBrownianMotion</title>
<!-- Node0 -->
<g id="node1" class="node">
<title>Node0</title>
<polygon fill="#bfbfbf" stroke="#000000" points="320,-50 320,-69 457,-69 457,-50 320,-50"/>
<text text-anchor="middle" x="388.5" y="-57" font-family="Helvetica,sans-Serif" font-size="10.00" fill="#000000">MultivariateBrownianMotion</text>
</g>
<!-- Node3 -->
<g id="node4" class="node">
<title>Node3</title>
<g id="a_node4"><a xlink:href="classumontreal_1_1ssj_1_1stochprocess_1_1MultivariateBrownianMotionBridge.html" target="_top" xlink:title="A multivariate Brownian motion process &#160;sampled via bridge sampling. ">
<polygon fill="none" stroke="#000000" points="503.5,-88.5 503.5,-118.5 640.5,-118.5 640.5,-88.5 503.5,-88.5"/>
<text text-anchor="start" x="511.5" y="-106.5" font-family="Helvetica,sans-Serif" font-size="10.00" fill="#000000">MultivariateBrownianMotion</text>
<text text-anchor="middle" x="572" y="-95.5" font-family="Helvetica,sans-Serif" font-size="10.00" fill="#000000">Bridge</text>
</a>
</g>
</g>
<!-- Node0&#45;&gt;Node3 -->
<g id="edge3" class="edge">
<title>Node0&#45;&gt;Node3</title>
<path fill="none" stroke="#191970" d="M438.0619,-71.384C459.9527,-76.6331 485.9394,-82.8642 509.1706,-88.4346"/>
<polygon fill="#191970" stroke="#191970" points="438.8573,-67.9756 428.3168,-69.0473 437.225,-74.7827 438.8573,-67.9756"/>
</g>
<!-- Node4 -->
<g id="node5" class="node">
<title>Node4</title>
<g id="a_node5"><a xlink:href="classumontreal_1_1ssj_1_1stochprocess_1_1MultivariateBrownianMotionPCA.html" target="_top" xlink:title="A multivariate Brownian motion process &#160;sampled entirely using the principal component decomposition ...">
<polygon fill="none" stroke="#000000" points="493,-50 493,-69 651,-69 651,-50 493,-50"/>
<text text-anchor="middle" x="572" y="-57" font-family="Helvetica,sans-Serif" font-size="10.00" fill="#000000">MultivariateBrownianMotionPCA</text>
</a>
</g>
</g>
<!-- Node0&#45;&gt;Node4 -->
<g id="edge4" class="edge">
<title>Node0&#45;&gt;Node4</title>
<path fill="none" stroke="#191970" d="M467.3564,-59.5C475.8509,-59.5 484.4959,-59.5 492.9922,-59.5"/>
<polygon fill="#191970" stroke="#191970" points="467.0896,-56.0001 457.0896,-59.5 467.0895,-63.0001 467.0896,-56.0001"/>
</g>
<!-- Node5 -->
<g id="node6" class="node">
<title>Node5</title>
<g id="a_node6"><a xlink:href="classumontreal_1_1ssj_1_1stochprocess_1_1MultivariateBrownianMotionPCABigSigma.html" target="_top" xlink:title="A multivariate Brownian motion process &#160;sampled entirely using the principal component decomposition ...">
<polygon fill="none" stroke="#000000" points="503.5,-.5 503.5,-30.5 640.5,-30.5 640.5,-.5 503.5,-.5"/>
<text text-anchor="start" x="511.5" y="-18.5" font-family="Helvetica,sans-Serif" font-size="10.00" fill="#000000">MultivariateBrownianMotion</text>
<text text-anchor="middle" x="572" y="-7.5" font-family="Helvetica,sans-Serif" font-size="10.00" fill="#000000">PCABigSigma</text>
</a>
</g>
</g>
<!-- Node0&#45;&gt;Node5 -->
<g id="edge5" class="edge">
<title>Node0&#45;&gt;Node5</title>
<path fill="none" stroke="#191970" d="M438.0619,-47.616C459.9527,-42.3669 485.9394,-36.1358 509.1706,-30.5654"/>
<polygon fill="#191970" stroke="#191970" points="437.225,-44.2173 428.3168,-49.9527 438.8573,-51.0244 437.225,-44.2173"/>
</g>
<!-- Node1 -->
<g id="node2" class="node">
<title>Node1</title>
<g id="a_node2"><a xlink:href="classumontreal_1_1ssj_1_1stochprocess_1_1MultivariateStochasticProcess.html" target="_top" xlink:title="This class is a multivariate version of StochasticProcess where the process evolves in the &#45;dimension...">
<polygon fill="none" stroke="#000000" points="135,-50 135,-69 284,-69 284,-50 135,-50"/>
<text text-anchor="middle" x="209.5" y="-57" font-family="Helvetica,sans-Serif" font-size="10.00" fill="#000000">MultivariateStochasticProcess</text>
</a>
</g>
</g>
<!-- Node1&#45;&gt;Node0 -->
<g id="edge1" class="edge">
<title>Node1&#45;&gt;Node0</title>
<path fill="none" stroke="#191970" d="M294.1369,-59.5C302.7127,-59.5 311.3483,-59.5 319.7274,-59.5"/>
<polygon fill="#191970" stroke="#191970" points="294.116,-56.0001 284.1159,-59.5 294.1159,-63.0001 294.116,-56.0001"/>
</g>
<!-- Node2 -->
<g id="node3" class="node">
<title>Node2</title>
<g id="a_node3"><a xlink:href="classumontreal_1_1ssj_1_1stochprocess_1_1StochasticProcess.html" target="_top" xlink:title="Abstract base class for a stochastic process &#160;sampled (or observed) at a finite number of time points...">
<polygon fill="none" stroke="#000000" points="0,-50 0,-69 99,-69 99,-50 0,-50"/>
<text text-anchor="middle" x="49.5" y="-57" font-family="Helvetica,sans-Serif" font-size="10.00" fill="#000000">StochasticProcess</text>
</a>
</g>
</g>
<!-- Node2&#45;&gt;Node1 -->
<g id="edge2" class="edge">
<title>Node2&#45;&gt;Node1</title>
<path fill="none" stroke="#191970" d="M109.5173,-59.5C117.7757,-59.5 126.3376,-59.5 134.8194,-59.5"/>
<polygon fill="#191970" stroke="#191970" points="109.248,-56.0001 99.2479,-59.5 109.2479,-63.0001 109.248,-56.0001"/>
</g>
</g>
</svg>
