<?xml version="1.0" encoding="UTF-8" standalone="no"?>
<!DOCTYPE svg PUBLIC "-//W3C//DTD SVG 1.1//EN"
 "http://www.w3.org/Graphics/SVG/1.1/DTD/svg11.dtd">
<!-- Generated by graphviz version 2.40.1 (20161225.0304)
 -->
<!-- Title: RandomShift Pages: 1 -->
<svg width="212pt" height="140pt"
 viewBox="0.00 0.00 211.50 140.00" xmlns="http://www.w3.org/2000/svg" xmlns:xlink="http://www.w3.org/1999/xlink">
<g id="graph0" class="graph" transform="scale(1 1) rotate(0) translate(4 136)">
<title>RandomShift</title>
<!-- Node0 -->
<g id="node1" class="node">
<title>Node0</title>
<polygon fill="#bfbfbf" stroke="#000000" points="64,-56.5 64,-75.5 138,-75.5 138,-56.5 64,-56.5"/>
<text text-anchor="middle" x="101" y="-63.5" font-family="Helvetica,sans-Serif" font-size="10.00" fill="#000000">RandomShift</text>
</g>
<!-- Node2 -->
<g id="node3" class="node">
<title>Node2</title>
<g id="a_node3"><a xlink:href="classumontreal_1_1ssj_1_1hups_1_1LMScrambleShift.html" target="_top" xlink:title="This class implements a umontreal.ssj.hups.PointSetRandomization that performs a left matrix scrambli...">
<polygon fill="none" stroke="#000000" points="0,-.5 0,-19.5 92,-19.5 92,-.5 0,-.5"/>
<text text-anchor="middle" x="46" y="-7.5" font-family="Helvetica,sans-Serif" font-size="10.00" fill="#000000">LMScrambleShift</text>
</a>
</g>
</g>
<!-- Node0&#45;&gt;Node2 -->
<g id="edge2" class="edge">
<title>Node0&#45;&gt;Node2</title>
<path fill="none" stroke="#191970" d="M84.3774,-49.0751C74.9145,-39.4402 63.4031,-27.7196 55.4705,-19.6427"/>
<polygon fill="#191970" stroke="#191970" points="81.9155,-51.5635 91.4197,-56.2455 86.9097,-46.6585 81.9155,-51.5635"/>
</g>
<!-- Node3 -->
<g id="node4" class="node">
<title>Node3</title>
<g id="a_node4"><a xlink:href="classumontreal_1_1ssj_1_1hups_1_1SMScrambleShift.html" target="_top" xlink:title="This class implements a umontreal.ssj.hups.PointSetRandomization that performs a striped matrix scram...">
<polygon fill="none" stroke="#000000" points="110.5,-.5 110.5,-19.5 203.5,-19.5 203.5,-.5 110.5,-.5"/>
<text text-anchor="middle" x="157" y="-7.5" font-family="Helvetica,sans-Serif" font-size="10.00" fill="#000000">SMScrambleShift</text>
</a>
</g>
</g>
<!-- Node0&#45;&gt;Node3 -->
<g id="edge3" class="edge">
<title>Node0&#45;&gt;Node3</title>
<path fill="none" stroke="#191970" d="M117.9249,-49.0751C127.5598,-39.4402 139.2804,-27.7196 147.3573,-19.6427"/>
<polygon fill="#191970" stroke="#191970" points="115.3507,-46.6996 110.7545,-56.2455 120.3004,-51.6493 115.3507,-46.6996"/>
</g>
<!-- Node1 -->
<g id="node2" class="node">
<title>Node1</title>
<g id="a_node2"><a xlink:href="interfaceumontreal_1_1ssj_1_1hups_1_1PointSetRandomization.html" target="_top" xlink:title="This interface is used to randomize a umontreal.ssj.hups.PointSet. ">
<polygon fill="none" stroke="#000000" points="41.5,-112.5 41.5,-131.5 160.5,-131.5 160.5,-112.5 41.5,-112.5"/>
<text text-anchor="middle" x="101" y="-119.5" font-family="Helvetica,sans-Serif" font-size="10.00" fill="#000000">PointSetRandomization</text>
</a>
</g>
</g>
<!-- Node1&#45;&gt;Node0 -->
<g id="edge1" class="edge">
<title>Node1&#45;&gt;Node0</title>
<path fill="none" stroke="#191970" d="M101,-102.1575C101,-93.155 101,-82.9199 101,-75.6427"/>
<polygon fill="#191970" stroke="#191970" points="97.5001,-102.2455 101,-112.2455 104.5001,-102.2456 97.5001,-102.2455"/>
</g>
</g>
</svg>
