<?xml version="1.0" encoding="UTF-8" standalone="no"?>
<!DOCTYPE svg PUBLIC "-//W3C//DTD SVG 1.1//EN"
 "http://www.w3.org/Graphics/SVG/1.1/DTD/svg11.dtd">
<!-- Generated by graphviz version 2.38.0 (20140413.2041)
 -->
<!-- Title: ObservationCollectorList&lt; E &gt; Pages: 1 -->
<svg width="316pt" height="95pt"
 viewBox="0.00 0.00 315.50 95.00" xmlns="http://www.w3.org/2000/svg" xmlns:xlink="http://www.w3.org/1999/xlink">
<g id="graph0" class="graph" transform="scale(1 1) rotate(0) translate(4 91)">
<title>ObservationCollectorList&lt; E &gt;</title>
<!-- Node0 -->
<g id="node1" class="node"><title>Node0</title>
<polygon fill="#bfbfbf" stroke="black" points="84.5,-0.5 84.5,-19.5 233.5,-19.5 233.5,-0.5 84.5,-0.5"/>
<text text-anchor="middle" x="159" y="-7.5" font-family="Helvetica,sans-Serif" font-size="10.00">ObservationCollectorList&lt; E &gt;</text>
</g>
<!-- Node1 -->
<g id="node2" class="node"><title>Node1</title>
<polygon fill="none" stroke="#bfbfbf" points="0,-56.5 0,-86.5 156,-86.5 156,-56.5 0,-56.5"/>
<text text-anchor="start" x="8" y="-74.5" font-family="Helvetica,sans-Serif" font-size="10.00">ArrayList&lt; ObservationCollector</text>
<text text-anchor="middle" x="78" y="-63.5" font-family="Helvetica,sans-Serif" font-size="10.00">&lt;? super E &gt; &gt;</text>
</g>
<!-- Node1&#45;&gt;Node0 -->
<g id="edge1" class="edge"><title>Node1&#45;&gt;Node0</title>
<path fill="none" stroke="midnightblue" d="M105.651,-50.1886C119.832,-39.7719 136.357,-27.6329 147.214,-19.6578"/>
<polygon fill="midnightblue" stroke="midnightblue" points="103.183,-47.6584 97.1959,-56.3993 107.327,-53.2999 103.183,-47.6584"/>
</g>
<!-- Node2 -->
<g id="node3" class="node"><title>Node2</title>
<g id="a_node3"><a xlink:href="interfaceumontreal_1_1ssj_1_1mcqmctools_1_1anova_1_1ObservationCollector.html" target="_top" xlink:title="ObservationCollector\&lt; E \&gt;">
<polygon fill="none" stroke="black" points="174.5,-62 174.5,-81 307.5,-81 307.5,-62 174.5,-62"/>
<text text-anchor="middle" x="241" y="-69" font-family="Helvetica,sans-Serif" font-size="10.00">ObservationCollector&lt; E &gt;</text>
</a>
</g>
</g>
<!-- Node2&#45;&gt;Node0 -->
<g id="edge2" class="edge"><title>Node2&#45;&gt;Node0</title>
<path fill="none" stroke="midnightblue" d="M220.733,-55.7938C205.003,-44.3803 183.748,-28.9577 170.727,-19.5091"/>
<polygon fill="midnightblue" stroke="midnightblue" points="219.102,-58.935 229.251,-61.9751 223.213,-53.2693 219.102,-58.935"/>
</g>
</g>
</svg>
