<?xml version="1.0" encoding="UTF-8" standalone="no"?>
<!DOCTYPE svg PUBLIC "-//W3C//DTD SVG 1.1//EN"
 "http://www.w3.org/Graphics/SVG/1.1/DTD/svg11.dtd">
<!-- Generated by graphviz version 2.40.1 (20161225.0304)
 -->
<!-- Title: ErlangConvolutionGen Pages: 1 -->
<svg width="178pt" height="266pt"
 viewBox="0.00 0.00 177.50 266.00" xmlns="http://www.w3.org/2000/svg" xmlns:xlink="http://www.w3.org/1999/xlink">
<g id="graph0" class="graph" transform="scale(1 1) rotate(0) translate(4 262)">
<title>ErlangConvolutionGen</title>
<!-- Node4 -->
<g id="node1" class="node">
<title>Node4</title>
<polygon fill="#bfbfbf" stroke="#000000" points="23,-.5 23,-19.5 137,-19.5 137,-.5 23,-.5"/>
<text text-anchor="middle" x="80" y="-7.5" font-family="Helvetica,sans-Serif" font-size="10.00" fill="#000000">ErlangConvolutionGen</text>
</g>
<!-- Node5 -->
<g id="node2" class="node">
<title>Node5</title>
<g id="a_node2"><a xlink:href="classumontreal_1_1ssj_1_1randvar_1_1ErlangGen.html" target="_top" xlink:title="This class implements random variate generators for the Erlang distribution with parameters &#160;and ...">
<polygon fill="none" stroke="#000000" points="49,-57.5 49,-76.5 111,-76.5 111,-57.5 49,-57.5"/>
<text text-anchor="middle" x="80" y="-64.5" font-family="Helvetica,sans-Serif" font-size="10.00" fill="#000000">ErlangGen</text>
</a>
</g>
</g>
<!-- Node5&#45;&gt;Node4 -->
<g id="edge1" class="edge">
<title>Node5&#45;&gt;Node4</title>
<path fill="none" stroke="#191970" d="M80,-47.2342C80,-37.8491 80,-27.0651 80,-19.5265"/>
<polygon fill="#191970" stroke="#191970" points="76.5001,-47.3307 80,-57.3307 83.5001,-47.3308 76.5001,-47.3307"/>
</g>
<!-- Node6 -->
<g id="node3" class="node">
<title>Node6</title>
<g id="a_node3"><a xlink:href="classumontreal_1_1ssj_1_1randvar_1_1GammaGen.html" target="_top" xlink:title="This class implements random variate generators for the gamma distribution. ">
<polygon fill="none" stroke="#000000" points="45.5,-114.5 45.5,-133.5 114.5,-133.5 114.5,-114.5 45.5,-114.5"/>
<text text-anchor="middle" x="80" y="-121.5" font-family="Helvetica,sans-Serif" font-size="10.00" fill="#000000">GammaGen</text>
</a>
</g>
</g>
<!-- Node6&#45;&gt;Node5 -->
<g id="edge2" class="edge">
<title>Node6&#45;&gt;Node5</title>
<path fill="none" stroke="#191970" d="M80,-104.2342C80,-94.8491 80,-84.0651 80,-76.5265"/>
<polygon fill="#191970" stroke="#191970" points="76.5001,-104.3307 80,-114.3307 83.5001,-104.3308 76.5001,-104.3307"/>
</g>
<!-- Node7 -->
<g id="node4" class="node">
<title>Node7</title>
<g id="a_node4"><a xlink:href="classumontreal_1_1ssj_1_1randvar_1_1RandomVariateGen.html" target="_top" xlink:title="This is the base class for all random variate generators over the real line. ">
<polygon fill="none" stroke="#000000" points="29.5,-171.5 29.5,-190.5 130.5,-190.5 130.5,-171.5 29.5,-171.5"/>
<text text-anchor="middle" x="80" y="-178.5" font-family="Helvetica,sans-Serif" font-size="10.00" fill="#000000">RandomVariateGen</text>
</a>
</g>
</g>
<!-- Node7&#45;&gt;Node6 -->
<g id="edge3" class="edge">
<title>Node7&#45;&gt;Node6</title>
<path fill="none" stroke="#191970" d="M80,-161.2342C80,-151.8491 80,-141.0651 80,-133.5265"/>
<polygon fill="#191970" stroke="#191970" points="76.5001,-161.3307 80,-171.3307 83.5001,-161.3308 76.5001,-161.3307"/>
</g>
<!-- Node8 -->
<g id="node5" class="node">
<title>Node8</title>
<g id="a_node5"><a xlink:href="interfaceumontreal_1_1ssj_1_1probdist_1_1Distribution.html" target="_top" xlink:title="This interface should be implemented by all classes supporting discrete and continuous distributions...">
<polygon fill="none" stroke="#000000" points="0,-238.5 0,-257.5 66,-257.5 66,-238.5 0,-238.5"/>
<text text-anchor="middle" x="33" y="-245.5" font-family="Helvetica,sans-Serif" font-size="10.00" fill="#000000">Distribution</text>
</a>
</g>
</g>
<!-- Node8&#45;&gt;Node7 -->
<g id="edge4" class="edge">
<title>Node8&#45;&gt;Node7</title>
<path fill="none" stroke="#9a32cd" stroke-dasharray="5,2" d="M45.6407,-229.9803C54.5366,-217.2989 66.094,-200.8235 73.2785,-190.5817"/>
<polygon fill="#9a32cd" stroke="#9a32cd" points="42.6115,-228.2039 39.734,-238.4005 48.3421,-232.2239 42.6115,-228.2039"/>
<text text-anchor="middle" x="69.5" y="-212" font-family="Helvetica,sans-Serif" font-size="10.00" fill="#000000"> dist</text>
</g>
<!-- Node9 -->
<g id="node6" class="node">
<title>Node9</title>
<g id="a_node6"><a xlink:href="interfaceumontreal_1_1ssj_1_1rng_1_1RandomStream.html" target="_top" xlink:title="This interface defines the basic structures to handle multiple streams of uniform (pseudo)random numb...">
<polygon fill="none" stroke="#000000" points="84.5,-238.5 84.5,-257.5 169.5,-257.5 169.5,-238.5 84.5,-238.5"/>
<text text-anchor="middle" x="127" y="-245.5" font-family="Helvetica,sans-Serif" font-size="10.00" fill="#000000">RandomStream</text>
</a>
</g>
</g>
<!-- Node9&#45;&gt;Node7 -->
<g id="edge5" class="edge">
<title>Node9&#45;&gt;Node7</title>
<path fill="none" stroke="#9a32cd" stroke-dasharray="5,2" d="M114.3593,-229.9803C105.4634,-217.2989 93.906,-200.8235 86.7215,-190.5817"/>
<polygon fill="#9a32cd" stroke="#9a32cd" points="111.6579,-232.2239 120.266,-238.4005 117.3885,-228.2039 111.6579,-232.2239"/>
<text text-anchor="middle" x="123" y="-212" font-family="Helvetica,sans-Serif" font-size="10.00" fill="#000000"> stream</text>
</g>
</g>
</svg>
