<?xml version="1.0" encoding="UTF-8" standalone="no"?>
<!DOCTYPE svg PUBLIC "-//W3C//DTD SVG 1.1//EN"
 "http://www.w3.org/Graphics/SVG/1.1/DTD/svg11.dtd">
<!-- Generated by graphviz version 2.40.1 (20161225.0304)
 -->
<!-- Title: CycleBasedPointSetBase2.CycleBasedPointSetBase2Iterator Pages: 1 -->
<svg width="212pt" height="174pt"
 viewBox="0.00 0.00 211.50 174.00" xmlns="http://www.w3.org/2000/svg" xmlns:xlink="http://www.w3.org/1999/xlink">
<g id="graph0" class="graph" transform="scale(1 1) rotate(0) translate(4 170)">
<title>CycleBasedPointSetBase2.CycleBasedPointSetBase2Iterator</title>
<!-- Node3 -->
<g id="node1" class="node">
<title>Node3</title>
<polygon fill="#bfbfbf" stroke="#000000" points="30,-.5 30,-30.5 196,-30.5 196,-.5 30,-.5"/>
<text text-anchor="start" x="38" y="-18.5" font-family="Helvetica,sans-Serif" font-size="10.00" fill="#000000">CycleBasedPointSetBase2.</text>
<text text-anchor="middle" x="113" y="-7.5" font-family="Helvetica,sans-Serif" font-size="10.00" fill="#000000">CycleBasedPointSetBase2Iterator</text>
</g>
<!-- Node4 -->
<g id="node2" class="node">
<title>Node4</title>
<g id="a_node2"><a xlink:href="classumontreal_1_1ssj_1_1hups_1_1CycleBasedPointSet_1_1CycleBasedPointSetIterator.html" target="_top" xlink:title="CycleBasedPointSet.Cycle\lBasedPointSetIterator">
<polygon fill="none" stroke="#000000" points="45,-68.5 45,-98.5 181,-98.5 181,-68.5 45,-68.5"/>
<text text-anchor="start" x="53" y="-86.5" font-family="Helvetica,sans-Serif" font-size="10.00" fill="#000000">CycleBasedPointSet.Cycle</text>
<text text-anchor="middle" x="113" y="-75.5" font-family="Helvetica,sans-Serif" font-size="10.00" fill="#000000">BasedPointSetIterator</text>
</a>
</g>
</g>
<!-- Node4&#45;&gt;Node3 -->
<g id="edge1" class="edge">
<title>Node4&#45;&gt;Node3</title>
<path fill="none" stroke="#191970" d="M113,-58.1174C113,-48.8378 113,-38.6413 113,-30.5492"/>
<polygon fill="#191970" stroke="#191970" points="109.5001,-58.4086 113,-68.4086 116.5001,-58.4086 109.5001,-58.4086"/>
</g>
<!-- Node5 -->
<g id="node3" class="node">
<title>Node5</title>
<polygon fill="none" stroke="#bfbfbf" points="0,-146.5 0,-165.5 116,-165.5 116,-146.5 0,-146.5"/>
<text text-anchor="middle" x="58" y="-153.5" font-family="Helvetica,sans-Serif" font-size="10.00" fill="#000000">DefaultPointSetIterator</text>
</g>
<!-- Node5&#45;&gt;Node4 -->
<g id="edge2" class="edge">
<title>Node5&#45;&gt;Node4</title>
<path fill="none" stroke="#191970" d="M71.5242,-138.1727C80.7206,-126.0502 92.7571,-110.1838 101.4932,-98.668"/>
<polygon fill="#191970" stroke="#191970" points="68.673,-136.14 65.4175,-146.2223 74.2499,-140.3708 68.673,-136.14"/>
</g>
<!-- Node6 -->
<g id="node4" class="node">
<title>Node6</title>
<polygon fill="none" stroke="#bfbfbf" points="134.5,-146.5 134.5,-165.5 203.5,-165.5 203.5,-146.5 134.5,-146.5"/>
<text text-anchor="middle" x="169" y="-153.5" font-family="Helvetica,sans-Serif" font-size="10.00" fill="#000000">AbstractList</text>
</g>
<!-- Node6&#45;&gt;Node4 -->
<g id="edge3" class="edge">
<title>Node6&#45;&gt;Node4</title>
<path fill="none" stroke="#9a32cd" stroke-dasharray="5,2" d="M155.2299,-138.1727C145.8663,-126.0502 133.611,-110.1838 124.716,-98.668"/>
<polygon fill="#9a32cd" stroke="#9a32cd" points="152.5647,-140.4478 161.4476,-146.2223 158.1046,-136.1687 152.5647,-140.4478"/>
<text text-anchor="middle" x="167.5" y="-120" font-family="Helvetica,sans-Serif" font-size="10.00" fill="#000000"> curCycle</text>
</g>
</g>
</svg>
