<?xml version="1.0" encoding="UTF-8" standalone="no"?>
<!DOCTYPE svg PUBLIC "-//W3C//DTD SVG 1.1//EN"
 "http://www.w3.org/Graphics/SVG/1.1/DTD/svg11.dtd">
<!-- Generated by graphviz version 2.40.1 (0)
 -->
<!-- Title: MarkovChain Pages: 1 -->
<svg width="341pt" height="252pt"
 viewBox="0.00 0.00 341.00 252.00" xmlns="http://www.w3.org/2000/svg" xmlns:xlink="http://www.w3.org/1999/xlink">
<g id="graph0" class="graph" transform="scale(1 1) rotate(0) translate(4 248)">
<title>MarkovChain</title>
<!-- Node0 -->
<g id="node1" class="node">
<title>Node0</title>
<g id="a_node1"><a xlink:title="This class defines a generic Markov chain and provides basic tools to simulate it for a given number ...">
<polygon fill="#bfbfbf" stroke="#000000" points="105.5,-168.5 105.5,-187.5 179.5,-187.5 179.5,-168.5 105.5,-168.5"/>
<text text-anchor="middle" x="142.5" y="-175.5" font-family="Helvetica,sans-Serif" font-size="10.00" fill="#000000">MarkovChain</text>
</a>
</g>
</g>
<!-- Node2 -->
<g id="node3" class="node">
<title>Node2</title>
<g id="a_node3"><a xlink:href="classumontreal_1_1ssj_1_1markovchainrqmc_1_1MarkovChainComparable.html" target="_top" xlink:title="A subclass of MarkovChain for which there is a total ordering between the states, induced by the impl...">
<polygon fill="none" stroke="#000000" points="79,-112.5 79,-131.5 206,-131.5 206,-112.5 79,-112.5"/>
<text text-anchor="middle" x="142.5" y="-119.5" font-family="Helvetica,sans-Serif" font-size="10.00" fill="#000000">MarkovChainComparable</text>
</a>
</g>
</g>
<!-- Node0&#45;&gt;Node2 -->
<g id="edge2" class="edge">
<title>Node0&#45;&gt;Node2</title>
<path fill="none" stroke="#191970" d="M142.5,-158.1575C142.5,-149.155 142.5,-138.9199 142.5,-131.6427"/>
<polygon fill="#191970" stroke="#191970" points="139.0001,-158.2455 142.5,-168.2455 146.0001,-158.2456 139.0001,-158.2455"/>
</g>
<!-- Node1 -->
<g id="node2" class="node">
<title>Node1</title>
<g id="a_node2"><a xlink:title=" ">
<polygon fill="none" stroke="#bfbfbf" points="112.5,-224.5 112.5,-243.5 172.5,-243.5 172.5,-224.5 112.5,-224.5"/>
<text text-anchor="middle" x="142.5" y="-231.5" font-family="Helvetica,sans-Serif" font-size="10.00" fill="#000000">Cloneable</text>
</a>
</g>
</g>
<!-- Node1&#45;&gt;Node0 -->
<g id="edge1" class="edge">
<title>Node1&#45;&gt;Node0</title>
<path fill="none" stroke="#191970" d="M142.5,-214.1575C142.5,-205.155 142.5,-194.9199 142.5,-187.6427"/>
<polygon fill="#191970" stroke="#191970" points="139.0001,-214.2455 142.5,-224.2455 146.0001,-214.2456 139.0001,-214.2455"/>
</g>
<!-- Node3 -->
<g id="node4" class="node">
<title>Node3</title>
<g id="a_node4"><a xlink:href="classmarkovchainrqmc_1_1Brownian.html" target="_top" xlink:title=" ">
<polygon fill="none" stroke="#000000" points="0,-56.5 0,-75.5 57,-75.5 57,-56.5 0,-56.5"/>
<text text-anchor="middle" x="28.5" y="-63.5" font-family="Helvetica,sans-Serif" font-size="10.00" fill="#000000">Brownian</text>
</a>
</g>
</g>
<!-- Node2&#45;&gt;Node3 -->
<g id="edge3" class="edge">
<title>Node2&#45;&gt;Node3</title>
<path fill="none" stroke="#191970" d="M113.6679,-107.8368C93.0605,-97.7139 65.8918,-84.3679 47.8416,-75.5011"/>
<polygon fill="#191970" stroke="#191970" points="112.384,-111.1056 122.9027,-112.3733 115.4703,-104.8227 112.384,-111.1056"/>
</g>
<!-- Node4 -->
<g id="node5" class="node">
<title>Node4</title>
<g id="a_node5"><a xlink:href="classumontreal_1_1ssj_1_1markovchainrqmc_1_1florian_1_1chemicalReactionNetworks_1_1ChemicalReactionNetwork.html" target="_top" xlink:title="Implements an abstract class to simulate chemical reaction networks with Gillespie&#39;s &#160;algorithm.">
<polygon fill="none" stroke="#000000" points="75.5,-56.5 75.5,-75.5 209.5,-75.5 209.5,-56.5 75.5,-56.5"/>
<text text-anchor="middle" x="142.5" y="-63.5" font-family="Helvetica,sans-Serif" font-size="10.00" fill="#000000">ChemicalReactionNetwork</text>
</a>
</g>
</g>
<!-- Node2&#45;&gt;Node4 -->
<g id="edge4" class="edge">
<title>Node2&#45;&gt;Node4</title>
<path fill="none" stroke="#191970" d="M142.5,-102.1575C142.5,-93.155 142.5,-82.9199 142.5,-75.6427"/>
<polygon fill="#191970" stroke="#191970" points="139.0001,-102.2455 142.5,-112.2455 146.0001,-102.2456 139.0001,-102.2455"/>
</g>
<!-- Node8 -->
<g id="node9" class="node">
<title>Node8</title>
<g id="a_node9"><a xlink:href="classumontreal_1_1ssj_1_1markovchainrqmc_1_1MarkovChainDouble.html" target="_top" xlink:title="A special kind of Markov chain whose state space is a subset of the real numbers.">
<polygon fill="none" stroke="#000000" points="228,-56.5 228,-75.5 333,-75.5 333,-56.5 228,-56.5"/>
<text text-anchor="middle" x="280.5" y="-63.5" font-family="Helvetica,sans-Serif" font-size="10.00" fill="#000000">MarkovChainDouble</text>
</a>
</g>
</g>
<!-- Node2&#45;&gt;Node8 -->
<g id="edge8" class="edge">
<title>Node2&#45;&gt;Node8</title>
<path fill="none" stroke="#191970" d="M175.7213,-108.5189C200.854,-98.3201 234.7418,-84.5685 257.0865,-75.5011"/>
<polygon fill="#191970" stroke="#191970" points="174.1731,-105.3699 166.223,-112.3733 176.8053,-111.8562 174.1731,-105.3699"/>
</g>
<!-- Node5 -->
<g id="node6" class="node">
<title>Node5</title>
<g id="a_node6"><a xlink:href="classumontreal_1_1ssj_1_1markovchainrqmc_1_1florian_1_1chemicalReactionNetworks_1_1PKA.html" target="_top" xlink:title="Implements the #ChemicalReactionNetwork for the cyclic AMP activation of PKA, see Koh and Blackwell &#39;...">
<polygon fill="none" stroke="#000000" points="26,-.5 26,-19.5 63,-19.5 63,-.5 26,-.5"/>
<text text-anchor="middle" x="44.5" y="-7.5" font-family="Helvetica,sans-Serif" font-size="10.00" fill="#000000">PKA</text>
</a>
</g>
</g>
<!-- Node4&#45;&gt;Node5 -->
<g id="edge5" class="edge">
<title>Node4&#45;&gt;Node5</title>
<path fill="none" stroke="#191970" d="M116.3314,-51.0465C98.8942,-41.0824 76.4889,-28.2794 61.3747,-19.6427"/>
<polygon fill="#191970" stroke="#191970" points="115.0108,-54.323 125.4297,-56.2455 118.4838,-48.2453 115.0108,-54.323"/>
</g>
<!-- Node6 -->
<g id="node7" class="node">
<title>Node6</title>
<g id="a_node7"><a xlink:href="classumontreal_1_1ssj_1_1markovchainrqmc_1_1florian_1_1chemicalReactionNetworks_1_1ReversibleIsomerization.html" target="_top" xlink:title="Implements the Reversible Isomerization example from, e.g., Beentjes and Baker &#39;18.">
<polygon fill="none" stroke="#000000" points="81.5,-.5 81.5,-19.5 203.5,-19.5 203.5,-.5 81.5,-.5"/>
<text text-anchor="middle" x="142.5" y="-7.5" font-family="Helvetica,sans-Serif" font-size="10.00" fill="#000000">ReversibleIsomerization</text>
</a>
</g>
</g>
<!-- Node4&#45;&gt;Node6 -->
<g id="edge6" class="edge">
<title>Node4&#45;&gt;Node6</title>
<path fill="none" stroke="#191970" d="M142.5,-46.1575C142.5,-37.155 142.5,-26.9199 142.5,-19.6427"/>
<polygon fill="#191970" stroke="#191970" points="139.0001,-46.2455 142.5,-56.2455 146.0001,-46.2456 139.0001,-46.2455"/>
</g>
<!-- Node7 -->
<g id="node8" class="node">
<title>Node7</title>
<g id="a_node8"><a xlink:href="classumontreal_1_1ssj_1_1markovchainrqmc_1_1florian_1_1chemicalReactionNetworks_1_1SchloeglSystem.html" target="_top" xlink:title="Implements the Schloegl system, see, e.g., Beentjes and Baker &#39;18.">
<polygon fill="none" stroke="#000000" points="221.5,-.5 221.5,-19.5 309.5,-19.5 309.5,-.5 221.5,-.5"/>
<text text-anchor="middle" x="265.5" y="-7.5" font-family="Helvetica,sans-Serif" font-size="10.00" fill="#000000">SchloeglSystem</text>
</a>
</g>
</g>
<!-- Node4&#45;&gt;Node7 -->
<g id="edge7" class="edge">
<title>Node4&#45;&gt;Node7</title>
<path fill="none" stroke="#191970" d="M173.0065,-52.1109C195.3112,-41.9559 224.9799,-28.4482 244.6315,-19.5011"/>
<polygon fill="#191970" stroke="#191970" points="171.2953,-49.0442 163.6445,-56.3733 174.1959,-55.415 171.2953,-49.0442"/>
</g>
</g>
</svg>
