<?xml version="1.0" encoding="UTF-8" standalone="no"?>
<!DOCTYPE svg PUBLIC "-//W3C//DTD SVG 1.1//EN"
 "http://www.w3.org/Graphics/SVG/1.1/DTD/svg11.dtd">
<!-- Generated by graphviz version 2.40.1 (0)
 -->
<!-- Title: PreyPred.Preds Pages: 1 -->
<svg width="290pt" height="343pt"
 viewBox="0.00 0.00 289.50 343.00" xmlns="http://www.w3.org/2000/svg" xmlns:xlink="http://www.w3.org/1999/xlink">
<g id="graph0" class="graph" transform="scale(1 1) rotate(0) translate(4 339)">
<title>PreyPred.Preds</title>
<!-- Node2 -->
<g id="node1" class="node">
<title>Node2</title>
<g id="a_node1"><a xlink:title=" ">
<polygon fill="#bfbfbf" stroke="#000000" points="29.5,-.5 29.5,-19.5 115.5,-19.5 115.5,-.5 29.5,-.5"/>
<text text-anchor="middle" x="72.5" y="-7.5" font-family="Helvetica,sans-Serif" font-size="10.00" fill="#000000">PreyPred.Preds</text>
</a>
</g>
</g>
<!-- Node3 -->
<g id="node2" class="node">
<title>Node3</title>
<g id="a_node2"><a xlink:href="classumontreal_1_1ssj_1_1simevents_1_1Continuous.html" target="_top" xlink:title="Represents a variable in a continuous&#45;time simulation.">
<polygon fill="none" stroke="#000000" points="39.5,-57.5 39.5,-76.5 105.5,-76.5 105.5,-57.5 39.5,-57.5"/>
<text text-anchor="middle" x="72.5" y="-64.5" font-family="Helvetica,sans-Serif" font-size="10.00" fill="#000000">Continuous</text>
</a>
</g>
</g>
<!-- Node3&#45;&gt;Node2 -->
<g id="edge1" class="edge">
<title>Node3&#45;&gt;Node2</title>
<path fill="none" stroke="#191970" d="M72.5,-47.2342C72.5,-37.8491 72.5,-27.0651 72.5,-19.5265"/>
<polygon fill="#191970" stroke="#191970" points="69.0001,-47.3307 72.5,-57.3307 76.0001,-47.3308 69.0001,-47.3307"/>
</g>
<!-- Node4 -->
<g id="node3" class="node">
<title>Node4</title>
<g id="a_node3"><a xlink:href="classumontreal_1_1ssj_1_1simevents_1_1Event.html" target="_top" xlink:title="This abstract class provides event scheduling tools.">
<polygon fill="none" stroke="#000000" points="51.5,-124.5 51.5,-143.5 93.5,-143.5 93.5,-124.5 51.5,-124.5"/>
<text text-anchor="middle" x="72.5" y="-131.5" font-family="Helvetica,sans-Serif" font-size="10.00" fill="#000000">Event</text>
</a>
</g>
</g>
<!-- Node4&#45;&gt;Node3 -->
<g id="edge2" class="edge">
<title>Node4&#45;&gt;Node3</title>
<path fill="none" stroke="#9a32cd" stroke-dasharray="5,2" d="M72.5,-114.1079C72.5,-101.714 72.5,-86.3263 72.5,-76.5817"/>
<polygon fill="#9a32cd" stroke="#9a32cd" points="69.0001,-114.4005 72.5,-124.4005 76.0001,-114.4006 69.0001,-114.4005"/>
<text text-anchor="middle" x="79.5" y="-98" font-family="Helvetica,sans-Serif" font-size="10.00" fill="#000000"> ev</text>
</g>
<!-- Node5 -->
<g id="node4" class="node">
<title>Node5</title>
<g id="a_node4"><a xlink:title=" ">
<polygon fill="none" stroke="#bfbfbf" points="0,-191.5 0,-210.5 113,-210.5 113,-191.5 0,-191.5"/>
<text text-anchor="middle" x="56.5" y="-198.5" font-family="Helvetica,sans-Serif" font-size="10.00" fill="#000000">Comparable&lt; Event &gt;</text>
</a>
</g>
</g>
<!-- Node5&#45;&gt;Node4 -->
<g id="edge3" class="edge">
<title>Node5&#45;&gt;Node4</title>
<path fill="none" stroke="#191970" d="M61.16,-181.4863C64.135,-169.0286 67.861,-153.4258 70.2118,-143.5817"/>
<polygon fill="#191970" stroke="#191970" points="57.711,-180.861 58.7924,-191.4005 64.5195,-182.487 57.711,-180.861"/>
</g>
<!-- Node6 -->
<g id="node5" class="node">
<title>Node6</title>
<g id="a_node5"><a xlink:href="classumontreal_1_1ssj_1_1simevents_1_1Simulator.html" target="_top" xlink:title="Represents the executive of a discrete&#45;event simulator.">
<polygon fill="none" stroke="#000000" points="131.5,-191.5 131.5,-210.5 189.5,-210.5 189.5,-191.5 131.5,-191.5"/>
<text text-anchor="middle" x="160.5" y="-198.5" font-family="Helvetica,sans-Serif" font-size="10.00" fill="#000000">Simulator</text>
</a>
</g>
</g>
<!-- Node6&#45;&gt;Node4 -->
<g id="edge4" class="edge">
<title>Node6&#45;&gt;Node4</title>
<path fill="none" stroke="#9a32cd" stroke-dasharray="5,2" d="M139.6899,-185.1559C122.725,-172.2395 99.3204,-154.4201 85.0849,-143.5817"/>
<polygon fill="#9a32cd" stroke="#9a32cd" points="137.8151,-188.1275 147.8917,-191.4005 142.0555,-182.558 137.8151,-188.1275"/>
<text text-anchor="middle" x="132" y="-165" font-family="Helvetica,sans-Serif" font-size="10.00" fill="#000000"> sim</text>
</g>
<!-- Node6&#45;&gt;Node6 -->
<g id="edge5" class="edge">
<title>Node6&#45;&gt;Node6</title>
<path fill="none" stroke="#9a32cd" stroke-dasharray="5,2" d="M200.103,-206.0845C204.5912,-205.1323 207.5,-203.4375 207.5,-201 207.5,-197 199.6667,-195 189.875,-195"/>
<polygon fill="#9a32cd" stroke="#9a32cd" points="199.5231,-202.6223 189.875,-207 200.1473,-209.5944 199.5231,-202.6223"/>
<text text-anchor="middle" x="244.5" y="-198.5" font-family="Helvetica,sans-Serif" font-size="10.00" fill="#000000"> defaultSimulator</text>
</g>
<!-- Node7 -->
<g id="node6" class="node">
<title>Node7</title>
<g id="a_node6"><a xlink:href="interfaceumontreal_1_1ssj_1_1simevents_1_1eventlist_1_1EventList.html" target="_top" xlink:title="An interface for implementations of event lists.">
<polygon fill="none" stroke="#000000" points="79.5,-258.5 79.5,-277.5 137.5,-277.5 137.5,-258.5 79.5,-258.5"/>
<text text-anchor="middle" x="108.5" y="-265.5" font-family="Helvetica,sans-Serif" font-size="10.00" fill="#000000">EventList</text>
</a>
</g>
</g>
<!-- Node7&#45;&gt;Node6 -->
<g id="edge6" class="edge">
<title>Node7&#45;&gt;Node6</title>
<path fill="none" stroke="#9a32cd" stroke-dasharray="5,2" d="M117.6122,-249.164C121.215,-242.5102 125.6549,-235.1567 130.5,-229 135.7871,-222.2816 142.7093,-215.7094 148.5721,-210.6225"/>
<polygon fill="#9a32cd" stroke="#9a32cd" points="114.4318,-247.6957 112.9829,-258.191 120.6605,-250.89 114.4318,-247.6957"/>
<text text-anchor="middle" x="152" y="-232" font-family="Helvetica,sans-Serif" font-size="10.00" fill="#000000"> eventList</text>
</g>
<!-- Node8 -->
<g id="node7" class="node">
<title>Node8</title>
<g id="a_node7"><a xlink:title=" ">
<polygon fill="none" stroke="#bfbfbf" points="62.5,-315.5 62.5,-334.5 154.5,-334.5 154.5,-315.5 62.5,-315.5"/>
<text text-anchor="middle" x="108.5" y="-322.5" font-family="Helvetica,sans-Serif" font-size="10.00" fill="#000000">Iterable&lt; Event &gt;</text>
</a>
</g>
</g>
<!-- Node8&#45;&gt;Node7 -->
<g id="edge7" class="edge">
<title>Node8&#45;&gt;Node7</title>
<path fill="none" stroke="#191970" d="M108.5,-305.2342C108.5,-295.8491 108.5,-285.0651 108.5,-277.5265"/>
<polygon fill="#191970" stroke="#191970" points="105.0001,-305.3307 108.5,-315.3307 112.0001,-305.3308 105.0001,-305.3307"/>
</g>
<!-- Node9 -->
<g id="node8" class="node">
<title>Node9</title>
<g id="a_node8"><a xlink:href="classumontreal_1_1ssj_1_1simevents_1_1ContinuousState.html" target="_top" xlink:title="Represents the portion of the simulator’s state associated with continuous&#45;time simulation.">
<polygon fill="none" stroke="#000000" points="156,-258.5 156,-277.5 245,-277.5 245,-258.5 156,-258.5"/>
<text text-anchor="middle" x="200.5" y="-265.5" font-family="Helvetica,sans-Serif" font-size="10.00" fill="#000000">ContinuousState</text>
</a>
</g>
</g>
<!-- Node9&#45;&gt;Node6 -->
<g id="edge8" class="edge">
<title>Node9&#45;&gt;Node6</title>
<path fill="none" stroke="#9a32cd" stroke-dasharray="5,2" d="M189.5208,-249.6099C181.9803,-236.9795 172.2756,-220.7241 166.2204,-210.5817"/>
<polygon fill="#9a32cd" stroke="#9a32cd" points="186.6376,-251.6085 194.769,-258.4005 192.648,-248.0202 186.6376,-251.6085"/>
<text text-anchor="middle" x="219.5" y="-232" font-family="Helvetica,sans-Serif" font-size="10.00" fill="#000000"> continuousState</text>
</g>
</g>
</svg>
