<?xml version="1.0" encoding="UTF-8" standalone="no"?>
<!DOCTYPE svg PUBLIC "-//W3C//DTD SVG 1.1//EN"
 "http://www.w3.org/Graphics/SVG/1.1/DTD/svg11.dtd">
<!-- Generated by graphviz version 2.38.0 (20140413.2041)
 -->
<!-- Title: GammaProcessPCASymmetricalBridge Pages: 1 -->
<!--zoomable 487 -->
<svg id="main" version="1.1" xmlns="http://www.w3.org/2000/svg" xmlns:xlink="http://www.w3.org/1999/xlink" xml:space="preserve" onload="init(evt)">
<style type="text/css"><![CDATA[
.edge:hover path { stroke: red; }
.edge:hover polygon { stroke: red; fill: red; }
]]></style>
<script type="text/javascript"><![CDATA[
var edges = document.getElementsByTagName('g');
if (edges && edges.length) {
  for (var i=0;i<edges.length;i++) {
    if (edges[i].id.substr(0,4)=='edge') {
      edges[i].setAttribute('class','edge');
    }
  }
}
]]></script>
        <defs>
                <circle id="rim" cx="0" cy="0" r="7"/>
                <circle id="rim2" cx="0" cy="0" r="3.5"/>
                <g id="zoomPlus">
                        <use xlink:href="#rim" fill="#404040">
                                <set attributeName="fill" to="#808080" begin="zoomplus.mouseover" end="zoomplus.mouseout"/>
                        </use>
                        <path d="M-4,0h8M0,-4v8" fill="none" stroke="white" stroke-width="1.5" pointer-events="none"/>
                </g>
                <g id="zoomMin">
                        <use xlink:href="#rim" fill="#404040">
                                <set attributeName="fill" to="#808080" begin="zoomminus.mouseover" end="zoomminus.mouseout"/>
                        </use>
                        <path d="M-4,0h8" fill="none" stroke="white" stroke-width="1.5" pointer-events="none"/>
                </g>
                <g id="dirArrow">
                        <path fill="none" stroke="white" stroke-width="1.5" d="M0,-3.0v7 M-2.5,-0.5L0,-3.0L2.5,-0.5"/>
                </g>
               <g id="resetDef">
                       <use xlink:href="#rim2" fill="#404040">
                               <set attributeName="fill" to="#808080" begin="reset.mouseover" end="reset.mouseout"/>
                       </use>
               </g>
        </defs>

<script type="text/javascript">
var viewWidth = 350;
var viewHeight = 487;
var sectionId = 'dynsection-1';
</script>
<script xlink:href="svgpan.js"/>
<svg id="graph" class="graph">
<g id="viewport">
<title>GammaProcessPCASymmetricalBridge</title>
<!-- Node5 -->
<g id="node1" class="node"><title>Node5</title>
<polygon fill="#bfbfbf" stroke="black" points="25.5,-0.5 25.5,-30.5 188.5,-30.5 188.5,-0.5 25.5,-0.5"/>
<text text-anchor="start" x="33.5" y="-18.5" font-family="Helvetica,sans-Serif" font-size="10.00">GammaProcessPCASymmetrical</text>
<text text-anchor="middle" x="107" y="-7.5" font-family="Helvetica,sans-Serif" font-size="10.00">Bridge</text>
</g>
<!-- Node6 -->
<g id="node2" class="node"><title>Node6</title>
<g id="a_node2"><a xlink:href="classumontreal_1_1ssj_1_1stochprocess_1_1GammaProcessPCABridge.html" target="_top" xlink:title="Same as GammaProcessPCA, but the generated uniforms correspond to a bridge transformation of the Brow...">
<polygon fill="none" stroke="black" points="39,-68.5 39,-87.5 175,-87.5 175,-68.5 39,-68.5"/>
<text text-anchor="middle" x="107" y="-75.5" font-family="Helvetica,sans-Serif" font-size="10.00">GammaProcessPCABridge</text>
</a>
</g>
</g>
<!-- Node6&#45;&gt;Node5 -->
<g id="edge1" class="edge"><title>Node6&#45;&gt;Node5</title>
<path fill="none" stroke="midnightblue" d="M107,-58.2154C107,-49.3565 107,-38.9577 107,-30.7587"/>
<polygon fill="midnightblue" stroke="midnightblue" points="103.5,-58.3318 107,-68.3318 110.5,-58.3319 103.5,-58.3318"/>
</g>
<!-- Node7 -->
<g id="node3" class="node"><title>Node7</title>
<g id="a_node3"><a xlink:href="classumontreal_1_1ssj_1_1stochprocess_1_1GammaProcessPCA.html" target="_top" xlink:title="Represents a gamma process sampled using the principal component analysis (PCA). ">
<polygon fill="none" stroke="black" points="136,-125.5 136,-144.5 244,-144.5 244,-125.5 136,-125.5"/>
<text text-anchor="middle" x="190" y="-132.5" font-family="Helvetica,sans-Serif" font-size="10.00">GammaProcessPCA</text>
</a>
</g>
</g>
<!-- Node7&#45;&gt;Node6 -->
<g id="edge2" class="edge"><title>Node7&#45;&gt;Node6</title>
<path fill="none" stroke="midnightblue" d="M168.608,-119.824C153.186,-109.605 132.878,-96.1483 119.878,-87.5334"/>
<polygon fill="midnightblue" stroke="midnightblue" points="166.762,-122.8 177.031,-125.406 170.629,-116.965 166.762,-122.8"/>
</g>
<!-- Node8 -->
<g id="node4" class="node"><title>Node8</title>
<g id="a_node4"><a xlink:href="classumontreal_1_1ssj_1_1stochprocess_1_1GammaProcess.html" target="_top" xlink:title="This class represents a gamma process   (page 82) &#160;with mean parameter &#160;and variance parameter ...">
<polygon fill="none" stroke="black" points="192.5,-258.5 192.5,-277.5 279.5,-277.5 279.5,-258.5 192.5,-258.5"/>
<text text-anchor="middle" x="236" y="-265.5" font-family="Helvetica,sans-Serif" font-size="10.00">GammaProcess</text>
</a>
</g>
</g>
<!-- Node8&#45;&gt;Node7 -->
<g id="edge3" class="edge"><title>Node8&#45;&gt;Node7</title>
<path fill="none" stroke="midnightblue" d="M237.099,-248.058C237.535,-226.221 235.645,-189.888 221,-163 216.972,-155.604 210.071,-149.29 203.801,-144.631"/>
<polygon fill="midnightblue" stroke="midnightblue" points="233.593,-248.159 236.7,-258.288 240.587,-248.433 233.593,-248.159"/>
</g>
<!-- Node9 -->
<g id="node5" class="node"><title>Node9</title>
<g id="a_node5"><a xlink:href="classumontreal_1_1ssj_1_1stochprocess_1_1StochasticProcess.html" target="_top" xlink:title="Abstract base class for a stochastic process &#160;sampled (or observed) at a finite number of time points...">
<polygon fill="none" stroke="black" points="84.5,-325.5 84.5,-344.5 183.5,-344.5 183.5,-325.5 84.5,-325.5"/>
<text text-anchor="middle" x="134" y="-332.5" font-family="Helvetica,sans-Serif" font-size="10.00">StochasticProcess</text>
</a>
</g>
</g>
<!-- Node9&#45;&gt;Node8 -->
<g id="edge4" class="edge"><title>Node9&#45;&gt;Node8</title>
<path fill="none" stroke="midnightblue" d="M156.332,-319.769C176.522,-306.903 205.59,-288.379 222.462,-277.627"/>
<polygon fill="midnightblue" stroke="midnightblue" points="154.308,-316.908 147.756,-325.234 158.07,-322.811 154.308,-316.908"/>
</g>
<!-- Node15 -->
<g id="node11" class="node"><title>Node15</title>
<g id="a_node11"><a xlink:href="classumontreal_1_1ssj_1_1stochprocess_1_1BrownianMotion.html" target="_top" xlink:title="This class represents a Brownian motion process , sampled at times . ">
<polygon fill="none" stroke="black" points="47,-258.5 47,-277.5 133,-277.5 133,-258.5 47,-258.5"/>
<text text-anchor="middle" x="90" y="-265.5" font-family="Helvetica,sans-Serif" font-size="10.00">BrownianMotion</text>
</a>
</g>
</g>
<!-- Node9&#45;&gt;Node15 -->
<g id="edge12" class="edge"><title>Node9&#45;&gt;Node15</title>
<path fill="none" stroke="midnightblue" d="M122.427,-316.904C113.877,-304.273 102.594,-287.604 95.84,-277.627"/>
<polygon fill="midnightblue" stroke="midnightblue" points="119.562,-318.915 128.066,-325.234 125.359,-314.991 119.562,-318.915"/>
</g>
<!-- Node10 -->
<g id="node6" class="node"><title>Node10</title>
<g id="a_node6"><a xlink:href="classumontreal_1_1ssj_1_1randvar_1_1GammaGen.html" target="_top" xlink:title="This class implements random variate generators for the gamma distribution. ">
<polygon fill="none" stroke="black" points="201.5,-325.5 201.5,-344.5 270.5,-344.5 270.5,-325.5 201.5,-325.5"/>
<text text-anchor="middle" x="236" y="-332.5" font-family="Helvetica,sans-Serif" font-size="10.00">GammaGen</text>
</a>
</g>
</g>
<!-- Node10&#45;&gt;Node8 -->
<g id="edge5" class="edge"><title>Node10&#45;&gt;Node8</title>
<path fill="none" stroke="#9a32cd" stroke-dasharray="5,2" d="M236,-315.037C236,-302.67 236,-287.12 236,-277.627"/>
<polygon fill="#9a32cd" stroke="#9a32cd" points="232.5,-315.234 236,-325.234 239.5,-315.234 232.5,-315.234"/>
<text text-anchor="middle" x="249.5" y="-299" font-family="Helvetica,sans-Serif" font-size="10.00"> Ggen</text>
</g>
<!-- Node11 -->
<g id="node7" class="node"><title>Node11</title>
<g id="a_node7"><a xlink:href="classumontreal_1_1ssj_1_1randvar_1_1RandomVariateGen.html" target="_top" xlink:title="This is the base class for all random variate generators over the real line. ">
<polygon fill="none" stroke="black" points="161,-392.5 161,-411.5 263,-411.5 263,-392.5 161,-392.5"/>
<text text-anchor="middle" x="212" y="-399.5" font-family="Helvetica,sans-Serif" font-size="10.00">RandomVariateGen</text>
</a>
</g>
</g>
<!-- Node11&#45;&gt;Node10 -->
<g id="edge6" class="edge"><title>Node11&#45;&gt;Node10</title>
<path fill="none" stroke="midnightblue" d="M218.724,-382.79C223.333,-370.308 229.238,-354.314 232.815,-344.627"/>
<polygon fill="midnightblue" stroke="midnightblue" points="215.417,-381.641 215.237,-392.234 221.984,-384.065 215.417,-381.641"/>
</g>
<!-- Node16 -->
<g id="node12" class="node"><title>Node16</title>
<g id="a_node12"><a xlink:href="classumontreal_1_1ssj_1_1randvar_1_1NormalGen.html" target="_top" xlink:title="This class implements methods for generating random variates from the normal distribution ...">
<polygon fill="none" stroke="black" points="0,-325.5 0,-344.5 66,-344.5 66,-325.5 0,-325.5"/>
<text text-anchor="middle" x="33" y="-332.5" font-family="Helvetica,sans-Serif" font-size="10.00">NormalGen</text>
</a>
</g>
</g>
<!-- Node11&#45;&gt;Node16 -->
<g id="edge14" class="edge"><title>Node11&#45;&gt;Node16</title>
<path fill="none" stroke="midnightblue" d="M178.779,-388.936C143.269,-376.042 87.8683,-355.924 56.583,-344.564"/>
<polygon fill="midnightblue" stroke="midnightblue" points="177.636,-392.245 188.23,-392.369 180.025,-385.665 177.636,-392.245"/>
</g>
<!-- Node12 -->
<g id="node8" class="node"><title>Node12</title>
<g id="a_node8"><a xlink:href="interfaceumontreal_1_1ssj_1_1probdist_1_1Distribution.html" target="_top" xlink:title="This interface should be implemented by all classes supporting discrete and continuous distributions...">
<polygon fill="none" stroke="black" points="172,-459.5 172,-478.5 238,-478.5 238,-459.5 172,-459.5"/>
<text text-anchor="middle" x="205" y="-466.5" font-family="Helvetica,sans-Serif" font-size="10.00">Distribution</text>
</a>
</g>
</g>
<!-- Node12&#45;&gt;Node11 -->
<g id="edge7" class="edge"><title>Node12&#45;&gt;Node11</title>
<path fill="none" stroke="#9a32cd" stroke-dasharray="5,2" d="M206.227,-449.227C206.696,-443.09 207.292,-436.247 208,-430 208.684,-423.973 209.684,-417.223 210.513,-411.98"/>
<polygon fill="#9a32cd" stroke="#9a32cd" points="202.733,-449.008 205.522,-459.23 209.716,-449.501 202.733,-449.008"/>
<text text-anchor="middle" x="217.5" y="-433" font-family="Helvetica,sans-Serif" font-size="10.00"> dist</text>
</g>
<!-- Node13 -->
<g id="node9" class="node"><title>Node13</title>
<g id="a_node9"><a xlink:href="interfaceumontreal_1_1ssj_1_1rng_1_1RandomStream.html" target="_top" xlink:title="This interface defines the basic structures to handle multiple streams of uniform (pseudo)random numb...">
<polygon fill="none" stroke="black" points="256.5,-459.5 256.5,-478.5 341.5,-478.5 341.5,-459.5 256.5,-459.5"/>
<text text-anchor="middle" x="299" y="-466.5" font-family="Helvetica,sans-Serif" font-size="10.00">RandomStream</text>
</a>
</g>
</g>
<!-- Node13&#45;&gt;Node8 -->
<g id="edge9" class="edge"><title>Node13&#45;&gt;Node8</title>
<path fill="none" stroke="#9a32cd" stroke-dasharray="5,2" d="M298.234,-449.254C296.719,-421.592 292.335,-368.425 280,-325 276.141,-311.413 275.411,-307.348 267,-296 261.815,-289.005 254.532,-282.545 248.327,-277.699"/>
<polygon fill="#9a32cd" stroke="#9a32cd" points="294.747,-449.624 298.722,-459.445 301.739,-449.289 294.747,-449.624"/>
<text text-anchor="middle" x="307" y="-366" font-family="Helvetica,sans-Serif" font-size="10.00"> stream</text>
</g>
<!-- Node13&#45;&gt;Node11 -->
<g id="edge8" class="edge"><title>Node13&#45;&gt;Node11</title>
<path fill="none" stroke="#9a32cd" stroke-dasharray="5,2" d="M271.79,-454.312C264.787,-450.359 257.421,-445.805 251,-441 239.041,-432.051 226.988,-419.674 219.512,-411.508"/>
<polygon fill="#9a32cd" stroke="#9a32cd" points="270.53,-457.61 280.99,-459.296 273.865,-451.455 270.53,-457.61"/>
<text text-anchor="middle" x="268" y="-433" font-family="Helvetica,sans-Serif" font-size="10.00"> stream</text>
</g>
<!-- Node14 -->
<g id="node10" class="node"><title>Node14</title>
<g id="a_node10"><a xlink:href="classumontreal_1_1ssj_1_1stochprocess_1_1BrownianMotionPCA.html" target="_top" xlink:title="A Brownian motion process &#160;sampled using the principal component decomposition (PCA) ...">
<polygon fill="none" stroke="black" points="100.5,-201.5 100.5,-220.5 207.5,-220.5 207.5,-201.5 100.5,-201.5"/>
<text text-anchor="middle" x="154" y="-208.5" font-family="Helvetica,sans-Serif" font-size="10.00">BrownianMotionPCA</text>
</a>
</g>
</g>
<!-- Node14&#45;&gt;Node7 -->
<g id="edge10" class="edge"><title>Node14&#45;&gt;Node7</title>
<path fill="none" stroke="#9a32cd" stroke-dasharray="5,2" d="M162.785,-191.942C170.068,-176.971 180.108,-156.334 185.735,-144.768"/>
<polygon fill="#9a32cd" stroke="#9a32cd" points="159.498,-190.697 158.271,-201.221 165.793,-193.759 159.498,-190.697"/>
<text text-anchor="middle" x="197" y="-170.5" font-family="Helvetica,sans-Serif" font-size="10.00"> BMPCA</text>
</g>
<!-- Node15&#45;&gt;Node14 -->
<g id="edge11" class="edge"><title>Node15&#45;&gt;Node14</title>
<path fill="none" stroke="midnightblue" d="M107.794,-251.708C119.423,-241.715 134.191,-229.024 143.859,-220.715"/>
<polygon fill="midnightblue" stroke="midnightblue" points="105.303,-249.234 100,-258.406 109.865,-254.543 105.303,-249.234"/>
</g>
<!-- Node17 -->
<g id="node13" class="node"><title>Node17</title>
<g id="a_node13"><a xlink:href="classumontreal_1_1ssj_1_1stochprocess_1_1BrownianMotionBridge.html" target="_top" xlink:title=", then the observations are generated in the following order: , , , , . ">
<polygon fill="none" stroke="black" points="15,-163.5 15,-182.5 129,-182.5 129,-163.5 15,-163.5"/>
<text text-anchor="middle" x="72" y="-170.5" font-family="Helvetica,sans-Serif" font-size="10.00">BrownianMotionBridge</text>
</a>
</g>
</g>
<!-- Node15&#45;&gt;Node17 -->
<g id="edge16" class="edge"><title>Node15&#45;&gt;Node17</title>
<path fill="none" stroke="midnightblue" d="M86.389,-248.343C82.5156,-228.331 76.5341,-197.426 73.6571,-182.562"/>
<polygon fill="midnightblue" stroke="midnightblue" points="83.0023,-249.265 88.3389,-258.417 89.8748,-247.935 83.0023,-249.265"/>
</g>
<!-- Node16&#45;&gt;Node15 -->
<g id="edge13" class="edge"><title>Node16&#45;&gt;Node15</title>
<path fill="none" stroke="#9a32cd" stroke-dasharray="5,2" d="M47.351,-317.635C58.4985,-304.923 73.5158,-287.798 82.4345,-277.627"/>
<polygon fill="#9a32cd" stroke="#9a32cd" points="44.649,-315.408 40.6873,-325.234 49.9121,-320.023 44.649,-315.408"/>
<text text-anchor="middle" x="74.5" y="-299" font-family="Helvetica,sans-Serif" font-size="10.00"> gen</text>
</g>
<!-- Node17&#45;&gt;Node6 -->
<g id="edge15" class="edge"><title>Node17&#45;&gt;Node6</title>
<path fill="none" stroke="#9a32cd" stroke-dasharray="5,2" d="M74.1259,-153.485C75.4929,-144.675 77.6583,-134.103 81,-125 86.0581,-111.221 94.9498,-96.6974 100.907,-87.7419"/>
<polygon fill="#9a32cd" stroke="#9a32cd" points="70.6486,-153.082 72.7927,-163.458 77.5869,-154.01 70.6486,-153.082"/>
<text text-anchor="middle" x="104" y="-132.5" font-family="Helvetica,sans-Serif" font-size="10.00"> BMBridge</text>
</g>
</g>
</svg>
        <g id="navigator" transform="translate(0 0)" fill="#404254">
                <rect fill="#f2f5e9" fill-opacity="0.5" stroke="#606060" stroke-width=".5" x="0" y="0" width="60" height="60"/>
                <use id="zoomplus" xlink:href="#zoomPlus" x="17" y="9" onmousedown="handleZoom(evt,'in')"/>
                <use id="zoomminus" xlink:href="#zoomMin" x="42" y="9" onmousedown="handleZoom(evt,'out')"/>
                <use id="reset" xlink:href="#resetDef" x="30" y="36" onmousedown="handleReset()"/>
                <g id="arrowUp" xlink:href="#dirArrow" transform="translate(30 24)" onmousedown="handlePan(0,-1)">
                  <use xlink:href="#rim" fill="#404040">
                        <set attributeName="fill" to="#808080" begin="arrowUp.mouseover" end="arrowUp.mouseout"/>
                  </use>
                  <path fill="none" stroke="white" stroke-width="1.5" d="M0,-3.0v7 M-2.5,-0.5L0,-3.0L2.5,-0.5"/>
                </g>
                <g id="arrowRight" xlink:href="#dirArrow" transform="rotate(90) translate(36 -43)" onmousedown="handlePan(1,0)">
                  <use xlink:href="#rim" fill="#404040">
                        <set attributeName="fill" to="#808080" begin="arrowRight.mouseover" end="arrowRight.mouseout"/>
                  </use>
                  <path fill="none" stroke="white" stroke-width="1.5" d="M0,-3.0v7 M-2.5,-0.5L0,-3.0L2.5,-0.5"/>
                </g>
                <g id="arrowDown" xlink:href="#dirArrow" transform="rotate(180) translate(-30 -48)" onmousedown="handlePan(0,1)">
                  <use xlink:href="#rim" fill="#404040">
                        <set attributeName="fill" to="#808080" begin="arrowDown.mouseover" end="arrowDown.mouseout"/>
                  </use>
                  <path fill="none" stroke="white" stroke-width="1.5" d="M0,-3.0v7 M-2.5,-0.5L0,-3.0L2.5,-0.5"/>
                </g>
                <g id="arrowLeft" xlink:href="#dirArrow" transform="rotate(270) translate(-36 17)" onmousedown="handlePan(-1,0)">
                  <use xlink:href="#rim" fill="#404040">
                        <set attributeName="fill" to="#808080" begin="arrowLeft.mouseover" end="arrowLeft.mouseout"/>
                  </use>
                  <path fill="none" stroke="white" stroke-width="1.5" d="M0,-3.0v7 M-2.5,-0.5L0,-3.0L2.5,-0.5"/>
                </g>
        </g>
        <svg viewBox="0 0 15 15" width="100%" height="30px" preserveAspectRatio="xMaxYMin meet">
         <g id="arrow_out" transform="scale(0.3 0.3)">
          <a xlink:href="classumontreal_1_1ssj_1_1stochprocess_1_1GammaProcessPCASymmetricalBridge__coll__graph_org.svg" target="_base">
           <rect id="button" ry="5" rx="5" y="6" x="6" height="38" width="38"
                fill="#f2f5e9" fill-opacity="0.5" stroke="#606060" stroke-width="1.0"/>
           <path id="arrow"
             d="M 11.500037,31.436501 C 11.940474,20.09759 22.043105,11.32322 32.158766,21.979434 L 37.068811,17.246167 C 37.068811,17.246167 37.088388,32 37.088388,32 L 22.160133,31.978069 C 22.160133,31.978069 26.997745,27.140456 26.997745,27.140456 C 18.528582,18.264221 13.291696,25.230495 11.500037,31.436501 z"
             style="fill:#404040;"/>
          </a>
         </g>
        </svg>
</svg>
