<?xml version="1.0" encoding="UTF-8" standalone="no"?>
<!DOCTYPE svg PUBLIC "-//W3C//DTD SVG 1.1//EN"
 "http://www.w3.org/Graphics/SVG/1.1/DTD/svg11.dtd">
<!-- Generated by graphviz version 2.40.1 (0)
 -->
<!-- Title: BakerTransformedPointSet Pages: 1 -->
<svg width="142pt" height="219pt"
 viewBox="0.00 0.00 142.00 219.00" xmlns="http://www.w3.org/2000/svg" xmlns:xlink="http://www.w3.org/1999/xlink">
<g id="graph0" class="graph" transform="scale(1 1) rotate(0) translate(4 215)">
<title>BakerTransformedPointSet</title>
<!-- Node3 -->
<g id="node1" class="node">
<title>Node3</title>
<g id="a_node1"><a xlink:title="This container class embodies a point set to which a Baker transformation is applied (see,...">
<polygon fill="#bfbfbf" stroke="#000000" points="0,-.5 0,-19.5 134,-19.5 134,-.5 0,-.5"/>
<text text-anchor="middle" x="67" y="-7.5" font-family="Helvetica,sans-Serif" font-size="10.00" fill="#000000">BakerTransformedPointSet</text>
</a>
</g>
</g>
<!-- Node4 -->
<g id="node2" class="node">
<title>Node4</title>
<g id="a_node2"><a xlink:href="classumontreal_1_1ssj_1_1hups_1_1ContainerPointSet.html" target="_top" xlink:title="This acts as a generic base class for all container classes that contain a point set and apply some k...">
<polygon fill="none" stroke="#000000" points="19,-57.5 19,-76.5 115,-76.5 115,-57.5 19,-57.5"/>
<text text-anchor="middle" x="67" y="-64.5" font-family="Helvetica,sans-Serif" font-size="10.00" fill="#000000">ContainerPointSet</text>
</a>
</g>
</g>
<!-- Node4&#45;&gt;Node3 -->
<g id="edge1" class="edge">
<title>Node4&#45;&gt;Node3</title>
<path fill="none" stroke="#191970" d="M67,-47.2342C67,-37.8491 67,-27.0651 67,-19.5265"/>
<polygon fill="#191970" stroke="#191970" points="63.5001,-47.3307 67,-57.3307 70.5001,-47.3308 63.5001,-47.3307"/>
</g>
<!-- Node5 -->
<g id="node3" class="node">
<title>Node5</title>
<g id="a_node3"><a xlink:href="classumontreal_1_1ssj_1_1hups_1_1PointSet.html" target="_top" xlink:title="This abstract class defines the basic methods for accessing and manipulating point sets.">
<polygon fill="none" stroke="#000000" points="40,-124.5 40,-143.5 94,-143.5 94,-124.5 40,-124.5"/>
<text text-anchor="middle" x="67" y="-131.5" font-family="Helvetica,sans-Serif" font-size="10.00" fill="#000000">PointSet</text>
</a>
</g>
</g>
<!-- Node5&#45;&gt;Node4 -->
<g id="edge2" class="edge">
<title>Node5&#45;&gt;Node4</title>
<path fill="none" stroke="#191970" d="M65.4152,-114.2949C65.243,-111.5117 65.0958,-108.6848 65,-106 64.6423,-95.9724 65.3667,-84.5043 66.0415,-76.6128"/>
<polygon fill="#191970" stroke="#191970" points="61.935,-114.6973 66.1459,-124.4194 68.9168,-114.1933 61.935,-114.6973"/>
</g>
<!-- Node5&#45;&gt;Node4 -->
<g id="edge4" class="edge">
<title>Node5&#45;&gt;Node4</title>
<path fill="none" stroke="#9a32cd" stroke-dasharray="5,2" d="M67,-114.1079C67,-101.714 67,-86.3263 67,-76.5817"/>
<polygon fill="#9a32cd" stroke="#9a32cd" points="63.5001,-114.4005 67,-124.4005 70.5001,-114.4006 63.5001,-114.4005"/>
<text text-anchor="middle" x="72" y="-98" font-family="Helvetica,sans-Serif" font-size="10.00" fill="#000000"> P</text>
</g>
<!-- Node6 -->
<g id="node4" class="node">
<title>Node6</title>
<g id="a_node4"><a xlink:href="interfaceumontreal_1_1ssj_1_1rng_1_1RandomStream.html" target="_top" xlink:title="This interface defines the basic structures to handle multiple streams of uniform (pseudo)random numb...">
<polygon fill="none" stroke="#000000" points="24.5,-191.5 24.5,-210.5 109.5,-210.5 109.5,-191.5 24.5,-191.5"/>
<text text-anchor="middle" x="67" y="-198.5" font-family="Helvetica,sans-Serif" font-size="10.00" fill="#000000">RandomStream</text>
</a>
</g>
</g>
<!-- Node6&#45;&gt;Node5 -->
<g id="edge3" class="edge">
<title>Node6&#45;&gt;Node5</title>
<path fill="none" stroke="#9a32cd" stroke-dasharray="5,2" d="M67,-181.1079C67,-168.714 67,-153.3263 67,-143.5817"/>
<polygon fill="#9a32cd" stroke="#9a32cd" points="63.5001,-181.4005 67,-191.4005 70.5001,-181.4006 63.5001,-181.4005"/>
<text text-anchor="middle" x="94" y="-165" font-family="Helvetica,sans-Serif" font-size="10.00" fill="#000000"> shiftStream</text>
</g>
</g>
</svg>
