<?xml version="1.0" encoding="UTF-8" standalone="no"?>
<!DOCTYPE svg PUBLIC "-//W3C//DTD SVG 1.1//EN"
 "http://www.w3.org/Graphics/SVG/1.1/DTD/svg11.dtd">
<!-- Generated by graphviz version 2.40.1 (0)
 -->
<!-- Title: ObservationCollectorList&lt; E &gt; Pages: 1 -->
<svg width="316pt" height="95pt"
 viewBox="0.00 0.00 315.50 95.00" xmlns="http://www.w3.org/2000/svg" xmlns:xlink="http://www.w3.org/1999/xlink">
<g id="graph0" class="graph" transform="scale(1 1) rotate(0) translate(4 91)">
<title>ObservationCollectorList&lt; E &gt;</title>
<!-- Node3 -->
<g id="node1" class="node">
<title>Node3</title>
<g id="a_node1"><a xlink:title=" ">
<polygon fill="#bfbfbf" stroke="#000000" points="84.5,-.5 84.5,-19.5 233.5,-19.5 233.5,-.5 84.5,-.5"/>
<text text-anchor="middle" x="159" y="-7.5" font-family="Helvetica,sans-Serif" font-size="10.00" fill="#000000">ObservationCollectorList&lt; E &gt;</text>
</a>
</g>
</g>
<!-- Node4 -->
<g id="node2" class="node">
<title>Node4</title>
<g id="a_node2"><a xlink:title=" ">
<polygon fill="none" stroke="#bfbfbf" points="0,-56.5 0,-86.5 156,-86.5 156,-56.5 0,-56.5"/>
<text text-anchor="start" x="8" y="-74.5" font-family="Helvetica,sans-Serif" font-size="10.00" fill="#000000">ArrayList&lt; ObservationCollector</text>
<text text-anchor="middle" x="78" y="-63.5" font-family="Helvetica,sans-Serif" font-size="10.00" fill="#000000">&lt;? super E &gt; &gt;</text>
</a>
</g>
</g>
<!-- Node4&#45;&gt;Node3 -->
<g id="edge1" class="edge">
<title>Node4&#45;&gt;Node3</title>
<path fill="none" stroke="#191970" d="M106.1407,-50.1339C119.703,-39.8366 135.3104,-27.9865 146.0309,-19.8469"/>
<polygon fill="#191970" stroke="#191970" points="103.8705,-47.463 98.0225,-56.2977 108.1035,-53.0382 103.8705,-47.463"/>
</g>
<!-- Node5 -->
<g id="node3" class="node">
<title>Node5</title>
<g id="a_node3"><a xlink:href="interfaceumontreal_1_1ssj_1_1mcqmctools_1_1anova_1_1ObservationCollector.html" target="_top" xlink:title=" ">
<polygon fill="none" stroke="#000000" points="174.5,-62 174.5,-81 307.5,-81 307.5,-62 174.5,-62"/>
<text text-anchor="middle" x="241" y="-69" font-family="Helvetica,sans-Serif" font-size="10.00" fill="#000000">ObservationCollector&lt; E &gt;</text>
</a>
</g>
</g>
<!-- Node5&#45;&gt;Node3 -->
<g id="edge2" class="edge">
<title>Node5&#45;&gt;Node3</title>
<path fill="none" stroke="#191970" d="M219.8655,-55.6491C204.6293,-44.222 184.5666,-29.1749 171.7225,-19.5419"/>
<polygon fill="#191970" stroke="#191970" points="218.0875,-58.6906 228.1875,-61.8906 222.2875,-53.0906 218.0875,-58.6906"/>
</g>
</g>
</svg>
