<?xml version="1.0" encoding="UTF-8" standalone="no"?>
<!DOCTYPE svg PUBLIC "-//W3C//DTD SVG 1.1//EN"
 "http://www.w3.org/Graphics/SVG/1.1/DTD/svg11.dtd">
<!-- Generated by graphviz version 2.40.1 (20161225.0304)
 -->
<!-- Title: CallableBondCV Pages: 1 -->
<svg width="461pt" height="442pt"
 viewBox="0.00 0.00 461.00 442.00" xmlns="http://www.w3.org/2000/svg" xmlns:xlink="http://www.w3.org/1999/xlink">
<g id="graph0" class="graph" transform="scale(1 1) rotate(0) translate(4 438)">
<title>CallableBondCV</title>
<!-- Node3 -->
<g id="node1" class="node">
<title>Node3</title>
<polygon fill="#bfbfbf" stroke="#000000" points="34,-.5 34,-19.5 122,-19.5 122,-.5 34,-.5"/>
<text text-anchor="middle" x="78" y="-7.5" font-family="Helvetica,sans-Serif" font-size="10.00" fill="#000000">CallableBondCV</text>
</g>
<!-- Node4 -->
<g id="node2" class="node">
<title>Node4</title>
<g id="a_node2"><a xlink:href="classift6561examples_1_1CallableBond.html" target="_top" xlink:title="Estimates the value of a callable bond. ">
<polygon fill="none" stroke="#000000" points="41,-57.5 41,-76.5 115,-76.5 115,-57.5 41,-57.5"/>
<text text-anchor="middle" x="78" y="-64.5" font-family="Helvetica,sans-Serif" font-size="10.00" fill="#000000">CallableBond</text>
</a>
</g>
</g>
<!-- Node4&#45;&gt;Node3 -->
<g id="edge1" class="edge">
<title>Node4&#45;&gt;Node3</title>
<path fill="none" stroke="#191970" d="M78,-47.2342C78,-37.8491 78,-27.0651 78,-19.5265"/>
<polygon fill="#191970" stroke="#191970" points="74.5001,-47.3307 78,-57.3307 81.5001,-47.3308 74.5001,-47.3307"/>
</g>
<!-- Node5 -->
<g id="node3" class="node">
<title>Node5</title>
<g id="a_node3"><a xlink:href="interfaceumontreal_1_1ssj_1_1mcqmctools_1_1MonteCarloModelDouble.html" target="_top" xlink:title="An interface for a very simple simulation model for which Monte Carlo (MC) and RQMC experiments are t...">
<polygon fill="none" stroke="#000000" points="0,-130 0,-149 124,-149 124,-130 0,-130"/>
<text text-anchor="middle" x="62" y="-137" font-family="Helvetica,sans-Serif" font-size="10.00" fill="#000000">MonteCarloModelDouble</text>
</a>
</g>
</g>
<!-- Node5&#45;&gt;Node4 -->
<g id="edge2" class="edge">
<title>Node5&#45;&gt;Node4</title>
<path fill="none" stroke="#191970" d="M66.3905,-119.6054C69.4762,-105.6237 73.4682,-87.5346 75.8764,-76.6228"/>
<polygon fill="#191970" stroke="#191970" points="62.8952,-119.203 64.1578,-129.7223 69.7307,-120.7116 62.8952,-119.203"/>
</g>
<!-- Node6 -->
<g id="node4" class="node">
<title>Node6</title>
<g id="a_node4"><a xlink:href="classift6561examples_1_1OrnsteinUhlenbeckWithIntegratedProcess.html" target="_top" xlink:title="This class is custom&#45;made for the CallableBond example. ">
<polygon fill="none" stroke="#000000" points="142,-124.5 142,-154.5 306,-154.5 306,-124.5 142,-124.5"/>
<text text-anchor="start" x="150" y="-142.5" font-family="Helvetica,sans-Serif" font-size="10.00" fill="#000000">OrnsteinUhlenbeckWithIntegrated</text>
<text text-anchor="middle" x="224" y="-131.5" font-family="Helvetica,sans-Serif" font-size="10.00" fill="#000000">Process</text>
</a>
</g>
</g>
<!-- Node6&#45;&gt;Node4 -->
<g id="edge3" class="edge">
<title>Node6&#45;&gt;Node4</title>
<path fill="none" stroke="#9a32cd" stroke-dasharray="5,2" d="M184.5497,-119.91C156.3621,-105.9127 119.6456,-87.6802 97.4986,-76.6825"/>
<polygon fill="#9a32cd" stroke="#9a32cd" points="183.2355,-123.1651 193.7487,-124.478 186.3489,-116.8955 183.2355,-123.1651"/>
<text text-anchor="middle" x="172" y="-98" font-family="Helvetica,sans-Serif" font-size="10.00" fill="#000000"> ornUhl</text>
</g>
<!-- Node7 -->
<g id="node5" class="node">
<title>Node7</title>
<g id="a_node5"><a xlink:href="classumontreal_1_1ssj_1_1stochprocess_1_1OrnsteinUhlenbeckProcess.html" target="_top" xlink:title="This class represents an Ornstein&#45;Uhlenbeck process , sampled at times . ">
<polygon fill="none" stroke="#000000" points="80,-202.5 80,-221.5 216,-221.5 216,-202.5 80,-202.5"/>
<text text-anchor="middle" x="148" y="-209.5" font-family="Helvetica,sans-Serif" font-size="10.00" fill="#000000">OrnsteinUhlenbeckProcess</text>
</a>
</g>
</g>
<!-- Node7&#45;&gt;Node6 -->
<g id="edge4" class="edge">
<title>Node7&#45;&gt;Node6</title>
<path fill="none" stroke="#191970" d="M165.5878,-195.2222C178.423,-182.9781 195.6764,-166.5193 208.0997,-154.668"/>
<polygon fill="#191970" stroke="#191970" points="163.0696,-192.7873 158.2497,-202.2223 167.9013,-197.8523 163.0696,-192.7873"/>
</g>
<!-- Node8 -->
<g id="node6" class="node">
<title>Node8</title>
<g id="a_node6"><a xlink:href="classumontreal_1_1ssj_1_1stochprocess_1_1StochasticProcess.html" target="_top" xlink:title="Abstract base class for a stochastic process &#160;sampled (or observed) at a finite number of time points...">
<polygon fill="none" stroke="#000000" points="23.5,-280.5 23.5,-299.5 122.5,-299.5 122.5,-280.5 23.5,-280.5"/>
<text text-anchor="middle" x="73" y="-287.5" font-family="Helvetica,sans-Serif" font-size="10.00" fill="#000000">StochasticProcess</text>
</a>
</g>
</g>
<!-- Node8&#45;&gt;Node7 -->
<g id="edge5" class="edge">
<title>Node8&#45;&gt;Node7</title>
<path fill="none" stroke="#191970" d="M89.399,-272.9451C104.5213,-257.2178 126.4311,-234.4316 138.7283,-221.6426"/>
<polygon fill="#191970" stroke="#191970" points="86.6047,-270.8014 82.1965,-280.4357 91.6505,-275.6532 86.6047,-270.8014"/>
</g>
<!-- Node9 -->
<g id="node7" class="node">
<title>Node9</title>
<g id="a_node7"><a xlink:href="classumontreal_1_1ssj_1_1randvar_1_1NormalGen.html" target="_top" xlink:title="This class implements methods for generating random variates from the normal distribution ...">
<polygon fill="none" stroke="#000000" points="141,-280.5 141,-299.5 207,-299.5 207,-280.5 141,-280.5"/>
<text text-anchor="middle" x="174" y="-287.5" font-family="Helvetica,sans-Serif" font-size="10.00" fill="#000000">NormalGen</text>
</a>
</g>
</g>
<!-- Node9&#45;&gt;Node7 -->
<g id="edge6" class="edge">
<title>Node9&#45;&gt;Node7</title>
<path fill="none" stroke="#9a32cd" stroke-dasharray="5,2" d="M167.5793,-270.7379C162.3828,-255.1484 155.2817,-233.845 151.2142,-221.6426"/>
<polygon fill="#9a32cd" stroke="#9a32cd" points="164.3292,-272.0557 170.8119,-280.4357 170.9699,-269.842 164.3292,-272.0557"/>
<text text-anchor="middle" x="174.5" y="-248.5" font-family="Helvetica,sans-Serif" font-size="10.00" fill="#000000"> gen</text>
</g>
<!-- Node10 -->
<g id="node8" class="node">
<title>Node10</title>
<g id="a_node8"><a xlink:href="classumontreal_1_1ssj_1_1randvar_1_1RandomVariateGen.html" target="_top" xlink:title="This is the base class for all random variate generators over the real line. ">
<polygon fill="none" stroke="#000000" points="250.5,-347.5 250.5,-366.5 351.5,-366.5 351.5,-347.5 250.5,-347.5"/>
<text text-anchor="middle" x="301" y="-354.5" font-family="Helvetica,sans-Serif" font-size="10.00" fill="#000000">RandomVariateGen</text>
</a>
</g>
</g>
<!-- Node10&#45;&gt;Node9 -->
<g id="edge7" class="edge">
<title>Node10&#45;&gt;Node9</title>
<path fill="none" stroke="#191970" d="M273.9504,-342.7298C249.2953,-329.7227 213.5549,-310.8676 192.1622,-299.5817"/>
<polygon fill="#191970" stroke="#191970" points="272.3262,-345.83 282.804,-347.4005 275.5925,-339.6388 272.3262,-345.83"/>
</g>
<!-- Node14 -->
<g id="node12" class="node">
<title>Node14</title>
<g id="a_node12"><a xlink:href="classumontreal_1_1ssj_1_1randvarmulti_1_1RandomMultivariateGen.html" target="_top" xlink:title="This class is the multivariate counterpart of umontreal.ssj.randvar.RandomVariateGen. ">
<polygon fill="none" stroke="#000000" points="331,-280.5 331,-299.5 453,-299.5 453,-280.5 331,-280.5"/>
<text text-anchor="middle" x="392" y="-287.5" font-family="Helvetica,sans-Serif" font-size="10.00" fill="#000000">RandomMultivariateGen</text>
</a>
</g>
</g>
<!-- Node10&#45;&gt;Node14 -->
<g id="edge12" class="edge">
<title>Node10&#45;&gt;Node14</title>
<path fill="none" stroke="#9a32cd" stroke-dasharray="5,2" d="M321.8476,-341.2092C331.3204,-334.0742 342.691,-325.5652 353,-318 361.467,-311.7865 371.047,-304.9064 378.5932,-299.5212"/>
<polygon fill="#9a32cd" stroke="#9a32cd" points="319.6394,-338.4908 313.7665,-347.309 323.8566,-344.0778 319.6394,-338.4908"/>
<text text-anchor="middle" x="365.5" y="-321" font-family="Helvetica,sans-Serif" font-size="10.00" fill="#000000"> gen1</text>
</g>
<!-- Node11 -->
<g id="node9" class="node">
<title>Node11</title>
<g id="a_node9"><a xlink:href="interfaceumontreal_1_1ssj_1_1probdist_1_1Distribution.html" target="_top" xlink:title="This interface should be implemented by all classes supporting discrete and continuous distributions...">
<polygon fill="none" stroke="#000000" points="265,-414.5 265,-433.5 331,-433.5 331,-414.5 265,-414.5"/>
<text text-anchor="middle" x="298" y="-421.5" font-family="Helvetica,sans-Serif" font-size="10.00" fill="#000000">Distribution</text>
</a>
</g>
</g>
<!-- Node11&#45;&gt;Node10 -->
<g id="edge8" class="edge">
<title>Node11&#45;&gt;Node10</title>
<path fill="none" stroke="#9a32cd" stroke-dasharray="5,2" d="M298.8907,-404.1079C299.4456,-391.714 300.1346,-376.3263 300.571,-366.5817"/>
<polygon fill="#9a32cd" stroke="#9a32cd" points="295.3807,-404.254 298.4298,-414.4005 302.3737,-404.5671 295.3807,-404.254"/>
<text text-anchor="middle" x="309.5" y="-388" font-family="Helvetica,sans-Serif" font-size="10.00" fill="#000000"> dist</text>
</g>
<!-- Node12 -->
<g id="node10" class="node">
<title>Node12</title>
<g id="a_node10"><a xlink:href="interfaceumontreal_1_1ssj_1_1rng_1_1RandomStream.html" target="_top" xlink:title="This interface defines the basic structures to handle multiple streams of uniform (pseudo)random numb...">
<polygon fill="none" stroke="#000000" points="349.5,-414.5 349.5,-433.5 434.5,-433.5 434.5,-414.5 349.5,-414.5"/>
<text text-anchor="middle" x="392" y="-421.5" font-family="Helvetica,sans-Serif" font-size="10.00" fill="#000000">RandomStream</text>
</a>
</g>
</g>
<!-- Node12&#45;&gt;Node10 -->
<g id="edge9" class="edge">
<title>Node12&#45;&gt;Node10</title>
<path fill="none" stroke="#9a32cd" stroke-dasharray="5,2" d="M364.5889,-409.332C357.6874,-405.2845 350.4202,-400.7043 344,-396 331.643,-386.9455 318.8008,-374.8942 310.4058,-366.5969"/>
<polygon fill="#9a32cd" stroke="#9a32cd" points="363.2355,-412.5883 373.6596,-414.4827 366.692,-406.5013 363.2355,-412.5883"/>
<text text-anchor="middle" x="361" y="-388" font-family="Helvetica,sans-Serif" font-size="10.00" fill="#000000"> stream</text>
</g>
<!-- Node12&#45;&gt;Node14 -->
<g id="edge13" class="edge">
<title>Node12&#45;&gt;Node14</title>
<path fill="none" stroke="#9a32cd" stroke-dasharray="5,2" d="M392,-404.124C392,-374.8572 392,-321.2914 392,-299.5496"/>
<polygon fill="#9a32cd" stroke="#9a32cd" points="388.5001,-404.363 392,-414.3631 395.5001,-404.3631 388.5001,-404.363"/>
<text text-anchor="middle" x="409" y="-354.5" font-family="Helvetica,sans-Serif" font-size="10.00" fill="#000000"> stream</text>
</g>
<!-- Node13 -->
<g id="node11" class="node">
<title>Node13</title>
<g id="a_node11"><a xlink:href="classumontreal_1_1ssj_1_1randvarmulti_1_1MultinormalGen.html" target="_top" xlink:title="Extends RandomMultivariateGen for a multivariate normal (or multinormal) distribution  ...">
<polygon fill="none" stroke="#000000" points="234.5,-202.5 234.5,-221.5 319.5,-221.5 319.5,-202.5 234.5,-202.5"/>
<text text-anchor="middle" x="277" y="-209.5" font-family="Helvetica,sans-Serif" font-size="10.00" fill="#000000">MultinormalGen</text>
</a>
</g>
</g>
<!-- Node13&#45;&gt;Node6 -->
<g id="edge10" class="edge">
<title>Node13&#45;&gt;Node6</title>
<path fill="none" stroke="#9a32cd" stroke-dasharray="5,2" d="M263.7087,-193.8185C254.8807,-181.7425 243.4251,-166.072 235.0883,-154.668"/>
<polygon fill="#9a32cd" stroke="#9a32cd" points="261.1251,-196.215 269.8522,-202.2223 266.7761,-192.0839 261.1251,-196.215"/>
<text text-anchor="middle" x="293.5" y="-176" font-family="Helvetica,sans-Serif" font-size="10.00" fill="#000000"> normalsCorrGen</text>
</g>
<!-- Node14&#45;&gt;Node13 -->
<g id="edge11" class="edge">
<title>Node14&#45;&gt;Node13</title>
<path fill="none" stroke="#191970" d="M372.0532,-273.8189C359.2087,-263.6706 341.983,-250.5572 326,-240 316.026,-233.4119 304.43,-226.744 295.0231,-221.5685"/>
<polygon fill="#191970" stroke="#191970" points="370.1775,-276.8 380.1765,-280.3031 374.5445,-271.3292 370.1775,-276.8"/>
</g>
<!-- Node15 -->
<g id="node13" class="node">
<title>Node15</title>
<polygon fill="none" stroke="#bfbfbf" points="225.5,-280.5 225.5,-299.5 312.5,-299.5 312.5,-280.5 225.5,-280.5"/>
<text text-anchor="middle" x="269" y="-287.5" font-family="Helvetica,sans-Serif" font-size="10.00" fill="#000000">DoubleMatrix2D</text>
</g>
<!-- Node15&#45;&gt;Node13 -->
<g id="edge14" class="edge">
<title>Node15&#45;&gt;Node13</title>
<path fill="none" stroke="#9a32cd" stroke-dasharray="5,2" d="M271.0219,-270.2866C272.6165,-254.7395 274.7715,-233.7276 276.011,-221.6426"/>
<polygon fill="#9a32cd" stroke="#9a32cd" points="267.5196,-270.1307 269.981,-280.4357 274.4831,-270.845 267.5196,-270.1307"/>
<text text-anchor="middle" x="298" y="-254" font-family="Helvetica,sans-Serif" font-size="10.00" fill="#000000"> sqrtSigma</text>
<text text-anchor="middle" x="298" y="-243" font-family="Helvetica,sans-Serif" font-size="10.00" fill="#000000">sigma</text>
</g>
</g>
</svg>
