<?xml version="1.0" encoding="UTF-8" standalone="no"?>
<!DOCTYPE svg PUBLIC "-//W3C//DTD SVG 1.1//EN"
 "http://www.w3.org/Graphics/SVG/1.1/DTD/svg11.dtd">
<!-- Generated by graphviz version 2.40.1 (0)
 -->
<!-- Title: HilbertCurveSort Pages: 1 -->
<svg width="268pt" height="95pt"
 viewBox="0.00 0.00 268.00 95.00" xmlns="http://www.w3.org/2000/svg" xmlns:xlink="http://www.w3.org/1999/xlink">
<g id="graph0" class="graph" transform="scale(1 1) rotate(0) translate(4 91)">
<title>HilbertCurveSort</title>
<!-- Node2 -->
<g id="node1" class="node">
<title>Node2</title>
<g id="a_node1"><a xlink:title="This class implements a MultiDimSort01&lt;T extends MultiDim01&gt; that can sort an array of points in the ...">
<polygon fill="#bfbfbf" stroke="#000000" points="100.5,-.5 100.5,-19.5 189.5,-19.5 189.5,-.5 100.5,-.5"/>
<text text-anchor="middle" x="145" y="-7.5" font-family="Helvetica,sans-Serif" font-size="10.00" fill="#000000">HilbertCurveSort</text>
</a>
</g>
</g>
<!-- Node3 -->
<g id="node2" class="node">
<title>Node3</title>
<g id="a_node2"><a xlink:href="interfaceumontreal_1_1ssj_1_1util_1_1sort_1_1MultiDimSort01.html" target="_top" xlink:title=" ">
<polygon fill="none" stroke="#000000" points="0,-67.5 0,-86.5 152,-86.5 152,-67.5 0,-67.5"/>
<text text-anchor="middle" x="76" y="-74.5" font-family="Helvetica,sans-Serif" font-size="10.00" fill="#000000">MultiDimSort01&lt; MultiDim01 &gt;</text>
</a>
</g>
</g>
<!-- Node3&#45;&gt;Node2 -->
<g id="edge1" class="edge">
<title>Node3&#45;&gt;Node2</title>
<path fill="none" stroke="#191970" d="M93.4266,-60.0785C106.6238,-47.2639 124.2775,-30.1218 135.1323,-19.5817"/>
<polygon fill="#191970" stroke="#191970" points="90.6221,-57.9232 85.886,-67.4005 95.4985,-62.9452 90.6221,-57.9232"/>
</g>
<!-- Node4 -->
<g id="node3" class="node">
<title>Node4</title>
<g id="a_node3"><a xlink:href="classumontreal_1_1ssj_1_1util_1_1sort_1_1HilbertCurveMap.html" target="_top" xlink:title="This class implements the mapping of a Hilbert curve in the &#45;dimensional unit hypercube .">
<polygon fill="none" stroke="#000000" points="170,-67.5 170,-86.5 260,-86.5 260,-67.5 170,-67.5"/>
<text text-anchor="middle" x="215" y="-74.5" font-family="Helvetica,sans-Serif" font-size="10.00" fill="#000000">HilbertCurveMap</text>
</a>
</g>
</g>
<!-- Node4&#45;&gt;Node2 -->
<g id="edge2" class="edge">
<title>Node4&#45;&gt;Node2</title>
<path fill="none" stroke="#9a32cd" stroke-dasharray="5,2" d="M197.6986,-60.44C184.2709,-47.5879 166.1267,-30.2212 155.0107,-19.5817"/>
<polygon fill="#9a32cd" stroke="#9a32cd" points="195.3264,-63.0144 204.9707,-67.4005 200.1666,-57.9575 195.3264,-63.0144"/>
<text text-anchor="middle" x="200.5" y="-41" font-family="Helvetica,sans-Serif" font-size="10.00" fill="#000000"> hcMap</text>
</g>
</g>
</svg>
