<?xml version="1.0" encoding="UTF-8" standalone="no"?>
<!DOCTYPE svg PUBLIC "-//W3C//DTD SVG 1.1//EN"
 "http://www.w3.org/Graphics/SVG/1.1/DTD/svg11.dtd">
<!-- Generated by graphviz version 2.38.0 (20140413.2041)
 -->
<!-- Title: Event Pages: 1 -->
<svg width="368pt" height="370pt"
 viewBox="0.00 0.00 368.00 370.00" xmlns="http://www.w3.org/2000/svg" xmlns:xlink="http://www.w3.org/1999/xlink">
<g id="graph0" class="graph" transform="scale(1 1) rotate(0) translate(4 366)">
<title>Event</title>
<!-- Node0 -->
<g id="node1" class="node"><title>Node0</title>
<polygon fill="#bfbfbf" stroke="black" points="149,-228.5 149,-247.5 191,-247.5 191,-228.5 149,-228.5"/>
<text text-anchor="middle" x="170" y="-235.5" font-family="Helvetica,sans-Serif" font-size="10.00">Event</text>
</g>
<!-- Node2 -->
<g id="node3" class="node"><title>Node2</title>
<g id="a_node3"><a xlink:href="classift6561examples_1_1CallCenter_1_1Arrival.html" target="_top" xlink:title="CallCenter.Arrival">
<polygon fill="none" stroke="black" points="246.5,-342.5 246.5,-361.5 340.5,-361.5 340.5,-342.5 246.5,-342.5"/>
<text text-anchor="middle" x="293.5" y="-349.5" font-family="Helvetica,sans-Serif" font-size="10.00">CallCenter.Arrival</text>
</a>
</g>
</g>
<!-- Node0&#45;&gt;Node2 -->
<g id="edge2" class="edge"><title>Node0&#45;&gt;Node2</title>
<path fill="none" stroke="midnightblue" d="M180.058,-256.841C188.841,-276.512 204.207,-306.302 227,-324 239.999,-334.094 258.193,-338.828 272.107,-342.487"/>
<polygon fill="midnightblue" stroke="midnightblue" points="183.242,-255.384 176.061,-247.594 176.816,-258.162 183.242,-255.384"/>
</g>
<!-- Node0&#45;&gt;Node2 -->
<g id="edge7" class="edge"><title>Node0&#45;&gt;Node2</title>
<path fill="none" stroke="midnightblue" d="M175.42,-257.591C182.765,-281.582 199.462,-320.617 227,-342 232.705,-346.43 239.41,-349.827 246.314,-352.311"/>
<polygon fill="midnightblue" stroke="midnightblue" points="178.736,-256.449 172.699,-247.743 171.989,-258.314 178.736,-256.449"/>
</g>
<!-- Node3 -->
<g id="node4" class="node"><title>Node3</title>
<g id="a_node4"><a xlink:href="classift6561examples_1_1CallCenter_1_1CallCompletion.html" target="_top" xlink:title="CallCenter.CallCompletion">
<polygon fill="none" stroke="black" points="227,-304.5 227,-323.5 360,-323.5 360,-304.5 227,-304.5"/>
<text text-anchor="middle" x="293.5" y="-311.5" font-family="Helvetica,sans-Serif" font-size="10.00">CallCenter.CallCompletion</text>
</a>
</g>
</g>
<!-- Node0&#45;&gt;Node3 -->
<g id="edge3" class="edge"><title>Node0&#45;&gt;Node3</title>
<path fill="none" stroke="midnightblue" d="M190.849,-255.266C200.666,-265.542 213.332,-277.839 227,-286 242.249,-295.105 262.116,-300.063 275.953,-304.419"/>
<polygon fill="midnightblue" stroke="midnightblue" points="193.328,-252.794 183.929,-247.905 188.228,-257.588 193.328,-252.794"/>
</g>
<!-- Node0&#45;&gt;Node3 -->
<g id="edge8" class="edge"><title>Node0&#45;&gt;Node3</title>
<path fill="none" stroke="midnightblue" d="M179.634,-256.454C189.631,-271.824 207.273,-292.221 227,-304 227.203,-304.121 227.407,-304.242 227.612,-304.362"/>
<polygon fill="midnightblue" stroke="midnightblue" points="182.541,-254.493 174.447,-247.656 176.511,-258.048 182.541,-254.493"/>
</g>
<!-- Node4 -->
<g id="node5" class="node"><title>Node4</title>
<g id="a_node5"><a xlink:href="classift6561examples_1_1CallCenter_1_1NextPeriod.html" target="_top" xlink:title="CallCenter.NextPeriod">
<polygon fill="none" stroke="black" points="236,-266.5 236,-285.5 351,-285.5 351,-266.5 236,-266.5"/>
<text text-anchor="middle" x="293.5" y="-273.5" font-family="Helvetica,sans-Serif" font-size="10.00">CallCenter.NextPeriod</text>
</a>
</g>
</g>
<!-- Node0&#45;&gt;Node4 -->
<g id="edge4" class="edge"><title>Node0&#45;&gt;Node4</title>
<path fill="none" stroke="midnightblue" d="M200.93,-239.781C209.339,-242.286 218.506,-245.328 227,-248 245.975,-253.968 268.254,-260.286 281.328,-266.467"/>
<polygon fill="midnightblue" stroke="midnightblue" points="201.719,-236.367 191.146,-237.053 199.839,-243.11 201.719,-236.367"/>
</g>
<!-- Node0&#45;&gt;Node4 -->
<g id="edge9" class="edge"><title>Node0&#45;&gt;Node4</title>
<path fill="none" stroke="midnightblue" d="M189.052,-252.171C199.992,-257.147 214.253,-261.991 227,-266 229.824,-266.888 232.721,-267.784 235.649,-268.669"/>
<polygon fill="midnightblue" stroke="midnightblue" points="190.574,-249.018 180.077,-247.584 187.388,-255.251 190.574,-249.018"/>
</g>
<!-- Node5 -->
<g id="node6" class="node"><title>Node5</title>
<g id="a_node6"><a xlink:href="classtutorial_1_1BankEv_1_1Arrival.html" target="_top" xlink:title="BankEv.Arrival">
<polygon fill="none" stroke="black" points="252.5,-228.5 252.5,-247.5 334.5,-247.5 334.5,-228.5 252.5,-228.5"/>
<text text-anchor="middle" x="293.5" y="-235.5" font-family="Helvetica,sans-Serif" font-size="10.00">BankEv.Arrival</text>
</a>
</g>
</g>
<!-- Node0&#45;&gt;Node5 -->
<g id="edge5" class="edge"><title>Node0&#45;&gt;Node5</title>
<path fill="none" stroke="midnightblue" d="M201.15,-238C216.657,-238 235.763,-238 252.488,-238"/>
<polygon fill="midnightblue" stroke="midnightblue" points="201.063,-234.5 191.063,-238 201.063,-241.5 201.063,-234.5"/>
</g>
<!-- Node6 -->
<g id="node7" class="node"><title>Node6</title>
<g id="a_node7"><a xlink:href="classtutorial_1_1BankEv_1_1Departure.html" target="_top" xlink:title="BankEv.Departure">
<polygon fill="none" stroke="black" points="245,-190.5 245,-209.5 342,-209.5 342,-190.5 245,-190.5"/>
<text text-anchor="middle" x="293.5" y="-197.5" font-family="Helvetica,sans-Serif" font-size="10.00">BankEv.Departure</text>
</a>
</g>
</g>
<!-- Node0&#45;&gt;Node6 -->
<g id="edge6" class="edge"><title>Node0&#45;&gt;Node6</title>
<path fill="none" stroke="midnightblue" d="M200.654,-227.663C209.137,-224.781 218.412,-221.701 227,-219 237.165,-215.803 248.279,-212.505 258.417,-209.573"/>
<polygon fill="midnightblue" stroke="midnightblue" points="199.471,-224.368 191.146,-230.921 201.741,-230.99 199.471,-224.368"/>
</g>
<!-- Node7 -->
<g id="node8" class="node"><title>Node7</title>
<g id="a_node8"><a xlink:href="classtutorial_1_1PreyPred_1_1EndOfSim.html" target="_top" xlink:title="PreyPred.EndOfSim">
<polygon fill="none" stroke="black" points="241,-152.5 241,-171.5 346,-171.5 346,-152.5 241,-152.5"/>
<text text-anchor="middle" x="293.5" y="-159.5" font-family="Helvetica,sans-Serif" font-size="10.00">PreyPred.EndOfSim</text>
</a>
</g>
</g>
<!-- Node0&#45;&gt;Node7 -->
<g id="edge10" class="edge"><title>Node0&#45;&gt;Node7</title>
<path fill="none" stroke="midnightblue" d="M184.145,-220.431C194.49,-207.764 209.967,-191.17 227,-181 233.405,-177.176 240.624,-174.083 247.869,-171.594"/>
<polygon fill="midnightblue" stroke="midnightblue" points="181.273,-218.421 177.847,-228.447 186.777,-222.746 181.273,-218.421"/>
</g>
<!-- Node8 -->
<g id="node9" class="node"><title>Node8</title>
<g id="a_node9"><a xlink:href="classtutorial_1_1PreyPred_1_1PrintPoint.html" target="_top" xlink:title="PreyPred.PrintPoint">
<polygon fill="none" stroke="black" points="242,-114.5 242,-133.5 345,-133.5 345,-114.5 242,-114.5"/>
<text text-anchor="middle" x="293.5" y="-121.5" font-family="Helvetica,sans-Serif" font-size="10.00">PreyPred.PrintPoint</text>
</a>
</g>
</g>
<!-- Node0&#45;&gt;Node8 -->
<g id="edge11" class="edge"><title>Node0&#45;&gt;Node8</title>
<path fill="none" stroke="midnightblue" d="M177.469,-218.576C185.646,-196.986 201.774,-162.587 227,-143 231.957,-139.151 237.668,-136.082 243.61,-133.634"/>
<polygon fill="midnightblue" stroke="midnightblue" points="174.068,-217.694 174.001,-228.289 180.66,-220.049 174.068,-217.694"/>
</g>
<!-- Node9 -->
<g id="node10" class="node"><title>Node9</title>
<g id="a_node10"><a xlink:href="classtutorial_1_1QueueEv_1_1Arrival.html" target="_top" xlink:title="QueueEv.Arrival">
<polygon fill="none" stroke="black" points="249.5,-76.5 249.5,-95.5 337.5,-95.5 337.5,-76.5 249.5,-76.5"/>
<text text-anchor="middle" x="293.5" y="-83.5" font-family="Helvetica,sans-Serif" font-size="10.00">QueueEv.Arrival</text>
</a>
</g>
</g>
<!-- Node0&#45;&gt;Node9 -->
<g id="edge12" class="edge"><title>Node0&#45;&gt;Node9</title>
<path fill="none" stroke="midnightblue" d="M173.883,-218.194C179.162,-189.137 193.131,-135.145 227,-105 233.368,-99.3321 241.335,-95.3495 249.498,-92.5525"/>
<polygon fill="midnightblue" stroke="midnightblue" points="170.385,-217.898 172.214,-228.333 177.292,-219.035 170.385,-217.898"/>
</g>
<!-- Node10 -->
<g id="node11" class="node"><title>Node10</title>
<g id="a_node11"><a xlink:href="classtutorial_1_1QueueEv_1_1Departure.html" target="_top" xlink:title="QueueEv.Departure">
<polygon fill="none" stroke="black" points="242,-38.5 242,-57.5 345,-57.5 345,-38.5 242,-38.5"/>
<text text-anchor="middle" x="293.5" y="-45.5" font-family="Helvetica,sans-Serif" font-size="10.00">QueueEv.Departure</text>
</a>
</g>
</g>
<!-- Node0&#45;&gt;Node10 -->
<g id="edge13" class="edge"><title>Node0&#45;&gt;Node10</title>
<path fill="none" stroke="midnightblue" d="M171.722,-218.208C174.104,-182.77 184.231,-108.332 227,-67 231.257,-62.8859 236.35,-59.6541 241.789,-57.1169"/>
<polygon fill="midnightblue" stroke="midnightblue" points="168.224,-218.081 171.189,-228.252 175.214,-218.452 168.224,-218.081"/>
</g>
<!-- Node11 -->
<g id="node12" class="node"><title>Node11</title>
<g id="a_node12"><a xlink:href="classtutorial_1_1QueueEv_1_1EndOfSim.html" target="_top" xlink:title="QueueEv.EndOfSim">
<polygon fill="none" stroke="black" points="241,-0.5 241,-19.5 346,-19.5 346,-0.5 241,-0.5"/>
<text text-anchor="middle" x="293.5" y="-7.5" font-family="Helvetica,sans-Serif" font-size="10.00">QueueEv.EndOfSim</text>
</a>
</g>
</g>
<!-- Node0&#45;&gt;Node11 -->
<g id="edge14" class="edge"><title>Node0&#45;&gt;Node11</title>
<path fill="none" stroke="midnightblue" d="M170.298,-217.938C169.993,-176.671 175.338,-81.7342 227,-29 230.977,-24.9402 235.766,-21.7349 240.922,-19.2063"/>
<polygon fill="midnightblue" stroke="midnightblue" points="166.801,-218.146 170.5,-228.074 173.8,-218.006 166.801,-218.146"/>
</g>
<!-- Node1 -->
<g id="node2" class="node"><title>Node1</title>
<polygon fill="none" stroke="#bfbfbf" points="0,-228.5 0,-247.5 113,-247.5 113,-228.5 0,-228.5"/>
<text text-anchor="middle" x="56.5" y="-235.5" font-family="Helvetica,sans-Serif" font-size="10.00">Comparable&lt; Event &gt;</text>
</g>
<!-- Node1&#45;&gt;Node0 -->
<g id="edge1" class="edge"><title>Node1&#45;&gt;Node0</title>
<path fill="none" stroke="midnightblue" d="M123.352,-238C132.57,-238 141.407,-238 148.808,-238"/>
<polygon fill="midnightblue" stroke="midnightblue" points="123.25,-234.5 113.25,-238 123.25,-241.5 123.25,-234.5"/>
</g>
</g>
</svg>
