<?xml version="1.0" encoding="UTF-8" standalone="no"?>
<!DOCTYPE svg PUBLIC "-//W3C//DTD SVG 1.1//EN"
 "http://www.w3.org/Graphics/SVG/1.1/DTD/svg11.dtd">
<!-- Generated by graphviz version 2.38.0 (20140413.2041)
 -->
<!-- Title: SplitStream Pages: 1 -->
<svg width="333pt" height="209pt"
 viewBox="0.00 0.00 333.00 209.00" xmlns="http://www.w3.org/2000/svg" xmlns:xlink="http://www.w3.org/1999/xlink">
<g id="graph0" class="graph" transform="scale(1 1) rotate(0) translate(4 205)">
<title>SplitStream</title>
<!-- Node6 -->
<g id="node1" class="node"><title>Node6</title>
<polygon fill="#bfbfbf" stroke="black" points="223.5,-0.5 223.5,-19.5 291.5,-19.5 291.5,-0.5 223.5,-0.5"/>
<text text-anchor="middle" x="257.5" y="-7.5" font-family="Helvetica,sans-Serif" font-size="10.00">SplitStream</text>
</g>
<!-- Node7 -->
<g id="node2" class="node"><title>Node7</title>
<g id="a_node2"><a xlink:href="classumontreal_1_1ssj_1_1rng_1_1RandomStreamBase.html" target="_top" xlink:title="This class provides a convenient foundation on which RNGs can be built. ">
<polygon fill="none" stroke="black" points="121,-67.5 121,-86.5 228,-86.5 228,-67.5 121,-67.5"/>
<text text-anchor="middle" x="174.5" y="-74.5" font-family="Helvetica,sans-Serif" font-size="10.00">RandomStreamBase</text>
</a>
</g>
</g>
<!-- Node7&#45;&gt;Node6 -->
<g id="edge1" class="edge"><title>Node7&#45;&gt;Node6</title>
<path fill="none" stroke="midnightblue" d="M193.567,-61.0678C209.95,-48.2376 233.002,-30.1853 246.484,-19.6273"/>
<polygon fill="midnightblue" stroke="midnightblue" points="191.409,-58.3126 185.694,-67.2338 195.725,-63.8237 191.409,-58.3126"/>
</g>
<!-- Node8 -->
<g id="node3" class="node"><title>Node8</title>
<g id="a_node3"><a xlink:href="interfaceumontreal_1_1ssj_1_1rng_1_1CloneableRandomStream.html" target="_top" xlink:title="CloneableRandomStream extends RandomStream and Cloneable. ">
<polygon fill="none" stroke="black" points="23.5,-124.5 23.5,-143.5 151.5,-143.5 151.5,-124.5 23.5,-124.5"/>
<text text-anchor="middle" x="87.5" y="-131.5" font-family="Helvetica,sans-Serif" font-size="10.00">CloneableRandomStream</text>
</a>
</g>
</g>
<!-- Node8&#45;&gt;Node7 -->
<g id="edge2" class="edge"><title>Node8&#45;&gt;Node7</title>
<path fill="none" stroke="midnightblue" d="M109.923,-118.824C126.088,-108.605 147.374,-95.1483 161.002,-86.5334"/>
<polygon fill="midnightblue" stroke="midnightblue" points="107.676,-116.104 101.094,-124.406 111.417,-122.021 107.676,-116.104"/>
</g>
<!-- Node9 -->
<g id="node4" class="node"><title>Node9</title>
<g id="a_node4"><a xlink:href="interfaceumontreal_1_1ssj_1_1rng_1_1RandomStream.html" target="_top" xlink:title="This interface defines the basic structures to handle multiple streams of uniform (pseudo)random numb...">
<polygon fill="none" stroke="black" points="0,-181.5 0,-200.5 85,-200.5 85,-181.5 0,-181.5"/>
<text text-anchor="middle" x="42.5" y="-188.5" font-family="Helvetica,sans-Serif" font-size="10.00">RandomStream</text>
</a>
</g>
</g>
<!-- Node9&#45;&gt;Node8 -->
<g id="edge3" class="edge"><title>Node9&#45;&gt;Node8</title>
<path fill="none" stroke="midnightblue" d="M55.9739,-173.532C63.9888,-163.736 73.8355,-151.701 80.3696,-143.715"/>
<polygon fill="midnightblue" stroke="midnightblue" points="53.1548,-171.45 49.5312,-181.406 58.5725,-175.883 53.1548,-171.45"/>
</g>
<!-- Node10 -->
<g id="node5" class="node"><title>Node10</title>
<polygon fill="none" stroke="#bfbfbf" points="103.5,-181.5 103.5,-200.5 163.5,-200.5 163.5,-181.5 103.5,-181.5"/>
<text text-anchor="middle" x="133.5" y="-188.5" font-family="Helvetica,sans-Serif" font-size="10.00">Cloneable</text>
</g>
<!-- Node10&#45;&gt;Node8 -->
<g id="edge4" class="edge"><title>Node10&#45;&gt;Node8</title>
<path fill="none" stroke="midnightblue" d="M119.727,-173.532C111.534,-163.736 101.468,-151.701 94.7888,-143.715"/>
<polygon fill="midnightblue" stroke="midnightblue" points="117.212,-175.981 126.312,-181.406 122.582,-171.49 117.212,-175.981"/>
</g>
<!-- Node11 -->
<g id="node6" class="node"><title>Node11</title>
<polygon fill="none" stroke="#bfbfbf" points="170,-124.5 170,-143.5 237,-143.5 237,-124.5 170,-124.5"/>
<text text-anchor="middle" x="203.5" y="-131.5" font-family="Helvetica,sans-Serif" font-size="10.00">Serializable</text>
</g>
<!-- Node11&#45;&gt;Node7 -->
<g id="edge5" class="edge"><title>Node11&#45;&gt;Node7</title>
<path fill="none" stroke="midnightblue" d="M194.185,-115.334C189.142,-105.77 183.136,-94.3784 179.095,-86.7149"/>
<polygon fill="midnightblue" stroke="midnightblue" points="191.209,-117.193 198.969,-124.406 197.401,-113.928 191.209,-117.193"/>
</g>
<!-- Node12 -->
<g id="node7" class="node"><title>Node12</title>
<g id="a_node7"><a xlink:href="classumontreal_1_1ssj_1_1mcqmctools_1_1anova_1_1CoordinateSet.html" target="_top" xlink:title="Represents a set of coordinates. ">
<polygon fill="none" stroke="black" points="246,-67.5 246,-86.5 325,-86.5 325,-67.5 246,-67.5"/>
<text text-anchor="middle" x="285.5" y="-74.5" font-family="Helvetica,sans-Serif" font-size="10.00">CoordinateSet</text>
</a>
</g>
</g>
<!-- Node12&#45;&gt;Node6 -->
<g id="edge6" class="edge"><title>Node12&#45;&gt;Node6</title>
<path fill="none" stroke="#9a32cd" stroke-dasharray="5,2" d="M277.656,-57.79C272.279,-45.3076 265.389,-29.3135 261.216,-19.6273"/>
<polygon fill="#9a32cd" stroke="#9a32cd" points="274.553,-59.4344 281.724,-67.2338 280.982,-56.665 274.553,-59.4344"/>
<text text-anchor="middle" x="290" y="-41" font-family="Helvetica,sans-Serif" font-size="10.00"> coords</text>
</g>
</g>
</svg>
