<?xml version="1.0" encoding="UTF-8" standalone="no"?>
<!DOCTYPE svg PUBLIC "-//W3C//DTD SVG 1.1//EN"
 "http://www.w3.org/Graphics/SVG/1.1/DTD/svg11.dtd">
<!-- Generated by graphviz version 2.40.1 (20161225.0304)
 -->
<!-- Title: DigitalNetSearch Pages: 1 -->
<svg width="107pt" height="163pt"
 viewBox="0.00 0.00 107.00 163.00" xmlns="http://www.w3.org/2000/svg" xmlns:xlink="http://www.w3.org/1999/xlink">
<g id="graph0" class="graph" transform="scale(1 1) rotate(0) translate(4 159)">
<title>DigitalNetSearch</title>
<!-- Node3 -->
<g id="node1" class="node">
<title>Node3</title>
<polygon fill="#bfbfbf" stroke="#000000" points="4,-.5 4,-19.5 95,-19.5 95,-.5 4,-.5"/>
<text text-anchor="middle" x="49.5" y="-7.5" font-family="Helvetica,sans-Serif" font-size="10.00" fill="#000000">DigitalNetSearch</text>
</g>
<!-- Node4 -->
<g id="node2" class="node">
<title>Node4</title>
<g id="a_node2"><a xlink:href="classumontreal_1_1ssj_1_1latnetbuilder_1_1Search.html" target="_top" xlink:title="Abstract class for the search of highly uniform point sets with LatNet Builder. ">
<polygon fill="none" stroke="#000000" points="26,-57.5 26,-76.5 73,-76.5 73,-57.5 26,-57.5"/>
<text text-anchor="middle" x="49.5" y="-64.5" font-family="Helvetica,sans-Serif" font-size="10.00" fill="#000000">Search</text>
</a>
</g>
</g>
<!-- Node4&#45;&gt;Node3 -->
<g id="edge1" class="edge">
<title>Node4&#45;&gt;Node3</title>
<path fill="none" stroke="#191970" d="M49.5,-47.2342C49.5,-37.8491 49.5,-27.0651 49.5,-19.5265"/>
<polygon fill="#191970" stroke="#191970" points="46.0001,-47.3307 49.5,-57.3307 53.0001,-47.3308 46.0001,-47.3307"/>
</g>
<!-- Node5 -->
<g id="node3" class="node">
<title>Node5</title>
<polygon fill="none" stroke="#bfbfbf" points="0,-135.5 0,-154.5 99,-154.5 99,-135.5 0,-135.5"/>
<text text-anchor="middle" x="49.5" y="-142.5" font-family="Helvetica,sans-Serif" font-size="10.00" fill="#000000">ArrayList&lt; String &gt;</text>
</g>
<!-- Node5&#45;&gt;Node4 -->
<g id="edge2" class="edge">
<title>Node5&#45;&gt;Node4</title>
<path fill="none" stroke="#9a32cd" stroke-dasharray="5,2" d="M49.5,-125.2866C49.5,-109.7395 49.5,-88.7276 49.5,-76.6426"/>
<polygon fill="#9a32cd" stroke="#9a32cd" points="46.0001,-125.4356 49.5,-135.4357 53.0001,-125.4357 46.0001,-125.4356"/>
<text text-anchor="middle" x="66.5" y="-109" font-family="Helvetica,sans-Serif" font-size="10.00" fill="#000000"> filters</text>
<text text-anchor="middle" x="66.5" y="-98" font-family="Helvetica,sans-Serif" font-size="10.00" fill="#000000">weights</text>
</g>
</g>
</svg>
