<?xml version="1.0" encoding="UTF-8" standalone="no"?>
<!DOCTYPE svg PUBLIC "-//W3C//DTD SVG 1.1//EN"
 "http://www.w3.org/Graphics/SVG/1.1/DTD/svg11.dtd">
<!-- Generated by graphviz version 2.40.1 (20161225.0304)
 -->
<!-- Title: GeometricBrownianMotion Pages: 1 -->
<svg width="257pt" height="286pt"
 viewBox="0.00 0.00 257.00 286.00" xmlns="http://www.w3.org/2000/svg" xmlns:xlink="http://www.w3.org/1999/xlink">
<g id="graph0" class="graph" transform="scale(1 1) rotate(0) translate(4 282)">
<title>GeometricBrownianMotion</title>
<!-- Node2 -->
<g id="node1" class="node">
<title>Node2</title>
<polygon fill="#bfbfbf" stroke="#000000" points="23,-.5 23,-19.5 154,-19.5 154,-.5 23,-.5"/>
<text text-anchor="middle" x="88.5" y="-7.5" font-family="Helvetica,sans-Serif" font-size="10.00" fill="#000000">GeometricBrownianMotion</text>
</g>
<!-- Node3 -->
<g id="node2" class="node">
<title>Node3</title>
<g id="a_node2"><a xlink:href="classumontreal_1_1ssj_1_1stochprocess_1_1StochasticProcess.html" target="_top" xlink:title="Abstract base class for a stochastic process &#160;sampled (or observed) at a finite number of time points...">
<polygon fill="none" stroke="#000000" points="0,-134.5 0,-153.5 99,-153.5 99,-134.5 0,-134.5"/>
<text text-anchor="middle" x="49.5" y="-141.5" font-family="Helvetica,sans-Serif" font-size="10.00" fill="#000000">StochasticProcess</text>
</a>
</g>
</g>
<!-- Node3&#45;&gt;Node2 -->
<g id="edge1" class="edge">
<title>Node3&#45;&gt;Node2</title>
<path fill="none" stroke="#191970" d="M40.7947,-124.856C34.8234,-108.921 29.1849,-85.8724 36.5,-67 44.2458,-47.0165 62.6218,-29.7468 75.3146,-19.6046"/>
<polygon fill="#191970" stroke="#191970" points="37.5915,-126.2694 44.6339,-134.1849 44.0648,-123.6054 37.5915,-126.2694"/>
</g>
<!-- Node8 -->
<g id="node7" class="node">
<title>Node8</title>
<g id="a_node7"><a xlink:href="classumontreal_1_1ssj_1_1stochprocess_1_1BrownianMotion.html" target="_top" xlink:title="This class represents a Brownian motion process , sampled at times . ">
<polygon fill="none" stroke="#000000" points="45.5,-67.5 45.5,-86.5 131.5,-86.5 131.5,-67.5 45.5,-67.5"/>
<text text-anchor="middle" x="88.5" y="-74.5" font-family="Helvetica,sans-Serif" font-size="10.00" fill="#000000">BrownianMotion</text>
</a>
</g>
</g>
<!-- Node3&#45;&gt;Node8 -->
<g id="edge7" class="edge">
<title>Node3&#45;&gt;Node8</title>
<path fill="none" stroke="#191970" d="M60.2047,-125.6099C67.5567,-112.9795 77.0188,-96.7241 82.9226,-86.5817"/>
<polygon fill="#191970" stroke="#191970" points="57.0936,-123.9973 55.0877,-134.4005 63.1434,-127.5188 57.0936,-123.9973"/>
</g>
<!-- Node4 -->
<g id="node3" class="node">
<title>Node4</title>
<g id="a_node3"><a xlink:href="classumontreal_1_1ssj_1_1randvar_1_1NormalGen.html" target="_top" xlink:title="This class implements methods for generating random variates from the normal distribution ...">
<polygon fill="none" stroke="#000000" points="126.5,-134.5 126.5,-153.5 192.5,-153.5 192.5,-134.5 126.5,-134.5"/>
<text text-anchor="middle" x="159.5" y="-141.5" font-family="Helvetica,sans-Serif" font-size="10.00" fill="#000000">NormalGen</text>
</a>
</g>
</g>
<!-- Node4&#45;&gt;Node2 -->
<g id="edge2" class="edge">
<title>Node4&#45;&gt;Node2</title>
<path fill="none" stroke="#9a32cd" stroke-dasharray="5,2" d="M157.5947,-124.4331C155.3507,-108.2019 150.5609,-84.9585 140.5,-67 129.8939,-48.0685 111.8877,-30.2714 100.0943,-19.7542"/>
<polygon fill="#9a32cd" stroke="#9a32cd" points="154.1231,-124.8798 158.7751,-134.3987 161.0745,-124.0564 154.1231,-124.8798"/>
<text text-anchor="middle" x="159" y="-74.5" font-family="Helvetica,sans-Serif" font-size="10.00" fill="#000000"> gen</text>
</g>
<!-- Node4&#45;&gt;Node8 -->
<g id="edge8" class="edge">
<title>Node4&#45;&gt;Node8</title>
<path fill="none" stroke="#9a32cd" stroke-dasharray="5,2" d="M141.9514,-127.44C128.332,-114.5879 109.9285,-97.2212 98.6537,-86.5817"/>
<polygon fill="#9a32cd" stroke="#9a32cd" points="139.6523,-130.0828 149.3274,-134.4005 144.4566,-124.9917 139.6523,-130.0828"/>
<text text-anchor="middle" x="138" y="-108" font-family="Helvetica,sans-Serif" font-size="10.00" fill="#000000"> gen</text>
</g>
<!-- Node5 -->
<g id="node4" class="node">
<title>Node5</title>
<g id="a_node4"><a xlink:href="classumontreal_1_1ssj_1_1randvar_1_1RandomVariateGen.html" target="_top" xlink:title="This is the base class for all random variate generators over the real line. ">
<polygon fill="none" stroke="#000000" points="109,-191.5 109,-210.5 210,-210.5 210,-191.5 109,-191.5"/>
<text text-anchor="middle" x="159.5" y="-198.5" font-family="Helvetica,sans-Serif" font-size="10.00" fill="#000000">RandomVariateGen</text>
</a>
</g>
</g>
<!-- Node5&#45;&gt;Node4 -->
<g id="edge3" class="edge">
<title>Node5&#45;&gt;Node4</title>
<path fill="none" stroke="#191970" d="M159.5,-181.2342C159.5,-171.8491 159.5,-161.0651 159.5,-153.5265"/>
<polygon fill="#191970" stroke="#191970" points="156.0001,-181.3307 159.5,-191.3307 163.0001,-181.3308 156.0001,-181.3307"/>
</g>
<!-- Node6 -->
<g id="node5" class="node">
<title>Node6</title>
<g id="a_node5"><a xlink:href="interfaceumontreal_1_1ssj_1_1probdist_1_1Distribution.html" target="_top" xlink:title="This interface should be implemented by all classes supporting discrete and continuous distributions...">
<polygon fill="none" stroke="#000000" points="79.5,-258.5 79.5,-277.5 145.5,-277.5 145.5,-258.5 79.5,-258.5"/>
<text text-anchor="middle" x="112.5" y="-265.5" font-family="Helvetica,sans-Serif" font-size="10.00" fill="#000000">Distribution</text>
</a>
</g>
</g>
<!-- Node6&#45;&gt;Node5 -->
<g id="edge4" class="edge">
<title>Node6&#45;&gt;Node5</title>
<path fill="none" stroke="#9a32cd" stroke-dasharray="5,2" d="M125.1407,-249.9803C134.0366,-237.2989 145.594,-220.8235 152.7785,-210.5817"/>
<polygon fill="#9a32cd" stroke="#9a32cd" points="122.1115,-248.2039 119.234,-258.4005 127.8421,-252.2239 122.1115,-248.2039"/>
<text text-anchor="middle" x="149" y="-232" font-family="Helvetica,sans-Serif" font-size="10.00" fill="#000000"> dist</text>
</g>
<!-- Node7 -->
<g id="node6" class="node">
<title>Node7</title>
<g id="a_node6"><a xlink:href="interfaceumontreal_1_1ssj_1_1rng_1_1RandomStream.html" target="_top" xlink:title="This interface defines the basic structures to handle multiple streams of uniform (pseudo)random numb...">
<polygon fill="none" stroke="#000000" points="164,-258.5 164,-277.5 249,-277.5 249,-258.5 164,-258.5"/>
<text text-anchor="middle" x="206.5" y="-265.5" font-family="Helvetica,sans-Serif" font-size="10.00" fill="#000000">RandomStream</text>
</a>
</g>
</g>
<!-- Node7&#45;&gt;Node5 -->
<g id="edge5" class="edge">
<title>Node7&#45;&gt;Node5</title>
<path fill="none" stroke="#9a32cd" stroke-dasharray="5,2" d="M193.8593,-249.9803C184.9634,-237.2989 173.406,-220.8235 166.2215,-210.5817"/>
<polygon fill="#9a32cd" stroke="#9a32cd" points="191.1579,-252.2239 199.766,-258.4005 196.8885,-248.2039 191.1579,-252.2239"/>
<text text-anchor="middle" x="202.5" y="-232" font-family="Helvetica,sans-Serif" font-size="10.00" fill="#000000"> stream</text>
</g>
<!-- Node8&#45;&gt;Node2 -->
<g id="edge6" class="edge">
<title>Node8&#45;&gt;Node2</title>
<path fill="none" stroke="#9a32cd" stroke-dasharray="5,2" d="M88.5,-57.1079C88.5,-44.714 88.5,-29.3263 88.5,-19.5817"/>
<polygon fill="#9a32cd" stroke="#9a32cd" points="85.0001,-57.4005 88.5,-67.4005 92.0001,-57.4006 85.0001,-57.4005"/>
<text text-anchor="middle" x="97" y="-41" font-family="Helvetica,sans-Serif" font-size="10.00" fill="#000000"> bm</text>
</g>
</g>
</svg>
