<?xml version="1.0" encoding="UTF-8" standalone="no"?>
<!DOCTYPE svg PUBLIC "-//W3C//DTD SVG 1.1//EN"
 "http://www.w3.org/Graphics/SVG/1.1/DTD/svg11.dtd">
<!-- Generated by graphviz version 2.40.1 (0)
 -->
<!-- Title: Event Pages: 1 -->
<svg width="367pt" height="370pt"
 viewBox="0.00 0.00 367.00 370.00" xmlns="http://www.w3.org/2000/svg" xmlns:xlink="http://www.w3.org/1999/xlink">
<g id="graph0" class="graph" transform="scale(1 1) rotate(0) translate(4 366)">
<title>Event</title>
<!-- Node0 -->
<g id="node1" class="node">
<title>Node0</title>
<g id="a_node1"><a xlink:title="This abstract class provides event scheduling tools.">
<polygon fill="#bfbfbf" stroke="#000000" points="149,-228.5 149,-247.5 191,-247.5 191,-228.5 149,-228.5"/>
<text text-anchor="middle" x="170" y="-235.5" font-family="Helvetica,sans-Serif" font-size="10.00" fill="#000000">Event</text>
</a>
</g>
</g>
<!-- Node2 -->
<g id="node3" class="node">
<title>Node2</title>
<g id="a_node3"><a xlink:href="classift6561examples_1_1CallCenter_1_1Arrival.html" target="_top" xlink:title=" ">
<polygon fill="none" stroke="#000000" points="246.5,-342.5 246.5,-361.5 339.5,-361.5 339.5,-342.5 246.5,-342.5"/>
<text text-anchor="middle" x="293" y="-349.5" font-family="Helvetica,sans-Serif" font-size="10.00" fill="#000000">CallCenter.Arrival</text>
</a>
</g>
</g>
<!-- Node0&#45;&gt;Node2 -->
<g id="edge2" class="edge">
<title>Node0&#45;&gt;Node2</title>
<path fill="none" stroke="#191970" d="M179.3287,-256.8562C188.3365,-276.5368 204.0149,-306.3322 227,-324 240.1405,-334.1006 258.469,-338.8341 272.4777,-342.4916"/>
<polygon fill="#191970" stroke="#191970" points="182.4784,-255.3249 175.2229,-247.6043 176.0802,-258.1644 182.4784,-255.3249"/>
</g>
<!-- Node0&#45;&gt;Node2 -->
<g id="edge7" class="edge">
<title>Node0&#45;&gt;Node2</title>
<path fill="none" stroke="#191970" d="M174.564,-257.5997C182.1244,-281.6036 199.2291,-320.6536 227,-342 232.7667,-346.4326 239.5325,-349.8316 246.494,-352.3161"/>
<polygon fill="#191970" stroke="#191970" points="177.8633,-256.4061 171.7578,-247.7473 171.131,-258.3236 177.8633,-256.4061"/>
</g>
<!-- Node3 -->
<g id="node4" class="node">
<title>Node3</title>
<g id="a_node4"><a xlink:href="classift6561examples_1_1CallCenter_1_1CallCompletion.html" target="_top" xlink:title=" ">
<polygon fill="none" stroke="#000000" points="227,-304.5 227,-323.5 359,-323.5 359,-304.5 227,-304.5"/>
<text text-anchor="middle" x="293" y="-311.5" font-family="Helvetica,sans-Serif" font-size="10.00" fill="#000000">CallCenter.CallCompletion</text>
</a>
</g>
</g>
<!-- Node0&#45;&gt;Node3 -->
<g id="edge3" class="edge">
<title>Node0&#45;&gt;Node3</title>
<path fill="none" stroke="#191970" d="M190.276,-255.2694C200.2829,-265.5452 213.1673,-277.8422 227,-286 242.5086,-295.1462 262.6844,-300.1132 276.6258,-304.4959"/>
<polygon fill="#191970" stroke="#191970" points="192.6639,-252.7028 183.2164,-247.9075 187.6115,-257.5477 192.6639,-252.7028"/>
</g>
<!-- Node0&#45;&gt;Node3 -->
<g id="edge8" class="edge">
<title>Node0&#45;&gt;Node3</title>
<path fill="none" stroke="#191970" d="M178.831,-256.4561C189.0446,-271.8278 207.0345,-292.2254 227,-304 227.2054,-304.1211 227.4116,-304.2416 227.6187,-304.3612"/>
<polygon fill="#191970" stroke="#191970" points="181.6875,-254.4152 173.5283,-247.6567 175.692,-258.0282 181.6875,-254.4152"/>
</g>
<!-- Node4 -->
<g id="node5" class="node">
<title>Node4</title>
<g id="a_node5"><a xlink:href="classift6561examples_1_1CallCenter_1_1NextPeriod.html" target="_top" xlink:title=" ">
<polygon fill="none" stroke="#000000" points="236,-266.5 236,-285.5 350,-285.5 350,-266.5 236,-266.5"/>
<text text-anchor="middle" x="293" y="-273.5" font-family="Helvetica,sans-Serif" font-size="10.00" fill="#000000">CallCenter.NextPeriod</text>
</a>
</g>
</g>
<!-- Node0&#45;&gt;Node4 -->
<g id="edge4" class="edge">
<title>Node0&#45;&gt;Node4</title>
<path fill="none" stroke="#191970" d="M200.8938,-239.8903C209.3365,-242.3714 218.5011,-245.3614 227,-248 246.131,-253.9394 268.5764,-260.266 281.747,-266.4573"/>
<polygon fill="#191970" stroke="#191970" points="201.6175,-236.4593 191.0468,-237.1741 199.7561,-243.2072 201.6175,-236.4593"/>
</g>
<!-- Node0&#45;&gt;Node4 -->
<g id="edge9" class="edge">
<title>Node0&#45;&gt;Node4</title>
<path fill="none" stroke="#191970" d="M188.3801,-252.1589C199.518,-257.1309 214.0337,-261.9745 227,-266 229.8469,-266.8838 232.7672,-267.7763 235.7193,-268.6588"/>
<polygon fill="#191970" stroke="#191970" points="189.7503,-248.9306 179.2424,-247.5764 186.6123,-255.1879 189.7503,-248.9306"/>
</g>
<!-- Node5 -->
<g id="node6" class="node">
<title>Node5</title>
<g id="a_node6"><a xlink:href="classtutorial_1_1BankEv_1_1Arrival.html" target="_top" xlink:title=" ">
<polygon fill="none" stroke="#000000" points="252.5,-228.5 252.5,-247.5 333.5,-247.5 333.5,-228.5 252.5,-228.5"/>
<text text-anchor="middle" x="293" y="-235.5" font-family="Helvetica,sans-Serif" font-size="10.00" fill="#000000">BankEv.Arrival</text>
</a>
</g>
</g>
<!-- Node0&#45;&gt;Node5 -->
<g id="edge5" class="edge">
<title>Node0&#45;&gt;Node5</title>
<path fill="none" stroke="#191970" d="M201.2566,-238C216.7513,-238 235.6561,-238 252.2697,-238"/>
<polygon fill="#191970" stroke="#191970" points="201.1445,-234.5001 191.1445,-238 201.1444,-241.5001 201.1445,-234.5001"/>
</g>
<!-- Node6 -->
<g id="node7" class="node">
<title>Node6</title>
<g id="a_node7"><a xlink:href="classtutorial_1_1BankEv_1_1Departure.html" target="_top" xlink:title=" ">
<polygon fill="none" stroke="#000000" points="245,-190.5 245,-209.5 341,-209.5 341,-190.5 245,-190.5"/>
<text text-anchor="middle" x="293" y="-197.5" font-family="Helvetica,sans-Serif" font-size="10.00" fill="#000000">BankEv.Departure</text>
</a>
</g>
</g>
<!-- Node0&#45;&gt;Node6 -->
<g id="edge6" class="edge">
<title>Node0&#45;&gt;Node6</title>
<path fill="none" stroke="#191970" d="M200.6157,-227.5355C209.135,-224.6944 218.4077,-221.6676 227,-219 237.2488,-215.8182 248.4487,-212.5252 258.6643,-209.5926"/>
<polygon fill="#191970" stroke="#191970" points="199.4099,-224.2483 191.0468,-230.7529 201.6408,-230.8833 199.4099,-224.2483"/>
</g>
<!-- Node7 -->
<g id="node8" class="node">
<title>Node7</title>
<g id="a_node8"><a xlink:href="classtutorial_1_1PreyPred_1_1EndOfSim.html" target="_top" xlink:title=" ">
<polygon fill="none" stroke="#000000" points="240.5,-152.5 240.5,-171.5 345.5,-171.5 345.5,-152.5 240.5,-152.5"/>
<text text-anchor="middle" x="293" y="-159.5" font-family="Helvetica,sans-Serif" font-size="10.00" fill="#000000">PreyPred.EndOfSim</text>
</a>
</g>
</g>
<!-- Node0&#45;&gt;Node7 -->
<g id="edge10" class="edge">
<title>Node0&#45;&gt;Node7</title>
<path fill="none" stroke="#191970" d="M183.4372,-220.4292C193.9964,-207.7604 209.7619,-191.1662 227,-181 233.4705,-177.184 240.7534,-174.0955 248.057,-171.6076"/>
<polygon fill="#191970" stroke="#191970" points="180.5333,-218.4556 177.0045,-228.4455 185.9929,-222.8366 180.5333,-218.4556"/>
</g>
<!-- Node8 -->
<g id="node9" class="node">
<title>Node8</title>
<g id="a_node9"><a xlink:href="classtutorial_1_1PreyPred_1_1PrintPoint.html" target="_top" xlink:title=" ">
<polygon fill="none" stroke="#000000" points="241.5,-114.5 241.5,-133.5 344.5,-133.5 344.5,-114.5 241.5,-114.5"/>
<text text-anchor="middle" x="293" y="-121.5" font-family="Helvetica,sans-Serif" font-size="10.00" fill="#000000">PreyPred.PrintPoint</text>
</a>
</g>
</g>
<!-- Node0&#45;&gt;Node8 -->
<g id="edge11" class="edge">
<title>Node0&#45;&gt;Node8</title>
<path fill="none" stroke="#191970" d="M176.5567,-218.8589C184.922,-197.2772 201.4451,-162.6431 227,-143 232.0104,-139.1487 237.7751,-136.0777 243.7669,-133.629"/>
<polygon fill="#191970" stroke="#191970" points="173.258,-217.6885 173.1016,-228.2822 179.8302,-220.0983 173.258,-217.6885"/>
</g>
<!-- Node9 -->
<g id="node10" class="node">
<title>Node9</title>
<g id="a_node10"><a xlink:href="classtutorial_1_1QueueEv_1_1Arrival.html" target="_top" xlink:title=" ">
<polygon fill="none" stroke="#000000" points="249.5,-76.5 249.5,-95.5 336.5,-95.5 336.5,-76.5 249.5,-76.5"/>
<text text-anchor="middle" x="293" y="-83.5" font-family="Helvetica,sans-Serif" font-size="10.00" fill="#000000">QueueEv.Arrival</text>
</a>
</g>
</g>
<!-- Node0&#45;&gt;Node9 -->
<g id="edge12" class="edge">
<title>Node0&#45;&gt;Node9</title>
<path fill="none" stroke="#191970" d="M173.0343,-218.1784C178.5344,-189.1015 192.9131,-135.0841 227,-105 233.3473,-99.3981 241.2505,-95.442 249.3584,-92.6497"/>
<polygon fill="#191970" stroke="#191970" points="169.535,-217.8762 171.288,-228.325 176.4335,-219.0636 169.535,-217.8762"/>
</g>
<!-- Node10 -->
<g id="node11" class="node">
<title>Node10</title>
<g id="a_node11"><a xlink:href="classtutorial_1_1QueueEv_1_1Departure.html" target="_top" xlink:title=" ">
<polygon fill="none" stroke="#000000" points="242,-38.5 242,-57.5 344,-57.5 344,-38.5 242,-38.5"/>
<text text-anchor="middle" x="293" y="-45.5" font-family="Helvetica,sans-Serif" font-size="10.00" fill="#000000">QueueEv.Departure</text>
</a>
</g>
</g>
<!-- Node0&#45;&gt;Node10 -->
<g id="edge13" class="edge">
<title>Node0&#45;&gt;Node10</title>
<path fill="none" stroke="#191970" d="M174.0842,-218.6059C182.8966,-178.4977 204.7077,-88.3869 227,-67 231.3021,-62.8726 236.4414,-59.6327 241.9268,-57.091"/>
<polygon fill="#191970" stroke="#191970" points="170.6386,-217.981 171.9537,-228.4939 177.4815,-219.4555 170.6386,-217.981"/>
</g>
<!-- Node11 -->
<g id="node12" class="node">
<title>Node11</title>
<g id="a_node12"><a xlink:href="classtutorial_1_1QueueEv_1_1EndOfSim.html" target="_top" xlink:title=" ">
<polygon fill="none" stroke="#000000" points="241,-.5 241,-19.5 345,-19.5 345,-.5 241,-.5"/>
<text text-anchor="middle" x="293" y="-7.5" font-family="Helvetica,sans-Serif" font-size="10.00" fill="#000000">QueueEv.EndOfSim</text>
</a>
</g>
</g>
<!-- Node0&#45;&gt;Node11 -->
<g id="edge14" class="edge">
<title>Node0&#45;&gt;Node11</title>
<path fill="none" stroke="#191970" d="M172.8947,-218.1783C180.104,-171.4243 200.2261,-56.1527 227,-29 230.9348,-25.0095 235.6494,-21.8439 240.7249,-19.3347"/>
<polygon fill="#191970" stroke="#191970" points="169.405,-217.8486 171.3783,-228.258 176.3271,-218.89 169.405,-217.8486"/>
</g>
<!-- Node1 -->
<g id="node2" class="node">
<title>Node1</title>
<g id="a_node2"><a xlink:title=" ">
<polygon fill="none" stroke="#bfbfbf" points="0,-228.5 0,-247.5 113,-247.5 113,-228.5 0,-228.5"/>
<text text-anchor="middle" x="56.5" y="-235.5" font-family="Helvetica,sans-Serif" font-size="10.00" fill="#000000">Comparable&lt; Event &gt;</text>
</a>
</g>
</g>
<!-- Node1&#45;&gt;Node0 -->
<g id="edge1" class="edge">
<title>Node1&#45;&gt;Node0</title>
<path fill="none" stroke="#191970" d="M123.3592,-238C132.5867,-238 141.4457,-238 148.9175,-238"/>
<polygon fill="#191970" stroke="#191970" points="123.25,-234.5001 113.25,-238 123.25,-241.5001 123.25,-234.5001"/>
</g>
</g>
</svg>
