<?xml version="1.0" encoding="UTF-8" standalone="no"?>
<!DOCTYPE svg PUBLIC "-//W3C//DTD SVG 1.1//EN"
 "http://www.w3.org/Graphics/SVG/1.1/DTD/svg11.dtd">
<!-- Generated by graphviz version 2.40.1 (20161225.0304)
 -->
<!-- Title: CycleBasedPointSetBase2 Pages: 1 -->
<svg width="143pt" height="209pt"
 viewBox="0.00 0.00 143.00 209.00" xmlns="http://www.w3.org/2000/svg" xmlns:xlink="http://www.w3.org/1999/xlink">
<g id="graph0" class="graph" transform="scale(1 1) rotate(0) translate(4 205)">
<title>CycleBasedPointSetBase2</title>
<!-- Node6 -->
<g id="node1" class="node">
<title>Node6</title>
<polygon fill="#bfbfbf" stroke="#000000" points="0,-.5 0,-19.5 135,-19.5 135,-.5 0,-.5"/>
<text text-anchor="middle" x="67.5" y="-7.5" font-family="Helvetica,sans-Serif" font-size="10.00" fill="#000000">CycleBasedPointSetBase2</text>
</g>
<!-- Node7 -->
<g id="node2" class="node">
<title>Node7</title>
<g id="a_node2"><a xlink:href="classumontreal_1_1ssj_1_1hups_1_1CycleBasedPointSet.html" target="_top" xlink:title="This abstract class provides the basic structures for storing and manipulating a highly uniform point...">
<polygon fill="none" stroke="#000000" points="14,-57.5 14,-76.5 121,-76.5 121,-57.5 14,-57.5"/>
<text text-anchor="middle" x="67.5" y="-64.5" font-family="Helvetica,sans-Serif" font-size="10.00" fill="#000000">CycleBasedPointSet</text>
</a>
</g>
</g>
<!-- Node7&#45;&gt;Node6 -->
<g id="edge1" class="edge">
<title>Node7&#45;&gt;Node6</title>
<path fill="none" stroke="#191970" d="M67.5,-47.2342C67.5,-37.8491 67.5,-27.0651 67.5,-19.5265"/>
<polygon fill="#191970" stroke="#191970" points="64.0001,-47.3307 67.5,-57.3307 71.0001,-47.3308 64.0001,-47.3307"/>
</g>
<!-- Node8 -->
<g id="node3" class="node">
<title>Node8</title>
<g id="a_node3"><a xlink:href="classumontreal_1_1ssj_1_1hups_1_1PointSet.html" target="_top" xlink:title="This abstract class defines the basic methods for accessing and manipulating point sets...">
<polygon fill="none" stroke="#000000" points="40.5,-114.5 40.5,-133.5 94.5,-133.5 94.5,-114.5 40.5,-114.5"/>
<text text-anchor="middle" x="67.5" y="-121.5" font-family="Helvetica,sans-Serif" font-size="10.00" fill="#000000">PointSet</text>
</a>
</g>
</g>
<!-- Node8&#45;&gt;Node7 -->
<g id="edge2" class="edge">
<title>Node8&#45;&gt;Node7</title>
<path fill="none" stroke="#191970" d="M67.5,-104.2342C67.5,-94.8491 67.5,-84.0651 67.5,-76.5265"/>
<polygon fill="#191970" stroke="#191970" points="64.0001,-104.3307 67.5,-114.3307 71.0001,-104.3308 64.0001,-104.3307"/>
</g>
<!-- Node9 -->
<g id="node4" class="node">
<title>Node9</title>
<g id="a_node4"><a xlink:href="interfaceumontreal_1_1ssj_1_1rng_1_1RandomStream.html" target="_top" xlink:title="This interface defines the basic structures to handle multiple streams of uniform (pseudo)random numb...">
<polygon fill="none" stroke="#000000" points="25,-181.5 25,-200.5 110,-200.5 110,-181.5 25,-181.5"/>
<text text-anchor="middle" x="67.5" y="-188.5" font-family="Helvetica,sans-Serif" font-size="10.00" fill="#000000">RandomStream</text>
</a>
</g>
</g>
<!-- Node9&#45;&gt;Node8 -->
<g id="edge3" class="edge">
<title>Node9&#45;&gt;Node8</title>
<path fill="none" stroke="#9a32cd" stroke-dasharray="5,2" d="M67.5,-171.1079C67.5,-158.714 67.5,-143.3263 67.5,-133.5817"/>
<polygon fill="#9a32cd" stroke="#9a32cd" points="64.0001,-171.4005 67.5,-181.4005 71.0001,-171.4006 64.0001,-171.4005"/>
<text text-anchor="middle" x="94.5" y="-155" font-family="Helvetica,sans-Serif" font-size="10.00" fill="#000000"> shiftStream</text>
</g>
</g>
</svg>
