<?xml version="1.0" encoding="UTF-8" standalone="no"?>
<!DOCTYPE svg PUBLIC "-//W3C//DTD SVG 1.1//EN"
 "http://www.w3.org/Graphics/SVG/1.1/DTD/svg11.dtd">
<!-- Generated by graphviz version 2.40.1 (0)
 -->
<!-- Title: GammaProcess Pages: 1 -->
<svg width="346pt" height="263pt"
 viewBox="0.00 0.00 345.50 263.00" xmlns="http://www.w3.org/2000/svg" xmlns:xlink="http://www.w3.org/1999/xlink">
<g id="graph0" class="graph" transform="scale(1 1) rotate(0) translate(4 259)">
<title>GammaProcess</title>
<!-- Node0 -->
<g id="node1" class="node">
<title>Node0</title>
<g id="a_node1"><a xlink:title="This class represents a gamma process   (page 82) &#160;with mean parameter &#160;and variance parameter .">
<polygon fill="#bfbfbf" stroke="#000000" points="126.5,-179.5 126.5,-198.5 213.5,-198.5 213.5,-179.5 126.5,-179.5"/>
<text text-anchor="middle" x="170" y="-186.5" font-family="Helvetica,sans-Serif" font-size="10.00" fill="#000000">GammaProcess</text>
</a>
</g>
</g>
<!-- Node2 -->
<g id="node3" class="node">
<title>Node2</title>
<g id="a_node3"><a xlink:href="classumontreal_1_1ssj_1_1stochprocess_1_1GammaProcessBridge.html" target="_top" xlink:title="This class represents a gamma process &#160;with mean parameter &#160;and variance parameter ,...">
<polygon fill="none" stroke="#000000" points="47.5,-123.5 47.5,-142.5 162.5,-142.5 162.5,-123.5 47.5,-123.5"/>
<text text-anchor="middle" x="105" y="-130.5" font-family="Helvetica,sans-Serif" font-size="10.00" fill="#000000">GammaProcessBridge</text>
</a>
</g>
</g>
<!-- Node0&#45;&gt;Node2 -->
<g id="edge2" class="edge">
<title>Node0&#45;&gt;Node2</title>
<path fill="none" stroke="#191970" d="M151.0165,-172.645C139.7121,-162.9058 125.753,-150.8795 116.1924,-142.6427"/>
<polygon fill="#191970" stroke="#191970" points="148.8173,-175.3701 158.6779,-179.2455 153.3862,-170.0668 148.8173,-175.3701"/>
</g>
<!-- Node4 -->
<g id="node5" class="node">
<title>Node4</title>
<g id="a_node5"><a xlink:href="classumontreal_1_1ssj_1_1stochprocess_1_1GammaProcessPCA.html" target="_top" xlink:title="Represents a gamma process sampled using the principal component analysis (PCA).">
<polygon fill="none" stroke="#000000" points="191,-123.5 191,-142.5 299,-142.5 299,-123.5 191,-123.5"/>
<text text-anchor="middle" x="245" y="-130.5" font-family="Helvetica,sans-Serif" font-size="10.00" fill="#000000">GammaProcessPCA</text>
</a>
</g>
</g>
<!-- Node0&#45;&gt;Node4 -->
<g id="edge4" class="edge">
<title>Node0&#45;&gt;Node4</title>
<path fill="none" stroke="#191970" d="M191.1477,-173.2097C204.3201,-163.3743 220.84,-151.0394 232.0857,-142.6427"/>
<polygon fill="#191970" stroke="#191970" points="188.9828,-170.4581 183.064,-179.2455 193.1709,-176.0671 188.9828,-170.4581"/>
</g>
<!-- Node1 -->
<g id="node2" class="node">
<title>Node1</title>
<g id="a_node2"><a xlink:href="classumontreal_1_1ssj_1_1stochprocess_1_1StochasticProcess.html" target="_top" xlink:title="Abstract base class for a stochastic process &#160;sampled (or observed) at a finite number of time points...">
<polygon fill="none" stroke="#000000" points="120.5,-235.5 120.5,-254.5 219.5,-254.5 219.5,-235.5 120.5,-235.5"/>
<text text-anchor="middle" x="170" y="-242.5" font-family="Helvetica,sans-Serif" font-size="10.00" fill="#000000">StochasticProcess</text>
</a>
</g>
</g>
<!-- Node1&#45;&gt;Node0 -->
<g id="edge1" class="edge">
<title>Node1&#45;&gt;Node0</title>
<path fill="none" stroke="#191970" d="M170,-225.1575C170,-216.155 170,-205.9199 170,-198.6427"/>
<polygon fill="#191970" stroke="#191970" points="166.5001,-225.2455 170,-235.2455 173.5001,-225.2456 166.5001,-225.2455"/>
</g>
<!-- Node3 -->
<g id="node4" class="node">
<title>Node3</title>
<g id="a_node4"><a xlink:href="classumontreal_1_1ssj_1_1stochprocess_1_1GammaProcessSymmetricalBridge.html" target="_top" xlink:title="This class differs from GammaProcessBridge only in that it requires the number of interval of the pat...">
<polygon fill="none" stroke="#000000" points="0,-67.5 0,-86.5 170,-86.5 170,-67.5 0,-67.5"/>
<text text-anchor="middle" x="85" y="-74.5" font-family="Helvetica,sans-Serif" font-size="10.00" fill="#000000">GammaProcessSymmetricalBridge</text>
</a>
</g>
</g>
<!-- Node2&#45;&gt;Node3 -->
<g id="edge3" class="edge">
<title>Node2&#45;&gt;Node3</title>
<path fill="none" stroke="#191970" d="M98.1247,-113.7493C94.8594,-104.6064 91.0999,-94.0798 88.4438,-86.6427"/>
<polygon fill="#191970" stroke="#191970" points="94.8567,-115.0053 101.5163,-123.2455 101.4489,-112.6509 94.8567,-115.0053"/>
</g>
<!-- Node5 -->
<g id="node6" class="node">
<title>Node5</title>
<g id="a_node6"><a xlink:href="classumontreal_1_1ssj_1_1stochprocess_1_1GammaProcessPCABridge.html" target="_top" xlink:title="Same as GammaProcessPCA, but the generated uniforms correspond to a bridge transformation of the Brow...">
<polygon fill="none" stroke="#000000" points="188,-67.5 188,-86.5 324,-86.5 324,-67.5 188,-67.5"/>
<text text-anchor="middle" x="256" y="-74.5" font-family="Helvetica,sans-Serif" font-size="10.00" fill="#000000">GammaProcessPCABridge</text>
</a>
</g>
</g>
<!-- Node4&#45;&gt;Node5 -->
<g id="edge5" class="edge">
<title>Node4&#45;&gt;Node5</title>
<path fill="none" stroke="#191970" d="M248.8976,-113.1575C250.666,-104.155 252.6765,-93.9199 254.1059,-86.6427"/>
<polygon fill="#191970" stroke="#191970" points="245.4092,-112.7584 246.9161,-123.2455 252.278,-114.1077 245.4092,-112.7584"/>
</g>
<!-- Node6 -->
<g id="node7" class="node">
<title>Node6</title>
<g id="a_node7"><a xlink:href="classumontreal_1_1ssj_1_1stochprocess_1_1GammaProcessPCASymmetricalBridge.html" target="_top" xlink:title="Same as GammaProcessPCABridge, but uses the fast inversion method for the symmetrical beta distributi...">
<polygon fill="none" stroke="#000000" points="174.5,-.5 174.5,-30.5 337.5,-30.5 337.5,-.5 174.5,-.5"/>
<text text-anchor="start" x="182.5" y="-18.5" font-family="Helvetica,sans-Serif" font-size="10.00" fill="#000000">GammaProcessPCASymmetrical</text>
<text text-anchor="middle" x="256" y="-7.5" font-family="Helvetica,sans-Serif" font-size="10.00" fill="#000000">Bridge</text>
</a>
</g>
</g>
<!-- Node5&#45;&gt;Node6 -->
<g id="edge6" class="edge">
<title>Node5&#45;&gt;Node6</title>
<path fill="none" stroke="#191970" d="M256,-57.3693C256,-48.681 256,-38.6241 256,-30.5446"/>
<polygon fill="#191970" stroke="#191970" points="252.5001,-57.3906 256,-67.3906 259.5001,-57.3907 252.5001,-57.3906"/>
</g>
</g>
</svg>
