<?xml version="1.0" encoding="UTF-8" standalone="no"?>
<!DOCTYPE svg PUBLIC "-//W3C//DTD SVG 1.1//EN"
 "http://www.w3.org/Graphics/SVG/1.1/DTD/svg11.dtd">
<!-- Generated by graphviz version 2.40.1 (20161225.0304)
 -->
<!-- Title: TestOptionVGIS Pages: 1 -->
<svg width="657pt" height="155pt"
 viewBox="0.00 0.00 657.00 155.00" xmlns="http://www.w3.org/2000/svg" xmlns:xlink="http://www.w3.org/1999/xlink">
<g id="graph0" class="graph" transform="scale(1 1) rotate(0) translate(4 151)">
<title>TestOptionVGIS</title>
<!-- Node1 -->
<g id="node1" class="node">
<title>Node1</title>
<polygon fill="#bfbfbf" stroke="#000000" points="562,-84.5 562,-103.5 649,-103.5 649,-84.5 562,-84.5"/>
<text text-anchor="middle" x="605.5" y="-91.5" font-family="Helvetica,sans-Serif" font-size="10.00" fill="#000000">TestOptionVGIS</text>
</g>
<!-- Node2 -->
<g id="node2" class="node">
<title>Node2</title>
<g id="a_node2"><a xlink:href="classift6561examples_1_1TestOptionVGIS_1_1OptionVG1.html" target="_top" xlink:title="TestOptionVGIS.OptionVG1">
<polygon fill="none" stroke="#000000" points="161,-101.5 161,-120.5 298,-120.5 298,-101.5 161,-101.5"/>
<text text-anchor="middle" x="229.5" y="-108.5" font-family="Helvetica,sans-Serif" font-size="10.00" fill="#000000">TestOptionVGIS.OptionVG1</text>
</a>
</g>
</g>
<!-- Node2&#45;&gt;Node1 -->
<g id="edge1" class="edge">
<title>Node2&#45;&gt;Node1</title>
<path fill="none" stroke="#9a32cd" stroke-dasharray="5,2" d="M282.5147,-122.4515C299.2239,-125.5472 317.8071,-128.4642 335,-130 427.6729,-138.2784 454.6235,-143.858 544,-118 557.542,-114.0821 572.2683,-108.3886 583.9146,-103.5303"/>
<polygon fill="#9a32cd" stroke="#9a32cd" points="282.8619,-118.9544 272.3822,-120.5116 281.5456,-125.8296 282.8619,-118.9544"/>
<text text-anchor="middle" x="408.5" y="-139" font-family="Helvetica,sans-Serif" font-size="10.00" fill="#000000"> vg1</text>
</g>
<!-- Node7 -->
<g id="node7" class="node">
<title>Node7</title>
<g id="a_node7"><a xlink:href="classift6561examples_1_1TestOptionVGIS_1_1OptionVGIS1.html" target="_top" xlink:title="TestOptionVGIS.OptionVGIS1">
<polygon fill="none" stroke="#000000" points="335,-101.5 335,-120.5 482,-120.5 482,-101.5 335,-101.5"/>
<text text-anchor="middle" x="408.5" y="-108.5" font-family="Helvetica,sans-Serif" font-size="10.00" fill="#000000">TestOptionVGIS.OptionVGIS1</text>
</a>
</g>
</g>
<!-- Node2&#45;&gt;Node7 -->
<g id="edge7" class="edge">
<title>Node2&#45;&gt;Node7</title>
<path fill="none" stroke="#191970" d="M308.4481,-111C317.2547,-111 326.1995,-111 334.9351,-111"/>
<polygon fill="#191970" stroke="#191970" points="308.1942,-107.5001 298.1941,-111 308.1941,-114.5001 308.1942,-107.5001"/>
</g>
<!-- Node8 -->
<g id="node8" class="node">
<title>Node8</title>
<g id="a_node8"><a xlink:href="classift6561examples_1_1TestOptionVGIS_1_1OptionVGIS2.html" target="_top" xlink:title="TestOptionVGIS.OptionVGIS2">
<polygon fill="none" stroke="#000000" points="335,-63.5 335,-82.5 482,-82.5 482,-63.5 335,-63.5"/>
<text text-anchor="middle" x="408.5" y="-70.5" font-family="Helvetica,sans-Serif" font-size="10.00" fill="#000000">TestOptionVGIS.OptionVGIS2</text>
</a>
</g>
</g>
<!-- Node2&#45;&gt;Node8 -->
<g id="edge9" class="edge">
<title>Node2&#45;&gt;Node8</title>
<path fill="none" stroke="#191970" d="M284.5236,-99.319C309.9082,-93.9301 339.6607,-87.6139 363.6556,-82.5201"/>
<polygon fill="#191970" stroke="#191970" points="283.7244,-95.9106 274.6693,-101.411 285.1781,-102.758 283.7244,-95.9106"/>
</g>
<!-- Node3 -->
<g id="node3" class="node">
<title>Node3</title>
<g id="a_node3"><a xlink:href="interfaceumontreal_1_1ssj_1_1mcqmctools_1_1MonteCarloModelDouble.html" target="_top" xlink:title="An interface for a very simple simulation model for which Monte Carlo (MC) and RQMC experiments are t...">
<polygon fill="none" stroke="#000000" points="0,-101.5 0,-120.5 124,-120.5 124,-101.5 0,-101.5"/>
<text text-anchor="middle" x="62" y="-108.5" font-family="Helvetica,sans-Serif" font-size="10.00" fill="#000000">MonteCarloModelDouble</text>
</a>
</g>
</g>
<!-- Node3&#45;&gt;Node2 -->
<g id="edge2" class="edge">
<title>Node3&#45;&gt;Node2</title>
<path fill="none" stroke="#191970" d="M134.5394,-111C143.2865,-111 152.1997,-111 160.888,-111"/>
<polygon fill="#191970" stroke="#191970" points="134.3709,-107.5001 124.3708,-111 134.3708,-114.5001 134.3709,-107.5001"/>
</g>
<!-- Node4 -->
<g id="node4" class="node">
<title>Node4</title>
<g id="a_node4"><a xlink:href="classumontreal_1_1ssj_1_1probdist_1_1GammaDist.html" target="_top" xlink:title="Extends the class ContinuousDistribution for the gamma distribution   (page 337) with shape paramete...">
<polygon fill="none" stroke="#000000" points="374,-.5 374,-19.5 443,-19.5 443,-.5 374,-.5"/>
<text text-anchor="middle" x="408.5" y="-7.5" font-family="Helvetica,sans-Serif" font-size="10.00" fill="#000000">GammaDist</text>
</a>
</g>
</g>
<!-- Node4&#45;&gt;Node1 -->
<g id="edge3" class="edge">
<title>Node4&#45;&gt;Node1</title>
<path fill="none" stroke="#9a32cd" stroke-dasharray="5,2" d="M453.337,-9.8767C480.8478,-11.4693 516.039,-16.5991 544,-31 568.7312,-43.7374 589.3818,-70.206 599.254,-84.4439"/>
<polygon fill="#9a32cd" stroke="#9a32cd" points="453.3456,-6.3738 443.2004,-9.4276 453.0357,-13.3669 453.3456,-6.3738"/>
<text text-anchor="middle" x="522" y="-67" font-family="Helvetica,sans-Serif" font-size="10.00" fill="#000000"> distPos</text>
<text text-anchor="middle" x="522" y="-56" font-family="Helvetica,sans-Serif" font-size="10.00" fill="#000000">distPosIS</text>
<text text-anchor="middle" x="522" y="-45" font-family="Helvetica,sans-Serif" font-size="10.00" fill="#000000">distNeg</text>
<text text-anchor="middle" x="522" y="-34" font-family="Helvetica,sans-Serif" font-size="10.00" fill="#000000">distNegIS</text>
</g>
<!-- Node5 -->
<g id="node5" class="node">
<title>Node5</title>
<g id="a_node5"><a xlink:href="classumontreal_1_1ssj_1_1probdist_1_1ContinuousDistribution.html" target="_top" xlink:title="Classes implementing continuous distributions should inherit from this base class. ">
<polygon fill="none" stroke="#000000" points="171.5,-.5 171.5,-19.5 287.5,-19.5 287.5,-.5 171.5,-.5"/>
<text text-anchor="middle" x="229.5" y="-7.5" font-family="Helvetica,sans-Serif" font-size="10.00" fill="#000000">ContinuousDistribution</text>
</a>
</g>
</g>
<!-- Node5&#45;&gt;Node4 -->
<g id="edge4" class="edge">
<title>Node5&#45;&gt;Node4</title>
<path fill="none" stroke="#191970" d="M297.807,-10C323.7886,-10 352.2983,-10 373.8768,-10"/>
<polygon fill="#191970" stroke="#191970" points="297.6162,-6.5001 287.6162,-10 297.6161,-13.5001 297.6162,-6.5001"/>
</g>
<!-- Node6 -->
<g id="node6" class="node">
<title>Node6</title>
<g id="a_node6"><a xlink:href="interfaceumontreal_1_1ssj_1_1probdist_1_1Distribution.html" target="_top" xlink:title="This interface should be implemented by all classes supporting discrete and continuous distributions...">
<polygon fill="none" stroke="#000000" points="29,-.5 29,-19.5 95,-19.5 95,-.5 29,-.5"/>
<text text-anchor="middle" x="62" y="-7.5" font-family="Helvetica,sans-Serif" font-size="10.00" fill="#000000">Distribution</text>
</a>
</g>
</g>
<!-- Node6&#45;&gt;Node5 -->
<g id="edge5" class="edge">
<title>Node6&#45;&gt;Node5</title>
<path fill="none" stroke="#191970" d="M105.2195,-10C125.3715,-10 149.6492,-10 171.3794,-10"/>
<polygon fill="#191970" stroke="#191970" points="105.0926,-6.5001 95.0926,-10 105.0926,-13.5001 105.0926,-6.5001"/>
</g>
<!-- Node7&#45;&gt;Node1 -->
<g id="edge6" class="edge">
<title>Node7&#45;&gt;Node1</title>
<path fill="none" stroke="#9a32cd" stroke-dasharray="5,2" d="M492.3243,-103.7664C516.3072,-101.6968 541.4774,-99.5248 561.975,-97.756"/>
<polygon fill="#9a32cd" stroke="#9a32cd" points="491.7977,-100.2988 482.1357,-104.6457 492.3996,-107.2729 491.7977,-100.2988"/>
<text text-anchor="middle" x="522" y="-106" font-family="Helvetica,sans-Serif" font-size="10.00" fill="#000000"> vgis1</text>
</g>
<!-- Node8&#45;&gt;Node1 -->
<g id="edge8" class="edge">
<title>Node8&#45;&gt;Node1</title>
<path fill="none" stroke="#9a32cd" stroke-dasharray="5,2" d="M492.1112,-78.7302C509.2979,-80.2049 527.2548,-81.9622 544,-84 549.7986,-84.7056 555.8873,-85.5585 561.8857,-86.4652"/>
<polygon fill="#9a32cd" stroke="#9a32cd" points="492.3523,-75.2383 482.0959,-77.8947 491.7703,-82.2141 492.3523,-75.2383"/>
<text text-anchor="middle" x="522" y="-87" font-family="Helvetica,sans-Serif" font-size="10.00" fill="#000000"> vgis2</text>
</g>
</g>
</svg>
