<?xml version="1.0" encoding="UTF-8" standalone="no"?>
<!DOCTYPE svg PUBLIC "-//W3C//DTD SVG 1.1//EN"
 "http://www.w3.org/Graphics/SVG/1.1/DTD/svg11.dtd">
<!-- Generated by graphviz version 2.40.1 (0)
 -->
<!-- Title: PowerMathFunction Pages: 1 -->
<svg width="194pt" height="140pt"
 viewBox="0.00 0.00 194.00 140.00" xmlns="http://www.w3.org/2000/svg" xmlns:xlink="http://www.w3.org/1999/xlink">
<g id="graph0" class="graph" transform="scale(1 1) rotate(0) translate(4 136)">
<title>PowerMathFunction</title>
<!-- Node3 -->
<g id="node1" class="node">
<title>Node3</title>
<g id="a_node1"><a xlink:title="Represents a function computing &#160;for a user&#45;defined function &#160;and power .">
<polygon fill="#bfbfbf" stroke="#000000" points="0,-.5 0,-19.5 104,-19.5 104,-.5 0,-.5"/>
<text text-anchor="middle" x="52" y="-7.5" font-family="Helvetica,sans-Serif" font-size="10.00" fill="#000000">PowerMathFunction</text>
</a>
</g>
</g>
<!-- Node4 -->
<g id="node2" class="node">
<title>Node4</title>
<g id="a_node2"><a xlink:href="interfaceumontreal_1_1ssj_1_1functions_1_1MathFunction.html" target="_top" xlink:title="This interface should be implemented by classes which represent univariate mathematical functions.">
<polygon fill="none" stroke="#000000" points="14,-112.5 14,-131.5 90,-131.5 90,-112.5 14,-112.5"/>
<text text-anchor="middle" x="52" y="-119.5" font-family="Helvetica,sans-Serif" font-size="10.00" fill="#000000">MathFunction</text>
</a>
</g>
</g>
<!-- Node4&#45;&gt;Node3 -->
<g id="edge1" class="edge">
<title>Node4&#45;&gt;Node3</title>
<path fill="none" stroke="#191970" d="M34.5202,-104.6744C27.6535,-96.6644 20.5695,-86.5862 17,-76 9.8724,-54.8612 28.1221,-32.3342 40.8658,-19.8268"/>
<polygon fill="#191970" stroke="#191970" points="32.0981,-107.2114 41.441,-112.2076 37.253,-102.4756 32.0981,-107.2114"/>
</g>
<!-- Node5 -->
<g id="node3" class="node">
<title>Node5</title>
<g id="a_node3"><a xlink:href="interfaceumontreal_1_1ssj_1_1functions_1_1MathFunctionWithFirstDerivative.html" target="_top" xlink:title="Represents a mathematical function whose derivative can be computed using derivative(double).">
<polygon fill="none" stroke="#000000" points="26,-56.5 26,-75.5 186,-75.5 186,-56.5 26,-56.5"/>
<text text-anchor="middle" x="106" y="-63.5" font-family="Helvetica,sans-Serif" font-size="10.00" fill="#000000">MathFunctionWithFirstDerivative</text>
</a>
</g>
</g>
<!-- Node4&#45;&gt;Node5 -->
<g id="edge3" class="edge">
<title>Node4&#45;&gt;Node5</title>
<path fill="none" stroke="#191970" d="M68.5969,-104.7884C77.8347,-95.2085 88.9904,-83.6396 96.7017,-75.6427"/>
<polygon fill="#191970" stroke="#191970" points="65.828,-102.6176 61.4061,-112.2455 70.8669,-107.4766 65.828,-102.6176"/>
</g>
<!-- Node5&#45;&gt;Node3 -->
<g id="edge2" class="edge">
<title>Node5&#45;&gt;Node3</title>
<path fill="none" stroke="#191970" d="M89.4031,-48.7884C80.1653,-39.2085 69.0096,-27.6396 61.2983,-19.6427"/>
<polygon fill="#191970" stroke="#191970" points="87.1331,-51.4766 96.5939,-56.2455 92.172,-46.6176 87.1331,-51.4766"/>
</g>
</g>
</svg>
