<?xml version="1.0" encoding="UTF-8" standalone="no"?>
<!DOCTYPE svg PUBLIC "-//W3C//DTD SVG 1.1//EN"
 "http://www.w3.org/Graphics/SVG/1.1/DTD/svg11.dtd">
<!-- Generated by graphviz version 2.40.1 (20161225.0304)
 -->
<!-- Title: CycleBasedPointSet.CycleBasedPointSetIterator Pages: 1 -->
<svg width="212pt" height="106pt"
 viewBox="0.00 0.00 211.50 106.00" xmlns="http://www.w3.org/2000/svg" xmlns:xlink="http://www.w3.org/1999/xlink">
<g id="graph0" class="graph" transform="scale(1 1) rotate(0) translate(4 102)">
<title>CycleBasedPointSet.CycleBasedPointSetIterator</title>
<!-- Node3 -->
<g id="node1" class="node">
<title>Node3</title>
<polygon fill="#bfbfbf" stroke="#000000" points="45,-.5 45,-30.5 181,-30.5 181,-.5 45,-.5"/>
<text text-anchor="start" x="53" y="-18.5" font-family="Helvetica,sans-Serif" font-size="10.00" fill="#000000">CycleBasedPointSet.Cycle</text>
<text text-anchor="middle" x="113" y="-7.5" font-family="Helvetica,sans-Serif" font-size="10.00" fill="#000000">BasedPointSetIterator</text>
</g>
<!-- Node4 -->
<g id="node2" class="node">
<title>Node4</title>
<polygon fill="none" stroke="#bfbfbf" points="0,-78.5 0,-97.5 116,-97.5 116,-78.5 0,-78.5"/>
<text text-anchor="middle" x="58" y="-85.5" font-family="Helvetica,sans-Serif" font-size="10.00" fill="#000000">DefaultPointSetIterator</text>
</g>
<!-- Node4&#45;&gt;Node3 -->
<g id="edge1" class="edge">
<title>Node4&#45;&gt;Node3</title>
<path fill="none" stroke="#191970" d="M71.5242,-70.1727C80.7206,-58.0502 92.7571,-42.1838 101.4932,-30.668"/>
<polygon fill="#191970" stroke="#191970" points="68.673,-68.14 65.4175,-78.2223 74.2499,-72.3708 68.673,-68.14"/>
</g>
<!-- Node5 -->
<g id="node3" class="node">
<title>Node5</title>
<polygon fill="none" stroke="#bfbfbf" points="134.5,-78.5 134.5,-97.5 203.5,-97.5 203.5,-78.5 134.5,-78.5"/>
<text text-anchor="middle" x="169" y="-85.5" font-family="Helvetica,sans-Serif" font-size="10.00" fill="#000000">AbstractList</text>
</g>
<!-- Node5&#45;&gt;Node3 -->
<g id="edge2" class="edge">
<title>Node5&#45;&gt;Node3</title>
<path fill="none" stroke="#9a32cd" stroke-dasharray="5,2" d="M155.2299,-70.1727C145.8663,-58.0502 133.611,-42.1838 124.716,-30.668"/>
<polygon fill="#9a32cd" stroke="#9a32cd" points="152.5647,-72.4478 161.4476,-78.2223 158.1046,-68.1687 152.5647,-72.4478"/>
<text text-anchor="middle" x="167.5" y="-52" font-family="Helvetica,sans-Serif" font-size="10.00" fill="#000000"> curCycle</text>
</g>
</g>
</svg>
