<?xml version="1.0" encoding="UTF-8" standalone="no"?>
<!DOCTYPE svg PUBLIC "-//W3C//DTD SVG 1.1//EN"
 "http://www.w3.org/Graphics/SVG/1.1/DTD/svg11.dtd">
<!-- Generated by graphviz version 2.38.0 (20140413.2041)
 -->
<!-- Title: AsianOptionGBMCV Pages: 1 -->
<svg width="204pt" height="140pt"
 viewBox="0.00 0.00 203.50 140.00" xmlns="http://www.w3.org/2000/svg" xmlns:xlink="http://www.w3.org/1999/xlink">
<g id="graph0" class="graph" transform="scale(1 1) rotate(0) translate(4 136)">
<title>AsianOptionGBMCV</title>
<!-- Node0 -->
<g id="node1" class="node"><title>Node0</title>
<polygon fill="#bfbfbf" stroke="black" points="34.5,-0.5 34.5,-19.5 141.5,-19.5 141.5,-0.5 34.5,-0.5"/>
<text text-anchor="middle" x="88" y="-7.5" font-family="Helvetica,sans-Serif" font-size="10.00">AsianOptionGBMCV</text>
</g>
<!-- Node1 -->
<g id="node2" class="node"><title>Node1</title>
<g id="a_node2"><a xlink:href="classift6561examples_1_1AsianOption.html" target="_top" xlink:title="This class represents an Asian average price call option with European exercise type. ">
<polygon fill="none" stroke="black" points="0,-56.5 0,-75.5 70,-75.5 70,-56.5 0,-56.5"/>
<text text-anchor="middle" x="35" y="-63.5" font-family="Helvetica,sans-Serif" font-size="10.00">AsianOption</text>
</a>
</g>
</g>
<!-- Node1&#45;&gt;Node0 -->
<g id="edge1" class="edge"><title>Node1&#45;&gt;Node0</title>
<path fill="none" stroke="midnightblue" d="M50.9809,-48.7175C60.3225,-39.1997 71.7459,-27.5608 79.411,-19.7511"/>
<polygon fill="midnightblue" stroke="midnightblue" points="48.2587,-46.4945 43.7519,-56.083 53.2545,-51.3978 48.2587,-46.4945"/>
</g>
<!-- Node2 -->
<g id="node3" class="node"><title>Node2</title>
<g id="a_node3"><a xlink:href="interfaceumontreal_1_1ssj_1_1mcqmctools_1_1MonteCarloModelDouble.html" target="_top" xlink:title="An interface for a very simple simulation model for which Monte Carlo (MC) and RQMC experiments are t...">
<polygon fill="none" stroke="black" points="26,-112.5 26,-131.5 150,-131.5 150,-112.5 26,-112.5"/>
<text text-anchor="middle" x="88" y="-119.5" font-family="Helvetica,sans-Serif" font-size="10.00">MonteCarloModelDouble</text>
</a>
</g>
</g>
<!-- Node2&#45;&gt;Node1 -->
<g id="edge2" class="edge"><title>Node2&#45;&gt;Node1</title>
<path fill="none" stroke="midnightblue" d="M72.0191,-104.718C62.6775,-95.1997 51.2541,-83.5608 43.589,-75.7511"/>
<polygon fill="midnightblue" stroke="midnightblue" points="69.7455,-107.398 79.2481,-112.083 74.7413,-102.494 69.7455,-107.398"/>
</g>
<!-- Node3 -->
<g id="node4" class="node"><title>Node3</title>
<g id="a_node4"><a xlink:href="interfaceumontreal_1_1ssj_1_1mcqmctools_1_1MonteCarloModelCV.html" target="_top" xlink:title="An MonteCarloModelDouble that also implements a vector of control variates. ">
<polygon fill="none" stroke="black" points="88.5,-56.5 88.5,-75.5 195.5,-75.5 195.5,-56.5 88.5,-56.5"/>
<text text-anchor="middle" x="142" y="-63.5" font-family="Helvetica,sans-Serif" font-size="10.00">MonteCarloModelCV</text>
</a>
</g>
</g>
<!-- Node2&#45;&gt;Node3 -->
<g id="edge4" class="edge"><title>Node2&#45;&gt;Node3</title>
<path fill="none" stroke="midnightblue" d="M103.998,-105.002C113.567,-95.4329 125.361,-83.6389 133.249,-75.7511"/>
<polygon fill="midnightblue" stroke="midnightblue" points="101.513,-102.537 96.917,-112.083 106.463,-107.487 101.513,-102.537"/>
</g>
<!-- Node3&#45;&gt;Node0 -->
<g id="edge3" class="edge"><title>Node3&#45;&gt;Node0</title>
<path fill="none" stroke="midnightblue" d="M126.002,-49.0024C116.433,-39.4329 104.639,-27.6389 96.7511,-19.7511"/>
<polygon fill="midnightblue" stroke="midnightblue" points="123.537,-51.4868 133.083,-56.083 128.487,-46.537 123.537,-51.4868"/>
</g>
</g>
</svg>
