<?xml version="1.0" encoding="UTF-8" standalone="no"?>
<!DOCTYPE svg PUBLIC "-//W3C//DTD SVG 1.1//EN"
 "http://www.w3.org/Graphics/SVG/1.1/DTD/svg11.dtd">
<!-- Generated by graphviz version 2.40.1 (0)
 -->
<!-- Title: AntitheticPointSet Pages: 1 -->
<svg width="110pt" height="219pt"
 viewBox="0.00 0.00 110.00 219.00" xmlns="http://www.w3.org/2000/svg" xmlns:xlink="http://www.w3.org/1999/xlink">
<g id="graph0" class="graph" transform="scale(1 1) rotate(0) translate(4 215)">
<title>AntitheticPointSet</title>
<!-- Node3 -->
<g id="node1" class="node">
<title>Node3</title>
<g id="a_node1"><a xlink:title="This container class provides antithetic points.">
<polygon fill="#bfbfbf" stroke="#000000" points=".5,-.5 .5,-19.5 95.5,-19.5 95.5,-.5 .5,-.5"/>
<text text-anchor="middle" x="48" y="-7.5" font-family="Helvetica,sans-Serif" font-size="10.00" fill="#000000">AntitheticPointSet</text>
</a>
</g>
</g>
<!-- Node4 -->
<g id="node2" class="node">
<title>Node4</title>
<g id="a_node2"><a xlink:href="classumontreal_1_1ssj_1_1hups_1_1ContainerPointSet.html" target="_top" xlink:title="This acts as a generic base class for all container classes that contain a point set and apply some k...">
<polygon fill="none" stroke="#000000" points="0,-57.5 0,-76.5 96,-76.5 96,-57.5 0,-57.5"/>
<text text-anchor="middle" x="48" y="-64.5" font-family="Helvetica,sans-Serif" font-size="10.00" fill="#000000">ContainerPointSet</text>
</a>
</g>
</g>
<!-- Node4&#45;&gt;Node3 -->
<g id="edge1" class="edge">
<title>Node4&#45;&gt;Node3</title>
<path fill="none" stroke="#191970" d="M48,-47.2342C48,-37.8491 48,-27.0651 48,-19.5265"/>
<polygon fill="#191970" stroke="#191970" points="44.5001,-47.3307 48,-57.3307 51.5001,-47.3308 44.5001,-47.3307"/>
</g>
<!-- Node5 -->
<g id="node3" class="node">
<title>Node5</title>
<g id="a_node3"><a xlink:href="classumontreal_1_1ssj_1_1hups_1_1PointSet.html" target="_top" xlink:title="This abstract class defines the basic methods for accessing and manipulating point sets.">
<polygon fill="none" stroke="#000000" points="21,-124.5 21,-143.5 75,-143.5 75,-124.5 21,-124.5"/>
<text text-anchor="middle" x="48" y="-131.5" font-family="Helvetica,sans-Serif" font-size="10.00" fill="#000000">PointSet</text>
</a>
</g>
</g>
<!-- Node5&#45;&gt;Node4 -->
<g id="edge2" class="edge">
<title>Node5&#45;&gt;Node4</title>
<path fill="none" stroke="#191970" d="M46.4152,-114.2949C46.243,-111.5117 46.0958,-108.6848 46,-106 45.6423,-95.9724 46.3667,-84.5043 47.0415,-76.6128"/>
<polygon fill="#191970" stroke="#191970" points="42.935,-114.6973 47.1459,-124.4194 49.9168,-114.1933 42.935,-114.6973"/>
</g>
<!-- Node5&#45;&gt;Node4 -->
<g id="edge4" class="edge">
<title>Node5&#45;&gt;Node4</title>
<path fill="none" stroke="#9a32cd" stroke-dasharray="5,2" d="M48,-114.1079C48,-101.714 48,-86.3263 48,-76.5817"/>
<polygon fill="#9a32cd" stroke="#9a32cd" points="44.5001,-114.4005 48,-124.4005 51.5001,-114.4006 44.5001,-114.4005"/>
<text text-anchor="middle" x="53" y="-98" font-family="Helvetica,sans-Serif" font-size="10.00" fill="#000000"> P</text>
</g>
<!-- Node6 -->
<g id="node4" class="node">
<title>Node6</title>
<g id="a_node4"><a xlink:href="interfaceumontreal_1_1ssj_1_1rng_1_1RandomStream.html" target="_top" xlink:title="This interface defines the basic structures to handle multiple streams of uniform (pseudo)random numb...">
<polygon fill="none" stroke="#000000" points="5.5,-191.5 5.5,-210.5 90.5,-210.5 90.5,-191.5 5.5,-191.5"/>
<text text-anchor="middle" x="48" y="-198.5" font-family="Helvetica,sans-Serif" font-size="10.00" fill="#000000">RandomStream</text>
</a>
</g>
</g>
<!-- Node6&#45;&gt;Node5 -->
<g id="edge3" class="edge">
<title>Node6&#45;&gt;Node5</title>
<path fill="none" stroke="#9a32cd" stroke-dasharray="5,2" d="M48,-181.1079C48,-168.714 48,-153.3263 48,-143.5817"/>
<polygon fill="#9a32cd" stroke="#9a32cd" points="44.5001,-181.4005 48,-191.4005 51.5001,-181.4006 44.5001,-181.4005"/>
<text text-anchor="middle" x="75" y="-165" font-family="Helvetica,sans-Serif" font-size="10.00" fill="#000000"> shiftStream</text>
</g>
</g>
</svg>
