<?xml version="1.0" encoding="UTF-8" standalone="no"?>
<!DOCTYPE svg PUBLIC "-//W3C//DTD SVG 1.1//EN"
 "http://www.w3.org/Graphics/SVG/1.1/DTD/svg11.dtd">
<!-- Generated by graphviz version 2.38.0 (20140413.2041)
 -->
<!-- Title: StochasticProcess Pages: 1 -->
<!--zoomable 537 -->
<svg id="main" version="1.1" xmlns="http://www.w3.org/2000/svg" xmlns:xlink="http://www.w3.org/1999/xlink" xml:space="preserve" onload="init(evt)">
<style type="text/css"><![CDATA[
.edge:hover path { stroke: red; }
.edge:hover polygon { stroke: red; fill: red; }
]]></style>
<script type="text/javascript"><![CDATA[
var edges = document.getElementsByTagName('g');
if (edges && edges.length) {
  for (var i=0;i<edges.length;i++) {
    if (edges[i].id.substr(0,4)=='edge') {
      edges[i].setAttribute('class','edge');
    }
  }
}
]]></script>
        <defs>
                <circle id="rim" cx="0" cy="0" r="7"/>
                <circle id="rim2" cx="0" cy="0" r="3.5"/>
                <g id="zoomPlus">
                        <use xlink:href="#rim" fill="#404040">
                                <set attributeName="fill" to="#808080" begin="zoomplus.mouseover" end="zoomplus.mouseout"/>
                        </use>
                        <path d="M-4,0h8M0,-4v8" fill="none" stroke="white" stroke-width="1.5" pointer-events="none"/>
                </g>
                <g id="zoomMin">
                        <use xlink:href="#rim" fill="#404040">
                                <set attributeName="fill" to="#808080" begin="zoomminus.mouseover" end="zoomminus.mouseout"/>
                        </use>
                        <path d="M-4,0h8" fill="none" stroke="white" stroke-width="1.5" pointer-events="none"/>
                </g>
                <g id="dirArrow">
                        <path fill="none" stroke="white" stroke-width="1.5" d="M0,-3.0v7 M-2.5,-0.5L0,-3.0L2.5,-0.5"/>
                </g>
               <g id="resetDef">
                       <use xlink:href="#rim2" fill="#404040">
                               <set attributeName="fill" to="#808080" begin="reset.mouseover" end="reset.mouseout"/>
                       </use>
               </g>
        </defs>

<script type="text/javascript">
var viewWidth = 921;
var viewHeight = 537;
var sectionId = 'dynsection-0';
</script>
<script xlink:href="svgpan.js"/>
<svg id="graph" class="graph">
<g id="viewport">
<title>StochasticProcess</title>
<!-- Node0 -->
<g id="node1" class="node"><title>Node0</title>
<polygon fill="#bfbfbf" stroke="black" points="0,-262 0,-281 99,-281 99,-262 0,-262"/>
<text text-anchor="middle" x="49.5" y="-269" font-family="Helvetica,sans-Serif" font-size="10.00">StochasticProcess</text>
</g>
<!-- Node1 -->
<g id="node2" class="node"><title>Node1</title>
<g id="a_node2"><a xlink:href="classumontreal_1_1ssj_1_1stochprocess_1_1BrownianMotion.html" target="_top" xlink:title="This class represents a Brownian motion process , sampled at times . ">
<polygon fill="none" stroke="black" points="177,-471 177,-490 263,-490 263,-471 177,-471"/>
<text text-anchor="middle" x="220" y="-478" font-family="Helvetica,sans-Serif" font-size="10.00">BrownianMotion</text>
</a>
</g>
</g>
<!-- Node0&#45;&gt;Node1 -->
<g id="edge1" class="edge"><title>Node0&#45;&gt;Node1</title>
<path fill="none" stroke="midnightblue" d="M53.3623,-291.249C60.0896,-330.173 80.6527,-416.883 135,-461.5 146.672,-471.082 162.209,-476.061 176.744,-478.577"/>
<polygon fill="midnightblue" stroke="midnightblue" points="56.7913,-290.527 51.7553,-281.206 49.8792,-291.633 56.7913,-290.527"/>
</g>
<!-- Node5 -->
<g id="node6" class="node"><title>Node5</title>
<g id="a_node6"><a xlink:href="classumontreal_1_1ssj_1_1stochprocess_1_1CIRProcess.html" target="_top" xlink:title="This class represents a CIR (Cox, Ingersoll, Ross) process   , sampled at times . ">
<polygon fill="none" stroke="black" points="184.5,-433 184.5,-452 255.5,-452 255.5,-433 184.5,-433"/>
<text text-anchor="middle" x="220" y="-440" font-family="Helvetica,sans-Serif" font-size="10.00">CIRProcess</text>
</a>
</g>
</g>
<!-- Node0&#45;&gt;Node5 -->
<g id="edge5" class="edge"><title>Node0&#45;&gt;Node5</title>
<path fill="none" stroke="midnightblue" d="M55.638,-290.891C65.3531,-323.605 89.6259,-389.51 135,-423.5 149.12,-434.078 168.071,-438.941 184.398,-441.11"/>
<polygon fill="midnightblue" stroke="midnightblue" points="58.977,-289.836 52.8919,-281.163 52.2403,-291.738 58.977,-289.836"/>
</g>
<!-- Node6 -->
<g id="node7" class="node"><title>Node6</title>
<g id="a_node7"><a xlink:href="classumontreal_1_1ssj_1_1stochprocess_1_1CIRProcessEuler.html" target="_top" xlink:title="This class represents a CIR process as in CIRProcess, but the process is generated using the simple E...">
<polygon fill="none" stroke="black" points="173.5,-395 173.5,-414 266.5,-414 266.5,-395 173.5,-395"/>
<text text-anchor="middle" x="220" y="-402" font-family="Helvetica,sans-Serif" font-size="10.00">CIRProcessEuler</text>
</a>
</g>
</g>
<!-- Node0&#45;&gt;Node6 -->
<g id="edge6" class="edge"><title>Node0&#45;&gt;Node6</title>
<path fill="none" stroke="midnightblue" d="M59.1418,-290.371C71.9271,-316.078 98.3787,-361.628 135,-385.5 146.273,-392.848 160.002,-397.378 173.066,-400.163"/>
<polygon fill="midnightblue" stroke="midnightblue" points="62.2617,-288.783 54.7809,-281.28 55.9503,-291.811 62.2617,-288.783"/>
</g>
<!-- Node7 -->
<g id="node8" class="node"><title>Node7</title>
<g id="a_node8"><a xlink:href="classumontreal_1_1ssj_1_1stochprocess_1_1GammaProcess.html" target="_top" xlink:title="This class represents a gamma process   (page 82) &#160;with mean parameter &#160;and variance parameter ...">
<polygon fill="none" stroke="black" points="176.5,-357 176.5,-376 263.5,-376 263.5,-357 176.5,-357"/>
<text text-anchor="middle" x="220" y="-364" font-family="Helvetica,sans-Serif" font-size="10.00">GammaProcess</text>
</a>
</g>
</g>
<!-- Node0&#45;&gt;Node7 -->
<g id="edge7" class="edge"><title>Node0&#45;&gt;Node7</title>
<path fill="none" stroke="midnightblue" d="M64.9548,-288.916C80.4556,-306.422 106.687,-332.851 135,-347.5 147.616,-354.027 162.436,-358.327 176.087,-361.153"/>
<polygon fill="midnightblue" stroke="midnightblue" points="67.4245,-286.421 58.2452,-281.13 62.1217,-290.99 67.4245,-286.421"/>
</g>
<!-- Node13 -->
<g id="node14" class="node"><title>Node13</title>
<g id="a_node14"><a xlink:href="classumontreal_1_1ssj_1_1stochprocess_1_1GeometricBrownianMotion.html" target="_top" xlink:title="Represents a geometric Brownian motion (GBM) process , which evolves according to the stochastic diff...">
<polygon fill="none" stroke="black" points="154.5,-319 154.5,-338 285.5,-338 285.5,-319 154.5,-319"/>
<text text-anchor="middle" x="220" y="-326" font-family="Helvetica,sans-Serif" font-size="10.00">GeometricBrownianMotion</text>
</a>
</g>
</g>
<!-- Node0&#45;&gt;Node13 -->
<g id="edge13" class="edge"><title>Node0&#45;&gt;Node13</title>
<path fill="none" stroke="midnightblue" d="M78.283,-285.692C94.5022,-293.544 115.544,-302.998 135,-309.5 145.919,-313.149 157.869,-316.322 169.242,-318.975"/>
<polygon fill="midnightblue" stroke="midnightblue" points="79.382,-282.332 68.8648,-281.051 76.2879,-288.611 79.382,-282.332"/>
</g>
<!-- Node14 -->
<g id="node15" class="node"><title>Node14</title>
<g id="a_node15"><a xlink:href="classumontreal_1_1ssj_1_1stochprocess_1_1GeometricLevyProcess.html" target="_top" xlink:title="Abstract class used as a parent class for the exponentiation of a Lévy process : &#160;The interest is her...">
<polygon fill="none" stroke="black" points="160.5,-281 160.5,-300 279.5,-300 279.5,-281 160.5,-281"/>
<text text-anchor="middle" x="220" y="-288" font-family="Helvetica,sans-Serif" font-size="10.00">GeometricLevyProcess</text>
</a>
</g>
</g>
<!-- Node0&#45;&gt;Node14 -->
<g id="edge14" class="edge"><title>Node0&#45;&gt;Node14</title>
<path fill="none" stroke="midnightblue" d="M109.297,-278.13C125.794,-279.99 143.727,-282.012 160.222,-283.872"/>
<polygon fill="midnightblue" stroke="midnightblue" points="109.566,-274.638 99.2372,-276.996 108.782,-281.594 109.566,-274.638"/>
</g>
<!-- Node16 -->
<g id="node17" class="node"><title>Node16</title>
<g id="a_node17"><a xlink:href="classumontreal_1_1ssj_1_1stochprocess_1_1GeometricVarianceGammaProcess.html" target="_top" xlink:title="This class represents a geometric variance gamma process &#160;(see   (page 86)). ">
<polygon fill="none" stroke="black" points="135,-243 135,-262 305,-262 305,-243 135,-243"/>
<text text-anchor="middle" x="220" y="-250" font-family="Helvetica,sans-Serif" font-size="10.00">GeometricVarianceGammaProcess</text>
</a>
</g>
</g>
<!-- Node0&#45;&gt;Node16 -->
<g id="edge16" class="edge"><title>Node0&#45;&gt;Node16</title>
<path fill="none" stroke="midnightblue" d="M109.435,-264.854C117.657,-263.927 126.234,-262.96 134.81,-261.993"/>
<polygon fill="midnightblue" stroke="midnightblue" points="108.782,-261.406 99.2372,-266.004 109.566,-268.362 108.782,-261.406"/>
</g>
<!-- Node17 -->
<g id="node18" class="node"><title>Node17</title>
<g id="a_node18"><a xlink:href="classumontreal_1_1ssj_1_1stochprocess_1_1InverseGaussianProcess.html" target="_top" xlink:title="The inverse Gaussian process is a non&#45;decreasing process where the increments are additive and are gi...">
<polygon fill="none" stroke="black" points="157,-205 157,-224 283,-224 283,-205 157,-205"/>
<text text-anchor="middle" x="220" y="-212" font-family="Helvetica,sans-Serif" font-size="10.00">InverseGaussianProcess</text>
</a>
</g>
</g>
<!-- Node0&#45;&gt;Node17 -->
<g id="edge17" class="edge"><title>Node0&#45;&gt;Node17</title>
<path fill="none" stroke="midnightblue" d="M78.283,-257.308C94.5022,-249.456 115.544,-240.002 135,-233.5 145.919,-229.851 157.869,-226.678 169.242,-224.025"/>
<polygon fill="midnightblue" stroke="midnightblue" points="76.2879,-254.389 68.8648,-261.949 79.382,-260.668 76.2879,-254.389"/>
</g>
<!-- Node21 -->
<g id="node22" class="node"><title>Node21</title>
<g id="a_node22"><a xlink:href="classumontreal_1_1ssj_1_1stochprocess_1_1MultivariateStochasticProcess.html" target="_top" xlink:title="This class is a multivariate version of StochasticProcess where the process evolves in the &#45;dimension...">
<polygon fill="none" stroke="black" points="145.5,-167 145.5,-186 294.5,-186 294.5,-167 145.5,-167"/>
<text text-anchor="middle" x="220" y="-174" font-family="Helvetica,sans-Serif" font-size="10.00">MultivariateStochasticProcess</text>
</a>
</g>
</g>
<!-- Node0&#45;&gt;Node21 -->
<g id="edge21" class="edge"><title>Node0&#45;&gt;Node21</title>
<path fill="none" stroke="midnightblue" d="M64.9548,-254.084C80.4556,-236.578 106.687,-210.149 135,-195.5 142.437,-191.652 150.639,-188.579 158.917,-186.125"/>
<polygon fill="midnightblue" stroke="midnightblue" points="62.1217,-252.01 58.2452,-261.87 67.4245,-256.579 62.1217,-252.01"/>
</g>
<!-- Node27 -->
<g id="node28" class="node"><title>Node27</title>
<g id="a_node28"><a xlink:href="classumontreal_1_1ssj_1_1stochprocess_1_1NormalInverseGaussianProcess.html" target="_top" xlink:title="This class represents a normal inverse gaussian process (NIG). ">
<polygon fill="none" stroke="black" points="141,-129 141,-148 299,-148 299,-129 141,-129"/>
<text text-anchor="middle" x="220" y="-136" font-family="Helvetica,sans-Serif" font-size="10.00">NormalInverseGaussianProcess</text>
</a>
</g>
</g>
<!-- Node0&#45;&gt;Node27 -->
<g id="edge27" class="edge"><title>Node0&#45;&gt;Node27</title>
<path fill="none" stroke="midnightblue" d="M59.1418,-252.629C71.9271,-226.922 98.3787,-181.372 135,-157.5 140.887,-153.662 147.444,-150.594 154.226,-148.14"/>
<polygon fill="midnightblue" stroke="midnightblue" points="55.9503,-251.189 54.7809,-261.72 62.2617,-254.217 55.9503,-251.189"/>
</g>
<!-- Node28 -->
<g id="node29" class="node"><title>Node28</title>
<g id="a_node29"><a xlink:href="classumontreal_1_1ssj_1_1stochprocess_1_1OrnsteinUhlenbeckProcess.html" target="_top" xlink:title="This class represents an Ornstein&#45;Uhlenbeck process , sampled at times . ">
<polygon fill="none" stroke="black" points="152,-82 152,-101 288,-101 288,-82 152,-82"/>
<text text-anchor="middle" x="220" y="-89" font-family="Helvetica,sans-Serif" font-size="10.00">OrnsteinUhlenbeckProcess</text>
</a>
</g>
</g>
<!-- Node0&#45;&gt;Node28 -->
<g id="edge28" class="edge"><title>Node0&#45;&gt;Node28</title>
<path fill="none" stroke="midnightblue" d="M56.1578,-252.118C66.5225,-219.953 91.5776,-155.527 135,-119.5 145.056,-111.157 157.695,-105.267 170.092,-101.121"/>
<polygon fill="midnightblue" stroke="midnightblue" points="52.8047,-251.115 53.2007,-261.702 59.4935,-253.178 52.8047,-251.115"/>
</g>
<!-- Node30 -->
<g id="node31" class="node"><title>Node30</title>
<g id="a_node31"><a xlink:href="classumontreal_1_1ssj_1_1stochprocess_1_1VarianceGammaProcess.html" target="_top" xlink:title="This class represents a variance gamma (VG) process . ">
<polygon fill="none" stroke="black" points="157.5,-41 157.5,-60 282.5,-60 282.5,-41 157.5,-41"/>
<text text-anchor="middle" x="220" y="-48" font-family="Helvetica,sans-Serif" font-size="10.00">VarianceGammaProcess</text>
</a>
</g>
</g>
<!-- Node0&#45;&gt;Node30 -->
<g id="edge30" class="edge"><title>Node0&#45;&gt;Node30</title>
<path fill="none" stroke="midnightblue" d="M53.0668,-251.821C59.3555,-211.795 79.3097,-120.629 135,-72.5 141.501,-66.8813 149.272,-62.674 157.424,-59.5282"/>
<polygon fill="midnightblue" stroke="midnightblue" points="49.5791,-251.484 51.6097,-261.882 56.5068,-252.487 49.5791,-251.484"/>
</g>
<!-- Node2 -->
<g id="node3" class="node"><title>Node2</title>
<g id="a_node3"><a xlink:href="classumontreal_1_1ssj_1_1stochprocess_1_1BrownianMotionBridge.html" target="_top" xlink:title=", then the observations are generated in the following order: , , , , . ">
<polygon fill="none" stroke="black" points="367.5,-509 367.5,-528 481.5,-528 481.5,-509 367.5,-509"/>
<text text-anchor="middle" x="424.5" y="-516" font-family="Helvetica,sans-Serif" font-size="10.00">BrownianMotionBridge</text>
</a>
</g>
</g>
<!-- Node1&#45;&gt;Node2 -->
<g id="edge2" class="edge"><title>Node1&#45;&gt;Node2</title>
<path fill="none" stroke="midnightblue" d="M273.514,-490.354C304.138,-496.101 342.574,-503.314 372.869,-508.999"/>
<polygon fill="midnightblue" stroke="midnightblue" points="273.925,-486.871 263.451,-488.466 272.634,-493.75 273.925,-486.871"/>
</g>
<!-- Node3 -->
<g id="node4" class="node"><title>Node3</title>
<g id="a_node4"><a xlink:href="classumontreal_1_1ssj_1_1stochprocess_1_1BrownianMotionPCA.html" target="_top" xlink:title="A Brownian motion process &#160;sampled using the principal component decomposition (PCA) ...">
<polygon fill="none" stroke="black" points="371,-471 371,-490 478,-490 478,-471 371,-471"/>
<text text-anchor="middle" x="424.5" y="-478" font-family="Helvetica,sans-Serif" font-size="10.00">BrownianMotionPCA</text>
</a>
</g>
</g>
<!-- Node1&#45;&gt;Node3 -->
<g id="edge3" class="edge"><title>Node1&#45;&gt;Node3</title>
<path fill="none" stroke="midnightblue" d="M273.678,-480.5C303.531,-480.5 340.766,-480.5 370.648,-480.5"/>
<polygon fill="midnightblue" stroke="midnightblue" points="273.451,-477 263.451,-480.5 273.451,-484 273.451,-477"/>
</g>
<!-- Node4 -->
<g id="node5" class="node"><title>Node4</title>
<g id="a_node5"><a xlink:href="classumontreal_1_1ssj_1_1stochprocess_1_1BrownianMotionPCAEqualSteps.html" target="_top" xlink:title="Same as BrownianMotionPCA, but uses a trick to speed up the calculation when the time steps are equid...">
<polygon fill="none" stroke="black" points="345.5,-433 345.5,-452 503.5,-452 503.5,-433 345.5,-433"/>
<text text-anchor="middle" x="424.5" y="-440" font-family="Helvetica,sans-Serif" font-size="10.00">BrownianMotionPCAEqualSteps</text>
</a>
</g>
</g>
<!-- Node1&#45;&gt;Node4 -->
<g id="edge4" class="edge"><title>Node1&#45;&gt;Node4</title>
<path fill="none" stroke="midnightblue" d="M273.514,-470.646C304.138,-464.899 342.574,-457.686 372.869,-452.001"/>
<polygon fill="midnightblue" stroke="midnightblue" points="272.634,-467.25 263.451,-472.534 273.925,-474.129 272.634,-467.25"/>
</g>
<!-- Node8 -->
<g id="node9" class="node"><title>Node8</title>
<g id="a_node9"><a xlink:href="classumontreal_1_1ssj_1_1stochprocess_1_1GammaProcessBridge.html" target="_top" xlink:title="This class represents a gamma process &#160;with mean parameter &#160;and variance parameter ...">
<polygon fill="none" stroke="black" points="367,-382 367,-401 482,-401 482,-382 367,-382"/>
<text text-anchor="middle" x="424.5" y="-389" font-family="Helvetica,sans-Serif" font-size="10.00">GammaProcessBridge</text>
</a>
</g>
</g>
<!-- Node7&#45;&gt;Node8 -->
<g id="edge8" class="edge"><title>Node7&#45;&gt;Node8</title>
<path fill="none" stroke="midnightblue" d="M274.121,-373.058C302.618,-376.576 337.744,-380.913 366.773,-384.497"/>
<polygon fill="midnightblue" stroke="midnightblue" points="274.299,-369.554 263.945,-371.802 273.441,-376.501 274.299,-369.554"/>
</g>
<!-- Node10 -->
<g id="node11" class="node"><title>Node10</title>
<g id="a_node11"><a xlink:href="classumontreal_1_1ssj_1_1stochprocess_1_1GammaProcessPCA.html" target="_top" xlink:title="Represents a gamma process sampled using the principal component analysis (PCA). ">
<polygon fill="none" stroke="black" points="370.5,-344 370.5,-363 478.5,-363 478.5,-344 370.5,-344"/>
<text text-anchor="middle" x="424.5" y="-351" font-family="Helvetica,sans-Serif" font-size="10.00">GammaProcessPCA</text>
</a>
</g>
</g>
<!-- Node7&#45;&gt;Node10 -->
<g id="edge10" class="edge"><title>Node7&#45;&gt;Node10</title>
<path fill="none" stroke="midnightblue" d="M274.099,-363.091C303.716,-361.19 340.498,-358.829 370.155,-356.925"/>
<polygon fill="midnightblue" stroke="midnightblue" points="273.7,-359.609 263.945,-363.743 274.149,-366.595 273.7,-359.609"/>
</g>
<!-- Node9 -->
<g id="node10" class="node"><title>Node9</title>
<g id="a_node10"><a xlink:href="classumontreal_1_1ssj_1_1stochprocess_1_1GammaProcessSymmetricalBridge.html" target="_top" xlink:title="This class differs from GammaProcessBridge only in that it requires the number of interval of the pat...">
<polygon fill="none" stroke="black" points="544,-382 544,-401 714,-401 714,-382 544,-382"/>
<text text-anchor="middle" x="629" y="-389" font-family="Helvetica,sans-Serif" font-size="10.00">GammaProcessSymmetricalBridge</text>
</a>
</g>
</g>
<!-- Node8&#45;&gt;Node9 -->
<g id="edge9" class="edge"><title>Node8&#45;&gt;Node9</title>
<path fill="none" stroke="midnightblue" d="M492.226,-391.5C508.682,-391.5 526.52,-391.5 543.689,-391.5"/>
<polygon fill="midnightblue" stroke="midnightblue" points="492.177,-388 482.177,-391.5 492.177,-395 492.177,-388"/>
</g>
<!-- Node11 -->
<g id="node12" class="node"><title>Node11</title>
<g id="a_node12"><a xlink:href="classumontreal_1_1ssj_1_1stochprocess_1_1GammaProcessPCABridge.html" target="_top" xlink:title="Same as GammaProcessPCA, but the generated uniforms correspond to a bridge transformation of the Brow...">
<polygon fill="none" stroke="black" points="561,-344 561,-363 697,-363 697,-344 561,-344"/>
<text text-anchor="middle" x="629" y="-351" font-family="Helvetica,sans-Serif" font-size="10.00">GammaProcessPCABridge</text>
</a>
</g>
</g>
<!-- Node10&#45;&gt;Node11 -->
<g id="edge11" class="edge"><title>Node10&#45;&gt;Node11</title>
<path fill="none" stroke="midnightblue" d="M488.947,-353.5C511.74,-353.5 537.517,-353.5 560.632,-353.5"/>
<polygon fill="midnightblue" stroke="midnightblue" points="488.705,-350 478.704,-353.5 488.704,-357 488.705,-350"/>
</g>
<!-- Node12 -->
<g id="node13" class="node"><title>Node12</title>
<g id="a_node13"><a xlink:href="classumontreal_1_1ssj_1_1stochprocess_1_1GammaProcessPCASymmetricalBridge.html" target="_top" xlink:title="Same as GammaProcessPCABridge, but uses the fast inversion method for the symmetrical beta distributi...">
<polygon fill="none" stroke="black" points="750,-338.5 750,-368.5 913,-368.5 913,-338.5 750,-338.5"/>
<text text-anchor="start" x="758" y="-356.5" font-family="Helvetica,sans-Serif" font-size="10.00">GammaProcessPCASymmetrical</text>
<text text-anchor="middle" x="831.5" y="-345.5" font-family="Helvetica,sans-Serif" font-size="10.00">Bridge</text>
</a>
</g>
</g>
<!-- Node11&#45;&gt;Node12 -->
<g id="edge12" class="edge"><title>Node11&#45;&gt;Node12</title>
<path fill="none" stroke="midnightblue" d="M707.128,-353.5C721.157,-353.5 735.825,-353.5 749.95,-353.5"/>
<polygon fill="midnightblue" stroke="midnightblue" points="707.042,-350 697.042,-353.5 707.042,-357 707.042,-350"/>
</g>
<!-- Node15 -->
<g id="node16" class="node"><title>Node15</title>
<g id="a_node16"><a xlink:href="classumontreal_1_1ssj_1_1stochprocess_1_1GeometricNormalInverseGaussianProcess.html" target="_top" xlink:title="The geometric normal inverse gaussian (GNIG) process is the exponentiation of a NormalInverseGaussian...">
<polygon fill="none" stroke="black" points="341,-281.5 341,-311.5 508,-311.5 508,-281.5 341,-281.5"/>
<text text-anchor="start" x="349" y="-299.5" font-family="Helvetica,sans-Serif" font-size="10.00">GeometricNormalInverseGaussian</text>
<text text-anchor="middle" x="424.5" y="-288.5" font-family="Helvetica,sans-Serif" font-size="10.00">Process</text>
</a>
</g>
</g>
<!-- Node14&#45;&gt;Node15 -->
<g id="edge15" class="edge"><title>Node14&#45;&gt;Node15</title>
<path fill="none" stroke="midnightblue" d="M289.652,-292.534C306.139,-293.023 323.917,-293.549 340.962,-294.054"/>
<polygon fill="midnightblue" stroke="midnightblue" points="289.671,-289.033 279.571,-292.235 289.463,-296.03 289.671,-289.033"/>
</g>
<!-- Node18 -->
<g id="node19" class="node"><title>Node18</title>
<g id="a_node19"><a xlink:href="classumontreal_1_1ssj_1_1stochprocess_1_1InverseGaussianProcessMSH.html" target="_top" xlink:title="Uses a faster generating method (MSH)   than the simple inversion of the distribution function used ...">
<polygon fill="none" stroke="black" points="350,-243 350,-262 499,-262 499,-243 350,-243"/>
<text text-anchor="middle" x="424.5" y="-250" font-family="Helvetica,sans-Serif" font-size="10.00">InverseGaussianProcessMSH</text>
</a>
</g>
</g>
<!-- Node17&#45;&gt;Node18 -->
<g id="edge18" class="edge"><title>Node17&#45;&gt;Node18</title>
<path fill="none" stroke="midnightblue" d="M281.847,-225.918C310.821,-231.355 345.075,-237.783 372.641,-242.956"/>
<polygon fill="midnightblue" stroke="midnightblue" points="282.312,-222.444 271.838,-224.04 281.021,-229.324 282.312,-222.444"/>
</g>
<!-- Node20 -->
<g id="node21" class="node"><title>Node20</title>
<g id="a_node21"><a xlink:href="classumontreal_1_1ssj_1_1stochprocess_1_1InverseGaussianProcessPCA.html" target="_top" xlink:title="Approximates a principal component analysis (PCA) decomposition of the InverseGaussianProcess. ">
<polygon fill="none" stroke="black" points="351,-205 351,-224 498,-224 498,-205 351,-205"/>
<text text-anchor="middle" x="424.5" y="-212" font-family="Helvetica,sans-Serif" font-size="10.00">InverseGaussianProcessPCA</text>
</a>
</g>
</g>
<!-- Node17&#45;&gt;Node20 -->
<g id="edge20" class="edge"><title>Node17&#45;&gt;Node20</title>
<path fill="none" stroke="midnightblue" d="M293.344,-214.5C312.022,-214.5 332.132,-214.5 350.826,-214.5"/>
<polygon fill="midnightblue" stroke="midnightblue" points="293.133,-211 283.133,-214.5 293.133,-218 293.133,-211"/>
</g>
<!-- Node19 -->
<g id="node20" class="node"><title>Node19</title>
<g id="a_node20"><a xlink:href="classumontreal_1_1ssj_1_1stochprocess_1_1InverseGaussianProcessBridge.html" target="_top" xlink:title="Samples the path by bridge sampling: first finding the process value at the final time and then the m...">
<polygon fill="none" stroke="black" points="552,-249 552,-268 706,-268 706,-249 552,-249"/>
<text text-anchor="middle" x="629" y="-256" font-family="Helvetica,sans-Serif" font-size="10.00">InverseGaussianProcessBridge</text>
</a>
</g>
</g>
<!-- Node18&#45;&gt;Node19 -->
<g id="edge19" class="edge"><title>Node18&#45;&gt;Node19</title>
<path fill="none" stroke="midnightblue" d="M509.367,-254.985C523.492,-255.403 538.082,-255.836 551.993,-256.248"/>
<polygon fill="midnightblue" stroke="midnightblue" points="509.279,-251.481 499.18,-254.683 509.072,-258.478 509.279,-251.481"/>
</g>
<!-- Node22 -->
<g id="node23" class="node"><title>Node22</title>
<g id="a_node23"><a xlink:href="classumontreal_1_1ssj_1_1stochprocess_1_1MultivariateBrownianMotion.html" target="_top" xlink:title="This class represents a multivariate Brownian motion process , sampled at times . ...">
<polygon fill="none" stroke="black" points="356,-167 356,-186 493,-186 493,-167 356,-167"/>
<text text-anchor="middle" x="424.5" y="-174" font-family="Helvetica,sans-Serif" font-size="10.00">MultivariateBrownianMotion</text>
</a>
</g>
</g>
<!-- Node21&#45;&gt;Node22 -->
<g id="edge22" class="edge"><title>Node21&#45;&gt;Node22</title>
<path fill="none" stroke="midnightblue" d="M305.121,-176.5C322.055,-176.5 339.647,-176.5 355.929,-176.5"/>
<polygon fill="midnightblue" stroke="midnightblue" points="304.68,-173 294.68,-176.5 304.68,-180 304.68,-173"/>
</g>
<!-- Node26 -->
<g id="node27" class="node"><title>Node26</title>
<g id="a_node27"><a xlink:href="classumontreal_1_1ssj_1_1stochprocess_1_1MultivariateGeometricBrownianMotion.html" target="_top" xlink:title="This class is a multivariate version of GeometricBrownianMotion. ">
<polygon fill="none" stroke="black" points="348.5,-117.5 348.5,-147.5 500.5,-147.5 500.5,-117.5 348.5,-117.5"/>
<text text-anchor="start" x="356.5" y="-135.5" font-family="Helvetica,sans-Serif" font-size="10.00">MultivariateGeometricBrownian</text>
<text text-anchor="middle" x="424.5" y="-124.5" font-family="Helvetica,sans-Serif" font-size="10.00">Motion</text>
</a>
</g>
</g>
<!-- Node21&#45;&gt;Node26 -->
<g id="edge26" class="edge"><title>Node21&#45;&gt;Node26</title>
<path fill="none" stroke="midnightblue" d="M274.717,-164.828C299.075,-159.535 328.182,-153.211 354.165,-147.565"/>
<polygon fill="midnightblue" stroke="midnightblue" points="273.968,-161.409 264.939,-166.953 275.455,-168.249 273.968,-161.409"/>
</g>
<!-- Node23 -->
<g id="node24" class="node"><title>Node23</title>
<g id="a_node24"><a xlink:href="classumontreal_1_1ssj_1_1stochprocess_1_1MultivariateBrownianMotionBridge.html" target="_top" xlink:title="A multivariate Brownian motion process &#160;sampled via bridge sampling. ">
<polygon fill="none" stroke="black" points="560.5,-199.5 560.5,-229.5 697.5,-229.5 697.5,-199.5 560.5,-199.5"/>
<text text-anchor="start" x="568.5" y="-217.5" font-family="Helvetica,sans-Serif" font-size="10.00">MultivariateBrownianMotion</text>
<text text-anchor="middle" x="629" y="-206.5" font-family="Helvetica,sans-Serif" font-size="10.00">Bridge</text>
</a>
</g>
</g>
<!-- Node22&#45;&gt;Node23 -->
<g id="edge23" class="edge"><title>Node22&#45;&gt;Node23</title>
<path fill="none" stroke="midnightblue" d="M486.433,-187.934C509.722,-192.305 536.411,-197.313 560.294,-201.795"/>
<polygon fill="midnightblue" stroke="midnightblue" points="486.812,-184.444 476.338,-186.04 485.521,-191.324 486.812,-184.444"/>
</g>
<!-- Node24 -->
<g id="node25" class="node"><title>Node24</title>
<g id="a_node25"><a xlink:href="classumontreal_1_1ssj_1_1stochprocess_1_1MultivariateBrownianMotionPCA.html" target="_top" xlink:title="A multivariate Brownian motion process &#160;sampled entirely using the principal component decomposition ...">
<polygon fill="none" stroke="black" points="550,-161 550,-180 708,-180 708,-161 550,-161"/>
<text text-anchor="middle" x="629" y="-168" font-family="Helvetica,sans-Serif" font-size="10.00">MultivariateBrownianMotionPCA</text>
</a>
</g>
</g>
<!-- Node22&#45;&gt;Node24 -->
<g id="edge24" class="edge"><title>Node22&#45;&gt;Node24</title>
<path fill="none" stroke="midnightblue" d="M503.583,-174.186C518.76,-173.737 534.671,-173.265 549.85,-172.816"/>
<polygon fill="midnightblue" stroke="midnightblue" points="503.103,-170.699 493.211,-174.494 503.31,-177.696 503.103,-170.699"/>
</g>
<!-- Node25 -->
<g id="node26" class="node"><title>Node25</title>
<g id="a_node26"><a xlink:href="classumontreal_1_1ssj_1_1stochprocess_1_1MultivariateBrownianMotionPCABigSigma.html" target="_top" xlink:title="A multivariate Brownian motion process &#160;sampled entirely using the principal component decomposition ...">
<polygon fill="none" stroke="black" points="560.5,-111.5 560.5,-141.5 697.5,-141.5 697.5,-111.5 560.5,-111.5"/>
<text text-anchor="start" x="568.5" y="-129.5" font-family="Helvetica,sans-Serif" font-size="10.00">MultivariateBrownianMotion</text>
<text text-anchor="middle" x="629" y="-118.5" font-family="Helvetica,sans-Serif" font-size="10.00">PCABigSigma</text>
</a>
</g>
</g>
<!-- Node22&#45;&gt;Node25 -->
<g id="edge25" class="edge"><title>Node22&#45;&gt;Node25</title>
<path fill="none" stroke="midnightblue" d="M474.796,-164.61C485.732,-161.956 497.263,-159.144 508,-156.5 527.601,-151.674 548.986,-146.347 568.203,-141.538"/>
<polygon fill="midnightblue" stroke="midnightblue" points="473.854,-161.237 464.96,-166.995 475.503,-168.04 473.854,-161.237"/>
</g>
<!-- Node29 -->
<g id="node30" class="node"><title>Node29</title>
<g id="a_node30"><a xlink:href="classumontreal_1_1ssj_1_1stochprocess_1_1OrnsteinUhlenbeckProcessEuler.html" target="_top" xlink:title="This class represents an Ornstein&#45;Uhlenbeck process as in OrnsteinUhlenbeckProcess, but the process is generated using the simple Euler scheme. ">
<polygon fill="none" stroke="black" points="356.5,-68.5 356.5,-98.5 492.5,-98.5 492.5,-68.5 356.5,-68.5"/>
<text text-anchor="start" x="364.5" y="-86.5" font-family="Helvetica,sans-Serif" font-size="10.00">OrnsteinUhlenbeckProcess</text>
<text text-anchor="middle" x="424.5" y="-75.5" font-family="Helvetica,sans-Serif" font-size="10.00">Euler</text>
</a>
</g>
</g>
<!-- Node28&#45;&gt;Node29 -->
<g id="edge29" class="edge"><title>Node28&#45;&gt;Node29</title>
<path fill="none" stroke="midnightblue" d="M298.296,-88.4463C317.365,-87.693 337.636,-86.8922 356.188,-86.1592"/>
<polygon fill="midnightblue" stroke="midnightblue" points="298.002,-84.9551 288.148,-88.8472 298.279,-91.9497 298.002,-84.9551"/>
</g>
<!-- Node31 -->
<g id="node32" class="node"><title>Node31</title>
<g id="a_node32"><a xlink:href="classumontreal_1_1ssj_1_1stochprocess_1_1VarianceGammaProcessDiff.html" target="_top" xlink:title="This class represents a variance gamma (VG) process . ">
<polygon fill="none" stroke="black" points="354,-30 354,-49 495,-49 495,-30 354,-30"/>
<text text-anchor="middle" x="424.5" y="-37" font-family="Helvetica,sans-Serif" font-size="10.00">VarianceGammaProcessDiff</text>
</a>
</g>
</g>
<!-- Node30&#45;&gt;Node31 -->
<g id="edge31" class="edge"><title>Node30&#45;&gt;Node31</title>
<path fill="none" stroke="midnightblue" d="M292.768,-46.6015C312.571,-45.5258 334.021,-44.3606 353.71,-43.2911"/>
<polygon fill="midnightblue" stroke="midnightblue" points="292.377,-43.1175 282.581,-47.1548 292.757,-50.1072 292.377,-43.1175"/>
</g>
<!-- Node32 -->
<g id="node33" class="node"><title>Node32</title>
<g id="a_node33"><a xlink:href="classumontreal_1_1ssj_1_1stochprocess_1_1VarianceGammaProcessDiffPCA.html" target="_top" xlink:title="Same as VarianceGammaProcessDiff, but the two inner GammaProcess ’es are of PCA type. ">
<polygon fill="none" stroke="black" points="548,-30 548,-49 710,-49 710,-30 548,-30"/>
<text text-anchor="middle" x="629" y="-37" font-family="Helvetica,sans-Serif" font-size="10.00">VarianceGammaProcessDiffPCA</text>
</a>
</g>
</g>
<!-- Node31&#45;&gt;Node32 -->
<g id="edge32" class="edge"><title>Node31&#45;&gt;Node32</title>
<path fill="none" stroke="midnightblue" d="M505.244,-39.5C519.213,-39.5 533.756,-39.5 547.739,-39.5"/>
<polygon fill="midnightblue" stroke="midnightblue" points="505.189,-36.0001 495.189,-39.5 505.189,-43.0001 505.189,-36.0001"/>
</g>
<!-- Node33 -->
<g id="node34" class="node"><title>Node33</title>
<g id="a_node34"><a xlink:href="classumontreal_1_1ssj_1_1stochprocess_1_1VarianceGammaProcessDiffPCABridge.html" target="_top" xlink:title="Same as VarianceGammaProcessDiff, but the two inner GammaProcess ’es are of the type PCABridge...">
<polygon fill="none" stroke="black" points="761,-49.5 761,-79.5 902,-79.5 902,-49.5 761,-49.5"/>
<text text-anchor="start" x="769" y="-67.5" font-family="Helvetica,sans-Serif" font-size="10.00">VarianceGammaProcessDiff</text>
<text text-anchor="middle" x="831.5" y="-56.5" font-family="Helvetica,sans-Serif" font-size="10.00">PCABridge</text>
</a>
</g>
</g>
<!-- Node32&#45;&gt;Node33 -->
<g id="edge33" class="edge"><title>Node32&#45;&gt;Node33</title>
<path fill="none" stroke="midnightblue" d="M716.555,-50.2923C731.38,-52.1409 746.612,-54.0402 760.922,-55.8245"/>
<polygon fill="midnightblue" stroke="midnightblue" points="716.729,-46.787 706.372,-49.0227 715.862,-53.7332 716.729,-46.787"/>
</g>
<!-- Node34 -->
<g id="node35" class="node"><title>Node34</title>
<g id="a_node35"><a xlink:href="classumontreal_1_1ssj_1_1stochprocess_1_1VarianceGammaProcessDiffPCASymmetricalBridge.html" target="_top" xlink:title="Same as VarianceGammaProcessDiff, but the two inner GammaProcess ’es are of the PCASymmetricalBridge...">
<polygon fill="none" stroke="black" points="761,-0.5 761,-30.5 902,-30.5 902,-0.5 761,-0.5"/>
<text text-anchor="start" x="769" y="-18.5" font-family="Helvetica,sans-Serif" font-size="10.00">VarianceGammaProcessDiff</text>
<text text-anchor="middle" x="831.5" y="-7.5" font-family="Helvetica,sans-Serif" font-size="10.00">PCASymmetricalBridge</text>
</a>
</g>
</g>
<!-- Node32&#45;&gt;Node34 -->
<g id="edge34" class="edge"><title>Node32&#45;&gt;Node34</title>
<path fill="none" stroke="midnightblue" d="M719.54,-28.782C733.373,-27.1262 747.482,-25.4374 760.795,-23.8437"/>
<polygon fill="midnightblue" stroke="midnightblue" points="719.044,-25.3163 709.531,-29.9801 719.876,-32.2667 719.044,-25.3163"/>
</g>
</g>
</svg>
        <g id="navigator" transform="translate(0 0)" fill="#404254">
                <rect fill="#f2f5e9" fill-opacity="0.5" stroke="#606060" stroke-width=".5" x="0" y="0" width="60" height="60"/>
                <use id="zoomplus" xlink:href="#zoomPlus" x="17" y="9" onmousedown="handleZoom(evt,'in')"/>
                <use id="zoomminus" xlink:href="#zoomMin" x="42" y="9" onmousedown="handleZoom(evt,'out')"/>
                <use id="reset" xlink:href="#resetDef" x="30" y="36" onmousedown="handleReset()"/>
                <g id="arrowUp" xlink:href="#dirArrow" transform="translate(30 24)" onmousedown="handlePan(0,-1)">
                  <use xlink:href="#rim" fill="#404040">
                        <set attributeName="fill" to="#808080" begin="arrowUp.mouseover" end="arrowUp.mouseout"/>
                  </use>
                  <path fill="none" stroke="white" stroke-width="1.5" d="M0,-3.0v7 M-2.5,-0.5L0,-3.0L2.5,-0.5"/>
                </g>
                <g id="arrowRight" xlink:href="#dirArrow" transform="rotate(90) translate(36 -43)" onmousedown="handlePan(1,0)">
                  <use xlink:href="#rim" fill="#404040">
                        <set attributeName="fill" to="#808080" begin="arrowRight.mouseover" end="arrowRight.mouseout"/>
                  </use>
                  <path fill="none" stroke="white" stroke-width="1.5" d="M0,-3.0v7 M-2.5,-0.5L0,-3.0L2.5,-0.5"/>
                </g>
                <g id="arrowDown" xlink:href="#dirArrow" transform="rotate(180) translate(-30 -48)" onmousedown="handlePan(0,1)">
                  <use xlink:href="#rim" fill="#404040">
                        <set attributeName="fill" to="#808080" begin="arrowDown.mouseover" end="arrowDown.mouseout"/>
                  </use>
                  <path fill="none" stroke="white" stroke-width="1.5" d="M0,-3.0v7 M-2.5,-0.5L0,-3.0L2.5,-0.5"/>
                </g>
                <g id="arrowLeft" xlink:href="#dirArrow" transform="rotate(270) translate(-36 17)" onmousedown="handlePan(-1,0)">
                  <use xlink:href="#rim" fill="#404040">
                        <set attributeName="fill" to="#808080" begin="arrowLeft.mouseover" end="arrowLeft.mouseout"/>
                  </use>
                  <path fill="none" stroke="white" stroke-width="1.5" d="M0,-3.0v7 M-2.5,-0.5L0,-3.0L2.5,-0.5"/>
                </g>
        </g>
        <svg viewBox="0 0 15 15" width="100%" height="30px" preserveAspectRatio="xMaxYMin meet">
         <g id="arrow_out" transform="scale(0.3 0.3)">
          <a xlink:href="classumontreal_1_1ssj_1_1stochprocess_1_1StochasticProcess__inherit__graph_org.svg" target="_base">
           <rect id="button" ry="5" rx="5" y="6" x="6" height="38" width="38"
                fill="#f2f5e9" fill-opacity="0.5" stroke="#606060" stroke-width="1.0"/>
           <path id="arrow"
             d="M 11.500037,31.436501 C 11.940474,20.09759 22.043105,11.32322 32.158766,21.979434 L 37.068811,17.246167 C 37.068811,17.246167 37.088388,32 37.088388,32 L 22.160133,31.978069 C 22.160133,31.978069 26.997745,27.140456 26.997745,27.140456 C 18.528582,18.264221 13.291696,25.230495 11.500037,31.436501 z"
             style="fill:#404040;"/>
          </a>
         </g>
        </svg>
</svg>
