<?xml version="1.0" encoding="UTF-8" standalone="no"?>
<!DOCTYPE svg PUBLIC "-//W3C//DTD SVG 1.1//EN"
 "http://www.w3.org/Graphics/SVG/1.1/DTD/svg11.dtd">
<!-- Generated by graphviz version 2.40.1 (0)
 -->
<!-- Title: TextDataWriter Pages: 1 -->
<svg width="316pt" height="230pt"
 viewBox="0.00 0.00 315.50 230.00" xmlns="http://www.w3.org/2000/svg" xmlns:xlink="http://www.w3.org/1999/xlink">
<g id="graph0" class="graph" transform="scale(1 1) rotate(0) translate(4 226)">
<title>TextDataWriter</title>
<!-- Node4 -->
<g id="node1" class="node">
<title>Node4</title>
<g id="a_node1"><a xlink:title="Text data writer.">
<polygon fill="#bfbfbf" stroke="#000000" points="145,-.5 145,-19.5 228,-19.5 228,-.5 145,-.5"/>
<text text-anchor="middle" x="186.5" y="-7.5" font-family="Helvetica,sans-Serif" font-size="10.00" fill="#000000">TextDataWriter</text>
</a>
</g>
</g>
<!-- Node5 -->
<g id="node2" class="node">
<title>Node5</title>
<g id="a_node2"><a xlink:href="classumontreal_1_1ssj_1_1util_1_1io_1_1CachedDataWriter.html" target="_top" xlink:title="This abstract class implements shared functionality for data writers that store all fields in memory ...">
<polygon fill="none" stroke="#000000" points="75.5,-67.5 75.5,-86.5 173.5,-86.5 173.5,-67.5 75.5,-67.5"/>
<text text-anchor="middle" x="124.5" y="-74.5" font-family="Helvetica,sans-Serif" font-size="10.00" fill="#000000">CachedDataWriter</text>
</a>
</g>
</g>
<!-- Node5&#45;&gt;Node4 -->
<g id="edge1" class="edge">
<title>Node5&#45;&gt;Node4</title>
<path fill="none" stroke="#191970" d="M140.4953,-59.7147C152.3158,-46.941 167.9718,-30.0224 177.6334,-19.5817"/>
<polygon fill="#191970" stroke="#191970" points="137.6061,-57.6837 133.3831,-67.4005 142.7439,-62.4381 137.6061,-57.6837"/>
</g>
<!-- Node6 -->
<g id="node3" class="node">
<title>Node6</title>
<g id="a_node3"><a xlink:href="classumontreal_1_1ssj_1_1util_1_1io_1_1AbstractDataWriter.html" target="_top" xlink:title="This abstract class implements shared functionality for data writers.">
<polygon fill="none" stroke="#000000" points="0,-140 0,-159 101,-159 101,-140 0,-140"/>
<text text-anchor="middle" x="50.5" y="-147" font-family="Helvetica,sans-Serif" font-size="10.00" fill="#000000">AbstractDataWriter</text>
</a>
</g>
</g>
<!-- Node6&#45;&gt;Node5 -->
<g id="edge2" class="edge">
<title>Node6&#45;&gt;Node5</title>
<path fill="none" stroke="#191970" d="M67.9032,-132.4495C82.4828,-118.1655 102.7686,-98.2909 114.6781,-86.6228"/>
<polygon fill="#191970" stroke="#191970" points="65.1737,-130.2239 60.48,-139.7223 70.0725,-135.2241 65.1737,-130.2239"/>
</g>
<!-- Node7 -->
<g id="node4" class="node">
<title>Node7</title>
<g id="a_node4"><a xlink:href="interfaceumontreal_1_1ssj_1_1util_1_1io_1_1DataWriter.html" target="_top" xlink:title="Data writer interface.">
<polygon fill="none" stroke="#000000" points="18.5,-202.5 18.5,-221.5 82.5,-221.5 82.5,-202.5 18.5,-202.5"/>
<text text-anchor="middle" x="50.5" y="-209.5" font-family="Helvetica,sans-Serif" font-size="10.00" fill="#000000">DataWriter</text>
</a>
</g>
</g>
<!-- Node7&#45;&gt;Node6 -->
<g id="edge3" class="edge">
<title>Node7&#45;&gt;Node6</title>
<path fill="none" stroke="#191970" d="M50.5,-191.925C50.5,-181.0568 50.5,-168.1118 50.5,-159.4033"/>
<polygon fill="#191970" stroke="#191970" points="47.0001,-192.2343 50.5,-202.2344 54.0001,-192.2344 47.0001,-192.2343"/>
</g>
<!-- Node8 -->
<g id="node5" class="node">
<title>Node8</title>
<g id="a_node5"><a xlink:title=" ">
<polygon fill="none" stroke="#bfbfbf" points="119.5,-134.5 119.5,-164.5 277.5,-164.5 277.5,-134.5 119.5,-134.5"/>
<text text-anchor="start" x="127.5" y="-152.5" font-family="Helvetica,sans-Serif" font-size="10.00" fill="#000000">LinkedList&lt; umontreal.ssj.util.io.</text>
<text text-anchor="middle" x="198.5" y="-141.5" font-family="Helvetica,sans-Serif" font-size="10.00" fill="#000000">DataField &gt;</text>
</a>
</g>
</g>
<!-- Node8&#45;&gt;Node5 -->
<g id="edge4" class="edge">
<title>Node8&#45;&gt;Node5</title>
<path fill="none" stroke="#9a32cd" stroke-dasharray="5,2" d="M175.8949,-127.3531C162.1111,-113.8487 145.1697,-97.2507 134.6004,-86.8957"/>
<polygon fill="#9a32cd" stroke="#9a32cd" points="173.5746,-129.9797 183.1672,-134.478 178.4734,-124.9795 173.5746,-129.9797"/>
<text text-anchor="middle" x="178" y="-108" font-family="Helvetica,sans-Serif" font-size="10.00" fill="#000000"> fields</text>
</g>
<!-- Node9 -->
<g id="node6" class="node">
<title>Node9</title>
<g id="a_node6"><a xlink:href="enumumontreal_1_1ssj_1_1util_1_1io_1_1TextDataWriter_1_1Format.html" target="_top" xlink:title="Output format: organize fields as columns or as rows.">
<polygon fill="none" stroke="#000000" points="191.5,-67.5 191.5,-86.5 307.5,-86.5 307.5,-67.5 191.5,-67.5"/>
<text text-anchor="middle" x="249.5" y="-74.5" font-family="Helvetica,sans-Serif" font-size="10.00" fill="#000000">TextDataWriter.Format</text>
</a>
</g>
</g>
<!-- Node9&#45;&gt;Node4 -->
<g id="edge5" class="edge">
<title>Node9&#45;&gt;Node4</title>
<path fill="none" stroke="#9a32cd" stroke-dasharray="5,2" d="M233.5888,-60.0785C221.5392,-47.2639 205.4205,-30.1218 195.5096,-19.5817"/>
<polygon fill="#9a32cd" stroke="#9a32cd" points="231.0735,-62.5129 240.4736,-67.4005 236.1732,-57.7177 231.0735,-62.5129"/>
<text text-anchor="middle" x="237" y="-41" font-family="Helvetica,sans-Serif" font-size="10.00" fill="#000000"> format</text>
</g>
</g>
</svg>
