<?xml version="1.0" encoding="UTF-8" standalone="no"?>
<!DOCTYPE svg PUBLIC "-//W3C//DTD SVG 1.1//EN"
 "http://www.w3.org/Graphics/SVG/1.1/DTD/svg11.dtd">
<!-- Generated by graphviz version 2.40.1 (20161225.0304)
 -->
<!-- Title: BetaGen Pages: 1 -->
<svg width="519pt" height="196pt"
 viewBox="0.00 0.00 518.50 196.00" xmlns="http://www.w3.org/2000/svg" xmlns:xlink="http://www.w3.org/1999/xlink">
<g id="graph0" class="graph" transform="scale(1 1) rotate(0) translate(4 192)">
<title>BetaGen</title>
<!-- Node0 -->
<g id="node1" class="node">
<title>Node0</title>
<polygon fill="#bfbfbf" stroke="#000000" points="201,-112.5 201,-131.5 256,-131.5 256,-112.5 201,-112.5"/>
<text text-anchor="middle" x="228.5" y="-119.5" font-family="Helvetica,sans-Serif" font-size="10.00" fill="#000000">BetaGen</text>
</g>
<!-- Node2 -->
<g id="node3" class="node">
<title>Node2</title>
<g id="a_node3"><a xlink:href="classumontreal_1_1ssj_1_1randvar_1_1BetaRejectionLoglogisticGen.html" target="_top" xlink:title="Implements Beta random variate generators using the rejection method with log&#45;logistic envelopes from...">
<polygon fill="none" stroke="#000000" points="0,-56.5 0,-75.5 143,-75.5 143,-56.5 0,-56.5"/>
<text text-anchor="middle" x="71.5" y="-63.5" font-family="Helvetica,sans-Serif" font-size="10.00" fill="#000000">BetaRejectionLoglogisticGen</text>
</a>
</g>
</g>
<!-- Node0&#45;&gt;Node2 -->
<g id="edge2" class="edge">
<title>Node0&#45;&gt;Node2</title>
<path fill="none" stroke="#191970" d="M191.8381,-108.9231C163.1376,-98.686 123.8956,-84.6889 98.1371,-75.5011"/>
<polygon fill="#191970" stroke="#191970" points="190.9161,-112.3102 201.5107,-112.3733 193.2678,-105.7171 190.9161,-112.3102"/>
</g>
<!-- Node3 -->
<g id="node4" class="node">
<title>Node3</title>
<g id="a_node4"><a xlink:href="classumontreal_1_1ssj_1_1randvar_1_1BetaStratifiedRejectionGen.html" target="_top" xlink:title="This class implements Beta random variate generators using the stratified rejection/patchwork rejecti...">
<polygon fill="none" stroke="#000000" points="161,-56.5 161,-75.5 296,-75.5 296,-56.5 161,-56.5"/>
<text text-anchor="middle" x="228.5" y="-63.5" font-family="Helvetica,sans-Serif" font-size="10.00" fill="#000000">BetaStratifiedRejectionGen</text>
</a>
</g>
</g>
<!-- Node0&#45;&gt;Node3 -->
<g id="edge3" class="edge">
<title>Node0&#45;&gt;Node3</title>
<path fill="none" stroke="#191970" d="M228.5,-102.1575C228.5,-93.155 228.5,-82.9199 228.5,-75.6427"/>
<polygon fill="#191970" stroke="#191970" points="225.0001,-102.2455 228.5,-112.2455 232.0001,-102.2456 225.0001,-102.2455"/>
</g>
<!-- Node4 -->
<g id="node5" class="node">
<title>Node4</title>
<g id="a_node5"><a xlink:href="classumontreal_1_1ssj_1_1randvar_1_1BetaSymmetricalGen.html" target="_top" xlink:title="This class implements random variate generators with the symmetrical beta distribution with shape par...">
<polygon fill="none" stroke="#000000" points="314.5,-56.5 314.5,-75.5 424.5,-75.5 424.5,-56.5 314.5,-56.5"/>
<text text-anchor="middle" x="369.5" y="-63.5" font-family="Helvetica,sans-Serif" font-size="10.00" fill="#000000">BetaSymmetricalGen</text>
</a>
</g>
</g>
<!-- Node0&#45;&gt;Node4 -->
<g id="edge4" class="edge">
<title>Node0&#45;&gt;Node4</title>
<path fill="none" stroke="#191970" d="M262.1032,-108.6541C287.8159,-98.4419 322.6461,-84.6086 345.5775,-75.5011"/>
<polygon fill="#191970" stroke="#191970" points="260.7407,-105.4292 252.7388,-112.3733 263.3245,-111.9349 260.7407,-105.4292"/>
</g>
<!-- Node1 -->
<g id="node2" class="node">
<title>Node1</title>
<g id="a_node2"><a xlink:href="classumontreal_1_1ssj_1_1randvar_1_1RandomVariateGen.html" target="_top" xlink:title="This is the base class for all random variate generators over the real line. ">
<polygon fill="none" stroke="#000000" points="178,-168.5 178,-187.5 279,-187.5 279,-168.5 178,-168.5"/>
<text text-anchor="middle" x="228.5" y="-175.5" font-family="Helvetica,sans-Serif" font-size="10.00" fill="#000000">RandomVariateGen</text>
</a>
</g>
</g>
<!-- Node1&#45;&gt;Node0 -->
<g id="edge1" class="edge">
<title>Node1&#45;&gt;Node0</title>
<path fill="none" stroke="#191970" d="M228.5,-158.1575C228.5,-149.155 228.5,-138.9199 228.5,-131.6427"/>
<polygon fill="#191970" stroke="#191970" points="225.0001,-158.2455 228.5,-168.2455 232.0001,-158.2456 225.0001,-158.2455"/>
</g>
<!-- Node5 -->
<g id="node6" class="node">
<title>Node5</title>
<g id="a_node6"><a xlink:href="classumontreal_1_1ssj_1_1randvar_1_1BetaSymmetricalBestGen.html" target="_top" xlink:title="This class implements symmetrical beta random variate generators using Devroye’s one&#45;liner method...">
<polygon fill="none" stroke="#000000" points="230.5,-.5 230.5,-19.5 360.5,-19.5 360.5,-.5 230.5,-.5"/>
<text text-anchor="middle" x="295.5" y="-7.5" font-family="Helvetica,sans-Serif" font-size="10.00" fill="#000000">BetaSymmetricalBestGen</text>
</a>
</g>
</g>
<!-- Node4&#45;&gt;Node5 -->
<g id="edge5" class="edge">
<title>Node4&#45;&gt;Node5</title>
<path fill="none" stroke="#191970" d="M348.6343,-50.2097C335.6375,-40.3743 319.3378,-28.0394 308.2421,-19.6427"/>
<polygon fill="#191970" stroke="#191970" points="346.524,-53.002 356.6102,-56.2455 350.7482,-47.4201 346.524,-53.002"/>
</g>
<!-- Node6 -->
<g id="node7" class="node">
<title>Node6</title>
<g id="a_node7"><a xlink:href="classumontreal_1_1ssj_1_1randvar_1_1BetaSymmetricalPolarGen.html" target="_top" xlink:title="This class implements symmetrical beta random variate generators using Ulrich’s polar method  ...">
<polygon fill="none" stroke="#000000" points="378.5,-.5 378.5,-19.5 510.5,-19.5 510.5,-.5 378.5,-.5"/>
<text text-anchor="middle" x="444.5" y="-7.5" font-family="Helvetica,sans-Serif" font-size="10.00" fill="#000000">BetaSymmetricalPolarGen</text>
</a>
</g>
</g>
<!-- Node4&#45;&gt;Node6 -->
<g id="edge6" class="edge">
<title>Node4&#45;&gt;Node6</title>
<path fill="none" stroke="#191970" d="M390.6477,-50.2097C403.8201,-40.3743 420.34,-28.0394 431.5857,-19.6427"/>
<polygon fill="#191970" stroke="#191970" points="388.4828,-47.4581 382.564,-56.2455 392.6709,-53.0671 388.4828,-47.4581"/>
</g>
</g>
</svg>
