<?xml version="1.0" encoding="UTF-8" standalone="no"?>
<!DOCTYPE svg PUBLIC "-//W3C//DTD SVG 1.1//EN"
 "http://www.w3.org/Graphics/SVG/1.1/DTD/svg11.dtd">
<!-- Generated by graphviz version 2.40.1 (20161225.0304)
 -->
<!-- Title: ContainerPointSet.ContainerPointSetIterator Pages: 1 -->
<svg width="228pt" height="163pt"
 viewBox="0.00 0.00 227.50 163.00" xmlns="http://www.w3.org/2000/svg" xmlns:xlink="http://www.w3.org/1999/xlink">
<g id="graph0" class="graph" transform="scale(1 1) rotate(0) translate(4 159)">
<title>ContainerPointSet.ContainerPointSetIterator</title>
<!-- Node4 -->
<g id="node1" class="node">
<title>Node4</title>
<polygon fill="#bfbfbf" stroke="#000000" points="3.5,-.5 3.5,-30.5 144.5,-30.5 144.5,-.5 3.5,-.5"/>
<text text-anchor="start" x="11.5" y="-18.5" font-family="Helvetica,sans-Serif" font-size="10.00" fill="#000000">ContainerPointSet.Container</text>
<text text-anchor="middle" x="74" y="-7.5" font-family="Helvetica,sans-Serif" font-size="10.00" fill="#000000">PointSetIterator</text>
</g>
<!-- Node5 -->
<g id="node2" class="node">
<title>Node5</title>
<polygon fill="none" stroke="#bfbfbf" points="0,-78.5 0,-97.5 116,-97.5 116,-78.5 0,-78.5"/>
<text text-anchor="middle" x="58" y="-85.5" font-family="Helvetica,sans-Serif" font-size="10.00" fill="#000000">DefaultPointSetIterator</text>
</g>
<!-- Node5&#45;&gt;Node4 -->
<g id="edge1" class="edge">
<title>Node5&#45;&gt;Node4</title>
<path fill="none" stroke="#191970" d="M62.3296,-68.3817C64.9473,-56.52 68.2345,-41.6248 70.6526,-30.668"/>
<polygon fill="#191970" stroke="#191970" points="58.8952,-67.703 60.1578,-78.2223 65.7307,-69.2116 58.8952,-67.703"/>
</g>
<!-- Node6 -->
<g id="node3" class="node">
<title>Node6</title>
<g id="a_node3"><a xlink:href="interfaceumontreal_1_1ssj_1_1hups_1_1PointSetIterator.html" target="_top" xlink:title="Objects of classes that implement this interface are iterators that permit one to enumerate (or obser...">
<polygon fill="none" stroke="#000000" points="134.5,-78.5 134.5,-97.5 219.5,-97.5 219.5,-78.5 134.5,-78.5"/>
<text text-anchor="middle" x="177" y="-85.5" font-family="Helvetica,sans-Serif" font-size="10.00" fill="#000000">PointSetIterator</text>
</a>
</g>
</g>
<!-- Node6&#45;&gt;Node4 -->
<g id="edge2" class="edge">
<title>Node6&#45;&gt;Node4</title>
<path fill="none" stroke="#9a32cd" stroke-dasharray="5,2" d="M154.6262,-72.2515C137.0977,-59.9134 112.8625,-42.8547 95.549,-30.668"/>
<polygon fill="#9a32cd" stroke="#9a32cd" points="152.917,-75.3285 163.109,-78.2223 156.9462,-69.6043 152.917,-75.3285"/>
<text text-anchor="middle" x="161.5" y="-52" font-family="Helvetica,sans-Serif" font-size="10.00" fill="#000000"> innerIterator</text>
</g>
<!-- Node7 -->
<g id="node4" class="node">
<title>Node7</title>
<g id="a_node4"><a xlink:href="interfaceumontreal_1_1ssj_1_1rng_1_1RandomStream.html" target="_top" xlink:title="This interface defines the basic structures to handle multiple streams of uniform (pseudo)random numb...">
<polygon fill="none" stroke="#000000" points="134.5,-135.5 134.5,-154.5 219.5,-154.5 219.5,-135.5 134.5,-135.5"/>
<text text-anchor="middle" x="177" y="-142.5" font-family="Helvetica,sans-Serif" font-size="10.00" fill="#000000">RandomStream</text>
</a>
</g>
</g>
<!-- Node7&#45;&gt;Node6 -->
<g id="edge3" class="edge">
<title>Node7&#45;&gt;Node6</title>
<path fill="none" stroke="#191970" d="M177,-125.2342C177,-115.8491 177,-105.0651 177,-97.5265"/>
<polygon fill="#191970" stroke="#191970" points="173.5001,-125.3307 177,-135.3307 180.5001,-125.3308 173.5001,-125.3307"/>
</g>
</g>
</svg>
