<?xml version="1.0" encoding="UTF-8" standalone="no"?>
<!DOCTYPE svg PUBLIC "-//W3C//DTD SVG 1.1//EN"
 "http://www.w3.org/Graphics/SVG/1.1/DTD/svg11.dtd">
<!-- Generated by graphviz version 2.40.1 (20161225.0304)
 -->
<!-- Title: RandMrg Pages: 1 -->
<svg width="245pt" height="140pt"
 viewBox="0.00 0.00 245.00 140.00" xmlns="http://www.w3.org/2000/svg" xmlns:xlink="http://www.w3.org/1999/xlink">
<g id="graph0" class="graph" transform="scale(1 1) rotate(0) translate(4 136)">
<title>RandMrg</title>
<!-- Node0 -->
<g id="node1" class="node">
<title>Node0</title>
<polygon fill="#bfbfbf" stroke="#000000" points="117.5,-.5 117.5,-19.5 173.5,-19.5 173.5,-.5 117.5,-.5"/>
<text text-anchor="middle" x="145.5" y="-7.5" font-family="Helvetica,sans-Serif" font-size="10.00" fill="#000000">RandMrg</text>
</g>
<!-- Node1 -->
<g id="node2" class="node">
<title>Node1</title>
<g id="a_node2"><a xlink:href="interfaceumontreal_1_1ssj_1_1rng_1_1CloneableRandomStream.html" target="_top" xlink:title="CloneableRandomStream extends RandomStream and Cloneable. ">
<polygon fill="none" stroke="#000000" points="23.5,-56.5 23.5,-75.5 151.5,-75.5 151.5,-56.5 23.5,-56.5"/>
<text text-anchor="middle" x="87.5" y="-63.5" font-family="Helvetica,sans-Serif" font-size="10.00" fill="#000000">CloneableRandomStream</text>
</a>
</g>
</g>
<!-- Node1&#45;&gt;Node0 -->
<g id="edge1" class="edge">
<title>Node1&#45;&gt;Node0</title>
<path fill="none" stroke="#191970" d="M105.0293,-49.0751C115.0083,-39.4402 127.1476,-27.7196 135.5129,-19.6427"/>
<polygon fill="#191970" stroke="#191970" points="102.3658,-46.7817 97.6028,-56.2455 107.228,-51.8175 102.3658,-46.7817"/>
</g>
<!-- Node2 -->
<g id="node3" class="node">
<title>Node2</title>
<g id="a_node3"><a xlink:href="interfaceumontreal_1_1ssj_1_1rng_1_1RandomStream.html" target="_top" xlink:title="This interface defines the basic structures to handle multiple streams of uniform (pseudo)random numb...">
<polygon fill="none" stroke="#000000" points="0,-112.5 0,-131.5 85,-131.5 85,-112.5 0,-112.5"/>
<text text-anchor="middle" x="42.5" y="-119.5" font-family="Helvetica,sans-Serif" font-size="10.00" fill="#000000">RandomStream</text>
</a>
</g>
</g>
<!-- Node2&#45;&gt;Node1 -->
<g id="edge2" class="edge">
<title>Node2&#45;&gt;Node1</title>
<path fill="none" stroke="#191970" d="M56.7946,-104.2112C64.3996,-94.7472 73.4538,-83.4797 79.7514,-75.6427"/>
<polygon fill="#191970" stroke="#191970" points="53.8741,-102.2581 50.3384,-112.2455 59.3306,-106.6428 53.8741,-102.2581"/>
</g>
<!-- Node3 -->
<g id="node4" class="node">
<title>Node3</title>
<polygon fill="none" stroke="#bfbfbf" points="103.5,-112.5 103.5,-131.5 163.5,-131.5 163.5,-112.5 103.5,-112.5"/>
<text text-anchor="middle" x="133.5" y="-119.5" font-family="Helvetica,sans-Serif" font-size="10.00" fill="#000000">Cloneable</text>
</g>
<!-- Node3&#45;&gt;Node1 -->
<g id="edge3" class="edge">
<title>Node3&#45;&gt;Node1</title>
<path fill="none" stroke="#191970" d="M119.1253,-104.5004C111.3029,-94.9775 101.924,-83.5596 95.4208,-75.6427"/>
<polygon fill="#191970" stroke="#191970" points="116.4354,-106.7399 125.4874,-112.2455 121.8445,-102.2967 116.4354,-106.7399"/>
</g>
<!-- Node4 -->
<g id="node5" class="node">
<title>Node4</title>
<polygon fill="none" stroke="#bfbfbf" points="170,-56.5 170,-75.5 237,-75.5 237,-56.5 170,-56.5"/>
<text text-anchor="middle" x="203.5" y="-63.5" font-family="Helvetica,sans-Serif" font-size="10.00" fill="#000000">Serializable</text>
</g>
<!-- Node4&#45;&gt;Node0 -->
<g id="edge4" class="edge">
<title>Node4&#45;&gt;Node0</title>
<path fill="none" stroke="#191970" d="M185.9707,-49.0751C175.9917,-39.4402 163.8524,-27.7196 155.4871,-19.6427"/>
<polygon fill="#191970" stroke="#191970" points="183.772,-51.8175 193.3972,-56.2455 188.6342,-46.7817 183.772,-51.8175"/>
</g>
</g>
</svg>
