<?xml version="1.0" encoding="UTF-8" standalone="no"?>
<!DOCTYPE svg PUBLIC "-//W3C//DTD SVG 1.1//EN"
 "http://www.w3.org/Graphics/SVG/1.1/DTD/svg11.dtd">
<!-- Generated by graphviz version 2.40.1 (20161225.0304)
 -->
<!-- Title: San13CMCCV Pages: 1 -->
<svg width="487pt" height="240pt"
 viewBox="0.00 0.00 487.00 240.00" xmlns="http://www.w3.org/2000/svg" xmlns:xlink="http://www.w3.org/1999/xlink">
<g id="graph0" class="graph" transform="scale(1 1) rotate(0) translate(4 236)">
<title>San13CMCCV</title>
<!-- Node3 -->
<g id="node1" class="node">
<title>Node3</title>
<polygon fill="#bfbfbf" stroke="#000000" points="279.5,-.5 279.5,-19.5 360.5,-19.5 360.5,-.5 279.5,-.5"/>
<text text-anchor="middle" x="320" y="-7.5" font-family="Helvetica,sans-Serif" font-size="10.00" fill="#000000">San13CMCCV</text>
</g>
<!-- Node4 -->
<g id="node2" class="node">
<title>Node4</title>
<g id="a_node2"><a xlink:href="classift6561examples_1_1San13Prob.html" target="_top" xlink:title="This class simulates a specific stochastic activity network with 9 nodes and 13 links, taken from Elmaghraby (1977) and used again in L&#39;Ecuyer and Lemieux (2000), &quot;Variance Reduction via Lattice Rules&quot;. ">
<polygon fill="none" stroke="#000000" points="167.5,-78.5 167.5,-97.5 232.5,-97.5 232.5,-78.5 167.5,-78.5"/>
<text text-anchor="middle" x="200" y="-85.5" font-family="Helvetica,sans-Serif" font-size="10.00" fill="#000000">San13Prob</text>
</a>
</g>
</g>
<!-- Node4&#45;&gt;Node3 -->
<g id="edge1" class="edge">
<title>Node4&#45;&gt;Node3</title>
<path fill="none" stroke="#191970" d="M223.299,-72.8557C247.5134,-57.1163 284.6775,-32.9596 305.1653,-19.6426"/>
<polygon fill="#191970" stroke="#191970" points="221.1913,-70.0512 214.7144,-78.4357 225.0063,-75.9203 221.1913,-70.0512"/>
</g>
<!-- Node5 -->
<g id="node3" class="node">
<title>Node5</title>
<g id="a_node3"><a xlink:href="interfaceumontreal_1_1ssj_1_1mcqmctools_1_1MonteCarloModelDouble.html" target="_top" xlink:title="An interface for a very simple simulation model for which Monte Carlo (MC) and RQMC experiments are t...">
<polygon fill="none" stroke="#000000" points="0,-145.5 0,-164.5 124,-164.5 124,-145.5 0,-145.5"/>
<text text-anchor="middle" x="62" y="-152.5" font-family="Helvetica,sans-Serif" font-size="10.00" fill="#000000">MonteCarloModelDouble</text>
</a>
</g>
</g>
<!-- Node5&#45;&gt;Node4 -->
<g id="edge2" class="edge">
<title>Node5&#45;&gt;Node4</title>
<path fill="none" stroke="#191970" d="M91.0391,-140.9013C117.8406,-127.889 156.9166,-108.9173 180.2646,-97.5817"/>
<polygon fill="#191970" stroke="#191970" points="89.2392,-137.8844 81.772,-145.4005 92.2965,-144.1815 89.2392,-137.8844"/>
</g>
<!-- Node6 -->
<g id="node4" class="node">
<title>Node6</title>
<g id="a_node4"><a xlink:href="classumontreal_1_1ssj_1_1probdist_1_1ContinuousDistribution.html" target="_top" xlink:title="Classes implementing continuous distributions should inherit from this base class. ">
<polygon fill="none" stroke="#000000" points="142,-145.5 142,-164.5 258,-164.5 258,-145.5 142,-145.5"/>
<text text-anchor="middle" x="200" y="-152.5" font-family="Helvetica,sans-Serif" font-size="10.00" fill="#000000">ContinuousDistribution</text>
</a>
</g>
</g>
<!-- Node6&#45;&gt;Node4 -->
<g id="edge3" class="edge">
<title>Node6&#45;&gt;Node4</title>
<path fill="none" stroke="#9a32cd" stroke-dasharray="5,2" d="M200,-135.1079C200,-122.714 200,-107.3263 200,-97.5817"/>
<polygon fill="#9a32cd" stroke="#9a32cd" points="196.5001,-135.4005 200,-145.4005 203.5001,-135.4006 196.5001,-135.4005"/>
<text text-anchor="middle" x="209.5" y="-119" font-family="Helvetica,sans-Serif" font-size="10.00" fill="#000000"> dist</text>
</g>
<!-- Node7 -->
<g id="node5" class="node">
<title>Node7</title>
<g id="a_node5"><a xlink:href="interfaceumontreal_1_1ssj_1_1probdist_1_1Distribution.html" target="_top" xlink:title="This interface should be implemented by all classes supporting discrete and continuous distributions...">
<polygon fill="none" stroke="#000000" points="162,-212.5 162,-231.5 228,-231.5 228,-212.5 162,-212.5"/>
<text text-anchor="middle" x="195" y="-219.5" font-family="Helvetica,sans-Serif" font-size="10.00" fill="#000000">Distribution</text>
</a>
</g>
</g>
<!-- Node7&#45;&gt;Node6 -->
<g id="edge4" class="edge">
<title>Node7&#45;&gt;Node6</title>
<path fill="none" stroke="#191970" d="M196.4845,-202.1079C197.4094,-189.714 198.5577,-174.3263 199.285,-164.5817"/>
<polygon fill="#191970" stroke="#191970" points="192.9704,-202.1678 195.7164,-212.4005 199.951,-202.6888 192.9704,-202.1678"/>
</g>
<!-- Node8 -->
<g id="node6" class="node">
<title>Node8</title>
<g id="a_node6"><a xlink:href="classumontreal_1_1ssj_1_1stat_1_1TallyStore.html" target="_top" xlink:title="This class is a variant of Tally for which the individual observations are stored in a list implement...">
<polygon fill="none" stroke="#000000" points="290,-78.5 290,-97.5 350,-97.5 350,-78.5 290,-78.5"/>
<text text-anchor="middle" x="320" y="-85.5" font-family="Helvetica,sans-Serif" font-size="10.00" fill="#000000">TallyStore</text>
</a>
</g>
</g>
<!-- Node8&#45;&gt;Node3 -->
<g id="edge5" class="edge">
<title>Node8&#45;&gt;Node3</title>
<path fill="none" stroke="#9a32cd" stroke-dasharray="5,2" d="M320,-68.2866C320,-52.7395 320,-31.7276 320,-19.6426"/>
<polygon fill="#9a32cd" stroke="#9a32cd" points="316.5001,-68.4356 320,-78.4357 323.5001,-68.4357 316.5001,-68.4356"/>
<text text-anchor="middle" x="343" y="-52" font-family="Helvetica,sans-Serif" font-size="10.00" fill="#000000"> statsProb</text>
<text text-anchor="middle" x="343" y="-41" font-family="Helvetica,sans-Serif" font-size="10.00" fill="#000000">statsCV</text>
</g>
<!-- Node9 -->
<g id="node7" class="node">
<title>Node9</title>
<g id="a_node7"><a xlink:href="classumontreal_1_1ssj_1_1stat_1_1Tally.html" target="_top" xlink:title="A subclass of StatProbe. ">
<polygon fill="none" stroke="#000000" points="325.5,-145.5 325.5,-164.5 362.5,-164.5 362.5,-145.5 325.5,-145.5"/>
<text text-anchor="middle" x="344" y="-152.5" font-family="Helvetica,sans-Serif" font-size="10.00" fill="#000000">Tally</text>
</a>
</g>
</g>
<!-- Node9&#45;&gt;Node8 -->
<g id="edge6" class="edge">
<title>Node9&#45;&gt;Node8</title>
<path fill="none" stroke="#191970" d="M337.1449,-135.8628C332.6607,-123.3444 326.9941,-107.5252 323.4322,-97.5817"/>
<polygon fill="#191970" stroke="#191970" points="333.8941,-137.1666 340.5614,-145.4005 340.484,-134.806 333.8941,-137.1666"/>
</g>
<!-- Node10 -->
<g id="node8" class="node">
<title>Node10</title>
<g id="a_node8"><a xlink:href="classumontreal_1_1ssj_1_1stat_1_1StatProbe.html" target="_top" xlink:title="The objects of this class are statistical probes or collectors, which are elementary devices for coll...">
<polygon fill="none" stroke="#000000" points="246,-212.5 246,-231.5 306,-231.5 306,-212.5 246,-212.5"/>
<text text-anchor="middle" x="276" y="-219.5" font-family="Helvetica,sans-Serif" font-size="10.00" fill="#000000">StatProbe</text>
</a>
</g>
</g>
<!-- Node10&#45;&gt;Node9 -->
<g id="edge7" class="edge">
<title>Node10&#45;&gt;Node9</title>
<path fill="none" stroke="#191970" d="M293.174,-205.0785C306.1799,-192.2639 323.5779,-175.1218 334.2753,-164.5817"/>
<polygon fill="#191970" stroke="#191970" points="290.4095,-202.8889 285.7427,-212.4005 295.3225,-207.8752 290.4095,-202.8889"/>
</g>
<!-- Node11 -->
<g id="node9" class="node">
<title>Node11</title>
<polygon fill="none" stroke="#bfbfbf" points="324,-212.5 324,-231.5 384,-231.5 384,-212.5 324,-212.5"/>
<text text-anchor="middle" x="354" y="-219.5" font-family="Helvetica,sans-Serif" font-size="10.00" fill="#000000">Cloneable</text>
</g>
<!-- Node11&#45;&gt;Node9 -->
<g id="edge8" class="edge">
<title>Node11&#45;&gt;Node9</title>
<path fill="none" stroke="#191970" d="M351.0875,-202.4863C349.2282,-190.0286 346.8994,-174.4258 345.4301,-164.5817"/>
<polygon fill="#191970" stroke="#191970" points="347.6293,-203.0268 352.5672,-212.4005 354.5526,-201.9934 347.6293,-203.0268"/>
</g>
<!-- Node12 -->
<g id="node10" class="node">
<title>Node12</title>
<polygon fill="none" stroke="#bfbfbf" points="402.5,-212.5 402.5,-231.5 473.5,-231.5 473.5,-212.5 402.5,-212.5"/>
<text text-anchor="middle" x="438" y="-219.5" font-family="Helvetica,sans-Serif" font-size="10.00" fill="#000000">Tally.CIType</text>
</g>
<!-- Node12&#45;&gt;Node9 -->
<g id="edge9" class="edge">
<title>Node12&#45;&gt;Node9</title>
<path fill="none" stroke="#9a32cd" stroke-dasharray="5,2" d="M416.268,-206.5102C398.109,-193.567 372.7886,-175.5195 357.4429,-164.5817"/>
<polygon fill="#9a32cd" stroke="#9a32cd" points="414.3574,-209.4464 424.5321,-212.4005 418.4204,-203.7462 414.3574,-209.4464"/>
<text text-anchor="middle" x="437.5" y="-186" font-family="Helvetica,sans-Serif" font-size="10.00" fill="#000000"> confidenceInterval</text>
</g>
<!-- Node13 -->
<g id="node11" class="node">
<title>Node13</title>
<polygon fill="none" stroke="#bfbfbf" points="368,-78.5 368,-97.5 418,-97.5 418,-78.5 368,-78.5"/>
<text text-anchor="middle" x="393" y="-85.5" font-family="Helvetica,sans-Serif" font-size="10.00" fill="#000000">Algebra</text>
</g>
<!-- Node13&#45;&gt;Node3 -->
<g id="edge10" class="edge">
<title>Node13&#45;&gt;Node3</title>
<path fill="none" stroke="#9a32cd" stroke-dasharray="5,2" d="M387.3017,-68.5763C383.6138,-58.5524 377.9873,-46.6477 370,-38 362.8445,-30.253 353.0423,-24.1209 344.012,-19.5947"/>
<polygon fill="#9a32cd" stroke="#9a32cd" points="383.9972,-69.7314 390.461,-78.126 390.643,-67.5327 383.9972,-69.7314"/>
<text text-anchor="middle" x="391" y="-46.5" font-family="Helvetica,sans-Serif" font-size="10.00" fill="#000000"> alg</text>
</g>
</g>
</svg>
