<?xml version="1.0" encoding="UTF-8" standalone="no"?>
<!DOCTYPE svg PUBLIC "-//W3C//DTD SVG 1.1//EN"
 "http://www.w3.org/Graphics/SVG/1.1/DTD/svg11.dtd">
<!-- Generated by graphviz version 2.40.1 (20161225.0304)
 -->
<!-- Title: AnovaVarianceEstimator Pages: 1 -->
<!--zoomable 199 -->
<svg id="main" version="1.1" xmlns="http://www.w3.org/2000/svg" xmlns:xlink="http://www.w3.org/1999/xlink" xml:space="preserve" onload="init(evt)">
<style type="text/css"><![CDATA[
.edge:hover path { stroke: red; }
.edge:hover polygon { stroke: red; fill: red; }
]]></style>
<script type="text/javascript"><![CDATA[
var edges = document.getElementsByTagName('g');
if (edges && edges.length) {
  for (var i=0;i<edges.length;i++) {
    if (edges[i].id.substr(0,4)=='edge') {
      edges[i].setAttribute('class','edge');
    }
  }
}
]]></script>
        <defs>
                <circle id="rim" cx="0" cy="0" r="7"/>
                <circle id="rim2" cx="0" cy="0" r="3.5"/>
                <g id="zoomPlus">
                        <use xlink:href="#rim" fill="#404040">
                                <set attributeName="fill" to="#808080" begin="zoomplus.mouseover" end="zoomplus.mouseout"/>
                        </use>
                        <path d="M-4,0h8M0,-4v8" fill="none" stroke="white" stroke-width="1.5" pointer-events="none"/>
                </g>
                <g id="zoomMin">
                        <use xlink:href="#rim" fill="#404040">
                                <set attributeName="fill" to="#808080" begin="zoomminus.mouseover" end="zoomminus.mouseout"/>
                        </use>
                        <path d="M-4,0h8" fill="none" stroke="white" stroke-width="1.5" pointer-events="none"/>
                </g>
                <g id="dirArrow">
                        <path fill="none" stroke="white" stroke-width="1.5" d="M0,-3.0v7 M-2.5,-0.5L0,-3.0L2.5,-0.5"/>
                </g>
               <g id="resetDef">
                       <use xlink:href="#rim2" fill="#404040">
                               <set attributeName="fill" to="#808080" begin="reset.mouseover" end="reset.mouseout"/>
                       </use>
               </g>
        </defs>

<script type="text/javascript">
var viewWidth = 638;
var viewHeight = 199;
var sectionId = 'dynsection-1';
</script>
<script xlink:href="svgpan.js"/>
<svg id="graph" class="graph">
<g id="viewport">
<title>AnovaVarianceEstimator</title>
<!-- Node2 -->
<g id="node1" class="node">
<title>Node2</title>
<polygon fill="#bfbfbf" stroke="#000000" points="506,-99.5 506,-118.5 630,-118.5 630,-99.5 506,-99.5"/>
<text text-anchor="middle" x="568" y="-106.5" font-family="Helvetica,sans-Serif" font-size="10.00" fill="#000000">AnovaVarianceEstimator</text>
</g>
<!-- Node3 -->
<g id="node2" class="node">
<title>Node3</title>
<g id="a_node2"><a xlink:href="interfaceumontreal_1_1ssj_1_1mcqmctools_1_1MonteCarloModel.html" target="_top" xlink:title="An interface for a simple simulation model with which Monte Carlo (MC) and RQMC experiments are to be...">
<polygon fill="none" stroke="#000000" points="22.5,-171.5 22.5,-190.5 165.5,-190.5 165.5,-171.5 22.5,-171.5"/>
<text text-anchor="middle" x="94" y="-178.5" font-family="Helvetica,sans-Serif" font-size="10.00" fill="#000000">MonteCarloModel&lt; double[]&gt;</text>
</a>
</g>
</g>
<!-- Node3&#45;&gt;Node2 -->
<g id="edge1" class="edge">
<title>Node3&#45;&gt;Node2</title>
<path fill="none" stroke="#191970" d="M175.9761,-178.8143C205.4005,-177.3711 238.7718,-174.9757 269,-171 364.3988,-158.453 474.8201,-132.5324 531.0094,-118.5084"/>
<polygon fill="#191970" stroke="#191970" points="175.5727,-175.3291 165.7445,-179.2861 175.8952,-182.3217 175.5727,-175.3291"/>
</g>
<!-- Node6 -->
<g id="node5" class="node">
<title>Node6</title>
<g id="a_node5"><a xlink:href="classumontreal_1_1ssj_1_1mcqmctools_1_1anova_1_1PartialVarianceEstimator.html" target="_top" xlink:title="Partial variance estimator. ">
<polygon fill="none" stroke="#000000" points="287,-99.5 287,-118.5 411,-118.5 411,-99.5 287,-99.5"/>
<text text-anchor="middle" x="349" y="-106.5" font-family="Helvetica,sans-Serif" font-size="10.00" fill="#000000">PartialVarianceEstimator</text>
</a>
</g>
</g>
<!-- Node3&#45;&gt;Node6 -->
<g id="edge5" class="edge">
<title>Node3&#45;&gt;Node6</title>
<path fill="none" stroke="#191970" d="M175.7724,-170.9543C205.5831,-166.0175 239.2579,-158.9307 269,-149 292.419,-141.1806 317.6078,-127.6441 333.3339,-118.5085"/>
<polygon fill="#191970" stroke="#191970" points="175.1432,-167.5104 165.8222,-172.5471 176.2497,-174.4224 175.1432,-167.5104"/>
</g>
<!-- Node4 -->
<g id="node3" class="node">
<title>Node4</title>
<g id="a_node3"><a xlink:href="interfaceumontreal_1_1ssj_1_1mcqmctools_1_1anova_1_1RandomIntegrator.html" target="_top" xlink:title="RandomIntegrator">
<polygon fill="none" stroke="#000000" points="301.5,-39.5 301.5,-58.5 396.5,-58.5 396.5,-39.5 301.5,-39.5"/>
<text text-anchor="middle" x="349" y="-46.5" font-family="Helvetica,sans-Serif" font-size="10.00" fill="#000000">RandomIntegrator</text>
</a>
</g>
</g>
<!-- Node4&#45;&gt;Node2 -->
<g id="edge2" class="edge">
<title>Node4&#45;&gt;Node2</title>
<path fill="none" stroke="#9a32cd" stroke-dasharray="5,2" d="M393.4848,-61.1876C434.7227,-72.4857 495.2471,-89.0677 533.0993,-99.4382"/>
<polygon fill="#9a32cd" stroke="#9a32cd" points="394.2706,-57.774 383.7012,-58.5072 392.4209,-64.5252 394.2706,-57.774"/>
<text text-anchor="middle" x="458.5" y="-89" font-family="Helvetica,sans-Serif" font-size="10.00" fill="#000000"> integrator</text>
</g>
<!-- Node5 -->
<g id="node4" class="node">
<title>Node5</title>
<g id="a_node4"><a xlink:href="interfaceumontreal_1_1ssj_1_1mcqmctools_1_1anova_1_1Integrator.html" target="_top" xlink:title="Integrator">
<polygon fill="none" stroke="#000000" points="65,-.5 65,-19.5 123,-19.5 123,-.5 65,-.5"/>
<text text-anchor="middle" x="94" y="-7.5" font-family="Helvetica,sans-Serif" font-size="10.00" fill="#000000">Integrator</text>
</a>
</g>
</g>
<!-- Node5&#45;&gt;Node4 -->
<g id="edge3" class="edge">
<title>Node5&#45;&gt;Node4</title>
<path fill="none" stroke="#191970" d="M133.0261,-11.458C168.6841,-13.2881 222.7418,-17.3163 269,-26 286.4702,-29.2795 305.6206,-34.7172 320.8037,-39.4821"/>
<polygon fill="#191970" stroke="#191970" points="133.1859,-7.9617 123.0295,-10.9779 132.85,-14.9536 133.1859,-7.9617"/>
</g>
<!-- Node6&#45;&gt;Node2 -->
<g id="edge4" class="edge">
<title>Node6&#45;&gt;Node2</title>
<path fill="none" stroke="#9a32cd" stroke-dasharray="5,2" d="M421.4304,-109C448.6866,-109 479.4172,-109 505.6737,-109"/>
<polygon fill="#9a32cd" stroke="#9a32cd" points="421.1708,-105.5001 411.1708,-109 421.1708,-112.5001 421.1708,-105.5001"/>
<text text-anchor="middle" x="458.5" y="-112" font-family="Helvetica,sans-Serif" font-size="10.00" fill="#000000"> varEstimator</text>
</g>
<!-- Node7 -->
<g id="node6" class="node">
<title>Node7</title>
<g id="a_node6"><a xlink:href="classumontreal_1_1ssj_1_1mcqmctools_1_1anova_1_1CoordinateSet.html" target="_top" xlink:title="Represents a set of coordinates. ">
<polygon fill="none" stroke="#000000" points="54.5,-126.5 54.5,-145.5 133.5,-145.5 133.5,-126.5 54.5,-126.5"/>
<text text-anchor="middle" x="94" y="-133.5" font-family="Helvetica,sans-Serif" font-size="10.00" fill="#000000">CoordinateSet</text>
</a>
</g>
</g>
<!-- Node7&#45;&gt;Node6 -->
<g id="edge6" class="edge">
<title>Node7&#45;&gt;Node6</title>
<path fill="none" stroke="#9a32cd" stroke-dasharray="5,2" d="M143.5842,-130.7499C184.5478,-126.4126 242.9144,-120.2326 286.9696,-115.5679"/>
<polygon fill="#9a32cd" stroke="#9a32cd" points="143.1398,-127.2773 133.564,-131.8109 143.8769,-134.2384 143.1398,-127.2773"/>
<text text-anchor="middle" x="237.5" y="-138" font-family="Helvetica,sans-Serif" font-size="10.00" fill="#000000"> noCoordinate</text>
<text text-anchor="middle" x="237.5" y="-127" font-family="Helvetica,sans-Serif" font-size="10.00" fill="#000000">allCoordinates</text>
</g>
<!-- Node8 -->
<g id="node7" class="node">
<title>Node8</title>
<polygon fill="none" stroke="#bfbfbf" points="0,-77 0,-107 188,-107 188,-77 0,-77"/>
<text text-anchor="start" x="8" y="-95" font-family="Helvetica,sans-Serif" font-size="10.00" fill="#000000">List&lt; umontreal.ssj.mcqmctools.anova.</text>
<text text-anchor="middle" x="94" y="-84" font-family="Helvetica,sans-Serif" font-size="10.00" fill="#000000">CoordinateSet &gt;</text>
</g>
<!-- Node8&#45;&gt;Node6 -->
<g id="edge7" class="edge">
<title>Node8&#45;&gt;Node6</title>
<path fill="none" stroke="#9a32cd" stroke-dasharray="5,2" d="M198.4189,-89.3239C221.6961,-89.6378 246.2249,-90.6791 269,-93 282.1046,-94.3354 296.2457,-96.8122 308.9409,-99.4247"/>
<polygon fill="#9a32cd" stroke="#9a32cd" points="198.2086,-85.822 188.1771,-89.2306 198.1448,-92.8217 198.2086,-85.822"/>
<text text-anchor="middle" x="237.5" y="-96" font-family="Helvetica,sans-Serif" font-size="10.00" fill="#000000"> coordSets</text>
</g>
<!-- Node9 -->
<g id="node8" class="node">
<title>Node9</title>
<g id="a_node8"><a xlink:href="interfaceumontreal_1_1ssj_1_1mcqmctools_1_1MonteCarloModelDouble.html" target="_top" xlink:title="An interface for a simulation model for which Monte Carlo (MC) and RQMC experiments are to be perform...">
<polygon fill="none" stroke="#000000" points="32,-38.5 32,-57.5 156,-57.5 156,-38.5 32,-38.5"/>
<text text-anchor="middle" x="94" y="-45.5" font-family="Helvetica,sans-Serif" font-size="10.00" fill="#000000">MonteCarloModelDouble</text>
</a>
</g>
</g>
<!-- Node9&#45;&gt;Node6 -->
<g id="edge8" class="edge">
<title>Node9&#45;&gt;Node6</title>
<path fill="none" stroke="#9a32cd" stroke-dasharray="5,2" d="M166.5311,-54.4136C198.3826,-58.3419 235.9703,-64.5039 269,-74 291.0003,-80.3251 314.8804,-91.3656 330.7684,-99.3582"/>
<polygon fill="#9a32cd" stroke="#9a32cd" points="166.7464,-50.9148 156.4043,-53.2153 165.9237,-57.8663 166.7464,-50.9148"/>
<text text-anchor="middle" x="237.5" y="-77" font-family="Helvetica,sans-Serif" font-size="10.00" fill="#000000"> model</text>
</g>
</g>
</svg>
        <g id="navigator" transform="translate(0 0)" fill="#404254">
                <rect fill="#f2f5e9" fill-opacity="0.5" stroke="#606060" stroke-width=".5" x="0" y="0" width="60" height="60"/>
                <use id="zoomplus" xlink:href="#zoomPlus" x="17" y="9" onmousedown="handleZoom(evt,'in')"/>
                <use id="zoomminus" xlink:href="#zoomMin" x="42" y="9" onmousedown="handleZoom(evt,'out')"/>
                <use id="reset" xlink:href="#resetDef" x="30" y="36" onmousedown="handleReset()"/>
                <g id="arrowUp" xlink:href="#dirArrow" transform="translate(30 24)" onmousedown="handlePan(0,-1)">
                  <use xlink:href="#rim" fill="#404040">
                        <set attributeName="fill" to="#808080" begin="arrowUp.mouseover" end="arrowUp.mouseout"/>
                  </use>
                  <path fill="none" stroke="white" stroke-width="1.5" d="M0,-3.0v7 M-2.5,-0.5L0,-3.0L2.5,-0.5"/>
                </g>
                <g id="arrowRight" xlink:href="#dirArrow" transform="rotate(90) translate(36 -43)" onmousedown="handlePan(1,0)">
                  <use xlink:href="#rim" fill="#404040">
                        <set attributeName="fill" to="#808080" begin="arrowRight.mouseover" end="arrowRight.mouseout"/>
                  </use>
                  <path fill="none" stroke="white" stroke-width="1.5" d="M0,-3.0v7 M-2.5,-0.5L0,-3.0L2.5,-0.5"/>
                </g>
                <g id="arrowDown" xlink:href="#dirArrow" transform="rotate(180) translate(-30 -48)" onmousedown="handlePan(0,1)">
                  <use xlink:href="#rim" fill="#404040">
                        <set attributeName="fill" to="#808080" begin="arrowDown.mouseover" end="arrowDown.mouseout"/>
                  </use>
                  <path fill="none" stroke="white" stroke-width="1.5" d="M0,-3.0v7 M-2.5,-0.5L0,-3.0L2.5,-0.5"/>
                </g>
                <g id="arrowLeft" xlink:href="#dirArrow" transform="rotate(270) translate(-36 17)" onmousedown="handlePan(-1,0)">
                  <use xlink:href="#rim" fill="#404040">
                        <set attributeName="fill" to="#808080" begin="arrowLeft.mouseover" end="arrowLeft.mouseout"/>
                  </use>
                  <path fill="none" stroke="white" stroke-width="1.5" d="M0,-3.0v7 M-2.5,-0.5L0,-3.0L2.5,-0.5"/>
                </g>
        </g>
        <svg viewBox="0 0 15 15" width="100%" height="30px" preserveAspectRatio="xMaxYMin meet">
         <g id="arrow_out" transform="scale(0.3 0.3)">
          <a xlink:href="classumontreal_1_1ssj_1_1mcqmctools_1_1anova_1_1AnovaVarianceEstimator__coll__graph_org.svg" target="_base">
           <rect id="button" ry="5" rx="5" y="6" x="6" height="38" width="38"
                fill="#f2f5e9" fill-opacity="0.5" stroke="#606060" stroke-width="1.0"/>
           <path id="arrow"
             d="M 11.500037,31.436501 C 11.940474,20.09759 22.043105,11.32322 32.158766,21.979434 L 37.068811,17.246167 C 37.068811,17.246167 37.088388,32 37.088388,32 L 22.160133,31.978069 C 22.160133,31.978069 26.997745,27.140456 26.997745,27.140456 C 18.528582,18.264221 13.291696,25.230495 11.500037,31.436501 z"
             style="fill:#404040;"/>
          </a>
         </g>
        </svg>
</svg>
