<?xml version="1.0" encoding="UTF-8" standalone="no"?>
<!DOCTYPE svg PUBLIC "-//W3C//DTD SVG 1.1//EN"
 "http://www.w3.org/Graphics/SVG/1.1/DTD/svg11.dtd">
<!-- Generated by graphviz version 2.38.0 (20140413.2041)
 -->
<!-- Title: BetaSymmetricalGen Pages: 1 -->
<svg width="288pt" height="196pt"
 viewBox="0.00 0.00 288.00 196.00" xmlns="http://www.w3.org/2000/svg" xmlns:xlink="http://www.w3.org/1999/xlink">
<g id="graph0" class="graph" transform="scale(1 1) rotate(0) translate(4 192)">
<title>BetaSymmetricalGen</title>
<!-- Node0 -->
<g id="node1" class="node"><title>Node0</title>
<polygon fill="#bfbfbf" stroke="black" points="84,-56.5 84,-75.5 194,-75.5 194,-56.5 84,-56.5"/>
<text text-anchor="middle" x="139" y="-63.5" font-family="Helvetica,sans-Serif" font-size="10.00">BetaSymmetricalGen</text>
</g>
<!-- Node3 -->
<g id="node4" class="node"><title>Node3</title>
<g id="a_node4"><a xlink:href="classumontreal_1_1ssj_1_1randvar_1_1BetaSymmetricalBestGen.html" target="_top" xlink:title="This class implements symmetrical beta random variate generators using Devroye’s one&#45;liner method...">
<polygon fill="none" stroke="black" points="0,-0.5 0,-19.5 130,-19.5 130,-0.5 0,-0.5"/>
<text text-anchor="middle" x="65" y="-7.5" font-family="Helvetica,sans-Serif" font-size="10.00">BetaSymmetricalBestGen</text>
</a>
</g>
</g>
<!-- Node0&#45;&gt;Node3 -->
<g id="edge3" class="edge"><title>Node0&#45;&gt;Node3</title>
<path fill="none" stroke="midnightblue" d="M118.966,-50.3804C105.591,-40.6204 88.4412,-28.1057 77.1057,-19.8339"/>
<polygon fill="midnightblue" stroke="midnightblue" points="116.97,-53.2565 127.111,-56.324 121.096,-47.602 116.97,-53.2565"/>
</g>
<!-- Node4 -->
<g id="node5" class="node"><title>Node4</title>
<g id="a_node5"><a xlink:href="classumontreal_1_1ssj_1_1randvar_1_1BetaSymmetricalPolarGen.html" target="_top" xlink:title="This class implements symmetrical beta random variate generators using Ulrich’s polar method  ...">
<polygon fill="none" stroke="black" points="148,-0.5 148,-19.5 280,-19.5 280,-0.5 148,-0.5"/>
<text text-anchor="middle" x="214" y="-7.5" font-family="Helvetica,sans-Serif" font-size="10.00">BetaSymmetricalPolarGen</text>
</a>
</g>
</g>
<!-- Node0&#45;&gt;Node4 -->
<g id="edge4" class="edge"><title>Node0&#45;&gt;Node4</title>
<path fill="none" stroke="midnightblue" d="M159.305,-50.3804C172.861,-40.6204 190.242,-28.1057 201.731,-19.8339"/>
<polygon fill="midnightblue" stroke="midnightblue" points="157.12,-47.6405 151.05,-56.324 161.21,-53.3213 157.12,-47.6405"/>
</g>
<!-- Node1 -->
<g id="node2" class="node"><title>Node1</title>
<g id="a_node2"><a xlink:href="classumontreal_1_1ssj_1_1randvar_1_1BetaGen.html" target="_top" xlink:title="This class implements random variate generators with the beta distribution with shape parameters &#160;and...">
<polygon fill="none" stroke="black" points="111.5,-112.5 111.5,-131.5 166.5,-131.5 166.5,-112.5 111.5,-112.5"/>
<text text-anchor="middle" x="139" y="-119.5" font-family="Helvetica,sans-Serif" font-size="10.00">BetaGen</text>
</a>
</g>
</g>
<!-- Node1&#45;&gt;Node0 -->
<g id="edge1" class="edge"><title>Node1&#45;&gt;Node0</title>
<path fill="none" stroke="midnightblue" d="M139,-101.805C139,-92.9102 139,-82.7798 139,-75.7511"/>
<polygon fill="midnightblue" stroke="midnightblue" points="135.5,-102.083 139,-112.083 142.5,-102.083 135.5,-102.083"/>
</g>
<!-- Node2 -->
<g id="node3" class="node"><title>Node2</title>
<g id="a_node3"><a xlink:href="classumontreal_1_1ssj_1_1randvar_1_1RandomVariateGen.html" target="_top" xlink:title="This is the base class for all random variate generators over the real line. ">
<polygon fill="none" stroke="black" points="88,-168.5 88,-187.5 190,-187.5 190,-168.5 88,-168.5"/>
<text text-anchor="middle" x="139" y="-175.5" font-family="Helvetica,sans-Serif" font-size="10.00">RandomVariateGen</text>
</a>
</g>
</g>
<!-- Node2&#45;&gt;Node1 -->
<g id="edge2" class="edge"><title>Node2&#45;&gt;Node1</title>
<path fill="none" stroke="midnightblue" d="M139,-157.805C139,-148.91 139,-138.78 139,-131.751"/>
<polygon fill="midnightblue" stroke="midnightblue" points="135.5,-158.083 139,-168.083 142.5,-158.083 135.5,-158.083"/>
</g>
</g>
</svg>
