<?xml version="1.0" encoding="UTF-8" standalone="no"?>
<!DOCTYPE svg PUBLIC "-//W3C//DTD SVG 1.1//EN"
 "http://www.w3.org/Graphics/SVG/1.1/DTD/svg11.dtd">
<!-- Generated by graphviz version 2.38.0 (20140413.2041)
 -->
<!-- Title: MultiNormalDist Pages: 1 -->
<svg width="319pt" height="106pt"
 viewBox="0.00 0.00 318.50 106.00" xmlns="http://www.w3.org/2000/svg" xmlns:xlink="http://www.w3.org/1999/xlink">
<g id="graph0" class="graph" transform="scale(1 1) rotate(0) translate(4 102)">
<title>MultiNormalDist</title>
<!-- Node2 -->
<g id="node1" class="node"><title>Node2</title>
<polygon fill="#bfbfbf" stroke="black" points="155,-0.5 155,-19.5 242,-19.5 242,-0.5 155,-0.5"/>
<text text-anchor="middle" x="198.5" y="-7.5" font-family="Helvetica,sans-Serif" font-size="10.00">MultiNormalDist</text>
</g>
<!-- Node3 -->
<g id="node2" class="node"><title>Node3</title>
<g id="a_node2"><a xlink:href="classumontreal_1_1ssj_1_1probdistmulti_1_1ContinuousDistributionMulti.html" target="_top" xlink:title="Classes implementing continuous multi&#45;dimensional distributions should inherit from this class...">
<polygon fill="none" stroke="black" points="0,-78.5 0,-97.5 137,-97.5 137,-78.5 0,-78.5"/>
<text text-anchor="middle" x="68.5" y="-85.5" font-family="Helvetica,sans-Serif" font-size="10.00">ContinuousDistributionMulti</text>
</a>
</g>
</g>
<!-- Node3&#45;&gt;Node2 -->
<g id="edge1" class="edge"><title>Node3&#45;&gt;Node2</title>
<path fill="none" stroke="midnightblue" d="M91.8521,-73.348C118.497,-57.771 161.271,-32.7645 183.694,-19.6557"/>
<polygon fill="midnightblue" stroke="midnightblue" points="90.0265,-70.361 83.1599,-78.4296 93.5594,-76.4041 90.0265,-70.361"/>
</g>
<!-- Node4 -->
<g id="node3" class="node"><title>Node4</title>
<polygon fill="none" stroke="#bfbfbf" points="155,-78.5 155,-97.5 242,-97.5 242,-78.5 155,-78.5"/>
<text text-anchor="middle" x="198.5" y="-85.5" font-family="Helvetica,sans-Serif" font-size="10.00">DoubleMatrix2D</text>
</g>
<!-- Node4&#45;&gt;Node2 -->
<g id="edge2" class="edge"><title>Node4&#45;&gt;Node2</title>
<path fill="none" stroke="#9a32cd" stroke-dasharray="5,2" d="M198.5,-68.2239C198.5,-52.6974 198.5,-31.3582 198.5,-19.6165"/>
<polygon fill="#9a32cd" stroke="#9a32cd" points="195,-68.2818 198.5,-78.2818 202,-68.2819 195,-68.2818"/>
<text text-anchor="middle" x="220.5" y="-52" font-family="Helvetica,sans-Serif" font-size="10.00"> invSigma</text>
<text text-anchor="middle" x="220.5" y="-41" font-family="Helvetica,sans-Serif" font-size="10.00">sigma</text>
</g>
<!-- Node5 -->
<g id="node4" class="node"><title>Node5</title>
<polygon fill="none" stroke="#bfbfbf" points="260.5,-78.5 260.5,-97.5 310.5,-97.5 310.5,-78.5 260.5,-78.5"/>
<text text-anchor="middle" x="285.5" y="-85.5" font-family="Helvetica,sans-Serif" font-size="10.00">Algebra</text>
</g>
<!-- Node5&#45;&gt;Node2 -->
<g id="edge3" class="edge"><title>Node5&#45;&gt;Node2</title>
<path fill="none" stroke="#9a32cd" stroke-dasharray="5,2" d="M274.303,-69.7708C267.173,-59.6872 257.273,-47.1756 246.5,-38 237.911,-30.6847 227.041,-24.3767 217.819,-19.7016"/>
<polygon fill="#9a32cd" stroke="#9a32cd" points="271.503,-71.8779 280.017,-78.1833 277.293,-67.9446 271.503,-71.8779"/>
<text text-anchor="middle" x="284" y="-46.5" font-family="Helvetica,sans-Serif" font-size="10.00"> algebra</text>
</g>
</g>
</svg>
