<?xml version="1.0" encoding="UTF-8" standalone="no"?>
<!DOCTYPE svg PUBLIC "-//W3C//DTD SVG 1.1//EN"
 "http://www.w3.org/Graphics/SVG/1.1/DTD/svg11.dtd">
<!-- Generated by graphviz version 2.40.1 (0)
 -->
<!-- Title: WeightsComparable&lt; T extends Comparable&lt; T &gt; Pages: 1 -->
<svg width="733pt" height="83pt"
 viewBox="0.00 0.00 733.00 83.00" xmlns="http://www.w3.org/2000/svg" xmlns:xlink="http://www.w3.org/1999/xlink">
<g id="graph0" class="graph" transform="scale(1 1) rotate(0) translate(4 79)">
<title>WeightsComparable&lt; T extends Comparable&lt; T &gt;</title>
<!-- Node2 -->
<g id="node1" class="node">
<title>Node2</title>
<g id="a_node1"><a xlink:title="Implements comparable Weights.">
<polygon fill="#bfbfbf" stroke="#000000" points="582,-13.5 582,-43.5 725,-43.5 725,-13.5 582,-13.5"/>
<text text-anchor="start" x="590" y="-31.5" font-family="Helvetica,sans-Serif" font-size="10.00" fill="#000000">WeightsComparable&lt;</text>
<text text-anchor="middle" x="653.5" y="-20.5" font-family="Helvetica,sans-Serif" font-size="10.00" fill="#000000"> T extends Comparable&lt; T &gt;</text>
</a>
</g>
</g>
<!-- Node3 -->
<g id="node2" class="node">
<title>Node3</title>
<g id="a_node2"><a xlink:href="classumontreal_1_1ssj_1_1latnetbuilder_1_1weights_1_1Weights.html" target="_top" xlink:title="This abstract class implements generic weights that can be used to search for good quasi&#45;Monte Carlo ...">
<polygon fill="none" stroke="#000000" points="361.5,-50 361.5,-69 438.5,-69 438.5,-50 361.5,-50"/>
<text text-anchor="middle" x="400" y="-57" font-family="Helvetica,sans-Serif" font-size="10.00" fill="#000000">Weights&lt; T &gt;</text>
</a>
</g>
</g>
<!-- Node3&#45;&gt;Node2 -->
<g id="edge1" class="edge">
<title>Node3&#45;&gt;Node2</title>
<path fill="none" stroke="#191970" d="M448.7286,-53.5411C486.4855,-48.9239 539.3593,-42.458 581.9211,-37.2532"/>
<polygon fill="#191970" stroke="#191970" points="448.0024,-50.1037 438.5012,-54.7918 448.8521,-57.052 448.0024,-50.1037"/>
</g>
<!-- Node4 -->
<g id="node3" class="node">
<title>Node4</title>
<g id="a_node3"><a xlink:title=" ">
<polygon fill="none" stroke="#bfbfbf" points="0,-44.5 0,-74.5 218,-74.5 218,-44.5 0,-44.5"/>
<text text-anchor="start" x="8" y="-62.5" font-family="Helvetica,sans-Serif" font-size="10.00" fill="#000000">ArrayList&lt; umontreal.ssj.latnetbuilder.weights.</text>
<text text-anchor="middle" x="109" y="-51.5" font-family="Helvetica,sans-Serif" font-size="10.00" fill="#000000">SingletonWeight&lt; T &gt; &gt;</text>
</a>
</g>
</g>
<!-- Node4&#45;&gt;Node3 -->
<g id="edge2" class="edge">
<title>Node4&#45;&gt;Node3</title>
<path fill="none" stroke="#9a32cd" stroke-dasharray="5,2" d="M228.284,-59.5C275.9197,-59.5 327.4325,-59.5 361.4795,-59.5"/>
<polygon fill="#9a32cd" stroke="#9a32cd" points="228.1856,-56.0001 218.1856,-59.5 228.1855,-63.0001 228.1856,-56.0001"/>
<text text-anchor="middle" x="254.5" y="-62.5" font-family="Helvetica,sans-Serif" font-size="10.00" fill="#000000"> weights</text>
</g>
<!-- Node5 -->
<g id="node4" class="node">
<title>Node5</title>
<g id="a_node4"><a xlink:title=" ">
<polygon fill="none" stroke="#bfbfbf" points="291,-.5 291,-30.5 509,-30.5 509,-.5 291,-.5"/>
<text text-anchor="start" x="299" y="-18.5" font-family="Helvetica,sans-Serif" font-size="10.00" fill="#000000">ArrayList&lt; umontreal.ssj.latnetbuilder.weights.</text>
<text text-anchor="middle" x="400" y="-7.5" font-family="Helvetica,sans-Serif" font-size="10.00" fill="#000000">SingletonWeightComparable&lt; T &gt; &gt;</text>
</a>
</g>
</g>
<!-- Node5&#45;&gt;Node2 -->
<g id="edge3" class="edge">
<title>Node5&#45;&gt;Node2</title>
<path fill="none" stroke="#9a32cd" stroke-dasharray="5,2" d="M519.4443,-21.6253C540.7625,-22.7186 562.3572,-23.826 581.8055,-24.8234"/>
<polygon fill="#9a32cd" stroke="#9a32cd" points="519.5123,-18.1243 509.3461,-21.1075 519.1537,-25.1151 519.5123,-18.1243"/>
<text text-anchor="middle" x="545.5" y="-27.5" font-family="Helvetica,sans-Serif" font-size="10.00" fill="#000000"> weights</text>
</g>
</g>
</svg>
