<?xml version="1.0" encoding="UTF-8" standalone="no"?>
<!DOCTYPE svg PUBLIC "-//W3C//DTD SVG 1.1//EN"
 "http://www.w3.org/Graphics/SVG/1.1/DTD/svg11.dtd">
<!-- Generated by graphviz version 2.40.1 (20161225.0304)
 -->
<!-- Title: NewTestAsianRQMC Pages: 1 -->
<svg width="192pt" height="84pt"
 viewBox="0.00 0.00 191.50 84.00" xmlns="http://www.w3.org/2000/svg" xmlns:xlink="http://www.w3.org/1999/xlink">
<g id="graph0" class="graph" transform="scale(1 1) rotate(0) translate(4 80)">
<title>NewTestAsianRQMC</title>
<!-- Node3 -->
<g id="node1" class="node">
<title>Node3</title>
<polygon fill="#bfbfbf" stroke="#000000" points="15,-.5 15,-19.5 126,-19.5 126,-.5 15,-.5"/>
<text text-anchor="middle" x="70.5" y="-7.5" font-family="Helvetica,sans-Serif" font-size="10.00" fill="#000000">NewTestAsianRQMC</text>
</g>
<!-- Node4 -->
<g id="node2" class="node">
<title>Node4</title>
<g id="a_node2"><a xlink:href="classtutorial_1_1Asian.html" target="_top" xlink:title="Asian">
<polygon fill="none" stroke="#000000" points="0,-56.5 0,-75.5 41,-75.5 41,-56.5 0,-56.5"/>
<text text-anchor="middle" x="20.5" y="-63.5" font-family="Helvetica,sans-Serif" font-size="10.00" fill="#000000">Asian</text>
</a>
</g>
</g>
<!-- Node4&#45;&gt;Node3 -->
<g id="edge1" class="edge">
<title>Node4&#45;&gt;Node3</title>
<path fill="none" stroke="#191970" d="M36.1247,-48.5004C44.6273,-38.9775 54.8218,-27.5596 61.8905,-19.6427"/>
<polygon fill="#191970" stroke="#191970" points="33.2587,-46.4551 29.2093,-56.2455 38.4803,-51.1172 33.2587,-46.4551"/>
</g>
<!-- Node5 -->
<g id="node3" class="node">
<title>Node5</title>
<g id="a_node3"><a xlink:href="interfaceumontreal_1_1ssj_1_1mcqmctools_1_1MonteCarloModelDouble.html" target="_top" xlink:title="An interface for a simulation model for which Monte Carlo (MC) and RQMC experiments are to be perform...">
<polygon fill="none" stroke="#000000" points="59.5,-56.5 59.5,-75.5 183.5,-75.5 183.5,-56.5 59.5,-56.5"/>
<text text-anchor="middle" x="121.5" y="-63.5" font-family="Helvetica,sans-Serif" font-size="10.00" fill="#000000">MonteCarloModelDouble</text>
</a>
</g>
</g>
<!-- Node5&#45;&gt;Node3 -->
<g id="edge2" class="edge">
<title>Node5&#45;&gt;Node3</title>
<path fill="none" stroke="#191970" d="M105.8251,-48.7884C97.1006,-39.2085 86.5646,-27.6396 79.2817,-19.6427"/>
<polygon fill="#191970" stroke="#191970" points="103.2954,-51.2088 112.6165,-56.2455 108.4709,-46.4954 103.2954,-51.2088"/>
</g>
</g>
</svg>
