<?xml version="1.0" encoding="UTF-8" standalone="no"?>
<!DOCTYPE svg PUBLIC "-//W3C//DTD SVG 1.1//EN"
 "http://www.w3.org/Graphics/SVG/1.1/DTD/svg11.dtd">
<!-- Generated by graphviz version 2.38.0 (20140413.2041)
 -->
<!-- Title: TestAsianOptionGBM2QMC Pages: 1 -->
<svg width="444pt" height="264pt"
 viewBox="0.00 0.00 444.00 264.00" xmlns="http://www.w3.org/2000/svg" xmlns:xlink="http://www.w3.org/1999/xlink">
<g id="graph0" class="graph" transform="scale(1 1) rotate(0) translate(4 260)">
<title>TestAsianOptionGBM2QMC</title>
<!-- Node1 -->
<g id="node1" class="node"><title>Node1</title>
<polygon fill="#bfbfbf" stroke="black" points="92.5,-0.5 92.5,-19.5 232.5,-19.5 232.5,-0.5 92.5,-0.5"/>
<text text-anchor="middle" x="162.5" y="-7.5" font-family="Helvetica,sans-Serif" font-size="10.00">TestAsianOptionGBM2QMC</text>
</g>
<!-- Node2 -->
<g id="node2" class="node"><title>Node2</title>
<g id="a_node2"><a xlink:href="classumontreal_1_1ssj_1_1hups_1_1SubsetOfPointSet.html" target="_top" xlink:title="This container class permits one to select a subset of a point set. ">
<polygon fill="none" stroke="black" points="115,-96 115,-115 210,-115 210,-96 115,-96"/>
<text text-anchor="middle" x="162.5" y="-103" font-family="Helvetica,sans-Serif" font-size="10.00">SubsetOfPointSet</text>
</a>
</g>
</g>
<!-- Node2&#45;&gt;Node1 -->
<g id="edge1" class="edge"><title>Node2&#45;&gt;Node1</title>
<path fill="none" stroke="#9a32cd" stroke-dasharray="5,2" d="M162.5,-85.743C162.5,-65.6227 162.5,-34.5522 162.5,-19.6078"/>
<polygon fill="#9a32cd" stroke="#9a32cd" points="159,-85.8713 162.5,-95.8713 166,-85.8714 159,-85.8713"/>
<text text-anchor="middle" x="179.5" y="-52" font-family="Helvetica,sans-Serif" font-size="10.00"> pLCG0</text>
</g>
<!-- Node3 -->
<g id="node3" class="node"><title>Node3</title>
<g id="a_node3"><a xlink:href="classumontreal_1_1ssj_1_1hups_1_1PointSet.html" target="_top" xlink:title="This abstract class defines the basic methods for accessing and manipulating point sets...">
<polygon fill="none" stroke="black" points="54.5,-169.5 54.5,-188.5 108.5,-188.5 108.5,-169.5 54.5,-169.5"/>
<text text-anchor="middle" x="81.5" y="-176.5" font-family="Helvetica,sans-Serif" font-size="10.00">PointSet</text>
</a>
</g>
</g>
<!-- Node3&#45;&gt;Node1 -->
<g id="edge9" class="edge"><title>Node3&#45;&gt;Node1</title>
<path fill="none" stroke="#9a32cd" stroke-dasharray="5,2" d="M75.0432,-159.555C69.6364,-140.909 64.2933,-111.686 74.5,-89 89.1588,-56.4188 124.899,-31.9328 146.048,-19.6995"/>
<polygon fill="#9a32cd" stroke="#9a32cd" points="71.7411,-160.72 78.1169,-169.182 78.4095,-158.591 71.7411,-160.72"/>
<text text-anchor="middle" x="90" y="-114" font-family="Helvetica,sans-Serif" font-size="10.00"> pLCG</text>
<text text-anchor="middle" x="90" y="-103" font-family="Helvetica,sans-Serif" font-size="10.00">pStrat</text>
<text text-anchor="middle" x="90" y="-92" font-family="Helvetica,sans-Serif" font-size="10.00">pSobol</text>
</g>
<!-- Node3&#45;&gt;Node2 -->
<g id="edge2" class="edge"><title>Node3&#45;&gt;Node2</title>
<path fill="none" stroke="midnightblue" d="M99.2109,-162.366C115.543,-147.95 139.206,-127.062 152.487,-115.339"/>
<polygon fill="midnightblue" stroke="midnightblue" points="96.613,-159.991 91.4322,-169.233 101.245,-165.239 96.613,-159.991"/>
</g>
<!-- Node3&#45;&gt;Node2 -->
<g id="edge4" class="edge"><title>Node3&#45;&gt;Node2</title>
<path fill="none" stroke="#9a32cd" stroke-dasharray="5,2" d="M112.47,-164.724C119.493,-160.895 126.61,-156.295 132.5,-151 144.002,-140.66 153.202,-125.018 158.248,-115.299"/>
<polygon fill="#9a32cd" stroke="#9a32cd" points="110.428,-161.834 103.074,-169.46 113.579,-168.084 110.428,-161.834"/>
<text text-anchor="middle" x="147.5" y="-143" font-family="Helvetica,sans-Serif" font-size="10.00"> P</text>
</g>
<!-- Node4 -->
<g id="node4" class="node"><title>Node4</title>
<g id="a_node4"><a xlink:href="interfaceumontreal_1_1ssj_1_1rng_1_1RandomStream.html" target="_top" xlink:title="This interface defines the basic structures to handle multiple streams of uniform (pseudo)random numb...">
<polygon fill="none" stroke="black" points="0,-236.5 0,-255.5 85,-255.5 85,-236.5 0,-236.5"/>
<text text-anchor="middle" x="42.5" y="-243.5" font-family="Helvetica,sans-Serif" font-size="10.00">RandomStream</text>
</a>
</g>
</g>
<!-- Node4&#45;&gt;Node1 -->
<g id="edge10" class="edge"><title>Node4&#45;&gt;Node1</title>
<path fill="none" stroke="#9a32cd" stroke-dasharray="5,2" d="M39.5792,-226.365C34.3521,-185.555 28.4389,-87.947 81.5,-38 90.5666,-29.4656 102.404,-23.6249 114.218,-19.629"/>
<polygon fill="#9a32cd" stroke="#9a32cd" points="36.1161,-226.874 40.9857,-236.283 43.0468,-225.891 36.1161,-226.874"/>
<text text-anchor="middle" x="52" y="-143" font-family="Helvetica,sans-Serif" font-size="10.00"> noise</text>
</g>
<!-- Node4&#45;&gt;Node3 -->
<g id="edge3" class="edge"><title>Node4&#45;&gt;Node3</title>
<path fill="none" stroke="#9a32cd" stroke-dasharray="5,2" d="M52.9792,-227.535C60.5301,-214.95 70.3957,-198.507 76.3236,-188.627"/>
<polygon fill="#9a32cd" stroke="#9a32cd" points="49.9035,-225.858 47.7597,-236.234 55.9059,-229.46 49.9035,-225.858"/>
<text text-anchor="middle" x="91.5" y="-210" font-family="Helvetica,sans-Serif" font-size="10.00"> shiftStream</text>
</g>
<!-- Node5 -->
<g id="node5" class="node"><title>Node5</title>
<g id="a_node5"><a xlink:href="classift6561examples_1_1AsianOption.html" target="_top" xlink:title="This class represents an Asian average price call option with European exercise type. ">
<polygon fill="none" stroke="black" points="228.5,-96 228.5,-115 298.5,-115 298.5,-96 228.5,-96"/>
<text text-anchor="middle" x="263.5" y="-103" font-family="Helvetica,sans-Serif" font-size="10.00">AsianOption</text>
</a>
</g>
</g>
<!-- Node5&#45;&gt;Node1 -->
<g id="edge5" class="edge"><title>Node5&#45;&gt;Node1</title>
<path fill="none" stroke="#9a32cd" stroke-dasharray="5,2" d="M249.481,-87.9837C237.223,-73.9772 218.598,-53.7164 200.5,-38 192.801,-31.3139 183.475,-24.6687 175.989,-19.6439"/>
<polygon fill="#9a32cd" stroke="#9a32cd" points="247.045,-90.5179 256.229,-95.8 252.343,-85.9434 247.045,-90.5179"/>
<text text-anchor="middle" x="247" y="-52" font-family="Helvetica,sans-Serif" font-size="10.00"> asian</text>
</g>
<!-- Node6 -->
<g id="node6" class="node"><title>Node6</title>
<g id="a_node6"><a xlink:href="interfaceumontreal_1_1ssj_1_1mcqmctools_1_1MonteCarloModelDouble.html" target="_top" xlink:title="An interface for a very simple simulation model for which Monte Carlo (MC) and RQMC experiments are t...">
<polygon fill="none" stroke="black" points="129.5,-169.5 129.5,-188.5 253.5,-188.5 253.5,-169.5 129.5,-169.5"/>
<text text-anchor="middle" x="191.5" y="-176.5" font-family="Helvetica,sans-Serif" font-size="10.00">MonteCarloModelDouble</text>
</a>
</g>
</g>
<!-- Node6&#45;&gt;Node5 -->
<g id="edge6" class="edge"><title>Node6&#45;&gt;Node5</title>
<path fill="none" stroke="midnightblue" d="M207.644,-161.968C222.146,-147.567 242.902,-126.955 254.599,-115.339"/>
<polygon fill="midnightblue" stroke="midnightblue" points="204.958,-159.703 200.329,-169.233 209.891,-164.67 204.958,-159.703"/>
</g>
<!-- Node7 -->
<g id="node7" class="node"><title>Node7</title>
<g id="a_node7"><a xlink:href="classumontreal_1_1ssj_1_1stochprocess_1_1StochasticProcess.html" target="_top" xlink:title="Abstract base class for a stochastic process &#160;sampled (or observed) at a finite number of time points...">
<polygon fill="none" stroke="black" points="272,-169.5 272,-188.5 371,-188.5 371,-169.5 272,-169.5"/>
<text text-anchor="middle" x="321.5" y="-176.5" font-family="Helvetica,sans-Serif" font-size="10.00">StochasticProcess</text>
</a>
</g>
</g>
<!-- Node7&#45;&gt;Node5 -->
<g id="edge7" class="edge"><title>Node7&#45;&gt;Node5</title>
<path fill="none" stroke="#9a32cd" stroke-dasharray="5,2" d="M307.841,-161.162C296.196,-146.807 279.918,-126.74 270.67,-115.339"/>
<polygon fill="#9a32cd" stroke="#9a32cd" points="305.37,-163.671 314.388,-169.233 310.806,-159.262 305.37,-163.671"/>
<text text-anchor="middle" x="330" y="-143" font-family="Helvetica,sans-Serif" font-size="10.00"> priceProcess</text>
</g>
<!-- Node8 -->
<g id="node8" class="node"><title>Node8</title>
<g id="a_node8"><a xlink:href="interfaceumontreal_1_1ssj_1_1hups_1_1PointSetRandomization.html" target="_top" xlink:title="This interface is used to randomize a umontreal.ssj.hups.PointSet. ">
<polygon fill="none" stroke="black" points="317,-96 317,-115 436,-115 436,-96 317,-96"/>
<text text-anchor="middle" x="376.5" y="-103" font-family="Helvetica,sans-Serif" font-size="10.00">PointSetRandomization</text>
</a>
</g>
</g>
<!-- Node8&#45;&gt;Node1 -->
<g id="edge8" class="edge"><title>Node8&#45;&gt;Node1</title>
<path fill="none" stroke="#9a32cd" stroke-dasharray="5,2" d="M356.253,-90.1259C334.491,-75.2514 298.437,-52.2402 264.5,-38 245.666,-30.0972 223.889,-23.9565 205.305,-19.5422"/>
<polygon fill="#9a32cd" stroke="#9a32cd" points="354.445,-93.1313 364.657,-95.9533 358.434,-87.3789 354.445,-93.1313"/>
<text text-anchor="middle" x="340" y="-63" font-family="Helvetica,sans-Serif" font-size="10.00"> rShift</text>
<text text-anchor="middle" x="340" y="-52" font-family="Helvetica,sans-Serif" font-size="10.00">noShift</text>
<text text-anchor="middle" x="340" y="-41" font-family="Helvetica,sans-Serif" font-size="10.00">dShift</text>
</g>
</g>
</svg>
