<?xml version="1.0" encoding="UTF-8" standalone="no"?>
<!DOCTYPE svg PUBLIC "-//W3C//DTD SVG 1.1//EN"
 "http://www.w3.org/Graphics/SVG/1.1/DTD/svg11.dtd">
<!-- Generated by graphviz version 2.38.0 (20140413.2041)
 -->
<!-- Title: PartialVariance Pages: 1 -->
<svg width="268pt" height="140pt"
 viewBox="0.00 0.00 267.50 140.00" xmlns="http://www.w3.org/2000/svg" xmlns:xlink="http://www.w3.org/1999/xlink">
<g id="graph0" class="graph" transform="scale(1 1) rotate(0) translate(4 136)">
<title>PartialVariance</title>
<!-- Node0 -->
<g id="node1" class="node"><title>Node0</title>
<polygon fill="#bfbfbf" stroke="black" points="84.5,-0.5 84.5,-19.5 167.5,-19.5 167.5,-0.5 84.5,-0.5"/>
<text text-anchor="middle" x="126" y="-7.5" font-family="Helvetica,sans-Serif" font-size="10.00">PartialVariance</text>
</g>
<!-- Node1 -->
<g id="node2" class="node"><title>Node1</title>
<g id="a_node2"><a xlink:href="classumontreal_1_1ssj_1_1stat_1_1Tally.html" target="_top" xlink:title="A subclass of StatProbe. ">
<polygon fill="none" stroke="black" points="50,-56.5 50,-75.5 88,-75.5 88,-56.5 50,-56.5"/>
<text text-anchor="middle" x="69" y="-63.5" font-family="Helvetica,sans-Serif" font-size="10.00">Tally</text>
</a>
</g>
</g>
<!-- Node1&#45;&gt;Node0 -->
<g id="edge1" class="edge"><title>Node1&#45;&gt;Node0</title>
<path fill="none" stroke="midnightblue" d="M85.6215,-49.2533C95.734,-39.6731 108.277,-27.7906 116.675,-19.8339"/>
<polygon fill="midnightblue" stroke="midnightblue" points="83.0105,-46.9056 78.158,-56.324 87.8247,-51.9873 83.0105,-46.9056"/>
</g>
<!-- Node2 -->
<g id="node3" class="node"><title>Node2</title>
<g id="a_node3"><a xlink:href="classumontreal_1_1ssj_1_1stat_1_1StatProbe.html" target="_top" xlink:title="The objects of this class are statistical probes or collectors, which are elementary devices for coll...">
<polygon fill="none" stroke="black" points="0,-112.5 0,-131.5 60,-131.5 60,-112.5 0,-112.5"/>
<text text-anchor="middle" x="30" y="-119.5" font-family="Helvetica,sans-Serif" font-size="10.00">StatProbe</text>
</a>
</g>
</g>
<!-- Node2&#45;&gt;Node1 -->
<g id="edge2" class="edge"><title>Node2&#45;&gt;Node1</title>
<path fill="none" stroke="midnightblue" d="M42.3822,-103.855C49.1354,-94.5048 57.2086,-83.3265 62.6798,-75.7511"/>
<polygon fill="midnightblue" stroke="midnightblue" points="39.4576,-101.927 36.4401,-112.083 45.1324,-106.025 39.4576,-101.927"/>
</g>
<!-- Node3 -->
<g id="node4" class="node"><title>Node3</title>
<polygon fill="none" stroke="#bfbfbf" points="78,-112.5 78,-131.5 138,-131.5 138,-112.5 78,-112.5"/>
<text text-anchor="middle" x="108" y="-119.5" font-family="Helvetica,sans-Serif" font-size="10.00">Cloneable</text>
</g>
<!-- Node3&#45;&gt;Node1 -->
<g id="edge3" class="edge"><title>Node3&#45;&gt;Node1</title>
<path fill="none" stroke="midnightblue" d="M95.6178,-103.855C88.8646,-94.5048 80.7914,-83.3265 75.3202,-75.7511"/>
<polygon fill="midnightblue" stroke="midnightblue" points="92.8676,-106.025 101.56,-112.083 98.5424,-101.927 92.8676,-106.025"/>
</g>
<!-- Node4 -->
<g id="node5" class="node"><title>Node4</title>
<polygon fill="none" stroke="#bfbfbf" points="106.5,-56.5 106.5,-75.5 259.5,-75.5 259.5,-56.5 106.5,-56.5"/>
<text text-anchor="middle" x="183" y="-63.5" font-family="Helvetica,sans-Serif" font-size="10.00">Comparable&lt; PartialVariance &gt;</text>
</g>
<!-- Node4&#45;&gt;Node0 -->
<g id="edge4" class="edge"><title>Node4&#45;&gt;Node0</title>
<path fill="none" stroke="midnightblue" d="M166.379,-49.2533C156.266,-39.6731 143.723,-27.7906 135.325,-19.8339"/>
<polygon fill="midnightblue" stroke="midnightblue" points="164.175,-51.9873 173.842,-56.324 168.99,-46.9056 164.175,-51.9873"/>
</g>
</g>
</svg>
