<?xml version="1.0" encoding="UTF-8" standalone="no"?>
<!DOCTYPE svg PUBLIC "-//W3C//DTD SVG 1.1//EN"
 "http://www.w3.org/Graphics/SVG/1.1/DTD/svg11.dtd">
<!-- Generated by graphviz version 2.38.0 (20140413.2041)
 -->
<!-- Title: F2wNetLFSR Pages: 1 -->
<svg width="96pt" height="196pt"
 viewBox="0.00 0.00 96.00 196.00" xmlns="http://www.w3.org/2000/svg" xmlns:xlink="http://www.w3.org/1999/xlink">
<g id="graph0" class="graph" transform="scale(1 1) rotate(0) translate(4 192)">
<title>F2wNetLFSR</title>
<!-- Node0 -->
<g id="node1" class="node"><title>Node0</title>
<polygon fill="#bfbfbf" stroke="black" points="5.5,-0.5 5.5,-19.5 82.5,-19.5 82.5,-0.5 5.5,-0.5"/>
<text text-anchor="middle" x="44" y="-7.5" font-family="Helvetica,sans-Serif" font-size="10.00">F2wNetLFSR</text>
</g>
<!-- Node1 -->
<g id="node2" class="node"><title>Node1</title>
<g id="a_node2"><a xlink:href="classumontreal_1_1ssj_1_1hups_1_1DigitalNetBase2.html" target="_top" xlink:title="A special case of DigitalNet for the base . ">
<polygon fill="none" stroke="black" points="-7.10543e-15,-56.5 -7.10543e-15,-75.5 88,-75.5 88,-56.5 -7.10543e-15,-56.5"/>
<text text-anchor="middle" x="44" y="-63.5" font-family="Helvetica,sans-Serif" font-size="10.00">DigitalNetBase2</text>
</a>
</g>
</g>
<!-- Node1&#45;&gt;Node0 -->
<g id="edge1" class="edge"><title>Node1&#45;&gt;Node0</title>
<path fill="none" stroke="midnightblue" d="M44,-45.8045C44,-36.9102 44,-26.7798 44,-19.7511"/>
<polygon fill="midnightblue" stroke="midnightblue" points="40.5001,-46.083 44,-56.083 47.5001,-46.083 40.5001,-46.083"/>
</g>
<!-- Node2 -->
<g id="node3" class="node"><title>Node2</title>
<g id="a_node3"><a xlink:href="classumontreal_1_1ssj_1_1hups_1_1DigitalNet.html" target="_top" xlink:title="This class provides the basic structures for storing and manipulating linear digital nets in base ...">
<polygon fill="none" stroke="black" points="14,-112.5 14,-131.5 74,-131.5 74,-112.5 14,-112.5"/>
<text text-anchor="middle" x="44" y="-119.5" font-family="Helvetica,sans-Serif" font-size="10.00">DigitalNet</text>
</a>
</g>
</g>
<!-- Node2&#45;&gt;Node1 -->
<g id="edge2" class="edge"><title>Node2&#45;&gt;Node1</title>
<path fill="none" stroke="midnightblue" d="M44,-101.805C44,-92.9102 44,-82.7798 44,-75.7511"/>
<polygon fill="midnightblue" stroke="midnightblue" points="40.5001,-102.083 44,-112.083 47.5001,-102.083 40.5001,-102.083"/>
</g>
<!-- Node3 -->
<g id="node4" class="node"><title>Node3</title>
<g id="a_node4"><a xlink:href="classumontreal_1_1ssj_1_1hups_1_1PointSet.html" target="_top" xlink:title="This abstract class defines the basic methods for accessing and manipulating point sets...">
<polygon fill="none" stroke="black" points="17,-168.5 17,-187.5 71,-187.5 71,-168.5 17,-168.5"/>
<text text-anchor="middle" x="44" y="-175.5" font-family="Helvetica,sans-Serif" font-size="10.00">PointSet</text>
</a>
</g>
</g>
<!-- Node3&#45;&gt;Node2 -->
<g id="edge3" class="edge"><title>Node3&#45;&gt;Node2</title>
<path fill="none" stroke="midnightblue" d="M44,-157.805C44,-148.91 44,-138.78 44,-131.751"/>
<polygon fill="midnightblue" stroke="midnightblue" points="40.5001,-158.083 44,-168.083 47.5001,-158.083 40.5001,-158.083"/>
</g>
</g>
</svg>
