<?xml version="1.0" encoding="UTF-8" standalone="no"?>
<!DOCTYPE svg PUBLIC "-//W3C//DTD SVG 1.1//EN"
 "http://www.w3.org/Graphics/SVG/1.1/DTD/svg11.dtd">
<!-- Generated by graphviz version 2.38.0 (20140413.2041)
 -->
<!-- Title: San13CMCCV Pages: 1 -->
<svg width="486pt" height="240pt"
 viewBox="0.00 0.00 486.00 240.00" xmlns="http://www.w3.org/2000/svg" xmlns:xlink="http://www.w3.org/1999/xlink">
<g id="graph0" class="graph" transform="scale(1 1) rotate(0) translate(4 236)">
<title>San13CMCCV</title>
<!-- Node3 -->
<g id="node1" class="node"><title>Node3</title>
<polygon fill="#bfbfbf" stroke="black" points="279,-0.5 279,-19.5 361,-19.5 361,-0.5 279,-0.5"/>
<text text-anchor="middle" x="320" y="-7.5" font-family="Helvetica,sans-Serif" font-size="10.00">San13CMCCV</text>
</g>
<!-- Node4 -->
<g id="node2" class="node"><title>Node4</title>
<g id="a_node2"><a xlink:href="classift6561examples_1_1San13Prob.html" target="_top" xlink:title="This class simulates a specific stochastic activity network with 9 nodes and 13 links, taken from Elmaghraby (1977) and used again in L&#39;Ecuyer and Lemieux (2000), &quot;Variance Reduction via Lattice Rules&quot;. ">
<polygon fill="none" stroke="black" points="167.5,-78.5 167.5,-97.5 232.5,-97.5 232.5,-78.5 167.5,-78.5"/>
<text text-anchor="middle" x="200" y="-85.5" font-family="Helvetica,sans-Serif" font-size="10.00">San13Prob</text>
</a>
</g>
</g>
<!-- Node4&#45;&gt;Node3 -->
<g id="edge1" class="edge"><title>Node4&#45;&gt;Node3</title>
<path fill="none" stroke="midnightblue" d="M222.461,-72.7747C247.135,-57.1479 285.966,-32.5551 306.395,-19.6165"/>
<polygon fill="midnightblue" stroke="midnightblue" points="220.341,-69.9744 213.766,-78.2818 224.086,-75.8881 220.341,-69.9744"/>
</g>
<!-- Node5 -->
<g id="node3" class="node"><title>Node5</title>
<g id="a_node3"><a xlink:href="interfaceumontreal_1_1ssj_1_1mcqmctools_1_1MonteCarloModelDouble.html" target="_top" xlink:title="An interface for a very simple simulation model for which Monte Carlo (MC) and RQMC experiments are t...">
<polygon fill="none" stroke="black" points="0,-145.5 0,-164.5 124,-164.5 124,-145.5 0,-145.5"/>
<text text-anchor="middle" x="62" y="-152.5" font-family="Helvetica,sans-Serif" font-size="10.00">MonteCarloModelDouble</text>
</a>
</g>
</g>
<!-- Node5&#45;&gt;Node4 -->
<g id="edge2" class="edge"><title>Node5&#45;&gt;Node4</title>
<path fill="none" stroke="midnightblue" d="M89.7196,-140.944C117.053,-128.069 158.054,-108.757 181.599,-97.6672"/>
<polygon fill="midnightblue" stroke="midnightblue" points="87.8806,-137.941 80.3253,-145.369 90.8635,-144.274 87.8806,-137.941"/>
</g>
<!-- Node6 -->
<g id="node4" class="node"><title>Node6</title>
<g id="a_node4"><a xlink:href="classumontreal_1_1ssj_1_1probdist_1_1ContinuousDistribution.html" target="_top" xlink:title="Classes implementing continuous distributions should inherit from this base class. ">
<polygon fill="none" stroke="black" points="142,-145.5 142,-164.5 258,-164.5 258,-145.5 142,-145.5"/>
<text text-anchor="middle" x="200" y="-152.5" font-family="Helvetica,sans-Serif" font-size="10.00">ContinuousDistribution</text>
</a>
</g>
</g>
<!-- Node6&#45;&gt;Node4 -->
<g id="edge3" class="edge"><title>Node6&#45;&gt;Node4</title>
<path fill="none" stroke="#9a32cd" stroke-dasharray="5,2" d="M200,-135.037C200,-122.67 200,-107.12 200,-97.6273"/>
<polygon fill="#9a32cd" stroke="#9a32cd" points="196.5,-135.234 200,-145.234 203.5,-135.234 196.5,-135.234"/>
<text text-anchor="middle" x="209.5" y="-119" font-family="Helvetica,sans-Serif" font-size="10.00"> dist</text>
</g>
<!-- Node7 -->
<g id="node5" class="node"><title>Node7</title>
<g id="a_node5"><a xlink:href="interfaceumontreal_1_1ssj_1_1probdist_1_1Distribution.html" target="_top" xlink:title="This interface should be implemented by all classes supporting discrete and continuous distributions...">
<polygon fill="none" stroke="black" points="157,-212.5 157,-231.5 223,-231.5 223,-212.5 157,-212.5"/>
<text text-anchor="middle" x="190" y="-219.5" font-family="Helvetica,sans-Serif" font-size="10.00">Distribution</text>
</a>
</g>
</g>
<!-- Node7&#45;&gt;Node6 -->
<g id="edge4" class="edge"><title>Node7&#45;&gt;Node6</title>
<path fill="none" stroke="midnightblue" d="M192.917,-202.037C194.82,-189.67 197.212,-174.12 198.673,-164.627"/>
<polygon fill="midnightblue" stroke="midnightblue" points="189.41,-201.818 191.349,-212.234 196.329,-202.882 189.41,-201.818"/>
</g>
<!-- Node8 -->
<g id="node6" class="node"><title>Node8</title>
<g id="a_node6"><a xlink:href="classumontreal_1_1ssj_1_1stat_1_1TallyStore.html" target="_top" xlink:title="This class is a variant of Tally for which the individual observations are stored in a list implement...">
<polygon fill="none" stroke="black" points="289.5,-78.5 289.5,-97.5 350.5,-97.5 350.5,-78.5 289.5,-78.5"/>
<text text-anchor="middle" x="320" y="-85.5" font-family="Helvetica,sans-Serif" font-size="10.00">TallyStore</text>
</a>
</g>
</g>
<!-- Node8&#45;&gt;Node3 -->
<g id="edge5" class="edge"><title>Node8&#45;&gt;Node3</title>
<path fill="none" stroke="#9a32cd" stroke-dasharray="5,2" d="M320,-68.2239C320,-52.6974 320,-31.3582 320,-19.6165"/>
<polygon fill="#9a32cd" stroke="#9a32cd" points="316.5,-68.2818 320,-78.2818 323.5,-68.2819 316.5,-68.2818"/>
<text text-anchor="middle" x="343" y="-52" font-family="Helvetica,sans-Serif" font-size="10.00"> statsProb</text>
<text text-anchor="middle" x="343" y="-41" font-family="Helvetica,sans-Serif" font-size="10.00">statsCV</text>
</g>
<!-- Node9 -->
<g id="node7" class="node"><title>Node9</title>
<g id="a_node7"><a xlink:href="classumontreal_1_1ssj_1_1stat_1_1Tally.html" target="_top" xlink:title="A subclass of StatProbe. ">
<polygon fill="none" stroke="black" points="325,-145.5 325,-164.5 363,-164.5 363,-145.5 325,-145.5"/>
<text text-anchor="middle" x="344" y="-152.5" font-family="Helvetica,sans-Serif" font-size="10.00">Tally</text>
</a>
</g>
</g>
<!-- Node9&#45;&gt;Node8 -->
<g id="edge6" class="edge"><title>Node9&#45;&gt;Node8</title>
<path fill="none" stroke="midnightblue" d="M337.276,-135.79C332.667,-123.308 326.762,-107.314 323.185,-97.6273"/>
<polygon fill="midnightblue" stroke="midnightblue" points="334.016,-137.065 340.763,-145.234 340.583,-134.641 334.016,-137.065"/>
</g>
<!-- Node10 -->
<g id="node8" class="node"><title>Node10</title>
<g id="a_node8"><a xlink:href="classumontreal_1_1ssj_1_1stat_1_1StatProbe.html" target="_top" xlink:title="The objects of this class are statistical probes or collectors, which are elementary devices for coll...">
<polygon fill="none" stroke="black" points="241,-212.5 241,-231.5 301,-231.5 301,-212.5 241,-212.5"/>
<text text-anchor="middle" x="271" y="-219.5" font-family="Helvetica,sans-Serif" font-size="10.00">StatProbe</text>
</a>
</g>
</g>
<!-- Node10&#45;&gt;Node9 -->
<g id="edge7" class="edge"><title>Node10&#45;&gt;Node9</title>
<path fill="none" stroke="midnightblue" d="M288.569,-205.356C302.92,-192.578 322.671,-174.992 334.311,-164.627"/>
<polygon fill="midnightblue" stroke="midnightblue" points="285.986,-202.97 280.845,-212.234 290.641,-208.198 285.986,-202.97"/>
</g>
<!-- Node11 -->
<g id="node9" class="node"><title>Node11</title>
<polygon fill="none" stroke="#bfbfbf" points="319,-212.5 319,-231.5 379,-231.5 379,-212.5 319,-212.5"/>
<text text-anchor="middle" x="349" y="-219.5" font-family="Helvetica,sans-Serif" font-size="10.00">Cloneable</text>
</g>
<!-- Node11&#45;&gt;Node9 -->
<g id="edge8" class="edge"><title>Node11&#45;&gt;Node9</title>
<path fill="none" stroke="midnightblue" d="M347.541,-202.037C346.59,-189.67 345.394,-174.12 344.664,-164.627"/>
<polygon fill="midnightblue" stroke="midnightblue" points="344.069,-202.532 348.326,-212.234 351.048,-201.995 344.069,-202.532"/>
</g>
<!-- Node12 -->
<g id="node10" class="node"><title>Node12</title>
<polygon fill="none" stroke="#bfbfbf" points="397.5,-212.5 397.5,-231.5 470.5,-231.5 470.5,-212.5 397.5,-212.5"/>
<text text-anchor="middle" x="434" y="-219.5" font-family="Helvetica,sans-Serif" font-size="10.00">Tally.CIType</text>
</g>
<!-- Node12&#45;&gt;Node9 -->
<g id="edge9" class="edge"><title>Node12&#45;&gt;Node9</title>
<path fill="none" stroke="#9a32cd" stroke-dasharray="5,2" d="M413.325,-206.068C395.56,-193.238 370.564,-175.185 355.945,-164.627"/>
<polygon fill="#9a32cd" stroke="#9a32cd" points="411.706,-209.216 421.862,-212.234 415.805,-203.541 411.706,-209.216"/>
<text text-anchor="middle" x="436.5" y="-186" font-family="Helvetica,sans-Serif" font-size="10.00"> confidenceInterval</text>
</g>
<!-- Node13 -->
<g id="node11" class="node"><title>Node13</title>
<polygon fill="none" stroke="#bfbfbf" points="369,-78.5 369,-97.5 419,-97.5 419,-78.5 369,-78.5"/>
<text text-anchor="middle" x="394" y="-85.5" font-family="Helvetica,sans-Serif" font-size="10.00">Algebra</text>
</g>
<!-- Node13&#45;&gt;Node3 -->
<g id="edge10" class="edge"><title>Node13&#45;&gt;Node3</title>
<path fill="none" stroke="#9a32cd" stroke-dasharray="5,2" d="M388.27,-68.9754C384.37,-58.9262 378.379,-46.7185 370,-38 362.412,-30.1047 352.004,-23.98 342.648,-19.5748"/>
<polygon fill="#9a32cd" stroke="#9a32cd" points="384.974,-70.1544 391.59,-78.4295 391.579,-67.8347 384.974,-70.1544"/>
<text text-anchor="middle" x="392" y="-46.5" font-family="Helvetica,sans-Serif" font-size="10.00"> alg</text>
</g>
</g>
</svg>
