<?xml version="1.0" encoding="UTF-8" standalone="no"?>
<!DOCTYPE svg PUBLIC "-//W3C//DTD SVG 1.1//EN"
 "http://www.w3.org/Graphics/SVG/1.1/DTD/svg11.dtd">
<!-- Generated by graphviz version 2.40.1 (0)
 -->
<!-- Title: KorobovLattice Pages: 1 -->
<svg width="105pt" height="209pt"
 viewBox="0.00 0.00 104.50 209.00" xmlns="http://www.w3.org/2000/svg" xmlns:xlink="http://www.w3.org/1999/xlink">
<g id="graph0" class="graph" transform="scale(1 1) rotate(0) translate(4 205)">
<title>KorobovLattice</title>
<!-- Node4 -->
<g id="node1" class="node">
<title>Node4</title>
<g id="a_node1"><a xlink:title="This class implements Korobov lattices, which represents the same point sets as in class LCGPointSet,...">
<polygon fill="#bfbfbf" stroke="#000000" points="1.5,-.5 1.5,-19.5 83.5,-19.5 83.5,-.5 1.5,-.5"/>
<text text-anchor="middle" x="42.5" y="-7.5" font-family="Helvetica,sans-Serif" font-size="10.00" fill="#000000">KorobovLattice</text>
</a>
</g>
</g>
<!-- Node5 -->
<g id="node2" class="node">
<title>Node5</title>
<g id="a_node2"><a xlink:href="classumontreal_1_1ssj_1_1hups_1_1Rank1Lattice.html" target="_top" xlink:title="This class implements point sets specified by integration lattices of rank.">
<polygon fill="none" stroke="#000000" points="5.5,-57.5 5.5,-76.5 79.5,-76.5 79.5,-57.5 5.5,-57.5"/>
<text text-anchor="middle" x="42.5" y="-64.5" font-family="Helvetica,sans-Serif" font-size="10.00" fill="#000000">Rank1Lattice</text>
</a>
</g>
</g>
<!-- Node5&#45;&gt;Node4 -->
<g id="edge1" class="edge">
<title>Node5&#45;&gt;Node4</title>
<path fill="none" stroke="#191970" d="M42.5,-47.2342C42.5,-37.8491 42.5,-27.0651 42.5,-19.5265"/>
<polygon fill="#191970" stroke="#191970" points="39.0001,-47.3307 42.5,-57.3307 46.0001,-47.3308 39.0001,-47.3307"/>
</g>
<!-- Node6 -->
<g id="node3" class="node">
<title>Node6</title>
<g id="a_node3"><a xlink:href="classumontreal_1_1ssj_1_1hups_1_1PointSet.html" target="_top" xlink:title="This abstract class defines the basic methods for accessing and manipulating point sets.">
<polygon fill="none" stroke="#000000" points="15.5,-114.5 15.5,-133.5 69.5,-133.5 69.5,-114.5 15.5,-114.5"/>
<text text-anchor="middle" x="42.5" y="-121.5" font-family="Helvetica,sans-Serif" font-size="10.00" fill="#000000">PointSet</text>
</a>
</g>
</g>
<!-- Node6&#45;&gt;Node5 -->
<g id="edge2" class="edge">
<title>Node6&#45;&gt;Node5</title>
<path fill="none" stroke="#191970" d="M42.5,-104.2342C42.5,-94.8491 42.5,-84.0651 42.5,-76.5265"/>
<polygon fill="#191970" stroke="#191970" points="39.0001,-104.3307 42.5,-114.3307 46.0001,-104.3308 39.0001,-104.3307"/>
</g>
<!-- Node7 -->
<g id="node4" class="node">
<title>Node7</title>
<g id="a_node4"><a xlink:href="interfaceumontreal_1_1ssj_1_1rng_1_1RandomStream.html" target="_top" xlink:title="This interface defines the basic structures to handle multiple streams of uniform (pseudo)random numb...">
<polygon fill="none" stroke="#000000" points="0,-181.5 0,-200.5 85,-200.5 85,-181.5 0,-181.5"/>
<text text-anchor="middle" x="42.5" y="-188.5" font-family="Helvetica,sans-Serif" font-size="10.00" fill="#000000">RandomStream</text>
</a>
</g>
</g>
<!-- Node7&#45;&gt;Node6 -->
<g id="edge3" class="edge">
<title>Node7&#45;&gt;Node6</title>
<path fill="none" stroke="#9a32cd" stroke-dasharray="5,2" d="M42.5,-171.1079C42.5,-158.714 42.5,-143.3263 42.5,-133.5817"/>
<polygon fill="#9a32cd" stroke="#9a32cd" points="39.0001,-171.4005 42.5,-181.4005 46.0001,-171.4006 39.0001,-171.4005"/>
<text text-anchor="middle" x="69.5" y="-155" font-family="Helvetica,sans-Serif" font-size="10.00" fill="#000000"> shiftStream</text>
</g>
</g>
</svg>
