<?xml version="1.0" encoding="UTF-8" standalone="no"?>
<!DOCTYPE svg PUBLIC "-//W3C//DTD SVG 1.1//EN"
 "http://www.w3.org/Graphics/SVG/1.1/DTD/svg11.dtd">
<!-- Generated by graphviz version 2.38.0 (20140413.2041)
 -->
<!-- Title: DensityEstimator Pages: 1 -->
<svg width="428pt" height="196pt"
 viewBox="0.00 0.00 427.50 196.00" xmlns="http://www.w3.org/2000/svg" xmlns:xlink="http://www.w3.org/1999/xlink">
<g id="graph0" class="graph" transform="scale(1 1) rotate(0) translate(4 192)">
<title>DensityEstimator</title>
<!-- Node0 -->
<g id="node1" class="node"><title>Node0</title>
<polygon fill="#bfbfbf" stroke="black" points="172,-168.5 172,-187.5 264,-187.5 264,-168.5 172,-168.5"/>
<text text-anchor="middle" x="218" y="-175.5" font-family="Helvetica,sans-Serif" font-size="10.00">DensityEstimator</text>
</g>
<!-- Node1 -->
<g id="node2" class="node"><title>Node1</title>
<g id="a_node2"><a xlink:href="classumontreal_1_1ssj_1_1stat_1_1density_1_1DEAveragedShiftedHistogram.html" target="_top" xlink:title="An averaged shifted histogram used a a density estimator. ">
<polygon fill="none" stroke="black" points="0,-112.5 0,-131.5 148,-131.5 148,-112.5 0,-112.5"/>
<text text-anchor="middle" x="74" y="-119.5" font-family="Helvetica,sans-Serif" font-size="10.00">DEAveragedShiftedHistogram</text>
</a>
</g>
</g>
<!-- Node0&#45;&gt;Node1 -->
<g id="edge1" class="edge"><title>Node0&#45;&gt;Node1</title>
<path fill="none" stroke="midnightblue" d="M185.749,-164.906C158.676,-154.754 120.683,-140.506 96.7105,-131.516"/>
<polygon fill="midnightblue" stroke="midnightblue" points="184.591,-168.209 195.183,-168.444 187.048,-161.655 184.591,-168.209"/>
</g>
<!-- Node2 -->
<g id="node3" class="node"><title>Node2</title>
<g id="a_node3"><a xlink:href="classumontreal_1_1ssj_1_1stat_1_1density_1_1DEBandwidthBased.html" target="_top" xlink:title="Implements an abstract class for density estimators that rely on the selection of a bandwidth &#160;such a...">
<polygon fill="none" stroke="black" points="166,-112.5 166,-131.5 270,-131.5 270,-112.5 166,-112.5"/>
<text text-anchor="middle" x="218" y="-119.5" font-family="Helvetica,sans-Serif" font-size="10.00">DEBandwidthBased</text>
</a>
</g>
</g>
<!-- Node0&#45;&gt;Node2 -->
<g id="edge2" class="edge"><title>Node0&#45;&gt;Node2</title>
<path fill="none" stroke="midnightblue" d="M218,-157.805C218,-148.91 218,-138.78 218,-131.751"/>
<polygon fill="midnightblue" stroke="midnightblue" points="214.5,-158.083 218,-168.083 221.5,-158.083 214.5,-158.083"/>
</g>
<!-- Node7 -->
<g id="node8" class="node"><title>Node7</title>
<g id="a_node8"><a xlink:href="classumontreal_1_1ssj_1_1stat_1_1density_1_1DEGaussianKDEBotev.html" target="_top" xlink:title="Density estimator based on Gaussian kernel, as proposed by Botev. ">
<polygon fill="none" stroke="black" points="288.5,-112.5 288.5,-131.5 407.5,-131.5 407.5,-112.5 288.5,-112.5"/>
<text text-anchor="middle" x="348" y="-119.5" font-family="Helvetica,sans-Serif" font-size="10.00">DEGaussianKDEBotev</text>
</a>
</g>
</g>
<!-- Node0&#45;&gt;Node7 -->
<g id="edge7" class="edge"><title>Node0&#45;&gt;Node7</title>
<path fill="none" stroke="midnightblue" d="M248.085,-164.503C272.457,-154.38 306.14,-140.388 327.497,-131.516"/>
<polygon fill="midnightblue" stroke="midnightblue" points="246.491,-161.375 238.599,-168.444 249.177,-167.84 246.491,-161.375"/>
</g>
<!-- Node3 -->
<g id="node4" class="node"><title>Node3</title>
<g id="a_node4"><a xlink:href="classumontreal_1_1ssj_1_1stat_1_1density_1_1DEHistogram.html" target="_top" xlink:title="This class provides methods to compute a histogram density estimator for univariate densities over an...">
<polygon fill="none" stroke="black" points="78,-56.5 78,-75.5 154,-75.5 154,-56.5 78,-56.5"/>
<text text-anchor="middle" x="116" y="-63.5" font-family="Helvetica,sans-Serif" font-size="10.00">DEHistogram</text>
</a>
</g>
</g>
<!-- Node2&#45;&gt;Node3 -->
<g id="edge3" class="edge"><title>Node2&#45;&gt;Node3</title>
<path fill="none" stroke="midnightblue" d="M192.669,-107.59C173.81,-97.6052 148.616,-84.2672 132.347,-75.6545"/>
<polygon fill="midnightblue" stroke="midnightblue" points="191.136,-110.738 201.612,-112.324 194.412,-104.552 191.136,-110.738"/>
</g>
<!-- Node4 -->
<g id="node5" class="node"><title>Node4</title>
<g id="a_node5"><a xlink:href="classumontreal_1_1ssj_1_1stat_1_1density_1_1DEKernelDensity.html" target="_top" xlink:title="This class provides methods to compute a kernel density estimator (KDE) for univariate unimodal densi...">
<polygon fill="none" stroke="black" points="172,-56.5 172,-75.5 264,-75.5 264,-56.5 172,-56.5"/>
<text text-anchor="middle" x="218" y="-63.5" font-family="Helvetica,sans-Serif" font-size="10.00">DEKernelDensity</text>
</a>
</g>
</g>
<!-- Node2&#45;&gt;Node4 -->
<g id="edge4" class="edge"><title>Node2&#45;&gt;Node4</title>
<path fill="none" stroke="midnightblue" d="M218,-101.805C218,-92.9102 218,-82.7798 218,-75.7511"/>
<polygon fill="midnightblue" stroke="midnightblue" points="214.5,-102.083 218,-112.083 221.5,-102.083 214.5,-102.083"/>
</g>
<!-- Node5 -->
<g id="node6" class="node"><title>Node5</title>
<g id="a_node6"><a xlink:href="classumontreal_1_1ssj_1_1stat_1_1density_1_1DensityDerivativeEstimator.html" target="_top" xlink:title="This class implements a density derivative estimator (DDE) based on a kernel density estimator (KDE) ...">
<polygon fill="none" stroke="black" points="282.5,-56.5 282.5,-75.5 419.5,-75.5 419.5,-56.5 282.5,-56.5"/>
<text text-anchor="middle" x="351" y="-63.5" font-family="Helvetica,sans-Serif" font-size="10.00">DensityDerivativeEstimator</text>
</a>
</g>
</g>
<!-- Node2&#45;&gt;Node5 -->
<g id="edge5" class="edge"><title>Node2&#45;&gt;Node5</title>
<path fill="none" stroke="midnightblue" d="M248.448,-108.638C273.407,-98.504 308.077,-84.4274 330.024,-75.5164"/>
<polygon fill="midnightblue" stroke="midnightblue" points="247.023,-105.439 239.074,-112.444 249.656,-111.924 247.023,-105.439"/>
</g>
<!-- Node6 -->
<g id="node7" class="node"><title>Node6</title>
<g id="a_node7"><a xlink:href="classumontreal_1_1ssj_1_1stat_1_1density_1_1DDEGaussian.html" target="_top" xlink:title="This class implements a density derivative estimator (DDE) based on a KDE with a Gaussian Kernel...">
<polygon fill="none" stroke="black" points="311,-0.5 311,-19.5 391,-19.5 391,-0.5 311,-0.5"/>
<text text-anchor="middle" x="351" y="-7.5" font-family="Helvetica,sans-Serif" font-size="10.00">DDEGaussian</text>
</a>
</g>
</g>
<!-- Node5&#45;&gt;Node6 -->
<g id="edge6" class="edge"><title>Node5&#45;&gt;Node6</title>
<path fill="none" stroke="midnightblue" d="M351,-45.8045C351,-36.9102 351,-26.7798 351,-19.7511"/>
<polygon fill="midnightblue" stroke="midnightblue" points="347.5,-46.083 351,-56.083 354.5,-46.083 347.5,-46.083"/>
</g>
</g>
</svg>
