<?xml version="1.0" encoding="UTF-8" standalone="no"?>
<!DOCTYPE svg PUBLIC "-//W3C//DTD SVG 1.1//EN"
 "http://www.w3.org/Graphics/SVG/1.1/DTD/svg11.dtd">
<!-- Generated by graphviz version 2.40.1 (20161225.0304)
 -->
<!-- Title: Brownian Pages: 1 -->
<svg width="255pt" height="277pt"
 viewBox="0.00 0.00 254.50 277.00" xmlns="http://www.w3.org/2000/svg" xmlns:xlink="http://www.w3.org/1999/xlink">
<g id="graph0" class="graph" transform="scale(1 1) rotate(0) translate(4 273)">
<title>Brownian</title>
<!-- Node5 -->
<g id="node1" class="node">
<title>Node5</title>
<polygon fill="#bfbfbf" stroke="#000000" points="81.5,-.5 81.5,-19.5 138.5,-19.5 138.5,-.5 81.5,-.5"/>
<text text-anchor="middle" x="110" y="-7.5" font-family="Helvetica,sans-Serif" font-size="10.00" fill="#000000">Brownian</text>
</g>
<!-- Node6 -->
<g id="node2" class="node">
<title>Node6</title>
<g id="a_node2"><a xlink:href="classumontreal_1_1ssj_1_1markovchainrqmc_1_1MarkovChainComparable.html" target="_top" xlink:title="A subclass of MarkovChain for which there is a total ordering between the states, induced by the impl...">
<polygon fill="none" stroke="#000000" points="46.5,-57.5 46.5,-76.5 173.5,-76.5 173.5,-57.5 46.5,-57.5"/>
<text text-anchor="middle" x="110" y="-64.5" font-family="Helvetica,sans-Serif" font-size="10.00" fill="#000000">MarkovChainComparable</text>
</a>
</g>
</g>
<!-- Node6&#45;&gt;Node5 -->
<g id="edge1" class="edge">
<title>Node6&#45;&gt;Node5</title>
<path fill="none" stroke="#191970" d="M110,-47.2342C110,-37.8491 110,-27.0651 110,-19.5265"/>
<polygon fill="#191970" stroke="#191970" points="106.5001,-47.3307 110,-57.3307 113.5001,-47.3308 106.5001,-47.3307"/>
</g>
<!-- Node7 -->
<g id="node3" class="node">
<title>Node7</title>
<g id="a_node3"><a xlink:href="classumontreal_1_1ssj_1_1markovchainrqmc_1_1MarkovChain.html" target="_top" xlink:title="This class defines a generic Markov chain and provides basic tools to simulate it for a given number ...">
<polygon fill="none" stroke="#000000" points="9,-120 9,-139 83,-139 83,-120 9,-120"/>
<text text-anchor="middle" x="46" y="-127" font-family="Helvetica,sans-Serif" font-size="10.00" fill="#000000">MarkovChain</text>
</a>
</g>
</g>
<!-- Node7&#45;&gt;Node6 -->
<g id="edge2" class="edge">
<title>Node7&#45;&gt;Node6</title>
<path fill="none" stroke="#191970" d="M63.4566,-112.4526C75.1353,-101.0476 90.0967,-86.4368 99.859,-76.9033"/>
<polygon fill="#191970" stroke="#191970" points="60.7091,-110.2436 56,-119.7344 65.5998,-115.2517 60.7091,-110.2436"/>
</g>
<!-- Node8 -->
<g id="node4" class="node">
<title>Node8</title>
<polygon fill="none" stroke="#bfbfbf" points="0,-192.5 0,-211.5 60,-211.5 60,-192.5 0,-192.5"/>
<text text-anchor="middle" x="30" y="-199.5" font-family="Helvetica,sans-Serif" font-size="10.00" fill="#000000">Cloneable</text>
</g>
<!-- Node8&#45;&gt;Node7 -->
<g id="edge3" class="edge">
<title>Node8&#45;&gt;Node7</title>
<path fill="none" stroke="#191970" d="M34.3905,-182.1054C37.4762,-168.1237 41.4682,-150.0346 43.8764,-139.1228"/>
<polygon fill="#191970" stroke="#191970" points="30.8952,-181.703 32.1578,-192.2223 37.7307,-183.2116 30.8952,-181.703"/>
</g>
<!-- Node9 -->
<g id="node5" class="node">
<title>Node9</title>
<g id="a_node5"><a xlink:href="classumontreal_1_1ssj_1_1util_1_1Chrono.html" target="_top" xlink:title="The Chrono class extends the umontreal.ssj.util.AbstractChrono class and computes the CPU time for th...">
<polygon fill="none" stroke="#000000" points="78,-192.5 78,-211.5 126,-211.5 126,-192.5 78,-192.5"/>
<text text-anchor="middle" x="102" y="-199.5" font-family="Helvetica,sans-Serif" font-size="10.00" fill="#000000">Chrono</text>
</a>
</g>
</g>
<!-- Node9&#45;&gt;Node7 -->
<g id="edge4" class="edge">
<title>Node9&#45;&gt;Node7</title>
<path fill="none" stroke="#9a32cd" stroke-dasharray="5,2" d="M88.2127,-184.1503C77.2304,-169.9322 62.2785,-150.5748 53.4328,-139.1228"/>
<polygon fill="#9a32cd" stroke="#9a32cd" points="85.5647,-186.4478 94.4476,-192.2223 91.1046,-182.1687 85.5647,-186.4478"/>
<text text-anchor="middle" x="92.5" y="-166" font-family="Helvetica,sans-Serif" font-size="10.00" fill="#000000"> timer</text>
</g>
<!-- Node10 -->
<g id="node6" class="node">
<title>Node10</title>
<g id="a_node6"><a xlink:href="classumontreal_1_1ssj_1_1util_1_1AbstractChrono.html" target="_top" xlink:title="AbstractChrono is a class that acts as an interface to the system clock and calculates the CPU or sys...">
<polygon fill="none" stroke="#000000" points="59.5,-249.5 59.5,-268.5 144.5,-268.5 144.5,-249.5 59.5,-249.5"/>
<text text-anchor="middle" x="102" y="-256.5" font-family="Helvetica,sans-Serif" font-size="10.00" fill="#000000">AbstractChrono</text>
</a>
</g>
</g>
<!-- Node10&#45;&gt;Node9 -->
<g id="edge5" class="edge">
<title>Node10&#45;&gt;Node9</title>
<path fill="none" stroke="#191970" d="M102,-239.2342C102,-229.8491 102,-219.0651 102,-211.5265"/>
<polygon fill="#191970" stroke="#191970" points="98.5001,-239.3307 102,-249.3307 105.5001,-239.3308 98.5001,-239.3307"/>
</g>
<!-- Node11 -->
<g id="node7" class="node">
<title>Node11</title>
<g id="a_node7"><a xlink:href="interfaceumontreal_1_1ssj_1_1util_1_1sort_1_1MultiDimComparable.html" target="_top" xlink:title="This interface is an extension (or variant) of the Comparable interface in Java. ">
<polygon fill="none" stroke="#000000" points="101.5,-114.5 101.5,-144.5 246.5,-144.5 246.5,-114.5 101.5,-114.5"/>
<text text-anchor="start" x="109.5" y="-132.5" font-family="Helvetica,sans-Serif" font-size="10.00" fill="#000000">MultiDimComparable</text>
<text text-anchor="middle" x="174" y="-121.5" font-family="Helvetica,sans-Serif" font-size="10.00" fill="#000000">&lt; MarkovChainComparable &gt;</text>
</a>
</g>
</g>
<!-- Node11&#45;&gt;Node6 -->
<g id="edge6" class="edge">
<title>Node11&#45;&gt;Node6</title>
<path fill="none" stroke="#191970" d="M151.0732,-107.1106C140.4033,-96.6908 128.2664,-84.8383 119.9693,-76.7356"/>
<polygon fill="#191970" stroke="#191970" points="148.9076,-109.8878 158.5074,-114.3705 153.7983,-104.8797 148.9076,-109.8878"/>
</g>
</g>
</svg>
