<?xml version="1.0" encoding="UTF-8" standalone="no"?>
<!DOCTYPE svg PUBLIC "-//W3C//DTD SVG 1.1//EN"
 "http://www.w3.org/Graphics/SVG/1.1/DTD/svg11.dtd">
<!-- Generated by graphviz version 2.40.1 (0)
 -->
<!-- Title: FunctionOfMultipleMeansTallyWithCV Pages: 1 -->
<svg width="156pt" height="151pt"
 viewBox="0.00 0.00 156.00 151.00" xmlns="http://www.w3.org/2000/svg" xmlns:xlink="http://www.w3.org/1999/xlink">
<g id="graph0" class="graph" transform="scale(1 1) rotate(0) translate(4 147)">
<title>FunctionOfMultipleMeansTallyWithCV</title>
<!-- Node0 -->
<g id="node1" class="node">
<title>Node0</title>
<g id="a_node1"><a xlink:title="Represents a function of multiple means tally for an estimator with linear control variables.">
<polygon fill="#bfbfbf" stroke="#000000" points="0,-.5 0,-30.5 148,-30.5 148,-.5 0,-.5"/>
<text text-anchor="start" x="8" y="-18.5" font-family="Helvetica,sans-Serif" font-size="10.00" fill="#000000">FunctionOfMultipleMeansTally</text>
<text text-anchor="middle" x="74" y="-7.5" font-family="Helvetica,sans-Serif" font-size="10.00" fill="#000000">WithCV</text>
</a>
</g>
</g>
<!-- Node1 -->
<g id="node2" class="node">
<title>Node1</title>
<g id="a_node2"><a xlink:href="classumontreal_1_1ssj_1_1stat_1_1FunctionOfMultipleMeansTally.html" target="_top" xlink:title="Represents a statistical collector for estimating a function of multiple means with a confidence inte...">
<polygon fill="none" stroke="#000000" points="0,-67.5 0,-86.5 148,-86.5 148,-67.5 0,-67.5"/>
<text text-anchor="middle" x="74" y="-74.5" font-family="Helvetica,sans-Serif" font-size="10.00" fill="#000000">FunctionOfMultipleMeansTally</text>
</a>
</g>
</g>
<!-- Node1&#45;&gt;Node0 -->
<g id="edge1" class="edge">
<title>Node1&#45;&gt;Node0</title>
<path fill="none" stroke="#191970" d="M74,-57.3693C74,-48.681 74,-38.6241 74,-30.5446"/>
<polygon fill="#191970" stroke="#191970" points="70.5001,-57.3906 74,-67.3906 77.5001,-57.3907 70.5001,-57.3906"/>
</g>
<!-- Node2 -->
<g id="node3" class="node">
<title>Node2</title>
<g id="a_node3"><a xlink:href="classumontreal_1_1ssj_1_1stat_1_1StatProbe.html" target="_top" xlink:title="The objects of this class are statistical probes or collectors, which are elementary devices for coll...">
<polygon fill="none" stroke="#000000" points="5,-123.5 5,-142.5 65,-142.5 65,-123.5 5,-123.5"/>
<text text-anchor="middle" x="35" y="-130.5" font-family="Helvetica,sans-Serif" font-size="10.00" fill="#000000">StatProbe</text>
</a>
</g>
</g>
<!-- Node2&#45;&gt;Node1 -->
<g id="edge2" class="edge">
<title>Node2&#45;&gt;Node1</title>
<path fill="none" stroke="#191970" d="M47.5908,-114.9209C54.1395,-105.5176 61.8824,-94.3997 67.2846,-86.6427"/>
<polygon fill="#191970" stroke="#191970" points="44.6361,-113.0392 41.7933,-123.2455 50.3804,-117.0397 44.6361,-113.0392"/>
</g>
<!-- Node3 -->
<g id="node4" class="node">
<title>Node3</title>
<g id="a_node4"><a xlink:title=" ">
<polygon fill="none" stroke="#bfbfbf" points="83,-123.5 83,-142.5 143,-142.5 143,-123.5 83,-123.5"/>
<text text-anchor="middle" x="113" y="-130.5" font-family="Helvetica,sans-Serif" font-size="10.00" fill="#000000">Cloneable</text>
</a>
</g>
</g>
<!-- Node3&#45;&gt;Node1 -->
<g id="edge3" class="edge">
<title>Node3&#45;&gt;Node1</title>
<path fill="none" stroke="#191970" d="M100.4092,-114.9209C93.8605,-105.5176 86.1176,-94.3997 80.7154,-86.6427"/>
<polygon fill="#191970" stroke="#191970" points="97.6196,-117.0397 106.2067,-123.2455 103.3639,-113.0392 97.6196,-117.0397"/>
</g>
</g>
</svg>
