<?xml version="1.0" encoding="UTF-8" standalone="no"?>
<!DOCTYPE svg PUBLIC "-//W3C//DTD SVG 1.1//EN"
 "http://www.w3.org/Graphics/SVG/1.1/DTD/svg11.dtd">
<!-- Generated by graphviz version 2.38.0 (20140413.2041)
 -->
<!-- Title: ListOfTallies&lt; E extends Tally &gt; Pages: 1 -->
<svg width="133pt" height="162pt"
 viewBox="0.00 0.00 133.00 162.00" xmlns="http://www.w3.org/2000/svg" xmlns:xlink="http://www.w3.org/1999/xlink">
<g id="graph0" class="graph" transform="scale(1 1) rotate(0) translate(4 158)">
<title>ListOfTallies&lt; E extends Tally &gt;</title>
<!-- Node0 -->
<g id="node1" class="node"><title>Node0</title>
<polygon fill="#bfbfbf" stroke="black" points="-7.10543e-15,-67.5 -7.10543e-15,-97.5 125,-97.5 125,-67.5 -7.10543e-15,-67.5"/>
<text text-anchor="start" x="8" y="-85.5" font-family="Helvetica,sans-Serif" font-size="10.00">ListOfTallies&lt; E extends</text>
<text text-anchor="middle" x="62.5" y="-74.5" font-family="Helvetica,sans-Serif" font-size="10.00"> Tally &gt;</text>
</g>
<!-- Node2 -->
<g id="node3" class="node"><title>Node2</title>
<g id="a_node3"><a xlink:href="classumontreal_1_1ssj_1_1mcqmctools_1_1anova_1_1AnovaVarianceCollector.html" target="_top" xlink:title="Extends ListOfTallies to collect ANOVA variances. ">
<polygon fill="none" stroke="black" points="1.5,-0.5 1.5,-30.5 123.5,-30.5 123.5,-0.5 1.5,-0.5"/>
<text text-anchor="start" x="9.5" y="-18.5" font-family="Helvetica,sans-Serif" font-size="10.00">AnovaVarianceCollector</text>
<text text-anchor="middle" x="62.5" y="-7.5" font-family="Helvetica,sans-Serif" font-size="10.00">&lt; PartialVariance &gt;</text>
</a>
</g>
</g>
<!-- Node0&#45;&gt;Node2 -->
<g id="edge2" class="edge"><title>Node0&#45;&gt;Node2</title>
<path fill="none" stroke="midnightblue" d="M62.5,-57.1081C62.5,-48.1539 62.5,-38.3227 62.5,-30.5765"/>
<polygon fill="midnightblue" stroke="midnightblue" points="59.0001,-57.3959 62.5,-67.396 66.0001,-57.396 59.0001,-57.3959"/>
</g>
<!-- Node1 -->
<g id="node2" class="node"><title>Node1</title>
<g id="a_node2"><a xlink:href="classumontreal_1_1ssj_1_1stat_1_1list_1_1ListOfStatProbes.html" target="_top" xlink:title="ListOfStatProbes\&lt; E \&gt;">
<polygon fill="none" stroke="black" points="4.5,-134.5 4.5,-153.5 120.5,-153.5 120.5,-134.5 4.5,-134.5"/>
<text text-anchor="middle" x="62.5" y="-141.5" font-family="Helvetica,sans-Serif" font-size="10.00">ListOfStatProbes&lt; E &gt;</text>
</a>
</g>
</g>
<!-- Node1&#45;&gt;Node0 -->
<g id="edge1" class="edge"><title>Node1&#45;&gt;Node0</title>
<path fill="none" stroke="midnightblue" d="M62.5,-124.235C62.5,-115.586 62.5,-105.497 62.5,-97.523"/>
<polygon fill="midnightblue" stroke="midnightblue" points="59.0001,-124.475 62.5,-134.475 66.0001,-124.475 59.0001,-124.475"/>
</g>
</g>
</svg>
