<?xml version="1.0" encoding="UTF-8" standalone="no"?>
<!DOCTYPE svg PUBLIC "-//W3C//DTD SVG 1.1//EN"
 "http://www.w3.org/Graphics/SVG/1.1/DTD/svg11.dtd">
<!-- Generated by graphviz version 2.40.1 (0)
 -->
<!-- Title: RandomMultivariateGen Pages: 1 -->
<svg width="188pt" height="162pt"
 viewBox="0.00 0.00 188.00 162.00" xmlns="http://www.w3.org/2000/svg" xmlns:xlink="http://www.w3.org/1999/xlink">
<g id="graph0" class="graph" transform="scale(1 1) rotate(0) translate(4 158)">
<title>RandomMultivariateGen</title>
<!-- Node6 -->
<g id="node1" class="node">
<title>Node6</title>
<g id="a_node1"><a xlink:title="This class is the multivariate counterpart of umontreal.ssj.randvar.RandomVariateGen.">
<polygon fill="#bfbfbf" stroke="#000000" points="33.5,-.5 33.5,-19.5 155.5,-19.5 155.5,-.5 33.5,-.5"/>
<text text-anchor="middle" x="94.5" y="-7.5" font-family="Helvetica,sans-Serif" font-size="10.00" fill="#000000">RandomMultivariateGen</text>
</a>
</g>
</g>
<!-- Node7 -->
<g id="node2" class="node">
<title>Node7</title>
<g id="a_node2"><a xlink:href="classumontreal_1_1ssj_1_1randvar_1_1RandomVariateGen.html" target="_top" xlink:title="This is the base class for all random variate generators over the real line.">
<polygon fill="none" stroke="#000000" points="0,-67.5 0,-86.5 101,-86.5 101,-67.5 0,-67.5"/>
<text text-anchor="middle" x="50.5" y="-74.5" font-family="Helvetica,sans-Serif" font-size="10.00" fill="#000000">RandomVariateGen</text>
</a>
</g>
</g>
<!-- Node7&#45;&gt;Node6 -->
<g id="edge1" class="edge">
<title>Node7&#45;&gt;Node6</title>
<path fill="none" stroke="#9a32cd" stroke-dasharray="5,2" d="M62.3338,-58.9803C70.6619,-46.2989 81.4816,-29.8235 88.2076,-19.5817"/>
<polygon fill="#9a32cd" stroke="#9a32cd" points="59.3679,-57.1206 56.8041,-67.4005 65.219,-60.9631 59.3679,-57.1206"/>
<text text-anchor="middle" x="88" y="-41" font-family="Helvetica,sans-Serif" font-size="10.00" fill="#000000"> gen1</text>
</g>
<!-- Node8 -->
<g id="node3" class="node">
<title>Node8</title>
<g id="a_node3"><a xlink:href="interfaceumontreal_1_1ssj_1_1probdist_1_1Distribution.html" target="_top" xlink:title="This interface should be implemented by all classes supporting discrete and continuous distributions.">
<polygon fill="none" stroke="#000000" points="10.5,-134.5 10.5,-153.5 76.5,-153.5 76.5,-134.5 10.5,-134.5"/>
<text text-anchor="middle" x="43.5" y="-141.5" font-family="Helvetica,sans-Serif" font-size="10.00" fill="#000000">Distribution</text>
</a>
</g>
</g>
<!-- Node8&#45;&gt;Node7 -->
<g id="edge2" class="edge">
<title>Node8&#45;&gt;Node7</title>
<path fill="none" stroke="#9a32cd" stroke-dasharray="5,2" d="M44.7693,-124.2365C45.2328,-118.0675 45.8146,-111.244 46.5,-105 47.1751,-98.8498 48.1547,-91.9707 48.9754,-86.5701"/>
<polygon fill="#9a32cd" stroke="#9a32cd" points="41.267,-124.1489 44.0657,-134.3674 48.2502,-124.6339 41.267,-124.1489"/>
<text text-anchor="middle" x="56" y="-108" font-family="Helvetica,sans-Serif" font-size="10.00" fill="#000000"> dist</text>
</g>
<!-- Node9 -->
<g id="node4" class="node">
<title>Node9</title>
<g id="a_node4"><a xlink:href="interfaceumontreal_1_1ssj_1_1rng_1_1RandomStream.html" target="_top" xlink:title="This interface defines the basic structures to handle multiple streams of uniform (pseudo)random numb...">
<polygon fill="none" stroke="#000000" points="95,-134.5 95,-153.5 180,-153.5 180,-134.5 95,-134.5"/>
<text text-anchor="middle" x="137.5" y="-141.5" font-family="Helvetica,sans-Serif" font-size="10.00" fill="#000000">RandomStream</text>
</a>
</g>
</g>
<!-- Node9&#45;&gt;Node6 -->
<g id="edge4" class="edge">
<title>Node9&#45;&gt;Node6</title>
<path fill="none" stroke="#9a32cd" stroke-dasharray="5,2" d="M131.6992,-124.5228C125.288,-103.2013 114.5372,-68.0448 104.5,-38 102.4392,-31.8312 99.9845,-24.9519 98.0229,-19.5558"/>
<polygon fill="#9a32cd" stroke="#9a32cd" points="128.4085,-125.735 134.6295,-134.3111 135.1145,-123.7274 128.4085,-125.735"/>
<text text-anchor="middle" x="137.5" y="-74.5" font-family="Helvetica,sans-Serif" font-size="10.00" fill="#000000"> stream</text>
</g>
<!-- Node9&#45;&gt;Node7 -->
<g id="edge3" class="edge">
<title>Node9&#45;&gt;Node7</title>
<path fill="none" stroke="#9a32cd" stroke-dasharray="5,2" d="M109.5831,-129.3426C102.7888,-125.3401 95.6985,-120.7784 89.5,-116 77.9729,-107.1139 66.3852,-95.031 58.8726,-86.6802"/>
<polygon fill="#9a32cd" stroke="#9a32cd" points="108.1267,-132.5401 118.5531,-134.4218 111.5759,-126.4488 108.1267,-132.5401"/>
<text text-anchor="middle" x="106.5" y="-108" font-family="Helvetica,sans-Serif" font-size="10.00" fill="#000000"> stream</text>
</g>
</g>
</svg>
