<?xml version="1.0" encoding="UTF-8" standalone="no"?>
<!DOCTYPE svg PUBLIC "-//W3C//DTD SVG 1.1//EN"
 "http://www.w3.org/Graphics/SVG/1.1/DTD/svg11.dtd">
<!-- Generated by graphviz version 2.40.1 (20161225.0304)
 -->
<!-- Title: CallEv Pages: 1 -->
<svg width="693pt" height="363pt"
 viewBox="0.00 0.00 693.00 363.00" xmlns="http://www.w3.org/2000/svg" xmlns:xlink="http://www.w3.org/1999/xlink">
<g id="graph0" class="graph" transform="scale(1 1) rotate(0) translate(4 359)">
<title>CallEv</title>
<!-- Node1 -->
<g id="node1" class="node">
<title>Node1</title>
<polygon fill="#bfbfbf" stroke="#000000" points="273,-.5 273,-19.5 319,-19.5 319,-.5 273,-.5"/>
<text text-anchor="middle" x="296" y="-7.5" font-family="Helvetica,sans-Serif" font-size="10.00" fill="#000000">CallEv</text>
</g>
<!-- Node2 -->
<g id="node2" class="node">
<title>Node2</title>
<g id="a_node2"><a xlink:href="classumontreal_1_1ssj_1_1simevents_1_1LinkedListStat.html" target="_top" xlink:title="LinkedListStat\&lt; tutorial.\lCallEv.Call \&gt;">
<polygon fill="none" stroke="#000000" points="35,-111.5 35,-141.5 155,-141.5 155,-111.5 35,-111.5"/>
<text text-anchor="start" x="43" y="-129.5" font-family="Helvetica,sans-Serif" font-size="10.00" fill="#000000">LinkedListStat&lt; tutorial.</text>
<text text-anchor="middle" x="95" y="-118.5" font-family="Helvetica,sans-Serif" font-size="10.00" fill="#000000">CallEv.Call &gt;</text>
</a>
</g>
</g>
<!-- Node2&#45;&gt;Node1 -->
<g id="edge1" class="edge">
<title>Node2&#45;&gt;Node1</title>
<path fill="none" stroke="#9a32cd" stroke-dasharray="5,2" d="M106.1292,-102.2625C116.7773,-81.8751 134.7946,-53.6226 159,-38 177.5613,-26.0202 238.9749,-16.9221 272.9288,-12.6632"/>
<polygon fill="#9a32cd" stroke="#9a32cd" points="102.9647,-100.7653 101.6292,-111.2757 109.2276,-103.8922 102.9647,-100.7653"/>
<text text-anchor="middle" x="177.5" y="-63" font-family="Helvetica,sans-Serif" font-size="10.00" fill="#000000"> waitList</text>
</g>
<!-- Node3 -->
<g id="node3" class="node">
<title>Node3</title>
<g id="a_node3"><a xlink:href="classumontreal_1_1ssj_1_1stat_1_1Tally.html" target="_top" xlink:title="A subclass of StatProbe. ">
<polygon fill="none" stroke="#000000" points="173.5,-117 173.5,-136 210.5,-136 210.5,-117 173.5,-117"/>
<text text-anchor="middle" x="192" y="-124" font-family="Helvetica,sans-Serif" font-size="10.00" fill="#000000">Tally</text>
</a>
</g>
</g>
<!-- Node3&#45;&gt;Node1 -->
<g id="edge2" class="edge">
<title>Node3&#45;&gt;Node1</title>
<path fill="none" stroke="#9a32cd" stroke-dasharray="5,2" d="M195.3883,-106.8931C199.7469,-87.1424 209.1276,-56.9531 228,-38 240.1615,-25.7865 258.4066,-18.6679 272.937,-14.6671"/>
<polygon fill="#9a32cd" stroke="#9a32cd" points="191.9153,-106.4146 193.4116,-116.9033 198.7826,-107.7708 191.9153,-106.4146"/>
<text text-anchor="middle" x="260" y="-85" font-family="Helvetica,sans-Serif" font-size="10.00" fill="#000000"> statWaitsDay</text>
<text text-anchor="middle" x="260" y="-74" font-family="Helvetica,sans-Serif" font-size="10.00" fill="#000000">statWaits</text>
<text text-anchor="middle" x="260" y="-63" font-family="Helvetica,sans-Serif" font-size="10.00" fill="#000000">statArrivals</text>
<text text-anchor="middle" x="260" y="-52" font-family="Helvetica,sans-Serif" font-size="10.00" fill="#000000">statAbandon</text>
<text text-anchor="middle" x="260" y="-41" font-family="Helvetica,sans-Serif" font-size="10.00" fill="#000000">statGoodQoS</text>
</g>
<!-- Node4 -->
<g id="node4" class="node">
<title>Node4</title>
<g id="a_node4"><a xlink:href="classumontreal_1_1ssj_1_1stat_1_1StatProbe.html" target="_top" xlink:title="The objects of this class are statistical probes or collectors, which are elementary devices for coll...">
<polygon fill="none" stroke="#000000" points="0,-211.5 0,-230.5 60,-230.5 60,-211.5 0,-211.5"/>
<text text-anchor="middle" x="30" y="-218.5" font-family="Helvetica,sans-Serif" font-size="10.00" fill="#000000">StatProbe</text>
</a>
</g>
</g>
<!-- Node4&#45;&gt;Node3 -->
<g id="edge3" class="edge">
<title>Node4&#45;&gt;Node3</title>
<path fill="none" stroke="#191970" d="M54.5472,-206.041C75.1328,-193.5635 105.3548,-175.4013 132,-160 139.9533,-155.4029 160.0504,-144.2138 174.8027,-136.0273"/>
<polygon fill="#191970" stroke="#191970" points="52.5455,-203.1617 45.8145,-211.3436 56.1787,-209.145 52.5455,-203.1617"/>
</g>
<!-- Node5 -->
<g id="node5" class="node">
<title>Node5</title>
<polygon fill="none" stroke="#bfbfbf" points="78,-211.5 78,-230.5 138,-230.5 138,-211.5 78,-211.5"/>
<text text-anchor="middle" x="108" y="-218.5" font-family="Helvetica,sans-Serif" font-size="10.00" fill="#000000">Cloneable</text>
</g>
<!-- Node5&#45;&gt;Node3 -->
<g id="edge4" class="edge">
<title>Node5&#45;&gt;Node3</title>
<path fill="none" stroke="#191970" d="M123.5318,-203.5267C141.2128,-183.6356 169.4568,-151.8611 183.4992,-136.0634"/>
<polygon fill="#191970" stroke="#191970" points="120.7008,-201.4434 116.6731,-211.2428 125.9327,-206.0939 120.7008,-201.4434"/>
</g>
<!-- Node6 -->
<g id="node6" class="node">
<title>Node6</title>
<polygon fill="none" stroke="#bfbfbf" points="156.5,-211.5 156.5,-230.5 227.5,-230.5 227.5,-211.5 156.5,-211.5"/>
<text text-anchor="middle" x="192" y="-218.5" font-family="Helvetica,sans-Serif" font-size="10.00" fill="#000000">Tally.CIType</text>
</g>
<!-- Node6&#45;&gt;Node3 -->
<g id="edge5" class="edge">
<title>Node6&#45;&gt;Node3</title>
<path fill="none" stroke="#9a32cd" stroke-dasharray="5,2" d="M192,-201.0734C192,-181.108 192,-151.2264 192,-136.0634"/>
<polygon fill="#9a32cd" stroke="#9a32cd" points="188.5001,-201.2427 192,-211.2428 195.5001,-201.2428 188.5001,-201.2427"/>
<text text-anchor="middle" x="233.5" y="-174" font-family="Helvetica,sans-Serif" font-size="10.00" fill="#000000"> confidenceInterval</text>
</g>
<!-- Node7 -->
<g id="node7" class="node">
<title>Node7</title>
<g id="a_node7"><a xlink:href="classumontreal_1_1ssj_1_1randvar_1_1GammaGen.html" target="_top" xlink:title="This class implements random variate generators for the gamma distribution. ">
<polygon fill="none" stroke="#000000" points="261.5,-117 261.5,-136 330.5,-136 330.5,-117 261.5,-117"/>
<text text-anchor="middle" x="296" y="-124" font-family="Helvetica,sans-Serif" font-size="10.00" fill="#000000">GammaGen</text>
</a>
</g>
</g>
<!-- Node7&#45;&gt;Node1 -->
<g id="edge6" class="edge">
<title>Node7&#45;&gt;Node1</title>
<path fill="none" stroke="#9a32cd" stroke-dasharray="5,2" d="M296,-106.7359C296,-81.4699 296,-38.7196 296,-19.6654"/>
<polygon fill="#9a32cd" stroke="#9a32cd" points="292.5001,-106.9663 296,-116.9663 299.5001,-106.9664 292.5001,-106.9663"/>
<text text-anchor="middle" x="316" y="-63" font-family="Helvetica,sans-Serif" font-size="10.00" fill="#000000"> genServ</text>
</g>
<!-- Node8 -->
<g id="node8" class="node">
<title>Node8</title>
<g id="a_node8"><a xlink:href="classumontreal_1_1ssj_1_1randvar_1_1RandomVariateGen.html" target="_top" xlink:title="This is the base class for all random variate generators over the real line. ">
<polygon fill="none" stroke="#000000" points="245.5,-211.5 245.5,-230.5 346.5,-230.5 346.5,-211.5 245.5,-211.5"/>
<text text-anchor="middle" x="296" y="-218.5" font-family="Helvetica,sans-Serif" font-size="10.00" fill="#000000">RandomVariateGen</text>
</a>
</g>
</g>
<!-- Node8&#45;&gt;Node7 -->
<g id="edge7" class="edge">
<title>Node8&#45;&gt;Node7</title>
<path fill="none" stroke="#191970" d="M296,-201.0734C296,-181.108 296,-151.2264 296,-136.0634"/>
<polygon fill="#191970" stroke="#191970" points="292.5001,-201.2427 296,-211.2428 299.5001,-201.2428 292.5001,-201.2427"/>
</g>
<!-- Node9 -->
<g id="node9" class="node">
<title>Node9</title>
<g id="a_node9"><a xlink:href="interfaceumontreal_1_1ssj_1_1probdist_1_1Distribution.html" target="_top" xlink:title="This interface should be implemented by all classes supporting discrete and continuous distributions...">
<polygon fill="none" stroke="#000000" points="248,-278.5 248,-297.5 314,-297.5 314,-278.5 248,-278.5"/>
<text text-anchor="middle" x="281" y="-285.5" font-family="Helvetica,sans-Serif" font-size="10.00" fill="#000000">Distribution</text>
</a>
</g>
</g>
<!-- Node9&#45;&gt;Node8 -->
<g id="edge8" class="edge">
<title>Node9&#45;&gt;Node8</title>
<path fill="none" stroke="#9a32cd" stroke-dasharray="5,2" d="M280.5592,-268.0445C280.8118,-261.867 281.4913,-255.0871 283,-249 284.5988,-242.5494 287.6988,-235.7785 290.4706,-230.511"/>
<polygon fill="#9a32cd" stroke="#9a32cd" points="277.0579,-268.2059 280.4787,-278.2333 284.0577,-268.2613 277.0579,-268.2059"/>
<text text-anchor="middle" x="292.5" y="-252" font-family="Helvetica,sans-Serif" font-size="10.00" fill="#000000"> dist</text>
</g>
<!-- Node10 -->
<g id="node10" class="node">
<title>Node10</title>
<g id="a_node10"><a xlink:href="interfaceumontreal_1_1ssj_1_1rng_1_1RandomStream.html" target="_top" xlink:title="This interface defines the basic structures to handle multiple streams of uniform (pseudo)random numb...">
<polygon fill="none" stroke="#000000" points="332.5,-278.5 332.5,-297.5 417.5,-297.5 417.5,-278.5 332.5,-278.5"/>
<text text-anchor="middle" x="375" y="-285.5" font-family="Helvetica,sans-Serif" font-size="10.00" fill="#000000">RandomStream</text>
</a>
</g>
</g>
<!-- Node10&#45;&gt;Node1 -->
<g id="edge17" class="edge">
<title>Node10&#45;&gt;Node1</title>
<path fill="none" stroke="#9a32cd" stroke-dasharray="5,2" d="M377.4778,-268.2936C382.0778,-223.4438 387.5453,-111.9196 340,-38 334.906,-30.0802 326.6891,-23.9741 318.7274,-19.5152"/>
<polygon fill="#9a32cd" stroke="#9a32cd" points="373.9784,-268.0914 376.3318,-278.4215 380.934,-268.8785 373.9784,-268.0914"/>
<text text-anchor="middle" x="415.5" y="-185" font-family="Helvetica,sans-Serif" font-size="10.00" fill="#000000"> streamArr</text>
<text text-anchor="middle" x="415.5" y="-174" font-family="Helvetica,sans-Serif" font-size="10.00" fill="#000000">streamPatience</text>
<text text-anchor="middle" x="415.5" y="-163" font-family="Helvetica,sans-Serif" font-size="10.00" fill="#000000">streamW</text>
</g>
<!-- Node10&#45;&gt;Node8 -->
<g id="edge9" class="edge">
<title>Node10&#45;&gt;Node8</title>
<path fill="none" stroke="#9a32cd" stroke-dasharray="5,2" d="M345.998,-273.4147C339.4314,-269.4928 332.7162,-264.9495 327,-260 317.0611,-251.3943 307.9959,-239.2588 302.2708,-230.8191"/>
<polygon fill="#9a32cd" stroke="#9a32cd" points="344.324,-276.4888 354.7528,-278.3574 347.7655,-270.3932 344.324,-276.4888"/>
<text text-anchor="middle" x="344" y="-252" font-family="Helvetica,sans-Serif" font-size="10.00" fill="#000000"> stream</text>
</g>
<!-- Node11 -->
<g id="node11" class="node">
<title>Node11</title>
<g id="a_node11"><a xlink:href="classumontreal_1_1ssj_1_1simevents_1_1Event.html" target="_top" xlink:title="This abstract class provides event scheduling tools. ">
<polygon fill="none" stroke="#000000" points="439,-117 439,-136 481,-136 481,-117 439,-117"/>
<text text-anchor="middle" x="460" y="-124" font-family="Helvetica,sans-Serif" font-size="10.00" fill="#000000">Event</text>
</a>
</g>
</g>
<!-- Node11&#45;&gt;Node1 -->
<g id="edge10" class="edge">
<title>Node11&#45;&gt;Node1</title>
<path fill="none" stroke="#9a32cd" stroke-dasharray="5,2" d="M449.8642,-108.1064C437.8752,-88.0172 416.0827,-56.2734 389,-38 367.754,-23.6648 338.9515,-16.4816 319.0559,-13.011"/>
<polygon fill="#9a32cd" stroke="#9a32cd" points="446.918,-110.0039 454.9424,-116.9221 452.9836,-106.5099 446.918,-110.0039"/>
<text text-anchor="middle" x="466" y="-63" font-family="Helvetica,sans-Serif" font-size="10.00" fill="#000000"> nextArrival</text>
</g>
<!-- Node12 -->
<g id="node12" class="node">
<title>Node12</title>
<polygon fill="none" stroke="#bfbfbf" points="403.5,-211.5 403.5,-230.5 516.5,-230.5 516.5,-211.5 403.5,-211.5"/>
<text text-anchor="middle" x="460" y="-218.5" font-family="Helvetica,sans-Serif" font-size="10.00" fill="#000000">Comparable&lt; Event &gt;</text>
</g>
<!-- Node12&#45;&gt;Node11 -->
<g id="edge11" class="edge">
<title>Node12&#45;&gt;Node11</title>
<path fill="none" stroke="#191970" d="M460,-201.0734C460,-181.108 460,-151.2264 460,-136.0634"/>
<polygon fill="#191970" stroke="#191970" points="456.5001,-201.2427 460,-211.2428 463.5001,-201.2428 456.5001,-201.2427"/>
</g>
<!-- Node13 -->
<g id="node13" class="node">
<title>Node13</title>
<g id="a_node13"><a xlink:href="classumontreal_1_1ssj_1_1simevents_1_1Simulator.html" target="_top" xlink:title="Represents the executive of a discrete&#45;event simulator. ">
<polygon fill="none" stroke="#000000" points="535,-211.5 535,-230.5 593,-230.5 593,-211.5 535,-211.5"/>
<text text-anchor="middle" x="564" y="-218.5" font-family="Helvetica,sans-Serif" font-size="10.00" fill="#000000">Simulator</text>
</a>
</g>
</g>
<!-- Node13&#45;&gt;Node11 -->
<g id="edge12" class="edge">
<title>Node13&#45;&gt;Node11</title>
<path fill="none" stroke="#9a32cd" stroke-dasharray="5,2" d="M545.6426,-204.3195C523.8192,-184.4895 488.1435,-152.0727 470.5248,-136.0634"/>
<polygon fill="#9a32cd" stroke="#9a32cd" points="543.5071,-207.1081 553.2619,-211.2428 548.2146,-201.9274 543.5071,-207.1081"/>
<text text-anchor="middle" x="540.5" y="-174" font-family="Helvetica,sans-Serif" font-size="10.00" fill="#000000"> sim</text>
</g>
<!-- Node13&#45;&gt;Node13 -->
<g id="edge13" class="edge">
<title>Node13&#45;&gt;Node13</title>
<path fill="none" stroke="#9a32cd" stroke-dasharray="5,2" d="M603.603,-226.0845C608.0912,-225.1323 611,-223.4375 611,-221 611,-217 603.1667,-215 593.375,-215"/>
<polygon fill="#9a32cd" stroke="#9a32cd" points="603.0231,-222.6223 593.375,-227 603.6473,-229.5944 603.0231,-222.6223"/>
<text text-anchor="middle" x="648" y="-218.5" font-family="Helvetica,sans-Serif" font-size="10.00" fill="#000000"> defaultSimulator</text>
</g>
<!-- Node14 -->
<g id="node14" class="node">
<title>Node14</title>
<g id="a_node14"><a xlink:href="interfaceumontreal_1_1ssj_1_1simevents_1_1eventlist_1_1EventList.html" target="_top" xlink:title="An interface for implementations of event lists. ">
<polygon fill="none" stroke="#000000" points="482,-278.5 482,-297.5 540,-297.5 540,-278.5 482,-278.5"/>
<text text-anchor="middle" x="511" y="-285.5" font-family="Helvetica,sans-Serif" font-size="10.00" fill="#000000">EventList</text>
</a>
</g>
</g>
<!-- Node14&#45;&gt;Node13 -->
<g id="edge14" class="edge">
<title>Node14&#45;&gt;Node13</title>
<path fill="none" stroke="#9a32cd" stroke-dasharray="5,2" d="M521.2321,-269.2599C525.1915,-262.6157 529.9788,-255.2437 535,-249 540.3508,-242.3465 547.1878,-235.6755 552.8793,-230.5147"/>
<polygon fill="#9a32cd" stroke="#9a32cd" points="518.0135,-267.8383 516.0928,-278.2576 524.0918,-271.3102 518.0135,-267.8383"/>
<text text-anchor="middle" x="556.5" y="-252" font-family="Helvetica,sans-Serif" font-size="10.00" fill="#000000"> eventList</text>
</g>
<!-- Node15 -->
<g id="node15" class="node">
<title>Node15</title>
<polygon fill="none" stroke="#bfbfbf" points="465,-335.5 465,-354.5 557,-354.5 557,-335.5 465,-335.5"/>
<text text-anchor="middle" x="511" y="-342.5" font-family="Helvetica,sans-Serif" font-size="10.00" fill="#000000">Iterable&lt; Event &gt;</text>
</g>
<!-- Node15&#45;&gt;Node14 -->
<g id="edge15" class="edge">
<title>Node15&#45;&gt;Node14</title>
<path fill="none" stroke="#191970" d="M511,-325.2342C511,-315.8491 511,-305.0651 511,-297.5265"/>
<polygon fill="#191970" stroke="#191970" points="507.5001,-325.3307 511,-335.3307 514.5001,-325.3308 507.5001,-325.3307"/>
</g>
<!-- Node16 -->
<g id="node16" class="node">
<title>Node16</title>
<g id="a_node16"><a xlink:href="classumontreal_1_1ssj_1_1simevents_1_1ContinuousState.html" target="_top" xlink:title="Represents the portion of the simulator’s state associated with continuous&#45;time simulation. ">
<polygon fill="none" stroke="#000000" points="558.5,-278.5 558.5,-297.5 647.5,-297.5 647.5,-278.5 558.5,-278.5"/>
<text text-anchor="middle" x="603" y="-285.5" font-family="Helvetica,sans-Serif" font-size="10.00" fill="#000000">ContinuousState</text>
</a>
</g>
</g>
<!-- Node16&#45;&gt;Node13 -->
<g id="edge16" class="edge">
<title>Node16&#45;&gt;Node13</title>
<path fill="none" stroke="#9a32cd" stroke-dasharray="5,2" d="M592.2953,-269.6099C584.9433,-256.9795 575.4812,-240.7241 569.5774,-230.5817"/>
<polygon fill="#9a32cd" stroke="#9a32cd" points="589.3566,-271.5188 597.4123,-278.4005 595.4064,-267.9973 589.3566,-271.5188"/>
<text text-anchor="middle" x="623" y="-252" font-family="Helvetica,sans-Serif" font-size="10.00" fill="#000000"> continuousState</text>
</g>
</g>
</svg>
