<?xml version="1.0" encoding="UTF-8" standalone="no"?>
<!DOCTYPE svg PUBLIC "-//W3C//DTD SVG 1.1//EN"
 "http://www.w3.org/Graphics/SVG/1.1/DTD/svg11.dtd">
<!-- Generated by graphviz version 2.40.1 (0)
 -->
<!-- Title: TestOptionVGIS2017 Pages: 1 -->
<!--zoomable 193 -->
<svg id="main" version="1.1" xmlns="http://www.w3.org/2000/svg" xmlns:xlink="http://www.w3.org/1999/xlink" xml:space="preserve" onload="init(evt)">
<style type="text/css"><![CDATA[
.edge:hover path { stroke: red; }
.edge:hover polygon { stroke: red; fill: red; }
]]></style>
<script type="text/javascript"><![CDATA[
var edges = document.getElementsByTagName('g');
if (edges && edges.length) {
  for (var i=0;i<edges.length;i++) {
    if (edges[i].id.substr(0,4)=='edge') {
      edges[i].setAttribute('class','edge');
    }
  }
}
]]></script>
        <defs>
                <circle id="rim" cx="0" cy="0" r="7"/>
                <circle id="rim2" cx="0" cy="0" r="3.5"/>
                <g id="zoomPlus">
                        <use xlink:href="#rim" fill="#404040">
                                <set attributeName="fill" to="#808080" begin="zoomplus.mouseover" end="zoomplus.mouseout"/>
                        </use>
                        <path d="M-4,0h8M0,-4v8" fill="none" stroke="white" stroke-width="1.5" pointer-events="none"/>
                </g>
                <g id="zoomMin">
                        <use xlink:href="#rim" fill="#404040">
                                <set attributeName="fill" to="#808080" begin="zoomminus.mouseover" end="zoomminus.mouseout"/>
                        </use>
                        <path d="M-4,0h8" fill="none" stroke="white" stroke-width="1.5" pointer-events="none"/>
                </g>
                <g id="dirArrow">
                        <path fill="none" stroke="white" stroke-width="1.5" d="M0,-3.0v7 M-2.5,-0.5L0,-3.0L2.5,-0.5"/>
                </g>
               <g id="resetDef">
                       <use xlink:href="#rim2" fill="#404040">
                               <set attributeName="fill" to="#808080" begin="reset.mouseover" end="reset.mouseout"/>
                       </use>
               </g>
        </defs>

<script type="text/javascript">
var viewWidth = 692;
var viewHeight = 193;
var sectionId = 'dynsection-0';
</script>
<script xlink:href="svgpan.js"/>
<svg id="graph" class="graph">
<g id="viewport">
<title>TestOptionVGIS2017</title>
<!-- Node1 -->
<g id="node1" class="node">
<title>Node1</title>
<g id="a_node1"><a xlink:title=" ">
<polygon fill="#bfbfbf" stroke="#000000" points="576,-94 576,-113 684,-113 684,-94 576,-94"/>
<text text-anchor="middle" x="630" y="-101" font-family="Helvetica,sans-Serif" font-size="10.00" fill="#000000">TestOptionVGIS2017</text>
</a>
</g>
</g>
<!-- Node2 -->
<g id="node2" class="node">
<title>Node2</title>
<g id="a_node2"><a xlink:href="classumontreal_1_1ssj_1_1probdist_1_1GammaDist.html" target="_top" xlink:title="Extends the class ContinuousDistribution for the gamma distribution   (page 337) with shape parameter...">
<polygon fill="none" stroke="#000000" points="391.5,-146 391.5,-165 460.5,-165 460.5,-146 391.5,-146"/>
<text text-anchor="middle" x="426" y="-153" font-family="Helvetica,sans-Serif" font-size="10.00" fill="#000000">GammaDist</text>
</a>
</g>
</g>
<!-- Node2&#45;&gt;Node1 -->
<g id="edge1" class="edge">
<title>Node2&#45;&gt;Node1</title>
<path fill="none" stroke="#9a32cd" stroke-dasharray="5,2" d="M470.7763,-148.981C496.5386,-144.7442 529.3761,-138.5136 558,-130.5 574.9695,-125.7492 593.5818,-118.7192 607.6311,-113.0235"/>
<polygon fill="#9a32cd" stroke="#9a32cd" points="469.8805,-145.5798 460.5604,-150.6181 470.9882,-152.4916 469.8805,-145.5798"/>
<text text-anchor="middle" x="536" y="-176.5" font-family="Helvetica,sans-Serif" font-size="10.00" fill="#000000"> distPos</text>
<text text-anchor="middle" x="536" y="-165.5" font-family="Helvetica,sans-Serif" font-size="10.00" fill="#000000">distPosIS</text>
<text text-anchor="middle" x="536" y="-154.5" font-family="Helvetica,sans-Serif" font-size="10.00" fill="#000000">distNeg</text>
<text text-anchor="middle" x="536" y="-143.5" font-family="Helvetica,sans-Serif" font-size="10.00" fill="#000000">distNegIS</text>
</g>
<!-- Node3 -->
<g id="node3" class="node">
<title>Node3</title>
<g id="a_node3"><a xlink:href="classumontreal_1_1ssj_1_1probdist_1_1ContinuousDistribution.html" target="_top" xlink:title="Classes implementing continuous distributions should inherit from this base class.">
<polygon fill="none" stroke="#000000" points="182,-146 182,-165 298,-165 298,-146 182,-146"/>
<text text-anchor="middle" x="240" y="-153" font-family="Helvetica,sans-Serif" font-size="10.00" fill="#000000">ContinuousDistribution</text>
</a>
</g>
</g>
<!-- Node3&#45;&gt;Node2 -->
<g id="edge2" class="edge">
<title>Node3&#45;&gt;Node2</title>
<path fill="none" stroke="#191970" d="M308.3147,-155.5C336.5362,-155.5 368.0271,-155.5 391.3271,-155.5"/>
<polygon fill="#191970" stroke="#191970" points="308.0865,-152.0001 298.0865,-155.5 308.0864,-159.0001 308.0865,-152.0001"/>
</g>
<!-- Node4 -->
<g id="node4" class="node">
<title>Node4</title>
<g id="a_node4"><a xlink:href="interfaceumontreal_1_1ssj_1_1probdist_1_1Distribution.html" target="_top" xlink:title="This interface should be implemented by all classes supporting discrete and continuous distributions.">
<polygon fill="none" stroke="#000000" points="29,-146 29,-165 95,-165 95,-146 29,-146"/>
<text text-anchor="middle" x="62" y="-153" font-family="Helvetica,sans-Serif" font-size="10.00" fill="#000000">Distribution</text>
</a>
</g>
</g>
<!-- Node4&#45;&gt;Node3 -->
<g id="edge3" class="edge">
<title>Node4&#45;&gt;Node3</title>
<path fill="none" stroke="#191970" d="M105.2203,-155.5C128.2612,-155.5 156.9272,-155.5 181.8913,-155.5"/>
<polygon fill="#191970" stroke="#191970" points="105.0633,-152.0001 95.0633,-155.5 105.0632,-159.0001 105.0633,-152.0001"/>
</g>
<!-- Node5 -->
<g id="node5" class="node">
<title>Node5</title>
<g id="a_node5"><a xlink:href="classift6561examples_1_1TestOptionVGIS2017_1_1OptionVGIS1.html" target="_top" xlink:title=" ">
<polygon fill="none" stroke="#000000" points="356,-49.5 356,-79.5 496,-79.5 496,-49.5 356,-49.5"/>
<text text-anchor="start" x="364" y="-67.5" font-family="Helvetica,sans-Serif" font-size="10.00" fill="#000000">TestOptionVGIS2017.Option</text>
<text text-anchor="middle" x="426" y="-56.5" font-family="Helvetica,sans-Serif" font-size="10.00" fill="#000000">VGIS1</text>
</a>
</g>
</g>
<!-- Node5&#45;&gt;Node1 -->
<g id="edge4" class="edge">
<title>Node5&#45;&gt;Node1</title>
<path fill="none" stroke="#9a32cd" stroke-dasharray="5,2" d="M506.0576,-79.8051C531.081,-84.589 557.954,-89.7265 580.2591,-93.9907"/>
<polygon fill="#9a32cd" stroke="#9a32cd" points="506.6846,-76.3617 496.2052,-77.9216 505.3701,-83.2372 506.6846,-76.3617"/>
<text text-anchor="middle" x="536" y="-92.5" font-family="Helvetica,sans-Serif" font-size="10.00" fill="#000000"> vgis1</text>
</g>
<!-- Node6 -->
<g id="node6" class="node">
<title>Node6</title>
<g id="a_node6"><a xlink:href="classift6561examples_1_1TestOptionVGIS2017_1_1OptionVG1.html" target="_top" xlink:title=" ">
<polygon fill="none" stroke="#000000" points="161,-55 161,-74 319,-74 319,-55 161,-55"/>
<text text-anchor="middle" x="240" y="-62" font-family="Helvetica,sans-Serif" font-size="10.00" fill="#000000">TestOptionVGIS2017.OptionVG1</text>
</a>
</g>
</g>
<!-- Node6&#45;&gt;Node1 -->
<g id="edge9" class="edge">
<title>Node6&#45;&gt;Node1</title>
<path fill="none" stroke="#9a32cd" stroke-dasharray="5,2" d="M290.3032,-76.2299C310.6132,-80.6193 334.3303,-85.3092 356,-88.5 425.7453,-98.7699 443.5855,-99.0823 514,-102.5 534.2165,-103.4812 556.4376,-103.8462 575.9735,-103.9275"/>
<polygon fill="#9a32cd" stroke="#9a32cd" points="290.845,-72.7656 280.3271,-74.0396 289.3438,-79.6027 290.845,-72.7656"/>
<text text-anchor="middle" x="426" y="-105.5" font-family="Helvetica,sans-Serif" font-size="10.00" fill="#000000"> vg1</text>
</g>
<!-- Node6&#45;&gt;Node5 -->
<g id="edge5" class="edge">
<title>Node6&#45;&gt;Node5</title>
<path fill="none" stroke="#191970" d="M329.1819,-64.5C338.1,-64.5 347.065,-64.5 355.7482,-64.5"/>
<polygon fill="#191970" stroke="#191970" points="329.1505,-61.0001 319.1504,-64.5 329.1504,-68.0001 329.1505,-61.0001"/>
</g>
<!-- Node8 -->
<g id="node8" class="node">
<title>Node8</title>
<g id="a_node8"><a xlink:href="classift6561examples_1_1TestOptionVGIS2017_1_1OptionVGIS2.html" target="_top" xlink:title=" ">
<polygon fill="none" stroke="#000000" points="356,-.5 356,-30.5 496,-30.5 496,-.5 356,-.5"/>
<text text-anchor="start" x="364" y="-18.5" font-family="Helvetica,sans-Serif" font-size="10.00" fill="#000000">TestOptionVGIS2017.Option</text>
<text text-anchor="middle" x="426" y="-7.5" font-family="Helvetica,sans-Serif" font-size="10.00" fill="#000000">VGIS2</text>
</a>
</g>
</g>
<!-- Node6&#45;&gt;Node8 -->
<g id="edge8" class="edge">
<title>Node6&#45;&gt;Node8</title>
<path fill="none" stroke="#191970" d="M286.2706,-52.3104C311.2906,-45.7192 342.407,-37.5218 368.9209,-30.537"/>
<polygon fill="#191970" stroke="#191970" points="285.0826,-49.0039 276.3042,-54.936 286.8659,-55.7729 285.0826,-49.0039"/>
</g>
<!-- Node7 -->
<g id="node7" class="node">
<title>Node7</title>
<g id="a_node7"><a xlink:href="interfaceumontreal_1_1ssj_1_1mcqmctools_1_1MonteCarloModelDouble.html" target="_top" xlink:title="An interface for a very simple simulation model for which Monte Carlo (MC) and RQMC experiments are t...">
<polygon fill="none" stroke="#000000" points="0,-55 0,-74 124,-74 124,-55 0,-55"/>
<text text-anchor="middle" x="62" y="-62" font-family="Helvetica,sans-Serif" font-size="10.00" fill="#000000">MonteCarloModelDouble</text>
</a>
</g>
</g>
<!-- Node7&#45;&gt;Node6 -->
<g id="edge6" class="edge">
<title>Node7&#45;&gt;Node6</title>
<path fill="none" stroke="#191970" d="M134.3811,-64.5C143.1109,-64.5 152.062,-64.5 160.8819,-64.5"/>
<polygon fill="#191970" stroke="#191970" points="134.2558,-61.0001 124.2558,-64.5 134.2557,-68.0001 134.2558,-61.0001"/>
</g>
<!-- Node8&#45;&gt;Node1 -->
<g id="edge7" class="edge">
<title>Node8&#45;&gt;Node1</title>
<path fill="none" stroke="#9a32cd" stroke-dasharray="5,2" d="M481.3507,-33.9362C486.3264,-35.7565 491.2691,-37.6255 496,-39.5 538.4238,-56.3093 586.2411,-80.4692 611.7134,-93.7797"/>
<polygon fill="#9a32cd" stroke="#9a32cd" points="482.383,-30.5882 471.7885,-30.507 480.02,-37.1773 482.383,-30.5882"/>
<text text-anchor="middle" x="536" y="-69.5" font-family="Helvetica,sans-Serif" font-size="10.00" fill="#000000"> vgis2</text>
</g>
</g>
</svg>
        <g id="navigator" transform="translate(0 0)" fill="#404254">
                <rect fill="#f2f5e9" fill-opacity="0.5" stroke="#606060" stroke-width=".5" x="0" y="0" width="60" height="60"/>
                <use id="zoomplus" xlink:href="#zoomPlus" x="17" y="9" onmousedown="handleZoom(evt,'in')"/>
                <use id="zoomminus" xlink:href="#zoomMin" x="42" y="9" onmousedown="handleZoom(evt,'out')"/>
                <use id="reset" xlink:href="#resetDef" x="30" y="36" onmousedown="handleReset()"/>
                <g id="arrowUp" xlink:href="#dirArrow" transform="translate(30 24)" onmousedown="handlePan(0,-1)">
                  <use xlink:href="#rim" fill="#404040">
                        <set attributeName="fill" to="#808080" begin="arrowUp.mouseover" end="arrowUp.mouseout"/>
                  </use>
                  <path fill="none" stroke="white" stroke-width="1.5" d="M0,-3.0v7 M-2.5,-0.5L0,-3.0L2.5,-0.5"/>
                </g>
                <g id="arrowRight" xlink:href="#dirArrow" transform="rotate(90) translate(36 -43)" onmousedown="handlePan(1,0)">
                  <use xlink:href="#rim" fill="#404040">
                        <set attributeName="fill" to="#808080" begin="arrowRight.mouseover" end="arrowRight.mouseout"/>
                  </use>
                  <path fill="none" stroke="white" stroke-width="1.5" d="M0,-3.0v7 M-2.5,-0.5L0,-3.0L2.5,-0.5"/>
                </g>
                <g id="arrowDown" xlink:href="#dirArrow" transform="rotate(180) translate(-30 -48)" onmousedown="handlePan(0,1)">
                  <use xlink:href="#rim" fill="#404040">
                        <set attributeName="fill" to="#808080" begin="arrowDown.mouseover" end="arrowDown.mouseout"/>
                  </use>
                  <path fill="none" stroke="white" stroke-width="1.5" d="M0,-3.0v7 M-2.5,-0.5L0,-3.0L2.5,-0.5"/>
                </g>
                <g id="arrowLeft" xlink:href="#dirArrow" transform="rotate(270) translate(-36 17)" onmousedown="handlePan(-1,0)">
                  <use xlink:href="#rim" fill="#404040">
                        <set attributeName="fill" to="#808080" begin="arrowLeft.mouseover" end="arrowLeft.mouseout"/>
                  </use>
                  <path fill="none" stroke="white" stroke-width="1.5" d="M0,-3.0v7 M-2.5,-0.5L0,-3.0L2.5,-0.5"/>
                </g>
        </g>
        <svg viewBox="0 0 15 15" width="100%" height="30px" preserveAspectRatio="xMaxYMin meet">
         <g id="arrow_out" transform="scale(0.3 0.3)">
          <a xlink:href="classift6561examples_1_1TestOptionVGIS2017__coll__graph_org.svg" target="_base">
           <rect id="button" ry="5" rx="5" y="6" x="6" height="38" width="38"
                fill="#f2f5e9" fill-opacity="0.5" stroke="#606060" stroke-width="1.0"/>
           <path id="arrow"
             d="M 11.500037,31.436501 C 11.940474,20.09759 22.043105,11.32322 32.158766,21.979434 L 37.068811,17.246167 C 37.068811,17.246167 37.088388,32 37.088388,32 L 22.160133,31.978069 C 22.160133,31.978069 26.997745,27.140456 26.997745,27.140456 C 18.528582,18.264221 13.291696,25.230495 11.500037,31.436501 z"
             style="fill:#404040;"/>
          </a>
         </g>
        </svg>
</svg>
