<?xml version="1.0" encoding="UTF-8" standalone="no"?>
<!DOCTYPE svg PUBLIC "-//W3C//DTD SVG 1.1//EN"
 "http://www.w3.org/Graphics/SVG/1.1/DTD/svg11.dtd">
<!-- Generated by graphviz version 2.38.0 (20140413.2041)
 -->
<!-- Title: DensityDerivativeEstimator Pages: 1 -->
<svg width="226pt" height="209pt"
 viewBox="0.00 0.00 225.50 209.00" xmlns="http://www.w3.org/2000/svg" xmlns:xlink="http://www.w3.org/1999/xlink">
<g id="graph0" class="graph" transform="scale(1 1) rotate(0) translate(4 205)">
<title>DensityDerivativeEstimator</title>
<!-- Node4 -->
<g id="node1" class="node"><title>Node4</title>
<polygon fill="#bfbfbf" stroke="black" points="47.5,-0.5 47.5,-19.5 184.5,-19.5 184.5,-0.5 47.5,-0.5"/>
<text text-anchor="middle" x="116" y="-7.5" font-family="Helvetica,sans-Serif" font-size="10.00">DensityDerivativeEstimator</text>
</g>
<!-- Node5 -->
<g id="node2" class="node"><title>Node5</title>
<g id="a_node2"><a xlink:href="classumontreal_1_1ssj_1_1stat_1_1density_1_1DEBandwidthBased.html" target="_top" xlink:title="Implements an abstract class for density estimators that rely on the selection of a bandwidth &#160;such a...">
<polygon fill="none" stroke="black" points="0,-67.5 0,-86.5 104,-86.5 104,-67.5 0,-67.5"/>
<text text-anchor="middle" x="52" y="-74.5" font-family="Helvetica,sans-Serif" font-size="10.00">DEBandwidthBased</text>
</a>
</g>
</g>
<!-- Node5&#45;&gt;Node4 -->
<g id="edge1" class="edge"><title>Node5&#45;&gt;Node4</title>
<path fill="none" stroke="midnightblue" d="M67.757,-59.9968C80.3081,-47.2496 97.396,-29.8947 107.505,-19.6273"/>
<polygon fill="midnightblue" stroke="midnightblue" points="65.1534,-57.6525 60.6313,-67.2338 70.1414,-62.5637 65.1534,-57.6525"/>
</g>
<!-- Node6 -->
<g id="node3" class="node"><title>Node6</title>
<g id="a_node3"><a xlink:href="classumontreal_1_1ssj_1_1stat_1_1density_1_1DensityEstimator.html" target="_top" xlink:title="This abstract class implements a univariate density estimator over a finite interval ...">
<polygon fill="none" stroke="black" points="4,-124.5 4,-143.5 96,-143.5 96,-124.5 4,-124.5"/>
<text text-anchor="middle" x="50" y="-131.5" font-family="Helvetica,sans-Serif" font-size="10.00">DensityEstimator</text>
</a>
</g>
</g>
<!-- Node6&#45;&gt;Node5 -->
<g id="edge2" class="edge"><title>Node6&#45;&gt;Node5</title>
<path fill="none" stroke="midnightblue" d="M50.6867,-114.117C51.0248,-104.817 51.4162,-94.0557 51.6831,-86.7149"/>
<polygon fill="midnightblue" stroke="midnightblue" points="47.1783,-114.286 50.3125,-124.406 54.1737,-114.54 47.1783,-114.286"/>
</g>
<!-- Node7 -->
<g id="node4" class="node"><title>Node7</title>
<g id="a_node4"><a xlink:href="classumontreal_1_1ssj_1_1probdist_1_1EmpiricalDist.html" target="_top" xlink:title="Extends DiscreteDistribution to an empirical distribution function, based on the observations &#160;(sorte...">
<polygon fill="none" stroke="black" points="123.5,-67.5 123.5,-86.5 198.5,-86.5 198.5,-67.5 123.5,-67.5"/>
<text text-anchor="middle" x="161" y="-74.5" font-family="Helvetica,sans-Serif" font-size="10.00">EmpiricalDist</text>
</a>
</g>
</g>
<!-- Node7&#45;&gt;Node4 -->
<g id="edge3" class="edge"><title>Node7&#45;&gt;Node4</title>
<path fill="none" stroke="#9a32cd" stroke-dasharray="5,2" d="M149.164,-58.9037C140.42,-46.2729 128.88,-29.6041 121.973,-19.6273"/>
<polygon fill="#9a32cd" stroke="#9a32cd" points="146.361,-61.0041 154.931,-67.2338 152.117,-57.0196 146.361,-61.0041"/>
<text text-anchor="middle" x="150.5" y="-41" font-family="Helvetica,sans-Serif" font-size="10.00"> dist</text>
</g>
<!-- Node8 -->
<g id="node5" class="node"><title>Node8</title>
<g id="a_node5"><a xlink:href="classumontreal_1_1ssj_1_1probdist_1_1DiscreteDistribution.html" target="_top" xlink:title="This class implements discrete distributions over a finite set of real numbers (also over integers as...">
<polygon fill="none" stroke="black" points="114.5,-124.5 114.5,-143.5 217.5,-143.5 217.5,-124.5 114.5,-124.5"/>
<text text-anchor="middle" x="166" y="-131.5" font-family="Helvetica,sans-Serif" font-size="10.00">DiscreteDistribution</text>
</a>
</g>
</g>
<!-- Node8&#45;&gt;Node7 -->
<g id="edge4" class="edge"><title>Node8&#45;&gt;Node7</title>
<path fill="none" stroke="midnightblue" d="M164.311,-114.423C163.459,-105.054 162.467,-94.1364 161.792,-86.7149"/>
<polygon fill="midnightblue" stroke="midnightblue" points="160.828,-114.764 165.219,-124.406 167.799,-114.13 160.828,-114.764"/>
</g>
<!-- Node9 -->
<g id="node6" class="node"><title>Node9</title>
<g id="a_node6"><a xlink:href="interfaceumontreal_1_1ssj_1_1probdist_1_1Distribution.html" target="_top" xlink:title="This interface should be implemented by all classes supporting discrete and continuous distributions...">
<polygon fill="none" stroke="black" points="133,-181.5 133,-200.5 199,-200.5 199,-181.5 133,-181.5"/>
<text text-anchor="middle" x="166" y="-188.5" font-family="Helvetica,sans-Serif" font-size="10.00">Distribution</text>
</a>
</g>
</g>
<!-- Node9&#45;&gt;Node8 -->
<g id="edge5" class="edge"><title>Node9&#45;&gt;Node8</title>
<path fill="none" stroke="midnightblue" d="M166,-171.117C166,-161.817 166,-151.056 166,-143.715"/>
<polygon fill="midnightblue" stroke="midnightblue" points="162.5,-171.406 166,-181.406 169.5,-171.406 162.5,-171.406"/>
</g>
</g>
</svg>
