<?xml version="1.0" encoding="UTF-8" standalone="no"?>
<!DOCTYPE svg PUBLIC "-//W3C//DTD SVG 1.1//EN"
 "http://www.w3.org/Graphics/SVG/1.1/DTD/svg11.dtd">
<!-- Generated by graphviz version 2.40.1 (0)
 -->
<!-- Title: Replicator Pages: 1 -->
<svg width="452pt" height="173pt"
 viewBox="0.00 0.00 451.50 173.00" xmlns="http://www.w3.org/2000/svg" xmlns:xlink="http://www.w3.org/1999/xlink">
<g id="graph0" class="graph" transform="scale(1 1) rotate(0) translate(4 169)">
<title>Replicator</title>
<!-- Node3 -->
<g id="node1" class="node">
<title>Node3</title>
<g id="a_node1"><a xlink:title="Replicator class.">
<polygon fill="#bfbfbf" stroke="#000000" points="124,-.5 124,-19.5 185,-19.5 185,-.5 124,-.5"/>
<text text-anchor="middle" x="154.5" y="-7.5" font-family="Helvetica,sans-Serif" font-size="10.00" fill="#000000">Replicator</text>
</a>
</g>
</g>
<!-- Node4 -->
<g id="node2" class="node">
<title>Node4</title>
<g id="a_node2"><a xlink:href="interfaceumontreal_1_1ssj_1_1mcqmctools_1_1anova_1_1RandomIntegrator.html" target="_top" xlink:title=" ">
<polygon fill="none" stroke="#000000" points="0,-73 0,-92 95,-92 95,-73 0,-73"/>
<text text-anchor="middle" x="47.5" y="-80" font-family="Helvetica,sans-Serif" font-size="10.00" fill="#000000">RandomIntegrator</text>
</a>
</g>
</g>
<!-- Node4&#45;&gt;Node3 -->
<g id="edge1" class="edge">
<title>Node4&#45;&gt;Node3</title>
<path fill="none" stroke="#191970" d="M62.8137,-65.0832C71.2469,-56.2004 82.2627,-45.6809 93.5,-38 104.2746,-30.6354 117.2972,-24.3555 128.5384,-19.6207"/>
<polygon fill="#191970" stroke="#191970" points="60.0487,-62.9194 55.8627,-72.6522 65.2045,-67.6542 60.0487,-62.9194"/>
</g>
<!-- Node4&#45;&gt;Node3 -->
<g id="edge4" class="edge">
<title>Node4&#45;&gt;Node3</title>
<path fill="none" stroke="#9a32cd" stroke-dasharray="5,2" d="M70.3568,-67.0129C91.556,-52.649 122.4398,-31.7231 140.2981,-19.6228"/>
<polygon fill="#9a32cd" stroke="#9a32cd" points="68.2458,-64.2154 61.9305,-72.7223 72.1724,-70.0105 68.2458,-64.2154"/>
<text text-anchor="middle" x="133.5" y="-41" font-family="Helvetica,sans-Serif" font-size="10.00" fill="#000000"> integrator</text>
</g>
<!-- Node5 -->
<g id="node3" class="node">
<title>Node5</title>
<g id="a_node3"><a xlink:href="interfaceumontreal_1_1ssj_1_1mcqmctools_1_1anova_1_1Integrator.html" target="_top" xlink:title=" ">
<polygon fill="none" stroke="#000000" points="18.5,-145.5 18.5,-164.5 76.5,-164.5 76.5,-145.5 18.5,-145.5"/>
<text text-anchor="middle" x="47.5" y="-152.5" font-family="Helvetica,sans-Serif" font-size="10.00" fill="#000000">Integrator</text>
</a>
</g>
</g>
<!-- Node5&#45;&gt;Node4 -->
<g id="edge2" class="edge">
<title>Node5&#45;&gt;Node4</title>
<path fill="none" stroke="#191970" d="M47.5,-135.1054C47.5,-121.1237 47.5,-103.0346 47.5,-92.1228"/>
<polygon fill="#191970" stroke="#191970" points="44.0001,-135.2223 47.5,-145.2223 51.0001,-135.2224 44.0001,-135.2223"/>
</g>
<!-- Node6 -->
<g id="node4" class="node">
<title>Node6</title>
<g id="a_node4"><a xlink:href="classumontreal_1_1ssj_1_1stat_1_1list_1_1ListOfTallies.html" target="_top" xlink:title=" ">
<polygon fill="none" stroke="#000000" points="113,-67.5 113,-97.5 274,-97.5 274,-67.5 113,-67.5"/>
<text text-anchor="start" x="121" y="-85.5" font-family="Helvetica,sans-Serif" font-size="10.00" fill="#000000">ListOfTallies&lt; umontreal.ssj.stat.</text>
<text text-anchor="middle" x="193.5" y="-74.5" font-family="Helvetica,sans-Serif" font-size="10.00" fill="#000000">Tally &gt;</text>
</a>
</g>
</g>
<!-- Node6&#45;&gt;Node3 -->
<g id="edge3" class="edge">
<title>Node6&#45;&gt;Node3</title>
<path fill="none" stroke="#9a32cd" stroke-dasharray="5,2" d="M180.5673,-58.4585C173.5025,-45.3252 165.1356,-29.7713 159.8232,-19.8957"/>
<polygon fill="#9a32cd" stroke="#9a32cd" points="177.5994,-60.3294 185.4192,-67.478 183.7641,-57.0132 177.5994,-60.3294"/>
<text text-anchor="middle" x="205.5" y="-41" font-family="Helvetica,sans-Serif" font-size="10.00" fill="#000000"> statValueList</text>
</g>
<!-- Node7 -->
<g id="node5" class="node">
<title>Node7</title>
<g id="a_node5"><a xlink:href="classumontreal_1_1ssj_1_1stat_1_1Tally.html" target="_top" xlink:title="A subclass of StatProbe.">
<polygon fill="none" stroke="#000000" points="292,-73 292,-92 329,-92 329,-73 292,-73"/>
<text text-anchor="middle" x="310.5" y="-80" font-family="Helvetica,sans-Serif" font-size="10.00" fill="#000000">Tally</text>
</a>
</g>
</g>
<!-- Node7&#45;&gt;Node3 -->
<g id="edge5" class="edge">
<title>Node7&#45;&gt;Node3</title>
<path fill="none" stroke="#9a32cd" stroke-dasharray="5,2" d="M289.1738,-67.2257C275.4624,-57.8949 256.9986,-46.2175 239.5,-38 222.0613,-29.8106 201.5737,-22.9854 185.0823,-18.1241"/>
<polygon fill="#9a32cd" stroke="#9a32cd" points="287.2282,-70.1357 297.4401,-72.9586 291.2175,-64.3837 287.2282,-70.1357"/>
<text text-anchor="middle" x="282.5" y="-41" font-family="Helvetica,sans-Serif" font-size="10.00" fill="#000000"> statValue</text>
</g>
<!-- Node8 -->
<g id="node6" class="node">
<title>Node8</title>
<g id="a_node6"><a xlink:href="classumontreal_1_1ssj_1_1stat_1_1StatProbe.html" target="_top" xlink:title="The objects of this class are statistical probes or collectors, which are elementary devices for coll...">
<polygon fill="none" stroke="#000000" points="202.5,-145.5 202.5,-164.5 262.5,-164.5 262.5,-145.5 202.5,-145.5"/>
<text text-anchor="middle" x="232.5" y="-152.5" font-family="Helvetica,sans-Serif" font-size="10.00" fill="#000000">StatProbe</text>
</a>
</g>
</g>
<!-- Node8&#45;&gt;Node7 -->
<g id="edge6" class="edge">
<title>Node8&#45;&gt;Node7</title>
<path fill="none" stroke="#191970" d="M250.4186,-138.3449C265.8149,-124.0343 287.4777,-103.8989 300.1472,-92.1228"/>
<polygon fill="#191970" stroke="#191970" points="247.9612,-135.8506 243.0194,-145.2223 252.7269,-140.9778 247.9612,-135.8506"/>
</g>
<!-- Node9 -->
<g id="node7" class="node">
<title>Node9</title>
<g id="a_node7"><a xlink:title=" ">
<polygon fill="none" stroke="#bfbfbf" points="280.5,-145.5 280.5,-164.5 340.5,-164.5 340.5,-145.5 280.5,-145.5"/>
<text text-anchor="middle" x="310.5" y="-152.5" font-family="Helvetica,sans-Serif" font-size="10.00" fill="#000000">Cloneable</text>
</a>
</g>
</g>
<!-- Node9&#45;&gt;Node7 -->
<g id="edge7" class="edge">
<title>Node9&#45;&gt;Node7</title>
<path fill="none" stroke="#191970" d="M310.5,-135.1054C310.5,-121.1237 310.5,-103.0346 310.5,-92.1228"/>
<polygon fill="#191970" stroke="#191970" points="307.0001,-135.2223 310.5,-145.2223 314.0001,-135.2224 307.0001,-135.2223"/>
</g>
<!-- Node10 -->
<g id="node8" class="node">
<title>Node10</title>
<g id="a_node8"><a xlink:title=" ">
<polygon fill="none" stroke="#bfbfbf" points="359,-145.5 359,-164.5 430,-164.5 430,-145.5 359,-145.5"/>
<text text-anchor="middle" x="394.5" y="-152.5" font-family="Helvetica,sans-Serif" font-size="10.00" fill="#000000">Tally.CIType</text>
</a>
</g>
</g>
<!-- Node10&#45;&gt;Node7 -->
<g id="edge8" class="edge">
<title>Node10&#45;&gt;Node7</title>
<path fill="none" stroke="#9a32cd" stroke-dasharray="5,2" d="M375.203,-138.3449C358.6225,-124.0343 335.2933,-103.8989 321.6491,-92.1228"/>
<polygon fill="#9a32cd" stroke="#9a32cd" points="373.3142,-141.338 383.1714,-145.2223 377.888,-136.0388 373.3142,-141.338"/>
<text text-anchor="middle" x="402" y="-119" font-family="Helvetica,sans-Serif" font-size="10.00" fill="#000000"> confidenceInterval</text>
</g>
</g>
</svg>
