<?xml version="1.0" encoding="UTF-8" standalone="no"?>
<!DOCTYPE svg PUBLIC "-//W3C//DTD SVG 1.1//EN"
 "http://www.w3.org/Graphics/SVG/1.1/DTD/svg11.dtd">
<!-- Generated by graphviz version 2.38.0 (20140413.2041)
 -->
<!-- Title: San13DistCRN Pages: 1 -->
<svg width="266pt" height="209pt"
 viewBox="0.00 0.00 266.00 209.00" xmlns="http://www.w3.org/2000/svg" xmlns:xlink="http://www.w3.org/1999/xlink">
<g id="graph0" class="graph" transform="scale(1 1) rotate(0) translate(4 205)">
<title>San13DistCRN</title>
<!-- Node3 -->
<g id="node1" class="node"><title>Node3</title>
<polygon fill="#bfbfbf" stroke="black" points="61.5,-0.5 61.5,-19.5 146.5,-19.5 146.5,-0.5 61.5,-0.5"/>
<text text-anchor="middle" x="104" y="-7.5" font-family="Helvetica,sans-Serif" font-size="10.00">San13DistCRN</text>
</g>
<!-- Node4 -->
<g id="node2" class="node"><title>Node4</title>
<g id="a_node2"><a xlink:href="classift6561examples_1_1San13Dist.html" target="_top" xlink:title="This class simulates a specific stochastic activity network with 9 nodes and 13 links, taken from Elmaghraby (1977) and used again in L&#39;Ecuyer and Lemieux (2000), &quot;Variance Reduction via Lattice Rules&quot;. ">
<polygon fill="none" stroke="black" points="73,-57.5 73,-76.5 135,-76.5 135,-57.5 73,-57.5"/>
<text text-anchor="middle" x="104" y="-64.5" font-family="Helvetica,sans-Serif" font-size="10.00">San13Dist</text>
</a>
</g>
</g>
<!-- Node4&#45;&gt;Node3 -->
<g id="edge1" class="edge"><title>Node4&#45;&gt;Node3</title>
<path fill="none" stroke="midnightblue" d="M104,-47.1166C104,-37.8173 104,-27.0557 104,-19.7149"/>
<polygon fill="midnightblue" stroke="midnightblue" points="100.5,-47.4062 104,-57.4062 107.5,-47.4063 100.5,-47.4062"/>
</g>
<!-- Node5 -->
<g id="node3" class="node"><title>Node5</title>
<g id="a_node3"><a xlink:href="interfaceumontreal_1_1ssj_1_1mcqmctools_1_1MonteCarloModelDouble.html" target="_top" xlink:title="An interface for a very simple simulation model for which Monte Carlo (MC) and RQMC experiments are t...">
<polygon fill="none" stroke="black" points="-7.10543e-15,-124.5 -7.10543e-15,-143.5 124,-143.5 124,-124.5 -7.10543e-15,-124.5"/>
<text text-anchor="middle" x="62" y="-131.5" font-family="Helvetica,sans-Serif" font-size="10.00">MonteCarloModelDouble</text>
</a>
</g>
</g>
<!-- Node5&#45;&gt;Node4 -->
<g id="edge2" class="edge"><title>Node5&#45;&gt;Node4</title>
<path fill="none" stroke="midnightblue" d="M73.2853,-115.535C81.417,-102.95 92.0415,-86.5072 98.4254,-76.6273"/>
<polygon fill="midnightblue" stroke="midnightblue" points="70.1518,-113.935 67.6643,-124.234 76.0312,-117.734 70.1518,-113.935"/>
</g>
<!-- Node6 -->
<g id="node4" class="node"><title>Node6</title>
<g id="a_node4"><a xlink:href="classumontreal_1_1ssj_1_1probdist_1_1ContinuousDistribution.html" target="_top" xlink:title="Classes implementing continuous distributions should inherit from this base class. ">
<polygon fill="none" stroke="black" points="142,-124.5 142,-143.5 258,-143.5 258,-124.5 142,-124.5"/>
<text text-anchor="middle" x="200" y="-131.5" font-family="Helvetica,sans-Serif" font-size="10.00">ContinuousDistribution</text>
</a>
</g>
</g>
<!-- Node6&#45;&gt;Node4 -->
<g id="edge3" class="edge"><title>Node6&#45;&gt;Node4</title>
<path fill="none" stroke="#9a32cd" stroke-dasharray="5,2" d="M178.724,-118.595C159.733,-105.736 132.55,-87.3306 116.742,-76.6273"/>
<polygon fill="#9a32cd" stroke="#9a32cd" points="176.81,-121.525 187.053,-124.234 180.735,-115.729 176.81,-121.525"/>
<text text-anchor="middle" x="166.5" y="-98" font-family="Helvetica,sans-Serif" font-size="10.00"> dist</text>
</g>
<!-- Node7 -->
<g id="node5" class="node"><title>Node7</title>
<g id="a_node5"><a xlink:href="interfaceumontreal_1_1ssj_1_1probdist_1_1Distribution.html" target="_top" xlink:title="This interface should be implemented by all classes supporting discrete and continuous distributions...">
<polygon fill="none" stroke="black" points="167,-181.5 167,-200.5 233,-200.5 233,-181.5 167,-181.5"/>
<text text-anchor="middle" x="200" y="-188.5" font-family="Helvetica,sans-Serif" font-size="10.00">Distribution</text>
</a>
</g>
</g>
<!-- Node7&#45;&gt;Node6 -->
<g id="edge4" class="edge"><title>Node7&#45;&gt;Node6</title>
<path fill="none" stroke="midnightblue" d="M200,-171.117C200,-161.817 200,-151.056 200,-143.715"/>
<polygon fill="midnightblue" stroke="midnightblue" points="196.5,-171.406 200,-181.406 203.5,-171.406 196.5,-171.406"/>
</g>
</g>
</svg>
