<?xml version="1.0" encoding="UTF-8" standalone="no"?>
<!DOCTYPE svg PUBLIC "-//W3C//DTD SVG 1.1//EN"
 "http://www.w3.org/Graphics/SVG/1.1/DTD/svg11.dtd">
<!-- Generated by graphviz version 2.38.0 (20140413.2041)
 -->
<!-- Title: MonteCarloSampler Pages: 1 -->
<svg width="200pt" height="152pt"
 viewBox="0.00 0.00 200.00 152.00" xmlns="http://www.w3.org/2000/svg" xmlns:xlink="http://www.w3.org/1999/xlink">
<g id="graph0" class="graph" transform="scale(1 1) rotate(0) translate(4 148)">
<title>MonteCarloSampler</title>
<!-- Node4 -->
<g id="node1" class="node"><title>Node4</title>
<polygon fill="#bfbfbf" stroke="black" points="71,-0.5 71,-19.5 174,-19.5 174,-0.5 71,-0.5"/>
<text text-anchor="middle" x="122.5" y="-7.5" font-family="Helvetica,sans-Serif" font-size="10.00">MonteCarloSampler</text>
</g>
<!-- Node5 -->
<g id="node2" class="node"><title>Node5</title>
<g id="a_node2"><a xlink:href="interfaceumontreal_1_1ssj_1_1mcqmctools_1_1anova_1_1RandomSampler.html" target="_top" xlink:title="RandomSampler">
<polygon fill="none" stroke="black" points="0,-67.5 0,-86.5 89,-86.5 89,-67.5 0,-67.5"/>
<text text-anchor="middle" x="44.5" y="-74.5" font-family="Helvetica,sans-Serif" font-size="10.00">RandomSampler</text>
</a>
</g>
</g>
<!-- Node5&#45;&gt;Node4 -->
<g id="edge1" class="edge"><title>Node5&#45;&gt;Node4</title>
<path fill="none" stroke="midnightblue" d="M62.8439,-60.7134C78.2116,-47.907 99.5939,-30.0884 112.147,-19.6273"/>
<polygon fill="midnightblue" stroke="midnightblue" points="60.461,-58.1431 55.0194,-67.2338 64.9423,-63.5207 60.461,-58.1431"/>
</g>
<!-- Node6 -->
<g id="node3" class="node"><title>Node6</title>
<g id="a_node3"><a xlink:href="interfaceumontreal_1_1ssj_1_1mcqmctools_1_1anova_1_1Sampler.html" target="_top" xlink:title="Sampler">
<polygon fill="none" stroke="black" points="18,-124.5 18,-143.5 71,-143.5 71,-124.5 18,-124.5"/>
<text text-anchor="middle" x="44.5" y="-131.5" font-family="Helvetica,sans-Serif" font-size="10.00">Sampler</text>
</a>
</g>
</g>
<!-- Node6&#45;&gt;Node5 -->
<g id="edge2" class="edge"><title>Node6&#45;&gt;Node5</title>
<path fill="none" stroke="midnightblue" d="M44.5,-114.117C44.5,-104.817 44.5,-94.0557 44.5,-86.7149"/>
<polygon fill="midnightblue" stroke="midnightblue" points="41.0001,-114.406 44.5,-124.406 48.0001,-114.406 41.0001,-114.406"/>
</g>
<!-- Node7 -->
<g id="node4" class="node"><title>Node7</title>
<g id="a_node4"><a xlink:href="interfaceumontreal_1_1ssj_1_1rng_1_1RandomStream.html" target="_top" xlink:title="This interface defines the basic structures to handle multiple streams of uniform (pseudo)random numb...">
<polygon fill="none" stroke="black" points="107,-67.5 107,-86.5 192,-86.5 192,-67.5 107,-67.5"/>
<text text-anchor="middle" x="149.5" y="-74.5" font-family="Helvetica,sans-Serif" font-size="10.00">RandomStream</text>
</a>
</g>
</g>
<!-- Node7&#45;&gt;Node4 -->
<g id="edge3" class="edge"><title>Node7&#45;&gt;Node4</title>
<path fill="none" stroke="#9a32cd" stroke-dasharray="5,2" d="M141.936,-57.79C136.751,-45.3076 130.107,-29.3135 126.084,-19.6273"/>
<polygon fill="#9a32cd" stroke="#9a32cd" points="138.79,-59.3415 145.859,-67.2338 145.255,-56.6562 138.79,-59.3415"/>
<text text-anchor="middle" x="154.5" y="-41" font-family="Helvetica,sans-Serif" font-size="10.00"> stream</text>
</g>
</g>
</svg>
