<?xml version="1.0" encoding="UTF-8" standalone="no"?>
<!DOCTYPE svg PUBLIC "-//W3C//DTD SVG 1.1//EN"
 "http://www.w3.org/Graphics/SVG/1.1/DTD/svg11.dtd">
<!-- Generated by graphviz version 2.40.1 (20161225.0304)
 -->
<!-- Title: MultinormalGen Pages: 1 -->
<svg width="269pt" height="240pt"
 viewBox="0.00 0.00 269.00 240.00" xmlns="http://www.w3.org/2000/svg" xmlns:xlink="http://www.w3.org/1999/xlink">
<g id="graph0" class="graph" transform="scale(1 1) rotate(0) translate(4 236)">
<title>MultinormalGen</title>
<!-- Node4 -->
<g id="node1" class="node">
<title>Node4</title>
<polygon fill="#bfbfbf" stroke="#000000" points="113,-.5 113,-19.5 198,-19.5 198,-.5 113,-.5"/>
<text text-anchor="middle" x="155.5" y="-7.5" font-family="Helvetica,sans-Serif" font-size="10.00" fill="#000000">MultinormalGen</text>
</g>
<!-- Node5 -->
<g id="node2" class="node">
<title>Node5</title>
<g id="a_node2"><a xlink:href="classumontreal_1_1ssj_1_1randvarmulti_1_1RandomMultivariateGen.html" target="_top" xlink:title="This class is the multivariate counterpart of umontreal.ssj.randvar.RandomVariateGen. ">
<polygon fill="none" stroke="#000000" points="33.5,-78.5 33.5,-97.5 155.5,-97.5 155.5,-78.5 33.5,-78.5"/>
<text text-anchor="middle" x="94.5" y="-85.5" font-family="Helvetica,sans-Serif" font-size="10.00" fill="#000000">RandomMultivariateGen</text>
</a>
</g>
</g>
<!-- Node5&#45;&gt;Node4 -->
<g id="edge1" class="edge">
<title>Node5&#45;&gt;Node4</title>
<path fill="none" stroke="#191970" d="M108.1777,-70.5105C120.4637,-54.8005 138.0491,-32.3143 147.959,-19.6426"/>
<polygon fill="#191970" stroke="#191970" points="105.3832,-68.4023 101.9798,-78.4357 110.8972,-72.7146 105.3832,-68.4023"/>
</g>
<!-- Node6 -->
<g id="node3" class="node">
<title>Node6</title>
<g id="a_node3"><a xlink:href="classumontreal_1_1ssj_1_1randvar_1_1RandomVariateGen.html" target="_top" xlink:title="This is the base class for all random variate generators over the real line. ">
<polygon fill="none" stroke="#000000" points="0,-145.5 0,-164.5 101,-164.5 101,-145.5 0,-145.5"/>
<text text-anchor="middle" x="50.5" y="-152.5" font-family="Helvetica,sans-Serif" font-size="10.00" fill="#000000">RandomVariateGen</text>
</a>
</g>
</g>
<!-- Node6&#45;&gt;Node5 -->
<g id="edge2" class="edge">
<title>Node6&#45;&gt;Node5</title>
<path fill="none" stroke="#9a32cd" stroke-dasharray="5,2" d="M62.3338,-136.9803C70.6619,-124.2989 81.4816,-107.8235 88.2076,-97.5817"/>
<polygon fill="#9a32cd" stroke="#9a32cd" points="59.3679,-135.1206 56.8041,-145.4005 65.219,-138.9631 59.3679,-135.1206"/>
<text text-anchor="middle" x="88" y="-119" font-family="Helvetica,sans-Serif" font-size="10.00" fill="#000000"> gen1</text>
</g>
<!-- Node7 -->
<g id="node4" class="node">
<title>Node7</title>
<g id="a_node4"><a xlink:href="interfaceumontreal_1_1ssj_1_1probdist_1_1Distribution.html" target="_top" xlink:title="This interface should be implemented by all classes supporting discrete and continuous distributions...">
<polygon fill="none" stroke="#000000" points="10.5,-212.5 10.5,-231.5 76.5,-231.5 76.5,-212.5 10.5,-212.5"/>
<text text-anchor="middle" x="43.5" y="-219.5" font-family="Helvetica,sans-Serif" font-size="10.00" fill="#000000">Distribution</text>
</a>
</g>
</g>
<!-- Node7&#45;&gt;Node6 -->
<g id="edge3" class="edge">
<title>Node7&#45;&gt;Node6</title>
<path fill="none" stroke="#9a32cd" stroke-dasharray="5,2" d="M44.7693,-202.2365C45.2328,-196.0675 45.8146,-189.244 46.5,-183 47.1751,-176.8498 48.1547,-169.9707 48.9754,-164.5701"/>
<polygon fill="#9a32cd" stroke="#9a32cd" points="41.267,-202.1489 44.0657,-212.3674 48.2502,-202.6339 41.267,-202.1489"/>
<text text-anchor="middle" x="56" y="-186" font-family="Helvetica,sans-Serif" font-size="10.00" fill="#000000"> dist</text>
</g>
<!-- Node8 -->
<g id="node5" class="node">
<title>Node8</title>
<g id="a_node5"><a xlink:href="interfaceumontreal_1_1ssj_1_1rng_1_1RandomStream.html" target="_top" xlink:title="This interface defines the basic structures to handle multiple streams of uniform (pseudo)random numb...">
<polygon fill="none" stroke="#000000" points="95,-212.5 95,-231.5 180,-231.5 180,-212.5 95,-212.5"/>
<text text-anchor="middle" x="137.5" y="-219.5" font-family="Helvetica,sans-Serif" font-size="10.00" fill="#000000">RandomStream</text>
</a>
</g>
</g>
<!-- Node8&#45;&gt;Node5 -->
<g id="edge5" class="edge">
<title>Node8&#45;&gt;Node5</title>
<path fill="none" stroke="#9a32cd" stroke-dasharray="5,2" d="M131.6992,-202.5228C125.288,-181.2013 114.5372,-146.0448 104.5,-116 102.4392,-109.8312 99.9845,-102.9519 98.0229,-97.5558"/>
<polygon fill="#9a32cd" stroke="#9a32cd" points="128.4085,-203.735 134.6295,-212.3111 135.1145,-201.7274 128.4085,-203.735"/>
<text text-anchor="middle" x="137.5" y="-152.5" font-family="Helvetica,sans-Serif" font-size="10.00" fill="#000000"> stream</text>
</g>
<!-- Node8&#45;&gt;Node6 -->
<g id="edge4" class="edge">
<title>Node8&#45;&gt;Node6</title>
<path fill="none" stroke="#9a32cd" stroke-dasharray="5,2" d="M109.5831,-207.3426C102.7888,-203.3401 95.6985,-198.7784 89.5,-194 77.9729,-185.1139 66.3852,-173.031 58.8726,-164.6802"/>
<polygon fill="#9a32cd" stroke="#9a32cd" points="108.1267,-210.5401 118.5531,-212.4218 111.5759,-204.4488 108.1267,-210.5401"/>
<text text-anchor="middle" x="106.5" y="-186" font-family="Helvetica,sans-Serif" font-size="10.00" fill="#000000"> stream</text>
</g>
<!-- Node9 -->
<g id="node6" class="node">
<title>Node9</title>
<polygon fill="none" stroke="#bfbfbf" points="174,-78.5 174,-97.5 261,-97.5 261,-78.5 174,-78.5"/>
<text text-anchor="middle" x="217.5" y="-85.5" font-family="Helvetica,sans-Serif" font-size="10.00" fill="#000000">DoubleMatrix2D</text>
</g>
<!-- Node9&#45;&gt;Node4 -->
<g id="edge6" class="edge">
<title>Node9&#45;&gt;Node4</title>
<path fill="none" stroke="#9a32cd" stroke-dasharray="5,2" d="M203.5981,-70.5105C191.1107,-54.8005 173.237,-32.3143 163.1646,-19.6426"/>
<polygon fill="#9a32cd" stroke="#9a32cd" points="200.9352,-72.7853 209.8976,-78.4357 206.415,-68.4295 200.9352,-72.7853"/>
<text text-anchor="middle" x="217.5" y="-52" font-family="Helvetica,sans-Serif" font-size="10.00" fill="#000000"> sqrtSigma</text>
<text text-anchor="middle" x="217.5" y="-41" font-family="Helvetica,sans-Serif" font-size="10.00" fill="#000000">sigma</text>
</g>
</g>
</svg>
