<?xml version="1.0" encoding="UTF-8" standalone="no"?>
<!DOCTYPE svg PUBLIC "-//W3C//DTD SVG 1.1//EN"
 "http://www.w3.org/Graphics/SVG/1.1/DTD/svg11.dtd">
<!-- Generated by graphviz version 2.38.0 (20140413.2041)
 -->
<!-- Title: DigitalNetBase2 Pages: 1 -->
<svg width="624pt" height="192pt"
 viewBox="0.00 0.00 624.00 191.50" xmlns="http://www.w3.org/2000/svg" xmlns:xlink="http://www.w3.org/1999/xlink">
<g id="graph0" class="graph" transform="scale(1 1) rotate(0) translate(4 187.5)">
<title>DigitalNetBase2</title>
<!-- Node0 -->
<g id="node1" class="node"><title>Node0</title>
<polygon fill="#bfbfbf" stroke="black" points="186,-88 186,-107 274,-107 274,-88 186,-88"/>
<text text-anchor="middle" x="230" y="-95" font-family="Helvetica,sans-Serif" font-size="10.00">DigitalNetBase2</text>
</g>
<!-- Node3 -->
<g id="node4" class="node"><title>Node3</title>
<g id="a_node4"><a xlink:href="classumontreal_1_1ssj_1_1hups_1_1DigitalNetBase2FromFile.html" target="_top" xlink:title="This class allows us to read the parameters defining a digital net in base 2 either from a file...">
<polygon fill="none" stroke="black" points="318,-164 318,-183 444,-183 444,-164 318,-164"/>
<text text-anchor="middle" x="381" y="-171" font-family="Helvetica,sans-Serif" font-size="10.00">DigitalNetBase2FromFile</text>
</a>
</g>
</g>
<!-- Node0&#45;&gt;Node3 -->
<g id="edge3" class="edge"><title>Node0&#45;&gt;Node3</title>
<path fill="none" stroke="midnightblue" d="M249.361,-113.71C264.64,-126.438 287.46,-143.75 310,-154.5 317.956,-158.295 326.795,-161.435 335.439,-163.994"/>
<polygon fill="midnightblue" stroke="midnightblue" points="251.58,-111.003 241.699,-107.182 247.041,-116.331 251.58,-111.003"/>
</g>
<!-- Node4 -->
<g id="node5" class="node"><title>Node4</title>
<g id="a_node5"><a xlink:href="classumontreal_1_1ssj_1_1hups_1_1DigitalSequenceBase2.html" target="_top" xlink:title="This abstract class describes methods specific to digital sequences in base 2. ">
<polygon fill="none" stroke="black" points="323,-126 323,-145 439,-145 439,-126 323,-126"/>
<text text-anchor="middle" x="381" y="-133" font-family="Helvetica,sans-Serif" font-size="10.00">DigitalSequenceBase2</text>
</a>
</g>
</g>
<!-- Node0&#45;&gt;Node4 -->
<g id="edge4" class="edge"><title>Node0&#45;&gt;Node4</title>
<path fill="none" stroke="midnightblue" d="M278.492,-109.612C299.244,-114.904 323.228,-121.021 342.671,-125.98"/>
<polygon fill="midnightblue" stroke="midnightblue" points="279.154,-106.169 268.599,-107.089 277.424,-112.952 279.154,-106.169"/>
</g>
<!-- Node8 -->
<g id="node9" class="node"><title>Node8</title>
<g id="a_node9"><a xlink:href="classumontreal_1_1ssj_1_1hups_1_1F2wNetLFSR.html" target="_top" xlink:title="This class implements a digital net in base 2 starting from a linear feedback shift register generato...">
<polygon fill="none" stroke="black" points="342.5,-88 342.5,-107 419.5,-107 419.5,-88 342.5,-88"/>
<text text-anchor="middle" x="381" y="-95" font-family="Helvetica,sans-Serif" font-size="10.00">F2wNetLFSR</text>
</a>
</g>
</g>
<!-- Node0&#45;&gt;Node8 -->
<g id="edge8" class="edge"><title>Node0&#45;&gt;Node8</title>
<path fill="none" stroke="midnightblue" d="M284.181,-97.5C303.314,-97.5 324.495,-97.5 342.067,-97.5"/>
<polygon fill="midnightblue" stroke="midnightblue" points="284.097,-94.0001 274.097,-97.5 284.097,-101 284.097,-94.0001"/>
</g>
<!-- Node9 -->
<g id="node10" class="node"><title>Node9</title>
<g id="a_node10"><a xlink:href="classumontreal_1_1ssj_1_1hups_1_1F2wNetPolyLCG.html" target="_top" xlink:title="This class implements a digital net in base 2 starting from a polynomial LCG in . ...">
<polygon fill="none" stroke="black" points="335.5,-50 335.5,-69 426.5,-69 426.5,-50 335.5,-50"/>
<text text-anchor="middle" x="381" y="-57" font-family="Helvetica,sans-Serif" font-size="10.00">F2wNetPolyLCG</text>
</a>
</g>
</g>
<!-- Node0&#45;&gt;Node9 -->
<g id="edge9" class="edge"><title>Node0&#45;&gt;Node9</title>
<path fill="none" stroke="midnightblue" d="M278.492,-85.3879C299.244,-80.0956 323.228,-73.9787 342.671,-69.0201"/>
<polygon fill="midnightblue" stroke="midnightblue" points="277.424,-82.0482 268.599,-87.911 279.154,-88.8311 277.424,-82.0482"/>
</g>
<!-- Node10 -->
<g id="node11" class="node"><title>Node10</title>
<g id="a_node11"><a xlink:href="classumontreal_1_1ssj_1_1latnetbuilder_1_1DigitalNetSearch_1_1DigitalNetBase2FromLatNetBuilder.html" target="_top" xlink:title="Class for the construction od digital nets. ">
<polygon fill="none" stroke="black" points="310,-0.5 310,-30.5 452,-30.5 452,-0.5 310,-0.5"/>
<text text-anchor="start" x="318" y="-18.5" font-family="Helvetica,sans-Serif" font-size="10.00">DigitalNetSearch.Digital</text>
<text text-anchor="middle" x="381" y="-7.5" font-family="Helvetica,sans-Serif" font-size="10.00">NetBase2FromLatNetBuilder</text>
</a>
</g>
</g>
<!-- Node0&#45;&gt;Node10 -->
<g id="edge10" class="edge"><title>Node0&#45;&gt;Node10</title>
<path fill="none" stroke="midnightblue" d="M249.86,-81.5436C265.27,-69.1028 288.022,-52.0544 310,-40.5 316.968,-36.8369 324.589,-33.5001 332.157,-30.542"/>
<polygon fill="midnightblue" stroke="midnightblue" points="247.609,-78.8633 242.106,-87.9169 252.054,-84.2711 247.609,-78.8633"/>
</g>
<!-- Node1 -->
<g id="node2" class="node"><title>Node1</title>
<g id="a_node2"><a xlink:href="classumontreal_1_1ssj_1_1hups_1_1DigitalNet.html" target="_top" xlink:title="This class provides the basic structures for storing and manipulating linear digital nets in base ...">
<polygon fill="none" stroke="black" points="90,-88 90,-107 150,-107 150,-88 90,-88"/>
<text text-anchor="middle" x="120" y="-95" font-family="Helvetica,sans-Serif" font-size="10.00">DigitalNet</text>
</a>
</g>
</g>
<!-- Node1&#45;&gt;Node0 -->
<g id="edge1" class="edge"><title>Node1&#45;&gt;Node0</title>
<path fill="none" stroke="midnightblue" d="M160.416,-97.5C168.722,-97.5 177.525,-97.5 185.957,-97.5"/>
<polygon fill="midnightblue" stroke="midnightblue" points="160.226,-94.0001 150.226,-97.5 160.226,-101 160.226,-94.0001"/>
</g>
<!-- Node2 -->
<g id="node3" class="node"><title>Node2</title>
<g id="a_node3"><a xlink:href="classumontreal_1_1ssj_1_1hups_1_1PointSet.html" target="_top" xlink:title="This abstract class defines the basic methods for accessing and manipulating point sets...">
<polygon fill="none" stroke="black" points="0,-88 0,-107 54,-107 54,-88 0,-88"/>
<text text-anchor="middle" x="27" y="-95" font-family="Helvetica,sans-Serif" font-size="10.00">PointSet</text>
</a>
</g>
</g>
<!-- Node2&#45;&gt;Node1 -->
<g id="edge2" class="edge"><title>Node2&#45;&gt;Node1</title>
<path fill="none" stroke="midnightblue" d="M64.3573,-97.5C72.8333,-97.5 81.7508,-97.5 89.8668,-97.5"/>
<polygon fill="midnightblue" stroke="midnightblue" points="64.321,-94.0001 54.321,-97.5 64.3209,-101 64.321,-94.0001"/>
</g>
<!-- Node5 -->
<g id="node6" class="node"><title>Node5</title>
<g id="a_node6"><a xlink:href="classumontreal_1_1ssj_1_1hups_1_1NiedSequenceBase2.html" target="_top" xlink:title="This class implements digital sequences constructed from the Niederreiter sequence in base 2...">
<polygon fill="none" stroke="black" points="498,-164 498,-183 606,-183 606,-164 498,-164"/>
<text text-anchor="middle" x="552" y="-171" font-family="Helvetica,sans-Serif" font-size="10.00">NiedSequenceBase2</text>
</a>
</g>
</g>
<!-- Node4&#45;&gt;Node5 -->
<g id="edge5" class="edge"><title>Node4&#45;&gt;Node5</title>
<path fill="none" stroke="midnightblue" d="M434.587,-147.324C458.413,-152.682 486.207,-158.931 508.661,-163.98"/>
<polygon fill="midnightblue" stroke="midnightblue" points="435.17,-143.868 424.646,-145.089 433.634,-150.698 435.17,-143.868"/>
</g>
<!-- Node6 -->
<g id="node7" class="node"><title>Node6</title>
<g id="a_node7"><a xlink:href="classumontreal_1_1ssj_1_1hups_1_1NiedXingSequenceBase2.html" target="_top" xlink:title="This class implements digital sequences based on the Niederreiter&#45;Xing sequence in base 2...">
<polygon fill="none" stroke="black" points="488,-126 488,-145 616,-145 616,-126 488,-126"/>
<text text-anchor="middle" x="552" y="-133" font-family="Helvetica,sans-Serif" font-size="10.00">NiedXingSequenceBase2</text>
</a>
</g>
</g>
<!-- Node4&#45;&gt;Node6 -->
<g id="edge6" class="edge"><title>Node4&#45;&gt;Node6</title>
<path fill="none" stroke="midnightblue" d="M449.256,-135.5C461.948,-135.5 475.183,-135.5 487.748,-135.5"/>
<polygon fill="midnightblue" stroke="midnightblue" points="449.216,-132 439.216,-135.5 449.216,-139 449.216,-132"/>
</g>
<!-- Node7 -->
<g id="node8" class="node"><title>Node7</title>
<g id="a_node8"><a xlink:href="classumontreal_1_1ssj_1_1hups_1_1SobolSequence.html" target="_top" xlink:title="This class implements digital nets or digital sequences in base 2 formed by the first &#160;points of a So...">
<polygon fill="none" stroke="black" points="509.5,-88 509.5,-107 594.5,-107 594.5,-88 509.5,-88"/>
<text text-anchor="middle" x="552" y="-95" font-family="Helvetica,sans-Serif" font-size="10.00">SobolSequence</text>
</a>
</g>
</g>
<!-- Node4&#45;&gt;Node7 -->
<g id="edge7" class="edge"><title>Node4&#45;&gt;Node7</title>
<path fill="none" stroke="midnightblue" d="M434.665,-123.658C458.68,-118.258 486.715,-111.955 509.245,-106.889"/>
<polygon fill="midnightblue" stroke="midnightblue" points="433.634,-120.302 424.646,-125.911 435.17,-127.132 433.634,-120.302"/>
</g>
</g>
</svg>
