<?xml version="1.0" encoding="UTF-8" standalone="no"?>
<!DOCTYPE svg PUBLIC "-//W3C//DTD SVG 1.1//EN"
 "http://www.w3.org/Graphics/SVG/1.1/DTD/svg11.dtd">
<!-- Generated by graphviz version 2.40.1 (0)
 -->
<!-- Title: OldAsianRQMC Pages: 1 -->
<svg width="250pt" height="152pt"
 viewBox="0.00 0.00 249.50 152.00" xmlns="http://www.w3.org/2000/svg" xmlns:xlink="http://www.w3.org/1999/xlink">
<g id="graph0" class="graph" transform="scale(1 1) rotate(0) translate(4 148)">
<title>OldAsianRQMC</title>
<!-- Node3 -->
<g id="node1" class="node">
<title>Node3</title>
<g id="a_node1"><a xlink:title=" ">
<polygon fill="#bfbfbf" stroke="#000000" points="83.5,-.5 83.5,-19.5 170.5,-19.5 170.5,-.5 83.5,-.5"/>
<text text-anchor="middle" x="127" y="-7.5" font-family="Helvetica,sans-Serif" font-size="10.00" fill="#000000">OldAsianRQMC</text>
</a>
</g>
</g>
<!-- Node4 -->
<g id="node2" class="node">
<title>Node4</title>
<g id="a_node2"><a xlink:href="classift6561examples_1_1AsianOption.html" target="_top" xlink:title="This class represents an Asian average price call option with European exercise type.">
<polygon fill="none" stroke="#000000" points="92,-57.5 92,-76.5 162,-76.5 162,-57.5 92,-57.5"/>
<text text-anchor="middle" x="127" y="-64.5" font-family="Helvetica,sans-Serif" font-size="10.00" fill="#000000">AsianOption</text>
</a>
</g>
</g>
<!-- Node4&#45;&gt;Node3 -->
<g id="edge1" class="edge">
<title>Node4&#45;&gt;Node3</title>
<path fill="none" stroke="#191970" d="M127,-47.2342C127,-37.8491 127,-27.0651 127,-19.5265"/>
<polygon fill="#191970" stroke="#191970" points="123.5001,-47.3307 127,-57.3307 130.5001,-47.3308 123.5001,-47.3307"/>
</g>
<!-- Node5 -->
<g id="node3" class="node">
<title>Node5</title>
<g id="a_node3"><a xlink:href="interfaceumontreal_1_1ssj_1_1mcqmctools_1_1MonteCarloModelDouble.html" target="_top" xlink:title="An interface for a very simple simulation model for which Monte Carlo (MC) and RQMC experiments are t...">
<polygon fill="none" stroke="#000000" points="0,-124.5 0,-143.5 124,-143.5 124,-124.5 0,-124.5"/>
<text text-anchor="middle" x="62" y="-131.5" font-family="Helvetica,sans-Serif" font-size="10.00" fill="#000000">MonteCarloModelDouble</text>
</a>
</g>
</g>
<!-- Node5&#45;&gt;Node4 -->
<g id="edge2" class="edge">
<title>Node5&#45;&gt;Node4</title>
<path fill="none" stroke="#191970" d="M78.4163,-117.0785C90.8485,-104.2639 107.4788,-87.1218 117.7044,-76.5817"/>
<polygon fill="#191970" stroke="#191970" points="75.764,-114.786 71.3129,-124.4005 80.7882,-119.6602 75.764,-114.786"/>
</g>
<!-- Node6 -->
<g id="node4" class="node">
<title>Node6</title>
<g id="a_node4"><a xlink:href="classumontreal_1_1ssj_1_1stochprocess_1_1StochasticProcess.html" target="_top" xlink:title="Abstract base class for a stochastic process &#160;sampled (or observed) at a finite number of time points...">
<polygon fill="none" stroke="#000000" points="142.5,-124.5 142.5,-143.5 241.5,-143.5 241.5,-124.5 142.5,-124.5"/>
<text text-anchor="middle" x="192" y="-131.5" font-family="Helvetica,sans-Serif" font-size="10.00" fill="#000000">StochasticProcess</text>
</a>
</g>
</g>
<!-- Node6&#45;&gt;Node4 -->
<g id="edge3" class="edge">
<title>Node6&#45;&gt;Node4</title>
<path fill="none" stroke="#9a32cd" stroke-dasharray="5,2" d="M175.5837,-117.0785C163.1515,-104.2639 146.5212,-87.1218 136.2956,-76.5817"/>
<polygon fill="#9a32cd" stroke="#9a32cd" points="173.2118,-119.6602 182.6871,-124.4005 178.236,-114.786 173.2118,-119.6602"/>
<text text-anchor="middle" x="193.5" y="-98" font-family="Helvetica,sans-Serif" font-size="10.00" fill="#000000"> priceProcess</text>
</g>
</g>
</svg>
