<?xml version="1.0" encoding="UTF-8" standalone="no"?>
<!DOCTYPE svg PUBLIC "-//W3C//DTD SVG 1.1//EN"
 "http://www.w3.org/Graphics/SVG/1.1/DTD/svg11.dtd">
<!-- Generated by graphviz version 2.40.1 (0)
 -->
<!-- Title: CachedDataWriter Pages: 1 -->
<svg width="109pt" height="196pt"
 viewBox="0.00 0.00 109.00 196.00" xmlns="http://www.w3.org/2000/svg" xmlns:xlink="http://www.w3.org/1999/xlink">
<g id="graph0" class="graph" transform="scale(1 1) rotate(0) translate(4 192)">
<title>CachedDataWriter</title>
<!-- Node0 -->
<g id="node1" class="node">
<title>Node0</title>
<g id="a_node1"><a xlink:title="This abstract class implements shared functionality for data writers that store all fields in memory ...">
<polygon fill="#bfbfbf" stroke="#000000" points="1.5,-56.5 1.5,-75.5 99.5,-75.5 99.5,-56.5 1.5,-56.5"/>
<text text-anchor="middle" x="50.5" y="-63.5" font-family="Helvetica,sans-Serif" font-size="10.00" fill="#000000">CachedDataWriter</text>
</a>
</g>
</g>
<!-- Node3 -->
<g id="node4" class="node">
<title>Node3</title>
<g id="a_node4"><a xlink:href="classumontreal_1_1ssj_1_1util_1_1io_1_1TextDataWriter.html" target="_top" xlink:title="Text data writer.">
<polygon fill="none" stroke="#000000" points="9,-.5 9,-19.5 92,-19.5 92,-.5 9,-.5"/>
<text text-anchor="middle" x="50.5" y="-7.5" font-family="Helvetica,sans-Serif" font-size="10.00" fill="#000000">TextDataWriter</text>
</a>
</g>
</g>
<!-- Node0&#45;&gt;Node3 -->
<g id="edge3" class="edge">
<title>Node0&#45;&gt;Node3</title>
<path fill="none" stroke="#191970" d="M50.5,-46.1575C50.5,-37.155 50.5,-26.9199 50.5,-19.6427"/>
<polygon fill="#191970" stroke="#191970" points="47.0001,-46.2455 50.5,-56.2455 54.0001,-46.2456 47.0001,-46.2455"/>
</g>
<!-- Node1 -->
<g id="node2" class="node">
<title>Node1</title>
<g id="a_node2"><a xlink:href="classumontreal_1_1ssj_1_1util_1_1io_1_1AbstractDataWriter.html" target="_top" xlink:title="This abstract class implements shared functionality for data writers.">
<polygon fill="none" stroke="#000000" points="0,-112.5 0,-131.5 101,-131.5 101,-112.5 0,-112.5"/>
<text text-anchor="middle" x="50.5" y="-119.5" font-family="Helvetica,sans-Serif" font-size="10.00" fill="#000000">AbstractDataWriter</text>
</a>
</g>
</g>
<!-- Node1&#45;&gt;Node0 -->
<g id="edge1" class="edge">
<title>Node1&#45;&gt;Node0</title>
<path fill="none" stroke="#191970" d="M50.5,-102.1575C50.5,-93.155 50.5,-82.9199 50.5,-75.6427"/>
<polygon fill="#191970" stroke="#191970" points="47.0001,-102.2455 50.5,-112.2455 54.0001,-102.2456 47.0001,-102.2455"/>
</g>
<!-- Node2 -->
<g id="node3" class="node">
<title>Node2</title>
<g id="a_node3"><a xlink:href="interfaceumontreal_1_1ssj_1_1util_1_1io_1_1DataWriter.html" target="_top" xlink:title="Data writer interface.">
<polygon fill="none" stroke="#000000" points="18.5,-168.5 18.5,-187.5 82.5,-187.5 82.5,-168.5 18.5,-168.5"/>
<text text-anchor="middle" x="50.5" y="-175.5" font-family="Helvetica,sans-Serif" font-size="10.00" fill="#000000">DataWriter</text>
</a>
</g>
</g>
<!-- Node2&#45;&gt;Node1 -->
<g id="edge2" class="edge">
<title>Node2&#45;&gt;Node1</title>
<path fill="none" stroke="#191970" d="M50.5,-158.1575C50.5,-149.155 50.5,-138.9199 50.5,-131.6427"/>
<polygon fill="#191970" stroke="#191970" points="47.0001,-158.2455 50.5,-168.2455 54.0001,-158.2456 47.0001,-158.2455"/>
</g>
</g>
</svg>
