<?xml version="1.0" encoding="UTF-8" standalone="no"?>
<!DOCTYPE svg PUBLIC "-//W3C//DTD SVG 1.1//EN"
 "http://www.w3.org/Graphics/SVG/1.1/DTD/svg11.dtd">
<!-- Generated by graphviz version 2.40.1 (0)
 -->
<!-- Title: SingletonWeightComparable&lt; T extends Comparable&lt; T &gt; Pages: 1 -->
<svg width="288pt" height="106pt"
 viewBox="0.00 0.00 287.50 106.00" xmlns="http://www.w3.org/2000/svg" xmlns:xlink="http://www.w3.org/1999/xlink">
<g id="graph0" class="graph" transform="scale(1 1) rotate(0) translate(4 102)">
<title>SingletonWeightComparable&lt; T extends Comparable&lt; T &gt;</title>
<!-- Node0 -->
<g id="node1" class="node">
<title>Node0</title>
<g id="a_node1"><a xlink:title="Implements single instances of weights.">
<polygon fill="#bfbfbf" stroke="#000000" points="55.5,-.5 55.5,-30.5 204.5,-30.5 204.5,-.5 55.5,-.5"/>
<text text-anchor="start" x="63.5" y="-18.5" font-family="Helvetica,sans-Serif" font-size="10.00" fill="#000000">SingletonWeightComparable</text>
<text text-anchor="middle" x="130" y="-7.5" font-family="Helvetica,sans-Serif" font-size="10.00" fill="#000000">&lt; T extends Comparable&lt; T &gt;</text>
</a>
</g>
</g>
<!-- Node1 -->
<g id="node2" class="node">
<title>Node1</title>
<g id="a_node2"><a xlink:href="classumontreal_1_1ssj_1_1latnetbuilder_1_1weights_1_1SingletonWeight.html" target="_top" xlink:title="Implements a single instance of a weight for search&#45;algorithms for quasi&#45;Monte Carlo point sets as,...">
<polygon fill="none" stroke="#000000" points="0,-73 0,-92 112,-92 112,-73 0,-73"/>
<text text-anchor="middle" x="56" y="-80" font-family="Helvetica,sans-Serif" font-size="10.00" fill="#000000">SingletonWeight&lt; T &gt;</text>
</a>
</g>
</g>
<!-- Node1&#45;&gt;Node0 -->
<g id="edge1" class="edge">
<title>Node1&#45;&gt;Node0</title>
<path fill="none" stroke="#191970" d="M74.2359,-65.9892C86.219,-55.1395 101.7733,-41.0566 113.4088,-30.5218"/>
<polygon fill="#191970" stroke="#191970" points="71.6663,-63.5942 66.6024,-72.9005 76.3645,-68.7833 71.6663,-63.5942"/>
</g>
<!-- Node2 -->
<g id="node3" class="node">
<title>Node2</title>
<g id="a_node3"><a xlink:title=" ">
<polygon fill="none" stroke="#bfbfbf" points="130.5,-67.5 130.5,-97.5 279.5,-97.5 279.5,-67.5 130.5,-67.5"/>
<text text-anchor="start" x="138.5" y="-85.5" font-family="Helvetica,sans-Serif" font-size="10.00" fill="#000000">Comparable&lt; SingletonWeight</text>
<text text-anchor="middle" x="205" y="-74.5" font-family="Helvetica,sans-Serif" font-size="10.00" fill="#000000">Comparable&lt; T &gt; &gt;</text>
</a>
</g>
</g>
<!-- Node2&#45;&gt;Node0 -->
<g id="edge2" class="edge">
<title>Node2&#45;&gt;Node0</title>
<path fill="none" stroke="#191970" d="M180.3692,-60.4965C169.4246,-50.7193 156.8157,-39.4554 146.9513,-30.6432"/>
<polygon fill="#191970" stroke="#191970" points="178.1919,-63.2447 187.9813,-67.2967 182.8555,-58.0243 178.1919,-63.2447"/>
</g>
</g>
</svg>
