<?xml version="1.0" encoding="UTF-8" standalone="no"?>
<!DOCTYPE svg PUBLIC "-//W3C//DTD SVG 1.1//EN"
 "http://www.w3.org/Graphics/SVG/1.1/DTD/svg11.dtd">
<!-- Generated by graphviz version 2.40.1 (20161225.0304)
 -->
<!-- Title: HypoExponentialDist Pages: 1 -->
<svg width="294pt" height="196pt"
 viewBox="0.00 0.00 294.00 196.00" xmlns="http://www.w3.org/2000/svg" xmlns:xlink="http://www.w3.org/1999/xlink">
<g id="graph0" class="graph" transform="scale(1 1) rotate(0) translate(4 192)">
<title>HypoExponentialDist</title>
<!-- Node0 -->
<g id="node1" class="node">
<title>Node0</title>
<polygon fill="#bfbfbf" stroke="#000000" points="88.5,-56.5 88.5,-75.5 197.5,-75.5 197.5,-56.5 88.5,-56.5"/>
<text text-anchor="middle" x="143" y="-63.5" font-family="Helvetica,sans-Serif" font-size="10.00" fill="#000000">HypoExponentialDist</text>
</g>
<!-- Node3 -->
<g id="node4" class="node">
<title>Node3</title>
<g id="a_node4"><a xlink:href="classumontreal_1_1ssj_1_1probdist_1_1HypoExponentialDistEqual.html" target="_top" xlink:title="This class implements the hypoexponential distribution for the case of equidistant ...">
<polygon fill="none" stroke="#000000" points="0,-.5 0,-19.5 134,-19.5 134,-.5 0,-.5"/>
<text text-anchor="middle" x="67" y="-7.5" font-family="Helvetica,sans-Serif" font-size="10.00" fill="#000000">HypoExponentialDistEqual</text>
</a>
</g>
</g>
<!-- Node0&#45;&gt;Node3 -->
<g id="edge3" class="edge">
<title>Node0&#45;&gt;Node3</title>
<path fill="none" stroke="#191970" d="M121.5703,-50.2097C108.2223,-40.3743 91.4821,-28.0394 80.0865,-19.6427"/>
<polygon fill="#191970" stroke="#191970" points="119.635,-53.1312 129.7618,-56.2455 123.7874,-47.4958 119.635,-53.1312"/>
</g>
<!-- Node4 -->
<g id="node5" class="node">
<title>Node4</title>
<g id="a_node5"><a xlink:href="classumontreal_1_1ssj_1_1probdist_1_1HypoExponentialDistQuick.html" target="_top" xlink:title="This class is a subclass of HypoExponentialDist and also implements the hypoexponential distribution...">
<polygon fill="none" stroke="#000000" points="152,-.5 152,-19.5 286,-19.5 286,-.5 152,-.5"/>
<text text-anchor="middle" x="219" y="-7.5" font-family="Helvetica,sans-Serif" font-size="10.00" fill="#000000">HypoExponentialDistQuick</text>
</a>
</g>
</g>
<!-- Node0&#45;&gt;Node4 -->
<g id="edge4" class="edge">
<title>Node0&#45;&gt;Node4</title>
<path fill="none" stroke="#191970" d="M164.4297,-50.2097C177.7777,-40.3743 194.5179,-28.0394 205.9135,-19.6427"/>
<polygon fill="#191970" stroke="#191970" points="162.2126,-47.4958 156.2382,-56.2455 166.365,-53.1312 162.2126,-47.4958"/>
</g>
<!-- Node1 -->
<g id="node2" class="node">
<title>Node1</title>
<g id="a_node2"><a xlink:href="classumontreal_1_1ssj_1_1probdist_1_1ContinuousDistribution.html" target="_top" xlink:title="Classes implementing continuous distributions should inherit from this base class. ">
<polygon fill="none" stroke="#000000" points="85,-112.5 85,-131.5 201,-131.5 201,-112.5 85,-112.5"/>
<text text-anchor="middle" x="143" y="-119.5" font-family="Helvetica,sans-Serif" font-size="10.00" fill="#000000">ContinuousDistribution</text>
</a>
</g>
</g>
<!-- Node1&#45;&gt;Node0 -->
<g id="edge1" class="edge">
<title>Node1&#45;&gt;Node0</title>
<path fill="none" stroke="#191970" d="M143,-102.1575C143,-93.155 143,-82.9199 143,-75.6427"/>
<polygon fill="#191970" stroke="#191970" points="139.5001,-102.2455 143,-112.2455 146.5001,-102.2456 139.5001,-102.2455"/>
</g>
<!-- Node2 -->
<g id="node3" class="node">
<title>Node2</title>
<g id="a_node3"><a xlink:href="interfaceumontreal_1_1ssj_1_1probdist_1_1Distribution.html" target="_top" xlink:title="This interface should be implemented by all classes supporting discrete and continuous distributions...">
<polygon fill="none" stroke="#000000" points="110,-168.5 110,-187.5 176,-187.5 176,-168.5 110,-168.5"/>
<text text-anchor="middle" x="143" y="-175.5" font-family="Helvetica,sans-Serif" font-size="10.00" fill="#000000">Distribution</text>
</a>
</g>
</g>
<!-- Node2&#45;&gt;Node1 -->
<g id="edge2" class="edge">
<title>Node2&#45;&gt;Node1</title>
<path fill="none" stroke="#191970" d="M143,-158.1575C143,-149.155 143,-138.9199 143,-131.6427"/>
<polygon fill="#191970" stroke="#191970" points="139.5001,-158.2455 143,-168.2455 146.5001,-158.2456 139.5001,-158.2455"/>
</g>
</g>
</svg>
