<?xml version="1.0" encoding="UTF-8" standalone="no"?>
<!DOCTYPE svg PUBLIC "-//W3C//DTD SVG 1.1//EN"
 "http://www.w3.org/Graphics/SVG/1.1/DTD/svg11.dtd">
<!-- Generated by graphviz version 2.38.0 (20140413.2041)
 -->
<!-- Title: CallableBondCV Pages: 1 -->
<svg width="451pt" height="442pt"
 viewBox="0.00 0.00 451.00 442.00" xmlns="http://www.w3.org/2000/svg" xmlns:xlink="http://www.w3.org/1999/xlink">
<g id="graph0" class="graph" transform="scale(1 1) rotate(0) translate(4 438)">
<title>CallableBondCV</title>
<!-- Node3 -->
<g id="node1" class="node"><title>Node3</title>
<polygon fill="#bfbfbf" stroke="black" points="65.5,-0.5 65.5,-19.5 154.5,-19.5 154.5,-0.5 65.5,-0.5"/>
<text text-anchor="middle" x="110" y="-7.5" font-family="Helvetica,sans-Serif" font-size="10.00">CallableBondCV</text>
</g>
<!-- Node4 -->
<g id="node2" class="node"><title>Node4</title>
<g id="a_node2"><a xlink:href="classift6561examples_1_1CallableBond.html" target="_top" xlink:title="Estimates the value of a callable bond. ">
<polygon fill="none" stroke="black" points="73,-57.5 73,-76.5 147,-76.5 147,-57.5 73,-57.5"/>
<text text-anchor="middle" x="110" y="-64.5" font-family="Helvetica,sans-Serif" font-size="10.00">CallableBond</text>
</a>
</g>
</g>
<!-- Node4&#45;&gt;Node3 -->
<g id="edge1" class="edge"><title>Node4&#45;&gt;Node3</title>
<path fill="none" stroke="midnightblue" d="M110,-47.1166C110,-37.8173 110,-27.0557 110,-19.7149"/>
<polygon fill="midnightblue" stroke="midnightblue" points="106.5,-47.4062 110,-57.4062 113.5,-47.4063 106.5,-47.4062"/>
</g>
<!-- Node5 -->
<g id="node3" class="node"><title>Node5</title>
<g id="a_node3"><a xlink:href="interfaceumontreal_1_1ssj_1_1mcqmctools_1_1MonteCarloModelDouble.html" target="_top" xlink:title="An interface for a very simple simulation model for which Monte Carlo (MC) and RQMC experiments are t...">
<polygon fill="none" stroke="black" points="0,-130 0,-149 124,-149 124,-130 0,-130"/>
<text text-anchor="middle" x="62" y="-137" font-family="Helvetica,sans-Serif" font-size="10.00">MonteCarloModelDouble</text>
</a>
</g>
</g>
<!-- Node5&#45;&gt;Node4 -->
<g id="edge2" class="edge"><title>Node5&#45;&gt;Node4</title>
<path fill="none" stroke="midnightblue" d="M73.5779,-121.495C83.1945,-107.371 96.4847,-87.8505 104.066,-76.7154"/>
<polygon fill="midnightblue" stroke="midnightblue" points="70.6206,-119.62 67.8857,-129.855 76.4068,-123.559 70.6206,-119.62"/>
</g>
<!-- Node6 -->
<g id="node4" class="node"><title>Node6</title>
<g id="a_node4"><a xlink:href="classift6561examples_1_1OrnsteinUhlenbeckWithIntegratedProcess.html" target="_top" xlink:title="This class is custom&#45;made for the CallableBond example. ">
<polygon fill="none" stroke="black" points="142,-124.5 142,-154.5 306,-154.5 306,-124.5 142,-124.5"/>
<text text-anchor="start" x="150" y="-142.5" font-family="Helvetica,sans-Serif" font-size="10.00">OrnsteinUhlenbeckWithIntegrated</text>
<text text-anchor="middle" x="224" y="-131.5" font-family="Helvetica,sans-Serif" font-size="10.00">Process</text>
</a>
</g>
</g>
<!-- Node6&#45;&gt;Node4 -->
<g id="edge3" class="edge"><title>Node6&#45;&gt;Node4</title>
<path fill="none" stroke="#9a32cd" stroke-dasharray="5,2" d="M192.625,-119.097C170.074,-105.151 140.763,-87.0245 123.799,-76.5336"/>
<polygon fill="#9a32cd" stroke="#9a32cd" points="190.858,-122.12 201.204,-124.403 194.54,-116.166 190.858,-122.12"/>
<text text-anchor="middle" x="186" y="-98" font-family="Helvetica,sans-Serif" font-size="10.00"> ornUhl</text>
</g>
<!-- Node7 -->
<g id="node5" class="node"><title>Node7</title>
<g id="a_node5"><a xlink:href="classumontreal_1_1ssj_1_1stochprocess_1_1OrnsteinUhlenbeckProcess.html" target="_top" xlink:title="This class represents an Ornstein&#45;Uhlenbeck process , sampled at times . ">
<polygon fill="none" stroke="black" points="79,-202.5 79,-221.5 215,-221.5 215,-202.5 79,-202.5"/>
<text text-anchor="middle" x="147" y="-209.5" font-family="Helvetica,sans-Serif" font-size="10.00">OrnsteinUhlenbeckProcess</text>
</a>
</g>
</g>
<!-- Node7&#45;&gt;Node6 -->
<g id="edge4" class="edge"><title>Node7&#45;&gt;Node6</title>
<path fill="none" stroke="midnightblue" d="M163.994,-195.44C177.328,-183.232 195.728,-166.386 208.626,-154.576"/>
<polygon fill="midnightblue" stroke="midnightblue" points="161.454,-193.021 156.442,-202.355 166.181,-198.184 161.454,-193.021"/>
</g>
<!-- Node8 -->
<g id="node6" class="node"><title>Node8</title>
<g id="a_node6"><a xlink:href="classumontreal_1_1ssj_1_1stochprocess_1_1StochasticProcess.html" target="_top" xlink:title="Abstract base class for a stochastic process &#160;sampled (or observed) at a finite number of time points...">
<polygon fill="none" stroke="black" points="13.5,-280.5 13.5,-299.5 112.5,-299.5 112.5,-280.5 13.5,-280.5"/>
<text text-anchor="middle" x="63" y="-287.5" font-family="Helvetica,sans-Serif" font-size="10.00">StochasticProcess</text>
</a>
</g>
</g>
<!-- Node8&#45;&gt;Node7 -->
<g id="edge5" class="edge"><title>Node8&#45;&gt;Node7</title>
<path fill="none" stroke="midnightblue" d="M80.3481,-273.304C97.6586,-257.642 123.617,-234.156 137.477,-221.616"/>
<polygon fill="midnightblue" stroke="midnightblue" points="77.703,-270.977 72.6359,-280.282 82.3995,-276.168 77.703,-270.977"/>
</g>
<!-- Node9 -->
<g id="node7" class="node"><title>Node9</title>
<g id="a_node7"><a xlink:href="classumontreal_1_1ssj_1_1randvar_1_1NormalGen.html" target="_top" xlink:title="This class implements methods for generating random variates from the normal distribution ...">
<polygon fill="none" stroke="black" points="131,-280.5 131,-299.5 197,-299.5 197,-280.5 131,-280.5"/>
<text text-anchor="middle" x="164" y="-287.5" font-family="Helvetica,sans-Serif" font-size="10.00">NormalGen</text>
</a>
</g>
</g>
<!-- Node9&#45;&gt;Node7 -->
<g id="edge6" class="edge"><title>Node9&#45;&gt;Node7</title>
<path fill="none" stroke="#9a32cd" stroke-dasharray="5,2" d="M159.8,-270.224C156.327,-254.697 151.554,-233.358 148.927,-221.616"/>
<polygon fill="#9a32cd" stroke="#9a32cd" points="156.451,-271.287 162.05,-280.282 163.283,-269.759 156.451,-271.287"/>
<text text-anchor="middle" x="166.5" y="-248.5" font-family="Helvetica,sans-Serif" font-size="10.00"> gen</text>
</g>
<!-- Node10 -->
<g id="node8" class="node"><title>Node10</title>
<g id="a_node8"><a xlink:href="classumontreal_1_1ssj_1_1randvar_1_1RandomVariateGen.html" target="_top" xlink:title="This is the base class for all random variate generators over the real line. ">
<polygon fill="none" stroke="black" points="240,-347.5 240,-366.5 342,-366.5 342,-347.5 240,-347.5"/>
<text text-anchor="middle" x="291" y="-354.5" font-family="Helvetica,sans-Serif" font-size="10.00">RandomVariateGen</text>
</a>
</g>
</g>
<!-- Node10&#45;&gt;Node9 -->
<g id="edge7" class="edge"><title>Node10&#45;&gt;Node9</title>
<path fill="none" stroke="midnightblue" d="M265.158,-342.774C240.004,-329.9 202.508,-310.709 180.934,-299.667"/>
<polygon fill="midnightblue" stroke="midnightblue" points="263.639,-345.928 274.135,-347.369 266.828,-339.697 263.639,-345.928"/>
</g>
<!-- Node14 -->
<g id="node12" class="node"><title>Node14</title>
<g id="a_node12"><a xlink:href="classumontreal_1_1ssj_1_1randvarmulti_1_1RandomMultivariateGen.html" target="_top" xlink:title="This class is the multivariate counterpart of umontreal.ssj.randvar.RandomVariateGen. ">
<polygon fill="none" stroke="black" points="321,-280.5 321,-299.5 443,-299.5 443,-280.5 321,-280.5"/>
<text text-anchor="middle" x="382" y="-287.5" font-family="Helvetica,sans-Serif" font-size="10.00">RandomMultivariateGen</text>
</a>
</g>
</g>
<!-- Node10&#45;&gt;Node14 -->
<g id="edge12" class="edge"><title>Node10&#45;&gt;Node14</title>
<path fill="none" stroke="#9a32cd" stroke-dasharray="5,2" d="M310.691,-341.428C320.38,-334.305 332.257,-325.642 343,-318 351.724,-311.794 361.644,-304.929 369.297,-299.674"/>
<polygon fill="#9a32cd" stroke="#9a32cd" points="308.477,-338.712 302.505,-347.463 312.631,-344.347 308.477,-338.712"/>
<text text-anchor="middle" x="355.5" y="-321" font-family="Helvetica,sans-Serif" font-size="10.00"> gen1</text>
</g>
<!-- Node11 -->
<g id="node9" class="node"><title>Node11</title>
<g id="a_node9"><a xlink:href="interfaceumontreal_1_1ssj_1_1probdist_1_1Distribution.html" target="_top" xlink:title="This interface should be implemented by all classes supporting discrete and continuous distributions...">
<polygon fill="none" stroke="black" points="255,-414.5 255,-433.5 321,-433.5 321,-414.5 255,-414.5"/>
<text text-anchor="middle" x="288" y="-421.5" font-family="Helvetica,sans-Serif" font-size="10.00">Distribution</text>
</a>
</g>
</g>
<!-- Node11&#45;&gt;Node10 -->
<g id="edge8" class="edge"><title>Node11&#45;&gt;Node10</title>
<path fill="none" stroke="#9a32cd" stroke-dasharray="5,2" d="M288.875,-404.037C289.446,-391.67 290.164,-376.12 290.602,-366.627"/>
<polygon fill="#9a32cd" stroke="#9a32cd" points="285.369,-404.083 288.405,-414.234 292.362,-404.406 285.369,-404.083"/>
<text text-anchor="middle" x="298.5" y="-388" font-family="Helvetica,sans-Serif" font-size="10.00"> dist</text>
</g>
<!-- Node12 -->
<g id="node10" class="node"><title>Node12</title>
<g id="a_node10"><a xlink:href="interfaceumontreal_1_1ssj_1_1rng_1_1RandomStream.html" target="_top" xlink:title="This interface defines the basic structures to handle multiple streams of uniform (pseudo)random numb...">
<polygon fill="none" stroke="black" points="339.5,-414.5 339.5,-433.5 424.5,-433.5 424.5,-414.5 339.5,-414.5"/>
<text text-anchor="middle" x="382" y="-421.5" font-family="Helvetica,sans-Serif" font-size="10.00">RandomStream</text>
</a>
</g>
</g>
<!-- Node12&#45;&gt;Node10 -->
<g id="edge9" class="edge"><title>Node12&#45;&gt;Node10</title>
<path fill="none" stroke="#9a32cd" stroke-dasharray="5,2" d="M355.773,-409.564C348.528,-405.502 340.794,-400.831 334,-396 321.334,-386.994 308.137,-374.853 299.76,-366.743"/>
<polygon fill="#9a32cd" stroke="#9a32cd" points="354.124,-412.651 364.582,-414.347 357.465,-406.499 354.124,-412.651"/>
<text text-anchor="middle" x="351" y="-388" font-family="Helvetica,sans-Serif" font-size="10.00"> stream</text>
</g>
<!-- Node12&#45;&gt;Node14 -->
<g id="edge13" class="edge"><title>Node12&#45;&gt;Node14</title>
<path fill="none" stroke="#9a32cd" stroke-dasharray="5,2" d="M382,-404.275C382,-375.246 382,-320.538 382,-299.521"/>
<polygon fill="#9a32cd" stroke="#9a32cd" points="378.5,-404.339 382,-414.339 385.5,-404.339 378.5,-404.339"/>
<text text-anchor="middle" x="399" y="-354.5" font-family="Helvetica,sans-Serif" font-size="10.00"> stream</text>
</g>
<!-- Node13 -->
<g id="node11" class="node"><title>Node13</title>
<g id="a_node11"><a xlink:href="classumontreal_1_1ssj_1_1randvarmulti_1_1MultinormalGen.html" target="_top" xlink:title="Extends RandomMultivariateGen for a multivariate normal (or multinormal) distribution  ...">
<polygon fill="none" stroke="black" points="233.5,-202.5 233.5,-221.5 318.5,-221.5 318.5,-202.5 233.5,-202.5"/>
<text text-anchor="middle" x="276" y="-209.5" font-family="Helvetica,sans-Serif" font-size="10.00">MultinormalGen</text>
</a>
</g>
</g>
<!-- Node13&#45;&gt;Node6 -->
<g id="edge10" class="edge"><title>Node13&#45;&gt;Node6</title>
<path fill="none" stroke="#9a32cd" stroke-dasharray="5,2" d="M263.49,-194.039C254.586,-181.968 242.764,-165.94 234.382,-154.576"/>
<polygon fill="#9a32cd" stroke="#9a32cd" points="260.871,-196.385 269.624,-202.355 266.505,-192.23 260.871,-196.385"/>
<text text-anchor="middle" x="291.5" y="-176" font-family="Helvetica,sans-Serif" font-size="10.00"> normalsCorrGen</text>
</g>
<!-- Node14&#45;&gt;Node13 -->
<g id="edge11" class="edge"><title>Node14&#45;&gt;Node13</title>
<path fill="none" stroke="midnightblue" d="M364.133,-273.576C352.231,-263.573 336.067,-250.499 321,-240 311.581,-233.437 300.533,-226.794 291.741,-221.739"/>
<polygon fill="midnightblue" stroke="midnightblue" points="362.082,-276.427 371.969,-280.236 366.616,-271.093 362.082,-276.427"/>
</g>
<!-- Node15 -->
<g id="node13" class="node"><title>Node15</title>
<polygon fill="none" stroke="#bfbfbf" points="215.5,-280.5 215.5,-299.5 302.5,-299.5 302.5,-280.5 215.5,-280.5"/>
<text text-anchor="middle" x="259" y="-287.5" font-family="Helvetica,sans-Serif" font-size="10.00">DoubleMatrix2D</text>
</g>
<!-- Node15&#45;&gt;Node13 -->
<g id="edge14" class="edge"><title>Node15&#45;&gt;Node13</title>
<path fill="none" stroke="#9a32cd" stroke-dasharray="5,2" d="M263.2,-270.224C266.673,-254.697 271.446,-233.358 274.073,-221.616"/>
<polygon fill="#9a32cd" stroke="#9a32cd" points="259.717,-269.759 260.95,-280.282 266.549,-271.287 259.717,-269.759"/>
<text text-anchor="middle" x="293" y="-254" font-family="Helvetica,sans-Serif" font-size="10.00"> sqrtSigma</text>
<text text-anchor="middle" x="293" y="-243" font-family="Helvetica,sans-Serif" font-size="10.00">sigma</text>
</g>
</g>
</svg>
