<?xml version="1.0" encoding="UTF-8" standalone="no"?>
<!DOCTYPE svg PUBLIC "-//W3C//DTD SVG 1.1//EN"
 "http://www.w3.org/Graphics/SVG/1.1/DTD/svg11.dtd">
<!-- Generated by graphviz version 2.40.1 (20161225.0304)
 -->
<!-- Title: ThreadCPUTimeChrono Pages: 1 -->
<svg width="199pt" height="95pt"
 viewBox="0.00 0.00 198.50 95.00" xmlns="http://www.w3.org/2000/svg" xmlns:xlink="http://www.w3.org/1999/xlink">
<g id="graph0" class="graph" transform="scale(1 1) rotate(0) translate(4 91)">
<title>ThreadCPUTimeChrono</title>
<!-- Node2 -->
<g id="node1" class="node">
<title>Node2</title>
<polygon fill="#bfbfbf" stroke="#000000" points="32.5,-.5 32.5,-19.5 154.5,-19.5 154.5,-.5 32.5,-.5"/>
<text text-anchor="middle" x="93.5" y="-7.5" font-family="Helvetica,sans-Serif" font-size="10.00" fill="#000000">ThreadCPUTimeChrono</text>
</g>
<!-- Node3 -->
<g id="node2" class="node">
<title>Node3</title>
<g id="a_node2"><a xlink:href="classumontreal_1_1ssj_1_1util_1_1AbstractChrono.html" target="_top" xlink:title="AbstractChrono is a class that acts as an interface to the system clock and calculates the CPU or sys...">
<polygon fill="none" stroke="#000000" points="0,-67.5 0,-86.5 85,-86.5 85,-67.5 0,-67.5"/>
<text text-anchor="middle" x="42.5" y="-74.5" font-family="Helvetica,sans-Serif" font-size="10.00" fill="#000000">AbstractChrono</text>
</a>
</g>
</g>
<!-- Node3&#45;&gt;Node2 -->
<g id="edge1" class="edge">
<title>Node3&#45;&gt;Node2</title>
<path fill="none" stroke="#191970" d="M55.9361,-59.3486C65.6256,-46.6194 78.3348,-29.9229 86.2065,-19.5817"/>
<polygon fill="#191970" stroke="#191970" points="53.079,-57.3236 49.8071,-67.4005 58.6489,-61.5634 53.079,-57.3236"/>
</g>
<!-- Node4 -->
<g id="node3" class="node">
<title>Node4</title>
<polygon fill="none" stroke="#bfbfbf" points="103.5,-67.5 103.5,-86.5 187.5,-86.5 187.5,-67.5 103.5,-67.5"/>
<text text-anchor="middle" x="145.5" y="-74.5" font-family="Helvetica,sans-Serif" font-size="10.00" fill="#000000">ThreadMXBean</text>
</g>
<!-- Node4&#45;&gt;Node2 -->
<g id="edge2" class="edge">
<title>Node4&#45;&gt;Node2</title>
<path fill="none" stroke="#9a32cd" stroke-dasharray="5,2" d="M131.8004,-59.3486C121.921,-46.6194 108.9626,-29.9229 100.9365,-19.5817"/>
<polygon fill="#9a32cd" stroke="#9a32cd" points="129.1534,-61.6466 138.0497,-67.4005 134.6834,-57.3547 129.1534,-61.6466"/>
<text text-anchor="middle" x="156.5" y="-41" font-family="Helvetica,sans-Serif" font-size="10.00" fill="#000000"> threadMXBean</text>
</g>
</g>
</svg>
