<?xml version="1.0" encoding="UTF-8" standalone="no"?>
<!DOCTYPE svg PUBLIC "-//W3C//DTD SVG 1.1//EN"
 "http://www.w3.org/Graphics/SVG/1.1/DTD/svg11.dtd">
<!-- Generated by graphviz version 2.40.1 (0)
 -->
<!-- Title: OrnsteinUhlenbeckProcess Pages: 1 -->
<svg width="326pt" height="151pt"
 viewBox="0.00 0.00 326.00 151.00" xmlns="http://www.w3.org/2000/svg" xmlns:xlink="http://www.w3.org/1999/xlink">
<g id="graph0" class="graph" transform="scale(1 1) rotate(0) translate(4 147)">
<title>OrnsteinUhlenbeckProcess</title>
<!-- Node0 -->
<g id="node1" class="node">
<title>Node0</title>
<g id="a_node1"><a xlink:title="This class represents an Ornstein&#45;Uhlenbeck process , sampled at times .">
<polygon fill="#bfbfbf" stroke="#000000" points="98,-67.5 98,-86.5 234,-86.5 234,-67.5 98,-67.5"/>
<text text-anchor="middle" x="166" y="-74.5" font-family="Helvetica,sans-Serif" font-size="10.00" fill="#000000">OrnsteinUhlenbeckProcess</text>
</a>
</g>
</g>
<!-- Node2 -->
<g id="node3" class="node">
<title>Node2</title>
<g id="a_node3"><a xlink:href="classift6561examples_1_1OrnsteinUhlenbeckWithIntegratedProcess.html" target="_top" xlink:title="This class is custom&#45;made for the CallableBond example.">
<polygon fill="none" stroke="#000000" points="0,-.5 0,-30.5 164,-30.5 164,-.5 0,-.5"/>
<text text-anchor="start" x="8" y="-18.5" font-family="Helvetica,sans-Serif" font-size="10.00" fill="#000000">OrnsteinUhlenbeckWithIntegrated</text>
<text text-anchor="middle" x="82" y="-7.5" font-family="Helvetica,sans-Serif" font-size="10.00" fill="#000000">Process</text>
</a>
</g>
</g>
<!-- Node0&#45;&gt;Node2 -->
<g id="edge2" class="edge">
<title>Node0&#45;&gt;Node2</title>
<path fill="none" stroke="#191970" d="M144.5723,-61.3119C131.6592,-51.8577 115.3008,-39.8809 102.5487,-30.5446"/>
<polygon fill="#191970" stroke="#191970" points="142.7388,-64.3072 152.875,-67.3906 146.874,-58.6592 142.7388,-64.3072"/>
</g>
<!-- Node3 -->
<g id="node4" class="node">
<title>Node3</title>
<g id="a_node4"><a xlink:href="classumontreal_1_1ssj_1_1stochprocess_1_1OrnsteinUhlenbeckProcessEuler.html" target="_top" xlink:title="This class represents an Ornstein&#45;Uhlenbeck process as in OrnsteinUhlenbeckProcess,...">
<polygon fill="none" stroke="#000000" points="182,-.5 182,-30.5 318,-30.5 318,-.5 182,-.5"/>
<text text-anchor="start" x="190" y="-18.5" font-family="Helvetica,sans-Serif" font-size="10.00" fill="#000000">OrnsteinUhlenbeckProcess</text>
<text text-anchor="middle" x="250" y="-7.5" font-family="Helvetica,sans-Serif" font-size="10.00" fill="#000000">Euler</text>
</a>
</g>
</g>
<!-- Node0&#45;&gt;Node3 -->
<g id="edge3" class="edge">
<title>Node0&#45;&gt;Node3</title>
<path fill="none" stroke="#191970" d="M187.4277,-61.3119C200.3408,-51.8577 216.6992,-39.8809 229.4513,-30.5446"/>
<polygon fill="#191970" stroke="#191970" points="185.126,-58.6592 179.125,-67.3906 189.2612,-64.3072 185.126,-58.6592"/>
</g>
<!-- Node1 -->
<g id="node2" class="node">
<title>Node1</title>
<g id="a_node2"><a xlink:href="classumontreal_1_1ssj_1_1stochprocess_1_1StochasticProcess.html" target="_top" xlink:title="Abstract base class for a stochastic process &#160;sampled (or observed) at a finite number of time points...">
<polygon fill="none" stroke="#000000" points="116.5,-123.5 116.5,-142.5 215.5,-142.5 215.5,-123.5 116.5,-123.5"/>
<text text-anchor="middle" x="166" y="-130.5" font-family="Helvetica,sans-Serif" font-size="10.00" fill="#000000">StochasticProcess</text>
</a>
</g>
</g>
<!-- Node1&#45;&gt;Node0 -->
<g id="edge1" class="edge">
<title>Node1&#45;&gt;Node0</title>
<path fill="none" stroke="#191970" d="M166,-113.1575C166,-104.155 166,-93.9199 166,-86.6427"/>
<polygon fill="#191970" stroke="#191970" points="162.5001,-113.2455 166,-123.2455 169.5001,-113.2456 162.5001,-113.2455"/>
</g>
</g>
</svg>
