<?xml version="1.0" encoding="UTF-8" standalone="no"?>
<!DOCTYPE svg PUBLIC "-//W3C//DTD SVG 1.1//EN"
 "http://www.w3.org/Graphics/SVG/1.1/DTD/svg11.dtd">
<!-- Generated by graphviz version 2.40.1 (20161225.0304)
 -->
<!-- Title: Event Pages: 1 -->
<svg width="290pt" height="219pt"
 viewBox="0.00 0.00 289.50 219.00" xmlns="http://www.w3.org/2000/svg" xmlns:xlink="http://www.w3.org/1999/xlink">
<g id="graph0" class="graph" transform="scale(1 1) rotate(0) translate(4 215)">
<title>Event</title>
<!-- Node12 -->
<g id="node1" class="node">
<title>Node12</title>
<polygon fill="#bfbfbf" stroke="#000000" points="51.5,-.5 51.5,-19.5 93.5,-19.5 93.5,-.5 51.5,-.5"/>
<text text-anchor="middle" x="72.5" y="-7.5" font-family="Helvetica,sans-Serif" font-size="10.00" fill="#000000">Event</text>
</g>
<!-- Node13 -->
<g id="node2" class="node">
<title>Node13</title>
<polygon fill="none" stroke="#bfbfbf" points="0,-67.5 0,-86.5 113,-86.5 113,-67.5 0,-67.5"/>
<text text-anchor="middle" x="56.5" y="-74.5" font-family="Helvetica,sans-Serif" font-size="10.00" fill="#000000">Comparable&lt; Event &gt;</text>
</g>
<!-- Node13&#45;&gt;Node12 -->
<g id="edge1" class="edge">
<title>Node13&#45;&gt;Node12</title>
<path fill="none" stroke="#191970" d="M61.16,-57.4863C64.135,-45.0286 67.861,-29.4258 70.2118,-19.5817"/>
<polygon fill="#191970" stroke="#191970" points="57.711,-56.861 58.7924,-67.4005 64.5195,-58.487 57.711,-56.861"/>
</g>
<!-- Node14 -->
<g id="node3" class="node">
<title>Node14</title>
<g id="a_node3"><a xlink:href="classumontreal_1_1ssj_1_1simevents_1_1Simulator.html" target="_top" xlink:title="Represents the executive of a discrete&#45;event simulator. ">
<polygon fill="none" stroke="#000000" points="131.5,-67.5 131.5,-86.5 189.5,-86.5 189.5,-67.5 131.5,-67.5"/>
<text text-anchor="middle" x="160.5" y="-74.5" font-family="Helvetica,sans-Serif" font-size="10.00" fill="#000000">Simulator</text>
</a>
</g>
</g>
<!-- Node14&#45;&gt;Node12 -->
<g id="edge2" class="edge">
<title>Node14&#45;&gt;Node12</title>
<path fill="none" stroke="#9a32cd" stroke-dasharray="5,2" d="M139.6899,-61.1559C122.725,-48.2395 99.3204,-30.4201 85.0849,-19.5817"/>
<polygon fill="#9a32cd" stroke="#9a32cd" points="137.8151,-64.1275 147.8917,-67.4005 142.0555,-58.558 137.8151,-64.1275"/>
<text text-anchor="middle" x="132" y="-41" font-family="Helvetica,sans-Serif" font-size="10.00" fill="#000000"> sim</text>
</g>
<!-- Node14&#45;&gt;Node14 -->
<g id="edge3" class="edge">
<title>Node14&#45;&gt;Node14</title>
<path fill="none" stroke="#9a32cd" stroke-dasharray="5,2" d="M200.103,-82.0845C204.5912,-81.1323 207.5,-79.4375 207.5,-77 207.5,-73 199.6667,-71 189.875,-71"/>
<polygon fill="#9a32cd" stroke="#9a32cd" points="199.5231,-78.6223 189.875,-83 200.1473,-85.5944 199.5231,-78.6223"/>
<text text-anchor="middle" x="244.5" y="-74.5" font-family="Helvetica,sans-Serif" font-size="10.00" fill="#000000"> defaultSimulator</text>
</g>
<!-- Node15 -->
<g id="node4" class="node">
<title>Node15</title>
<g id="a_node4"><a xlink:href="interfaceumontreal_1_1ssj_1_1simevents_1_1eventlist_1_1EventList.html" target="_top" xlink:title="An interface for implementations of event lists. ">
<polygon fill="none" stroke="#000000" points="79.5,-134.5 79.5,-153.5 137.5,-153.5 137.5,-134.5 79.5,-134.5"/>
<text text-anchor="middle" x="108.5" y="-141.5" font-family="Helvetica,sans-Serif" font-size="10.00" fill="#000000">EventList</text>
</a>
</g>
</g>
<!-- Node15&#45;&gt;Node14 -->
<g id="edge4" class="edge">
<title>Node15&#45;&gt;Node14</title>
<path fill="none" stroke="#9a32cd" stroke-dasharray="5,2" d="M117.6122,-125.164C121.215,-118.5102 125.6549,-111.1567 130.5,-105 135.7871,-98.2816 142.7093,-91.7094 148.5721,-86.6225"/>
<polygon fill="#9a32cd" stroke="#9a32cd" points="114.4318,-123.6957 112.9829,-134.191 120.6605,-126.89 114.4318,-123.6957"/>
<text text-anchor="middle" x="152" y="-108" font-family="Helvetica,sans-Serif" font-size="10.00" fill="#000000"> eventList</text>
</g>
<!-- Node16 -->
<g id="node5" class="node">
<title>Node16</title>
<polygon fill="none" stroke="#bfbfbf" points="62.5,-191.5 62.5,-210.5 154.5,-210.5 154.5,-191.5 62.5,-191.5"/>
<text text-anchor="middle" x="108.5" y="-198.5" font-family="Helvetica,sans-Serif" font-size="10.00" fill="#000000">Iterable&lt; Event &gt;</text>
</g>
<!-- Node16&#45;&gt;Node15 -->
<g id="edge5" class="edge">
<title>Node16&#45;&gt;Node15</title>
<path fill="none" stroke="#191970" d="M108.5,-181.2342C108.5,-171.8491 108.5,-161.0651 108.5,-153.5265"/>
<polygon fill="#191970" stroke="#191970" points="105.0001,-181.3307 108.5,-191.3307 112.0001,-181.3308 105.0001,-181.3307"/>
</g>
<!-- Node17 -->
<g id="node6" class="node">
<title>Node17</title>
<g id="a_node6"><a xlink:href="classumontreal_1_1ssj_1_1simevents_1_1ContinuousState.html" target="_top" xlink:title="Represents the portion of the simulator’s state associated with continuous&#45;time simulation. ">
<polygon fill="none" stroke="#000000" points="156,-134.5 156,-153.5 245,-153.5 245,-134.5 156,-134.5"/>
<text text-anchor="middle" x="200.5" y="-141.5" font-family="Helvetica,sans-Serif" font-size="10.00" fill="#000000">ContinuousState</text>
</a>
</g>
</g>
<!-- Node17&#45;&gt;Node14 -->
<g id="edge6" class="edge">
<title>Node17&#45;&gt;Node14</title>
<path fill="none" stroke="#9a32cd" stroke-dasharray="5,2" d="M189.5208,-125.6099C181.9803,-112.9795 172.2756,-96.7241 166.2204,-86.5817"/>
<polygon fill="#9a32cd" stroke="#9a32cd" points="186.6376,-127.6085 194.769,-134.4005 192.648,-124.0202 186.6376,-127.6085"/>
<text text-anchor="middle" x="219.5" y="-108" font-family="Helvetica,sans-Serif" font-size="10.00" fill="#000000"> continuousState</text>
</g>
</g>
</svg>
