<?xml version="1.0" encoding="UTF-8" standalone="no"?>
<!DOCTYPE svg PUBLIC "-//W3C//DTD SVG 1.1//EN"
 "http://www.w3.org/Graphics/SVG/1.1/DTD/svg11.dtd">
<!-- Generated by graphviz version 2.40.1 (0)
 -->
<!-- Title: MultDimToOneDimSort Pages: 1 -->
<svg width="188pt" height="140pt"
 viewBox="0.00 0.00 187.50 140.00" xmlns="http://www.w3.org/2000/svg" xmlns:xlink="http://www.w3.org/1999/xlink">
<g id="graph0" class="graph" transform="scale(1 1) rotate(0) translate(4 136)">
<title>MultDimToOneDimSort</title>
<!-- Node0 -->
<g id="node1" class="node">
<title>Node0</title>
<g id="a_node1"><a xlink:title="This abstract class takes multi&#45;dimensional objects such as arrays or #MultiDim&#39;s,...">
<polygon fill="#bfbfbf" stroke="#000000" points="17.5,-56.5 17.5,-75.5 135.5,-75.5 135.5,-56.5 17.5,-56.5"/>
<text text-anchor="middle" x="76.5" y="-63.5" font-family="Helvetica,sans-Serif" font-size="10.00" fill="#000000">MultDimToOneDimSort</text>
</a>
</g>
</g>
<!-- Node2 -->
<g id="node3" class="node">
<title>Node2</title>
<g id="a_node3"><a xlink:href="classumontreal_1_1ssj_1_1markovchainrqmc_1_1florian_1_1chemicalReactionNetworks_1_1PKASort.html" target="_top" xlink:title="Implements a #MultDimToOneDimSort for the #PKA class, where the score function is a multivariate poly...">
<polygon fill="none" stroke="#000000" points="0,-.5 0,-19.5 55,-19.5 55,-.5 0,-.5"/>
<text text-anchor="middle" x="27.5" y="-7.5" font-family="Helvetica,sans-Serif" font-size="10.00" fill="#000000">PKASort</text>
</a>
</g>
</g>
<!-- Node0&#45;&gt;Node2 -->
<g id="edge2" class="edge">
<title>Node0&#45;&gt;Node2</title>
<path fill="none" stroke="#191970" d="M61.1878,-48.5004C52.8553,-38.9775 42.8647,-27.5596 35.9373,-19.6427"/>
<polygon fill="#191970" stroke="#191970" points="58.7457,-51.0245 67.9649,-56.2455 64.0138,-46.415 58.7457,-51.0245"/>
</g>
<!-- Node3 -->
<g id="node4" class="node">
<title>Node3</title>
<g id="a_node4"><a xlink:href="classumontreal_1_1ssj_1_1markovchainrqmc_1_1florian_1_1chemicalReactionNetworks_1_1SchloeglSystemSort.html" target="_top" xlink:title="Implements a #MultDimToOneDimSort for the #SchloeglSystem class, where the score function is a bivari...">
<polygon fill="none" stroke="#000000" points="73.5,-.5 73.5,-19.5 179.5,-19.5 179.5,-.5 73.5,-.5"/>
<text text-anchor="middle" x="126.5" y="-7.5" font-family="Helvetica,sans-Serif" font-size="10.00" fill="#000000">SchloeglSystemSort</text>
</a>
</g>
</g>
<!-- Node0&#45;&gt;Node3 -->
<g id="edge3" class="edge">
<title>Node0&#45;&gt;Node3</title>
<path fill="none" stroke="#191970" d="M92.1247,-48.5004C100.6273,-38.9775 110.8218,-27.5596 117.8905,-19.6427"/>
<polygon fill="#191970" stroke="#191970" points="89.2587,-46.4551 85.2093,-56.2455 94.4803,-51.1172 89.2587,-46.4551"/>
</g>
<!-- Node1 -->
<g id="node2" class="node">
<title>Node1</title>
<g id="a_node2"><a xlink:href="interfaceumontreal_1_1ssj_1_1util_1_1sort_1_1MultiDimSort.html" target="_top" xlink:title="This interface is meant to be implemented by certain multivariate sorting algorithms that sort object...">
<polygon fill="none" stroke="#000000" points="11,-112.5 11,-131.5 142,-131.5 142,-112.5 11,-112.5"/>
<text text-anchor="middle" x="76.5" y="-119.5" font-family="Helvetica,sans-Serif" font-size="10.00" fill="#000000">MultiDimSort&lt; MultiDim &gt;</text>
</a>
</g>
</g>
<!-- Node1&#45;&gt;Node0 -->
<g id="edge1" class="edge">
<title>Node1&#45;&gt;Node0</title>
<path fill="none" stroke="#191970" d="M76.5,-102.1575C76.5,-93.155 76.5,-82.9199 76.5,-75.6427"/>
<polygon fill="#191970" stroke="#191970" points="73.0001,-102.2455 76.5,-112.2455 80.0001,-102.2456 73.0001,-102.2455"/>
</g>
</g>
</svg>
