<?xml version="1.0" encoding="UTF-8" standalone="no"?>
<!DOCTYPE svg PUBLIC "-//W3C//DTD SVG 1.1//EN"
 "http://www.w3.org/Graphics/SVG/1.1/DTD/svg11.dtd">
<!-- Generated by graphviz version 2.40.1 (20161225.0304)
 -->
<!-- Title: DigitalNetSearch.DigitalNetBase2FromLatNetBuilder Pages: 1 -->
<svg width="150pt" height="277pt"
 viewBox="0.00 0.00 150.00 277.00" xmlns="http://www.w3.org/2000/svg" xmlns:xlink="http://www.w3.org/1999/xlink">
<g id="graph0" class="graph" transform="scale(1 1) rotate(0) translate(4 273)">
<title>DigitalNetSearch.DigitalNetBase2FromLatNetBuilder</title>
<!-- Node4 -->
<g id="node1" class="node">
<title>Node4</title>
<polygon fill="#bfbfbf" stroke="#000000" points="0,-.5 0,-30.5 142,-30.5 142,-.5 0,-.5"/>
<text text-anchor="start" x="8" y="-18.5" font-family="Helvetica,sans-Serif" font-size="10.00" fill="#000000">DigitalNetSearch.Digital</text>
<text text-anchor="middle" x="71" y="-7.5" font-family="Helvetica,sans-Serif" font-size="10.00" fill="#000000">NetBase2FromLatNetBuilder</text>
</g>
<!-- Node5 -->
<g id="node2" class="node">
<title>Node5</title>
<g id="a_node2"><a xlink:href="classumontreal_1_1ssj_1_1hups_1_1DigitalNetBase2.html" target="_top" xlink:title="A special case of DigitalNet for the base . ">
<polygon fill="none" stroke="#000000" points="27,-68.5 27,-87.5 115,-87.5 115,-68.5 27,-68.5"/>
<text text-anchor="middle" x="71" y="-75.5" font-family="Helvetica,sans-Serif" font-size="10.00" fill="#000000">DigitalNetBase2</text>
</a>
</g>
</g>
<!-- Node5&#45;&gt;Node4 -->
<g id="edge1" class="edge">
<title>Node5&#45;&gt;Node4</title>
<path fill="none" stroke="#191970" d="M71,-58.0501C71,-49.2205 71,-39.0001 71,-30.7892"/>
<polygon fill="#191970" stroke="#191970" points="67.5001,-58.2343 71,-68.2344 74.5001,-58.2344 67.5001,-58.2343"/>
</g>
<!-- Node6 -->
<g id="node3" class="node">
<title>Node6</title>
<g id="a_node3"><a xlink:href="classumontreal_1_1ssj_1_1hups_1_1DigitalNet.html" target="_top" xlink:title="This class provides the basic structures for storing and manipulating linear digital nets in base ...">
<polygon fill="none" stroke="#000000" points="41,-125.5 41,-144.5 101,-144.5 101,-125.5 41,-125.5"/>
<text text-anchor="middle" x="71" y="-132.5" font-family="Helvetica,sans-Serif" font-size="10.00" fill="#000000">DigitalNet</text>
</a>
</g>
</g>
<!-- Node6&#45;&gt;Node5 -->
<g id="edge2" class="edge">
<title>Node6&#45;&gt;Node5</title>
<path fill="none" stroke="#191970" d="M71,-115.2342C71,-105.8491 71,-95.0651 71,-87.5265"/>
<polygon fill="#191970" stroke="#191970" points="67.5001,-115.3307 71,-125.3307 74.5001,-115.3308 67.5001,-115.3307"/>
</g>
<!-- Node7 -->
<g id="node4" class="node">
<title>Node7</title>
<g id="a_node4"><a xlink:href="classumontreal_1_1ssj_1_1hups_1_1PointSet.html" target="_top" xlink:title="This abstract class defines the basic methods for accessing and manipulating point sets...">
<polygon fill="none" stroke="#000000" points="44,-182.5 44,-201.5 98,-201.5 98,-182.5 44,-182.5"/>
<text text-anchor="middle" x="71" y="-189.5" font-family="Helvetica,sans-Serif" font-size="10.00" fill="#000000">PointSet</text>
</a>
</g>
</g>
<!-- Node7&#45;&gt;Node6 -->
<g id="edge3" class="edge">
<title>Node7&#45;&gt;Node6</title>
<path fill="none" stroke="#191970" d="M71,-172.2342C71,-162.8491 71,-152.0651 71,-144.5265"/>
<polygon fill="#191970" stroke="#191970" points="67.5001,-172.3307 71,-182.3307 74.5001,-172.3308 67.5001,-172.3307"/>
</g>
<!-- Node8 -->
<g id="node5" class="node">
<title>Node8</title>
<g id="a_node5"><a xlink:href="interfaceumontreal_1_1ssj_1_1rng_1_1RandomStream.html" target="_top" xlink:title="This interface defines the basic structures to handle multiple streams of uniform (pseudo)random numb...">
<polygon fill="none" stroke="#000000" points="28.5,-249.5 28.5,-268.5 113.5,-268.5 113.5,-249.5 28.5,-249.5"/>
<text text-anchor="middle" x="71" y="-256.5" font-family="Helvetica,sans-Serif" font-size="10.00" fill="#000000">RandomStream</text>
</a>
</g>
</g>
<!-- Node8&#45;&gt;Node7 -->
<g id="edge4" class="edge">
<title>Node8&#45;&gt;Node7</title>
<path fill="none" stroke="#9a32cd" stroke-dasharray="5,2" d="M71,-239.1079C71,-226.714 71,-211.3263 71,-201.5817"/>
<polygon fill="#9a32cd" stroke="#9a32cd" points="67.5001,-239.4005 71,-249.4005 74.5001,-239.4006 67.5001,-239.4005"/>
<text text-anchor="middle" x="98" y="-223" font-family="Helvetica,sans-Serif" font-size="10.00" fill="#000000"> shiftStream</text>
</g>
</g>
</svg>
