<?xml version="1.0" encoding="UTF-8" standalone="no"?>
<!DOCTYPE svg PUBLIC "-//W3C//DTD SVG 1.1//EN"
 "http://www.w3.org/Graphics/SVG/1.1/DTD/svg11.dtd">
<!-- Generated by graphviz version 2.38.0 (20140413.2041)
 -->
<!-- Title: ListOfTalliesWithCV&lt; E extends Tally &gt; Pages: 1 -->
<svg width="174pt" height="151pt"
 viewBox="0.00 0.00 174.00 151.00" xmlns="http://www.w3.org/2000/svg" xmlns:xlink="http://www.w3.org/1999/xlink">
<g id="graph0" class="graph" transform="scale(1 1) rotate(0) translate(4 147)">
<title>ListOfTalliesWithCV&lt; E extends Tally &gt;</title>
<!-- Node0 -->
<g id="node1" class="node"><title>Node0</title>
<polygon fill="#bfbfbf" stroke="black" points="30,-0.5 30,-30.5 136,-30.5 136,-0.5 30,-0.5"/>
<text text-anchor="start" x="38" y="-18.5" font-family="Helvetica,sans-Serif" font-size="10.00">ListOfTalliesWithCV</text>
<text text-anchor="middle" x="83" y="-7.5" font-family="Helvetica,sans-Serif" font-size="10.00">&lt; E extends Tally &gt;</text>
</g>
<!-- Node1 -->
<g id="node2" class="node"><title>Node1</title>
<g id="a_node2"><a xlink:href="classumontreal_1_1ssj_1_1stat_1_1list_1_1ListOfTalliesWithCovariance.html" target="_top" xlink:title="Extends ListOfTallies to add support for the computation of the sample covariance between each pair o...">
<polygon fill="none" stroke="black" points="0,-67.5 0,-86.5 166,-86.5 166,-67.5 0,-67.5"/>
<text text-anchor="middle" x="83" y="-74.5" font-family="Helvetica,sans-Serif" font-size="10.00">ListOfTalliesWithCovariance&lt; E &gt;</text>
</a>
</g>
</g>
<!-- Node1&#45;&gt;Node0 -->
<g id="edge1" class="edge"><title>Node1&#45;&gt;Node0</title>
<path fill="none" stroke="midnightblue" d="M83,-57.2349C83,-48.5864 83,-38.4969 83,-30.523"/>
<polygon fill="midnightblue" stroke="midnightblue" points="79.5001,-57.4751 83,-67.4751 86.5001,-57.4751 79.5001,-57.4751"/>
</g>
<!-- Node2 -->
<g id="node3" class="node"><title>Node2</title>
<g id="a_node3"><a xlink:href="classumontreal_1_1ssj_1_1stat_1_1list_1_1ListOfTallies.html" target="_top" xlink:title="ListOfTallies\&lt; E \&gt;">
<polygon fill="none" stroke="black" points="35,-123.5 35,-142.5 131,-142.5 131,-123.5 35,-123.5"/>
<text text-anchor="middle" x="83" y="-130.5" font-family="Helvetica,sans-Serif" font-size="10.00">ListOfTallies&lt; E &gt;</text>
</a>
</g>
</g>
<!-- Node2&#45;&gt;Node1 -->
<g id="edge2" class="edge"><title>Node2&#45;&gt;Node1</title>
<path fill="none" stroke="midnightblue" d="M83,-112.805C83,-103.91 83,-93.7798 83,-86.7511"/>
<polygon fill="midnightblue" stroke="midnightblue" points="79.5001,-113.083 83,-123.083 86.5001,-113.083 79.5001,-113.083"/>
</g>
</g>
</svg>
