<?xml version="1.0" encoding="UTF-8" standalone="no"?>
<!DOCTYPE svg PUBLIC "-//W3C//DTD SVG 1.1//EN"
 "http://www.w3.org/Graphics/SVG/1.1/DTD/svg11.dtd">
<!-- Generated by graphviz version 2.38.0 (20140413.2041)
 -->
<!-- Title: AverageMathFunction Pages: 1 -->
<svg width="428pt" height="125pt"
 viewBox="0.00 0.00 428.00 124.76" xmlns="http://www.w3.org/2000/svg" xmlns:xlink="http://www.w3.org/1999/xlink">
<g id="graph0" class="graph" transform="scale(1 1) rotate(0) translate(4 120.761)">
<title>AverageMathFunction</title>
<!-- Node5 -->
<g id="node1" class="node"><title>Node5</title>
<polygon fill="#bfbfbf" stroke="black" points="308,-57.5 308,-76.5 420,-76.5 420,-57.5 308,-57.5"/>
<text text-anchor="middle" x="364" y="-64.5" font-family="Helvetica,sans-Serif" font-size="10.00">AverageMathFunction</text>
</g>
<!-- Node6 -->
<g id="node2" class="node"><title>Node6</title>
<g id="a_node2"><a xlink:href="interfaceumontreal_1_1ssj_1_1functions_1_1MathFunction.html" target="_top" xlink:title="This interface should be implemented by classes which represent univariate mathematical functions...">
<polygon fill="none" stroke="black" points="0,-57.5 0,-76.5 76,-76.5 76,-57.5 0,-57.5"/>
<text text-anchor="middle" x="38" y="-64.5" font-family="Helvetica,sans-Serif" font-size="10.00">MathFunction</text>
</a>
</g>
</g>
<!-- Node6&#45;&gt;Node5 -->
<g id="edge1" class="edge"><title>Node6&#45;&gt;Node5</title>
<path fill="none" stroke="midnightblue" d="M61.2729,-82.187C75.1833,-90.7332 93.8452,-100.558 112,-105 181.073,-121.902 202.275,-118.973 272,-105 299.027,-99.5836 328.052,-85.9502 345.872,-76.5775"/>
<polygon fill="midnightblue" stroke="midnightblue" points="62.7769,-78.9943 52.4664,-76.5564 59.0061,-84.892 62.7769,-78.9943"/>
</g>
<!-- Node7 -->
<g id="node3" class="node"><title>Node7</title>
<g id="a_node3"><a xlink:href="interfaceumontreal_1_1ssj_1_1functions_1_1MathFunctionWithFirstDerivative.html" target="_top" xlink:title="Represents a mathematical function whose derivative can be computed using derivative(double). ">
<polygon fill="none" stroke="black" points="112,-76.5 112,-95.5 272,-95.5 272,-76.5 112,-76.5"/>
<text text-anchor="middle" x="192" y="-83.5" font-family="Helvetica,sans-Serif" font-size="10.00">MathFunctionWithFirstDerivative</text>
</a>
</g>
</g>
<!-- Node6&#45;&gt;Node7 -->
<g id="edge3" class="edge"><title>Node6&#45;&gt;Node7</title>
<path fill="none" stroke="midnightblue" d="M86.191,-72.8989C95.3311,-74.0414 105.124,-75.2655 114.918,-76.4898"/>
<polygon fill="midnightblue" stroke="midnightblue" points="86.5403,-69.4154 76.1834,-71.6479 85.672,-76.3613 86.5403,-69.4154"/>
</g>
<!-- Node8 -->
<g id="node4" class="node"><title>Node8</title>
<g id="a_node4"><a xlink:href="interfaceumontreal_1_1ssj_1_1functions_1_1MathFunctionWithDerivative.html" target="_top" xlink:title="Represents a mathematical function whose th derivative can be computed using derivative(double,int). ">
<polygon fill="none" stroke="black" points="122,-38.5 122,-57.5 262,-57.5 262,-38.5 122,-38.5"/>
<text text-anchor="middle" x="192" y="-45.5" font-family="Helvetica,sans-Serif" font-size="10.00">MathFunctionWithDerivative</text>
</a>
</g>
</g>
<!-- Node6&#45;&gt;Node8 -->
<g id="edge5" class="edge"><title>Node6&#45;&gt;Node8</title>
<path fill="none" stroke="midnightblue" d="M86.235,-61.0956C97.5223,-59.6847 109.803,-58.1497 121.851,-56.6436"/>
<polygon fill="midnightblue" stroke="midnightblue" points="85.672,-57.6387 76.1834,-62.3521 86.5403,-64.5846 85.672,-57.6387"/>
</g>
<!-- Node9 -->
<g id="node5" class="node"><title>Node9</title>
<g id="a_node5"><a xlink:href="interfaceumontreal_1_1ssj_1_1functions_1_1MathFunctionWithIntegral.html" target="_top" xlink:title="Represents a mathematical function whose integral can be computed by the integral(double,double) method. ">
<polygon fill="none" stroke="black" points="128,-0.5 128,-19.5 256,-19.5 256,-0.5 128,-0.5"/>
<text text-anchor="middle" x="192" y="-7.5" font-family="Helvetica,sans-Serif" font-size="10.00">MathFunctionWithIntegral</text>
</a>
</g>
</g>
<!-- Node6&#45;&gt;Node9 -->
<g id="edge7" class="edge"><title>Node6&#45;&gt;Node9</title>
<path fill="none" stroke="midnightblue" d="M63.6008,-52.2715C77.4402,-44.4829 95.2557,-35.2642 112,-29 121.909,-25.293 132.793,-22.1272 143.229,-19.5038"/>
<polygon fill="midnightblue" stroke="midnightblue" points="61.6403,-49.3614 54.7169,-57.3813 65.1304,-55.4293 61.6403,-49.3614"/>
</g>
<!-- Node7&#45;&gt;Node5 -->
<g id="edge2" class="edge"><title>Node7&#45;&gt;Node5</title>
<path fill="none" stroke="midnightblue" d="M282.002,-76.0527C290.832,-75.0658 299.605,-74.0853 307.938,-73.154"/>
<polygon fill="midnightblue" stroke="midnightblue" points="281.577,-72.5783 272.028,-77.1675 282.355,-79.535 281.577,-72.5783"/>
</g>
<!-- Node8&#45;&gt;Node5 -->
<g id="edge4" class="edge"><title>Node8&#45;&gt;Node5</title>
<path fill="none" stroke="midnightblue" d="M272.239,-56.8562C284.325,-58.207 296.567,-59.5752 307.982,-60.8509"/>
<polygon fill="midnightblue" stroke="midnightblue" points="272.472,-53.3605 262.146,-55.728 271.695,-60.3172 272.472,-53.3605"/>
</g>
<!-- Node9&#45;&gt;Node5 -->
<g id="edge6" class="edge"><title>Node9&#45;&gt;Node5</title>
<path fill="none" stroke="midnightblue" d="M247.891,-22.0017C256.033,-24.1278 264.278,-26.4771 272,-29 296.899,-37.1354 324.541,-49.1198 342.753,-57.4465"/>
<polygon fill="midnightblue" stroke="midnightblue" points="248.604,-18.5721 238.052,-19.5224 246.893,-25.3599 248.604,-18.5721"/>
</g>
</g>
</svg>
