<?xml version="1.0" encoding="UTF-8" standalone="no"?>
<!DOCTYPE svg PUBLIC "-//W3C//DTD SVG 1.1//EN"
 "http://www.w3.org/Graphics/SVG/1.1/DTD/svg11.dtd">
<!-- Generated by graphviz version 2.38.0 (20140413.2041)
 -->
<!-- Title: PartialVarianceEstimator Pages: 1 -->
<svg width="420pt" height="154pt"
 viewBox="0.00 0.00 420.00 154.00" xmlns="http://www.w3.org/2000/svg" xmlns:xlink="http://www.w3.org/1999/xlink">
<g id="graph0" class="graph" transform="scale(1 1) rotate(0) translate(4 150)">
<title>PartialVarianceEstimator</title>
<!-- Node2 -->
<g id="node1" class="node"><title>Node2</title>
<polygon fill="#bfbfbf" stroke="black" points="287,-66.5 287,-85.5 412,-85.5 412,-66.5 287,-66.5"/>
<text text-anchor="middle" x="349.5" y="-73.5" font-family="Helvetica,sans-Serif" font-size="10.00">PartialVarianceEstimator</text>
</g>
<!-- Node3 -->
<g id="node2" class="node"><title>Node3</title>
<g id="a_node2"><a xlink:href="interfaceumontreal_1_1ssj_1_1mcqmctools_1_1MonteCarloModel.html" target="_top" xlink:title="An interface for a simple simulation model with which Monte Carlo (MC) and RQMC experiments are to be...">
<polygon fill="none" stroke="black" points="22.5,-126.5 22.5,-145.5 165.5,-145.5 165.5,-126.5 22.5,-126.5"/>
<text text-anchor="middle" x="94" y="-133.5" font-family="Helvetica,sans-Serif" font-size="10.00">MonteCarloModel&lt; double[]&gt;</text>
</a>
</g>
</g>
<!-- Node3&#45;&gt;Node2 -->
<g id="edge1" class="edge"><title>Node3&#45;&gt;Node2</title>
<path fill="none" stroke="midnightblue" d="M175.859,-131.916C205.591,-128.941 239.25,-123.816 269,-115 292.436,-108.055 317.428,-94.6925 333.002,-85.5632"/>
<polygon fill="midnightblue" stroke="midnightblue" points="175.15,-128.467 165.518,-132.881 175.8,-135.436 175.15,-128.467"/>
</g>
<!-- Node4 -->
<g id="node3" class="node"><title>Node4</title>
<g id="a_node3"><a xlink:href="classumontreal_1_1ssj_1_1mcqmctools_1_1anova_1_1CoordinateSet.html" target="_top" xlink:title="Represents a set of coordinates. ">
<polygon fill="none" stroke="black" points="54.5,-88.5 54.5,-107.5 133.5,-107.5 133.5,-88.5 54.5,-88.5"/>
<text text-anchor="middle" x="94" y="-95.5" font-family="Helvetica,sans-Serif" font-size="10.00">CoordinateSet</text>
</a>
</g>
</g>
<!-- Node4&#45;&gt;Node2 -->
<g id="edge2" class="edge"><title>Node4&#45;&gt;Node2</title>
<path fill="none" stroke="#9a32cd" stroke-dasharray="5,2" d="M143.467,-93.7938C184.251,-90.2544 242.806,-85.1726 286.907,-81.3453"/>
<polygon fill="#9a32cd" stroke="#9a32cd" points="143.161,-90.3071 133.501,-94.6587 143.766,-97.2809 143.161,-90.3071"/>
<text text-anchor="middle" x="237.5" y="-103" font-family="Helvetica,sans-Serif" font-size="10.00"> noCoordinate</text>
<text text-anchor="middle" x="237.5" y="-92" font-family="Helvetica,sans-Serif" font-size="10.00">allCoordinates</text>
</g>
<!-- Node5 -->
<g id="node4" class="node"><title>Node5</title>
<polygon fill="none" stroke="#bfbfbf" points="0,-39 0,-69 188,-69 188,-39 0,-39"/>
<text text-anchor="start" x="8" y="-57" font-family="Helvetica,sans-Serif" font-size="10.00">List&lt; umontreal.ssj.mcqmctools.anova.</text>
<text text-anchor="middle" x="94" y="-46" font-family="Helvetica,sans-Serif" font-size="10.00">CoordinateSet &gt;</text>
</g>
<!-- Node5&#45;&gt;Node2 -->
<g id="edge3" class="edge"><title>Node5&#45;&gt;Node2</title>
<path fill="none" stroke="#9a32cd" stroke-dasharray="5,2" d="M198.249,-62.8694C221.521,-64.8773 246.108,-67.0055 269,-69 274.797,-69.5051 280.832,-70.0329 286.871,-70.5623"/>
<polygon fill="#9a32cd" stroke="#9a32cd" points="198.277,-59.3589 188.013,-61.9867 197.676,-66.333 198.277,-59.3589"/>
<text text-anchor="middle" x="237.5" y="-72" font-family="Helvetica,sans-Serif" font-size="10.00"> coordSets</text>
</g>
<!-- Node6 -->
<g id="node5" class="node"><title>Node6</title>
<g id="a_node5"><a xlink:href="interfaceumontreal_1_1ssj_1_1mcqmctools_1_1MonteCarloModelDouble.html" target="_top" xlink:title="An interface for a simulation model for which Monte Carlo (MC) and RQMC experiments are to be perform...">
<polygon fill="none" stroke="black" points="32,-0.5 32,-19.5 156,-19.5 156,-0.5 32,-0.5"/>
<text text-anchor="middle" x="94" y="-7.5" font-family="Helvetica,sans-Serif" font-size="10.00">MonteCarloModelDouble</text>
</a>
</g>
</g>
<!-- Node6&#45;&gt;Node2 -->
<g id="edge4" class="edge"><title>Node6&#45;&gt;Node2</title>
<path fill="none" stroke="#9a32cd" stroke-dasharray="5,2" d="M155.832,-21.6357C189.463,-28.5671 231.842,-38.1243 269,-49 286.906,-54.241 306.781,-60.991 322.18,-66.4308"/>
<polygon fill="#9a32cd" stroke="#9a32cd" points="156.189,-18.1365 145.691,-19.5703 154.792,-24.9957 156.189,-18.1365"/>
<text text-anchor="middle" x="237.5" y="-52" font-family="Helvetica,sans-Serif" font-size="10.00"> model</text>
</g>
</g>
</svg>
