<?xml version="1.0" encoding="UTF-8" standalone="no"?>
<!DOCTYPE svg PUBLIC "-//W3C//DTD SVG 1.1//EN"
 "http://www.w3.org/Graphics/SVG/1.1/DTD/svg11.dtd">
<!-- Generated by graphviz version 2.40.1 (0)
 -->
<!-- Title: ExponentialInverseFromDensityGen Pages: 1 -->
<svg width="185pt" height="209pt"
 viewBox="0.00 0.00 184.50 209.00" xmlns="http://www.w3.org/2000/svg" xmlns:xlink="http://www.w3.org/1999/xlink">
<g id="graph0" class="graph" transform="scale(1 1) rotate(0) translate(4 205)">
<title>ExponentialInverseFromDensityGen</title>
<!-- Node3 -->
<g id="node1" class="node">
<title>Node3</title>
<g id="a_node1"><a xlink:title="This class implements exponential random variate generators using numerical inversion of the exponent...">
<polygon fill="#bfbfbf" stroke="#000000" points="0,-.5 0,-19.5 174,-19.5 174,-.5 0,-.5"/>
<text text-anchor="middle" x="87" y="-7.5" font-family="Helvetica,sans-Serif" font-size="10.00" fill="#000000">ExponentialInverseFromDensityGen</text>
</a>
</g>
</g>
<!-- Node4 -->
<g id="node2" class="node">
<title>Node4</title>
<g id="a_node2"><a xlink:href="classumontreal_1_1ssj_1_1randvar_1_1ExponentialGen.html" target="_top" xlink:title="This class implements random variate generators for the exponential distribution.">
<polygon fill="none" stroke="#000000" points="44,-57.5 44,-76.5 130,-76.5 130,-57.5 44,-57.5"/>
<text text-anchor="middle" x="87" y="-64.5" font-family="Helvetica,sans-Serif" font-size="10.00" fill="#000000">ExponentialGen</text>
</a>
</g>
</g>
<!-- Node4&#45;&gt;Node3 -->
<g id="edge1" class="edge">
<title>Node4&#45;&gt;Node3</title>
<path fill="none" stroke="#191970" d="M87,-47.2342C87,-37.8491 87,-27.0651 87,-19.5265"/>
<polygon fill="#191970" stroke="#191970" points="83.5001,-47.3307 87,-57.3307 90.5001,-47.3308 83.5001,-47.3307"/>
</g>
<!-- Node5 -->
<g id="node3" class="node">
<title>Node5</title>
<g id="a_node3"><a xlink:href="classumontreal_1_1ssj_1_1randvar_1_1RandomVariateGen.html" target="_top" xlink:title="This is the base class for all random variate generators over the real line.">
<polygon fill="none" stroke="#000000" points="36.5,-114.5 36.5,-133.5 137.5,-133.5 137.5,-114.5 36.5,-114.5"/>
<text text-anchor="middle" x="87" y="-121.5" font-family="Helvetica,sans-Serif" font-size="10.00" fill="#000000">RandomVariateGen</text>
</a>
</g>
</g>
<!-- Node5&#45;&gt;Node4 -->
<g id="edge2" class="edge">
<title>Node5&#45;&gt;Node4</title>
<path fill="none" stroke="#191970" d="M87,-104.2342C87,-94.8491 87,-84.0651 87,-76.5265"/>
<polygon fill="#191970" stroke="#191970" points="83.5001,-104.3307 87,-114.3307 90.5001,-104.3308 83.5001,-104.3307"/>
</g>
<!-- Node6 -->
<g id="node4" class="node">
<title>Node6</title>
<g id="a_node4"><a xlink:href="interfaceumontreal_1_1ssj_1_1probdist_1_1Distribution.html" target="_top" xlink:title="This interface should be implemented by all classes supporting discrete and continuous distributions.">
<polygon fill="none" stroke="#000000" points="7,-181.5 7,-200.5 73,-200.5 73,-181.5 7,-181.5"/>
<text text-anchor="middle" x="40" y="-188.5" font-family="Helvetica,sans-Serif" font-size="10.00" fill="#000000">Distribution</text>
</a>
</g>
</g>
<!-- Node6&#45;&gt;Node5 -->
<g id="edge3" class="edge">
<title>Node6&#45;&gt;Node5</title>
<path fill="none" stroke="#9a32cd" stroke-dasharray="5,2" d="M52.6407,-172.9803C61.5366,-160.2989 73.094,-143.8235 80.2785,-133.5817"/>
<polygon fill="#9a32cd" stroke="#9a32cd" points="49.6115,-171.2039 46.734,-181.4005 55.3421,-175.2239 49.6115,-171.2039"/>
<text text-anchor="middle" x="76.5" y="-155" font-family="Helvetica,sans-Serif" font-size="10.00" fill="#000000"> dist</text>
</g>
<!-- Node7 -->
<g id="node5" class="node">
<title>Node7</title>
<g id="a_node5"><a xlink:href="interfaceumontreal_1_1ssj_1_1rng_1_1RandomStream.html" target="_top" xlink:title="This interface defines the basic structures to handle multiple streams of uniform (pseudo)random numb...">
<polygon fill="none" stroke="#000000" points="91.5,-181.5 91.5,-200.5 176.5,-200.5 176.5,-181.5 91.5,-181.5"/>
<text text-anchor="middle" x="134" y="-188.5" font-family="Helvetica,sans-Serif" font-size="10.00" fill="#000000">RandomStream</text>
</a>
</g>
</g>
<!-- Node7&#45;&gt;Node5 -->
<g id="edge4" class="edge">
<title>Node7&#45;&gt;Node5</title>
<path fill="none" stroke="#9a32cd" stroke-dasharray="5,2" d="M121.3593,-172.9803C112.4634,-160.2989 100.906,-143.8235 93.7215,-133.5817"/>
<polygon fill="#9a32cd" stroke="#9a32cd" points="118.6579,-175.2239 127.266,-181.4005 124.3885,-171.2039 118.6579,-175.2239"/>
<text text-anchor="middle" x="130" y="-155" font-family="Helvetica,sans-Serif" font-size="10.00" fill="#000000"> stream</text>
</g>
</g>
</svg>
