<?xml version="1.0" encoding="UTF-8" standalone="no"?>
<!DOCTYPE svg PUBLIC "-//W3C//DTD SVG 1.1//EN"
 "http://www.w3.org/Graphics/SVG/1.1/DTD/svg11.dtd">
<!-- Generated by graphviz version 2.40.1 (20161225.0304)
 -->
<!-- Title: RQMCExperimentSeries Pages: 1 -->
<svg width="275pt" height="229pt"
 viewBox="0.00 0.00 274.50 229.00" xmlns="http://www.w3.org/2000/svg" xmlns:xlink="http://www.w3.org/1999/xlink">
<g id="graph0" class="graph" transform="scale(1 1) rotate(0) translate(4 225)">
<title>RQMCExperimentSeries</title>
<!-- Node1 -->
<g id="node1" class="node">
<title>Node1</title>
<polygon fill="#bfbfbf" stroke="#000000" points="81,-.5 81,-19.5 206,-19.5 206,-.5 81,-.5"/>
<text text-anchor="middle" x="143.5" y="-7.5" font-family="Helvetica,sans-Serif" font-size="10.00" fill="#000000">RQMCExperimentSeries</text>
</g>
<!-- Node2 -->
<g id="node2" class="node">
<title>Node2</title>
<g id="a_node2"><a xlink:href="classumontreal_1_1ssj_1_1hups_1_1RQMCPointSet.html" target="_top" xlink:title="This class is used for randomized quasi&#45;Monte Carlo (RQMC) simulations , , ,  . ">
<polygon fill="none" stroke="#000000" points="39,-67.5 39,-86.5 124,-86.5 124,-67.5 39,-67.5"/>
<text text-anchor="middle" x="81.5" y="-74.5" font-family="Helvetica,sans-Serif" font-size="10.00" fill="#000000">RQMCPointSet</text>
</a>
</g>
</g>
<!-- Node2&#45;&gt;Node1 -->
<g id="edge1" class="edge">
<title>Node2&#45;&gt;Node1</title>
<path fill="none" stroke="#9a32cd" stroke-dasharray="5,2" d="M97.4953,-59.7147C109.3158,-46.941 124.9718,-30.0224 134.6334,-19.5817"/>
<polygon fill="#9a32cd" stroke="#9a32cd" points="94.6061,-57.6837 90.3831,-67.4005 99.7439,-62.4381 94.6061,-57.6837"/>
<text text-anchor="middle" x="135" y="-41" font-family="Helvetica,sans-Serif" font-size="10.00" fill="#000000"> theSets</text>
</g>
<!-- Node3 -->
<g id="node3" class="node">
<title>Node3</title>
<g id="a_node3"><a xlink:href="interfaceumontreal_1_1ssj_1_1hups_1_1PointSetRandomization.html" target="_top" xlink:title="This interface is used to randomize a umontreal.ssj.hups.PointSet. ">
<polygon fill="none" stroke="#000000" points="0,-134.5 0,-153.5 119,-153.5 119,-134.5 0,-134.5"/>
<text text-anchor="middle" x="59.5" y="-141.5" font-family="Helvetica,sans-Serif" font-size="10.00" fill="#000000">PointSetRandomization</text>
</a>
</g>
</g>
<!-- Node3&#45;&gt;Node2 -->
<g id="edge2" class="edge">
<title>Node3&#45;&gt;Node2</title>
<path fill="none" stroke="#9a32cd" stroke-dasharray="5,2" d="M65.7838,-124.8628C69.8944,-112.3444 75.0887,-96.5252 78.3538,-86.5817"/>
<polygon fill="#9a32cd" stroke="#9a32cd" points="62.4465,-123.8077 62.6521,-134.4005 69.0972,-125.9915 62.4465,-123.8077"/>
<text text-anchor="middle" x="83.5" y="-108" font-family="Helvetica,sans-Serif" font-size="10.00" fill="#000000"> rand</text>
</g>
<!-- Node4 -->
<g id="node4" class="node">
<title>Node4</title>
<g id="a_node4"><a xlink:href="classumontreal_1_1ssj_1_1hups_1_1PointSet.html" target="_top" xlink:title="This abstract class defines the basic methods for accessing and manipulating point sets...">
<polygon fill="none" stroke="#000000" points="137.5,-134.5 137.5,-153.5 191.5,-153.5 191.5,-134.5 137.5,-134.5"/>
<text text-anchor="middle" x="164.5" y="-141.5" font-family="Helvetica,sans-Serif" font-size="10.00" fill="#000000">PointSet</text>
</a>
</g>
</g>
<!-- Node4&#45;&gt;Node2 -->
<g id="edge3" class="edge">
<title>Node4&#45;&gt;Node2</title>
<path fill="none" stroke="#9a32cd" stroke-dasharray="5,2" d="M144.4303,-127.7992C128.467,-114.9131 106.6734,-97.3207 93.3698,-86.5817"/>
<polygon fill="#9a32cd" stroke="#9a32cd" points="142.6285,-130.8427 152.6081,-134.4005 147.0254,-125.3959 142.6285,-130.8427"/>
<text text-anchor="middle" x="137" y="-108" font-family="Helvetica,sans-Serif" font-size="10.00" fill="#000000"> set</text>
</g>
<!-- Node5 -->
<g id="node5" class="node">
<title>Node5</title>
<g id="a_node5"><a xlink:href="interfaceumontreal_1_1ssj_1_1rng_1_1RandomStream.html" target="_top" xlink:title="This interface defines the basic structures to handle multiple streams of uniform (pseudo)random numb...">
<polygon fill="none" stroke="#000000" points="122,-201.5 122,-220.5 207,-220.5 207,-201.5 122,-201.5"/>
<text text-anchor="middle" x="164.5" y="-208.5" font-family="Helvetica,sans-Serif" font-size="10.00" fill="#000000">RandomStream</text>
</a>
</g>
</g>
<!-- Node5&#45;&gt;Node4 -->
<g id="edge4" class="edge">
<title>Node5&#45;&gt;Node4</title>
<path fill="none" stroke="#9a32cd" stroke-dasharray="5,2" d="M164.5,-191.1079C164.5,-178.714 164.5,-163.3263 164.5,-153.5817"/>
<polygon fill="#9a32cd" stroke="#9a32cd" points="161.0001,-191.4005 164.5,-201.4005 168.0001,-191.4006 161.0001,-191.4005"/>
<text text-anchor="middle" x="191.5" y="-175" font-family="Helvetica,sans-Serif" font-size="10.00" fill="#000000"> shiftStream</text>
</g>
<!-- Node6 -->
<g id="node6" class="node">
<title>Node6</title>
<g id="a_node6"><a xlink:href="interfaceumontreal_1_1ssj_1_1mcqmctools_1_1MonteCarloModelDouble.html" target="_top" xlink:title="An interface for a simulation model for which Monte Carlo (MC) and RQMC experiments are to be perform...">
<polygon fill="none" stroke="#000000" points="142.5,-67.5 142.5,-86.5 266.5,-86.5 266.5,-67.5 142.5,-67.5"/>
<text text-anchor="middle" x="204.5" y="-74.5" font-family="Helvetica,sans-Serif" font-size="10.00" fill="#000000">MonteCarloModelDouble</text>
</a>
</g>
</g>
<!-- Node6&#45;&gt;Node1 -->
<g id="edge5" class="edge">
<title>Node6&#45;&gt;Node1</title>
<path fill="none" stroke="#9a32cd" stroke-dasharray="5,2" d="M188.7626,-59.7147C177.1329,-46.941 161.7293,-30.0224 152.2236,-19.5817"/>
<polygon fill="#9a32cd" stroke="#9a32cd" points="186.4399,-62.3624 195.7602,-67.4005 191.616,-57.6498 186.4399,-62.3624"/>
<text text-anchor="middle" x="192.5" y="-41" font-family="Helvetica,sans-Serif" font-size="10.00" fill="#000000"> model</text>
</g>
</g>
</svg>
