<?xml version="1.0" encoding="UTF-8" standalone="no"?>
<!DOCTYPE svg PUBLIC "-//W3C//DTD SVG 1.1//EN"
 "http://www.w3.org/Graphics/SVG/1.1/DTD/svg11.dtd">
<!-- Generated by graphviz version 2.38.0 (20140413.2041)
 -->
<!-- Title: SimExp Pages: 1 -->
<svg width="234pt" height="219pt"
 viewBox="0.00 0.00 234.00 219.00" xmlns="http://www.w3.org/2000/svg" xmlns:xlink="http://www.w3.org/1999/xlink">
<g id="graph0" class="graph" transform="scale(1 1) rotate(0) translate(4 215)">
<title>SimExp</title>
<!-- Node3 -->
<g id="node1" class="node"><title>Node3</title>
<polygon fill="#bfbfbf" stroke="black" points="79.5,-0.5 79.5,-19.5 130.5,-19.5 130.5,-0.5 79.5,-0.5"/>
<text text-anchor="middle" x="105" y="-7.5" font-family="Helvetica,sans-Serif" font-size="10.00">SimExp</text>
</g>
<!-- Node4 -->
<g id="node2" class="node"><title>Node4</title>
<g id="a_node2"><a xlink:href="classumontreal_1_1ssj_1_1simevents_1_1Simulator.html" target="_top" xlink:title="Represents the executive of a discrete&#45;event simulator. ">
<polygon fill="none" stroke="black" points="76,-67.5 76,-86.5 134,-86.5 134,-67.5 76,-67.5"/>
<text text-anchor="middle" x="105" y="-74.5" font-family="Helvetica,sans-Serif" font-size="10.00">Simulator</text>
</a>
</g>
</g>
<!-- Node4&#45;&gt;Node3 -->
<g id="edge1" class="edge"><title>Node4&#45;&gt;Node3</title>
<path fill="none" stroke="#9a32cd" stroke-dasharray="5,2" d="M105,-57.037C105,-44.6703 105,-29.1198 105,-19.6273"/>
<polygon fill="#9a32cd" stroke="#9a32cd" points="101.5,-57.2338 105,-67.2338 108.5,-57.2338 101.5,-57.2338"/>
<text text-anchor="middle" x="114.5" y="-41" font-family="Helvetica,sans-Serif" font-size="10.00"> sim</text>
</g>
<!-- Node4&#45;&gt;Node4 -->
<g id="edge2" class="edge"><title>Node4&#45;&gt;Node4</title>
<path fill="none" stroke="#9a32cd" stroke-dasharray="5,2" d="M144.603,-82.0845C149.091,-81.1323 152,-79.4375 152,-77 152,-73 144.167,-71 134.375,-71"/>
<polygon fill="#9a32cd" stroke="#9a32cd" points="144.023,-78.6223 134.375,-83 144.647,-85.5944 144.023,-78.6223"/>
<text text-anchor="middle" x="189" y="-74.5" font-family="Helvetica,sans-Serif" font-size="10.00"> defaultSimulator</text>
</g>
<!-- Node5 -->
<g id="node3" class="node"><title>Node5</title>
<g id="a_node3"><a xlink:href="interfaceumontreal_1_1ssj_1_1simevents_1_1eventlist_1_1EventList.html" target="_top" xlink:title="An interface for implementations of event lists. ">
<polygon fill="none" stroke="black" points="17,-134.5 17,-153.5 75,-153.5 75,-134.5 17,-134.5"/>
<text text-anchor="middle" x="46" y="-141.5" font-family="Helvetica,sans-Serif" font-size="10.00">EventList</text>
</a>
</g>
</g>
<!-- Node5&#45;&gt;Node4 -->
<g id="edge3" class="edge"><title>Node5&#45;&gt;Node4</title>
<path fill="none" stroke="#9a32cd" stroke-dasharray="5,2" d="M56.8011,-125.89C61.4311,-119.092 67.1228,-111.387 73,-105 79.2017,-98.2603 87.0505,-91.6143 93.4228,-86.6024"/>
<polygon fill="#9a32cd" stroke="#9a32cd" points="53.7852,-124.106 51.2277,-134.388 59.6386,-127.945 53.7852,-124.106"/>
<text text-anchor="middle" x="94.5" y="-108" font-family="Helvetica,sans-Serif" font-size="10.00"> eventList</text>
</g>
<!-- Node6 -->
<g id="node4" class="node"><title>Node6</title>
<polygon fill="none" stroke="#bfbfbf" points="0,-191.5 0,-210.5 92,-210.5 92,-191.5 0,-191.5"/>
<text text-anchor="middle" x="46" y="-198.5" font-family="Helvetica,sans-Serif" font-size="10.00">Iterable&lt; Event &gt;</text>
</g>
<!-- Node6&#45;&gt;Node5 -->
<g id="edge4" class="edge"><title>Node6&#45;&gt;Node5</title>
<path fill="none" stroke="midnightblue" d="M46,-181.117C46,-171.817 46,-161.056 46,-153.715"/>
<polygon fill="midnightblue" stroke="midnightblue" points="42.5001,-181.406 46,-191.406 49.5001,-181.406 42.5001,-181.406"/>
</g>
<!-- Node7 -->
<g id="node5" class="node"><title>Node7</title>
<g id="a_node5"><a xlink:href="classumontreal_1_1ssj_1_1simevents_1_1ContinuousState.html" target="_top" xlink:title="Represents the portion of the simulator’s state associated with continuous&#45;time simulation. ">
<polygon fill="none" stroke="black" points="93.5,-134.5 93.5,-153.5 182.5,-153.5 182.5,-134.5 93.5,-134.5"/>
<text text-anchor="middle" x="138" y="-141.5" font-family="Helvetica,sans-Serif" font-size="10.00">ContinuousState</text>
</a>
</g>
</g>
<!-- Node7&#45;&gt;Node4 -->
<g id="edge5" class="edge"><title>Node7&#45;&gt;Node4</title>
<path fill="none" stroke="#9a32cd" stroke-dasharray="5,2" d="M128.945,-125.163C122.58,-112.628 114.347,-96.4104 109.38,-86.6273"/>
<polygon fill="#9a32cd" stroke="#9a32cd" points="125.902,-126.902 133.549,-134.234 132.143,-123.733 125.902,-126.902"/>
<text text-anchor="middle" x="161" y="-108" font-family="Helvetica,sans-Serif" font-size="10.00"> continuousState</text>
</g>
</g>
</svg>
