<?xml version="1.0" encoding="UTF-8" standalone="no"?>
<!DOCTYPE svg PUBLIC "-//W3C//DTD SVG 1.1//EN"
 "http://www.w3.org/Graphics/SVG/1.1/DTD/svg11.dtd">
<!-- Generated by graphviz version 2.40.1 (20161225.0304)
 -->
<!-- Title: GammaProcessPCASymmetricalBridge Pages: 1 -->
<svg width="171pt" height="263pt"
 viewBox="0.00 0.00 171.00 263.00" xmlns="http://www.w3.org/2000/svg" xmlns:xlink="http://www.w3.org/1999/xlink">
<g id="graph0" class="graph" transform="scale(1 1) rotate(0) translate(4 259)">
<title>GammaProcessPCASymmetricalBridge</title>
<!-- Node0 -->
<g id="node1" class="node">
<title>Node0</title>
<polygon fill="#bfbfbf" stroke="#000000" points="0,-.5 0,-30.5 163,-30.5 163,-.5 0,-.5"/>
<text text-anchor="start" x="8" y="-18.5" font-family="Helvetica,sans-Serif" font-size="10.00" fill="#000000">GammaProcessPCASymmetrical</text>
<text text-anchor="middle" x="81.5" y="-7.5" font-family="Helvetica,sans-Serif" font-size="10.00" fill="#000000">Bridge</text>
</g>
<!-- Node1 -->
<g id="node2" class="node">
<title>Node1</title>
<g id="a_node2"><a xlink:href="classumontreal_1_1ssj_1_1stochprocess_1_1GammaProcessPCABridge.html" target="_top" xlink:title="Same as GammaProcessPCA, but the generated uniforms correspond to a bridge transformation of the Brow...">
<polygon fill="none" stroke="#000000" points="13.5,-67.5 13.5,-86.5 149.5,-86.5 149.5,-67.5 13.5,-67.5"/>
<text text-anchor="middle" x="81.5" y="-74.5" font-family="Helvetica,sans-Serif" font-size="10.00" fill="#000000">GammaProcessPCABridge</text>
</a>
</g>
</g>
<!-- Node1&#45;&gt;Node0 -->
<g id="edge1" class="edge">
<title>Node1&#45;&gt;Node0</title>
<path fill="none" stroke="#191970" d="M81.5,-57.3693C81.5,-48.681 81.5,-38.6241 81.5,-30.5446"/>
<polygon fill="#191970" stroke="#191970" points="78.0001,-57.3906 81.5,-67.3906 85.0001,-57.3907 78.0001,-57.3906"/>
</g>
<!-- Node2 -->
<g id="node3" class="node">
<title>Node2</title>
<g id="a_node3"><a xlink:href="classumontreal_1_1ssj_1_1stochprocess_1_1GammaProcessPCA.html" target="_top" xlink:title="Represents a gamma process sampled using the principal component analysis (PCA). ">
<polygon fill="none" stroke="#000000" points="27.5,-123.5 27.5,-142.5 135.5,-142.5 135.5,-123.5 27.5,-123.5"/>
<text text-anchor="middle" x="81.5" y="-130.5" font-family="Helvetica,sans-Serif" font-size="10.00" fill="#000000">GammaProcessPCA</text>
</a>
</g>
</g>
<!-- Node2&#45;&gt;Node1 -->
<g id="edge2" class="edge">
<title>Node2&#45;&gt;Node1</title>
<path fill="none" stroke="#191970" d="M81.5,-113.1575C81.5,-104.155 81.5,-93.9199 81.5,-86.6427"/>
<polygon fill="#191970" stroke="#191970" points="78.0001,-113.2455 81.5,-123.2455 85.0001,-113.2456 78.0001,-113.2455"/>
</g>
<!-- Node3 -->
<g id="node4" class="node">
<title>Node3</title>
<g id="a_node4"><a xlink:href="classumontreal_1_1ssj_1_1stochprocess_1_1GammaProcess.html" target="_top" xlink:title="This class represents a gamma process   (page 82) &#160;with mean parameter &#160;and variance parameter ...">
<polygon fill="none" stroke="#000000" points="38,-179.5 38,-198.5 125,-198.5 125,-179.5 38,-179.5"/>
<text text-anchor="middle" x="81.5" y="-186.5" font-family="Helvetica,sans-Serif" font-size="10.00" fill="#000000">GammaProcess</text>
</a>
</g>
</g>
<!-- Node3&#45;&gt;Node2 -->
<g id="edge3" class="edge">
<title>Node3&#45;&gt;Node2</title>
<path fill="none" stroke="#191970" d="M81.5,-169.1575C81.5,-160.155 81.5,-149.9199 81.5,-142.6427"/>
<polygon fill="#191970" stroke="#191970" points="78.0001,-169.2455 81.5,-179.2455 85.0001,-169.2456 78.0001,-169.2455"/>
</g>
<!-- Node4 -->
<g id="node5" class="node">
<title>Node4</title>
<g id="a_node5"><a xlink:href="classumontreal_1_1ssj_1_1stochprocess_1_1StochasticProcess.html" target="_top" xlink:title="Abstract base class for a stochastic process &#160;sampled (or observed) at a finite number of time points...">
<polygon fill="none" stroke="#000000" points="32,-235.5 32,-254.5 131,-254.5 131,-235.5 32,-235.5"/>
<text text-anchor="middle" x="81.5" y="-242.5" font-family="Helvetica,sans-Serif" font-size="10.00" fill="#000000">StochasticProcess</text>
</a>
</g>
</g>
<!-- Node4&#45;&gt;Node3 -->
<g id="edge4" class="edge">
<title>Node4&#45;&gt;Node3</title>
<path fill="none" stroke="#191970" d="M81.5,-225.1575C81.5,-216.155 81.5,-205.9199 81.5,-198.6427"/>
<polygon fill="#191970" stroke="#191970" points="78.0001,-225.2455 81.5,-235.2455 85.0001,-225.2456 78.0001,-225.2455"/>
</g>
</g>
</svg>
