<?xml version="1.0" encoding="UTF-8" standalone="no"?>
<!DOCTYPE svg PUBLIC "-//W3C//DTD SVG 1.1//EN"
 "http://www.w3.org/Graphics/SVG/1.1/DTD/svg11.dtd">
<!-- Generated by graphviz version 2.40.1 (0)
 -->
<!-- Title: SSJXYSeriesCollection Pages: 1 -->
<svg width="181pt" height="95pt"
 viewBox="0.00 0.00 181.00 95.00" xmlns="http://www.w3.org/2000/svg" xmlns:xlink="http://www.w3.org/1999/xlink">
<g id="graph0" class="graph" transform="scale(1 1) rotate(0) translate(4 91)">
<title>SSJXYSeriesCollection</title>
<!-- Node5 -->
<g id="node1" class="node">
<title>Node5</title>
<g id="a_node1"><a xlink:title="Stores data used in a XYChart.">
<polygon fill="#bfbfbf" stroke="#000000" points="21,-.5 21,-19.5 140,-19.5 140,-.5 21,-.5"/>
<text text-anchor="middle" x="80.5" y="-7.5" font-family="Helvetica,sans-Serif" font-size="10.00" fill="#000000">SSJXYSeriesCollection</text>
</a>
</g>
</g>
<!-- Node6 -->
<g id="node2" class="node">
<title>Node6</title>
<g id="a_node2"><a xlink:title=" ">
<polygon fill="none" stroke="#bfbfbf" points="0,-67.5 0,-86.5 65,-86.5 65,-67.5 0,-67.5"/>
<text text-anchor="middle" x="32.5" y="-74.5" font-family="Helvetica,sans-Serif" font-size="10.00" fill="#000000">XYDataset</text>
</a>
</g>
</g>
<!-- Node6&#45;&gt;Node5 -->
<g id="edge1" class="edge">
<title>Node6&#45;&gt;Node5</title>
<path fill="none" stroke="#9a32cd" stroke-dasharray="5,2" d="M29.3385,-57.1912C29.2265,-50.6963 30.1683,-43.6919 33.5,-38 38.2021,-29.967 46.1918,-23.981 54.2629,-19.6519"/>
<polygon fill="#9a32cd" stroke="#9a32cd" points="25.8697,-57.6887 30.2861,-67.3192 32.8392,-57.0366 25.8697,-57.6887"/>
<text text-anchor="middle" x="70" y="-41" font-family="Helvetica,sans-Serif" font-size="10.00" fill="#000000"> seriesCollection</text>
</g>
<!-- Node7 -->
<g id="node3" class="node">
<title>Node7</title>
<g id="a_node3"><a xlink:title=" ">
<polygon fill="none" stroke="#bfbfbf" points="84,-67.5 84,-86.5 173,-86.5 173,-67.5 84,-67.5"/>
<text text-anchor="middle" x="128.5" y="-74.5" font-family="Helvetica,sans-Serif" font-size="10.00" fill="#000000">XYItemRenderer</text>
</a>
</g>
</g>
<!-- Node7&#45;&gt;Node5 -->
<g id="edge2" class="edge">
<title>Node7&#45;&gt;Node5</title>
<path fill="none" stroke="#9a32cd" stroke-dasharray="5,2" d="M119.1417,-58.3506C115.5144,-51.7154 111.122,-44.326 106.5,-38 101.7255,-31.4653 95.5968,-24.7999 90.489,-19.6124"/>
<polygon fill="#9a32cd" stroke="#9a32cd" points="116.1019,-60.0904 123.8463,-67.3206 122.301,-56.839 116.1019,-60.0904"/>
<text text-anchor="middle" x="132" y="-41" font-family="Helvetica,sans-Serif" font-size="10.00" fill="#000000"> renderer</text>
</g>
</g>
</svg>
