<?xml version="1.0" encoding="UTF-8" standalone="no"?>
<!DOCTYPE svg PUBLIC "-//W3C//DTD SVG 1.1//EN"
 "http://www.w3.org/Graphics/SVG/1.1/DTD/svg11.dtd">
<!-- Generated by graphviz version 2.40.1 (20161225.0304)
 -->
<!-- Title: TestOptionVGIS.OptionVG1 Pages: 1 -->
<svg width="320pt" height="140pt"
 viewBox="0.00 0.00 320.00 140.00" xmlns="http://www.w3.org/2000/svg" xmlns:xlink="http://www.w3.org/1999/xlink">
<g id="graph0" class="graph" transform="scale(1 1) rotate(0) translate(4 136)">
<title>TestOptionVGIS.OptionVG1</title>
<!-- Node0 -->
<g id="node1" class="node">
<title>Node0</title>
<polygon fill="#bfbfbf" stroke="#000000" points="87,-56.5 87,-75.5 224,-75.5 224,-56.5 87,-56.5"/>
<text text-anchor="middle" x="155.5" y="-63.5" font-family="Helvetica,sans-Serif" font-size="10.00" fill="#000000">TestOptionVGIS.OptionVG1</text>
</g>
<!-- Node2 -->
<g id="node3" class="node">
<title>Node2</title>
<g id="a_node3"><a xlink:href="classift6561examples_1_1TestOptionVGIS_1_1OptionVGIS1.html" target="_top" xlink:title="TestOptionVGIS.OptionVGIS1">
<polygon fill="none" stroke="#000000" points="0,-.5 0,-19.5 147,-19.5 147,-.5 0,-.5"/>
<text text-anchor="middle" x="73.5" y="-7.5" font-family="Helvetica,sans-Serif" font-size="10.00" fill="#000000">TestOptionVGIS.OptionVGIS1</text>
</a>
</g>
</g>
<!-- Node0&#45;&gt;Node2 -->
<g id="edge2" class="edge">
<title>Node0&#45;&gt;Node2</title>
<path fill="none" stroke="#191970" d="M132.789,-50.49C118.3212,-40.6096 100.032,-28.1194 87.6196,-19.6427"/>
<polygon fill="#191970" stroke="#191970" points="130.9848,-53.4962 141.2167,-56.2455 134.9325,-47.7156 130.9848,-53.4962"/>
</g>
<!-- Node3 -->
<g id="node4" class="node">
<title>Node3</title>
<g id="a_node4"><a xlink:href="classift6561examples_1_1TestOptionVGIS_1_1OptionVGIS2.html" target="_top" xlink:title="TestOptionVGIS.OptionVGIS2">
<polygon fill="none" stroke="#000000" points="165,-.5 165,-19.5 312,-19.5 312,-.5 165,-.5"/>
<text text-anchor="middle" x="238.5" y="-7.5" font-family="Helvetica,sans-Serif" font-size="10.00" fill="#000000">TestOptionVGIS.OptionVGIS2</text>
</a>
</g>
</g>
<!-- Node0&#45;&gt;Node3 -->
<g id="edge3" class="edge">
<title>Node0&#45;&gt;Node3</title>
<path fill="none" stroke="#191970" d="M178.488,-50.49C193.1322,-40.6096 211.6444,-28.1194 224.2082,-19.6427"/>
<polygon fill="#191970" stroke="#191970" points="176.2896,-47.7511 169.9575,-56.2455 180.2047,-53.5539 176.2896,-47.7511"/>
</g>
<!-- Node1 -->
<g id="node2" class="node">
<title>Node1</title>
<g id="a_node2"><a xlink:href="interfaceumontreal_1_1ssj_1_1mcqmctools_1_1MonteCarloModelDouble.html" target="_top" xlink:title="An interface for a very simple simulation model for which Monte Carlo (MC) and RQMC experiments are t...">
<polygon fill="none" stroke="#000000" points="93.5,-112.5 93.5,-131.5 217.5,-131.5 217.5,-112.5 93.5,-112.5"/>
<text text-anchor="middle" x="155.5" y="-119.5" font-family="Helvetica,sans-Serif" font-size="10.00" fill="#000000">MonteCarloModelDouble</text>
</a>
</g>
</g>
<!-- Node1&#45;&gt;Node0 -->
<g id="edge1" class="edge">
<title>Node1&#45;&gt;Node0</title>
<path fill="none" stroke="#191970" d="M155.5,-102.1575C155.5,-93.155 155.5,-82.9199 155.5,-75.6427"/>
<polygon fill="#191970" stroke="#191970" points="152.0001,-102.2455 155.5,-112.2455 159.0001,-102.2456 152.0001,-102.2455"/>
</g>
</g>
</svg>
