<?xml version="1.0" encoding="UTF-8" standalone="no"?>
<!DOCTYPE svg PUBLIC "-//W3C//DTD SVG 1.1//EN"
 "http://www.w3.org/Graphics/SVG/1.1/DTD/svg11.dtd">
<!-- Generated by graphviz version 2.38.0 (20140413.2041)
 -->
<!-- Title: CallableBond Pages: 1 -->
<svg width="214pt" height="140pt"
 viewBox="0.00 0.00 213.50 140.00" xmlns="http://www.w3.org/2000/svg" xmlns:xlink="http://www.w3.org/1999/xlink">
<g id="graph0" class="graph" transform="scale(1 1) rotate(0) translate(4 136)">
<title>CallableBond</title>
<!-- Node0 -->
<g id="node1" class="node"><title>Node0</title>
<polygon fill="#bfbfbf" stroke="black" points="68,-56.5 68,-75.5 142,-75.5 142,-56.5 68,-56.5"/>
<text text-anchor="middle" x="105" y="-63.5" font-family="Helvetica,sans-Serif" font-size="10.00">CallableBond</text>
</g>
<!-- Node2 -->
<g id="node3" class="node"><title>Node2</title>
<g id="a_node3"><a xlink:href="classift6561examples_1_1CallableBondCMC.html" target="_top" xlink:title="Estimates the value of a callable bond where the coupons are paid at the same time as in...">
<polygon fill="none" stroke="black" points="0,-0.5 0,-19.5 98,-19.5 98,-0.5 0,-0.5"/>
<text text-anchor="middle" x="49" y="-7.5" font-family="Helvetica,sans-Serif" font-size="10.00">CallableBondCMC</text>
</a>
</g>
</g>
<!-- Node0&#45;&gt;Node2 -->
<g id="edge2" class="edge"><title>Node0&#45;&gt;Node2</title>
<path fill="none" stroke="midnightblue" d="M88.6701,-49.2533C78.735,-39.6731 66.4125,-27.7906 58.1611,-19.8339"/>
<polygon fill="midnightblue" stroke="midnightblue" points="86.3747,-51.902 96.0026,-56.324 91.2336,-46.8631 86.3747,-51.902"/>
</g>
<!-- Node3 -->
<g id="node4" class="node"><title>Node3</title>
<g id="a_node4"><a xlink:href="classift6561examples_1_1CallableBondCV.html" target="_top" xlink:title="Estimates the value of a callable bond using the uncallable bond as a control variate. ">
<polygon fill="none" stroke="black" points="116.5,-0.5 116.5,-19.5 205.5,-19.5 205.5,-0.5 116.5,-0.5"/>
<text text-anchor="middle" x="161" y="-7.5" font-family="Helvetica,sans-Serif" font-size="10.00">CallableBondCV</text>
</a>
</g>
</g>
<!-- Node0&#45;&gt;Node3 -->
<g id="edge3" class="edge"><title>Node0&#45;&gt;Node3</title>
<path fill="none" stroke="midnightblue" d="M121.33,-49.2533C131.265,-39.6731 143.588,-27.7906 151.839,-19.8339"/>
<polygon fill="midnightblue" stroke="midnightblue" points="118.766,-46.8631 113.997,-56.324 123.625,-51.902 118.766,-46.8631"/>
</g>
<!-- Node1 -->
<g id="node2" class="node"><title>Node1</title>
<g id="a_node2"><a xlink:href="interfaceumontreal_1_1ssj_1_1mcqmctools_1_1MonteCarloModelDouble.html" target="_top" xlink:title="An interface for a very simple simulation model for which Monte Carlo (MC) and RQMC experiments are t...">
<polygon fill="none" stroke="black" points="43,-112.5 43,-131.5 167,-131.5 167,-112.5 43,-112.5"/>
<text text-anchor="middle" x="105" y="-119.5" font-family="Helvetica,sans-Serif" font-size="10.00">MonteCarloModelDouble</text>
</a>
</g>
</g>
<!-- Node1&#45;&gt;Node0 -->
<g id="edge1" class="edge"><title>Node1&#45;&gt;Node0</title>
<path fill="none" stroke="midnightblue" d="M105,-101.805C105,-92.9102 105,-82.7798 105,-75.7511"/>
<polygon fill="midnightblue" stroke="midnightblue" points="101.5,-102.083 105,-112.083 108.5,-102.083 101.5,-102.083"/>
</g>
</g>
</svg>
