<?xml version="1.0" encoding="UTF-8" standalone="no"?>
<!DOCTYPE svg PUBLIC "-//W3C//DTD SVG 1.1//EN"
 "http://www.w3.org/Graphics/SVG/1.1/DTD/svg11.dtd">
<!-- Generated by graphviz version 2.40.1 (20161225.0304)
 -->
<!-- Title: MultivariateBrownianMotionPCA Pages: 1 -->
<svg width="488pt" height="333pt"
 viewBox="0.00 0.00 488.00 333.00" xmlns="http://www.w3.org/2000/svg" xmlns:xlink="http://www.w3.org/1999/xlink">
<g id="graph0" class="graph" transform="scale(1 1) rotate(0) translate(4 329)">
<title>MultivariateBrownianMotionPCA</title>
<!-- Node4 -->
<g id="node1" class="node">
<title>Node4</title>
<polygon fill="#bfbfbf" stroke="#000000" points="289.5,-.5 289.5,-19.5 447.5,-19.5 447.5,-.5 289.5,-.5"/>
<text text-anchor="middle" x="368.5" y="-7.5" font-family="Helvetica,sans-Serif" font-size="10.00" fill="#000000">MultivariateBrownianMotionPCA</text>
</g>
<!-- Node5 -->
<g id="node2" class="node">
<title>Node5</title>
<g id="a_node2"><a xlink:href="classumontreal_1_1ssj_1_1stochprocess_1_1MultivariateBrownianMotion.html" target="_top" xlink:title="This class represents a multivariate Brownian motion process , sampled at times . ...">
<polygon fill="none" stroke="#000000" points="232,-80.5 232,-99.5 369,-99.5 369,-80.5 232,-80.5"/>
<text text-anchor="middle" x="300.5" y="-87.5" font-family="Helvetica,sans-Serif" font-size="10.00" fill="#000000">MultivariateBrownianMotion</text>
</a>
</g>
</g>
<!-- Node5&#45;&gt;Node4 -->
<g id="edge1" class="edge">
<title>Node5&#45;&gt;Node4</title>
<path fill="none" stroke="#191970" d="M315.3684,-72.5078C329.0794,-56.3772 348.9442,-33.0068 360.0937,-19.8898"/>
<polygon fill="#191970" stroke="#191970" points="312.6479,-70.3042 308.8381,-80.1904 317.9814,-74.8378 312.6479,-70.3042"/>
</g>
<!-- Node6 -->
<g id="node3" class="node">
<title>Node6</title>
<g id="a_node3"><a xlink:href="classumontreal_1_1ssj_1_1stochprocess_1_1MultivariateStochasticProcess.html" target="_top" xlink:title="This class is a multivariate version of StochasticProcess where the process evolves in the &#45;dimension...">
<polygon fill="none" stroke="#000000" points="0,-181.5 0,-200.5 149,-200.5 149,-181.5 0,-181.5"/>
<text text-anchor="middle" x="74.5" y="-188.5" font-family="Helvetica,sans-Serif" font-size="10.00" fill="#000000">MultivariateStochasticProcess</text>
</a>
</g>
</g>
<!-- Node6&#45;&gt;Node5 -->
<g id="edge2" class="edge">
<title>Node6&#45;&gt;Node5</title>
<path fill="none" stroke="#191970" d="M105.0261,-177.3578C151.4975,-156.5896 238.8326,-117.5593 279.1303,-99.5502"/>
<polygon fill="#191970" stroke="#191970" points="103.4632,-174.2226 95.7615,-181.4982 106.3194,-180.6134 103.4632,-174.2226"/>
</g>
<!-- Node7 -->
<g id="node4" class="node">
<title>Node7</title>
<g id="a_node4"><a xlink:href="classumontreal_1_1ssj_1_1stochprocess_1_1StochasticProcess.html" target="_top" xlink:title="Abstract base class for a stochastic process &#160;sampled (or observed) at a finite number of time points...">
<polygon fill="none" stroke="#000000" points="25,-238.5 25,-257.5 124,-257.5 124,-238.5 25,-238.5"/>
<text text-anchor="middle" x="74.5" y="-245.5" font-family="Helvetica,sans-Serif" font-size="10.00" fill="#000000">StochasticProcess</text>
</a>
</g>
</g>
<!-- Node7&#45;&gt;Node6 -->
<g id="edge3" class="edge">
<title>Node7&#45;&gt;Node6</title>
<path fill="none" stroke="#191970" d="M74.5,-228.2342C74.5,-218.8491 74.5,-208.0651 74.5,-200.5265"/>
<polygon fill="#191970" stroke="#191970" points="71.0001,-228.3307 74.5,-238.3307 78.0001,-228.3308 71.0001,-228.3307"/>
</g>
<!-- Node8 -->
<g id="node5" class="node">
<title>Node8</title>
<polygon fill="none" stroke="#bfbfbf" points="167,-181.5 167,-200.5 290,-200.5 290,-181.5 167,-181.5"/>
<text text-anchor="middle" x="228.5" y="-188.5" font-family="Helvetica,sans-Serif" font-size="10.00" fill="#000000">CholeskyDecomposition</text>
</g>
<!-- Node8&#45;&gt;Node5 -->
<g id="edge4" class="edge">
<title>Node8&#45;&gt;Node5</title>
<path fill="none" stroke="#9a32cd" stroke-dasharray="5,2" d="M236.3806,-172.186C240.8088,-162.5025 246.7897,-150.7221 253.5,-141 264.3066,-125.3431 279.677,-109.5857 289.8614,-99.816"/>
<polygon fill="#9a32cd" stroke="#9a32cd" points="233.1753,-170.7805 232.3626,-181.3441 239.5854,-173.5929 233.1753,-170.7805"/>
<text text-anchor="middle" x="272.5" y="-149.5" font-family="Helvetica,sans-Serif" font-size="10.00" fill="#000000"> decomp</text>
</g>
<!-- Node9 -->
<g id="node6" class="node">
<title>Node9</title>
<g id="a_node6"><a xlink:href="classumontreal_1_1ssj_1_1randvar_1_1NormalGen.html" target="_top" xlink:title="This class implements methods for generating random variates from the normal distribution ...">
<polygon fill="none" stroke="#000000" points="308.5,-181.5 308.5,-200.5 374.5,-200.5 374.5,-181.5 308.5,-181.5"/>
<text text-anchor="middle" x="341.5" y="-188.5" font-family="Helvetica,sans-Serif" font-size="10.00" fill="#000000">NormalGen</text>
</a>
</g>
</g>
<!-- Node9&#45;&gt;Node5 -->
<g id="edge5" class="edge">
<title>Node9&#45;&gt;Node5</title>
<path fill="none" stroke="#9a32cd" stroke-dasharray="5,2" d="M311.9097,-175.3626C307.7339,-171.861 304.0135,-167.7479 301.5,-163 290.707,-142.6125 294.7549,-114.3169 297.9969,-99.6621"/>
<polygon fill="#9a32cd" stroke="#9a32cd" points="310.1294,-178.3919 320.3033,-181.349 314.194,-172.6929 310.1294,-178.3919"/>
<text text-anchor="middle" x="311" y="-149.5" font-family="Helvetica,sans-Serif" font-size="10.00" fill="#000000"> gen</text>
</g>
<!-- Node10 -->
<g id="node7" class="node">
<title>Node10</title>
<g id="a_node7"><a xlink:href="classumontreal_1_1ssj_1_1randvar_1_1RandomVariateGen.html" target="_top" xlink:title="This is the base class for all random variate generators over the real line. ">
<polygon fill="none" stroke="#000000" points="291,-238.5 291,-257.5 392,-257.5 392,-238.5 291,-238.5"/>
<text text-anchor="middle" x="341.5" y="-245.5" font-family="Helvetica,sans-Serif" font-size="10.00" fill="#000000">RandomVariateGen</text>
</a>
</g>
</g>
<!-- Node10&#45;&gt;Node9 -->
<g id="edge6" class="edge">
<title>Node10&#45;&gt;Node9</title>
<path fill="none" stroke="#191970" d="M341.5,-228.2342C341.5,-218.8491 341.5,-208.0651 341.5,-200.5265"/>
<polygon fill="#191970" stroke="#191970" points="338.0001,-228.3307 341.5,-238.3307 345.0001,-228.3308 338.0001,-228.3307"/>
</g>
<!-- Node11 -->
<g id="node8" class="node">
<title>Node11</title>
<g id="a_node8"><a xlink:href="interfaceumontreal_1_1ssj_1_1probdist_1_1Distribution.html" target="_top" xlink:title="This interface should be implemented by all classes supporting discrete and continuous distributions...">
<polygon fill="none" stroke="#000000" points="261.5,-305.5 261.5,-324.5 327.5,-324.5 327.5,-305.5 261.5,-305.5"/>
<text text-anchor="middle" x="294.5" y="-312.5" font-family="Helvetica,sans-Serif" font-size="10.00" fill="#000000">Distribution</text>
</a>
</g>
</g>
<!-- Node11&#45;&gt;Node10 -->
<g id="edge7" class="edge">
<title>Node11&#45;&gt;Node10</title>
<path fill="none" stroke="#9a32cd" stroke-dasharray="5,2" d="M307.1407,-296.9803C316.0366,-284.2989 327.594,-267.8235 334.7785,-257.5817"/>
<polygon fill="#9a32cd" stroke="#9a32cd" points="304.1115,-295.2039 301.234,-305.4005 309.8421,-299.2239 304.1115,-295.2039"/>
<text text-anchor="middle" x="331" y="-279" font-family="Helvetica,sans-Serif" font-size="10.00" fill="#000000"> dist</text>
</g>
<!-- Node12 -->
<g id="node9" class="node">
<title>Node12</title>
<g id="a_node9"><a xlink:href="interfaceumontreal_1_1ssj_1_1rng_1_1RandomStream.html" target="_top" xlink:title="This interface defines the basic structures to handle multiple streams of uniform (pseudo)random numb...">
<polygon fill="none" stroke="#000000" points="346,-305.5 346,-324.5 431,-324.5 431,-305.5 346,-305.5"/>
<text text-anchor="middle" x="388.5" y="-312.5" font-family="Helvetica,sans-Serif" font-size="10.00" fill="#000000">RandomStream</text>
</a>
</g>
</g>
<!-- Node12&#45;&gt;Node10 -->
<g id="edge8" class="edge">
<title>Node12&#45;&gt;Node10</title>
<path fill="none" stroke="#9a32cd" stroke-dasharray="5,2" d="M375.8593,-296.9803C366.9634,-284.2989 355.406,-267.8235 348.2215,-257.5817"/>
<polygon fill="#9a32cd" stroke="#9a32cd" points="373.1579,-299.2239 381.766,-305.4005 378.8885,-295.2039 373.1579,-299.2239"/>
<text text-anchor="middle" x="385.5" y="-279" font-family="Helvetica,sans-Serif" font-size="10.00" fill="#000000"> stream</text>
</g>
<!-- Node13 -->
<g id="node10" class="node">
<title>Node13</title>
<polygon fill="none" stroke="#bfbfbf" points="393,-181.5 393,-200.5 480,-200.5 480,-181.5 393,-181.5"/>
<text text-anchor="middle" x="436.5" y="-188.5" font-family="Helvetica,sans-Serif" font-size="10.00" fill="#000000">DoubleMatrix2D</text>
</g>
<!-- Node13&#45;&gt;Node4 -->
<g id="edge10" class="edge">
<title>Node13&#45;&gt;Node4</title>
<path fill="none" stroke="#9a32cd" stroke-dasharray="5,2" d="M431.6044,-171.4693C429.1263,-162.163 425.9211,-150.923 422.5,-141 406.5445,-94.7201 382.7646,-41.2325 372.9661,-19.7082"/>
<polygon fill="#9a32cd" stroke="#9a32cd" points="428.257,-172.5052 434.1487,-181.3109 435.0342,-170.7531 428.257,-172.5052"/>
<text text-anchor="middle" x="436.5" y="-115" font-family="Helvetica,sans-Serif" font-size="10.00" fill="#000000"> BC</text>
<text text-anchor="middle" x="436.5" y="-104" font-family="Helvetica,sans-Serif" font-size="10.00" fill="#000000">sortedBC</text>
<text text-anchor="middle" x="436.5" y="-93" font-family="Helvetica,sans-Serif" font-size="10.00" fill="#000000">PC</text>
<text text-anchor="middle" x="436.5" y="-82" font-family="Helvetica,sans-Serif" font-size="10.00" fill="#000000">copyBC</text>
<text text-anchor="middle" x="436.5" y="-71" font-family="Helvetica,sans-Serif" font-size="10.00" fill="#000000">PcovZ</text>
<text text-anchor="middle" x="436.5" y="-60" font-family="Helvetica,sans-Serif" font-size="10.00" fill="#000000">C</text>
</g>
<!-- Node13&#45;&gt;Node5 -->
<g id="edge9" class="edge">
<title>Node13&#45;&gt;Node5</title>
<path fill="none" stroke="#9a32cd" stroke-dasharray="5,2" d="M384.6823,-178.9203C367.2395,-174.1175 350.4387,-168.4461 343.5,-163 321.9789,-146.1083 309.0312,-115.2262 303.5596,-99.6005"/>
<polygon fill="#9a32cd" stroke="#9a32cd" points="383.8172,-182.3118 394.3803,-181.4923 385.6117,-175.5457 383.8172,-182.3118"/>
<text text-anchor="middle" x="383" y="-155" font-family="Helvetica,sans-Serif" font-size="10.00" fill="#000000"> covZ</text>
<text text-anchor="middle" x="383" y="-144" font-family="Helvetica,sans-Serif" font-size="10.00" fill="#000000">covZCholDecomp</text>
</g>
</g>
</svg>
