<?xml version="1.0" encoding="UTF-8" standalone="no"?>
<!DOCTYPE svg PUBLIC "-//W3C//DTD SVG 1.1//EN"
 "http://www.w3.org/Graphics/SVG/1.1/DTD/svg11.dtd">
<!-- Generated by graphviz version 2.38.0 (20140413.2041)
 -->
<!-- Title: HilbertCurveSort Pages: 1 -->
<svg width="268pt" height="95pt"
 viewBox="0.00 0.00 268.00 95.00" xmlns="http://www.w3.org/2000/svg" xmlns:xlink="http://www.w3.org/1999/xlink">
<g id="graph0" class="graph" transform="scale(1 1) rotate(0) translate(4 91)">
<title>HilbertCurveSort</title>
<!-- Node2 -->
<g id="node1" class="node"><title>Node2</title>
<polygon fill="#bfbfbf" stroke="black" points="100.5,-0.5 100.5,-19.5 189.5,-19.5 189.5,-0.5 100.5,-0.5"/>
<text text-anchor="middle" x="145" y="-7.5" font-family="Helvetica,sans-Serif" font-size="10.00">HilbertCurveSort</text>
</g>
<!-- Node3 -->
<g id="node2" class="node"><title>Node3</title>
<g id="a_node2"><a xlink:href="interfaceumontreal_1_1ssj_1_1util_1_1sort_1_1MultiDimSort01.html" target="_top" xlink:title="MultiDimSort01\&lt; MultiDim01 \&gt;">
<polygon fill="none" stroke="black" points="0,-67.5 0,-86.5 152,-86.5 152,-67.5 0,-67.5"/>
<text text-anchor="middle" x="76" y="-74.5" font-family="Helvetica,sans-Serif" font-size="10.00">MultiDimSort01&lt; MultiDim01 &gt;</text>
</a>
</g>
</g>
<!-- Node3&#45;&gt;Node2 -->
<g id="edge1" class="edge"><title>Node3&#45;&gt;Node2</title>
<path fill="none" stroke="midnightblue" d="M92.6063,-60.3564C106.171,-47.5777 124.84,-29.9915 135.842,-19.6273"/>
<polygon fill="midnightblue" stroke="midnightblue" points="90.1846,-57.8292 85.3056,-67.2338 94.9845,-62.9245 90.1846,-57.8292"/>
</g>
<!-- Node4 -->
<g id="node3" class="node"><title>Node4</title>
<g id="a_node3"><a xlink:href="classumontreal_1_1ssj_1_1util_1_1sort_1_1HilbertCurveMap.html" target="_top" xlink:title="This class implements the mapping of a Hilbert curve in the &#45;dimensional unit hypercube ...">
<polygon fill="none" stroke="black" points="170,-67.5 170,-86.5 260,-86.5 260,-67.5 170,-67.5"/>
<text text-anchor="middle" x="215" y="-74.5" font-family="Helvetica,sans-Serif" font-size="10.00">HilbertCurveMap</text>
</a>
</g>
</g>
<!-- Node4&#45;&gt;Node2 -->
<g id="edge2" class="edge"><title>Node4&#45;&gt;Node2</title>
<path fill="none" stroke="#9a32cd" stroke-dasharray="5,2" d="M198.153,-60.3564C184.391,-47.5777 165.452,-29.9915 154.291,-19.6273"/>
<polygon fill="#9a32cd" stroke="#9a32cd" points="195.85,-62.9941 205.559,-67.2338 200.613,-57.8645 195.85,-62.9941"/>
<text text-anchor="middle" x="200.5" y="-41" font-family="Helvetica,sans-Serif" font-size="10.00"> hcMap</text>
</g>
</g>
</svg>
