<?xml version="1.0" encoding="UTF-8" standalone="no"?>
<!DOCTYPE svg PUBLIC "-//W3C//DTD SVG 1.1//EN"
 "http://www.w3.org/Graphics/SVG/1.1/DTD/svg11.dtd">
<!-- Generated by graphviz version 2.40.1 (0)
 -->
<!-- Title: CycleBasedPointSet Pages: 1 -->
<svg width="382pt" height="196pt"
 viewBox="0.00 0.00 381.50 196.00" xmlns="http://www.w3.org/2000/svg" xmlns:xlink="http://www.w3.org/1999/xlink">
<g id="graph0" class="graph" transform="scale(1 1) rotate(0) translate(4 192)">
<title>CycleBasedPointSet</title>
<!-- Node0 -->
<g id="node1" class="node">
<title>Node0</title>
<g id="a_node1"><a xlink:title="This abstract class provides the basic structures for storing and manipulating a highly uniform point...">
<polygon fill="#bfbfbf" stroke="#000000" points="178,-112.5 178,-131.5 285,-131.5 285,-112.5 178,-112.5"/>
<text text-anchor="middle" x="231.5" y="-119.5" font-family="Helvetica,sans-Serif" font-size="10.00" fill="#000000">CycleBasedPointSet</text>
</a>
</g>
</g>
<!-- Node2 -->
<g id="node3" class="node">
<title>Node2</title>
<g id="a_node3"><a xlink:href="classumontreal_1_1ssj_1_1hups_1_1CycleBasedPointSetBase2.html" target="_top" xlink:title="Similar to CycleBasedPointSet, except that the successive values in the cycles are stored as integers...">
<polygon fill="none" stroke="#000000" points="103,-56.5 103,-75.5 238,-75.5 238,-56.5 103,-56.5"/>
<text text-anchor="middle" x="170.5" y="-63.5" font-family="Helvetica,sans-Serif" font-size="10.00" fill="#000000">CycleBasedPointSetBase2</text>
</a>
</g>
</g>
<!-- Node0&#45;&gt;Node2 -->
<g id="edge2" class="edge">
<title>Node0&#45;&gt;Node2</title>
<path fill="none" stroke="#191970" d="M213.3751,-105.3607C202.822,-95.6727 189.8888,-83.7995 181.0036,-75.6427"/>
<polygon fill="#191970" stroke="#191970" points="211.1411,-108.0611 220.8746,-112.2455 215.875,-102.9045 211.1411,-108.0611"/>
</g>
<!-- Node6 -->
<g id="node7" class="node">
<title>Node6</title>
<g id="a_node7"><a xlink:href="classumontreal_1_1ssj_1_1hups_1_1LCGPointSet.html" target="_top" xlink:title="Implements a recurrence&#45;based point set defined via a linear congruential recurrence of the form &#160;and...">
<polygon fill="none" stroke="#000000" points="256.5,-56.5 256.5,-75.5 330.5,-75.5 330.5,-56.5 256.5,-56.5"/>
<text text-anchor="middle" x="293.5" y="-63.5" font-family="Helvetica,sans-Serif" font-size="10.00" fill="#000000">LCGPointSet</text>
</a>
</g>
</g>
<!-- Node0&#45;&gt;Node6 -->
<g id="edge6" class="edge">
<title>Node0&#45;&gt;Node6</title>
<path fill="none" stroke="#191970" d="M249.9221,-105.3607C260.6481,-95.6727 273.7934,-83.7995 282.8242,-75.6427"/>
<polygon fill="#191970" stroke="#191970" points="247.3746,-102.9453 242.2996,-112.2455 252.0666,-108.14 247.3746,-102.9453"/>
</g>
<!-- Node1 -->
<g id="node2" class="node">
<title>Node1</title>
<g id="a_node2"><a xlink:href="classumontreal_1_1ssj_1_1hups_1_1PointSet.html" target="_top" xlink:title="This abstract class defines the basic methods for accessing and manipulating point sets.">
<polygon fill="none" stroke="#000000" points="204.5,-168.5 204.5,-187.5 258.5,-187.5 258.5,-168.5 204.5,-168.5"/>
<text text-anchor="middle" x="231.5" y="-175.5" font-family="Helvetica,sans-Serif" font-size="10.00" fill="#000000">PointSet</text>
</a>
</g>
</g>
<!-- Node1&#45;&gt;Node0 -->
<g id="edge1" class="edge">
<title>Node1&#45;&gt;Node0</title>
<path fill="none" stroke="#191970" d="M231.5,-158.1575C231.5,-149.155 231.5,-138.9199 231.5,-131.6427"/>
<polygon fill="#191970" stroke="#191970" points="228.0001,-158.2455 231.5,-168.2455 235.0001,-158.2456 228.0001,-158.2455"/>
</g>
<!-- Node3 -->
<g id="node4" class="node">
<title>Node3</title>
<g id="a_node4"><a xlink:href="classumontreal_1_1ssj_1_1hups_1_1CycleBasedLFSR.html" target="_top" xlink:title="LFSR generators produce numbers by generating a sequence of bits from a linear recurrence modulo 2,...">
<polygon fill="none" stroke="#000000" points="0,-.5 0,-19.5 95,-19.5 95,-.5 0,-.5"/>
<text text-anchor="middle" x="47.5" y="-7.5" font-family="Helvetica,sans-Serif" font-size="10.00" fill="#000000">CycleBasedLFSR</text>
</a>
</g>
</g>
<!-- Node2&#45;&gt;Node3 -->
<g id="edge3" class="edge">
<title>Node2&#45;&gt;Node3</title>
<path fill="none" stroke="#191970" d="M139.9935,-52.1109C117.6888,-41.9559 88.0201,-28.4482 68.3685,-19.5011"/>
<polygon fill="#191970" stroke="#191970" points="138.8041,-55.415 149.3555,-56.3733 141.7047,-49.0442 138.8041,-55.415"/>
</g>
<!-- Node4 -->
<g id="node5" class="node">
<title>Node4</title>
<g id="a_node5"><a xlink:href="classumontreal_1_1ssj_1_1hups_1_1F2wCycleBasedLFSR.html" target="_top" xlink:title="This class creates a point set based upon a linear feedback shift register sequence.">
<polygon fill="none" stroke="#000000" points="113.5,-.5 113.5,-19.5 227.5,-19.5 227.5,-.5 113.5,-.5"/>
<text text-anchor="middle" x="170.5" y="-7.5" font-family="Helvetica,sans-Serif" font-size="10.00" fill="#000000">F2wCycleBasedLFSR</text>
</a>
</g>
</g>
<!-- Node2&#45;&gt;Node4 -->
<g id="edge4" class="edge">
<title>Node2&#45;&gt;Node4</title>
<path fill="none" stroke="#191970" d="M170.5,-46.1575C170.5,-37.155 170.5,-26.9199 170.5,-19.6427"/>
<polygon fill="#191970" stroke="#191970" points="167.0001,-46.2455 170.5,-56.2455 174.0001,-46.2456 167.0001,-46.2455"/>
</g>
<!-- Node5 -->
<g id="node6" class="node">
<title>Node5</title>
<g id="a_node6"><a xlink:href="classumontreal_1_1ssj_1_1hups_1_1F2wCycleBasedPolyLCG.html" target="_top" xlink:title="This class creates a point set based upon a linear congruential sequence in the finite field .">
<polygon fill="none" stroke="#000000" points="245.5,-.5 245.5,-19.5 373.5,-19.5 373.5,-.5 245.5,-.5"/>
<text text-anchor="middle" x="309.5" y="-7.5" font-family="Helvetica,sans-Serif" font-size="10.00" fill="#000000">F2wCycleBasedPolyLCG</text>
</a>
</g>
</g>
<!-- Node2&#45;&gt;Node5 -->
<g id="edge5" class="edge">
<title>Node2&#45;&gt;Node5</title>
<path fill="none" stroke="#191970" d="M203.9621,-52.5189C229.2769,-42.3201 263.4103,-28.5685 285.9169,-19.5011"/>
<polygon fill="#191970" stroke="#191970" points="202.3626,-49.3899 194.395,-56.3733 204.9784,-55.8827 202.3626,-49.3899"/>
</g>
</g>
</svg>
