<?xml version="1.0" encoding="UTF-8" standalone="no"?>
<!DOCTYPE svg PUBLIC "-//W3C//DTD SVG 1.1//EN"
 "http://www.w3.org/Graphics/SVG/1.1/DTD/svg11.dtd">
<!-- Generated by graphviz version 2.38.0 (20140413.2041)
 -->
<!-- Title: MonteCarloSampler Pages: 1 -->
<svg width="116pt" height="196pt"
 viewBox="0.00 0.00 116.00 196.00" xmlns="http://www.w3.org/2000/svg" xmlns:xlink="http://www.w3.org/1999/xlink">
<g id="graph0" class="graph" transform="scale(1 1) rotate(0) translate(4 192)">
<title>MonteCarloSampler</title>
<!-- Node0 -->
<g id="node1" class="node"><title>Node0</title>
<polygon fill="#bfbfbf" stroke="black" points="2.5,-56.5 2.5,-75.5 105.5,-75.5 105.5,-56.5 2.5,-56.5"/>
<text text-anchor="middle" x="54" y="-63.5" font-family="Helvetica,sans-Serif" font-size="10.00">MonteCarloSampler</text>
</g>
<!-- Node3 -->
<g id="node4" class="node"><title>Node3</title>
<g id="a_node4"><a xlink:href="classumontreal_1_1ssj_1_1mcqmctools_1_1anova_1_1MonteCarloIntegrator.html" target="_top" xlink:title="MonteCarloIntegrator">
<polygon fill="none" stroke="black" points="0,-0.5 0,-19.5 108,-19.5 108,-0.5 0,-0.5"/>
<text text-anchor="middle" x="54" y="-7.5" font-family="Helvetica,sans-Serif" font-size="10.00">MonteCarloIntegrator</text>
</a>
</g>
</g>
<!-- Node0&#45;&gt;Node3 -->
<g id="edge3" class="edge"><title>Node0&#45;&gt;Node3</title>
<path fill="none" stroke="midnightblue" d="M54,-45.8045C54,-36.9102 54,-26.7798 54,-19.7511"/>
<polygon fill="midnightblue" stroke="midnightblue" points="50.5001,-46.083 54,-56.083 57.5001,-46.083 50.5001,-46.083"/>
</g>
<!-- Node1 -->
<g id="node2" class="node"><title>Node1</title>
<g id="a_node2"><a xlink:href="interfaceumontreal_1_1ssj_1_1mcqmctools_1_1anova_1_1RandomSampler.html" target="_top" xlink:title="RandomSampler">
<polygon fill="none" stroke="black" points="9.5,-112.5 9.5,-131.5 98.5,-131.5 98.5,-112.5 9.5,-112.5"/>
<text text-anchor="middle" x="54" y="-119.5" font-family="Helvetica,sans-Serif" font-size="10.00">RandomSampler</text>
</a>
</g>
</g>
<!-- Node1&#45;&gt;Node0 -->
<g id="edge1" class="edge"><title>Node1&#45;&gt;Node0</title>
<path fill="none" stroke="midnightblue" d="M54,-101.805C54,-92.9102 54,-82.7798 54,-75.7511"/>
<polygon fill="midnightblue" stroke="midnightblue" points="50.5001,-102.083 54,-112.083 57.5001,-102.083 50.5001,-102.083"/>
</g>
<!-- Node2 -->
<g id="node3" class="node"><title>Node2</title>
<g id="a_node3"><a xlink:href="interfaceumontreal_1_1ssj_1_1mcqmctools_1_1anova_1_1Sampler.html" target="_top" xlink:title="Sampler">
<polygon fill="none" stroke="black" points="27.5,-168.5 27.5,-187.5 80.5,-187.5 80.5,-168.5 27.5,-168.5"/>
<text text-anchor="middle" x="54" y="-175.5" font-family="Helvetica,sans-Serif" font-size="10.00">Sampler</text>
</a>
</g>
</g>
<!-- Node2&#45;&gt;Node1 -->
<g id="edge2" class="edge"><title>Node2&#45;&gt;Node1</title>
<path fill="none" stroke="midnightblue" d="M54,-157.805C54,-148.91 54,-138.78 54,-131.751"/>
<polygon fill="midnightblue" stroke="midnightblue" points="50.5001,-158.083 54,-168.083 57.5001,-158.083 50.5001,-158.083"/>
</g>
</g>
</svg>
