<?xml version="1.0" encoding="UTF-8" standalone="no"?>
<!DOCTYPE svg PUBLIC "-//W3C//DTD SVG 1.1//EN"
 "http://www.w3.org/Graphics/SVG/1.1/DTD/svg11.dtd">
<!-- Generated by graphviz version 2.38.0 (20140413.2041)
 -->
<!-- Title: TallyHistogram Pages: 1 -->
<svg width="146pt" height="196pt"
 viewBox="0.00 0.00 146.00 196.00" xmlns="http://www.w3.org/2000/svg" xmlns:xlink="http://www.w3.org/1999/xlink">
<g id="graph0" class="graph" transform="scale(1 1) rotate(0) translate(4 192)">
<title>TallyHistogram</title>
<!-- Node0 -->
<g id="node1" class="node"><title>Node0</title>
<polygon fill="#bfbfbf" stroke="black" points="27.5,-56.5 27.5,-75.5 110.5,-75.5 110.5,-56.5 27.5,-56.5"/>
<text text-anchor="middle" x="69" y="-63.5" font-family="Helvetica,sans-Serif" font-size="10.00">TallyHistogram</text>
</g>
<!-- Node4 -->
<g id="node5" class="node"><title>Node4</title>
<g id="a_node5"><a xlink:href="classumontreal_1_1ssj_1_1stat_1_1HistogramOnly.html" target="_top" xlink:title="This class is similar to TallyHistogram, except that it does not maintain the min, max, average, and variance of the observations. ">
<polygon fill="none" stroke="black" points="28,-0.5 28,-19.5 110,-19.5 110,-0.5 28,-0.5"/>
<text text-anchor="middle" x="69" y="-7.5" font-family="Helvetica,sans-Serif" font-size="10.00">HistogramOnly</text>
</a>
</g>
</g>
<!-- Node0&#45;&gt;Node4 -->
<g id="edge4" class="edge"><title>Node0&#45;&gt;Node4</title>
<path fill="none" stroke="midnightblue" d="M69,-45.8045C69,-36.9102 69,-26.7798 69,-19.7511"/>
<polygon fill="midnightblue" stroke="midnightblue" points="65.5001,-46.083 69,-56.083 72.5001,-46.083 65.5001,-46.083"/>
</g>
<!-- Node1 -->
<g id="node2" class="node"><title>Node1</title>
<g id="a_node2"><a xlink:href="classumontreal_1_1ssj_1_1stat_1_1Tally.html" target="_top" xlink:title="A subclass of StatProbe. ">
<polygon fill="none" stroke="black" points="50,-112.5 50,-131.5 88,-131.5 88,-112.5 50,-112.5"/>
<text text-anchor="middle" x="69" y="-119.5" font-family="Helvetica,sans-Serif" font-size="10.00">Tally</text>
</a>
</g>
</g>
<!-- Node1&#45;&gt;Node0 -->
<g id="edge1" class="edge"><title>Node1&#45;&gt;Node0</title>
<path fill="none" stroke="midnightblue" d="M69,-101.805C69,-92.9102 69,-82.7798 69,-75.7511"/>
<polygon fill="midnightblue" stroke="midnightblue" points="65.5001,-102.083 69,-112.083 72.5001,-102.083 65.5001,-102.083"/>
</g>
<!-- Node2 -->
<g id="node3" class="node"><title>Node2</title>
<g id="a_node3"><a xlink:href="classumontreal_1_1ssj_1_1stat_1_1StatProbe.html" target="_top" xlink:title="The objects of this class are statistical probes or collectors, which are elementary devices for coll...">
<polygon fill="none" stroke="black" points="0,-168.5 0,-187.5 60,-187.5 60,-168.5 0,-168.5"/>
<text text-anchor="middle" x="30" y="-175.5" font-family="Helvetica,sans-Serif" font-size="10.00">StatProbe</text>
</a>
</g>
</g>
<!-- Node2&#45;&gt;Node1 -->
<g id="edge2" class="edge"><title>Node2&#45;&gt;Node1</title>
<path fill="none" stroke="midnightblue" d="M42.3822,-159.855C49.1354,-150.505 57.2086,-139.327 62.6798,-131.751"/>
<polygon fill="midnightblue" stroke="midnightblue" points="39.4576,-157.927 36.4401,-168.083 45.1324,-162.025 39.4576,-157.927"/>
</g>
<!-- Node3 -->
<g id="node4" class="node"><title>Node3</title>
<polygon fill="none" stroke="#bfbfbf" points="78,-168.5 78,-187.5 138,-187.5 138,-168.5 78,-168.5"/>
<text text-anchor="middle" x="108" y="-175.5" font-family="Helvetica,sans-Serif" font-size="10.00">Cloneable</text>
</g>
<!-- Node3&#45;&gt;Node1 -->
<g id="edge3" class="edge"><title>Node3&#45;&gt;Node1</title>
<path fill="none" stroke="midnightblue" d="M95.6178,-159.855C88.8646,-150.505 80.7914,-139.327 75.3202,-131.751"/>
<polygon fill="midnightblue" stroke="midnightblue" points="92.8676,-162.025 101.56,-168.083 98.5424,-157.927 92.8676,-162.025"/>
</g>
</g>
</svg>
