<?xml version="1.0" encoding="UTF-8" standalone="no"?>
<!DOCTYPE svg PUBLIC "-//W3C//DTD SVG 1.1//EN"
 "http://www.w3.org/Graphics/SVG/1.1/DTD/svg11.dtd">
<!-- Generated by graphviz version 2.40.1 (0)
 -->
<!-- Title: LookbackOptionGBM Pages: 1 -->
<svg width="382pt" height="343pt"
 viewBox="0.00 0.00 381.50 343.00" xmlns="http://www.w3.org/2000/svg" xmlns:xlink="http://www.w3.org/1999/xlink">
<g id="graph0" class="graph" transform="scale(1 1) rotate(0) translate(4 339)">
<title>LookbackOptionGBM</title>
<!-- Node2 -->
<g id="node1" class="node">
<title>Node2</title>
<g id="a_node1"><a xlink:title="Implements the current value for a Lookback call option under a geometric Brownian motion.">
<polygon fill="#bfbfbf" stroke="#000000" points="23,-.5 23,-19.5 133,-19.5 133,-.5 23,-.5"/>
<text text-anchor="middle" x="78" y="-7.5" font-family="Helvetica,sans-Serif" font-size="10.00" fill="#000000">LookbackOptionGBM</text>
</a>
</g>
</g>
<!-- Node3 -->
<g id="node2" class="node">
<title>Node3</title>
<g id="a_node2"><a xlink:href="interfaceumontreal_1_1ssj_1_1mcqmctools_1_1MonteCarloModelDouble.html" target="_top" xlink:title="An interface for a very simple simulation model for which Monte Carlo (MC) and RQMC experiments are t...">
<polygon fill="none" stroke="#000000" points="0,-67.5 0,-86.5 124,-86.5 124,-67.5 0,-67.5"/>
<text text-anchor="middle" x="62" y="-74.5" font-family="Helvetica,sans-Serif" font-size="10.00" fill="#000000">MonteCarloModelDouble</text>
</a>
</g>
</g>
<!-- Node3&#45;&gt;Node2 -->
<g id="edge1" class="edge">
<title>Node3&#45;&gt;Node2</title>
<path fill="none" stroke="#191970" d="M66.66,-57.4863C69.635,-45.0286 73.361,-29.4258 75.7118,-19.5817"/>
<polygon fill="#191970" stroke="#191970" points="63.211,-56.861 64.2924,-67.4005 70.0195,-58.487 63.211,-56.861"/>
</g>
<!-- Node4 -->
<g id="node3" class="node">
<title>Node4</title>
<g id="a_node3"><a xlink:href="classumontreal_1_1ssj_1_1stochprocess_1_1BrownianMotionBridge.html" target="_top" xlink:title="Represents a Brownian motion process &#160;sampled using the bridge sampling technique (see for example  )...">
<polygon fill="none" stroke="#000000" points="142,-67.5 142,-86.5 256,-86.5 256,-67.5 142,-67.5"/>
<text text-anchor="middle" x="199" y="-74.5" font-family="Helvetica,sans-Serif" font-size="10.00" fill="#000000">BrownianMotionBridge</text>
</a>
</g>
</g>
<!-- Node4&#45;&gt;Node2 -->
<g id="edge2" class="edge">
<title>Node4&#45;&gt;Node2</title>
<path fill="none" stroke="#9a32cd" stroke-dasharray="5,2" d="M172.605,-62.3846C149.139,-49.391 115.5066,-30.7681 95.3042,-19.5817"/>
<polygon fill="#9a32cd" stroke="#9a32cd" points="171.2198,-65.6183 181.6637,-67.4005 174.6107,-59.4944 171.2198,-65.6183"/>
<text text-anchor="middle" x="153.5" y="-41" font-family="Helvetica,sans-Serif" font-size="10.00" fill="#000000"> bm</text>
</g>
<!-- Node5 -->
<g id="node4" class="node">
<title>Node5</title>
<g id="a_node4"><a xlink:href="classumontreal_1_1ssj_1_1stochprocess_1_1BrownianMotion.html" target="_top" xlink:title="This class represents a Brownian motion process , sampled at times .">
<polygon fill="none" stroke="#000000" points="156,-124.5 156,-143.5 242,-143.5 242,-124.5 156,-124.5"/>
<text text-anchor="middle" x="199" y="-131.5" font-family="Helvetica,sans-Serif" font-size="10.00" fill="#000000">BrownianMotion</text>
</a>
</g>
</g>
<!-- Node5&#45;&gt;Node4 -->
<g id="edge3" class="edge">
<title>Node5&#45;&gt;Node4</title>
<path fill="none" stroke="#191970" d="M199,-114.2342C199,-104.8491 199,-94.0651 199,-86.5265"/>
<polygon fill="#191970" stroke="#191970" points="195.5001,-114.3307 199,-124.3307 202.5001,-114.3308 195.5001,-114.3307"/>
</g>
<!-- Node6 -->
<g id="node5" class="node">
<title>Node6</title>
<g id="a_node5"><a xlink:href="classumontreal_1_1ssj_1_1stochprocess_1_1StochasticProcess.html" target="_top" xlink:title="Abstract base class for a stochastic process &#160;sampled (or observed) at a finite number of time points...">
<polygon fill="none" stroke="#000000" points="133.5,-191.5 133.5,-210.5 232.5,-210.5 232.5,-191.5 133.5,-191.5"/>
<text text-anchor="middle" x="183" y="-198.5" font-family="Helvetica,sans-Serif" font-size="10.00" fill="#000000">StochasticProcess</text>
</a>
</g>
</g>
<!-- Node6&#45;&gt;Node5 -->
<g id="edge4" class="edge">
<title>Node6&#45;&gt;Node5</title>
<path fill="none" stroke="#191970" d="M187.66,-181.4863C190.635,-169.0286 194.361,-153.4258 196.7118,-143.5817"/>
<polygon fill="#191970" stroke="#191970" points="184.211,-180.861 185.2924,-191.4005 191.0195,-182.487 184.211,-180.861"/>
</g>
<!-- Node7 -->
<g id="node6" class="node">
<title>Node7</title>
<g id="a_node6"><a xlink:href="classumontreal_1_1ssj_1_1randvar_1_1NormalGen.html" target="_top" xlink:title="This class implements methods for generating random variates from the normal distribution .">
<polygon fill="none" stroke="#000000" points="251,-191.5 251,-210.5 317,-210.5 317,-191.5 251,-191.5"/>
<text text-anchor="middle" x="284" y="-198.5" font-family="Helvetica,sans-Serif" font-size="10.00" fill="#000000">NormalGen</text>
</a>
</g>
</g>
<!-- Node7&#45;&gt;Node5 -->
<g id="edge5" class="edge">
<title>Node7&#45;&gt;Node5</title>
<path fill="none" stroke="#9a32cd" stroke-dasharray="5,2" d="M263.8993,-185.1559C247.5128,-172.2395 224.9061,-154.4201 211.1558,-143.5817"/>
<polygon fill="#9a32cd" stroke="#9a32cd" points="261.8013,-187.9588 271.8216,-191.4005 266.1347,-182.4613 261.8013,-187.9588"/>
<text text-anchor="middle" x="255.5" y="-165" font-family="Helvetica,sans-Serif" font-size="10.00" fill="#000000"> gen</text>
</g>
<!-- Node8 -->
<g id="node7" class="node">
<title>Node8</title>
<g id="a_node7"><a xlink:href="classumontreal_1_1ssj_1_1randvar_1_1RandomVariateGen.html" target="_top" xlink:title="This is the base class for all random variate generators over the real line.">
<polygon fill="none" stroke="#000000" points="233.5,-248.5 233.5,-267.5 334.5,-267.5 334.5,-248.5 233.5,-248.5"/>
<text text-anchor="middle" x="284" y="-255.5" font-family="Helvetica,sans-Serif" font-size="10.00" fill="#000000">RandomVariateGen</text>
</a>
</g>
</g>
<!-- Node8&#45;&gt;Node7 -->
<g id="edge6" class="edge">
<title>Node8&#45;&gt;Node7</title>
<path fill="none" stroke="#191970" d="M284,-238.2342C284,-228.8491 284,-218.0651 284,-210.5265"/>
<polygon fill="#191970" stroke="#191970" points="280.5001,-238.3307 284,-248.3307 287.5001,-238.3308 280.5001,-238.3307"/>
</g>
<!-- Node9 -->
<g id="node8" class="node">
<title>Node9</title>
<g id="a_node8"><a xlink:href="interfaceumontreal_1_1ssj_1_1probdist_1_1Distribution.html" target="_top" xlink:title="This interface should be implemented by all classes supporting discrete and continuous distributions.">
<polygon fill="none" stroke="#000000" points="204,-315.5 204,-334.5 270,-334.5 270,-315.5 204,-315.5"/>
<text text-anchor="middle" x="237" y="-322.5" font-family="Helvetica,sans-Serif" font-size="10.00" fill="#000000">Distribution</text>
</a>
</g>
</g>
<!-- Node9&#45;&gt;Node8 -->
<g id="edge7" class="edge">
<title>Node9&#45;&gt;Node8</title>
<path fill="none" stroke="#9a32cd" stroke-dasharray="5,2" d="M249.6407,-306.9803C258.5366,-294.2989 270.094,-277.8235 277.2785,-267.5817"/>
<polygon fill="#9a32cd" stroke="#9a32cd" points="246.6115,-305.2039 243.734,-315.4005 252.3421,-309.2239 246.6115,-305.2039"/>
<text text-anchor="middle" x="272.5" y="-289" font-family="Helvetica,sans-Serif" font-size="10.00" fill="#000000"> dist</text>
</g>
<!-- Node10 -->
<g id="node9" class="node">
<title>Node10</title>
<g id="a_node9"><a xlink:href="interfaceumontreal_1_1ssj_1_1rng_1_1RandomStream.html" target="_top" xlink:title="This interface defines the basic structures to handle multiple streams of uniform (pseudo)random numb...">
<polygon fill="none" stroke="#000000" points="288.5,-315.5 288.5,-334.5 373.5,-334.5 373.5,-315.5 288.5,-315.5"/>
<text text-anchor="middle" x="331" y="-322.5" font-family="Helvetica,sans-Serif" font-size="10.00" fill="#000000">RandomStream</text>
</a>
</g>
</g>
<!-- Node10&#45;&gt;Node8 -->
<g id="edge8" class="edge">
<title>Node10&#45;&gt;Node8</title>
<path fill="none" stroke="#9a32cd" stroke-dasharray="5,2" d="M318.3593,-306.9803C309.4634,-294.2989 297.906,-277.8235 290.7215,-267.5817"/>
<polygon fill="#9a32cd" stroke="#9a32cd" points="315.6579,-309.2239 324.266,-315.4005 321.3885,-305.2039 315.6579,-309.2239"/>
<text text-anchor="middle" x="327" y="-289" font-family="Helvetica,sans-Serif" font-size="10.00" fill="#000000"> stream</text>
</g>
</g>
</svg>
