<?xml version="1.0" encoding="UTF-8" standalone="no"?>
<!DOCTYPE svg PUBLIC "-//W3C//DTD SVG 1.1//EN"
 "http://www.w3.org/Graphics/SVG/1.1/DTD/svg11.dtd">
<!-- Generated by graphviz version 2.40.1 (20161225.0304)
 -->
<!-- Title: RepSim Pages: 1 -->
<svg width="221pt" height="276pt"
 viewBox="0.00 0.00 221.00 276.00" xmlns="http://www.w3.org/2000/svg" xmlns:xlink="http://www.w3.org/1999/xlink">
<g id="graph0" class="graph" transform="scale(1 1) rotate(0) translate(4 272)">
<title>RepSim</title>
<!-- Node2 -->
<g id="node1" class="node">
<title>Node2</title>
<polygon fill="#bfbfbf" stroke="#000000" points="66,-.5 66,-19.5 118,-19.5 118,-.5 66,-.5"/>
<text text-anchor="middle" x="92" y="-7.5" font-family="Helvetica,sans-Serif" font-size="10.00" fill="#000000">RepSim</text>
</g>
<!-- Node3 -->
<g id="node2" class="node">
<title>Node3</title>
<g id="a_node2"><a xlink:href="classumontreal_1_1ssj_1_1simexp_1_1SimExp.html" target="_top" xlink:title="Represents a framework for performing experiments using simulation. ">
<polygon fill="none" stroke="#000000" points="66.5,-57.5 66.5,-76.5 117.5,-76.5 117.5,-57.5 66.5,-57.5"/>
<text text-anchor="middle" x="92" y="-64.5" font-family="Helvetica,sans-Serif" font-size="10.00" fill="#000000">SimExp</text>
</a>
</g>
</g>
<!-- Node3&#45;&gt;Node2 -->
<g id="edge1" class="edge">
<title>Node3&#45;&gt;Node2</title>
<path fill="none" stroke="#191970" d="M92,-47.2342C92,-37.8491 92,-27.0651 92,-19.5265"/>
<polygon fill="#191970" stroke="#191970" points="88.5001,-47.3307 92,-57.3307 95.5001,-47.3308 88.5001,-47.3307"/>
</g>
<!-- Node4 -->
<g id="node3" class="node">
<title>Node4</title>
<g id="a_node3"><a xlink:href="classumontreal_1_1ssj_1_1simevents_1_1Simulator.html" target="_top" xlink:title="Represents the executive of a discrete&#45;event simulator. ">
<polygon fill="none" stroke="#000000" points="63,-124.5 63,-143.5 121,-143.5 121,-124.5 63,-124.5"/>
<text text-anchor="middle" x="92" y="-131.5" font-family="Helvetica,sans-Serif" font-size="10.00" fill="#000000">Simulator</text>
</a>
</g>
</g>
<!-- Node4&#45;&gt;Node3 -->
<g id="edge2" class="edge">
<title>Node4&#45;&gt;Node3</title>
<path fill="none" stroke="#9a32cd" stroke-dasharray="5,2" d="M92,-114.1079C92,-101.714 92,-86.3263 92,-76.5817"/>
<polygon fill="#9a32cd" stroke="#9a32cd" points="88.5001,-114.4005 92,-124.4005 95.5001,-114.4006 88.5001,-114.4005"/>
<text text-anchor="middle" x="101.5" y="-98" font-family="Helvetica,sans-Serif" font-size="10.00" fill="#000000"> sim</text>
</g>
<!-- Node4&#45;&gt;Node4 -->
<g id="edge3" class="edge">
<title>Node4&#45;&gt;Node4</title>
<path fill="none" stroke="#9a32cd" stroke-dasharray="5,2" d="M131.603,-139.0845C136.0912,-138.1323 139,-136.4375 139,-134 139,-130 131.1667,-128 121.375,-128"/>
<polygon fill="#9a32cd" stroke="#9a32cd" points="131.0231,-135.6223 121.375,-140 131.6473,-142.5944 131.0231,-135.6223"/>
<text text-anchor="middle" x="176" y="-131.5" font-family="Helvetica,sans-Serif" font-size="10.00" fill="#000000"> defaultSimulator</text>
</g>
<!-- Node5 -->
<g id="node4" class="node">
<title>Node5</title>
<g id="a_node4"><a xlink:href="interfaceumontreal_1_1ssj_1_1simevents_1_1eventlist_1_1EventList.html" target="_top" xlink:title="An interface for implementations of event lists. ">
<polygon fill="none" stroke="#000000" points="17,-191.5 17,-210.5 75,-210.5 75,-191.5 17,-191.5"/>
<text text-anchor="middle" x="46" y="-198.5" font-family="Helvetica,sans-Serif" font-size="10.00" fill="#000000">EventList</text>
</a>
</g>
</g>
<!-- Node5&#45;&gt;Node4 -->
<g id="edge4" class="edge">
<title>Node5&#45;&gt;Node4</title>
<path fill="none" stroke="#9a32cd" stroke-dasharray="5,2" d="M58.3717,-182.9803C67.0784,-170.2989 78.3898,-153.8235 85.4215,-143.5817"/>
<polygon fill="#9a32cd" stroke="#9a32cd" points="55.3654,-181.1755 52.5907,-191.4005 61.1362,-185.1375 55.3654,-181.1755"/>
<text text-anchor="middle" x="92.5" y="-165" font-family="Helvetica,sans-Serif" font-size="10.00" fill="#000000"> eventList</text>
</g>
<!-- Node6 -->
<g id="node5" class="node">
<title>Node6</title>
<polygon fill="none" stroke="#bfbfbf" points="0,-248.5 0,-267.5 92,-267.5 92,-248.5 0,-248.5"/>
<text text-anchor="middle" x="46" y="-255.5" font-family="Helvetica,sans-Serif" font-size="10.00" fill="#000000">Iterable&lt; Event &gt;</text>
</g>
<!-- Node6&#45;&gt;Node5 -->
<g id="edge5" class="edge">
<title>Node6&#45;&gt;Node5</title>
<path fill="none" stroke="#191970" d="M46,-238.2342C46,-228.8491 46,-218.0651 46,-210.5265"/>
<polygon fill="#191970" stroke="#191970" points="42.5001,-238.3307 46,-248.3307 49.5001,-238.3308 42.5001,-238.3307"/>
</g>
<!-- Node7 -->
<g id="node6" class="node">
<title>Node7</title>
<g id="a_node6"><a xlink:href="classumontreal_1_1ssj_1_1simevents_1_1ContinuousState.html" target="_top" xlink:title="Represents the portion of the simulator’s state associated with continuous&#45;time simulation. ">
<polygon fill="none" stroke="#000000" points="93.5,-191.5 93.5,-210.5 182.5,-210.5 182.5,-191.5 93.5,-191.5"/>
<text text-anchor="middle" x="138" y="-198.5" font-family="Helvetica,sans-Serif" font-size="10.00" fill="#000000">ContinuousState</text>
</a>
</g>
</g>
<!-- Node7&#45;&gt;Node4 -->
<g id="edge6" class="edge">
<title>Node7&#45;&gt;Node4</title>
<path fill="none" stroke="#9a32cd" stroke-dasharray="5,2" d="M128.502,-182.4506C124.8608,-175.8253 120.4953,-168.4166 116,-162 111.5182,-155.6027 105.8574,-148.9437 101.1593,-143.7253"/>
<polygon fill="#9a32cd" stroke="#9a32cd" points="125.4679,-184.1996 133.2493,-191.3899 131.6502,-180.9165 125.4679,-184.1996"/>
<text text-anchor="middle" x="159" y="-165" font-family="Helvetica,sans-Serif" font-size="10.00" fill="#000000"> continuousState</text>
</g>
</g>
</svg>
