<?xml version="1.0" encoding="UTF-8" standalone="no"?>
<!DOCTYPE svg PUBLIC "-//W3C//DTD SVG 1.1//EN"
 "http://www.w3.org/Graphics/SVG/1.1/DTD/svg11.dtd">
<!-- Generated by graphviz version 2.40.1 (0)
 -->
<!-- Title: MRG31k3p Pages: 1 -->
<svg width="245pt" height="196pt"
 viewBox="0.00 0.00 245.00 196.00" xmlns="http://www.w3.org/2000/svg" xmlns:xlink="http://www.w3.org/1999/xlink">
<g id="graph0" class="graph" transform="scale(1 1) rotate(0) translate(4 192)">
<title>MRG31k3p</title>
<!-- Node6 -->
<g id="node1" class="node">
<title>Node6</title>
<g id="a_node1"><a xlink:title="Extends the abstract class RandomStreamBase, thus implementing the RandomStream interface indirectly.">
<polygon fill="#bfbfbf" stroke="#000000" points="112.5,-.5 112.5,-19.5 178.5,-19.5 178.5,-.5 112.5,-.5"/>
<text text-anchor="middle" x="145.5" y="-7.5" font-family="Helvetica,sans-Serif" font-size="10.00" fill="#000000">MRG31k3p</text>
</a>
</g>
</g>
<!-- Node7 -->
<g id="node2" class="node">
<title>Node7</title>
<g id="a_node2"><a xlink:href="classumontreal_1_1ssj_1_1rng_1_1RandomStreamBase.html" target="_top" xlink:title="This class provides a convenient foundation on which RNGs can be built.">
<polygon fill="none" stroke="#000000" points="92,-56.5 92,-75.5 199,-75.5 199,-56.5 92,-56.5"/>
<text text-anchor="middle" x="145.5" y="-63.5" font-family="Helvetica,sans-Serif" font-size="10.00" fill="#000000">RandomStreamBase</text>
</a>
</g>
</g>
<!-- Node7&#45;&gt;Node6 -->
<g id="edge1" class="edge">
<title>Node7&#45;&gt;Node6</title>
<path fill="none" stroke="#191970" d="M145.5,-46.1575C145.5,-37.155 145.5,-26.9199 145.5,-19.6427"/>
<polygon fill="#191970" stroke="#191970" points="142.0001,-46.2455 145.5,-56.2455 149.0001,-46.2456 142.0001,-46.2455"/>
</g>
<!-- Node8 -->
<g id="node3" class="node">
<title>Node8</title>
<g id="a_node3"><a xlink:href="interfaceumontreal_1_1ssj_1_1rng_1_1CloneableRandomStream.html" target="_top" xlink:title="CloneableRandomStream extends RandomStream and Cloneable.">
<polygon fill="none" stroke="#000000" points="23.5,-112.5 23.5,-131.5 151.5,-131.5 151.5,-112.5 23.5,-112.5"/>
<text text-anchor="middle" x="87.5" y="-119.5" font-family="Helvetica,sans-Serif" font-size="10.00" fill="#000000">CloneableRandomStream</text>
</a>
</g>
</g>
<!-- Node8&#45;&gt;Node7 -->
<g id="edge2" class="edge">
<title>Node8&#45;&gt;Node7</title>
<path fill="none" stroke="#191970" d="M105.0293,-105.0751C115.0083,-95.4402 127.1476,-83.7196 135.5129,-75.6427"/>
<polygon fill="#191970" stroke="#191970" points="102.3658,-102.7817 97.6028,-112.2455 107.228,-107.8175 102.3658,-102.7817"/>
</g>
<!-- Node9 -->
<g id="node4" class="node">
<title>Node9</title>
<g id="a_node4"><a xlink:href="interfaceumontreal_1_1ssj_1_1rng_1_1RandomStream.html" target="_top" xlink:title="This interface defines the basic structures to handle multiple streams of uniform (pseudo)random numb...">
<polygon fill="none" stroke="#000000" points="0,-168.5 0,-187.5 85,-187.5 85,-168.5 0,-168.5"/>
<text text-anchor="middle" x="42.5" y="-175.5" font-family="Helvetica,sans-Serif" font-size="10.00" fill="#000000">RandomStream</text>
</a>
</g>
</g>
<!-- Node9&#45;&gt;Node8 -->
<g id="edge3" class="edge">
<title>Node9&#45;&gt;Node8</title>
<path fill="none" stroke="#191970" d="M56.7946,-160.2112C64.3996,-150.7472 73.4538,-139.4797 79.7514,-131.6427"/>
<polygon fill="#191970" stroke="#191970" points="53.8741,-158.2581 50.3384,-168.2455 59.3306,-162.6428 53.8741,-158.2581"/>
</g>
<!-- Node10 -->
<g id="node5" class="node">
<title>Node10</title>
<g id="a_node5"><a xlink:title=" ">
<polygon fill="none" stroke="#bfbfbf" points="103.5,-168.5 103.5,-187.5 163.5,-187.5 163.5,-168.5 103.5,-168.5"/>
<text text-anchor="middle" x="133.5" y="-175.5" font-family="Helvetica,sans-Serif" font-size="10.00" fill="#000000">Cloneable</text>
</a>
</g>
</g>
<!-- Node10&#45;&gt;Node8 -->
<g id="edge4" class="edge">
<title>Node10&#45;&gt;Node8</title>
<path fill="none" stroke="#191970" d="M119.1253,-160.5004C111.3029,-150.9775 101.924,-139.5596 95.4208,-131.6427"/>
<polygon fill="#191970" stroke="#191970" points="116.4354,-162.7399 125.4874,-168.2455 121.8445,-158.2967 116.4354,-162.7399"/>
</g>
<!-- Node11 -->
<g id="node6" class="node">
<title>Node11</title>
<g id="a_node6"><a xlink:title=" ">
<polygon fill="none" stroke="#bfbfbf" points="170,-112.5 170,-131.5 237,-131.5 237,-112.5 170,-112.5"/>
<text text-anchor="middle" x="203.5" y="-119.5" font-family="Helvetica,sans-Serif" font-size="10.00" fill="#000000">Serializable</text>
</a>
</g>
</g>
<!-- Node11&#45;&gt;Node7 -->
<g id="edge5" class="edge">
<title>Node11&#45;&gt;Node7</title>
<path fill="none" stroke="#191970" d="M185.9707,-105.0751C175.9917,-95.4402 163.8524,-83.7196 155.4871,-75.6427"/>
<polygon fill="#191970" stroke="#191970" points="183.772,-107.8175 193.3972,-112.2455 188.6342,-102.7817 183.772,-107.8175"/>
</g>
</g>
</svg>
