<?xml version="1.0" encoding="UTF-8" standalone="no"?>
<!DOCTYPE svg PUBLIC "-//W3C//DTD SVG 1.1//EN"
 "http://www.w3.org/Graphics/SVG/1.1/DTD/svg11.dtd">
<!-- Generated by graphviz version 2.40.1 (20161225.0304)
 -->
<!-- Title: SobolSequence Pages: 1 -->
<svg width="124pt" height="323pt"
 viewBox="0.00 0.00 124.00 323.00" xmlns="http://www.w3.org/2000/svg" xmlns:xlink="http://www.w3.org/1999/xlink">
<g id="graph0" class="graph" transform="scale(1 1) rotate(0) translate(4 319)">
<title>SobolSequence</title>
<!-- Node5 -->
<g id="node1" class="node">
<title>Node5</title>
<polygon fill="#bfbfbf" stroke="#000000" points="15.5,-.5 15.5,-19.5 100.5,-19.5 100.5,-.5 15.5,-.5"/>
<text text-anchor="middle" x="58" y="-7.5" font-family="Helvetica,sans-Serif" font-size="10.00" fill="#000000">SobolSequence</text>
</g>
<!-- Node6 -->
<g id="node2" class="node">
<title>Node6</title>
<g id="a_node2"><a xlink:href="classumontreal_1_1ssj_1_1hups_1_1DigitalSequenceBase2.html" target="_top" xlink:title="This abstract class describes methods specific to digital sequences in base 2. ">
<polygon fill="none" stroke="#000000" points="0,-57.5 0,-76.5 116,-76.5 116,-57.5 0,-57.5"/>
<text text-anchor="middle" x="58" y="-64.5" font-family="Helvetica,sans-Serif" font-size="10.00" fill="#000000">DigitalSequenceBase2</text>
</a>
</g>
</g>
<!-- Node6&#45;&gt;Node5 -->
<g id="edge1" class="edge">
<title>Node6&#45;&gt;Node5</title>
<path fill="none" stroke="#191970" d="M58,-47.2342C58,-37.8491 58,-27.0651 58,-19.5265"/>
<polygon fill="#191970" stroke="#191970" points="54.5001,-47.3307 58,-57.3307 61.5001,-47.3308 54.5001,-47.3307"/>
</g>
<!-- Node7 -->
<g id="node3" class="node">
<title>Node7</title>
<g id="a_node3"><a xlink:href="classumontreal_1_1ssj_1_1hups_1_1DigitalNetBase2.html" target="_top" xlink:title="A special case of DigitalNet for the base . ">
<polygon fill="none" stroke="#000000" points="14,-114.5 14,-133.5 102,-133.5 102,-114.5 14,-114.5"/>
<text text-anchor="middle" x="58" y="-121.5" font-family="Helvetica,sans-Serif" font-size="10.00" fill="#000000">DigitalNetBase2</text>
</a>
</g>
</g>
<!-- Node7&#45;&gt;Node6 -->
<g id="edge2" class="edge">
<title>Node7&#45;&gt;Node6</title>
<path fill="none" stroke="#191970" d="M58,-104.2342C58,-94.8491 58,-84.0651 58,-76.5265"/>
<polygon fill="#191970" stroke="#191970" points="54.5001,-104.3307 58,-114.3307 61.5001,-104.3308 54.5001,-104.3307"/>
</g>
<!-- Node8 -->
<g id="node4" class="node">
<title>Node8</title>
<g id="a_node4"><a xlink:href="classumontreal_1_1ssj_1_1hups_1_1DigitalNet.html" target="_top" xlink:title="This class provides the basic structures for storing and manipulating linear digital nets in base ...">
<polygon fill="none" stroke="#000000" points="28,-171.5 28,-190.5 88,-190.5 88,-171.5 28,-171.5"/>
<text text-anchor="middle" x="58" y="-178.5" font-family="Helvetica,sans-Serif" font-size="10.00" fill="#000000">DigitalNet</text>
</a>
</g>
</g>
<!-- Node8&#45;&gt;Node7 -->
<g id="edge3" class="edge">
<title>Node8&#45;&gt;Node7</title>
<path fill="none" stroke="#191970" d="M58,-161.2342C58,-151.8491 58,-141.0651 58,-133.5265"/>
<polygon fill="#191970" stroke="#191970" points="54.5001,-161.3307 58,-171.3307 61.5001,-161.3308 54.5001,-161.3307"/>
</g>
<!-- Node9 -->
<g id="node5" class="node">
<title>Node9</title>
<g id="a_node5"><a xlink:href="classumontreal_1_1ssj_1_1hups_1_1PointSet.html" target="_top" xlink:title="This abstract class defines the basic methods for accessing and manipulating point sets...">
<polygon fill="none" stroke="#000000" points="31,-228.5 31,-247.5 85,-247.5 85,-228.5 31,-228.5"/>
<text text-anchor="middle" x="58" y="-235.5" font-family="Helvetica,sans-Serif" font-size="10.00" fill="#000000">PointSet</text>
</a>
</g>
</g>
<!-- Node9&#45;&gt;Node8 -->
<g id="edge4" class="edge">
<title>Node9&#45;&gt;Node8</title>
<path fill="none" stroke="#191970" d="M58,-218.2342C58,-208.8491 58,-198.0651 58,-190.5265"/>
<polygon fill="#191970" stroke="#191970" points="54.5001,-218.3307 58,-228.3307 61.5001,-218.3308 54.5001,-218.3307"/>
</g>
<!-- Node10 -->
<g id="node6" class="node">
<title>Node10</title>
<g id="a_node6"><a xlink:href="interfaceumontreal_1_1ssj_1_1rng_1_1RandomStream.html" target="_top" xlink:title="This interface defines the basic structures to handle multiple streams of uniform (pseudo)random numb...">
<polygon fill="none" stroke="#000000" points="15.5,-295.5 15.5,-314.5 100.5,-314.5 100.5,-295.5 15.5,-295.5"/>
<text text-anchor="middle" x="58" y="-302.5" font-family="Helvetica,sans-Serif" font-size="10.00" fill="#000000">RandomStream</text>
</a>
</g>
</g>
<!-- Node10&#45;&gt;Node9 -->
<g id="edge5" class="edge">
<title>Node10&#45;&gt;Node9</title>
<path fill="none" stroke="#9a32cd" stroke-dasharray="5,2" d="M58,-285.1079C58,-272.714 58,-257.3263 58,-247.5817"/>
<polygon fill="#9a32cd" stroke="#9a32cd" points="54.5001,-285.4005 58,-295.4005 61.5001,-285.4006 54.5001,-285.4005"/>
<text text-anchor="middle" x="85" y="-269" font-family="Helvetica,sans-Serif" font-size="10.00" fill="#000000"> shiftStream</text>
</g>
</g>
</svg>
