<?xml version="1.0" encoding="UTF-8" standalone="no"?>
<!DOCTYPE svg PUBLIC "-//W3C//DTD SVG 1.1//EN"
 "http://www.w3.org/Graphics/SVG/1.1/DTD/svg11.dtd">
<!-- Generated by graphviz version 2.40.1 (0)
 -->
<!-- Title: ArrayOfDoubleChains Pages: 1 -->
<svg width="380pt" height="365pt"
 viewBox="0.00 0.00 380.00 365.00" xmlns="http://www.w3.org/2000/svg" xmlns:xlink="http://www.w3.org/1999/xlink">
<g id="graph0" class="graph" transform="scale(1 1) rotate(0) translate(4 361)">
<title>ArrayOfDoubleChains</title>
<!-- Node2 -->
<g id="node1" class="node">
<title>Node2</title>
<g id="a_node1"><a xlink:title="Similar to ArrayOfComparableChains, except that instead of working with &#160;clones of a MarkovChain,...">
<polygon fill="#bfbfbf" stroke="#000000" points="121.5,-.5 121.5,-19.5 233.5,-19.5 233.5,-.5 121.5,-.5"/>
<text text-anchor="middle" x="177.5" y="-7.5" font-family="Helvetica,sans-Serif" font-size="10.00" fill="#000000">ArrayOfDoubleChains</text>
</a>
</g>
</g>
<!-- Node3 -->
<g id="node2" class="node">
<title>Node3</title>
<g id="a_node2"><a xlink:href="classumontreal_1_1ssj_1_1markovchainrqmc_1_1ArrayOfComparableChains.html" target="_top" xlink:title="This class provides tools to simulate an array of MarkovChainComparable objects with the array&#45;RQMC m...">
<polygon fill="none" stroke="#000000" points="0,-67.5 0,-97.5 191,-97.5 191,-67.5 0,-67.5"/>
<text text-anchor="start" x="8" y="-85.5" font-family="Helvetica,sans-Serif" font-size="10.00" fill="#000000">ArrayOfComparableChains</text>
<text text-anchor="middle" x="95.5" y="-74.5" font-family="Helvetica,sans-Serif" font-size="10.00" fill="#000000">&lt; T extends MarkovChainComparable &gt;</text>
</a>
</g>
</g>
<!-- Node3&#45;&gt;Node2 -->
<g id="edge1" class="edge">
<title>Node3&#45;&gt;Node2</title>
<path fill="none" stroke="#191970" d="M120.1256,-60.7274C135.4746,-47.1566 154.4873,-30.3466 166.3077,-19.8957"/>
<polygon fill="#191970" stroke="#191970" points="117.6639,-58.232 112.4905,-67.478 122.3005,-63.4763 117.6639,-58.232"/>
</g>
<!-- Node4 -->
<g id="node3" class="node">
<title>Node4</title>
<g id="a_node3"><a xlink:href="interfaceumontreal_1_1ssj_1_1hups_1_1PointSetRandomization.html" target="_top" xlink:title="This interface is used to randomize a umontreal.ssj.hups.PointSet.">
<polygon fill="none" stroke="#000000" points="36,-145.5 36,-164.5 155,-164.5 155,-145.5 36,-145.5"/>
<text text-anchor="middle" x="95.5" y="-152.5" font-family="Helvetica,sans-Serif" font-size="10.00" fill="#000000">PointSetRandomization</text>
</a>
</g>
</g>
<!-- Node4&#45;&gt;Node3 -->
<g id="edge2" class="edge">
<title>Node4&#45;&gt;Node3</title>
<path fill="none" stroke="#9a32cd" stroke-dasharray="5,2" d="M95.5,-135.0177C95.5,-123.2164 95.5,-108.513 95.5,-97.668"/>
<polygon fill="#9a32cd" stroke="#9a32cd" points="92.0001,-135.2223 95.5,-145.2223 99.0001,-135.2224 92.0001,-135.2223"/>
<text text-anchor="middle" x="127.5" y="-119" font-family="Helvetica,sans-Serif" font-size="10.00" fill="#000000"> randomization</text>
</g>
<!-- Node5 -->
<g id="node4" class="node">
<title>Node5</title>
<g id="a_node4"><a xlink:href="classumontreal_1_1ssj_1_1markovchainrqmc_1_1MarkovChainDouble.html" target="_top" xlink:title="A special kind of Markov chain whose state space is a subset of the real numbers.">
<polygon fill="none" stroke="#000000" points="209,-73 209,-92 314,-92 314,-73 209,-73"/>
<text text-anchor="middle" x="261.5" y="-80" font-family="Helvetica,sans-Serif" font-size="10.00" fill="#000000">MarkovChainDouble</text>
</a>
</g>
</g>
<!-- Node5&#45;&gt;Node2 -->
<g id="edge3" class="edge">
<title>Node5&#45;&gt;Node2</title>
<path fill="none" stroke="#9a32cd" stroke-dasharray="5,2" d="M242.203,-65.8449C225.6225,-51.5343 202.2933,-31.3989 188.6491,-19.6228"/>
<polygon fill="#9a32cd" stroke="#9a32cd" points="240.3142,-68.838 250.1714,-72.7223 244.888,-63.5388 240.3142,-68.838"/>
<text text-anchor="middle" x="247.5" y="-41" font-family="Helvetica,sans-Serif" font-size="10.00" fill="#000000"> baseChain</text>
</g>
<!-- Node6 -->
<g id="node5" class="node">
<title>Node6</title>
<g id="a_node5"><a xlink:href="classumontreal_1_1ssj_1_1markovchainrqmc_1_1MarkovChainComparable.html" target="_top" xlink:title="A subclass of MarkovChain for which there is a total ordering between the states, induced by the impl...">
<polygon fill="none" stroke="#000000" points="198,-145.5 198,-164.5 325,-164.5 325,-145.5 198,-145.5"/>
<text text-anchor="middle" x="261.5" y="-152.5" font-family="Helvetica,sans-Serif" font-size="10.00" fill="#000000">MarkovChainComparable</text>
</a>
</g>
</g>
<!-- Node6&#45;&gt;Node5 -->
<g id="edge4" class="edge">
<title>Node6&#45;&gt;Node5</title>
<path fill="none" stroke="#191970" d="M261.5,-135.1054C261.5,-121.1237 261.5,-103.0346 261.5,-92.1228"/>
<polygon fill="#191970" stroke="#191970" points="258.0001,-135.2223 261.5,-145.2223 265.0001,-135.2224 258.0001,-135.2223"/>
</g>
<!-- Node7 -->
<g id="node6" class="node">
<title>Node7</title>
<g id="a_node6"><a xlink:href="classumontreal_1_1ssj_1_1markovchainrqmc_1_1MarkovChain.html" target="_top" xlink:title="This class defines a generic Markov chain and provides basic tools to simulate it for a given number ...">
<polygon fill="none" stroke="#000000" points="134.5,-208 134.5,-227 208.5,-227 208.5,-208 134.5,-208"/>
<text text-anchor="middle" x="171.5" y="-215" font-family="Helvetica,sans-Serif" font-size="10.00" fill="#000000">MarkovChain</text>
</a>
</g>
</g>
<!-- Node7&#45;&gt;Node6 -->
<g id="edge5" class="edge">
<title>Node7&#45;&gt;Node6</title>
<path fill="none" stroke="#191970" d="M194.229,-201.716C211.0068,-190.0648 233.3074,-174.5782 247.5362,-164.697"/>
<polygon fill="#191970" stroke="#191970" points="191.7798,-199.1556 185.5625,-207.7344 195.7726,-204.9052 191.7798,-199.1556"/>
</g>
<!-- Node8 -->
<g id="node7" class="node">
<title>Node8</title>
<g id="a_node7"><a xlink:title=" ">
<polygon fill="none" stroke="#bfbfbf" points="125.5,-280.5 125.5,-299.5 185.5,-299.5 185.5,-280.5 125.5,-280.5"/>
<text text-anchor="middle" x="155.5" y="-287.5" font-family="Helvetica,sans-Serif" font-size="10.00" fill="#000000">Cloneable</text>
</a>
</g>
</g>
<!-- Node8&#45;&gt;Node7 -->
<g id="edge6" class="edge">
<title>Node8&#45;&gt;Node7</title>
<path fill="none" stroke="#191970" d="M159.8905,-270.1054C162.9762,-256.1237 166.9682,-238.0346 169.3764,-227.1228"/>
<polygon fill="#191970" stroke="#191970" points="156.3952,-269.703 157.6578,-280.2223 163.2307,-271.2116 156.3952,-269.703"/>
</g>
<!-- Node9 -->
<g id="node8" class="node">
<title>Node9</title>
<g id="a_node8"><a xlink:href="classumontreal_1_1ssj_1_1util_1_1Chrono.html" target="_top" xlink:title="The Chrono class extends the umontreal.ssj.util.AbstractChrono class and computes the CPU time for th...">
<polygon fill="none" stroke="#000000" points="203.5,-280.5 203.5,-299.5 251.5,-299.5 251.5,-280.5 203.5,-280.5"/>
<text text-anchor="middle" x="227.5" y="-287.5" font-family="Helvetica,sans-Serif" font-size="10.00" fill="#000000">Chrono</text>
</a>
</g>
</g>
<!-- Node9&#45;&gt;Node7 -->
<g id="edge7" class="edge">
<title>Node9&#45;&gt;Node7</title>
<path fill="none" stroke="#9a32cd" stroke-dasharray="5,2" d="M213.7127,-272.1503C202.7304,-257.9322 187.7785,-238.5748 178.9328,-227.1228"/>
<polygon fill="#9a32cd" stroke="#9a32cd" points="211.0647,-274.4478 219.9476,-280.2223 216.6046,-270.1687 211.0647,-274.4478"/>
<text text-anchor="middle" x="218" y="-254" font-family="Helvetica,sans-Serif" font-size="10.00" fill="#000000"> timer</text>
</g>
<!-- Node10 -->
<g id="node9" class="node">
<title>Node10</title>
<g id="a_node9"><a xlink:href="classumontreal_1_1ssj_1_1util_1_1AbstractChrono.html" target="_top" xlink:title="AbstractChrono is a class that acts as an interface to the system clock and calculates the CPU or sys...">
<polygon fill="none" stroke="#000000" points="185,-337.5 185,-356.5 270,-356.5 270,-337.5 185,-337.5"/>
<text text-anchor="middle" x="227.5" y="-344.5" font-family="Helvetica,sans-Serif" font-size="10.00" fill="#000000">AbstractChrono</text>
</a>
</g>
</g>
<!-- Node10&#45;&gt;Node9 -->
<g id="edge8" class="edge">
<title>Node10&#45;&gt;Node9</title>
<path fill="none" stroke="#191970" d="M227.5,-327.2342C227.5,-317.8491 227.5,-307.0651 227.5,-299.5265"/>
<polygon fill="#191970" stroke="#191970" points="224.0001,-327.3307 227.5,-337.3307 231.0001,-327.3308 224.0001,-327.3307"/>
</g>
<!-- Node11 -->
<g id="node10" class="node">
<title>Node11</title>
<g id="a_node10"><a xlink:href="interfaceumontreal_1_1ssj_1_1util_1_1sort_1_1MultiDimComparable.html" target="_top" xlink:title="This interface is an extension (or variant) of the Comparable interface in Java.">
<polygon fill="none" stroke="#000000" points="227,-202.5 227,-232.5 372,-232.5 372,-202.5 227,-202.5"/>
<text text-anchor="start" x="235" y="-220.5" font-family="Helvetica,sans-Serif" font-size="10.00" fill="#000000">MultiDimComparable</text>
<text text-anchor="middle" x="299.5" y="-209.5" font-family="Helvetica,sans-Serif" font-size="10.00" fill="#000000">&lt; MarkovChainComparable &gt;</text>
</a>
</g>
</g>
<!-- Node11&#45;&gt;Node6 -->
<g id="edge9" class="edge">
<title>Node11&#45;&gt;Node6</title>
<path fill="none" stroke="#191970" d="M284.9588,-193.5836C278.8577,-183.5489 272.1065,-172.4449 267.4192,-164.7356"/>
<polygon fill="#191970" stroke="#191970" points="282.1155,-195.6442 290.3013,-202.3705 288.0967,-192.0075 282.1155,-195.6442"/>
</g>
</g>
</svg>
