<?xml version="1.0" encoding="UTF-8" standalone="no"?>
<!DOCTYPE svg PUBLIC "-//W3C//DTD SVG 1.1//EN"
 "http://www.w3.org/Graphics/SVG/1.1/DTD/svg11.dtd">
<!-- Generated by graphviz version 2.40.1 (20161225.0304)
 -->
<!-- Title: DigitalNet Pages: 1 -->
<!--zoomable 230 -->
<svg id="main" version="1.1" xmlns="http://www.w3.org/2000/svg" xmlns:xlink="http://www.w3.org/1999/xlink" xml:space="preserve" onload="init(evt)">
<style type="text/css"><![CDATA[
.edge:hover path { stroke: red; }
.edge:hover polygon { stroke: red; fill: red; }
]]></style>
<script type="text/javascript"><![CDATA[
var edges = document.getElementsByTagName('g');
if (edges && edges.length) {
  for (var i=0;i<edges.length;i++) {
    if (edges[i].id.substr(0,4)=='edge') {
      edges[i].setAttribute('class','edge');
    }
  }
}
]]></script>
        <defs>
                <circle id="rim" cx="0" cy="0" r="7"/>
                <circle id="rim2" cx="0" cy="0" r="3.5"/>
                <g id="zoomPlus">
                        <use xlink:href="#rim" fill="#404040">
                                <set attributeName="fill" to="#808080" begin="zoomplus.mouseover" end="zoomplus.mouseout"/>
                        </use>
                        <path d="M-4,0h8M0,-4v8" fill="none" stroke="white" stroke-width="1.5" pointer-events="none"/>
                </g>
                <g id="zoomMin">
                        <use xlink:href="#rim" fill="#404040">
                                <set attributeName="fill" to="#808080" begin="zoomminus.mouseover" end="zoomminus.mouseout"/>
                        </use>
                        <path d="M-4,0h8" fill="none" stroke="white" stroke-width="1.5" pointer-events="none"/>
                </g>
                <g id="dirArrow">
                        <path fill="none" stroke="white" stroke-width="1.5" d="M0,-3.0v7 M-2.5,-0.5L0,-3.0L2.5,-0.5"/>
                </g>
               <g id="resetDef">
                       <use xlink:href="#rim2" fill="#404040">
                               <set attributeName="fill" to="#808080" begin="reset.mouseover" end="reset.mouseout"/>
                       </use>
               </g>
        </defs>

<script type="text/javascript">
var viewWidth = 634;
var viewHeight = 230;
var sectionId = 'dynsection-0';
</script>
<script xlink:href="svgpan.js"/>
<svg id="graph" class="graph">
<g id="viewport">
<title>DigitalNet</title>
<!-- Node0 -->
<g id="node1" class="node">
<title>Node0</title>
<polygon fill="#bfbfbf" stroke="#000000" points="90,-66.5 90,-85.5 150,-85.5 150,-66.5 90,-66.5"/>
<text text-anchor="middle" x="120" y="-73.5" font-family="Helvetica,sans-Serif" font-size="10.00" fill="#000000">DigitalNet</text>
</g>
<!-- Node2 -->
<g id="node3" class="node">
<title>Node2</title>
<g id="a_node3"><a xlink:href="classumontreal_1_1ssj_1_1hups_1_1DigitalNetBase2.html" target="_top" xlink:title="A special case of DigitalNet for the base . ">
<polygon fill="none" stroke="#000000" points="191,-107.5 191,-126.5 279,-126.5 279,-107.5 191,-107.5"/>
<text text-anchor="middle" x="235" y="-114.5" font-family="Helvetica,sans-Serif" font-size="10.00" fill="#000000">DigitalNetBase2</text>
</a>
</g>
</g>
<!-- Node0&#45;&gt;Node2 -->
<g id="edge2" class="edge">
<title>Node0&#45;&gt;Node2</title>
<path fill="none" stroke="#191970" d="M156.1836,-88.9002C172.9823,-94.8893 192.6086,-101.8865 208.0739,-107.4003"/>
<polygon fill="#191970" stroke="#191970" points="157.267,-85.5708 146.6724,-85.5093 154.9163,-92.1643 157.267,-85.5708"/>
</g>
<!-- Node11 -->
<g id="node12" class="node">
<title>Node11</title>
<g id="a_node12"><a xlink:href="classumontreal_1_1ssj_1_1hups_1_1DigitalNetFromFile.html" target="_top" xlink:title="This class allows us to read the parameters defining a digital net either from a file, or from a URL address on the World Wide Web. ">
<polygon fill="none" stroke="#000000" points="186,-66.5 186,-85.5 284,-85.5 284,-66.5 186,-66.5"/>
<text text-anchor="middle" x="235" y="-73.5" font-family="Helvetica,sans-Serif" font-size="10.00" fill="#000000">DigitalNetFromFile</text>
</a>
</g>
</g>
<!-- Node0&#45;&gt;Node11 -->
<g id="edge11" class="edge">
<title>Node0&#45;&gt;Node11</title>
<path fill="none" stroke="#191970" d="M160.3285,-76C168.5779,-76 177.3465,-76 185.8648,-76"/>
<polygon fill="#191970" stroke="#191970" points="160.2149,-72.5001 150.2149,-76 160.2149,-79.5001 160.2149,-72.5001"/>
</g>
<!-- Node12 -->
<g id="node13" class="node">
<title>Node12</title>
<g id="a_node13"><a xlink:href="classumontreal_1_1ssj_1_1hups_1_1DigitalSequence.html" target="_top" xlink:title="This abstract class describes methods specific to digital sequences. ">
<polygon fill="none" stroke="#000000" points="191,-22.5 191,-41.5 279,-41.5 279,-22.5 191,-22.5"/>
<text text-anchor="middle" x="235" y="-29.5" font-family="Helvetica,sans-Serif" font-size="10.00" fill="#000000">DigitalSequence</text>
</a>
</g>
</g>
<!-- Node0&#45;&gt;Node12 -->
<g id="edge12" class="edge">
<title>Node0&#45;&gt;Node12</title>
<path fill="none" stroke="#191970" d="M154.4732,-62.8103C172.3694,-55.963 193.8304,-47.7519 210.0954,-41.5287"/>
<polygon fill="#191970" stroke="#191970" points="153.0423,-59.6102 144.9533,-66.4527 155.5437,-66.148 153.0423,-59.6102"/>
</g>
<!-- Node1 -->
<g id="node2" class="node">
<title>Node1</title>
<g id="a_node2"><a xlink:href="classumontreal_1_1ssj_1_1hups_1_1PointSet.html" target="_top" xlink:title="This abstract class defines the basic methods for accessing and manipulating point sets...">
<polygon fill="none" stroke="#000000" points="0,-66.5 0,-85.5 54,-85.5 54,-66.5 0,-66.5"/>
<text text-anchor="middle" x="27" y="-73.5" font-family="Helvetica,sans-Serif" font-size="10.00" fill="#000000">PointSet</text>
</a>
</g>
</g>
<!-- Node1&#45;&gt;Node0 -->
<g id="edge1" class="edge">
<title>Node1&#45;&gt;Node0</title>
<path fill="none" stroke="#191970" d="M64.4294,-76C72.8858,-76 81.7587,-76 89.8698,-76"/>
<polygon fill="#191970" stroke="#191970" points="64.4001,-72.5001 54.4001,-76 64.4,-79.5001 64.4001,-72.5001"/>
</g>
<!-- Node3 -->
<g id="node4" class="node">
<title>Node3</title>
<g id="a_node4"><a xlink:href="classumontreal_1_1ssj_1_1hups_1_1DigitalNetBase2FromFile.html" target="_top" xlink:title="This class allows us to read the parameters defining a digital net in base 2 either from a file...">
<polygon fill="none" stroke="#000000" points="328,-202.5 328,-221.5 454,-221.5 454,-202.5 328,-202.5"/>
<text text-anchor="middle" x="391" y="-209.5" font-family="Helvetica,sans-Serif" font-size="10.00" fill="#000000">DigitalNetBase2FromFile</text>
</a>
</g>
</g>
<!-- Node2&#45;&gt;Node3 -->
<g id="edge3" class="edge">
<title>Node2&#45;&gt;Node3</title>
<path fill="none" stroke="#191970" d="M249.9326,-134.4656C265.6689,-151.7895 292.0143,-177.8738 320,-193 327.072,-196.8224 334.9631,-199.9141 342.842,-202.4033"/>
<polygon fill="#191970" stroke="#191970" points="252.3498,-131.9159 243.099,-126.7512 247.1099,-136.5575 252.3498,-131.9159"/>
</g>
<!-- Node4 -->
<g id="node5" class="node">
<title>Node4</title>
<g id="a_node5"><a xlink:href="classumontreal_1_1ssj_1_1hups_1_1DigitalSequenceBase2.html" target="_top" xlink:title="This abstract class describes methods specific to digital sequences in base 2. ">
<polygon fill="none" stroke="#000000" points="333,-164.5 333,-183.5 449,-183.5 449,-164.5 333,-164.5"/>
<text text-anchor="middle" x="391" y="-171.5" font-family="Helvetica,sans-Serif" font-size="10.00" fill="#000000">DigitalSequenceBase2</text>
</a>
</g>
</g>
<!-- Node2&#45;&gt;Node4 -->
<g id="edge4" class="edge">
<title>Node2&#45;&gt;Node4</title>
<path fill="none" stroke="#191970" d="M263.2359,-130.9822C279.5616,-138.7206 300.6432,-148.1323 320,-155 329.861,-158.4987 340.6894,-161.7054 350.8538,-164.4483"/>
<polygon fill="#191970" stroke="#191970" points="264.7515,-127.8274 254.2221,-126.6512 261.7198,-134.1369 264.7515,-127.8274"/>
</g>
<!-- Node8 -->
<g id="node9" class="node">
<title>Node8</title>
<g id="a_node9"><a xlink:href="classumontreal_1_1ssj_1_1hups_1_1F2wNetLFSR.html" target="_top" xlink:title="This class implements a digital net in base 2 starting from a linear feedback shift register generato...">
<polygon fill="none" stroke="#000000" points="352.5,-126.5 352.5,-145.5 429.5,-145.5 429.5,-126.5 352.5,-126.5"/>
<text text-anchor="middle" x="391" y="-133.5" font-family="Helvetica,sans-Serif" font-size="10.00" fill="#000000">F2wNetLFSR</text>
</a>
</g>
</g>
<!-- Node2&#45;&gt;Node8 -->
<g id="edge8" class="edge">
<title>Node2&#45;&gt;Node8</title>
<path fill="none" stroke="#191970" d="M289.2738,-123.6103C310.0872,-126.1452 333.3915,-128.9836 352.4382,-131.3034"/>
<polygon fill="#191970" stroke="#191970" points="289.6359,-120.1286 279.2861,-122.3938 288.7895,-127.0772 289.6359,-120.1286"/>
</g>
<!-- Node9 -->
<g id="node10" class="node">
<title>Node9</title>
<g id="a_node10"><a xlink:href="classumontreal_1_1ssj_1_1hups_1_1F2wNetPolyLCG.html" target="_top" xlink:title="This class implements a digital net in base 2 starting from a polynomial LCG in . ...">
<polygon fill="none" stroke="#000000" points="346,-88.5 346,-107.5 436,-107.5 436,-88.5 346,-88.5"/>
<text text-anchor="middle" x="391" y="-95.5" font-family="Helvetica,sans-Serif" font-size="10.00" fill="#000000">F2wNetPolyLCG</text>
</a>
</g>
</g>
<!-- Node2&#45;&gt;Node9 -->
<g id="edge9" class="edge">
<title>Node2&#45;&gt;Node9</title>
<path fill="none" stroke="#191970" d="M289.3004,-110.3865C307.7416,-108.1404 328.1357,-105.6565 345.79,-103.5064"/>
<polygon fill="#191970" stroke="#191970" points="288.7895,-106.9228 279.2861,-111.6062 289.6359,-113.8714 288.7895,-106.9228"/>
</g>
<!-- Node10 -->
<g id="node11" class="node">
<title>Node10</title>
<g id="a_node11"><a xlink:href="classumontreal_1_1ssj_1_1latnetbuilder_1_1DigitalNetSearch_1_1DigitalNetBase2FromLatNetBuilder.html" target="_top" xlink:title="Class for the construction od digital nets. ">
<polygon fill="none" stroke="#000000" points="320,-39 320,-69 462,-69 462,-39 320,-39"/>
<text text-anchor="start" x="328" y="-57" font-family="Helvetica,sans-Serif" font-size="10.00" fill="#000000">DigitalNetSearch.Digital</text>
<text text-anchor="middle" x="391" y="-46" font-family="Helvetica,sans-Serif" font-size="10.00" fill="#000000">NetBase2FromLatNetBuilder</text>
</a>
</g>
</g>
<!-- Node2&#45;&gt;Node10 -->
<g id="edge10" class="edge">
<title>Node2&#45;&gt;Node10</title>
<path fill="none" stroke="#191970" d="M265.476,-103.3051C288.71,-92.8758 317.1958,-80.1184 320,-79 328.4969,-75.6113 337.6557,-72.2066 346.4789,-69.048"/>
<polygon fill="#191970" stroke="#191970" points="263.9413,-100.1575 256.2525,-107.4467 266.8088,-106.5432 263.9413,-100.1575"/>
</g>
<!-- Node5 -->
<g id="node6" class="node">
<title>Node5</title>
<g id="a_node6"><a xlink:href="classumontreal_1_1ssj_1_1hups_1_1NiedSequenceBase2.html" target="_top" xlink:title="This class implements digital sequences constructed from the Niederreiter sequence in base 2...">
<polygon fill="none" stroke="#000000" points="508,-202.5 508,-221.5 616,-221.5 616,-202.5 508,-202.5"/>
<text text-anchor="middle" x="562" y="-209.5" font-family="Helvetica,sans-Serif" font-size="10.00" fill="#000000">NiedSequenceBase2</text>
</a>
</g>
</g>
<!-- Node4&#45;&gt;Node5 -->
<g id="edge5" class="edge">
<title>Node4&#45;&gt;Node5</title>
<path fill="none" stroke="#191970" d="M444.2092,-185.8243C468.3172,-191.1816 496.4401,-197.4311 519.1598,-202.4799"/>
<polygon fill="#191970" stroke="#191970" points="444.6717,-182.3417 434.1505,-183.589 443.1531,-189.175 444.6717,-182.3417"/>
</g>
<!-- Node6 -->
<g id="node7" class="node">
<title>Node6</title>
<g id="a_node7"><a xlink:href="classumontreal_1_1ssj_1_1hups_1_1NiedXingSequenceBase2.html" target="_top" xlink:title="This class implements digital sequences based on the Niederreiter&#45;Xing sequence in base 2...">
<polygon fill="none" stroke="#000000" points="498,-164.5 498,-183.5 626,-183.5 626,-164.5 498,-164.5"/>
<text text-anchor="middle" x="562" y="-171.5" font-family="Helvetica,sans-Serif" font-size="10.00" fill="#000000">NiedXingSequenceBase2</text>
</a>
</g>
</g>
<!-- Node4&#45;&gt;Node6 -->
<g id="edge6" class="edge">
<title>Node4&#45;&gt;Node6</title>
<path fill="none" stroke="#191970" d="M459.3842,-174C472.0381,-174 485.2135,-174 497.7395,-174"/>
<polygon fill="#191970" stroke="#191970" points="459.3703,-170.5001 449.3702,-174 459.3702,-177.5001 459.3703,-170.5001"/>
</g>
<!-- Node7 -->
<g id="node8" class="node">
<title>Node7</title>
<g id="a_node8"><a xlink:href="classumontreal_1_1ssj_1_1hups_1_1SobolSequence.html" target="_top" xlink:title="This class implements digital nets or digital sequences in base 2 formed by the first &#160;points of a So...">
<polygon fill="none" stroke="#000000" points="519.5,-126.5 519.5,-145.5 604.5,-145.5 604.5,-126.5 519.5,-126.5"/>
<text text-anchor="middle" x="562" y="-133.5" font-family="Helvetica,sans-Serif" font-size="10.00" fill="#000000">SobolSequence</text>
</a>
</g>
</g>
<!-- Node4&#45;&gt;Node7 -->
<g id="edge7" class="edge">
<title>Node4&#45;&gt;Node7</title>
<path fill="none" stroke="#191970" d="M443.9246,-162.239C468.2002,-156.8444 496.5953,-150.5344 519.4556,-145.4543"/>
<polygon fill="#191970" stroke="#191970" points="443.1531,-158.825 434.1505,-164.411 444.6717,-165.6583 443.1531,-158.825"/>
</g>
<!-- Node13 -->
<g id="node14" class="node">
<title>Node13</title>
<g id="a_node14"><a xlink:href="classumontreal_1_1ssj_1_1hups_1_1FaureSequence.html" target="_top" xlink:title="This class implements digital nets or digital sequences formed by the first &#160;points of the Faure sequ...">
<polygon fill="none" stroke="#000000" points="348.5,-.5 348.5,-19.5 433.5,-19.5 433.5,-.5 348.5,-.5"/>
<text text-anchor="middle" x="391" y="-7.5" font-family="Helvetica,sans-Serif" font-size="10.00" fill="#000000">FaureSequence</text>
</a>
</g>
</g>
<!-- Node12&#45;&gt;Node13 -->
<g id="edge13" class="edge">
<title>Node12&#45;&gt;Node13</title>
<path fill="none" stroke="#191970" d="M289.2095,-24.3551C308.6204,-21.6176 330.205,-18.5736 348.485,-15.9957"/>
<polygon fill="#191970" stroke="#191970" points="288.6993,-20.8923 279.2861,-25.7545 289.6769,-27.8237 288.6993,-20.8923"/>
</g>
</g>
</svg>
        <g id="navigator" transform="translate(0 0)" fill="#404254">
                <rect fill="#f2f5e9" fill-opacity="0.5" stroke="#606060" stroke-width=".5" x="0" y="0" width="60" height="60"/>
                <use id="zoomplus" xlink:href="#zoomPlus" x="17" y="9" onmousedown="handleZoom(evt,'in')"/>
                <use id="zoomminus" xlink:href="#zoomMin" x="42" y="9" onmousedown="handleZoom(evt,'out')"/>
                <use id="reset" xlink:href="#resetDef" x="30" y="36" onmousedown="handleReset()"/>
                <g id="arrowUp" xlink:href="#dirArrow" transform="translate(30 24)" onmousedown="handlePan(0,-1)">
                  <use xlink:href="#rim" fill="#404040">
                        <set attributeName="fill" to="#808080" begin="arrowUp.mouseover" end="arrowUp.mouseout"/>
                  </use>
                  <path fill="none" stroke="white" stroke-width="1.5" d="M0,-3.0v7 M-2.5,-0.5L0,-3.0L2.5,-0.5"/>
                </g>
                <g id="arrowRight" xlink:href="#dirArrow" transform="rotate(90) translate(36 -43)" onmousedown="handlePan(1,0)">
                  <use xlink:href="#rim" fill="#404040">
                        <set attributeName="fill" to="#808080" begin="arrowRight.mouseover" end="arrowRight.mouseout"/>
                  </use>
                  <path fill="none" stroke="white" stroke-width="1.5" d="M0,-3.0v7 M-2.5,-0.5L0,-3.0L2.5,-0.5"/>
                </g>
                <g id="arrowDown" xlink:href="#dirArrow" transform="rotate(180) translate(-30 -48)" onmousedown="handlePan(0,1)">
                  <use xlink:href="#rim" fill="#404040">
                        <set attributeName="fill" to="#808080" begin="arrowDown.mouseover" end="arrowDown.mouseout"/>
                  </use>
                  <path fill="none" stroke="white" stroke-width="1.5" d="M0,-3.0v7 M-2.5,-0.5L0,-3.0L2.5,-0.5"/>
                </g>
                <g id="arrowLeft" xlink:href="#dirArrow" transform="rotate(270) translate(-36 17)" onmousedown="handlePan(-1,0)">
                  <use xlink:href="#rim" fill="#404040">
                        <set attributeName="fill" to="#808080" begin="arrowLeft.mouseover" end="arrowLeft.mouseout"/>
                  </use>
                  <path fill="none" stroke="white" stroke-width="1.5" d="M0,-3.0v7 M-2.5,-0.5L0,-3.0L2.5,-0.5"/>
                </g>
        </g>
        <svg viewBox="0 0 15 15" width="100%" height="30px" preserveAspectRatio="xMaxYMin meet">
         <g id="arrow_out" transform="scale(0.3 0.3)">
          <a xlink:href="classumontreal_1_1ssj_1_1hups_1_1DigitalNet__inherit__graph_org.svg" target="_base">
           <rect id="button" ry="5" rx="5" y="6" x="6" height="38" width="38"
                fill="#f2f5e9" fill-opacity="0.5" stroke="#606060" stroke-width="1.0"/>
           <path id="arrow"
             d="M 11.500037,31.436501 C 11.940474,20.09759 22.043105,11.32322 32.158766,21.979434 L 37.068811,17.246167 C 37.068811,17.246167 37.088388,32 37.088388,32 L 22.160133,31.978069 C 22.160133,31.978069 26.997745,27.140456 26.997745,27.140456 C 18.528582,18.264221 13.291696,25.230495 11.500037,31.436501 z"
             style="fill:#404040;"/>
          </a>
         </g>
        </svg>
</svg>
