<?xml version="1.0" encoding="UTF-8" standalone="no"?>
<!DOCTYPE svg PUBLIC "-//W3C//DTD SVG 1.1//EN"
 "http://www.w3.org/Graphics/SVG/1.1/DTD/svg11.dtd">
<!-- Generated by graphviz version 2.38.0 (20140413.2041)
 -->
<!-- Title: MultivariateGeometricBrownianMotion Pages: 1 -->
<svg width="535pt" height="308pt"
 viewBox="0.00 0.00 534.50 308.00" xmlns="http://www.w3.org/2000/svg" xmlns:xlink="http://www.w3.org/1999/xlink">
<g id="graph0" class="graph" transform="scale(1 1) rotate(0) translate(4 304)">
<title>MultivariateGeometricBrownianMotion</title>
<!-- Node3 -->
<g id="node1" class="node"><title>Node3</title>
<polygon fill="#bfbfbf" stroke="black" points="182,-0.5 182,-30.5 334,-30.5 334,-0.5 182,-0.5"/>
<text text-anchor="start" x="190" y="-18.5" font-family="Helvetica,sans-Serif" font-size="10.00">MultivariateGeometricBrownian</text>
<text text-anchor="middle" x="258" y="-7.5" font-family="Helvetica,sans-Serif" font-size="10.00">Motion</text>
</g>
<!-- Node4 -->
<g id="node2" class="node"><title>Node4</title>
<g id="a_node2"><a xlink:href="classumontreal_1_1ssj_1_1stochprocess_1_1MultivariateStochasticProcess.html" target="_top" xlink:title="This class is a multivariate version of StochasticProcess where the process evolves in the &#45;dimension...">
<polygon fill="none" stroke="black" points="377.5,-156.5 377.5,-175.5 526.5,-175.5 526.5,-156.5 377.5,-156.5"/>
<text text-anchor="middle" x="452" y="-163.5" font-family="Helvetica,sans-Serif" font-size="10.00">MultivariateStochasticProcess</text>
</a>
</g>
</g>
<!-- Node4&#45;&gt;Node3 -->
<g id="edge1" class="edge"><title>Node4&#45;&gt;Node3</title>
<path fill="none" stroke="midnightblue" d="M439.85,-148.062C432.219,-138.082 421.803,-125.577 411,-116 370.694,-80.2667 316.449,-48.1143 284.553,-30.5445"/>
<polygon fill="midnightblue" stroke="midnightblue" points="437.236,-150.414 446.005,-156.361 442.859,-146.244 437.236,-150.414"/>
</g>
<!-- Node10 -->
<g id="node8" class="node"><title>Node10</title>
<g id="a_node8"><a xlink:href="classumontreal_1_1ssj_1_1stochprocess_1_1MultivariateBrownianMotion.html" target="_top" xlink:title="This class represents a multivariate Brownian motion process , sampled at times . ...">
<polygon fill="none" stroke="black" points="189.5,-78.5 189.5,-97.5 326.5,-97.5 326.5,-78.5 189.5,-78.5"/>
<text text-anchor="middle" x="258" y="-85.5" font-family="Helvetica,sans-Serif" font-size="10.00">MultivariateBrownianMotion</text>
</a>
</g>
</g>
<!-- Node4&#45;&gt;Node10 -->
<g id="edge8" class="edge"><title>Node4&#45;&gt;Node10</title>
<path fill="none" stroke="midnightblue" d="M433.364,-150.11C418.801,-139.171 397.634,-124.746 377,-116 357.3,-107.65 334.622,-101.686 314.381,-97.5247"/>
<polygon fill="midnightblue" stroke="midnightblue" points="431.456,-153.059 441.514,-156.389 435.729,-147.514 431.456,-153.059"/>
</g>
<!-- Node5 -->
<g id="node3" class="node"><title>Node5</title>
<g id="a_node3"><a xlink:href="classumontreal_1_1ssj_1_1stochprocess_1_1StochasticProcess.html" target="_top" xlink:title="Abstract base class for a stochastic process &#160;sampled (or observed) at a finite number of time points...">
<polygon fill="none" stroke="black" points="402.5,-213.5 402.5,-232.5 501.5,-232.5 501.5,-213.5 402.5,-213.5"/>
<text text-anchor="middle" x="452" y="-220.5" font-family="Helvetica,sans-Serif" font-size="10.00">StochasticProcess</text>
</a>
</g>
</g>
<!-- Node5&#45;&gt;Node4 -->
<g id="edge2" class="edge"><title>Node5&#45;&gt;Node4</title>
<path fill="none" stroke="midnightblue" d="M452,-203.117C452,-193.817 452,-183.056 452,-175.715"/>
<polygon fill="midnightblue" stroke="midnightblue" points="448.5,-203.406 452,-213.406 455.5,-203.406 448.5,-203.406"/>
</g>
<!-- Node6 -->
<g id="node4" class="node"><title>Node6</title>
<g id="a_node4"><a xlink:href="classumontreal_1_1ssj_1_1randvar_1_1NormalGen.html" target="_top" xlink:title="This class implements methods for generating random variates from the normal distribution ...">
<polygon fill="none" stroke="black" points="47,-156.5 47,-175.5 113,-175.5 113,-156.5 47,-156.5"/>
<text text-anchor="middle" x="80" y="-163.5" font-family="Helvetica,sans-Serif" font-size="10.00">NormalGen</text>
</a>
</g>
</g>
<!-- Node6&#45;&gt;Node3 -->
<g id="edge3" class="edge"><title>Node6&#45;&gt;Node3</title>
<path fill="none" stroke="#9a32cd" stroke-dasharray="5,2" d="M93.2917,-148.334C108.491,-129.88 134.686,-99.8545 161,-78 183.395,-59.4 211.796,-42.0124 232.068,-30.504"/>
<polygon fill="#9a32cd" stroke="#9a32cd" points="90.529,-146.184 86.941,-156.153 95.9625,-150.597 90.529,-146.184"/>
<text text-anchor="middle" x="170.5" y="-85.5" font-family="Helvetica,sans-Serif" font-size="10.00"> gen</text>
</g>
<!-- Node6&#45;&gt;Node10 -->
<g id="edge10" class="edge"><title>Node6&#45;&gt;Node10</title>
<path fill="none" stroke="#9a32cd" stroke-dasharray="5,2" d="M109.644,-152.343C146.022,-136.811 206.715,-110.897 238.001,-97.5391"/>
<polygon fill="#9a32cd" stroke="#9a32cd" points="107.895,-149.284 100.073,-156.43 110.644,-155.722 107.895,-149.284"/>
<text text-anchor="middle" x="200.5" y="-124.5" font-family="Helvetica,sans-Serif" font-size="10.00"> gen</text>
</g>
<!-- Node7 -->
<g id="node5" class="node"><title>Node7</title>
<g id="a_node5"><a xlink:href="classumontreal_1_1ssj_1_1randvar_1_1RandomVariateGen.html" target="_top" xlink:title="This is the base class for all random variate generators over the real line. ">
<polygon fill="none" stroke="black" points="29,-213.5 29,-232.5 131,-232.5 131,-213.5 29,-213.5"/>
<text text-anchor="middle" x="80" y="-220.5" font-family="Helvetica,sans-Serif" font-size="10.00">RandomVariateGen</text>
</a>
</g>
</g>
<!-- Node7&#45;&gt;Node6 -->
<g id="edge4" class="edge"><title>Node7&#45;&gt;Node6</title>
<path fill="none" stroke="midnightblue" d="M80,-203.117C80,-193.817 80,-183.056 80,-175.715"/>
<polygon fill="midnightblue" stroke="midnightblue" points="76.5001,-203.406 80,-213.406 83.5001,-203.406 76.5001,-203.406"/>
</g>
<!-- Node8 -->
<g id="node6" class="node"><title>Node8</title>
<g id="a_node6"><a xlink:href="interfaceumontreal_1_1ssj_1_1probdist_1_1Distribution.html" target="_top" xlink:title="This interface should be implemented by all classes supporting discrete and continuous distributions...">
<polygon fill="none" stroke="black" points="0,-280.5 0,-299.5 66,-299.5 66,-280.5 0,-280.5"/>
<text text-anchor="middle" x="33" y="-287.5" font-family="Helvetica,sans-Serif" font-size="10.00">Distribution</text>
</a>
</g>
</g>
<!-- Node8&#45;&gt;Node7 -->
<g id="edge5" class="edge"><title>Node8&#45;&gt;Node7</title>
<path fill="none" stroke="#9a32cd" stroke-dasharray="5,2" d="M45.3619,-271.904C54.495,-259.273 66.5478,-242.604 73.7618,-232.627"/>
<polygon fill="#9a32cd" stroke="#9a32cd" points="42.3619,-270.079 39.3386,-280.234 48.0344,-274.181 42.3619,-270.079"/>
<text text-anchor="middle" x="69.5" y="-254" font-family="Helvetica,sans-Serif" font-size="10.00"> dist</text>
</g>
<!-- Node9 -->
<g id="node7" class="node"><title>Node9</title>
<g id="a_node7"><a xlink:href="interfaceumontreal_1_1ssj_1_1rng_1_1RandomStream.html" target="_top" xlink:title="This interface defines the basic structures to handle multiple streams of uniform (pseudo)random numb...">
<polygon fill="none" stroke="black" points="84.5,-280.5 84.5,-299.5 169.5,-299.5 169.5,-280.5 84.5,-280.5"/>
<text text-anchor="middle" x="127" y="-287.5" font-family="Helvetica,sans-Serif" font-size="10.00">RandomStream</text>
</a>
</g>
</g>
<!-- Node9&#45;&gt;Node7 -->
<g id="edge6" class="edge"><title>Node9&#45;&gt;Node7</title>
<path fill="none" stroke="#9a32cd" stroke-dasharray="5,2" d="M114.638,-271.904C105.505,-259.273 93.4522,-242.604 86.2382,-232.627"/>
<polygon fill="#9a32cd" stroke="#9a32cd" points="111.966,-274.181 120.661,-280.234 117.638,-270.079 111.966,-274.181"/>
<text text-anchor="middle" x="124" y="-254" font-family="Helvetica,sans-Serif" font-size="10.00"> stream</text>
</g>
<!-- Node10&#45;&gt;Node3 -->
<g id="edge7" class="edge"><title>Node10&#45;&gt;Node3</title>
<path fill="none" stroke="#9a32cd" stroke-dasharray="5,2" d="M258,-68.2362C258,-56.4079 258,-41.3829 258,-30.5762"/>
<polygon fill="#9a32cd" stroke="#9a32cd" points="254.5,-68.3553 258,-78.3553 261.5,-68.3554 254.5,-68.3553"/>
<text text-anchor="middle" x="270.5" y="-52" font-family="Helvetica,sans-Serif" font-size="10.00"> mbm</text>
</g>
<!-- Node11 -->
<g id="node9" class="node"><title>Node11</title>
<polygon fill="none" stroke="#bfbfbf" points="131.5,-156.5 131.5,-175.5 254.5,-175.5 254.5,-156.5 131.5,-156.5"/>
<text text-anchor="middle" x="193" y="-163.5" font-family="Helvetica,sans-Serif" font-size="10.00">CholeskyDecomposition</text>
</g>
<!-- Node11&#45;&gt;Node10 -->
<g id="edge9" class="edge"><title>Node11&#45;&gt;Node10</title>
<path fill="none" stroke="#9a32cd" stroke-dasharray="5,2" d="M207.161,-148.442C220.546,-132.792 240.101,-109.928 250.631,-97.6165"/>
<polygon fill="#9a32cd" stroke="#9a32cd" points="204.296,-146.407 200.456,-156.282 209.616,-150.957 204.296,-146.407"/>
<text text-anchor="middle" x="253" y="-124.5" font-family="Helvetica,sans-Serif" font-size="10.00"> decomp</text>
</g>
<!-- Node12 -->
<g id="node10" class="node"><title>Node12</title>
<polygon fill="none" stroke="#bfbfbf" points="272.5,-156.5 272.5,-175.5 359.5,-175.5 359.5,-156.5 272.5,-156.5"/>
<text text-anchor="middle" x="316" y="-163.5" font-family="Helvetica,sans-Serif" font-size="10.00">DoubleMatrix2D</text>
</g>
<!-- Node12&#45;&gt;Node10 -->
<g id="edge11" class="edge"><title>Node12&#45;&gt;Node10</title>
<path fill="none" stroke="#9a32cd" stroke-dasharray="5,2" d="M303.031,-148.006C291.098,-132.369 273.884,-109.814 264.576,-97.6165"/>
<polygon fill="#9a32cd" stroke="#9a32cd" points="300.498,-150.456 309.347,-156.282 306.062,-146.209 300.498,-150.456"/>
<text text-anchor="middle" x="333.5" y="-130" font-family="Helvetica,sans-Serif" font-size="10.00"> covZ</text>
<text text-anchor="middle" x="333.5" y="-119" font-family="Helvetica,sans-Serif" font-size="10.00">covZCholDecomp</text>
</g>
</g>
</svg>
