<?xml version="1.0" encoding="UTF-8" standalone="no"?>
<!DOCTYPE svg PUBLIC "-//W3C//DTD SVG 1.1//EN"
 "http://www.w3.org/Graphics/SVG/1.1/DTD/svg11.dtd">
<!-- Generated by graphviz version 2.40.1 (20161225.0304)
 -->
<!-- Title: ContainerPointSet Pages: 1 -->
<svg width="382pt" height="140pt"
 viewBox="0.00 0.00 381.50 140.00" xmlns="http://www.w3.org/2000/svg" xmlns:xlink="http://www.w3.org/1999/xlink">
<g id="graph0" class="graph" transform="scale(1 1) rotate(0) translate(4 136)">
<title>ContainerPointSet</title>
<!-- Node0 -->
<g id="node1" class="node">
<title>Node0</title>
<polygon fill="#bfbfbf" stroke="#000000" points="132.5,-56.5 132.5,-75.5 228.5,-75.5 228.5,-56.5 132.5,-56.5"/>
<text text-anchor="middle" x="180.5" y="-63.5" font-family="Helvetica,sans-Serif" font-size="10.00" fill="#000000">ContainerPointSet</text>
</g>
<!-- Node2 -->
<g id="node3" class="node">
<title>Node2</title>
<g id="a_node3"><a xlink:href="classumontreal_1_1ssj_1_1hups_1_1AntitheticPointSet.html" target="_top" xlink:title="This container class provides antithetic points. ">
<polygon fill="none" stroke="#000000" points="0,-.5 0,-19.5 95,-19.5 95,-.5 0,-.5"/>
<text text-anchor="middle" x="47.5" y="-7.5" font-family="Helvetica,sans-Serif" font-size="10.00" fill="#000000">AntitheticPointSet</text>
</a>
</g>
</g>
<!-- Node0&#45;&gt;Node2 -->
<g id="edge2" class="edge">
<title>Node0&#45;&gt;Node2</title>
<path fill="none" stroke="#191970" d="M148.1603,-52.3833C123.9715,-42.1985 91.505,-28.5284 70.0652,-19.5011"/>
<polygon fill="#191970" stroke="#191970" points="147.0619,-55.7184 157.6365,-56.3733 149.7783,-49.2669 147.0619,-55.7184"/>
</g>
<!-- Node3 -->
<g id="node4" class="node">
<title>Node3</title>
<g id="a_node4"><a xlink:href="classumontreal_1_1ssj_1_1hups_1_1BakerTransformedPointSet.html" target="_top" xlink:title="This container class embodies a point set to which a Baker transformation is applied (see...">
<polygon fill="none" stroke="#000000" points="113.5,-.5 113.5,-19.5 247.5,-19.5 247.5,-.5 113.5,-.5"/>
<text text-anchor="middle" x="180.5" y="-7.5" font-family="Helvetica,sans-Serif" font-size="10.00" fill="#000000">BakerTransformedPointSet</text>
</a>
</g>
</g>
<!-- Node0&#45;&gt;Node3 -->
<g id="edge3" class="edge">
<title>Node0&#45;&gt;Node3</title>
<path fill="none" stroke="#191970" d="M180.5,-46.1575C180.5,-37.155 180.5,-26.9199 180.5,-19.6427"/>
<polygon fill="#191970" stroke="#191970" points="177.0001,-46.2455 180.5,-56.2455 184.0001,-46.2456 177.0001,-46.2455"/>
</g>
<!-- Node4 -->
<g id="node5" class="node">
<title>Node4</title>
<g id="a_node5"><a xlink:href="classumontreal_1_1ssj_1_1hups_1_1RandShiftedPointSet.html" target="_top" xlink:title="RandShiftedPointSet">
<polygon fill="none" stroke="#000000" points="265.5,-.5 265.5,-19.5 373.5,-19.5 373.5,-.5 265.5,-.5"/>
<text text-anchor="middle" x="319.5" y="-7.5" font-family="Helvetica,sans-Serif" font-size="10.00" fill="#000000">RandShiftedPointSet</text>
</a>
</g>
</g>
<!-- Node0&#45;&gt;Node4 -->
<g id="edge4" class="edge">
<title>Node0&#45;&gt;Node4</title>
<path fill="none" stroke="#191970" d="M213.9621,-52.5189C239.2769,-42.3201 273.4103,-28.5685 295.9169,-19.5011"/>
<polygon fill="#191970" stroke="#191970" points="212.3626,-49.3899 204.395,-56.3733 214.9784,-55.8827 212.3626,-49.3899"/>
</g>
<!-- Node1 -->
<g id="node2" class="node">
<title>Node1</title>
<g id="a_node2"><a xlink:href="classumontreal_1_1ssj_1_1hups_1_1PointSet.html" target="_top" xlink:title="This abstract class defines the basic methods for accessing and manipulating point sets...">
<polygon fill="none" stroke="#000000" points="153.5,-112.5 153.5,-131.5 207.5,-131.5 207.5,-112.5 153.5,-112.5"/>
<text text-anchor="middle" x="180.5" y="-119.5" font-family="Helvetica,sans-Serif" font-size="10.00" fill="#000000">PointSet</text>
</a>
</g>
</g>
<!-- Node1&#45;&gt;Node0 -->
<g id="edge1" class="edge">
<title>Node1&#45;&gt;Node0</title>
<path fill="none" stroke="#191970" d="M180.5,-102.1575C180.5,-93.155 180.5,-82.9199 180.5,-75.6427"/>
<polygon fill="#191970" stroke="#191970" points="177.0001,-102.2455 180.5,-112.2455 184.0001,-102.2456 177.0001,-102.2455"/>
</g>
</g>
</svg>
