<?xml version="1.0" encoding="UTF-8" standalone="no"?>
<!DOCTYPE svg PUBLIC "-//W3C//DTD SVG 1.1//EN"
 "http://www.w3.org/Graphics/SVG/1.1/DTD/svg11.dtd">
<!-- Generated by graphviz version 2.40.1 (0)
 -->
<!-- Title: RandomVariateGen Pages: 1 -->
<svg width="178pt" height="95pt"
 viewBox="0.00 0.00 177.50 95.00" xmlns="http://www.w3.org/2000/svg" xmlns:xlink="http://www.w3.org/1999/xlink">
<g id="graph0" class="graph" transform="scale(1 1) rotate(0) translate(4 91)">
<title>RandomVariateGen</title>
<!-- Node85 -->
<g id="node1" class="node">
<title>Node85</title>
<g id="a_node1"><a xlink:title="This is the base class for all random variate generators over the real line.">
<polygon fill="#bfbfbf" stroke="#000000" points="29.5,-.5 29.5,-19.5 130.5,-19.5 130.5,-.5 29.5,-.5"/>
<text text-anchor="middle" x="80" y="-7.5" font-family="Helvetica,sans-Serif" font-size="10.00" fill="#000000">RandomVariateGen</text>
</a>
</g>
</g>
<!-- Node86 -->
<g id="node2" class="node">
<title>Node86</title>
<g id="a_node2"><a xlink:href="interfaceumontreal_1_1ssj_1_1probdist_1_1Distribution.html" target="_top" xlink:title="This interface should be implemented by all classes supporting discrete and continuous distributions.">
<polygon fill="none" stroke="#000000" points="0,-67.5 0,-86.5 66,-86.5 66,-67.5 0,-67.5"/>
<text text-anchor="middle" x="33" y="-74.5" font-family="Helvetica,sans-Serif" font-size="10.00" fill="#000000">Distribution</text>
</a>
</g>
</g>
<!-- Node86&#45;&gt;Node85 -->
<g id="edge1" class="edge">
<title>Node86&#45;&gt;Node85</title>
<path fill="none" stroke="#9a32cd" stroke-dasharray="5,2" d="M45.6407,-58.9803C54.5366,-46.2989 66.094,-29.8235 73.2785,-19.5817"/>
<polygon fill="#9a32cd" stroke="#9a32cd" points="42.6115,-57.2039 39.734,-67.4005 48.3421,-61.2239 42.6115,-57.2039"/>
<text text-anchor="middle" x="69.5" y="-41" font-family="Helvetica,sans-Serif" font-size="10.00" fill="#000000"> dist</text>
</g>
<!-- Node87 -->
<g id="node3" class="node">
<title>Node87</title>
<g id="a_node3"><a xlink:href="interfaceumontreal_1_1ssj_1_1rng_1_1RandomStream.html" target="_top" xlink:title="This interface defines the basic structures to handle multiple streams of uniform (pseudo)random numb...">
<polygon fill="none" stroke="#000000" points="84.5,-67.5 84.5,-86.5 169.5,-86.5 169.5,-67.5 84.5,-67.5"/>
<text text-anchor="middle" x="127" y="-74.5" font-family="Helvetica,sans-Serif" font-size="10.00" fill="#000000">RandomStream</text>
</a>
</g>
</g>
<!-- Node87&#45;&gt;Node85 -->
<g id="edge2" class="edge">
<title>Node87&#45;&gt;Node85</title>
<path fill="none" stroke="#9a32cd" stroke-dasharray="5,2" d="M114.3593,-58.9803C105.4634,-46.2989 93.906,-29.8235 86.7215,-19.5817"/>
<polygon fill="#9a32cd" stroke="#9a32cd" points="111.6579,-61.2239 120.266,-67.4005 117.3885,-57.2039 111.6579,-61.2239"/>
<text text-anchor="middle" x="123" y="-41" font-family="Helvetica,sans-Serif" font-size="10.00" fill="#000000"> stream</text>
</g>
</g>
</svg>
