<?xml version="1.0" encoding="UTF-8" standalone="no"?>
<!DOCTYPE svg PUBLIC "-//W3C//DTD SVG 1.1//EN"
 "http://www.w3.org/Graphics/SVG/1.1/DTD/svg11.dtd">
<!-- Generated by graphviz version 2.40.1 (0)
 -->
<!-- Title: F2NL607 Pages: 1 -->
<svg width="245pt" height="252pt"
 viewBox="0.00 0.00 245.00 252.00" xmlns="http://www.w3.org/2000/svg" xmlns:xlink="http://www.w3.org/1999/xlink">
<g id="graph0" class="graph" transform="scale(1 1) rotate(0) translate(4 248)">
<title>F2NL607</title>
<!-- Node7 -->
<g id="node1" class="node">
<title>Node7</title>
<g id="a_node1"><a xlink:title="Implements the RandomStream interface by using as a backbone generator the combination of the WELL607...">
<polygon fill="#bfbfbf" stroke="#000000" points="117.5,-.5 117.5,-19.5 173.5,-19.5 173.5,-.5 117.5,-.5"/>
<text text-anchor="middle" x="145.5" y="-7.5" font-family="Helvetica,sans-Serif" font-size="10.00" fill="#000000">F2NL607</text>
</a>
</g>
</g>
<!-- Node8 -->
<g id="node2" class="node">
<title>Node8</title>
<g id="a_node2"><a xlink:href="classumontreal_1_1ssj_1_1rng_1_1WELL607base.html" target="_top" xlink:title=" ">
<polygon fill="none" stroke="#000000" points="105.5,-56.5 105.5,-75.5 185.5,-75.5 185.5,-56.5 105.5,-56.5"/>
<text text-anchor="middle" x="145.5" y="-63.5" font-family="Helvetica,sans-Serif" font-size="10.00" fill="#000000">WELL607base</text>
</a>
</g>
</g>
<!-- Node8&#45;&gt;Node7 -->
<g id="edge1" class="edge">
<title>Node8&#45;&gt;Node7</title>
<path fill="none" stroke="#191970" d="M145.5,-46.1575C145.5,-37.155 145.5,-26.9199 145.5,-19.6427"/>
<polygon fill="#191970" stroke="#191970" points="142.0001,-46.2455 145.5,-56.2455 149.0001,-46.2456 142.0001,-46.2455"/>
</g>
<!-- Node9 -->
<g id="node3" class="node">
<title>Node9</title>
<g id="a_node3"><a xlink:href="classumontreal_1_1ssj_1_1rng_1_1RandomStreamBase.html" target="_top" xlink:title="This class provides a convenient foundation on which RNGs can be built.">
<polygon fill="none" stroke="#000000" points="92,-112.5 92,-131.5 199,-131.5 199,-112.5 92,-112.5"/>
<text text-anchor="middle" x="145.5" y="-119.5" font-family="Helvetica,sans-Serif" font-size="10.00" fill="#000000">RandomStreamBase</text>
</a>
</g>
</g>
<!-- Node9&#45;&gt;Node8 -->
<g id="edge2" class="edge">
<title>Node9&#45;&gt;Node8</title>
<path fill="none" stroke="#191970" d="M145.5,-102.1575C145.5,-93.155 145.5,-82.9199 145.5,-75.6427"/>
<polygon fill="#191970" stroke="#191970" points="142.0001,-102.2455 145.5,-112.2455 149.0001,-102.2456 142.0001,-102.2455"/>
</g>
<!-- Node10 -->
<g id="node4" class="node">
<title>Node10</title>
<g id="a_node4"><a xlink:href="interfaceumontreal_1_1ssj_1_1rng_1_1CloneableRandomStream.html" target="_top" xlink:title="CloneableRandomStream extends RandomStream and Cloneable.">
<polygon fill="none" stroke="#000000" points="23.5,-168.5 23.5,-187.5 151.5,-187.5 151.5,-168.5 23.5,-168.5"/>
<text text-anchor="middle" x="87.5" y="-175.5" font-family="Helvetica,sans-Serif" font-size="10.00" fill="#000000">CloneableRandomStream</text>
</a>
</g>
</g>
<!-- Node10&#45;&gt;Node9 -->
<g id="edge3" class="edge">
<title>Node10&#45;&gt;Node9</title>
<path fill="none" stroke="#191970" d="M105.0293,-161.0751C115.0083,-151.4402 127.1476,-139.7196 135.5129,-131.6427"/>
<polygon fill="#191970" stroke="#191970" points="102.3658,-158.7817 97.6028,-168.2455 107.228,-163.8175 102.3658,-158.7817"/>
</g>
<!-- Node11 -->
<g id="node5" class="node">
<title>Node11</title>
<g id="a_node5"><a xlink:href="interfaceumontreal_1_1ssj_1_1rng_1_1RandomStream.html" target="_top" xlink:title="This interface defines the basic structures to handle multiple streams of uniform (pseudo)random numb...">
<polygon fill="none" stroke="#000000" points="0,-224.5 0,-243.5 85,-243.5 85,-224.5 0,-224.5"/>
<text text-anchor="middle" x="42.5" y="-231.5" font-family="Helvetica,sans-Serif" font-size="10.00" fill="#000000">RandomStream</text>
</a>
</g>
</g>
<!-- Node11&#45;&gt;Node10 -->
<g id="edge4" class="edge">
<title>Node11&#45;&gt;Node10</title>
<path fill="none" stroke="#191970" d="M56.7946,-216.2112C64.3996,-206.7472 73.4538,-195.4797 79.7514,-187.6427"/>
<polygon fill="#191970" stroke="#191970" points="53.8741,-214.2581 50.3384,-224.2455 59.3306,-218.6428 53.8741,-214.2581"/>
</g>
<!-- Node12 -->
<g id="node6" class="node">
<title>Node12</title>
<g id="a_node6"><a xlink:title=" ">
<polygon fill="none" stroke="#bfbfbf" points="103.5,-224.5 103.5,-243.5 163.5,-243.5 163.5,-224.5 103.5,-224.5"/>
<text text-anchor="middle" x="133.5" y="-231.5" font-family="Helvetica,sans-Serif" font-size="10.00" fill="#000000">Cloneable</text>
</a>
</g>
</g>
<!-- Node12&#45;&gt;Node10 -->
<g id="edge5" class="edge">
<title>Node12&#45;&gt;Node10</title>
<path fill="none" stroke="#191970" d="M119.1253,-216.5004C111.3029,-206.9775 101.924,-195.5596 95.4208,-187.6427"/>
<polygon fill="#191970" stroke="#191970" points="116.4354,-218.7399 125.4874,-224.2455 121.8445,-214.2967 116.4354,-218.7399"/>
</g>
<!-- Node13 -->
<g id="node7" class="node">
<title>Node13</title>
<g id="a_node7"><a xlink:title=" ">
<polygon fill="none" stroke="#bfbfbf" points="170,-168.5 170,-187.5 237,-187.5 237,-168.5 170,-168.5"/>
<text text-anchor="middle" x="203.5" y="-175.5" font-family="Helvetica,sans-Serif" font-size="10.00" fill="#000000">Serializable</text>
</a>
</g>
</g>
<!-- Node13&#45;&gt;Node9 -->
<g id="edge6" class="edge">
<title>Node13&#45;&gt;Node9</title>
<path fill="none" stroke="#191970" d="M185.9707,-161.0751C175.9917,-151.4402 163.8524,-139.7196 155.4871,-131.6427"/>
<polygon fill="#191970" stroke="#191970" points="183.772,-163.8175 193.3972,-168.2455 188.6342,-158.7817 183.772,-163.8175"/>
</g>
</g>
</svg>
