<?xml version="1.0" encoding="UTF-8" standalone="no"?>
<!DOCTYPE svg PUBLIC "-//W3C//DTD SVG 1.1//EN"
 "http://www.w3.org/Graphics/SVG/1.1/DTD/svg11.dtd">
<!-- Generated by graphviz version 2.40.1 (0)
 -->
<!-- Title: DirichletGen Pages: 1 -->
<svg width="188pt" height="219pt"
 viewBox="0.00 0.00 188.00 219.00" xmlns="http://www.w3.org/2000/svg" xmlns:xlink="http://www.w3.org/1999/xlink">
<g id="graph0" class="graph" transform="scale(1 1) rotate(0) translate(4 215)">
<title>DirichletGen</title>
<!-- Node2 -->
<g id="node1" class="node">
<title>Node2</title>
<g id="a_node1"><a xlink:title="Extends RandomMultivariateGen for a Dirichlet   distribution.">
<polygon fill="#bfbfbf" stroke="#000000" points="59,-.5 59,-19.5 130,-19.5 130,-.5 59,-.5"/>
<text text-anchor="middle" x="94.5" y="-7.5" font-family="Helvetica,sans-Serif" font-size="10.00" fill="#000000">DirichletGen</text>
</a>
</g>
</g>
<!-- Node3 -->
<g id="node2" class="node">
<title>Node3</title>
<g id="a_node2"><a xlink:href="classumontreal_1_1ssj_1_1randvarmulti_1_1RandomMultivariateGen.html" target="_top" xlink:title="This class is the multivariate counterpart of umontreal.ssj.randvar.RandomVariateGen.">
<polygon fill="none" stroke="#000000" points="33.5,-57.5 33.5,-76.5 155.5,-76.5 155.5,-57.5 33.5,-57.5"/>
<text text-anchor="middle" x="94.5" y="-64.5" font-family="Helvetica,sans-Serif" font-size="10.00" fill="#000000">RandomMultivariateGen</text>
</a>
</g>
</g>
<!-- Node3&#45;&gt;Node2 -->
<g id="edge1" class="edge">
<title>Node3&#45;&gt;Node2</title>
<path fill="none" stroke="#191970" d="M94.5,-47.2342C94.5,-37.8491 94.5,-27.0651 94.5,-19.5265"/>
<polygon fill="#191970" stroke="#191970" points="91.0001,-47.3307 94.5,-57.3307 98.0001,-47.3308 91.0001,-47.3307"/>
</g>
<!-- Node4 -->
<g id="node3" class="node">
<title>Node4</title>
<g id="a_node3"><a xlink:href="classumontreal_1_1ssj_1_1randvar_1_1RandomVariateGen.html" target="_top" xlink:title="This is the base class for all random variate generators over the real line.">
<polygon fill="none" stroke="#000000" points="0,-124.5 0,-143.5 101,-143.5 101,-124.5 0,-124.5"/>
<text text-anchor="middle" x="50.5" y="-131.5" font-family="Helvetica,sans-Serif" font-size="10.00" fill="#000000">RandomVariateGen</text>
</a>
</g>
</g>
<!-- Node4&#45;&gt;Node3 -->
<g id="edge2" class="edge">
<title>Node4&#45;&gt;Node3</title>
<path fill="none" stroke="#9a32cd" stroke-dasharray="5,2" d="M62.3338,-115.9803C70.6619,-103.2989 81.4816,-86.8235 88.2076,-76.5817"/>
<polygon fill="#9a32cd" stroke="#9a32cd" points="59.3679,-114.1206 56.8041,-124.4005 65.219,-117.9631 59.3679,-114.1206"/>
<text text-anchor="middle" x="88" y="-98" font-family="Helvetica,sans-Serif" font-size="10.00" fill="#000000"> gen1</text>
</g>
<!-- Node5 -->
<g id="node4" class="node">
<title>Node5</title>
<g id="a_node4"><a xlink:href="interfaceumontreal_1_1ssj_1_1probdist_1_1Distribution.html" target="_top" xlink:title="This interface should be implemented by all classes supporting discrete and continuous distributions.">
<polygon fill="none" stroke="#000000" points="10.5,-191.5 10.5,-210.5 76.5,-210.5 76.5,-191.5 10.5,-191.5"/>
<text text-anchor="middle" x="43.5" y="-198.5" font-family="Helvetica,sans-Serif" font-size="10.00" fill="#000000">Distribution</text>
</a>
</g>
</g>
<!-- Node5&#45;&gt;Node4 -->
<g id="edge3" class="edge">
<title>Node5&#45;&gt;Node4</title>
<path fill="none" stroke="#9a32cd" stroke-dasharray="5,2" d="M44.7693,-181.2365C45.2328,-175.0675 45.8146,-168.244 46.5,-162 47.1751,-155.8498 48.1547,-148.9707 48.9754,-143.5701"/>
<polygon fill="#9a32cd" stroke="#9a32cd" points="41.267,-181.1489 44.0657,-191.3674 48.2502,-181.6339 41.267,-181.1489"/>
<text text-anchor="middle" x="56" y="-165" font-family="Helvetica,sans-Serif" font-size="10.00" fill="#000000"> dist</text>
</g>
<!-- Node6 -->
<g id="node5" class="node">
<title>Node6</title>
<g id="a_node5"><a xlink:href="interfaceumontreal_1_1ssj_1_1rng_1_1RandomStream.html" target="_top" xlink:title="This interface defines the basic structures to handle multiple streams of uniform (pseudo)random numb...">
<polygon fill="none" stroke="#000000" points="95,-191.5 95,-210.5 180,-210.5 180,-191.5 95,-191.5"/>
<text text-anchor="middle" x="137.5" y="-198.5" font-family="Helvetica,sans-Serif" font-size="10.00" fill="#000000">RandomStream</text>
</a>
</g>
</g>
<!-- Node6&#45;&gt;Node3 -->
<g id="edge5" class="edge">
<title>Node6&#45;&gt;Node3</title>
<path fill="none" stroke="#9a32cd" stroke-dasharray="5,2" d="M131.6992,-181.5228C125.288,-160.2013 114.5372,-125.0448 104.5,-95 102.4392,-88.8312 99.9845,-81.9519 98.0229,-76.5558"/>
<polygon fill="#9a32cd" stroke="#9a32cd" points="128.4085,-182.735 134.6295,-191.3111 135.1145,-180.7274 128.4085,-182.735"/>
<text text-anchor="middle" x="137.5" y="-131.5" font-family="Helvetica,sans-Serif" font-size="10.00" fill="#000000"> stream</text>
</g>
<!-- Node6&#45;&gt;Node4 -->
<g id="edge4" class="edge">
<title>Node6&#45;&gt;Node4</title>
<path fill="none" stroke="#9a32cd" stroke-dasharray="5,2" d="M109.5831,-186.3426C102.7888,-182.3401 95.6985,-177.7784 89.5,-173 77.9729,-164.1139 66.3852,-152.031 58.8726,-143.6802"/>
<polygon fill="#9a32cd" stroke="#9a32cd" points="108.1267,-189.5401 118.5531,-191.4218 111.5759,-183.4488 108.1267,-189.5401"/>
<text text-anchor="middle" x="106.5" y="-165" font-family="Helvetica,sans-Serif" font-size="10.00" fill="#000000"> stream</text>
</g>
</g>
</svg>
