<?xml version="1.0" encoding="UTF-8" standalone="no"?>
<!DOCTYPE svg PUBLIC "-//W3C//DTD SVG 1.1//EN"
 "http://www.w3.org/Graphics/SVG/1.1/DTD/svg11.dtd">
<!-- Generated by graphviz version 2.40.1 (20161225.0304)
 -->
<!-- Title: RandomStreamBase Pages: 1 -->
<!--zoomable 503 -->
<svg id="main" version="1.1" xmlns="http://www.w3.org/2000/svg" xmlns:xlink="http://www.w3.org/1999/xlink" xml:space="preserve" onload="init(evt)">
<style type="text/css"><![CDATA[
.edge:hover path { stroke: red; }
.edge:hover polygon { stroke: red; fill: red; }
]]></style>
<script type="text/javascript"><![CDATA[
var edges = document.getElementsByTagName('g');
if (edges && edges.length) {
  for (var i=0;i<edges.length;i++) {
    if (edges[i].id.substr(0,4)=='edge') {
      edges[i].setAttribute('class','edge');
    }
  }
}
]]></script>
        <defs>
                <circle id="rim" cx="0" cy="0" r="7"/>
                <circle id="rim2" cx="0" cy="0" r="3.5"/>
                <g id="zoomPlus">
                        <use xlink:href="#rim" fill="#404040">
                                <set attributeName="fill" to="#808080" begin="zoomplus.mouseover" end="zoomplus.mouseout"/>
                        </use>
                        <path d="M-4,0h8M0,-4v8" fill="none" stroke="white" stroke-width="1.5" pointer-events="none"/>
                </g>
                <g id="zoomMin">
                        <use xlink:href="#rim" fill="#404040">
                                <set attributeName="fill" to="#808080" begin="zoomminus.mouseover" end="zoomminus.mouseout"/>
                        </use>
                        <path d="M-4,0h8" fill="none" stroke="white" stroke-width="1.5" pointer-events="none"/>
                </g>
                <g id="dirArrow">
                        <path fill="none" stroke="white" stroke-width="1.5" d="M0,-3.0v7 M-2.5,-0.5L0,-3.0L2.5,-0.5"/>
                </g>
               <g id="resetDef">
                       <use xlink:href="#rim2" fill="#404040">
                               <set attributeName="fill" to="#808080" begin="reset.mouseover" end="reset.mouseout"/>
                       </use>
               </g>
        </defs>

<script type="text/javascript">
var viewWidth = 627;
var viewHeight = 503;
var sectionId = 'dynsection-0';
</script>
<script xlink:href="svgpan.js"/>
<svg id="graph" class="graph">
<g id="viewport">
<title>RandomStreamBase</title>
<!-- Node0 -->
<g id="node1" class="node">
<title>Node0</title>
<polygon fill="#bfbfbf" stroke="#000000" points="285,-247.5 285,-266.5 392,-266.5 392,-247.5 285,-247.5"/>
<text text-anchor="middle" x="338.5" y="-254.5" font-family="Helvetica,sans-Serif" font-size="10.00" fill="#000000">RandomStreamBase</text>
</g>
<!-- Node5 -->
<g id="node6" class="node">
<title>Node5</title>
<g id="a_node6"><a xlink:href="classift6561examples_1_1MathematicaSWB.html" target="_top" xlink:title="MathematicaSWB">
<polygon fill="none" stroke="#000000" points="428,-475.5 428,-494.5 524,-494.5 524,-475.5 428,-475.5"/>
<text text-anchor="middle" x="476" y="-482.5" font-family="Helvetica,sans-Serif" font-size="10.00" fill="#000000">MathematicaSWB</text>
</a>
</g>
</g>
<!-- Node0&#45;&gt;Node5 -->
<g id="edge5" class="edge">
<title>Node0&#45;&gt;Node5</title>
<path fill="none" stroke="#191970" d="M341.7439,-276.8435C349.4185,-317.701 372.3947,-411.9136 428,-466 431.9832,-469.8744 436.8525,-472.9866 441.945,-475.4785"/>
<polygon fill="#191970" stroke="#191970" points="345.158,-276.0502 339.9706,-266.8122 338.2649,-277.2688 345.158,-276.0502"/>
</g>
<!-- Node6 -->
<g id="node7" class="node">
<title>Node6</title>
<g id="a_node7"><a xlink:href="classumontreal_1_1ssj_1_1mcqmctools_1_1anova_1_1SplitStream.html" target="_top" xlink:title="Implements a random stream that mixes two input streams by using a coordinate mask. ">
<polygon fill="none" stroke="#000000" points="442,-437.5 442,-456.5 510,-456.5 510,-437.5 442,-437.5"/>
<text text-anchor="middle" x="476" y="-444.5" font-family="Helvetica,sans-Serif" font-size="10.00" fill="#000000">SplitStream</text>
</a>
</g>
</g>
<!-- Node0&#45;&gt;Node6 -->
<g id="edge6" class="edge">
<title>Node0&#45;&gt;Node6</title>
<path fill="none" stroke="#191970" d="M343.7776,-276.5271C354.1886,-311.5413 380.5775,-385.3245 428,-428 432.2637,-431.8369 437.3956,-434.9429 442.695,-437.4436"/>
<polygon fill="#191970" stroke="#191970" points="347.0583,-275.2681 340.9525,-266.6096 340.3261,-277.1859 347.0583,-275.2681"/>
</g>
<!-- Node7 -->
<g id="node8" class="node">
<title>Node7</title>
<g id="a_node8"><a xlink:href="classumontreal_1_1ssj_1_1rng_1_1GenF2w32.html" target="_top" xlink:title="Implements the RandomStream interface via inheritance from RandomStreamBase. ">
<polygon fill="none" stroke="#000000" points="444,-399.5 444,-418.5 508,-418.5 508,-399.5 444,-399.5"/>
<text text-anchor="middle" x="476" y="-406.5" font-family="Helvetica,sans-Serif" font-size="10.00" fill="#000000">GenF2w32</text>
</a>
</g>
</g>
<!-- Node0&#45;&gt;Node7 -->
<g id="edge7" class="edge">
<title>Node0&#45;&gt;Node7</title>
<path fill="none" stroke="#191970" d="M346.7884,-276.1002C360.0491,-304.6014 388.6075,-358.2951 428,-390 432.7477,-393.8212 438.3599,-396.9529 444.0424,-399.4919"/>
<polygon fill="#191970" stroke="#191970" points="349.9071,-274.5019 342.6033,-266.827 343.5268,-277.3815 349.9071,-274.5019"/>
</g>
<!-- Node8 -->
<g id="node9" class="node">
<title>Node8</title>
<g id="a_node9"><a xlink:href="classumontreal_1_1ssj_1_1rng_1_1LFSR113.html" target="_top" xlink:title="Extends RandomStreamBase using a composite linear feedback shift register (LFSR) (or Tausworthe) RNG ...">
<polygon fill="none" stroke="#000000" points="447,-361.5 447,-380.5 505,-380.5 505,-361.5 447,-361.5"/>
<text text-anchor="middle" x="476" y="-368.5" font-family="Helvetica,sans-Serif" font-size="10.00" fill="#000000">LFSR113</text>
</a>
</g>
</g>
<!-- Node0&#45;&gt;Node8 -->
<g id="edge8" class="edge">
<title>Node0&#45;&gt;Node8</title>
<path fill="none" stroke="#191970" d="M351.2924,-274.7311C367.1993,-295.6799 396.1683,-330.4067 428,-352 433.711,-355.8741 440.3291,-359.1367 446.7918,-361.805"/>
<polygon fill="#191970" stroke="#191970" points="354.0791,-272.6131 345.3046,-266.6751 348.461,-276.7889 354.0791,-272.6131"/>
</g>
<!-- Node9 -->
<g id="node10" class="node">
<title>Node9</title>
<g id="a_node10"><a xlink:href="classumontreal_1_1ssj_1_1rng_1_1LFSR258.html" target="_top" xlink:title="Extends RandomStreamBase using a 64&#45;bit composite linear feedback shift register (LFSR) (or Tausworth...">
<polygon fill="none" stroke="#000000" points="447,-323.5 447,-342.5 505,-342.5 505,-323.5 447,-323.5"/>
<text text-anchor="middle" x="476" y="-330.5" font-family="Helvetica,sans-Serif" font-size="10.00" fill="#000000">LFSR258</text>
</a>
</g>
</g>
<!-- Node0&#45;&gt;Node9 -->
<g id="edge9" class="edge">
<title>Node0&#45;&gt;Node9</title>
<path fill="none" stroke="#191970" d="M360.126,-272.4248C377.8374,-284.6468 403.8283,-301.6607 428,-314 434.7053,-317.4229 442.1782,-320.6452 449.1931,-323.43"/>
<polygon fill="#191970" stroke="#191970" points="361.8747,-269.377 351.6723,-266.5204 357.8665,-275.1158 361.8747,-269.377"/>
</g>
<!-- Node10 -->
<g id="node11" class="node">
<title>Node10</title>
<g id="a_node11"><a xlink:href="classumontreal_1_1ssj_1_1rng_1_1MRG31k3p.html" target="_top" xlink:title="Extends the abstract class RandomStreamBase, thus implementing the RandomStream interface indirectly...">
<polygon fill="none" stroke="#000000" points="443,-285.5 443,-304.5 509,-304.5 509,-285.5 443,-285.5"/>
<text text-anchor="middle" x="476" y="-292.5" font-family="Helvetica,sans-Serif" font-size="10.00" fill="#000000">MRG31k3p</text>
</a>
</g>
</g>
<!-- Node0&#45;&gt;Node10 -->
<g id="edge10" class="edge">
<title>Node0&#45;&gt;Node10</title>
<path fill="none" stroke="#191970" d="M383.039,-269.309C402.4489,-274.6731 424.8104,-280.8531 442.737,-285.8073"/>
<polygon fill="#191970" stroke="#191970" points="383.7681,-265.8793 373.1971,-266.589 381.9034,-272.6264 383.7681,-265.8793"/>
</g>
<!-- Node11 -->
<g id="node12" class="node">
<title>Node11</title>
<g id="a_node12"><a xlink:href="classumontreal_1_1ssj_1_1rng_1_1MRG32k3a.html" target="_top" xlink:title="Extends the abstract class RandomStreamBase by using as a backbone (or main) generator the combined m...">
<polygon fill="none" stroke="#000000" points="443,-247.5 443,-266.5 509,-266.5 509,-247.5 443,-247.5"/>
<text text-anchor="middle" x="476" y="-254.5" font-family="Helvetica,sans-Serif" font-size="10.00" fill="#000000">MRG32k3a</text>
</a>
</g>
</g>
<!-- Node0&#45;&gt;Node11 -->
<g id="edge11" class="edge">
<title>Node0&#45;&gt;Node11</title>
<path fill="none" stroke="#191970" d="M402.1569,-257C416.1448,-257 430.4155,-257 442.6356,-257"/>
<polygon fill="#191970" stroke="#191970" points="402.0548,-253.5001 392.0548,-257 402.0548,-260.5001 402.0548,-253.5001"/>
</g>
<!-- Node12 -->
<g id="node13" class="node">
<title>Node12</title>
<g id="a_node13"><a xlink:href="classumontreal_1_1ssj_1_1rng_1_1MRG32k3aL.html" target="_top" xlink:title="The same generator as MRG32k3a, except here it is implemented with type long instead of double...">
<polygon fill="none" stroke="#000000" points="440.5,-209.5 440.5,-228.5 511.5,-228.5 511.5,-209.5 440.5,-209.5"/>
<text text-anchor="middle" x="476" y="-216.5" font-family="Helvetica,sans-Serif" font-size="10.00" fill="#000000">MRG32k3aL</text>
</a>
</g>
</g>
<!-- Node0&#45;&gt;Node12 -->
<g id="edge12" class="edge">
<title>Node0&#45;&gt;Node12</title>
<path fill="none" stroke="#191970" d="M383.0729,-244.6817C401.9645,-239.4607 423.6472,-233.4684 441.314,-228.5859"/>
<polygon fill="#191970" stroke="#191970" points="381.9034,-241.3736 373.1971,-247.411 383.7681,-248.1207 381.9034,-241.3736"/>
</g>
<!-- Node13 -->
<g id="node14" class="node">
<title>Node13</title>
<g id="a_node14"><a xlink:href="classumontreal_1_1ssj_1_1rng_1_1MT19937.html" target="_top" xlink:title="Implements the RandomStream interface via inheritance from RandomStreamBase. ">
<polygon fill="none" stroke="#000000" points="447.5,-171.5 447.5,-190.5 504.5,-190.5 504.5,-171.5 447.5,-171.5"/>
<text text-anchor="middle" x="476" y="-178.5" font-family="Helvetica,sans-Serif" font-size="10.00" fill="#000000">MT19937</text>
</a>
</g>
</g>
<!-- Node0&#45;&gt;Node13 -->
<g id="edge13" class="edge">
<title>Node0&#45;&gt;Node13</title>
<path fill="none" stroke="#191970" d="M360.126,-241.5752C377.8374,-229.3532 403.8283,-212.3393 428,-200 434.7053,-196.5771 442.1782,-193.3548 449.1931,-190.57"/>
<polygon fill="#191970" stroke="#191970" points="357.8665,-238.8842 351.6723,-247.4796 361.8747,-244.623 357.8665,-238.8842"/>
</g>
<!-- Node14 -->
<g id="node15" class="node">
<title>Node14</title>
<g id="a_node15"><a xlink:href="classumontreal_1_1ssj_1_1rng_1_1RandRijndael.html" target="_top" xlink:title="Implements a RNG using the Rijndael block cipher algorithm (AES) with key and block lengths of 128 bi...">
<polygon fill="none" stroke="#000000" points="438.5,-133.5 438.5,-152.5 513.5,-152.5 513.5,-133.5 438.5,-133.5"/>
<text text-anchor="middle" x="476" y="-140.5" font-family="Helvetica,sans-Serif" font-size="10.00" fill="#000000">RandRijndael</text>
</a>
</g>
</g>
<!-- Node0&#45;&gt;Node14 -->
<g id="edge14" class="edge">
<title>Node0&#45;&gt;Node14</title>
<path fill="none" stroke="#191970" d="M351.2924,-239.2689C367.1993,-218.3201 396.1683,-183.5933 428,-162 433.4885,-158.2768 439.8147,-155.1185 446.0357,-152.5096"/>
<polygon fill="#191970" stroke="#191970" points="348.461,-237.2111 345.3046,-247.3249 354.0791,-241.3869 348.461,-237.2111"/>
</g>
<!-- Node15 -->
<g id="node16" class="node">
<title>Node15</title>
<g id="a_node16"><a xlink:href="classumontreal_1_1ssj_1_1rng_1_1WELL1024.html" target="_top" xlink:title="Implements the RandomStream interface via inheritance from RandomStreamBase. ">
<polygon fill="none" stroke="#000000" points="443.5,-95.5 443.5,-114.5 508.5,-114.5 508.5,-95.5 443.5,-95.5"/>
<text text-anchor="middle" x="476" y="-102.5" font-family="Helvetica,sans-Serif" font-size="10.00" fill="#000000">WELL1024</text>
</a>
</g>
</g>
<!-- Node0&#45;&gt;Node15 -->
<g id="edge15" class="edge">
<title>Node0&#45;&gt;Node15</title>
<path fill="none" stroke="#191970" d="M346.7884,-237.8998C360.0491,-209.3986 388.6075,-155.7049 428,-124 432.7477,-120.1788 438.3599,-117.0471 444.0424,-114.5081"/>
<polygon fill="#191970" stroke="#191970" points="343.5268,-236.6185 342.6033,-247.173 349.9071,-239.4981 343.5268,-236.6185"/>
</g>
<!-- Node16 -->
<g id="node17" class="node">
<title>Node16</title>
<g id="a_node17"><a xlink:href="classumontreal_1_1ssj_1_1rng_1_1WELL512.html" target="_top" xlink:title="This class implements the RandomStream interface via inheritance from RandomStreamBase. ">
<polygon fill="none" stroke="#000000" points="446.5,-57.5 446.5,-76.5 505.5,-76.5 505.5,-57.5 446.5,-57.5"/>
<text text-anchor="middle" x="476" y="-64.5" font-family="Helvetica,sans-Serif" font-size="10.00" fill="#000000">WELL512</text>
</a>
</g>
</g>
<!-- Node0&#45;&gt;Node16 -->
<g id="edge16" class="edge">
<title>Node0&#45;&gt;Node16</title>
<path fill="none" stroke="#191970" d="M343.7776,-237.4729C354.1886,-202.4587 380.5775,-128.6755 428,-86 433.263,-81.2638 439.8488,-77.6414 446.4398,-74.8963"/>
<polygon fill="#191970" stroke="#191970" points="340.3261,-236.8141 340.9525,-247.3904 347.0583,-238.7319 340.3261,-236.8141"/>
</g>
<!-- Node17 -->
<g id="node18" class="node">
<title>Node17</title>
<g id="a_node18"><a xlink:href="classumontreal_1_1ssj_1_1rng_1_1WELL607base.html" target="_top" xlink:title="WELL607base">
<polygon fill="none" stroke="#000000" points="436,-19.5 436,-38.5 516,-38.5 516,-19.5 436,-19.5"/>
<text text-anchor="middle" x="476" y="-26.5" font-family="Helvetica,sans-Serif" font-size="10.00" fill="#000000">WELL607base</text>
</a>
</g>
</g>
<!-- Node0&#45;&gt;Node17 -->
<g id="edge17" class="edge">
<title>Node0&#45;&gt;Node17</title>
<path fill="none" stroke="#191970" d="M341.7439,-237.1565C349.4185,-196.299 372.3947,-102.0864 428,-48 431.9832,-44.1256 436.8525,-41.0134 441.945,-38.5215"/>
<polygon fill="#191970" stroke="#191970" points="338.2649,-236.7312 339.9706,-247.1878 345.158,-237.9498 338.2649,-236.7312"/>
</g>
<!-- Node1 -->
<g id="node2" class="node">
<title>Node1</title>
<g id="a_node2"><a xlink:href="interfaceumontreal_1_1ssj_1_1rng_1_1CloneableRandomStream.html" target="_top" xlink:title="CloneableRandomStream extends RandomStream and Cloneable. ">
<polygon fill="none" stroke="#000000" points="121,-266.5 121,-285.5 249,-285.5 249,-266.5 121,-266.5"/>
<text text-anchor="middle" x="185" y="-273.5" font-family="Helvetica,sans-Serif" font-size="10.00" fill="#000000">CloneableRandomStream</text>
</a>
</g>
</g>
<!-- Node1&#45;&gt;Node0 -->
<g id="edge1" class="edge">
<title>Node1&#45;&gt;Node0</title>
<path fill="none" stroke="#191970" d="M259.2612,-266.8081C267.8631,-265.7433 276.5067,-264.6734 284.7592,-263.6519"/>
<polygon fill="#191970" stroke="#191970" points="258.7027,-263.3504 249.2084,-268.0524 259.5627,-270.2974 258.7027,-263.3504"/>
</g>
<!-- Node2 -->
<g id="node3" class="node">
<title>Node2</title>
<g id="a_node3"><a xlink:href="interfaceumontreal_1_1ssj_1_1rng_1_1RandomStream.html" target="_top" xlink:title="This interface defines the basic structures to handle multiple streams of uniform (pseudo)random numb...">
<polygon fill="none" stroke="#000000" points="0,-285.5 0,-304.5 85,-304.5 85,-285.5 0,-285.5"/>
<text text-anchor="middle" x="42.5" y="-292.5" font-family="Helvetica,sans-Serif" font-size="10.00" fill="#000000">RandomStream</text>
</a>
</g>
</g>
<!-- Node2&#45;&gt;Node1 -->
<g id="edge2" class="edge">
<title>Node2&#45;&gt;Node1</title>
<path fill="none" stroke="#191970" d="M95.2439,-287.9675C103.6099,-286.852 112.3415,-285.6878 120.9325,-284.5423"/>
<polygon fill="#191970" stroke="#191970" points="94.7044,-284.5084 85.2547,-289.2994 95.6296,-291.4469 94.7044,-284.5084"/>
</g>
<!-- Node3 -->
<g id="node4" class="node">
<title>Node3</title>
<polygon fill="none" stroke="#bfbfbf" points="12.5,-247.5 12.5,-266.5 72.5,-266.5 72.5,-247.5 12.5,-247.5"/>
<text text-anchor="middle" x="42.5" y="-254.5" font-family="Helvetica,sans-Serif" font-size="10.00" fill="#000000">Cloneable</text>
</g>
<!-- Node3&#45;&gt;Node1 -->
<g id="edge3" class="edge">
<title>Node3&#45;&gt;Node1</title>
<path fill="none" stroke="#191970" d="M82.7253,-262.3634C94.5766,-263.9436 107.851,-265.7135 120.8108,-267.4414"/>
<polygon fill="#191970" stroke="#191970" points="83.0955,-258.8818 72.7206,-261.0294 82.1703,-265.8204 83.0955,-258.8818"/>
</g>
<!-- Node4 -->
<g id="node5" class="node">
<title>Node4</title>
<polygon fill="none" stroke="#bfbfbf" points="151.5,-228.5 151.5,-247.5 218.5,-247.5 218.5,-228.5 151.5,-228.5"/>
<text text-anchor="middle" x="185" y="-235.5" font-family="Helvetica,sans-Serif" font-size="10.00" fill="#000000">Serializable</text>
</g>
<!-- Node4&#45;&gt;Node0 -->
<g id="edge4" class="edge">
<title>Node4&#45;&gt;Node0</title>
<path fill="none" stroke="#191970" d="M228.6448,-243.4023C246.1803,-245.5728 266.568,-248.0964 284.9849,-250.376"/>
<polygon fill="#191970" stroke="#191970" points="229.0405,-239.9246 218.6862,-242.1696 228.1805,-246.8716 229.0405,-239.9246"/>
</g>
<!-- Node18 -->
<g id="node19" class="node">
<title>Node18</title>
<g id="a_node19"><a xlink:href="classumontreal_1_1ssj_1_1rng_1_1F2NL607.html" target="_top" xlink:title="Implements the RandomStream interface by using as a backbone generator the combination of the WELL607...">
<polygon fill="none" stroke="#000000" points="561.5,-38.5 561.5,-57.5 617.5,-57.5 617.5,-38.5 561.5,-38.5"/>
<text text-anchor="middle" x="589.5" y="-45.5" font-family="Helvetica,sans-Serif" font-size="10.00" fill="#000000">F2NL607</text>
</a>
</g>
</g>
<!-- Node17&#45;&gt;Node18 -->
<g id="edge18" class="edge">
<title>Node17&#45;&gt;Node18</title>
<path fill="none" stroke="#191970" d="M526.0115,-37.372C538.0849,-39.3931 550.571,-41.4832 561.2421,-43.2696"/>
<polygon fill="#191970" stroke="#191970" points="526.4565,-33.8978 516.0159,-35.6987 525.3007,-40.8018 526.4565,-33.8978"/>
</g>
<!-- Node19 -->
<g id="node20" class="node">
<title>Node19</title>
<g id="a_node20"><a xlink:href="classumontreal_1_1ssj_1_1rng_1_1WELL607.html" target="_top" xlink:title="This class implements the RandomStream interface via inheritance from RandomStreamBase. ">
<polygon fill="none" stroke="#000000" points="560,-.5 560,-19.5 619,-19.5 619,-.5 560,-.5"/>
<text text-anchor="middle" x="589.5" y="-7.5" font-family="Helvetica,sans-Serif" font-size="10.00" fill="#000000">WELL607</text>
</a>
</g>
</g>
<!-- Node17&#45;&gt;Node19 -->
<g id="edge19" class="edge">
<title>Node17&#45;&gt;Node19</title>
<path fill="none" stroke="#191970" d="M526.0146,-20.6275C537.5587,-18.695 549.4799,-16.6994 559.8309,-14.9666"/>
<polygon fill="#191970" stroke="#191970" points="525.3007,-17.1982 516.0159,-22.3013 526.4565,-24.1022 525.3007,-17.1982"/>
</g>
</g>
</svg>
        <g id="navigator" transform="translate(0 0)" fill="#404254">
                <rect fill="#f2f5e9" fill-opacity="0.5" stroke="#606060" stroke-width=".5" x="0" y="0" width="60" height="60"/>
                <use id="zoomplus" xlink:href="#zoomPlus" x="17" y="9" onmousedown="handleZoom(evt,'in')"/>
                <use id="zoomminus" xlink:href="#zoomMin" x="42" y="9" onmousedown="handleZoom(evt,'out')"/>
                <use id="reset" xlink:href="#resetDef" x="30" y="36" onmousedown="handleReset()"/>
                <g id="arrowUp" xlink:href="#dirArrow" transform="translate(30 24)" onmousedown="handlePan(0,-1)">
                  <use xlink:href="#rim" fill="#404040">
                        <set attributeName="fill" to="#808080" begin="arrowUp.mouseover" end="arrowUp.mouseout"/>
                  </use>
                  <path fill="none" stroke="white" stroke-width="1.5" d="M0,-3.0v7 M-2.5,-0.5L0,-3.0L2.5,-0.5"/>
                </g>
                <g id="arrowRight" xlink:href="#dirArrow" transform="rotate(90) translate(36 -43)" onmousedown="handlePan(1,0)">
                  <use xlink:href="#rim" fill="#404040">
                        <set attributeName="fill" to="#808080" begin="arrowRight.mouseover" end="arrowRight.mouseout"/>
                  </use>
                  <path fill="none" stroke="white" stroke-width="1.5" d="M0,-3.0v7 M-2.5,-0.5L0,-3.0L2.5,-0.5"/>
                </g>
                <g id="arrowDown" xlink:href="#dirArrow" transform="rotate(180) translate(-30 -48)" onmousedown="handlePan(0,1)">
                  <use xlink:href="#rim" fill="#404040">
                        <set attributeName="fill" to="#808080" begin="arrowDown.mouseover" end="arrowDown.mouseout"/>
                  </use>
                  <path fill="none" stroke="white" stroke-width="1.5" d="M0,-3.0v7 M-2.5,-0.5L0,-3.0L2.5,-0.5"/>
                </g>
                <g id="arrowLeft" xlink:href="#dirArrow" transform="rotate(270) translate(-36 17)" onmousedown="handlePan(-1,0)">
                  <use xlink:href="#rim" fill="#404040">
                        <set attributeName="fill" to="#808080" begin="arrowLeft.mouseover" end="arrowLeft.mouseout"/>
                  </use>
                  <path fill="none" stroke="white" stroke-width="1.5" d="M0,-3.0v7 M-2.5,-0.5L0,-3.0L2.5,-0.5"/>
                </g>
        </g>
        <svg viewBox="0 0 15 15" width="100%" height="30px" preserveAspectRatio="xMaxYMin meet">
         <g id="arrow_out" transform="scale(0.3 0.3)">
          <a xlink:href="classumontreal_1_1ssj_1_1rng_1_1RandomStreamBase__inherit__graph_org.svg" target="_base">
           <rect id="button" ry="5" rx="5" y="6" x="6" height="38" width="38"
                fill="#f2f5e9" fill-opacity="0.5" stroke="#606060" stroke-width="1.0"/>
           <path id="arrow"
             d="M 11.500037,31.436501 C 11.940474,20.09759 22.043105,11.32322 32.158766,21.979434 L 37.068811,17.246167 C 37.068811,17.246167 37.088388,32 37.088388,32 L 22.160133,31.978069 C 22.160133,31.978069 26.997745,27.140456 26.997745,27.140456 C 18.528582,18.264221 13.291696,25.230495 11.500037,31.436501 z"
             style="fill:#404040;"/>
          </a>
         </g>
        </svg>
</svg>
