<?xml version="1.0" encoding="UTF-8" standalone="no"?>
<!DOCTYPE svg PUBLIC "-//W3C//DTD SVG 1.1//EN"
 "http://www.w3.org/Graphics/SVG/1.1/DTD/svg11.dtd">
<!-- Generated by graphviz version 2.40.1 (0)
 -->
<!-- Title: AsianGBM Pages: 1 -->
<svg width="224pt" height="84pt"
 viewBox="0.00 0.00 224.00 84.00" xmlns="http://www.w3.org/2000/svg" xmlns:xlink="http://www.w3.org/1999/xlink">
<g id="graph0" class="graph" transform="scale(1 1) rotate(0) translate(4 80)">
<title>AsianGBM</title>
<!-- Node0 -->
<g id="node1" class="node">
<title>Node0</title>
<g id="a_node1"><a xlink:title=" ">
<polygon fill="#bfbfbf" stroke="#000000" points="69.5,-56.5 69.5,-75.5 133.5,-75.5 133.5,-56.5 69.5,-56.5"/>
<text text-anchor="middle" x="101.5" y="-63.5" font-family="Helvetica,sans-Serif" font-size="10.00" fill="#000000">AsianGBM</text>
</a>
</g>
</g>
<!-- Node1 -->
<g id="node2" class="node">
<title>Node1</title>
<g id="a_node2"><a xlink:href="classtutorial_1_1AsianGBMQMC.html" target="_top" xlink:title=" ">
<polygon fill="none" stroke="#000000" points="0,-.5 0,-19.5 87,-19.5 87,-.5 0,-.5"/>
<text text-anchor="middle" x="43.5" y="-7.5" font-family="Helvetica,sans-Serif" font-size="10.00" fill="#000000">AsianGBMQMC</text>
</a>
</g>
</g>
<!-- Node0&#45;&gt;Node1 -->
<g id="edge1" class="edge">
<title>Node0&#45;&gt;Node1</title>
<path fill="none" stroke="#191970" d="M83.9707,-49.0751C73.9917,-39.4402 61.8524,-27.7196 53.4871,-19.6427"/>
<polygon fill="#191970" stroke="#191970" points="81.772,-51.8175 91.3972,-56.2455 86.6342,-46.7817 81.772,-51.8175"/>
</g>
<!-- Node2 -->
<g id="node3" class="node">
<title>Node2</title>
<g id="a_node3"><a xlink:href="classtutorial_1_1NewTestAsianRQMC.html" target="_top" xlink:title=" ">
<polygon fill="none" stroke="#000000" points="105,-.5 105,-19.5 216,-19.5 216,-.5 105,-.5"/>
<text text-anchor="middle" x="160.5" y="-7.5" font-family="Helvetica,sans-Serif" font-size="10.00" fill="#000000">NewTestAsianRQMC</text>
</a>
</g>
</g>
<!-- Node0&#45;&gt;Node2 -->
<g id="edge2" class="edge">
<title>Node0&#45;&gt;Node2</title>
<path fill="none" stroke="#191970" d="M119.0307,-49.3607C129.2377,-39.6727 141.7469,-27.7995 150.3408,-19.6427"/>
<polygon fill="#191970" stroke="#191970" points="116.6206,-46.8227 111.777,-56.2455 121.4396,-51.8998 116.6206,-46.8227"/>
</g>
</g>
</svg>
