<?xml version="1.0" encoding="UTF-8" standalone="no"?>
<!DOCTYPE svg PUBLIC "-//W3C//DTD SVG 1.1//EN"
 "http://www.w3.org/Graphics/SVG/1.1/DTD/svg11.dtd">
<!-- Generated by graphviz version 2.40.1 (20161225.0304)
 -->
<!-- Title: GeometricNormalInverseGaussianProcess Pages: 1 -->
<svg width="175pt" height="163pt"
 viewBox="0.00 0.00 175.00 163.00" xmlns="http://www.w3.org/2000/svg" xmlns:xlink="http://www.w3.org/1999/xlink">
<g id="graph0" class="graph" transform="scale(1 1) rotate(0) translate(4 159)">
<title>GeometricNormalInverseGaussianProcess</title>
<!-- Node3 -->
<g id="node1" class="node">
<title>Node3</title>
<polygon fill="#bfbfbf" stroke="#000000" points="0,-.5 0,-30.5 167,-30.5 167,-.5 0,-.5"/>
<text text-anchor="start" x="8" y="-18.5" font-family="Helvetica,sans-Serif" font-size="10.00" fill="#000000">GeometricNormalInverseGaussian</text>
<text text-anchor="middle" x="83.5" y="-7.5" font-family="Helvetica,sans-Serif" font-size="10.00" fill="#000000">Process</text>
</g>
<!-- Node4 -->
<g id="node2" class="node">
<title>Node4</title>
<g id="a_node2"><a xlink:href="classumontreal_1_1ssj_1_1stochprocess_1_1GeometricLevyProcess.html" target="_top" xlink:title="Abstract class used as a parent class for the exponentiation of a Lévy process : &#160;The interest rate i...">
<polygon fill="none" stroke="#000000" points="24,-68.5 24,-87.5 143,-87.5 143,-68.5 24,-68.5"/>
<text text-anchor="middle" x="83.5" y="-75.5" font-family="Helvetica,sans-Serif" font-size="10.00" fill="#000000">GeometricLevyProcess</text>
</a>
</g>
</g>
<!-- Node4&#45;&gt;Node3 -->
<g id="edge1" class="edge">
<title>Node4&#45;&gt;Node3</title>
<path fill="none" stroke="#191970" d="M83.5,-58.0501C83.5,-49.2205 83.5,-39.0001 83.5,-30.7892"/>
<polygon fill="#191970" stroke="#191970" points="80.0001,-58.2343 83.5,-68.2344 87.0001,-58.2344 80.0001,-58.2343"/>
</g>
<!-- Node5 -->
<g id="node3" class="node">
<title>Node5</title>
<g id="a_node3"><a xlink:href="classumontreal_1_1ssj_1_1stochprocess_1_1StochasticProcess.html" target="_top" xlink:title="Abstract base class for a stochastic process &#160;sampled (or observed) at a finite number of time points...">
<polygon fill="none" stroke="#000000" points="34,-135.5 34,-154.5 133,-154.5 133,-135.5 34,-135.5"/>
<text text-anchor="middle" x="83.5" y="-142.5" font-family="Helvetica,sans-Serif" font-size="10.00" fill="#000000">StochasticProcess</text>
</a>
</g>
</g>
<!-- Node5&#45;&gt;Node4 -->
<g id="edge2" class="edge">
<title>Node5&#45;&gt;Node4</title>
<path fill="none" stroke="#191970" d="M81.9152,-125.2949C81.743,-122.5117 81.5958,-119.6848 81.5,-117 81.1423,-106.9724 81.8667,-95.5043 82.5415,-87.6128"/>
<polygon fill="#191970" stroke="#191970" points="78.435,-125.6973 82.6459,-135.4194 85.4168,-125.1933 78.435,-125.6973"/>
</g>
<!-- Node5&#45;&gt;Node4 -->
<g id="edge3" class="edge">
<title>Node5&#45;&gt;Node4</title>
<path fill="none" stroke="#9a32cd" stroke-dasharray="5,2" d="M83.5,-125.1079C83.5,-112.714 83.5,-97.3263 83.5,-87.5817"/>
<polygon fill="#9a32cd" stroke="#9a32cd" points="80.0001,-125.4005 83.5,-135.4005 87.0001,-125.4006 80.0001,-125.4005"/>
<text text-anchor="middle" x="112.5" y="-109" font-family="Helvetica,sans-Serif" font-size="10.00" fill="#000000"> levyProcess</text>
</g>
</g>
</svg>
