<?xml version="1.0" encoding="UTF-8" standalone="no"?>
<!DOCTYPE svg PUBLIC "-//W3C//DTD SVG 1.1//EN"
 "http://www.w3.org/Graphics/SVG/1.1/DTD/svg11.dtd">
<!-- Generated by graphviz version 2.40.1 (20161225.0304)
 -->
<!-- Title: InverseGaussianProcessBridge Pages: 1 -->
<svg width="297pt" height="286pt"
 viewBox="0.00 0.00 297.00 286.00" xmlns="http://www.w3.org/2000/svg" xmlns:xlink="http://www.w3.org/1999/xlink">
<g id="graph0" class="graph" transform="scale(1 1) rotate(0) translate(4 282)">
<title>InverseGaussianProcessBridge</title>
<!-- Node4 -->
<g id="node1" class="node">
<title>Node4</title>
<polygon fill="#bfbfbf" stroke="#000000" points="82.5,-.5 82.5,-19.5 236.5,-19.5 236.5,-.5 82.5,-.5"/>
<text text-anchor="middle" x="159.5" y="-7.5" font-family="Helvetica,sans-Serif" font-size="10.00" fill="#000000">InverseGaussianProcessBridge</text>
</g>
<!-- Node5 -->
<g id="node2" class="node">
<title>Node5</title>
<g id="a_node2"><a xlink:href="classumontreal_1_1ssj_1_1stochprocess_1_1InverseGaussianProcessMSH.html" target="_top" xlink:title="Uses a faster generating method (MSH)   than the simple inversion of the distribution function used ...">
<polygon fill="none" stroke="#000000" points="85,-57.5 85,-76.5 234,-76.5 234,-57.5 85,-57.5"/>
<text text-anchor="middle" x="159.5" y="-64.5" font-family="Helvetica,sans-Serif" font-size="10.00" fill="#000000">InverseGaussianProcessMSH</text>
</a>
</g>
</g>
<!-- Node5&#45;&gt;Node4 -->
<g id="edge1" class="edge">
<title>Node5&#45;&gt;Node4</title>
<path fill="none" stroke="#191970" d="M159.5,-47.2342C159.5,-37.8491 159.5,-27.0651 159.5,-19.5265"/>
<polygon fill="#191970" stroke="#191970" points="156.0001,-47.3307 159.5,-57.3307 163.0001,-47.3308 156.0001,-47.3307"/>
</g>
<!-- Node6 -->
<g id="node3" class="node">
<title>Node6</title>
<g id="a_node3"><a xlink:href="classumontreal_1_1ssj_1_1stochprocess_1_1InverseGaussianProcess.html" target="_top" xlink:title="The inverse Gaussian process is a non&#45;decreasing process where the increments are additive and are gi...">
<polygon fill="none" stroke="#000000" points="5.5,-191.5 5.5,-210.5 131.5,-210.5 131.5,-191.5 5.5,-191.5"/>
<text text-anchor="middle" x="68.5" y="-198.5" font-family="Helvetica,sans-Serif" font-size="10.00" fill="#000000">InverseGaussianProcess</text>
</a>
</g>
</g>
<!-- Node6&#45;&gt;Node5 -->
<g id="edge2" class="edge">
<title>Node6&#45;&gt;Node5</title>
<path fill="none" stroke="#191970" d="M80.7034,-183.0301C100.2529,-154.243 137.9232,-98.7724 153.0148,-76.5496"/>
<polygon fill="#191970" stroke="#191970" points="77.7671,-181.124 75.0445,-191.3631 83.558,-185.0567 77.7671,-181.124"/>
</g>
<!-- Node7 -->
<g id="node4" class="node">
<title>Node7</title>
<g id="a_node4"><a xlink:href="classumontreal_1_1ssj_1_1stochprocess_1_1StochasticProcess.html" target="_top" xlink:title="Abstract base class for a stochastic process &#160;sampled (or observed) at a finite number of time points...">
<polygon fill="none" stroke="#000000" points="0,-258.5 0,-277.5 99,-277.5 99,-258.5 0,-258.5"/>
<text text-anchor="middle" x="49.5" y="-265.5" font-family="Helvetica,sans-Serif" font-size="10.00" fill="#000000">StochasticProcess</text>
</a>
</g>
</g>
<!-- Node7&#45;&gt;Node6 -->
<g id="edge3" class="edge">
<title>Node7&#45;&gt;Node6</title>
<path fill="none" stroke="#191970" d="M55.0337,-248.4863C58.5665,-236.0286 62.9912,-220.4258 65.7828,-210.5817"/>
<polygon fill="#191970" stroke="#191970" points="51.5833,-247.825 52.2222,-258.4005 58.3178,-249.7348 51.5833,-247.825"/>
</g>
<!-- Node8 -->
<g id="node5" class="node">
<title>Node8</title>
<g id="a_node5"><a xlink:href="interfaceumontreal_1_1ssj_1_1rng_1_1RandomStream.html" target="_top" xlink:title="This interface defines the basic structures to handle multiple streams of uniform (pseudo)random numb...">
<polygon fill="none" stroke="#000000" points="117,-258.5 117,-277.5 202,-277.5 202,-258.5 117,-258.5"/>
<text text-anchor="middle" x="159.5" y="-265.5" font-family="Helvetica,sans-Serif" font-size="10.00" fill="#000000">RandomStream</text>
</a>
</g>
</g>
<!-- Node8&#45;&gt;Node5 -->
<g id="edge9" class="edge">
<title>Node8&#45;&gt;Node5</title>
<path fill="none" stroke="#9a32cd" stroke-dasharray="5,2" d="M159.5,-248.1373C159.5,-205.7215 159.5,-107.6332 159.5,-76.5974"/>
<polygon fill="#9a32cd" stroke="#9a32cd" points="156.0001,-248.3053 159.5,-258.3054 163.0001,-248.3054 156.0001,-248.3053"/>
<text text-anchor="middle" x="188" y="-165" font-family="Helvetica,sans-Serif" font-size="10.00" fill="#000000"> otherStream</text>
</g>
<!-- Node8&#45;&gt;Node6 -->
<g id="edge4" class="edge">
<title>Node8&#45;&gt;Node6</title>
<path fill="none" stroke="#9a32cd" stroke-dasharray="5,2" d="M132.0889,-253.332C125.1874,-249.2845 117.9202,-244.7043 111.5,-240 99.143,-230.9455 86.3008,-218.8942 77.9058,-210.5969"/>
<polygon fill="#9a32cd" stroke="#9a32cd" points="130.7355,-256.5883 141.1596,-258.4827 134.192,-250.5013 130.7355,-256.5883"/>
<text text-anchor="middle" x="128.5" y="-232" font-family="Helvetica,sans-Serif" font-size="10.00" fill="#000000"> stream</text>
</g>
<!-- Node10 -->
<g id="node7" class="node">
<title>Node10</title>
<g id="a_node7"><a xlink:href="classumontreal_1_1ssj_1_1randvar_1_1RandomVariateGen.html" target="_top" xlink:title="This is the base class for all random variate generators over the real line. ">
<polygon fill="none" stroke="#000000" points="188,-191.5 188,-210.5 289,-210.5 289,-191.5 188,-191.5"/>
<text text-anchor="middle" x="238.5" y="-198.5" font-family="Helvetica,sans-Serif" font-size="10.00" fill="#000000">RandomVariateGen</text>
</a>
</g>
</g>
<!-- Node8&#45;&gt;Node10 -->
<g id="edge8" class="edge">
<title>Node8&#45;&gt;Node10</title>
<path fill="none" stroke="#9a32cd" stroke-dasharray="5,2" d="M178.6024,-251.7992C193.7965,-238.9131 214.5398,-221.3207 227.2022,-210.5817"/>
<polygon fill="#9a32cd" stroke="#9a32cd" points="176.1815,-249.2631 170.8188,-258.4005 180.7092,-254.6017 176.1815,-249.2631"/>
<text text-anchor="middle" x="221.5" y="-232" font-family="Helvetica,sans-Serif" font-size="10.00" fill="#000000"> stream</text>
</g>
<!-- Node9 -->
<g id="node6" class="node">
<title>Node9</title>
<g id="a_node6"><a xlink:href="classumontreal_1_1ssj_1_1randvar_1_1NormalGen.html" target="_top" xlink:title="This class implements methods for generating random variates from the normal distribution ...">
<polygon fill="none" stroke="#000000" points="194.5,-124.5 194.5,-143.5 260.5,-143.5 260.5,-124.5 194.5,-124.5"/>
<text text-anchor="middle" x="227.5" y="-131.5" font-family="Helvetica,sans-Serif" font-size="10.00" fill="#000000">NormalGen</text>
</a>
</g>
</g>
<!-- Node9&#45;&gt;Node5 -->
<g id="edge5" class="edge">
<title>Node9&#45;&gt;Node5</title>
<path fill="none" stroke="#9a32cd" stroke-dasharray="5,2" d="M210.326,-117.0785C197.3201,-104.2639 179.9221,-87.1218 169.2247,-76.5817"/>
<polygon fill="#9a32cd" stroke="#9a32cd" points="208.1775,-119.8752 217.7573,-124.4005 213.0905,-114.8889 208.1775,-119.8752"/>
<text text-anchor="middle" x="224" y="-98" font-family="Helvetica,sans-Serif" font-size="10.00" fill="#000000"> normalGen</text>
</g>
<!-- Node10&#45;&gt;Node9 -->
<g id="edge6" class="edge">
<title>Node10&#45;&gt;Node9</title>
<path fill="none" stroke="#191970" d="M235.2963,-181.4863C233.251,-169.0286 230.6893,-153.4258 229.0731,-143.5817"/>
<polygon fill="#191970" stroke="#191970" points="231.85,-182.0997 236.924,-191.4005 238.7575,-180.9656 231.85,-182.0997"/>
</g>
<!-- Node11 -->
<g id="node8" class="node">
<title>Node11</title>
<g id="a_node8"><a xlink:href="interfaceumontreal_1_1ssj_1_1probdist_1_1Distribution.html" target="_top" xlink:title="This interface should be implemented by all classes supporting discrete and continuous distributions...">
<polygon fill="none" stroke="#000000" points="220.5,-258.5 220.5,-277.5 286.5,-277.5 286.5,-258.5 220.5,-258.5"/>
<text text-anchor="middle" x="253.5" y="-265.5" font-family="Helvetica,sans-Serif" font-size="10.00" fill="#000000">Distribution</text>
</a>
</g>
</g>
<!-- Node11&#45;&gt;Node10 -->
<g id="edge7" class="edge">
<title>Node11&#45;&gt;Node10</title>
<path fill="none" stroke="#9a32cd" stroke-dasharray="5,2" d="M249.1313,-248.4863C246.3422,-236.0286 242.849,-220.4258 240.6451,-210.5817"/>
<polygon fill="#9a32cd" stroke="#9a32cd" points="245.7506,-249.4068 251.3509,-258.4005 252.5815,-247.8774 245.7506,-249.4068"/>
<text text-anchor="middle" x="257" y="-232" font-family="Helvetica,sans-Serif" font-size="10.00" fill="#000000"> dist</text>
</g>
</g>
</svg>
