<?xml version="1.0" encoding="UTF-8" standalone="no"?>
<!DOCTYPE svg PUBLIC "-//W3C//DTD SVG 1.1//EN"
 "http://www.w3.org/Graphics/SVG/1.1/DTD/svg11.dtd">
<!-- Generated by graphviz version 2.40.1 (0)
 -->
<!-- Title: CDESan13 Pages: 1 -->
<svg width="286pt" height="152pt"
 viewBox="0.00 0.00 286.00 152.00" xmlns="http://www.w3.org/2000/svg" xmlns:xlink="http://www.w3.org/1999/xlink">
<g id="graph0" class="graph" transform="scale(1 1) rotate(0) translate(4 148)">
<title>CDESan13</title>
<!-- Node3 -->
<g id="node1" class="node">
<title>Node3</title>
<g id="a_node1"><a xlink:title="This class implements a CDE for a specific stochastic activity network with 9 nodes and 13 links,...">
<polygon fill="#bfbfbf" stroke="#000000" points="113,-.5 113,-19.5 179,-19.5 179,-.5 113,-.5"/>
<text text-anchor="middle" x="146" y="-7.5" font-family="Helvetica,sans-Serif" font-size="10.00" fill="#000000">CDESan13</text>
</a>
</g>
</g>
<!-- Node4 -->
<g id="node2" class="node">
<title>Node4</title>
<g id="a_node2"><a xlink:href="classumontreal_1_1ssj_1_1stat_1_1density_1_1ConditionalDensityEstimator.html" target="_top" xlink:title="This is an abstract class that implements an DensityEstimatorDoubleArray.">
<polygon fill="none" stroke="#000000" points="2.5,-67.5 2.5,-86.5 143.5,-86.5 143.5,-67.5 2.5,-67.5"/>
<text text-anchor="middle" x="73" y="-74.5" font-family="Helvetica,sans-Serif" font-size="10.00" fill="#000000">ConditionalDensityEstimator</text>
</a>
</g>
</g>
<!-- Node4&#45;&gt;Node3 -->
<g id="edge1" class="edge">
<title>Node4&#45;&gt;Node3</title>
<path fill="none" stroke="#191970" d="M91.0429,-60.44C105.046,-47.5879 123.9679,-30.2212 135.5603,-19.5817"/>
<polygon fill="#191970" stroke="#191970" points="88.4599,-58.0601 83.4591,-67.4005 93.1931,-63.2173 88.4599,-58.0601"/>
</g>
<!-- Node5 -->
<g id="node3" class="node">
<title>Node5</title>
<g id="a_node3"><a xlink:href="classumontreal_1_1ssj_1_1stat_1_1density_1_1DensityEstimatorDoubleArray.html" target="_top" xlink:title="Same as DensityEstimator but here the observations of the underlying model are &#45;dimensional.">
<polygon fill="none" stroke="#000000" points="0,-124.5 0,-143.5 146,-143.5 146,-124.5 0,-124.5"/>
<text text-anchor="middle" x="73" y="-131.5" font-family="Helvetica,sans-Serif" font-size="10.00" fill="#000000">DensityEstimatorDoubleArray</text>
</a>
</g>
</g>
<!-- Node5&#45;&gt;Node4 -->
<g id="edge2" class="edge">
<title>Node5&#45;&gt;Node4</title>
<path fill="none" stroke="#191970" d="M73,-114.2342C73,-104.8491 73,-94.0651 73,-86.5265"/>
<polygon fill="#191970" stroke="#191970" points="69.5001,-114.3307 73,-124.3307 76.5001,-114.3308 69.5001,-114.3307"/>
</g>
<!-- Node6 -->
<g id="node4" class="node">
<title>Node6</title>
<g id="a_node4"><a xlink:href="classumontreal_1_1ssj_1_1probdist_1_1ContinuousDistribution.html" target="_top" xlink:title="Classes implementing continuous distributions should inherit from this base class.">
<polygon fill="none" stroke="#000000" points="162,-67.5 162,-86.5 278,-86.5 278,-67.5 162,-67.5"/>
<text text-anchor="middle" x="220" y="-74.5" font-family="Helvetica,sans-Serif" font-size="10.00" fill="#000000">ContinuousDistribution</text>
</a>
</g>
</g>
<!-- Node6&#45;&gt;Node3 -->
<g id="edge3" class="edge">
<title>Node6&#45;&gt;Node3</title>
<path fill="none" stroke="#9a32cd" stroke-dasharray="5,2" d="M201.7099,-60.44C187.515,-47.5879 168.3339,-30.2212 156.5827,-19.5817"/>
<polygon fill="#9a32cd" stroke="#9a32cd" points="199.6355,-63.2833 209.3976,-67.4005 204.3337,-58.0942 199.6355,-63.2833"/>
<text text-anchor="middle" x="197.5" y="-41" font-family="Helvetica,sans-Serif" font-size="10.00" fill="#000000"> dist</text>
</g>
<!-- Node7 -->
<g id="node5" class="node">
<title>Node7</title>
<g id="a_node5"><a xlink:href="interfaceumontreal_1_1ssj_1_1probdist_1_1Distribution.html" target="_top" xlink:title="This interface should be implemented by all classes supporting discrete and continuous distributions.">
<polygon fill="none" stroke="#000000" points="187,-124.5 187,-143.5 253,-143.5 253,-124.5 187,-124.5"/>
<text text-anchor="middle" x="220" y="-131.5" font-family="Helvetica,sans-Serif" font-size="10.00" fill="#000000">Distribution</text>
</a>
</g>
</g>
<!-- Node7&#45;&gt;Node6 -->
<g id="edge4" class="edge">
<title>Node7&#45;&gt;Node6</title>
<path fill="none" stroke="#191970" d="M220,-114.2342C220,-104.8491 220,-94.0651 220,-86.5265"/>
<polygon fill="#191970" stroke="#191970" points="216.5001,-114.3307 220,-124.3307 223.5001,-114.3308 216.5001,-114.3307"/>
</g>
</g>
</svg>
