<?xml version="1.0" encoding="UTF-8" standalone="no"?>
<!DOCTYPE svg PUBLIC "-//W3C//DTD SVG 1.1//EN"
 "http://www.w3.org/Graphics/SVG/1.1/DTD/svg11.dtd">
<!-- Generated by graphviz version 2.38.0 (20140413.2041)
 -->
<!-- Title: OrdinaryLatticeSearch Pages: 1 -->
<svg width="121pt" height="163pt"
 viewBox="0.00 0.00 121.00 163.00" xmlns="http://www.w3.org/2000/svg" xmlns:xlink="http://www.w3.org/1999/xlink">
<g id="graph0" class="graph" transform="scale(1 1) rotate(0) translate(4 159)">
<title>OrdinaryLatticeSearch</title>
<!-- Node2 -->
<g id="node1" class="node"><title>Node2</title>
<polygon fill="#bfbfbf" stroke="black" points="0,-0.5 0,-19.5 113,-19.5 113,-0.5 0,-0.5"/>
<text text-anchor="middle" x="56.5" y="-7.5" font-family="Helvetica,sans-Serif" font-size="10.00">OrdinaryLatticeSearch</text>
</g>
<!-- Node3 -->
<g id="node2" class="node"><title>Node3</title>
<g id="a_node2"><a xlink:href="classumontreal_1_1ssj_1_1latnetbuilder_1_1Search.html" target="_top" xlink:title="Abstract class for the search of highly uniform point sets with LatNet Builder. ">
<polygon fill="none" stroke="black" points="33,-57.5 33,-76.5 80,-76.5 80,-57.5 33,-57.5"/>
<text text-anchor="middle" x="56.5" y="-64.5" font-family="Helvetica,sans-Serif" font-size="10.00">Search</text>
</a>
</g>
</g>
<!-- Node3&#45;&gt;Node2 -->
<g id="edge1" class="edge"><title>Node3&#45;&gt;Node2</title>
<path fill="none" stroke="midnightblue" d="M56.5,-47.1166C56.5,-37.8173 56.5,-27.0557 56.5,-19.7149"/>
<polygon fill="midnightblue" stroke="midnightblue" points="53.0001,-47.4062 56.5,-57.4062 60.0001,-47.4063 53.0001,-47.4062"/>
</g>
<!-- Node4 -->
<g id="node3" class="node"><title>Node4</title>
<polygon fill="none" stroke="#bfbfbf" points="7,-135.5 7,-154.5 106,-154.5 106,-135.5 7,-135.5"/>
<text text-anchor="middle" x="56.5" y="-142.5" font-family="Helvetica,sans-Serif" font-size="10.00">ArrayList&lt; String &gt;</text>
</g>
<!-- Node4&#45;&gt;Node3 -->
<g id="edge2" class="edge"><title>Node4&#45;&gt;Node3</title>
<path fill="none" stroke="#9a32cd" stroke-dasharray="5,2" d="M56.5,-125.224C56.5,-109.697 56.5,-88.3582 56.5,-76.6165"/>
<polygon fill="#9a32cd" stroke="#9a32cd" points="53.0001,-125.282 56.5,-135.282 60.0001,-125.282 53.0001,-125.282"/>
<text text-anchor="middle" x="73.5" y="-109" font-family="Helvetica,sans-Serif" font-size="10.00"> filters</text>
<text text-anchor="middle" x="73.5" y="-98" font-family="Helvetica,sans-Serif" font-size="10.00">weights</text>
</g>
</g>
</svg>
