<?xml version="1.0" encoding="UTF-8" standalone="no"?>
<!DOCTYPE svg PUBLIC "-//W3C//DTD SVG 1.1//EN"
 "http://www.w3.org/Graphics/SVG/1.1/DTD/svg11.dtd">
<!-- Generated by graphviz version 2.38.0 (20140413.2041)
 -->
<!-- Title: SSJXYSeriesCollection Pages: 1 -->
<svg width="423pt" height="140pt"
 viewBox="0.00 0.00 422.50 140.00" xmlns="http://www.w3.org/2000/svg" xmlns:xlink="http://www.w3.org/1999/xlink">
<g id="graph0" class="graph" transform="scale(1 1) rotate(0) translate(4 136)">
<title>SSJXYSeriesCollection</title>
<!-- Node0 -->
<g id="node1" class="node"><title>Node0</title>
<polygon fill="#bfbfbf" stroke="black" points="153,-112.5 153,-131.5 273,-131.5 273,-112.5 153,-112.5"/>
<text text-anchor="middle" x="213" y="-119.5" font-family="Helvetica,sans-Serif" font-size="10.00">SSJXYSeriesCollection</text>
</g>
<!-- Node1 -->
<g id="node2" class="node"><title>Node1</title>
<g id="a_node2"><a xlink:href="classumontreal_1_1ssj_1_1charts_1_1EmpiricalSeriesCollection.html" target="_top" xlink:title="Stores data used in a EmpiricalChart. ">
<polygon fill="none" stroke="black" points="0,-56.5 0,-75.5 128,-75.5 128,-56.5 0,-56.5"/>
<text text-anchor="middle" x="64" y="-63.5" font-family="Helvetica,sans-Serif" font-size="10.00">EmpiricalSeriesCollection</text>
</a>
</g>
</g>
<!-- Node0&#45;&gt;Node1 -->
<g id="edge1" class="edge"><title>Node0&#45;&gt;Node1</title>
<path fill="none" stroke="midnightblue" d="M179.629,-108.906C151.616,-98.7536 112.304,-84.5063 87.499,-75.5164"/>
<polygon fill="midnightblue" stroke="midnightblue" points="178.796,-112.327 189.391,-112.444 181.181,-105.746 178.796,-112.327"/>
</g>
<!-- Node2 -->
<g id="node3" class="node"><title>Node2</title>
<g id="a_node3"><a xlink:href="classumontreal_1_1ssj_1_1charts_1_1HistogramSeriesCollection.html" target="_top" xlink:title="Stores data used in a HistogramChart. ">
<polygon fill="none" stroke="black" points="146.5,-56.5 146.5,-75.5 279.5,-75.5 279.5,-56.5 146.5,-56.5"/>
<text text-anchor="middle" x="213" y="-63.5" font-family="Helvetica,sans-Serif" font-size="10.00">HistogramSeriesCollection</text>
</a>
</g>
</g>
<!-- Node0&#45;&gt;Node2 -->
<g id="edge2" class="edge"><title>Node0&#45;&gt;Node2</title>
<path fill="none" stroke="midnightblue" d="M213,-101.805C213,-92.9102 213,-82.7798 213,-75.7511"/>
<polygon fill="midnightblue" stroke="midnightblue" points="209.5,-102.083 213,-112.083 216.5,-102.083 209.5,-102.083"/>
</g>
<!-- Node3 -->
<g id="node4" class="node"><title>Node3</title>
<g id="a_node4"><a xlink:href="classumontreal_1_1ssj_1_1charts_1_1XYListSeriesCollection.html" target="_top" xlink:title="This class extends umontreal.ssj.charts.SSJXYSeriesCollection. ">
<polygon fill="none" stroke="black" points="297.5,-56.5 297.5,-75.5 414.5,-75.5 414.5,-56.5 297.5,-56.5"/>
<text text-anchor="middle" x="356" y="-63.5" font-family="Helvetica,sans-Serif" font-size="10.00">XYListSeriesCollection</text>
</a>
</g>
</g>
<!-- Node0&#45;&gt;Node3 -->
<g id="edge3" class="edge"><title>Node0&#45;&gt;Node3</title>
<path fill="none" stroke="midnightblue" d="M245.027,-108.906C271.912,-98.7536 309.641,-84.5063 333.447,-75.5164"/>
<polygon fill="midnightblue" stroke="midnightblue" points="243.778,-105.636 235.659,-112.444 246.25,-112.185 243.778,-105.636"/>
</g>
<!-- Node4 -->
<g id="node5" class="node"><title>Node4</title>
<g id="a_node5"><a xlink:href="classumontreal_1_1ssj_1_1charts_1_1YListSeriesCollection.html" target="_top" xlink:title="This class extends umontreal.ssj.charts.XYListSeriesCollection. ">
<polygon fill="none" stroke="black" points="301,-0.5 301,-19.5 411,-19.5 411,-0.5 301,-0.5"/>
<text text-anchor="middle" x="356" y="-7.5" font-family="Helvetica,sans-Serif" font-size="10.00">YListSeriesCollection</text>
</a>
</g>
</g>
<!-- Node3&#45;&gt;Node4 -->
<g id="edge4" class="edge"><title>Node3&#45;&gt;Node4</title>
<path fill="none" stroke="midnightblue" d="M356,-45.8045C356,-36.9102 356,-26.7798 356,-19.7511"/>
<polygon fill="midnightblue" stroke="midnightblue" points="352.5,-46.083 356,-56.083 359.5,-46.083 352.5,-46.083"/>
</g>
</g>
</svg>
