<?xml version="1.0" encoding="UTF-8" standalone="no"?>
<!DOCTYPE svg PUBLIC "-//W3C//DTD SVG 1.1//EN"
 "http://www.w3.org/Graphics/SVG/1.1/DTD/svg11.dtd">
<!-- Generated by graphviz version 2.40.1 (20161225.0304)
 -->
<!-- Title: NormalInverseGaussianProcess Pages: 1 -->
<svg width="370pt" height="251pt"
 viewBox="0.00 0.00 370.00 251.00" xmlns="http://www.w3.org/2000/svg" xmlns:xlink="http://www.w3.org/1999/xlink">
<g id="graph0" class="graph" transform="scale(1 1) rotate(0) translate(4 247)">
<title>NormalInverseGaussianProcess</title>
<!-- Node2 -->
<g id="node1" class="node">
<title>Node2</title>
<polygon fill="#bfbfbf" stroke="#000000" points="111.5,-.5 111.5,-19.5 269.5,-19.5 269.5,-.5 111.5,-.5"/>
<text text-anchor="middle" x="190.5" y="-7.5" font-family="Helvetica,sans-Serif" font-size="10.00" fill="#000000">NormalInverseGaussianProcess</text>
</g>
<!-- Node3 -->
<g id="node2" class="node">
<title>Node3</title>
<g id="a_node2"><a xlink:href="classumontreal_1_1ssj_1_1stochprocess_1_1StochasticProcess.html" target="_top" xlink:title="Abstract base class for a stochastic process &#160;sampled (or observed) at a finite number of time points...">
<polygon fill="none" stroke="#000000" points="0,-156.5 0,-175.5 99,-175.5 99,-156.5 0,-156.5"/>
<text text-anchor="middle" x="49.5" y="-163.5" font-family="Helvetica,sans-Serif" font-size="10.00" fill="#000000">StochasticProcess</text>
</a>
</g>
</g>
<!-- Node3&#45;&gt;Node2 -->
<g id="edge1" class="edge">
<title>Node3&#45;&gt;Node2</title>
<path fill="none" stroke="#191970" d="M46.0726,-146.5051C43.4082,-124.9356 42.5876,-90.17 59.5,-67 77.9981,-41.6576 110.2018,-27.4426 138.0493,-19.5461"/>
<polygon fill="#191970" stroke="#191970" points="42.6185,-147.0731 47.5499,-156.4503 49.5425,-146.0446 42.6185,-147.0731"/>
</g>
<!-- Node8 -->
<g id="node7" class="node">
<title>Node8</title>
<g id="a_node7"><a xlink:href="classumontreal_1_1ssj_1_1stochprocess_1_1InverseGaussianProcess.html" target="_top" xlink:title="The inverse Gaussian process is a non&#45;decreasing process where the increments are additive and are gi...">
<polygon fill="none" stroke="#000000" points="68.5,-67.5 68.5,-86.5 194.5,-86.5 194.5,-67.5 68.5,-67.5"/>
<text text-anchor="middle" x="131.5" y="-74.5" font-family="Helvetica,sans-Serif" font-size="10.00" fill="#000000">InverseGaussianProcess</text>
</a>
</g>
</g>
<!-- Node3&#45;&gt;Node8 -->
<g id="edge7" class="edge">
<title>Node3&#45;&gt;Node8</title>
<path fill="none" stroke="#191970" d="M65.1232,-149.0431C82.133,-130.5812 108.747,-101.6954 122.5391,-86.7259"/>
<polygon fill="#191970" stroke="#191970" points="62.4774,-146.7495 58.2754,-156.4754 67.6254,-151.4926 62.4774,-146.7495"/>
</g>
<!-- Node4 -->
<g id="node3" class="node">
<title>Node4</title>
<g id="a_node3"><a xlink:href="classumontreal_1_1ssj_1_1randvar_1_1NormalGen.html" target="_top" xlink:title="This class implements methods for generating random variates from the normal distribution ...">
<polygon fill="none" stroke="#000000" points="264.5,-67.5 264.5,-86.5 330.5,-86.5 330.5,-67.5 264.5,-67.5"/>
<text text-anchor="middle" x="297.5" y="-74.5" font-family="Helvetica,sans-Serif" font-size="10.00" fill="#000000">NormalGen</text>
</a>
</g>
</g>
<!-- Node4&#45;&gt;Node2 -->
<g id="edge2" class="edge">
<title>Node4&#45;&gt;Node2</title>
<path fill="none" stroke="#9a32cd" stroke-dasharray="5,2" d="M274.0499,-61.8368C262.7394,-54.567 248.9539,-45.7702 236.5,-38 226.5057,-31.7644 215.2061,-24.884 206.3072,-19.5041"/>
<polygon fill="#9a32cd" stroke="#9a32cd" points="272.2152,-64.8183 282.5175,-67.291 276.0058,-58.9334 272.2152,-64.8183"/>
<text text-anchor="middle" x="279" y="-41" font-family="Helvetica,sans-Serif" font-size="10.00" fill="#000000"> normalGen</text>
</g>
<!-- Node5 -->
<g id="node4" class="node">
<title>Node5</title>
<g id="a_node4"><a xlink:href="classumontreal_1_1ssj_1_1randvar_1_1RandomVariateGen.html" target="_top" xlink:title="This is the base class for all random variate generators over the real line. ">
<polygon fill="none" stroke="#000000" points="261,-156.5 261,-175.5 362,-175.5 362,-156.5 261,-156.5"/>
<text text-anchor="middle" x="311.5" y="-163.5" font-family="Helvetica,sans-Serif" font-size="10.00" fill="#000000">RandomVariateGen</text>
</a>
</g>
</g>
<!-- Node5&#45;&gt;Node4 -->
<g id="edge3" class="edge">
<title>Node5&#45;&gt;Node4</title>
<path fill="none" stroke="#191970" d="M308.4324,-146.4987C305.5254,-128.0185 301.2791,-101.0241 299.0299,-86.7259"/>
<polygon fill="#191970" stroke="#191970" points="304.9903,-147.1408 310.0018,-156.4754 311.9052,-146.053 304.9903,-147.1408"/>
</g>
<!-- Node6 -->
<g id="node5" class="node">
<title>Node6</title>
<g id="a_node5"><a xlink:href="interfaceumontreal_1_1ssj_1_1probdist_1_1Distribution.html" target="_top" xlink:title="This interface should be implemented by all classes supporting discrete and continuous distributions...">
<polygon fill="none" stroke="#000000" points="282.5,-223.5 282.5,-242.5 348.5,-242.5 348.5,-223.5 282.5,-223.5"/>
<text text-anchor="middle" x="315.5" y="-230.5" font-family="Helvetica,sans-Serif" font-size="10.00" fill="#000000">Distribution</text>
</a>
</g>
</g>
<!-- Node6&#45;&gt;Node5 -->
<g id="edge4" class="edge">
<title>Node6&#45;&gt;Node5</title>
<path fill="none" stroke="#9a32cd" stroke-dasharray="5,2" d="M314.3124,-213.1079C313.5725,-200.714 312.6538,-185.3263 312.072,-175.5817"/>
<polygon fill="#9a32cd" stroke="#9a32cd" points="310.8371,-213.6269 314.9269,-223.4005 317.8246,-213.2097 310.8371,-213.6269"/>
<text text-anchor="middle" x="324" y="-197" font-family="Helvetica,sans-Serif" font-size="10.00" fill="#000000"> dist</text>
</g>
<!-- Node7 -->
<g id="node6" class="node">
<title>Node7</title>
<g id="a_node6"><a xlink:href="interfaceumontreal_1_1ssj_1_1rng_1_1RandomStream.html" target="_top" xlink:title="This interface defines the basic structures to handle multiple streams of uniform (pseudo)random numb...">
<polygon fill="none" stroke="#000000" points="179,-223.5 179,-242.5 264,-242.5 264,-223.5 179,-223.5"/>
<text text-anchor="middle" x="221.5" y="-230.5" font-family="Helvetica,sans-Serif" font-size="10.00" fill="#000000">RandomStream</text>
</a>
</g>
</g>
<!-- Node7&#45;&gt;Node2 -->
<g id="edge9" class="edge">
<title>Node7&#45;&gt;Node2</title>
<path fill="none" stroke="#9a32cd" stroke-dasharray="5,2" d="M221.4291,-213.1997C221.0735,-170.3071 219.0967,-70.0891 208.5,-38 206.3255,-31.415 202.2345,-24.8511 198.5015,-19.7354"/>
<polygon fill="#9a32cd" stroke="#9a32cd" points="217.9292,-213.2574 221.4905,-223.2358 224.9291,-213.2145 217.9292,-213.2574"/>
<text text-anchor="middle" x="257.5" y="-130" font-family="Helvetica,sans-Serif" font-size="10.00" fill="#000000"> streamBrownian</text>
<text text-anchor="middle" x="257.5" y="-119" font-family="Helvetica,sans-Serif" font-size="10.00" fill="#000000">streamIG1</text>
<text text-anchor="middle" x="257.5" y="-108" font-family="Helvetica,sans-Serif" font-size="10.00" fill="#000000">streamIG2</text>
</g>
<!-- Node7&#45;&gt;Node5 -->
<g id="edge5" class="edge">
<title>Node7&#45;&gt;Node5</title>
<path fill="none" stroke="#9a32cd" stroke-dasharray="5,2" d="M242.7831,-217.1559C260.1335,-204.2395 284.07,-186.4201 298.6291,-175.5817"/>
<polygon fill="#9a32cd" stroke="#9a32cd" points="240.3261,-214.6216 234.3948,-223.4005 244.5062,-220.2365 240.3261,-214.6216"/>
<text text-anchor="middle" x="289.5" y="-197" font-family="Helvetica,sans-Serif" font-size="10.00" fill="#000000"> stream</text>
</g>
<!-- Node7&#45;&gt;Node8 -->
<g id="edge8" class="edge">
<title>Node7&#45;&gt;Node8</title>
<path fill="none" stroke="#9a32cd" stroke-dasharray="5,2" d="M205.0344,-215.6719C195.321,-204.8477 183.2563,-190.2932 174.5,-176 155.7053,-145.3209 140.9152,-104.973 134.6948,-86.7164"/>
<polygon fill="#9a32cd" stroke="#9a32cd" points="202.5672,-218.1598 211.9101,-223.1559 207.722,-213.424 202.5672,-218.1598"/>
<text text-anchor="middle" x="191.5" y="-163.5" font-family="Helvetica,sans-Serif" font-size="10.00" fill="#000000"> stream</text>
</g>
<!-- Node8&#45;&gt;Node2 -->
<g id="edge6" class="edge">
<title>Node8&#45;&gt;Node2</title>
<path fill="none" stroke="#9a32cd" stroke-dasharray="5,2" d="M144.5375,-58.9143C149.6209,-52.1736 155.6299,-44.5684 161.5,-38 167.1895,-31.6337 174.0424,-24.9762 179.6578,-19.7508"/>
<polygon fill="#9a32cd" stroke="#9a32cd" points="141.4025,-57.2679 138.2792,-67.3919 147.0342,-61.4253 141.4025,-57.2679"/>
<text text-anchor="middle" x="185" y="-41" font-family="Helvetica,sans-Serif" font-size="10.00" fill="#000000"> igProcess</text>
</g>
</g>
</svg>
