<?xml version="1.0" encoding="UTF-8" standalone="no"?>
<!DOCTYPE svg PUBLIC "-//W3C//DTD SVG 1.1//EN"
 "http://www.w3.org/Graphics/SVG/1.1/DTD/svg11.dtd">
<!-- Generated by graphviz version 2.40.1 (20161225.0304)
 -->
<!-- Title: VarianceGammaProcess Pages: 1 -->
<svg width="350pt" height="296pt"
 viewBox="0.00 0.00 349.50 296.00" xmlns="http://www.w3.org/2000/svg" xmlns:xlink="http://www.w3.org/1999/xlink">
<g id="graph0" class="graph" transform="scale(1 1) rotate(0) translate(4 292)">
<title>VarianceGammaProcess</title>
<!-- Node6 -->
<g id="node1" class="node">
<title>Node6</title>
<polygon fill="#bfbfbf" stroke="#000000" points="78.5,-.5 78.5,-19.5 203.5,-19.5 203.5,-.5 78.5,-.5"/>
<text text-anchor="middle" x="141" y="-7.5" font-family="Helvetica,sans-Serif" font-size="10.00" fill="#000000">VarianceGammaProcess</text>
</g>
<!-- Node7 -->
<g id="node2" class="node">
<title>Node7</title>
<g id="a_node2"><a xlink:href="classumontreal_1_1ssj_1_1stochprocess_1_1StochasticProcess.html" target="_top" xlink:title="Abstract base class for a stochastic process &#160;sampled (or observed) at a finite number of time points...">
<polygon fill="none" stroke="#000000" points="84.5,-134.5 84.5,-153.5 183.5,-153.5 183.5,-134.5 84.5,-134.5"/>
<text text-anchor="middle" x="134" y="-141.5" font-family="Helvetica,sans-Serif" font-size="10.00" fill="#000000">StochasticProcess</text>
</a>
</g>
</g>
<!-- Node7&#45;&gt;Node6 -->
<g id="edge1" class="edge">
<title>Node7&#45;&gt;Node6</title>
<path fill="none" stroke="#191970" d="M135.0383,-124.124C136.5672,-94.8572 139.3654,-41.2914 140.5011,-19.5496"/>
<polygon fill="#191970" stroke="#191970" points="131.53,-124.194 134.5034,-134.3631 138.5204,-124.5593 131.53,-124.194"/>
</g>
<!-- Node8 -->
<g id="node3" class="node">
<title>Node8</title>
<g id="a_node3"><a xlink:href="classumontreal_1_1ssj_1_1stochprocess_1_1BrownianMotion.html" target="_top" xlink:title="This class represents a Brownian motion process , sampled at times . ">
<polygon fill="none" stroke="#000000" points="27,-67.5 27,-86.5 113,-86.5 113,-67.5 27,-67.5"/>
<text text-anchor="middle" x="70" y="-74.5" font-family="Helvetica,sans-Serif" font-size="10.00" fill="#000000">BrownianMotion</text>
</a>
</g>
</g>
<!-- Node7&#45;&gt;Node8 -->
<g id="edge3" class="edge">
<title>Node7&#45;&gt;Node8</title>
<path fill="none" stroke="#191970" d="M117.8362,-127.0785C105.5953,-114.2639 89.2208,-97.1218 79.1526,-86.5817"/>
<polygon fill="#191970" stroke="#191970" points="115.3921,-129.587 124.8304,-134.4005 120.4539,-124.7518 115.3921,-129.587"/>
</g>
<!-- Node13 -->
<g id="node8" class="node">
<title>Node13</title>
<g id="a_node8"><a xlink:href="classumontreal_1_1ssj_1_1stochprocess_1_1GammaProcess.html" target="_top" xlink:title="This class represents a gamma process   (page 82) &#160;with mean parameter &#160;and variance parameter ...">
<polygon fill="none" stroke="#000000" points="173.5,-67.5 173.5,-86.5 260.5,-86.5 260.5,-67.5 173.5,-67.5"/>
<text text-anchor="middle" x="217" y="-74.5" font-family="Helvetica,sans-Serif" font-size="10.00" fill="#000000">GammaProcess</text>
</a>
</g>
</g>
<!-- Node7&#45;&gt;Node13 -->
<g id="edge9" class="edge">
<title>Node7&#45;&gt;Node13</title>
<path fill="none" stroke="#191970" d="M154.0697,-127.7992C170.033,-114.9131 191.8266,-97.3207 205.1302,-86.5817"/>
<polygon fill="#191970" stroke="#191970" points="151.4746,-125.3959 145.8919,-134.4005 155.8715,-130.8427 151.4746,-125.3959"/>
</g>
<!-- Node8&#45;&gt;Node6 -->
<g id="edge2" class="edge">
<title>Node8&#45;&gt;Node6</title>
<path fill="none" stroke="#9a32cd" stroke-dasharray="5,2" d="M85.9682,-59.9162C92.6348,-52.9686 100.5496,-44.9547 108,-38 114.8107,-31.6425 122.7659,-24.8745 129.1591,-19.5852"/>
<polygon fill="#9a32cd" stroke="#9a32cd" points="83.1604,-57.7905 78.8182,-67.4547 88.2393,-62.6077 83.1604,-57.7905"/>
<text text-anchor="middle" x="117.5" y="-41" font-family="Helvetica,sans-Serif" font-size="10.00" fill="#000000"> BM</text>
</g>
<!-- Node9 -->
<g id="node4" class="node">
<title>Node9</title>
<g id="a_node4"><a xlink:href="classumontreal_1_1ssj_1_1randvar_1_1NormalGen.html" target="_top" xlink:title="This class implements methods for generating random variates from the normal distribution ...">
<polygon fill="none" stroke="#000000" points="0,-134.5 0,-153.5 66,-153.5 66,-134.5 0,-134.5"/>
<text text-anchor="middle" x="33" y="-141.5" font-family="Helvetica,sans-Serif" font-size="10.00" fill="#000000">NormalGen</text>
</a>
</g>
</g>
<!-- Node9&#45;&gt;Node8 -->
<g id="edge4" class="edge">
<title>Node9&#45;&gt;Node8</title>
<path fill="none" stroke="#9a32cd" stroke-dasharray="5,2" d="M43.1557,-125.6099C50.1307,-112.9795 59.1076,-96.7241 64.7086,-86.5817"/>
<polygon fill="#9a32cd" stroke="#9a32cd" points="40.0716,-123.9547 38.3012,-134.4005 46.1993,-127.3386 40.0716,-123.9547"/>
<text text-anchor="middle" x="63.5" y="-108" font-family="Helvetica,sans-Serif" font-size="10.00" fill="#000000"> gen</text>
</g>
<!-- Node10 -->
<g id="node5" class="node">
<title>Node10</title>
<g id="a_node5"><a xlink:href="classumontreal_1_1ssj_1_1randvar_1_1RandomVariateGen.html" target="_top" xlink:title="This is the base class for all random variate generators over the real line. ">
<polygon fill="none" stroke="#000000" points="161.5,-201.5 161.5,-220.5 262.5,-220.5 262.5,-201.5 161.5,-201.5"/>
<text text-anchor="middle" x="212" y="-208.5" font-family="Helvetica,sans-Serif" font-size="10.00" fill="#000000">RandomVariateGen</text>
</a>
</g>
</g>
<!-- Node10&#45;&gt;Node9 -->
<g id="edge5" class="edge">
<title>Node10&#45;&gt;Node9</title>
<path fill="none" stroke="#191970" d="M176.5971,-197.7487C141.8019,-184.7247 89.5476,-165.1659 58.5988,-153.5817"/>
<polygon fill="#191970" stroke="#191970" points="175.7613,-201.1729 186.3537,-201.4005 178.2152,-194.6171 175.7613,-201.1729"/>
</g>
<!-- Node14 -->
<g id="node9" class="node">
<title>Node14</title>
<g id="a_node9"><a xlink:href="classumontreal_1_1ssj_1_1randvar_1_1GammaGen.html" target="_top" xlink:title="This class implements random variate generators for the gamma distribution. ">
<polygon fill="none" stroke="#000000" points="201.5,-134.5 201.5,-153.5 270.5,-153.5 270.5,-134.5 201.5,-134.5"/>
<text text-anchor="middle" x="236" y="-141.5" font-family="Helvetica,sans-Serif" font-size="10.00" fill="#000000">GammaGen</text>
</a>
</g>
</g>
<!-- Node10&#45;&gt;Node14 -->
<g id="edge11" class="edge">
<title>Node10&#45;&gt;Node14</title>
<path fill="none" stroke="#191970" d="M218.8551,-191.8628C223.3393,-179.3444 229.0059,-163.5252 232.5678,-153.5817"/>
<polygon fill="#191970" stroke="#191970" points="215.516,-190.806 215.4386,-201.4005 222.1059,-193.1666 215.516,-190.806"/>
</g>
<!-- Node11 -->
<g id="node6" class="node">
<title>Node11</title>
<g id="a_node6"><a xlink:href="interfaceumontreal_1_1ssj_1_1probdist_1_1Distribution.html" target="_top" xlink:title="This interface should be implemented by all classes supporting discrete and continuous distributions...">
<polygon fill="none" stroke="#000000" points="172,-268.5 172,-287.5 238,-287.5 238,-268.5 172,-268.5"/>
<text text-anchor="middle" x="205" y="-275.5" font-family="Helvetica,sans-Serif" font-size="10.00" fill="#000000">Distribution</text>
</a>
</g>
</g>
<!-- Node11&#45;&gt;Node10 -->
<g id="edge6" class="edge">
<title>Node11&#45;&gt;Node10</title>
<path fill="none" stroke="#9a32cd" stroke-dasharray="5,2" d="M206.2693,-258.2365C206.7328,-252.0675 207.3146,-245.244 208,-239 208.6751,-232.8498 209.6547,-225.9707 210.4754,-220.5701"/>
<polygon fill="#9a32cd" stroke="#9a32cd" points="202.767,-258.1489 205.5657,-268.3674 209.7502,-258.6339 202.767,-258.1489"/>
<text text-anchor="middle" x="217.5" y="-242" font-family="Helvetica,sans-Serif" font-size="10.00" fill="#000000"> dist</text>
</g>
<!-- Node12 -->
<g id="node7" class="node">
<title>Node12</title>
<g id="a_node7"><a xlink:href="interfaceumontreal_1_1ssj_1_1rng_1_1RandomStream.html" target="_top" xlink:title="This interface defines the basic structures to handle multiple streams of uniform (pseudo)random numb...">
<polygon fill="none" stroke="#000000" points="256.5,-268.5 256.5,-287.5 341.5,-287.5 341.5,-268.5 256.5,-268.5"/>
<text text-anchor="middle" x="299" y="-275.5" font-family="Helvetica,sans-Serif" font-size="10.00" fill="#000000">RandomStream</text>
</a>
</g>
</g>
<!-- Node12&#45;&gt;Node10 -->
<g id="edge7" class="edge">
<title>Node12&#45;&gt;Node10</title>
<path fill="none" stroke="#9a32cd" stroke-dasharray="5,2" d="M271.0831,-263.3426C264.2888,-259.3401 257.1985,-254.7784 251,-250 239.4729,-241.1139 227.8852,-229.031 220.3726,-220.6802"/>
<polygon fill="#9a32cd" stroke="#9a32cd" points="269.6267,-266.5401 280.0531,-268.4218 273.0759,-260.4488 269.6267,-266.5401"/>
<text text-anchor="middle" x="268" y="-242" font-family="Helvetica,sans-Serif" font-size="10.00" fill="#000000"> stream</text>
</g>
<!-- Node12&#45;&gt;Node13 -->
<g id="edge12" class="edge">
<title>Node12&#45;&gt;Node13</title>
<path fill="none" stroke="#9a32cd" stroke-dasharray="5,2" d="M299.0998,-257.9042C298.6072,-229.3844 295.3213,-175.9709 279,-134 273.3254,-119.4077 270.1579,-115.9835 259,-105 251.7554,-97.8686 242.4527,-91.451 234.4445,-86.5646"/>
<polygon fill="#9a32cd" stroke="#9a32cd" points="295.6017,-258.2043 299.1711,-268.1797 302.6015,-258.1556 295.6017,-258.2043"/>
<text text-anchor="middle" x="310" y="-175" font-family="Helvetica,sans-Serif" font-size="10.00" fill="#000000"> stream</text>
</g>
<!-- Node13&#45;&gt;Node6 -->
<g id="edge8" class="edge">
<title>Node13&#45;&gt;Node6</title>
<path fill="none" stroke="#9a32cd" stroke-dasharray="5,2" d="M198.2156,-60.44C183.637,-47.5879 163.9375,-30.2212 151.8687,-19.5817"/>
<polygon fill="#9a32cd" stroke="#9a32cd" points="196.2952,-63.413 206.1111,-67.4005 200.9243,-58.1621 196.2952,-63.413"/>
<text text-anchor="middle" x="213" y="-41" font-family="Helvetica,sans-Serif" font-size="10.00" fill="#000000"> randomTime</text>
</g>
<!-- Node14&#45;&gt;Node13 -->
<g id="edge10" class="edge">
<title>Node14&#45;&gt;Node13</title>
<path fill="none" stroke="#9a32cd" stroke-dasharray="5,2" d="M230.4663,-124.4863C226.9335,-112.0286 222.5088,-96.4258 219.7172,-86.5817"/>
<polygon fill="#9a32cd" stroke="#9a32cd" points="227.1822,-125.7348 233.2778,-134.4005 233.9167,-123.825 227.1822,-125.7348"/>
<text text-anchor="middle" x="241.5" y="-108" font-family="Helvetica,sans-Serif" font-size="10.00" fill="#000000"> Ggen</text>
</g>
</g>
</svg>
