<?xml version="1.0" encoding="UTF-8" standalone="no"?>
<!DOCTYPE svg PUBLIC "-//W3C//DTD SVG 1.1//EN"
 "http://www.w3.org/Graphics/SVG/1.1/DTD/svg11.dtd">
<!-- Generated by graphviz version 2.40.1 (0)
 -->
<!-- Title: CycleBasedPointSet Pages: 1 -->
<svg width="116pt" height="152pt"
 viewBox="0.00 0.00 115.50 152.00" xmlns="http://www.w3.org/2000/svg" xmlns:xlink="http://www.w3.org/1999/xlink">
<g id="graph0" class="graph" transform="scale(1 1) rotate(0) translate(4 148)">
<title>CycleBasedPointSet</title>
<!-- Node7 -->
<g id="node1" class="node">
<title>Node7</title>
<g id="a_node1"><a xlink:title="This abstract class provides the basic structures for storing and manipulating a highly uniform point...">
<polygon fill="#bfbfbf" stroke="#000000" points="0,-.5 0,-19.5 107,-19.5 107,-.5 0,-.5"/>
<text text-anchor="middle" x="53.5" y="-7.5" font-family="Helvetica,sans-Serif" font-size="10.00" fill="#000000">CycleBasedPointSet</text>
</a>
</g>
</g>
<!-- Node8 -->
<g id="node2" class="node">
<title>Node8</title>
<g id="a_node2"><a xlink:href="classumontreal_1_1ssj_1_1hups_1_1PointSet.html" target="_top" xlink:title="This abstract class defines the basic methods for accessing and manipulating point sets.">
<polygon fill="none" stroke="#000000" points="26.5,-57.5 26.5,-76.5 80.5,-76.5 80.5,-57.5 26.5,-57.5"/>
<text text-anchor="middle" x="53.5" y="-64.5" font-family="Helvetica,sans-Serif" font-size="10.00" fill="#000000">PointSet</text>
</a>
</g>
</g>
<!-- Node8&#45;&gt;Node7 -->
<g id="edge1" class="edge">
<title>Node8&#45;&gt;Node7</title>
<path fill="none" stroke="#191970" d="M53.5,-47.2342C53.5,-37.8491 53.5,-27.0651 53.5,-19.5265"/>
<polygon fill="#191970" stroke="#191970" points="50.0001,-47.3307 53.5,-57.3307 57.0001,-47.3308 50.0001,-47.3307"/>
</g>
<!-- Node9 -->
<g id="node3" class="node">
<title>Node9</title>
<g id="a_node3"><a xlink:href="interfaceumontreal_1_1ssj_1_1rng_1_1RandomStream.html" target="_top" xlink:title="This interface defines the basic structures to handle multiple streams of uniform (pseudo)random numb...">
<polygon fill="none" stroke="#000000" points="11,-124.5 11,-143.5 96,-143.5 96,-124.5 11,-124.5"/>
<text text-anchor="middle" x="53.5" y="-131.5" font-family="Helvetica,sans-Serif" font-size="10.00" fill="#000000">RandomStream</text>
</a>
</g>
</g>
<!-- Node9&#45;&gt;Node8 -->
<g id="edge2" class="edge">
<title>Node9&#45;&gt;Node8</title>
<path fill="none" stroke="#9a32cd" stroke-dasharray="5,2" d="M53.5,-114.1079C53.5,-101.714 53.5,-86.3263 53.5,-76.5817"/>
<polygon fill="#9a32cd" stroke="#9a32cd" points="50.0001,-114.4005 53.5,-124.4005 57.0001,-114.4006 50.0001,-114.4005"/>
<text text-anchor="middle" x="80.5" y="-98" font-family="Helvetica,sans-Serif" font-size="10.00" fill="#000000"> shiftStream</text>
</g>
</g>
</svg>
