<?xml version="1.0" encoding="UTF-8" standalone="no"?>
<!DOCTYPE svg PUBLIC "-//W3C//DTD SVG 1.1//EN"
 "http://www.w3.org/Graphics/SVG/1.1/DTD/svg11.dtd">
<!-- Generated by graphviz version 2.40.1 (0)
 -->
<!-- Title: ArrayOfComparableChains&lt; T extends MarkovChainComparable &gt; Pages: 1 -->
<svg width="290pt" height="173pt"
 viewBox="0.00 0.00 289.50 173.00" xmlns="http://www.w3.org/2000/svg" xmlns:xlink="http://www.w3.org/1999/xlink">
<g id="graph0" class="graph" transform="scale(1 1) rotate(0) translate(4 169)">
<title>ArrayOfComparableChains&lt; T extends MarkovChainComparable &gt;</title>
<!-- Node3 -->
<g id="node1" class="node">
<title>Node3</title>
<g id="a_node1"><a xlink:title="This class provides tools to simulate an array of MarkovChainComparable objects with the array&#45;RQMC m...">
<polygon fill="#bfbfbf" stroke="#000000" points="69.5,-.5 69.5,-30.5 260.5,-30.5 260.5,-.5 69.5,-.5"/>
<text text-anchor="start" x="77.5" y="-18.5" font-family="Helvetica,sans-Serif" font-size="10.00" fill="#000000">ArrayOfComparableChains</text>
<text text-anchor="middle" x="165" y="-7.5" font-family="Helvetica,sans-Serif" font-size="10.00" fill="#000000">&lt; T extends MarkovChainComparable &gt;</text>
</a>
</g>
</g>
<!-- Node4 -->
<g id="node2" class="node">
<title>Node4</title>
<g id="a_node2"><a xlink:href="classumontreal_1_1ssj_1_1stat_1_1Tally.html" target="_top" xlink:title="A subclass of StatProbe.">
<polygon fill="none" stroke="#000000" points="89.5,-78.5 89.5,-97.5 126.5,-97.5 126.5,-78.5 89.5,-78.5"/>
<text text-anchor="middle" x="108" y="-85.5" font-family="Helvetica,sans-Serif" font-size="10.00" fill="#000000">Tally</text>
</a>
</g>
</g>
<!-- Node4&#45;&gt;Node3 -->
<g id="edge1" class="edge">
<title>Node4&#45;&gt;Node3</title>
<path fill="none" stroke="#9a32cd" stroke-dasharray="5,2" d="M104.8445,-68.1947C104.7329,-61.7 105.6735,-54.6949 109,-49 113.3999,-41.4675 120.2192,-35.4356 127.6046,-30.683"/>
<polygon fill="#9a32cd" stroke="#9a32cd" points="101.3754,-68.6902 105.7901,-78.3215 108.3451,-68.0394 101.3754,-68.6902"/>
<text text-anchor="middle" x="154.5" y="-52" font-family="Helvetica,sans-Serif" font-size="10.00" fill="#000000"> performancePerRun</text>
</g>
<!-- Node5 -->
<g id="node3" class="node">
<title>Node5</title>
<g id="a_node3"><a xlink:href="classumontreal_1_1ssj_1_1stat_1_1StatProbe.html" target="_top" xlink:title="The objects of this class are statistical probes or collectors, which are elementary devices for coll...">
<polygon fill="none" stroke="#000000" points="0,-145.5 0,-164.5 60,-164.5 60,-145.5 0,-145.5"/>
<text text-anchor="middle" x="30" y="-152.5" font-family="Helvetica,sans-Serif" font-size="10.00" fill="#000000">StatProbe</text>
</a>
</g>
</g>
<!-- Node5&#45;&gt;Node4 -->
<g id="edge2" class="edge">
<title>Node5&#45;&gt;Node4</title>
<path fill="none" stroke="#191970" d="M48.8606,-138.7992C63.8624,-125.9131 84.3431,-108.3207 96.8452,-97.5817"/>
<polygon fill="#191970" stroke="#191970" points="46.4806,-136.2296 41.1755,-145.4005 51.0418,-141.5396 46.4806,-136.2296"/>
</g>
<!-- Node6 -->
<g id="node4" class="node">
<title>Node6</title>
<g id="a_node4"><a xlink:title=" ">
<polygon fill="none" stroke="#bfbfbf" points="78,-145.5 78,-164.5 138,-164.5 138,-145.5 78,-145.5"/>
<text text-anchor="middle" x="108" y="-152.5" font-family="Helvetica,sans-Serif" font-size="10.00" fill="#000000">Cloneable</text>
</a>
</g>
</g>
<!-- Node6&#45;&gt;Node4 -->
<g id="edge3" class="edge">
<title>Node6&#45;&gt;Node4</title>
<path fill="none" stroke="#191970" d="M108,-135.1079C108,-122.714 108,-107.3263 108,-97.5817"/>
<polygon fill="#191970" stroke="#191970" points="104.5001,-135.4005 108,-145.4005 111.5001,-135.4006 104.5001,-135.4005"/>
</g>
<!-- Node7 -->
<g id="node5" class="node">
<title>Node7</title>
<g id="a_node5"><a xlink:title=" ">
<polygon fill="none" stroke="#bfbfbf" points="156.5,-145.5 156.5,-164.5 227.5,-164.5 227.5,-145.5 156.5,-145.5"/>
<text text-anchor="middle" x="192" y="-152.5" font-family="Helvetica,sans-Serif" font-size="10.00" fill="#000000">Tally.CIType</text>
</a>
</g>
</g>
<!-- Node7&#45;&gt;Node4 -->
<g id="edge4" class="edge">
<title>Node7&#45;&gt;Node4</title>
<path fill="none" stroke="#9a32cd" stroke-dasharray="5,2" d="M172.1358,-139.1559C155.942,-126.2395 133.6013,-108.4201 120.0128,-97.5817"/>
<polygon fill="#9a32cd" stroke="#9a32cd" points="169.9646,-141.9011 179.9648,-145.4005 174.3295,-136.4287 169.9646,-141.9011"/>
<text text-anchor="middle" x="196.5" y="-119" font-family="Helvetica,sans-Serif" font-size="10.00" fill="#000000"> confidenceInterval</text>
</g>
<!-- Node8 -->
<g id="node6" class="node">
<title>Node8</title>
<g id="a_node6"><a xlink:href="interfaceumontreal_1_1ssj_1_1hups_1_1PointSetRandomization.html" target="_top" xlink:title="This interface is used to randomize a umontreal.ssj.hups.PointSet.">
<polygon fill="none" stroke="#000000" points="162.5,-78.5 162.5,-97.5 281.5,-97.5 281.5,-78.5 162.5,-78.5"/>
<text text-anchor="middle" x="222" y="-85.5" font-family="Helvetica,sans-Serif" font-size="10.00" fill="#000000">PointSetRandomization</text>
</a>
</g>
</g>
<!-- Node8&#45;&gt;Node3 -->
<g id="edge5" class="edge">
<title>Node8&#45;&gt;Node3</title>
<path fill="none" stroke="#9a32cd" stroke-dasharray="5,2" d="M212.845,-69.1975C209.2379,-62.547 204.8063,-55.1871 200,-49 194.9432,-42.4904 188.6289,-36.0554 182.7609,-30.5919"/>
<polygon fill="#9a32cd" stroke="#9a32cd" points="209.798,-70.9256 217.4874,-78.2143 216.0216,-67.7213 209.798,-70.9256"/>
<text text-anchor="middle" x="238" y="-52" font-family="Helvetica,sans-Serif" font-size="10.00" fill="#000000"> randomization</text>
</g>
</g>
</svg>
