<?xml version="1.0" encoding="UTF-8" standalone="no"?>
<!DOCTYPE svg PUBLIC "-//W3C//DTD SVG 1.1//EN"
 "http://www.w3.org/Graphics/SVG/1.1/DTD/svg11.dtd">
<!-- Generated by graphviz version 2.40.1 (0)
 -->
<!-- Title: ListOfTallies&lt; E extends Tally &gt; Pages: 1 -->
<svg width="132pt" height="162pt"
 viewBox="0.00 0.00 132.00 162.00" xmlns="http://www.w3.org/2000/svg" xmlns:xlink="http://www.w3.org/1999/xlink">
<g id="graph0" class="graph" transform="scale(1 1) rotate(0) translate(4 158)">
<title>ListOfTallies&lt; E extends Tally &gt;</title>
<!-- Node0 -->
<g id="node1" class="node">
<title>Node0</title>
<g id="a_node1"><a xlink:title="Represents a list of tally statistical collectors.">
<polygon fill="#bfbfbf" stroke="#000000" points="0,-67.5 0,-97.5 124,-97.5 124,-67.5 0,-67.5"/>
<text text-anchor="start" x="8" y="-85.5" font-family="Helvetica,sans-Serif" font-size="10.00" fill="#000000">ListOfTallies&lt; E extends</text>
<text text-anchor="middle" x="62" y="-74.5" font-family="Helvetica,sans-Serif" font-size="10.00" fill="#000000"> Tally &gt;</text>
</a>
</g>
</g>
<!-- Node2 -->
<g id="node3" class="node">
<title>Node2</title>
<g id="a_node3"><a xlink:href="classumontreal_1_1ssj_1_1mcqmctools_1_1anova_1_1AnovaVarianceCollector.html" target="_top" xlink:title="Extends ListOfTallies to collect ANOVA variances.">
<polygon fill="none" stroke="#000000" points="1.5,-.5 1.5,-30.5 122.5,-30.5 122.5,-.5 1.5,-.5"/>
<text text-anchor="start" x="9.5" y="-18.5" font-family="Helvetica,sans-Serif" font-size="10.00" fill="#000000">AnovaVarianceCollector</text>
<text text-anchor="middle" x="62" y="-7.5" font-family="Helvetica,sans-Serif" font-size="10.00" fill="#000000">&lt; PartialVariance &gt;</text>
</a>
</g>
</g>
<!-- Node0&#45;&gt;Node2 -->
<g id="edge2" class="edge">
<title>Node0&#45;&gt;Node2</title>
<path fill="none" stroke="#191970" d="M62,-57.0249C62,-48.128 62,-38.4287 62,-30.6432"/>
<polygon fill="#191970" stroke="#191970" points="58.5001,-57.2966 62,-67.2967 65.5001,-57.2967 58.5001,-57.2966"/>
</g>
<!-- Node1 -->
<g id="node2" class="node">
<title>Node1</title>
<g id="a_node2"><a xlink:href="classumontreal_1_1ssj_1_1stat_1_1list_1_1ListOfStatProbes.html" target="_top" xlink:title=" ">
<polygon fill="none" stroke="#000000" points="4,-134.5 4,-153.5 120,-153.5 120,-134.5 4,-134.5"/>
<text text-anchor="middle" x="62" y="-141.5" font-family="Helvetica,sans-Serif" font-size="10.00" fill="#000000">ListOfStatProbes&lt; E &gt;</text>
</a>
</g>
</g>
<!-- Node1&#45;&gt;Node0 -->
<g id="edge1" class="edge">
<title>Node1&#45;&gt;Node0</title>
<path fill="none" stroke="#191970" d="M62,-124.3693C62,-115.681 62,-105.6241 62,-97.5446"/>
<polygon fill="#191970" stroke="#191970" points="58.5001,-124.3906 62,-134.3906 65.5001,-124.3907 58.5001,-124.3906"/>
</g>
</g>
</svg>
