<?xml version="1.0" encoding="UTF-8" standalone="no"?>
<!DOCTYPE svg PUBLIC "-//W3C//DTD SVG 1.1//EN"
 "http://www.w3.org/Graphics/SVG/1.1/DTD/svg11.dtd">
<!-- Generated by graphviz version 2.40.1 (20161225.0304)
 -->
<!-- Title: DigitalNetBase2 Pages: 1 -->
<!--zoomable 192 -->
<svg id="main" version="1.1" xmlns="http://www.w3.org/2000/svg" xmlns:xlink="http://www.w3.org/1999/xlink" xml:space="preserve" onload="init(evt)">
<style type="text/css"><![CDATA[
.edge:hover path { stroke: red; }
.edge:hover polygon { stroke: red; fill: red; }
]]></style>
<script type="text/javascript"><![CDATA[
var edges = document.getElementsByTagName('g');
if (edges && edges.length) {
  for (var i=0;i<edges.length;i++) {
    if (edges[i].id.substr(0,4)=='edge') {
      edges[i].setAttribute('class','edge');
    }
  }
}
]]></script>
        <defs>
                <circle id="rim" cx="0" cy="0" r="7"/>
                <circle id="rim2" cx="0" cy="0" r="3.5"/>
                <g id="zoomPlus">
                        <use xlink:href="#rim" fill="#404040">
                                <set attributeName="fill" to="#808080" begin="zoomplus.mouseover" end="zoomplus.mouseout"/>
                        </use>
                        <path d="M-4,0h8M0,-4v8" fill="none" stroke="white" stroke-width="1.5" pointer-events="none"/>
                </g>
                <g id="zoomMin">
                        <use xlink:href="#rim" fill="#404040">
                                <set attributeName="fill" to="#808080" begin="zoomminus.mouseover" end="zoomminus.mouseout"/>
                        </use>
                        <path d="M-4,0h8" fill="none" stroke="white" stroke-width="1.5" pointer-events="none"/>
                </g>
                <g id="dirArrow">
                        <path fill="none" stroke="white" stroke-width="1.5" d="M0,-3.0v7 M-2.5,-0.5L0,-3.0L2.5,-0.5"/>
                </g>
               <g id="resetDef">
                       <use xlink:href="#rim2" fill="#404040">
                               <set attributeName="fill" to="#808080" begin="reset.mouseover" end="reset.mouseout"/>
                       </use>
               </g>
        </defs>

<script type="text/javascript">
var viewWidth = 624;
var viewHeight = 192;
var sectionId = 'dynsection-0';
</script>
<script xlink:href="svgpan.js"/>
<svg id="graph" class="graph">
<g id="viewport">
<title>DigitalNetBase2</title>
<!-- Node0 -->
<g id="node1" class="node">
<title>Node0</title>
<polygon fill="#bfbfbf" stroke="#000000" points="186,-88 186,-107 274,-107 274,-88 186,-88"/>
<text text-anchor="middle" x="230" y="-95" font-family="Helvetica,sans-Serif" font-size="10.00" fill="#000000">DigitalNetBase2</text>
</g>
<!-- Node3 -->
<g id="node4" class="node">
<title>Node3</title>
<g id="a_node4"><a xlink:href="classumontreal_1_1ssj_1_1hups_1_1DigitalNetBase2FromFile.html" target="_top" xlink:title="This class allows us to read the parameters defining a digital net in base 2 either from a file...">
<polygon fill="none" stroke="#000000" points="318,-164 318,-183 444,-183 444,-164 318,-164"/>
<text text-anchor="middle" x="381" y="-171" font-family="Helvetica,sans-Serif" font-size="10.00" fill="#000000">DigitalNetBase2FromFile</text>
</a>
</g>
</g>
<!-- Node0&#45;&gt;Node3 -->
<g id="edge3" class="edge">
<title>Node0&#45;&gt;Node3</title>
<path fill="none" stroke="#191970" d="M248.6182,-113.7201C264.1044,-126.4537 287.2205,-143.7683 310,-154.5 317.9648,-158.2523 326.7941,-161.3622 335.4431,-163.9034"/>
<polygon fill="#191970" stroke="#191970" points="250.7566,-110.9454 240.8504,-107.1882 246.2515,-116.3029 250.7566,-110.9454"/>
</g>
<!-- Node4 -->
<g id="node5" class="node">
<title>Node4</title>
<g id="a_node5"><a xlink:href="classumontreal_1_1ssj_1_1hups_1_1DigitalSequenceBase2.html" target="_top" xlink:title="This abstract class describes methods specific to digital sequences in base 2. ">
<polygon fill="none" stroke="#000000" points="323,-126 323,-145 439,-145 439,-126 323,-126"/>
<text text-anchor="middle" x="381" y="-133" font-family="Helvetica,sans-Serif" font-size="10.00" fill="#000000">DigitalSequenceBase2</text>
</a>
</g>
</g>
<!-- Node0&#45;&gt;Node4 -->
<g id="edge4" class="edge">
<title>Node0&#45;&gt;Node4</title>
<path fill="none" stroke="#191970" d="M277.8431,-109.54C298.9386,-114.8488 323.3766,-120.9988 343.1703,-125.9799"/>
<polygon fill="#191970" stroke="#191970" points="278.6555,-106.1354 268.1037,-107.089 276.9471,-112.9237 278.6555,-106.1354"/>
</g>
<!-- Node8 -->
<g id="node9" class="node">
<title>Node8</title>
<g id="a_node9"><a xlink:href="classumontreal_1_1ssj_1_1hups_1_1F2wNetLFSR.html" target="_top" xlink:title="This class implements a digital net in base 2 starting from a linear feedback shift register generato...">
<polygon fill="none" stroke="#000000" points="342.5,-88 342.5,-107 419.5,-107 419.5,-88 342.5,-88"/>
<text text-anchor="middle" x="381" y="-95" font-family="Helvetica,sans-Serif" font-size="10.00" fill="#000000">F2wNetLFSR</text>
</a>
</g>
</g>
<!-- Node0&#45;&gt;Node8 -->
<g id="edge8" class="edge">
<title>Node0&#45;&gt;Node8</title>
<path fill="none" stroke="#191970" d="M284.2062,-97.5C303.404,-97.5 324.6022,-97.5 342.2547,-97.5"/>
<polygon fill="#191970" stroke="#191970" points="284.0814,-94.0001 274.0814,-97.5 284.0813,-101.0001 284.0814,-94.0001"/>
</g>
<!-- Node9 -->
<g id="node10" class="node">
<title>Node9</title>
<g id="a_node10"><a xlink:href="classumontreal_1_1ssj_1_1hups_1_1F2wNetPolyLCG.html" target="_top" xlink:title="This class implements a digital net in base 2 starting from a polynomial LCG in . ...">
<polygon fill="none" stroke="#000000" points="336,-50 336,-69 426,-69 426,-50 336,-50"/>
<text text-anchor="middle" x="381" y="-57" font-family="Helvetica,sans-Serif" font-size="10.00" fill="#000000">F2wNetPolyLCG</text>
</a>
</g>
</g>
<!-- Node0&#45;&gt;Node9 -->
<g id="edge9" class="edge">
<title>Node0&#45;&gt;Node9</title>
<path fill="none" stroke="#191970" d="M277.8431,-85.46C298.9386,-80.1512 323.3766,-74.0012 343.1703,-69.0201"/>
<polygon fill="#191970" stroke="#191970" points="276.9471,-82.0763 268.1037,-87.911 278.6555,-88.8646 276.9471,-82.0763"/>
</g>
<!-- Node10 -->
<g id="node11" class="node">
<title>Node10</title>
<g id="a_node11"><a xlink:href="classumontreal_1_1ssj_1_1latnetbuilder_1_1DigitalNetSearch_1_1DigitalNetBase2FromLatNetBuilder.html" target="_top" xlink:title="Class for the construction od digital nets. ">
<polygon fill="none" stroke="#000000" points="310,-.5 310,-30.5 452,-30.5 452,-.5 310,-.5"/>
<text text-anchor="start" x="318" y="-18.5" font-family="Helvetica,sans-Serif" font-size="10.00" fill="#000000">DigitalNetSearch.Digital</text>
<text text-anchor="middle" x="381" y="-7.5" font-family="Helvetica,sans-Serif" font-size="10.00" fill="#000000">NetBase2FromLatNetBuilder</text>
</a>
</g>
</g>
<!-- Node0&#45;&gt;Node10 -->
<g id="edge10" class="edge">
<title>Node0&#45;&gt;Node10</title>
<path fill="none" stroke="#191970" d="M249.118,-81.533C264.7336,-69.0863 287.7786,-52.0351 310,-40.5 317.0751,-36.8273 324.8098,-33.4854 332.4879,-30.5252"/>
<polygon fill="#191970" stroke="#191970" points="246.8192,-78.8911 241.2594,-87.9099 251.2299,-84.3267 246.8192,-78.8911"/>
</g>
<!-- Node1 -->
<g id="node2" class="node">
<title>Node1</title>
<g id="a_node2"><a xlink:href="classumontreal_1_1ssj_1_1hups_1_1DigitalNet.html" target="_top" xlink:title="This class provides the basic structures for storing and manipulating linear digital nets in base ...">
<polygon fill="none" stroke="#000000" points="90,-88 90,-107 150,-107 150,-88 90,-88"/>
<text text-anchor="middle" x="120" y="-95" font-family="Helvetica,sans-Serif" font-size="10.00" fill="#000000">DigitalNet</text>
</a>
</g>
</g>
<!-- Node1&#45;&gt;Node0 -->
<g id="edge1" class="edge">
<title>Node1&#45;&gt;Node0</title>
<path fill="none" stroke="#191970" d="M160.304,-97.5C168.649,-97.5 177.4811,-97.5 185.952,-97.5"/>
<polygon fill="#191970" stroke="#191970" points="160.058,-94.0001 150.058,-97.5 160.0579,-101.0001 160.058,-94.0001"/>
</g>
<!-- Node2 -->
<g id="node3" class="node">
<title>Node2</title>
<g id="a_node3"><a xlink:href="classumontreal_1_1ssj_1_1hups_1_1PointSet.html" target="_top" xlink:title="This abstract class defines the basic methods for accessing and manipulating point sets...">
<polygon fill="none" stroke="#000000" points="0,-88 0,-107 54,-107 54,-88 0,-88"/>
<text text-anchor="middle" x="27" y="-95" font-family="Helvetica,sans-Serif" font-size="10.00" fill="#000000">PointSet</text>
</a>
</g>
</g>
<!-- Node2&#45;&gt;Node1 -->
<g id="edge2" class="edge">
<title>Node2&#45;&gt;Node1</title>
<path fill="none" stroke="#191970" d="M64.4294,-97.5C72.8858,-97.5 81.7587,-97.5 89.8698,-97.5"/>
<polygon fill="#191970" stroke="#191970" points="64.4001,-94.0001 54.4001,-97.5 64.4,-101.0001 64.4001,-94.0001"/>
</g>
<!-- Node5 -->
<g id="node6" class="node">
<title>Node5</title>
<g id="a_node6"><a xlink:href="classumontreal_1_1ssj_1_1hups_1_1NiedSequenceBase2.html" target="_top" xlink:title="This class implements digital sequences constructed from the Niederreiter sequence in base 2...">
<polygon fill="none" stroke="#000000" points="498,-164 498,-183 606,-183 606,-164 498,-164"/>
<text text-anchor="middle" x="552" y="-171" font-family="Helvetica,sans-Serif" font-size="10.00" fill="#000000">NiedSequenceBase2</text>
</a>
</g>
</g>
<!-- Node4&#45;&gt;Node5 -->
<g id="edge5" class="edge">
<title>Node4&#45;&gt;Node5</title>
<path fill="none" stroke="#191970" d="M434.2092,-147.3243C458.3172,-152.6816 486.4401,-158.9311 509.1598,-163.9799"/>
<polygon fill="#191970" stroke="#191970" points="434.6717,-143.8417 424.1505,-145.089 433.1531,-150.675 434.6717,-143.8417"/>
</g>
<!-- Node6 -->
<g id="node7" class="node">
<title>Node6</title>
<g id="a_node7"><a xlink:href="classumontreal_1_1ssj_1_1hups_1_1NiedXingSequenceBase2.html" target="_top" xlink:title="This class implements digital sequences based on the Niederreiter&#45;Xing sequence in base 2...">
<polygon fill="none" stroke="#000000" points="488,-126 488,-145 616,-145 616,-126 488,-126"/>
<text text-anchor="middle" x="552" y="-133" font-family="Helvetica,sans-Serif" font-size="10.00" fill="#000000">NiedXingSequenceBase2</text>
</a>
</g>
</g>
<!-- Node4&#45;&gt;Node6 -->
<g id="edge6" class="edge">
<title>Node4&#45;&gt;Node6</title>
<path fill="none" stroke="#191970" d="M449.3842,-135.5C462.0381,-135.5 475.2135,-135.5 487.7395,-135.5"/>
<polygon fill="#191970" stroke="#191970" points="449.3703,-132.0001 439.3702,-135.5 449.3702,-139.0001 449.3703,-132.0001"/>
</g>
<!-- Node7 -->
<g id="node8" class="node">
<title>Node7</title>
<g id="a_node8"><a xlink:href="classumontreal_1_1ssj_1_1hups_1_1SobolSequence.html" target="_top" xlink:title="This class implements digital nets or digital sequences in base 2 formed by the first &#160;points of a So...">
<polygon fill="none" stroke="#000000" points="509.5,-88 509.5,-107 594.5,-107 594.5,-88 509.5,-88"/>
<text text-anchor="middle" x="552" y="-95" font-family="Helvetica,sans-Serif" font-size="10.00" fill="#000000">SobolSequence</text>
</a>
</g>
</g>
<!-- Node4&#45;&gt;Node7 -->
<g id="edge7" class="edge">
<title>Node4&#45;&gt;Node7</title>
<path fill="none" stroke="#191970" d="M433.9246,-123.739C458.2002,-118.3444 486.5953,-112.0344 509.4556,-106.9543"/>
<polygon fill="#191970" stroke="#191970" points="433.1531,-120.325 424.1505,-125.911 434.6717,-127.1583 433.1531,-120.325"/>
</g>
</g>
</svg>
        <g id="navigator" transform="translate(0 0)" fill="#404254">
                <rect fill="#f2f5e9" fill-opacity="0.5" stroke="#606060" stroke-width=".5" x="0" y="0" width="60" height="60"/>
                <use id="zoomplus" xlink:href="#zoomPlus" x="17" y="9" onmousedown="handleZoom(evt,'in')"/>
                <use id="zoomminus" xlink:href="#zoomMin" x="42" y="9" onmousedown="handleZoom(evt,'out')"/>
                <use id="reset" xlink:href="#resetDef" x="30" y="36" onmousedown="handleReset()"/>
                <g id="arrowUp" xlink:href="#dirArrow" transform="translate(30 24)" onmousedown="handlePan(0,-1)">
                  <use xlink:href="#rim" fill="#404040">
                        <set attributeName="fill" to="#808080" begin="arrowUp.mouseover" end="arrowUp.mouseout"/>
                  </use>
                  <path fill="none" stroke="white" stroke-width="1.5" d="M0,-3.0v7 M-2.5,-0.5L0,-3.0L2.5,-0.5"/>
                </g>
                <g id="arrowRight" xlink:href="#dirArrow" transform="rotate(90) translate(36 -43)" onmousedown="handlePan(1,0)">
                  <use xlink:href="#rim" fill="#404040">
                        <set attributeName="fill" to="#808080" begin="arrowRight.mouseover" end="arrowRight.mouseout"/>
                  </use>
                  <path fill="none" stroke="white" stroke-width="1.5" d="M0,-3.0v7 M-2.5,-0.5L0,-3.0L2.5,-0.5"/>
                </g>
                <g id="arrowDown" xlink:href="#dirArrow" transform="rotate(180) translate(-30 -48)" onmousedown="handlePan(0,1)">
                  <use xlink:href="#rim" fill="#404040">
                        <set attributeName="fill" to="#808080" begin="arrowDown.mouseover" end="arrowDown.mouseout"/>
                  </use>
                  <path fill="none" stroke="white" stroke-width="1.5" d="M0,-3.0v7 M-2.5,-0.5L0,-3.0L2.5,-0.5"/>
                </g>
                <g id="arrowLeft" xlink:href="#dirArrow" transform="rotate(270) translate(-36 17)" onmousedown="handlePan(-1,0)">
                  <use xlink:href="#rim" fill="#404040">
                        <set attributeName="fill" to="#808080" begin="arrowLeft.mouseover" end="arrowLeft.mouseout"/>
                  </use>
                  <path fill="none" stroke="white" stroke-width="1.5" d="M0,-3.0v7 M-2.5,-0.5L0,-3.0L2.5,-0.5"/>
                </g>
        </g>
        <svg viewBox="0 0 15 15" width="100%" height="30px" preserveAspectRatio="xMaxYMin meet">
         <g id="arrow_out" transform="scale(0.3 0.3)">
          <a xlink:href="classumontreal_1_1ssj_1_1hups_1_1DigitalNetBase2__inherit__graph_org.svg" target="_base">
           <rect id="button" ry="5" rx="5" y="6" x="6" height="38" width="38"
                fill="#f2f5e9" fill-opacity="0.5" stroke="#606060" stroke-width="1.0"/>
           <path id="arrow"
             d="M 11.500037,31.436501 C 11.940474,20.09759 22.043105,11.32322 32.158766,21.979434 L 37.068811,17.246167 C 37.068811,17.246167 37.088388,32 37.088388,32 L 22.160133,31.978069 C 22.160133,31.978069 26.997745,27.140456 26.997745,27.140456 C 18.528582,18.264221 13.291696,25.230495 11.500037,31.436501 z"
             style="fill:#404040;"/>
          </a>
         </g>
        </svg>
</svg>
