<?xml version="1.0" encoding="UTF-8" standalone="no"?>
<!DOCTYPE svg PUBLIC "-//W3C//DTD SVG 1.1//EN"
 "http://www.w3.org/Graphics/SVG/1.1/DTD/svg11.dtd">
<!-- Generated by graphviz version 2.38.0 (20140413.2041)
 -->
<!-- Title: Anova Pages: 1 -->
<svg width="195pt" height="152pt"
 viewBox="0.00 0.00 194.50 152.00" xmlns="http://www.w3.org/2000/svg" xmlns:xlink="http://www.w3.org/1999/xlink">
<g id="graph0" class="graph" transform="scale(1 1) rotate(0) translate(4 148)">
<title>Anova</title>
<!-- Node1 -->
<g id="node1" class="node"><title>Node1</title>
<polygon fill="#bfbfbf" stroke="black" points="0,-0.5 0,-19.5 44,-19.5 44,-0.5 0,-0.5"/>
<text text-anchor="middle" x="22" y="-7.5" font-family="Helvetica,sans-Serif" font-size="10.00">Anova</text>
</g>
<!-- Node2 -->
<g id="node2" class="node"><title>Node2</title>
<g id="a_node2"><a xlink:href="interfaceumontreal_1_1ssj_1_1mcqmctools_1_1anova_1_1Integrator.html" target="_top" xlink:title="Integrator">
<polygon fill="none" stroke="black" points="16,-124.5 16,-143.5 74,-143.5 74,-124.5 16,-124.5"/>
<text text-anchor="middle" x="45" y="-131.5" font-family="Helvetica,sans-Serif" font-size="10.00">Integrator</text>
</a>
</g>
</g>
<!-- Node2&#45;&gt;Node1 -->
<g id="edge1" class="edge"><title>Node2&#45;&gt;Node1</title>
<path fill="none" stroke="#9a32cd" stroke-dasharray="5,2" d="M31.1988,-116.221C25.2822,-107.958 19.0404,-97.5237 16,-87 9.16712,-63.3492 15.4306,-33.9461 19.3669,-19.6346"/>
<polygon fill="#9a32cd" stroke="#9a32cd" points="28.4718,-118.417 37.3245,-124.238 34.0339,-114.167 28.4718,-118.417"/>
<text text-anchor="middle" x="49.5" y="-74.5" font-family="Helvetica,sans-Serif" font-size="10.00"> outerIntegrator</text>
</g>
<!-- Node3 -->
<g id="node3" class="node"><title>Node3</title>
<g id="a_node3"><a xlink:href="interfaceumontreal_1_1ssj_1_1mcqmctools_1_1anova_1_1RandomIntegrator.html" target="_top" xlink:title="RandomIntegrator">
<polygon fill="none" stroke="black" points="91.5,-67.5 91.5,-86.5 186.5,-86.5 186.5,-67.5 91.5,-67.5"/>
<text text-anchor="middle" x="139" y="-74.5" font-family="Helvetica,sans-Serif" font-size="10.00">RandomIntegrator</text>
</a>
</g>
</g>
<!-- Node2&#45;&gt;Node3 -->
<g id="edge3" class="edge"><title>Node2&#45;&gt;Node3</title>
<path fill="none" stroke="midnightblue" d="M68.7391,-119.11C86.2626,-108.857 109.554,-95.2288 124.416,-86.5334"/>
<polygon fill="midnightblue" stroke="midnightblue" points="66.5511,-116.335 59.6875,-124.406 70.0862,-122.377 66.5511,-116.335"/>
</g>
<!-- Node3&#45;&gt;Node1 -->
<g id="edge2" class="edge"><title>Node3&#45;&gt;Node1</title>
<path fill="none" stroke="#9a32cd" stroke-dasharray="5,2" d="M114.317,-62.2872C91.1284,-49.4047 57.1437,-30.5243 37.5291,-19.6273"/>
<polygon fill="#9a32cd" stroke="#9a32cd" points="112.78,-65.4369 123.221,-67.2338 116.179,-59.3178 112.78,-65.4369"/>
<text text-anchor="middle" x="120" y="-41" font-family="Helvetica,sans-Serif" font-size="10.00"> innerIntegrator</text>
</g>
</g>
</svg>
