<?xml version="1.0" encoding="UTF-8" standalone="no"?>
<!DOCTYPE svg PUBLIC "-//W3C//DTD SVG 1.1//EN"
 "http://www.w3.org/Graphics/SVG/1.1/DTD/svg11.dtd">
<!-- Generated by graphviz version 2.40.1 (0)
 -->
<!-- Title: LinkedListStat&lt; E &gt; Pages: 1 -->
<svg width="142pt" height="207pt"
 viewBox="0.00 0.00 142.00 207.00" xmlns="http://www.w3.org/2000/svg" xmlns:xlink="http://www.w3.org/1999/xlink">
<g id="graph0" class="graph" transform="scale(1 1) rotate(0) translate(4 203)">
<title>LinkedListStat&lt; E &gt;</title>
<!-- Node4 -->
<g id="node1" class="node">
<title>Node4</title>
<g id="a_node1"><a xlink:title="This class extends ListWithStat, and uses a linked list as the internal data structure.">
<polygon fill="#bfbfbf" stroke="#000000" points="15,-.5 15,-19.5 119,-19.5 119,-.5 15,-.5"/>
<text text-anchor="middle" x="67" y="-7.5" font-family="Helvetica,sans-Serif" font-size="10.00" fill="#000000">LinkedListStat&lt; E &gt;</text>
</a>
</g>
</g>
<!-- Node5 -->
<g id="node2" class="node">
<title>Node5</title>
<g id="a_node2"><a xlink:href="classumontreal_1_1ssj_1_1simevents_1_1ListWithStat.html" target="_top" xlink:title="Implements a list with integrated statistical probes to provide automatic collection of statistics on...">
<polygon fill="none" stroke="#000000" points="19.5,-56.5 19.5,-75.5 114.5,-75.5 114.5,-56.5 19.5,-56.5"/>
<text text-anchor="middle" x="67" y="-63.5" font-family="Helvetica,sans-Serif" font-size="10.00" fill="#000000">ListWithStat&lt; E &gt;</text>
</a>
</g>
</g>
<!-- Node5&#45;&gt;Node4 -->
<g id="edge1" class="edge">
<title>Node5&#45;&gt;Node4</title>
<path fill="none" stroke="#191970" d="M67,-46.1575C67,-37.155 67,-26.9199 67,-19.6427"/>
<polygon fill="#191970" stroke="#191970" points="63.5001,-46.2455 67,-56.2455 70.5001,-46.2456 63.5001,-46.2455"/>
</g>
<!-- Node6 -->
<g id="node3" class="node">
<title>Node6</title>
<g id="a_node3"><a xlink:href="classumontreal_1_1ssj_1_1util_1_1TransformingList.html" target="_top" xlink:title="Represents a list that dynamically transforms the elements of another list.">
<polygon fill="none" stroke="#000000" points="0,-112.5 0,-142.5 134,-142.5 134,-112.5 0,-112.5"/>
<text text-anchor="start" x="8" y="-130.5" font-family="Helvetica,sans-Serif" font-size="10.00" fill="#000000">TransformingList&lt; E,</text>
<text text-anchor="middle" x="67" y="-119.5" font-family="Helvetica,sans-Serif" font-size="10.00" fill="#000000"> ListWithStat.Node&lt; E &gt; &gt;</text>
</a>
</g>
</g>
<!-- Node6&#45;&gt;Node5 -->
<g id="edge2" class="edge">
<title>Node6&#45;&gt;Node5</title>
<path fill="none" stroke="#191970" d="M67,-102.2849C67,-92.9858 67,-82.9883 67,-75.8469"/>
<polygon fill="#191970" stroke="#191970" points="63.5001,-102.2977 67,-112.2977 70.5001,-102.2978 63.5001,-102.2977"/>
</g>
<!-- Node7 -->
<g id="node4" class="node">
<title>Node7</title>
<g id="a_node4"><a xlink:title=" ">
<polygon fill="none" stroke="#bfbfbf" points="16.5,-179.5 16.5,-198.5 117.5,-198.5 117.5,-179.5 16.5,-179.5"/>
<text text-anchor="middle" x="67" y="-186.5" font-family="Helvetica,sans-Serif" font-size="10.00" fill="#000000">AbstractList&lt; OE &gt;</text>
</a>
</g>
</g>
<!-- Node7&#45;&gt;Node6 -->
<g id="edge3" class="edge">
<title>Node7&#45;&gt;Node6</title>
<path fill="none" stroke="#191970" d="M67,-169.3693C67,-160.681 67,-150.6241 67,-142.5446"/>
<polygon fill="#191970" stroke="#191970" points="63.5001,-169.3906 67,-179.3906 70.5001,-169.3907 63.5001,-169.3906"/>
</g>
</g>
</svg>
