<?xml version="1.0" encoding="UTF-8" standalone="no"?>
<!DOCTYPE svg PUBLIC "-//W3C//DTD SVG 1.1//EN"
 "http://www.w3.org/Graphics/SVG/1.1/DTD/svg11.dtd">
<!-- Generated by graphviz version 2.40.1 (0)
 -->
<!-- Title: CDENormalizedSumOfNormals Pages: 1 -->
<svg width="163pt" height="140pt"
 viewBox="0.00 0.00 163.00 140.00" xmlns="http://www.w3.org/2000/svg" xmlns:xlink="http://www.w3.org/1999/xlink">
<g id="graph0" class="graph" transform="scale(1 1) rotate(0) translate(4 136)">
<title>CDENormalizedSumOfNormals</title>
<!-- Node3 -->
<g id="node1" class="node">
<title>Node3</title>
<g id="a_node1"><a xlink:title="This class implements the CDE for a sum of &#160;normals with mean 0, which is normalized to have variance...">
<polygon fill="#bfbfbf" stroke="#000000" points="0,-.5 0,-19.5 155,-19.5 155,-.5 0,-.5"/>
<text text-anchor="middle" x="77.5" y="-7.5" font-family="Helvetica,sans-Serif" font-size="10.00" fill="#000000">CDENormalizedSumOfNormals</text>
</a>
</g>
</g>
<!-- Node4 -->
<g id="node2" class="node">
<title>Node4</title>
<g id="a_node2"><a xlink:href="classumontreal_1_1ssj_1_1stat_1_1density_1_1ConditionalDensityEstimator.html" target="_top" xlink:title="This is an abstract class that implements an DensityEstimatorDoubleArray.">
<polygon fill="none" stroke="#000000" points="7,-56.5 7,-75.5 148,-75.5 148,-56.5 7,-56.5"/>
<text text-anchor="middle" x="77.5" y="-63.5" font-family="Helvetica,sans-Serif" font-size="10.00" fill="#000000">ConditionalDensityEstimator</text>
</a>
</g>
</g>
<!-- Node4&#45;&gt;Node3 -->
<g id="edge1" class="edge">
<title>Node4&#45;&gt;Node3</title>
<path fill="none" stroke="#191970" d="M77.5,-46.1575C77.5,-37.155 77.5,-26.9199 77.5,-19.6427"/>
<polygon fill="#191970" stroke="#191970" points="74.0001,-46.2455 77.5,-56.2455 81.0001,-46.2456 74.0001,-46.2455"/>
</g>
<!-- Node5 -->
<g id="node3" class="node">
<title>Node5</title>
<g id="a_node3"><a xlink:href="classumontreal_1_1ssj_1_1stat_1_1density_1_1DensityEstimatorDoubleArray.html" target="_top" xlink:title="Same as DensityEstimator but here the observations of the underlying model are &#45;dimensional.">
<polygon fill="none" stroke="#000000" points="4.5,-112.5 4.5,-131.5 150.5,-131.5 150.5,-112.5 4.5,-112.5"/>
<text text-anchor="middle" x="77.5" y="-119.5" font-family="Helvetica,sans-Serif" font-size="10.00" fill="#000000">DensityEstimatorDoubleArray</text>
</a>
</g>
</g>
<!-- Node5&#45;&gt;Node4 -->
<g id="edge2" class="edge">
<title>Node5&#45;&gt;Node4</title>
<path fill="none" stroke="#191970" d="M77.5,-102.1575C77.5,-93.155 77.5,-82.9199 77.5,-75.6427"/>
<polygon fill="#191970" stroke="#191970" points="74.0001,-102.2455 77.5,-112.2455 81.0001,-102.2456 74.0001,-102.2455"/>
</g>
</g>
</svg>
