<?xml version="1.0" encoding="UTF-8" standalone="no"?>
<!DOCTYPE svg PUBLIC "-//W3C//DTD SVG 1.1//EN"
 "http://www.w3.org/Graphics/SVG/1.1/DTD/svg11.dtd">
<!-- Generated by graphviz version 2.40.1 (0)
 -->
<!-- Title: MonteCarloSampler Pages: 1 -->
<svg width="200pt" height="152pt"
 viewBox="0.00 0.00 200.00 152.00" xmlns="http://www.w3.org/2000/svg" xmlns:xlink="http://www.w3.org/1999/xlink">
<g id="graph0" class="graph" transform="scale(1 1) rotate(0) translate(4 148)">
<title>MonteCarloSampler</title>
<!-- Node4 -->
<g id="node1" class="node">
<title>Node4</title>
<g id="a_node1"><a xlink:title="Monte Carlo sampler.">
<polygon fill="#bfbfbf" stroke="#000000" points="71,-.5 71,-19.5 174,-19.5 174,-.5 71,-.5"/>
<text text-anchor="middle" x="122.5" y="-7.5" font-family="Helvetica,sans-Serif" font-size="10.00" fill="#000000">MonteCarloSampler</text>
</a>
</g>
</g>
<!-- Node5 -->
<g id="node2" class="node">
<title>Node5</title>
<g id="a_node2"><a xlink:href="interfaceumontreal_1_1ssj_1_1mcqmctools_1_1anova_1_1RandomSampler.html" target="_top" xlink:title=" ">
<polygon fill="none" stroke="#000000" points="0,-67.5 0,-86.5 89,-86.5 89,-67.5 0,-67.5"/>
<text text-anchor="middle" x="44.5" y="-74.5" font-family="Helvetica,sans-Serif" font-size="10.00" fill="#000000">RandomSampler</text>
</a>
</g>
</g>
<!-- Node5&#45;&gt;Node4 -->
<g id="edge1" class="edge">
<title>Node5&#45;&gt;Node4</title>
<path fill="none" stroke="#191970" d="M63.3606,-60.7992C78.3624,-47.9131 98.8431,-30.3207 111.3452,-19.5817"/>
<polygon fill="#191970" stroke="#191970" points="60.9806,-58.2296 55.6755,-67.4005 65.5418,-63.5396 60.9806,-58.2296"/>
</g>
<!-- Node6 -->
<g id="node3" class="node">
<title>Node6</title>
<g id="a_node3"><a xlink:href="interfaceumontreal_1_1ssj_1_1mcqmctools_1_1anova_1_1Sampler.html" target="_top" xlink:title=" ">
<polygon fill="none" stroke="#000000" points="18,-124.5 18,-143.5 71,-143.5 71,-124.5 18,-124.5"/>
<text text-anchor="middle" x="44.5" y="-131.5" font-family="Helvetica,sans-Serif" font-size="10.00" fill="#000000">Sampler</text>
</a>
</g>
</g>
<!-- Node6&#45;&gt;Node5 -->
<g id="edge2" class="edge">
<title>Node6&#45;&gt;Node5</title>
<path fill="none" stroke="#191970" d="M44.5,-114.2342C44.5,-104.8491 44.5,-94.0651 44.5,-86.5265"/>
<polygon fill="#191970" stroke="#191970" points="41.0001,-114.3307 44.5,-124.3307 48.0001,-114.3308 41.0001,-114.3307"/>
</g>
<!-- Node7 -->
<g id="node4" class="node">
<title>Node7</title>
<g id="a_node4"><a xlink:href="interfaceumontreal_1_1ssj_1_1rng_1_1RandomStream.html" target="_top" xlink:title="This interface defines the basic structures to handle multiple streams of uniform (pseudo)random numb...">
<polygon fill="none" stroke="#000000" points="107,-67.5 107,-86.5 192,-86.5 192,-67.5 107,-67.5"/>
<text text-anchor="middle" x="149.5" y="-74.5" font-family="Helvetica,sans-Serif" font-size="10.00" fill="#000000">RandomStream</text>
</a>
</g>
</g>
<!-- Node7&#45;&gt;Node4 -->
<g id="edge3" class="edge">
<title>Node7&#45;&gt;Node4</title>
<path fill="none" stroke="#9a32cd" stroke-dasharray="5,2" d="M141.788,-57.8628C136.7433,-45.3444 130.3684,-29.5252 126.3613,-19.5817"/>
<polygon fill="#9a32cd" stroke="#9a32cd" points="138.6474,-59.4336 145.6316,-67.4005 145.1401,-56.8171 138.6474,-59.4336"/>
<text text-anchor="middle" x="154.5" y="-41" font-family="Helvetica,sans-Serif" font-size="10.00" fill="#000000"> stream</text>
</g>
</g>
</svg>
