<?xml version="1.0" encoding="UTF-8" standalone="no"?>
<!DOCTYPE svg PUBLIC "-//W3C//DTD SVG 1.1//EN"
 "http://www.w3.org/Graphics/SVG/1.1/DTD/svg11.dtd">
<!-- Generated by graphviz version 2.40.1 (20161225.0304)
 -->
<!-- Title: SplitStream Pages: 1 -->
<svg width="304pt" height="209pt"
 viewBox="0.00 0.00 304.00 209.00" xmlns="http://www.w3.org/2000/svg" xmlns:xlink="http://www.w3.org/1999/xlink">
<g id="graph0" class="graph" transform="scale(1 1) rotate(0) translate(4 205)">
<title>SplitStream</title>
<!-- Node6 -->
<g id="node1" class="node">
<title>Node6</title>
<polygon fill="#bfbfbf" stroke="#000000" points="166.5,-.5 166.5,-19.5 234.5,-19.5 234.5,-.5 166.5,-.5"/>
<text text-anchor="middle" x="200.5" y="-7.5" font-family="Helvetica,sans-Serif" font-size="10.00" fill="#000000">SplitStream</text>
</g>
<!-- Node7 -->
<g id="node2" class="node">
<title>Node7</title>
<g id="a_node2"><a xlink:href="classumontreal_1_1ssj_1_1rng_1_1RandomStreamBase.html" target="_top" xlink:title="This class provides a convenient foundation on which RNGs can be built. ">
<polygon fill="none" stroke="#000000" points="92,-67.5 92,-86.5 199,-86.5 199,-67.5 92,-67.5"/>
<text text-anchor="middle" x="145.5" y="-74.5" font-family="Helvetica,sans-Serif" font-size="10.00" fill="#000000">RandomStreamBase</text>
</a>
</g>
</g>
<!-- Node7&#45;&gt;Node6 -->
<g id="edge1" class="edge">
<title>Node7&#45;&gt;Node6</title>
<path fill="none" stroke="#191970" d="M159.9899,-59.3486C170.4393,-46.6194 184.1454,-29.9229 192.6345,-19.5817"/>
<polygon fill="#191970" stroke="#191970" points="157.0199,-57.4505 153.3802,-67.4005 162.4304,-61.892 157.0199,-57.4505"/>
</g>
<!-- Node8 -->
<g id="node3" class="node">
<title>Node8</title>
<g id="a_node3"><a xlink:href="interfaceumontreal_1_1ssj_1_1rng_1_1CloneableRandomStream.html" target="_top" xlink:title="CloneableRandomStream extends RandomStream and Cloneable. ">
<polygon fill="none" stroke="#000000" points="23.5,-124.5 23.5,-143.5 151.5,-143.5 151.5,-124.5 23.5,-124.5"/>
<text text-anchor="middle" x="87.5" y="-131.5" font-family="Helvetica,sans-Serif" font-size="10.00" fill="#000000">CloneableRandomStream</text>
</a>
</g>
</g>
<!-- Node8&#45;&gt;Node7 -->
<g id="edge2" class="edge">
<title>Node8&#45;&gt;Node7</title>
<path fill="none" stroke="#191970" d="M104.555,-117.239C114.7379,-107.2317 127.3017,-94.8845 135.8064,-86.5265"/>
<polygon fill="#191970" stroke="#191970" points="102.018,-114.8251 97.3389,-124.3307 106.9245,-119.8177 102.018,-114.8251"/>
</g>
<!-- Node9 -->
<g id="node4" class="node">
<title>Node9</title>
<g id="a_node4"><a xlink:href="interfaceumontreal_1_1ssj_1_1rng_1_1RandomStream.html" target="_top" xlink:title="This interface defines the basic structures to handle multiple streams of uniform (pseudo)random numb...">
<polygon fill="none" stroke="#000000" points="0,-181.5 0,-200.5 85,-200.5 85,-181.5 0,-181.5"/>
<text text-anchor="middle" x="42.5" y="-188.5" font-family="Helvetica,sans-Serif" font-size="10.00" fill="#000000">RandomStream</text>
</a>
</g>
</g>
<!-- Node9&#45;&gt;Node8 -->
<g id="edge3" class="edge">
<title>Node9&#45;&gt;Node8</title>
<path fill="none" stroke="#191970" d="M56.4341,-173.3501C64.2035,-163.5089 73.5747,-151.6387 79.9791,-143.5265"/>
<polygon fill="#191970" stroke="#191970" points="53.583,-171.3131 50.1336,-181.3307 59.0772,-175.6506 53.583,-171.3131"/>
</g>
<!-- Node10 -->
<g id="node5" class="node">
<title>Node10</title>
<polygon fill="none" stroke="#bfbfbf" points="103.5,-181.5 103.5,-200.5 163.5,-200.5 163.5,-181.5 103.5,-181.5"/>
<text text-anchor="middle" x="133.5" y="-188.5" font-family="Helvetica,sans-Serif" font-size="10.00" fill="#000000">Cloneable</text>
</g>
<!-- Node10&#45;&gt;Node8 -->
<g id="edge4" class="edge">
<title>Node10&#45;&gt;Node8</title>
<path fill="none" stroke="#191970" d="M119.2562,-173.3501C111.3142,-163.5089 101.7347,-151.6387 95.188,-143.5265"/>
<polygon fill="#191970" stroke="#191970" points="116.6928,-175.7468 125.6967,-181.3307 122.1402,-171.3506 116.6928,-175.7468"/>
</g>
<!-- Node11 -->
<g id="node6" class="node">
<title>Node11</title>
<polygon fill="none" stroke="#bfbfbf" points="170,-124.5 170,-143.5 237,-143.5 237,-124.5 170,-124.5"/>
<text text-anchor="middle" x="203.5" y="-131.5" font-family="Helvetica,sans-Serif" font-size="10.00" fill="#000000">Serializable</text>
</g>
<!-- Node11&#45;&gt;Node7 -->
<g id="edge5" class="edge">
<title>Node11&#45;&gt;Node7</title>
<path fill="none" stroke="#191970" d="M186.445,-117.239C176.2621,-107.2317 163.6983,-94.8845 155.1936,-86.5265"/>
<polygon fill="#191970" stroke="#191970" points="184.0755,-119.8177 193.6611,-124.3307 188.982,-114.8251 184.0755,-119.8177"/>
</g>
<!-- Node12 -->
<g id="node7" class="node">
<title>Node12</title>
<g id="a_node7"><a xlink:href="classumontreal_1_1ssj_1_1mcqmctools_1_1anova_1_1CoordinateSet.html" target="_top" xlink:title="Represents a set of coordinates. ">
<polygon fill="none" stroke="#000000" points="217,-67.5 217,-86.5 296,-86.5 296,-67.5 217,-67.5"/>
<text text-anchor="middle" x="256.5" y="-74.5" font-family="Helvetica,sans-Serif" font-size="10.00" fill="#000000">CoordinateSet</text>
</a>
</g>
</g>
<!-- Node12&#45;&gt;Node6 -->
<g id="edge6" class="edge">
<title>Node12&#45;&gt;Node6</title>
<path fill="none" stroke="#9a32cd" stroke-dasharray="5,2" d="M242.0526,-59.7147C231.3761,-46.941 217.2351,-30.0224 208.5086,-19.5817"/>
<polygon fill="#9a32cd" stroke="#9a32cd" points="239.3779,-61.9723 248.4766,-67.4005 244.7489,-57.4831 239.3779,-61.9723"/>
<text text-anchor="middle" x="248" y="-41" font-family="Helvetica,sans-Serif" font-size="10.00" fill="#000000"> coords</text>
</g>
</g>
</svg>
