<?xml version="1.0" encoding="UTF-8" standalone="no"?>
<!DOCTYPE svg PUBLIC "-//W3C//DTD SVG 1.1//EN"
 "http://www.w3.org/Graphics/SVG/1.1/DTD/svg11.dtd">
<!-- Generated by graphviz version 2.40.1 (20161225.0304)
 -->
<!-- Title: DoublyLinked Pages: 1 -->
<svg width="335pt" height="355pt"
 viewBox="0.00 0.00 334.50 355.00" xmlns="http://www.w3.org/2000/svg" xmlns:xlink="http://www.w3.org/1999/xlink">
<g id="graph0" class="graph" transform="scale(1 1) rotate(0) translate(4 351)">
<title>DoublyLinked</title>
<!-- Node3 -->
<g id="node1" class="node">
<title>Node3</title>
<polygon fill="#bfbfbf" stroke="#000000" points="212.5,-.5 212.5,-19.5 288.5,-19.5 288.5,-.5 212.5,-.5"/>
<text text-anchor="middle" x="250.5" y="-7.5" font-family="Helvetica,sans-Serif" font-size="10.00" fill="#000000">DoublyLinked</text>
</g>
<!-- Node4 -->
<g id="node2" class="node">
<title>Node4</title>
<g id="a_node2"><a xlink:href="interfaceumontreal_1_1ssj_1_1simevents_1_1eventlist_1_1EventList.html" target="_top" xlink:title="An interface for implementations of event lists. ">
<polygon fill="none" stroke="#000000" points="251.5,-270.5 251.5,-289.5 309.5,-289.5 309.5,-270.5 251.5,-270.5"/>
<text text-anchor="middle" x="280.5" y="-277.5" font-family="Helvetica,sans-Serif" font-size="10.00" fill="#000000">EventList</text>
</a>
</g>
</g>
<!-- Node4&#45;&gt;Node3 -->
<g id="edge1" class="edge">
<title>Node4&#45;&gt;Node3</title>
<path fill="none" stroke="#191970" d="M293.2356,-261.681C301.0232,-248.7007 309.5,-230.5427 309.5,-213 309.5,-213 309.5,-213 309.5,-78 309.5,-52.0545 284.6922,-31.165 267.2492,-19.6839"/>
<polygon fill="#191970" stroke="#191970" points="290.2669,-259.8267 287.8179,-270.1346 296.1605,-263.6038 290.2669,-259.8267"/>
</g>
<!-- Node9 -->
<g id="node7" class="node">
<title>Node9</title>
<g id="a_node7"><a xlink:href="classumontreal_1_1ssj_1_1simevents_1_1Simulator.html" target="_top" xlink:title="Represents the executive of a discrete&#45;event simulator. ">
<polygon fill="none" stroke="#000000" points="131.5,-203.5 131.5,-222.5 189.5,-222.5 189.5,-203.5 131.5,-203.5"/>
<text text-anchor="middle" x="160.5" y="-210.5" font-family="Helvetica,sans-Serif" font-size="10.00" fill="#000000">Simulator</text>
</a>
</g>
</g>
<!-- Node4&#45;&gt;Node9 -->
<g id="edge8" class="edge">
<title>Node4&#45;&gt;Node9</title>
<path fill="none" stroke="#9a32cd" stroke-dasharray="5,2" d="M261.9507,-263.8904C252.6287,-256.3077 240.9105,-247.5206 229.5,-241 216.7042,-233.6877 201.6217,-227.3354 188.8266,-222.5382"/>
<polygon fill="#9a32cd" stroke="#9a32cd" points="259.8425,-266.6898 269.7606,-270.4159 264.3308,-261.3181 259.8425,-266.6898"/>
<text text-anchor="middle" x="267" y="-244" font-family="Helvetica,sans-Serif" font-size="10.00" fill="#000000"> eventList</text>
</g>
<!-- Node5 -->
<g id="node3" class="node">
<title>Node5</title>
<polygon fill="none" stroke="#bfbfbf" points="234.5,-327.5 234.5,-346.5 326.5,-346.5 326.5,-327.5 234.5,-327.5"/>
<text text-anchor="middle" x="280.5" y="-334.5" font-family="Helvetica,sans-Serif" font-size="10.00" fill="#000000">Iterable&lt; Event &gt;</text>
</g>
<!-- Node5&#45;&gt;Node4 -->
<g id="edge2" class="edge">
<title>Node5&#45;&gt;Node4</title>
<path fill="none" stroke="#191970" d="M280.5,-317.2342C280.5,-307.8491 280.5,-297.0651 280.5,-289.5265"/>
<polygon fill="#191970" stroke="#191970" points="277.0001,-317.3307 280.5,-327.3307 284.0001,-317.3308 277.0001,-317.3307"/>
</g>
<!-- Node6 -->
<g id="node4" class="node">
<title>Node6</title>
<polygon fill="none" stroke="#bfbfbf" points="132.5,-68.5 132.5,-87.5 234.5,-87.5 234.5,-68.5 132.5,-68.5"/>
<text text-anchor="middle" x="183.5" y="-75.5" font-family="Helvetica,sans-Serif" font-size="10.00" fill="#000000">DoublyLinked.Node</text>
</g>
<!-- Node6&#45;&gt;Node3 -->
<g id="edge3" class="edge">
<title>Node6&#45;&gt;Node3</title>
<path fill="none" stroke="#9a32cd" stroke-dasharray="5,2" d="M200.4215,-60.826C213.2361,-47.8201 230.3782,-30.4221 240.9183,-19.7247"/>
<polygon fill="#9a32cd" stroke="#9a32cd" points="197.6248,-58.6775 193.0995,-68.2573 202.6111,-63.5905 197.6248,-58.6775"/>
<text text-anchor="middle" x="230" y="-41" font-family="Helvetica,sans-Serif" font-size="10.00" fill="#000000"> last</text>
</g>
<!-- Node6&#45;&gt;Node6 -->
<g id="edge10" class="edge">
<title>Node6&#45;&gt;Node6</title>
<path fill="none" stroke="#9a32cd" stroke-dasharray="5,2" d="M244.8708,-82.7999C249.5912,-81.7374 252.5,-80.1375 252.5,-78 252.5,-74.5801 245.0535,-72.5361 234.6546,-71.8682"/>
<polygon fill="#9a32cd" stroke="#9a32cd" points="244.1181,-79.3683 234.6546,-84.1318 245.0232,-86.3095 244.1181,-79.3683"/>
<text text-anchor="middle" x="263.5" y="-81" font-family="Helvetica,sans-Serif" font-size="10.00" fill="#000000"> prec</text>
<text text-anchor="middle" x="263.5" y="-70" font-family="Helvetica,sans-Serif" font-size="10.00" fill="#000000">succ</text>
</g>
<!-- Node7 -->
<g id="node5" class="node">
<title>Node7</title>
<g id="a_node5"><a xlink:href="classumontreal_1_1ssj_1_1simevents_1_1Event.html" target="_top" xlink:title="This abstract class provides event scheduling tools. ">
<polygon fill="none" stroke="#000000" points="139.5,-136.5 139.5,-155.5 181.5,-155.5 181.5,-136.5 139.5,-136.5"/>
<text text-anchor="middle" x="160.5" y="-143.5" font-family="Helvetica,sans-Serif" font-size="10.00" fill="#000000">Event</text>
</a>
</g>
</g>
<!-- Node7&#45;&gt;Node6 -->
<g id="edge4" class="edge">
<title>Node7&#45;&gt;Node6</title>
<path fill="none" stroke="#9a32cd" stroke-dasharray="5,2" d="M167.0695,-126.5772C171.3668,-113.8719 176.7973,-97.8166 180.2108,-87.7247"/>
<polygon fill="#9a32cd" stroke="#9a32cd" points="163.684,-125.663 163.7953,-136.2573 170.3149,-127.9059 163.684,-125.663"/>
<text text-anchor="middle" x="180.5" y="-110" font-family="Helvetica,sans-Serif" font-size="10.00" fill="#000000"> ev</text>
</g>
<!-- Node8 -->
<g id="node6" class="node">
<title>Node8</title>
<polygon fill="none" stroke="#bfbfbf" points="0,-203.5 0,-222.5 113,-222.5 113,-203.5 0,-203.5"/>
<text text-anchor="middle" x="56.5" y="-210.5" font-family="Helvetica,sans-Serif" font-size="10.00" fill="#000000">Comparable&lt; Event &gt;</text>
</g>
<!-- Node8&#45;&gt;Node7 -->
<g id="edge5" class="edge">
<title>Node8&#45;&gt;Node7</title>
<path fill="none" stroke="#191970" d="M79.998,-197.8619C100.1245,-184.8957 128.4944,-166.619 145.627,-155.5817"/>
<polygon fill="#191970" stroke="#191970" points="77.9117,-195.0425 71.4007,-203.4005 81.7027,-200.927 77.9117,-195.0425"/>
</g>
<!-- Node9&#45;&gt;Node7 -->
<g id="edge6" class="edge">
<title>Node9&#45;&gt;Node7</title>
<path fill="none" stroke="#9a32cd" stroke-dasharray="5,2" d="M160.5,-193.1079C160.5,-180.714 160.5,-165.3263 160.5,-155.5817"/>
<polygon fill="#9a32cd" stroke="#9a32cd" points="157.0001,-193.4005 160.5,-203.4005 164.0001,-193.4006 157.0001,-193.4005"/>
<text text-anchor="middle" x="170" y="-177" font-family="Helvetica,sans-Serif" font-size="10.00" fill="#000000"> sim</text>
</g>
<!-- Node9&#45;&gt;Node9 -->
<g id="edge7" class="edge">
<title>Node9&#45;&gt;Node9</title>
<path fill="none" stroke="#9a32cd" stroke-dasharray="5,2" d="M200.103,-218.0845C204.5912,-217.1323 207.5,-215.4375 207.5,-213 207.5,-209 199.6667,-207 189.875,-207"/>
<polygon fill="#9a32cd" stroke="#9a32cd" points="199.5231,-214.6223 189.875,-219 200.1473,-221.5944 199.5231,-214.6223"/>
<text text-anchor="middle" x="244.5" y="-210.5" font-family="Helvetica,sans-Serif" font-size="10.00" fill="#000000"> defaultSimulator</text>
</g>
<!-- Node10 -->
<g id="node8" class="node">
<title>Node10</title>
<g id="a_node8"><a xlink:href="classumontreal_1_1ssj_1_1simevents_1_1ContinuousState.html" target="_top" xlink:title="Represents the portion of the simulator’s state associated with continuous&#45;time simulation. ">
<polygon fill="none" stroke="#000000" points="110,-270.5 110,-289.5 199,-289.5 199,-270.5 110,-270.5"/>
<text text-anchor="middle" x="154.5" y="-277.5" font-family="Helvetica,sans-Serif" font-size="10.00" fill="#000000">ContinuousState</text>
</a>
</g>
</g>
<!-- Node10&#45;&gt;Node9 -->
<g id="edge9" class="edge">
<title>Node10&#45;&gt;Node9</title>
<path fill="none" stroke="#9a32cd" stroke-dasharray="5,2" d="M154.4283,-260.2231C154.5612,-254.0535 154.8672,-247.233 155.5,-241 156.1284,-234.8099 157.3495,-227.9302 158.4276,-222.5393"/>
<polygon fill="#9a32cd" stroke="#9a32cd" points="150.9274,-260.3289 154.3432,-270.358 157.9272,-260.3878 150.9274,-260.3289"/>
<text text-anchor="middle" x="192.5" y="-244" font-family="Helvetica,sans-Serif" font-size="10.00" fill="#000000"> continuousState</text>
</g>
</g>
</svg>
