<?xml version="1.0" encoding="UTF-8" standalone="no"?>
<!DOCTYPE svg PUBLIC "-//W3C//DTD SVG 1.1//EN"
 "http://www.w3.org/Graphics/SVG/1.1/DTD/svg11.dtd">
<!-- Generated by graphviz version 2.40.1 (0)
 -->
<!-- Title: RandomVariateGenInt Pages: 1 -->
<svg width="565pt" height="370pt"
 viewBox="0.00 0.00 565.00 370.00" xmlns="http://www.w3.org/2000/svg" xmlns:xlink="http://www.w3.org/1999/xlink">
<g id="graph0" class="graph" transform="scale(1 1) rotate(0) translate(4 366)">
<title>RandomVariateGenInt</title>
<!-- Node0 -->
<g id="node1" class="node">
<title>Node0</title>
<g id="a_node1"><a xlink:title="This is the base class for all generators of discrete random variates over the set of integers.">
<polygon fill="#bfbfbf" stroke="#000000" points="137,-171.5 137,-190.5 250,-190.5 250,-171.5 137,-171.5"/>
<text text-anchor="middle" x="193.5" y="-178.5" font-family="Helvetica,sans-Serif" font-size="10.00" fill="#000000">RandomVariateGenInt</text>
</a>
</g>
</g>
<!-- Node2 -->
<g id="node3" class="node">
<title>Node2</title>
<g id="a_node3"><a xlink:href="classumontreal_1_1ssj_1_1randvar_1_1BernoulliGen.html" target="_top" xlink:title="This class implements random variate generators for the Bernoulli distribution (see class umontreal....">
<polygon fill="none" stroke="#000000" points="305.5,-342.5 305.5,-361.5 377.5,-361.5 377.5,-342.5 305.5,-342.5"/>
<text text-anchor="middle" x="341.5" y="-349.5" font-family="Helvetica,sans-Serif" font-size="10.00" fill="#000000">BernoulliGen</text>
</a>
</g>
</g>
<!-- Node0&#45;&gt;Node2 -->
<g id="edge2" class="edge">
<title>Node0&#45;&gt;Node2</title>
<path fill="none" stroke="#191970" d="M200.2482,-200.3523C212.4091,-232.4741 241.0027,-296.8371 286,-333 291.6363,-337.5297 298.4153,-341.0083 305.2695,-343.6705"/>
<polygon fill="#191970" stroke="#191970" points="203.4715,-198.9752 196.7541,-190.7821 196.896,-201.376 203.4715,-198.9752"/>
</g>
<!-- Node3 -->
<g id="node4" class="node">
<title>Node3</title>
<g id="a_node4"><a xlink:href="classumontreal_1_1ssj_1_1randvar_1_1BinomialGen.html" target="_top" xlink:title="This class implements random variate generators for the binomial distribution.">
<polygon fill="none" stroke="#000000" points="305.5,-304.5 305.5,-323.5 377.5,-323.5 377.5,-304.5 305.5,-304.5"/>
<text text-anchor="middle" x="341.5" y="-311.5" font-family="Helvetica,sans-Serif" font-size="10.00" fill="#000000">BinomialGen</text>
</a>
</g>
</g>
<!-- Node0&#45;&gt;Node3 -->
<g id="edge3" class="edge">
<title>Node0&#45;&gt;Node3</title>
<path fill="none" stroke="#191970" d="M204.0338,-199.6768C219.1002,-224.785 249.1018,-269.2392 286,-295 291.8454,-299.081 298.6438,-302.3508 305.4368,-304.9479"/>
<polygon fill="#191970" stroke="#191970" points="206.9085,-197.6589 198.8423,-190.7897 200.8643,-201.1898 206.9085,-197.6589"/>
</g>
<!-- Node5 -->
<g id="node6" class="node">
<title>Node5</title>
<g id="a_node6"><a xlink:href="classumontreal_1_1ssj_1_1randvar_1_1GeometricGen.html" target="_top" xlink:title="This class implements a random variate generator for the geometric distribution.">
<polygon fill="none" stroke="#000000" points="301.5,-266.5 301.5,-285.5 381.5,-285.5 381.5,-266.5 301.5,-266.5"/>
<text text-anchor="middle" x="341.5" y="-273.5" font-family="Helvetica,sans-Serif" font-size="10.00" fill="#000000">GeometricGen</text>
</a>
</g>
</g>
<!-- Node0&#45;&gt;Node5 -->
<g id="edge5" class="edge">
<title>Node0&#45;&gt;Node5</title>
<path fill="none" stroke="#191970" d="M210.0904,-197.8022C227.6175,-214.7465 256.7224,-240.6689 286,-257 292.5818,-260.6713 299.9959,-263.8077 307.2112,-266.4117"/>
<polygon fill="#191970" stroke="#191970" points="212.4743,-195.2376 202.8931,-190.7154 207.563,-200.2255 212.4743,-195.2376"/>
</g>
<!-- Node6 -->
<g id="node7" class="node">
<title>Node6</title>
<g id="a_node7"><a xlink:href="classumontreal_1_1ssj_1_1randvar_1_1HypergeometricGen.html" target="_top" xlink:title="This class implements random variate generators for the hypergeometric distribution.">
<polygon fill="none" stroke="#000000" points="289.5,-228.5 289.5,-247.5 393.5,-247.5 393.5,-228.5 289.5,-228.5"/>
<text text-anchor="middle" x="341.5" y="-235.5" font-family="Helvetica,sans-Serif" font-size="10.00" fill="#000000">HypergeometricGen</text>
</a>
</g>
</g>
<!-- Node0&#45;&gt;Node6 -->
<g id="edge6" class="edge">
<title>Node0&#45;&gt;Node6</title>
<path fill="none" stroke="#191970" d="M225.1137,-194.5368C242.8991,-202.0135 265.5713,-211.3149 286,-219 294.579,-222.2273 303.9855,-225.5338 312.5773,-228.4648"/>
<polygon fill="#191970" stroke="#191970" points="226.3547,-191.2616 215.781,-190.5926 223.6297,-197.7094 226.3547,-191.2616"/>
</g>
<!-- Node7 -->
<g id="node8" class="node">
<title>Node7</title>
<g id="a_node8"><a xlink:href="classumontreal_1_1ssj_1_1randvar_1_1LogarithmicGen.html" target="_top" xlink:title="This class implements random variate generators for the (discrete) logarithmic distribution.">
<polygon fill="none" stroke="#000000" points="299,-190.5 299,-209.5 384,-209.5 384,-190.5 299,-190.5"/>
<text text-anchor="middle" x="341.5" y="-197.5" font-family="Helvetica,sans-Serif" font-size="10.00" fill="#000000">LogarithmicGen</text>
</a>
</g>
</g>
<!-- Node0&#45;&gt;Node7 -->
<g id="edge7" class="edge">
<title>Node0&#45;&gt;Node7</title>
<path fill="none" stroke="#191970" d="M260.2483,-189.569C273.3756,-191.2543 286.8103,-192.979 298.8784,-194.5283"/>
<polygon fill="#191970" stroke="#191970" points="260.6617,-186.0935 250.2974,-188.2916 259.7703,-193.0365 260.6617,-186.0935"/>
</g>
<!-- Node8 -->
<g id="node9" class="node">
<title>Node8</title>
<g id="a_node9"><a xlink:href="classumontreal_1_1ssj_1_1randvar_1_1NegativeBinomialGen.html" target="_top" xlink:title="This class implements random variate generators having the negative binomial distribution.">
<polygon fill="none" stroke="#000000" points="286,-152.5 286,-171.5 397,-171.5 397,-152.5 286,-152.5"/>
<text text-anchor="middle" x="341.5" y="-159.5" font-family="Helvetica,sans-Serif" font-size="10.00" fill="#000000">NegativeBinomialGen</text>
</a>
</g>
</g>
<!-- Node0&#45;&gt;Node8 -->
<g id="edge8" class="edge">
<title>Node0&#45;&gt;Node8</title>
<path fill="none" stroke="#191970" d="M260.455,-172.4044C268.8563,-171.3259 277.3798,-170.2316 285.5871,-169.178"/>
<polygon fill="#191970" stroke="#191970" points="259.7703,-168.9635 250.2974,-173.7084 260.6617,-175.9065 259.7703,-168.9635"/>
</g>
<!-- Node9 -->
<g id="node10" class="node">
<title>Node9</title>
<g id="a_node10"><a xlink:href="classumontreal_1_1ssj_1_1randvar_1_1PascalGen.html" target="_top" xlink:title="Implements Pascal random variate generators, which is a special case of the negative binomial generat...">
<polygon fill="none" stroke="#000000" points="309,-114.5 309,-133.5 374,-133.5 374,-114.5 309,-114.5"/>
<text text-anchor="middle" x="341.5" y="-121.5" font-family="Helvetica,sans-Serif" font-size="10.00" fill="#000000">PascalGen</text>
</a>
</g>
</g>
<!-- Node0&#45;&gt;Node9 -->
<g id="edge9" class="edge">
<title>Node0&#45;&gt;Node9</title>
<path fill="none" stroke="#191970" d="M225.1137,-167.4632C242.8991,-159.9865 265.5713,-150.6851 286,-143 294.579,-139.7727 303.9855,-136.4662 312.5773,-133.5352"/>
<polygon fill="#191970" stroke="#191970" points="223.6297,-164.2906 215.781,-171.4074 226.3547,-170.7384 223.6297,-164.2906"/>
</g>
<!-- Node11 -->
<g id="node12" class="node">
<title>Node11</title>
<g id="a_node12"><a xlink:href="classumontreal_1_1ssj_1_1randvar_1_1PoissonGen.html" target="_top" xlink:title="This class implements random variate generators having the Poisson distribution.">
<polygon fill="none" stroke="#000000" points="306.5,-76.5 306.5,-95.5 376.5,-95.5 376.5,-76.5 306.5,-76.5"/>
<text text-anchor="middle" x="341.5" y="-83.5" font-family="Helvetica,sans-Serif" font-size="10.00" fill="#000000">PoissonGen</text>
</a>
</g>
</g>
<!-- Node0&#45;&gt;Node11 -->
<g id="edge11" class="edge">
<title>Node0&#45;&gt;Node11</title>
<path fill="none" stroke="#191970" d="M210.0904,-164.1978C227.6175,-147.2535 256.7224,-121.3311 286,-105 292.5818,-101.3287 299.9959,-98.1923 307.2112,-95.5883"/>
<polygon fill="#191970" stroke="#191970" points="207.563,-161.7745 202.8931,-171.2846 212.4743,-166.7624 207.563,-161.7745"/>
</g>
<!-- Node13 -->
<g id="node14" class="node">
<title>Node13</title>
<g id="a_node14"><a xlink:href="classumontreal_1_1ssj_1_1randvar_1_1UniformIntGen.html" target="_top" xlink:title="This class implements a random variate generator for the uniform distribution over integers,...">
<polygon fill="none" stroke="#000000" points="301.5,-38.5 301.5,-57.5 381.5,-57.5 381.5,-38.5 301.5,-38.5"/>
<text text-anchor="middle" x="341.5" y="-45.5" font-family="Helvetica,sans-Serif" font-size="10.00" fill="#000000">UniformIntGen</text>
</a>
</g>
</g>
<!-- Node0&#45;&gt;Node13 -->
<g id="edge13" class="edge">
<title>Node0&#45;&gt;Node13</title>
<path fill="none" stroke="#191970" d="M204.0338,-162.3232C219.1002,-137.215 249.1018,-92.7608 286,-67 291.5114,-63.1522 297.8699,-60.0255 304.2724,-57.5039"/>
<polygon fill="#191970" stroke="#191970" points="200.8643,-160.8102 198.8423,-171.2103 206.9085,-164.3411 200.8643,-160.8102"/>
</g>
<!-- Node14 -->
<g id="node15" class="node">
<title>Node14</title>
<g id="a_node15"><a xlink:href="classumontreal_1_1ssj_1_1randvar_1_1UnuranDiscreteInt.html" target="_top" xlink:title="This class permits one to create a discrete univariate generator using UNURAN via its string API.">
<polygon fill="none" stroke="#000000" points="293.5,-.5 293.5,-19.5 389.5,-19.5 389.5,-.5 293.5,-.5"/>
<text text-anchor="middle" x="341.5" y="-7.5" font-family="Helvetica,sans-Serif" font-size="10.00" fill="#000000">UnuranDiscreteInt</text>
</a>
</g>
</g>
<!-- Node0&#45;&gt;Node14 -->
<g id="edge14" class="edge">
<title>Node0&#45;&gt;Node14</title>
<path fill="none" stroke="#191970" d="M200.2482,-161.6477C212.4091,-129.5259 241.0027,-65.1629 286,-29 290.8425,-25.1083 296.5284,-21.9924 302.3808,-19.5036"/>
<polygon fill="#191970" stroke="#191970" points="196.896,-160.624 196.7541,-171.2179 203.4715,-163.0248 196.896,-160.624"/>
</g>
<!-- Node1 -->
<g id="node2" class="node">
<title>Node1</title>
<g id="a_node2"><a xlink:href="classumontreal_1_1ssj_1_1randvar_1_1RandomVariateGen.html" target="_top" xlink:title="This is the base class for all random variate generators over the real line.">
<polygon fill="none" stroke="#000000" points="0,-171.5 0,-190.5 101,-190.5 101,-171.5 0,-171.5"/>
<text text-anchor="middle" x="50.5" y="-178.5" font-family="Helvetica,sans-Serif" font-size="10.00" fill="#000000">RandomVariateGen</text>
</a>
</g>
</g>
<!-- Node1&#45;&gt;Node0 -->
<g id="edge1" class="edge">
<title>Node1&#45;&gt;Node0</title>
<path fill="none" stroke="#191970" d="M111.3655,-181C119.7078,-181 128.2477,-181 136.5171,-181"/>
<polygon fill="#191970" stroke="#191970" points="111.3191,-177.5001 101.3191,-181 111.3191,-184.5001 111.3191,-177.5001"/>
</g>
<!-- Node4 -->
<g id="node5" class="node">
<title>Node4</title>
<g id="a_node5"><a xlink:href="classumontreal_1_1ssj_1_1randvar_1_1BinomialConvolutionGen.html" target="_top" xlink:title="Implements binomial random variate generators using the convolution method.">
<polygon fill="none" stroke="#000000" points="433,-304.5 433,-323.5 557,-323.5 557,-304.5 433,-304.5"/>
<text text-anchor="middle" x="495" y="-311.5" font-family="Helvetica,sans-Serif" font-size="10.00" fill="#000000">BinomialConvolutionGen</text>
</a>
</g>
</g>
<!-- Node3&#45;&gt;Node4 -->
<g id="edge4" class="edge">
<title>Node3&#45;&gt;Node4</title>
<path fill="none" stroke="#191970" d="M388.2588,-314C402.2898,-314 417.9077,-314 432.7714,-314"/>
<polygon fill="#191970" stroke="#191970" points="387.8774,-310.5001 377.8774,-314 387.8773,-317.5001 387.8774,-310.5001"/>
</g>
<!-- Node10 -->
<g id="node11" class="node">
<title>Node10</title>
<g id="a_node11"><a xlink:href="classumontreal_1_1ssj_1_1randvar_1_1PascalConvolutionGen.html" target="_top" xlink:title="Implements Pascal random variate generators by the convolution method (see  ).">
<polygon fill="none" stroke="#000000" points="437,-114.5 437,-133.5 553,-133.5 553,-114.5 437,-114.5"/>
<text text-anchor="middle" x="495" y="-121.5" font-family="Helvetica,sans-Serif" font-size="10.00" fill="#000000">PascalConvolutionGen</text>
</a>
</g>
</g>
<!-- Node9&#45;&gt;Node10 -->
<g id="edge10" class="edge">
<title>Node9&#45;&gt;Node10</title>
<path fill="none" stroke="#191970" d="M384.3207,-124C400.5632,-124 419.3439,-124 436.7699,-124"/>
<polygon fill="#191970" stroke="#191970" points="384.0534,-120.5001 374.0534,-124 384.0534,-127.5001 384.0534,-120.5001"/>
</g>
<!-- Node12 -->
<g id="node13" class="node">
<title>Node12</title>
<g id="a_node13"><a xlink:href="classumontreal_1_1ssj_1_1randvar_1_1PoissonTIACGen.html" target="_top" xlink:title="This class implements random variate generators having the Poisson distribution (see PoissonGen ).">
<polygon fill="none" stroke="#000000" points="449,-76.5 449,-95.5 541,-95.5 541,-76.5 449,-76.5"/>
<text text-anchor="middle" x="495" y="-83.5" font-family="Helvetica,sans-Serif" font-size="10.00" fill="#000000">PoissonTIACGen</text>
</a>
</g>
</g>
<!-- Node11&#45;&gt;Node12 -->
<g id="edge12" class="edge">
<title>Node11&#45;&gt;Node12</title>
<path fill="none" stroke="#191970" d="M386.8981,-86C406.4411,-86 429.2592,-86 448.8815,-86"/>
<polygon fill="#191970" stroke="#191970" points="386.716,-82.5001 376.716,-86 386.716,-89.5001 386.716,-82.5001"/>
</g>
</g>
</svg>
