<?xml version="1.0" encoding="UTF-8" standalone="no"?>
<!DOCTYPE svg PUBLIC "-//W3C//DTD SVG 1.1//EN"
 "http://www.w3.org/Graphics/SVG/1.1/DTD/svg11.dtd">
<!-- Generated by graphviz version 2.40.1 (20161225.0304)
 -->
<!-- Title: OrnsteinUhlenbeckProcess Pages: 1 -->
<svg width="251pt" height="219pt"
 viewBox="0.00 0.00 250.50 219.00" xmlns="http://www.w3.org/2000/svg" xmlns:xlink="http://www.w3.org/1999/xlink">
<g id="graph0" class="graph" transform="scale(1 1) rotate(0) translate(4 215)">
<title>OrnsteinUhlenbeckProcess</title>
<!-- Node4 -->
<g id="node1" class="node">
<title>Node4</title>
<polygon fill="#bfbfbf" stroke="#000000" points="0,-.5 0,-19.5 136,-19.5 136,-.5 0,-.5"/>
<text text-anchor="middle" x="68" y="-7.5" font-family="Helvetica,sans-Serif" font-size="10.00" fill="#000000">OrnsteinUhlenbeckProcess</text>
</g>
<!-- Node5 -->
<g id="node2" class="node">
<title>Node5</title>
<g id="a_node2"><a xlink:href="classumontreal_1_1ssj_1_1stochprocess_1_1StochasticProcess.html" target="_top" xlink:title="Abstract base class for a stochastic process &#160;sampled (or observed) at a finite number of time points...">
<polygon fill="none" stroke="#000000" points="2.5,-67.5 2.5,-86.5 101.5,-86.5 101.5,-67.5 2.5,-67.5"/>
<text text-anchor="middle" x="52" y="-74.5" font-family="Helvetica,sans-Serif" font-size="10.00" fill="#000000">StochasticProcess</text>
</a>
</g>
</g>
<!-- Node5&#45;&gt;Node4 -->
<g id="edge1" class="edge">
<title>Node5&#45;&gt;Node4</title>
<path fill="none" stroke="#191970" d="M56.66,-57.4863C59.635,-45.0286 63.361,-29.4258 65.7118,-19.5817"/>
<polygon fill="#191970" stroke="#191970" points="53.211,-56.861 54.2924,-67.4005 60.0195,-58.487 53.211,-56.861"/>
</g>
<!-- Node6 -->
<g id="node3" class="node">
<title>Node6</title>
<g id="a_node3"><a xlink:href="classumontreal_1_1ssj_1_1randvar_1_1NormalGen.html" target="_top" xlink:title="This class implements methods for generating random variates from the normal distribution ...">
<polygon fill="none" stroke="#000000" points="120,-67.5 120,-86.5 186,-86.5 186,-67.5 120,-67.5"/>
<text text-anchor="middle" x="153" y="-74.5" font-family="Helvetica,sans-Serif" font-size="10.00" fill="#000000">NormalGen</text>
</a>
</g>
</g>
<!-- Node6&#45;&gt;Node4 -->
<g id="edge2" class="edge">
<title>Node6&#45;&gt;Node4</title>
<path fill="none" stroke="#9a32cd" stroke-dasharray="5,2" d="M132.8993,-61.1559C116.5128,-48.2395 93.9061,-30.4201 80.1558,-19.5817"/>
<polygon fill="#9a32cd" stroke="#9a32cd" points="130.8013,-63.9588 140.8216,-67.4005 135.1347,-58.4613 130.8013,-63.9588"/>
<text text-anchor="middle" x="125.5" y="-41" font-family="Helvetica,sans-Serif" font-size="10.00" fill="#000000"> gen</text>
</g>
<!-- Node7 -->
<g id="node4" class="node">
<title>Node7</title>
<g id="a_node4"><a xlink:href="classumontreal_1_1ssj_1_1randvar_1_1RandomVariateGen.html" target="_top" xlink:title="This is the base class for all random variate generators over the real line. ">
<polygon fill="none" stroke="#000000" points="102.5,-124.5 102.5,-143.5 203.5,-143.5 203.5,-124.5 102.5,-124.5"/>
<text text-anchor="middle" x="153" y="-131.5" font-family="Helvetica,sans-Serif" font-size="10.00" fill="#000000">RandomVariateGen</text>
</a>
</g>
</g>
<!-- Node7&#45;&gt;Node6 -->
<g id="edge3" class="edge">
<title>Node7&#45;&gt;Node6</title>
<path fill="none" stroke="#191970" d="M153,-114.2342C153,-104.8491 153,-94.0651 153,-86.5265"/>
<polygon fill="#191970" stroke="#191970" points="149.5001,-114.3307 153,-124.3307 156.5001,-114.3308 149.5001,-114.3307"/>
</g>
<!-- Node8 -->
<g id="node5" class="node">
<title>Node8</title>
<g id="a_node5"><a xlink:href="interfaceumontreal_1_1ssj_1_1probdist_1_1Distribution.html" target="_top" xlink:title="This interface should be implemented by all classes supporting discrete and continuous distributions...">
<polygon fill="none" stroke="#000000" points="73,-191.5 73,-210.5 139,-210.5 139,-191.5 73,-191.5"/>
<text text-anchor="middle" x="106" y="-198.5" font-family="Helvetica,sans-Serif" font-size="10.00" fill="#000000">Distribution</text>
</a>
</g>
</g>
<!-- Node8&#45;&gt;Node7 -->
<g id="edge4" class="edge">
<title>Node8&#45;&gt;Node7</title>
<path fill="none" stroke="#9a32cd" stroke-dasharray="5,2" d="M118.6407,-182.9803C127.5366,-170.2989 139.094,-153.8235 146.2785,-143.5817"/>
<polygon fill="#9a32cd" stroke="#9a32cd" points="115.6115,-181.2039 112.734,-191.4005 121.3421,-185.2239 115.6115,-181.2039"/>
<text text-anchor="middle" x="142.5" y="-165" font-family="Helvetica,sans-Serif" font-size="10.00" fill="#000000"> dist</text>
</g>
<!-- Node9 -->
<g id="node6" class="node">
<title>Node9</title>
<g id="a_node6"><a xlink:href="interfaceumontreal_1_1ssj_1_1rng_1_1RandomStream.html" target="_top" xlink:title="This interface defines the basic structures to handle multiple streams of uniform (pseudo)random numb...">
<polygon fill="none" stroke="#000000" points="157.5,-191.5 157.5,-210.5 242.5,-210.5 242.5,-191.5 157.5,-191.5"/>
<text text-anchor="middle" x="200" y="-198.5" font-family="Helvetica,sans-Serif" font-size="10.00" fill="#000000">RandomStream</text>
</a>
</g>
</g>
<!-- Node9&#45;&gt;Node7 -->
<g id="edge5" class="edge">
<title>Node9&#45;&gt;Node7</title>
<path fill="none" stroke="#9a32cd" stroke-dasharray="5,2" d="M187.3593,-182.9803C178.4634,-170.2989 166.906,-153.8235 159.7215,-143.5817"/>
<polygon fill="#9a32cd" stroke="#9a32cd" points="184.6579,-185.2239 193.266,-191.4005 190.3885,-181.2039 184.6579,-185.2239"/>
<text text-anchor="middle" x="196" y="-165" font-family="Helvetica,sans-Serif" font-size="10.00" fill="#000000"> stream</text>
</g>
</g>
</svg>
