<?xml version="1.0" encoding="UTF-8" standalone="no"?>
<!DOCTYPE svg PUBLIC "-//W3C//DTD SVG 1.1//EN"
 "http://www.w3.org/Graphics/SVG/1.1/DTD/svg11.dtd">
<!-- Generated by graphviz version 2.40.1 (20161225.0304)
 -->
<!-- Title: ShiftedMathFunction Pages: 1 -->
<svg width="425pt" height="159pt"
 viewBox="0.00 0.00 425.00 158.66" xmlns="http://www.w3.org/2000/svg" xmlns:xlink="http://www.w3.org/1999/xlink">
<g id="graph0" class="graph" transform="scale(1 1) rotate(0) translate(4 154.6604)">
<title>ShiftedMathFunction</title>
<!-- Node5 -->
<g id="node1" class="node">
<title>Node5</title>
<polygon fill="#bfbfbf" stroke="#000000" points="310,-76.5 310,-95.5 417,-95.5 417,-76.5 310,-76.5"/>
<text text-anchor="middle" x="363.5" y="-83.5" font-family="Helvetica,sans-Serif" font-size="10.00" fill="#000000">ShiftedMathFunction</text>
</g>
<!-- Node6 -->
<g id="node2" class="node">
<title>Node6</title>
<g id="a_node2"><a xlink:href="interfaceumontreal_1_1ssj_1_1functions_1_1MathFunction.html" target="_top" xlink:title="This interface should be implemented by classes which represent univariate mathematical functions...">
<polygon fill="none" stroke="#000000" points="0,-76.5 0,-95.5 76,-95.5 76,-76.5 0,-76.5"/>
<text text-anchor="middle" x="38" y="-83.5" font-family="Helvetica,sans-Serif" font-size="10.00" fill="#000000">MathFunction</text>
</a>
</g>
</g>
<!-- Node6&#45;&gt;Node5 -->
<g id="edge1" class="edge">
<title>Node6&#45;&gt;Node5</title>
<path fill="none" stroke="#191970" d="M49.3545,-104.3672C59.2294,-118.5149 74.931,-137.1105 94,-146 101.0166,-149.271 37.7925,-153.1854 273,-147 281.4532,-146.7777 284.1327,-149.1002 292,-146 319.1376,-135.3062 343.4614,-109.9875 355.512,-95.897"/>
<polygon fill="#191970" stroke="#191970" points="52.1643,-102.2709 43.7298,-95.8592 46.325,-106.1313 52.1643,-102.2709"/>
</g>
<!-- Node6&#45;&gt;Node5 -->
<g id="edge8" class="edge">
<title>Node6&#45;&gt;Node5</title>
<path fill="none" stroke="#9a32cd" stroke-dasharray="5,2" d="M78.2275,-98.1417C89.3829,-100.9726 101.5704,-103.5748 113,-105 183.5646,-113.7992 202.2692,-112.3447 273,-105 290.8847,-103.1428 310.4425,-99.274 326.7863,-95.5091"/>
<polygon fill="#9a32cd" stroke="#9a32cd" points="78.8882,-94.6958 68.3243,-95.505 77.0871,-101.4601 78.8882,-94.6958"/>
<text text-anchor="middle" x="193" y="-114" font-family="Helvetica,sans-Serif" font-size="10.00" fill="#000000"> func</text>
</g>
<!-- Node7 -->
<g id="node3" class="node">
<title>Node7</title>
<g id="a_node3"><a xlink:href="interfaceumontreal_1_1ssj_1_1functions_1_1MathFunctionWithFirstDerivative.html" target="_top" xlink:title="Represents a mathematical function whose derivative can be computed using derivative(double). ">
<polygon fill="none" stroke="#000000" points="113,-76.5 113,-95.5 273,-95.5 273,-76.5 113,-76.5"/>
<text text-anchor="middle" x="193" y="-83.5" font-family="Helvetica,sans-Serif" font-size="10.00" fill="#000000">MathFunctionWithFirstDerivative</text>
</a>
</g>
</g>
<!-- Node6&#45;&gt;Node7 -->
<g id="edge3" class="edge">
<title>Node6&#45;&gt;Node7</title>
<path fill="none" stroke="#191970" d="M86.3705,-86C94.8643,-86 103.9043,-86 112.9904,-86"/>
<polygon fill="#191970" stroke="#191970" points="86.3147,-82.5001 76.3146,-86 86.3146,-89.5001 86.3147,-82.5001"/>
</g>
<!-- Node8 -->
<g id="node4" class="node">
<title>Node8</title>
<g id="a_node4"><a xlink:href="interfaceumontreal_1_1ssj_1_1functions_1_1MathFunctionWithDerivative.html" target="_top" xlink:title="Represents a mathematical function whose th derivative can be computed using derivative(double,int). ">
<polygon fill="none" stroke="#000000" points="123,-38.5 123,-57.5 263,-57.5 263,-38.5 123,-38.5"/>
<text text-anchor="middle" x="193" y="-45.5" font-family="Helvetica,sans-Serif" font-size="10.00" fill="#000000">MathFunctionWithDerivative</text>
</a>
</g>
</g>
<!-- Node6&#45;&gt;Node8 -->
<g id="edge5" class="edge">
<title>Node6&#45;&gt;Node8</title>
<path fill="none" stroke="#191970" d="M85.1704,-73.9359C94.3927,-71.6095 103.9948,-69.2099 113,-67 125.7548,-63.87 139.6741,-60.5358 152.2736,-57.5484"/>
<polygon fill="#191970" stroke="#191970" points="84.1942,-70.5725 75.3585,-76.419 85.9116,-77.3586 84.1942,-70.5725"/>
</g>
<!-- Node9 -->
<g id="node5" class="node">
<title>Node9</title>
<g id="a_node5"><a xlink:href="interfaceumontreal_1_1ssj_1_1functions_1_1MathFunctionWithIntegral.html" target="_top" xlink:title="Represents a mathematical function whose integral can be computed by the integral(double,double) method. ">
<polygon fill="none" stroke="#000000" points="129,-.5 129,-19.5 257,-19.5 257,-.5 129,-.5"/>
<text text-anchor="middle" x="193" y="-7.5" font-family="Helvetica,sans-Serif" font-size="10.00" fill="#000000">MathFunctionWithIntegral</text>
</a>
</g>
</g>
<!-- Node6&#45;&gt;Node9 -->
<g id="edge7" class="edge">
<title>Node6&#45;&gt;Node9</title>
<path fill="none" stroke="#191970" d="M55.3538,-69.4191C69.7247,-56.5721 91.2459,-39.282 113,-29 121.1309,-25.157 130.1049,-22.0547 139.0145,-19.5614"/>
<polygon fill="#191970" stroke="#191970" points="52.7686,-67.0412 47.7709,-76.3833 57.5036,-72.1968 52.7686,-67.0412"/>
</g>
<!-- Node7&#45;&gt;Node5 -->
<g id="edge2" class="edge">
<title>Node7&#45;&gt;Node5</title>
<path fill="none" stroke="#191970" d="M283.4703,-86C292.5056,-86 301.4625,-86 309.9329,-86"/>
<polygon fill="#191970" stroke="#191970" points="283.2575,-82.5001 273.2574,-86 283.2574,-89.5001 283.2575,-82.5001"/>
</g>
<!-- Node8&#45;&gt;Node5 -->
<g id="edge4" class="edge">
<title>Node8&#45;&gt;Node5</title>
<path fill="none" stroke="#191970" d="M246.0536,-59.8243C270.0911,-65.1816 298.1318,-71.4311 320.785,-76.4799"/>
<polygon fill="#191970" stroke="#191970" points="246.5463,-56.3483 236.0243,-57.589 245.0235,-63.1806 246.5463,-56.3483"/>
</g>
<!-- Node9&#45;&gt;Node5 -->
<g id="edge6" class="edge">
<title>Node9&#45;&gt;Node5</title>
<path fill="none" stroke="#191970" d="M254.5423,-22.4241C260.8701,-24.3491 267.1267,-26.5332 273,-29 303.1309,-41.6548 334.6072,-63.8507 351.3374,-76.4873"/>
<polygon fill="#191970" stroke="#191970" points="255.16,-18.9616 244.5849,-19.6089 253.2555,-25.6975 255.16,-18.9616"/>
</g>
</g>
</svg>
