<?xml version="1.0" encoding="UTF-8" standalone="no"?>
<!DOCTYPE svg PUBLIC "-//W3C//DTD SVG 1.1//EN"
 "http://www.w3.org/Graphics/SVG/1.1/DTD/svg11.dtd">
<!-- Generated by graphviz version 2.40.1 (20161225.0304)
 -->
<!-- Title: Asian Pages: 1 -->
<svg width="202pt" height="84pt"
 viewBox="0.00 0.00 202.00 84.00" xmlns="http://www.w3.org/2000/svg" xmlns:xlink="http://www.w3.org/1999/xlink">
<g id="graph0" class="graph" transform="scale(1 1) rotate(0) translate(4 80)">
<title>Asian</title>
<!-- Node0 -->
<g id="node1" class="node">
<title>Node0</title>
<polygon fill="#bfbfbf" stroke="#000000" points="65,-56.5 65,-75.5 106,-75.5 106,-56.5 65,-56.5"/>
<text text-anchor="middle" x="85.5" y="-63.5" font-family="Helvetica,sans-Serif" font-size="10.00" fill="#000000">Asian</text>
</g>
<!-- Node1 -->
<g id="node2" class="node">
<title>Node1</title>
<g id="a_node2"><a xlink:href="classtutorial_1_1AsianQMC.html" target="_top" xlink:title="AsianQMC">
<polygon fill="none" stroke="#000000" points="0,-.5 0,-19.5 65,-19.5 65,-.5 0,-.5"/>
<text text-anchor="middle" x="32.5" y="-7.5" font-family="Helvetica,sans-Serif" font-size="10.00" fill="#000000">AsianQMC</text>
</a>
</g>
</g>
<!-- Node0&#45;&gt;Node1 -->
<g id="edge1" class="edge">
<title>Node0&#45;&gt;Node1</title>
<path fill="none" stroke="#191970" d="M69.2104,-48.7884C60.1438,-39.2085 49.1946,-27.6396 41.6261,-19.6427"/>
<polygon fill="#191970" stroke="#191970" points="66.8522,-51.3884 76.2681,-56.2455 71.9363,-46.5767 66.8522,-51.3884"/>
</g>
<!-- Node2 -->
<g id="node3" class="node">
<title>Node2</title>
<g id="a_node3"><a xlink:href="classtutorial_1_1NewTestAsianRQMC.html" target="_top" xlink:title="NewTestAsianRQMC">
<polygon fill="none" stroke="#000000" points="83,-.5 83,-19.5 194,-19.5 194,-.5 83,-.5"/>
<text text-anchor="middle" x="138.5" y="-7.5" font-family="Helvetica,sans-Serif" font-size="10.00" fill="#000000">NewTestAsianRQMC</text>
</a>
</g>
</g>
<!-- Node0&#45;&gt;Node2 -->
<g id="edge2" class="edge">
<title>Node0&#45;&gt;Node2</title>
<path fill="none" stroke="#191970" d="M101.7896,-48.7884C110.8562,-39.2085 121.8054,-27.6396 129.3739,-19.6427"/>
<polygon fill="#191970" stroke="#191970" points="99.0637,-46.5767 94.7319,-56.2455 104.1478,-51.3884 99.0637,-46.5767"/>
</g>
</g>
</svg>
