<?xml version="1.0" encoding="UTF-8" standalone="no"?>
<!DOCTYPE svg PUBLIC "-//W3C//DTD SVG 1.1//EN"
 "http://www.w3.org/Graphics/SVG/1.1/DTD/svg11.dtd">
<!-- Generated by graphviz version 2.40.1 (20161225.0304)
 -->
<!-- Title: BrownianMotion Pages: 1 -->
<svg width="424pt" height="140pt"
 viewBox="0.00 0.00 424.00 140.00" xmlns="http://www.w3.org/2000/svg" xmlns:xlink="http://www.w3.org/1999/xlink">
<g id="graph0" class="graph" transform="scale(1 1) rotate(0) translate(4 136)">
<title>BrownianMotion</title>
<!-- Node0 -->
<g id="node1" class="node">
<title>Node0</title>
<polygon fill="#bfbfbf" stroke="#000000" points="143,-56.5 143,-75.5 229,-75.5 229,-56.5 143,-56.5"/>
<text text-anchor="middle" x="186" y="-63.5" font-family="Helvetica,sans-Serif" font-size="10.00" fill="#000000">BrownianMotion</text>
</g>
<!-- Node2 -->
<g id="node3" class="node">
<title>Node2</title>
<g id="a_node3"><a xlink:href="classumontreal_1_1ssj_1_1stochprocess_1_1BrownianMotionBridge.html" target="_top" xlink:title=", then the observations are generated in the following order: , , , , . ">
<polygon fill="none" stroke="#000000" points="0,-.5 0,-19.5 114,-19.5 114,-.5 0,-.5"/>
<text text-anchor="middle" x="57" y="-7.5" font-family="Helvetica,sans-Serif" font-size="10.00" fill="#000000">BrownianMotionBridge</text>
</a>
</g>
</g>
<!-- Node0&#45;&gt;Node2 -->
<g id="edge2" class="edge">
<title>Node0&#45;&gt;Node2</title>
<path fill="none" stroke="#191970" d="M154.6329,-52.3833C131.1716,-42.1985 99.6815,-28.5284 78.8865,-19.5011"/>
<polygon fill="#191970" stroke="#191970" points="153.2574,-55.6017 163.8241,-56.3733 156.0449,-49.1806 153.2574,-55.6017"/>
</g>
<!-- Node3 -->
<g id="node4" class="node">
<title>Node3</title>
<g id="a_node4"><a xlink:href="classumontreal_1_1ssj_1_1stochprocess_1_1BrownianMotionPCA.html" target="_top" xlink:title="A Brownian motion process &#160;sampled using the principal component decomposition (PCA) ...">
<polygon fill="none" stroke="#000000" points="132.5,-.5 132.5,-19.5 239.5,-19.5 239.5,-.5 132.5,-.5"/>
<text text-anchor="middle" x="186" y="-7.5" font-family="Helvetica,sans-Serif" font-size="10.00" fill="#000000">BrownianMotionPCA</text>
</a>
</g>
</g>
<!-- Node0&#45;&gt;Node3 -->
<g id="edge3" class="edge">
<title>Node0&#45;&gt;Node3</title>
<path fill="none" stroke="#191970" d="M186,-46.1575C186,-37.155 186,-26.9199 186,-19.6427"/>
<polygon fill="#191970" stroke="#191970" points="182.5001,-46.2455 186,-56.2455 189.5001,-46.2456 182.5001,-46.2455"/>
</g>
<!-- Node4 -->
<g id="node5" class="node">
<title>Node4</title>
<g id="a_node5"><a xlink:href="classumontreal_1_1ssj_1_1stochprocess_1_1BrownianMotionPCAEqualSteps.html" target="_top" xlink:title="Same as BrownianMotionPCA, but uses a trick to speed up the calculation when the time steps are equid...">
<polygon fill="none" stroke="#000000" points="258,-.5 258,-19.5 416,-19.5 416,-.5 258,-.5"/>
<text text-anchor="middle" x="337" y="-7.5" font-family="Helvetica,sans-Serif" font-size="10.00" fill="#000000">BrownianMotionPCAEqualSteps</text>
</a>
</g>
</g>
<!-- Node0&#45;&gt;Node4 -->
<g id="edge4" class="edge">
<title>Node0&#45;&gt;Node4</title>
<path fill="none" stroke="#191970" d="M221.623,-52.7888C249.1938,-42.5639 286.7149,-28.6488 311.3809,-19.5011"/>
<polygon fill="#191970" stroke="#191970" points="220.1168,-49.6144 211.9578,-56.3733 222.5509,-56.1776 220.1168,-49.6144"/>
</g>
<!-- Node1 -->
<g id="node2" class="node">
<title>Node1</title>
<g id="a_node2"><a xlink:href="classumontreal_1_1ssj_1_1stochprocess_1_1StochasticProcess.html" target="_top" xlink:title="Abstract base class for a stochastic process &#160;sampled (or observed) at a finite number of time points...">
<polygon fill="none" stroke="#000000" points="136.5,-112.5 136.5,-131.5 235.5,-131.5 235.5,-112.5 136.5,-112.5"/>
<text text-anchor="middle" x="186" y="-119.5" font-family="Helvetica,sans-Serif" font-size="10.00" fill="#000000">StochasticProcess</text>
</a>
</g>
</g>
<!-- Node1&#45;&gt;Node0 -->
<g id="edge1" class="edge">
<title>Node1&#45;&gt;Node0</title>
<path fill="none" stroke="#191970" d="M186,-102.1575C186,-93.155 186,-82.9199 186,-75.6427"/>
<polygon fill="#191970" stroke="#191970" points="182.5001,-102.2455 186,-112.2455 189.5001,-102.2456 182.5001,-102.2455"/>
</g>
</g>
</svg>
