<?xml version="1.0" encoding="UTF-8" standalone="no"?>
<!DOCTYPE svg PUBLIC "-//W3C//DTD SVG 1.1//EN"
 "http://www.w3.org/Graphics/SVG/1.1/DTD/svg11.dtd">
<!-- Generated by graphviz version 2.40.1 (0)
 -->
<!-- Title: Search Pages: 1 -->
<svg width="247pt" height="140pt"
 viewBox="0.00 0.00 247.00 140.00" xmlns="http://www.w3.org/2000/svg" xmlns:xlink="http://www.w3.org/1999/xlink">
<g id="graph0" class="graph" transform="scale(1 1) rotate(0) translate(4 136)">
<title>Search</title>
<!-- Node0 -->
<g id="node1" class="node">
<title>Node0</title>
<g id="a_node1"><a xlink:title="Abstract class for the search of highly uniform point sets with LatNet Builder.">
<polygon fill="#bfbfbf" stroke="#000000" points="99,-112.5 99,-131.5 146,-131.5 146,-112.5 99,-112.5"/>
<text text-anchor="middle" x="122.5" y="-119.5" font-family="Helvetica,sans-Serif" font-size="10.00" fill="#000000">Search</text>
</a>
</g>
</g>
<!-- Node1 -->
<g id="node2" class="node">
<title>Node1</title>
<g id="a_node2"><a xlink:href="classumontreal_1_1ssj_1_1latnetbuilder_1_1DigitalNetSearch.html" target="_top" xlink:title="Class for the search of good digital nets using LatNet Builder.">
<polygon fill="none" stroke="#000000" points="17,-56.5 17,-75.5 108,-75.5 108,-56.5 17,-56.5"/>
<text text-anchor="middle" x="62.5" y="-63.5" font-family="Helvetica,sans-Serif" font-size="10.00" fill="#000000">DigitalNetSearch</text>
</a>
</g>
</g>
<!-- Node0&#45;&gt;Node1 -->
<g id="edge1" class="edge">
<title>Node0&#45;&gt;Node1</title>
<path fill="none" stroke="#191970" d="M104.6722,-105.3607C94.2922,-95.6727 81.5709,-83.7995 72.8314,-75.6427"/>
<polygon fill="#191970" stroke="#191970" points="102.3501,-107.981 112.0488,-112.2455 107.1263,-102.8636 102.3501,-107.981"/>
</g>
<!-- Node3 -->
<g id="node4" class="node">
<title>Node3</title>
<g id="a_node4"><a xlink:href="classumontreal_1_1ssj_1_1latnetbuilder_1_1OrdinaryLatticeSearch.html" target="_top" xlink:title="Class for the search of good rank&#45;1 ordinary lattice rules using LatNet Builder.">
<polygon fill="none" stroke="#000000" points="126,-56.5 126,-75.5 239,-75.5 239,-56.5 126,-56.5"/>
<text text-anchor="middle" x="182.5" y="-63.5" font-family="Helvetica,sans-Serif" font-size="10.00" fill="#000000">OrdinaryLatticeSearch</text>
</a>
</g>
</g>
<!-- Node0&#45;&gt;Node3 -->
<g id="edge3" class="edge">
<title>Node0&#45;&gt;Node3</title>
<path fill="none" stroke="#191970" d="M140.3278,-105.3607C150.7078,-95.6727 163.4291,-83.7995 172.1686,-75.6427"/>
<polygon fill="#191970" stroke="#191970" points="137.8737,-102.8636 132.9512,-112.2455 142.6499,-107.981 137.8737,-102.8636"/>
</g>
<!-- Node2 -->
<g id="node3" class="node">
<title>Node2</title>
<g id="a_node3"><a xlink:href="classumontreal_1_1ssj_1_1latnetbuilder_1_1PolynomialLatticeSearch.html" target="_top" xlink:title="Class for the search of good polynomial lattice rules using LatNet Builder.">
<polygon fill="none" stroke="#000000" points="0,-.5 0,-19.5 125,-19.5 125,-.5 0,-.5"/>
<text text-anchor="middle" x="62.5" y="-7.5" font-family="Helvetica,sans-Serif" font-size="10.00" fill="#000000">PolynomialLatticeSearch</text>
</a>
</g>
</g>
<!-- Node1&#45;&gt;Node2 -->
<g id="edge2" class="edge">
<title>Node1&#45;&gt;Node2</title>
<path fill="none" stroke="#191970" d="M62.5,-46.1575C62.5,-37.155 62.5,-26.9199 62.5,-19.6427"/>
<polygon fill="#191970" stroke="#191970" points="59.0001,-46.2455 62.5,-56.2455 66.0001,-46.2456 59.0001,-46.2455"/>
</g>
</g>
</svg>
