<?xml version="1.0" encoding="UTF-8" standalone="no"?>
<!DOCTYPE svg PUBLIC "-//W3C//DTD SVG 1.1//EN"
 "http://www.w3.org/Graphics/SVG/1.1/DTD/svg11.dtd">
<!-- Generated by graphviz version 2.38.0 (20140413.2041)
 -->
<!-- Title: MatrixOfStatProbes&lt; E extends StatProbe &gt; Pages: 1 -->
<svg width="160pt" height="95pt"
 viewBox="0.00 0.00 160.00 95.00" xmlns="http://www.w3.org/2000/svg" xmlns:xlink="http://www.w3.org/1999/xlink">
<g id="graph0" class="graph" transform="scale(1 1) rotate(0) translate(4 91)">
<title>MatrixOfStatProbes&lt; E extends StatProbe &gt;</title>
<!-- Node3 -->
<g id="node1" class="node"><title>Node3</title>
<polygon fill="#bfbfbf" stroke="black" points="9.5,-0.5 9.5,-30.5 134.5,-30.5 134.5,-0.5 9.5,-0.5"/>
<text text-anchor="start" x="17.5" y="-18.5" font-family="Helvetica,sans-Serif" font-size="10.00">MatrixOfStatProbes</text>
<text text-anchor="middle" x="72" y="-7.5" font-family="Helvetica,sans-Serif" font-size="10.00">&lt; E extends StatProbe &gt;</text>
</g>
<!-- Node4 -->
<g id="node2" class="node"><title>Node4</title>
<polygon fill="none" stroke="#bfbfbf" points="0,-67.5 0,-86.5 60,-86.5 60,-67.5 0,-67.5"/>
<text text-anchor="middle" x="30" y="-74.5" font-family="Helvetica,sans-Serif" font-size="10.00">Cloneable</text>
</g>
<!-- Node4&#45;&gt;Node3 -->
<g id="edge1" class="edge"><title>Node4&#45;&gt;Node3</title>
<path fill="none" stroke="midnightblue" d="M41.8255,-59.2472C48.2212,-50.1866 56.0301,-39.124 62.1014,-30.523"/>
<polygon fill="midnightblue" stroke="midnightblue" points="38.9251,-57.287 36.0176,-67.4751 44.6438,-61.3238 38.9251,-57.287"/>
</g>
<!-- Node5 -->
<g id="node3" class="node"><title>Node5</title>
<polygon fill="none" stroke="#bfbfbf" points="78,-67.5 78,-86.5 152,-86.5 152,-67.5 78,-67.5"/>
<text text-anchor="middle" x="115" y="-74.5" font-family="Helvetica,sans-Serif" font-size="10.00">Iterable&lt; E &gt;</text>
</g>
<!-- Node5&#45;&gt;Node3 -->
<g id="edge2" class="edge"><title>Node5&#45;&gt;Node3</title>
<path fill="none" stroke="midnightblue" d="M102.893,-59.2472C96.3449,-50.1866 88.3501,-39.124 82.1342,-30.523"/>
<polygon fill="midnightblue" stroke="midnightblue" points="100.145,-61.4202 108.839,-67.4751 105.818,-57.32 100.145,-61.4202"/>
</g>
</g>
</svg>
