<?xml version="1.0" encoding="UTF-8" standalone="no"?>
<!DOCTYPE svg PUBLIC "-//W3C//DTD SVG 1.1//EN"
 "http://www.w3.org/Graphics/SVG/1.1/DTD/svg11.dtd">
<!-- Generated by graphviz version 2.40.1 (0)
 -->
<!-- Title: VarianceGammaProcessDiffPCABridge Pages: 1 -->
<svg width="350pt" height="480pt"
 viewBox="0.00 0.00 349.50 480.00" xmlns="http://www.w3.org/2000/svg" xmlns:xlink="http://www.w3.org/1999/xlink">
<g id="graph0" class="graph" transform="scale(1 1) rotate(0) translate(4 476)">
<title>VarianceGammaProcessDiffPCABridge</title>
<!-- Node5 -->
<g id="node1" class="node">
<title>Node5</title>
<g id="a_node1"><a xlink:title="Same as VarianceGammaProcessDiff, but the two inner GammaProcess ’es are of the type PCABridge.">
<polygon fill="#bfbfbf" stroke="#000000" points="122,-.5 122,-30.5 262,-30.5 262,-.5 122,-.5"/>
<text text-anchor="start" x="130" y="-18.5" font-family="Helvetica,sans-Serif" font-size="10.00" fill="#000000">VarianceGammaProcessDiff</text>
<text text-anchor="middle" x="192" y="-7.5" font-family="Helvetica,sans-Serif" font-size="10.00" fill="#000000">PCABridge</text>
</a>
</g>
</g>
<!-- Node6 -->
<g id="node2" class="node">
<title>Node6</title>
<g id="a_node2"><a xlink:href="classumontreal_1_1ssj_1_1stochprocess_1_1VarianceGammaProcessDiffPCA.html" target="_top" xlink:title="Same as VarianceGammaProcessDiff, but the two inner GammaProcess ’es are of PCA type.">
<polygon fill="none" stroke="#000000" points="111.5,-68.5 111.5,-87.5 272.5,-87.5 272.5,-68.5 111.5,-68.5"/>
<text text-anchor="middle" x="192" y="-75.5" font-family="Helvetica,sans-Serif" font-size="10.00" fill="#000000">VarianceGammaProcessDiffPCA</text>
</a>
</g>
</g>
<!-- Node6&#45;&gt;Node5 -->
<g id="edge1" class="edge">
<title>Node6&#45;&gt;Node5</title>
<path fill="none" stroke="#191970" d="M192,-58.0501C192,-49.2205 192,-39.0001 192,-30.7892"/>
<polygon fill="#191970" stroke="#191970" points="188.5001,-58.2343 192,-68.2344 195.5001,-58.2344 188.5001,-58.2343"/>
</g>
<!-- Node7 -->
<g id="node3" class="node">
<title>Node7</title>
<g id="a_node3"><a xlink:href="classumontreal_1_1ssj_1_1stochprocess_1_1VarianceGammaProcessDiff.html" target="_top" xlink:title="This class represents a variance gamma (VG) process .">
<polygon fill="none" stroke="#000000" points="122,-125.5 122,-144.5 262,-144.5 262,-125.5 122,-125.5"/>
<text text-anchor="middle" x="192" y="-132.5" font-family="Helvetica,sans-Serif" font-size="10.00" fill="#000000">VarianceGammaProcessDiff</text>
</a>
</g>
</g>
<!-- Node7&#45;&gt;Node6 -->
<g id="edge2" class="edge">
<title>Node7&#45;&gt;Node6</title>
<path fill="none" stroke="#191970" d="M192,-115.2342C192,-105.8491 192,-95.0651 192,-87.5265"/>
<polygon fill="#191970" stroke="#191970" points="188.5001,-115.3307 192,-125.3307 195.5001,-115.3308 188.5001,-115.3307"/>
</g>
<!-- Node8 -->
<g id="node4" class="node">
<title>Node8</title>
<g id="a_node4"><a xlink:href="classumontreal_1_1ssj_1_1stochprocess_1_1VarianceGammaProcess.html" target="_top" xlink:title="This class represents a variance gamma (VG) process .">
<polygon fill="none" stroke="#000000" points="72.5,-183.5 72.5,-202.5 197.5,-202.5 197.5,-183.5 72.5,-183.5"/>
<text text-anchor="middle" x="135" y="-190.5" font-family="Helvetica,sans-Serif" font-size="10.00" fill="#000000">VarianceGammaProcess</text>
</a>
</g>
</g>
<!-- Node8&#45;&gt;Node7 -->
<g id="edge3" class="edge">
<title>Node8&#45;&gt;Node7</title>
<path fill="none" stroke="#191970" d="M151.4946,-176.216C161.5125,-166.0224 173.9521,-153.3646 182.3831,-144.7856"/>
<polygon fill="#191970" stroke="#191970" points="148.9254,-173.8369 144.4124,-183.4225 153.918,-178.7434 148.9254,-173.8369"/>
</g>
<!-- Node9 -->
<g id="node5" class="node">
<title>Node9</title>
<g id="a_node5"><a xlink:href="classumontreal_1_1ssj_1_1stochprocess_1_1StochasticProcess.html" target="_top" xlink:title="Abstract base class for a stochastic process &#160;sampled (or observed) at a finite number of time points...">
<polygon fill="none" stroke="#000000" points="84.5,-318.5 84.5,-337.5 183.5,-337.5 183.5,-318.5 84.5,-318.5"/>
<text text-anchor="middle" x="134" y="-325.5" font-family="Helvetica,sans-Serif" font-size="10.00" fill="#000000">StochasticProcess</text>
</a>
</g>
</g>
<!-- Node9&#45;&gt;Node8 -->
<g id="edge4" class="edge">
<title>Node9&#45;&gt;Node8</title>
<path fill="none" stroke="#191970" d="M88.7605,-313.4658C83.3107,-309.8948 78.4596,-305.4713 75,-300 72.3872,-295.8679 74.6804,-293.8784 75,-289 76.1135,-272.002 72.6698,-266.3766 80,-251 89.6738,-230.7072 109.129,-212.8713 122.1122,-202.509"/>
<polygon fill="#191970" stroke="#191970" points="87.2573,-316.6339 97.7033,-318.4037 90.6409,-310.506 87.2573,-316.6339"/>
</g>
<!-- Node10 -->
<g id="node6" class="node">
<title>Node10</title>
<g id="a_node6"><a xlink:href="classumontreal_1_1ssj_1_1stochprocess_1_1BrownianMotion.html" target="_top" xlink:title="This class represents a Brownian motion process , sampled at times .">
<polygon fill="none" stroke="#000000" points="89,-251.5 89,-270.5 175,-270.5 175,-251.5 89,-251.5"/>
<text text-anchor="middle" x="132" y="-258.5" font-family="Helvetica,sans-Serif" font-size="10.00" fill="#000000">BrownianMotion</text>
</a>
</g>
</g>
<!-- Node9&#45;&gt;Node10 -->
<g id="edge6" class="edge">
<title>Node9&#45;&gt;Node10</title>
<path fill="none" stroke="#191970" d="M133.4062,-308.1079C133.0362,-295.714 132.5769,-280.3263 132.286,-270.5817"/>
<polygon fill="#191970" stroke="#191970" points="129.9165,-308.5094 133.7134,-318.4005 136.9134,-308.3005 129.9165,-308.5094"/>
</g>
<!-- Node15 -->
<g id="node11" class="node">
<title>Node15</title>
<g id="a_node11"><a xlink:href="classumontreal_1_1ssj_1_1stochprocess_1_1GammaProcess.html" target="_top" xlink:title="This class represents a gamma process   (page 82) &#160;with mean parameter &#160;and variance parameter .">
<polygon fill="none" stroke="#000000" points="193.5,-251.5 193.5,-270.5 280.5,-270.5 280.5,-251.5 193.5,-251.5"/>
<text text-anchor="middle" x="237" y="-258.5" font-family="Helvetica,sans-Serif" font-size="10.00" fill="#000000">GammaProcess</text>
</a>
</g>
</g>
<!-- Node9&#45;&gt;Node15 -->
<g id="edge12" class="edge">
<title>Node9&#45;&gt;Node15</title>
<path fill="none" stroke="#191970" d="M157.272,-312.8619C177.205,-299.8957 205.3022,-281.619 222.27,-270.5817"/>
<polygon fill="#191970" stroke="#191970" points="155.2315,-310.0138 148.7574,-318.4005 159.0485,-315.8817 155.2315,-310.0138"/>
</g>
<!-- Node10&#45;&gt;Node8 -->
<g id="edge5" class="edge">
<title>Node10&#45;&gt;Node8</title>
<path fill="none" stroke="#9a32cd" stroke-dasharray="5,2" d="M128.2791,-241.246C127.5721,-235.0774 127.2562,-228.2518 128,-222 128.7833,-215.4169 130.5333,-208.1669 132.0874,-202.5627"/>
<polygon fill="#9a32cd" stroke="#9a32cd" points="124.8565,-242.0188 129.8295,-251.374 131.7759,-240.9595 124.8565,-242.0188"/>
<text text-anchor="middle" x="137.5" y="-225" font-family="Helvetica,sans-Serif" font-size="10.00" fill="#000000"> BM</text>
</g>
<!-- Node11 -->
<g id="node7" class="node">
<title>Node11</title>
<g id="a_node7"><a xlink:href="classumontreal_1_1ssj_1_1randvar_1_1NormalGen.html" target="_top" xlink:title="This class implements methods for generating random variates from the normal distribution .">
<polygon fill="none" stroke="#000000" points="0,-318.5 0,-337.5 66,-337.5 66,-318.5 0,-318.5"/>
<text text-anchor="middle" x="33" y="-325.5" font-family="Helvetica,sans-Serif" font-size="10.00" fill="#000000">NormalGen</text>
</a>
</g>
</g>
<!-- Node11&#45;&gt;Node10 -->
<g id="edge7" class="edge">
<title>Node11&#45;&gt;Node10</title>
<path fill="none" stroke="#9a32cd" stroke-dasharray="5,2" d="M55.6276,-312.6864C74.7703,-299.7312 101.6066,-281.5693 117.842,-270.5817"/>
<polygon fill="#9a32cd" stroke="#9a32cd" points="53.5043,-309.8971 47.1843,-318.4005 57.4277,-315.6943 53.5043,-309.8971"/>
<text text-anchor="middle" x="98.5" y="-292" font-family="Helvetica,sans-Serif" font-size="10.00" fill="#000000"> gen</text>
</g>
<!-- Node12 -->
<g id="node8" class="node">
<title>Node12</title>
<g id="a_node8"><a xlink:href="classumontreal_1_1ssj_1_1randvar_1_1RandomVariateGen.html" target="_top" xlink:title="This is the base class for all random variate generators over the real line.">
<polygon fill="none" stroke="#000000" points="161.5,-385.5 161.5,-404.5 262.5,-404.5 262.5,-385.5 161.5,-385.5"/>
<text text-anchor="middle" x="212" y="-392.5" font-family="Helvetica,sans-Serif" font-size="10.00" fill="#000000">RandomVariateGen</text>
</a>
</g>
</g>
<!-- Node12&#45;&gt;Node11 -->
<g id="edge8" class="edge">
<title>Node12&#45;&gt;Node11</title>
<path fill="none" stroke="#191970" d="M176.5971,-381.7487C141.8019,-368.7247 89.5476,-349.1659 58.5988,-337.5817"/>
<polygon fill="#191970" stroke="#191970" points="175.7613,-385.1729 186.3537,-385.4005 178.2152,-378.6171 175.7613,-385.1729"/>
</g>
<!-- Node16 -->
<g id="node12" class="node">
<title>Node16</title>
<g id="a_node12"><a xlink:href="classumontreal_1_1ssj_1_1randvar_1_1GammaGen.html" target="_top" xlink:title="This class implements random variate generators for the gamma distribution.">
<polygon fill="none" stroke="#000000" points="201.5,-318.5 201.5,-337.5 270.5,-337.5 270.5,-318.5 201.5,-318.5"/>
<text text-anchor="middle" x="236" y="-325.5" font-family="Helvetica,sans-Serif" font-size="10.00" fill="#000000">GammaGen</text>
</a>
</g>
</g>
<!-- Node12&#45;&gt;Node16 -->
<g id="edge14" class="edge">
<title>Node12&#45;&gt;Node16</title>
<path fill="none" stroke="#191970" d="M218.8551,-375.8628C223.3393,-363.3444 229.0059,-347.5252 232.5678,-337.5817"/>
<polygon fill="#191970" stroke="#191970" points="215.516,-374.806 215.4386,-385.4005 222.1059,-377.1666 215.516,-374.806"/>
</g>
<!-- Node13 -->
<g id="node9" class="node">
<title>Node13</title>
<g id="a_node9"><a xlink:href="interfaceumontreal_1_1ssj_1_1probdist_1_1Distribution.html" target="_top" xlink:title="This interface should be implemented by all classes supporting discrete and continuous distributions.">
<polygon fill="none" stroke="#000000" points="172,-452.5 172,-471.5 238,-471.5 238,-452.5 172,-452.5"/>
<text text-anchor="middle" x="205" y="-459.5" font-family="Helvetica,sans-Serif" font-size="10.00" fill="#000000">Distribution</text>
</a>
</g>
</g>
<!-- Node13&#45;&gt;Node12 -->
<g id="edge9" class="edge">
<title>Node13&#45;&gt;Node12</title>
<path fill="none" stroke="#9a32cd" stroke-dasharray="5,2" d="M206.2693,-442.2365C206.7328,-436.0675 207.3146,-429.244 208,-423 208.6751,-416.8498 209.6547,-409.9707 210.4754,-404.5701"/>
<polygon fill="#9a32cd" stroke="#9a32cd" points="202.767,-442.1489 205.5657,-452.3674 209.7502,-442.6339 202.767,-442.1489"/>
<text text-anchor="middle" x="217.5" y="-426" font-family="Helvetica,sans-Serif" font-size="10.00" fill="#000000"> dist</text>
</g>
<!-- Node14 -->
<g id="node10" class="node">
<title>Node14</title>
<g id="a_node10"><a xlink:href="interfaceumontreal_1_1ssj_1_1rng_1_1RandomStream.html" target="_top" xlink:title="This interface defines the basic structures to handle multiple streams of uniform (pseudo)random numb...">
<polygon fill="none" stroke="#000000" points="256.5,-452.5 256.5,-471.5 341.5,-471.5 341.5,-452.5 256.5,-452.5"/>
<text text-anchor="middle" x="299" y="-459.5" font-family="Helvetica,sans-Serif" font-size="10.00" fill="#000000">RandomStream</text>
</a>
</g>
</g>
<!-- Node14&#45;&gt;Node12 -->
<g id="edge10" class="edge">
<title>Node14&#45;&gt;Node12</title>
<path fill="none" stroke="#9a32cd" stroke-dasharray="5,2" d="M271.0831,-447.3426C264.2888,-443.3401 257.1985,-438.7784 251,-434 239.4729,-425.1139 227.8852,-413.031 220.3726,-404.6802"/>
<polygon fill="#9a32cd" stroke="#9a32cd" points="269.6267,-450.5401 280.0531,-452.4218 273.0759,-444.4488 269.6267,-450.5401"/>
<text text-anchor="middle" x="268" y="-426" font-family="Helvetica,sans-Serif" font-size="10.00" fill="#000000"> stream</text>
</g>
<!-- Node14&#45;&gt;Node15 -->
<g id="edge15" class="edge">
<title>Node14&#45;&gt;Node15</title>
<path fill="none" stroke="#9a32cd" stroke-dasharray="5,2" d="M300.4343,-442.2592C301.9209,-407.9714 300.4765,-336.5347 268,-289 263.2542,-282.0538 256.4443,-275.6535 250.4153,-270.7307"/>
<polygon fill="#9a32cd" stroke="#9a32cd" points="296.9325,-442.1921 299.8583,-452.3749 303.9212,-442.5901 296.9325,-442.1921"/>
<text text-anchor="middle" x="313" y="-359" font-family="Helvetica,sans-Serif" font-size="10.00" fill="#000000"> stream</text>
</g>
<!-- Node15&#45;&gt;Node7 -->
<g id="edge16" class="edge">
<title>Node15&#45;&gt;Node7</title>
<path fill="none" stroke="#9a32cd" stroke-dasharray="5,2" d="M233.0721,-241.0873C231.6763,-234.9118 229.9582,-228.1221 228,-222 218.7873,-193.197 204.0895,-160.5892 196.6454,-144.7175"/>
<polygon fill="#9a32cd" stroke="#9a32cd" points="229.73,-242.2011 235.219,-251.2632 236.5792,-240.7561 229.73,-242.2011"/>
<text text-anchor="middle" x="234.5" y="-196" font-family="Helvetica,sans-Serif" font-size="10.00" fill="#000000"> gneg</text>
<text text-anchor="middle" x="234.5" y="-185" font-family="Helvetica,sans-Serif" font-size="10.00" fill="#000000">gpos</text>
</g>
<!-- Node15&#45;&gt;Node8 -->
<g id="edge11" class="edge">
<title>Node15&#45;&gt;Node8</title>
<path fill="none" stroke="#9a32cd" stroke-dasharray="5,2" d="M196.6804,-247.6483C187.4791,-243.6715 178.0495,-238.7942 170,-233 158.317,-224.5903 147.8758,-211.5764 141.5014,-202.6925"/>
<polygon fill="#9a32cd" stroke="#9a32cd" points="195.5362,-250.9609 206.119,-251.4671 198.1617,-244.4719 195.5362,-250.9609"/>
<text text-anchor="middle" x="199" y="-225" font-family="Helvetica,sans-Serif" font-size="10.00" fill="#000000"> randomTime</text>
</g>
<!-- Node16&#45;&gt;Node15 -->
<g id="edge13" class="edge">
<title>Node16&#45;&gt;Node15</title>
<path fill="none" stroke="#9a32cd" stroke-dasharray="5,2" d="M236.2969,-308.1079C236.4819,-295.714 236.7115,-280.3263 236.857,-270.5817"/>
<polygon fill="#9a32cd" stroke="#9a32cd" points="232.793,-308.3494 236.1433,-318.4005 239.7922,-308.4539 232.793,-308.3494"/>
<text text-anchor="middle" x="250.5" y="-292" font-family="Helvetica,sans-Serif" font-size="10.00" fill="#000000"> Ggen</text>
</g>
</g>
</svg>
