<?xml version="1.0" encoding="UTF-8" standalone="no"?>
<!DOCTYPE svg PUBLIC "-//W3C//DTD SVG 1.1//EN"
 "http://www.w3.org/Graphics/SVG/1.1/DTD/svg11.dtd">
<!-- Generated by graphviz version 2.38.0 (20140413.2041)
 -->
<!-- Title: MultipleDatasetChart Pages: 1 -->
<svg width="302pt" height="117pt"
 viewBox="0.00 0.00 302.00 117.00" xmlns="http://www.w3.org/2000/svg" xmlns:xlink="http://www.w3.org/1999/xlink">
<g id="graph0" class="graph" transform="scale(1 1) rotate(0) translate(4 113)">
<title>MultipleDatasetChart</title>
<!-- Node1 -->
<g id="node1" class="node"><title>Node1</title>
<polygon fill="#bfbfbf" stroke="black" points="152.5,-0.5 152.5,-19.5 261.5,-19.5 261.5,-0.5 152.5,-0.5"/>
<text text-anchor="middle" x="207" y="-7.5" font-family="Helvetica,sans-Serif" font-size="10.00">MultipleDatasetChart</text>
</g>
<!-- Node2 -->
<g id="node2" class="node"><title>Node2</title>
<polygon fill="none" stroke="#bfbfbf" points="0,-78.5 0,-108.5 156,-108.5 156,-78.5 0,-78.5"/>
<text text-anchor="start" x="8" y="-96.5" font-family="Helvetica,sans-Serif" font-size="10.00">ArrayList&lt; umontreal.ssj.charts.</text>
<text text-anchor="middle" x="78" y="-85.5" font-family="Helvetica,sans-Serif" font-size="10.00">SSJXYSeriesCollection &gt;</text>
</g>
<!-- Node2&#45;&gt;Node1 -->
<g id="edge1" class="edge"><title>Node2&#45;&gt;Node1</title>
<path fill="none" stroke="#9a32cd" stroke-dasharray="5,2" d="M103.039,-71.9267C116.755,-61.1478 134.315,-48.1219 151,-38 162.443,-31.0584 175.939,-24.5068 186.815,-19.596"/>
<polygon fill="#9a32cd" stroke="#9a32cd" points="100.678,-69.3326 95.0385,-78.3017 105.041,-74.8073 100.678,-69.3326"/>
<text text-anchor="middle" x="177" y="-46.5" font-family="Helvetica,sans-Serif" font-size="10.00"> datasetList</text>
</g>
<!-- Node3 -->
<g id="node3" class="node"><title>Node3</title>
<polygon fill="none" stroke="#bfbfbf" points="174.5,-84 174.5,-103 239.5,-103 239.5,-84 174.5,-84"/>
<text text-anchor="middle" x="207" y="-91" font-family="Helvetica,sans-Serif" font-size="10.00">JFreeChart</text>
</g>
<!-- Node3&#45;&gt;Node1 -->
<g id="edge2" class="edge"><title>Node3&#45;&gt;Node1</title>
<path fill="none" stroke="#9a32cd" stroke-dasharray="5,2" d="M207,-73.3762C207,-56.3977 207,-32.3673 207,-19.6592"/>
<polygon fill="#9a32cd" stroke="#9a32cd" points="203.5,-73.778 207,-83.7781 210.5,-73.7781 203.5,-73.778"/>
<text text-anchor="middle" x="219.5" y="-46.5" font-family="Helvetica,sans-Serif" font-size="10.00"> chart</text>
</g>
<!-- Node4 -->
<g id="node4" class="node"><title>Node4</title>
<g id="a_node4"><a xlink:href="classumontreal_1_1ssj_1_1charts_1_1Axis.html" target="_top" xlink:title="Represents an axis of a chart encapsulated by an instance of XYChart. ">
<polygon fill="none" stroke="black" points="258,-84 258,-103 294,-103 294,-84 258,-84"/>
<text text-anchor="middle" x="276" y="-91" font-family="Helvetica,sans-Serif" font-size="10.00">Axis</text>
</a>
</g>
</g>
<!-- Node4&#45;&gt;Node1 -->
<g id="edge3" class="edge"><title>Node4&#45;&gt;Node1</title>
<path fill="none" stroke="#9a32cd" stroke-dasharray="5,2" d="M264.592,-75.2627C256.982,-64.2117 246.483,-49.7825 236,-38 230.147,-31.4217 222.897,-24.6717 217.11,-19.5663"/>
<polygon fill="#9a32cd" stroke="#9a32cd" points="261.74,-77.2942 270.241,-83.6187 267.54,-73.3739 261.74,-77.2942"/>
<text text-anchor="middle" x="269" y="-52" font-family="Helvetica,sans-Serif" font-size="10.00"> XAxis</text>
<text text-anchor="middle" x="269" y="-41" font-family="Helvetica,sans-Serif" font-size="10.00">YAxis</text>
</g>
</g>
</svg>
