<?xml version="1.0" encoding="UTF-8" standalone="no"?>
<!DOCTYPE svg PUBLIC "-//W3C//DTD SVG 1.1//EN"
 "http://www.w3.org/Graphics/SVG/1.1/DTD/svg11.dtd">
<!-- Generated by graphviz version 2.38.0 (20140413.2041)
 -->
<!-- Title: San13CMCgrad1 Pages: 1 -->
<svg width="514pt" height="241pt"
 viewBox="0.00 0.00 513.50 241.00" xmlns="http://www.w3.org/2000/svg" xmlns:xlink="http://www.w3.org/1999/xlink">
<g id="graph0" class="graph" transform="scale(1 1) rotate(0) translate(4 237)">
<title>San13CMCgrad1</title>
<!-- Node3 -->
<g id="node1" class="node"><title>Node3</title>
<polygon fill="#bfbfbf" stroke="black" points="240,-0.5 240,-19.5 332,-19.5 332,-0.5 240,-0.5"/>
<text text-anchor="middle" x="286" y="-7.5" font-family="Helvetica,sans-Serif" font-size="10.00">San13CMCgrad1</text>
</g>
<!-- Node4 -->
<g id="node2" class="node"><title>Node4</title>
<g id="a_node2"><a xlink:href="classift6561examples_1_1San13Prob.html" target="_top" xlink:title="This class simulates a specific stochastic activity network with 9 nodes and 13 links, taken from Elmaghraby (1977) and used again in L&#39;Ecuyer and Lemieux (2000), &quot;Variance Reduction via Lattice Rules&quot;. ">
<polygon fill="none" stroke="black" points="167.5,-89.5 167.5,-108.5 232.5,-108.5 232.5,-89.5 167.5,-89.5"/>
<text text-anchor="middle" x="200" y="-96.5" font-family="Helvetica,sans-Serif" font-size="10.00">San13Prob</text>
</a>
</g>
</g>
<!-- Node4&#45;&gt;Node3 -->
<g id="edge1" class="edge"><title>Node4&#45;&gt;Node3</title>
<path fill="none" stroke="midnightblue" d="M216.068,-81.7448C234.256,-63.3459 263.203,-34.0623 277.474,-19.6249"/>
<polygon fill="midnightblue" stroke="midnightblue" points="213.101,-79.7677 208.56,-89.34 218.08,-84.6887 213.101,-79.7677"/>
</g>
<!-- Node5 -->
<g id="node3" class="node"><title>Node5</title>
<g id="a_node3"><a xlink:href="interfaceumontreal_1_1ssj_1_1mcqmctools_1_1MonteCarloModelDouble.html" target="_top" xlink:title="An interface for a very simple simulation model for which Monte Carlo (MC) and RQMC experiments are t...">
<polygon fill="none" stroke="black" points="0,-156.5 0,-175.5 124,-175.5 124,-156.5 0,-156.5"/>
<text text-anchor="middle" x="62" y="-163.5" font-family="Helvetica,sans-Serif" font-size="10.00">MonteCarloModelDouble</text>
</a>
</g>
</g>
<!-- Node5&#45;&gt;Node4 -->
<g id="edge2" class="edge"><title>Node5&#45;&gt;Node4</title>
<path fill="none" stroke="midnightblue" d="M89.7196,-151.944C117.053,-139.069 158.054,-119.757 181.599,-108.667"/>
<polygon fill="midnightblue" stroke="midnightblue" points="87.8806,-148.941 80.3253,-156.369 90.8635,-155.274 87.8806,-148.941"/>
</g>
<!-- Node6 -->
<g id="node4" class="node"><title>Node6</title>
<g id="a_node4"><a xlink:href="classumontreal_1_1ssj_1_1probdist_1_1ContinuousDistribution.html" target="_top" xlink:title="Classes implementing continuous distributions should inherit from this base class. ">
<polygon fill="none" stroke="black" points="142,-156.5 142,-175.5 258,-175.5 258,-156.5 142,-156.5"/>
<text text-anchor="middle" x="200" y="-163.5" font-family="Helvetica,sans-Serif" font-size="10.00">ContinuousDistribution</text>
</a>
</g>
</g>
<!-- Node6&#45;&gt;Node4 -->
<g id="edge3" class="edge"><title>Node6&#45;&gt;Node4</title>
<path fill="none" stroke="#9a32cd" stroke-dasharray="5,2" d="M200,-146.037C200,-133.67 200,-118.12 200,-108.627"/>
<polygon fill="#9a32cd" stroke="#9a32cd" points="196.5,-146.234 200,-156.234 203.5,-146.234 196.5,-146.234"/>
<text text-anchor="middle" x="209.5" y="-130" font-family="Helvetica,sans-Serif" font-size="10.00"> dist</text>
</g>
<!-- Node7 -->
<g id="node5" class="node"><title>Node7</title>
<g id="a_node5"><a xlink:href="interfaceumontreal_1_1ssj_1_1probdist_1_1Distribution.html" target="_top" xlink:title="This interface should be implemented by all classes supporting discrete and continuous distributions...">
<polygon fill="none" stroke="black" points="167,-213.5 167,-232.5 233,-232.5 233,-213.5 167,-213.5"/>
<text text-anchor="middle" x="200" y="-220.5" font-family="Helvetica,sans-Serif" font-size="10.00">Distribution</text>
</a>
</g>
</g>
<!-- Node7&#45;&gt;Node6 -->
<g id="edge4" class="edge"><title>Node7&#45;&gt;Node6</title>
<path fill="none" stroke="midnightblue" d="M200,-203.117C200,-193.817 200,-183.056 200,-175.715"/>
<polygon fill="midnightblue" stroke="midnightblue" points="196.5,-203.406 200,-213.406 203.5,-203.406 196.5,-203.406"/>
</g>
<!-- Node8 -->
<g id="node6" class="node"><title>Node8</title>
<g id="a_node6"><a xlink:href="classumontreal_1_1ssj_1_1stat_1_1Tally.html" target="_top" xlink:title="A subclass of StatProbe. ">
<polygon fill="none" stroke="black" points="326,-89.5 326,-108.5 364,-108.5 364,-89.5 326,-89.5"/>
<text text-anchor="middle" x="345" y="-96.5" font-family="Helvetica,sans-Serif" font-size="10.00">Tally</text>
</a>
</g>
</g>
<!-- Node8&#45;&gt;Node3 -->
<g id="edge5" class="edge"><title>Node8&#45;&gt;Node3</title>
<path fill="none" stroke="#9a32cd" stroke-dasharray="5,2" d="M333.467,-80.993C320.964,-62.5572 301.508,-33.8672 291.849,-19.6249"/>
<polygon fill="#9a32cd" stroke="#9a32cd" points="330.618,-83.0281 339.127,-89.34 336.411,-79.0992 330.618,-83.0281"/>
<text text-anchor="middle" x="353" y="-63" font-family="Helvetica,sans-Serif" font-size="10.00"> statsDeriv3</text>
<text text-anchor="middle" x="353" y="-52" font-family="Helvetica,sans-Serif" font-size="10.00">statsDeriv5</text>
<text text-anchor="middle" x="353" y="-41" font-family="Helvetica,sans-Serif" font-size="10.00">statsProb</text>
</g>
<!-- Node9 -->
<g id="node7" class="node"><title>Node9</title>
<g id="a_node7"><a xlink:href="classumontreal_1_1ssj_1_1stat_1_1StatProbe.html" target="_top" xlink:title="The objects of this class are statistical probes or collectors, which are elementary devices for coll...">
<polygon fill="none" stroke="black" points="276,-156.5 276,-175.5 336,-175.5 336,-156.5 276,-156.5"/>
<text text-anchor="middle" x="306" y="-163.5" font-family="Helvetica,sans-Serif" font-size="10.00">StatProbe</text>
</a>
</g>
</g>
<!-- Node9&#45;&gt;Node8 -->
<g id="edge6" class="edge"><title>Node9&#45;&gt;Node8</title>
<path fill="none" stroke="midnightblue" d="M316.479,-147.535C324.03,-134.95 333.896,-118.507 339.824,-108.627"/>
<polygon fill="midnightblue" stroke="midnightblue" points="313.403,-145.858 311.26,-156.234 319.406,-149.46 313.403,-145.858"/>
</g>
<!-- Node10 -->
<g id="node8" class="node"><title>Node10</title>
<polygon fill="none" stroke="#bfbfbf" points="354,-156.5 354,-175.5 414,-175.5 414,-156.5 354,-156.5"/>
<text text-anchor="middle" x="384" y="-163.5" font-family="Helvetica,sans-Serif" font-size="10.00">Cloneable</text>
</g>
<!-- Node10&#45;&gt;Node8 -->
<g id="edge7" class="edge"><title>Node10&#45;&gt;Node8</title>
<path fill="none" stroke="midnightblue" d="M373.521,-147.535C365.97,-134.95 356.104,-118.507 350.176,-108.627"/>
<polygon fill="midnightblue" stroke="midnightblue" points="370.594,-149.46 378.74,-156.234 376.597,-145.858 370.594,-149.46"/>
</g>
<!-- Node11 -->
<g id="node9" class="node"><title>Node11</title>
<polygon fill="none" stroke="#bfbfbf" points="432.5,-156.5 432.5,-175.5 505.5,-175.5 505.5,-156.5 432.5,-156.5"/>
<text text-anchor="middle" x="469" y="-163.5" font-family="Helvetica,sans-Serif" font-size="10.00">Tally.CIType</text>
</g>
<!-- Node11&#45;&gt;Node8 -->
<g id="edge8" class="edge"><title>Node11&#45;&gt;Node8</title>
<path fill="none" stroke="#9a32cd" stroke-dasharray="5,2" d="M443.443,-151.603C418.887,-138.731 382.505,-119.66 361.534,-108.667"/>
<polygon fill="#9a32cd" stroke="#9a32cd" points="442.052,-154.826 452.534,-156.369 445.302,-148.626 442.052,-154.826"/>
<text text-anchor="middle" x="456.5" y="-130" font-family="Helvetica,sans-Serif" font-size="10.00"> confidenceInterval</text>
</g>
</g>
</svg>
