<?xml version="1.0" encoding="UTF-8" standalone="no"?>
<!DOCTYPE svg PUBLIC "-//W3C//DTD SVG 1.1//EN"
 "http://www.w3.org/Graphics/SVG/1.1/DTD/svg11.dtd">
<!-- Generated by graphviz version 2.38.0 (20140413.2041)
 -->
<!-- Title: San13CMCgrad2 Pages: 1 -->
<svg width="514pt" height="230pt"
 viewBox="0.00 0.00 513.50 230.00" xmlns="http://www.w3.org/2000/svg" xmlns:xlink="http://www.w3.org/1999/xlink">
<g id="graph0" class="graph" transform="scale(1 1) rotate(0) translate(4 226)">
<title>San13CMCgrad2</title>
<!-- Node3 -->
<g id="node1" class="node"><title>Node3</title>
<polygon fill="#bfbfbf" stroke="black" points="240,-0.5 240,-19.5 332,-19.5 332,-0.5 240,-0.5"/>
<text text-anchor="middle" x="286" y="-7.5" font-family="Helvetica,sans-Serif" font-size="10.00">San13CMCgrad2</text>
</g>
<!-- Node4 -->
<g id="node2" class="node"><title>Node4</title>
<g id="a_node2"><a xlink:href="classift6561examples_1_1San13Prob.html" target="_top" xlink:title="This class simulates a specific stochastic activity network with 9 nodes and 13 links, taken from Elmaghraby (1977) and used again in L&#39;Ecuyer and Lemieux (2000), &quot;Variance Reduction via Lattice Rules&quot;. ">
<polygon fill="none" stroke="black" points="167.5,-78.5 167.5,-97.5 232.5,-97.5 232.5,-78.5 167.5,-78.5"/>
<text text-anchor="middle" x="200" y="-85.5" font-family="Helvetica,sans-Serif" font-size="10.00">San13Prob</text>
</a>
</g>
</g>
<!-- Node4&#45;&gt;Node3 -->
<g id="edge1" class="edge"><title>Node4&#45;&gt;Node3</title>
<path fill="none" stroke="midnightblue" d="M217.761,-71.3041C235.484,-55.6422 262.06,-32.1562 276.25,-19.6165"/>
<polygon fill="midnightblue" stroke="midnightblue" points="215.041,-69.0372 209.865,-78.2818 219.676,-74.2825 215.041,-69.0372"/>
</g>
<!-- Node5 -->
<g id="node3" class="node"><title>Node5</title>
<g id="a_node3"><a xlink:href="interfaceumontreal_1_1ssj_1_1mcqmctools_1_1MonteCarloModelDouble.html" target="_top" xlink:title="An interface for a very simple simulation model for which Monte Carlo (MC) and RQMC experiments are t...">
<polygon fill="none" stroke="black" points="0,-145.5 0,-164.5 124,-164.5 124,-145.5 0,-145.5"/>
<text text-anchor="middle" x="62" y="-152.5" font-family="Helvetica,sans-Serif" font-size="10.00">MonteCarloModelDouble</text>
</a>
</g>
</g>
<!-- Node5&#45;&gt;Node4 -->
<g id="edge2" class="edge"><title>Node5&#45;&gt;Node4</title>
<path fill="none" stroke="midnightblue" d="M89.7196,-140.944C117.053,-128.069 158.054,-108.757 181.599,-97.6672"/>
<polygon fill="midnightblue" stroke="midnightblue" points="87.8806,-137.941 80.3253,-145.369 90.8635,-144.274 87.8806,-137.941"/>
</g>
<!-- Node6 -->
<g id="node4" class="node"><title>Node6</title>
<g id="a_node4"><a xlink:href="classumontreal_1_1ssj_1_1probdist_1_1ContinuousDistribution.html" target="_top" xlink:title="Classes implementing continuous distributions should inherit from this base class. ">
<polygon fill="none" stroke="black" points="142,-145.5 142,-164.5 258,-164.5 258,-145.5 142,-145.5"/>
<text text-anchor="middle" x="200" y="-152.5" font-family="Helvetica,sans-Serif" font-size="10.00">ContinuousDistribution</text>
</a>
</g>
</g>
<!-- Node6&#45;&gt;Node4 -->
<g id="edge3" class="edge"><title>Node6&#45;&gt;Node4</title>
<path fill="none" stroke="#9a32cd" stroke-dasharray="5,2" d="M200,-135.037C200,-122.67 200,-107.12 200,-97.6273"/>
<polygon fill="#9a32cd" stroke="#9a32cd" points="196.5,-135.234 200,-145.234 203.5,-135.234 196.5,-135.234"/>
<text text-anchor="middle" x="209.5" y="-119" font-family="Helvetica,sans-Serif" font-size="10.00"> dist</text>
</g>
<!-- Node7 -->
<g id="node5" class="node"><title>Node7</title>
<g id="a_node5"><a xlink:href="interfaceumontreal_1_1ssj_1_1probdist_1_1Distribution.html" target="_top" xlink:title="This interface should be implemented by all classes supporting discrete and continuous distributions...">
<polygon fill="none" stroke="black" points="167,-202.5 167,-221.5 233,-221.5 233,-202.5 167,-202.5"/>
<text text-anchor="middle" x="200" y="-209.5" font-family="Helvetica,sans-Serif" font-size="10.00">Distribution</text>
</a>
</g>
</g>
<!-- Node7&#45;&gt;Node6 -->
<g id="edge4" class="edge"><title>Node7&#45;&gt;Node6</title>
<path fill="none" stroke="midnightblue" d="M200,-192.117C200,-182.817 200,-172.056 200,-164.715"/>
<polygon fill="midnightblue" stroke="midnightblue" points="196.5,-192.406 200,-202.406 203.5,-192.406 196.5,-192.406"/>
</g>
<!-- Node8 -->
<g id="node6" class="node"><title>Node8</title>
<g id="a_node6"><a xlink:href="classumontreal_1_1ssj_1_1stat_1_1Tally.html" target="_top" xlink:title="A subclass of StatProbe. ">
<polygon fill="none" stroke="black" points="326,-78.5 326,-97.5 364,-97.5 364,-78.5 326,-78.5"/>
<text text-anchor="middle" x="345" y="-85.5" font-family="Helvetica,sans-Serif" font-size="10.00">Tally</text>
</a>
</g>
</g>
<!-- Node8&#45;&gt;Node3 -->
<g id="edge5" class="edge"><title>Node8&#45;&gt;Node3</title>
<path fill="none" stroke="#9a32cd" stroke-dasharray="5,2" d="M331.807,-70.0056C319.668,-54.3693 302.158,-31.8142 292.689,-19.6165"/>
<polygon fill="#9a32cd" stroke="#9a32cd" points="329.335,-72.529 338.232,-78.2818 334.864,-68.2364 329.335,-72.529"/>
<text text-anchor="middle" x="347.5" y="-52" font-family="Helvetica,sans-Serif" font-size="10.00"> statsDeriv</text>
<text text-anchor="middle" x="347.5" y="-41" font-family="Helvetica,sans-Serif" font-size="10.00">statsProb</text>
</g>
<!-- Node9 -->
<g id="node7" class="node"><title>Node9</title>
<g id="a_node7"><a xlink:href="classumontreal_1_1ssj_1_1stat_1_1StatProbe.html" target="_top" xlink:title="The objects of this class are statistical probes or collectors, which are elementary devices for coll...">
<polygon fill="none" stroke="black" points="276,-145.5 276,-164.5 336,-164.5 336,-145.5 276,-145.5"/>
<text text-anchor="middle" x="306" y="-152.5" font-family="Helvetica,sans-Serif" font-size="10.00">StatProbe</text>
</a>
</g>
</g>
<!-- Node9&#45;&gt;Node8 -->
<g id="edge6" class="edge"><title>Node9&#45;&gt;Node8</title>
<path fill="none" stroke="midnightblue" d="M316.479,-136.535C324.03,-123.95 333.896,-107.507 339.824,-97.6273"/>
<polygon fill="midnightblue" stroke="midnightblue" points="313.403,-134.858 311.26,-145.234 319.406,-138.46 313.403,-134.858"/>
</g>
<!-- Node10 -->
<g id="node8" class="node"><title>Node10</title>
<polygon fill="none" stroke="#bfbfbf" points="354,-145.5 354,-164.5 414,-164.5 414,-145.5 354,-145.5"/>
<text text-anchor="middle" x="384" y="-152.5" font-family="Helvetica,sans-Serif" font-size="10.00">Cloneable</text>
</g>
<!-- Node10&#45;&gt;Node8 -->
<g id="edge7" class="edge"><title>Node10&#45;&gt;Node8</title>
<path fill="none" stroke="midnightblue" d="M373.521,-136.535C365.97,-123.95 356.104,-107.507 350.176,-97.6273"/>
<polygon fill="midnightblue" stroke="midnightblue" points="370.594,-138.46 378.74,-145.234 376.597,-134.858 370.594,-138.46"/>
</g>
<!-- Node11 -->
<g id="node9" class="node"><title>Node11</title>
<polygon fill="none" stroke="#bfbfbf" points="432.5,-145.5 432.5,-164.5 505.5,-164.5 505.5,-145.5 432.5,-145.5"/>
<text text-anchor="middle" x="469" y="-152.5" font-family="Helvetica,sans-Serif" font-size="10.00">Tally.CIType</text>
</g>
<!-- Node11&#45;&gt;Node8 -->
<g id="edge8" class="edge"><title>Node11&#45;&gt;Node8</title>
<path fill="none" stroke="#9a32cd" stroke-dasharray="5,2" d="M443.443,-140.603C418.887,-127.731 382.505,-108.66 361.534,-97.6672"/>
<polygon fill="#9a32cd" stroke="#9a32cd" points="442.052,-143.826 452.534,-145.369 445.302,-137.626 442.052,-143.826"/>
<text text-anchor="middle" x="456.5" y="-119" font-family="Helvetica,sans-Serif" font-size="10.00"> confidenceInterval</text>
</g>
</g>
</svg>
