<?xml version="1.0" encoding="UTF-8" standalone="no"?>
<!DOCTYPE svg PUBLIC "-//W3C//DTD SVG 1.1//EN"
 "http://www.w3.org/Graphics/SVG/1.1/DTD/svg11.dtd">
<!-- Generated by graphviz version 2.40.1 (20161225.0304)
 -->
<!-- Title: XYLineChart Pages: 1 -->
<svg width="203pt" height="140pt"
 viewBox="0.00 0.00 203.00 140.00" xmlns="http://www.w3.org/2000/svg" xmlns:xlink="http://www.w3.org/1999/xlink">
<g id="graph0" class="graph" transform="scale(1 1) rotate(0) translate(4 136)">
<title>XYLineChart</title>
<!-- Node0 -->
<g id="node1" class="node">
<title>Node0</title>
<polygon fill="#bfbfbf" stroke="#000000" points="53.5,-56.5 53.5,-75.5 125.5,-75.5 125.5,-56.5 53.5,-56.5"/>
<text text-anchor="middle" x="89.5" y="-63.5" font-family="Helvetica,sans-Serif" font-size="10.00" fill="#000000">XYLineChart</text>
</g>
<!-- Node2 -->
<g id="node3" class="node">
<title>Node2</title>
<g id="a_node3"><a xlink:href="classumontreal_1_1ssj_1_1charts_1_1PPPlot.html" target="_top" xlink:title="This class implements PP&#45;plot (or probability&#45;probability plot) objects that compare two probability ...">
<polygon fill="none" stroke="#000000" points="0,-.5 0,-19.5 47,-19.5 47,-.5 0,-.5"/>
<text text-anchor="middle" x="23.5" y="-7.5" font-family="Helvetica,sans-Serif" font-size="10.00" fill="#000000">PPPlot</text>
</a>
</g>
</g>
<!-- Node0&#45;&gt;Node2 -->
<g id="edge2" class="edge">
<title>Node0&#45;&gt;Node2</title>
<path fill="none" stroke="#191970" d="M70.2245,-49.645C58.7462,-39.9058 44.5723,-27.8795 34.8646,-19.6427"/>
<polygon fill="#191970" stroke="#191970" points="68.1141,-52.4445 78.0037,-56.2455 72.643,-47.1069 68.1141,-52.4445"/>
</g>
<!-- Node3 -->
<g id="node4" class="node">
<title>Node3</title>
<g id="a_node4"><a xlink:href="classumontreal_1_1ssj_1_1charts_1_1QQPlot.html" target="_top" xlink:title="This class implements QQ&#45;plot (or quantile&#45;quantile plot) objects that compare two probability distri...">
<polygon fill="none" stroke="#000000" points="65,-.5 65,-19.5 114,-19.5 114,-.5 65,-.5"/>
<text text-anchor="middle" x="89.5" y="-7.5" font-family="Helvetica,sans-Serif" font-size="10.00" fill="#000000">QQPlot</text>
</a>
</g>
</g>
<!-- Node0&#45;&gt;Node3 -->
<g id="edge3" class="edge">
<title>Node0&#45;&gt;Node3</title>
<path fill="none" stroke="#191970" d="M89.5,-46.1575C89.5,-37.155 89.5,-26.9199 89.5,-19.6427"/>
<polygon fill="#191970" stroke="#191970" points="86.0001,-46.2455 89.5,-56.2455 93.0001,-46.2456 86.0001,-46.2455"/>
</g>
<!-- Node4 -->
<g id="node5" class="node">
<title>Node4</title>
<g id="a_node5"><a xlink:href="classumontreal_1_1ssj_1_1charts_1_1YListChart.html" target="_top" xlink:title="This class extends the class umontreal.ssj.charts.XYLineChart. ">
<polygon fill="none" stroke="#000000" points="132,-.5 132,-19.5 195,-19.5 195,-.5 132,-.5"/>
<text text-anchor="middle" x="163.5" y="-7.5" font-family="Helvetica,sans-Serif" font-size="10.00" fill="#000000">YListChart</text>
</a>
</g>
</g>
<!-- Node0&#45;&gt;Node4 -->
<g id="edge4" class="edge">
<title>Node0&#45;&gt;Node4</title>
<path fill="none" stroke="#191970" d="M110.3657,-50.2097C123.3625,-40.3743 139.6622,-28.0394 150.7579,-19.6427"/>
<polygon fill="#191970" stroke="#191970" points="108.2518,-47.4201 102.3898,-56.2455 112.476,-53.002 108.2518,-47.4201"/>
</g>
<!-- Node1 -->
<g id="node2" class="node">
<title>Node1</title>
<g id="a_node2"><a xlink:href="classumontreal_1_1ssj_1_1charts_1_1XYChart.html" target="_top" xlink:title="This class provides tools to create charts from data in a simple way. ">
<polygon fill="none" stroke="#000000" points="63,-112.5 63,-131.5 116,-131.5 116,-112.5 63,-112.5"/>
<text text-anchor="middle" x="89.5" y="-119.5" font-family="Helvetica,sans-Serif" font-size="10.00" fill="#000000">XYChart</text>
</a>
</g>
</g>
<!-- Node1&#45;&gt;Node0 -->
<g id="edge1" class="edge">
<title>Node1&#45;&gt;Node0</title>
<path fill="none" stroke="#191970" d="M89.5,-102.1575C89.5,-93.155 89.5,-82.9199 89.5,-75.6427"/>
<polygon fill="#191970" stroke="#191970" points="86.0001,-102.2455 89.5,-112.2455 93.0001,-102.2456 86.0001,-102.2455"/>
</g>
</g>
</svg>
