<?xml version="1.0" encoding="UTF-8" standalone="no"?>
<!DOCTYPE svg PUBLIC "-//W3C//DTD SVG 1.1//EN"
 "http://www.w3.org/Graphics/SVG/1.1/DTD/svg11.dtd">
<!-- Generated by graphviz version 2.40.1 (0)
 -->
<!-- Title: StudentDistQuick Pages: 1 -->
<svg width="124pt" height="196pt"
 viewBox="0.00 0.00 124.00 196.00" xmlns="http://www.w3.org/2000/svg" xmlns:xlink="http://www.w3.org/1999/xlink">
<g id="graph0" class="graph" transform="scale(1 1) rotate(0) translate(4 192)">
<title>StudentDistQuick</title>
<!-- Node4 -->
<g id="node1" class="node">
<title>Node4</title>
<g id="a_node1"><a xlink:title="Extends the class StudentDist for the Student &#45;distribution.">
<polygon fill="#bfbfbf" stroke="#000000" points="11,-.5 11,-19.5 105,-19.5 105,-.5 11,-.5"/>
<text text-anchor="middle" x="58" y="-7.5" font-family="Helvetica,sans-Serif" font-size="10.00" fill="#000000">StudentDistQuick</text>
</a>
</g>
</g>
<!-- Node5 -->
<g id="node2" class="node">
<title>Node5</title>
<g id="a_node2"><a xlink:href="classumontreal_1_1ssj_1_1probdist_1_1StudentDist.html" target="_top" xlink:title="Extends the class ContinuousDistribution for the Student &#45;distribution   (page 362) with &#160;degrees of ...">
<polygon fill="none" stroke="#000000" points="24,-56.5 24,-75.5 92,-75.5 92,-56.5 24,-56.5"/>
<text text-anchor="middle" x="58" y="-63.5" font-family="Helvetica,sans-Serif" font-size="10.00" fill="#000000">StudentDist</text>
</a>
</g>
</g>
<!-- Node5&#45;&gt;Node4 -->
<g id="edge1" class="edge">
<title>Node5&#45;&gt;Node4</title>
<path fill="none" stroke="#191970" d="M58,-46.1575C58,-37.155 58,-26.9199 58,-19.6427"/>
<polygon fill="#191970" stroke="#191970" points="54.5001,-46.2455 58,-56.2455 61.5001,-46.2456 54.5001,-46.2455"/>
</g>
<!-- Node6 -->
<g id="node3" class="node">
<title>Node6</title>
<g id="a_node3"><a xlink:href="classumontreal_1_1ssj_1_1probdist_1_1ContinuousDistribution.html" target="_top" xlink:title="Classes implementing continuous distributions should inherit from this base class.">
<polygon fill="none" stroke="#000000" points="0,-112.5 0,-131.5 116,-131.5 116,-112.5 0,-112.5"/>
<text text-anchor="middle" x="58" y="-119.5" font-family="Helvetica,sans-Serif" font-size="10.00" fill="#000000">ContinuousDistribution</text>
</a>
</g>
</g>
<!-- Node6&#45;&gt;Node5 -->
<g id="edge2" class="edge">
<title>Node6&#45;&gt;Node5</title>
<path fill="none" stroke="#191970" d="M58,-102.1575C58,-93.155 58,-82.9199 58,-75.6427"/>
<polygon fill="#191970" stroke="#191970" points="54.5001,-102.2455 58,-112.2455 61.5001,-102.2456 54.5001,-102.2455"/>
</g>
<!-- Node7 -->
<g id="node4" class="node">
<title>Node7</title>
<g id="a_node4"><a xlink:href="interfaceumontreal_1_1ssj_1_1probdist_1_1Distribution.html" target="_top" xlink:title="This interface should be implemented by all classes supporting discrete and continuous distributions.">
<polygon fill="none" stroke="#000000" points="25,-168.5 25,-187.5 91,-187.5 91,-168.5 25,-168.5"/>
<text text-anchor="middle" x="58" y="-175.5" font-family="Helvetica,sans-Serif" font-size="10.00" fill="#000000">Distribution</text>
</a>
</g>
</g>
<!-- Node7&#45;&gt;Node6 -->
<g id="edge3" class="edge">
<title>Node7&#45;&gt;Node6</title>
<path fill="none" stroke="#191970" d="M58,-158.1575C58,-149.155 58,-138.9199 58,-131.6427"/>
<polygon fill="#191970" stroke="#191970" points="54.5001,-158.2455 58,-168.2455 61.5001,-158.2456 54.5001,-158.2455"/>
</g>
</g>
</svg>
