<?xml version="1.0" encoding="UTF-8" standalone="no"?>
<!DOCTYPE svg PUBLIC "-//W3C//DTD SVG 1.1//EN"
 "http://www.w3.org/Graphics/SVG/1.1/DTD/svg11.dtd">
<!-- Generated by graphviz version 2.40.1 (20161225.0304)
 -->
<!-- Title: CIRProcess Pages: 1 -->
<svg width="279pt" height="219pt"
 viewBox="0.00 0.00 279.00 219.00" xmlns="http://www.w3.org/2000/svg" xmlns:xlink="http://www.w3.org/1999/xlink">
<g id="graph0" class="graph" transform="scale(1 1) rotate(0) translate(4 215)">
<title>CIRProcess</title>
<!-- Node2 -->
<g id="node1" class="node">
<title>Node2</title>
<polygon fill="#bfbfbf" stroke="#000000" points="30,-.5 30,-19.5 101,-19.5 101,-.5 30,-.5"/>
<text text-anchor="middle" x="65.5" y="-7.5" font-family="Helvetica,sans-Serif" font-size="10.00" fill="#000000">CIRProcess</text>
</g>
<!-- Node3 -->
<g id="node2" class="node">
<title>Node3</title>
<g id="a_node2"><a xlink:href="classumontreal_1_1ssj_1_1stochprocess_1_1StochasticProcess.html" target="_top" xlink:title="Abstract base class for a stochastic process &#160;sampled (or observed) at a finite number of time points...">
<polygon fill="none" stroke="#000000" points="0,-67.5 0,-86.5 99,-86.5 99,-67.5 0,-67.5"/>
<text text-anchor="middle" x="49.5" y="-74.5" font-family="Helvetica,sans-Serif" font-size="10.00" fill="#000000">StochasticProcess</text>
</a>
</g>
</g>
<!-- Node3&#45;&gt;Node2 -->
<g id="edge1" class="edge">
<title>Node3&#45;&gt;Node2</title>
<path fill="none" stroke="#191970" d="M54.16,-57.4863C57.135,-45.0286 60.861,-29.4258 63.2118,-19.5817"/>
<polygon fill="#191970" stroke="#191970" points="50.711,-56.861 51.7924,-67.4005 57.5195,-58.487 50.711,-56.861"/>
</g>
<!-- Node4 -->
<g id="node3" class="node">
<title>Node4</title>
<g id="a_node3"><a xlink:href="classumontreal_1_1ssj_1_1randvar_1_1ChiSquareNoncentralGen.html" target="_top" xlink:title="This class implements random variate generators for the noncentral chi square distribution with &#160;degr...">
<polygon fill="none" stroke="#000000" points="117.5,-67.5 117.5,-86.5 245.5,-86.5 245.5,-67.5 117.5,-67.5"/>
<text text-anchor="middle" x="181.5" y="-74.5" font-family="Helvetica,sans-Serif" font-size="10.00" fill="#000000">ChiSquareNoncentralGen</text>
</a>
</g>
</g>
<!-- Node4&#45;&gt;Node2 -->
<g id="edge2" class="edge">
<title>Node4&#45;&gt;Node2</title>
<path fill="none" stroke="#9a32cd" stroke-dasharray="5,2" d="M156.1957,-62.3846C133.6994,-49.391 101.4568,-30.7681 82.0891,-19.5817"/>
<polygon fill="#9a32cd" stroke="#9a32cd" points="154.4701,-65.4297 164.88,-67.4005 157.9712,-59.3682 154.4701,-65.4297"/>
<text text-anchor="middle" x="140" y="-41" font-family="Helvetica,sans-Serif" font-size="10.00" fill="#000000"> gen</text>
</g>
<!-- Node5 -->
<g id="node4" class="node">
<title>Node5</title>
<g id="a_node4"><a xlink:href="classumontreal_1_1ssj_1_1randvar_1_1RandomVariateGen.html" target="_top" xlink:title="This is the base class for all random variate generators over the real line. ">
<polygon fill="none" stroke="#000000" points="131,-124.5 131,-143.5 232,-143.5 232,-124.5 131,-124.5"/>
<text text-anchor="middle" x="181.5" y="-131.5" font-family="Helvetica,sans-Serif" font-size="10.00" fill="#000000">RandomVariateGen</text>
</a>
</g>
</g>
<!-- Node5&#45;&gt;Node4 -->
<g id="edge3" class="edge">
<title>Node5&#45;&gt;Node4</title>
<path fill="none" stroke="#191970" d="M181.5,-114.2342C181.5,-104.8491 181.5,-94.0651 181.5,-86.5265"/>
<polygon fill="#191970" stroke="#191970" points="178.0001,-114.3307 181.5,-124.3307 185.0001,-114.3308 178.0001,-114.3307"/>
</g>
<!-- Node6 -->
<g id="node5" class="node">
<title>Node6</title>
<g id="a_node5"><a xlink:href="interfaceumontreal_1_1ssj_1_1probdist_1_1Distribution.html" target="_top" xlink:title="This interface should be implemented by all classes supporting discrete and continuous distributions...">
<polygon fill="none" stroke="#000000" points="101.5,-191.5 101.5,-210.5 167.5,-210.5 167.5,-191.5 101.5,-191.5"/>
<text text-anchor="middle" x="134.5" y="-198.5" font-family="Helvetica,sans-Serif" font-size="10.00" fill="#000000">Distribution</text>
</a>
</g>
</g>
<!-- Node6&#45;&gt;Node5 -->
<g id="edge4" class="edge">
<title>Node6&#45;&gt;Node5</title>
<path fill="none" stroke="#9a32cd" stroke-dasharray="5,2" d="M147.1407,-182.9803C156.0366,-170.2989 167.594,-153.8235 174.7785,-143.5817"/>
<polygon fill="#9a32cd" stroke="#9a32cd" points="144.1115,-181.2039 141.234,-191.4005 149.8421,-185.2239 144.1115,-181.2039"/>
<text text-anchor="middle" x="171" y="-165" font-family="Helvetica,sans-Serif" font-size="10.00" fill="#000000"> dist</text>
</g>
<!-- Node7 -->
<g id="node6" class="node">
<title>Node7</title>
<g id="a_node6"><a xlink:href="interfaceumontreal_1_1ssj_1_1rng_1_1RandomStream.html" target="_top" xlink:title="This interface defines the basic structures to handle multiple streams of uniform (pseudo)random numb...">
<polygon fill="none" stroke="#000000" points="186,-191.5 186,-210.5 271,-210.5 271,-191.5 186,-191.5"/>
<text text-anchor="middle" x="228.5" y="-198.5" font-family="Helvetica,sans-Serif" font-size="10.00" fill="#000000">RandomStream</text>
</a>
</g>
</g>
<!-- Node7&#45;&gt;Node5 -->
<g id="edge5" class="edge">
<title>Node7&#45;&gt;Node5</title>
<path fill="none" stroke="#9a32cd" stroke-dasharray="5,2" d="M215.8593,-182.9803C206.9634,-170.2989 195.406,-153.8235 188.2215,-143.5817"/>
<polygon fill="#9a32cd" stroke="#9a32cd" points="213.1579,-185.2239 221.766,-191.4005 218.8885,-181.2039 213.1579,-185.2239"/>
<text text-anchor="middle" x="224.5" y="-165" font-family="Helvetica,sans-Serif" font-size="10.00" fill="#000000"> stream</text>
</g>
</g>
</svg>
