<?xml version="1.0" encoding="UTF-8" standalone="no"?>
<!DOCTYPE svg PUBLIC "-//W3C//DTD SVG 1.1//EN"
 "http://www.w3.org/Graphics/SVG/1.1/DTD/svg11.dtd">
<!-- Generated by graphviz version 2.40.1 (0)
 -->
<!-- Title: TestAsianOptionGBM2QMC Pages: 1 -->
<svg width="451pt" height="264pt"
 viewBox="0.00 0.00 451.00 264.00" xmlns="http://www.w3.org/2000/svg" xmlns:xlink="http://www.w3.org/1999/xlink">
<g id="graph0" class="graph" transform="scale(1 1) rotate(0) translate(4 260)">
<title>TestAsianOptionGBM2QMC</title>
<!-- Node1 -->
<g id="node1" class="node">
<title>Node1</title>
<g id="a_node1"><a xlink:title=" ">
<polygon fill="#bfbfbf" stroke="#000000" points="99.5,-.5 99.5,-19.5 239.5,-19.5 239.5,-.5 99.5,-.5"/>
<text text-anchor="middle" x="169.5" y="-7.5" font-family="Helvetica,sans-Serif" font-size="10.00" fill="#000000">TestAsianOptionGBM2QMC</text>
</a>
</g>
</g>
<!-- Node2 -->
<g id="node2" class="node">
<title>Node2</title>
<g id="a_node2"><a xlink:href="classumontreal_1_1ssj_1_1hups_1_1SubsetOfPointSet.html" target="_top" xlink:title="This container class permits one to select a subset of a point set.">
<polygon fill="none" stroke="#000000" points="122,-96 122,-115 217,-115 217,-96 122,-96"/>
<text text-anchor="middle" x="169.5" y="-103" font-family="Helvetica,sans-Serif" font-size="10.00" fill="#000000">SubsetOfPointSet</text>
</a>
</g>
</g>
<!-- Node2&#45;&gt;Node1 -->
<g id="edge1" class="edge">
<title>Node2&#45;&gt;Node1</title>
<path fill="none" stroke="#9a32cd" stroke-dasharray="5,2" d="M169.5,-85.7712C169.5,-65.6337 169.5,-35.2067 169.5,-19.7519"/>
<polygon fill="#9a32cd" stroke="#9a32cd" points="166.0001,-85.9939 169.5,-95.994 173.0001,-85.994 166.0001,-85.9939"/>
<text text-anchor="middle" x="186.5" y="-52" font-family="Helvetica,sans-Serif" font-size="10.00" fill="#000000"> pLCG0</text>
</g>
<!-- Node3 -->
<g id="node3" class="node">
<title>Node3</title>
<g id="a_node3"><a xlink:href="classumontreal_1_1ssj_1_1hups_1_1PointSet.html" target="_top" xlink:title="This abstract class defines the basic methods for accessing and manipulating point sets.">
<polygon fill="none" stroke="#000000" points="57.5,-169.5 57.5,-188.5 111.5,-188.5 111.5,-169.5 57.5,-169.5"/>
<text text-anchor="middle" x="84.5" y="-176.5" font-family="Helvetica,sans-Serif" font-size="10.00" fill="#000000">PointSet</text>
</a>
</g>
</g>
<!-- Node3&#45;&gt;Node1 -->
<g id="edge9" class="edge">
<title>Node3&#45;&gt;Node1</title>
<path fill="none" stroke="#9a32cd" stroke-dasharray="5,2" d="M79.0928,-159.4452C74.9375,-140.5511 71.4369,-111.5571 81.5,-89 95.887,-56.7504 130.6661,-32.1743 151.9409,-19.5185"/>
<polygon fill="#9a32cd" stroke="#9a32cd" points="75.7249,-160.4066 81.5174,-169.2777 82.5213,-158.7306 75.7249,-160.4066"/>
<text text-anchor="middle" x="97" y="-114" font-family="Helvetica,sans-Serif" font-size="10.00" fill="#000000"> pLCG</text>
<text text-anchor="middle" x="97" y="-103" font-family="Helvetica,sans-Serif" font-size="10.00" fill="#000000">pStrat</text>
<text text-anchor="middle" x="97" y="-92" font-family="Helvetica,sans-Serif" font-size="10.00" fill="#000000">pSobol</text>
</g>
<!-- Node3&#45;&gt;Node2 -->
<g id="edge2" class="edge">
<title>Node3&#45;&gt;Node2</title>
<path fill="none" stroke="#191970" d="M103.2321,-162.8023C120.1188,-148.2002 144.3843,-127.2177 158.385,-115.1112"/>
<polygon fill="#191970" stroke="#191970" points="100.8872,-160.2028 95.6123,-169.3912 105.4658,-165.4978 100.8872,-160.2028"/>
</g>
<!-- Node3&#45;&gt;Node2 -->
<g id="edge4" class="edge">
<title>Node3&#45;&gt;Node2</title>
<path fill="none" stroke="#9a32cd" stroke-dasharray="5,2" d="M116.6876,-164.5946C123.6113,-160.7196 130.6103,-156.1513 136.5,-151 148.3991,-140.5926 158.4533,-125.1365 164.2325,-115.1892"/>
<polygon fill="#9a32cd" stroke="#9a32cd" points="114.6506,-161.7096 107.4042,-169.4388 117.8889,-167.9156 114.6506,-161.7096"/>
<text text-anchor="middle" x="151.5" y="-143" font-family="Helvetica,sans-Serif" font-size="10.00" fill="#000000"> P</text>
</g>
<!-- Node4 -->
<g id="node4" class="node">
<title>Node4</title>
<g id="a_node4"><a xlink:href="interfaceumontreal_1_1ssj_1_1rng_1_1RandomStream.html" target="_top" xlink:title="This interface defines the basic structures to handle multiple streams of uniform (pseudo)random numb...">
<polygon fill="none" stroke="#000000" points="0,-236.5 0,-255.5 85,-255.5 85,-236.5 0,-236.5"/>
<text text-anchor="middle" x="42.5" y="-243.5" font-family="Helvetica,sans-Serif" font-size="10.00" fill="#000000">RandomStream</text>
</a>
</g>
</g>
<!-- Node4&#45;&gt;Node1 -->
<g id="edge10" class="edge">
<title>Node4&#45;&gt;Node1</title>
<path fill="none" stroke="#9a32cd" stroke-dasharray="5,2" d="M40.2508,-226.159C36.7476,-184.5497 35.1884,-87.8972 88.5,-38 97.5164,-29.561 109.2008,-23.6509 120.8753,-19.5169"/>
<polygon fill="#9a32cd" stroke="#9a32cd" points="36.7906,-226.7384 41.2464,-236.3507 43.7575,-226.0578 36.7906,-226.7384"/>
<text text-anchor="middle" x="56" y="-143" font-family="Helvetica,sans-Serif" font-size="10.00" fill="#000000"> noise</text>
</g>
<!-- Node4&#45;&gt;Node3 -->
<g id="edge3" class="edge">
<title>Node4&#45;&gt;Node3</title>
<path fill="none" stroke="#9a32cd" stroke-dasharray="5,2" d="M54.0281,-227.6099C61.9457,-214.9795 72.1357,-198.7241 78.4936,-188.5817"/>
<polygon fill="#9a32cd" stroke="#9a32cd" points="50.8635,-226.0687 48.5176,-236.4005 56.7945,-229.7866 50.8635,-226.0687"/>
<text text-anchor="middle" x="93.5" y="-210" font-family="Helvetica,sans-Serif" font-size="10.00" fill="#000000"> shiftStream</text>
</g>
<!-- Node5 -->
<g id="node5" class="node">
<title>Node5</title>
<g id="a_node5"><a xlink:href="classift6561examples_1_1AsianOption.html" target="_top" xlink:title="This class represents an Asian average price call option with European exercise type.">
<polygon fill="none" stroke="#000000" points="235.5,-96 235.5,-115 305.5,-115 305.5,-96 235.5,-96"/>
<text text-anchor="middle" x="270.5" y="-103" font-family="Helvetica,sans-Serif" font-size="10.00" fill="#000000">AsianOption</text>
</a>
</g>
</g>
<!-- Node5&#45;&gt;Node1 -->
<g id="edge5" class="edge">
<title>Node5&#45;&gt;Node1</title>
<path fill="none" stroke="#9a32cd" stroke-dasharray="5,2" d="M255.6355,-87.8485C243.3601,-73.7101 225.148,-53.7125 207.5,-38 200.0331,-31.352 191.0528,-24.6812 183.6974,-19.5192"/>
<polygon fill="#9a32cd" stroke="#9a32cd" points="253.2884,-90.4883 262.4534,-95.8038 258.6035,-85.9331 253.2884,-90.4883"/>
<text text-anchor="middle" x="253" y="-52" font-family="Helvetica,sans-Serif" font-size="10.00" fill="#000000"> asian</text>
</g>
<!-- Node6 -->
<g id="node6" class="node">
<title>Node6</title>
<g id="a_node6"><a xlink:href="interfaceumontreal_1_1ssj_1_1mcqmctools_1_1MonteCarloModelDouble.html" target="_top" xlink:title="An interface for a very simple simulation model for which Monte Carlo (MC) and RQMC experiments are t...">
<polygon fill="none" stroke="#000000" points="130.5,-169.5 130.5,-188.5 254.5,-188.5 254.5,-169.5 130.5,-169.5"/>
<text text-anchor="middle" x="192.5" y="-176.5" font-family="Helvetica,sans-Serif" font-size="10.00" fill="#000000">MonteCarloModelDouble</text>
</a>
</g>
</g>
<!-- Node6&#45;&gt;Node5 -->
<g id="edge6" class="edge">
<title>Node6&#45;&gt;Node5</title>
<path fill="none" stroke="#191970" d="M210.069,-162.4446C225.4469,-147.9539 247.2721,-127.3878 260.0514,-115.3458"/>
<polygon fill="#191970" stroke="#191970" points="207.5747,-159.9858 202.6971,-169.3912 212.3754,-165.0804 207.5747,-159.9858"/>
</g>
<!-- Node7 -->
<g id="node7" class="node">
<title>Node7</title>
<g id="a_node7"><a xlink:href="classumontreal_1_1ssj_1_1stochprocess_1_1StochasticProcess.html" target="_top" xlink:title="Abstract base class for a stochastic process &#160;sampled (or observed) at a finite number of time points...">
<polygon fill="none" stroke="#000000" points="273,-169.5 273,-188.5 372,-188.5 372,-169.5 273,-169.5"/>
<text text-anchor="middle" x="322.5" y="-176.5" font-family="Helvetica,sans-Serif" font-size="10.00" fill="#000000">StochasticProcess</text>
</a>
</g>
</g>
<!-- Node7&#45;&gt;Node5 -->
<g id="edge7" class="edge">
<title>Node7&#45;&gt;Node5</title>
<path fill="none" stroke="#9a32cd" stroke-dasharray="5,2" d="M309.6418,-160.8255C299.4756,-146.456 285.6726,-126.9459 277.4657,-115.3458"/>
<polygon fill="#9a32cd" stroke="#9a32cd" points="307.0691,-163.2491 315.7019,-169.3912 312.7836,-159.2062 307.0691,-163.2491"/>
<text text-anchor="middle" x="333" y="-143" font-family="Helvetica,sans-Serif" font-size="10.00" fill="#000000"> priceProcess</text>
</g>
<!-- Node8 -->
<g id="node8" class="node">
<title>Node8</title>
<g id="a_node8"><a xlink:href="interfaceumontreal_1_1ssj_1_1hups_1_1PointSetRandomization.html" target="_top" xlink:title="This interface is used to randomize a umontreal.ssj.hups.PointSet.">
<polygon fill="none" stroke="#000000" points="324,-96 324,-115 443,-115 443,-96 324,-96"/>
<text text-anchor="middle" x="383.5" y="-103" font-family="Helvetica,sans-Serif" font-size="10.00" fill="#000000">PointSetRandomization</text>
</a>
</g>
</g>
<!-- Node8&#45;&gt;Node1 -->
<g id="edge8" class="edge">
<title>Node8&#45;&gt;Node1</title>
<path fill="none" stroke="#9a32cd" stroke-dasharray="5,2" d="M361.9103,-90.2014C339.8327,-75.147 304.1045,-52.3844 270.5,-38 252.4338,-30.2668 231.6351,-24.075 213.6249,-19.5005"/>
<polygon fill="#9a32cd" stroke="#9a32cd" points="360.0007,-93.1362 370.217,-95.9429 363.9808,-87.3778 360.0007,-93.1362"/>
<text text-anchor="middle" x="346" y="-63" font-family="Helvetica,sans-Serif" font-size="10.00" fill="#000000"> rShift</text>
<text text-anchor="middle" x="346" y="-52" font-family="Helvetica,sans-Serif" font-size="10.00" fill="#000000">noShift</text>
<text text-anchor="middle" x="346" y="-41" font-family="Helvetica,sans-Serif" font-size="10.00" fill="#000000">dShift</text>
</g>
</g>
</svg>
