<?xml version="1.0" encoding="UTF-8" standalone="no"?>
<!DOCTYPE svg PUBLIC "-//W3C//DTD SVG 1.1//EN"
 "http://www.w3.org/Graphics/SVG/1.1/DTD/svg11.dtd">
<!-- Generated by graphviz version 2.38.0 (20140413.2041)
 -->
<!-- Title: RQMCSampler Pages: 1 -->
<svg width="316pt" height="229pt"
 viewBox="0.00 0.00 315.50 229.00" xmlns="http://www.w3.org/2000/svg" xmlns:xlink="http://www.w3.org/1999/xlink">
<g id="graph0" class="graph" transform="scale(1 1) rotate(0) translate(4 225)">
<title>RQMCSampler</title>
<!-- Node3 -->
<g id="node1" class="node"><title>Node3</title>
<polygon fill="#bfbfbf" stroke="black" points="64,-0.5 64,-19.5 147,-19.5 147,-0.5 64,-0.5"/>
<text text-anchor="middle" x="105.5" y="-7.5" font-family="Helvetica,sans-Serif" font-size="10.00">RQMCSampler</text>
</g>
<!-- Node4 -->
<g id="node2" class="node"><title>Node4</title>
<g id="a_node2"><a xlink:href="interfaceumontreal_1_1ssj_1_1mcqmctools_1_1anova_1_1RandomSampler.html" target="_top" xlink:title="RandomSampler">
<polygon fill="none" stroke="black" points="0,-67.5 0,-86.5 89,-86.5 89,-67.5 0,-67.5"/>
<text text-anchor="middle" x="44.5" y="-74.5" font-family="Helvetica,sans-Serif" font-size="10.00">RandomSampler</text>
</a>
</g>
</g>
<!-- Node4&#45;&gt;Node3 -->
<g id="edge1" class="edge"><title>Node4&#45;&gt;Node3</title>
<path fill="none" stroke="midnightblue" d="M59.8581,-59.6348C71.7879,-46.9228 87.859,-29.7978 97.4036,-19.6273"/>
<polygon fill="midnightblue" stroke="midnightblue" points="57.0177,-57.5468 52.7267,-67.2338 62.1221,-62.337 57.0177,-57.5468"/>
</g>
<!-- Node5 -->
<g id="node3" class="node"><title>Node5</title>
<g id="a_node3"><a xlink:href="interfaceumontreal_1_1ssj_1_1mcqmctools_1_1anova_1_1Sampler.html" target="_top" xlink:title="Sampler">
<polygon fill="none" stroke="black" points="18,-134.5 18,-153.5 71,-153.5 71,-134.5 18,-134.5"/>
<text text-anchor="middle" x="44.5" y="-141.5" font-family="Helvetica,sans-Serif" font-size="10.00">Sampler</text>
</a>
</g>
</g>
<!-- Node5&#45;&gt;Node4 -->
<g id="edge2" class="edge"><title>Node5&#45;&gt;Node4</title>
<path fill="none" stroke="midnightblue" d="M44.5,-124.037C44.5,-111.67 44.5,-96.1198 44.5,-86.6273"/>
<polygon fill="midnightblue" stroke="midnightblue" points="41.0001,-124.234 44.5,-134.234 48.0001,-124.234 41.0001,-124.234"/>
</g>
<!-- Node6 -->
<g id="node4" class="node"><title>Node6</title>
<g id="a_node4"><a xlink:href="classumontreal_1_1ssj_1_1hups_1_1RQMCPointSet.html" target="_top" xlink:title="This class is used for randomized quasi&#45;Monte Carlo (RQMC) simulations , , ,  . ">
<polygon fill="none" stroke="black" points="107,-67.5 107,-86.5 192,-86.5 192,-67.5 107,-67.5"/>
<text text-anchor="middle" x="149.5" y="-74.5" font-family="Helvetica,sans-Serif" font-size="10.00">RQMCPointSet</text>
</a>
</g>
</g>
<!-- Node6&#45;&gt;Node3 -->
<g id="edge3" class="edge"><title>Node6&#45;&gt;Node3</title>
<path fill="none" stroke="#9a32cd" stroke-dasharray="5,2" d="M137.927,-58.9037C129.377,-46.2729 118.094,-29.6041 111.34,-19.6273"/>
<polygon fill="#9a32cd" stroke="#9a32cd" points="135.062,-60.9147 143.566,-67.2338 140.859,-56.9907 135.062,-60.9147"/>
<text text-anchor="middle" x="144.5" y="-41" font-family="Helvetica,sans-Serif" font-size="10.00"> points</text>
</g>
<!-- Node7 -->
<g id="node5" class="node"><title>Node7</title>
<g id="a_node5"><a xlink:href="interfaceumontreal_1_1ssj_1_1hups_1_1PointSetRandomization.html" target="_top" xlink:title="This interface is used to randomize a umontreal.ssj.hups.PointSet. ">
<polygon fill="none" stroke="black" points="89,-134.5 89,-153.5 208,-153.5 208,-134.5 89,-134.5"/>
<text text-anchor="middle" x="148.5" y="-141.5" font-family="Helvetica,sans-Serif" font-size="10.00">PointSetRandomization</text>
</a>
</g>
</g>
<!-- Node7&#45;&gt;Node6 -->
<g id="edge4" class="edge"><title>Node7&#45;&gt;Node6</title>
<path fill="none" stroke="#9a32cd" stroke-dasharray="5,2" d="M148.792,-124.037C148.982,-111.67 149.221,-96.1198 149.367,-86.6273"/>
<polygon fill="#9a32cd" stroke="#9a32cd" points="145.289,-124.181 148.635,-134.234 152.288,-124.289 145.289,-124.181"/>
<text text-anchor="middle" x="159.5" y="-108" font-family="Helvetica,sans-Serif" font-size="10.00"> rand</text>
</g>
<!-- Node8 -->
<g id="node6" class="node"><title>Node8</title>
<g id="a_node6"><a xlink:href="classumontreal_1_1ssj_1_1hups_1_1PointSet.html" target="_top" xlink:title="This abstract class defines the basic methods for accessing and manipulating point sets...">
<polygon fill="none" stroke="black" points="226.5,-134.5 226.5,-153.5 280.5,-153.5 280.5,-134.5 226.5,-134.5"/>
<text text-anchor="middle" x="253.5" y="-141.5" font-family="Helvetica,sans-Serif" font-size="10.00">PointSet</text>
</a>
</g>
</g>
<!-- Node8&#45;&gt;Node6 -->
<g id="edge5" class="edge"><title>Node8&#45;&gt;Node6</title>
<path fill="none" stroke="#9a32cd" stroke-dasharray="5,2" d="M230.73,-128.769C210.144,-115.903 180.506,-97.379 163.304,-86.6273"/>
<polygon fill="#9a32cd" stroke="#9a32cd" points="229.139,-131.902 239.474,-134.234 232.849,-125.966 229.139,-131.902"/>
<text text-anchor="middle" x="216" y="-108" font-family="Helvetica,sans-Serif" font-size="10.00"> set</text>
</g>
<!-- Node9 -->
<g id="node7" class="node"><title>Node9</title>
<g id="a_node7"><a xlink:href="interfaceumontreal_1_1ssj_1_1rng_1_1RandomStream.html" target="_top" xlink:title="This interface defines the basic structures to handle multiple streams of uniform (pseudo)random numb...">
<polygon fill="none" stroke="black" points="211,-201.5 211,-220.5 296,-220.5 296,-201.5 211,-201.5"/>
<text text-anchor="middle" x="253.5" y="-208.5" font-family="Helvetica,sans-Serif" font-size="10.00">RandomStream</text>
</a>
</g>
</g>
<!-- Node9&#45;&gt;Node8 -->
<g id="edge6" class="edge"><title>Node9&#45;&gt;Node8</title>
<path fill="none" stroke="#9a32cd" stroke-dasharray="5,2" d="M253.5,-191.037C253.5,-178.67 253.5,-163.12 253.5,-153.627"/>
<polygon fill="#9a32cd" stroke="#9a32cd" points="250,-191.234 253.5,-201.234 257,-191.234 250,-191.234"/>
<text text-anchor="middle" x="280.5" y="-175" font-family="Helvetica,sans-Serif" font-size="10.00"> shiftStream</text>
</g>
</g>
</svg>
