<?xml version="1.0" encoding="UTF-8" standalone="no"?>
<!DOCTYPE svg PUBLIC "-//W3C//DTD SVG 1.1//EN"
 "http://www.w3.org/Graphics/SVG/1.1/DTD/svg11.dtd">
<!-- Generated by graphviz version 2.38.0 (20140413.2041)
 -->
<!-- Title: BankEv Pages: 1 -->
<!--zoomable 364 -->
<svg id="main" version="1.1" xmlns="http://www.w3.org/2000/svg" xmlns:xlink="http://www.w3.org/1999/xlink" xml:space="preserve" onload="init(evt)">
<style type="text/css"><![CDATA[
.edge:hover path { stroke: red; }
.edge:hover polygon { stroke: red; fill: red; }
]]></style>
<script type="text/javascript"><![CDATA[
var edges = document.getElementsByTagName('g');
if (edges && edges.length) {
  for (var i=0;i<edges.length;i++) {
    if (edges[i].id.substr(0,4)=='edge') {
      edges[i].setAttribute('class','edge');
    }
  }
}
]]></script>
        <defs>
                <circle id="rim" cx="0" cy="0" r="7"/>
                <circle id="rim2" cx="0" cy="0" r="3.5"/>
                <g id="zoomPlus">
                        <use xlink:href="#rim" fill="#404040">
                                <set attributeName="fill" to="#808080" begin="zoomplus.mouseover" end="zoomplus.mouseout"/>
                        </use>
                        <path d="M-4,0h8M0,-4v8" fill="none" stroke="white" stroke-width="1.5" pointer-events="none"/>
                </g>
                <g id="zoomMin">
                        <use xlink:href="#rim" fill="#404040">
                                <set attributeName="fill" to="#808080" begin="zoomminus.mouseover" end="zoomminus.mouseout"/>
                        </use>
                        <path d="M-4,0h8" fill="none" stroke="white" stroke-width="1.5" pointer-events="none"/>
                </g>
                <g id="dirArrow">
                        <path fill="none" stroke="white" stroke-width="1.5" d="M0,-3.0v7 M-2.5,-0.5L0,-3.0L2.5,-0.5"/>
                </g>
               <g id="resetDef">
                       <use xlink:href="#rim2" fill="#404040">
                               <set attributeName="fill" to="#808080" begin="reset.mouseover" end="reset.mouseout"/>
                       </use>
               </g>
        </defs>

<script type="text/javascript">
var viewWidth = 752;
var viewHeight = 364;
var sectionId = 'dynsection-0';
</script>
<script xlink:href="svgpan.js"/>
<svg id="graph" class="graph">
<g id="viewport">
<title>BankEv</title>
<!-- Node1 -->
<g id="node1" class="node"><title>Node1</title>
<polygon fill="#bfbfbf" stroke="black" points="208.5,-0.5 208.5,-19.5 259.5,-19.5 259.5,-0.5 208.5,-0.5"/>
<text text-anchor="middle" x="234" y="-7.5" font-family="Helvetica,sans-Serif" font-size="10.00">BankEv</text>
</g>
<!-- Node2 -->
<g id="node2" class="node"><title>Node2</title>
<g id="a_node2"><a xlink:href="classumontreal_1_1ssj_1_1randvar_1_1ErlangGen.html" target="_top" xlink:title="This class implements random variate generators for the Erlang distribution with parameters &#160;and ...">
<polygon fill="none" stroke="black" points="36,-122.5 36,-141.5 98,-141.5 98,-122.5 36,-122.5"/>
<text text-anchor="middle" x="67" y="-129.5" font-family="Helvetica,sans-Serif" font-size="10.00">ErlangGen</text>
</a>
</g>
</g>
<!-- Node2&#45;&gt;Node1 -->
<g id="edge1" class="edge"><title>Node2&#45;&gt;Node1</title>
<path fill="none" stroke="#9a32cd" stroke-dasharray="5,2" d="M62.871,-112.601C59.363,-91.707 57.4621,-57.9387 76,-38 93.5274,-19.1482 168.235,-13.4429 208.326,-11.7283"/>
<polygon fill="#9a32cd" stroke="#9a32cd" points="59.4465,-113.326 64.8088,-122.464 66.3152,-111.977 59.4465,-113.326"/>
<text text-anchor="middle" x="96" y="-68.5" font-family="Helvetica,sans-Serif" font-size="10.00"> genServ</text>
</g>
<!-- Node3 -->
<g id="node3" class="node"><title>Node3</title>
<g id="a_node3"><a xlink:href="classumontreal_1_1ssj_1_1randvar_1_1GammaGen.html" target="_top" xlink:title="This class implements random variate generators for the gamma distribution. ">
<polygon fill="none" stroke="black" points="20.5,-196 20.5,-215 89.5,-215 89.5,-196 20.5,-196"/>
<text text-anchor="middle" x="55" y="-203" font-family="Helvetica,sans-Serif" font-size="10.00">GammaGen</text>
</a>
</g>
</g>
<!-- Node3&#45;&gt;Node2 -->
<g id="edge2" class="edge"><title>Node3&#45;&gt;Node2</title>
<path fill="none" stroke="midnightblue" d="M58.1731,-185.594C60.5497,-171.433 63.6934,-152.702 65.5165,-141.839"/>
<polygon fill="midnightblue" stroke="midnightblue" points="54.675,-185.291 56.4714,-195.733 61.5784,-186.45 54.675,-185.291"/>
</g>
<!-- Node4 -->
<g id="node4" class="node"><title>Node4</title>
<g id="a_node4"><a xlink:href="classumontreal_1_1ssj_1_1randvar_1_1RandomVariateGen.html" target="_top" xlink:title="This is the base class for all random variate generators over the real line. ">
<polygon fill="none" stroke="black" points="0,-269.5 0,-288.5 102,-288.5 102,-269.5 0,-269.5"/>
<text text-anchor="middle" x="51" y="-276.5" font-family="Helvetica,sans-Serif" font-size="10.00">RandomVariateGen</text>
</a>
</g>
</g>
<!-- Node4&#45;&gt;Node3 -->
<g id="edge3" class="edge"><title>Node4&#45;&gt;Node3</title>
<path fill="none" stroke="midnightblue" d="M52.0577,-259.094C52.8499,-244.933 53.8978,-226.202 54.5055,-215.339"/>
<polygon fill="midnightblue" stroke="midnightblue" points="48.5546,-259.053 51.4905,-269.233 55.5437,-259.444 48.5546,-259.053"/>
</g>
<!-- Node5 -->
<g id="node5" class="node"><title>Node5</title>
<g id="a_node5"><a xlink:href="interfaceumontreal_1_1ssj_1_1probdist_1_1Distribution.html" target="_top" xlink:title="This interface should be implemented by all classes supporting discrete and continuous distributions...">
<polygon fill="none" stroke="black" points="3,-336.5 3,-355.5 69,-355.5 69,-336.5 3,-336.5"/>
<text text-anchor="middle" x="36" y="-343.5" font-family="Helvetica,sans-Serif" font-size="10.00">Distribution</text>
</a>
</g>
</g>
<!-- Node5&#45;&gt;Node4 -->
<g id="edge4" class="edge"><title>Node5&#45;&gt;Node4</title>
<path fill="none" stroke="#9a32cd" stroke-dasharray="5,2" d="M36.2165,-326.288C36.6207,-320.077 37.4334,-313.174 39,-307 40.6149,-300.636 43.6149,-293.886 46.2112,-288.727"/>
<polygon fill="#9a32cd" stroke="#9a32cd" points="32.7141,-326.296 35.8555,-336.414 39.7097,-326.545 32.7141,-326.296"/>
<text text-anchor="middle" x="48.5" y="-310" font-family="Helvetica,sans-Serif" font-size="10.00"> dist</text>
</g>
<!-- Node6 -->
<g id="node6" class="node"><title>Node6</title>
<g id="a_node6"><a xlink:href="interfaceumontreal_1_1ssj_1_1rng_1_1RandomStream.html" target="_top" xlink:title="This interface defines the basic structures to handle multiple streams of uniform (pseudo)random numb...">
<polygon fill="none" stroke="black" points="87.5,-336.5 87.5,-355.5 172.5,-355.5 172.5,-336.5 87.5,-336.5"/>
<text text-anchor="middle" x="130" y="-343.5" font-family="Helvetica,sans-Serif" font-size="10.00">RandomStream</text>
</a>
</g>
</g>
<!-- Node6&#45;&gt;Node1 -->
<g id="edge20" class="edge"><title>Node6&#45;&gt;Node1</title>
<path fill="none" stroke="#9a32cd" stroke-dasharray="5,2" d="M130,-326.134C130,-313.161 130,-295.536 130,-280 130,-280 130,-280 130,-131 130,-77.7925 189.111,-36.607 218.205,-19.5583"/>
<polygon fill="#9a32cd" stroke="#9a32cd" points="126.5,-326.169 130,-336.169 133.5,-326.169 126.5,-326.169"/>
<text text-anchor="middle" x="157.5" y="-214" font-family="Helvetica,sans-Serif" font-size="10.00"> streamArr</text>
<text text-anchor="middle" x="157.5" y="-203" font-family="Helvetica,sans-Serif" font-size="10.00">streamTeller</text>
<text text-anchor="middle" x="157.5" y="-192" font-family="Helvetica,sans-Serif" font-size="10.00">streamBalk</text>
</g>
<!-- Node6&#45;&gt;Node4 -->
<g id="edge5" class="edge"><title>Node6&#45;&gt;Node4</title>
<path fill="none" stroke="#9a32cd" stroke-dasharray="5,2" d="M102.059,-331.603C95.1665,-327.688 88.0359,-323.078 82,-318 71.7064,-309.34 62.3104,-296.894 56.6251,-288.635"/>
<polygon fill="#9a32cd" stroke="#9a32cd" points="100.718,-334.855 111.186,-336.49 104.023,-328.684 100.718,-334.855"/>
<text text-anchor="middle" x="99" y="-310" font-family="Helvetica,sans-Serif" font-size="10.00"> stream</text>
</g>
<!-- Node7 -->
<g id="node7" class="node"><title>Node7</title>
<g id="a_node7"><a xlink:href="classumontreal_1_1ssj_1_1stat_1_1Tally.html" target="_top" xlink:title="A subclass of StatProbe. ">
<polygon fill="none" stroke="black" points="288,-122.5 288,-141.5 326,-141.5 326,-122.5 288,-122.5"/>
<text text-anchor="middle" x="307" y="-129.5" font-family="Helvetica,sans-Serif" font-size="10.00">Tally</text>
</a>
</g>
</g>
<!-- Node7&#45;&gt;Node1 -->
<g id="edge6" class="edge"><title>Node7&#45;&gt;Node1</title>
<path fill="none" stroke="#9a32cd" stroke-dasharray="5,2" d="M299.759,-112.863C291.576,-93.4373 277.139,-62.148 260,-38 255.254,-31.3135 248.882,-24.6683 243.633,-19.6435"/>
<polygon fill="#9a32cd" stroke="#9a32cd" points="296.603,-114.392 303.639,-122.314 303.079,-111.734 296.603,-114.392"/>
<text text-anchor="middle" x="320" y="-74" font-family="Helvetica,sans-Serif" font-size="10.00"> avWait</text>
<text text-anchor="middle" x="320" y="-63" font-family="Helvetica,sans-Serif" font-size="10.00">statServed</text>
</g>
<!-- Node8 -->
<g id="node8" class="node"><title>Node8</title>
<g id="a_node8"><a xlink:href="classumontreal_1_1ssj_1_1stat_1_1StatProbe.html" target="_top" xlink:title="The objects of this class are statistical probes or collectors, which are elementary devices for coll...">
<polygon fill="none" stroke="black" points="203,-196 203,-215 263,-215 263,-196 203,-196"/>
<text text-anchor="middle" x="233" y="-203" font-family="Helvetica,sans-Serif" font-size="10.00">StatProbe</text>
</a>
</g>
</g>
<!-- Node8&#45;&gt;Node7 -->
<g id="edge7" class="edge"><title>Node8&#45;&gt;Node7</title>
<path fill="none" stroke="midnightblue" d="M249.593,-188.468C264.497,-174.067 285.83,-153.455 297.852,-141.839"/>
<polygon fill="midnightblue" stroke="midnightblue" points="246.833,-186.267 242.074,-195.733 251.697,-191.301 246.833,-186.267"/>
</g>
<!-- Node17 -->
<g id="node17" class="node"><title>Node17</title>
<g id="a_node17"><a xlink:href="classumontreal_1_1ssj_1_1simevents_1_1Accumulate.html" target="_top" xlink:title="A subclass of umontreal.ssj.stat.StatProbe, for collecting statistics on a variable that evolves in s...">
<polygon fill="none" stroke="black" points="200,-122.5 200,-141.5 268,-141.5 268,-122.5 200,-122.5"/>
<text text-anchor="middle" x="234" y="-129.5" font-family="Helvetica,sans-Serif" font-size="10.00">Accumulate</text>
</a>
</g>
</g>
<!-- Node8&#45;&gt;Node17 -->
<g id="edge18" class="edge"><title>Node8&#45;&gt;Node17</title>
<path fill="none" stroke="midnightblue" d="M233.264,-185.594C233.462,-171.433 233.724,-152.702 233.876,-141.839"/>
<polygon fill="midnightblue" stroke="midnightblue" points="229.763,-185.685 233.123,-195.733 236.762,-185.783 229.763,-185.685"/>
</g>
<!-- Node9 -->
<g id="node9" class="node"><title>Node9</title>
<polygon fill="none" stroke="#bfbfbf" points="281,-196 281,-215 341,-215 341,-196 281,-196"/>
<text text-anchor="middle" x="311" y="-203" font-family="Helvetica,sans-Serif" font-size="10.00">Cloneable</text>
</g>
<!-- Node9&#45;&gt;Node7 -->
<g id="edge8" class="edge"><title>Node9&#45;&gt;Node7</title>
<path fill="none" stroke="midnightblue" d="M309.942,-185.594C309.15,-171.433 308.102,-152.702 307.494,-141.839"/>
<polygon fill="midnightblue" stroke="midnightblue" points="306.456,-185.944 310.51,-195.733 313.445,-185.553 306.456,-185.944"/>
</g>
<!-- Node9&#45;&gt;Node17 -->
<g id="edge19" class="edge"><title>Node9&#45;&gt;Node17</title>
<path fill="none" stroke="midnightblue" d="M294.164,-188.866C278.638,-174.45 256.144,-153.562 243.519,-141.839"/>
<polygon fill="midnightblue" stroke="midnightblue" points="291.849,-191.493 301.558,-195.733 296.612,-186.363 291.849,-191.493"/>
</g>
<!-- Node10 -->
<g id="node10" class="node"><title>Node10</title>
<polygon fill="none" stroke="#bfbfbf" points="359.5,-196 359.5,-215 432.5,-215 432.5,-196 359.5,-196"/>
<text text-anchor="middle" x="396" y="-203" font-family="Helvetica,sans-Serif" font-size="10.00">Tally.CIType</text>
</g>
<!-- Node10&#45;&gt;Node7 -->
<g id="edge9" class="edge"><title>Node10&#45;&gt;Node7</title>
<path fill="none" stroke="#9a32cd" stroke-dasharray="5,2" d="M376.984,-189.223C358.912,-174.705 332.382,-153.391 317.724,-141.616"/>
<polygon fill="#9a32cd" stroke="#9a32cd" points="375.099,-192.198 385.087,-195.733 379.483,-186.741 375.099,-192.198"/>
<text text-anchor="middle" x="396.5" y="-163" font-family="Helvetica,sans-Serif" font-size="10.00"> confidenceInterval</text>
</g>
<!-- Node11 -->
<g id="node11" class="node"><title>Node11</title>
<g id="a_node11"><a xlink:href="classumontreal_1_1ssj_1_1simevents_1_1Event.html" target="_top" xlink:title="This abstract class provides event scheduling tools. ">
<polygon fill="none" stroke="black" points="475,-122.5 475,-141.5 517,-141.5 517,-122.5 475,-122.5"/>
<text text-anchor="middle" x="496" y="-129.5" font-family="Helvetica,sans-Serif" font-size="10.00">Event</text>
</a>
</g>
</g>
<!-- Node11&#45;&gt;Node1 -->
<g id="edge10" class="edge"><title>Node11&#45;&gt;Node1</title>
<path fill="none" stroke="#9a32cd" stroke-dasharray="5,2" d="M476.979,-116.136C449.847,-95.6373 397.789,-58.8623 348,-38 318.924,-25.8165 283.265,-18.4885 259.655,-14.6026"/>
<polygon fill="#9a32cd" stroke="#9a32cd" points="475.117,-119.119 485.185,-122.418 479.372,-113.56 475.117,-119.119"/>
<text text-anchor="middle" x="479" y="-96" font-family="Helvetica,sans-Serif" font-size="10.00"> e14h</text>
<text text-anchor="middle" x="479" y="-85" font-family="Helvetica,sans-Serif" font-size="10.00">e11h</text>
<text text-anchor="middle" x="479" y="-74" font-family="Helvetica,sans-Serif" font-size="10.00">e10h</text>
<text text-anchor="middle" x="479" y="-63" font-family="Helvetica,sans-Serif" font-size="10.00">nextArriv</text>
<text text-anchor="middle" x="479" y="-52" font-family="Helvetica,sans-Serif" font-size="10.00">e9h45</text>
<text text-anchor="middle" x="479" y="-41" font-family="Helvetica,sans-Serif" font-size="10.00">e15h</text>
</g>
<!-- Node12 -->
<g id="node12" class="node"><title>Node12</title>
<polygon fill="none" stroke="#bfbfbf" points="630.5,-196 630.5,-215 743.5,-215 743.5,-196 630.5,-196"/>
<text text-anchor="middle" x="687" y="-203" font-family="Helvetica,sans-Serif" font-size="10.00">Comparable&lt; Event &gt;</text>
</g>
<!-- Node12&#45;&gt;Node11 -->
<g id="edge11" class="edge"><title>Node12&#45;&gt;Node11</title>
<path fill="none" stroke="midnightblue" d="M654.57,-192.36C615.317,-177.666 550.35,-153.346 517.072,-140.888"/>
<polygon fill="midnightblue" stroke="midnightblue" points="653.369,-195.647 663.961,-195.875 655.823,-189.092 653.369,-195.647"/>
</g>
<!-- Node13 -->
<g id="node13" class="node"><title>Node13</title>
<g id="a_node13"><a xlink:href="classumontreal_1_1ssj_1_1simevents_1_1Simulator.html" target="_top" xlink:title="Represents the executive of a discrete&#45;event simulator. ">
<polygon fill="none" stroke="black" points="462,-196 462,-215 520,-215 520,-196 462,-196"/>
<text text-anchor="middle" x="491" y="-203" font-family="Helvetica,sans-Serif" font-size="10.00">Simulator</text>
</a>
</g>
</g>
<!-- Node13&#45;&gt;Node11 -->
<g id="edge12" class="edge"><title>Node13&#45;&gt;Node11</title>
<path fill="none" stroke="#9a32cd" stroke-dasharray="5,2" d="M492.322,-185.594C493.312,-171.433 494.622,-152.702 495.382,-141.839"/>
<polygon fill="#9a32cd" stroke="#9a32cd" points="488.819,-185.513 491.613,-195.733 495.802,-186.001 488.819,-185.513"/>
<text text-anchor="middle" x="504.5" y="-163" font-family="Helvetica,sans-Serif" font-size="10.00"> sim</text>
</g>
<!-- Node13&#45;&gt;Node13 -->
<g id="edge13" class="edge"><title>Node13&#45;&gt;Node13</title>
<path fill="none" stroke="#9a32cd" stroke-dasharray="5,2" d="M530.603,-211.856C535.091,-210.665 538,-208.547 538,-205.5 538,-200.5 530.167,-198 520.375,-198"/>
<polygon fill="#9a32cd" stroke="#9a32cd" points="529.924,-208.41 520.375,-213 530.702,-215.366 529.924,-208.41"/>
<text text-anchor="middle" x="575" y="-203" font-family="Helvetica,sans-Serif" font-size="10.00"> defaultSimulator</text>
</g>
<!-- Node14 -->
<g id="node14" class="node"><title>Node14</title>
<g id="a_node14"><a xlink:href="interfaceumontreal_1_1ssj_1_1simevents_1_1eventlist_1_1EventList.html" target="_top" xlink:title="An interface for implementations of event lists. ">
<polygon fill="none" stroke="black" points="409,-269.5 409,-288.5 467,-288.5 467,-269.5 409,-269.5"/>
<text text-anchor="middle" x="438" y="-276.5" font-family="Helvetica,sans-Serif" font-size="10.00">EventList</text>
</a>
</g>
</g>
<!-- Node14&#45;&gt;Node13 -->
<g id="edge14" class="edge"><title>Node14&#45;&gt;Node13</title>
<path fill="none" stroke="#9a32cd" stroke-dasharray="5,2" d="M448.859,-260.59C453.109,-254.023 458.127,-246.558 463,-240 469.51,-231.239 477.556,-221.734 483.35,-215.095"/>
<polygon fill="#9a32cd" stroke="#9a32cd" points="445.697,-259.041 443.289,-269.358 451.605,-262.794 445.697,-259.041"/>
<text text-anchor="middle" x="484.5" y="-243" font-family="Helvetica,sans-Serif" font-size="10.00"> eventList</text>
</g>
<!-- Node15 -->
<g id="node15" class="node"><title>Node15</title>
<polygon fill="none" stroke="#bfbfbf" points="392,-336.5 392,-355.5 484,-355.5 484,-336.5 392,-336.5"/>
<text text-anchor="middle" x="438" y="-343.5" font-family="Helvetica,sans-Serif" font-size="10.00">Iterable&lt; Event &gt;</text>
</g>
<!-- Node15&#45;&gt;Node14 -->
<g id="edge15" class="edge"><title>Node15&#45;&gt;Node14</title>
<path fill="none" stroke="midnightblue" d="M438,-326.037C438,-313.67 438,-298.12 438,-288.627"/>
<polygon fill="midnightblue" stroke="midnightblue" points="434.5,-326.234 438,-336.234 441.5,-326.234 434.5,-326.234"/>
</g>
<!-- Node16 -->
<g id="node16" class="node"><title>Node16</title>
<g id="a_node16"><a xlink:href="classumontreal_1_1ssj_1_1simevents_1_1ContinuousState.html" target="_top" xlink:title="Represents the portion of the simulator’s state associated with continuous&#45;time simulation. ">
<polygon fill="none" stroke="black" points="485.5,-269.5 485.5,-288.5 574.5,-288.5 574.5,-269.5 485.5,-269.5"/>
<text text-anchor="middle" x="530" y="-276.5" font-family="Helvetica,sans-Serif" font-size="10.00">ContinuousState</text>
</a>
</g>
</g>
<!-- Node16&#45;&gt;Node13 -->
<g id="edge16" class="edge"><title>Node16&#45;&gt;Node13</title>
<path fill="none" stroke="#9a32cd" stroke-dasharray="5,2" d="M520.369,-260.343C512.574,-246.053 501.922,-226.525 495.821,-215.339"/>
<polygon fill="#9a32cd" stroke="#9a32cd" points="517.357,-262.13 525.218,-269.233 523.502,-258.778 517.357,-262.13"/>
<text text-anchor="middle" x="553" y="-243" font-family="Helvetica,sans-Serif" font-size="10.00"> continuousState</text>
</g>
<!-- Node17&#45;&gt;Node1 -->
<g id="edge17" class="edge"><title>Node17&#45;&gt;Node1</title>
<path fill="none" stroke="#9a32cd" stroke-dasharray="5,2" d="M234,-112.145C234,-85.7231 234,-38.7637 234,-19.5519"/>
<polygon fill="#9a32cd" stroke="#9a32cd" points="230.5,-112.37 234,-122.37 237.5,-112.37 230.5,-112.37"/>
<text text-anchor="middle" x="245" y="-68.5" font-family="Helvetica,sans-Serif" font-size="10.00"> wait</text>
</g>
</g>
</svg>
        <g id="navigator" transform="translate(0 0)" fill="#404254">
                <rect fill="#f2f5e9" fill-opacity="0.5" stroke="#606060" stroke-width=".5" x="0" y="0" width="60" height="60"/>
                <use id="zoomplus" xlink:href="#zoomPlus" x="17" y="9" onmousedown="handleZoom(evt,'in')"/>
                <use id="zoomminus" xlink:href="#zoomMin" x="42" y="9" onmousedown="handleZoom(evt,'out')"/>
                <use id="reset" xlink:href="#resetDef" x="30" y="36" onmousedown="handleReset()"/>
                <g id="arrowUp" xlink:href="#dirArrow" transform="translate(30 24)" onmousedown="handlePan(0,-1)">
                  <use xlink:href="#rim" fill="#404040">
                        <set attributeName="fill" to="#808080" begin="arrowUp.mouseover" end="arrowUp.mouseout"/>
                  </use>
                  <path fill="none" stroke="white" stroke-width="1.5" d="M0,-3.0v7 M-2.5,-0.5L0,-3.0L2.5,-0.5"/>
                </g>
                <g id="arrowRight" xlink:href="#dirArrow" transform="rotate(90) translate(36 -43)" onmousedown="handlePan(1,0)">
                  <use xlink:href="#rim" fill="#404040">
                        <set attributeName="fill" to="#808080" begin="arrowRight.mouseover" end="arrowRight.mouseout"/>
                  </use>
                  <path fill="none" stroke="white" stroke-width="1.5" d="M0,-3.0v7 M-2.5,-0.5L0,-3.0L2.5,-0.5"/>
                </g>
                <g id="arrowDown" xlink:href="#dirArrow" transform="rotate(180) translate(-30 -48)" onmousedown="handlePan(0,1)">
                  <use xlink:href="#rim" fill="#404040">
                        <set attributeName="fill" to="#808080" begin="arrowDown.mouseover" end="arrowDown.mouseout"/>
                  </use>
                  <path fill="none" stroke="white" stroke-width="1.5" d="M0,-3.0v7 M-2.5,-0.5L0,-3.0L2.5,-0.5"/>
                </g>
                <g id="arrowLeft" xlink:href="#dirArrow" transform="rotate(270) translate(-36 17)" onmousedown="handlePan(-1,0)">
                  <use xlink:href="#rim" fill="#404040">
                        <set attributeName="fill" to="#808080" begin="arrowLeft.mouseover" end="arrowLeft.mouseout"/>
                  </use>
                  <path fill="none" stroke="white" stroke-width="1.5" d="M0,-3.0v7 M-2.5,-0.5L0,-3.0L2.5,-0.5"/>
                </g>
        </g>
        <svg viewBox="0 0 15 15" width="100%" height="30px" preserveAspectRatio="xMaxYMin meet">
         <g id="arrow_out" transform="scale(0.3 0.3)">
          <a xlink:href="classtutorial_1_1BankEv__coll__graph_org.svg" target="_base">
           <rect id="button" ry="5" rx="5" y="6" x="6" height="38" width="38"
                fill="#f2f5e9" fill-opacity="0.5" stroke="#606060" stroke-width="1.0"/>
           <path id="arrow"
             d="M 11.500037,31.436501 C 11.940474,20.09759 22.043105,11.32322 32.158766,21.979434 L 37.068811,17.246167 C 37.068811,17.246167 37.088388,32 37.088388,32 L 22.160133,31.978069 C 22.160133,31.978069 26.997745,27.140456 26.997745,27.140456 C 18.528582,18.264221 13.291696,25.230495 11.500037,31.436501 z"
             style="fill:#404040;"/>
          </a>
         </g>
        </svg>
</svg>
