<?xml version="1.0" encoding="UTF-8" standalone="no"?>
<!DOCTYPE svg PUBLIC "-//W3C//DTD SVG 1.1//EN"
 "http://www.w3.org/Graphics/SVG/1.1/DTD/svg11.dtd">
<!-- Generated by graphviz version 2.40.1 (0)
 -->
<!-- Title: KernelDensityVarCorrectGen Pages: 1 -->
<svg width="178pt" height="219pt"
 viewBox="0.00 0.00 177.50 219.00" xmlns="http://www.w3.org/2000/svg" xmlns:xlink="http://www.w3.org/1999/xlink">
<g id="graph0" class="graph" transform="scale(1 1) rotate(0) translate(4 215)">
<title>KernelDensityVarCorrectGen</title>
<!-- Node3 -->
<g id="node1" class="node">
<title>Node3</title>
<g id="a_node1"><a xlink:title="This class is a variant of KernelDensityGen, but with a rescaling of the empirical distribution so th...">
<polygon fill="#bfbfbf" stroke="#000000" points="8.5,-.5 8.5,-19.5 151.5,-19.5 151.5,-.5 8.5,-.5"/>
<text text-anchor="middle" x="80" y="-7.5" font-family="Helvetica,sans-Serif" font-size="10.00" fill="#000000">KernelDensityVarCorrectGen</text>
</a>
</g>
</g>
<!-- Node4 -->
<g id="node2" class="node">
<title>Node4</title>
<g id="a_node2"><a xlink:href="classumontreal_1_1ssj_1_1randvar_1_1KernelDensityGen.html" target="_top" xlink:title="This class implements random variate generators for distributions obtained via kernel density estimat...">
<polygon fill="none" stroke="#000000" points="32,-57.5 32,-76.5 128,-76.5 128,-57.5 32,-57.5"/>
<text text-anchor="middle" x="80" y="-64.5" font-family="Helvetica,sans-Serif" font-size="10.00" fill="#000000">KernelDensityGen</text>
</a>
</g>
</g>
<!-- Node4&#45;&gt;Node3 -->
<g id="edge1" class="edge">
<title>Node4&#45;&gt;Node3</title>
<path fill="none" stroke="#191970" d="M80,-47.2342C80,-37.8491 80,-27.0651 80,-19.5265"/>
<polygon fill="#191970" stroke="#191970" points="76.5001,-47.3307 80,-57.3307 83.5001,-47.3308 76.5001,-47.3307"/>
</g>
<!-- Node5 -->
<g id="node3" class="node">
<title>Node5</title>
<g id="a_node3"><a xlink:href="classumontreal_1_1ssj_1_1randvar_1_1RandomVariateGen.html" target="_top" xlink:title="This is the base class for all random variate generators over the real line.">
<polygon fill="none" stroke="#000000" points="29.5,-124.5 29.5,-143.5 130.5,-143.5 130.5,-124.5 29.5,-124.5"/>
<text text-anchor="middle" x="80" y="-131.5" font-family="Helvetica,sans-Serif" font-size="10.00" fill="#000000">RandomVariateGen</text>
</a>
</g>
</g>
<!-- Node5&#45;&gt;Node4 -->
<g id="edge2" class="edge">
<title>Node5&#45;&gt;Node4</title>
<path fill="none" stroke="#191970" d="M78.3211,-114.265C77.9756,-108.0972 77.7765,-101.2673 78,-95 78.2189,-88.8633 78.7068,-81.9845 79.1459,-76.5806"/>
<polygon fill="#191970" stroke="#191970" points="74.8403,-114.661 79.0415,-124.3872 81.8227,-114.164 74.8403,-114.661"/>
</g>
<!-- Node5&#45;&gt;Node4 -->
<g id="edge5" class="edge">
<title>Node5&#45;&gt;Node4</title>
<path fill="none" stroke="#9a32cd" stroke-dasharray="5,2" d="M80,-114.1079C80,-101.714 80,-86.3263 80,-76.5817"/>
<polygon fill="#9a32cd" stroke="#9a32cd" points="76.5001,-114.4005 80,-124.4005 83.5001,-114.4006 76.5001,-114.4005"/>
<text text-anchor="middle" x="104" y="-98" font-family="Helvetica,sans-Serif" font-size="10.00" fill="#000000"> kernelGen</text>
</g>
<!-- Node6 -->
<g id="node4" class="node">
<title>Node6</title>
<g id="a_node4"><a xlink:href="interfaceumontreal_1_1ssj_1_1probdist_1_1Distribution.html" target="_top" xlink:title="This interface should be implemented by all classes supporting discrete and continuous distributions.">
<polygon fill="none" stroke="#000000" points="0,-191.5 0,-210.5 66,-210.5 66,-191.5 0,-191.5"/>
<text text-anchor="middle" x="33" y="-198.5" font-family="Helvetica,sans-Serif" font-size="10.00" fill="#000000">Distribution</text>
</a>
</g>
</g>
<!-- Node6&#45;&gt;Node5 -->
<g id="edge3" class="edge">
<title>Node6&#45;&gt;Node5</title>
<path fill="none" stroke="#9a32cd" stroke-dasharray="5,2" d="M45.6407,-182.9803C54.5366,-170.2989 66.094,-153.8235 73.2785,-143.5817"/>
<polygon fill="#9a32cd" stroke="#9a32cd" points="42.6115,-181.2039 39.734,-191.4005 48.3421,-185.2239 42.6115,-181.2039"/>
<text text-anchor="middle" x="69.5" y="-165" font-family="Helvetica,sans-Serif" font-size="10.00" fill="#000000"> dist</text>
</g>
<!-- Node7 -->
<g id="node5" class="node">
<title>Node7</title>
<g id="a_node5"><a xlink:href="interfaceumontreal_1_1ssj_1_1rng_1_1RandomStream.html" target="_top" xlink:title="This interface defines the basic structures to handle multiple streams of uniform (pseudo)random numb...">
<polygon fill="none" stroke="#000000" points="84.5,-191.5 84.5,-210.5 169.5,-210.5 169.5,-191.5 84.5,-191.5"/>
<text text-anchor="middle" x="127" y="-198.5" font-family="Helvetica,sans-Serif" font-size="10.00" fill="#000000">RandomStream</text>
</a>
</g>
</g>
<!-- Node7&#45;&gt;Node5 -->
<g id="edge4" class="edge">
<title>Node7&#45;&gt;Node5</title>
<path fill="none" stroke="#9a32cd" stroke-dasharray="5,2" d="M114.3593,-182.9803C105.4634,-170.2989 93.906,-153.8235 86.7215,-143.5817"/>
<polygon fill="#9a32cd" stroke="#9a32cd" points="111.6579,-185.2239 120.266,-191.4005 117.3885,-181.2039 111.6579,-185.2239"/>
<text text-anchor="middle" x="123" y="-165" font-family="Helvetica,sans-Serif" font-size="10.00" fill="#000000"> stream</text>
</g>
</g>
</svg>
