<?xml version="1.0" encoding="UTF-8" standalone="no"?>
<!DOCTYPE svg PUBLIC "-//W3C//DTD SVG 1.1//EN"
 "http://www.w3.org/Graphics/SVG/1.1/DTD/svg11.dtd">
<!-- Generated by graphviz version 2.40.1 (0)
 -->
<!-- Title: SSJXYSeriesCollection Pages: 1 -->
<svg width="423pt" height="140pt"
 viewBox="0.00 0.00 422.50 140.00" xmlns="http://www.w3.org/2000/svg" xmlns:xlink="http://www.w3.org/1999/xlink">
<g id="graph0" class="graph" transform="scale(1 1) rotate(0) translate(4 136)">
<title>SSJXYSeriesCollection</title>
<!-- Node0 -->
<g id="node1" class="node">
<title>Node0</title>
<g id="a_node1"><a xlink:title="Stores data used in a XYChart.">
<polygon fill="#bfbfbf" stroke="#000000" points="153.5,-112.5 153.5,-131.5 272.5,-131.5 272.5,-112.5 153.5,-112.5"/>
<text text-anchor="middle" x="213" y="-119.5" font-family="Helvetica,sans-Serif" font-size="10.00" fill="#000000">SSJXYSeriesCollection</text>
</a>
</g>
</g>
<!-- Node1 -->
<g id="node2" class="node">
<title>Node1</title>
<g id="a_node2"><a xlink:href="classumontreal_1_1ssj_1_1charts_1_1EmpiricalSeriesCollection.html" target="_top" xlink:title="Stores data used in a EmpiricalChart.">
<polygon fill="none" stroke="#000000" points="0,-56.5 0,-75.5 128,-75.5 128,-56.5 0,-56.5"/>
<text text-anchor="middle" x="64" y="-63.5" font-family="Helvetica,sans-Serif" font-size="10.00" fill="#000000">EmpiricalSeriesCollection</text>
</a>
</g>
</g>
<!-- Node0&#45;&gt;Node1 -->
<g id="edge1" class="edge">
<title>Node0&#45;&gt;Node1</title>
<path fill="none" stroke="#191970" d="M177.8488,-108.7888C150.6432,-98.5639 113.6191,-84.6488 89.2798,-75.5011"/>
<polygon fill="#191970" stroke="#191970" points="176.7939,-112.1313 187.386,-112.3733 179.2566,-105.5788 176.7939,-112.1313"/>
</g>
<!-- Node2 -->
<g id="node3" class="node">
<title>Node2</title>
<g id="a_node3"><a xlink:href="classumontreal_1_1ssj_1_1charts_1_1HistogramSeriesCollection.html" target="_top" xlink:title="Stores data used in a HistogramChart.">
<polygon fill="none" stroke="#000000" points="146.5,-56.5 146.5,-75.5 279.5,-75.5 279.5,-56.5 146.5,-56.5"/>
<text text-anchor="middle" x="213" y="-63.5" font-family="Helvetica,sans-Serif" font-size="10.00" fill="#000000">HistogramSeriesCollection</text>
</a>
</g>
</g>
<!-- Node0&#45;&gt;Node2 -->
<g id="edge2" class="edge">
<title>Node0&#45;&gt;Node2</title>
<path fill="none" stroke="#191970" d="M213,-102.1575C213,-93.155 213,-82.9199 213,-75.6427"/>
<polygon fill="#191970" stroke="#191970" points="209.5001,-102.2455 213,-112.2455 216.5001,-102.2456 209.5001,-102.2455"/>
</g>
<!-- Node3 -->
<g id="node4" class="node">
<title>Node3</title>
<g id="a_node4"><a xlink:href="classumontreal_1_1ssj_1_1charts_1_1XYListSeriesCollection.html" target="_top" xlink:title="This class extends umontreal.ssj.charts.SSJXYSeriesCollection.">
<polygon fill="none" stroke="#000000" points="297.5,-56.5 297.5,-75.5 414.5,-75.5 414.5,-56.5 297.5,-56.5"/>
<text text-anchor="middle" x="356" y="-63.5" font-family="Helvetica,sans-Serif" font-size="10.00" fill="#000000">XYListSeriesCollection</text>
</a>
</g>
</g>
<!-- Node0&#45;&gt;Node3 -->
<g id="edge3" class="edge">
<title>Node0&#45;&gt;Node3</title>
<path fill="none" stroke="#191970" d="M247.0798,-108.6541C273.1573,-98.4419 308.4815,-84.6086 331.7382,-75.5011"/>
<polygon fill="#191970" stroke="#191970" points="245.6178,-105.4677 237.5826,-112.3733 248.1703,-111.9858 245.6178,-105.4677"/>
</g>
<!-- Node4 -->
<g id="node5" class="node">
<title>Node4</title>
<g id="a_node5"><a xlink:href="classumontreal_1_1ssj_1_1charts_1_1YListSeriesCollection.html" target="_top" xlink:title="This class extends umontreal.ssj.charts.XYListSeriesCollection.">
<polygon fill="none" stroke="#000000" points="301,-.5 301,-19.5 411,-19.5 411,-.5 301,-.5"/>
<text text-anchor="middle" x="356" y="-7.5" font-family="Helvetica,sans-Serif" font-size="10.00" fill="#000000">YListSeriesCollection</text>
</a>
</g>
</g>
<!-- Node3&#45;&gt;Node4 -->
<g id="edge4" class="edge">
<title>Node3&#45;&gt;Node4</title>
<path fill="none" stroke="#191970" d="M356,-46.1575C356,-37.155 356,-26.9199 356,-19.6427"/>
<polygon fill="#191970" stroke="#191970" points="352.5001,-46.2455 356,-56.2455 359.5001,-46.2456 352.5001,-46.2455"/>
</g>
</g>
</svg>
