<?xml version="1.0" encoding="UTF-8" standalone="no"?>
<!DOCTYPE svg PUBLIC "-//W3C//DTD SVG 1.1//EN"
 "http://www.w3.org/Graphics/SVG/1.1/DTD/svg11.dtd">
<!-- Generated by graphviz version 2.40.1 (20161225.0304)
 -->
<!-- Title: Event Pages: 1 -->
<svg width="367pt" height="484pt"
 viewBox="0.00 0.00 367.00 484.00" xmlns="http://www.w3.org/2000/svg" xmlns:xlink="http://www.w3.org/1999/xlink">
<g id="graph0" class="graph" transform="scale(1 1) rotate(0) translate(4 480)">
<title>Event</title>
<!-- Node0 -->
<g id="node1" class="node">
<title>Node0</title>
<polygon fill="#bfbfbf" stroke="#000000" points="149,-228.5 149,-247.5 191,-247.5 191,-228.5 149,-228.5"/>
<text text-anchor="middle" x="170" y="-235.5" font-family="Helvetica,sans-Serif" font-size="10.00" fill="#000000">Event</text>
</g>
<!-- Node2 -->
<g id="node3" class="node">
<title>Node2</title>
<g id="a_node3"><a xlink:href="classtutorial_1_1BankEv_1_1Arrival.html" target="_top" xlink:title="BankEv.Arrival">
<polygon fill="none" stroke="#000000" points="252.5,-456.5 252.5,-475.5 333.5,-475.5 333.5,-456.5 252.5,-456.5"/>
<text text-anchor="middle" x="293" y="-463.5" font-family="Helvetica,sans-Serif" font-size="10.00" fill="#000000">BankEv.Arrival</text>
</a>
</g>
</g>
<!-- Node0&#45;&gt;Node2 -->
<g id="edge2" class="edge">
<title>Node0&#45;&gt;Node2</title>
<path fill="none" stroke="#191970" d="M172.8947,-257.8217C180.104,-304.5757 200.2261,-419.8473 227,-447 233.865,-453.9621 243.1036,-458.4135 252.4911,-461.2483"/>
<polygon fill="#191970" stroke="#191970" points="176.3271,-257.11 171.3783,-247.742 169.405,-258.1514 176.3271,-257.11"/>
</g>
<!-- Node3 -->
<g id="node4" class="node">
<title>Node3</title>
<g id="a_node4"><a xlink:href="classtutorial_1_1BankEv_1_1Departure.html" target="_top" xlink:title="BankEv.Departure">
<polygon fill="none" stroke="#000000" points="245,-418.5 245,-437.5 341,-437.5 341,-418.5 245,-418.5"/>
<text text-anchor="middle" x="293" y="-425.5" font-family="Helvetica,sans-Serif" font-size="10.00" fill="#000000">BankEv.Departure</text>
</a>
</g>
</g>
<!-- Node0&#45;&gt;Node3 -->
<g id="edge3" class="edge">
<title>Node0&#45;&gt;Node3</title>
<path fill="none" stroke="#191970" d="M174.0842,-257.3941C182.8966,-297.5023 204.7077,-387.6131 227,-409 232.0765,-413.8703 238.3187,-417.5049 244.9196,-420.2147"/>
<polygon fill="#191970" stroke="#191970" points="177.4815,-256.5445 171.9537,-247.5061 170.6386,-258.019 177.4815,-256.5445"/>
</g>
<!-- Node4 -->
<g id="node5" class="node">
<title>Node4</title>
<g id="a_node5"><a xlink:href="classtutorial_1_1CallCenter_1_1Arrival.html" target="_top" xlink:title="CallCenter.Arrival">
<polygon fill="none" stroke="#000000" points="246.5,-380.5 246.5,-399.5 339.5,-399.5 339.5,-380.5 246.5,-380.5"/>
<text text-anchor="middle" x="293" y="-387.5" font-family="Helvetica,sans-Serif" font-size="10.00" fill="#000000">CallCenter.Arrival</text>
</a>
</g>
</g>
<!-- Node0&#45;&gt;Node4 -->
<g id="edge4" class="edge">
<title>Node0&#45;&gt;Node4</title>
<path fill="none" stroke="#191970" d="M173.0343,-257.8216C178.5344,-286.8985 192.9131,-340.9159 227,-371 232.5427,-375.8918 239.2719,-379.5286 246.2877,-382.2314"/>
<polygon fill="#191970" stroke="#191970" points="176.4335,-256.9364 171.288,-247.675 169.535,-258.1238 176.4335,-256.9364"/>
</g>
<!-- Node5 -->
<g id="node6" class="node">
<title>Node5</title>
<g id="a_node6"><a xlink:href="classtutorial_1_1CallCenter_1_1CallCompletion.html" target="_top" xlink:title="CallCenter.CallCompletion">
<polygon fill="none" stroke="#000000" points="227,-342.5 227,-361.5 359,-361.5 359,-342.5 227,-342.5"/>
<text text-anchor="middle" x="293" y="-349.5" font-family="Helvetica,sans-Serif" font-size="10.00" fill="#000000">CallCenter.CallCompletion</text>
</a>
</g>
</g>
<!-- Node0&#45;&gt;Node5 -->
<g id="edge5" class="edge">
<title>Node0&#45;&gt;Node5</title>
<path fill="none" stroke="#191970" d="M176.5567,-257.1411C184.922,-278.7228 201.4451,-313.3569 227,-333 232.0104,-336.8513 237.7751,-339.9223 243.7669,-342.371"/>
<polygon fill="#191970" stroke="#191970" points="179.8302,-255.9017 173.1016,-247.7178 173.258,-258.3115 179.8302,-255.9017"/>
</g>
<!-- Node6 -->
<g id="node7" class="node">
<title>Node6</title>
<g id="a_node7"><a xlink:href="classtutorial_1_1CallCenter_1_1NextPeriod.html" target="_top" xlink:title="CallCenter.NextPeriod">
<polygon fill="none" stroke="#000000" points="236,-304.5 236,-323.5 350,-323.5 350,-304.5 236,-304.5"/>
<text text-anchor="middle" x="293" y="-311.5" font-family="Helvetica,sans-Serif" font-size="10.00" fill="#000000">CallCenter.NextPeriod</text>
</a>
</g>
</g>
<!-- Node0&#45;&gt;Node6 -->
<g id="edge6" class="edge">
<title>Node0&#45;&gt;Node6</title>
<path fill="none" stroke="#191970" d="M183.4372,-255.5708C193.9964,-268.2396 209.7619,-284.8338 227,-295 233.4705,-298.816 240.7534,-301.9045 248.057,-304.3924"/>
<polygon fill="#191970" stroke="#191970" points="185.9929,-253.1634 177.0045,-247.5545 180.5333,-257.5444 185.9929,-253.1634"/>
</g>
<!-- Node7 -->
<g id="node8" class="node">
<title>Node7</title>
<g id="a_node8"><a xlink:href="classtutorial_1_1CallEv_1_1Arrival.html" target="_top" xlink:title="CallEv.Arrival">
<polygon fill="none" stroke="#000000" points="255,-266.5 255,-285.5 331,-285.5 331,-266.5 255,-266.5"/>
<text text-anchor="middle" x="293" y="-273.5" font-family="Helvetica,sans-Serif" font-size="10.00" fill="#000000">CallEv.Arrival</text>
</a>
</g>
</g>
<!-- Node0&#45;&gt;Node7 -->
<g id="edge7" class="edge">
<title>Node0&#45;&gt;Node7</title>
<path fill="none" stroke="#191970" d="M200.6157,-248.4645C209.135,-251.3056 218.4077,-254.3324 227,-257 237.2488,-260.1818 248.4487,-263.4748 258.6643,-266.4074"/>
<polygon fill="#191970" stroke="#191970" points="201.6408,-245.1167 191.0468,-245.2471 199.4099,-251.7517 201.6408,-245.1167"/>
</g>
<!-- Node8 -->
<g id="node9" class="node">
<title>Node8</title>
<g id="a_node9"><a xlink:href="classtutorial_1_1CallEv_1_1CallCompletion.html" target="_top" xlink:title="CallEv.CallCompletion">
<polygon fill="none" stroke="#000000" points="235.5,-228.5 235.5,-247.5 350.5,-247.5 350.5,-228.5 235.5,-228.5"/>
<text text-anchor="middle" x="293" y="-235.5" font-family="Helvetica,sans-Serif" font-size="10.00" fill="#000000">CallEv.CallCompletion</text>
</a>
</g>
</g>
<!-- Node0&#45;&gt;Node8 -->
<g id="edge8" class="edge">
<title>Node0&#45;&gt;Node8</title>
<path fill="none" stroke="#191970" d="M201.3501,-238C211.7426,-238 223.6613,-238 235.3905,-238"/>
<polygon fill="#191970" stroke="#191970" points="201.1445,-234.5001 191.1445,-238 201.1444,-241.5001 201.1445,-234.5001"/>
</g>
<!-- Node9 -->
<g id="node10" class="node">
<title>Node9</title>
<g id="a_node10"><a xlink:href="classtutorial_1_1CallEv_1_1NextPeriod.html" target="_top" xlink:title="CallEv.NextPeriod">
<polygon fill="none" stroke="#000000" points="244.5,-190.5 244.5,-209.5 341.5,-209.5 341.5,-190.5 244.5,-190.5"/>
<text text-anchor="middle" x="293" y="-197.5" font-family="Helvetica,sans-Serif" font-size="10.00" fill="#000000">CallEv.NextPeriod</text>
</a>
</g>
</g>
<!-- Node0&#45;&gt;Node9 -->
<g id="edge9" class="edge">
<title>Node0&#45;&gt;Node9</title>
<path fill="none" stroke="#191970" d="M200.6157,-227.5355C209.135,-224.6944 218.4077,-221.6676 227,-219 237.2488,-215.8182 248.4487,-212.5252 258.6643,-209.5926"/>
<polygon fill="#191970" stroke="#191970" points="199.4099,-224.2483 191.0468,-230.7529 201.6408,-230.8833 199.4099,-224.2483"/>
</g>
<!-- Node10 -->
<g id="node11" class="node">
<title>Node10</title>
<g id="a_node11"><a xlink:href="classtutorial_1_1PreyPred_1_1EndOfSim.html" target="_top" xlink:title="PreyPred.EndOfSim">
<polygon fill="none" stroke="#000000" points="240.5,-152.5 240.5,-171.5 345.5,-171.5 345.5,-152.5 240.5,-152.5"/>
<text text-anchor="middle" x="293" y="-159.5" font-family="Helvetica,sans-Serif" font-size="10.00" fill="#000000">PreyPred.EndOfSim</text>
</a>
</g>
</g>
<!-- Node0&#45;&gt;Node10 -->
<g id="edge10" class="edge">
<title>Node0&#45;&gt;Node10</title>
<path fill="none" stroke="#191970" d="M183.4372,-220.4292C193.9964,-207.7604 209.7619,-191.1662 227,-181 233.4705,-177.184 240.7534,-174.0955 248.057,-171.6076"/>
<polygon fill="#191970" stroke="#191970" points="180.5333,-218.4556 177.0045,-228.4455 185.9929,-222.8366 180.5333,-218.4556"/>
</g>
<!-- Node11 -->
<g id="node12" class="node">
<title>Node11</title>
<g id="a_node12"><a xlink:href="classtutorial_1_1PreyPred_1_1PrintPoint.html" target="_top" xlink:title="PreyPred.PrintPoint">
<polygon fill="none" stroke="#000000" points="241.5,-114.5 241.5,-133.5 344.5,-133.5 344.5,-114.5 241.5,-114.5"/>
<text text-anchor="middle" x="293" y="-121.5" font-family="Helvetica,sans-Serif" font-size="10.00" fill="#000000">PreyPred.PrintPoint</text>
</a>
</g>
</g>
<!-- Node0&#45;&gt;Node11 -->
<g id="edge11" class="edge">
<title>Node0&#45;&gt;Node11</title>
<path fill="none" stroke="#191970" d="M176.5567,-218.8589C184.922,-197.2772 201.4451,-162.6431 227,-143 232.0104,-139.1487 237.7751,-136.0777 243.7669,-133.629"/>
<polygon fill="#191970" stroke="#191970" points="173.258,-217.6885 173.1016,-228.2822 179.8302,-220.0983 173.258,-217.6885"/>
</g>
<!-- Node12 -->
<g id="node13" class="node">
<title>Node12</title>
<g id="a_node13"><a xlink:href="classtutorial_1_1QueueEv_1_1Arrival.html" target="_top" xlink:title="QueueEv.Arrival">
<polygon fill="none" stroke="#000000" points="249.5,-76.5 249.5,-95.5 336.5,-95.5 336.5,-76.5 249.5,-76.5"/>
<text text-anchor="middle" x="293" y="-83.5" font-family="Helvetica,sans-Serif" font-size="10.00" fill="#000000">QueueEv.Arrival</text>
</a>
</g>
</g>
<!-- Node0&#45;&gt;Node12 -->
<g id="edge12" class="edge">
<title>Node0&#45;&gt;Node12</title>
<path fill="none" stroke="#191970" d="M173.0343,-218.1784C178.5344,-189.1015 192.9131,-135.0841 227,-105 233.3473,-99.3981 241.2505,-95.442 249.3584,-92.6497"/>
<polygon fill="#191970" stroke="#191970" points="169.535,-217.8762 171.288,-228.325 176.4335,-219.0636 169.535,-217.8762"/>
</g>
<!-- Node13 -->
<g id="node14" class="node">
<title>Node13</title>
<g id="a_node14"><a xlink:href="classtutorial_1_1QueueEv_1_1Departure.html" target="_top" xlink:title="QueueEv.Departure">
<polygon fill="none" stroke="#000000" points="242,-38.5 242,-57.5 344,-57.5 344,-38.5 242,-38.5"/>
<text text-anchor="middle" x="293" y="-45.5" font-family="Helvetica,sans-Serif" font-size="10.00" fill="#000000">QueueEv.Departure</text>
</a>
</g>
</g>
<!-- Node0&#45;&gt;Node13 -->
<g id="edge13" class="edge">
<title>Node0&#45;&gt;Node13</title>
<path fill="none" stroke="#191970" d="M174.0842,-218.6059C182.8966,-178.4977 204.7077,-88.3869 227,-67 231.3021,-62.8726 236.4414,-59.6327 241.9268,-57.091"/>
<polygon fill="#191970" stroke="#191970" points="170.6386,-217.981 171.9537,-228.4939 177.4815,-219.4555 170.6386,-217.981"/>
</g>
<!-- Node14 -->
<g id="node15" class="node">
<title>Node14</title>
<g id="a_node15"><a xlink:href="classtutorial_1_1QueueEv_1_1EndOfSim.html" target="_top" xlink:title="QueueEv.EndOfSim">
<polygon fill="none" stroke="#000000" points="241,-.5 241,-19.5 345,-19.5 345,-.5 241,-.5"/>
<text text-anchor="middle" x="293" y="-7.5" font-family="Helvetica,sans-Serif" font-size="10.00" fill="#000000">QueueEv.EndOfSim</text>
</a>
</g>
</g>
<!-- Node0&#45;&gt;Node14 -->
<g id="edge14" class="edge">
<title>Node0&#45;&gt;Node14</title>
<path fill="none" stroke="#191970" d="M172.8947,-218.1783C180.104,-171.4243 200.2261,-56.1527 227,-29 230.9348,-25.0095 235.6494,-21.8439 240.7249,-19.3347"/>
<polygon fill="#191970" stroke="#191970" points="169.405,-217.8486 171.3783,-228.258 176.3271,-218.89 169.405,-217.8486"/>
</g>
<!-- Node1 -->
<g id="node2" class="node">
<title>Node1</title>
<polygon fill="none" stroke="#bfbfbf" points="0,-228.5 0,-247.5 113,-247.5 113,-228.5 0,-228.5"/>
<text text-anchor="middle" x="56.5" y="-235.5" font-family="Helvetica,sans-Serif" font-size="10.00" fill="#000000">Comparable&lt; Event &gt;</text>
</g>
<!-- Node1&#45;&gt;Node0 -->
<g id="edge1" class="edge">
<title>Node1&#45;&gt;Node0</title>
<path fill="none" stroke="#191970" d="M123.3592,-238C132.5867,-238 141.4457,-238 148.9175,-238"/>
<polygon fill="#191970" stroke="#191970" points="123.25,-234.5001 113.25,-238 123.25,-241.5001 123.25,-234.5001"/>
</g>
</g>
</svg>
