<?xml version="1.0" encoding="UTF-8" standalone="no"?>
<!DOCTYPE svg PUBLIC "-//W3C//DTD SVG 1.1//EN"
 "http://www.w3.org/Graphics/SVG/1.1/DTD/svg11.dtd">
<!-- Generated by graphviz version 2.40.1 (0)
 -->
<!-- Title: Inventory Pages: 1 -->
<svg width="461pt" height="240pt"
 viewBox="0.00 0.00 461.00 240.00" xmlns="http://www.w3.org/2000/svg" xmlns:xlink="http://www.w3.org/1999/xlink">
<g id="graph0" class="graph" transform="scale(1 1) rotate(0) translate(4 236)">
<title>Inventory</title>
<!-- Node2 -->
<g id="node1" class="node">
<title>Node2</title>
<g id="a_node1"><a xlink:title=" ">
<polygon fill="#bfbfbf" stroke="#000000" points="264.5,-.5 264.5,-19.5 321.5,-19.5 321.5,-.5 264.5,-.5"/>
<text text-anchor="middle" x="293" y="-7.5" font-family="Helvetica,sans-Serif" font-size="10.00" fill="#000000">Inventory</text>
</a>
</g>
</g>
<!-- Node3 -->
<g id="node2" class="node">
<title>Node3</title>
<g id="a_node2"><a xlink:href="classumontreal_1_1ssj_1_1stat_1_1Tally.html" target="_top" xlink:title="A subclass of StatProbe.">
<polygon fill="none" stroke="#000000" points="131.5,-67.5 131.5,-86.5 168.5,-86.5 168.5,-67.5 131.5,-67.5"/>
<text text-anchor="middle" x="150" y="-74.5" font-family="Helvetica,sans-Serif" font-size="10.00" fill="#000000">Tally</text>
</a>
</g>
</g>
<!-- Node3&#45;&gt;Node2 -->
<g id="edge1" class="edge">
<title>Node3&#45;&gt;Node2</title>
<path fill="none" stroke="#9a32cd" stroke-dasharray="5,2" d="M177.8695,-63.9423C205.6277,-50.9367 247.5898,-31.2761 272.4498,-19.6284"/>
<polygon fill="#9a32cd" stroke="#9a32cd" points="176.2651,-60.8288 168.6948,-68.2409 179.2351,-67.1675 176.2651,-60.8288"/>
<text text-anchor="middle" x="252.5" y="-41" font-family="Helvetica,sans-Serif" font-size="10.00" fill="#000000"> statProfit</text>
</g>
<!-- Node4 -->
<g id="node3" class="node">
<title>Node4</title>
<g id="a_node3"><a xlink:href="classumontreal_1_1ssj_1_1stat_1_1StatProbe.html" target="_top" xlink:title="The objects of this class are statistical probes or collectors, which are elementary devices for coll...">
<polygon fill="none" stroke="#000000" points="0,-145.5 0,-164.5 60,-164.5 60,-145.5 0,-145.5"/>
<text text-anchor="middle" x="30" y="-152.5" font-family="Helvetica,sans-Serif" font-size="10.00" fill="#000000">StatProbe</text>
</a>
</g>
</g>
<!-- Node4&#45;&gt;Node3 -->
<g id="edge2" class="edge">
<title>Node4&#45;&gt;Node3</title>
<path fill="none" stroke="#191970" d="M53.299,-139.8557C77.5134,-124.1163 114.6775,-99.9596 135.1653,-86.6426"/>
<polygon fill="#191970" stroke="#191970" points="51.1913,-137.0512 44.7144,-145.4357 55.0063,-142.9203 51.1913,-137.0512"/>
</g>
<!-- Node5 -->
<g id="node4" class="node">
<title>Node5</title>
<g id="a_node4"><a xlink:title=" ">
<polygon fill="none" stroke="#bfbfbf" points="78,-145.5 78,-164.5 138,-164.5 138,-145.5 78,-145.5"/>
<text text-anchor="middle" x="108" y="-152.5" font-family="Helvetica,sans-Serif" font-size="10.00" fill="#000000">Cloneable</text>
</a>
</g>
</g>
<!-- Node5&#45;&gt;Node3 -->
<g id="edge3" class="edge">
<title>Node5&#45;&gt;Node3</title>
<path fill="none" stroke="#191970" d="M117.8911,-136.6308C126.3233,-120.9711 138.111,-99.0796 144.8079,-86.6426"/>
<polygon fill="#191970" stroke="#191970" points="114.8094,-134.9716 113.15,-145.4357 120.9727,-138.2903 114.8094,-134.9716"/>
</g>
<!-- Node6 -->
<g id="node5" class="node">
<title>Node6</title>
<g id="a_node5"><a xlink:title=" ">
<polygon fill="none" stroke="#bfbfbf" points="156.5,-145.5 156.5,-164.5 227.5,-164.5 227.5,-145.5 156.5,-145.5"/>
<text text-anchor="middle" x="192" y="-152.5" font-family="Helvetica,sans-Serif" font-size="10.00" fill="#000000">Tally.CIType</text>
</a>
</g>
</g>
<!-- Node6&#45;&gt;Node3 -->
<g id="edge4" class="edge">
<title>Node6&#45;&gt;Node3</title>
<path fill="none" stroke="#9a32cd" stroke-dasharray="5,2" d="M182.1089,-136.6308C173.6767,-120.9711 161.889,-99.0796 155.1921,-86.6426"/>
<polygon fill="#9a32cd" stroke="#9a32cd" points="179.0273,-138.2903 186.85,-145.4357 185.1906,-134.9716 179.0273,-138.2903"/>
<text text-anchor="middle" x="217.5" y="-113.5" font-family="Helvetica,sans-Serif" font-size="10.00" fill="#000000"> confidenceInterval</text>
</g>
<!-- Node7 -->
<g id="node6" class="node">
<title>Node7</title>
<g id="a_node6"><a xlink:href="classumontreal_1_1ssj_1_1randvar_1_1RandomVariateGenInt.html" target="_top" xlink:title="This is the base class for all generators of discrete random variates over the set of integers.">
<polygon fill="none" stroke="#000000" points="236.5,-67.5 236.5,-86.5 349.5,-86.5 349.5,-67.5 236.5,-67.5"/>
<text text-anchor="middle" x="293" y="-74.5" font-family="Helvetica,sans-Serif" font-size="10.00" fill="#000000">RandomVariateGenInt</text>
</a>
</g>
</g>
<!-- Node7&#45;&gt;Node2 -->
<g id="edge5" class="edge">
<title>Node7&#45;&gt;Node2</title>
<path fill="none" stroke="#9a32cd" stroke-dasharray="5,2" d="M293,-57.1079C293,-44.714 293,-29.3263 293,-19.5817"/>
<polygon fill="#9a32cd" stroke="#9a32cd" points="289.5001,-57.4005 293,-67.4005 296.5001,-57.4006 289.5001,-57.4005"/>
<text text-anchor="middle" x="321" y="-41" font-family="Helvetica,sans-Serif" font-size="10.00" fill="#000000"> genDemand</text>
</g>
<!-- Node8 -->
<g id="node7" class="node">
<title>Node8</title>
<g id="a_node7"><a xlink:href="classumontreal_1_1ssj_1_1randvar_1_1RandomVariateGen.html" target="_top" xlink:title="This is the base class for all random variate generators over the real line.">
<polygon fill="none" stroke="#000000" points="245.5,-145.5 245.5,-164.5 346.5,-164.5 346.5,-145.5 245.5,-145.5"/>
<text text-anchor="middle" x="296" y="-152.5" font-family="Helvetica,sans-Serif" font-size="10.00" fill="#000000">RandomVariateGen</text>
</a>
</g>
</g>
<!-- Node8&#45;&gt;Node7 -->
<g id="edge6" class="edge">
<title>Node8&#45;&gt;Node7</title>
<path fill="none" stroke="#191970" d="M295.2418,-135.2866C294.6438,-119.7395 293.8357,-98.7276 293.3709,-86.6426"/>
<polygon fill="#191970" stroke="#191970" points="291.7503,-135.5776 295.6321,-145.4357 298.7451,-135.3085 291.7503,-135.5776"/>
</g>
<!-- Node9 -->
<g id="node8" class="node">
<title>Node9</title>
<g id="a_node8"><a xlink:href="interfaceumontreal_1_1ssj_1_1probdist_1_1Distribution.html" target="_top" xlink:title="This interface should be implemented by all classes supporting discrete and continuous distributions.">
<polygon fill="none" stroke="#000000" points="251,-212.5 251,-231.5 317,-231.5 317,-212.5 251,-212.5"/>
<text text-anchor="middle" x="284" y="-219.5" font-family="Helvetica,sans-Serif" font-size="10.00" fill="#000000">Distribution</text>
</a>
</g>
</g>
<!-- Node9&#45;&gt;Node8 -->
<g id="edge7" class="edge">
<title>Node9&#45;&gt;Node8</title>
<path fill="none" stroke="#9a32cd" stroke-dasharray="5,2" d="M283.9023,-202.1212C284.17,-195.9472 284.7717,-189.1498 286,-183 287.2536,-176.7233 289.639,-169.9578 291.7656,-164.6497"/>
<polygon fill="#9a32cd" stroke="#9a32cd" points="280.4,-202.2251 283.7182,-212.2869 287.3988,-202.3519 280.4,-202.2251"/>
<text text-anchor="middle" x="295.5" y="-186" font-family="Helvetica,sans-Serif" font-size="10.00" fill="#000000"> dist</text>
</g>
<!-- Node10 -->
<g id="node9" class="node">
<title>Node10</title>
<g id="a_node9"><a xlink:href="interfaceumontreal_1_1ssj_1_1rng_1_1RandomStream.html" target="_top" xlink:title="This interface defines the basic structures to handle multiple streams of uniform (pseudo)random numb...">
<polygon fill="none" stroke="#000000" points="335.5,-212.5 335.5,-231.5 420.5,-231.5 420.5,-212.5 335.5,-212.5"/>
<text text-anchor="middle" x="378" y="-219.5" font-family="Helvetica,sans-Serif" font-size="10.00" fill="#000000">RandomStream</text>
</a>
</g>
</g>
<!-- Node10&#45;&gt;Node2 -->
<g id="edge9" class="edge">
<title>Node10&#45;&gt;Node2</title>
<path fill="none" stroke="#9a32cd" stroke-dasharray="5,2" d="M381.1917,-202.0704C385.8865,-165.514 390.4422,-87.003 353,-38 345.323,-27.9526 333.1655,-21.37 321.7954,-17.1297"/>
<polygon fill="#9a32cd" stroke="#9a32cd" points="377.6691,-201.9793 379.7157,-212.3746 384.5984,-202.972 377.6691,-201.9793"/>
<text text-anchor="middle" x="418" y="-119" font-family="Helvetica,sans-Serif" font-size="10.00" fill="#000000"> streamDemand</text>
<text text-anchor="middle" x="418" y="-108" font-family="Helvetica,sans-Serif" font-size="10.00" fill="#000000">streamOrder</text>
</g>
<!-- Node10&#45;&gt;Node8 -->
<g id="edge8" class="edge">
<title>Node10&#45;&gt;Node8</title>
<path fill="none" stroke="#9a32cd" stroke-dasharray="5,2" d="M349.504,-207.4309C342.8227,-203.4685 335.9293,-198.903 330,-194 319.4778,-185.2992 309.4644,-173.1816 303.0651,-164.772"/>
<polygon fill="#9a32cd" stroke="#9a32cd" points="347.9438,-210.5693 358.3729,-212.4356 351.3839,-204.4729 347.9438,-210.5693"/>
<text text-anchor="middle" x="347" y="-186" font-family="Helvetica,sans-Serif" font-size="10.00" fill="#000000"> stream</text>
</g>
</g>
</svg>
