<?xml version="1.0" encoding="UTF-8" standalone="no"?>
<!DOCTYPE svg PUBLIC "-//W3C//DTD SVG 1.1//EN"
 "http://www.w3.org/Graphics/SVG/1.1/DTD/svg11.dtd">
<!-- Generated by graphviz version 2.40.1 (20161225.0304)
 -->
<!-- Title: ListOfStatProbes&lt; E extends StatProbe &gt; Pages: 1 -->
<svg width="248pt" height="95pt"
 viewBox="0.00 0.00 248.00 95.00" xmlns="http://www.w3.org/2000/svg" xmlns:xlink="http://www.w3.org/1999/xlink">
<g id="graph0" class="graph" transform="scale(1 1) rotate(0) translate(4 91)">
<title>ListOfStatProbes&lt; E extends StatProbe &gt;</title>
<!-- Node0 -->
<g id="node1" class="node">
<title>Node0</title>
<polygon fill="#bfbfbf" stroke="#000000" points="52,-.5 52,-30.5 162,-30.5 162,-.5 52,-.5"/>
<text text-anchor="start" x="60" y="-18.5" font-family="Helvetica,sans-Serif" font-size="10.00" fill="#000000">ListOfStatProbes&lt; E</text>
<text text-anchor="middle" x="107" y="-7.5" font-family="Helvetica,sans-Serif" font-size="10.00" fill="#000000"> extends StatProbe &gt;</text>
</g>
<!-- Node1 -->
<g id="node2" class="node">
<title>Node1</title>
<polygon fill="none" stroke="#bfbfbf" points="0,-67.5 0,-86.5 60,-86.5 60,-67.5 0,-67.5"/>
<text text-anchor="middle" x="30" y="-74.5" font-family="Helvetica,sans-Serif" font-size="10.00" fill="#000000">Cloneable</text>
</g>
<!-- Node1&#45;&gt;Node0 -->
<g id="edge1" class="edge">
<title>Node1&#45;&gt;Node0</title>
<path fill="none" stroke="#191970" d="M49.9844,-61.0385C61.7671,-51.6276 76.5867,-39.7911 88.1637,-30.5446"/>
<polygon fill="#191970" stroke="#191970" points="47.6606,-58.415 42.0313,-67.3906 52.0292,-63.8846 47.6606,-58.415"/>
</g>
<!-- Node2 -->
<g id="node3" class="node">
<title>Node2</title>
<polygon fill="none" stroke="#bfbfbf" points="78.5,-67.5 78.5,-86.5 135.5,-86.5 135.5,-67.5 78.5,-67.5"/>
<text text-anchor="middle" x="107" y="-74.5" font-family="Helvetica,sans-Serif" font-size="10.00" fill="#000000">List&lt; E &gt;</text>
</g>
<!-- Node2&#45;&gt;Node0 -->
<g id="edge2" class="edge">
<title>Node2&#45;&gt;Node0</title>
<path fill="none" stroke="#191970" d="M107,-57.3693C107,-48.681 107,-38.6241 107,-30.5446"/>
<polygon fill="#191970" stroke="#191970" points="103.5001,-57.3906 107,-67.3906 110.5001,-57.3907 103.5001,-57.3906"/>
</g>
<!-- Node3 -->
<g id="node4" class="node">
<title>Node3</title>
<polygon fill="none" stroke="#bfbfbf" points="154,-67.5 154,-86.5 240,-86.5 240,-67.5 154,-67.5"/>
<text text-anchor="middle" x="197" y="-74.5" font-family="Helvetica,sans-Serif" font-size="10.00" fill="#000000">RandomAccess</text>
</g>
<!-- Node3&#45;&gt;Node0 -->
<g id="edge3" class="edge">
<title>Node3&#45;&gt;Node0</title>
<path fill="none" stroke="#191970" d="M174.4398,-61.5839C160.5437,-52.0882 142.8108,-39.9707 129.0165,-30.5446"/>
<polygon fill="#191970" stroke="#191970" points="172.7064,-64.6384 182.9375,-67.3906 176.6557,-58.8589 172.7064,-64.6384"/>
</g>
</g>
</svg>
