<?xml version="1.0" encoding="UTF-8" standalone="no"?>
<!DOCTYPE svg PUBLIC "-//W3C//DTD SVG 1.1//EN"
 "http://www.w3.org/Graphics/SVG/1.1/DTD/svg11.dtd">
<!-- Generated by graphviz version 2.40.1 (20161225.0304)
 -->
<!-- Title: RandomStreamBase Pages: 1 -->
<!--zoomable 465 -->
<svg id="main" version="1.1" xmlns="http://www.w3.org/2000/svg" xmlns:xlink="http://www.w3.org/1999/xlink" xml:space="preserve" onload="init(evt)">
<style type="text/css"><![CDATA[
.edge:hover path { stroke: red; }
.edge:hover polygon { stroke: red; fill: red; }
]]></style>
<script type="text/javascript"><![CDATA[
var edges = document.getElementsByTagName('g');
if (edges && edges.length) {
  for (var i=0;i<edges.length;i++) {
    if (edges[i].id.substr(0,4)=='edge') {
      edges[i].setAttribute('class','edge');
    }
  }
}
]]></script>
        <defs>
                <circle id="rim" cx="0" cy="0" r="7"/>
                <circle id="rim2" cx="0" cy="0" r="3.5"/>
                <g id="zoomPlus">
                        <use xlink:href="#rim" fill="#404040">
                                <set attributeName="fill" to="#808080" begin="zoomplus.mouseover" end="zoomplus.mouseout"/>
                        </use>
                        <path d="M-4,0h8M0,-4v8" fill="none" stroke="white" stroke-width="1.5" pointer-events="none"/>
                </g>
                <g id="zoomMin">
                        <use xlink:href="#rim" fill="#404040">
                                <set attributeName="fill" to="#808080" begin="zoomminus.mouseover" end="zoomminus.mouseout"/>
                        </use>
                        <path d="M-4,0h8" fill="none" stroke="white" stroke-width="1.5" pointer-events="none"/>
                </g>
                <g id="dirArrow">
                        <path fill="none" stroke="white" stroke-width="1.5" d="M0,-3.0v7 M-2.5,-0.5L0,-3.0L2.5,-0.5"/>
                </g>
               <g id="resetDef">
                       <use xlink:href="#rim2" fill="#404040">
                               <set attributeName="fill" to="#808080" begin="reset.mouseover" end="reset.mouseout"/>
                       </use>
               </g>
        </defs>

<script type="text/javascript">
var viewWidth = 611;
var viewHeight = 465;
var sectionId = 'dynsection-0';
</script>
<script xlink:href="svgpan.js"/>
<svg id="graph" class="graph">
<g id="viewport">
<title>RandomStreamBase</title>
<!-- Node0 -->
<g id="node1" class="node">
<title>Node0</title>
<polygon fill="#bfbfbf" stroke="#000000" points="285,-228.5 285,-247.5 392,-247.5 392,-228.5 285,-228.5"/>
<text text-anchor="middle" x="338.5" y="-235.5" font-family="Helvetica,sans-Serif" font-size="10.00" fill="#000000">RandomStreamBase</text>
</g>
<!-- Node5 -->
<g id="node6" class="node">
<title>Node5</title>
<g id="a_node6"><a xlink:href="classumontreal_1_1ssj_1_1mcqmctools_1_1anova_1_1SplitStream.html" target="_top" xlink:title="Implements a random stream that mixes two input streams by using a coordinate mask. ">
<polygon fill="none" stroke="#000000" points="434,-437.5 434,-456.5 502,-456.5 502,-437.5 434,-437.5"/>
<text text-anchor="middle" x="468" y="-444.5" font-family="Helvetica,sans-Serif" font-size="10.00" fill="#000000">SplitStream</text>
</a>
</g>
</g>
<!-- Node0&#45;&gt;Node5 -->
<g id="edge5" class="edge">
<title>Node0&#45;&gt;Node5</title>
<path fill="none" stroke="#191970" d="M343.0621,-257.7831C352.6699,-295.4508 378.3112,-378.1507 428,-428 431.6907,-431.7026 436.243,-434.7788 440.9387,-437.3001"/>
<polygon fill="#191970" stroke="#191970" points="346.3548,-256.5119 340.5863,-247.6251 339.5539,-258.1695 346.3548,-256.5119"/>
</g>
<!-- Node6 -->
<g id="node7" class="node">
<title>Node6</title>
<g id="a_node7"><a xlink:href="classumontreal_1_1ssj_1_1rng_1_1GenF2w32.html" target="_top" xlink:title="Implements the RandomStream interface via inheritance from RandomStreamBase. ">
<polygon fill="none" stroke="#000000" points="436,-399.5 436,-418.5 500,-418.5 500,-399.5 436,-399.5"/>
<text text-anchor="middle" x="468" y="-406.5" font-family="Helvetica,sans-Serif" font-size="10.00" fill="#000000">GenF2w32</text>
</a>
</g>
</g>
<!-- Node0&#45;&gt;Node6 -->
<g id="edge6" class="edge">
<title>Node0&#45;&gt;Node6</title>
<path fill="none" stroke="#191970" d="M345.4944,-257.2662C357.7793,-288.748 385.9823,-351.5535 428,-390 432.0838,-393.7367 437.0345,-396.8745 442.0415,-399.4546"/>
<polygon fill="#191970" stroke="#191970" points="348.7524,-255.9866 341.9415,-247.8711 342.205,-258.4627 348.7524,-255.9866"/>
</g>
<!-- Node7 -->
<g id="node8" class="node">
<title>Node7</title>
<g id="a_node8"><a xlink:href="classumontreal_1_1ssj_1_1rng_1_1LFSR113.html" target="_top" xlink:title="Extends RandomStreamBase using a composite linear feedback shift register (LFSR) (or Tausworthe) RNG ...">
<polygon fill="none" stroke="#000000" points="439,-361.5 439,-380.5 497,-380.5 497,-361.5 439,-361.5"/>
<text text-anchor="middle" x="468" y="-368.5" font-family="Helvetica,sans-Serif" font-size="10.00" fill="#000000">LFSR113</text>
</a>
</g>
</g>
<!-- Node0&#45;&gt;Node7 -->
<g id="edge7" class="edge">
<title>Node0&#45;&gt;Node7</title>
<path fill="none" stroke="#191970" d="M349.2053,-256.4735C364.1836,-280.9937 393.4702,-324.3994 428,-352 432.564,-355.6482 437.9436,-358.8048 443.2522,-361.4402"/>
<polygon fill="#191970" stroke="#191970" points="352.1505,-254.579 344.018,-247.7883 346.1408,-258.1683 352.1505,-254.579"/>
</g>
<!-- Node8 -->
<g id="node9" class="node">
<title>Node8</title>
<g id="a_node9"><a xlink:href="classumontreal_1_1ssj_1_1rng_1_1LFSR258.html" target="_top" xlink:title="Extends RandomStreamBase using a 64&#45;bit composite linear feedback shift register (LFSR) (or Tausworth...">
<polygon fill="none" stroke="#000000" points="439,-323.5 439,-342.5 497,-342.5 497,-323.5 439,-323.5"/>
<text text-anchor="middle" x="468" y="-330.5" font-family="Helvetica,sans-Serif" font-size="10.00" fill="#000000">LFSR258</text>
</a>
</g>
</g>
<!-- Node0&#45;&gt;Node8 -->
<g id="edge8" class="edge">
<title>Node0&#45;&gt;Node8</title>
<path fill="none" stroke="#191970" d="M355.8722,-255.1608C373.1531,-271.6267 400.928,-296.505 428,-314 433.2948,-317.4217 439.3016,-320.6008 445.0211,-323.3416"/>
<polygon fill="#191970" stroke="#191970" points="357.9034,-252.2563 348.2809,-247.8226 353.0383,-257.2893 357.9034,-252.2563"/>
</g>
<!-- Node9 -->
<g id="node10" class="node">
<title>Node9</title>
<g id="a_node10"><a xlink:href="classumontreal_1_1ssj_1_1rng_1_1MRG31k3p.html" target="_top" xlink:title="Extends the abstract class RandomStreamBase, thus implementing the RandomStream interface indirectly...">
<polygon fill="none" stroke="#000000" points="435,-285.5 435,-304.5 501,-304.5 501,-285.5 435,-285.5"/>
<text text-anchor="middle" x="468" y="-292.5" font-family="Helvetica,sans-Serif" font-size="10.00" fill="#000000">MRG31k3p</text>
</a>
</g>
</g>
<!-- Node0&#45;&gt;Node9 -->
<g id="edge9" class="edge">
<title>Node0&#45;&gt;Node9</title>
<path fill="none" stroke="#191970" d="M369.4394,-251.6181C393.1319,-262.0465 425.2189,-276.1697 446.2539,-285.4284"/>
<polygon fill="#191970" stroke="#191970" points="370.738,-248.3657 360.1754,-247.5405 367.918,-254.7726 370.738,-248.3657"/>
</g>
<!-- Node10 -->
<g id="node11" class="node">
<title>Node10</title>
<g id="a_node11"><a xlink:href="classumontreal_1_1ssj_1_1rng_1_1MRG32k3a.html" target="_top" xlink:title="Extends the abstract class RandomStreamBase by using as a backbone (or main) generator the combined m...">
<polygon fill="none" stroke="#000000" points="435,-247.5 435,-266.5 501,-266.5 501,-247.5 435,-247.5"/>
<text text-anchor="middle" x="468" y="-254.5" font-family="Helvetica,sans-Serif" font-size="10.00" fill="#000000">MRG32k3a</text>
</a>
</g>
</g>
<!-- Node0&#45;&gt;Node10 -->
<g id="edge10" class="edge">
<title>Node0&#45;&gt;Node10</title>
<path fill="none" stroke="#191970" d="M402.1998,-247.3459C413.5233,-249.0073 424.8897,-250.6749 434.9132,-252.1456"/>
<polygon fill="#191970" stroke="#191970" points="402.6968,-243.8814 392.2946,-245.8926 401.6806,-250.8073 402.6968,-243.8814"/>
</g>
<!-- Node11 -->
<g id="node12" class="node">
<title>Node11</title>
<g id="a_node12"><a xlink:href="classumontreal_1_1ssj_1_1rng_1_1MRG32k3aL.html" target="_top" xlink:title="The same generator as MRG32k3a, except here it is implemented with type long instead of double...">
<polygon fill="none" stroke="#000000" points="432.5,-209.5 432.5,-228.5 503.5,-228.5 503.5,-209.5 432.5,-209.5"/>
<text text-anchor="middle" x="468" y="-216.5" font-family="Helvetica,sans-Serif" font-size="10.00" fill="#000000">MRG32k3aL</text>
</a>
</g>
</g>
<!-- Node0&#45;&gt;Node11 -->
<g id="edge11" class="edge">
<title>Node0&#45;&gt;Node11</title>
<path fill="none" stroke="#191970" d="M402.4901,-228.6115C412.732,-227.1088 422.9993,-225.6024 432.2667,-224.2427"/>
<polygon fill="#191970" stroke="#191970" points="401.6806,-225.1927 392.2946,-230.1074 402.6968,-232.1186 401.6806,-225.1927"/>
</g>
<!-- Node12 -->
<g id="node13" class="node">
<title>Node12</title>
<g id="a_node13"><a xlink:href="classumontreal_1_1ssj_1_1rng_1_1MT19937.html" target="_top" xlink:title="Implements the RandomStream interface via inheritance from RandomStreamBase. ">
<polygon fill="none" stroke="#000000" points="439.5,-171.5 439.5,-190.5 496.5,-190.5 496.5,-171.5 439.5,-171.5"/>
<text text-anchor="middle" x="468" y="-178.5" font-family="Helvetica,sans-Serif" font-size="10.00" fill="#000000">MT19937</text>
</a>
</g>
</g>
<!-- Node0&#45;&gt;Node12 -->
<g id="edge12" class="edge">
<title>Node0&#45;&gt;Node12</title>
<path fill="none" stroke="#191970" d="M369.4394,-224.3819C393.1319,-213.9535 425.2189,-199.8303 446.2539,-190.5716"/>
<polygon fill="#191970" stroke="#191970" points="367.918,-221.2274 360.1754,-228.4595 370.738,-227.6343 367.918,-221.2274"/>
</g>
<!-- Node13 -->
<g id="node14" class="node">
<title>Node13</title>
<g id="a_node14"><a xlink:href="classumontreal_1_1ssj_1_1rng_1_1RandRijndael.html" target="_top" xlink:title="Implements a RNG using the Rijndael block cipher algorithm (AES) with key and block lengths of 128 bi...">
<polygon fill="none" stroke="#000000" points="430.5,-133.5 430.5,-152.5 505.5,-152.5 505.5,-133.5 430.5,-133.5"/>
<text text-anchor="middle" x="468" y="-140.5" font-family="Helvetica,sans-Serif" font-size="10.00" fill="#000000">RandRijndael</text>
</a>
</g>
</g>
<!-- Node0&#45;&gt;Node13 -->
<g id="edge13" class="edge">
<title>Node0&#45;&gt;Node13</title>
<path fill="none" stroke="#191970" d="M355.8722,-220.8392C373.1531,-204.3733 400.928,-179.495 428,-162 433.2948,-158.5783 439.3016,-155.3992 445.0211,-152.6584"/>
<polygon fill="#191970" stroke="#191970" points="353.0383,-218.7107 348.2809,-228.1774 357.9034,-223.7437 353.0383,-218.7107"/>
</g>
<!-- Node14 -->
<g id="node15" class="node">
<title>Node14</title>
<g id="a_node15"><a xlink:href="classumontreal_1_1ssj_1_1rng_1_1WELL1024.html" target="_top" xlink:title="Implements the RandomStream interface via inheritance from RandomStreamBase. ">
<polygon fill="none" stroke="#000000" points="435.5,-95.5 435.5,-114.5 500.5,-114.5 500.5,-95.5 435.5,-95.5"/>
<text text-anchor="middle" x="468" y="-102.5" font-family="Helvetica,sans-Serif" font-size="10.00" fill="#000000">WELL1024</text>
</a>
</g>
</g>
<!-- Node0&#45;&gt;Node14 -->
<g id="edge14" class="edge">
<title>Node0&#45;&gt;Node14</title>
<path fill="none" stroke="#191970" d="M349.2053,-219.5265C364.1836,-195.0063 393.4702,-151.6006 428,-124 432.564,-120.3518 437.9436,-117.1952 443.2522,-114.5598"/>
<polygon fill="#191970" stroke="#191970" points="346.1408,-217.8317 344.018,-228.2117 352.1505,-221.421 346.1408,-217.8317"/>
</g>
<!-- Node15 -->
<g id="node16" class="node">
<title>Node15</title>
<g id="a_node16"><a xlink:href="classumontreal_1_1ssj_1_1rng_1_1WELL512.html" target="_top" xlink:title="This class implements the RandomStream interface via inheritance from RandomStreamBase. ">
<polygon fill="none" stroke="#000000" points="438.5,-57.5 438.5,-76.5 497.5,-76.5 497.5,-57.5 438.5,-57.5"/>
<text text-anchor="middle" x="468" y="-64.5" font-family="Helvetica,sans-Serif" font-size="10.00" fill="#000000">WELL512</text>
</a>
</g>
</g>
<!-- Node0&#45;&gt;Node15 -->
<g id="edge15" class="edge">
<title>Node0&#45;&gt;Node15</title>
<path fill="none" stroke="#191970" d="M345.4944,-218.7338C357.7793,-187.252 385.9823,-124.4465 428,-86 432.0838,-82.2633 437.0345,-79.1255 442.0415,-76.5454"/>
<polygon fill="#191970" stroke="#191970" points="342.205,-217.5373 341.9415,-228.1289 348.7524,-220.0134 342.205,-217.5373"/>
</g>
<!-- Node16 -->
<g id="node17" class="node">
<title>Node16</title>
<g id="a_node17"><a xlink:href="classumontreal_1_1ssj_1_1rng_1_1WELL607base.html" target="_top" xlink:title="WELL607base">
<polygon fill="none" stroke="#000000" points="428,-19.5 428,-38.5 508,-38.5 508,-19.5 428,-19.5"/>
<text text-anchor="middle" x="468" y="-26.5" font-family="Helvetica,sans-Serif" font-size="10.00" fill="#000000">WELL607base</text>
</a>
</g>
</g>
<!-- Node0&#45;&gt;Node16 -->
<g id="edge16" class="edge">
<title>Node0&#45;&gt;Node16</title>
<path fill="none" stroke="#191970" d="M343.0621,-218.2169C352.6699,-180.5492 378.3112,-97.8493 428,-48 431.6907,-44.2974 436.243,-41.2212 440.9387,-38.6999"/>
<polygon fill="#191970" stroke="#191970" points="339.5539,-217.8305 340.5863,-228.3749 346.3548,-219.4881 339.5539,-217.8305"/>
</g>
<!-- Node1 -->
<g id="node2" class="node">
<title>Node1</title>
<g id="a_node2"><a xlink:href="interfaceumontreal_1_1ssj_1_1rng_1_1CloneableRandomStream.html" target="_top" xlink:title="CloneableRandomStream extends RandomStream and Cloneable. ">
<polygon fill="none" stroke="#000000" points="121,-247.5 121,-266.5 249,-266.5 249,-247.5 121,-247.5"/>
<text text-anchor="middle" x="185" y="-254.5" font-family="Helvetica,sans-Serif" font-size="10.00" fill="#000000">CloneableRandomStream</text>
</a>
</g>
</g>
<!-- Node1&#45;&gt;Node0 -->
<g id="edge1" class="edge">
<title>Node1&#45;&gt;Node0</title>
<path fill="none" stroke="#191970" d="M259.2612,-247.8081C267.8631,-246.7433 276.5067,-245.6734 284.7592,-244.6519"/>
<polygon fill="#191970" stroke="#191970" points="258.7027,-244.3504 249.2084,-249.0524 259.5627,-251.2974 258.7027,-244.3504"/>
</g>
<!-- Node2 -->
<g id="node3" class="node">
<title>Node2</title>
<g id="a_node3"><a xlink:href="interfaceumontreal_1_1ssj_1_1rng_1_1RandomStream.html" target="_top" xlink:title="This interface defines the basic structures to handle multiple streams of uniform (pseudo)random numb...">
<polygon fill="none" stroke="#000000" points="0,-266.5 0,-285.5 85,-285.5 85,-266.5 0,-266.5"/>
<text text-anchor="middle" x="42.5" y="-273.5" font-family="Helvetica,sans-Serif" font-size="10.00" fill="#000000">RandomStream</text>
</a>
</g>
</g>
<!-- Node2&#45;&gt;Node1 -->
<g id="edge2" class="edge">
<title>Node2&#45;&gt;Node1</title>
<path fill="none" stroke="#191970" d="M95.2439,-268.9675C103.6099,-267.852 112.3415,-266.6878 120.9325,-265.5423"/>
<polygon fill="#191970" stroke="#191970" points="94.7044,-265.5084 85.2547,-270.2994 95.6296,-272.4469 94.7044,-265.5084"/>
</g>
<!-- Node3 -->
<g id="node4" class="node">
<title>Node3</title>
<polygon fill="none" stroke="#bfbfbf" points="12.5,-228.5 12.5,-247.5 72.5,-247.5 72.5,-228.5 12.5,-228.5"/>
<text text-anchor="middle" x="42.5" y="-235.5" font-family="Helvetica,sans-Serif" font-size="10.00" fill="#000000">Cloneable</text>
</g>
<!-- Node3&#45;&gt;Node1 -->
<g id="edge3" class="edge">
<title>Node3&#45;&gt;Node1</title>
<path fill="none" stroke="#191970" d="M82.7253,-243.3634C94.5766,-244.9436 107.851,-246.7135 120.8108,-248.4414"/>
<polygon fill="#191970" stroke="#191970" points="83.0955,-239.8818 72.7206,-242.0294 82.1703,-246.8204 83.0955,-239.8818"/>
</g>
<!-- Node4 -->
<g id="node5" class="node">
<title>Node4</title>
<polygon fill="none" stroke="#bfbfbf" points="151.5,-209.5 151.5,-228.5 218.5,-228.5 218.5,-209.5 151.5,-209.5"/>
<text text-anchor="middle" x="185" y="-216.5" font-family="Helvetica,sans-Serif" font-size="10.00" fill="#000000">Serializable</text>
</g>
<!-- Node4&#45;&gt;Node0 -->
<g id="edge4" class="edge">
<title>Node4&#45;&gt;Node0</title>
<path fill="none" stroke="#191970" d="M228.6448,-224.4023C246.1803,-226.5728 266.568,-229.0964 284.9849,-231.376"/>
<polygon fill="#191970" stroke="#191970" points="229.0405,-220.9246 218.6862,-223.1696 228.1805,-227.8716 229.0405,-220.9246"/>
</g>
<!-- Node17 -->
<g id="node18" class="node">
<title>Node17</title>
<g id="a_node18"><a xlink:href="classumontreal_1_1ssj_1_1rng_1_1F2NL607.html" target="_top" xlink:title="Implements the RandomStream interface by using as a backbone generator the combination of the WELL607...">
<polygon fill="none" stroke="#000000" points="545.5,-38.5 545.5,-57.5 601.5,-57.5 601.5,-38.5 545.5,-38.5"/>
<text text-anchor="middle" x="573.5" y="-45.5" font-family="Helvetica,sans-Serif" font-size="10.00" fill="#000000">F2NL607</text>
</a>
</g>
</g>
<!-- Node16&#45;&gt;Node17 -->
<g id="edge17" class="edge">
<title>Node16&#45;&gt;Node17</title>
<path fill="none" stroke="#191970" d="M518.1749,-38.0362C527.4695,-39.7102 536.871,-41.4033 545.2214,-42.9072"/>
<polygon fill="#191970" stroke="#191970" points="518.648,-34.5652 508.186,-36.2373 517.4073,-41.4544 518.648,-34.5652"/>
</g>
<!-- Node18 -->
<g id="node19" class="node">
<title>Node18</title>
<g id="a_node19"><a xlink:href="classumontreal_1_1ssj_1_1rng_1_1WELL607.html" target="_top" xlink:title="This class implements the RandomStream interface via inheritance from RandomStreamBase. ">
<polygon fill="none" stroke="#000000" points="544,-.5 544,-19.5 603,-19.5 603,-.5 544,-.5"/>
<text text-anchor="middle" x="573.5" y="-7.5" font-family="Helvetica,sans-Serif" font-size="10.00" fill="#000000">WELL607</text>
</a>
</g>
</g>
<!-- Node16&#45;&gt;Node18 -->
<g id="edge18" class="edge">
<title>Node16&#45;&gt;Node18</title>
<path fill="none" stroke="#191970" d="M518.0798,-19.9809C526.9278,-18.3874 535.8763,-16.7758 543.926,-15.3261"/>
<polygon fill="#191970" stroke="#191970" points="517.4073,-16.5456 508.186,-21.7627 518.648,-23.4348 517.4073,-16.5456"/>
</g>
</g>
</svg>
        <g id="navigator" transform="translate(0 0)" fill="#404254">
                <rect fill="#f2f5e9" fill-opacity="0.5" stroke="#606060" stroke-width=".5" x="0" y="0" width="60" height="60"/>
                <use id="zoomplus" xlink:href="#zoomPlus" x="17" y="9" onmousedown="handleZoom(evt,'in')"/>
                <use id="zoomminus" xlink:href="#zoomMin" x="42" y="9" onmousedown="handleZoom(evt,'out')"/>
                <use id="reset" xlink:href="#resetDef" x="30" y="36" onmousedown="handleReset()"/>
                <g id="arrowUp" xlink:href="#dirArrow" transform="translate(30 24)" onmousedown="handlePan(0,-1)">
                  <use xlink:href="#rim" fill="#404040">
                        <set attributeName="fill" to="#808080" begin="arrowUp.mouseover" end="arrowUp.mouseout"/>
                  </use>
                  <path fill="none" stroke="white" stroke-width="1.5" d="M0,-3.0v7 M-2.5,-0.5L0,-3.0L2.5,-0.5"/>
                </g>
                <g id="arrowRight" xlink:href="#dirArrow" transform="rotate(90) translate(36 -43)" onmousedown="handlePan(1,0)">
                  <use xlink:href="#rim" fill="#404040">
                        <set attributeName="fill" to="#808080" begin="arrowRight.mouseover" end="arrowRight.mouseout"/>
                  </use>
                  <path fill="none" stroke="white" stroke-width="1.5" d="M0,-3.0v7 M-2.5,-0.5L0,-3.0L2.5,-0.5"/>
                </g>
                <g id="arrowDown" xlink:href="#dirArrow" transform="rotate(180) translate(-30 -48)" onmousedown="handlePan(0,1)">
                  <use xlink:href="#rim" fill="#404040">
                        <set attributeName="fill" to="#808080" begin="arrowDown.mouseover" end="arrowDown.mouseout"/>
                  </use>
                  <path fill="none" stroke="white" stroke-width="1.5" d="M0,-3.0v7 M-2.5,-0.5L0,-3.0L2.5,-0.5"/>
                </g>
                <g id="arrowLeft" xlink:href="#dirArrow" transform="rotate(270) translate(-36 17)" onmousedown="handlePan(-1,0)">
                  <use xlink:href="#rim" fill="#404040">
                        <set attributeName="fill" to="#808080" begin="arrowLeft.mouseover" end="arrowLeft.mouseout"/>
                  </use>
                  <path fill="none" stroke="white" stroke-width="1.5" d="M0,-3.0v7 M-2.5,-0.5L0,-3.0L2.5,-0.5"/>
                </g>
        </g>
        <svg viewBox="0 0 15 15" width="100%" height="30px" preserveAspectRatio="xMaxYMin meet">
         <g id="arrow_out" transform="scale(0.3 0.3)">
          <a xlink:href="classumontreal_1_1ssj_1_1rng_1_1RandomStreamBase__inherit__graph_org.svg" target="_base">
           <rect id="button" ry="5" rx="5" y="6" x="6" height="38" width="38"
                fill="#f2f5e9" fill-opacity="0.5" stroke="#606060" stroke-width="1.0"/>
           <path id="arrow"
             d="M 11.500037,31.436501 C 11.940474,20.09759 22.043105,11.32322 32.158766,21.979434 L 37.068811,17.246167 C 37.068811,17.246167 37.088388,32 37.088388,32 L 22.160133,31.978069 C 22.160133,31.978069 26.997745,27.140456 26.997745,27.140456 C 18.528582,18.264221 13.291696,25.230495 11.500037,31.436501 z"
             style="fill:#404040;"/>
          </a>
         </g>
        </svg>
</svg>
