<?xml version="1.0" encoding="UTF-8" standalone="no"?>
<!DOCTYPE svg PUBLIC "-//W3C//DTD SVG 1.1//EN"
 "http://www.w3.org/Graphics/SVG/1.1/DTD/svg11.dtd">
<!-- Generated by graphviz version 2.38.0 (20140413.2041)
 -->
<!-- Title: OldAsianRQMC Pages: 1 -->
<svg width="250pt" height="152pt"
 viewBox="0.00 0.00 249.50 152.00" xmlns="http://www.w3.org/2000/svg" xmlns:xlink="http://www.w3.org/1999/xlink">
<g id="graph0" class="graph" transform="scale(1 1) rotate(0) translate(4 148)">
<title>OldAsianRQMC</title>
<!-- Node3 -->
<g id="node1" class="node"><title>Node3</title>
<polygon fill="#bfbfbf" stroke="black" points="83.5,-0.5 83.5,-19.5 170.5,-19.5 170.5,-0.5 83.5,-0.5"/>
<text text-anchor="middle" x="127" y="-7.5" font-family="Helvetica,sans-Serif" font-size="10.00">OldAsianRQMC</text>
</g>
<!-- Node4 -->
<g id="node2" class="node"><title>Node4</title>
<g id="a_node2"><a xlink:href="classift6561examples_1_1AsianOption.html" target="_top" xlink:title="This class represents an Asian average price call option with European exercise type. ">
<polygon fill="none" stroke="black" points="92,-57.5 92,-76.5 162,-76.5 162,-57.5 92,-57.5"/>
<text text-anchor="middle" x="127" y="-64.5" font-family="Helvetica,sans-Serif" font-size="10.00">AsianOption</text>
</a>
</g>
</g>
<!-- Node4&#45;&gt;Node3 -->
<g id="edge1" class="edge"><title>Node4&#45;&gt;Node3</title>
<path fill="none" stroke="midnightblue" d="M127,-47.1166C127,-37.8173 127,-27.0557 127,-19.7149"/>
<polygon fill="midnightblue" stroke="midnightblue" points="123.5,-47.4062 127,-57.4062 130.5,-47.4063 123.5,-47.4062"/>
</g>
<!-- Node5 -->
<g id="node3" class="node"><title>Node5</title>
<g id="a_node3"><a xlink:href="interfaceumontreal_1_1ssj_1_1mcqmctools_1_1MonteCarloModelDouble.html" target="_top" xlink:title="An interface for a very simple simulation model for which Monte Carlo (MC) and RQMC experiments are t...">
<polygon fill="none" stroke="black" points="0,-124.5 0,-143.5 124,-143.5 124,-124.5 0,-124.5"/>
<text text-anchor="middle" x="62" y="-131.5" font-family="Helvetica,sans-Serif" font-size="10.00">MonteCarloModelDouble</text>
</a>
</g>
</g>
<!-- Node5&#45;&gt;Node4 -->
<g id="edge2" class="edge"><title>Node5&#45;&gt;Node4</title>
<path fill="none" stroke="midnightblue" d="M78.0032,-116.997C90.7504,-104.25 108.105,-86.8947 118.373,-76.6273"/>
<polygon fill="midnightblue" stroke="midnightblue" points="75.3624,-114.688 70.7662,-124.234 80.3122,-119.638 75.3624,-114.688"/>
</g>
<!-- Node6 -->
<g id="node4" class="node"><title>Node6</title>
<g id="a_node4"><a xlink:href="classumontreal_1_1ssj_1_1stochprocess_1_1StochasticProcess.html" target="_top" xlink:title="Abstract base class for a stochastic process &#160;sampled (or observed) at a finite number of time points...">
<polygon fill="none" stroke="black" points="142.5,-124.5 142.5,-143.5 241.5,-143.5 241.5,-124.5 142.5,-124.5"/>
<text text-anchor="middle" x="192" y="-131.5" font-family="Helvetica,sans-Serif" font-size="10.00">StochasticProcess</text>
</a>
</g>
</g>
<!-- Node6&#45;&gt;Node4 -->
<g id="edge3" class="edge"><title>Node6&#45;&gt;Node4</title>
<path fill="none" stroke="#9a32cd" stroke-dasharray="5,2" d="M175.997,-116.997C163.25,-104.25 145.895,-86.8947 135.627,-76.6273"/>
<polygon fill="#9a32cd" stroke="#9a32cd" points="173.688,-119.638 183.234,-124.234 178.638,-114.688 173.688,-119.638"/>
<text text-anchor="middle" x="194.5" y="-98" font-family="Helvetica,sans-Serif" font-size="10.00"> priceProcess</text>
</g>
</g>
</svg>
