<?xml version="1.0" encoding="UTF-8" standalone="no"?>
<!DOCTYPE svg PUBLIC "-//W3C//DTD SVG 1.1//EN"
 "http://www.w3.org/Graphics/SVG/1.1/DTD/svg11.dtd">
<!-- Generated by graphviz version 2.38.0 (20140413.2041)
 -->
<!-- Title: Graphical Class Hierarchy Pages: 1 -->
<svg width="500pt" height="39pt"
 viewBox="0.00 0.00 500.00 39.00" xmlns="http://www.w3.org/2000/svg" xmlns:xlink="http://www.w3.org/1999/xlink">
<g id="graph0" class="graph" transform="scale(1 1) rotate(0) translate(4 35)">
<title>Graphical Class Hierarchy</title>
<!-- Node612 -->
<g id="node1" class="node"><title>Node612</title>
<polygon fill="none" stroke="#bfbfbf" points="0,-6 0,-25 69,-25 69,-6 0,-6"/>
<text text-anchor="middle" x="34.5" y="-13" font-family="Helvetica,sans-Serif" font-size="10.00">AbstractList</text>
</g>
<!-- Node0 -->
<g id="node2" class="node"><title>Node0</title>
<g id="a_node2"><a xlink:href="classumontreal_1_1ssj_1_1util_1_1TransformingList.html" target="_top" xlink:title="Represents a list that dynamically transforms the elements of another list. ">
<polygon fill="none" stroke="black" points="105,-0.5 105,-30.5 221,-30.5 221,-0.5 105,-0.5"/>
<text text-anchor="start" x="113" y="-18.5" font-family="Helvetica,sans-Serif" font-size="10.00">TransformingList&lt; OE,</text>
<text text-anchor="middle" x="163" y="-7.5" font-family="Helvetica,sans-Serif" font-size="10.00"> IE &gt;</text>
</a>
</g>
</g>
<!-- Node612&#45;&gt;Node0 -->
<g id="edge1" class="edge"><title>Node612&#45;&gt;Node0</title>
<path fill="none" stroke="midnightblue" d="M79.2058,-15.5C87.4555,-15.5 96.1971,-15.5 104.789,-15.5"/>
<polygon fill="midnightblue" stroke="midnightblue" points="79.0676,-12.0001 69.0676,-15.5 79.0675,-19.0001 79.0676,-12.0001"/>
</g>
<!-- Node1 -->
<g id="node3" class="node"><title>Node1</title>
<g id="a_node3"><a xlink:href="classumontreal_1_1ssj_1_1simevents_1_1ListWithStat.html" target="_top" xlink:title="Implements a list with integrated statistical probes to provide automatic collection of statistics on...">
<polygon fill="none" stroke="black" points="257,-6 257,-25 352,-25 352,-6 257,-6"/>
<text text-anchor="middle" x="304.5" y="-13" font-family="Helvetica,sans-Serif" font-size="10.00">ListWithStat&lt; E &gt;</text>
</a>
</g>
</g>
<!-- Node0&#45;&gt;Node1 -->
<g id="edge2" class="edge"><title>Node0&#45;&gt;Node1</title>
<path fill="none" stroke="midnightblue" d="M231.261,-15.5C239.928,-15.5 248.647,-15.5 256.88,-15.5"/>
<polygon fill="midnightblue" stroke="midnightblue" points="231.143,-12.0001 221.142,-15.5 231.142,-19.0001 231.143,-12.0001"/>
</g>
<!-- Node2 -->
<g id="node4" class="node"><title>Node2</title>
<g id="a_node4"><a xlink:href="classumontreal_1_1ssj_1_1simevents_1_1LinkedListStat.html" target="_top" xlink:title="This class extends ListWithStat, and uses a linked list as the internal data structure. ">
<polygon fill="none" stroke="black" points="388,-6 388,-25 492,-25 492,-6 388,-6"/>
<text text-anchor="middle" x="440" y="-13" font-family="Helvetica,sans-Serif" font-size="10.00">LinkedListStat&lt; E &gt;</text>
</a>
</g>
</g>
<!-- Node1&#45;&gt;Node2 -->
<g id="edge3" class="edge"><title>Node1&#45;&gt;Node2</title>
<path fill="none" stroke="midnightblue" d="M362.283,-15.5C370.673,-15.5 379.279,-15.5 387.553,-15.5"/>
<polygon fill="midnightblue" stroke="midnightblue" points="362.192,-12.0001 352.192,-15.5 362.192,-19.0001 362.192,-12.0001"/>
</g>
</g>
</svg>
