<?xml version="1.0" encoding="UTF-8" standalone="no"?>
<!DOCTYPE svg PUBLIC "-//W3C//DTD SVG 1.1//EN"
 "http://www.w3.org/Graphics/SVG/1.1/DTD/svg11.dtd">
<!-- Generated by graphviz version 2.40.1 (0)
 -->
<!-- Title: Graphical Class Hierarchy Pages: 1 -->
<svg width="365pt" height="66pt"
 viewBox="0.00 0.00 365.00 66.00" xmlns="http://www.w3.org/2000/svg" xmlns:xlink="http://www.w3.org/1999/xlink">
<g id="graph0" class="graph" transform="scale(1 1) rotate(0) translate(4 62)">
<title>Graphical Class Hierarchy</title>
<!-- Node0 -->
<g id="node1" class="node">
<title>Node0</title>
<g id="a_node1"><a xlink:href="classumontreal_1_1ssj_1_1latnetbuilder_1_1Search.html" target="_top" xlink:title="Abstract class for the search of highly uniform point sets with LatNet Builder.">
<polygon fill="none" stroke="#000000" points="0,-19.5 0,-38.5 47,-38.5 47,-19.5 0,-19.5"/>
<text text-anchor="middle" x="23.5" y="-26.5" font-family="Helvetica,sans-Serif" font-size="10.00" fill="#000000">Search</text>
</a>
</g>
</g>
<!-- Node1 -->
<g id="node2" class="node">
<title>Node1</title>
<g id="a_node2"><a xlink:href="classumontreal_1_1ssj_1_1latnetbuilder_1_1DigitalNetSearch.html" target="_top" xlink:title="Class for the search of good digital nets using LatNet Builder.">
<polygon fill="none" stroke="#000000" points="94,-38.5 94,-57.5 185,-57.5 185,-38.5 94,-38.5"/>
<text text-anchor="middle" x="139.5" y="-45.5" font-family="Helvetica,sans-Serif" font-size="10.00" fill="#000000">DigitalNetSearch</text>
</a>
</g>
</g>
<!-- Node0&#45;&gt;Node1 -->
<g id="edge1" class="edge">
<title>Node0&#45;&gt;Node1</title>
<path fill="none" stroke="#191970" d="M57.2284,-34.5245C68.6275,-36.3916 81.5527,-38.5086 93.7253,-40.5024"/>
<polygon fill="#191970" stroke="#191970" points="57.6885,-31.0533 47.2542,-32.8908 56.557,-37.9612 57.6885,-31.0533"/>
</g>
<!-- Node3 -->
<g id="node4" class="node">
<title>Node3</title>
<g id="a_node4"><a xlink:href="classumontreal_1_1ssj_1_1latnetbuilder_1_1OrdinaryLatticeSearch.html" target="_top" xlink:title="Class for the search of good rank&#45;1 ordinary lattice rules using LatNet Builder.">
<polygon fill="none" stroke="#000000" points="83,-.5 83,-19.5 196,-19.5 196,-.5 83,-.5"/>
<text text-anchor="middle" x="139.5" y="-7.5" font-family="Helvetica,sans-Serif" font-size="10.00" fill="#000000">OrdinaryLatticeSearch</text>
</a>
</g>
</g>
<!-- Node0&#45;&gt;Node3 -->
<g id="edge3" class="edge">
<title>Node0&#45;&gt;Node3</title>
<path fill="none" stroke="#191970" d="M57.2699,-23.4687C65.2673,-22.1588 74.014,-20.7262 82.7239,-19.2995"/>
<polygon fill="#191970" stroke="#191970" points="56.557,-20.0388 47.2542,-25.1092 57.6885,-26.9467 56.557,-20.0388"/>
</g>
<!-- Node2 -->
<g id="node3" class="node">
<title>Node2</title>
<g id="a_node3"><a xlink:href="classumontreal_1_1ssj_1_1latnetbuilder_1_1PolynomialLatticeSearch.html" target="_top" xlink:title="Class for the search of good polynomial lattice rules using LatNet Builder.">
<polygon fill="none" stroke="#000000" points="232,-38.5 232,-57.5 357,-57.5 357,-38.5 232,-38.5"/>
<text text-anchor="middle" x="294.5" y="-45.5" font-family="Helvetica,sans-Serif" font-size="10.00" fill="#000000">PolynomialLatticeSearch</text>
</a>
</g>
</g>
<!-- Node1&#45;&gt;Node2 -->
<g id="edge2" class="edge">
<title>Node1&#45;&gt;Node2</title>
<path fill="none" stroke="#191970" d="M195.3724,-48C207.2364,-48 219.8354,-48 231.9303,-48"/>
<polygon fill="#191970" stroke="#191970" points="195.1668,-44.5001 185.1668,-48 195.1667,-51.5001 195.1668,-44.5001"/>
</g>
</g>
</svg>
