<?xml version="1.0" encoding="UTF-8" standalone="no"?>
<!DOCTYPE svg PUBLIC "-//W3C//DTD SVG 1.1//EN"
 "http://www.w3.org/Graphics/SVG/1.1/DTD/svg11.dtd">
<!-- Generated by graphviz version 2.40.1 (20161225.0304)
 -->
<!-- Title: Graphical Class Hierarchy Pages: 1 -->
<svg width="251pt" height="180pt"
 viewBox="0.00 0.00 251.00 180.00" xmlns="http://www.w3.org/2000/svg" xmlns:xlink="http://www.w3.org/1999/xlink">
<g id="graph0" class="graph" transform="scale(1 1) rotate(0) translate(4 176)">
<title>Graphical Class Hierarchy</title>
<!-- Node0 -->
<g id="node1" class="node">
<title>Node0</title>
<g id="a_node1"><a xlink:href="classumontreal_1_1ssj_1_1util_1_1AbstractChrono.html" target="_top" xlink:title="AbstractChrono is a class that acts as an interface to the system clock and calculates the CPU or sys...">
<polygon fill="none" stroke="#000000" points="0,-76.5 0,-95.5 85,-95.5 85,-76.5 0,-76.5"/>
<text text-anchor="middle" x="42.5" y="-83.5" font-family="Helvetica,sans-Serif" font-size="10.00" fill="#000000">AbstractChrono</text>
</a>
</g>
</g>
<!-- Node1 -->
<g id="node2" class="node">
<title>Node1</title>
<g id="a_node2"><a xlink:href="classumontreal_1_1ssj_1_1util_1_1Chrono.html" target="_top" xlink:title="The Chrono class extends the umontreal.ssj.util.AbstractChrono class and computes the CPU time for th...">
<polygon fill="none" stroke="#000000" points="158,-152.5 158,-171.5 206,-171.5 206,-152.5 158,-152.5"/>
<text text-anchor="middle" x="182" y="-159.5" font-family="Helvetica,sans-Serif" font-size="10.00" fill="#000000">Chrono</text>
</a>
</g>
</g>
<!-- Node0&#45;&gt;Node1 -->
<g id="edge1" class="edge">
<title>Node0&#45;&gt;Node1</title>
<path fill="none" stroke="#191970" d="M60.8358,-101.9945C76.07,-114.5983 98.7718,-131.8484 121,-143 132.5998,-148.8195 146.3382,-153.2882 157.8375,-156.4254"/>
<polygon fill="#191970" stroke="#191970" points="63.0895,-99.3166 53.1911,-95.5387 58.5731,-104.6648 63.0895,-99.3166"/>
</g>
<!-- Node2 -->
<g id="node3" class="node">
<title>Node2</title>
<g id="a_node3"><a xlink:href="classumontreal_1_1ssj_1_1util_1_1ChronoSingleThread.html" target="_top" xlink:title="This class is deprecated but kept for compatibility with older versions of SSJ. ">
<polygon fill="none" stroke="#000000" points="129.5,-114.5 129.5,-133.5 234.5,-133.5 234.5,-114.5 129.5,-114.5"/>
<text text-anchor="middle" x="182" y="-121.5" font-family="Helvetica,sans-Serif" font-size="10.00" fill="#000000">ChronoSingleThread</text>
</a>
</g>
</g>
<!-- Node0&#45;&gt;Node2 -->
<g id="edge2" class="edge">
<title>Node0&#45;&gt;Node2</title>
<path fill="none" stroke="#191970" d="M87.4564,-98.2462C106.6848,-103.484 128.8031,-109.5091 146.8095,-114.4141"/>
<polygon fill="#191970" stroke="#191970" points="88.2701,-94.8404 77.7017,-95.589 86.4303,-101.5943 88.2701,-94.8404"/>
</g>
<!-- Node3 -->
<g id="node4" class="node">
<title>Node3</title>
<g id="a_node4"><a xlink:href="classumontreal_1_1ssj_1_1util_1_1GlobalCPUTimeChrono.html" target="_top" xlink:title="Extends the AbstractChrono class to compute the global CPU time used by the Java Virtual Machine...">
<polygon fill="none" stroke="#000000" points="122.5,-76.5 122.5,-95.5 241.5,-95.5 241.5,-76.5 122.5,-76.5"/>
<text text-anchor="middle" x="182" y="-83.5" font-family="Helvetica,sans-Serif" font-size="10.00" fill="#000000">GlobalCPUTimeChrono</text>
</a>
</g>
</g>
<!-- Node0&#45;&gt;Node3 -->
<g id="edge3" class="edge">
<title>Node0&#45;&gt;Node3</title>
<path fill="none" stroke="#191970" d="M95.3037,-86C104.1689,-86 113.4229,-86 122.4443,-86"/>
<polygon fill="#191970" stroke="#191970" points="95.1126,-82.5001 85.1126,-86 95.1126,-89.5001 95.1126,-82.5001"/>
</g>
<!-- Node4 -->
<g id="node5" class="node">
<title>Node4</title>
<g id="a_node5"><a xlink:href="classumontreal_1_1ssj_1_1util_1_1SystemTimeChrono.html" target="_top" xlink:title="Extends the AbstractChrono class to compute the total system time using Java’s builtin System...">
<polygon fill="none" stroke="#000000" points="130,-38.5 130,-57.5 234,-57.5 234,-38.5 130,-38.5"/>
<text text-anchor="middle" x="182" y="-45.5" font-family="Helvetica,sans-Serif" font-size="10.00" fill="#000000">SystemTimeChrono</text>
</a>
</g>
</g>
<!-- Node0&#45;&gt;Node4 -->
<g id="edge4" class="edge">
<title>Node0&#45;&gt;Node4</title>
<path fill="none" stroke="#191970" d="M87.4564,-73.7538C106.6848,-68.516 128.8031,-62.4909 146.8095,-57.5859"/>
<polygon fill="#191970" stroke="#191970" points="86.4303,-70.4057 77.7017,-76.411 88.2701,-77.1596 86.4303,-70.4057"/>
</g>
<!-- Node5 -->
<g id="node6" class="node">
<title>Node5</title>
<g id="a_node6"><a xlink:href="classumontreal_1_1ssj_1_1util_1_1ThreadCPUTimeChrono.html" target="_top" xlink:title="Extends the AbstractChrono class to compute the CPU time for a single thread. ">
<polygon fill="none" stroke="#000000" points="121,-.5 121,-19.5 243,-19.5 243,-.5 121,-.5"/>
<text text-anchor="middle" x="182" y="-7.5" font-family="Helvetica,sans-Serif" font-size="10.00" fill="#000000">ThreadCPUTimeChrono</text>
</a>
</g>
</g>
<!-- Node0&#45;&gt;Node5 -->
<g id="edge5" class="edge">
<title>Node0&#45;&gt;Node5</title>
<path fill="none" stroke="#191970" d="M60.8358,-70.0055C76.07,-57.4017 98.7718,-40.1516 121,-29 128.3366,-25.3193 136.5288,-22.1789 144.4688,-19.5741"/>
<polygon fill="#191970" stroke="#191970" points="58.5731,-67.3352 53.1911,-76.4613 63.0895,-72.6834 58.5731,-67.3352"/>
</g>
</g>
</svg>
