<?xml version="1.0" encoding="UTF-8" standalone="no"?>
<!DOCTYPE svg PUBLIC "-//W3C//DTD SVG 1.1//EN"
 "http://www.w3.org/Graphics/SVG/1.1/DTD/svg11.dtd">
<!-- Generated by graphviz version 2.40.1 (20161225.0304)
 -->
<!-- Title: Graphical Class Hierarchy Pages: 1 -->
<svg width="302pt" height="66pt"
 viewBox="0.00 0.00 302.00 66.00" xmlns="http://www.w3.org/2000/svg" xmlns:xlink="http://www.w3.org/1999/xlink">
<g id="graph0" class="graph" transform="scale(1 1) rotate(0) translate(4 62)">
<title>Graphical Class Hierarchy</title>
<!-- Node0 -->
<g id="node1" class="node">
<title>Node0</title>
<g id="a_node1"><a xlink:href="classumontreal_1_1ssj_1_1probdistmulti_1_1DiscreteDistributionIntMulti.html" target="_top" xlink:title="Classes implementing multi&#45;dimensional discrete distributions over the integers should inherit from t...">
<polygon fill="none" stroke="#000000" points="0,-19.5 0,-38.5 135,-38.5 135,-19.5 0,-19.5"/>
<text text-anchor="middle" x="67.5" y="-26.5" font-family="Helvetica,sans-Serif" font-size="10.00" fill="#000000">DiscreteDistributionIntMulti</text>
</a>
</g>
</g>
<!-- Node1 -->
<g id="node2" class="node">
<title>Node1</title>
<g id="a_node2"><a xlink:href="classumontreal_1_1ssj_1_1probdistmulti_1_1MultinomialDist.html" target="_top" xlink:title="Implements the abstract class DiscreteDistributionIntMulti for the multinomial distribution with para...">
<polygon fill="none" stroke="#000000" points="190.5,-38.5 190.5,-57.5 274.5,-57.5 274.5,-38.5 190.5,-38.5"/>
<text text-anchor="middle" x="232.5" y="-45.5" font-family="Helvetica,sans-Serif" font-size="10.00" fill="#000000">MultinomialDist</text>
</a>
</g>
</g>
<!-- Node0&#45;&gt;Node1 -->
<g id="edge1" class="edge">
<title>Node0&#45;&gt;Node1</title>
<path fill="none" stroke="#191970" d="M145.2418,-37.9521C160.7782,-39.7411 176.5404,-41.5562 190.3146,-43.1423"/>
<polygon fill="#191970" stroke="#191970" points="145.4227,-34.4499 135.0879,-36.7828 144.6218,-41.4039 145.4227,-34.4499"/>
</g>
<!-- Node2 -->
<g id="node3" class="node">
<title>Node2</title>
<g id="a_node3"><a xlink:href="classumontreal_1_1ssj_1_1probdistmulti_1_1NegativeMultinomialDist.html" target="_top" xlink:title="Implements the class DiscreteDistributionIntMulti for the negative multinomial distribution with para...">
<polygon fill="none" stroke="#000000" points="171,-.5 171,-19.5 294,-19.5 294,-.5 171,-.5"/>
<text text-anchor="middle" x="232.5" y="-7.5" font-family="Helvetica,sans-Serif" font-size="10.00" fill="#000000">NegativeMultinomialDist</text>
</a>
</g>
</g>
<!-- Node0&#45;&gt;Node2 -->
<g id="edge2" class="edge">
<title>Node0&#45;&gt;Node2</title>
<path fill="none" stroke="#191970" d="M145.153,-20.0581C153.774,-19.0654 162.4658,-18.0645 170.8502,-17.0991"/>
<polygon fill="#191970" stroke="#191970" points="144.6218,-16.5961 135.0879,-21.2172 145.4227,-23.5501 144.6218,-16.5961"/>
</g>
</g>
</svg>
