<?xml version="1.0" encoding="UTF-8" standalone="no"?>
<!DOCTYPE svg PUBLIC "-//W3C//DTD SVG 1.1//EN"
 "http://www.w3.org/Graphics/SVG/1.1/DTD/svg11.dtd">
<!-- Generated by graphviz version 2.40.1 (0)
 -->
<!-- Title: Graphical Class Hierarchy Pages: 1 -->
<svg width="448pt" height="157pt"
 viewBox="0.00 0.00 448.00 157.00" xmlns="http://www.w3.org/2000/svg" xmlns:xlink="http://www.w3.org/1999/xlink">
<g id="graph0" class="graph" transform="scale(1 1) rotate(0) translate(4 153)">
<title>Graphical Class Hierarchy</title>
<!-- Node0 -->
<g id="node1" class="node">
<title>Node0</title>
<g id="a_node1"><a xlink:href="interfaceumontreal_1_1ssj_1_1util_1_1sort_1_1MultiDimSort.html" target="_top" xlink:title="This interface is meant to be implemented by certain multivariate sorting algorithms that sort object...">
<polygon fill="none" stroke="#000000" points="0,-66.5 0,-85.5 98,-85.5 98,-66.5 0,-66.5"/>
<text text-anchor="middle" x="49" y="-73.5" font-family="Helvetica,sans-Serif" font-size="10.00" fill="#000000">MultiDimSort&lt; T &gt;</text>
</a>
</g>
</g>
<!-- Node1 -->
<g id="node2" class="node">
<title>Node1</title>
<g id="a_node2"><a xlink:href="classumontreal_1_1ssj_1_1util_1_1sort_1_1florian_1_1MultDimToOneDimSort.html" target="_top" xlink:title="This abstract class takes multi&#45;dimensional objects such as arrays or #MultiDim&#39;s,...">
<polygon fill="none" stroke="#000000" points="157,-110.5 157,-129.5 275,-129.5 275,-110.5 157,-110.5"/>
<text text-anchor="middle" x="216" y="-117.5" font-family="Helvetica,sans-Serif" font-size="10.00" fill="#000000">MultDimToOneDimSort</text>
</a>
</g>
</g>
<!-- Node0&#45;&gt;Node1 -->
<g id="edge1" class="edge">
<title>Node0&#45;&gt;Node1</title>
<path fill="none" stroke="#191970" d="M91.6216,-88.3582C105.1442,-92.1921 120.1738,-96.3632 134,-100 147.4628,-103.5412 162.226,-107.2084 175.4704,-110.4204"/>
<polygon fill="#191970" stroke="#191970" points="92.1959,-84.8826 81.6195,-85.5066 90.2767,-91.6143 92.1959,-84.8826"/>
</g>
<!-- Node4 -->
<g id="node5" class="node">
<title>Node4</title>
<g id="a_node5"><a xlink:href="interfaceumontreal_1_1ssj_1_1util_1_1sort_1_1MultiDimSort01.html" target="_top" xlink:title="This interface extends MultiDimSort&lt;T&gt; to implement multivariate sorting algorithms that sort points ...">
<polygon fill="none" stroke="#000000" points="147.5,-61 147.5,-91 284.5,-91 284.5,-61 147.5,-61"/>
<text text-anchor="start" x="155.5" y="-79" font-family="Helvetica,sans-Serif" font-size="10.00" fill="#000000">MultiDimSort01&lt; T extends</text>
<text text-anchor="middle" x="216" y="-68" font-family="Helvetica,sans-Serif" font-size="10.00" fill="#000000"> MultiDim01 &gt;</text>
</a>
</g>
</g>
<!-- Node0&#45;&gt;Node4 -->
<g id="edge4" class="edge">
<title>Node0&#45;&gt;Node4</title>
<path fill="none" stroke="#191970" d="M108.5468,-76C121.1166,-76 134.4775,-76 147.3518,-76"/>
<polygon fill="#191970" stroke="#191970" points="108.2023,-72.5001 98.2023,-76 108.2022,-79.5001 108.2023,-72.5001"/>
</g>
<!-- Node5 -->
<g id="node6" class="node">
<title>Node5</title>
<g id="a_node6"><a xlink:href="interfaceumontreal_1_1ssj_1_1util_1_1sort_1_1MultiDimSortComparable.html" target="_top" xlink:title="This interface extends MultiDimSort&lt;T&gt; to implement multivariate sorting algorithms that sort objects...">
<polygon fill="none" stroke="#000000" points="134,-.5 134,-41.5 298,-41.5 298,-.5 134,-.5"/>
<text text-anchor="start" x="142" y="-29.5" font-family="Helvetica,sans-Serif" font-size="10.00" fill="#000000">MultiDimSortComparable</text>
<text text-anchor="start" x="142" y="-18.5" font-family="Helvetica,sans-Serif" font-size="10.00" fill="#000000">&lt; T extends MultiDimComparable</text>
<text text-anchor="middle" x="216" y="-7.5" font-family="Helvetica,sans-Serif" font-size="10.00" fill="#000000">&lt;? super T &gt;</text>
</a>
</g>
</g>
<!-- Node0&#45;&gt;Node5 -->
<g id="edge5" class="edge">
<title>Node0&#45;&gt;Node5</title>
<path fill="none" stroke="#191970" d="M87.5939,-63.2894C107.2065,-56.8302 131.5241,-48.8214 153.7041,-41.5166"/>
<polygon fill="#191970" stroke="#191970" points="86.4925,-59.9672 78.0892,-66.4197 88.6822,-66.6159 86.4925,-59.9672"/>
</g>
<!-- Node2 -->
<g id="node3" class="node">
<title>Node2</title>
<g id="a_node3"><a xlink:href="classumontreal_1_1ssj_1_1markovchainrqmc_1_1florian_1_1chemicalReactionNetworks_1_1PKASort.html" target="_top" xlink:title="Implements a #MultDimToOneDimSort for the #PKA class, where the score function is a multivariate poly...">
<polygon fill="none" stroke="#000000" points="359.5,-129.5 359.5,-148.5 414.5,-148.5 414.5,-129.5 359.5,-129.5"/>
<text text-anchor="middle" x="387" y="-136.5" font-family="Helvetica,sans-Serif" font-size="10.00" fill="#000000">PKASort</text>
</a>
</g>
</g>
<!-- Node1&#45;&gt;Node2 -->
<g id="edge2" class="edge">
<title>Node1&#45;&gt;Node2</title>
<path fill="none" stroke="#191970" d="M285.5199,-127.7244C311.4424,-130.6047 339.3971,-133.7108 359.3893,-135.9321"/>
<polygon fill="#191970" stroke="#191970" points="285.653,-124.2178 275.3276,-126.592 284.8799,-131.175 285.653,-124.2178"/>
</g>
<!-- Node3 -->
<g id="node4" class="node">
<title>Node3</title>
<g id="a_node4"><a xlink:href="classumontreal_1_1ssj_1_1markovchainrqmc_1_1florian_1_1chemicalReactionNetworks_1_1SchloeglSystemSort.html" target="_top" xlink:title="Implements a #MultDimToOneDimSort for the #SchloeglSystem class, where the score function is a bivari...">
<polygon fill="none" stroke="#000000" points="334,-91.5 334,-110.5 440,-110.5 440,-91.5 334,-91.5"/>
<text text-anchor="middle" x="387" y="-98.5" font-family="Helvetica,sans-Serif" font-size="10.00" fill="#000000">SchloeglSystemSort</text>
</a>
</g>
</g>
<!-- Node1&#45;&gt;Node3 -->
<g id="edge3" class="edge">
<title>Node1&#45;&gt;Node3</title>
<path fill="none" stroke="#191970" d="M285.2735,-112.3029C301.4492,-110.5056 318.4292,-108.619 333.7816,-106.9132"/>
<polygon fill="#191970" stroke="#191970" points="284.8799,-108.825 275.3276,-113.408 285.653,-115.7822 284.8799,-108.825"/>
</g>
</g>
</svg>
