<?xml version="1.0" encoding="UTF-8" standalone="no"?>
<!DOCTYPE svg PUBLIC "-//W3C//DTD SVG 1.1//EN"
 "http://www.w3.org/Graphics/SVG/1.1/DTD/svg11.dtd">
<!-- Generated by graphviz version 2.38.0 (20140413.2041)
 -->
<!-- Title: Graphical Class Hierarchy Pages: 1 -->
<svg width="184pt" height="66pt"
 viewBox="0.00 0.00 184.00 66.00" xmlns="http://www.w3.org/2000/svg" xmlns:xlink="http://www.w3.org/1999/xlink">
<g id="graph0" class="graph" transform="scale(1 1) rotate(0) translate(4 62)">
<title>Graphical Class Hierarchy</title>
<!-- Node0 -->
<g id="node1" class="node"><title>Node0</title>
<g id="a_node1"><a xlink:href="classumontreal_1_1ssj_1_1simexp_1_1SimExp.html" target="_top" xlink:title="Represents a framework for performing experiments using simulation. ">
<polygon fill="none" stroke="black" points="0,-19.5 0,-38.5 51,-38.5 51,-19.5 0,-19.5"/>
<text text-anchor="middle" x="25.5" y="-26.5" font-family="Helvetica,sans-Serif" font-size="10.00">SimExp</text>
</a>
</g>
</g>
<!-- Node1 -->
<g id="node2" class="node"><title>Node1</title>
<g id="a_node2"><a xlink:href="classumontreal_1_1ssj_1_1simexp_1_1BatchMeansSim.html" target="_top" xlink:title="Performs a simulation experiment on an infinite horizon, for estimating steady&#45;state performance meas...">
<polygon fill="none" stroke="black" points="87,-38.5 87,-57.5 176,-57.5 176,-38.5 87,-38.5"/>
<text text-anchor="middle" x="131.5" y="-45.5" font-family="Helvetica,sans-Serif" font-size="10.00">BatchMeansSim</text>
</a>
</g>
</g>
<!-- Node0&#45;&gt;Node1 -->
<g id="edge1" class="edge"><title>Node0&#45;&gt;Node1</title>
<path fill="none" stroke="midnightblue" d="M61.1662,-35.3333C69.4114,-36.8396 78.3131,-38.4659 86.9008,-40.0348"/>
<polygon fill="midnightblue" stroke="midnightblue" points="61.6128,-31.857 51.1465,-33.5027 60.3547,-38.743 61.6128,-31.857"/>
</g>
<!-- Node2 -->
<g id="node3" class="node"><title>Node2</title>
<g id="a_node3"><a xlink:href="classumontreal_1_1ssj_1_1simexp_1_1RepSim.html" target="_top" xlink:title="Performs a simulation experiment on a finite horizon, using a certain number of independent runs or r...">
<polygon fill="none" stroke="black" points="105.5,-0.5 105.5,-19.5 157.5,-19.5 157.5,-0.5 105.5,-0.5"/>
<text text-anchor="middle" x="131.5" y="-7.5" font-family="Helvetica,sans-Serif" font-size="10.00">RepSim</text>
</a>
</g>
</g>
<!-- Node0&#45;&gt;Node2 -->
<g id="edge2" class="edge"><title>Node0&#45;&gt;Node2</title>
<path fill="none" stroke="midnightblue" d="M61.2218,-22.6566C75.6462,-20.0214 92.0719,-17.0205 105.308,-14.6024"/>
<polygon fill="midnightblue" stroke="midnightblue" points="60.3547,-19.257 51.1465,-24.4973 61.6128,-26.143 60.3547,-19.257"/>
</g>
</g>
</svg>
