<?xml version="1.0" encoding="UTF-8" standalone="no"?>
<!DOCTYPE svg PUBLIC "-//W3C//DTD SVG 1.1//EN"
 "http://www.w3.org/Graphics/SVG/1.1/DTD/svg11.dtd">
<!-- Generated by graphviz version 2.38.0 (20140413.2041)
 -->
<!-- Title: Graphical Class Hierarchy Pages: 1 -->
<svg width="335pt" height="66pt"
 viewBox="0.00 0.00 335.00 66.00" xmlns="http://www.w3.org/2000/svg" xmlns:xlink="http://www.w3.org/1999/xlink">
<g id="graph0" class="graph" transform="scale(1 1) rotate(0) translate(4 62)">
<title>Graphical Class Hierarchy</title>
<!-- Node613 -->
<g id="node1" class="node"><title>Node613</title>
<polygon fill="none" stroke="#bfbfbf" points="38.5,-38.5 38.5,-57.5 94.5,-57.5 94.5,-38.5 38.5,-38.5"/>
<text text-anchor="middle" x="66.5" y="-45.5" font-family="Helvetica,sans-Serif" font-size="10.00">ArrayList</text>
</g>
<!-- Node2 -->
<g id="node2" class="node"><title>Node2</title>
<g id="a_node2"><a xlink:href="classumontreal_1_1ssj_1_1mcqmctools_1_1anova_1_1ObservationCollectorList.html" target="_top" target="_top" xlink:title="ObservationCollectorList\&lt; E \&gt;">
<polygon fill="none" stroke="black" points="173.5,-38.5 173.5,-57.5 322.5,-57.5 322.5,-38.5 173.5,-38.5"/>
<text text-anchor="middle" x="248" y="-45.5" font-family="Helvetica,sans-Serif" font-size="10.00">ObservationCollectorList&lt; E &gt;</text>
</a>
</g>
</g>
<!-- Node613&#45;&gt;Node2 -->
<g id="edge1" class="edge"><title>Node613&#45;&gt;Node2</title>
<path fill="none" stroke="midnightblue" d="M104.895,-48C124.7,-48 149.736,-48 173.256,-48"/>
<polygon fill="midnightblue" stroke="midnightblue" points="104.762,-44.5001 94.7622,-48 104.762,-51.5001 104.762,-44.5001"/>
</g>
<!-- Node0 -->
<g id="node3" class="node"><title>Node0</title>
<g id="a_node3"><a xlink:href="interfaceumontreal_1_1ssj_1_1mcqmctools_1_1anova_1_1ObservationCollector.html" target="_top" target="_top" xlink:title="ObservationCollector\&lt; E \&gt;">
<polygon fill="none" stroke="black" points="0,-0.5 0,-19.5 133,-19.5 133,-0.5 0,-0.5"/>
<text text-anchor="middle" x="66.5" y="-7.5" font-family="Helvetica,sans-Serif" font-size="10.00">ObservationCollector&lt; E &gt;</text>
</a>
</g>
</g>
<!-- Node0&#45;&gt;Node2 -->
<g id="edge3" class="edge"><title>Node0&#45;&gt;Node2</title>
<path fill="none" stroke="midnightblue" d="M122.677,-21.681C148.133,-27.0699 177.968,-33.3861 202.03,-38.4799"/>
<polygon fill="midnightblue" stroke="midnightblue" points="123.304,-18.2361 112.795,-19.589 121.854,-25.0843 123.304,-18.2361"/>
</g>
<!-- Node1 -->
<g id="node4" class="node"><title>Node1</title>
<g id="a_node4"><a xlink:href="classumontreal_1_1ssj_1_1mcqmctools_1_1anova_1_1BasicObservationCollector.html" target="_top" target="_top" xlink:title="Does nothing but counting the total number of observations. ">
<polygon fill="none" stroke="black" points="169,-0.5 169,-19.5 327,-19.5 327,-0.5 169,-0.5"/>
<text text-anchor="middle" x="248" y="-7.5" font-family="Helvetica,sans-Serif" font-size="10.00">BasicObservationCollector&lt; E &gt;</text>
</a>
</g>
</g>
<!-- Node0&#45;&gt;Node1 -->
<g id="edge2" class="edge"><title>Node0&#45;&gt;Node1</title>
<path fill="none" stroke="midnightblue" d="M143.266,-10C151.714,-10 160.331,-10 168.809,-10"/>
<polygon fill="midnightblue" stroke="midnightblue" points="143.066,-6.5001 133.066,-10 143.066,-13.5001 143.066,-6.5001"/>
</g>
</g>
</svg>
