<?xml version="1.0" encoding="UTF-8" standalone="no"?>
<!DOCTYPE svg PUBLIC "-//W3C//DTD SVG 1.1//EN"
 "http://www.w3.org/Graphics/SVG/1.1/DTD/svg11.dtd">
<!-- Generated by graphviz version 2.40.1 (0)
 -->
<!-- Title: Graphical Class Hierarchy Pages: 1 -->
<svg width="426pt" height="123pt"
 viewBox="0.00 0.00 426.00 123.00" xmlns="http://www.w3.org/2000/svg" xmlns:xlink="http://www.w3.org/1999/xlink">
<g id="graph0" class="graph" transform="scale(1 1) rotate(0) translate(4 119)">
<title>Graphical Class Hierarchy</title>
<!-- Node0 -->
<g id="node1" class="node">
<title>Node0</title>
<g id="a_node1"><a xlink:href="classumontreal_1_1ssj_1_1randvarmulti_1_1RandomMultivariateGen.html" target="_top" xlink:title="This class is the multivariate counterpart of umontreal.ssj.randvar.RandomVariateGen.">
<polygon fill="none" stroke="#000000" points="0,-57.5 0,-76.5 122,-76.5 122,-57.5 0,-57.5"/>
<text text-anchor="middle" x="61" y="-64.5" font-family="Helvetica,sans-Serif" font-size="10.00" fill="#000000">RandomMultivariateGen</text>
</a>
</g>
</g>
<!-- Node1 -->
<g id="node2" class="node">
<title>Node1</title>
<g id="a_node2"><a xlink:href="classumontreal_1_1ssj_1_1randvarmulti_1_1DirichletGen.html" target="_top" xlink:title="Extends RandomMultivariateGen for a Dirichlet   distribution.">
<polygon fill="none" stroke="#000000" points="171.5,-95.5 171.5,-114.5 242.5,-114.5 242.5,-95.5 171.5,-95.5"/>
<text text-anchor="middle" x="207" y="-102.5" font-family="Helvetica,sans-Serif" font-size="10.00" fill="#000000">DirichletGen</text>
</a>
</g>
</g>
<!-- Node0&#45;&gt;Node1 -->
<g id="edge1" class="edge">
<title>Node0&#45;&gt;Node1</title>
<path fill="none" stroke="#191970" d="M107.6879,-79.1516C128.3467,-84.5286 152.2512,-90.7503 171.4303,-95.7421"/>
<polygon fill="#191970" stroke="#191970" points="108.4012,-75.7207 97.842,-76.589 106.6379,-82.4951 108.4012,-75.7207"/>
</g>
<!-- Node2 -->
<g id="node3" class="node">
<title>Node2</title>
<g id="a_node3"><a xlink:href="classumontreal_1_1ssj_1_1randvarmulti_1_1IIDMultivariateGen.html" target="_top" xlink:title="Extends RandomMultivariateGen for a vector of independent identically distributed (i....">
<polygon fill="none" stroke="#000000" points="158,-57.5 158,-76.5 256,-76.5 256,-57.5 158,-57.5"/>
<text text-anchor="middle" x="207" y="-64.5" font-family="Helvetica,sans-Serif" font-size="10.00" fill="#000000">IIDMultivariateGen</text>
</a>
</g>
</g>
<!-- Node0&#45;&gt;Node2 -->
<g id="edge2" class="edge">
<title>Node0&#45;&gt;Node2</title>
<path fill="none" stroke="#191970" d="M132.1664,-67C140.8042,-67 149.4762,-67 157.6983,-67"/>
<polygon fill="#191970" stroke="#191970" points="132.0712,-63.5001 122.0712,-67 132.0712,-70.5001 132.0712,-63.5001"/>
</g>
<!-- Node3 -->
<g id="node4" class="node">
<title>Node3</title>
<g id="a_node4"><a xlink:href="classumontreal_1_1ssj_1_1randvarmulti_1_1MultinormalGen.html" target="_top" xlink:title="Extends RandomMultivariateGen for a multivariate normal (or multinormal) distribution  .">
<polygon fill="none" stroke="#000000" points="164.5,-19.5 164.5,-38.5 249.5,-38.5 249.5,-19.5 164.5,-19.5"/>
<text text-anchor="middle" x="207" y="-26.5" font-family="Helvetica,sans-Serif" font-size="10.00" fill="#000000">MultinormalGen</text>
</a>
</g>
</g>
<!-- Node0&#45;&gt;Node3 -->
<g id="edge3" class="edge">
<title>Node0&#45;&gt;Node3</title>
<path fill="none" stroke="#191970" d="M107.536,-54.8879C127.8696,-49.5956 151.3713,-43.4787 170.423,-38.5201"/>
<polygon fill="#191970" stroke="#191970" points="106.6379,-51.5049 97.842,-57.411 108.4012,-58.2793 106.6379,-51.5049"/>
</g>
<!-- Node4 -->
<g id="node5" class="node">
<title>Node4</title>
<g id="a_node5"><a xlink:href="classumontreal_1_1ssj_1_1randvarmulti_1_1MultinormalCholeskyGen.html" target="_top" xlink:title="Extends MultinormalGen for a multivariate normal distribution  , generated via a Cholesky decompositi...">
<polygon fill="none" stroke="#000000" points="292,-38.5 292,-57.5 418,-57.5 418,-38.5 292,-38.5"/>
<text text-anchor="middle" x="355" y="-45.5" font-family="Helvetica,sans-Serif" font-size="10.00" fill="#000000">MultinormalCholeskyGen</text>
</a>
</g>
</g>
<!-- Node3&#45;&gt;Node4 -->
<g id="edge4" class="edge">
<title>Node3&#45;&gt;Node4</title>
<path fill="none" stroke="#191970" d="M259.9359,-35.7958C270.2981,-37.1261 281.2614,-38.5336 291.9161,-39.9014"/>
<polygon fill="#191970" stroke="#191970" points="260.172,-32.2975 249.8077,-34.4956 259.2806,-39.2405 260.172,-32.2975"/>
</g>
<!-- Node5 -->
<g id="node6" class="node">
<title>Node5</title>
<g id="a_node6"><a xlink:href="classumontreal_1_1ssj_1_1randvarmulti_1_1MultinormalPCAGen.html" target="_top" xlink:title="Extends MultinormalGen for a multivariate normal distribution  , generated via the method of principa...">
<polygon fill="none" stroke="#000000" points="302,-.5 302,-19.5 408,-19.5 408,-.5 302,-.5"/>
<text text-anchor="middle" x="355" y="-7.5" font-family="Helvetica,sans-Serif" font-size="10.00" fill="#000000">MultinormalPCAGen</text>
</a>
</g>
</g>
<!-- Node3&#45;&gt;Node5 -->
<g id="edge5" class="edge">
<title>Node3&#45;&gt;Node5</title>
<path fill="none" stroke="#191970" d="M259.9611,-22.2009C273.546,-20.4569 288.1626,-18.5805 301.7614,-16.8347"/>
<polygon fill="#191970" stroke="#191970" points="259.2806,-18.7595 249.8077,-23.5044 260.172,-25.7025 259.2806,-18.7595"/>
</g>
</g>
</svg>
