<?xml version="1.0" encoding="UTF-8" standalone="no"?>
<!DOCTYPE svg PUBLIC "-//W3C//DTD SVG 1.1//EN"
 "http://www.w3.org/Graphics/SVG/1.1/DTD/svg11.dtd">
<!-- Generated by graphviz version 2.38.0 (20140413.2041)
 -->
<!-- Title: Graphical Class Hierarchy Pages: 1 -->
<svg width="365pt" height="66pt"
 viewBox="0.00 0.00 365.00 66.00" xmlns="http://www.w3.org/2000/svg" xmlns:xlink="http://www.w3.org/1999/xlink">
<g id="graph0" class="graph" transform="scale(1 1) rotate(0) translate(4 62)">
<title>Graphical Class Hierarchy</title>
<!-- Node0 -->
<g id="node1" class="node"><title>Node0</title>
<g id="a_node1"><a xlink:href="classumontreal_1_1ssj_1_1latnetbuilder_1_1Search.html" target="_top" xlink:title="Abstract class for the search of highly uniform point sets with LatNet Builder. ">
<polygon fill="none" stroke="black" points="0,-19.5 0,-38.5 47,-38.5 47,-19.5 0,-19.5"/>
<text text-anchor="middle" x="23.5" y="-26.5" font-family="Helvetica,sans-Serif" font-size="10.00">Search</text>
</a>
</g>
</g>
<!-- Node1 -->
<g id="node2" class="node"><title>Node1</title>
<g id="a_node2"><a xlink:href="classumontreal_1_1ssj_1_1latnetbuilder_1_1DigitalNetSearch.html" target="_top" xlink:title="Class for the search of good digital nets using LatNet Builder. ">
<polygon fill="none" stroke="black" points="94,-38.5 94,-57.5 185,-57.5 185,-38.5 94,-38.5"/>
<text text-anchor="middle" x="139.5" y="-45.5" font-family="Helvetica,sans-Serif" font-size="10.00">DigitalNetSearch</text>
</a>
</g>
</g>
<!-- Node0&#45;&gt;Node1 -->
<g id="edge1" class="edge"><title>Node0&#45;&gt;Node1</title>
<path fill="none" stroke="midnightblue" d="M57.0194,-34.4199C68.4797,-36.3299 81.5699,-38.5117 93.8557,-40.5593"/>
<polygon fill="midnightblue" stroke="midnightblue" points="57.4621,-30.9455 47.0227,-32.7538 56.3112,-37.8502 57.4621,-30.9455"/>
</g>
<!-- Node3 -->
<g id="node4" class="node"><title>Node3</title>
<g id="a_node4"><a xlink:href="classumontreal_1_1ssj_1_1latnetbuilder_1_1OrdinaryLatticeSearch.html" target="_top" xlink:title="Class for the search of good rank&#45;1 ordinary lattice rules using LatNet Builder. ">
<polygon fill="none" stroke="black" points="83,-0.5 83,-19.5 196,-19.5 196,-0.5 83,-0.5"/>
<text text-anchor="middle" x="139.5" y="-7.5" font-family="Helvetica,sans-Serif" font-size="10.00">OrdinaryLatticeSearch</text>
</a>
</g>
</g>
<!-- Node0&#45;&gt;Node3 -->
<g id="edge3" class="edge"><title>Node0&#45;&gt;Node3</title>
<path fill="none" stroke="midnightblue" d="M57.1216,-23.5631C65.2122,-22.2146 74.1101,-20.7316 82.961,-19.2565"/>
<polygon fill="midnightblue" stroke="midnightblue" points="56.3112,-20.1498 47.0227,-25.2462 57.4621,-27.0545 56.3112,-20.1498"/>
</g>
<!-- Node2 -->
<g id="node3" class="node"><title>Node2</title>
<g id="a_node3"><a xlink:href="classumontreal_1_1ssj_1_1latnetbuilder_1_1PolynomialLatticeSearch.html" target="_top" xlink:title="Class for the search of good polynomial lattice rules using LatNet Builder. ">
<polygon fill="none" stroke="black" points="232,-38.5 232,-57.5 357,-57.5 357,-38.5 232,-38.5"/>
<text text-anchor="middle" x="294.5" y="-45.5" font-family="Helvetica,sans-Serif" font-size="10.00">PolynomialLatticeSearch</text>
</a>
</g>
</g>
<!-- Node1&#45;&gt;Node2 -->
<g id="edge2" class="edge"><title>Node1&#45;&gt;Node2</title>
<path fill="none" stroke="midnightblue" d="M195.314,-48C207.118,-48 219.673,-48 231.721,-48"/>
<polygon fill="midnightblue" stroke="midnightblue" points="195.165,-44.5001 185.165,-48 195.165,-51.5001 195.165,-44.5001"/>
</g>
</g>
</svg>
