<?xml version="1.0" encoding="UTF-8" standalone="no"?>
<!DOCTYPE svg PUBLIC "-//W3C//DTD SVG 1.1//EN"
 "http://www.w3.org/Graphics/SVG/1.1/DTD/svg11.dtd">
<!-- Generated by graphviz version 2.40.1 (20161225.0304)
 -->
<!-- Title: Graphical Class Hierarchy Pages: 1 -->
<svg width="535pt" height="332pt"
 viewBox="0.00 0.00 535.00 332.00" xmlns="http://www.w3.org/2000/svg" xmlns:xlink="http://www.w3.org/1999/xlink">
<g id="graph0" class="graph" transform="scale(1 1) rotate(0) translate(4 328)">
<title>Graphical Class Hierarchy</title>
<!-- Node0 -->
<g id="node1" class="node">
<title>Node0</title>
<g id="a_node1"><a xlink:href="classumontreal_1_1ssj_1_1discrepancy_1_1Discrepancy.html" target="_top" xlink:title="This abstract class is the base class of all discrepancy classes. ">
<polygon fill="none" stroke="#000000" points="0,-152.5 0,-171.5 71,-171.5 71,-152.5 0,-152.5"/>
<text text-anchor="middle" x="35.5" y="-159.5" font-family="Helvetica,sans-Serif" font-size="10.00" fill="#000000">Discrepancy</text>
</a>
</g>
</g>
<!-- Node1 -->
<g id="node2" class="node">
<title>Node1</title>
<g id="a_node2"><a xlink:href="classumontreal_1_1ssj_1_1discrepancy_1_1BigDiscrepancy.html" target="_top" xlink:title="This abstract class is the base class of all discrepancy classes programmed with floating&#45;point numbe...">
<polygon fill="none" stroke="#000000" points="114,-304.5 114,-323.5 200,-323.5 200,-304.5 114,-304.5"/>
<text text-anchor="middle" x="157" y="-311.5" font-family="Helvetica,sans-Serif" font-size="10.00" fill="#000000">BigDiscrepancy</text>
</a>
</g>
</g>
<!-- Node0&#45;&gt;Node1 -->
<g id="edge1" class="edge">
<title>Node0&#45;&gt;Node1</title>
<path fill="none" stroke="#191970" d="M41.0138,-181.1302C50.1817,-209.7143 71.1843,-263.5658 107,-295 111.397,-298.8591 116.6579,-301.9694 122.0913,-304.4659"/>
<polygon fill="#191970" stroke="#191970" points="44.344,-180.0514 38.0733,-171.5116 37.6498,-182.0979 44.344,-180.0514"/>
</g>
<!-- Node4 -->
<g id="node5" class="node">
<title>Node4</title>
<g id="a_node5"><a xlink:href="classumontreal_1_1ssj_1_1discrepancy_1_1DiscL2Hickernell.html" target="_top" xlink:title="This class computes the Hickernell &#45;star discrepancy in   (eq. ">
<polygon fill="none" stroke="#000000" points="111.5,-266.5 111.5,-285.5 202.5,-285.5 202.5,-266.5 111.5,-266.5"/>
<text text-anchor="middle" x="157" y="-273.5" font-family="Helvetica,sans-Serif" font-size="10.00" fill="#000000">DiscL2Hickernell</text>
</a>
</g>
</g>
<!-- Node0&#45;&gt;Node4 -->
<g id="edge4" class="edge">
<title>Node0&#45;&gt;Node4</title>
<path fill="none" stroke="#191970" d="M45.3212,-180.7729C57.2845,-201.9792 79.3613,-236.233 107,-257 112.0483,-260.7932 117.9426,-263.9118 123.8771,-266.4466"/>
<polygon fill="#191970" stroke="#191970" points="48.2789,-178.8861 40.4164,-171.7846 42.1343,-182.2393 48.2789,-178.8861"/>
</g>
<!-- Node5 -->
<g id="node6" class="node">
<title>Node5</title>
<g id="a_node6"><a xlink:href="classumontreal_1_1ssj_1_1discrepancy_1_1DiscL2Star.html" target="_top" xlink:title="This class computes the traditional &#45;star discrepancy &#160;for a set of &#160;points &#160;, ,  . ">
<polygon fill="none" stroke="#000000" points="124.5,-228.5 124.5,-247.5 189.5,-247.5 189.5,-228.5 124.5,-228.5"/>
<text text-anchor="middle" x="157" y="-235.5" font-family="Helvetica,sans-Serif" font-size="10.00" fill="#000000">DiscL2Star</text>
</a>
</g>
</g>
<!-- Node0&#45;&gt;Node5 -->
<g id="edge5" class="edge">
<title>Node0&#45;&gt;Node5</title>
<path fill="none" stroke="#191970" d="M53.1508,-178.6593C66.9732,-191.0375 87.1271,-207.6719 107,-219 113.2927,-222.587 120.3925,-225.752 127.2234,-228.4192"/>
<polygon fill="#191970" stroke="#191970" points="55.1623,-175.7557 45.4217,-171.5876 50.437,-180.9203 55.1623,-175.7557"/>
</g>
<!-- Node6 -->
<g id="node7" class="node">
<title>Node6</title>
<g id="a_node7"><a xlink:href="classumontreal_1_1ssj_1_1discrepancy_1_1DiscL2Symmetric.html" target="_top" xlink:title="COMPLÉTER LA DOC ICI. ">
<polygon fill="none" stroke="#000000" points="109.5,-190.5 109.5,-209.5 204.5,-209.5 204.5,-190.5 109.5,-190.5"/>
<text text-anchor="middle" x="157" y="-197.5" font-family="Helvetica,sans-Serif" font-size="10.00" fill="#000000">DiscL2Symmetric</text>
</a>
</g>
</g>
<!-- Node0&#45;&gt;Node6 -->
<g id="edge6" class="edge">
<title>Node0&#45;&gt;Node6</title>
<path fill="none" stroke="#191970" d="M76.044,-174.6804C92.4606,-179.8148 111.0989,-185.6441 126.3502,-190.4141"/>
<polygon fill="#191970" stroke="#191970" points="76.7485,-171.2336 66.1596,-171.589 74.6589,-177.9145 76.7485,-171.2336"/>
</g>
<!-- Node7 -->
<g id="node8" class="node">
<title>Node7</title>
<g id="a_node8"><a xlink:href="classumontreal_1_1ssj_1_1discrepancy_1_1DiscL2Unanchored.html" target="_top" xlink:title="A discrepancy is said to be reflection&#45;invariant if it has the same value when the points are reflect...">
<polygon fill="none" stroke="#000000" points="107,-152.5 107,-171.5 207,-171.5 207,-152.5 107,-152.5"/>
<text text-anchor="middle" x="157" y="-159.5" font-family="Helvetica,sans-Serif" font-size="10.00" fill="#000000">DiscL2Unanchored</text>
</a>
</g>
</g>
<!-- Node0&#45;&gt;Node7 -->
<g id="edge7" class="edge">
<title>Node0&#45;&gt;Node7</title>
<path fill="none" stroke="#191970" d="M81.451,-162C89.6687,-162 98.271,-162 106.6055,-162"/>
<polygon fill="#191970" stroke="#191970" points="81.2969,-158.5001 71.2969,-162 81.2968,-165.5001 81.2969,-158.5001"/>
</g>
<!-- Node8 -->
<g id="node9" class="node">
<title>Node8</title>
<g id="a_node9"><a xlink:href="classumontreal_1_1ssj_1_1discrepancy_1_1DiscShift1.html" target="_top" xlink:title="This class computes the discrepancy for randomly shifted points of a set &#160;  (eq. ...">
<polygon fill="none" stroke="#000000" points="126,-114.5 126,-133.5 188,-133.5 188,-114.5 126,-114.5"/>
<text text-anchor="middle" x="157" y="-121.5" font-family="Helvetica,sans-Serif" font-size="10.00" fill="#000000">DiscShift1</text>
</a>
</g>
</g>
<!-- Node0&#45;&gt;Node8 -->
<g id="edge8" class="edge">
<title>Node0&#45;&gt;Node8</title>
<path fill="none" stroke="#191970" d="M76.044,-149.3196C92.4606,-144.1852 111.0989,-138.3559 126.3502,-133.5859"/>
<polygon fill="#191970" stroke="#191970" points="74.6589,-146.0855 66.1596,-152.411 76.7485,-152.7664 74.6589,-146.0855"/>
</g>
<!-- Node10 -->
<g id="node11" class="node">
<title>Node10</title>
<g id="a_node11"><a xlink:href="classumontreal_1_1ssj_1_1discrepancy_1_1DiscShift2.html" target="_top" xlink:title="This class computes the discrepancy in   (eq. ">
<polygon fill="none" stroke="#000000" points="126,-76.5 126,-95.5 188,-95.5 188,-76.5 126,-76.5"/>
<text text-anchor="middle" x="157" y="-83.5" font-family="Helvetica,sans-Serif" font-size="10.00" fill="#000000">DiscShift2</text>
</a>
</g>
</g>
<!-- Node0&#45;&gt;Node10 -->
<g id="edge10" class="edge">
<title>Node0&#45;&gt;Node10</title>
<path fill="none" stroke="#191970" d="M53.1508,-145.3407C66.9732,-132.9625 87.1271,-116.3281 107,-105 113.2927,-101.413 120.3925,-98.248 127.2234,-95.5808"/>
<polygon fill="#191970" stroke="#191970" points="50.437,-143.0797 45.4217,-152.4124 55.1623,-148.2443 50.437,-143.0797"/>
</g>
<!-- Node12 -->
<g id="node13" class="node">
<title>Node12</title>
<g id="a_node13"><a xlink:href="classumontreal_1_1ssj_1_1discrepancy_1_1DiscShiftBaker1.html" target="_top" xlink:title="This class computes the discrepancy for randomly shifted, then baker folded points of a set ...">
<polygon fill="none" stroke="#000000" points="113,-38.5 113,-57.5 201,-57.5 201,-38.5 113,-38.5"/>
<text text-anchor="middle" x="157" y="-45.5" font-family="Helvetica,sans-Serif" font-size="10.00" fill="#000000">DiscShiftBaker1</text>
</a>
</g>
</g>
<!-- Node0&#45;&gt;Node12 -->
<g id="edge12" class="edge">
<title>Node0&#45;&gt;Node12</title>
<path fill="none" stroke="#191970" d="M45.3212,-143.2271C57.2845,-122.0208 79.3613,-87.767 107,-67 112.0483,-63.2068 117.9426,-60.0882 123.8771,-57.5534"/>
<polygon fill="#191970" stroke="#191970" points="42.1343,-141.7607 40.4164,-152.2154 48.2789,-145.1139 42.1343,-141.7607"/>
</g>
<!-- Node14 -->
<g id="node15" class="node">
<title>Node14</title>
<g id="a_node15"><a xlink:href="classumontreal_1_1ssj_1_1discrepancy_1_1Palpha.html" target="_top" xlink:title="Extends the class Discrepancy and implements the methods required to compute the &#160;figure of merit for...">
<polygon fill="none" stroke="#000000" points="133.5,-.5 133.5,-19.5 180.5,-19.5 180.5,-.5 133.5,-.5"/>
<text text-anchor="middle" x="157" y="-7.5" font-family="Helvetica,sans-Serif" font-size="10.00" fill="#000000">Palpha</text>
</a>
</g>
</g>
<!-- Node0&#45;&gt;Node14 -->
<g id="edge14" class="edge">
<title>Node0&#45;&gt;Node14</title>
<path fill="none" stroke="#191970" d="M41.0138,-142.8698C50.1817,-114.2857 71.1843,-60.4342 107,-29 114.4679,-22.4457 124.428,-18.0511 133.4923,-15.1559"/>
<polygon fill="#191970" stroke="#191970" points="37.6498,-141.9021 38.0733,-152.4884 44.344,-143.9486 37.6498,-141.9021"/>
</g>
<!-- Node2 -->
<g id="node3" class="node">
<title>Node2</title>
<g id="a_node3"><a xlink:href="classumontreal_1_1ssj_1_1discrepancy_1_1BigDiscShiftBaker1.html" target="_top" xlink:title="This class computes the same discrepancy as in umontreal.ssj.discrepancy.DiscShiftBaker1 [see eq...">
<polygon fill="none" stroke="#000000" points="250.5,-304.5 250.5,-323.5 352.5,-323.5 352.5,-304.5 250.5,-304.5"/>
<text text-anchor="middle" x="301.5" y="-311.5" font-family="Helvetica,sans-Serif" font-size="10.00" fill="#000000">BigDiscShiftBaker1</text>
</a>
</g>
</g>
<!-- Node1&#45;&gt;Node2 -->
<g id="edge2" class="edge">
<title>Node1&#45;&gt;Node2</title>
<path fill="none" stroke="#191970" d="M210.5536,-314C223.5461,-314 237.4048,-314 250.2862,-314"/>
<polygon fill="#191970" stroke="#191970" points="210.3548,-310.5001 200.3548,-314 210.3547,-317.5001 210.3548,-310.5001"/>
</g>
<!-- Node3 -->
<g id="node4" class="node">
<title>Node3</title>
<g id="a_node4"><a xlink:href="classumontreal_1_1ssj_1_1discrepancy_1_1BigDiscShiftBaker1Lattice.html" target="_top" xlink:title="This class computes the same discrepancy as in umontreal.ssj.discrepancy.DiscShiftBaker1Lattice [see ...">
<polygon fill="none" stroke="#000000" points="396,-304.5 396,-323.5 527,-323.5 527,-304.5 396,-304.5"/>
<text text-anchor="middle" x="461.5" y="-311.5" font-family="Helvetica,sans-Serif" font-size="10.00" fill="#000000">BigDiscShiftBaker1Lattice</text>
</a>
</g>
</g>
<!-- Node2&#45;&gt;Node3 -->
<g id="edge3" class="edge">
<title>Node2&#45;&gt;Node3</title>
<path fill="none" stroke="#191970" d="M362.8043,-314C373.6692,-314 385.0216,-314 395.9972,-314"/>
<polygon fill="#191970" stroke="#191970" points="362.5649,-310.5001 352.5649,-314 362.5649,-317.5001 362.5649,-310.5001"/>
</g>
<!-- Node9 -->
<g id="node10" class="node">
<title>Node9</title>
<g id="a_node10"><a xlink:href="classumontreal_1_1ssj_1_1discrepancy_1_1DiscShift1Lattice.html" target="_top" xlink:title="This class computes the same discrepancy for randomly shifted points of a set &#160;as given in eq...">
<polygon fill="none" stroke="#000000" points="255.5,-114.5 255.5,-133.5 347.5,-133.5 347.5,-114.5 255.5,-114.5"/>
<text text-anchor="middle" x="301.5" y="-121.5" font-family="Helvetica,sans-Serif" font-size="10.00" fill="#000000">DiscShift1Lattice</text>
</a>
</g>
</g>
<!-- Node8&#45;&gt;Node9 -->
<g id="edge9" class="edge">
<title>Node8&#45;&gt;Node9</title>
<path fill="none" stroke="#191970" d="M198.4361,-124C216.2342,-124 237.1021,-124 255.3882,-124"/>
<polygon fill="#191970" stroke="#191970" points="198.3544,-120.5001 188.3543,-124 198.3543,-127.5001 198.3544,-120.5001"/>
</g>
<!-- Node11 -->
<g id="node12" class="node">
<title>Node11</title>
<g id="a_node12"><a xlink:href="classumontreal_1_1ssj_1_1discrepancy_1_1DiscShift2Lattice.html" target="_top" xlink:title="This class computes the same discrepancy for randomly shifted points of a set &#160;as given in eq...">
<polygon fill="none" stroke="#000000" points="255.5,-76.5 255.5,-95.5 347.5,-95.5 347.5,-76.5 255.5,-76.5"/>
<text text-anchor="middle" x="301.5" y="-83.5" font-family="Helvetica,sans-Serif" font-size="10.00" fill="#000000">DiscShift2Lattice</text>
</a>
</g>
</g>
<!-- Node10&#45;&gt;Node11 -->
<g id="edge11" class="edge">
<title>Node10&#45;&gt;Node11</title>
<path fill="none" stroke="#191970" d="M198.4361,-86C216.2342,-86 237.1021,-86 255.3882,-86"/>
<polygon fill="#191970" stroke="#191970" points="198.3544,-82.5001 188.3543,-86 198.3543,-89.5001 198.3544,-82.5001"/>
</g>
<!-- Node13 -->
<g id="node14" class="node">
<title>Node13</title>
<g id="a_node14"><a xlink:href="classumontreal_1_1ssj_1_1discrepancy_1_1DiscShiftBaker1Lattice.html" target="_top" xlink:title="This class computes the same discrepancy in   (eq. ">
<polygon fill="none" stroke="#000000" points="243,-38.5 243,-57.5 360,-57.5 360,-38.5 243,-38.5"/>
<text text-anchor="middle" x="301.5" y="-45.5" font-family="Helvetica,sans-Serif" font-size="10.00" fill="#000000">DiscShiftBaker1Lattice</text>
</a>
</g>
</g>
<!-- Node12&#45;&gt;Node13 -->
<g id="edge13" class="edge">
<title>Node12&#45;&gt;Node13</title>
<path fill="none" stroke="#191970" d="M211.2811,-48C221.6316,-48 232.5075,-48 242.9834,-48"/>
<polygon fill="#191970" stroke="#191970" points="211.14,-44.5001 201.1399,-48 211.1399,-51.5001 211.14,-44.5001"/>
</g>
</g>
</svg>
