<?xml version="1.0" encoding="UTF-8" standalone="no"?>
<!DOCTYPE svg PUBLIC "-//W3C//DTD SVG 1.1//EN"
 "http://www.w3.org/Graphics/SVG/1.1/DTD/svg11.dtd">
<!-- Generated by graphviz version 2.40.1 (20161225.0304)
 -->
<!-- Title: Graphical Class Hierarchy Pages: 1 -->
<svg width="322pt" height="88pt"
 viewBox="0.00 0.00 322.00 88.00" xmlns="http://www.w3.org/2000/svg" xmlns:xlink="http://www.w3.org/1999/xlink">
<g id="graph0" class="graph" transform="scale(1 1) rotate(0) translate(4 84)">
<title>Graphical Class Hierarchy</title>
<!-- Node505 -->
<g id="node1" class="node">
<title>Node505</title>
<polygon fill="none" stroke="#bfbfbf" points="0,-30 0,-49 119,-49 119,-30 0,-30"/>
<text text-anchor="middle" x="59.5" y="-37" font-family="Helvetica,sans-Serif" font-size="10.00" fill="#000000">DigitalNetBase2Iterator</text>
</g>
<!-- Node0 -->
<g id="node2" class="node">
<title>Node0</title>
<g id="a_node2"><a xlink:href="classumontreal_1_1ssj_1_1hups_1_1DigitalSequenceBase2_1_1DigitalNetBase2IteratorShiftGenerators.html" target="_top" xlink:title="DigitalSequenceBase2.Digital\lNetBase2IteratorShiftGenerators">
<polygon fill="none" stroke="#000000" points="155,-49.5 155,-79.5 314,-79.5 314,-49.5 155,-49.5"/>
<text text-anchor="start" x="163" y="-67.5" font-family="Helvetica,sans-Serif" font-size="10.00" fill="#000000">DigitalSequenceBase2.Digital</text>
<text text-anchor="middle" x="234.5" y="-56.5" font-family="Helvetica,sans-Serif" font-size="10.00" fill="#000000">NetBase2IteratorShiftGenerators</text>
</a>
</g>
</g>
<!-- Node505&#45;&gt;Node0 -->
<g id="edge1" class="edge">
<title>Node505&#45;&gt;Node0</title>
<path fill="none" stroke="#191970" d="M129.3525,-49.4789C137.7567,-50.6795 146.3875,-51.9125 154.9171,-53.131"/>
<polygon fill="#191970" stroke="#191970" points="129.6301,-45.9831 119.2356,-48.0337 128.6401,-52.9128 129.6301,-45.9831"/>
</g>
<!-- Node507 -->
<g id="node3" class="node">
<title>Node507</title>
<g id="a_node3"><a xlink:href="classumontreal_1_1ssj_1_1hups_1_1DigitalSequenceBase2_1_1DigitalNetBase2IteratorShiftNoGray.html" target="_top" xlink:title="DigitalSequenceBase2.Digital\lNetBase2IteratorShiftNoGray">
<polygon fill="none" stroke="#000000" points="161.5,-.5 161.5,-30.5 307.5,-30.5 307.5,-.5 161.5,-.5"/>
<text text-anchor="start" x="169.5" y="-18.5" font-family="Helvetica,sans-Serif" font-size="10.00" fill="#000000">DigitalSequenceBase2.Digital</text>
<text text-anchor="middle" x="234.5" y="-7.5" font-family="Helvetica,sans-Serif" font-size="10.00" fill="#000000">NetBase2IteratorShiftNoGray</text>
</a>
</g>
</g>
<!-- Node505&#45;&gt;Node507 -->
<g id="edge2" class="edge">
<title>Node505&#45;&gt;Node507</title>
<path fill="none" stroke="#191970" d="M129.245,-29.935C139.8226,-28.4843 150.7616,-26.9841 161.408,-25.524"/>
<polygon fill="#191970" stroke="#191970" points="128.6673,-26.4813 119.2356,-31.3077 129.6185,-33.4164 128.6673,-26.4813"/>
</g>
</g>
</svg>
