<?xml version="1.0" encoding="UTF-8" standalone="no"?>
<!DOCTYPE svg PUBLIC "-//W3C//DTD SVG 1.1//EN"
 "http://www.w3.org/Graphics/SVG/1.1/DTD/svg11.dtd">
<!-- Generated by graphviz version 2.40.1 (20161225.0304)
 -->
<!-- Title: Graphical Class Hierarchy Pages: 1 -->
<svg width="280pt" height="176pt"
 viewBox="0.00 0.00 280.00 176.00" xmlns="http://www.w3.org/2000/svg" xmlns:xlink="http://www.w3.org/1999/xlink">
<g id="graph0" class="graph" transform="scale(1 1) rotate(0) translate(4 172)">
<title>Graphical Class Hierarchy</title>
<!-- Node652 -->
<g id="node1" class="node">
<title>Node652</title>
<polygon fill="none" stroke="#bfbfbf" points="0,-88.5 0,-107.5 68,-107.5 68,-88.5 0,-88.5"/>
<text text-anchor="middle" x="34" y="-95.5" font-family="Helvetica,sans-Serif" font-size="10.00" fill="#000000">Comparator</text>
</g>
<!-- Node0 -->
<g id="node2" class="node">
<title>Node0</title>
<g id="a_node2"><a xlink:href="classumontreal_1_1ssj_1_1hups_1_1DigitalNetFromFile_1_1NetComparator.html" target="_top" xlink:title="DigitalNetFromFile.NetComparator">
<polygon fill="none" stroke="#000000" points="104,-148.5 104,-167.5 272,-167.5 272,-148.5 104,-148.5"/>
<text text-anchor="middle" x="188" y="-155.5" font-family="Helvetica,sans-Serif" font-size="10.00" fill="#000000">DigitalNetFromFile.NetComparator</text>
</a>
</g>
</g>
<!-- Node652&#45;&gt;Node0 -->
<g id="edge1" class="edge">
<title>Node652&#45;&gt;Node0</title>
<path fill="none" stroke="#191970" d="M56.0554,-113.2946C69.4082,-121.9373 87.0774,-132.3164 104,-139 113.5954,-142.7897 124.1207,-145.9169 134.3774,-148.4633"/>
<polygon fill="#191970" stroke="#191970" points="57.8298,-110.2715 47.563,-107.6553 53.9575,-116.1029 57.8298,-110.2715"/>
</g>
<!-- Node654 -->
<g id="node3" class="node">
<title>Node654</title>
<g id="a_node3"><a xlink:href="classumontreal_1_1ssj_1_1util_1_1sort_1_1DoubleArrayComparator.html" target="_top" xlink:title="This provides an implementation of Comparator in which arrays of double in &#160;dimensions are compared b...">
<polygon fill="none" stroke="#000000" points="127,-110.5 127,-129.5 249,-129.5 249,-110.5 127,-110.5"/>
<text text-anchor="middle" x="188" y="-117.5" font-family="Helvetica,sans-Serif" font-size="10.00" fill="#000000">DoubleArrayComparator</text>
</a>
</g>
</g>
<!-- Node652&#45;&gt;Node654 -->
<g id="edge2" class="edge">
<title>Node652&#45;&gt;Node654</title>
<path fill="none" stroke="#191970" d="M78.3045,-104.3292C93.466,-106.4951 110.7045,-108.9578 126.952,-111.2789"/>
<polygon fill="#191970" stroke="#191970" points="78.5721,-100.832 68.1776,-102.8825 77.5821,-107.7616 78.5721,-100.832"/>
</g>
<!-- Node655 -->
<g id="node4" class="node">
<title>Node655</title>
<g id="a_node4"><a xlink:href="classumontreal_1_1ssj_1_1util_1_1sort_1_1HilbertCurveSort_1_1LongIndexComparator2.html" target="_top" xlink:title="The comparator class used by sortIndexOfLong2. ">
<polygon fill="none" stroke="#000000" points="119.5,-61 119.5,-91 256.5,-91 256.5,-61 119.5,-61"/>
<text text-anchor="start" x="127.5" y="-79" font-family="Helvetica,sans-Serif" font-size="10.00" fill="#000000">HilbertCurveSort.LongIndex</text>
<text text-anchor="middle" x="188" y="-68" font-family="Helvetica,sans-Serif" font-size="10.00" fill="#000000">Comparator2</text>
</a>
</g>
</g>
<!-- Node652&#45;&gt;Node655 -->
<g id="edge3" class="edge">
<title>Node652&#45;&gt;Node655</title>
<path fill="none" stroke="#191970" d="M78.1028,-91.6996C90.9236,-89.8681 105.2429,-87.8224 119.1989,-85.8287"/>
<polygon fill="#191970" stroke="#191970" points="77.5821,-88.2384 68.1776,-93.1175 78.5721,-95.168 77.5821,-88.2384"/>
</g>
<!-- Node656 -->
<g id="node5" class="node">
<title>Node656</title>
<g id="a_node5"><a xlink:href="classumontreal_1_1ssj_1_1util_1_1sort_1_1MultiDimComparator.html" target="_top" xlink:title="This class is useful if one wishes to perform an ordinary one&#45;dimensional sort on MultiDimComparable&lt;...">
<polygon fill="none" stroke="#000000" points="106,-.5 106,-41.5 270,-41.5 270,-.5 106,-.5"/>
<text text-anchor="start" x="114" y="-29.5" font-family="Helvetica,sans-Serif" font-size="10.00" fill="#000000">MultiDimComparator</text>
<text text-anchor="start" x="114" y="-18.5" font-family="Helvetica,sans-Serif" font-size="10.00" fill="#000000">&lt; T extends MultiDimComparable</text>
<text text-anchor="middle" x="188" y="-7.5" font-family="Helvetica,sans-Serif" font-size="10.00" fill="#000000">&lt;? super T &gt;</text>
</a>
</g>
</g>
<!-- Node652&#45;&gt;Node656 -->
<g id="edge4" class="edge">
<title>Node652&#45;&gt;Node656</title>
<path fill="none" stroke="#191970" d="M54.7764,-82.5364C68.3199,-72.9201 86.6419,-60.762 104,-52 111.3548,-48.2875 119.2647,-44.7834 127.1845,-41.5607"/>
<polygon fill="#191970" stroke="#191970" points="52.6796,-79.7333 46.6245,-88.4274 56.7797,-85.4069 52.6796,-79.7333"/>
</g>
</g>
</svg>
