<?xml version="1.0" encoding="UTF-8" standalone="no"?>
<!DOCTYPE svg PUBLIC "-//W3C//DTD SVG 1.1//EN"
 "http://www.w3.org/Graphics/SVG/1.1/DTD/svg11.dtd">
<!-- Generated by graphviz version 2.40.1 (20161225.0304)
 -->
<!-- Title: Graphical Class Hierarchy Pages: 1 -->
<svg width="423pt" height="142pt"
 viewBox="0.00 0.00 423.00 142.00" xmlns="http://www.w3.org/2000/svg" xmlns:xlink="http://www.w3.org/1999/xlink">
<g id="graph0" class="graph" transform="scale(1 1) rotate(0) translate(4 138)">
<title>Graphical Class Hierarchy</title>
<!-- Node0 -->
<g id="node1" class="node">
<title>Node0</title>
<g id="a_node1"><a xlink:href="interfaceumontreal_1_1ssj_1_1hups_1_1PointSetRandomization.html" target="_top" xlink:title="This interface is used to randomize a umontreal.ssj.hups.PointSet. ">
<polygon fill="none" stroke="#000000" points="0,-57.5 0,-76.5 119,-76.5 119,-57.5 0,-57.5"/>
<text text-anchor="middle" x="59.5" y="-64.5" font-family="Helvetica,sans-Serif" font-size="10.00" fill="#000000">PointSetRandomization</text>
</a>
</g>
</g>
<!-- Node1 -->
<g id="node2" class="node">
<title>Node1</title>
<g id="a_node2"><a xlink:href="classumontreal_1_1ssj_1_1hups_1_1EmptyRandomization.html" target="_top" xlink:title="This class implements an empty umontreal.ssj.hups.PointSetRandomization. ">
<polygon fill="none" stroke="#000000" points="165.5,-114.5 165.5,-133.5 275.5,-133.5 275.5,-114.5 165.5,-114.5"/>
<text text-anchor="middle" x="220.5" y="-121.5" font-family="Helvetica,sans-Serif" font-size="10.00" fill="#000000">EmptyRandomization</text>
</a>
</g>
</g>
<!-- Node0&#45;&gt;Node1 -->
<g id="edge1" class="edge">
<title>Node0&#45;&gt;Node1</title>
<path fill="none" stroke="#191970" d="M91.0484,-80.4414C109.5221,-88.0882 133.3963,-97.5878 155,-105 164.7435,-108.343 175.4293,-111.6082 185.2917,-114.4623"/>
<polygon fill="#191970" stroke="#191970" points="92.2324,-77.143 81.6558,-76.5209 89.536,-83.6028 92.2324,-77.143"/>
</g>
<!-- Node2 -->
<g id="node3" class="node">
<title>Node2</title>
<g id="a_node3"><a xlink:href="classumontreal_1_1ssj_1_1hups_1_1NestedUniformScrambling.html" target="_top" xlink:title="This class implements a PointSetRandomization that performs Owen&#39;s nested uniform scrambling ...">
<polygon fill="none" stroke="#000000" points="155,-76.5 155,-95.5 286,-95.5 286,-76.5 155,-76.5"/>
<text text-anchor="middle" x="220.5" y="-83.5" font-family="Helvetica,sans-Serif" font-size="10.00" fill="#000000">NestedUniformScrambling</text>
</a>
</g>
</g>
<!-- Node0&#45;&gt;Node2 -->
<g id="edge2" class="edge">
<title>Node0&#45;&gt;Node2</title>
<path fill="none" stroke="#191970" d="M129.5779,-75.2701C137.9635,-76.2597 146.5026,-77.2674 154.8228,-78.2493"/>
<polygon fill="#191970" stroke="#191970" points="129.7918,-71.7711 119.4505,-74.0749 128.9713,-78.7229 129.7918,-71.7711"/>
</g>
<!-- Node3 -->
<g id="node4" class="node">
<title>Node3</title>
<g id="a_node4"><a xlink:href="classumontreal_1_1ssj_1_1hups_1_1RandomShift.html" target="_top" xlink:title="This class implements a umontreal.ssj.hups.PointSetRandomization. ">
<polygon fill="none" stroke="#000000" points="183.5,-38.5 183.5,-57.5 257.5,-57.5 257.5,-38.5 183.5,-38.5"/>
<text text-anchor="middle" x="220.5" y="-45.5" font-family="Helvetica,sans-Serif" font-size="10.00" fill="#000000">RandomShift</text>
</a>
</g>
</g>
<!-- Node0&#45;&gt;Node3 -->
<g id="edge3" class="edge">
<title>Node0&#45;&gt;Node3</title>
<path fill="none" stroke="#191970" d="M129.6358,-58.7231C148.153,-56.5378 167.4141,-54.2648 183.4118,-52.3769"/>
<polygon fill="#191970" stroke="#191970" points="128.9713,-55.2771 119.4505,-59.9251 129.7918,-62.2289 128.9713,-55.2771"/>
</g>
<!-- Node6 -->
<g id="node7" class="node">
<title>Node6</title>
<g id="a_node7"><a xlink:href="classumontreal_1_1ssj_1_1hups_1_1RandomStart.html" target="_top" xlink:title="This class implements a umontreal.ssj.hups.PointSetRandomization that randomizes a sequence with a ra...">
<polygon fill="none" stroke="#000000" points="183.5,-.5 183.5,-19.5 257.5,-19.5 257.5,-.5 183.5,-.5"/>
<text text-anchor="middle" x="220.5" y="-7.5" font-family="Helvetica,sans-Serif" font-size="10.00" fill="#000000">RandomStart</text>
</a>
</g>
</g>
<!-- Node0&#45;&gt;Node6 -->
<g id="edge6" class="edge">
<title>Node0&#45;&gt;Node6</title>
<path fill="none" stroke="#191970" d="M91.0484,-53.5586C109.5221,-45.9118 133.3963,-36.4122 155,-29 164.7435,-25.657 175.4293,-22.3918 185.2917,-19.5377"/>
<polygon fill="#191970" stroke="#191970" points="89.536,-50.3972 81.6558,-57.4791 92.2324,-56.857 89.536,-50.3972"/>
</g>
<!-- Node4 -->
<g id="node5" class="node">
<title>Node4</title>
<g id="a_node5"><a xlink:href="classumontreal_1_1ssj_1_1hups_1_1LMScrambleShift.html" target="_top" xlink:title="This class implements a umontreal.ssj.hups.PointSetRandomization that performs a left matrix scrambli...">
<polygon fill="none" stroke="#000000" points="322.5,-57.5 322.5,-76.5 414.5,-76.5 414.5,-57.5 322.5,-57.5"/>
<text text-anchor="middle" x="368.5" y="-64.5" font-family="Helvetica,sans-Serif" font-size="10.00" fill="#000000">LMScrambleShift</text>
</a>
</g>
</g>
<!-- Node3&#45;&gt;Node4 -->
<g id="edge4" class="edge">
<title>Node3&#45;&gt;Node4</title>
<path fill="none" stroke="#191970" d="M267.8339,-54.0766C285.3059,-56.3197 305.0674,-58.8566 322.4262,-61.0851"/>
<polygon fill="#191970" stroke="#191970" points="268.2109,-50.5964 257.8466,-52.7945 267.3196,-57.5394 268.2109,-50.5964"/>
</g>
<!-- Node5 -->
<g id="node6" class="node">
<title>Node5</title>
<g id="a_node6"><a xlink:href="classumontreal_1_1ssj_1_1hups_1_1SMScrambleShift.html" target="_top" xlink:title="This class implements a umontreal.ssj.hups.PointSetRandomization that performs a striped matrix scram...">
<polygon fill="none" stroke="#000000" points="322,-19.5 322,-38.5 415,-38.5 415,-19.5 322,-19.5"/>
<text text-anchor="middle" x="368.5" y="-26.5" font-family="Helvetica,sans-Serif" font-size="10.00" fill="#000000">SMScrambleShift</text>
</a>
</g>
</g>
<!-- Node3&#45;&gt;Node5 -->
<g id="edge5" class="edge">
<title>Node3&#45;&gt;Node5</title>
<path fill="none" stroke="#191970" d="M268.23,-41.8725C285.4212,-39.6655 304.7861,-37.1795 321.8814,-34.9848"/>
<polygon fill="#191970" stroke="#191970" points="267.3196,-38.4606 257.8466,-43.2055 268.2109,-45.4036 267.3196,-38.4606"/>
</g>
</g>
</svg>
