<?xml version="1.0" encoding="UTF-8" standalone="no"?>
<!DOCTYPE svg PUBLIC "-//W3C//DTD SVG 1.1//EN"
 "http://www.w3.org/Graphics/SVG/1.1/DTD/svg11.dtd">
<!-- Generated by graphviz version 2.40.1 (0)
 -->
<!-- Title: Graphical Class Hierarchy Pages: 1 -->
<svg width="196pt" height="66pt"
 viewBox="0.00 0.00 196.00 66.00" xmlns="http://www.w3.org/2000/svg" xmlns:xlink="http://www.w3.org/1999/xlink">
<g id="graph0" class="graph" transform="scale(1 1) rotate(0) translate(4 62)">
<title>Graphical Class Hierarchy</title>
<!-- Node652 -->
<g id="node1" class="node">
<title>Node652</title>
<g id="a_node1"><a xlink:title=" ">
<polygon fill="none" stroke="#bfbfbf" points="6.5,-38.5 6.5,-57.5 74.5,-57.5 74.5,-38.5 6.5,-38.5"/>
<text text-anchor="middle" x="40.5" y="-45.5" font-family="Helvetica,sans-Serif" font-size="10.00" fill="#000000">Appendable</text>
</a>
</g>
</g>
<!-- Node0 -->
<g id="node2" class="node">
<title>Node0</title>
<g id="a_node2"><a xlink:href="classumontreal_1_1ssj_1_1util_1_1PrintfFormat.html" target="_top" xlink:title="This class acts like a StringBuffer which defines new types of append methods.">
<polygon fill="none" stroke="#000000" points="117,-19.5 117,-38.5 188,-38.5 188,-19.5 117,-19.5"/>
<text text-anchor="middle" x="152.5" y="-26.5" font-family="Helvetica,sans-Serif" font-size="10.00" fill="#000000">PrintfFormat</text>
</a>
</g>
</g>
<!-- Node652&#45;&gt;Node0 -->
<g id="edge1" class="edge">
<title>Node652&#45;&gt;Node0</title>
<path fill="none" stroke="#191970" d="M84.7261,-40.4974C95.4187,-38.6834 106.7112,-36.7677 116.9471,-35.0313"/>
<polygon fill="#191970" stroke="#191970" points="83.986,-37.0728 74.7123,-42.1961 85.1568,-43.9742 83.986,-37.0728"/>
</g>
<!-- Node633 -->
<g id="node3" class="node">
<title>Node633</title>
<g id="a_node3"><a xlink:title=" ">
<polygon fill="none" stroke="#bfbfbf" points="0,-.5 0,-19.5 81,-19.5 81,-.5 0,-.5"/>
<text text-anchor="middle" x="40.5" y="-7.5" font-family="Helvetica,sans-Serif" font-size="10.00" fill="#000000">CharSequence</text>
</a>
</g>
</g>
<!-- Node633&#45;&gt;Node0 -->
<g id="edge2" class="edge">
<title>Node633&#45;&gt;Node0</title>
<path fill="none" stroke="#191970" d="M91.2432,-18.6082C99.8625,-20.0704 108.6494,-21.5611 116.7774,-22.9399"/>
<polygon fill="#191970" stroke="#191970" points="91.696,-15.1351 81.2514,-16.9132 90.5251,-22.0365 91.696,-15.1351"/>
</g>
</g>
</svg>
