<?xml version="1.0" encoding="UTF-8" standalone="no"?>
<!DOCTYPE svg PUBLIC "-//W3C//DTD SVG 1.1//EN"
 "http://www.w3.org/Graphics/SVG/1.1/DTD/svg11.dtd">
<!-- Generated by graphviz version 2.40.1 (20161225.0304)
 -->
<!-- Title: Graphical Class Hierarchy Pages: 1 -->
<svg width="582pt" height="142pt"
 viewBox="0.00 0.00 582.00 142.00" xmlns="http://www.w3.org/2000/svg" xmlns:xlink="http://www.w3.org/1999/xlink">
<g id="graph0" class="graph" transform="scale(1 1) rotate(0) translate(4 138)">
<title>Graphical Class Hierarchy</title>
<!-- Node0 -->
<g id="node1" class="node">
<title>Node0</title>
<g id="a_node1"><a xlink:href="classumontreal_1_1ssj_1_1probdistmulti_1_1ContinuousDistributionMulti.html" target="_top" xlink:title="Classes implementing continuous multi&#45;dimensional distributions should inherit from this class...">
<polygon fill="none" stroke="#000000" points="0,-38.5 0,-57.5 137,-57.5 137,-38.5 0,-38.5"/>
<text text-anchor="middle" x="68.5" y="-45.5" font-family="Helvetica,sans-Serif" font-size="10.00" fill="#000000">ContinuousDistributionMulti</text>
</a>
</g>
</g>
<!-- Node1 -->
<g id="node2" class="node">
<title>Node1</title>
<g id="a_node2"><a xlink:href="classumontreal_1_1ssj_1_1probdistmulti_1_1ContinuousDistribution2Dim.html" target="_top" xlink:title="Classes implementing 2&#45;dimensional continuous distributions should inherit from this class...">
<polygon fill="none" stroke="#000000" points="173,-76.5 173,-95.5 312,-95.5 312,-76.5 173,-76.5"/>
<text text-anchor="middle" x="242.5" y="-83.5" font-family="Helvetica,sans-Serif" font-size="10.00" fill="#000000">ContinuousDistribution2Dim</text>
</a>
</g>
</g>
<!-- Node0&#45;&gt;Node1 -->
<g id="edge1" class="edge">
<title>Node0&#45;&gt;Node1</title>
<path fill="none" stroke="#191970" d="M122.3144,-59.7526C146.918,-65.1258 175.6867,-71.4086 198.9082,-76.4799"/>
<polygon fill="#191970" stroke="#191970" points="122.9241,-56.3033 112.4075,-57.589 121.4305,-63.1421 122.9241,-56.3033"/>
</g>
<!-- Node6 -->
<g id="node7" class="node">
<title>Node6</title>
<g id="a_node7"><a xlink:href="classumontreal_1_1ssj_1_1probdistmulti_1_1DirichletDist.html" target="_top" xlink:title="Implements the abstract class ContinuousDistributionMulti for the Dirichlet distribution with paramet...">
<polygon fill="none" stroke="#000000" points="207,-38.5 207,-57.5 278,-57.5 278,-38.5 207,-38.5"/>
<text text-anchor="middle" x="242.5" y="-45.5" font-family="Helvetica,sans-Serif" font-size="10.00" fill="#000000">DirichletDist</text>
</a>
</g>
</g>
<!-- Node0&#45;&gt;Node6 -->
<g id="edge6" class="edge">
<title>Node0&#45;&gt;Node6</title>
<path fill="none" stroke="#191970" d="M147.3798,-48C168.1192,-48 189.4794,-48 206.691,-48"/>
<polygon fill="#191970" stroke="#191970" points="147.2694,-44.5001 137.2694,-48 147.2694,-51.5001 147.2694,-44.5001"/>
</g>
<!-- Node7 -->
<g id="node8" class="node">
<title>Node7</title>
<g id="a_node8"><a xlink:href="classumontreal_1_1ssj_1_1probdistmulti_1_1MultiNormalDist.html" target="_top" xlink:title="Implements the abstract class ContinuousDistributionMulti for the multinormal distribution with mean ...">
<polygon fill="none" stroke="#000000" points="199,-.5 199,-19.5 286,-19.5 286,-.5 199,-.5"/>
<text text-anchor="middle" x="242.5" y="-7.5" font-family="Helvetica,sans-Serif" font-size="10.00" fill="#000000">MultiNormalDist</text>
</a>
</g>
</g>
<!-- Node0&#45;&gt;Node7 -->
<g id="edge7" class="edge">
<title>Node0&#45;&gt;Node7</title>
<path fill="none" stroke="#191970" d="M122.3144,-36.2474C146.918,-30.8742 175.6867,-24.5914 198.9082,-19.5201"/>
<polygon fill="#191970" stroke="#191970" points="121.4305,-32.8579 112.4075,-38.411 122.9241,-39.6967 121.4305,-32.8579"/>
</g>
<!-- Node2 -->
<g id="node3" class="node">
<title>Node2</title>
<g id="a_node3"><a xlink:href="classumontreal_1_1ssj_1_1probdistmulti_1_1BiNormalDist.html" target="_top" xlink:title="Extends the class ContinuousDistribution2Dim for the bivariate normal distribution   (page 84)...">
<polygon fill="none" stroke="#000000" points="349,-95.5 349,-114.5 424,-114.5 424,-95.5 349,-95.5"/>
<text text-anchor="middle" x="386.5" y="-102.5" font-family="Helvetica,sans-Serif" font-size="10.00" fill="#000000">BiNormalDist</text>
</a>
</g>
</g>
<!-- Node1&#45;&gt;Node2 -->
<g id="edge2" class="edge">
<title>Node1&#45;&gt;Node2</title>
<path fill="none" stroke="#191970" d="M322.4302,-96.5463C331.6455,-97.7623 340.6853,-98.955 348.936,-100.0436"/>
<polygon fill="#191970" stroke="#191970" points="322.7628,-93.06 312.3909,-95.2217 321.8471,-99.9998 322.7628,-93.06"/>
</g>
<!-- Node5 -->
<g id="node6" class="node">
<title>Node5</title>
<g id="a_node6"><a xlink:href="classumontreal_1_1ssj_1_1probdistmulti_1_1BiStudentDist.html" target="_top" xlink:title="Extends the class ContinuousDistribution2Dim for the standard bivariate Student’s &#160;distribution   (...">
<polygon fill="none" stroke="#000000" points="348,-57.5 348,-76.5 425,-76.5 425,-57.5 348,-57.5"/>
<text text-anchor="middle" x="386.5" y="-64.5" font-family="Helvetica,sans-Serif" font-size="10.00" fill="#000000">BiStudentDist</text>
</a>
</g>
</g>
<!-- Node1&#45;&gt;Node5 -->
<g id="edge5" class="edge">
<title>Node1&#45;&gt;Node5</title>
<path fill="none" stroke="#191970" d="M322.3734,-75.4611C331.1805,-74.2991 339.8285,-73.158 347.7819,-72.1086"/>
<polygon fill="#191970" stroke="#191970" points="321.8471,-72.0002 312.3909,-76.7783 322.7628,-78.94 321.8471,-72.0002"/>
</g>
<!-- Node3 -->
<g id="node4" class="node">
<title>Node3</title>
<g id="a_node4"><a xlink:href="classumontreal_1_1ssj_1_1probdistmulti_1_1BiNormalDonnellyDist.html" target="_top" xlink:title="Extends the class BiNormalDist for the bivariate normal distribution   (page 84) using a translation...">
<polygon fill="none" stroke="#000000" points="461,-114.5 461,-133.5 574,-133.5 574,-114.5 461,-114.5"/>
<text text-anchor="middle" x="517.5" y="-121.5" font-family="Helvetica,sans-Serif" font-size="10.00" fill="#000000">BiNormalDonnellyDist</text>
</a>
</g>
</g>
<!-- Node2&#45;&gt;Node3 -->
<g id="edge3" class="edge">
<title>Node2&#45;&gt;Node3</title>
<path fill="none" stroke="#191970" d="M434.0301,-111.8937C442.7563,-113.1593 451.9437,-114.4918 460.9045,-115.7915"/>
<polygon fill="#191970" stroke="#191970" points="434.4382,-108.4163 424.0393,-110.4446 433.4334,-115.3438 434.4382,-108.4163"/>
</g>
<!-- Node4 -->
<g id="node5" class="node">
<title>Node4</title>
<g id="a_node5"><a xlink:href="classumontreal_1_1ssj_1_1probdistmulti_1_1BiNormalGenzDist.html" target="_top" xlink:title="Extends the class BiNormalDist for the bivariate normal distribution   (page 84) using Genz’s algor...">
<polygon fill="none" stroke="#000000" points="468.5,-76.5 468.5,-95.5 566.5,-95.5 566.5,-76.5 468.5,-76.5"/>
<text text-anchor="middle" x="517.5" y="-83.5" font-family="Helvetica,sans-Serif" font-size="10.00" fill="#000000">BiNormalGenzDist</text>
</a>
</g>
</g>
<!-- Node2&#45;&gt;Node4 -->
<g id="edge4" class="edge">
<title>Node2&#45;&gt;Node4</title>
<path fill="none" stroke="#191970" d="M434.0076,-98.1096C445.1365,-96.4955 457.0166,-94.7724 468.221,-93.1473"/>
<polygon fill="#191970" stroke="#191970" points="433.4334,-94.6562 424.0393,-99.5554 434.4382,-101.5837 433.4334,-94.6562"/>
</g>
</g>
</svg>
