<?xml version="1.0" encoding="UTF-8" standalone="no"?>
<!DOCTYPE svg PUBLIC "-//W3C//DTD SVG 1.1//EN"
 "http://www.w3.org/Graphics/SVG/1.1/DTD/svg11.dtd">
<!-- Generated by graphviz version 2.38.0 (20140413.2041)
 -->
<!-- Title: Graphical Class Hierarchy Pages: 1 -->
<svg width="425pt" height="104pt"
 viewBox="0.00 0.00 425.00 104.00" xmlns="http://www.w3.org/2000/svg" xmlns:xlink="http://www.w3.org/1999/xlink">
<g id="graph0" class="graph" transform="scale(1 1) rotate(0) translate(4 100)">
<title>Graphical Class Hierarchy</title>
<!-- Node0 -->
<g id="node1" class="node"><title>Node0</title>
<g id="a_node1"><a xlink:href="classumontreal_1_1ssj_1_1stat_1_1density_1_1DensityEstimator.html" target="_top" xlink:title="This abstract class represents a univariate density estimator (DE). ">
<polygon fill="none" stroke="black" points="0,-38.5 0,-57.5 92,-57.5 92,-38.5 0,-38.5"/>
<text text-anchor="middle" x="46" y="-45.5" font-family="Helvetica,sans-Serif" font-size="10.00">DensityEstimator</text>
</a>
</g>
</g>
<!-- Node1 -->
<g id="node2" class="node"><title>Node1</title>
<g id="a_node2"><a xlink:href="classumontreal_1_1ssj_1_1stat_1_1density_1_1DEHistogram.html" target="_top" xlink:title="Histogram density estimator for a univariate density. ">
<polygon fill="none" stroke="black" points="158.5,-76.5 158.5,-95.5 234.5,-95.5 234.5,-76.5 158.5,-76.5"/>
<text text-anchor="middle" x="196.5" y="-83.5" font-family="Helvetica,sans-Serif" font-size="10.00">DEHistogram</text>
</a>
</g>
</g>
<!-- Node0&#45;&gt;Node1 -->
<g id="edge1" class="edge"><title>Node0&#45;&gt;Node1</title>
<path fill="none" stroke="midnightblue" d="M94.3329,-60.1121C115.015,-65.4044 138.919,-71.5213 158.297,-76.4799"/>
<polygon fill="midnightblue" stroke="midnightblue" points="95.0284,-56.6774 84.4728,-57.589 93.293,-63.4589 95.0284,-56.6774"/>
</g>
<!-- Node2 -->
<g id="node3" class="node"><title>Node2</title>
<g id="a_node3"><a xlink:href="classumontreal_1_1ssj_1_1stat_1_1density_1_1DEKernelDensity.html" target="_top" xlink:title="This class provides methods to construct a kernel density estimator (KDE) for univariate densities fr...">
<polygon fill="none" stroke="black" points="150.5,-38.5 150.5,-57.5 242.5,-57.5 242.5,-38.5 150.5,-38.5"/>
<text text-anchor="middle" x="196.5" y="-45.5" font-family="Helvetica,sans-Serif" font-size="10.00">DEKernelDensity</text>
</a>
</g>
</g>
<!-- Node0&#45;&gt;Node2 -->
<g id="edge2" class="edge"><title>Node0&#45;&gt;Node2</title>
<path fill="none" stroke="midnightblue" d="M102.533,-48C118.325,-48 135.326,-48 150.416,-48"/>
<polygon fill="midnightblue" stroke="midnightblue" points="102.362,-44.5001 92.3618,-48 102.362,-51.5001 102.362,-44.5001"/>
</g>
<!-- Node3 -->
<g id="node4" class="node"><title>Node3</title>
<g id="a_node4"><a xlink:href="classumontreal_1_1ssj_1_1stat_1_1density_1_1DensityDerivativeEstimator.html" target="_top" xlink:title="This class implements a density derivative estimator (DDE) based on a kernel density estimator (KDE) ...">
<polygon fill="none" stroke="black" points="128,-0.5 128,-19.5 265,-19.5 265,-0.5 128,-0.5"/>
<text text-anchor="middle" x="196.5" y="-7.5" font-family="Helvetica,sans-Serif" font-size="10.00">DensityDerivativeEstimator</text>
</a>
</g>
</g>
<!-- Node0&#45;&gt;Node3 -->
<g id="edge3" class="edge"><title>Node0&#45;&gt;Node3</title>
<path fill="none" stroke="midnightblue" d="M94.3329,-35.8879C115.015,-30.5956 138.919,-24.4787 158.297,-19.5201"/>
<polygon fill="midnightblue" stroke="midnightblue" points="93.293,-32.5411 84.4728,-38.411 95.0284,-39.3226 93.293,-32.5411"/>
</g>
<!-- Node4 -->
<g id="node5" class="node"><title>Node4</title>
<g id="a_node5"><a xlink:href="classumontreal_1_1ssj_1_1stat_1_1density_1_1DEDerivativeGaussian.html" target="_top" xlink:title="This class implements a density derivative estimator (DDE) with a Gaussian ( i.e., standard normal) kernel function. ">
<polygon fill="none" stroke="black" points="301,-0.5 301,-19.5 417,-19.5 417,-0.5 301,-0.5"/>
<text text-anchor="middle" x="359" y="-7.5" font-family="Helvetica,sans-Serif" font-size="10.00">DEDerivativeGaussian</text>
</a>
</g>
</g>
<!-- Node3&#45;&gt;Node4 -->
<g id="edge4" class="edge"><title>Node3&#45;&gt;Node4</title>
<path fill="none" stroke="midnightblue" d="M275.215,-10C283.867,-10 292.558,-10 300.885,-10"/>
<polygon fill="midnightblue" stroke="midnightblue" points="275.101,-6.5001 265.101,-10 275.101,-13.5001 275.101,-6.5001"/>
</g>
</g>
</svg>
