<?xml version="1.0" encoding="UTF-8" standalone="no"?>
<!DOCTYPE svg PUBLIC "-//W3C//DTD SVG 1.1//EN"
 "http://www.w3.org/Graphics/SVG/1.1/DTD/svg11.dtd">
<!-- Generated by graphviz version 2.38.0 (20140413.2041)
 -->
<!-- Title: Graphical Class Hierarchy Pages: 1 -->
<svg width="529pt" height="85pt"
 viewBox="0.00 0.00 529.00 85.00" xmlns="http://www.w3.org/2000/svg" xmlns:xlink="http://www.w3.org/1999/xlink">
<g id="graph0" class="graph" transform="scale(1 1) rotate(0) translate(4 81)">
<title>Graphical Class Hierarchy</title>
<!-- Node0 -->
<g id="node1" class="node"><title>Node0</title>
<g id="a_node1"><a xlink:href="classumontreal_1_1ssj_1_1stat_1_1density_1_1DensityEstimator.html" target="_top" xlink:title="This abstract class implements a univariate density estimator (DE). ">
<polygon fill="none" stroke="black" points="0,-19.5 0,-38.5 92,-38.5 92,-19.5 0,-19.5"/>
<text text-anchor="middle" x="46" y="-26.5" font-family="Helvetica,sans-Serif" font-size="10.00">DensityEstimator</text>
</a>
</g>
</g>
<!-- Node1 -->
<g id="node2" class="node"><title>Node1</title>
<g id="a_node2"><a xlink:href="classumontreal_1_1ssj_1_1stat_1_1density_1_1DEBandwidthBased.html" target="_top" xlink:title="Implements an abstract class for density estimators that rely on the selection of a bandwidth &#160;such a...">
<polygon fill="none" stroke="black" points="128,-38.5 128,-57.5 232,-57.5 232,-38.5 128,-38.5"/>
<text text-anchor="middle" x="180" y="-45.5" font-family="Helvetica,sans-Serif" font-size="10.00">DEBandwidthBased</text>
</a>
</g>
</g>
<!-- Node0&#45;&gt;Node1 -->
<g id="edge1" class="edge"><title>Node0&#45;&gt;Node1</title>
<path fill="none" stroke="midnightblue" d="M102.23,-36.9498C110.701,-38.169 119.414,-39.4233 127.793,-40.6292"/>
<polygon fill="midnightblue" stroke="midnightblue" points="102.454,-33.4461 92.0577,-35.4856 101.457,-40.3747 102.454,-33.4461"/>
</g>
<!-- Node5 -->
<g id="node6" class="node"><title>Node5</title>
<g id="a_node6"><a xlink:href="classumontreal_1_1ssj_1_1stat_1_1density_1_1DEHistogram.html" target="_top" xlink:title="This class provides methods to construct, manipulate, and evaluate a histogram density estimator for ...">
<polygon fill="none" stroke="black" points="142,-0.5 142,-19.5 218,-19.5 218,-0.5 142,-0.5"/>
<text text-anchor="middle" x="180" y="-7.5" font-family="Helvetica,sans-Serif" font-size="10.00">DEHistogram</text>
</a>
</g>
</g>
<!-- Node0&#45;&gt;Node5 -->
<g id="edge5" class="edge"><title>Node0&#45;&gt;Node5</title>
<path fill="none" stroke="midnightblue" d="M102.082,-21.0716C115.394,-19.1554 129.316,-17.1516 141.599,-15.3835"/>
<polygon fill="midnightblue" stroke="midnightblue" points="101.457,-17.6253 92.0577,-22.5144 102.454,-24.5539 101.457,-17.6253"/>
</g>
<!-- Node2 -->
<g id="node3" class="node"><title>Node2</title>
<g id="a_node3"><a xlink:href="classumontreal_1_1ssj_1_1stat_1_1density_1_1DEKernelDensity.html" target="_top" xlink:title="This class provides methods to compute a kernel density estimator (KDE) for univariate unimodal densi...">
<polygon fill="none" stroke="black" points="290.5,-57.5 290.5,-76.5 382.5,-76.5 382.5,-57.5 290.5,-57.5"/>
<text text-anchor="middle" x="336.5" y="-64.5" font-family="Helvetica,sans-Serif" font-size="10.00">DEKernelDensity</text>
</a>
</g>
</g>
<!-- Node1&#45;&gt;Node2 -->
<g id="edge2" class="edge"><title>Node1&#45;&gt;Node2</title>
<path fill="none" stroke="midnightblue" d="M242.354,-55.5452C258.339,-57.511 275.273,-59.5934 290.255,-61.436"/>
<polygon fill="midnightblue" stroke="midnightblue" points="242.37,-52.0208 232.017,-54.274 241.515,-58.9685 242.37,-52.0208"/>
</g>
<!-- Node3 -->
<g id="node4" class="node"><title>Node3</title>
<g id="a_node4"><a xlink:href="classumontreal_1_1ssj_1_1stat_1_1density_1_1DensityDerivativeEstimator.html" target="_top" xlink:title="This class implements a density derivative estimator (DDE) over a finite interval &#160;based on a kernel ...">
<polygon fill="none" stroke="black" points="268,-19.5 268,-38.5 405,-38.5 405,-19.5 268,-19.5"/>
<text text-anchor="middle" x="336.5" y="-26.5" font-family="Helvetica,sans-Serif" font-size="10.00">DensityDerivativeEstimator</text>
</a>
</g>
</g>
<!-- Node1&#45;&gt;Node3 -->
<g id="edge3" class="edge"><title>Node1&#45;&gt;Node3</title>
<path fill="none" stroke="midnightblue" d="M242.115,-40.4842C250.526,-39.4499 259.204,-38.3827 267.725,-37.3348"/>
<polygon fill="midnightblue" stroke="midnightblue" points="241.515,-37.0315 232.017,-41.726 242.37,-43.9792 241.515,-37.0315"/>
</g>
<!-- Node4 -->
<g id="node5" class="node"><title>Node4</title>
<g id="a_node5"><a xlink:href="classumontreal_1_1ssj_1_1stat_1_1density_1_1DDEGaussian.html" target="_top" xlink:title="This class implements a density derivative estimator (DDE) based on a KDE with a Gaussian Kernel...">
<polygon fill="none" stroke="black" points="441,-19.5 441,-38.5 521,-38.5 521,-19.5 441,-19.5"/>
<text text-anchor="middle" x="481" y="-26.5" font-family="Helvetica,sans-Serif" font-size="10.00">DDEGaussian</text>
</a>
</g>
</g>
<!-- Node3&#45;&gt;Node4 -->
<g id="edge4" class="edge"><title>Node3&#45;&gt;Node4</title>
<path fill="none" stroke="midnightblue" d="M415.693,-29C424.423,-29 433.013,-29 440.932,-29"/>
<polygon fill="midnightblue" stroke="midnightblue" points="415.411,-25.5001 405.411,-29 415.411,-32.5001 415.411,-25.5001"/>
</g>
</g>
</svg>
