<?xml version="1.0" encoding="UTF-8" standalone="no"?>
<!DOCTYPE svg PUBLIC "-//W3C//DTD SVG 1.1//EN"
 "http://www.w3.org/Graphics/SVG/1.1/DTD/svg11.dtd">
<!-- Generated by graphviz version 2.38.0 (20140413.2041)
 -->
<!-- Title: Graphical Class Hierarchy Pages: 1 -->
<svg width="325pt" height="180pt"
 viewBox="0.00 0.00 325.00 180.00" xmlns="http://www.w3.org/2000/svg" xmlns:xlink="http://www.w3.org/1999/xlink">
<g id="graph0" class="graph" transform="scale(1 1) rotate(0) translate(4 176)">
<title>Graphical Class Hierarchy</title>
<!-- Node581 -->
<g id="node1" class="node"><title>Node581</title>
<g id="a_node1"><a xlink:href="classtutorial_1_1Asian.html" target="_top" xlink:title="Asian">
<polygon fill="none" stroke="black" points="41.5,-133.5 41.5,-152.5 82.5,-152.5 82.5,-133.5 41.5,-133.5"/>
<text text-anchor="middle" x="62" y="-140.5" font-family="Helvetica,sans-Serif" font-size="10.00">Asian</text>
</a>
</g>
</g>
<!-- Node582 -->
<g id="node2" class="node"><title>Node582</title>
<g id="a_node2"><a xlink:href="classtutorial_1_1AsianQMC.html" target="_top" xlink:title="AsianQMC">
<polygon fill="none" stroke="black" points="206,-152.5 206,-171.5 271,-171.5 271,-152.5 206,-152.5"/>
<text text-anchor="middle" x="238.5" y="-159.5" font-family="Helvetica,sans-Serif" font-size="10.00">AsianQMC</text>
</a>
</g>
</g>
<!-- Node581&#45;&gt;Node582 -->
<g id="edge1" class="edge"><title>Node581&#45;&gt;Node582</title>
<path fill="none" stroke="midnightblue" d="M93.0102,-146.268C124.479,-149.694 173.727,-155.056 205.811,-158.55"/>
<polygon fill="midnightblue" stroke="midnightblue" points="92.9983,-142.746 82.6782,-145.143 92.2405,-149.705 92.9983,-142.746"/>
</g>
<!-- Node2 -->
<g id="node3" class="node"><title>Node2</title>
<g id="a_node3"><a xlink:href="classtutorial_1_1NewTestAsianRQMC.html" target="_top" xlink:title="NewTestAsianRQMC">
<polygon fill="none" stroke="black" points="182.5,-114.5 182.5,-133.5 294.5,-133.5 294.5,-114.5 182.5,-114.5"/>
<text text-anchor="middle" x="238.5" y="-121.5" font-family="Helvetica,sans-Serif" font-size="10.00">NewTestAsianRQMC</text>
</a>
</g>
</g>
<!-- Node581&#45;&gt;Node2 -->
<g id="edge2" class="edge"><title>Node581&#45;&gt;Node2</title>
<path fill="none" stroke="midnightblue" d="M92.7713,-139.758C117.234,-137.095 152.558,-133.249 182.183,-130.023"/>
<polygon fill="midnightblue" stroke="midnightblue" points="92.2405,-136.295 82.6782,-140.857 92.9983,-143.254 92.2405,-136.295"/>
</g>
<!-- Node0 -->
<g id="node4" class="node"><title>Node0</title>
<g id="a_node4"><a xlink:href="interfaceumontreal_1_1ssj_1_1mcqmctools_1_1MonteCarloModelDouble.html" target="_top" xlink:title="An interface for a simulation model for which Monte Carlo (MC) and RQMC experiments are to be perform...">
<polygon fill="none" stroke="black" points="0,-57.5 0,-76.5 124,-76.5 124,-57.5 0,-57.5"/>
<text text-anchor="middle" x="62" y="-64.5" font-family="Helvetica,sans-Serif" font-size="10.00">MonteCarloModelDouble</text>
</a>
</g>
</g>
<!-- Node0&#45;&gt;Node2 -->
<g id="edge4" class="edge"><title>Node0&#45;&gt;Node2</title>
<path fill="none" stroke="midnightblue" d="M94.3193,-80.4941C113.136,-88.2924 137.683,-97.9276 160,-105 170.961,-108.474 182.961,-111.692 194.174,-114.456"/>
<polygon fill="midnightblue" stroke="midnightblue" points="95.6194,-77.2441 85.0438,-76.6068 92.9138,-83.7001 95.6194,-77.2441"/>
</g>
<!-- Node1 -->
<g id="node5" class="node"><title>Node1</title>
<g id="a_node5"><a xlink:href="classtutorial_1_1AsianNew.html" target="_top" xlink:title="AsianNew">
<polygon fill="none" stroke="black" points="207.5,-76.5 207.5,-95.5 269.5,-95.5 269.5,-76.5 207.5,-76.5"/>
<text text-anchor="middle" x="238.5" y="-83.5" font-family="Helvetica,sans-Serif" font-size="10.00">AsianNew</text>
</a>
</g>
</g>
<!-- Node0&#45;&gt;Node1 -->
<g id="edge3" class="edge"><title>Node0&#45;&gt;Node1</title>
<path fill="none" stroke="midnightblue" d="M134.057,-74.7369C159.54,-77.5115 186.932,-80.494 207.123,-82.6925"/>
<polygon fill="midnightblue" stroke="midnightblue" points="134.352,-71.2484 124.032,-73.6453 133.594,-78.2072 134.352,-71.2484"/>
</g>
<!-- Node3 -->
<g id="node6" class="node"><title>Node3</title>
<g id="a_node6"><a xlink:href="interfaceumontreal_1_1ssj_1_1mcqmctools_1_1MonteCarloModelCV.html" target="_top" xlink:title="An MonteCarloModelDouble that also implements a vector of control variates. ">
<polygon fill="none" stroke="black" points="185,-38.5 185,-57.5 292,-57.5 292,-38.5 185,-38.5"/>
<text text-anchor="middle" x="238.5" y="-45.5" font-family="Helvetica,sans-Serif" font-size="10.00">MonteCarloModelCV</text>
</a>
</g>
</g>
<!-- Node0&#45;&gt;Node3 -->
<g id="edge5" class="edge"><title>Node0&#45;&gt;Node3</title>
<path fill="none" stroke="midnightblue" d="M134.422,-59.2234C151.317,-57.3839 169.031,-55.4551 184.915,-53.7256"/>
<polygon fill="midnightblue" stroke="midnightblue" points="133.594,-55.7928 124.032,-60.3547 134.352,-62.7516 133.594,-55.7928"/>
</g>
<!-- Node4 -->
<g id="node7" class="node"><title>Node4</title>
<g id="a_node7"><a xlink:href="interfaceumontreal_1_1ssj_1_1mcqmctools_1_1MonteCarloModelDensityKnown.html" target="_top" xlink:title="An interface for a simulation model for which Monte Carlo (MC) and RQMC experiments are to be perform...">
<polygon fill="none" stroke="black" points="160,-0.5 160,-19.5 317,-19.5 317,-0.5 160,-0.5"/>
<text text-anchor="middle" x="238.5" y="-7.5" font-family="Helvetica,sans-Serif" font-size="10.00">MonteCarloModelDensityKnown</text>
</a>
</g>
</g>
<!-- Node0&#45;&gt;Node4 -->
<g id="edge6" class="edge"><title>Node0&#45;&gt;Node4</title>
<path fill="none" stroke="midnightblue" d="M94.3193,-53.5059C113.136,-45.7076 137.683,-36.0724 160,-29 170.961,-25.5263 182.961,-22.3079 194.174,-19.5443"/>
<polygon fill="midnightblue" stroke="midnightblue" points="92.9138,-50.2999 85.0438,-57.3932 95.6194,-56.7559 92.9138,-50.2999"/>
</g>
</g>
</svg>
