<?xml version="1.0" encoding="UTF-8" standalone="no"?>
<!DOCTYPE svg PUBLIC "-//W3C//DTD SVG 1.1//EN"
 "http://www.w3.org/Graphics/SVG/1.1/DTD/svg11.dtd">
<!-- Generated by graphviz version 2.40.1 (20161225.0304)
 -->
<!-- Title: Graphical Class Hierarchy Pages: 1 -->
<svg width="335pt" height="66pt"
 viewBox="0.00 0.00 335.00 66.00" xmlns="http://www.w3.org/2000/svg" xmlns:xlink="http://www.w3.org/1999/xlink">
<g id="graph0" class="graph" transform="scale(1 1) rotate(0) translate(4 62)">
<title>Graphical Class Hierarchy</title>
<!-- Node657 -->
<g id="node1" class="node">
<title>Node657</title>
<polygon fill="none" stroke="#bfbfbf" points="38.5,-38.5 38.5,-57.5 94.5,-57.5 94.5,-38.5 38.5,-38.5"/>
<text text-anchor="middle" x="66.5" y="-45.5" font-family="Helvetica,sans-Serif" font-size="10.00" fill="#000000">ArrayList</text>
</g>
<!-- Node2 -->
<g id="node2" class="node">
<title>Node2</title>
<g id="a_node2"><a xlink:href="classumontreal_1_1ssj_1_1mcqmctools_1_1anova_1_1ObservationCollectorList.html" target="_top" xlink:title="ObservationCollectorList\&lt; E \&gt;">
<polygon fill="none" stroke="#000000" points="173.5,-38.5 173.5,-57.5 322.5,-57.5 322.5,-38.5 173.5,-38.5"/>
<text text-anchor="middle" x="248" y="-45.5" font-family="Helvetica,sans-Serif" font-size="10.00" fill="#000000">ObservationCollectorList&lt; E &gt;</text>
</a>
</g>
</g>
<!-- Node657&#45;&gt;Node2 -->
<g id="edge1" class="edge">
<title>Node657&#45;&gt;Node2</title>
<path fill="none" stroke="#191970" d="M105.0396,-48C124.8999,-48 149.8161,-48 173.2602,-48"/>
<polygon fill="#191970" stroke="#191970" points="104.8594,-44.5001 94.8594,-48 104.8593,-51.5001 104.8594,-44.5001"/>
</g>
<!-- Node0 -->
<g id="node3" class="node">
<title>Node0</title>
<g id="a_node3"><a xlink:href="interfaceumontreal_1_1ssj_1_1mcqmctools_1_1anova_1_1ObservationCollector.html" target="_top" xlink:title="ObservationCollector\&lt; E \&gt;">
<polygon fill="none" stroke="#000000" points="0,-.5 0,-19.5 133,-19.5 133,-.5 0,-.5"/>
<text text-anchor="middle" x="66.5" y="-7.5" font-family="Helvetica,sans-Serif" font-size="10.00" fill="#000000">ObservationCollector&lt; E &gt;</text>
</a>
</g>
</g>
<!-- Node0&#45;&gt;Node2 -->
<g id="edge3" class="edge">
<title>Node0&#45;&gt;Node2</title>
<path fill="none" stroke="#191970" d="M122.2921,-21.681C148.0312,-27.0699 178.1992,-33.3861 202.5292,-38.4799"/>
<polygon fill="#191970" stroke="#191970" points="122.8052,-18.2126 112.3001,-19.589 121.3706,-25.064 122.8052,-18.2126"/>
</g>
<!-- Node1 -->
<g id="node4" class="node">
<title>Node1</title>
<g id="a_node4"><a xlink:href="classumontreal_1_1ssj_1_1mcqmctools_1_1anova_1_1BasicObservationCollector.html" target="_top" xlink:title="Does nothing but counting the total number of observations. ">
<polygon fill="none" stroke="#000000" points="169,-.5 169,-19.5 327,-19.5 327,-.5 169,-.5"/>
<text text-anchor="middle" x="248" y="-7.5" font-family="Helvetica,sans-Serif" font-size="10.00" fill="#000000">BasicObservationCollector&lt; E &gt;</text>
</a>
</g>
</g>
<!-- Node0&#45;&gt;Node1 -->
<g id="edge2" class="edge">
<title>Node0&#45;&gt;Node1</title>
<path fill="none" stroke="#191970" d="M143.2659,-10C151.7226,-10 160.3454,-10 168.8308,-10"/>
<polygon fill="#191970" stroke="#191970" points="143.0533,-6.5001 133.0533,-10 143.0533,-13.5001 143.0533,-6.5001"/>
</g>
</g>
</svg>
