<?xml version="1.0" encoding="UTF-8" standalone="no"?>
<!DOCTYPE svg PUBLIC "-//W3C//DTD SVG 1.1//EN"
 "http://www.w3.org/Graphics/SVG/1.1/DTD/svg11.dtd">
<!-- Generated by graphviz version 2.40.1 (0)
 -->
<!-- Title: ObservationListener Pages: 1 -->
<svg width="324pt" height="84pt"
 viewBox="0.00 0.00 323.50 84.00" xmlns="http://www.w3.org/2000/svg" xmlns:xlink="http://www.w3.org/1999/xlink">
<g id="graph0" class="graph" transform="scale(1 1) rotate(0) translate(4 80)">
<title>ObservationListener</title>
<!-- Node0 -->
<g id="node1" class="node">
<title>Node0</title>
<g id="a_node1"><a xlink:title="Represents an object that can listen to observations broadcast by statistical probes.">
<polygon fill="#bfbfbf" stroke="#000000" points="108.5,-56.5 108.5,-75.5 212.5,-75.5 212.5,-56.5 108.5,-56.5"/>
<text text-anchor="middle" x="160.5" y="-63.5" font-family="Helvetica,sans-Serif" font-size="10.00" fill="#000000">ObservationListener</text>
</a>
</g>
</g>
<!-- Node1 -->
<g id="node2" class="node">
<title>Node1</title>
<g id="a_node2"><a xlink:href="classtutorial_1_1QueueObs_1_1LargeWaitsCollector.html" target="_top" xlink:title=" ">
<polygon fill="none" stroke="#000000" points="0,-.5 0,-19.5 155,-19.5 155,-.5 0,-.5"/>
<text text-anchor="middle" x="77.5" y="-7.5" font-family="Helvetica,sans-Serif" font-size="10.00" fill="#000000">QueueObs.LargeWaitsCollector</text>
</a>
</g>
</g>
<!-- Node0&#45;&gt;Node1 -->
<g id="edge1" class="edge">
<title>Node0&#45;&gt;Node1</title>
<path fill="none" stroke="#191970" d="M137.512,-50.49C122.8678,-40.6096 104.3556,-28.1194 91.7918,-19.6427"/>
<polygon fill="#191970" stroke="#191970" points="135.7953,-53.5539 146.0425,-56.2455 139.7104,-47.7511 135.7953,-53.5539"/>
</g>
<!-- Node2 -->
<g id="node3" class="node">
<title>Node2</title>
<g id="a_node3"><a xlink:href="classtutorial_1_1QueueObs_1_1ObservationTrace.html" target="_top" xlink:title=" ">
<polygon fill="none" stroke="#000000" points="173.5,-.5 173.5,-19.5 315.5,-19.5 315.5,-.5 173.5,-.5"/>
<text text-anchor="middle" x="244.5" y="-7.5" font-family="Helvetica,sans-Serif" font-size="10.00" fill="#000000">QueueObs.ObservationTrace</text>
</a>
</g>
</g>
<!-- Node0&#45;&gt;Node2 -->
<g id="edge2" class="edge">
<title>Node0&#45;&gt;Node2</title>
<path fill="none" stroke="#191970" d="M183.7649,-50.49C198.5856,-40.6096 217.3209,-28.1194 230.036,-19.6427"/>
<polygon fill="#191970" stroke="#191970" points="181.5107,-47.7863 175.1317,-56.2455 185.3937,-53.6107 181.5107,-47.7863"/>
</g>
</g>
</svg>
