<?xml version="1.0" encoding="UTF-8" standalone="no"?>
<!DOCTYPE svg PUBLIC "-//W3C//DTD SVG 1.1//EN"
 "http://www.w3.org/Graphics/SVG/1.1/DTD/svg11.dtd">
<!-- Generated by graphviz version 2.40.1 (0)
 -->
<!-- Title: Sampler Pages: 1 -->
<svg width="245pt" height="196pt"
 viewBox="0.00 0.00 244.50 196.00" xmlns="http://www.w3.org/2000/svg" xmlns:xlink="http://www.w3.org/1999/xlink">
<g id="graph0" class="graph" transform="scale(1 1) rotate(0) translate(4 192)">
<title>Sampler</title>
<!-- Node0 -->
<g id="node1" class="node">
<title>Node0</title>
<g id="a_node1"><a xlink:title=" ">
<polygon fill="#bfbfbf" stroke="#000000" points="61.5,-168.5 61.5,-187.5 114.5,-187.5 114.5,-168.5 61.5,-168.5"/>
<text text-anchor="middle" x="88" y="-175.5" font-family="Helvetica,sans-Serif" font-size="10.00" fill="#000000">Sampler</text>
</a>
</g>
</g>
<!-- Node1 -->
<g id="node2" class="node">
<title>Node1</title>
<g id="a_node2"><a xlink:href="classumontreal_1_1ssj_1_1mcqmctools_1_1anova_1_1QMCSampler.html" target="_top" xlink:title="QMC sampler.">
<polygon fill="none" stroke="#000000" points="0,-112.5 0,-131.5 76,-131.5 76,-112.5 0,-112.5"/>
<text text-anchor="middle" x="38" y="-119.5" font-family="Helvetica,sans-Serif" font-size="10.00" fill="#000000">QMCSampler</text>
</a>
</g>
</g>
<!-- Node0&#45;&gt;Node1 -->
<g id="edge1" class="edge">
<title>Node0&#45;&gt;Node1</title>
<path fill="none" stroke="#191970" d="M72.3753,-160.5004C63.8727,-150.9775 53.6782,-139.5596 46.6095,-131.6427"/>
<polygon fill="#191970" stroke="#191970" points="70.0197,-163.1172 79.2907,-168.2455 75.2413,-158.4551 70.0197,-163.1172"/>
</g>
<!-- Node2 -->
<g id="node3" class="node">
<title>Node2</title>
<g id="a_node3"><a xlink:href="interfaceumontreal_1_1ssj_1_1mcqmctools_1_1anova_1_1RandomSampler.html" target="_top" xlink:title=" ">
<polygon fill="none" stroke="#000000" points="94.5,-112.5 94.5,-131.5 183.5,-131.5 183.5,-112.5 94.5,-112.5"/>
<text text-anchor="middle" x="139" y="-119.5" font-family="Helvetica,sans-Serif" font-size="10.00" fill="#000000">RandomSampler</text>
</a>
</g>
</g>
<!-- Node0&#45;&gt;Node2 -->
<g id="edge2" class="edge">
<title>Node0&#45;&gt;Node2</title>
<path fill="none" stroke="#191970" d="M103.6749,-160.7884C112.3994,-151.2085 122.9354,-139.6396 130.2183,-131.6427"/>
<polygon fill="#191970" stroke="#191970" points="101.0291,-158.4954 96.8835,-168.2455 106.2046,-163.2088 101.0291,-158.4954"/>
</g>
<!-- Node3 -->
<g id="node4" class="node">
<title>Node3</title>
<g id="a_node4"><a xlink:href="classumontreal_1_1ssj_1_1mcqmctools_1_1anova_1_1MonteCarloSampler.html" target="_top" xlink:title="Monte Carlo sampler.">
<polygon fill="none" stroke="#000000" points="32.5,-56.5 32.5,-75.5 135.5,-75.5 135.5,-56.5 32.5,-56.5"/>
<text text-anchor="middle" x="84" y="-63.5" font-family="Helvetica,sans-Serif" font-size="10.00" fill="#000000">MonteCarloSampler</text>
</a>
</g>
</g>
<!-- Node2&#45;&gt;Node3 -->
<g id="edge3" class="edge">
<title>Node2&#45;&gt;Node3</title>
<path fill="none" stroke="#191970" d="M122.3774,-105.0751C112.9145,-95.4402 101.4031,-83.7196 93.4705,-75.6427"/>
<polygon fill="#191970" stroke="#191970" points="119.9155,-107.5635 129.4197,-112.2455 124.9097,-102.6585 119.9155,-107.5635"/>
</g>
<!-- Node5 -->
<g id="node6" class="node">
<title>Node5</title>
<g id="a_node6"><a xlink:href="classumontreal_1_1ssj_1_1mcqmctools_1_1anova_1_1RQMCSampler.html" target="_top" xlink:title="QMC sampler.">
<polygon fill="none" stroke="#000000" points="153.5,-56.5 153.5,-75.5 236.5,-75.5 236.5,-56.5 153.5,-56.5"/>
<text text-anchor="middle" x="195" y="-63.5" font-family="Helvetica,sans-Serif" font-size="10.00" fill="#000000">RQMCSampler</text>
</a>
</g>
</g>
<!-- Node2&#45;&gt;Node5 -->
<g id="edge5" class="edge">
<title>Node2&#45;&gt;Node5</title>
<path fill="none" stroke="#191970" d="M155.9249,-105.0751C165.5598,-95.4402 177.2804,-83.7196 185.3573,-75.6427"/>
<polygon fill="#191970" stroke="#191970" points="153.3507,-102.6996 148.7545,-112.2455 158.3004,-107.6493 153.3507,-102.6996"/>
</g>
<!-- Node4 -->
<g id="node5" class="node">
<title>Node4</title>
<g id="a_node5"><a xlink:href="classumontreal_1_1ssj_1_1mcqmctools_1_1anova_1_1MonteCarloIntegrator.html" target="_top" xlink:title=" ">
<polygon fill="none" stroke="#000000" points="30,-.5 30,-19.5 138,-19.5 138,-.5 30,-.5"/>
<text text-anchor="middle" x="84" y="-7.5" font-family="Helvetica,sans-Serif" font-size="10.00" fill="#000000">MonteCarloIntegrator</text>
</a>
</g>
</g>
<!-- Node3&#45;&gt;Node4 -->
<g id="edge4" class="edge">
<title>Node3&#45;&gt;Node4</title>
<path fill="none" stroke="#191970" d="M84,-46.1575C84,-37.155 84,-26.9199 84,-19.6427"/>
<polygon fill="#191970" stroke="#191970" points="80.5001,-46.2455 84,-56.2455 87.5001,-46.2456 80.5001,-46.2455"/>
</g>
</g>
</svg>
