<?xml version="1.0" encoding="UTF-8" standalone="no"?>
<!DOCTYPE svg PUBLIC "-//W3C//DTD SVG 1.1//EN"
 "http://www.w3.org/Graphics/SVG/1.1/DTD/svg11.dtd">
<!-- Generated by graphviz version 2.40.1 (20161225.0304)
 -->
<!-- Title: MonteCarloModelDouble Pages: 1 -->
<svg width="500pt" height="84pt"
 viewBox="0.00 0.00 499.50 84.00" xmlns="http://www.w3.org/2000/svg" xmlns:xlink="http://www.w3.org/1999/xlink">
<g id="graph0" class="graph" transform="scale(1 1) rotate(0) translate(4 80)">
<title>MonteCarloModelDouble</title>
<!-- Node0 -->
<g id="node1" class="node">
<title>Node0</title>
<polygon fill="#bfbfbf" stroke="#000000" points="137,-56.5 137,-75.5 261,-75.5 261,-56.5 137,-56.5"/>
<text text-anchor="middle" x="199" y="-63.5" font-family="Helvetica,sans-Serif" font-size="10.00" fill="#000000">MonteCarloModelDouble</text>
</g>
<!-- Node1 -->
<g id="node2" class="node">
<title>Node1</title>
<g id="a_node2"><a xlink:href="classtutorial_1_1AsianNew.html" target="_top" xlink:title="AsianNew">
<polygon fill="none" stroke="#000000" points="0,-.5 0,-19.5 62,-19.5 62,-.5 0,-.5"/>
<text text-anchor="middle" x="31" y="-7.5" font-family="Helvetica,sans-Serif" font-size="10.00" fill="#000000">AsianNew</text>
</a>
</g>
</g>
<!-- Node0&#45;&gt;Node1 -->
<g id="edge1" class="edge">
<title>Node0&#45;&gt;Node1</title>
<path fill="none" stroke="#191970" d="M160.5714,-53.1905C129.7927,-42.9309 87.3074,-28.7691 59.5034,-19.5011"/>
<polygon fill="#191970" stroke="#191970" points="159.5261,-56.5313 170.1198,-56.3733 161.7398,-49.8905 159.5261,-56.5313"/>
</g>
<!-- Node2 -->
<g id="node3" class="node">
<title>Node2</title>
<g id="a_node3"><a xlink:href="classtutorial_1_1NewTestAsianRQMC.html" target="_top" xlink:title="NewTestAsianRQMC">
<polygon fill="none" stroke="#000000" points="80.5,-.5 80.5,-19.5 191.5,-19.5 191.5,-.5 80.5,-.5"/>
<text text-anchor="middle" x="136" y="-7.5" font-family="Helvetica,sans-Serif" font-size="10.00" fill="#000000">NewTestAsianRQMC</text>
</a>
</g>
</g>
<!-- Node0&#45;&gt;Node2 -->
<g id="edge2" class="edge">
<title>Node0&#45;&gt;Node2</title>
<path fill="none" stroke="#191970" d="M180.2808,-49.3607C169.3818,-39.6727 156.0245,-27.7995 146.848,-19.6427"/>
<polygon fill="#191970" stroke="#191970" points="178.2268,-52.2178 188.0262,-56.2455 182.8774,-46.9859 178.2268,-52.2178"/>
</g>
<!-- Node3 -->
<g id="node4" class="node">
<title>Node3</title>
<g id="a_node4"><a xlink:href="interfaceumontreal_1_1ssj_1_1mcqmctools_1_1MonteCarloModelCV.html" target="_top" xlink:title="An MonteCarloModelDouble that also implements a vector of control variates. ">
<polygon fill="none" stroke="#000000" points="209.5,-.5 209.5,-19.5 316.5,-19.5 316.5,-.5 209.5,-.5"/>
<text text-anchor="middle" x="263" y="-7.5" font-family="Helvetica,sans-Serif" font-size="10.00" fill="#000000">MonteCarloModelCV</text>
</a>
</g>
</g>
<!-- Node0&#45;&gt;Node3 -->
<g id="edge3" class="edge">
<title>Node0&#45;&gt;Node3</title>
<path fill="none" stroke="#191970" d="M217.6914,-49.645C228.8219,-39.9058 242.5663,-27.8795 251.9798,-19.6427"/>
<polygon fill="#191970" stroke="#191970" points="215.369,-47.0264 210.1479,-56.2455 219.9785,-52.2945 215.369,-47.0264"/>
</g>
<!-- Node4 -->
<g id="node5" class="node">
<title>Node4</title>
<g id="a_node5"><a xlink:href="interfaceumontreal_1_1ssj_1_1mcqmctools_1_1MonteCarloModelDensityKnown.html" target="_top" xlink:title="An interface for a simulation model for which Monte Carlo (MC) and RQMC experiments are to be perform...">
<polygon fill="none" stroke="#000000" points="334.5,-.5 334.5,-19.5 491.5,-19.5 491.5,-.5 334.5,-.5"/>
<text text-anchor="middle" x="413" y="-7.5" font-family="Helvetica,sans-Serif" font-size="10.00" fill="#000000">MonteCarloModelDensityKnown</text>
</a>
</g>
</g>
<!-- Node0&#45;&gt;Node4 -->
<g id="edge4" class="edge">
<title>Node0&#45;&gt;Node4</title>
<path fill="none" stroke="#191970" d="M245.6766,-53.7856C285.0414,-43.4845 340.5851,-28.9497 376.6921,-19.5011"/>
<polygon fill="#191970" stroke="#191970" points="244.5761,-50.4556 235.7879,-56.3733 246.3482,-57.2276 244.5761,-50.4556"/>
</g>
</g>
</svg>
