<?xml version="1.0" encoding="UTF-8" standalone="no"?>
<!DOCTYPE svg PUBLIC "-//W3C//DTD SVG 1.1//EN"
 "http://www.w3.org/Graphics/SVG/1.1/DTD/svg11.dtd">
<!-- Generated by graphviz version 2.40.1 (0)
 -->
<!-- Title: MathFunctionWithDerivative Pages: 1 -->
<!--zoomable 218 -->
<svg id="main" version="1.1" xmlns="http://www.w3.org/2000/svg" xmlns:xlink="http://www.w3.org/1999/xlink" xml:space="preserve" onload="init(evt)">
<style type="text/css"><![CDATA[
.edge:hover path { stroke: red; }
.edge:hover polygon { stroke: red; fill: red; }
]]></style>
<script type="text/javascript"><![CDATA[
var edges = document.getElementsByTagName('g');
if (edges && edges.length) {
  for (var i=0;i<edges.length;i++) {
    if (edges[i].id.substr(0,4)=='edge') {
      edges[i].setAttribute('class','edge');
    }
  }
}
]]></script>
        <defs>
                <circle id="rim" cx="0" cy="0" r="7"/>
                <circle id="rim2" cx="0" cy="0" r="3.5"/>
                <g id="zoomPlus">
                        <use xlink:href="#rim" fill="#404040">
                                <set attributeName="fill" to="#808080" begin="zoomplus.mouseover" end="zoomplus.mouseout"/>
                        </use>
                        <path d="M-4,0h8M0,-4v8" fill="none" stroke="white" stroke-width="1.5" pointer-events="none"/>
                </g>
                <g id="zoomMin">
                        <use xlink:href="#rim" fill="#404040">
                                <set attributeName="fill" to="#808080" begin="zoomminus.mouseover" end="zoomminus.mouseout"/>
                        </use>
                        <path d="M-4,0h8" fill="none" stroke="white" stroke-width="1.5" pointer-events="none"/>
                </g>
                <g id="dirArrow">
                        <path fill="none" stroke="white" stroke-width="1.5" d="M0,-3.0v7 M-2.5,-0.5L0,-3.0L2.5,-0.5"/>
                </g>
               <g id="resetDef">
                       <use xlink:href="#rim2" fill="#404040">
                               <set attributeName="fill" to="#808080" begin="reset.mouseover" end="reset.mouseout"/>
                       </use>
               </g>
        </defs>

<script type="text/javascript">
var viewWidth = 504;
var viewHeight = 218;
var sectionId = 'dynsection-0';
</script>
<script xlink:href="svgpan.js"/>
<svg id="graph" class="graph">
<g id="viewport">
<title>MathFunctionWithDerivative</title>
<!-- Node0 -->
<g id="node1" class="node">
<title>Node0</title>
<g id="a_node1"><a xlink:title="Represents a mathematical function whose th derivative can be computed using derivative(double,...">
<polygon fill="#bfbfbf" stroke="#000000" points="112,-95.5 112,-114.5 252,-114.5 252,-95.5 112,-95.5"/>
<text text-anchor="middle" x="182" y="-102.5" font-family="Helvetica,sans-Serif" font-size="10.00" fill="#000000">MathFunctionWithDerivative</text>
</a>
</g>
</g>
<!-- Node2 -->
<g id="node3" class="node">
<title>Node2</title>
<g id="a_node3"><a xlink:href="classumontreal_1_1ssj_1_1functionfit_1_1BSpline.html" target="_top" xlink:title="Represents a B&#45;spline with control points at .">
<polygon fill="none" stroke="#000000" points="321,-190.5 321,-209.5 371,-209.5 371,-190.5 321,-190.5"/>
<text text-anchor="middle" x="346" y="-197.5" font-family="Helvetica,sans-Serif" font-size="10.00" fill="#000000">BSpline</text>
</a>
</g>
</g>
<!-- Node0&#45;&gt;Node2 -->
<g id="edge2" class="edge">
<title>Node0&#45;&gt;Node2</title>
<path fill="none" stroke="#191970" d="M200.8637,-121.2711C221.2127,-138.1408 255.1311,-164.3326 288,-181 298.3009,-186.2235 310.3448,-190.4433 320.7799,-193.5672"/>
<polygon fill="#191970" stroke="#191970" points="202.921,-118.4279 193.0162,-114.6669 198.4137,-123.7838 202.921,-118.4279"/>
</g>
<!-- Node3 -->
<g id="node4" class="node">
<title>Node3</title>
<g id="a_node4"><a xlink:href="classumontreal_1_1ssj_1_1functionfit_1_1SmoothingCubicSpline.html" target="_top" xlink:title="Represents a cubic spline with nodes at &#160;computed with the smoothing cubic spline algorithm of Schoen...">
<polygon fill="none" stroke="#000000" points="288,-152.5 288,-171.5 404,-171.5 404,-152.5 288,-152.5"/>
<text text-anchor="middle" x="346" y="-159.5" font-family="Helvetica,sans-Serif" font-size="10.00" fill="#000000">SmoothingCubicSpline</text>
</a>
</g>
</g>
<!-- Node0&#45;&gt;Node3 -->
<g id="edge3" class="edge">
<title>Node0&#45;&gt;Node3</title>
<path fill="none" stroke="#191970" d="M217.6401,-118.054C238.1663,-125.5026 264.4802,-134.9335 288,-143 297.2211,-146.1625 307.3052,-149.5058 316.4412,-152.4915"/>
<polygon fill="#191970" stroke="#191970" points="218.6603,-114.7008 208.0662,-114.5714 216.2673,-121.2791 218.6603,-114.7008"/>
</g>
<!-- Node4 -->
<g id="node5" class="node">
<title>Node4</title>
<g id="a_node5"><a xlink:href="classumontreal_1_1ssj_1_1functions_1_1AverageMathFunction.html" target="_top" xlink:title="Represents a function computing the average of several functions.">
<polygon fill="none" stroke="#000000" points="290,-114.5 290,-133.5 402,-133.5 402,-114.5 290,-114.5"/>
<text text-anchor="middle" x="346" y="-121.5" font-family="Helvetica,sans-Serif" font-size="10.00" fill="#000000">AverageMathFunction</text>
</a>
</g>
</g>
<!-- Node0&#45;&gt;Node4 -->
<g id="edge4" class="edge">
<title>Node0&#45;&gt;Node4</title>
<path fill="none" stroke="#191970" d="M262.1448,-114.2851C271.5025,-115.3692 280.8923,-116.457 289.8267,-117.4921"/>
<polygon fill="#191970" stroke="#191970" points="262.3628,-110.787 252.0265,-113.1128 261.5572,-117.7405 262.3628,-110.787"/>
</g>
<!-- Node5 -->
<g id="node6" class="node">
<title>Node5</title>
<g id="a_node6"><a xlink:href="classumontreal_1_1ssj_1_1functions_1_1IdentityMathFunction.html" target="_top" xlink:title="Represents the identity function .">
<polygon fill="none" stroke="#000000" points="292,-76.5 292,-95.5 400,-95.5 400,-76.5 292,-76.5"/>
<text text-anchor="middle" x="346" y="-83.5" font-family="Helvetica,sans-Serif" font-size="10.00" fill="#000000">IdentityMathFunction</text>
</a>
</g>
</g>
<!-- Node0&#45;&gt;Node5 -->
<g id="edge5" class="edge">
<title>Node0&#45;&gt;Node5</title>
<path fill="none" stroke="#191970" d="M262.0089,-95.7307C272.0266,-94.5701 282.0841,-93.4049 291.5826,-92.3045"/>
<polygon fill="#191970" stroke="#191970" points="261.5572,-92.2595 252.0265,-96.8872 262.3628,-99.213 261.5572,-92.2595"/>
</g>
<!-- Node6 -->
<g id="node7" class="node">
<title>Node6</title>
<g id="a_node7"><a xlink:href="classumontreal_1_1ssj_1_1functions_1_1Polynomial.html" target="_top" xlink:title="Represents a polynomial of degree &#160;in power form.">
<polygon fill="none" stroke="#000000" points="313.5,-38.5 313.5,-57.5 378.5,-57.5 378.5,-38.5 313.5,-38.5"/>
<text text-anchor="middle" x="346" y="-45.5" font-family="Helvetica,sans-Serif" font-size="10.00" fill="#000000">Polynomial</text>
</a>
</g>
</g>
<!-- Node0&#45;&gt;Node6 -->
<g id="edge6" class="edge">
<title>Node0&#45;&gt;Node6</title>
<path fill="none" stroke="#191970" d="M217.6401,-91.946C238.1663,-84.4974 264.4802,-75.0665 288,-67 297.2211,-63.8375 307.3052,-60.4942 316.4412,-57.5085"/>
<polygon fill="#191970" stroke="#191970" points="216.2673,-88.7209 208.0662,-95.4286 218.6603,-95.2992 216.2673,-88.7209"/>
</g>
<!-- Node8 -->
<g id="node9" class="node">
<title>Node8</title>
<g id="a_node9"><a xlink:href="classumontreal_1_1ssj_1_1functions_1_1ShiftedMathFunction.html" target="_top" xlink:title="Represents a function computing &#160;for a user&#45;defined function &#160;and shift .">
<polygon fill="none" stroke="#000000" points="292.5,-.5 292.5,-19.5 399.5,-19.5 399.5,-.5 292.5,-.5"/>
<text text-anchor="middle" x="346" y="-7.5" font-family="Helvetica,sans-Serif" font-size="10.00" fill="#000000">ShiftedMathFunction</text>
</a>
</g>
</g>
<!-- Node0&#45;&gt;Node8 -->
<g id="edge8" class="edge">
<title>Node0&#45;&gt;Node8</title>
<path fill="none" stroke="#191970" d="M200.8637,-88.7289C221.2127,-71.8592 255.1311,-45.6674 288,-29 295.1823,-25.358 303.2119,-22.2038 310.9528,-19.5689"/>
<polygon fill="#191970" stroke="#191970" points="198.4137,-86.2162 193.0162,-95.3331 202.921,-91.5721 198.4137,-86.2162"/>
</g>
<!-- Node1 -->
<g id="node2" class="node">
<title>Node1</title>
<g id="a_node2"><a xlink:href="interfaceumontreal_1_1ssj_1_1functions_1_1MathFunction.html" target="_top" xlink:title="This interface should be implemented by classes which represent univariate mathematical functions.">
<polygon fill="none" stroke="#000000" points="0,-95.5 0,-114.5 76,-114.5 76,-95.5 0,-95.5"/>
<text text-anchor="middle" x="38" y="-102.5" font-family="Helvetica,sans-Serif" font-size="10.00" fill="#000000">MathFunction</text>
</a>
</g>
</g>
<!-- Node1&#45;&gt;Node0 -->
<g id="edge1" class="edge">
<title>Node1&#45;&gt;Node0</title>
<path fill="none" stroke="#191970" d="M86.329,-105C94.5415,-105 103.2163,-105 111.8554,-105"/>
<polygon fill="#191970" stroke="#191970" points="86.2113,-101.5001 76.2113,-105 86.2113,-108.5001 86.2113,-101.5001"/>
</g>
<!-- Node7 -->
<g id="node8" class="node">
<title>Node7</title>
<g id="a_node8"><a xlink:href="classumontreal_1_1ssj_1_1functionfit_1_1PolInterp.html" target="_top" xlink:title="Represents a polynomial that interpolates through a set of points.">
<polygon fill="none" stroke="#000000" points="440,-38.5 440,-57.5 496,-57.5 496,-38.5 440,-38.5"/>
<text text-anchor="middle" x="468" y="-45.5" font-family="Helvetica,sans-Serif" font-size="10.00" fill="#000000">PolInterp</text>
</a>
</g>
</g>
<!-- Node6&#45;&gt;Node7 -->
<g id="edge7" class="edge">
<title>Node6&#45;&gt;Node7</title>
<path fill="none" stroke="#191970" d="M388.8875,-48C405.7655,-48 424.678,-48 439.7785,-48"/>
<polygon fill="#191970" stroke="#191970" points="388.6938,-44.5001 378.6938,-48 388.6937,-51.5001 388.6938,-44.5001"/>
</g>
</g>
</svg>
        <g id="navigator" transform="translate(0 0)" fill="#404254">
                <rect fill="#f2f5e9" fill-opacity="0.5" stroke="#606060" stroke-width=".5" x="0" y="0" width="60" height="60"/>
                <use id="zoomplus" xlink:href="#zoomPlus" x="17" y="9" onmousedown="handleZoom(evt,'in')"/>
                <use id="zoomminus" xlink:href="#zoomMin" x="42" y="9" onmousedown="handleZoom(evt,'out')"/>
                <use id="reset" xlink:href="#resetDef" x="30" y="36" onmousedown="handleReset()"/>
                <g id="arrowUp" xlink:href="#dirArrow" transform="translate(30 24)" onmousedown="handlePan(0,-1)">
                  <use xlink:href="#rim" fill="#404040">
                        <set attributeName="fill" to="#808080" begin="arrowUp.mouseover" end="arrowUp.mouseout"/>
                  </use>
                  <path fill="none" stroke="white" stroke-width="1.5" d="M0,-3.0v7 M-2.5,-0.5L0,-3.0L2.5,-0.5"/>
                </g>
                <g id="arrowRight" xlink:href="#dirArrow" transform="rotate(90) translate(36 -43)" onmousedown="handlePan(1,0)">
                  <use xlink:href="#rim" fill="#404040">
                        <set attributeName="fill" to="#808080" begin="arrowRight.mouseover" end="arrowRight.mouseout"/>
                  </use>
                  <path fill="none" stroke="white" stroke-width="1.5" d="M0,-3.0v7 M-2.5,-0.5L0,-3.0L2.5,-0.5"/>
                </g>
                <g id="arrowDown" xlink:href="#dirArrow" transform="rotate(180) translate(-30 -48)" onmousedown="handlePan(0,1)">
                  <use xlink:href="#rim" fill="#404040">
                        <set attributeName="fill" to="#808080" begin="arrowDown.mouseover" end="arrowDown.mouseout"/>
                  </use>
                  <path fill="none" stroke="white" stroke-width="1.5" d="M0,-3.0v7 M-2.5,-0.5L0,-3.0L2.5,-0.5"/>
                </g>
                <g id="arrowLeft" xlink:href="#dirArrow" transform="rotate(270) translate(-36 17)" onmousedown="handlePan(-1,0)">
                  <use xlink:href="#rim" fill="#404040">
                        <set attributeName="fill" to="#808080" begin="arrowLeft.mouseover" end="arrowLeft.mouseout"/>
                  </use>
                  <path fill="none" stroke="white" stroke-width="1.5" d="M0,-3.0v7 M-2.5,-0.5L0,-3.0L2.5,-0.5"/>
                </g>
        </g>
        <svg viewBox="0 0 15 15" width="100%" height="30px" preserveAspectRatio="xMaxYMin meet">
         <g id="arrow_out" transform="scale(0.3 0.3)">
          <a xlink:href="interfaceumontreal_1_1ssj_1_1functions_1_1MathFunctionWithDerivative__inherit__graph_org.svg" target="_base">
           <rect id="button" ry="5" rx="5" y="6" x="6" height="38" width="38"
                fill="#f2f5e9" fill-opacity="0.5" stroke="#606060" stroke-width="1.0"/>
           <path id="arrow"
             d="M 11.500037,31.436501 C 11.940474,20.09759 22.043105,11.32322 32.158766,21.979434 L 37.068811,17.246167 C 37.068811,17.246167 37.088388,32 37.088388,32 L 22.160133,31.978069 C 22.160133,31.978069 26.997745,27.140456 26.997745,27.140456 C 18.528582,18.264221 13.291696,25.230495 11.500037,31.436501 z"
             style="fill:#404040;"/>
          </a>
         </g>
        </svg>
</svg>
