<?xml version="1.0" encoding="UTF-8" standalone="no"?>
<!DOCTYPE svg PUBLIC "-//W3C//DTD SVG 1.1//EN"
 "http://www.w3.org/Graphics/SVG/1.1/DTD/svg11.dtd">
<!-- Generated by graphviz version 2.38.0 (20140413.2041)
 -->
<!-- Title: MonteCarloModelDouble Pages: 1 -->
<svg width="501pt" height="84pt"
 viewBox="0.00 0.00 500.50 84.00" xmlns="http://www.w3.org/2000/svg" xmlns:xlink="http://www.w3.org/1999/xlink">
<g id="graph0" class="graph" transform="scale(1 1) rotate(0) translate(4 80)">
<title>MonteCarloModelDouble</title>
<!-- Node0 -->
<g id="node1" class="node"><title>Node0</title>
<polygon fill="#bfbfbf" stroke="black" points="138,-56.5 138,-75.5 262,-75.5 262,-56.5 138,-56.5"/>
<text text-anchor="middle" x="200" y="-63.5" font-family="Helvetica,sans-Serif" font-size="10.00">MonteCarloModelDouble</text>
</g>
<!-- Node1 -->
<g id="node2" class="node"><title>Node1</title>
<g id="a_node2"><a xlink:href="classtutorial_1_1AsianNew.html" target="_top" xlink:title="AsianNew">
<polygon fill="none" stroke="black" points="0,-0.5 0,-19.5 62,-19.5 62,-0.5 0,-0.5"/>
<text text-anchor="middle" x="31" y="-7.5" font-family="Helvetica,sans-Serif" font-size="10.00">AsianNew</text>
</a>
</g>
</g>
<!-- Node0&#45;&gt;Node1 -->
<g id="edge1" class="edge"><title>Node0&#45;&gt;Node1</title>
<path fill="none" stroke="midnightblue" d="M163.397,-53.3044C131.553,-43.1294 86.1584,-28.6246 57.6533,-19.5164"/>
<polygon fill="midnightblue" stroke="midnightblue" points="162.631,-56.7337 173.221,-56.4435 164.761,-50.0659 162.631,-56.7337"/>
</g>
<!-- Node2 -->
<g id="node3" class="node"><title>Node2</title>
<g id="a_node3"><a xlink:href="classtutorial_1_1NewTestAsianRQMC.html" target="_top" xlink:title="NewTestAsianRQMC">
<polygon fill="none" stroke="black" points="80,-0.5 80,-19.5 192,-19.5 192,-0.5 80,-0.5"/>
<text text-anchor="middle" x="136" y="-7.5" font-family="Helvetica,sans-Serif" font-size="10.00">NewTestAsianRQMC</text>
</a>
</g>
</g>
<!-- Node0&#45;&gt;Node2 -->
<g id="edge2" class="edge"><title>Node0&#45;&gt;Node2</title>
<path fill="none" stroke="midnightblue" d="M182.009,-49.8197C170.542,-40.1452 156.087,-27.9481 146.47,-19.8339"/>
<polygon fill="midnightblue" stroke="midnightblue" points="179.817,-52.5502 189.717,-56.324 184.331,-47.2002 179.817,-52.5502"/>
</g>
<!-- Node3 -->
<g id="node4" class="node"><title>Node3</title>
<g id="a_node4"><a xlink:href="interfaceumontreal_1_1ssj_1_1mcqmctools_1_1MonteCarloModelCV.html" target="_top" xlink:title="An MonteCarloModelDouble that also implements a vector of control variates. ">
<polygon fill="none" stroke="black" points="210.5,-0.5 210.5,-19.5 317.5,-19.5 317.5,-0.5 210.5,-0.5"/>
<text text-anchor="middle" x="264" y="-7.5" font-family="Helvetica,sans-Serif" font-size="10.00">MonteCarloModelCV</text>
</a>
</g>
</g>
<!-- Node0&#45;&gt;Node3 -->
<g id="edge3" class="edge"><title>Node0&#45;&gt;Node3</title>
<path fill="none" stroke="midnightblue" d="M217.991,-49.8197C229.458,-40.1452 243.913,-27.9481 253.53,-19.8339"/>
<polygon fill="midnightblue" stroke="midnightblue" points="215.669,-47.2002 210.283,-56.324 220.183,-52.5502 215.669,-47.2002"/>
</g>
<!-- Node4 -->
<g id="node5" class="node"><title>Node4</title>
<g id="a_node5"><a xlink:href="interfaceumontreal_1_1ssj_1_1mcqmctools_1_1MonteCarloModelDensityKnown.html" target="_top" xlink:title="An interface for a simulation model for which Monte Carlo (MC) and RQMC experiments are to be perform...">
<polygon fill="none" stroke="black" points="335.5,-0.5 335.5,-19.5 492.5,-19.5 492.5,-0.5 335.5,-0.5"/>
<text text-anchor="middle" x="414" y="-7.5" font-family="Helvetica,sans-Serif" font-size="10.00">MonteCarloModelDensityKnown</text>
</a>
</g>
</g>
<!-- Node0&#45;&gt;Node4 -->
<g id="edge4" class="edge"><title>Node0&#45;&gt;Node4</title>
<path fill="none" stroke="midnightblue" d="M243.755,-53.959C284.174,-43.7598 343.373,-28.8217 380.25,-19.5164"/>
<polygon fill="midnightblue" stroke="midnightblue" points="242.749,-50.6032 233.909,-56.4435 244.461,-57.3904 242.749,-50.6032"/>
</g>
</g>
</svg>
