<?xml version="1.0" encoding="UTF-8" standalone="no"?>
<!DOCTYPE svg PUBLIC "-//W3C//DTD SVG 1.1//EN"
 "http://www.w3.org/Graphics/SVG/1.1/DTD/svg11.dtd">
<!-- Generated by graphviz version 2.40.1 (20161225.0304)
 -->
<!-- Title: MathFunction Pages: 1 -->
<!--zoomable 412 -->
<svg id="main" version="1.1" xmlns="http://www.w3.org/2000/svg" xmlns:xlink="http://www.w3.org/1999/xlink" xml:space="preserve" onload="init(evt)">
<style type="text/css"><![CDATA[
.edge:hover path { stroke: red; }
.edge:hover polygon { stroke: red; fill: red; }
]]></style>
<script type="text/javascript"><![CDATA[
var edges = document.getElementsByTagName('g');
if (edges && edges.length) {
  for (var i=0;i<edges.length;i++) {
    if (edges[i].id.substr(0,4)=='edge') {
      edges[i].setAttribute('class','edge');
    }
  }
}
]]></script>
        <defs>
                <circle id="rim" cx="0" cy="0" r="7"/>
                <circle id="rim2" cx="0" cy="0" r="3.5"/>
                <g id="zoomPlus">
                        <use xlink:href="#rim" fill="#404040">
                                <set attributeName="fill" to="#808080" begin="zoomplus.mouseover" end="zoomplus.mouseout"/>
                        </use>
                        <path d="M-4,0h8M0,-4v8" fill="none" stroke="white" stroke-width="1.5" pointer-events="none"/>
                </g>
                <g id="zoomMin">
                        <use xlink:href="#rim" fill="#404040">
                                <set attributeName="fill" to="#808080" begin="zoomminus.mouseover" end="zoomminus.mouseout"/>
                        </use>
                        <path d="M-4,0h8" fill="none" stroke="white" stroke-width="1.5" pointer-events="none"/>
                </g>
                <g id="dirArrow">
                        <path fill="none" stroke="white" stroke-width="1.5" d="M0,-3.0v7 M-2.5,-0.5L0,-3.0L2.5,-0.5"/>
                </g>
               <g id="resetDef">
                       <use xlink:href="#rim2" fill="#404040">
                               <set attributeName="fill" to="#808080" begin="reset.mouseover" end="reset.mouseout"/>
                       </use>
               </g>
        </defs>

<script type="text/javascript">
var viewWidth = 524;
var viewHeight = 412;
var sectionId = 'dynsection-0';
</script>
<script xlink:href="svgpan.js"/>
<svg id="graph" class="graph">
<g id="viewport">
<title>MathFunction</title>
<!-- Node0 -->
<g id="node1" class="node">
<title>Node0</title>
<polygon fill="#bfbfbf" stroke="#000000" points="0,-209.5 0,-228.5 76,-228.5 76,-209.5 0,-209.5"/>
<text text-anchor="middle" x="38" y="-216.5" font-family="Helvetica,sans-Serif" font-size="10.00" fill="#000000">MathFunction</text>
</g>
<!-- Node1 -->
<g id="node2" class="node">
<title>Node1</title>
<g id="a_node2"><a xlink:href="classumontreal_1_1ssj_1_1functionfit_1_1BSpline.html" target="_top" xlink:title="Represents a B&#45;spline with control points at . ">
<polygon fill="none" stroke="#000000" points="341,-342.5 341,-361.5 391,-361.5 391,-342.5 341,-342.5"/>
<text text-anchor="middle" x="366" y="-349.5" font-family="Helvetica,sans-Serif" font-size="10.00" fill="#000000">BSpline</text>
</a>
</g>
</g>
<!-- Node0&#45;&gt;Node1 -->
<g id="edge1" class="edge">
<title>Node0&#45;&gt;Node1</title>
<path fill="none" stroke="#191970" d="M40.1724,-238.9206C45.3059,-275.0366 61.8047,-350.5805 112,-383 187.9415,-432.0481 303.6507,-383.5285 347.9157,-361.565"/>
<polygon fill="#191970" stroke="#191970" points="43.6049,-238.166 38.8768,-228.6847 36.6603,-239.0451 43.6049,-238.166"/>
</g>
<!-- Node2 -->
<g id="node3" class="node">
<title>Node2</title>
<g id="a_node3"><a xlink:href="classumontreal_1_1ssj_1_1functionfit_1_1SmoothingCubicSpline.html" target="_top" xlink:title="Represents a cubic spline with nodes at &#160;computed with the smoothing cubic spline algorithm of Schoen...">
<polygon fill="none" stroke="#000000" points="308,-304.5 308,-323.5 424,-323.5 424,-304.5 308,-304.5"/>
<text text-anchor="middle" x="366" y="-311.5" font-family="Helvetica,sans-Serif" font-size="10.00" fill="#000000">SmoothingCubicSpline</text>
</a>
</g>
</g>
<!-- Node0&#45;&gt;Node2 -->
<g id="edge2" class="edge">
<title>Node0&#45;&gt;Node2</title>
<path fill="none" stroke="#191970" d="M41.7871,-238.5909C49.0827,-270.2652 68.3917,-331.8129 112,-358 172.9636,-394.6091 204.1388,-379.252 272,-358 290.5894,-352.1784 290.5606,-341.679 308,-333 315.3043,-329.3649 323.4619,-326.1976 331.2986,-323.5456"/>
<polygon fill="#191970" stroke="#191970" points="45.1953,-237.7907 39.6875,-228.7401 38.3491,-239.25 45.1953,-237.7907"/>
</g>
<!-- Node3 -->
<g id="node4" class="node">
<title>Node3</title>
<g id="a_node4"><a xlink:href="classumontreal_1_1ssj_1_1functions_1_1AverageMathFunction.html" target="_top" xlink:title="Represents a function computing the average of several functions. ">
<polygon fill="none" stroke="#000000" points="310,-266.5 310,-285.5 422,-285.5 422,-266.5 310,-266.5"/>
<text text-anchor="middle" x="366" y="-273.5" font-family="Helvetica,sans-Serif" font-size="10.00" fill="#000000">AverageMathFunction</text>
</a>
</g>
</g>
<!-- Node0&#45;&gt;Node3 -->
<g id="edge3" class="edge">
<title>Node0&#45;&gt;Node3</title>
<path fill="none" stroke="#191970" d="M44.0764,-238.5283C53.6325,-265.4487 75.0046,-312.9083 112,-333 174.4903,-366.9375 206.6755,-361.0981 272,-333 293.3713,-323.8075 288.3448,-307.4462 308,-295 313.9979,-291.202 320.8291,-288.0905 327.6466,-285.5664"/>
<polygon fill="#191970" stroke="#191970" points="47.2796,-237.0705 40.7895,-228.6961 40.6407,-239.2899 47.2796,-237.0705"/>
</g>
<!-- Node4 -->
<g id="node5" class="node">
<title>Node4</title>
<g id="a_node5"><a xlink:href="classumontreal_1_1ssj_1_1functions_1_1IdentityMathFunction.html" target="_top" xlink:title="Represents the identity function . ">
<polygon fill="none" stroke="#000000" points="312,-228.5 312,-247.5 420,-247.5 420,-228.5 312,-228.5"/>
<text text-anchor="middle" x="366" y="-235.5" font-family="Helvetica,sans-Serif" font-size="10.00" fill="#000000">IdentityMathFunction</text>
</a>
</g>
</g>
<!-- Node0&#45;&gt;Node4 -->
<g id="edge4" class="edge">
<title>Node0&#45;&gt;Node4</title>
<path fill="none" stroke="#191970" d="M86.277,-221.7965C146.4967,-225.2849 249.1618,-231.2319 311.9545,-234.8693"/>
<polygon fill="#191970" stroke="#191970" points="86.4534,-218.301 76.2677,-221.2167 86.0485,-225.2893 86.4534,-218.301"/>
</g>
<!-- Node5 -->
<g id="node6" class="node">
<title>Node5</title>
<g id="a_node6"><a xlink:href="interfaceumontreal_1_1ssj_1_1functions_1_1MathFunctionWithDerivative.html" target="_top" xlink:title="Represents a mathematical function whose th derivative can be computed using derivative(double,int). ">
<polygon fill="none" stroke="#000000" points="122,-266.5 122,-285.5 262,-285.5 262,-266.5 122,-266.5"/>
<text text-anchor="middle" x="192" y="-273.5" font-family="Helvetica,sans-Serif" font-size="10.00" fill="#000000">MathFunctionWithDerivative</text>
</a>
</g>
</g>
<!-- Node0&#45;&gt;Node5 -->
<g id="edge5" class="edge">
<title>Node0&#45;&gt;Node5</title>
<path fill="none" stroke="#191970" d="M66.7907,-232.8698C80.3411,-239.1301 96.8252,-246.3666 112,-252 126.4096,-257.3494 142.602,-262.3835 156.6304,-266.4464"/>
<polygon fill="#191970" stroke="#191970" points="68.0436,-229.5918 57.503,-228.5208 65.0751,-235.9313 68.0436,-229.5918"/>
</g>
<!-- Node6 -->
<g id="node7" class="node">
<title>Node6</title>
<g id="a_node7"><a xlink:href="classumontreal_1_1ssj_1_1functions_1_1Polynomial.html" target="_top" xlink:title="Represents a polynomial of degree &#160;in power form. ">
<polygon fill="none" stroke="#000000" points="333.5,-190.5 333.5,-209.5 398.5,-209.5 398.5,-190.5 333.5,-190.5"/>
<text text-anchor="middle" x="366" y="-197.5" font-family="Helvetica,sans-Serif" font-size="10.00" fill="#000000">Polynomial</text>
</a>
</g>
</g>
<!-- Node0&#45;&gt;Node6 -->
<g id="edge30" class="edge">
<title>Node0&#45;&gt;Node6</title>
<path fill="none" stroke="#191970" d="M60.2012,-204.0571C74.3546,-195.4533 93.4603,-185.482 112,-181 189.7979,-162.1923 284.5576,-179.4778 333.4034,-191.2204"/>
<polygon fill="#191970" stroke="#191970" points="58.2588,-201.1442 51.6713,-209.4421 61.9957,-207.0633 58.2588,-201.1442"/>
</g>
<!-- Node8 -->
<g id="node9" class="node">
<title>Node8</title>
<g id="a_node9"><a xlink:href="classumontreal_1_1ssj_1_1functions_1_1ShiftedMathFunction.html" target="_top" xlink:title="Represents a function computing &#160;for a user&#45;defined function &#160;and shift . ">
<polygon fill="none" stroke="#000000" points="312.5,-152.5 312.5,-171.5 419.5,-171.5 419.5,-152.5 312.5,-152.5"/>
<text text-anchor="middle" x="366" y="-159.5" font-family="Helvetica,sans-Serif" font-size="10.00" fill="#000000">ShiftedMathFunction</text>
</a>
</g>
</g>
<!-- Node0&#45;&gt;Node8 -->
<g id="edge32" class="edge">
<title>Node0&#45;&gt;Node8</title>
<path fill="none" stroke="#191970" d="M55.865,-202.6079C69.9592,-190.8159 90.7293,-175.8343 112,-169 178.3589,-147.6788 259.5598,-150.0095 312.0047,-154.9185"/>
<polygon fill="#191970" stroke="#191970" points="53.2596,-200.2352 48.0074,-209.4366 57.8513,-205.5188 53.2596,-200.2352"/>
</g>
<!-- Node9 -->
<g id="node10" class="node">
<title>Node9</title>
<g id="a_node10"><a xlink:href="interfaceumontreal_1_1ssj_1_1functions_1_1MathFunctionWithFirstDerivative.html" target="_top" xlink:title="Represents a mathematical function whose derivative can be computed using derivative(double). ">
<polygon fill="none" stroke="#000000" points="112,-190.5 112,-209.5 272,-209.5 272,-190.5 112,-190.5"/>
<text text-anchor="middle" x="192" y="-197.5" font-family="Helvetica,sans-Serif" font-size="10.00" fill="#000000">MathFunctionWithFirstDerivative</text>
</a>
</g>
</g>
<!-- Node0&#45;&gt;Node9 -->
<g id="edge13" class="edge">
<title>Node0&#45;&gt;Node9</title>
<path fill="none" stroke="#191970" d="M86.1253,-213.0625C95.3047,-211.9299 105.1245,-210.7184 114.9454,-209.5067"/>
<polygon fill="#191970" stroke="#191970" points="85.5636,-209.6051 76.0674,-214.3034 86.4208,-216.5525 85.5636,-209.6051"/>
</g>
<!-- Node10 -->
<g id="node11" class="node">
<title>Node10</title>
<g id="a_node11"><a xlink:href="classumontreal_1_1ssj_1_1functions_1_1PowerMathFunction.html" target="_top" xlink:title="Represents a function computing &#160;for a user&#45;defined function &#160;and power . ">
<polygon fill="none" stroke="#000000" points="314,-76.5 314,-95.5 418,-95.5 418,-76.5 314,-76.5"/>
<text text-anchor="middle" x="366" y="-83.5" font-family="Helvetica,sans-Serif" font-size="10.00" fill="#000000">PowerMathFunction</text>
</a>
</g>
</g>
<!-- Node0&#45;&gt;Node10 -->
<g id="edge31" class="edge">
<title>Node0&#45;&gt;Node10</title>
<path fill="none" stroke="#191970" d="M52.1045,-200.8459C65.713,-184.5821 87.77,-161.3018 112,-148 176.2612,-112.7217 260.5306,-97.2797 313.9887,-90.6864"/>
<polygon fill="#191970" stroke="#191970" points="49.0312,-199.0792 45.4533,-209.0516 54.4691,-203.487 49.0312,-199.0792"/>
</g>
<!-- Node12 -->
<g id="node13" class="node">
<title>Node12</title>
<g id="a_node13"><a xlink:href="interfaceumontreal_1_1ssj_1_1functions_1_1MathFunctionWithIntegral.html" target="_top" xlink:title="Represents a mathematical function whose integral can be computed by the integral(double,double) method. ">
<polygon fill="none" stroke="#000000" points="128,-304.5 128,-323.5 256,-323.5 256,-304.5 128,-304.5"/>
<text text-anchor="middle" x="192" y="-311.5" font-family="Helvetica,sans-Serif" font-size="10.00" fill="#000000">MathFunctionWithIntegral</text>
</a>
</g>
</g>
<!-- Node0&#45;&gt;Node12 -->
<g id="edge22" class="edge">
<title>Node0&#45;&gt;Node12</title>
<path fill="none" stroke="#191970" d="M50.5782,-236.8832C63.8451,-254.379 86.3553,-280.4543 112,-295 118.8293,-298.8736 126.4168,-301.9598 134.1214,-304.418"/>
<polygon fill="#191970" stroke="#191970" points="53.2539,-234.6134 44.5154,-228.6226 47.6107,-238.7552 53.2539,-234.6134"/>
</g>
<!-- Node13 -->
<g id="node14" class="node">
<title>Node13</title>
<g id="a_node14"><a xlink:href="classumontreal_1_1ssj_1_1functions_1_1PiecewiseConstantFunction.html" target="_top" xlink:title="Represents a piecewise&#45;constant function. ">
<polygon fill="none" stroke="#000000" points="122.5,-38.5 122.5,-57.5 261.5,-57.5 261.5,-38.5 122.5,-38.5"/>
<text text-anchor="middle" x="192" y="-45.5" font-family="Helvetica,sans-Serif" font-size="10.00" fill="#000000">PiecewiseConstantFunction</text>
</a>
</g>
</g>
<!-- Node0&#45;&gt;Node13 -->
<g id="edge29" class="edge">
<title>Node0&#45;&gt;Node13</title>
<path fill="none" stroke="#191970" d="M42.4314,-199.7302C50.6549,-168.3193 71.2692,-106.1642 112,-72 119.5546,-65.6633 128.7404,-60.9997 138.1577,-57.5673"/>
<polygon fill="#191970" stroke="#191970" points="39.0278,-198.9145 40.0268,-209.4622 45.8234,-200.5937 39.0278,-198.9145"/>
</g>
<!-- Node14 -->
<g id="node15" class="node">
<title>Node14</title>
<g id="a_node15"><a xlink:href="classumontreal_1_1ssj_1_1functions_1_1SqrtMathFunction.html" target="_top" xlink:title="Represents a function computing the square root of another function . ">
<polygon fill="none" stroke="#000000" points="145,-.5 145,-19.5 239,-19.5 239,-.5 145,-.5"/>
<text text-anchor="middle" x="192" y="-7.5" font-family="Helvetica,sans-Serif" font-size="10.00" fill="#000000">SqrtMathFunction</text>
</a>
</g>
</g>
<!-- Node0&#45;&gt;Node14 -->
<g id="edge33" class="edge">
<title>Node0&#45;&gt;Node14</title>
<path fill="none" stroke="#191970" d="M39.7497,-199.3629C44.2882,-160.6396 59.9953,-74.2713 112,-29 121.152,-21.033 133.0461,-16.2619 144.8524,-13.4428"/>
<polygon fill="#191970" stroke="#191970" points="36.2642,-199.043 38.708,-209.3522 43.2264,-199.7691 36.2642,-199.043"/>
</g>
<!-- Node5&#45;&gt;Node1 -->
<g id="edge6" class="edge">
<title>Node5&#45;&gt;Node1</title>
<path fill="none" stroke="#191970" d="M259.7902,-289.0746C264.0295,-290.8098 268.1387,-292.7748 272,-295 292.1569,-306.6161 288.3448,-320.5538 308,-333 317.9368,-339.2923 330.1608,-343.7 340.8203,-346.6745"/>
<polygon fill="#191970" stroke="#191970" points="260.9416,-285.769 250.3477,-285.6311 258.5433,-292.3454 260.9416,-285.769"/>
</g>
<!-- Node5&#45;&gt;Node2 -->
<g id="edge7" class="edge">
<title>Node5&#45;&gt;Node2</title>
<path fill="none" stroke="#191970" d="M245.8144,-287.7526C270.418,-293.1258 299.1867,-299.4086 322.4082,-304.4799"/>
<polygon fill="#191970" stroke="#191970" points="246.4241,-284.3033 235.9075,-285.589 244.9305,-291.1421 246.4241,-284.3033"/>
</g>
<!-- Node5&#45;&gt;Node3 -->
<g id="edge8" class="edge">
<title>Node5&#45;&gt;Node3</title>
<path fill="none" stroke="#191970" d="M272.1436,-276C284.8448,-276 297.7421,-276 309.7437,-276"/>
<polygon fill="#191970" stroke="#191970" points="272.0204,-272.5001 262.0203,-276 272.0203,-279.5001 272.0204,-272.5001"/>
</g>
<!-- Node5&#45;&gt;Node4 -->
<g id="edge9" class="edge">
<title>Node5&#45;&gt;Node4</title>
<path fill="none" stroke="#191970" d="M245.8144,-264.2474C270.418,-258.8742 299.1867,-252.5914 322.4082,-247.5201"/>
<polygon fill="#191970" stroke="#191970" points="244.9305,-260.8579 235.9075,-266.411 246.4241,-267.6967 244.9305,-260.8579"/>
</g>
<!-- Node5&#45;&gt;Node6 -->
<g id="edge10" class="edge">
<title>Node5&#45;&gt;Node6</title>
<path fill="none" stroke="#191970" d="M218.6186,-261.5889C241.8202,-249.352 276.5829,-231.7912 308,-219 316.3417,-215.6037 325.5382,-212.3682 334.1022,-209.561"/>
<polygon fill="#191970" stroke="#191970" points="216.9122,-258.5322 209.7259,-266.3173 220.1986,-264.7128 216.9122,-258.5322"/>
</g>
<!-- Node5&#45;&gt;Node8 -->
<g id="edge12" class="edge">
<title>Node5&#45;&gt;Node8</title>
<path fill="none" stroke="#191970" d="M215.8692,-260.7646C232.2625,-249.8831 254.1928,-234.4845 272,-219 289.5555,-203.7344 288.3448,-193.4462 308,-181 313.9979,-177.202 320.8291,-174.0905 327.6466,-171.5664"/>
<polygon fill="#191970" stroke="#191970" points="213.8401,-257.9096 207.3928,-266.3169 217.6758,-263.7652 213.8401,-257.9096"/>
</g>
<!-- Node7 -->
<g id="node8" class="node">
<title>Node7</title>
<g id="a_node8"><a xlink:href="classumontreal_1_1ssj_1_1functionfit_1_1PolInterp.html" target="_top" xlink:title="Represents a polynomial that interpolates through a set of points. ">
<polygon fill="none" stroke="#000000" points="460,-190.5 460,-209.5 516,-209.5 516,-190.5 460,-190.5"/>
<text text-anchor="middle" x="488" y="-197.5" font-family="Helvetica,sans-Serif" font-size="10.00" fill="#000000">PolInterp</text>
</a>
</g>
</g>
<!-- Node6&#45;&gt;Node7 -->
<g id="edge11" class="edge">
<title>Node6&#45;&gt;Node7</title>
<path fill="none" stroke="#191970" d="M408.8875,-200C425.7655,-200 444.678,-200 459.7785,-200"/>
<polygon fill="#191970" stroke="#191970" points="408.6938,-196.5001 398.6938,-200 408.6937,-203.5001 408.6938,-196.5001"/>
</g>
<!-- Node9&#45;&gt;Node1 -->
<g id="edge14" class="edge">
<title>Node9&#45;&gt;Node1</title>
<path fill="none" stroke="#191970" d="M219.4549,-214.7157C236.3163,-224.8345 257.4052,-239.5684 272,-257 295.9937,-285.6573 279.9624,-308.285 308,-333 317.1409,-341.0577 329.7736,-345.7102 340.9162,-348.3908"/>
<polygon fill="#191970" stroke="#191970" points="220.9979,-211.5648 210.5904,-209.5812 217.4893,-217.6221 220.9979,-211.5648"/>
</g>
<!-- Node9&#45;&gt;Node2 -->
<g id="edge15" class="edge">
<title>Node9&#45;&gt;Node2</title>
<path fill="none" stroke="#191970" d="M215.8692,-215.2354C232.2625,-226.1169 254.1928,-241.5155 272,-257 289.5555,-272.2656 288.3448,-282.5538 308,-295 313.9979,-298.798 320.8291,-301.9095 327.6466,-304.4336"/>
<polygon fill="#191970" stroke="#191970" points="217.6758,-212.2348 207.3928,-209.6831 213.8401,-218.0904 217.6758,-212.2348"/>
</g>
<!-- Node9&#45;&gt;Node3 -->
<g id="edge16" class="edge">
<title>Node9&#45;&gt;Node3</title>
<path fill="none" stroke="#191970" d="M218.6186,-214.4111C241.8202,-226.648 276.5829,-244.2088 308,-257 316.3417,-260.3963 325.5382,-263.6318 334.1022,-266.439"/>
<polygon fill="#191970" stroke="#191970" points="220.1986,-211.2872 209.7259,-209.6827 216.9122,-217.4678 220.1986,-211.2872"/>
</g>
<!-- Node9&#45;&gt;Node4 -->
<g id="edge17" class="edge">
<title>Node9&#45;&gt;Node4</title>
<path fill="none" stroke="#191970" d="M245.8144,-211.7526C270.418,-217.1258 299.1867,-223.4086 322.4082,-228.4799"/>
<polygon fill="#191970" stroke="#191970" points="246.4241,-208.3033 235.9075,-209.589 244.9305,-215.1421 246.4241,-208.3033"/>
</g>
<!-- Node9&#45;&gt;Node6 -->
<g id="edge18" class="edge">
<title>Node9&#45;&gt;Node6</title>
<path fill="none" stroke="#191970" d="M282.2635,-200C300.5149,-200 318.5744,-200 333.2232,-200"/>
<polygon fill="#191970" stroke="#191970" points="282.1246,-196.5001 272.1245,-200 282.1245,-203.5001 282.1246,-196.5001"/>
</g>
<!-- Node9&#45;&gt;Node8 -->
<g id="edge20" class="edge">
<title>Node9&#45;&gt;Node8</title>
<path fill="none" stroke="#191970" d="M245.8144,-188.2474C270.418,-182.8742 299.1867,-176.5914 322.4082,-171.5201"/>
<polygon fill="#191970" stroke="#191970" points="244.9305,-184.8579 235.9075,-190.411 246.4241,-191.6967 244.9305,-184.8579"/>
</g>
<!-- Node9&#45;&gt;Node10 -->
<g id="edge19" class="edge">
<title>Node9&#45;&gt;Node10</title>
<path fill="none" stroke="#191970" d="M208.5814,-182.9868C229.8594,-162.0164 268.7326,-126.5225 308,-105 314.783,-101.2822 322.4138,-98.1398 329.8573,-95.5468"/>
<polygon fill="#191970" stroke="#191970" points="205.9141,-180.7046 201.3238,-190.2534 210.8669,-185.6513 205.9141,-180.7046"/>
</g>
<!-- Node11 -->
<g id="node12" class="node">
<title>Node11</title>
<g id="a_node12"><a xlink:href="classumontreal_1_1ssj_1_1functions_1_1SquareMathFunction.html" target="_top" xlink:title="Represents a function computing &#160;for a user&#45;defined function . ">
<polygon fill="none" stroke="#000000" points="312.5,-114.5 312.5,-133.5 419.5,-133.5 419.5,-114.5 312.5,-114.5"/>
<text text-anchor="middle" x="366" y="-121.5" font-family="Helvetica,sans-Serif" font-size="10.00" fill="#000000">SquareMathFunction</text>
</a>
</g>
</g>
<!-- Node9&#45;&gt;Node11 -->
<g id="edge21" class="edge">
<title>Node9&#45;&gt;Node11</title>
<path fill="none" stroke="#191970" d="M218.6186,-185.5889C241.8202,-173.352 276.5829,-155.7912 308,-143 316.3417,-139.6037 325.5382,-136.3682 334.1022,-133.561"/>
<polygon fill="#191970" stroke="#191970" points="216.9122,-182.5322 209.7259,-190.3173 220.1986,-188.7128 216.9122,-182.5322"/>
</g>
<!-- Node12&#45;&gt;Node1 -->
<g id="edge23" class="edge">
<title>Node12&#45;&gt;Node1</title>
<path fill="none" stroke="#191970" d="M245.9354,-325.779C277.6477,-332.7047 316.2455,-341.1341 340.9659,-346.5328"/>
<polygon fill="#191970" stroke="#191970" points="246.4241,-322.3033 235.9075,-323.589 244.9305,-329.1421 246.4241,-322.3033"/>
</g>
<!-- Node12&#45;&gt;Node2 -->
<g id="edge24" class="edge">
<title>Node12&#45;&gt;Node2</title>
<path fill="none" stroke="#191970" d="M266.6894,-314C280.4166,-314 294.561,-314 307.7184,-314"/>
<polygon fill="#191970" stroke="#191970" points="266.2968,-310.5001 256.2968,-314 266.2968,-317.5001 266.2968,-310.5001"/>
</g>
<!-- Node12&#45;&gt;Node3 -->
<g id="edge25" class="edge">
<title>Node12&#45;&gt;Node3</title>
<path fill="none" stroke="#191970" d="M245.8144,-302.2474C270.418,-296.8742 299.1867,-290.5914 322.4082,-285.5201"/>
<polygon fill="#191970" stroke="#191970" points="244.9305,-298.8579 235.9075,-304.411 246.4241,-305.6967 244.9305,-298.8579"/>
</g>
<!-- Node12&#45;&gt;Node4 -->
<g id="edge26" class="edge">
<title>Node12&#45;&gt;Node4</title>
<path fill="none" stroke="#191970" d="M259.7902,-300.9254C264.0295,-299.1902 268.1387,-297.2252 272,-295 292.1569,-283.3839 288.3448,-269.4462 308,-257 313.9979,-253.202 320.8291,-250.0905 327.6466,-247.5664"/>
<polygon fill="#191970" stroke="#191970" points="258.5433,-297.6546 250.3477,-304.3689 260.9416,-304.231 258.5433,-297.6546"/>
</g>
<!-- Node12&#45;&gt;Node6 -->
<g id="edge27" class="edge">
<title>Node12&#45;&gt;Node6</title>
<path fill="none" stroke="#191970" d="M265.3932,-299.6458C267.701,-298.2348 269.9132,-296.6903 272,-295 301.0434,-271.4752 279.9624,-243.715 308,-219 315.1538,-212.694 324.4461,-208.4736 333.4892,-205.6517"/>
<polygon fill="#191970" stroke="#191970" points="263.3618,-296.7555 256.0807,-304.4521 266.5722,-302.9759 263.3618,-296.7555"/>
</g>
<!-- Node12&#45;&gt;Node8 -->
<g id="edge28" class="edge">
<title>Node12&#45;&gt;Node8</title>
<path fill="none" stroke="#191970" d="M265.0576,-300.4346C267.5158,-298.81 269.8438,-297.0049 272,-295 310.9112,-258.8195 270.6307,-218.771 308,-181 311.8752,-177.0831 316.5692,-173.9736 321.5894,-171.5049"/>
<polygon fill="#191970" stroke="#191970" points="263.3229,-297.3942 256.2589,-305.2904 266.7052,-303.5229 263.3229,-297.3942"/>
</g>
</g>
</svg>
        <g id="navigator" transform="translate(0 0)" fill="#404254">
                <rect fill="#f2f5e9" fill-opacity="0.5" stroke="#606060" stroke-width=".5" x="0" y="0" width="60" height="60"/>
                <use id="zoomplus" xlink:href="#zoomPlus" x="17" y="9" onmousedown="handleZoom(evt,'in')"/>
                <use id="zoomminus" xlink:href="#zoomMin" x="42" y="9" onmousedown="handleZoom(evt,'out')"/>
                <use id="reset" xlink:href="#resetDef" x="30" y="36" onmousedown="handleReset()"/>
                <g id="arrowUp" xlink:href="#dirArrow" transform="translate(30 24)" onmousedown="handlePan(0,-1)">
                  <use xlink:href="#rim" fill="#404040">
                        <set attributeName="fill" to="#808080" begin="arrowUp.mouseover" end="arrowUp.mouseout"/>
                  </use>
                  <path fill="none" stroke="white" stroke-width="1.5" d="M0,-3.0v7 M-2.5,-0.5L0,-3.0L2.5,-0.5"/>
                </g>
                <g id="arrowRight" xlink:href="#dirArrow" transform="rotate(90) translate(36 -43)" onmousedown="handlePan(1,0)">
                  <use xlink:href="#rim" fill="#404040">
                        <set attributeName="fill" to="#808080" begin="arrowRight.mouseover" end="arrowRight.mouseout"/>
                  </use>
                  <path fill="none" stroke="white" stroke-width="1.5" d="M0,-3.0v7 M-2.5,-0.5L0,-3.0L2.5,-0.5"/>
                </g>
                <g id="arrowDown" xlink:href="#dirArrow" transform="rotate(180) translate(-30 -48)" onmousedown="handlePan(0,1)">
                  <use xlink:href="#rim" fill="#404040">
                        <set attributeName="fill" to="#808080" begin="arrowDown.mouseover" end="arrowDown.mouseout"/>
                  </use>
                  <path fill="none" stroke="white" stroke-width="1.5" d="M0,-3.0v7 M-2.5,-0.5L0,-3.0L2.5,-0.5"/>
                </g>
                <g id="arrowLeft" xlink:href="#dirArrow" transform="rotate(270) translate(-36 17)" onmousedown="handlePan(-1,0)">
                  <use xlink:href="#rim" fill="#404040">
                        <set attributeName="fill" to="#808080" begin="arrowLeft.mouseover" end="arrowLeft.mouseout"/>
                  </use>
                  <path fill="none" stroke="white" stroke-width="1.5" d="M0,-3.0v7 M-2.5,-0.5L0,-3.0L2.5,-0.5"/>
                </g>
        </g>
        <svg viewBox="0 0 15 15" width="100%" height="30px" preserveAspectRatio="xMaxYMin meet">
         <g id="arrow_out" transform="scale(0.3 0.3)">
          <a xlink:href="interfaceumontreal_1_1ssj_1_1functions_1_1MathFunction__inherit__graph_org.svg" target="_base">
           <rect id="button" ry="5" rx="5" y="6" x="6" height="38" width="38"
                fill="#f2f5e9" fill-opacity="0.5" stroke="#606060" stroke-width="1.0"/>
           <path id="arrow"
             d="M 11.500037,31.436501 C 11.940474,20.09759 22.043105,11.32322 32.158766,21.979434 L 37.068811,17.246167 C 37.068811,17.246167 37.088388,32 37.088388,32 L 22.160133,31.978069 C 22.160133,31.978069 26.997745,27.140456 26.997745,27.140456 C 18.528582,18.264221 13.291696,25.230495 11.500037,31.436501 z"
             style="fill:#404040;"/>
          </a>
         </g>
        </svg>
</svg>
