<?xml version="1.0" encoding="UTF-8" standalone="no"?>
<!DOCTYPE svg PUBLIC "-//W3C//DTD SVG 1.1//EN"
 "http://www.w3.org/Graphics/SVG/1.1/DTD/svg11.dtd">
<!-- Generated by graphviz version 2.40.1 (0)
 -->
<!-- Title: MultiDim Pages: 1 -->
<svg width="297pt" height="140pt"
 viewBox="0.00 0.00 297.00 140.00" xmlns="http://www.w3.org/2000/svg" xmlns:xlink="http://www.w3.org/1999/xlink">
<g id="graph0" class="graph" transform="scale(1 1) rotate(0) translate(4 136)">
<title>MultiDim</title>
<!-- Node0 -->
<g id="node1" class="node">
<title>Node0</title>
<g id="a_node1"><a xlink:title="This interface represents a point or array of &#160;dimensions in .">
<polygon fill="#bfbfbf" stroke="#000000" points="128,-112.5 128,-131.5 184,-131.5 184,-112.5 128,-112.5"/>
<text text-anchor="middle" x="156" y="-119.5" font-family="Helvetica,sans-Serif" font-size="10.00" fill="#000000">MultiDim</text>
</a>
</g>
</g>
<!-- Node1 -->
<g id="node2" class="node">
<title>Node1</title>
<g id="a_node2"><a xlink:href="classumontreal_1_1ssj_1_1markovchainrqmc_1_1florian_1_1chemicalReactionNetworks_1_1ChemicalReactionNetwork.html" target="_top" xlink:title="Implements an abstract class to simulate chemical reaction networks with Gillespie&#39;s &#160;algorithm.">
<polygon fill="none" stroke="#000000" points="89,-56.5 89,-75.5 223,-75.5 223,-56.5 89,-56.5"/>
<text text-anchor="middle" x="156" y="-63.5" font-family="Helvetica,sans-Serif" font-size="10.00" fill="#000000">ChemicalReactionNetwork</text>
</a>
</g>
</g>
<!-- Node0&#45;&gt;Node1 -->
<g id="edge1" class="edge">
<title>Node0&#45;&gt;Node1</title>
<path fill="none" stroke="#191970" d="M156,-102.1575C156,-93.155 156,-82.9199 156,-75.6427"/>
<polygon fill="#191970" stroke="#191970" points="152.5001,-102.2455 156,-112.2455 159.5001,-102.2456 152.5001,-102.2455"/>
</g>
<!-- Node3 -->
<g id="node4" class="node">
<title>Node3</title>
<g id="a_node4"><a xlink:href="classumontreal_1_1ssj_1_1markovchainrqmc_1_1florian_1_1chemicalReactionNetworks_1_1ReversibleIsomerization.html" target="_top" xlink:title="Implements the Reversible Isomerization example from, e.g., Beentjes and Baker &#39;18.">
<polygon fill="none" stroke="#000000" points="0,-.5 0,-19.5 122,-19.5 122,-.5 0,-.5"/>
<text text-anchor="middle" x="61" y="-7.5" font-family="Helvetica,sans-Serif" font-size="10.00" fill="#000000">ReversibleIsomerization</text>
</a>
</g>
</g>
<!-- Node0&#45;&gt;Node3 -->
<g id="edge5" class="edge">
<title>Node0&#45;&gt;Node3</title>
<path fill="none" stroke="#191970" d="M121.347,-107.9697C106.7015,-100.4605 90.6135,-89.8631 80,-76 67.0979,-59.1477 62.9521,-33.8223 61.6234,-19.9541"/>
<polygon fill="#191970" stroke="#191970" points="120.1617,-111.2832 130.6908,-112.4616 123.1946,-104.9744 120.1617,-111.2832"/>
</g>
<!-- Node4 -->
<g id="node5" class="node">
<title>Node4</title>
<g id="a_node5"><a xlink:href="classumontreal_1_1ssj_1_1markovchainrqmc_1_1florian_1_1chemicalReactionNetworks_1_1SchloeglSystem.html" target="_top" xlink:title="Implements the Schloegl system, see, e.g., Beentjes and Baker &#39;18.">
<polygon fill="none" stroke="#000000" points="201,-.5 201,-19.5 289,-19.5 289,-.5 201,-.5"/>
<text text-anchor="middle" x="245" y="-7.5" font-family="Helvetica,sans-Serif" font-size="10.00" fill="#000000">SchloeglSystem</text>
</a>
</g>
</g>
<!-- Node0&#45;&gt;Node4 -->
<g id="edge6" class="edge">
<title>Node0&#45;&gt;Node4</title>
<path fill="none" stroke="#191970" d="M191.8595,-108.0577C206.4358,-100.6448 222.136,-90.0983 232,-76 243.9171,-58.9673 245.547,-33.7124 245.4338,-19.9039"/>
<polygon fill="#191970" stroke="#191970" points="190.0556,-105.0393 182.5157,-112.4824 193.0516,-111.3658 190.0556,-105.0393"/>
</g>
<!-- Node2 -->
<g id="node3" class="node">
<title>Node2</title>
<g id="a_node3"><a xlink:href="classumontreal_1_1ssj_1_1markovchainrqmc_1_1florian_1_1chemicalReactionNetworks_1_1PKA.html" target="_top" xlink:title="Implements the #ChemicalReactionNetwork for the cyclic AMP activation of PKA, see Koh and Blackwell &#39;...">
<polygon fill="none" stroke="#000000" points="140.5,-.5 140.5,-19.5 177.5,-19.5 177.5,-.5 140.5,-.5"/>
<text text-anchor="middle" x="159" y="-7.5" font-family="Helvetica,sans-Serif" font-size="10.00" fill="#000000">PKA</text>
</a>
</g>
</g>
<!-- Node1&#45;&gt;Node2 -->
<g id="edge2" class="edge">
<title>Node1&#45;&gt;Node2</title>
<path fill="none" stroke="#191970" d="M157.063,-46.1575C157.5453,-37.155 158.0936,-26.9199 158.4834,-19.6427"/>
<polygon fill="#191970" stroke="#191970" points="153.5626,-46.0726 156.5226,-56.2455 160.5526,-46.4471 153.5626,-46.0726"/>
</g>
<!-- Node1&#45;&gt;Node3 -->
<g id="edge3" class="edge">
<title>Node1&#45;&gt;Node3</title>
<path fill="none" stroke="#191970" d="M130.6324,-51.0465C113.729,-41.0824 92.0096,-28.2794 77.3581,-19.6427"/>
<polygon fill="#191970" stroke="#191970" points="129.0602,-54.1825 139.4523,-56.2455 132.6149,-48.1522 129.0602,-54.1825"/>
</g>
<!-- Node1&#45;&gt;Node4 -->
<g id="edge4" class="edge">
<title>Node1&#45;&gt;Node4</title>
<path fill="none" stroke="#191970" d="M180.2064,-50.769C195.9775,-40.8456 216.076,-28.1994 229.675,-19.6427"/>
<polygon fill="#191970" stroke="#191970" points="178.1026,-47.9575 171.5026,-56.2455 181.8305,-53.8823 178.1026,-47.9575"/>
</g>
</g>
</svg>
