<?xml version="1.0" encoding="UTF-8" standalone="no"?>
<!DOCTYPE svg PUBLIC "-//W3C//DTD SVG 1.1//EN"
 "http://www.w3.org/Graphics/SVG/1.1/DTD/svg11.dtd">
<!-- Generated by graphviz version 2.38.0 (20140413.2041)
 -->
<!-- Title: CloneableRandomStream Pages: 1 -->
<svg width="627pt" height="503pt"
 viewBox="0.00 0.00 627.00 503.00" xmlns="http://www.w3.org/2000/svg" xmlns:xlink="http://www.w3.org/1999/xlink">
<g id="graph0" class="graph" transform="scale(1 1) rotate(0) translate(4 499)">
<title>CloneableRandomStream</title>
<!-- Node0 -->
<g id="node1" class="node"><title>Node0</title>
<polygon fill="#bfbfbf" stroke="black" points="121,-266.5 121,-285.5 249,-285.5 249,-266.5 121,-266.5"/>
<text text-anchor="middle" x="185" y="-273.5" font-family="Helvetica,sans-Serif" font-size="10.00">CloneableRandomStream</text>
</g>
<!-- Node3 -->
<g id="node4" class="node"><title>Node3</title>
<g id="a_node4"><a xlink:href="classumontreal_1_1ssj_1_1rng_1_1RandMrg.html" target="_top" xlink:title="USE MRG32k3a INSTEAD of this class. ">
<polygon fill="none" stroke="black" points="310.5,-285.5 310.5,-304.5 366.5,-304.5 366.5,-285.5 310.5,-285.5"/>
<text text-anchor="middle" x="338.5" y="-292.5" font-family="Helvetica,sans-Serif" font-size="10.00">RandMrg</text>
</a>
</g>
</g>
<!-- Node0&#45;&gt;Node3 -->
<g id="edge3" class="edge"><title>Node0&#45;&gt;Node3</title>
<path fill="none" stroke="midnightblue" d="M259.401,-285.205C277.535,-287.48 295.849,-289.776 310.18,-291.574"/>
<polygon fill="midnightblue" stroke="midnightblue" points="259.73,-281.719 249.372,-283.948 258.859,-288.665 259.73,-281.719"/>
</g>
<!-- Node4 -->
<g id="node5" class="node"><title>Node4</title>
<g id="a_node5"><a xlink:href="classumontreal_1_1ssj_1_1rng_1_1RandomStreamBase.html" target="_top" xlink:title="This class provides a convenient foundation on which RNGs can be built. ">
<polygon fill="none" stroke="black" points="285,-247.5 285,-266.5 392,-266.5 392,-247.5 285,-247.5"/>
<text text-anchor="middle" x="338.5" y="-254.5" font-family="Helvetica,sans-Serif" font-size="10.00">RandomStreamBase</text>
</a>
</g>
</g>
<!-- Node0&#45;&gt;Node4 -->
<g id="edge4" class="edge"><title>Node0&#45;&gt;Node4</title>
<path fill="none" stroke="midnightblue" d="M259.432,-266.791C268.04,-265.711 276.688,-264.627 284.931,-263.593"/>
<polygon fill="midnightblue" stroke="midnightblue" points="258.859,-263.335 249.372,-268.052 259.73,-270.281 258.859,-263.335"/>
</g>
<!-- Node1 -->
<g id="node2" class="node"><title>Node1</title>
<g id="a_node2"><a xlink:href="interfaceumontreal_1_1ssj_1_1rng_1_1RandomStream.html" target="_top" xlink:title="This interface defines the basic structures to handle multiple streams of uniform (pseudo)random numb...">
<polygon fill="none" stroke="black" points="0,-285.5 0,-304.5 85,-304.5 85,-285.5 0,-285.5"/>
<text text-anchor="middle" x="42.5" y="-292.5" font-family="Helvetica,sans-Serif" font-size="10.00">RandomStream</text>
</a>
</g>
</g>
<!-- Node1&#45;&gt;Node0 -->
<g id="edge1" class="edge"><title>Node1&#45;&gt;Node0</title>
<path fill="none" stroke="midnightblue" d="M95.2093,-288.007C103.535,-286.881 112.234,-285.705 120.793,-284.548"/>
<polygon fill="midnightblue" stroke="midnightblue" points="94.715,-284.542 85.2742,-289.351 95.6531,-291.479 94.715,-284.542"/>
</g>
<!-- Node2 -->
<g id="node3" class="node"><title>Node2</title>
<polygon fill="none" stroke="#bfbfbf" points="12.5,-247.5 12.5,-266.5 72.5,-266.5 72.5,-247.5 12.5,-247.5"/>
<text text-anchor="middle" x="42.5" y="-254.5" font-family="Helvetica,sans-Serif" font-size="10.00">Cloneable</text>
</g>
<!-- Node2&#45;&gt;Node0 -->
<g id="edge2" class="edge"><title>Node2&#45;&gt;Node0</title>
<path fill="none" stroke="midnightblue" d="M82.5895,-262.286C94.4289,-263.887 107.749,-265.689 120.747,-267.446"/>
<polygon fill="midnightblue" stroke="midnightblue" points="82.9906,-258.809 72.6117,-260.937 82.0524,-265.745 82.9906,-258.809"/>
</g>
<!-- Node5 -->
<g id="node6" class="node"><title>Node5</title>
<g id="a_node6"><a xlink:href="classift6561examples_1_1MathematicaSWB.html" target="_top" xlink:title="MathematicaSWB">
<polygon fill="none" stroke="black" points="428,-475.5 428,-494.5 524,-494.5 524,-475.5 428,-475.5"/>
<text text-anchor="middle" x="476" y="-482.5" font-family="Helvetica,sans-Serif" font-size="10.00">MathematicaSWB</text>
</a>
</g>
</g>
<!-- Node4&#45;&gt;Node5 -->
<g id="edge5" class="edge"><title>Node4&#45;&gt;Node5</title>
<path fill="none" stroke="midnightblue" d="M388.277,-272.245C389.607,-273.406 390.855,-274.655 392,-276 447.723,-341.436 373.495,-399.547 428,-466 431.126,-469.811 435.133,-472.864 439.486,-475.308"/>
<polygon fill="midnightblue" stroke="midnightblue" points="390.128,-269.271 379.898,-266.516 386.177,-275.049 390.128,-269.271"/>
</g>
<!-- Node6 -->
<g id="node7" class="node"><title>Node6</title>
<g id="a_node7"><a xlink:href="classumontreal_1_1ssj_1_1mcqmctools_1_1anova_1_1SplitStream.html" target="_top" xlink:title="Implements a random stream that mixes two input streams by using a coordinate mask. ">
<polygon fill="none" stroke="black" points="442,-437.5 442,-456.5 510,-456.5 510,-437.5 442,-437.5"/>
<text text-anchor="middle" x="476" y="-444.5" font-family="Helvetica,sans-Serif" font-size="10.00">SplitStream</text>
</a>
</g>
</g>
<!-- Node4&#45;&gt;Node6 -->
<g id="edge6" class="edge"><title>Node4&#45;&gt;Node6</title>
<path fill="none" stroke="midnightblue" d="M388.122,-272.249C389.503,-273.409 390.803,-274.657 392,-276 438.196,-327.823 382.768,-375.333 428,-428 431.67,-432.273 436.442,-435.597 441.537,-438.18"/>
<polygon fill="midnightblue" stroke="midnightblue" points="389.742,-269.124 379.472,-266.522 385.878,-274.961 389.742,-269.124"/>
</g>
<!-- Node7 -->
<g id="node8" class="node"><title>Node7</title>
<g id="a_node8"><a xlink:href="classumontreal_1_1ssj_1_1rng_1_1GenF2w32.html" target="_top" xlink:title="Implements the RandomStream interface via inheritance from RandomStreamBase. ">
<polygon fill="none" stroke="black" points="444,-399.5 444,-418.5 508,-418.5 508,-399.5 444,-399.5"/>
<text text-anchor="middle" x="476" y="-406.5" font-family="Helvetica,sans-Serif" font-size="10.00">GenF2w32</text>
</a>
</g>
</g>
<!-- Node4&#45;&gt;Node7 -->
<g id="edge7" class="edge"><title>Node4&#45;&gt;Node7</title>
<path fill="none" stroke="midnightblue" d="M387.522,-271.991C389.114,-273.224 390.616,-274.557 392,-276 428.786,-314.34 391.928,-350.988 428,-390 432.302,-394.653 437.902,-398.191 443.729,-400.874"/>
<polygon fill="midnightblue" stroke="midnightblue" points="389.28,-268.963 378.945,-266.631 385.571,-274.899 389.28,-268.963"/>
</g>
<!-- Node8 -->
<g id="node9" class="node"><title>Node8</title>
<g id="a_node9"><a xlink:href="classumontreal_1_1ssj_1_1rng_1_1LFSR113.html" target="_top" xlink:title="Extends RandomStreamBase using a composite linear feedback shift register (LFSR) (or Tausworthe) RNG ...">
<polygon fill="none" stroke="black" points="447,-361.5 447,-380.5 505,-380.5 505,-361.5 447,-361.5"/>
<text text-anchor="middle" x="476" y="-368.5" font-family="Helvetica,sans-Serif" font-size="10.00">LFSR113</text>
</a>
</g>
</g>
<!-- Node4&#45;&gt;Node8 -->
<g id="edge8" class="edge"><title>Node4&#45;&gt;Node8</title>
<path fill="none" stroke="midnightblue" d="M386.469,-271.68C388.424,-273 390.281,-274.437 392,-276 419.655,-301.142 400.814,-326.352 428,-352 433.25,-356.953 439.958,-360.682 446.653,-363.463"/>
<polygon fill="midnightblue" stroke="midnightblue" points="387.837,-268.435 377.402,-266.603 384.417,-274.543 387.837,-268.435"/>
</g>
<!-- Node9 -->
<g id="node10" class="node"><title>Node9</title>
<g id="a_node10"><a xlink:href="classumontreal_1_1ssj_1_1rng_1_1LFSR258.html" target="_top" xlink:title="Extends RandomStreamBase using a 64&#45;bit composite linear feedback shift register (LFSR) (or Tausworth...">
<polygon fill="none" stroke="black" points="447,-323.5 447,-342.5 505,-342.5 505,-323.5 447,-323.5"/>
<text text-anchor="middle" x="476" y="-330.5" font-family="Helvetica,sans-Serif" font-size="10.00">LFSR258</text>
</a>
</g>
</g>
<!-- Node4&#45;&gt;Node9 -->
<g id="edge9" class="edge"><title>Node4&#45;&gt;Node9</title>
<path fill="none" stroke="midnightblue" d="M382.545,-270.662C385.838,-272.279 389.031,-274.056 392,-276 411.462,-288.746 408.777,-300.897 428,-314 433.673,-317.867 440.252,-321.141 446.658,-323.825"/>
<polygon fill="midnightblue" stroke="midnightblue" points="383.669,-267.333 373.105,-266.519 380.856,-273.743 383.669,-267.333"/>
</g>
<!-- Node10 -->
<g id="node11" class="node"><title>Node10</title>
<g id="a_node11"><a xlink:href="classumontreal_1_1ssj_1_1rng_1_1MRG31k3p.html" target="_top" xlink:title="Extends the abstract class RandomStreamBase, thus implementing the RandomStream interface indirectly...">
<polygon fill="none" stroke="black" points="443,-285.5 443,-304.5 509,-304.5 509,-285.5 443,-285.5"/>
<text text-anchor="middle" x="476" y="-292.5" font-family="Helvetica,sans-Serif" font-size="10.00">MRG31k3p</text>
</a>
</g>
</g>
<!-- Node4&#45;&gt;Node10 -->
<g id="edge10" class="edge"><title>Node4&#45;&gt;Node10</title>
<path fill="none" stroke="midnightblue" d="M383.466,-269.33C402.744,-274.736 424.964,-280.968 442.684,-285.937"/>
<polygon fill="midnightblue" stroke="midnightblue" points="384.266,-265.919 373.692,-266.589 382.376,-272.659 384.266,-265.919"/>
</g>
<!-- Node11 -->
<g id="node12" class="node"><title>Node11</title>
<g id="a_node12"><a xlink:href="classumontreal_1_1ssj_1_1rng_1_1MRG32k3a.html" target="_top" xlink:title="Extends the abstract class RandomStreamBase by using as a backbone (or main) generator the combined m...">
<polygon fill="none" stroke="black" points="443,-247.5 443,-266.5 509,-266.5 509,-247.5 443,-247.5"/>
<text text-anchor="middle" x="476" y="-254.5" font-family="Helvetica,sans-Serif" font-size="10.00">MRG32k3a</text>
</a>
</g>
</g>
<!-- Node4&#45;&gt;Node11 -->
<g id="edge11" class="edge"><title>Node4&#45;&gt;Node11</title>
<path fill="none" stroke="midnightblue" d="M402.409,-257C416.439,-257 430.749,-257 442.913,-257"/>
<polygon fill="midnightblue" stroke="midnightblue" points="402.276,-253.5 392.276,-257 402.276,-260.5 402.276,-253.5"/>
</g>
<!-- Node12 -->
<g id="node13" class="node"><title>Node12</title>
<g id="a_node13"><a xlink:href="classumontreal_1_1ssj_1_1rng_1_1MRG32k3aL.html" target="_top" xlink:title="The same generator as MRG32k3a, except here it is implemented with type long instead of double...">
<polygon fill="none" stroke="black" points="440.5,-209.5 440.5,-228.5 511.5,-228.5 511.5,-209.5 440.5,-209.5"/>
<text text-anchor="middle" x="476" y="-216.5" font-family="Helvetica,sans-Serif" font-size="10.00">MRG32k3aL</text>
</a>
</g>
</g>
<!-- Node4&#45;&gt;Node12 -->
<g id="edge12" class="edge"><title>Node4&#45;&gt;Node12</title>
<path fill="none" stroke="midnightblue" d="M383.425,-244.682C402.041,-239.461 423.409,-233.468 440.819,-228.586"/>
<polygon fill="midnightblue" stroke="midnightblue" points="382.376,-241.341 373.692,-247.411 384.266,-248.081 382.376,-241.341"/>
</g>
<!-- Node13 -->
<g id="node14" class="node"><title>Node13</title>
<g id="a_node14"><a xlink:href="classumontreal_1_1ssj_1_1rng_1_1MT19937.html" target="_top" xlink:title="Implements the RandomStream interface via inheritance from RandomStreamBase. ">
<polygon fill="none" stroke="black" points="447.5,-171.5 447.5,-190.5 504.5,-190.5 504.5,-171.5 447.5,-171.5"/>
<text text-anchor="middle" x="476" y="-178.5" font-family="Helvetica,sans-Serif" font-size="10.00">MT19937</text>
</a>
</g>
</g>
<!-- Node4&#45;&gt;Node13 -->
<g id="edge13" class="edge"><title>Node4&#45;&gt;Node13</title>
<path fill="none" stroke="midnightblue" d="M360.883,-241.602C378.396,-229.396 404.096,-212.389 428,-200 434.564,-196.598 441.88,-193.383 448.749,-190.598"/>
<polygon fill="midnightblue" stroke="midnightblue" points="358.679,-238.874 352.524,-247.498 362.713,-244.594 358.679,-238.874"/>
</g>
<!-- Node14 -->
<g id="node15" class="node"><title>Node14</title>
<g id="a_node15"><a xlink:href="classumontreal_1_1ssj_1_1rng_1_1RandRijndael.html" target="_top" xlink:title="Implements a RNG using the Rijndael block cipher algorithm (AES) with key and block lengths of 128 bi...">
<polygon fill="none" stroke="black" points="438.5,-133.5 438.5,-152.5 513.5,-152.5 513.5,-133.5 438.5,-133.5"/>
<text text-anchor="middle" x="476" y="-140.5" font-family="Helvetica,sans-Serif" font-size="10.00">RandRijndael</text>
</a>
</g>
</g>
<!-- Node4&#45;&gt;Node14 -->
<g id="edge14" class="edge"><title>Node4&#45;&gt;Node14</title>
<path fill="none" stroke="midnightblue" d="M352.344,-239.019C368.101,-218.071 396.615,-183.587 428,-162 433.366,-158.309 439.557,-155.165 445.648,-152.559"/>
<polygon fill="midnightblue" stroke="midnightblue" points="349.326,-237.214 346.219,-247.343 354.964,-241.363 349.326,-237.214"/>
</g>
<!-- Node15 -->
<g id="node16" class="node"><title>Node15</title>
<g id="a_node16"><a xlink:href="classumontreal_1_1ssj_1_1rng_1_1WELL1024.html" target="_top" xlink:title="Implements the RandomStream interface via inheritance from RandomStreamBase. ">
<polygon fill="none" stroke="black" points="443.5,-95.5 443.5,-114.5 508.5,-114.5 508.5,-95.5 443.5,-95.5"/>
<text text-anchor="middle" x="476" y="-102.5" font-family="Helvetica,sans-Serif" font-size="10.00">WELL1024</text>
</a>
</g>
</g>
<!-- Node4&#45;&gt;Node15 -->
<g id="edge15" class="edge"><title>Node4&#45;&gt;Node15</title>
<path fill="none" stroke="midnightblue" d="M347.669,-237.934C360.747,-209.476 388.942,-155.839 428,-124 432.639,-120.219 438.13,-117.105 443.692,-114.572"/>
<polygon fill="midnightblue" stroke="midnightblue" points="344.417,-236.633 343.543,-247.192 350.811,-239.483 344.417,-236.633"/>
</g>
<!-- Node16 -->
<g id="node17" class="node"><title>Node16</title>
<g id="a_node17"><a xlink:href="classumontreal_1_1ssj_1_1rng_1_1WELL512.html" target="_top" xlink:title="This class implements the RandomStream interface via inheritance from RandomStreamBase. ">
<polygon fill="none" stroke="black" points="446.5,-57.5 446.5,-76.5 505.5,-76.5 505.5,-57.5 446.5,-57.5"/>
<text text-anchor="middle" x="476" y="-64.5" font-family="Helvetica,sans-Serif" font-size="10.00">WELL512</text>
</a>
</g>
</g>
<!-- Node4&#45;&gt;Node16 -->
<g id="edge16" class="edge"><title>Node4&#45;&gt;Node16</title>
<path fill="none" stroke="midnightblue" d="M344.687,-237.508C354.93,-202.55 380.944,-128.853 428,-86 433.206,-81.2592 439.748,-77.6259 446.282,-74.8709"/>
<polygon fill="midnightblue" stroke="midnightblue" points="341.24,-236.835 341.908,-247.409 347.98,-238.726 341.24,-236.835"/>
</g>
<!-- Node17 -->
<g id="node18" class="node"><title>Node17</title>
<g id="a_node18"><a xlink:href="classumontreal_1_1ssj_1_1rng_1_1WELL607base.html" target="_top" xlink:title="WELL607base">
<polygon fill="none" stroke="black" points="436,-19.5 436,-38.5 516,-38.5 516,-19.5 436,-19.5"/>
<text text-anchor="middle" x="476" y="-26.5" font-family="Helvetica,sans-Serif" font-size="10.00">WELL607base</text>
</a>
</g>
</g>
<!-- Node4&#45;&gt;Node17 -->
<g id="edge17" class="edge"><title>Node4&#45;&gt;Node17</title>
<path fill="none" stroke="midnightblue" d="M342.672,-237.192C350.195,-196.401 372.797,-102.306 428,-48 431.89,-44.1732 436.653,-41.0856 441.637,-38.6036"/>
<polygon fill="midnightblue" stroke="midnightblue" points="339.196,-236.755 340.936,-247.206 346.093,-237.951 339.196,-236.755"/>
</g>
<!-- Node18 -->
<g id="node19" class="node"><title>Node18</title>
<g id="a_node19"><a xlink:href="classumontreal_1_1ssj_1_1rng_1_1F2NL607.html" target="_top" xlink:title="Implements the RandomStream interface by using as a backbone generator the combination of the WELL607...">
<polygon fill="none" stroke="black" points="561.5,-38.5 561.5,-57.5 617.5,-57.5 617.5,-38.5 561.5,-38.5"/>
<text text-anchor="middle" x="589.5" y="-45.5" font-family="Helvetica,sans-Serif" font-size="10.00">F2NL607</text>
</a>
</g>
</g>
<!-- Node17&#45;&gt;Node18 -->
<g id="edge18" class="edge"><title>Node17&#45;&gt;Node18</title>
<path fill="none" stroke="midnightblue" d="M526.301,-37.401C538.368,-39.4573 550.844,-41.5832 561.426,-43.3864"/>
<polygon fill="midnightblue" stroke="midnightblue" points="526.757,-33.9283 516.311,-35.6987 525.581,-40.8289 526.757,-33.9283"/>
</g>
<!-- Node19 -->
<g id="node20" class="node"><title>Node19</title>
<g id="a_node20"><a xlink:href="classumontreal_1_1ssj_1_1rng_1_1WELL607.html" target="_top" xlink:title="This class implements the RandomStream interface via inheritance from RandomStreamBase. ">
<polygon fill="none" stroke="black" points="560,-0.5 560,-19.5 619,-19.5 619,-0.5 560,-0.5"/>
<text text-anchor="middle" x="589.5" y="-7.5" font-family="Helvetica,sans-Serif" font-size="10.00">WELL607</text>
</a>
</g>
</g>
<!-- Node17&#45;&gt;Node19 -->
<g id="edge19" class="edge"><title>Node17&#45;&gt;Node19</title>
<path fill="none" stroke="midnightblue" d="M526.222,-20.6125C537.664,-18.6626 549.479,-16.6493 559.702,-14.9073"/>
<polygon fill="midnightblue" stroke="midnightblue" points="525.581,-17.1711 516.311,-22.3013 526.757,-24.0717 525.581,-17.1711"/>
</g>
</g>
</svg>
