<?xml version="1.0" encoding="UTF-8" standalone="no"?>
<!DOCTYPE svg PUBLIC "-//W3C//DTD SVG 1.1//EN"
 "http://www.w3.org/Graphics/SVG/1.1/DTD/svg11.dtd">
<!-- Generated by graphviz version 2.40.1 (0)
 -->
<!-- Title: MonteCarloModelDouble Pages: 1 -->
<svg width="631pt" height="674pt"
 viewBox="0.00 0.00 631.00 674.00" xmlns="http://www.w3.org/2000/svg" xmlns:xlink="http://www.w3.org/1999/xlink">
<g id="graph0" class="graph" transform="scale(1 1) rotate(0) translate(4 670)">
<title>MonteCarloModelDouble</title>
<!-- Node0 -->
<g id="node1" class="node">
<title>Node0</title>
<g id="a_node1"><a xlink:title="An interface for a very simple simulation model for which Monte Carlo (MC) and RQMC experiments are t...">
<polygon fill="#bfbfbf" stroke="#000000" points="0,-323.5 0,-342.5 124,-342.5 124,-323.5 0,-323.5"/>
<text text-anchor="middle" x="62" y="-330.5" font-family="Helvetica,sans-Serif" font-size="10.00" fill="#000000">MonteCarloModelDouble</text>
</a>
</g>
</g>
<!-- Node1 -->
<g id="node2" class="node">
<title>Node1</title>
<g id="a_node2"><a xlink:href="classift6561examples_1_1AsianOption.html" target="_top" xlink:title="This class represents an Asian average price call option with European exercise type.">
<polygon fill="none" stroke="#000000" points="204,-608.5 204,-627.5 274,-627.5 274,-608.5 204,-608.5"/>
<text text-anchor="middle" x="239" y="-615.5" font-family="Helvetica,sans-Serif" font-size="10.00" fill="#000000">AsianOption</text>
</a>
</g>
</g>
<!-- Node0&#45;&gt;Node1 -->
<g id="edge1" class="edge">
<title>Node0&#45;&gt;Node1</title>
<path fill="none" stroke="#191970" d="M66.5488,-352.38C77.1107,-394.1674 106.558,-494.3507 160,-561 176.6106,-581.7156 202.5603,-598.4607 220.1466,-608.314"/>
<polygon fill="#191970" stroke="#191970" points="69.9426,-351.5235 64.1661,-342.642 63.1431,-353.1873 69.9426,-351.5235"/>
</g>
<!-- Node4 -->
<g id="node5" class="node">
<title>Node4</title>
<g id="a_node5"><a xlink:href="classift6561examples_1_1CallableBond.html" target="_top" xlink:title="Estimates the value of a callable bond.">
<polygon fill="none" stroke="#000000" points="202,-532.5 202,-551.5 276,-551.5 276,-532.5 202,-532.5"/>
<text text-anchor="middle" x="239" y="-539.5" font-family="Helvetica,sans-Serif" font-size="10.00" fill="#000000">CallableBond</text>
</a>
</g>
</g>
<!-- Node0&#45;&gt;Node4 -->
<g id="edge4" class="edge">
<title>Node0&#45;&gt;Node4</title>
<path fill="none" stroke="#191970" d="M66.3761,-352.7479C76.0667,-391.6693 103.1268,-478.3745 160,-523 171.8747,-532.3175 187.624,-537.1654 201.9345,-539.6522"/>
<polygon fill="#191970" stroke="#191970" points="69.7088,-351.6318 64.0021,-342.7051 62.8965,-353.2421 69.7088,-351.6318"/>
</g>
<!-- Node7 -->
<g id="node8" class="node">
<title>Node7</title>
<g id="a_node8"><a xlink:href="classift6561examples_1_1OldAsianGBM.html" target="_top" xlink:title=" ">
<polygon fill="none" stroke="#000000" points="199.5,-494.5 199.5,-513.5 278.5,-513.5 278.5,-494.5 199.5,-494.5"/>
<text text-anchor="middle" x="239" y="-501.5" font-family="Helvetica,sans-Serif" font-size="10.00" fill="#000000">OldAsianGBM</text>
</a>
</g>
</g>
<!-- Node0&#45;&gt;Node7 -->
<g id="edge7" class="edge">
<title>Node0&#45;&gt;Node7</title>
<path fill="none" stroke="#191970" d="M68.926,-352.3645C81.6455,-385.0384 111.9159,-450.8841 160,-485 171.3897,-493.0811 185.7848,-497.7534 199.1574,-500.4449"/>
<polygon fill="#191970" stroke="#191970" points="72.0718,-350.7849 65.2849,-342.6492 65.517,-353.2415 72.0718,-350.7849"/>
</g>
<!-- Node8 -->
<g id="node9" class="node">
<title>Node8</title>
<g id="a_node9"><a xlink:href="classift6561examples_1_1San13connect.html" target="_top" xlink:title="This class simulates a specific stochastic activity network with 9 nodes and 13 links,...">
<polygon fill="none" stroke="#000000" points="199.5,-456.5 199.5,-475.5 278.5,-475.5 278.5,-456.5 199.5,-456.5"/>
<text text-anchor="middle" x="239" y="-463.5" font-family="Helvetica,sans-Serif" font-size="10.00" fill="#000000">San13connect</text>
</a>
</g>
</g>
<!-- Node0&#45;&gt;Node8 -->
<g id="edge8" class="edge">
<title>Node0&#45;&gt;Node8</title>
<path fill="none" stroke="#191970" d="M72.6469,-351.4562C88.3796,-377.0094 120.3035,-422.7505 160,-447 171.7972,-454.2066 186.1393,-458.68 199.349,-461.4567"/>
<polygon fill="#191970" stroke="#191970" points="75.5672,-349.5202 67.4276,-342.7381 69.5613,-353.1158 75.5672,-349.5202"/>
</g>
<!-- Node10 -->
<g id="node11" class="node">
<title>Node10</title>
<g id="a_node11"><a xlink:href="classift6561examples_1_1San13Dist.html" target="_top" xlink:title="This class simulates a specific stochastic activity network with 9 nodes and 13 links,...">
<polygon fill="none" stroke="#000000" points="208,-418.5 208,-437.5 270,-437.5 270,-418.5 208,-418.5"/>
<text text-anchor="middle" x="239" y="-425.5" font-family="Helvetica,sans-Serif" font-size="10.00" fill="#000000">San13Dist</text>
</a>
</g>
</g>
<!-- Node0&#45;&gt;Node10 -->
<g id="edge10" class="edge">
<title>Node0&#45;&gt;Node10</title>
<path fill="none" stroke="#191970" d="M86.1705,-349.0992C104.8881,-364.4899 132.2307,-386.6603 160,-400 179.073,-409.1622 202.9173,-414.1106 219.3934,-418.4481"/>
<polygon fill="#191970" stroke="#191970" points="88.1566,-346.2013 78.2068,-342.5609 83.7147,-351.6115 88.1566,-346.2013"/>
</g>
<!-- Node0&#45;&gt;Node10 -->
<g id="edge26" class="edge">
<title>Node0&#45;&gt;Node10</title>
<path fill="none" stroke="#191970" d="M73.4749,-350.4692C90.7134,-370.3775 125.0181,-401.1955 160,-418 175.0041,-425.2076 192.9609,-429.8075 207.9606,-431.791"/>
<polygon fill="#191970" stroke="#191970" points="76.1868,-348.2564 67.1796,-342.6777 70.7419,-352.6557 76.1868,-348.2564"/>
</g>
<!-- Node12 -->
<g id="node13" class="node">
<title>Node12</title>
<g id="a_node13"><a xlink:href="classift6561examples_1_1San13Prob.html" target="_top" xlink:title="This class simulates a specific stochastic activity network with 9 nodes and 13 links,...">
<polygon fill="none" stroke="#000000" points="206.5,-380.5 206.5,-399.5 271.5,-399.5 271.5,-380.5 206.5,-380.5"/>
<text text-anchor="middle" x="239" y="-387.5" font-family="Helvetica,sans-Serif" font-size="10.00" fill="#000000">San13Prob</text>
</a>
</g>
</g>
<!-- Node0&#45;&gt;Node12 -->
<g id="edge12" class="edge">
<title>Node0&#45;&gt;Node12</title>
<path fill="none" stroke="#191970" d="M93.6441,-346.5127C112.6556,-354.3175 137.4558,-363.9529 160,-371 175.0796,-375.7137 192.0856,-379.9396 206.4461,-383.2024"/>
<polygon fill="#191970" stroke="#191970" points="94.8502,-343.2239 84.2725,-342.6216 92.1659,-349.6887 94.8502,-343.2239"/>
</g>
<!-- Node18 -->
<g id="node19" class="node">
<title>Node18</title>
<g id="a_node19"><a xlink:href="classift6561examples_1_1TestOptionVGIS2017_1_1OptionVG1.html" target="_top" xlink:title=" ">
<polygon fill="none" stroke="#000000" points="160,-342.5 160,-361.5 318,-361.5 318,-342.5 160,-342.5"/>
<text text-anchor="middle" x="239" y="-349.5" font-family="Helvetica,sans-Serif" font-size="10.00" fill="#000000">TestOptionVGIS2017.OptionVG1</text>
</a>
</g>
</g>
<!-- Node0&#45;&gt;Node18 -->
<g id="edge18" class="edge">
<title>Node0&#45;&gt;Node18</title>
<path fill="none" stroke="#191970" d="M134.4688,-340.7791C142.8177,-341.6753 151.3634,-342.5927 159.7954,-343.4978"/>
<polygon fill="#191970" stroke="#191970" points="134.72,-337.2861 124.4036,-339.6987 133.9729,-344.2461 134.72,-337.2861"/>
</g>
<!-- Node21 -->
<g id="node22" class="node">
<title>Node21</title>
<g id="a_node22"><a xlink:href="classift6561examples_1_1TestOptionVGIS_1_1OptionVG1.html" target="_top" xlink:title=" ">
<polygon fill="none" stroke="#000000" points="170.5,-304.5 170.5,-323.5 307.5,-323.5 307.5,-304.5 170.5,-304.5"/>
<text text-anchor="middle" x="239" y="-311.5" font-family="Helvetica,sans-Serif" font-size="10.00" fill="#000000">TestOptionVGIS.OptionVG1</text>
</a>
</g>
</g>
<!-- Node0&#45;&gt;Node21 -->
<g id="edge21" class="edge">
<title>Node0&#45;&gt;Node21</title>
<path fill="none" stroke="#191970" d="M134.6268,-325.2039C146.3985,-323.9403 158.5575,-322.6351 170.2337,-321.3817"/>
<polygon fill="#191970" stroke="#191970" points="133.9729,-321.7539 124.4036,-326.3013 134.72,-328.7139 133.9729,-321.7539"/>
</g>
<!-- Node24 -->
<g id="node25" class="node">
<title>Node24</title>
<g id="a_node25"><a xlink:href="classtutorial_1_1AsianNew.html" target="_top" xlink:title=" ">
<polygon fill="none" stroke="#000000" points="208,-266.5 208,-285.5 270,-285.5 270,-266.5 208,-266.5"/>
<text text-anchor="middle" x="239" y="-273.5" font-family="Helvetica,sans-Serif" font-size="10.00" fill="#000000">AsianNew</text>
</a>
</g>
</g>
<!-- Node0&#45;&gt;Node24 -->
<g id="edge24" class="edge">
<title>Node0&#45;&gt;Node24</title>
<path fill="none" stroke="#191970" d="M93.6441,-319.4873C112.6556,-311.6825 137.4558,-302.0471 160,-295 175.6181,-290.118 193.3028,-285.7591 207.9744,-282.4518"/>
<polygon fill="#191970" stroke="#191970" points="92.1659,-316.3113 84.2725,-323.3784 94.8502,-322.7761 92.1659,-316.3113"/>
</g>
<!-- Node25 -->
<g id="node26" class="node">
<title>Node25</title>
<g id="a_node26"><a xlink:href="classtutorial_1_1NewTestAsianRQMC.html" target="_top" xlink:title=" ">
<polygon fill="none" stroke="#000000" points="183.5,-228.5 183.5,-247.5 294.5,-247.5 294.5,-228.5 183.5,-228.5"/>
<text text-anchor="middle" x="239" y="-235.5" font-family="Helvetica,sans-Serif" font-size="10.00" fill="#000000">NewTestAsianRQMC</text>
</a>
</g>
</g>
<!-- Node0&#45;&gt;Node25 -->
<g id="edge25" class="edge">
<title>Node0&#45;&gt;Node25</title>
<path fill="none" stroke="#191970" d="M78.6201,-316.458C96.9936,-299.103 128.2173,-272.2677 160,-257 168.0107,-253.1519 176.863,-250.047 185.6576,-247.5528"/>
<polygon fill="#191970" stroke="#191970" points="76.1159,-314.0107 71.3473,-323.4718 80.9751,-319.0494 76.1159,-314.0107"/>
</g>
<!-- Node26 -->
<g id="node27" class="node">
<title>Node26</title>
<g id="a_node27"><a xlink:href="interfaceumontreal_1_1ssj_1_1mcqmctools_1_1anova_1_1MonteCarloModelDoubleRQMC.html" target="_top" xlink:title="An interface for a simple simulation model for which Monte Carlo (MC) or RQMC experiments are to be p...">
<polygon fill="none" stroke="#000000" points="161.5,-190.5 161.5,-209.5 316.5,-209.5 316.5,-190.5 161.5,-190.5"/>
<text text-anchor="middle" x="239" y="-197.5" font-family="Helvetica,sans-Serif" font-size="10.00" fill="#000000">MonteCarloModelDoubleRQMC</text>
</a>
</g>
</g>
<!-- Node0&#45;&gt;Node26 -->
<g id="edge27" class="edge">
<title>Node0&#45;&gt;Node26</title>
<path fill="none" stroke="#191970" d="M72.6469,-314.5438C88.3796,-288.9906 120.3035,-243.2495 160,-219 166.3801,-215.1026 173.5046,-212.0045 180.7917,-209.5419"/>
<polygon fill="#191970" stroke="#191970" points="69.5613,-312.8842 67.4276,-323.2619 75.5672,-316.4798 69.5613,-312.8842"/>
</g>
<!-- Node27 -->
<g id="node28" class="node">
<title>Node27</title>
<g id="a_node28"><a xlink:href="classumontreal_1_1ssj_1_1mcqmctools_1_1florian_1_1examples_1_1BucklingStrength.html" target="_top" xlink:title="This class implements the buckling strength &#160;of a steel plate as given by Schields and Zhang &#39;16,...">
<polygon fill="none" stroke="#000000" points="193.5,-152.5 193.5,-171.5 284.5,-171.5 284.5,-152.5 193.5,-152.5"/>
<text text-anchor="middle" x="239" y="-159.5" font-family="Helvetica,sans-Serif" font-size="10.00" fill="#000000">BucklingStrength</text>
</a>
</g>
</g>
<!-- Node0&#45;&gt;Node27 -->
<g id="edge28" class="edge">
<title>Node0&#45;&gt;Node27</title>
<path fill="none" stroke="#191970" d="M68.926,-313.6355C81.6455,-280.9616 111.9159,-215.1159 160,-181 169.7791,-174.0617 181.7736,-169.6362 193.4342,-166.8198"/>
<polygon fill="#191970" stroke="#191970" points="65.517,-312.7585 65.2849,-323.3508 72.0718,-315.2151 65.517,-312.7585"/>
</g>
<!-- Node28 -->
<g id="node29" class="node">
<title>Node28</title>
<g id="a_node29"><a xlink:href="classumontreal_1_1ssj_1_1mcqmctools_1_1florian_1_1examples_1_1LookbackOptionGBM.html" target="_top" xlink:title="Implements the current value of a Lookback call option under a geometric Brownian motion.">
<polygon fill="none" stroke="#000000" points="184,-114.5 184,-133.5 294,-133.5 294,-114.5 184,-114.5"/>
<text text-anchor="middle" x="239" y="-121.5" font-family="Helvetica,sans-Serif" font-size="10.00" fill="#000000">LookbackOptionGBM</text>
</a>
</g>
</g>
<!-- Node0&#45;&gt;Node28 -->
<g id="edge29" class="edge">
<title>Node0&#45;&gt;Node28</title>
<path fill="none" stroke="#191970" d="M66.3761,-313.2521C76.0667,-274.3307 103.1268,-187.6255 160,-143 166.9916,-137.514 175.3265,-133.5775 183.92,-130.76"/>
<polygon fill="#191970" stroke="#191970" points="62.8965,-312.7579 64.0021,-323.2949 69.7088,-314.3682 62.8965,-312.7579"/>
</g>
<!-- Node29 -->
<g id="node30" class="node">
<title>Node29</title>
<g id="a_node30"><a xlink:href="classumontreal_1_1ssj_1_1mcqmctools_1_1florian_1_1examples_1_1San13.html" target="_top" xlink:title="This class simulates a specific stochastic activity network with 9 nodes and 13 links,...">
<polygon fill="none" stroke="#000000" points="217,-76.5 217,-95.5 261,-95.5 261,-76.5 217,-76.5"/>
<text text-anchor="middle" x="239" y="-83.5" font-family="Helvetica,sans-Serif" font-size="10.00" fill="#000000">San13</text>
</a>
</g>
</g>
<!-- Node0&#45;&gt;Node29 -->
<g id="edge30" class="edge">
<title>Node0&#45;&gt;Node29</title>
<path fill="none" stroke="#191970" d="M64.504,-313.3774C71.2388,-269.0456 93.9389,-160.6916 160,-105 175.8542,-91.6344 199.5493,-87.3535 216.853,-86.1311"/>
<polygon fill="#191970" stroke="#191970" points="61.0182,-313.0318 63.09,-323.4221 67.9498,-314.0076 61.0182,-313.0318"/>
</g>
<!-- Node30 -->
<g id="node31" class="node">
<title>Node30</title>
<g id="a_node31"><a xlink:href="classumontreal_1_1ssj_1_1mcqmctools_1_1florian_1_1examples_1_1ShortColumnFunction.html" target="_top" xlink:title="This class implements the so&#45;called short column function &#160;as explained in https://www....">
<polygon fill="none" stroke="#000000" points="183.5,-38.5 183.5,-57.5 294.5,-57.5 294.5,-38.5 183.5,-38.5"/>
<text text-anchor="middle" x="239" y="-45.5" font-family="Helvetica,sans-Serif" font-size="10.00" fill="#000000">ShortColumnFunction</text>
</a>
</g>
</g>
<!-- Node0&#45;&gt;Node30 -->
<g id="edge31" class="edge">
<title>Node0&#45;&gt;Node30</title>
<path fill="none" stroke="#191970" d="M63.1661,-313.2275C67.1888,-263.7764 84.7595,-133.9171 160,-67 166.6406,-61.094 174.7972,-56.9441 183.3215,-54.0438"/>
<polygon fill="#191970" stroke="#191970" points="59.6541,-313.2738 62.4371,-323.4966 66.6365,-313.7696 59.6541,-313.2738"/>
</g>
<!-- Node31 -->
<g id="node32" class="node">
<title>Node31</title>
<g id="a_node32"><a xlink:href="interfaceumontreal_1_1ssj_1_1mcqmctools_1_1MonteCarloModelCV.html" target="_top" xlink:title="An MonteCarloModelDouble that also implements a vector of control variates.">
<polygon fill="none" stroke="#000000" points="185.5,-646.5 185.5,-665.5 292.5,-665.5 292.5,-646.5 185.5,-646.5"/>
<text text-anchor="middle" x="239" y="-653.5" font-family="Helvetica,sans-Serif" font-size="10.00" fill="#000000">MonteCarloModelCV</text>
</a>
</g>
</g>
<!-- Node0&#45;&gt;Node31 -->
<g id="edge32" class="edge">
<title>Node0&#45;&gt;Node31</title>
<path fill="none" stroke="#191970" d="M65.7407,-352.6586C77.6956,-413.4791 116.737,-596.8991 160,-637 167.035,-643.5208 175.9067,-647.918 185.1429,-650.8597"/>
<polygon fill="#191970" stroke="#191970" points="69.1671,-351.9426 63.8287,-342.791 62.2949,-353.2742 69.1671,-351.9426"/>
</g>
<!-- Node32 -->
<g id="node33" class="node">
<title>Node32</title>
<g id="a_node33"><a xlink:href="interfaceumontreal_1_1ssj_1_1mcqmctools_1_1MonteCarloModelDensityKnown.html" target="_top" xlink:title="An interface for a simulation model for which Monte Carlo (MC) and RQMC experiments are to be perform...">
<polygon fill="none" stroke="#000000" points="160.5,-.5 160.5,-19.5 317.5,-19.5 317.5,-.5 160.5,-.5"/>
<text text-anchor="middle" x="239" y="-7.5" font-family="Helvetica,sans-Serif" font-size="10.00" fill="#000000">MonteCarloModelDensityKnown</text>
</a>
</g>
</g>
<!-- Node0&#45;&gt;Node32 -->
<g id="edge34" class="edge">
<title>Node0&#45;&gt;Node32</title>
<path fill="none" stroke="#191970" d="M65.7407,-313.3414C77.6956,-252.5209 116.737,-69.1009 160,-29 164.1382,-25.1642 168.912,-22.0632 174.0216,-19.5611"/>
<polygon fill="#191970" stroke="#191970" points="62.2949,-312.7258 63.8287,-323.209 69.1671,-314.0574 62.2949,-312.7258"/>
</g>
<!-- Node2 -->
<g id="node3" class="node">
<title>Node2</title>
<g id="a_node3"><a xlink:href="classift6561examples_1_1AsianOptionGBMCV.html" target="_top" xlink:title="This class represents an Asian Option based on a geometric Brownian motion, for which we use the payo...">
<polygon fill="none" stroke="#000000" points="374.5,-646.5 374.5,-665.5 480.5,-665.5 480.5,-646.5 374.5,-646.5"/>
<text text-anchor="middle" x="427.5" y="-653.5" font-family="Helvetica,sans-Serif" font-size="10.00" fill="#000000">AsianOptionGBMCV</text>
</a>
</g>
</g>
<!-- Node1&#45;&gt;Node2 -->
<g id="edge2" class="edge">
<title>Node1&#45;&gt;Node2</title>
<path fill="none" stroke="#191970" d="M283.899,-627.0513C312.9528,-632.9082 350.7216,-640.5221 380.2328,-646.4713"/>
<polygon fill="#191970" stroke="#191970" points="284.5081,-623.6037 274.0136,-625.0585 283.1248,-630.4657 284.5081,-623.6037"/>
</g>
<!-- Node3 -->
<g id="node4" class="node">
<title>Node3</title>
<g id="a_node4"><a xlink:href="classift6561examples_1_1OldAsianRQMC.html" target="_top" xlink:title=" ">
<polygon fill="none" stroke="#000000" points="384,-608.5 384,-627.5 471,-627.5 471,-608.5 384,-608.5"/>
<text text-anchor="middle" x="427.5" y="-615.5" font-family="Helvetica,sans-Serif" font-size="10.00" fill="#000000">OldAsianRQMC</text>
</a>
</g>
</g>
<!-- Node1&#45;&gt;Node3 -->
<g id="edge3" class="edge">
<title>Node1&#45;&gt;Node3</title>
<path fill="none" stroke="#191970" d="M284.2652,-618C314.4283,-618 353.8614,-618 383.7147,-618"/>
<polygon fill="#191970" stroke="#191970" points="284.0137,-614.5001 274.0136,-618 284.0136,-621.5001 284.0137,-614.5001"/>
</g>
<!-- Node5 -->
<g id="node6" class="node">
<title>Node5</title>
<g id="a_node6"><a xlink:href="classift6561examples_1_1CallableBondCMC.html" target="_top" xlink:title="Estimates the value of a callable bond where the coupons are paid at the same time as in.">
<polygon fill="none" stroke="#000000" points="378.5,-570.5 378.5,-589.5 476.5,-589.5 476.5,-570.5 378.5,-570.5"/>
<text text-anchor="middle" x="427.5" y="-577.5" font-family="Helvetica,sans-Serif" font-size="10.00" fill="#000000">CallableBondCMC</text>
</a>
</g>
</g>
<!-- Node4&#45;&gt;Node5 -->
<g id="edge5" class="edge">
<title>Node4&#45;&gt;Node5</title>
<path fill="none" stroke="#191970" d="M286.0606,-551.487C314.8256,-557.2858 351.4941,-564.6779 380.2869,-570.4822"/>
<polygon fill="#191970" stroke="#191970" points="286.736,-548.0528 276.2415,-549.5076 285.3526,-554.9148 286.736,-548.0528"/>
</g>
<!-- Node6 -->
<g id="node7" class="node">
<title>Node6</title>
<g id="a_node7"><a xlink:href="classift6561examples_1_1CallableBondCV.html" target="_top" xlink:title="Estimates the value of a callable bond using the uncallable bond as a control variate.">
<polygon fill="none" stroke="#000000" points="383.5,-532.5 383.5,-551.5 471.5,-551.5 471.5,-532.5 383.5,-532.5"/>
<text text-anchor="middle" x="427.5" y="-539.5" font-family="Helvetica,sans-Serif" font-size="10.00" fill="#000000">CallableBondCV</text>
</a>
</g>
</g>
<!-- Node4&#45;&gt;Node6 -->
<g id="edge6" class="edge">
<title>Node4&#45;&gt;Node6</title>
<path fill="none" stroke="#191970" d="M286.3903,-542C316.1486,-542 354.2662,-542 383.3814,-542"/>
<polygon fill="#191970" stroke="#191970" points="286.2416,-538.5001 276.2415,-542 286.2415,-545.5001 286.2416,-538.5001"/>
</g>
<!-- Node9 -->
<g id="node10" class="node">
<title>Node9</title>
<g id="a_node10"><a xlink:href="classift6561examples_1_1San13connectCMC1.html" target="_top" xlink:title="This class simulates a specific stochastic activity network with 9 nodes and 13 links,...">
<polygon fill="none" stroke="#000000" points="374,-494.5 374,-513.5 481,-513.5 481,-494.5 374,-494.5"/>
<text text-anchor="middle" x="427.5" y="-501.5" font-family="Helvetica,sans-Serif" font-size="10.00" fill="#000000">San13connectCMC1</text>
</a>
</g>
</g>
<!-- Node8&#45;&gt;Node9 -->
<g id="edge9" class="edge">
<title>Node8&#45;&gt;Node9</title>
<path fill="none" stroke="#191970" d="M288.6284,-476.0047C317.0116,-481.7265 352.4138,-488.8633 380.3695,-494.4989"/>
<polygon fill="#191970" stroke="#191970" points="289.0103,-472.5113 278.5158,-473.966 287.6269,-479.3733 289.0103,-472.5113"/>
</g>
<!-- Node11 -->
<g id="node12" class="node">
<title>Node11</title>
<g id="a_node12"><a xlink:href="classift6561examples_1_1San13DistCRN.html" target="_top" xlink:title="Here we compute the empirical distribution of the shortest path lengths and we construct a histogram.">
<polygon fill="none" stroke="#000000" points="385,-456.5 385,-475.5 470,-475.5 470,-456.5 385,-456.5"/>
<text text-anchor="middle" x="427.5" y="-463.5" font-family="Helvetica,sans-Serif" font-size="10.00" fill="#000000">San13DistCRN</text>
</a>
</g>
</g>
<!-- Node10&#45;&gt;Node11 -->
<g id="edge11" class="edge">
<title>Node10&#45;&gt;Node11</title>
<path fill="none" stroke="#191970" d="M280.152,-436.2959C311.0883,-442.5324 353.3534,-451.0527 384.6859,-457.369"/>
<polygon fill="#191970" stroke="#191970" points="280.6214,-432.8202 270.1269,-434.2749 279.2381,-439.6821 280.6214,-432.8202"/>
</g>
<!-- Node13 -->
<g id="node14" class="node">
<title>Node13</title>
<g id="a_node14"><a xlink:href="classift6561examples_1_1San13CMC.html" target="_top" xlink:title=" ">
<polygon fill="none" stroke="#000000" points="393.5,-418.5 393.5,-437.5 461.5,-437.5 461.5,-418.5 393.5,-418.5"/>
<text text-anchor="middle" x="427.5" y="-425.5" font-family="Helvetica,sans-Serif" font-size="10.00" fill="#000000">San13CMC</text>
</a>
</g>
</g>
<!-- Node12&#45;&gt;Node13 -->
<g id="edge13" class="edge">
<title>Node12&#45;&gt;Node13</title>
<path fill="none" stroke="#191970" d="M281.8857,-398.6454C315.6861,-405.4593 362.1758,-414.8312 393.4528,-421.1364"/>
<polygon fill="#191970" stroke="#191970" points="282.3287,-395.1644 271.8342,-396.6191 280.9453,-402.0263 282.3287,-395.1644"/>
</g>
<!-- Node15 -->
<g id="node16" class="node">
<title>Node15</title>
<g id="a_node16"><a xlink:href="classift6561examples_1_1San13CMCCV.html" target="_top" xlink:title=" ">
<polygon fill="none" stroke="#000000" points="387,-380.5 387,-399.5 468,-399.5 468,-380.5 387,-380.5"/>
<text text-anchor="middle" x="427.5" y="-387.5" font-family="Helvetica,sans-Serif" font-size="10.00" fill="#000000">San13CMCCV</text>
</a>
</g>
</g>
<!-- Node12&#45;&gt;Node15 -->
<g id="edge15" class="edge">
<title>Node12&#45;&gt;Node15</title>
<path fill="none" stroke="#191970" d="M282.0563,-390C313.53,-390 355.9381,-390 386.8376,-390"/>
<polygon fill="#191970" stroke="#191970" points="281.8342,-386.5001 271.8342,-390 281.8342,-393.5001 281.8342,-386.5001"/>
</g>
<!-- Node16 -->
<g id="node17" class="node">
<title>Node16</title>
<g id="a_node17"><a xlink:href="classift6561examples_1_1San13CMCgrad1.html" target="_top" xlink:title=" ">
<polygon fill="none" stroke="#000000" points="381.5,-342.5 381.5,-361.5 473.5,-361.5 473.5,-342.5 381.5,-342.5"/>
<text text-anchor="middle" x="427.5" y="-349.5" font-family="Helvetica,sans-Serif" font-size="10.00" fill="#000000">San13CMCgrad1</text>
</a>
</g>
</g>
<!-- Node12&#45;&gt;Node16 -->
<g id="edge16" class="edge">
<title>Node12&#45;&gt;Node16</title>
<path fill="none" stroke="#191970" d="M281.8816,-381.3554C311.5255,-375.3795 350.9313,-367.4356 381.2746,-361.3186"/>
<polygon fill="#191970" stroke="#191970" points="280.9453,-377.9737 271.8342,-383.3809 282.3287,-384.8356 280.9453,-377.9737"/>
</g>
<!-- Node17 -->
<g id="node18" class="node">
<title>Node17</title>
<g id="a_node18"><a xlink:href="classift6561examples_1_1San13CMCgrad2.html" target="_top" xlink:title=" ">
<polygon fill="none" stroke="#000000" points="381.5,-304.5 381.5,-323.5 473.5,-323.5 473.5,-304.5 381.5,-304.5"/>
<text text-anchor="middle" x="427.5" y="-311.5" font-family="Helvetica,sans-Serif" font-size="10.00" fill="#000000">San13CMCgrad2</text>
</a>
</g>
</g>
<!-- Node12&#45;&gt;Node17 -->
<g id="edge17" class="edge">
<title>Node12&#45;&gt;Node17</title>
<path fill="none" stroke="#191970" d="M281.773,-384.395C294.0273,-381.5749 307.0282,-377.3437 318,-371 338.1404,-359.3552 333.959,-344.815 354,-333 362.2882,-328.1138 371.8261,-324.4693 381.2271,-321.7556"/>
<polygon fill="#191970" stroke="#191970" points="280.814,-381.0185 271.7158,-386.4475 282.2137,-387.8771 280.814,-381.0185"/>
</g>
<!-- Node14 -->
<g id="node15" class="node">
<title>Node14</title>
<g id="a_node15"><a xlink:href="classift6561examples_1_1San13CMCDist.html" target="_top" xlink:title="Here we compute the empirical distribution of the CMC estimator.">
<polygon fill="none" stroke="#000000" points="537,-418.5 537,-437.5 623,-437.5 623,-418.5 537,-418.5"/>
<text text-anchor="middle" x="580" y="-425.5" font-family="Helvetica,sans-Serif" font-size="10.00" fill="#000000">San13CMCDist</text>
</a>
</g>
</g>
<!-- Node13&#45;&gt;Node14 -->
<g id="edge14" class="edge">
<title>Node13&#45;&gt;Node14</title>
<path fill="none" stroke="#191970" d="M471.7542,-428C492.2533,-428 516.5213,-428 536.8785,-428"/>
<polygon fill="#191970" stroke="#191970" points="471.724,-424.5001 461.724,-428 471.7239,-431.5001 471.724,-424.5001"/>
</g>
<!-- Node19 -->
<g id="node20" class="node">
<title>Node19</title>
<g id="a_node20"><a xlink:href="classift6561examples_1_1TestOptionVGIS2017_1_1OptionVGIS1.html" target="_top" xlink:title=" ">
<polygon fill="none" stroke="#000000" points="357.5,-255 357.5,-285 497.5,-285 497.5,-255 357.5,-255"/>
<text text-anchor="start" x="365.5" y="-273" font-family="Helvetica,sans-Serif" font-size="10.00" fill="#000000">TestOptionVGIS2017.Option</text>
<text text-anchor="middle" x="427.5" y="-262" font-family="Helvetica,sans-Serif" font-size="10.00" fill="#000000">VGIS1</text>
</a>
</g>
</g>
<!-- Node18&#45;&gt;Node19 -->
<g id="edge19" class="edge">
<title>Node18&#45;&gt;Node19</title>
<path fill="none" stroke="#191970" d="M305.7114,-338.9726C309.9797,-337.2256 314.1169,-335.2451 318,-333 338.1404,-321.3552 334.4154,-307.557 354,-295 359.9001,-291.217 366.4359,-287.9394 373.1057,-285.1179"/>
<polygon fill="#191970" stroke="#191970" points="304.4031,-335.7242 296.2056,-342.4362 306.7996,-342.3012 304.4031,-335.7242"/>
</g>
<!-- Node20 -->
<g id="node21" class="node">
<title>Node20</title>
<g id="a_node21"><a xlink:href="classift6561examples_1_1TestOptionVGIS2017_1_1OptionVGIS2.html" target="_top" xlink:title=" ">
<polygon fill="none" stroke="#000000" points="357.5,-206 357.5,-236 497.5,-236 497.5,-206 357.5,-206"/>
<text text-anchor="start" x="365.5" y="-224" font-family="Helvetica,sans-Serif" font-size="10.00" fill="#000000">TestOptionVGIS2017.Option</text>
<text text-anchor="middle" x="427.5" y="-213" font-family="Helvetica,sans-Serif" font-size="10.00" fill="#000000">VGIS2</text>
</a>
</g>
</g>
<!-- Node18&#45;&gt;Node20 -->
<g id="edge20" class="edge">
<title>Node18&#45;&gt;Node20</title>
<path fill="none" stroke="#191970" d="M311.7444,-337.6328C313.9351,-336.2244 316.0296,-334.6842 318,-333 349.8098,-305.8109 323.4718,-274.6206 354,-246 358.1298,-242.1282 362.8829,-238.854 367.9436,-236.0854"/>
<polygon fill="#191970" stroke="#191970" points="310.0027,-334.5957 302.8771,-342.4364 313.337,-340.7506 310.0027,-334.5957"/>
</g>
<!-- Node22 -->
<g id="node23" class="node">
<title>Node22</title>
<g id="a_node23"><a xlink:href="classift6561examples_1_1TestOptionVGIS_1_1OptionVGIS1.html" target="_top" xlink:title=" ">
<polygon fill="none" stroke="#000000" points="354,-167.5 354,-186.5 501,-186.5 501,-167.5 354,-167.5"/>
<text text-anchor="middle" x="427.5" y="-174.5" font-family="Helvetica,sans-Serif" font-size="10.00" fill="#000000">TestOptionVGIS.OptionVGIS1</text>
</a>
</g>
</g>
<!-- Node21&#45;&gt;Node22 -->
<g id="edge22" class="edge">
<title>Node21&#45;&gt;Node22</title>
<path fill="none" stroke="#191970" d="M312.4382,-299.3277C314.3841,-298.0017 316.2451,-296.5623 318,-295 352.6578,-264.1468 319.8034,-228.3637 354,-197 358.6781,-192.7094 364.1859,-189.3247 370.0478,-186.657"/>
<polygon fill="#191970" stroke="#191970" points="310.3967,-296.4619 303.4291,-304.4434 313.8533,-302.549 310.3967,-296.4619"/>
</g>
<!-- Node23 -->
<g id="node24" class="node">
<title>Node23</title>
<g id="a_node24"><a xlink:href="classift6561examples_1_1TestOptionVGIS_1_1OptionVGIS2.html" target="_top" xlink:title=" ">
<polygon fill="none" stroke="#000000" points="354,-129.5 354,-148.5 501,-148.5 501,-129.5 354,-129.5"/>
<text text-anchor="middle" x="427.5" y="-136.5" font-family="Helvetica,sans-Serif" font-size="10.00" fill="#000000">TestOptionVGIS.OptionVGIS2</text>
</a>
</g>
</g>
<!-- Node21&#45;&gt;Node23 -->
<g id="edge23" class="edge">
<title>Node21&#45;&gt;Node23</title>
<path fill="none" stroke="#191970" d="M313.3248,-299.0286C314.9626,-297.784 316.526,-296.4434 318,-295 362.9803,-250.9519 309.3945,-202.4275 354,-158 357.8287,-154.1866 362.3162,-151.1074 367.1534,-148.6249"/>
<polygon fill="#191970" stroke="#191970" points="311.2138,-296.2204 304.5854,-304.4857 314.9214,-302.158 311.2138,-296.2204"/>
</g>
<!-- Node31&#45;&gt;Node2 -->
<g id="edge33" class="edge">
<title>Node31&#45;&gt;Node2</title>
<path fill="none" stroke="#191970" d="M302.6299,-656C325.8807,-656 351.9207,-656 374.1804,-656"/>
<polygon fill="#191970" stroke="#191970" points="302.5124,-652.5001 292.5123,-656 302.5123,-659.5001 302.5124,-652.5001"/>
</g>
</g>
</svg>
