<?xml version="1.0" encoding="UTF-8" standalone="no"?>
<!DOCTYPE svg PUBLIC "-//W3C//DTD SVG 1.1//EN"
 "http://www.w3.org/Graphics/SVG/1.1/DTD/svg11.dtd">
<!-- Generated by graphviz version 2.40.1 (0)
 -->
<!-- Title: MultiDimComparable&lt; T &gt; Pages: 1 -->
<svg width="341pt" height="207pt"
 viewBox="0.00 0.00 341.00 207.00" xmlns="http://www.w3.org/2000/svg" xmlns:xlink="http://www.w3.org/1999/xlink">
<g id="graph0" class="graph" transform="scale(1 1) rotate(0) translate(4 203)">
<title>MultiDimComparable&lt; T &gt;</title>
<!-- Node0 -->
<g id="node1" class="node">
<title>Node0</title>
<g id="a_node1"><a xlink:title="This interface is an extension (or variant) of the Comparable interface in Java.">
<polygon fill="#bfbfbf" stroke="#000000" points="76.5,-179.5 76.5,-198.5 208.5,-198.5 208.5,-179.5 76.5,-179.5"/>
<text text-anchor="middle" x="142.5" y="-186.5" font-family="Helvetica,sans-Serif" font-size="10.00" fill="#000000">MultiDimComparable&lt; T &gt;</text>
</a>
</g>
</g>
<!-- Node1 -->
<g id="node2" class="node">
<title>Node1</title>
<g id="a_node2"><a xlink:href="classumontreal_1_1ssj_1_1markovchainrqmc_1_1MarkovChainComparable.html" target="_top" xlink:title="A subclass of MarkovChain for which there is a total ordering between the states, induced by the impl...">
<polygon fill="none" stroke="#000000" points="70,-112.5 70,-142.5 215,-142.5 215,-112.5 70,-112.5"/>
<text text-anchor="start" x="78" y="-130.5" font-family="Helvetica,sans-Serif" font-size="10.00" fill="#000000">MarkovChainComparable</text>
<text text-anchor="middle" x="142.5" y="-119.5" font-family="Helvetica,sans-Serif" font-size="10.00" fill="#000000">&lt; MarkovChainComparable &gt;</text>
</a>
</g>
</g>
<!-- Node0&#45;&gt;Node1 -->
<g id="edge1" class="edge">
<title>Node0&#45;&gt;Node1</title>
<path fill="none" stroke="#191970" d="M142.5,-169.3693C142.5,-160.681 142.5,-150.6241 142.5,-142.5446"/>
<polygon fill="#191970" stroke="#191970" points="139.0001,-169.3906 142.5,-179.3906 146.0001,-169.3907 139.0001,-169.3906"/>
</g>
<!-- Node2 -->
<g id="node3" class="node">
<title>Node2</title>
<g id="a_node3"><a xlink:href="classmarkovchainrqmc_1_1Brownian.html" target="_top" xlink:title=" ">
<polygon fill="none" stroke="#000000" points="0,-56.5 0,-75.5 57,-75.5 57,-56.5 0,-56.5"/>
<text text-anchor="middle" x="28.5" y="-63.5" font-family="Helvetica,sans-Serif" font-size="10.00" fill="#000000">Brownian</text>
</a>
</g>
</g>
<!-- Node1&#45;&gt;Node2 -->
<g id="edge2" class="edge">
<title>Node1&#45;&gt;Node2</title>
<path fill="none" stroke="#191970" d="M105.7507,-107.6747C85.7882,-96.9055 62.0168,-84.0814 46.166,-75.5303"/>
<polygon fill="#191970" stroke="#191970" points="104.1497,-110.7878 114.6125,-112.4554 107.4732,-104.6271 104.1497,-110.7878"/>
</g>
<!-- Node3 -->
<g id="node4" class="node">
<title>Node3</title>
<g id="a_node4"><a xlink:href="classumontreal_1_1ssj_1_1markovchainrqmc_1_1florian_1_1chemicalReactionNetworks_1_1ChemicalReactionNetwork.html" target="_top" xlink:title="Implements an abstract class to simulate chemical reaction networks with Gillespie&#39;s &#160;algorithm.">
<polygon fill="none" stroke="#000000" points="75.5,-56.5 75.5,-75.5 209.5,-75.5 209.5,-56.5 75.5,-56.5"/>
<text text-anchor="middle" x="142.5" y="-63.5" font-family="Helvetica,sans-Serif" font-size="10.00" fill="#000000">ChemicalReactionNetwork</text>
</a>
</g>
</g>
<!-- Node1&#45;&gt;Node3 -->
<g id="edge3" class="edge">
<title>Node1&#45;&gt;Node3</title>
<path fill="none" stroke="#191970" d="M142.5,-102.2849C142.5,-92.9858 142.5,-82.9883 142.5,-75.8469"/>
<polygon fill="#191970" stroke="#191970" points="139.0001,-102.2977 142.5,-112.2977 146.0001,-102.2978 139.0001,-102.2977"/>
</g>
<!-- Node7 -->
<g id="node8" class="node">
<title>Node7</title>
<g id="a_node8"><a xlink:href="classumontreal_1_1ssj_1_1markovchainrqmc_1_1MarkovChainDouble.html" target="_top" xlink:title="A special kind of Markov chain whose state space is a subset of the real numbers.">
<polygon fill="none" stroke="#000000" points="228,-56.5 228,-75.5 333,-75.5 333,-56.5 228,-56.5"/>
<text text-anchor="middle" x="280.5" y="-63.5" font-family="Helvetica,sans-Serif" font-size="10.00" fill="#000000">MarkovChainDouble</text>
</a>
</g>
</g>
<!-- Node1&#45;&gt;Node7 -->
<g id="edge7" class="edge">
<title>Node1&#45;&gt;Node7</title>
<path fill="none" stroke="#191970" d="M185.6844,-108.2548C210.111,-97.369 239.5813,-84.2355 259.1149,-75.5303"/>
<polygon fill="#191970" stroke="#191970" points="183.9679,-105.1878 176.2586,-112.4554 186.8174,-111.5817 183.9679,-105.1878"/>
</g>
<!-- Node4 -->
<g id="node5" class="node">
<title>Node4</title>
<g id="a_node5"><a xlink:href="classumontreal_1_1ssj_1_1markovchainrqmc_1_1florian_1_1chemicalReactionNetworks_1_1PKA.html" target="_top" xlink:title="Implements the #ChemicalReactionNetwork for the cyclic AMP activation of PKA, see Koh and Blackwell &#39;...">
<polygon fill="none" stroke="#000000" points="26,-.5 26,-19.5 63,-19.5 63,-.5 26,-.5"/>
<text text-anchor="middle" x="44.5" y="-7.5" font-family="Helvetica,sans-Serif" font-size="10.00" fill="#000000">PKA</text>
</a>
</g>
</g>
<!-- Node3&#45;&gt;Node4 -->
<g id="edge4" class="edge">
<title>Node3&#45;&gt;Node4</title>
<path fill="none" stroke="#191970" d="M116.3314,-51.0465C98.8942,-41.0824 76.4889,-28.2794 61.3747,-19.6427"/>
<polygon fill="#191970" stroke="#191970" points="115.0108,-54.323 125.4297,-56.2455 118.4838,-48.2453 115.0108,-54.323"/>
</g>
<!-- Node5 -->
<g id="node6" class="node">
<title>Node5</title>
<g id="a_node6"><a xlink:href="classumontreal_1_1ssj_1_1markovchainrqmc_1_1florian_1_1chemicalReactionNetworks_1_1ReversibleIsomerization.html" target="_top" xlink:title="Implements the Reversible Isomerization example from, e.g., Beentjes and Baker &#39;18.">
<polygon fill="none" stroke="#000000" points="81.5,-.5 81.5,-19.5 203.5,-19.5 203.5,-.5 81.5,-.5"/>
<text text-anchor="middle" x="142.5" y="-7.5" font-family="Helvetica,sans-Serif" font-size="10.00" fill="#000000">ReversibleIsomerization</text>
</a>
</g>
</g>
<!-- Node3&#45;&gt;Node5 -->
<g id="edge5" class="edge">
<title>Node3&#45;&gt;Node5</title>
<path fill="none" stroke="#191970" d="M142.5,-46.1575C142.5,-37.155 142.5,-26.9199 142.5,-19.6427"/>
<polygon fill="#191970" stroke="#191970" points="139.0001,-46.2455 142.5,-56.2455 146.0001,-46.2456 139.0001,-46.2455"/>
</g>
<!-- Node6 -->
<g id="node7" class="node">
<title>Node6</title>
<g id="a_node7"><a xlink:href="classumontreal_1_1ssj_1_1markovchainrqmc_1_1florian_1_1chemicalReactionNetworks_1_1SchloeglSystem.html" target="_top" xlink:title="Implements the Schloegl system, see, e.g., Beentjes and Baker &#39;18.">
<polygon fill="none" stroke="#000000" points="221.5,-.5 221.5,-19.5 309.5,-19.5 309.5,-.5 221.5,-.5"/>
<text text-anchor="middle" x="265.5" y="-7.5" font-family="Helvetica,sans-Serif" font-size="10.00" fill="#000000">SchloeglSystem</text>
</a>
</g>
</g>
<!-- Node3&#45;&gt;Node6 -->
<g id="edge6" class="edge">
<title>Node3&#45;&gt;Node6</title>
<path fill="none" stroke="#191970" d="M173.0065,-52.1109C195.3112,-41.9559 224.9799,-28.4482 244.6315,-19.5011"/>
<polygon fill="#191970" stroke="#191970" points="171.2953,-49.0442 163.6445,-56.3733 174.1959,-55.415 171.2953,-49.0442"/>
</g>
</g>
</svg>
