<?xml version="1.0" encoding="UTF-8" standalone="no"?>
<!DOCTYPE svg PUBLIC "-//W3C//DTD SVG 1.1//EN"
 "http://www.w3.org/Graphics/SVG/1.1/DTD/svg11.dtd">
<!-- Generated by graphviz version 2.38.0 (20140413.2041)
 -->
<!-- Title: RandomSampler Pages: 1 -->
<svg width="215pt" height="196pt"
 viewBox="0.00 0.00 214.50 196.00" xmlns="http://www.w3.org/2000/svg" xmlns:xlink="http://www.w3.org/1999/xlink">
<g id="graph0" class="graph" transform="scale(1 1) rotate(0) translate(4 192)">
<title>RandomSampler</title>
<!-- Node0 -->
<g id="node1" class="node"><title>Node0</title>
<polygon fill="#bfbfbf" stroke="black" points="64.5,-112.5 64.5,-131.5 153.5,-131.5 153.5,-112.5 64.5,-112.5"/>
<text text-anchor="middle" x="109" y="-119.5" font-family="Helvetica,sans-Serif" font-size="10.00">RandomSampler</text>
</g>
<!-- Node2 -->
<g id="node3" class="node"><title>Node2</title>
<g id="a_node3"><a xlink:href="classumontreal_1_1ssj_1_1mcqmctools_1_1anova_1_1MonteCarloSampler.html" target="_top" xlink:title="Monte Carlo sampler. ">
<polygon fill="none" stroke="black" points="2.5,-56.5 2.5,-75.5 105.5,-75.5 105.5,-56.5 2.5,-56.5"/>
<text text-anchor="middle" x="54" y="-63.5" font-family="Helvetica,sans-Serif" font-size="10.00">MonteCarloSampler</text>
</a>
</g>
</g>
<!-- Node0&#45;&gt;Node2 -->
<g id="edge2" class="edge"><title>Node0&#45;&gt;Node2</title>
<path fill="none" stroke="midnightblue" d="M92.7062,-105.002C82.9594,-95.4329 70.947,-83.6389 62.9131,-75.7511"/>
<polygon fill="midnightblue" stroke="midnightblue" points="90.3301,-107.575 99.9179,-112.083 95.2343,-102.58 90.3301,-107.575"/>
</g>
<!-- Node4 -->
<g id="node5" class="node"><title>Node4</title>
<g id="a_node5"><a xlink:href="classumontreal_1_1ssj_1_1mcqmctools_1_1anova_1_1RQMCSampler.html" target="_top" xlink:title="QMC sampler. ">
<polygon fill="none" stroke="black" points="123.5,-56.5 123.5,-75.5 206.5,-75.5 206.5,-56.5 123.5,-56.5"/>
<text text-anchor="middle" x="165" y="-63.5" font-family="Helvetica,sans-Serif" font-size="10.00">RQMCSampler</text>
</a>
</g>
</g>
<!-- Node0&#45;&gt;Node4 -->
<g id="edge4" class="edge"><title>Node0&#45;&gt;Node4</title>
<path fill="none" stroke="midnightblue" d="M125.33,-105.253C135.265,-95.6731 147.588,-83.7906 155.839,-75.8339"/>
<polygon fill="midnightblue" stroke="midnightblue" points="122.766,-102.863 117.997,-112.324 127.625,-107.902 122.766,-102.863"/>
</g>
<!-- Node1 -->
<g id="node2" class="node"><title>Node1</title>
<g id="a_node2"><a xlink:href="interfaceumontreal_1_1ssj_1_1mcqmctools_1_1anova_1_1Sampler.html" target="_top" xlink:title="Sampler">
<polygon fill="none" stroke="black" points="82.5,-168.5 82.5,-187.5 135.5,-187.5 135.5,-168.5 82.5,-168.5"/>
<text text-anchor="middle" x="109" y="-175.5" font-family="Helvetica,sans-Serif" font-size="10.00">Sampler</text>
</a>
</g>
</g>
<!-- Node1&#45;&gt;Node0 -->
<g id="edge1" class="edge"><title>Node1&#45;&gt;Node0</title>
<path fill="none" stroke="midnightblue" d="M109,-157.805C109,-148.91 109,-138.78 109,-131.751"/>
<polygon fill="midnightblue" stroke="midnightblue" points="105.5,-158.083 109,-168.083 112.5,-158.083 105.5,-158.083"/>
</g>
<!-- Node3 -->
<g id="node4" class="node"><title>Node3</title>
<g id="a_node4"><a xlink:href="classumontreal_1_1ssj_1_1mcqmctools_1_1anova_1_1MonteCarloIntegrator.html" target="_top" xlink:title="MonteCarloIntegrator">
<polygon fill="none" stroke="black" points="0,-0.5 0,-19.5 108,-19.5 108,-0.5 0,-0.5"/>
<text text-anchor="middle" x="54" y="-7.5" font-family="Helvetica,sans-Serif" font-size="10.00">MonteCarloIntegrator</text>
</a>
</g>
</g>
<!-- Node2&#45;&gt;Node3 -->
<g id="edge3" class="edge"><title>Node2&#45;&gt;Node3</title>
<path fill="none" stroke="midnightblue" d="M54,-45.8045C54,-36.9102 54,-26.7798 54,-19.7511"/>
<polygon fill="midnightblue" stroke="midnightblue" points="50.5001,-46.083 54,-56.083 57.5001,-46.083 50.5001,-46.083"/>
</g>
</g>
</svg>
