<?xml version="1.0" encoding="UTF-8" standalone="no"?>
<!DOCTYPE svg PUBLIC "-//W3C//DTD SVG 1.1//EN"
 "http://www.w3.org/Graphics/SVG/1.1/DTD/svg11.dtd">
<!-- Generated by graphviz version 2.40.1 (20161225.0304)
 -->
<!-- Title: CloneableRandomStream Pages: 1 -->
<svg width="627pt" height="503pt"
 viewBox="0.00 0.00 627.00 503.00" xmlns="http://www.w3.org/2000/svg" xmlns:xlink="http://www.w3.org/1999/xlink">
<g id="graph0" class="graph" transform="scale(1 1) rotate(0) translate(4 499)">
<title>CloneableRandomStream</title>
<!-- Node0 -->
<g id="node1" class="node">
<title>Node0</title>
<polygon fill="#bfbfbf" stroke="#000000" points="121,-266.5 121,-285.5 249,-285.5 249,-266.5 121,-266.5"/>
<text text-anchor="middle" x="185" y="-273.5" font-family="Helvetica,sans-Serif" font-size="10.00" fill="#000000">CloneableRandomStream</text>
</g>
<!-- Node3 -->
<g id="node4" class="node">
<title>Node3</title>
<g id="a_node4"><a xlink:href="classumontreal_1_1ssj_1_1rng_1_1RandMrg.html" target="_top" xlink:title="USE MRG32k3a INSTEAD of this class. ">
<polygon fill="none" stroke="#000000" points="310.5,-285.5 310.5,-304.5 366.5,-304.5 366.5,-285.5 310.5,-285.5"/>
<text text-anchor="middle" x="338.5" y="-292.5" font-family="Helvetica,sans-Serif" font-size="10.00" fill="#000000">RandMrg</text>
</a>
</g>
</g>
<!-- Node0&#45;&gt;Node3 -->
<g id="edge3" class="edge">
<title>Node0&#45;&gt;Node3</title>
<path fill="none" stroke="#191970" d="M259.2924,-285.1958C277.5248,-287.4526 295.9425,-289.7323 310.4239,-291.5248"/>
<polygon fill="#191970" stroke="#191970" points="259.5627,-281.7026 249.2084,-283.9476 258.7027,-288.6496 259.5627,-281.7026"/>
</g>
<!-- Node4 -->
<g id="node5" class="node">
<title>Node4</title>
<g id="a_node5"><a xlink:href="classumontreal_1_1ssj_1_1rng_1_1RandomStreamBase.html" target="_top" xlink:title="This class provides a convenient foundation on which RNGs can be built. ">
<polygon fill="none" stroke="#000000" points="285,-247.5 285,-266.5 392,-266.5 392,-247.5 285,-247.5"/>
<text text-anchor="middle" x="338.5" y="-254.5" font-family="Helvetica,sans-Serif" font-size="10.00" fill="#000000">RandomStreamBase</text>
</a>
</g>
</g>
<!-- Node0&#45;&gt;Node4 -->
<g id="edge4" class="edge">
<title>Node0&#45;&gt;Node4</title>
<path fill="none" stroke="#191970" d="M259.2612,-266.8081C267.8631,-265.7433 276.5067,-264.6734 284.7592,-263.6519"/>
<polygon fill="#191970" stroke="#191970" points="258.7027,-263.3504 249.2084,-268.0524 259.5627,-270.2974 258.7027,-263.3504"/>
</g>
<!-- Node1 -->
<g id="node2" class="node">
<title>Node1</title>
<g id="a_node2"><a xlink:href="interfaceumontreal_1_1ssj_1_1rng_1_1RandomStream.html" target="_top" xlink:title="This interface defines the basic structures to handle multiple streams of uniform (pseudo)random numb...">
<polygon fill="none" stroke="#000000" points="0,-285.5 0,-304.5 85,-304.5 85,-285.5 0,-285.5"/>
<text text-anchor="middle" x="42.5" y="-292.5" font-family="Helvetica,sans-Serif" font-size="10.00" fill="#000000">RandomStream</text>
</a>
</g>
</g>
<!-- Node1&#45;&gt;Node0 -->
<g id="edge1" class="edge">
<title>Node1&#45;&gt;Node0</title>
<path fill="none" stroke="#191970" d="M95.2439,-287.9675C103.6099,-286.852 112.3415,-285.6878 120.9325,-284.5423"/>
<polygon fill="#191970" stroke="#191970" points="94.7044,-284.5084 85.2547,-289.2994 95.6296,-291.4469 94.7044,-284.5084"/>
</g>
<!-- Node2 -->
<g id="node3" class="node">
<title>Node2</title>
<polygon fill="none" stroke="#bfbfbf" points="12.5,-247.5 12.5,-266.5 72.5,-266.5 72.5,-247.5 12.5,-247.5"/>
<text text-anchor="middle" x="42.5" y="-254.5" font-family="Helvetica,sans-Serif" font-size="10.00" fill="#000000">Cloneable</text>
</g>
<!-- Node2&#45;&gt;Node0 -->
<g id="edge2" class="edge">
<title>Node2&#45;&gt;Node0</title>
<path fill="none" stroke="#191970" d="M82.7253,-262.3634C94.5766,-263.9436 107.851,-265.7135 120.8108,-267.4414"/>
<polygon fill="#191970" stroke="#191970" points="83.0955,-258.8818 72.7206,-261.0294 82.1703,-265.8204 83.0955,-258.8818"/>
</g>
<!-- Node5 -->
<g id="node6" class="node">
<title>Node5</title>
<g id="a_node6"><a xlink:href="classift6561examples_1_1MathematicaSWB.html" target="_top" xlink:title="MathematicaSWB">
<polygon fill="none" stroke="#000000" points="428,-475.5 428,-494.5 524,-494.5 524,-475.5 428,-475.5"/>
<text text-anchor="middle" x="476" y="-482.5" font-family="Helvetica,sans-Serif" font-size="10.00" fill="#000000">MathematicaSWB</text>
</a>
</g>
</g>
<!-- Node4&#45;&gt;Node5 -->
<g id="edge5" class="edge">
<title>Node4&#45;&gt;Node5</title>
<path fill="none" stroke="#191970" d="M388.2785,-272.2621C389.6066,-273.4183 390.8537,-274.662 392,-276 447.9188,-341.2683 373.2538,-399.745 428,-466 431.197,-469.869 435.2921,-472.9545 439.7396,-475.4142"/>
<polygon fill="#191970" stroke="#191970" points="390.153,-269.304 379.9219,-266.5518 386.2037,-275.0835 390.153,-269.304"/>
</g>
<!-- Node6 -->
<g id="node7" class="node">
<title>Node6</title>
<g id="a_node7"><a xlink:href="classumontreal_1_1ssj_1_1mcqmctools_1_1anova_1_1SplitStream.html" target="_top" xlink:title="Implements a random stream that mixes two input streams by using a coordinate mask. ">
<polygon fill="none" stroke="#000000" points="442,-437.5 442,-456.5 510,-456.5 510,-437.5 442,-437.5"/>
<text text-anchor="middle" x="476" y="-444.5" font-family="Helvetica,sans-Serif" font-size="10.00" fill="#000000">SplitStream</text>
</a>
</g>
</g>
<!-- Node4&#45;&gt;Node6 -->
<g id="edge6" class="edge">
<title>Node4&#45;&gt;Node6</title>
<path fill="none" stroke="#191970" d="M388.1226,-272.2649C389.5018,-273.4203 390.8011,-274.6631 392,-276 438.3515,-327.6845 382.5774,-375.4972 428,-428 431.7529,-432.3379 436.6293,-435.6943 441.833,-438.2889"/>
<polygon fill="#191970" stroke="#191970" points="389.7627,-269.1535 379.4908,-266.5577 385.902,-274.9926 389.7627,-269.1535"/>
</g>
<!-- Node7 -->
<g id="node8" class="node">
<title>Node7</title>
<g id="a_node8"><a xlink:href="classumontreal_1_1ssj_1_1rng_1_1GenF2w32.html" target="_top" xlink:title="Implements the RandomStream interface via inheritance from RandomStreamBase. ">
<polygon fill="none" stroke="#000000" points="444,-399.5 444,-418.5 508,-418.5 508,-399.5 444,-399.5"/>
<text text-anchor="middle" x="476" y="-406.5" font-family="Helvetica,sans-Serif" font-size="10.00" fill="#000000">GenF2w32</text>
</a>
</g>
</g>
<!-- Node4&#45;&gt;Node7 -->
<g id="edge7" class="edge">
<title>Node4&#45;&gt;Node7</title>
<path fill="none" stroke="#191970" d="M387.4336,-271.9404C389.0565,-273.187 390.5882,-274.5373 392,-276 428.9004,-314.2292 391.7871,-351.119 428,-390 432.2759,-394.5909 437.8022,-398.0917 443.5755,-400.7554"/>
<polygon fill="#191970" stroke="#191970" points="389.0357,-268.816 378.6899,-266.5322 385.3534,-274.7692 389.0357,-268.816"/>
</g>
<!-- Node8 -->
<g id="node9" class="node">
<title>Node8</title>
<g id="a_node9"><a xlink:href="classumontreal_1_1ssj_1_1rng_1_1LFSR113.html" target="_top" xlink:title="Extends RandomStreamBase using a composite linear feedback shift register (LFSR) (or Tausworthe) RNG ...">
<polygon fill="none" stroke="#000000" points="447,-361.5 447,-380.5 505,-380.5 505,-361.5 447,-361.5"/>
<text text-anchor="middle" x="476" y="-368.5" font-family="Helvetica,sans-Serif" font-size="10.00" fill="#000000">LFSR113</text>
</a>
</g>
</g>
<!-- Node4&#45;&gt;Node8 -->
<g id="edge8" class="edge">
<title>Node4&#45;&gt;Node8</title>
<path fill="none" stroke="#191970" d="M385.8994,-271.322C388.0614,-272.7392 390.1123,-274.2942 392,-276 419.7305,-301.059 400.7207,-326.4505 428,-352 433.2985,-356.9625 440.0495,-360.6869 446.8034,-363.4597"/>
<polygon fill="#191970" stroke="#191970" points="387.5712,-268.2471 377.1196,-266.5109 384.2073,-274.3859 387.5712,-268.2471"/>
</g>
<!-- Node9 -->
<g id="node10" class="node">
<title>Node9</title>
<g id="a_node10"><a xlink:href="classumontreal_1_1ssj_1_1rng_1_1LFSR258.html" target="_top" xlink:title="Extends RandomStreamBase using a 64&#45;bit composite linear feedback shift register (LFSR) (or Tausworth...">
<polygon fill="none" stroke="#000000" points="447,-323.5 447,-342.5 505,-342.5 505,-323.5 447,-323.5"/>
<text text-anchor="middle" x="476" y="-330.5" font-family="Helvetica,sans-Serif" font-size="10.00" fill="#000000">LFSR258</text>
</a>
</g>
</g>
<!-- Node4&#45;&gt;Node9 -->
<g id="edge9" class="edge">
<title>Node4&#45;&gt;Node9</title>
<path fill="none" stroke="#191970" d="M382.2075,-270.5324C385.619,-272.1818 388.9277,-274.001 392,-276 411.5001,-288.6878 408.7292,-300.9665 428,-314 433.7164,-317.8662 440.3366,-321.1255 446.7997,-323.7933"/>
<polygon fill="#191970" stroke="#191970" points="383.5959,-267.3196 373.0286,-266.556 380.8132,-273.7428 383.5959,-267.3196"/>
</g>
<!-- Node10 -->
<g id="node11" class="node">
<title>Node10</title>
<g id="a_node11"><a xlink:href="classumontreal_1_1ssj_1_1rng_1_1MRG31k3p.html" target="_top" xlink:title="Extends the abstract class RandomStreamBase, thus implementing the RandomStream interface indirectly...">
<polygon fill="none" stroke="#000000" points="443,-285.5 443,-304.5 509,-304.5 509,-285.5 443,-285.5"/>
<text text-anchor="middle" x="476" y="-292.5" font-family="Helvetica,sans-Serif" font-size="10.00" fill="#000000">MRG31k3p</text>
</a>
</g>
</g>
<!-- Node4&#45;&gt;Node10 -->
<g id="edge10" class="edge">
<title>Node4&#45;&gt;Node10</title>
<path fill="none" stroke="#191970" d="M383.039,-269.309C402.4489,-274.6731 424.8104,-280.8531 442.737,-285.8073"/>
<polygon fill="#191970" stroke="#191970" points="383.7681,-265.8793 373.1971,-266.589 381.9034,-272.6264 383.7681,-265.8793"/>
</g>
<!-- Node11 -->
<g id="node12" class="node">
<title>Node11</title>
<g id="a_node12"><a xlink:href="classumontreal_1_1ssj_1_1rng_1_1MRG32k3a.html" target="_top" xlink:title="Extends the abstract class RandomStreamBase by using as a backbone (or main) generator the combined m...">
<polygon fill="none" stroke="#000000" points="443,-247.5 443,-266.5 509,-266.5 509,-247.5 443,-247.5"/>
<text text-anchor="middle" x="476" y="-254.5" font-family="Helvetica,sans-Serif" font-size="10.00" fill="#000000">MRG32k3a</text>
</a>
</g>
</g>
<!-- Node4&#45;&gt;Node11 -->
<g id="edge11" class="edge">
<title>Node4&#45;&gt;Node11</title>
<path fill="none" stroke="#191970" d="M402.1569,-257C416.1448,-257 430.4155,-257 442.6356,-257"/>
<polygon fill="#191970" stroke="#191970" points="402.0548,-253.5001 392.0548,-257 402.0548,-260.5001 402.0548,-253.5001"/>
</g>
<!-- Node12 -->
<g id="node13" class="node">
<title>Node12</title>
<g id="a_node13"><a xlink:href="classumontreal_1_1ssj_1_1rng_1_1MRG32k3aL.html" target="_top" xlink:title="The same generator as MRG32k3a, except here it is implemented with type long instead of double...">
<polygon fill="none" stroke="#000000" points="440.5,-209.5 440.5,-228.5 511.5,-228.5 511.5,-209.5 440.5,-209.5"/>
<text text-anchor="middle" x="476" y="-216.5" font-family="Helvetica,sans-Serif" font-size="10.00" fill="#000000">MRG32k3aL</text>
</a>
</g>
</g>
<!-- Node4&#45;&gt;Node12 -->
<g id="edge12" class="edge">
<title>Node4&#45;&gt;Node12</title>
<path fill="none" stroke="#191970" d="M383.0729,-244.6817C401.9645,-239.4607 423.6472,-233.4684 441.314,-228.5859"/>
<polygon fill="#191970" stroke="#191970" points="381.9034,-241.3736 373.1971,-247.411 383.7681,-248.1207 381.9034,-241.3736"/>
</g>
<!-- Node13 -->
<g id="node14" class="node">
<title>Node13</title>
<g id="a_node14"><a xlink:href="classumontreal_1_1ssj_1_1rng_1_1MT19937.html" target="_top" xlink:title="Implements the RandomStream interface via inheritance from RandomStreamBase. ">
<polygon fill="none" stroke="#000000" points="447.5,-171.5 447.5,-190.5 504.5,-190.5 504.5,-171.5 447.5,-171.5"/>
<text text-anchor="middle" x="476" y="-178.5" font-family="Helvetica,sans-Serif" font-size="10.00" fill="#000000">MT19937</text>
</a>
</g>
</g>
<!-- Node4&#45;&gt;Node13 -->
<g id="edge13" class="edge">
<title>Node4&#45;&gt;Node13</title>
<path fill="none" stroke="#191970" d="M360.126,-241.5752C377.8374,-229.3532 403.8283,-212.3393 428,-200 434.7053,-196.5771 442.1782,-193.3548 449.1931,-190.57"/>
<polygon fill="#191970" stroke="#191970" points="357.8665,-238.8842 351.6723,-247.4796 361.8747,-244.623 357.8665,-238.8842"/>
</g>
<!-- Node14 -->
<g id="node15" class="node">
<title>Node14</title>
<g id="a_node15"><a xlink:href="classumontreal_1_1ssj_1_1rng_1_1RandRijndael.html" target="_top" xlink:title="Implements a RNG using the Rijndael block cipher algorithm (AES) with key and block lengths of 128 bi...">
<polygon fill="none" stroke="#000000" points="438.5,-133.5 438.5,-152.5 513.5,-152.5 513.5,-133.5 438.5,-133.5"/>
<text text-anchor="middle" x="476" y="-140.5" font-family="Helvetica,sans-Serif" font-size="10.00" fill="#000000">RandRijndael</text>
</a>
</g>
</g>
<!-- Node4&#45;&gt;Node14 -->
<g id="edge14" class="edge">
<title>Node4&#45;&gt;Node14</title>
<path fill="none" stroke="#191970" d="M351.2924,-239.2689C367.1993,-218.3201 396.1683,-183.5933 428,-162 433.4885,-158.2768 439.8147,-155.1185 446.0357,-152.5096"/>
<polygon fill="#191970" stroke="#191970" points="348.461,-237.2111 345.3046,-247.3249 354.0791,-241.3869 348.461,-237.2111"/>
</g>
<!-- Node15 -->
<g id="node16" class="node">
<title>Node15</title>
<g id="a_node16"><a xlink:href="classumontreal_1_1ssj_1_1rng_1_1WELL1024.html" target="_top" xlink:title="Implements the RandomStream interface via inheritance from RandomStreamBase. ">
<polygon fill="none" stroke="#000000" points="443.5,-95.5 443.5,-114.5 508.5,-114.5 508.5,-95.5 443.5,-95.5"/>
<text text-anchor="middle" x="476" y="-102.5" font-family="Helvetica,sans-Serif" font-size="10.00" fill="#000000">WELL1024</text>
</a>
</g>
</g>
<!-- Node4&#45;&gt;Node15 -->
<g id="edge15" class="edge">
<title>Node4&#45;&gt;Node15</title>
<path fill="none" stroke="#191970" d="M346.7884,-237.8998C360.0491,-209.3986 388.6075,-155.7049 428,-124 432.7477,-120.1788 438.3599,-117.0471 444.0424,-114.5081"/>
<polygon fill="#191970" stroke="#191970" points="343.5268,-236.6185 342.6033,-247.173 349.9071,-239.4981 343.5268,-236.6185"/>
</g>
<!-- Node16 -->
<g id="node17" class="node">
<title>Node16</title>
<g id="a_node17"><a xlink:href="classumontreal_1_1ssj_1_1rng_1_1WELL512.html" target="_top" xlink:title="This class implements the RandomStream interface via inheritance from RandomStreamBase. ">
<polygon fill="none" stroke="#000000" points="446.5,-57.5 446.5,-76.5 505.5,-76.5 505.5,-57.5 446.5,-57.5"/>
<text text-anchor="middle" x="476" y="-64.5" font-family="Helvetica,sans-Serif" font-size="10.00" fill="#000000">WELL512</text>
</a>
</g>
</g>
<!-- Node4&#45;&gt;Node16 -->
<g id="edge16" class="edge">
<title>Node4&#45;&gt;Node16</title>
<path fill="none" stroke="#191970" d="M343.7776,-237.4729C354.1886,-202.4587 380.5775,-128.6755 428,-86 433.263,-81.2638 439.8488,-77.6414 446.4398,-74.8963"/>
<polygon fill="#191970" stroke="#191970" points="340.3261,-236.8141 340.9525,-247.3904 347.0583,-238.7319 340.3261,-236.8141"/>
</g>
<!-- Node17 -->
<g id="node18" class="node">
<title>Node17</title>
<g id="a_node18"><a xlink:href="classumontreal_1_1ssj_1_1rng_1_1WELL607base.html" target="_top" xlink:title="WELL607base">
<polygon fill="none" stroke="#000000" points="436,-19.5 436,-38.5 516,-38.5 516,-19.5 436,-19.5"/>
<text text-anchor="middle" x="476" y="-26.5" font-family="Helvetica,sans-Serif" font-size="10.00" fill="#000000">WELL607base</text>
</a>
</g>
</g>
<!-- Node4&#45;&gt;Node17 -->
<g id="edge17" class="edge">
<title>Node4&#45;&gt;Node17</title>
<path fill="none" stroke="#191970" d="M341.7439,-237.1565C349.4185,-196.299 372.3947,-102.0864 428,-48 431.9832,-44.1256 436.8525,-41.0134 441.945,-38.5215"/>
<polygon fill="#191970" stroke="#191970" points="338.2649,-236.7312 339.9706,-247.1878 345.158,-237.9498 338.2649,-236.7312"/>
</g>
<!-- Node18 -->
<g id="node19" class="node">
<title>Node18</title>
<g id="a_node19"><a xlink:href="classumontreal_1_1ssj_1_1rng_1_1F2NL607.html" target="_top" xlink:title="Implements the RandomStream interface by using as a backbone generator the combination of the WELL607...">
<polygon fill="none" stroke="#000000" points="561.5,-38.5 561.5,-57.5 617.5,-57.5 617.5,-38.5 561.5,-38.5"/>
<text text-anchor="middle" x="589.5" y="-45.5" font-family="Helvetica,sans-Serif" font-size="10.00" fill="#000000">F2NL607</text>
</a>
</g>
</g>
<!-- Node17&#45;&gt;Node18 -->
<g id="edge18" class="edge">
<title>Node17&#45;&gt;Node18</title>
<path fill="none" stroke="#191970" d="M526.0115,-37.372C538.0849,-39.3931 550.571,-41.4832 561.2421,-43.2696"/>
<polygon fill="#191970" stroke="#191970" points="526.4565,-33.8978 516.0159,-35.6987 525.3007,-40.8018 526.4565,-33.8978"/>
</g>
<!-- Node19 -->
<g id="node20" class="node">
<title>Node19</title>
<g id="a_node20"><a xlink:href="classumontreal_1_1ssj_1_1rng_1_1WELL607.html" target="_top" xlink:title="This class implements the RandomStream interface via inheritance from RandomStreamBase. ">
<polygon fill="none" stroke="#000000" points="560,-.5 560,-19.5 619,-19.5 619,-.5 560,-.5"/>
<text text-anchor="middle" x="589.5" y="-7.5" font-family="Helvetica,sans-Serif" font-size="10.00" fill="#000000">WELL607</text>
</a>
</g>
</g>
<!-- Node17&#45;&gt;Node19 -->
<g id="edge19" class="edge">
<title>Node17&#45;&gt;Node19</title>
<path fill="none" stroke="#191970" d="M526.0146,-20.6275C537.5587,-18.695 549.4799,-16.6994 559.8309,-14.9666"/>
<polygon fill="#191970" stroke="#191970" points="525.3007,-17.1982 516.0159,-22.3013 526.4565,-24.1022 525.3007,-17.1982"/>
</g>
</g>
</svg>
