<?xml version="1.0" encoding="UTF-8" standalone="no"?>
<!DOCTYPE svg PUBLIC "-//W3C//DTD SVG 1.1//EN"
 "http://www.w3.org/Graphics/SVG/1.1/DTD/svg11.dtd">
<!-- Generated by graphviz version 2.40.1 (0)
 -->
<!-- Title: MonteCarloModelDoubleArray Pages: 1 -->
<svg width="322pt" height="218pt"
 viewBox="0.00 0.00 322.00 218.00" xmlns="http://www.w3.org/2000/svg" xmlns:xlink="http://www.w3.org/1999/xlink">
<g id="graph0" class="graph" transform="scale(1 1) rotate(0) translate(4 214)">
<title>MonteCarloModelDoubleArray</title>
<!-- Node0 -->
<g id="node1" class="node">
<title>Node0</title>
<g id="a_node1"><a xlink:title="Similar to MonteCarloModelDouble except that the returned performance is an array of real numbers.">
<polygon fill="#bfbfbf" stroke="#000000" points="0,-95.5 0,-114.5 147,-114.5 147,-95.5 0,-95.5"/>
<text text-anchor="middle" x="73.5" y="-102.5" font-family="Helvetica,sans-Serif" font-size="10.00" fill="#000000">MonteCarloModelDoubleArray</text>
</a>
</g>
</g>
<!-- Node1 -->
<g id="node2" class="node">
<title>Node1</title>
<g id="a_node2"><a xlink:href="classumontreal_1_1ssj_1_1mcqmctools_1_1florian_1_1examples_1_1BucklingStrengthVars.html" target="_top" xlink:title=" ">
<polygon fill="none" stroke="#000000" points="193.5,-190.5 193.5,-209.5 303.5,-209.5 303.5,-190.5 193.5,-190.5"/>
<text text-anchor="middle" x="248.5" y="-197.5" font-family="Helvetica,sans-Serif" font-size="10.00" fill="#000000">BucklingStrengthVars</text>
</a>
</g>
</g>
<!-- Node0&#45;&gt;Node1 -->
<g id="edge1" class="edge">
<title>Node0&#45;&gt;Node1</title>
<path fill="none" stroke="#191970" d="M92.3504,-120.9578C113.2821,-137.9642 148.6634,-164.6446 183,-181 190.8034,-184.717 199.4825,-187.859 207.9033,-190.4519"/>
<polygon fill="#191970" stroke="#191970" points="94.5029,-118.1962 84.562,-114.5316 90.0479,-123.5956 94.5029,-118.1962"/>
</g>
<!-- Node2 -->
<g id="node3" class="node">
<title>Node2</title>
<g id="a_node3"><a xlink:href="classumontreal_1_1ssj_1_1mcqmctools_1_1florian_1_1examples_1_1LookbackOptionGBMVars.html" target="_top" xlink:title="Class to generate several random variates involved in the estimation of the current value of a Lookba...">
<polygon fill="none" stroke="#000000" points="184,-152.5 184,-171.5 313,-171.5 313,-152.5 184,-152.5"/>
<text text-anchor="middle" x="248.5" y="-159.5" font-family="Helvetica,sans-Serif" font-size="10.00" fill="#000000">LookbackOptionGBMVars</text>
</a>
</g>
</g>
<!-- Node0&#45;&gt;Node2 -->
<g id="edge2" class="edge">
<title>Node0&#45;&gt;Node2</title>
<path fill="none" stroke="#191970" d="M109.5298,-118.0294C130.8125,-125.5939 158.3359,-135.1489 183,-143 193.1542,-146.2323 204.2643,-149.5402 214.4031,-152.4711"/>
<polygon fill="#191970" stroke="#191970" points="110.5185,-114.6661 99.9238,-114.5998 108.1648,-121.2585 110.5185,-114.6661"/>
</g>
<!-- Node3 -->
<g id="node4" class="node">
<title>Node3</title>
<g id="a_node4"><a xlink:href="classumontreal_1_1ssj_1_1mcqmctools_1_1florian_1_1examples_1_1MultiNormalIndependent.html" target="_top" xlink:title="Class, that generates an of independent normal variables.This is frequently used for density estimati...">
<polygon fill="none" stroke="#000000" points="187.5,-114.5 187.5,-133.5 309.5,-133.5 309.5,-114.5 187.5,-114.5"/>
<text text-anchor="middle" x="248.5" y="-121.5" font-family="Helvetica,sans-Serif" font-size="10.00" fill="#000000">MultiNormalIndependent</text>
</a>
</g>
</g>
<!-- Node0&#45;&gt;Node3 -->
<g id="edge3" class="edge">
<title>Node0&#45;&gt;Node3</title>
<path fill="none" stroke="#191970" d="M157.2892,-114.0971C167.4121,-115.1962 177.6013,-116.3024 187.3137,-117.3569"/>
<polygon fill="#191970" stroke="#191970" points="157.5279,-110.6025 147.2086,-113.0026 156.7723,-117.5617 157.5279,-110.6025"/>
</g>
<!-- Node4 -->
<g id="node5" class="node">
<title>Node4</title>
<g id="a_node5"><a xlink:href="classumontreal_1_1ssj_1_1mcqmctools_1_1florian_1_1examples_1_1San13Vars.html" target="_top" xlink:title="With this class one can generate several random variates involved in the estimation of the longest pa...">
<polygon fill="none" stroke="#000000" points="216.5,-76.5 216.5,-95.5 280.5,-95.5 280.5,-76.5 216.5,-76.5"/>
<text text-anchor="middle" x="248.5" y="-83.5" font-family="Helvetica,sans-Serif" font-size="10.00" fill="#000000">San13Vars</text>
</a>
</g>
</g>
<!-- Node0&#45;&gt;Node4 -->
<g id="edge4" class="edge">
<title>Node0&#45;&gt;Node4</title>
<path fill="none" stroke="#191970" d="M157.1543,-95.9175C178.1753,-93.6353 199.4928,-91.3208 216.2414,-89.5024"/>
<polygon fill="#191970" stroke="#191970" points="156.7723,-92.4383 147.2086,-96.9974 157.5279,-99.3974 156.7723,-92.4383"/>
</g>
<!-- Node5 -->
<g id="node6" class="node">
<title>Node5</title>
<g id="a_node6"><a xlink:href="classumontreal_1_1ssj_1_1mcqmctools_1_1florian_1_1examples_1_1San13VarsCDE.html" target="_top" xlink:title="With this class one can generate several random variates involved in the estimation of the longest pa...">
<polygon fill="none" stroke="#000000" points="205.5,-38.5 205.5,-57.5 291.5,-57.5 291.5,-38.5 205.5,-38.5"/>
<text text-anchor="middle" x="248.5" y="-45.5" font-family="Helvetica,sans-Serif" font-size="10.00" fill="#000000">San13VarsCDE</text>
</a>
</g>
</g>
<!-- Node0&#45;&gt;Node5 -->
<g id="edge5" class="edge">
<title>Node0&#45;&gt;Node5</title>
<path fill="none" stroke="#191970" d="M109.5298,-91.9706C130.8125,-84.4061 158.3359,-74.8511 183,-67 193.1542,-63.7677 204.2643,-60.4598 214.4031,-57.5289"/>
<polygon fill="#191970" stroke="#191970" points="108.1648,-88.7415 99.9238,-95.4002 110.5185,-95.3339 108.1648,-88.7415"/>
</g>
<!-- Node6 -->
<g id="node7" class="node">
<title>Node6</title>
<g id="a_node7"><a xlink:href="classumontreal_1_1ssj_1_1mcqmctools_1_1florian_1_1examples_1_1ShortColumnFunctionVars.html" target="_top" xlink:title="This class can be used to generate the random variables &#160;that are used in the so&#45;called short column ...">
<polygon fill="none" stroke="#000000" points="183,-.5 183,-19.5 314,-19.5 314,-.5 183,-.5"/>
<text text-anchor="middle" x="248.5" y="-7.5" font-family="Helvetica,sans-Serif" font-size="10.00" fill="#000000">ShortColumnFunctionVars</text>
</a>
</g>
</g>
<!-- Node0&#45;&gt;Node6 -->
<g id="edge6" class="edge">
<title>Node0&#45;&gt;Node6</title>
<path fill="none" stroke="#191970" d="M92.3504,-89.0422C113.2821,-72.0358 148.6634,-45.3554 183,-29 190.8034,-25.283 199.4825,-22.141 207.9033,-19.5481"/>
<polygon fill="#191970" stroke="#191970" points="90.0479,-86.4044 84.562,-95.4684 94.5029,-91.8038 90.0479,-86.4044"/>
</g>
</g>
</svg>
