<?xml version="1.0" encoding="UTF-8" standalone="no"?>
<!DOCTYPE svg PUBLIC "-//W3C//DTD SVG 1.1//EN"
 "http://www.w3.org/Graphics/SVG/1.1/DTD/svg11.dtd">
<!-- Generated by graphviz version 2.40.1 (20161225.0304)
 -->
<!-- Title: RandomSampler Pages: 1 -->
<svg width="215pt" height="196pt"
 viewBox="0.00 0.00 214.50 196.00" xmlns="http://www.w3.org/2000/svg" xmlns:xlink="http://www.w3.org/1999/xlink">
<g id="graph0" class="graph" transform="scale(1 1) rotate(0) translate(4 192)">
<title>RandomSampler</title>
<!-- Node0 -->
<g id="node1" class="node">
<title>Node0</title>
<polygon fill="#bfbfbf" stroke="#000000" points="64.5,-112.5 64.5,-131.5 153.5,-131.5 153.5,-112.5 64.5,-112.5"/>
<text text-anchor="middle" x="109" y="-119.5" font-family="Helvetica,sans-Serif" font-size="10.00" fill="#000000">RandomSampler</text>
</g>
<!-- Node2 -->
<g id="node3" class="node">
<title>Node2</title>
<g id="a_node3"><a xlink:href="classumontreal_1_1ssj_1_1mcqmctools_1_1anova_1_1MonteCarloSampler.html" target="_top" xlink:title="Monte Carlo sampler. ">
<polygon fill="none" stroke="#000000" points="2.5,-56.5 2.5,-75.5 105.5,-75.5 105.5,-56.5 2.5,-56.5"/>
<text text-anchor="middle" x="54" y="-63.5" font-family="Helvetica,sans-Serif" font-size="10.00" fill="#000000">MonteCarloSampler</text>
</a>
</g>
</g>
<!-- Node0&#45;&gt;Node2 -->
<g id="edge2" class="edge">
<title>Node0&#45;&gt;Node2</title>
<path fill="none" stroke="#191970" d="M92.3774,-105.0751C82.9145,-95.4402 71.4031,-83.7196 63.4705,-75.6427"/>
<polygon fill="#191970" stroke="#191970" points="89.9155,-107.5635 99.4197,-112.2455 94.9097,-102.6585 89.9155,-107.5635"/>
</g>
<!-- Node4 -->
<g id="node5" class="node">
<title>Node4</title>
<g id="a_node5"><a xlink:href="classumontreal_1_1ssj_1_1mcqmctools_1_1anova_1_1RQMCSampler.html" target="_top" xlink:title="QMC sampler. ">
<polygon fill="none" stroke="#000000" points="123.5,-56.5 123.5,-75.5 206.5,-75.5 206.5,-56.5 123.5,-56.5"/>
<text text-anchor="middle" x="165" y="-63.5" font-family="Helvetica,sans-Serif" font-size="10.00" fill="#000000">RQMCSampler</text>
</a>
</g>
</g>
<!-- Node0&#45;&gt;Node4 -->
<g id="edge4" class="edge">
<title>Node0&#45;&gt;Node4</title>
<path fill="none" stroke="#191970" d="M125.9249,-105.0751C135.5598,-95.4402 147.2804,-83.7196 155.3573,-75.6427"/>
<polygon fill="#191970" stroke="#191970" points="123.3507,-102.6996 118.7545,-112.2455 128.3004,-107.6493 123.3507,-102.6996"/>
</g>
<!-- Node1 -->
<g id="node2" class="node">
<title>Node1</title>
<g id="a_node2"><a xlink:href="interfaceumontreal_1_1ssj_1_1mcqmctools_1_1anova_1_1Sampler.html" target="_top" xlink:title="Sampler">
<polygon fill="none" stroke="#000000" points="82.5,-168.5 82.5,-187.5 135.5,-187.5 135.5,-168.5 82.5,-168.5"/>
<text text-anchor="middle" x="109" y="-175.5" font-family="Helvetica,sans-Serif" font-size="10.00" fill="#000000">Sampler</text>
</a>
</g>
</g>
<!-- Node1&#45;&gt;Node0 -->
<g id="edge1" class="edge">
<title>Node1&#45;&gt;Node0</title>
<path fill="none" stroke="#191970" d="M109,-158.1575C109,-149.155 109,-138.9199 109,-131.6427"/>
<polygon fill="#191970" stroke="#191970" points="105.5001,-158.2455 109,-168.2455 112.5001,-158.2456 105.5001,-158.2455"/>
</g>
<!-- Node3 -->
<g id="node4" class="node">
<title>Node3</title>
<g id="a_node4"><a xlink:href="classumontreal_1_1ssj_1_1mcqmctools_1_1anova_1_1MonteCarloIntegrator.html" target="_top" xlink:title="MonteCarloIntegrator">
<polygon fill="none" stroke="#000000" points="0,-.5 0,-19.5 108,-19.5 108,-.5 0,-.5"/>
<text text-anchor="middle" x="54" y="-7.5" font-family="Helvetica,sans-Serif" font-size="10.00" fill="#000000">MonteCarloIntegrator</text>
</a>
</g>
</g>
<!-- Node2&#45;&gt;Node3 -->
<g id="edge3" class="edge">
<title>Node2&#45;&gt;Node3</title>
<path fill="none" stroke="#191970" d="M54,-46.1575C54,-37.155 54,-26.9199 54,-19.6427"/>
<polygon fill="#191970" stroke="#191970" points="50.5001,-46.2455 54,-56.2455 57.5001,-46.2456 50.5001,-46.2455"/>
</g>
</g>
</svg>
