<?xml version="1.0" encoding="UTF-8" standalone="no"?>
<!DOCTYPE svg PUBLIC "-//W3C//DTD SVG 1.1//EN"
 "http://www.w3.org/Graphics/SVG/1.1/DTD/svg11.dtd">
<!-- Generated by graphviz version 2.40.1 (20161225.0304)
 -->
<!-- Title: MonteCarloModelDouble Pages: 1 -->
<svg width="631pt" height="575pt"
 viewBox="0.00 0.00 631.00 575.00" xmlns="http://www.w3.org/2000/svg" xmlns:xlink="http://www.w3.org/1999/xlink">
<g id="graph0" class="graph" transform="scale(1 1) rotate(0) translate(4 571)">
<title>MonteCarloModelDouble</title>
<!-- Node0 -->
<g id="node1" class="node">
<title>Node0</title>
<polygon fill="#bfbfbf" stroke="#000000" points="0,-247.5 0,-266.5 124,-266.5 124,-247.5 0,-247.5"/>
<text text-anchor="middle" x="62" y="-254.5" font-family="Helvetica,sans-Serif" font-size="10.00" fill="#000000">MonteCarloModelDouble</text>
</g>
<!-- Node1 -->
<g id="node2" class="node">
<title>Node1</title>
<g id="a_node2"><a xlink:href="classift6561examples_1_1AsianOption.html" target="_top" xlink:title="This class represents an Asian average price call option with European exercise type. ">
<polygon fill="none" stroke="#000000" points="204,-266.5 204,-285.5 274,-285.5 274,-266.5 204,-266.5"/>
<text text-anchor="middle" x="239" y="-273.5" font-family="Helvetica,sans-Serif" font-size="10.00" fill="#000000">AsianOption</text>
</a>
</g>
</g>
<!-- Node0&#45;&gt;Node1 -->
<g id="edge1" class="edge">
<title>Node0&#45;&gt;Node1</title>
<path fill="none" stroke="#191970" d="M134.5478,-264.7876C158.4978,-267.3585 184.0597,-270.1025 203.9016,-272.2324"/>
<polygon fill="#191970" stroke="#191970" points="134.72,-261.2861 124.4036,-263.6987 133.9729,-268.2461 134.72,-261.2861"/>
</g>
<!-- Node4 -->
<g id="node5" class="node">
<title>Node4</title>
<g id="a_node5"><a xlink:href="classift6561examples_1_1CallableBond.html" target="_top" xlink:title="Estimates the value of a callable bond. ">
<polygon fill="none" stroke="#000000" points="202,-509.5 202,-528.5 276,-528.5 276,-509.5 202,-509.5"/>
<text text-anchor="middle" x="239" y="-516.5" font-family="Helvetica,sans-Serif" font-size="10.00" fill="#000000">CallableBond</text>
</a>
</g>
</g>
<!-- Node0&#45;&gt;Node4 -->
<g id="edge4" class="edge">
<title>Node0&#45;&gt;Node4</title>
<path fill="none" stroke="#191970" d="M67.2654,-276.4727C78.698,-315.9076 108.9511,-406.5083 160,-466 176.4554,-485.177 201.4597,-500.3627 218.9166,-509.4781"/>
<polygon fill="#191970" stroke="#191970" points="70.6148,-275.4542 64.5382,-266.7752 63.8762,-277.3493 70.6148,-275.4542"/>
</g>
<!-- Node7 -->
<g id="node8" class="node">
<title>Node7</title>
<g id="a_node8"><a xlink:href="classift6561examples_1_1OldAsianGBM.html" target="_top" xlink:title="OldAsianGBM">
<polygon fill="none" stroke="#000000" points="199.5,-380.5 199.5,-399.5 278.5,-399.5 278.5,-380.5 199.5,-380.5"/>
<text text-anchor="middle" x="239" y="-387.5" font-family="Helvetica,sans-Serif" font-size="10.00" fill="#000000">OldAsianGBM</text>
</a>
</g>
</g>
<!-- Node0&#45;&gt;Node7 -->
<g id="edge7" class="edge">
<title>Node0&#45;&gt;Node7</title>
<path fill="none" stroke="#191970" d="M72.6469,-275.4562C88.3796,-301.0094 120.3035,-346.7505 160,-371 171.7972,-378.2066 186.1393,-382.68 199.349,-385.4567"/>
<polygon fill="#191970" stroke="#191970" points="75.5672,-273.5202 67.4276,-266.7381 69.5613,-277.1158 75.5672,-273.5202"/>
</g>
<!-- Node8 -->
<g id="node9" class="node">
<title>Node8</title>
<g id="a_node9"><a xlink:href="classift6561examples_1_1San13connect.html" target="_top" xlink:title="This class simulates a specific stochastic activity network with 9 nodes and 13 links, taken from Elmaghraby (1977) and used again in L&#39;Ecuyer and Lemieux (2000), &quot;Variance Reduction via Lattice Rules&quot;. ">
<polygon fill="none" stroke="#000000" points="199.5,-437.5 199.5,-456.5 278.5,-456.5 278.5,-437.5 199.5,-437.5"/>
<text text-anchor="middle" x="239" y="-444.5" font-family="Helvetica,sans-Serif" font-size="10.00" fill="#000000">San13connect</text>
</a>
</g>
</g>
<!-- Node0&#45;&gt;Node8 -->
<g id="edge8" class="edge">
<title>Node0&#45;&gt;Node8</title>
<path fill="none" stroke="#191970" d="M70.1598,-276.2216C84.3317,-307.6391 116.2245,-370.3545 160,-409 174.376,-421.6913 193.7383,-431.095 209.6959,-437.373"/>
<polygon fill="#191970" stroke="#191970" points="73.2679,-274.5946 66.0414,-266.8468 66.8591,-277.41 73.2679,-274.5946"/>
</g>
<!-- Node10 -->
<g id="node11" class="node">
<title>Node10</title>
<g id="a_node11"><a xlink:href="classift6561examples_1_1San13Dist.html" target="_top" xlink:title="This class simulates a specific stochastic activity network with 9 nodes and 13 links, taken from Elmaghraby (1977) and used again in L&#39;Ecuyer and Lemieux (2000), &quot;Variance Reduction via Lattice Rules&quot;. ">
<polygon fill="none" stroke="#000000" points="208,-342.5 208,-361.5 270,-361.5 270,-342.5 208,-342.5"/>
<text text-anchor="middle" x="239" y="-349.5" font-family="Helvetica,sans-Serif" font-size="10.00" fill="#000000">San13Dist</text>
</a>
</g>
</g>
<!-- Node0&#45;&gt;Node10 -->
<g id="edge10" class="edge">
<title>Node0&#45;&gt;Node10</title>
<path fill="none" stroke="#191970" d="M86.1705,-273.0992C104.8881,-288.4899 132.2307,-310.6603 160,-324 179.073,-333.1622 202.9173,-338.1106 219.3934,-342.4481"/>
<polygon fill="#191970" stroke="#191970" points="88.1566,-270.2013 78.2068,-266.5609 83.7147,-275.6115 88.1566,-270.2013"/>
</g>
<!-- Node0&#45;&gt;Node10 -->
<g id="edge26" class="edge">
<title>Node0&#45;&gt;Node10</title>
<path fill="none" stroke="#191970" d="M73.4749,-274.4692C90.7134,-294.3775 125.0181,-325.1955 160,-342 175.0041,-349.2076 192.9609,-353.8075 207.9606,-355.791"/>
<polygon fill="#191970" stroke="#191970" points="76.1868,-272.2564 67.1796,-266.6777 70.7419,-276.6557 76.1868,-272.2564"/>
</g>
<!-- Node12 -->
<g id="node13" class="node">
<title>Node12</title>
<g id="a_node13"><a xlink:href="classift6561examples_1_1San13Prob.html" target="_top" xlink:title="This class simulates a specific stochastic activity network with 9 nodes and 13 links, taken from Elmaghraby (1977) and used again in L&#39;Ecuyer and Lemieux (2000), &quot;Variance Reduction via Lattice Rules&quot;. ">
<polygon fill="none" stroke="#000000" points="206.5,-304.5 206.5,-323.5 271.5,-323.5 271.5,-304.5 206.5,-304.5"/>
<text text-anchor="middle" x="239" y="-311.5" font-family="Helvetica,sans-Serif" font-size="10.00" fill="#000000">San13Prob</text>
</a>
</g>
</g>
<!-- Node0&#45;&gt;Node12 -->
<g id="edge12" class="edge">
<title>Node0&#45;&gt;Node12</title>
<path fill="none" stroke="#191970" d="M93.6441,-270.5127C112.6556,-278.3175 137.4558,-287.9529 160,-295 175.0796,-299.7137 192.0856,-303.9396 206.4461,-307.2024"/>
<polygon fill="#191970" stroke="#191970" points="94.8502,-267.2239 84.2725,-266.6216 92.1659,-273.6887 94.8502,-267.2239"/>
</g>
<!-- Node18 -->
<g id="node19" class="node">
<title>Node18</title>
<g id="a_node19"><a xlink:href="classift6561examples_1_1TestOptionVGIS2017_1_1OptionVG1.html" target="_top" xlink:title="TestOptionVGIS2017.OptionVG1">
<polygon fill="none" stroke="#000000" points="160,-190.5 160,-209.5 318,-209.5 318,-190.5 160,-190.5"/>
<text text-anchor="middle" x="239" y="-197.5" font-family="Helvetica,sans-Serif" font-size="10.00" fill="#000000">TestOptionVGIS2017.OptionVG1</text>
</a>
</g>
</g>
<!-- Node0&#45;&gt;Node18 -->
<g id="edge18" class="edge">
<title>Node0&#45;&gt;Node18</title>
<path fill="none" stroke="#191970" d="M93.6441,-243.4873C112.6556,-235.6825 137.4558,-226.0471 160,-219 171.175,-215.5068 183.4081,-212.2815 194.8384,-209.5176"/>
<polygon fill="#191970" stroke="#191970" points="92.1659,-240.3113 84.2725,-247.3784 94.8502,-246.7761 92.1659,-240.3113"/>
</g>
<!-- Node21 -->
<g id="node22" class="node">
<title>Node21</title>
<g id="a_node22"><a xlink:href="classift6561examples_1_1TestOptionVGIS_1_1OptionVG1.html" target="_top" xlink:title="TestOptionVGIS.OptionVG1">
<polygon fill="none" stroke="#000000" points="170.5,-38.5 170.5,-57.5 307.5,-57.5 307.5,-38.5 170.5,-38.5"/>
<text text-anchor="middle" x="239" y="-45.5" font-family="Helvetica,sans-Serif" font-size="10.00" fill="#000000">TestOptionVGIS.OptionVG1</text>
</a>
</g>
</g>
<!-- Node0&#45;&gt;Node21 -->
<g id="edge21" class="edge">
<title>Node0&#45;&gt;Node21</title>
<path fill="none" stroke="#191970" d="M66.3761,-237.2521C76.0667,-198.3307 103.1268,-111.6255 160,-67 164.883,-63.1685 170.4213,-60.0928 176.2452,-57.6263"/>
<polygon fill="#191970" stroke="#191970" points="62.8965,-236.7579 64.0021,-247.2949 69.7088,-238.3682 62.8965,-236.7579"/>
</g>
<!-- Node24 -->
<g id="node25" class="node">
<title>Node24</title>
<g id="a_node25"><a xlink:href="classtutorial_1_1AsianNew.html" target="_top" xlink:title="AsianNew">
<polygon fill="none" stroke="#000000" points="208,-152.5 208,-171.5 270,-171.5 270,-152.5 208,-152.5"/>
<text text-anchor="middle" x="239" y="-159.5" font-family="Helvetica,sans-Serif" font-size="10.00" fill="#000000">AsianNew</text>
</a>
</g>
</g>
<!-- Node0&#45;&gt;Node24 -->
<g id="edge24" class="edge">
<title>Node0&#45;&gt;Node24</title>
<path fill="none" stroke="#191970" d="M78.6201,-240.458C96.9936,-223.103 128.2173,-196.2677 160,-181 175.0041,-173.7924 192.9609,-169.1925 207.9606,-166.3277"/>
<polygon fill="#191970" stroke="#191970" points="76.1159,-238.0107 71.3473,-247.4718 80.9751,-243.0494 76.1159,-238.0107"/>
</g>
<!-- Node25 -->
<g id="node26" class="node">
<title>Node25</title>
<g id="a_node26"><a xlink:href="classtutorial_1_1NewTestAsianRQMC.html" target="_top" xlink:title="NewTestAsianRQMC">
<polygon fill="none" stroke="#000000" points="183.5,-114.5 183.5,-133.5 294.5,-133.5 294.5,-114.5 183.5,-114.5"/>
<text text-anchor="middle" x="239" y="-121.5" font-family="Helvetica,sans-Serif" font-size="10.00" fill="#000000">NewTestAsianRQMC</text>
</a>
</g>
</g>
<!-- Node0&#45;&gt;Node25 -->
<g id="edge25" class="edge">
<title>Node0&#45;&gt;Node25</title>
<path fill="none" stroke="#191970" d="M72.6469,-238.5438C88.3796,-212.9906 120.3035,-167.2495 160,-143 167.1024,-138.6613 175.1272,-135.3133 183.272,-132.7298"/>
<polygon fill="#191970" stroke="#191970" points="69.5613,-236.8842 67.4276,-247.2619 75.5672,-240.4798 69.5613,-236.8842"/>
</g>
<!-- Node26 -->
<g id="node27" class="node">
<title>Node26</title>
<g id="a_node27"><a xlink:href="interfaceumontreal_1_1ssj_1_1mcqmctools_1_1anova_1_1MonteCarloModelDoubleRQMC.html" target="_top" xlink:title="An interface for a simple simulation model for which Monte Carlo (MC) or RQMC experiments are to be p...">
<polygon fill="none" stroke="#000000" points="161.5,-76.5 161.5,-95.5 316.5,-95.5 316.5,-76.5 161.5,-76.5"/>
<text text-anchor="middle" x="239" y="-83.5" font-family="Helvetica,sans-Serif" font-size="10.00" fill="#000000">MonteCarloModelDoubleRQMC</text>
</a>
</g>
</g>
<!-- Node0&#45;&gt;Node26 -->
<g id="edge27" class="edge">
<title>Node0&#45;&gt;Node26</title>
<path fill="none" stroke="#191970" d="M68.926,-237.6355C81.6455,-204.9616 111.9159,-139.1159 160,-105 165.4072,-101.1635 171.4918,-98.0953 177.8228,-95.6426"/>
<polygon fill="#191970" stroke="#191970" points="65.517,-236.7585 65.2849,-247.3508 72.0718,-239.2151 65.517,-236.7585"/>
</g>
<!-- Node27 -->
<g id="node28" class="node">
<title>Node27</title>
<g id="a_node28"><a xlink:href="interfaceumontreal_1_1ssj_1_1mcqmctools_1_1MonteCarloModelCV.html" target="_top" xlink:title="An MonteCarloModelDouble that also implements a vector of control variates. ">
<polygon fill="none" stroke="#000000" points="185.5,-228.5 185.5,-247.5 292.5,-247.5 292.5,-228.5 185.5,-228.5"/>
<text text-anchor="middle" x="239" y="-235.5" font-family="Helvetica,sans-Serif" font-size="10.00" fill="#000000">MonteCarloModelCV</text>
</a>
</g>
</g>
<!-- Node0&#45;&gt;Node27 -->
<g id="edge28" class="edge">
<title>Node0&#45;&gt;Node27</title>
<path fill="none" stroke="#191970" d="M134.816,-249.1836C151.74,-247.3669 169.4545,-245.4653 185.3763,-243.7562"/>
<polygon fill="#191970" stroke="#191970" points="133.9729,-245.7539 124.4036,-250.3013 134.72,-252.7139 133.9729,-245.7539"/>
</g>
<!-- Node28 -->
<g id="node29" class="node">
<title>Node28</title>
<g id="a_node29"><a xlink:href="interfaceumontreal_1_1ssj_1_1mcqmctools_1_1MonteCarloModelDensityKnown.html" target="_top" xlink:title="An interface for a simulation model for which Monte Carlo (MC) and RQMC experiments are to be perform...">
<polygon fill="none" stroke="#000000" points="160.5,-.5 160.5,-19.5 317.5,-19.5 317.5,-.5 160.5,-.5"/>
<text text-anchor="middle" x="239" y="-7.5" font-family="Helvetica,sans-Serif" font-size="10.00" fill="#000000">MonteCarloModelDensityKnown</text>
</a>
</g>
</g>
<!-- Node0&#45;&gt;Node28 -->
<g id="edge30" class="edge">
<title>Node0&#45;&gt;Node28</title>
<path fill="none" stroke="#191970" d="M64.504,-237.3774C71.2388,-193.0456 93.9389,-84.6916 160,-29 164.5298,-25.1812 169.6996,-22.1041 175.1776,-19.628"/>
<polygon fill="#191970" stroke="#191970" points="61.0182,-237.0318 63.09,-247.4221 67.9498,-238.0076 61.0182,-237.0318"/>
</g>
<!-- Node2 -->
<g id="node3" class="node">
<title>Node2</title>
<g id="a_node3"><a xlink:href="classift6561examples_1_1AsianOptionGBMCV.html" target="_top" xlink:title="This class represents an Asian Option based on a geometric Brownian motion, for which we use the payo...">
<polygon fill="none" stroke="#000000" points="374.5,-205.5 374.5,-224.5 480.5,-224.5 480.5,-205.5 374.5,-205.5"/>
<text text-anchor="middle" x="427.5" y="-212.5" font-family="Helvetica,sans-Serif" font-size="10.00" fill="#000000">AsianOptionGBMCV</text>
</a>
</g>
</g>
<!-- Node1&#45;&gt;Node2 -->
<g id="edge2" class="edge">
<title>Node1&#45;&gt;Node2</title>
<path fill="none" stroke="#191970" d="M283.8116,-267.9524C295.205,-265.1716 307.2578,-261.5706 318,-257 335.471,-249.5665 336.5926,-241.5812 354,-234 362.5794,-230.2635 372.0535,-227.1382 381.2661,-224.5723"/>
<polygon fill="#191970" stroke="#191970" points="282.9883,-264.5502 274.0184,-270.1887 284.5467,-271.3746 282.9883,-264.5502"/>
</g>
<!-- Node3 -->
<g id="node4" class="node">
<title>Node3</title>
<g id="a_node4"><a xlink:href="classift6561examples_1_1OldAsianRQMC.html" target="_top" xlink:title="OldAsianRQMC">
<polygon fill="none" stroke="#000000" points="384,-243.5 384,-262.5 471,-262.5 471,-243.5 384,-243.5"/>
<text text-anchor="middle" x="427.5" y="-250.5" font-family="Helvetica,sans-Serif" font-size="10.00" fill="#000000">OldAsianRQMC</text>
</a>
</g>
</g>
<!-- Node1&#45;&gt;Node3 -->
<g id="edge3" class="edge">
<title>Node1&#45;&gt;Node3</title>
<path fill="none" stroke="#191970" d="M284.2652,-270.4769C314.4283,-266.7965 353.8614,-261.9851 383.7147,-258.3425"/>
<polygon fill="#191970" stroke="#191970" points="283.5161,-267.0423 274.0136,-271.7278 284.364,-273.9908 283.5161,-267.0423"/>
</g>
<!-- Node5 -->
<g id="node6" class="node">
<title>Node5</title>
<g id="a_node6"><a xlink:href="classift6561examples_1_1CallableBondCMC.html" target="_top" xlink:title="Estimates the value of a callable bond where the coupons are paid at the same time as in...">
<polygon fill="none" stroke="#000000" points="378.5,-547.5 378.5,-566.5 476.5,-566.5 476.5,-547.5 378.5,-547.5"/>
<text text-anchor="middle" x="427.5" y="-554.5" font-family="Helvetica,sans-Serif" font-size="10.00" fill="#000000">CallableBondCMC</text>
</a>
</g>
</g>
<!-- Node4&#45;&gt;Node5 -->
<g id="edge5" class="edge">
<title>Node4&#45;&gt;Node5</title>
<path fill="none" stroke="#191970" d="M286.0606,-528.487C314.8256,-534.2858 351.4941,-541.6779 380.2869,-547.4822"/>
<polygon fill="#191970" stroke="#191970" points="286.736,-525.0528 276.2415,-526.5076 285.3526,-531.9148 286.736,-525.0528"/>
</g>
<!-- Node6 -->
<g id="node7" class="node">
<title>Node6</title>
<g id="a_node7"><a xlink:href="classift6561examples_1_1CallableBondCV.html" target="_top" xlink:title="Estimates the value of a callable bond using the uncallable bond as a control variate. ">
<polygon fill="none" stroke="#000000" points="383.5,-509.5 383.5,-528.5 471.5,-528.5 471.5,-509.5 383.5,-509.5"/>
<text text-anchor="middle" x="427.5" y="-516.5" font-family="Helvetica,sans-Serif" font-size="10.00" fill="#000000">CallableBondCV</text>
</a>
</g>
</g>
<!-- Node4&#45;&gt;Node6 -->
<g id="edge6" class="edge">
<title>Node4&#45;&gt;Node6</title>
<path fill="none" stroke="#191970" d="M286.3903,-519C316.1486,-519 354.2662,-519 383.3814,-519"/>
<polygon fill="#191970" stroke="#191970" points="286.2416,-515.5001 276.2415,-519 286.2415,-522.5001 286.2416,-515.5001"/>
</g>
<!-- Node9 -->
<g id="node10" class="node">
<title>Node9</title>
<g id="a_node10"><a xlink:href="classift6561examples_1_1San13connectCMC1.html" target="_top" xlink:title="This class simulates a specific stochastic activity network with 9 nodes and 13 links, taken from Elmaghraby (1977) and used again in L&#39;Ecuyer and Lemieux (2000), &quot;Variance Reduction via Lattice Rules&quot;. ">
<polygon fill="none" stroke="#000000" points="374,-471.5 374,-490.5 481,-490.5 481,-471.5 374,-471.5"/>
<text text-anchor="middle" x="427.5" y="-478.5" font-family="Helvetica,sans-Serif" font-size="10.00" fill="#000000">San13connectCMC1</text>
</a>
</g>
</g>
<!-- Node8&#45;&gt;Node9 -->
<g id="edge9" class="edge">
<title>Node8&#45;&gt;Node9</title>
<path fill="none" stroke="#191970" d="M288.3719,-455.9053C314.9467,-460.6986 347.7313,-466.612 374.7994,-471.4943"/>
<polygon fill="#191970" stroke="#191970" points="288.9783,-452.4582 278.5158,-454.1275 287.7357,-459.3471 288.9783,-452.4582"/>
</g>
<!-- Node11 -->
<g id="node12" class="node">
<title>Node11</title>
<g id="a_node12"><a xlink:href="classift6561examples_1_1San13DistCRN.html" target="_top" xlink:title="Here we compute the empirical distribution of the shortest path lengths and we construct a histogram...">
<polygon fill="none" stroke="#000000" points="385,-433.5 385,-452.5 470,-452.5 470,-433.5 385,-433.5"/>
<text text-anchor="middle" x="427.5" y="-440.5" font-family="Helvetica,sans-Serif" font-size="10.00" fill="#000000">San13DistCRN</text>
</a>
</g>
</g>
<!-- Node10&#45;&gt;Node11 -->
<g id="edge11" class="edge">
<title>Node10&#45;&gt;Node11</title>
<path fill="none" stroke="#191970" d="M280.1648,-356.0061C293.1198,-358.7494 306.9229,-363.3389 318,-371 341.42,-387.1978 330.718,-407.6044 354,-424 363.0518,-430.3745 374.0768,-434.6113 384.8056,-437.4271"/>
<polygon fill="#191970" stroke="#191970" points="280.4875,-352.508 270.0252,-354.1784 279.2457,-359.397 280.4875,-352.508"/>
</g>
<!-- Node13 -->
<g id="node14" class="node">
<title>Node13</title>
<g id="a_node14"><a xlink:href="classift6561examples_1_1San13CMC.html" target="_top" xlink:title="San13CMC">
<polygon fill="none" stroke="#000000" points="393.5,-319.5 393.5,-338.5 461.5,-338.5 461.5,-319.5 393.5,-319.5"/>
<text text-anchor="middle" x="427.5" y="-326.5" font-family="Helvetica,sans-Serif" font-size="10.00" fill="#000000">San13CMC</text>
</a>
</g>
</g>
<!-- Node12&#45;&gt;Node13 -->
<g id="edge13" class="edge">
<title>Node12&#45;&gt;Node13</title>
<path fill="none" stroke="#191970" d="M281.8857,-317.4127C315.6861,-320.1023 362.1758,-323.8018 393.4528,-326.2907"/>
<polygon fill="#191970" stroke="#191970" points="282.0804,-313.9172 271.8342,-316.6128 281.525,-320.8951 282.0804,-313.9172"/>
</g>
<!-- Node15 -->
<g id="node16" class="node">
<title>Node15</title>
<g id="a_node16"><a xlink:href="classift6561examples_1_1San13CMCCV.html" target="_top" xlink:title="San13CMCCV">
<polygon fill="none" stroke="#000000" points="387,-281.5 387,-300.5 468,-300.5 468,-281.5 387,-281.5"/>
<text text-anchor="middle" x="427.5" y="-288.5" font-family="Helvetica,sans-Serif" font-size="10.00" fill="#000000">San13CMCCV</text>
</a>
</g>
</g>
<!-- Node12&#45;&gt;Node15 -->
<g id="edge15" class="edge">
<title>Node12&#45;&gt;Node15</title>
<path fill="none" stroke="#191970" d="M282.0563,-308.7464C313.53,-304.9061 355.9381,-299.7317 386.8376,-295.9615"/>
<polygon fill="#191970" stroke="#191970" points="281.3366,-305.3082 271.8342,-309.9937 282.1845,-312.2567 281.3366,-305.3082"/>
</g>
<!-- Node16 -->
<g id="node17" class="node">
<title>Node16</title>
<g id="a_node17"><a xlink:href="classift6561examples_1_1San13CMCgrad1.html" target="_top" xlink:title="San13CMCgrad1">
<polygon fill="none" stroke="#000000" points="381.5,-395.5 381.5,-414.5 473.5,-414.5 473.5,-395.5 381.5,-395.5"/>
<text text-anchor="middle" x="427.5" y="-402.5" font-family="Helvetica,sans-Serif" font-size="10.00" fill="#000000">San13CMCgrad1</text>
</a>
</g>
</g>
<!-- Node12&#45;&gt;Node16 -->
<g id="edge16" class="edge">
<title>Node12&#45;&gt;Node16</title>
<path fill="none" stroke="#191970" d="M281.4522,-318.2843C294.0294,-321.0562 307.2891,-325.5921 318,-333 341.42,-349.1978 330.718,-369.6044 354,-386 362.082,-391.6915 371.737,-395.6789 381.3496,-398.4722"/>
<polygon fill="#191970" stroke="#191970" points="282.0495,-314.8353 271.5736,-316.4183 280.7502,-321.7137 282.0495,-314.8353"/>
</g>
<!-- Node17 -->
<g id="node18" class="node">
<title>Node17</title>
<g id="a_node18"><a xlink:href="classift6561examples_1_1San13CMCgrad2.html" target="_top" xlink:title="San13CMCgrad2">
<polygon fill="none" stroke="#000000" points="381.5,-357.5 381.5,-376.5 473.5,-376.5 473.5,-357.5 381.5,-357.5"/>
<text text-anchor="middle" x="427.5" y="-364.5" font-family="Helvetica,sans-Serif" font-size="10.00" fill="#000000">San13CMCgrad2</text>
</a>
</g>
</g>
<!-- Node12&#45;&gt;Node17 -->
<g id="edge17" class="edge">
<title>Node12&#45;&gt;Node17</title>
<path fill="none" stroke="#191970" d="M281.3706,-322.882C293.3239,-325.74 306.2658,-329.1711 318,-333 334.4783,-338.3769 337.5679,-342.4837 354,-348 364.3705,-351.4814 375.7426,-354.7025 386.3766,-357.4663"/>
<polygon fill="#191970" stroke="#191970" points="282.1427,-319.4682 271.6106,-320.6199 280.5621,-326.2874 282.1427,-319.4682"/>
</g>
<!-- Node14 -->
<g id="node15" class="node">
<title>Node14</title>
<g id="a_node15"><a xlink:href="classift6561examples_1_1San13CMCDist.html" target="_top" xlink:title="Here we compute the empirical distribution of the CMC estimator. ">
<polygon fill="none" stroke="#000000" points="537,-319.5 537,-338.5 623,-338.5 623,-319.5 537,-319.5"/>
<text text-anchor="middle" x="580" y="-326.5" font-family="Helvetica,sans-Serif" font-size="10.00" fill="#000000">San13CMCDist</text>
</a>
</g>
</g>
<!-- Node13&#45;&gt;Node14 -->
<g id="edge14" class="edge">
<title>Node13&#45;&gt;Node14</title>
<path fill="none" stroke="#191970" d="M471.7542,-329C492.2533,-329 516.5213,-329 536.8785,-329"/>
<polygon fill="#191970" stroke="#191970" points="471.724,-325.5001 461.724,-329 471.7239,-332.5001 471.724,-325.5001"/>
</g>
<!-- Node19 -->
<g id="node20" class="node">
<title>Node19</title>
<g id="a_node20"><a xlink:href="classift6561examples_1_1TestOptionVGIS2017_1_1OptionVGIS1.html" target="_top" xlink:title="TestOptionVGIS2017.Option\lVGIS1">
<polygon fill="none" stroke="#000000" points="357.5,-156 357.5,-186 497.5,-186 497.5,-156 357.5,-156"/>
<text text-anchor="start" x="365.5" y="-174" font-family="Helvetica,sans-Serif" font-size="10.00" fill="#000000">TestOptionVGIS2017.Option</text>
<text text-anchor="middle" x="427.5" y="-163" font-family="Helvetica,sans-Serif" font-size="10.00" fill="#000000">VGIS1</text>
</a>
</g>
</g>
<!-- Node18&#45;&gt;Node19 -->
<g id="edge19" class="edge">
<title>Node18&#45;&gt;Node19</title>
<path fill="none" stroke="#191970" d="M311.2918,-188.8782C326.3957,-186.5545 342.2964,-184.1083 357.3221,-181.7966"/>
<polygon fill="#191970" stroke="#191970" points="310.3345,-185.4842 300.983,-190.4641 311.399,-192.4028 310.3345,-185.4842"/>
</g>
<!-- Node20 -->
<g id="node21" class="node">
<title>Node20</title>
<g id="a_node21"><a xlink:href="classift6561examples_1_1TestOptionVGIS2017_1_1OptionVGIS2.html" target="_top" xlink:title="TestOptionVGIS2017.Option\lVGIS2">
<polygon fill="none" stroke="#000000" points="357.5,-107 357.5,-137 497.5,-137 497.5,-107 357.5,-107"/>
<text text-anchor="start" x="365.5" y="-125" font-family="Helvetica,sans-Serif" font-size="10.00" fill="#000000">TestOptionVGIS2017.Option</text>
<text text-anchor="middle" x="427.5" y="-114" font-family="Helvetica,sans-Serif" font-size="10.00" fill="#000000">VGIS2</text>
</a>
</g>
</g>
<!-- Node18&#45;&gt;Node20 -->
<g id="edge20" class="edge">
<title>Node18&#45;&gt;Node20</title>
<path fill="none" stroke="#191970" d="M304.4972,-187.1383C309.1767,-185.3488 313.7285,-183.3138 318,-181 337.3513,-170.5179 335.1503,-158.3593 354,-147 360.2339,-143.2433 367.1082,-139.9591 374.0754,-137.1152"/>
<polygon fill="#191970" stroke="#191970" points="303.0852,-183.9224 294.7615,-190.4773 305.3562,-190.5438 303.0852,-183.9224"/>
</g>
<!-- Node22 -->
<g id="node23" class="node">
<title>Node22</title>
<g id="a_node23"><a xlink:href="classift6561examples_1_1TestOptionVGIS_1_1OptionVGIS1.html" target="_top" xlink:title="TestOptionVGIS.OptionVGIS1">
<polygon fill="none" stroke="#000000" points="354,-61.5 354,-80.5 501,-80.5 501,-61.5 354,-61.5"/>
<text text-anchor="middle" x="427.5" y="-68.5" font-family="Helvetica,sans-Serif" font-size="10.00" fill="#000000">TestOptionVGIS.OptionVGIS1</text>
</a>
</g>
</g>
<!-- Node21&#45;&gt;Node22 -->
<g id="edge22" class="edge">
<title>Node21&#45;&gt;Node22</title>
<path fill="none" stroke="#191970" d="M317.5826,-57.5883C329.6025,-59.0549 341.9721,-60.5642 353.8797,-62.0172"/>
<polygon fill="#191970" stroke="#191970" points="317.9364,-54.1056 307.5861,-56.3686 317.0885,-61.0541 317.9364,-54.1056"/>
</g>
<!-- Node23 -->
<g id="node24" class="node">
<title>Node23</title>
<g id="a_node24"><a xlink:href="classift6561examples_1_1TestOptionVGIS_1_1OptionVGIS2.html" target="_top" xlink:title="TestOptionVGIS.OptionVGIS2">
<polygon fill="none" stroke="#000000" points="354,-23.5 354,-42.5 501,-42.5 501,-23.5 354,-23.5"/>
<text text-anchor="middle" x="427.5" y="-30.5" font-family="Helvetica,sans-Serif" font-size="10.00" fill="#000000">TestOptionVGIS.OptionVGIS2</text>
</a>
</g>
</g>
<!-- Node21&#45;&gt;Node23 -->
<g id="edge23" class="edge">
<title>Node21&#45;&gt;Node23</title>
<path fill="none" stroke="#191970" d="M317.5826,-41.7467C329.6025,-40.7903 341.9721,-39.8059 353.8797,-38.8584"/>
<polygon fill="#191970" stroke="#191970" points="317.2769,-38.2599 307.5861,-42.5422 317.8322,-45.2379 317.2769,-38.2599"/>
</g>
<!-- Node27&#45;&gt;Node2 -->
<g id="edge29" class="edge">
<title>Node27&#45;&gt;Node2</title>
<path fill="none" stroke="#191970" d="M302.6299,-230.2361C325.8807,-227.3992 351.9207,-224.2219 374.1804,-221.5058"/>
<polygon fill="#191970" stroke="#191970" points="302.0148,-226.7851 292.5123,-231.4706 302.8626,-233.7336 302.0148,-226.7851"/>
</g>
</g>
</svg>
