<?xml version="1.0" encoding="UTF-8" standalone="no"?>
<!DOCTYPE svg PUBLIC "-//W3C//DTD SVG 1.1//EN"
 "http://www.w3.org/Graphics/SVG/1.1/DTD/svg11.dtd">
<!-- Generated by graphviz version 2.40.1 (0)
 -->
<!-- Title: ObservationCollector&lt; E &gt; Pages: 1 -->
<svg width="333pt" height="84pt"
 viewBox="0.00 0.00 332.50 84.00" xmlns="http://www.w3.org/2000/svg" xmlns:xlink="http://www.w3.org/1999/xlink">
<g id="graph0" class="graph" transform="scale(1 1) rotate(0) translate(4 80)">
<title>ObservationCollector&lt; E &gt;</title>
<!-- Node0 -->
<g id="node1" class="node">
<title>Node0</title>
<g id="a_node1"><a xlink:title=" ">
<polygon fill="#bfbfbf" stroke="#000000" points="97.5,-56.5 97.5,-75.5 230.5,-75.5 230.5,-56.5 97.5,-56.5"/>
<text text-anchor="middle" x="164" y="-63.5" font-family="Helvetica,sans-Serif" font-size="10.00" fill="#000000">ObservationCollector&lt; E &gt;</text>
</a>
</g>
</g>
<!-- Node1 -->
<g id="node2" class="node">
<title>Node1</title>
<g id="a_node2"><a xlink:href="classumontreal_1_1ssj_1_1mcqmctools_1_1anova_1_1BasicObservationCollector.html" target="_top" xlink:title="Does nothing but counting the total number of observations.">
<polygon fill="none" stroke="#000000" points="0,-.5 0,-19.5 158,-19.5 158,-.5 0,-.5"/>
<text text-anchor="middle" x="79" y="-7.5" font-family="Helvetica,sans-Serif" font-size="10.00" fill="#000000">BasicObservationCollector&lt; E &gt;</text>
</a>
</g>
</g>
<!-- Node0&#45;&gt;Node1 -->
<g id="edge1" class="edge">
<title>Node0&#45;&gt;Node1</title>
<path fill="none" stroke="#191970" d="M140.4581,-50.49C125.461,-40.6096 106.5027,-28.1194 93.6362,-19.6427"/>
<polygon fill="#191970" stroke="#191970" points="138.9179,-53.6666 149.1941,-56.2455 142.7691,-47.8212 138.9179,-53.6666"/>
</g>
<!-- Node2 -->
<g id="node3" class="node">
<title>Node2</title>
<g id="a_node3"><a xlink:href="classumontreal_1_1ssj_1_1mcqmctools_1_1anova_1_1ObservationCollectorList.html" target="_top" xlink:title=" ">
<polygon fill="none" stroke="#000000" points="175.5,-.5 175.5,-19.5 324.5,-19.5 324.5,-.5 175.5,-.5"/>
<text text-anchor="middle" x="250" y="-7.5" font-family="Helvetica,sans-Serif" font-size="10.00" fill="#000000">ObservationCollectorList&lt; E &gt;</text>
</a>
</g>
</g>
<!-- Node0&#45;&gt;Node2 -->
<g id="edge2" class="edge">
<title>Node0&#45;&gt;Node2</title>
<path fill="none" stroke="#191970" d="M187.3905,-50.769C202.6299,-40.8456 222.0509,-28.1994 235.1916,-19.6427"/>
<polygon fill="#191970" stroke="#191970" points="185.4502,-47.8558 178.9801,-56.2455 189.2699,-53.7218 185.4502,-47.8558"/>
</g>
</g>
</svg>
