<?xml version="1.0" encoding="UTF-8" standalone="no"?>
<!DOCTYPE svg PUBLIC "-//W3C//DTD SVG 1.1//EN"
 "http://www.w3.org/Graphics/SVG/1.1/DTD/svg11.dtd">
<!-- Generated by graphviz version 2.38.0 (20140413.2041)
 -->
<!-- Title: RandomStream Pages: 1 -->
<!--zoomable 690 -->
<svg id="main" version="1.1" xmlns="http://www.w3.org/2000/svg" xmlns:xlink="http://www.w3.org/1999/xlink" xml:space="preserve" onload="init(evt)">
<style type="text/css"><![CDATA[
.edge:hover path { stroke: red; }
.edge:hover polygon { stroke: red; fill: red; }
]]></style>
<script type="text/javascript"><![CDATA[
var edges = document.getElementsByTagName('g');
if (edges && edges.length) {
  for (var i=0;i<edges.length;i++) {
    if (edges[i].id.substr(0,4)=='edge') {
      edges[i].setAttribute('class','edge');
    }
  }
}
]]></script>
        <defs>
                <circle id="rim" cx="0" cy="0" r="7"/>
                <circle id="rim2" cx="0" cy="0" r="3.5"/>
                <g id="zoomPlus">
                        <use xlink:href="#rim" fill="#404040">
                                <set attributeName="fill" to="#808080" begin="zoomplus.mouseover" end="zoomplus.mouseout"/>
                        </use>
                        <path d="M-4,0h8M0,-4v8" fill="none" stroke="white" stroke-width="1.5" pointer-events="none"/>
                </g>
                <g id="zoomMin">
                        <use xlink:href="#rim" fill="#404040">
                                <set attributeName="fill" to="#808080" begin="zoomminus.mouseover" end="zoomminus.mouseout"/>
                        </use>
                        <path d="M-4,0h8" fill="none" stroke="white" stroke-width="1.5" pointer-events="none"/>
                </g>
                <g id="dirArrow">
                        <path fill="none" stroke="white" stroke-width="1.5" d="M0,-3.0v7 M-2.5,-0.5L0,-3.0L2.5,-0.5"/>
                </g>
               <g id="resetDef">
                       <use xlink:href="#rim2" fill="#404040">
                               <set attributeName="fill" to="#808080" begin="reset.mouseover" end="reset.mouseout"/>
                       </use>
               </g>
        </defs>

<script type="text/javascript">
var viewWidth = 799;
var viewHeight = 690;
var sectionId = 'dynsection-0';
</script>
<script xlink:href="svgpan.js"/>
<svg id="graph" class="graph">
<g id="viewport">
<title>RandomStream</title>
<!-- Node0 -->
<g id="node1" class="node"><title>Node0</title>
<polygon fill="#bfbfbf" stroke="black" points="0,-328.5 0,-347.5 85,-347.5 85,-328.5 0,-328.5"/>
<text text-anchor="middle" x="42.5" y="-335.5" font-family="Helvetica,sans-Serif" font-size="10.00">RandomStream</text>
</g>
<!-- Node1 -->
<g id="node2" class="node"><title>Node1</title>
<g id="a_node2"><a xlink:href="interfaceumontreal_1_1ssj_1_1hups_1_1PointSetIterator.html" target="_top" xlink:title="Objects of classes that implement this interface are iterators that permit one to enumerate (or obser...">
<polygon fill="none" stroke="black" points="154.5,-484.5 154.5,-503.5 239.5,-503.5 239.5,-484.5 154.5,-484.5"/>
<text text-anchor="middle" x="197" y="-491.5" font-family="Helvetica,sans-Serif" font-size="10.00">PointSetIterator</text>
</a>
</g>
</g>
<!-- Node0&#45;&gt;Node1 -->
<g id="edge1" class="edge"><title>Node0&#45;&gt;Node1</title>
<path fill="none" stroke="midnightblue" d="M56.3274,-355.844C70.9447,-375.645 96.0525,-408.089 121,-433 140.953,-452.923 167.017,-472.968 182.579,-484.394"/>
<polygon fill="midnightblue" stroke="midnightblue" points="59.1111,-353.721 50.3878,-347.708 53.4574,-357.848 59.1111,-353.721"/>
</g>
<!-- Node8 -->
<g id="node9" class="node"><title>Node8</title>
<g id="a_node9"><a xlink:href="classumontreal_1_1ssj_1_1rng_1_1AntitheticStream.html" target="_top" xlink:title="This container class allows the user to force any RandomStream to return antithetic variates...">
<polygon fill="none" stroke="black" points="152.5,-404.5 152.5,-423.5 241.5,-423.5 241.5,-404.5 152.5,-404.5"/>
<text text-anchor="middle" x="197" y="-411.5" font-family="Helvetica,sans-Serif" font-size="10.00">AntitheticStream</text>
</a>
</g>
</g>
<!-- Node0&#45;&gt;Node8 -->
<g id="edge8" class="edge"><title>Node0&#45;&gt;Node8</title>
<path fill="none" stroke="midnightblue" d="M61.5725,-354.467C76.5021,-367.249 98.7794,-384.508 121,-395 130.717,-399.588 141.685,-403.164 152.173,-405.912"/>
<polygon fill="midnightblue" stroke="midnightblue" points="63.5109,-351.511 53.6873,-347.543 58.8923,-356.771 63.5109,-351.511"/>
</g>
<!-- Node9 -->
<g id="node10" class="node"><title>Node9</title>
<g id="a_node10"><a xlink:href="classumontreal_1_1ssj_1_1rng_1_1BakerTransformedStream.html" target="_top" xlink:title="This container class permits one to apply the baker’s transformation to the output of any RandomStre...">
<polygon fill="none" stroke="black" points="133,-366.5 133,-385.5 261,-385.5 261,-366.5 133,-366.5"/>
<text text-anchor="middle" x="197" y="-373.5" font-family="Helvetica,sans-Serif" font-size="10.00">BakerTransformedStream</text>
</a>
</g>
</g>
<!-- Node0&#45;&gt;Node9 -->
<g id="edge9" class="edge"><title>Node0&#45;&gt;Node9</title>
<path fill="none" stroke="midnightblue" d="M91.8184,-350.04C113.123,-355.349 137.804,-361.499 157.795,-366.48"/>
<polygon fill="midnightblue" stroke="midnightblue" points="92.5318,-346.611 81.9822,-347.589 90.8392,-353.403 92.5318,-346.611"/>
</g>
<!-- Node10 -->
<g id="node11" class="node"><title>Node10</title>
<g id="a_node11"><a xlink:href="interfaceumontreal_1_1ssj_1_1rng_1_1CloneableRandomStream.html" target="_top" xlink:title="CloneableRandomStream extends RandomStream and Cloneable. ">
<polygon fill="none" stroke="black" points="133,-328.5 133,-347.5 261,-347.5 261,-328.5 133,-328.5"/>
<text text-anchor="middle" x="197" y="-335.5" font-family="Helvetica,sans-Serif" font-size="10.00">CloneableRandomStream</text>
</a>
</g>
</g>
<!-- Node0&#45;&gt;Node10 -->
<g id="edge10" class="edge"><title>Node0&#45;&gt;Node10</title>
<path fill="none" stroke="midnightblue" d="M95.4828,-338C107.52,-338 120.458,-338 132.913,-338"/>
<polygon fill="midnightblue" stroke="midnightblue" points="95.1713,-334.5 85.1713,-338 95.1713,-341.5 95.1713,-334.5"/>
</g>
<!-- Node28 -->
<g id="node29" class="node"><title>Node28</title>
<g id="a_node29"><a xlink:href="classumontreal_1_1ssj_1_1rng_1_1RandomStreamWithCache.html" target="_top" xlink:title="This class represents a random stream whose uniforms are cached for more efficiency when using common...">
<polygon fill="none" stroke="black" points="130,-290.5 130,-309.5 264,-309.5 264,-290.5 130,-290.5"/>
<text text-anchor="middle" x="197" y="-297.5" font-family="Helvetica,sans-Serif" font-size="10.00">RandomStreamWithCache</text>
</a>
</g>
</g>
<!-- Node0&#45;&gt;Node28 -->
<g id="edge28" class="edge"><title>Node0&#45;&gt;Node28</title>
<path fill="none" stroke="midnightblue" d="M91.8184,-325.96C113.123,-320.651 137.804,-314.501 157.795,-309.52"/>
<polygon fill="midnightblue" stroke="midnightblue" points="90.8392,-322.597 81.9822,-328.411 92.5318,-329.389 90.8392,-322.597"/>
</g>
<!-- Node29 -->
<g id="node30" class="node"><title>Node29</title>
<g id="a_node30"><a xlink:href="classumontreal_1_1ssj_1_1rng_1_1TruncatedRandomStream.html" target="_top" xlink:title="Represents a container random stream generating numbers in an interval &#160;instead of in ...">
<polygon fill="none" stroke="black" points="133,-252.5 133,-271.5 261,-271.5 261,-252.5 133,-252.5"/>
<text text-anchor="middle" x="197" y="-259.5" font-family="Helvetica,sans-Serif" font-size="10.00">TruncatedRandomStream</text>
</a>
</g>
</g>
<!-- Node0&#45;&gt;Node29 -->
<g id="edge29" class="edge"><title>Node0&#45;&gt;Node29</title>
<path fill="none" stroke="midnightblue" d="M61.5725,-321.533C76.5021,-308.751 98.7794,-291.492 121,-281 129.017,-277.215 137.885,-274.119 146.632,-271.608"/>
<polygon fill="midnightblue" stroke="midnightblue" points="58.8923,-319.229 53.6873,-328.457 63.5109,-324.489 58.8923,-319.229"/>
</g>
<!-- Node30 -->
<g id="node31" class="node"><title>Node30</title>
<g id="a_node31"><a xlink:href="classumontreal_1_1ssj_1_1stochprocess_1_1InverseGaussianProcessMSH_1_1NonRandomStream.html" target="_top" xlink:title="NonRandomStream: Given a double array, this class will return those values as if it where a random st...">
<polygon fill="none" stroke="black" points="121,-203 121,-233 273,-233 273,-203 121,-203"/>
<text text-anchor="start" x="129" y="-221" font-family="Helvetica,sans-Serif" font-size="10.00">InverseGaussianProcessMSH.</text>
<text text-anchor="middle" x="197" y="-210" font-family="Helvetica,sans-Serif" font-size="10.00">NonRandomStream</text>
</a>
</g>
</g>
<!-- Node0&#45;&gt;Node30 -->
<g id="edge30" class="edge"><title>Node0&#45;&gt;Node30</title>
<path fill="none" stroke="midnightblue" d="M53.9875,-319.66C67.0739,-298.332 91.3775,-263.446 121,-243 126.535,-239.18 132.699,-235.906 139.048,-233.11"/>
<polygon fill="midnightblue" stroke="midnightblue" points="50.89,-318.021 48.7854,-328.405 56.906,-321.6 50.89,-318.021"/>
</g>
<!-- Node2 -->
<g id="node3" class="node"><title>Node2</title>
<g id="a_node3"><a xlink:href="classumontreal_1_1ssj_1_1hups_1_1PointSet_1_1DefaultPointSetIterator.html" target="_top" xlink:title="PointSet.DefaultPointSet\lIterator">
<polygon fill="none" stroke="black" points="309,-563 309,-593 435,-593 435,-563 309,-563"/>
<text text-anchor="start" x="317" y="-581" font-family="Helvetica,sans-Serif" font-size="10.00">PointSet.DefaultPointSet</text>
<text text-anchor="middle" x="372" y="-570" font-family="Helvetica,sans-Serif" font-size="10.00">Iterator</text>
</a>
</g>
</g>
<!-- Node1&#45;&gt;Node2 -->
<g id="edge2" class="edge"><title>Node1&#45;&gt;Node2</title>
<path fill="none" stroke="midnightblue" d="M226.929,-508.046C258.233,-523.246 307.961,-547.391 340.037,-562.966"/>
<polygon fill="midnightblue" stroke="midnightblue" points="228.37,-504.855 217.845,-503.636 225.312,-511.152 228.37,-504.855"/>
</g>
<!-- Node3 -->
<g id="node4" class="node"><title>Node3</title>
<g id="a_node4"><a xlink:href="classumontreal_1_1ssj_1_1hups_1_1CachedPointSet_1_1CachedPointSetIterator.html" target="_top" xlink:title="CachedPointSet.CachedPoint\lSetIterator">
<polygon fill="none" stroke="black" points="471,-651 471,-681 618,-681 618,-651 471,-651"/>
<text text-anchor="start" x="479" y="-669" font-family="Helvetica,sans-Serif" font-size="10.00">CachedPointSet.CachedPoint</text>
<text text-anchor="middle" x="544.5" y="-658" font-family="Helvetica,sans-Serif" font-size="10.00">SetIterator</text>
</a>
</g>
</g>
<!-- Node2&#45;&gt;Node3 -->
<g id="edge3" class="edge"><title>Node2&#45;&gt;Node3</title>
<path fill="none" stroke="midnightblue" d="M401.401,-598.848C420.416,-612.143 446.382,-629.056 471,-641 478.427,-644.603 486.509,-647.927 494.493,-650.896"/>
<polygon fill="midnightblue" stroke="midnightblue" points="403.366,-595.95 393.183,-593.024 399.319,-601.662 403.366,-595.95"/>
</g>
<!-- Node4 -->
<g id="node5" class="node"><title>Node4</title>
<g id="a_node5"><a xlink:href="classumontreal_1_1ssj_1_1hups_1_1DigitalNet_1_1DigitalNetIterator.html" target="_top" xlink:title="DigitalNet.DigitalNetIterator">
<polygon fill="none" stroke="black" points="476,-612.5 476,-631.5 613,-631.5 613,-612.5 476,-612.5"/>
<text text-anchor="middle" x="544.5" y="-619.5" font-family="Helvetica,sans-Serif" font-size="10.00">DigitalNet.DigitalNetIterator</text>
</a>
</g>
</g>
<!-- Node2&#45;&gt;Node4 -->
<g id="edge4" class="edge"><title>Node2&#45;&gt;Node4</title>
<path fill="none" stroke="midnightblue" d="M441.013,-595.552C463.412,-601.332 487.467,-607.54 506.639,-612.488"/>
<polygon fill="midnightblue" stroke="midnightblue" points="441.757,-592.129 431.2,-593.019 440.008,-598.907 441.757,-592.129"/>
</g>
<!-- Node6 -->
<g id="node7" class="node"><title>Node6</title>
<g id="a_node7"><a xlink:href="classumontreal_1_1ssj_1_1hups_1_1Rank1Lattice_1_1Rank1LatticeIterator.html" target="_top" xlink:title="Rank1Lattice.Rank1Lattice\lIterator">
<polygon fill="none" stroke="black" points="477,-563 477,-593 612,-593 612,-563 477,-563"/>
<text text-anchor="start" x="485" y="-581" font-family="Helvetica,sans-Serif" font-size="10.00">Rank1Lattice.Rank1Lattice</text>
<text text-anchor="middle" x="544.5" y="-570" font-family="Helvetica,sans-Serif" font-size="10.00">Iterator</text>
</a>
</g>
</g>
<!-- Node2&#45;&gt;Node6 -->
<g id="edge6" class="edge"><title>Node2&#45;&gt;Node6</title>
<path fill="none" stroke="midnightblue" d="M445.058,-578C455.622,-578 466.462,-578 476.91,-578"/>
<polygon fill="midnightblue" stroke="midnightblue" points="445.037,-574.5 435.037,-578 445.037,-581.5 445.037,-574.5"/>
</g>
<!-- Node7 -->
<g id="node8" class="node"><title>Node7</title>
<g id="a_node8"><a xlink:href="classumontreal_1_1ssj_1_1hups_1_1SortedAndCutPointSet_1_1SortedAndCutPointSetIterator.html" target="_top" xlink:title="SortedAndCutPointSet.Sorted\lAndCutPointSetIterator">
<polygon fill="none" stroke="black" points="471,-514 471,-544 618,-544 618,-514 471,-514"/>
<text text-anchor="start" x="479" y="-532" font-family="Helvetica,sans-Serif" font-size="10.00">SortedAndCutPointSet.Sorted</text>
<text text-anchor="middle" x="544.5" y="-521" font-family="Helvetica,sans-Serif" font-size="10.00">AndCutPointSetIterator</text>
</a>
</g>
</g>
<!-- Node2&#45;&gt;Node7 -->
<g id="edge7" class="edge"><title>Node2&#45;&gt;Node7</title>
<path fill="none" stroke="midnightblue" d="M435.264,-560.106C453.603,-554.836 473.475,-549.124 491.127,-544.052"/>
<polygon fill="midnightblue" stroke="midnightblue" points="434.191,-556.773 425.547,-562.899 436.125,-563.5 434.191,-556.773"/>
</g>
<!-- Node5 -->
<g id="node6" class="node"><title>Node5</title>
<g id="a_node6"><a xlink:href="classumontreal_1_1ssj_1_1hups_1_1DigitalNet_1_1DigitalNetIteratorNoGray.html" target="_top" xlink:title="DigitalNet.DigitalNetIterator\lNoGray">
<polygon fill="none" stroke="black" points="654,-607 654,-637 791,-637 791,-607 654,-607"/>
<text text-anchor="start" x="662" y="-625" font-family="Helvetica,sans-Serif" font-size="10.00">DigitalNet.DigitalNetIterator</text>
<text text-anchor="middle" x="722.5" y="-614" font-family="Helvetica,sans-Serif" font-size="10.00">NoGray</text>
</a>
</g>
</g>
<!-- Node4&#45;&gt;Node5 -->
<g id="edge5" class="edge"><title>Node4&#45;&gt;Node5</title>
<path fill="none" stroke="midnightblue" d="M623.18,-622C633.402,-622 643.811,-622 653.847,-622"/>
<polygon fill="midnightblue" stroke="midnightblue" points="623.043,-618.5 613.043,-622 623.043,-625.5 623.043,-618.5"/>
</g>
<!-- Node11 -->
<g id="node12" class="node"><title>Node11</title>
<g id="a_node12"><a xlink:href="classumontreal_1_1ssj_1_1rng_1_1RandMrg.html" target="_top" xlink:title="USE MRG32k3a INSTEAD of this class. ">
<polygon fill="none" stroke="black" points="344,-328.5 344,-347.5 400,-347.5 400,-328.5 344,-328.5"/>
<text text-anchor="middle" x="372" y="-335.5" font-family="Helvetica,sans-Serif" font-size="10.00">RandMrg</text>
</a>
</g>
</g>
<!-- Node10&#45;&gt;Node11 -->
<g id="edge11" class="edge"><title>Node10&#45;&gt;Node11</title>
<path fill="none" stroke="midnightblue" d="M271.529,-338C297.133,-338 324.288,-338 343.746,-338"/>
<polygon fill="midnightblue" stroke="midnightblue" points="271.437,-334.5 261.436,-338 271.436,-341.5 271.437,-334.5"/>
</g>
<!-- Node12 -->
<g id="node13" class="node"><title>Node12</title>
<g id="a_node13"><a xlink:href="classumontreal_1_1ssj_1_1rng_1_1RandomStreamBase.html" target="_top" xlink:title="This class provides a convenient foundation on which RNGs can be built. ">
<polygon fill="none" stroke="black" points="318.5,-266.5 318.5,-285.5 425.5,-285.5 425.5,-266.5 318.5,-266.5"/>
<text text-anchor="middle" x="372" y="-273.5" font-family="Helvetica,sans-Serif" font-size="10.00">RandomStreamBase</text>
</a>
</g>
</g>
<!-- Node10&#45;&gt;Node12 -->
<g id="edge12" class="edge"><title>Node10&#45;&gt;Node12</title>
<path fill="none" stroke="midnightblue" d="M250.648,-325.839C258.208,-323.753 265.845,-321.457 273,-319 301.116,-309.345 332.368,-294.962 351.854,-285.532"/>
<polygon fill="midnightblue" stroke="midnightblue" points="249.565,-322.505 240.8,-328.457 251.364,-329.27 249.565,-322.505"/>
</g>
<!-- Node13 -->
<g id="node14" class="node"><title>Node13</title>
<g id="a_node14"><a xlink:href="classift6561examples_1_1MathematicaSWB.html" target="_top" xlink:title="MathematicaSWB">
<polygon fill="none" stroke="black" points="496.5,-475.5 496.5,-494.5 592.5,-494.5 592.5,-475.5 496.5,-475.5"/>
<text text-anchor="middle" x="544.5" y="-482.5" font-family="Helvetica,sans-Serif" font-size="10.00">MathematicaSWB</text>
</a>
</g>
</g>
<!-- Node12&#45;&gt;Node13 -->
<g id="edge13" class="edge"><title>Node12&#45;&gt;Node13</title>
<path fill="none" stroke="midnightblue" d="M403.138,-290.789C414.675,-297.85 426.978,-307.331 435,-319 473.107,-374.428 423.822,-418.055 471,-466 477.845,-472.956 486.902,-477.467 496.287,-480.369"/>
<polygon fill="midnightblue" stroke="midnightblue" points="404.564,-287.573 394.145,-285.65 401.091,-293.65 404.564,-287.573"/>
</g>
<!-- Node14 -->
<g id="node15" class="node"><title>Node14</title>
<g id="a_node15"><a xlink:href="classumontreal_1_1ssj_1_1mcqmctools_1_1anova_1_1SplitStream.html" target="_top" xlink:title="Implements a random stream that mixes two input streams by using a coordinate mask. ">
<polygon fill="none" stroke="black" points="510.5,-437.5 510.5,-456.5 578.5,-456.5 578.5,-437.5 510.5,-437.5"/>
<text text-anchor="middle" x="544.5" y="-444.5" font-family="Helvetica,sans-Serif" font-size="10.00">SplitStream</text>
</a>
</g>
</g>
<!-- Node12&#45;&gt;Node14 -->
<g id="edge14" class="edge"><title>Node12&#45;&gt;Node14</title>
<path fill="none" stroke="midnightblue" d="M402.182,-290.805C413.789,-297.95 426.4,-307.491 435,-319 465.538,-359.87 433.812,-393.073 471,-428 481.528,-437.888 496.556,-442.773 510.203,-445.135"/>
<polygon fill="midnightblue" stroke="midnightblue" points="403.592,-287.577 393.184,-285.595 400.085,-293.635 403.592,-287.577"/>
</g>
<!-- Node15 -->
<g id="node16" class="node"><title>Node15</title>
<g id="a_node16"><a xlink:href="classumontreal_1_1ssj_1_1rng_1_1GenF2w32.html" target="_top" xlink:title="Implements the RandomStream interface via inheritance from RandomStreamBase. ">
<polygon fill="none" stroke="black" points="512.5,-399.5 512.5,-418.5 576.5,-418.5 576.5,-399.5 512.5,-399.5"/>
<text text-anchor="middle" x="544.5" y="-406.5" font-family="Helvetica,sans-Serif" font-size="10.00">GenF2w32</text>
</a>
</g>
</g>
<!-- Node12&#45;&gt;Node15 -->
<g id="edge15" class="edge"><title>Node12&#45;&gt;Node15</title>
<path fill="none" stroke="midnightblue" d="M400.272,-290.786C412.019,-298.128 425.261,-307.825 435,-319 458.245,-345.673 443.465,-367.783 471,-390 482.645,-399.396 498.459,-404.185 512.345,-406.609"/>
<polygon fill="midnightblue" stroke="midnightblue" points="402.044,-287.767 391.664,-285.644 398.455,-293.777 402.044,-287.767"/>
</g>
<!-- Node16 -->
<g id="node17" class="node"><title>Node16</title>
<g id="a_node17"><a xlink:href="classumontreal_1_1ssj_1_1rng_1_1LFSR113.html" target="_top" xlink:title="Extends RandomStreamBase using a composite linear feedback shift register (LFSR) (or Tausworthe) RNG ...">
<polygon fill="none" stroke="black" points="515.5,-361.5 515.5,-380.5 573.5,-380.5 573.5,-361.5 515.5,-361.5"/>
<text text-anchor="middle" x="544.5" y="-368.5" font-family="Helvetica,sans-Serif" font-size="10.00">LFSR113</text>
</a>
</g>
</g>
<!-- Node12&#45;&gt;Node16 -->
<g id="edge16" class="edge"><title>Node12&#45;&gt;Node16</title>
<path fill="none" stroke="midnightblue" d="M396.408,-291.14C408.25,-299.071 422.686,-309.161 435,-319 451.957,-332.549 451.943,-341.611 471,-352 484.709,-359.474 501.496,-364.116 515.463,-366.939"/>
<polygon fill="midnightblue" stroke="midnightblue" points="398.207,-288.134 387.936,-285.536 394.345,-293.972 398.207,-288.134"/>
</g>
<!-- Node17 -->
<g id="node18" class="node"><title>Node17</title>
<g id="a_node18"><a xlink:href="classumontreal_1_1ssj_1_1rng_1_1LFSR258.html" target="_top" xlink:title="Extends RandomStreamBase using a 64&#45;bit composite linear feedback shift register (LFSR) (or Tausworth...">
<polygon fill="none" stroke="black" points="515.5,-323.5 515.5,-342.5 573.5,-342.5 573.5,-323.5 515.5,-323.5"/>
<text text-anchor="middle" x="544.5" y="-330.5" font-family="Helvetica,sans-Serif" font-size="10.00">LFSR258</text>
</a>
</g>
</g>
<!-- Node12&#45;&gt;Node17 -->
<g id="edge17" class="edge"><title>Node12&#45;&gt;Node17</title>
<path fill="none" stroke="midnightblue" d="M405.074,-289.498C424.054,-297.218 448.676,-306.773 471,-314 485.484,-318.689 501.872,-323.061 515.399,-326.426"/>
<polygon fill="midnightblue" stroke="midnightblue" points="406.285,-286.212 395.705,-285.651 403.625,-292.687 406.285,-286.212"/>
</g>
<!-- Node18 -->
<g id="node19" class="node"><title>Node18</title>
<g id="a_node19"><a xlink:href="classumontreal_1_1ssj_1_1rng_1_1MRG31k3p.html" target="_top" xlink:title="Extends the abstract class RandomStreamBase, thus implementing the RandomStream interface indirectly...">
<polygon fill="none" stroke="black" points="511.5,-285.5 511.5,-304.5 577.5,-304.5 577.5,-285.5 511.5,-285.5"/>
<text text-anchor="middle" x="544.5" y="-292.5" font-family="Helvetica,sans-Serif" font-size="10.00">MRG31k3p</text>
</a>
</g>
</g>
<!-- Node12&#45;&gt;Node18 -->
<g id="edge18" class="edge"><title>Node12&#45;&gt;Node18</title>
<path fill="none" stroke="midnightblue" d="M435.625,-282.979C461.388,-285.85 490.122,-289.052 511.453,-291.429"/>
<polygon fill="midnightblue" stroke="midnightblue" points="435.873,-279.485 425.547,-281.856 435.098,-286.442 435.873,-279.485"/>
</g>
<!-- Node19 -->
<g id="node20" class="node"><title>Node19</title>
<g id="a_node20"><a xlink:href="classumontreal_1_1ssj_1_1rng_1_1MRG32k3a.html" target="_top" xlink:title="Extends the abstract class RandomStreamBase by using as a backbone (or main) generator the combined m...">
<polygon fill="none" stroke="black" points="511.5,-247.5 511.5,-266.5 577.5,-266.5 577.5,-247.5 511.5,-247.5"/>
<text text-anchor="middle" x="544.5" y="-254.5" font-family="Helvetica,sans-Serif" font-size="10.00">MRG32k3a</text>
</a>
</g>
</g>
<!-- Node12&#45;&gt;Node19 -->
<g id="edge19" class="edge"><title>Node12&#45;&gt;Node19</title>
<path fill="none" stroke="midnightblue" d="M435.625,-269.021C461.388,-266.15 490.122,-262.948 511.453,-260.571"/>
<polygon fill="midnightblue" stroke="midnightblue" points="435.098,-265.558 425.547,-270.144 435.873,-272.515 435.098,-265.558"/>
</g>
<!-- Node20 -->
<g id="node21" class="node"><title>Node20</title>
<g id="a_node21"><a xlink:href="classumontreal_1_1ssj_1_1rng_1_1MRG32k3aL.html" target="_top" xlink:title="The same generator as MRG32k3a, except here it is implemented with type long instead of double...">
<polygon fill="none" stroke="black" points="509,-209.5 509,-228.5 580,-228.5 580,-209.5 509,-209.5"/>
<text text-anchor="middle" x="544.5" y="-216.5" font-family="Helvetica,sans-Serif" font-size="10.00">MRG32k3aL</text>
</a>
</g>
</g>
<!-- Node12&#45;&gt;Node20 -->
<g id="edge20" class="edge"><title>Node12&#45;&gt;Node20</title>
<path fill="none" stroke="midnightblue" d="M405.074,-262.502C424.054,-254.782 448.676,-245.227 471,-238 483.255,-234.032 496.875,-230.292 508.97,-227.196"/>
<polygon fill="midnightblue" stroke="midnightblue" points="403.625,-259.313 395.705,-266.349 406.285,-265.788 403.625,-259.313"/>
</g>
<!-- Node21 -->
<g id="node22" class="node"><title>Node21</title>
<g id="a_node22"><a xlink:href="classumontreal_1_1ssj_1_1rng_1_1MT19937.html" target="_top" xlink:title="Implements the RandomStream interface via inheritance from RandomStreamBase. ">
<polygon fill="none" stroke="black" points="516,-171.5 516,-190.5 573,-190.5 573,-171.5 516,-171.5"/>
<text text-anchor="middle" x="544.5" y="-178.5" font-family="Helvetica,sans-Serif" font-size="10.00">MT19937</text>
</a>
</g>
</g>
<!-- Node12&#45;&gt;Node21 -->
<g id="edge21" class="edge"><title>Node12&#45;&gt;Node21</title>
<path fill="none" stroke="midnightblue" d="M389.976,-259.307C408.439,-242.05 439.542,-215.506 471,-200 485.005,-193.097 501.811,-188.49 515.714,-185.544"/>
<polygon fill="midnightblue" stroke="midnightblue" points="387.472,-256.859 382.65,-266.292 392.303,-261.925 387.472,-256.859"/>
</g>
<!-- Node22 -->
<g id="node23" class="node"><title>Node22</title>
<g id="a_node23"><a xlink:href="classumontreal_1_1ssj_1_1rng_1_1RandRijndael.html" target="_top" xlink:title="Implements a RNG using the Rijndael block cipher algorithm (AES) with key and block lengths of 128 bi...">
<polygon fill="none" stroke="black" points="507,-133.5 507,-152.5 582,-152.5 582,-133.5 507,-133.5"/>
<text text-anchor="middle" x="544.5" y="-140.5" font-family="Helvetica,sans-Serif" font-size="10.00">RandRijndael</text>
</a>
</g>
</g>
<!-- Node12&#45;&gt;Node22 -->
<g id="edge22" class="edge"><title>Node12&#45;&gt;Node22</title>
<path fill="none" stroke="midnightblue" d="M383.716,-257.655C399.53,-232.234 431.551,-186.651 471,-162 481.704,-155.312 494.705,-150.964 506.725,-148.143"/>
<polygon fill="midnightblue" stroke="midnightblue" points="380.652,-255.958 378.466,-266.325 386.64,-259.583 380.652,-255.958"/>
</g>
<!-- Node23 -->
<g id="node24" class="node"><title>Node23</title>
<g id="a_node24"><a xlink:href="classumontreal_1_1ssj_1_1rng_1_1WELL1024.html" target="_top" xlink:title="Implements the RandomStream interface via inheritance from RandomStreamBase. ">
<polygon fill="none" stroke="black" points="512,-95.5 512,-114.5 577,-114.5 577,-95.5 512,-95.5"/>
<text text-anchor="middle" x="544.5" y="-102.5" font-family="Helvetica,sans-Serif" font-size="10.00">WELL1024</text>
</a>
</g>
</g>
<!-- Node12&#45;&gt;Node23 -->
<g id="edge23" class="edge"><title>Node12&#45;&gt;Node23</title>
<path fill="none" stroke="midnightblue" d="M380,-256.739C392.831,-224.221 423.264,-158.602 471,-124 482.799,-115.447 498.151,-110.741 511.689,-108.153"/>
<polygon fill="midnightblue" stroke="midnightblue" points="376.607,-255.814 376.324,-266.405 383.15,-258.303 376.607,-255.814"/>
</g>
<!-- Node24 -->
<g id="node25" class="node"><title>Node24</title>
<g id="a_node25"><a xlink:href="classumontreal_1_1ssj_1_1rng_1_1WELL512.html" target="_top" xlink:title="This class implements the RandomStream interface via inheritance from RandomStreamBase. ">
<polygon fill="none" stroke="black" points="515,-57.5 515,-76.5 574,-76.5 574,-57.5 515,-57.5"/>
<text text-anchor="middle" x="544.5" y="-64.5" font-family="Helvetica,sans-Serif" font-size="10.00">WELL512</text>
</a>
</g>
</g>
<!-- Node12&#45;&gt;Node24 -->
<g id="edge24" class="edge"><title>Node12&#45;&gt;Node24</title>
<path fill="none" stroke="midnightblue" d="M377.454,-256.351C387.285,-217.606 414.582,-131.2 471,-86 483.389,-76.0745 500.435,-71.2941 514.886,-69.0091"/>
<polygon fill="midnightblue" stroke="midnightblue" points="373.986,-255.804 375.043,-266.346 380.791,-257.446 373.986,-255.804"/>
</g>
<!-- Node25 -->
<g id="node26" class="node"><title>Node25</title>
<g id="a_node26"><a xlink:href="classumontreal_1_1ssj_1_1rng_1_1WELL607base.html" target="_top" xlink:title="WELL607base">
<polygon fill="none" stroke="black" points="504.5,-19.5 504.5,-38.5 584.5,-38.5 584.5,-19.5 504.5,-19.5"/>
<text text-anchor="middle" x="544.5" y="-26.5" font-family="Helvetica,sans-Serif" font-size="10.00">WELL607base</text>
</a>
</g>
</g>
<!-- Node12&#45;&gt;Node25 -->
<g id="edge25" class="edge"><title>Node12&#45;&gt;Node25</title>
<path fill="none" stroke="midnightblue" d="M375.584,-256.471C382.485,-212.335 405.507,-104.359 471,-48 480.271,-40.022 492.509,-35.3411 504.284,-32.6117"/>
<polygon fill="midnightblue" stroke="midnightblue" points="372.105,-256.071 374.131,-266.47 379.033,-257.077 372.105,-256.071"/>
</g>
<!-- Node26 -->
<g id="node27" class="node"><title>Node26</title>
<g id="a_node27"><a xlink:href="classumontreal_1_1ssj_1_1rng_1_1F2NL607.html" target="_top" xlink:title="Implements the RandomStream interface by using as a backbone generator the combination of the WELL607...">
<polygon fill="none" stroke="black" points="694.5,-38.5 694.5,-57.5 750.5,-57.5 750.5,-38.5 694.5,-38.5"/>
<text text-anchor="middle" x="722.5" y="-45.5" font-family="Helvetica,sans-Serif" font-size="10.00">F2NL607</text>
</a>
</g>
</g>
<!-- Node25&#45;&gt;Node26 -->
<g id="edge26" class="edge"><title>Node25&#45;&gt;Node26</title>
<path fill="none" stroke="midnightblue" d="M594.685,-34.3097C626.898,-37.7873 667.789,-42.2017 694.292,-45.0628"/>
<polygon fill="midnightblue" stroke="midnightblue" points="594.878,-30.8103 584.56,-33.2167 594.127,-37.7699 594.878,-30.8103"/>
</g>
<!-- Node27 -->
<g id="node28" class="node"><title>Node27</title>
<g id="a_node28"><a xlink:href="classumontreal_1_1ssj_1_1rng_1_1WELL607.html" target="_top" xlink:title="This class implements the RandomStream interface via inheritance from RandomStreamBase. ">
<polygon fill="none" stroke="black" points="693,-0.5 693,-19.5 752,-19.5 752,-0.5 693,-0.5"/>
<text text-anchor="middle" x="722.5" y="-7.5" font-family="Helvetica,sans-Serif" font-size="10.00">WELL607</text>
</a>
</g>
</g>
<!-- Node25&#45;&gt;Node27 -->
<g id="edge27" class="edge"><title>Node25&#45;&gt;Node27</title>
<path fill="none" stroke="midnightblue" d="M594.526,-23.7074C626.221,-20.2858 666.37,-15.9515 692.941,-13.0831"/>
<polygon fill="midnightblue" stroke="midnightblue" points="594.127,-20.2301 584.56,-24.7833 594.878,-27.1897 594.127,-20.2301"/>
</g>
</g>
</svg>
        <g id="navigator" transform="translate(0 0)" fill="#404254">
                <rect fill="#f2f5e9" fill-opacity="0.5" stroke="#606060" stroke-width=".5" x="0" y="0" width="60" height="60"/>
                <use id="zoomplus" xlink:href="#zoomPlus" x="17" y="9" onmousedown="handleZoom(evt,'in')"/>
                <use id="zoomminus" xlink:href="#zoomMin" x="42" y="9" onmousedown="handleZoom(evt,'out')"/>
                <use id="reset" xlink:href="#resetDef" x="30" y="36" onmousedown="handleReset()"/>
                <g id="arrowUp" xlink:href="#dirArrow" transform="translate(30 24)" onmousedown="handlePan(0,-1)">
                  <use xlink:href="#rim" fill="#404040">
                        <set attributeName="fill" to="#808080" begin="arrowUp.mouseover" end="arrowUp.mouseout"/>
                  </use>
                  <path fill="none" stroke="white" stroke-width="1.5" d="M0,-3.0v7 M-2.5,-0.5L0,-3.0L2.5,-0.5"/>
                </g>
                <g id="arrowRight" xlink:href="#dirArrow" transform="rotate(90) translate(36 -43)" onmousedown="handlePan(1,0)">
                  <use xlink:href="#rim" fill="#404040">
                        <set attributeName="fill" to="#808080" begin="arrowRight.mouseover" end="arrowRight.mouseout"/>
                  </use>
                  <path fill="none" stroke="white" stroke-width="1.5" d="M0,-3.0v7 M-2.5,-0.5L0,-3.0L2.5,-0.5"/>
                </g>
                <g id="arrowDown" xlink:href="#dirArrow" transform="rotate(180) translate(-30 -48)" onmousedown="handlePan(0,1)">
                  <use xlink:href="#rim" fill="#404040">
                        <set attributeName="fill" to="#808080" begin="arrowDown.mouseover" end="arrowDown.mouseout"/>
                  </use>
                  <path fill="none" stroke="white" stroke-width="1.5" d="M0,-3.0v7 M-2.5,-0.5L0,-3.0L2.5,-0.5"/>
                </g>
                <g id="arrowLeft" xlink:href="#dirArrow" transform="rotate(270) translate(-36 17)" onmousedown="handlePan(-1,0)">
                  <use xlink:href="#rim" fill="#404040">
                        <set attributeName="fill" to="#808080" begin="arrowLeft.mouseover" end="arrowLeft.mouseout"/>
                  </use>
                  <path fill="none" stroke="white" stroke-width="1.5" d="M0,-3.0v7 M-2.5,-0.5L0,-3.0L2.5,-0.5"/>
                </g>
        </g>
        <svg viewBox="0 0 15 15" width="100%" height="30px" preserveAspectRatio="xMaxYMin meet">
         <g id="arrow_out" transform="scale(0.3 0.3)">
          <a xlink:href="interfaceumontreal_1_1ssj_1_1rng_1_1RandomStream__inherit__graph_org.svg" target="_base">
           <rect id="button" ry="5" rx="5" y="6" x="6" height="38" width="38"
                fill="#f2f5e9" fill-opacity="0.5" stroke="#606060" stroke-width="1.0"/>
           <path id="arrow"
             d="M 11.500037,31.436501 C 11.940474,20.09759 22.043105,11.32322 32.158766,21.979434 L 37.068811,17.246167 C 37.068811,17.246167 37.088388,32 37.088388,32 L 22.160133,31.978069 C 22.160133,31.978069 26.997745,27.140456 26.997745,27.140456 C 18.528582,18.264221 13.291696,25.230495 11.500037,31.436501 z"
             style="fill:#404040;"/>
          </a>
         </g>
        </svg>
</svg>
