<?xml version="1.0" encoding="UTF-8" standalone="no"?>
<!DOCTYPE svg PUBLIC "-//W3C//DTD SVG 1.1//EN"
 "http://www.w3.org/Graphics/SVG/1.1/DTD/svg11.dtd">
<!-- Generated by graphviz version 2.40.1 (20161225.0304)
 -->
<!-- Title: EventList Pages: 1 -->
<svg width="419pt" height="140pt"
 viewBox="0.00 0.00 418.50 140.00" xmlns="http://www.w3.org/2000/svg" xmlns:xlink="http://www.w3.org/1999/xlink">
<g id="graph0" class="graph" transform="scale(1 1) rotate(0) translate(4 136)">
<title>EventList</title>
<!-- Node0 -->
<g id="node1" class="node">
<title>Node0</title>
<polygon fill="#bfbfbf" stroke="#000000" points="177.5,-56.5 177.5,-75.5 235.5,-75.5 235.5,-56.5 177.5,-56.5"/>
<text text-anchor="middle" x="206.5" y="-63.5" font-family="Helvetica,sans-Serif" font-size="10.00" fill="#000000">EventList</text>
</g>
<!-- Node2 -->
<g id="node3" class="node">
<title>Node2</title>
<g id="a_node3"><a xlink:href="classumontreal_1_1ssj_1_1simevents_1_1eventlist_1_1BinaryTree.html" target="_top" xlink:title="An implementation of EventList using a binary search tree. ">
<polygon fill="none" stroke="#000000" points="0,-.5 0,-19.5 63,-19.5 63,-.5 0,-.5"/>
<text text-anchor="middle" x="31.5" y="-7.5" font-family="Helvetica,sans-Serif" font-size="10.00" fill="#000000">BinaryTree</text>
</a>
</g>
</g>
<!-- Node0&#45;&gt;Node2 -->
<g id="edge2" class="edge">
<title>Node0&#45;&gt;Node2</title>
<path fill="none" stroke="#191970" d="M167.2897,-53.4527C135.27,-43.2064 90.6888,-28.9404 61.4732,-19.5914"/>
<polygon fill="#191970" stroke="#191970" points="166.618,-56.9125 177.2089,-56.6269 168.7514,-50.2455 166.618,-56.9125"/>
</g>
<!-- Node3 -->
<g id="node4" class="node">
<title>Node3</title>
<g id="a_node4"><a xlink:href="classumontreal_1_1ssj_1_1simevents_1_1eventlist_1_1DoublyLinked.html" target="_top" xlink:title="An implementation of EventList using a doubly linked linear list. ">
<polygon fill="none" stroke="#000000" points="81.5,-.5 81.5,-19.5 157.5,-19.5 157.5,-.5 81.5,-.5"/>
<text text-anchor="middle" x="119.5" y="-7.5" font-family="Helvetica,sans-Serif" font-size="10.00" fill="#000000">DoublyLinked</text>
</a>
</g>
</g>
<!-- Node0&#45;&gt;Node3 -->
<g id="edge3" class="edge">
<title>Node0&#45;&gt;Node3</title>
<path fill="none" stroke="#191970" d="M182.8375,-50.769C167.4209,-40.8456 147.774,-28.1994 134.4806,-19.6427"/>
<polygon fill="#191970" stroke="#191970" points="181.0427,-53.7761 191.3458,-56.2455 184.8315,-47.89 181.0427,-53.7761"/>
</g>
<!-- Node4 -->
<g id="node5" class="node">
<title>Node4</title>
<g id="a_node5"><a xlink:href="classumontreal_1_1ssj_1_1simevents_1_1eventlist_1_1Henriksen.html" target="_top" xlink:title="An implementation of EventList using the doubly&#45;linked indexed list of Henriksen   (see also   (p...">
<polygon fill="none" stroke="#000000" points="176,-.5 176,-19.5 237,-19.5 237,-.5 176,-.5"/>
<text text-anchor="middle" x="206.5" y="-7.5" font-family="Helvetica,sans-Serif" font-size="10.00" fill="#000000">Henriksen</text>
</a>
</g>
</g>
<!-- Node0&#45;&gt;Node4 -->
<g id="edge4" class="edge">
<title>Node0&#45;&gt;Node4</title>
<path fill="none" stroke="#191970" d="M206.5,-46.1575C206.5,-37.155 206.5,-26.9199 206.5,-19.6427"/>
<polygon fill="#191970" stroke="#191970" points="203.0001,-46.2455 206.5,-56.2455 210.0001,-46.2456 203.0001,-46.2455"/>
</g>
<!-- Node5 -->
<g id="node6" class="node">
<title>Node5</title>
<g id="a_node6"><a xlink:href="classumontreal_1_1ssj_1_1simevents_1_1eventlist_1_1RedblackTree.html" target="_top" xlink:title="An implementation of EventList using a red black tree, which is similar to a binary search tree excep...">
<polygon fill="none" stroke="#000000" points="255,-.5 255,-19.5 332,-19.5 332,-.5 255,-.5"/>
<text text-anchor="middle" x="293.5" y="-7.5" font-family="Helvetica,sans-Serif" font-size="10.00" fill="#000000">RedblackTree</text>
</a>
</g>
</g>
<!-- Node0&#45;&gt;Node5 -->
<g id="edge5" class="edge">
<title>Node0&#45;&gt;Node5</title>
<path fill="none" stroke="#191970" d="M230.1625,-50.769C245.5791,-40.8456 265.226,-28.1994 278.5194,-19.6427"/>
<polygon fill="#191970" stroke="#191970" points="228.1685,-47.89 221.6542,-56.2455 231.9573,-53.7761 228.1685,-47.89"/>
</g>
<!-- Node6 -->
<g id="node7" class="node">
<title>Node6</title>
<g id="a_node7"><a xlink:href="classumontreal_1_1ssj_1_1simevents_1_1eventlist_1_1SplayTree.html" target="_top" xlink:title="An implementation of EventList using a splay tree  . ">
<polygon fill="none" stroke="#000000" points="350.5,-.5 350.5,-19.5 410.5,-19.5 410.5,-.5 350.5,-.5"/>
<text text-anchor="middle" x="380.5" y="-7.5" font-family="Helvetica,sans-Serif" font-size="10.00" fill="#000000">SplayTree</text>
</a>
</g>
</g>
<!-- Node0&#45;&gt;Node6 -->
<g id="edge6" class="edge">
<title>Node0&#45;&gt;Node6</title>
<path fill="none" stroke="#191970" d="M245.4862,-53.4527C277.323,-43.2064 321.6494,-28.9404 350.6981,-19.5914"/>
<polygon fill="#191970" stroke="#191970" points="244.0705,-50.2315 235.6237,-56.6269 246.2151,-56.8949 244.0705,-50.2315"/>
</g>
<!-- Node1 -->
<g id="node2" class="node">
<title>Node1</title>
<polygon fill="none" stroke="#bfbfbf" points="160.5,-112.5 160.5,-131.5 252.5,-131.5 252.5,-112.5 160.5,-112.5"/>
<text text-anchor="middle" x="206.5" y="-119.5" font-family="Helvetica,sans-Serif" font-size="10.00" fill="#000000">Iterable&lt; Event &gt;</text>
</g>
<!-- Node1&#45;&gt;Node0 -->
<g id="edge1" class="edge">
<title>Node1&#45;&gt;Node0</title>
<path fill="none" stroke="#191970" d="M206.5,-102.1575C206.5,-93.155 206.5,-82.9199 206.5,-75.6427"/>
<polygon fill="#191970" stroke="#191970" points="203.0001,-102.2455 206.5,-112.2455 210.0001,-102.2456 203.0001,-102.2455"/>
</g>
</g>
</svg>
