<?xml version="1.0" encoding="UTF-8" standalone="no"?>
<!DOCTYPE svg PUBLIC "-//W3C//DTD SVG 1.1//EN"
 "http://www.w3.org/Graphics/SVG/1.1/DTD/svg11.dtd">
<!-- Generated by graphviz version 2.38.0 (20140413.2041)
 -->
<!-- Title: AsianGBM Pages: 1 -->
<svg width="220pt" height="84pt"
 viewBox="0.00 0.00 220.00 84.00" xmlns="http://www.w3.org/2000/svg" xmlns:xlink="http://www.w3.org/1999/xlink">
<g id="graph0" class="graph" transform="scale(1 1) rotate(0) translate(4 80)">
<title>AsianGBM</title>
<!-- Node0 -->
<g id="node1" class="node"><title>Node0</title>
<polygon fill="#bfbfbf" stroke="black" points="68,-56.5 68,-75.5 132,-75.5 132,-56.5 68,-56.5"/>
<text text-anchor="middle" x="100" y="-63.5" font-family="Helvetica,sans-Serif" font-size="10.00">AsianGBM</text>
</g>
<!-- Node1 -->
<g id="node2" class="node"><title>Node1</title>
<g id="a_node2"><a xlink:href="classtutorial_1_1AsianGBMQMC.html" target="_top" xlink:title="AsianGBMQMC">
<polygon fill="none" stroke="black" points="0,-0.5 0,-19.5 86,-19.5 86,-0.5 0,-0.5"/>
<text text-anchor="middle" x="43" y="-7.5" font-family="Helvetica,sans-Serif" font-size="10.00">AsianGBMQMC</text>
</a>
</g>
</g>
<!-- Node0&#45;&gt;Node1 -->
<g id="edge1" class="edge"><title>Node0&#45;&gt;Node1</title>
<path fill="none" stroke="midnightblue" d="M83.3785,-49.2533C73.266,-39.6731 60.7234,-27.7906 52.3247,-19.8339"/>
<polygon fill="midnightblue" stroke="midnightblue" points="81.1753,-51.9873 90.842,-56.324 85.9895,-46.9056 81.1753,-51.9873"/>
</g>
<!-- Node2 -->
<g id="node3" class="node"><title>Node2</title>
<g id="a_node3"><a xlink:href="classtutorial_1_1NewTestAsianRQMC.html" target="_top" xlink:title="NewTestAsianRQMC">
<polygon fill="none" stroke="black" points="104,-0.5 104,-19.5 212,-19.5 212,-0.5 104,-0.5"/>
<text text-anchor="middle" x="158" y="-7.5" font-family="Helvetica,sans-Serif" font-size="10.00">NewTestAsianRQMC</text>
</a>
</g>
</g>
<!-- Node0&#45;&gt;Node2 -->
<g id="edge2" class="edge"><title>Node0&#45;&gt;Node2</title>
<path fill="none" stroke="midnightblue" d="M116.913,-49.2533C127.203,-39.6731 139.966,-27.7906 148.512,-19.8339"/>
<polygon fill="midnightblue" stroke="midnightblue" points="114.253,-46.9481 109.319,-56.324 119.023,-52.0714 114.253,-46.9481"/>
</g>
</g>
</svg>
