<?xml version="1.0" encoding="UTF-8" standalone="no"?>
<!DOCTYPE svg PUBLIC "-//W3C//DTD SVG 1.1//EN"
 "http://www.w3.org/Graphics/SVG/1.1/DTD/svg11.dtd">
<!-- Generated by graphviz version 2.38.0 (20140413.2041)
 -->
<!-- Title: BitMatrix Pages: 1 -->
<svg width="152pt" height="84pt"
 viewBox="0.00 0.00 152.00 84.00" xmlns="http://www.w3.org/2000/svg" xmlns:xlink="http://www.w3.org/1999/xlink">
<g id="graph0" class="graph" transform="scale(1 1) rotate(0) translate(4 80)">
<title>BitMatrix</title>
<!-- Node0 -->
<g id="node1" class="node"><title>Node0</title>
<polygon fill="#bfbfbf" stroke="black" points="45.5,-0.5 45.5,-19.5 101.5,-19.5 101.5,-0.5 45.5,-0.5"/>
<text text-anchor="middle" x="73.5" y="-7.5" font-family="Helvetica,sans-Serif" font-size="10.00">BitMatrix</text>
</g>
<!-- Node1 -->
<g id="node2" class="node"><title>Node1</title>
<polygon fill="none" stroke="#bfbfbf" points="0,-56.5 0,-75.5 67,-75.5 67,-56.5 0,-56.5"/>
<text text-anchor="middle" x="33.5" y="-63.5" font-family="Helvetica,sans-Serif" font-size="10.00">Serializable</text>
</g>
<!-- Node1&#45;&gt;Node0 -->
<g id="edge1" class="edge"><title>Node1&#45;&gt;Node0</title>
<path fill="none" stroke="midnightblue" d="M46.1997,-47.8554C53.126,-38.5048 61.4063,-27.3265 67.0177,-19.7511"/>
<polygon fill="midnightblue" stroke="midnightblue" points="43.245,-45.9641 40.1052,-56.083 48.87,-50.1307 43.245,-45.9641"/>
</g>
<!-- Node2 -->
<g id="node3" class="node"><title>Node2</title>
<polygon fill="none" stroke="#bfbfbf" points="85,-56.5 85,-75.5 144,-75.5 144,-56.5 85,-56.5"/>
<text text-anchor="middle" x="114.5" y="-63.5" font-family="Helvetica,sans-Serif" font-size="10.00">Cloneable</text>
</g>
<!-- Node2&#45;&gt;Node0 -->
<g id="edge2" class="edge"><title>Node2&#45;&gt;Node0</title>
<path fill="none" stroke="midnightblue" d="M101.483,-47.8554C94.3833,-38.5048 85.896,-27.3265 80.1443,-19.7511"/>
<polygon fill="midnightblue" stroke="midnightblue" points="98.895,-50.235 107.73,-56.083 104.47,-46.002 98.895,-50.235"/>
</g>
</g>
</svg>
