<?xml version="1.0" encoding="UTF-8" standalone="no"?>
<!DOCTYPE svg PUBLIC "-//W3C//DTD SVG 1.1//EN"
 "http://www.w3.org/Graphics/SVG/1.1/DTD/svg11.dtd">
<!-- Generated by graphviz version 2.38.0 (20140413.2041)
 -->
<!-- Title: Nonuniform Pages: 1 -->
<svg width="252pt" height="231pt"
 viewBox="0.00 0.00 252.38 231.00" xmlns="http://www.w3.org/2000/svg" xmlns:xlink="http://www.w3.org/1999/xlink">
<g id="graph0" class="graph" transform="scale(1 1) rotate(0) translate(4 227)">
<title>Nonuniform</title>
<!-- Node1 -->
<g id="node1" class="node"><title>Node1</title>
<polygon fill="#bfbfbf" stroke="black" points="70.3837,-0.5 70.3837,-19.5 144.384,-19.5 144.384,-0.5 70.3837,-0.5"/>
<text text-anchor="middle" x="107.384" y="-7.5" font-family="Helvetica,sans-Serif" font-size="10.00">Nonuniform</text>
</g>
<!-- Node2 -->
<g id="node2" class="node"><title>Node2</title>
<g id="a_node2"><a xlink:href="classumontreal_1_1ssj_1_1randvar_1_1RandomVariateGen.html" target="_top" xlink:title="This is the base class for all random variate generators over the real line. ">
<polygon fill="none" stroke="black" points="43.3837,-136.5 43.3837,-155.5 155.384,-155.5 155.384,-136.5 43.3837,-136.5"/>
<text text-anchor="middle" x="99.3837" y="-143.5" font-family="Helvetica,sans-Serif" font-size="10.00">RandomVariateGen</text>
</a>
</g>
</g>
<!-- Node2&#45;&gt;Node1 -->
<g id="edge1" class="edge"><title>Node2&#45;&gt;Node1</title>
<path fill="none" stroke="#9a32cd" stroke-dasharray="5,2" d="M62.3676,-132.861C28.7401,-119.666 -13.1357,-96.4664 4.38368,-67 19.2064,-42.0692 49.4417,-27.5418 73.3382,-19.5608"/>
<polygon fill="#9a32cd" stroke="#9a32cd" points="61.4273,-136.246 72.0197,-136.472 63.8804,-129.69 61.4273,-136.246"/>
<text text-anchor="middle" x="19.8837" y="-81" font-family="Helvetica,sans-Serif" font-size="10.00"> genW</text>
<text text-anchor="middle" x="19.8837" y="-70" font-family="Helvetica,sans-Serif" font-size="10.00">genY</text>
</g>
<!-- Node5 -->
<g id="node5" class="node"><title>Node5</title>
<g id="a_node5"><a xlink:href="classumontreal_1_1ssj_1_1randvar_1_1RandomVariateGenInt.html" target="_top" xlink:title="This is the base class for all generators of discrete random variates over the set of integers...">
<polygon fill="none" stroke="black" points="44.8837,-68.5 44.8837,-87.5 169.884,-87.5 169.884,-68.5 44.8837,-68.5"/>
<text text-anchor="middle" x="107.384" y="-75.5" font-family="Helvetica,sans-Serif" font-size="10.00">RandomVariateGenInt</text>
</a>
</g>
</g>
<!-- Node2&#45;&gt;Node5 -->
<g id="edge5" class="edge"><title>Node2&#45;&gt;Node5</title>
<path fill="none" stroke="midnightblue" d="M101.635,-126.425C103.166,-113.798 105.122,-97.6623 106.312,-87.8411"/>
<polygon fill="midnightblue" stroke="midnightblue" points="98.1584,-126.023 100.43,-136.372 105.108,-126.866 98.1584,-126.023"/>
</g>
<!-- Node3 -->
<g id="node3" class="node"><title>Node3</title>
<g id="a_node3"><a xlink:href="interfaceumontreal_1_1ssj_1_1probdist_1_1Distribution.html" target="_top" xlink:title="This interface should be implemented by all classes supporting discrete and continuous distributions...">
<polygon fill="none" stroke="black" points="60.3837,-203.5 60.3837,-222.5 134.384,-222.5 134.384,-203.5 60.3837,-203.5"/>
<text text-anchor="middle" x="97.3837" y="-210.5" font-family="Helvetica,sans-Serif" font-size="10.00">Distribution</text>
</a>
</g>
</g>
<!-- Node3&#45;&gt;Node2 -->
<g id="edge2" class="edge"><title>Node3&#45;&gt;Node2</title>
<path fill="none" stroke="#9a32cd" stroke-dasharray="5,2" d="M97.9672,-193.037C98.3477,-180.67 98.8261,-165.12 99.1182,-155.627"/>
<polygon fill="#9a32cd" stroke="#9a32cd" points="94.4627,-193.131 97.6534,-203.234 101.459,-193.346 94.4627,-193.131"/>
<text text-anchor="middle" x="110.384" y="-177" font-family="Helvetica,sans-Serif" font-size="10.00"> dist</text>
</g>
<!-- Node4 -->
<g id="node4" class="node"><title>Node4</title>
<g id="a_node4"><a xlink:href="interfaceumontreal_1_1ssj_1_1rng_1_1RandomStream.html" target="_top" xlink:title="This interface defines the basic structures to handle multiple streams of uniform (pseudo)random numb...">
<polygon fill="none" stroke="black" points="152.384,-203.5 152.384,-222.5 244.384,-222.5 244.384,-203.5 152.384,-203.5"/>
<text text-anchor="middle" x="198.384" y="-210.5" font-family="Helvetica,sans-Serif" font-size="10.00">RandomStream</text>
</a>
</g>
</g>
<!-- Node4&#45;&gt;Node1 -->
<g id="edge6" class="edge"><title>Node4&#45;&gt;Node1</title>
<path fill="none" stroke="#9a32cd" stroke-dasharray="5,2" d="M200.074,-193.108C201.782,-163.995 201.467,-107.315 178.384,-67 165.902,-45.2018 141.288,-28.7764 124.583,-19.5226"/>
<polygon fill="#9a32cd" stroke="#9a32cd" points="196.556,-193.225 199.308,-203.456 203.537,-193.742 196.556,-193.225"/>
<text text-anchor="middle" x="215.384" y="-110" font-family="Helvetica,sans-Serif" font-size="10.00"> stream</text>
</g>
<!-- Node4&#45;&gt;Node2 -->
<g id="edge3" class="edge"><title>Node4&#45;&gt;Node2</title>
<path fill="none" stroke="#9a32cd" stroke-dasharray="5,2" d="M170.574,-198.867C162.577,-194.744 153.97,-189.964 146.384,-185 132.686,-176.037 118.23,-163.887 109.026,-155.762"/>
<polygon fill="#9a32cd" stroke="#9a32cd" points="169.075,-202.03 179.584,-203.376 172.208,-195.771 169.075,-202.03"/>
<text text-anchor="middle" x="165.384" y="-177" font-family="Helvetica,sans-Serif" font-size="10.00"> stream</text>
</g>
<!-- Node5&#45;&gt;Node1 -->
<g id="edge4" class="edge"><title>Node5&#45;&gt;Node1</title>
<path fill="none" stroke="#9a32cd" stroke-dasharray="5,2" d="M107.384,-58.0413C107.384,-45.4724 107.384,-29.5631 107.384,-19.8411"/>
<polygon fill="#9a32cd" stroke="#9a32cd" points="103.884,-58.3716 107.384,-68.3717 110.884,-58.3717 103.884,-58.3716"/>
<text text-anchor="middle" x="121.884" y="-41" font-family="Helvetica,sans-Serif" font-size="10.00"> genN</text>
</g>
</g>
</svg>
