<?xml version="1.0" encoding="UTF-8" standalone="no"?>
<!DOCTYPE svg PUBLIC "-//W3C//DTD SVG 1.1//EN"
 "http://www.w3.org/Graphics/SVG/1.1/DTD/svg11.dtd">
<!-- Generated by graphviz version 2.38.0 (20140413.2041)
 -->
<!-- Title: DigitalNetBase2 Pages: 1 -->
<svg width="117pt" height="209pt"
 viewBox="0.00 0.00 117.00 209.00" xmlns="http://www.w3.org/2000/svg" xmlns:xlink="http://www.w3.org/1999/xlink">
<g id="graph0" class="graph" transform="scale(1 1) rotate(0) translate(4 205)">
<title>DigitalNetBase2</title>
<!-- Node1 -->
<g id="node1" class="node"><title>Node1</title>
<polygon fill="#bfbfbf" stroke="black" points="0,-0.5 0,-19.5 96,-19.5 96,-0.5 0,-0.5"/>
<text text-anchor="middle" x="48" y="-7.5" font-family="Helvetica,sans-Serif" font-size="10.00">DigitalNetBase2</text>
</g>
<!-- Node2 -->
<g id="node2" class="node"><title>Node2</title>
<g id="a_node2"><a xlink:href="classumontreal_1_1ssj_1_1hups_1_1DigitalNet.html" target="_top" xlink:title="This class provides the basic structures for storing and manipulating linear digital nets in base ...">
<polygon fill="none" stroke="black" points="15,-57.5 15,-76.5 81,-76.5 81,-57.5 15,-57.5"/>
<text text-anchor="middle" x="48" y="-64.5" font-family="Helvetica,sans-Serif" font-size="10.00">DigitalNet</text>
</a>
</g>
</g>
<!-- Node2&#45;&gt;Node1 -->
<g id="edge1" class="edge"><title>Node2&#45;&gt;Node1</title>
<path fill="none" stroke="midnightblue" d="M48,-47.1166C48,-37.8173 48,-27.0557 48,-19.7149"/>
<polygon fill="midnightblue" stroke="midnightblue" points="44.5001,-47.4062 48,-57.4062 51.5001,-47.4063 44.5001,-47.4062"/>
</g>
<!-- Node3 -->
<g id="node3" class="node"><title>Node3</title>
<g id="a_node3"><a xlink:href="classumontreal_1_1ssj_1_1hups_1_1PointSet.html" target="_top" xlink:title="This abstract class defines the basic methods for accessing and manipulating point sets...">
<polygon fill="none" stroke="black" points="19.5,-114.5 19.5,-133.5 76.5,-133.5 76.5,-114.5 19.5,-114.5"/>
<text text-anchor="middle" x="48" y="-121.5" font-family="Helvetica,sans-Serif" font-size="10.00">PointSet</text>
</a>
</g>
</g>
<!-- Node3&#45;&gt;Node2 -->
<g id="edge2" class="edge"><title>Node3&#45;&gt;Node2</title>
<path fill="none" stroke="midnightblue" d="M48,-104.117C48,-94.8173 48,-84.0557 48,-76.7149"/>
<polygon fill="midnightblue" stroke="midnightblue" points="44.5001,-104.406 48,-114.406 51.5001,-104.406 44.5001,-104.406"/>
</g>
<!-- Node4 -->
<g id="node4" class="node"><title>Node4</title>
<g id="a_node4"><a xlink:href="interfaceumontreal_1_1ssj_1_1rng_1_1RandomStream.html" target="_top" xlink:title="This interface defines the basic structures to handle multiple streams of uniform (pseudo)random numb...">
<polygon fill="none" stroke="black" points="2,-181.5 2,-200.5 94,-200.5 94,-181.5 2,-181.5"/>
<text text-anchor="middle" x="48" y="-188.5" font-family="Helvetica,sans-Serif" font-size="10.00">RandomStream</text>
</a>
</g>
</g>
<!-- Node4&#45;&gt;Node3 -->
<g id="edge3" class="edge"><title>Node4&#45;&gt;Node3</title>
<path fill="none" stroke="#9a32cd" stroke-dasharray="5,2" d="M48,-171.037C48,-158.67 48,-143.12 48,-133.627"/>
<polygon fill="#9a32cd" stroke="#9a32cd" points="44.5001,-171.234 48,-181.234 51.5001,-171.234 44.5001,-171.234"/>
<text text-anchor="middle" x="78.5" y="-155" font-family="Helvetica,sans-Serif" font-size="10.00"> shiftStream</text>
</g>
</g>
</svg>
