<?xml version="1.0" encoding="UTF-8" standalone="no"?>
<!DOCTYPE svg PUBLIC "-//W3C//DTD SVG 1.1//EN"
 "http://www.w3.org/Graphics/SVG/1.1/DTD/svg11.dtd">
<!-- Generated by graphviz version 2.26.3 (20100126.1600)
 -->
<!-- Title: VarianceGammaProcessDiff Pages: 1 -->
<svg width="344pt" height="372pt"
 viewBox="0.00 0.00 344.00 372.00" xmlns="http://www.w3.org/2000/svg" xmlns:xlink="http://www.w3.org/1999/xlink">
<g id="graph1" class="graph" transform="scale(1 1) rotate(0) translate(4 368)">
<title>VarianceGammaProcessDiff</title>
<!-- Node1 -->
<g id="node1" class="node"><title>Node1</title>
<polygon fill="#bfbfbf" stroke="black" points="134,-1 134,-21 274,-21 274,-1 134,-1"/>
<text text-anchor="middle" x="204" y="-8" font-family="Helvetica,sans-Serif" font-size="10.00">VarianceGammaProcessDiff</text>
</g>
<!-- Node2 -->
<g id="node2" class="node"><title>Node2</title>
<a xlink:href="classumontreal_1_1ssj_1_1stochprocess_1_1VarianceGammaProcess.html" target="_top" xlink:title="This class represents a variance gamma (VG) process . ">
<polygon fill="none" stroke="black" points="69.5,-62 69.5,-82 194.5,-82 194.5,-62 69.5,-62"/>
<text text-anchor="middle" x="132" y="-69" font-family="Helvetica,sans-Serif" font-size="10.00">VarianceGammaProcess</text>
</a>
</g>
<!-- Node2&#45;&gt;Node1 -->
<g id="edge2" class="edge"><title>Node2&#45;&gt;Node1</title>
<path fill="none" stroke="midnightblue" d="M151.727,-55.2869C164.561,-44.4138 180.889,-30.5798 191.852,-21.2918"/>
<polygon fill="midnightblue" stroke="midnightblue" points="149.257,-52.7924 143.889,-61.9271 153.782,-58.1333 149.257,-52.7924"/>
</g>
<!-- Node3 -->
<g id="node4" class="node"><title>Node3</title>
<a xlink:href="classumontreal_1_1ssj_1_1stochprocess_1_1StochasticProcess.html" target="_top" xlink:title="Abstract base class for a stochastic process &#160;sampled (or observed) at a finite number of time points...">
<polygon fill="none" stroke="black" points="81.5,-203 81.5,-223 180.5,-223 180.5,-203 81.5,-203"/>
<text text-anchor="middle" x="131" y="-210" font-family="Helvetica,sans-Serif" font-size="10.00">StochasticProcess</text>
</a>
</g>
<!-- Node3&#45;&gt;Node2 -->
<g id="edge4" class="edge"><title>Node3&#45;&gt;Node2</title>
<path fill="none" stroke="midnightblue" d="M86.8578,-197.837C81.3554,-194.144 76.4569,-189.593 73,-184 70.1961,-179.463 72.6686,-177.323 73,-172 74.1133,-154.118 70.5543,-148.296 78,-132 87.3185,-111.605 106.083,-93.2665 118.845,-82.3804"/>
<polygon fill="midnightblue" stroke="midnightblue" points="85.4569,-201.066 95.8812,-202.959 88.9129,-194.978 85.4569,-201.066"/>
</g>
<!-- Node4 -->
<g id="node6" class="node"><title>Node4</title>
<a xlink:href="classumontreal_1_1ssj_1_1stochprocess_1_1BrownianMotion.html" target="_top" xlink:title="This class represents a Brownian motion process , sampled at times . ">
<polygon fill="none" stroke="black" points="87,-133 87,-153 173,-153 173,-133 87,-133"/>
<text text-anchor="middle" x="130" y="-140" font-family="Helvetica,sans-Serif" font-size="10.00">BrownianMotion</text>
</a>
</g>
<!-- Node3&#45;&gt;Node4 -->
<g id="edge8" class="edge"><title>Node3&#45;&gt;Node4</title>
<path fill="none" stroke="midnightblue" d="M130.709,-192.613C130.523,-179.597 130.29,-163.296 130.143,-153.011"/>
<polygon fill="midnightblue" stroke="midnightblue" points="127.214,-193.022 130.857,-202.971 134.213,-192.922 127.214,-193.022"/>
</g>
<!-- Node9 -->
<g id="node17" class="node"><title>Node9</title>
<a xlink:href="classumontreal_1_1ssj_1_1stochprocess_1_1GammaProcess.html" target="_top" xlink:title="This class represents a gamma process   (page 82) &#160;with mean parameter &#160;and variance parameter ...">
<polygon fill="none" stroke="black" points="190.5,-133 190.5,-153 277.5,-153 277.5,-133 190.5,-133"/>
<text text-anchor="middle" x="234" y="-140" font-family="Helvetica,sans-Serif" font-size="10.00">GammaProcess</text>
</a>
</g>
<!-- Node3&#45;&gt;Node9 -->
<g id="edge20" class="edge"><title>Node3&#45;&gt;Node9</title>
<path fill="none" stroke="midnightblue" d="M154.272,-197.184C174.205,-183.637 202.302,-164.542 219.27,-153.011"/>
<polygon fill="midnightblue" stroke="midnightblue" points="152.061,-194.455 145.757,-202.971 155.995,-200.245 152.061,-194.455"/>
</g>
<!-- Node4&#45;&gt;Node2 -->
<g id="edge6" class="edge"><title>Node4&#45;&gt;Node2</title>
<path fill="none" stroke="#9a32cd" stroke-dasharray="5,2" d="M125.625,-122.739C124.707,-116.129 124.222,-108.754 125,-102 125.771,-95.3054 127.478,-87.9334 129.014,-82.1725"/>
<polygon fill="#9a32cd" stroke="#9a32cd" points="122.234,-123.663 127.433,-132.895 129.126,-122.436 122.234,-123.663"/>
<text text-anchor="middle" x="134.5" y="-105" font-family="Helvetica,sans-Serif" font-size="10.00"> BM</text>
</g>
<!-- Node5 -->
<g id="node9" class="node"><title>Node5</title>
<a xlink:href="classumontreal_1_1ssj_1_1randvar_1_1NormalGen.html" target="_top" xlink:title="This class implements methods for generating random variates from the normal distribution ...">
<polygon fill="none" stroke="black" points="-0.5,-203 -0.5,-223 64.5,-223 64.5,-203 -0.5,-203"/>
<text text-anchor="middle" x="32" y="-210" font-family="Helvetica,sans-Serif" font-size="10.00">NormalGen</text>
</a>
</g>
<!-- Node5&#45;&gt;Node4 -->
<g id="edge10" class="edge"><title>Node5&#45;&gt;Node4</title>
<path fill="none" stroke="#9a32cd" stroke-dasharray="5,2" d="M54.3991,-197.001C73.3483,-183.465 99.9136,-164.49 115.985,-153.011"/>
<polygon fill="#9a32cd" stroke="#9a32cd" points="52.144,-194.31 46.041,-202.971 56.2127,-200.006 52.144,-194.31"/>
<text text-anchor="middle" x="96.5" y="-175" font-family="Helvetica,sans-Serif" font-size="10.00"> gen</text>
</g>
<!-- Node6 -->
<g id="node11" class="node"><title>Node6</title>
<a xlink:href="classumontreal_1_1ssj_1_1randvar_1_1RandomVariateGen.html" target="_top" xlink:title="This is the base class for all random variate generators over the real line. ">
<polygon fill="none" stroke="black" points="158.5,-273 158.5,-293 259.5,-293 259.5,-273 158.5,-273"/>
<text text-anchor="middle" x="209" y="-280" font-family="Helvetica,sans-Serif" font-size="10.00">RandomVariateGen</text>
</a>
</g>
<!-- Node6&#45;&gt;Node5 -->
<g id="edge12" class="edge"><title>Node6&#45;&gt;Node5</title>
<path fill="none" stroke="midnightblue" d="M173.993,-269.155C139.586,-255.548 87.9158,-235.114 57.3127,-223.011"/>
<polygon fill="midnightblue" stroke="midnightblue" points="173.054,-272.548 183.64,-272.971 175.628,-266.038 173.054,-272.548"/>
</g>
<!-- Node10 -->
<g id="node20" class="node"><title>Node10</title>
<a xlink:href="classumontreal_1_1ssj_1_1randvar_1_1GammaGen.html" target="_top" xlink:title="This class implements random variate generators for the gamma distribution. ">
<polygon fill="none" stroke="black" points="197.5,-203 197.5,-223 266.5,-223 266.5,-203 197.5,-203"/>
<text text-anchor="middle" x="232" y="-210" font-family="Helvetica,sans-Serif" font-size="10.00">GammaGen</text>
</a>
</g>
<!-- Node6&#45;&gt;Node10 -->
<g id="edge24" class="edge"><title>Node6&#45;&gt;Node10</title>
<path fill="none" stroke="midnightblue" d="M215.441,-263.397C219.758,-250.258 225.263,-233.503 228.711,-223.011"/>
<polygon fill="midnightblue" stroke="midnightblue" points="212.092,-262.378 212.295,-272.971 218.742,-264.563 212.092,-262.378"/>
</g>
<!-- Node7 -->
<g id="node13" class="node"><title>Node7</title>
<a xlink:href="interfaceumontreal_1_1ssj_1_1probdist_1_1Distribution.html" target="_top" xlink:title="This interface should be implemented by all classes supporting discrete and continuous distributions...">
<polygon fill="none" stroke="black" points="169.5,-343 169.5,-363 234.5,-363 234.5,-343 169.5,-343"/>
<text text-anchor="middle" x="202" y="-350" font-family="Helvetica,sans-Serif" font-size="10.00">Distribution</text>
</a>
</g>
<!-- Node7&#45;&gt;Node6 -->
<g id="edge14" class="edge"><title>Node7&#45;&gt;Node6</title>
<path fill="none" stroke="#9a32cd" stroke-dasharray="5,2" d="M202.5,-332.694C202.794,-326.081 203.26,-318.716 204,-312 204.694,-305.703 205.889,-298.702 206.936,-293.157"/>
<polygon fill="#9a32cd" stroke="#9a32cd" points="198.996,-332.749 202.151,-342.863 205.992,-332.989 198.996,-332.749"/>
<text text-anchor="middle" x="213.5" y="-315" font-family="Helvetica,sans-Serif" font-size="10.00"> dist</text>
</g>
<!-- Node8 -->
<g id="node15" class="node"><title>Node8</title>
<a xlink:href="interfaceumontreal_1_1ssj_1_1rng_1_1RandomStream.html" target="_top" xlink:title="This interface defines the basic structures to handle multiple streams of uniform (pseudo)random numb...">
<polygon fill="none" stroke="black" points="252,-343 252,-363 336,-363 336,-343 252,-343"/>
<text text-anchor="middle" x="294" y="-350" font-family="Helvetica,sans-Serif" font-size="10.00">RandomStream</text>
</a>
</g>
<!-- Node8&#45;&gt;Node6 -->
<g id="edge16" class="edge"><title>Node8&#45;&gt;Node6</title>
<path fill="none" stroke="#9a32cd" stroke-dasharray="5,2" d="M265.588,-337.718C258.904,-333.62 251.988,-328.943 246,-324 234.761,-314.723 223.824,-302.008 216.793,-293.209"/>
<polygon fill="#9a32cd" stroke="#9a32cd" points="264.053,-340.876 274.45,-342.917 267.596,-334.838 264.053,-340.876"/>
<text text-anchor="middle" x="263" y="-315" font-family="Helvetica,sans-Serif" font-size="10.00"> stream</text>
</g>
<!-- Node8&#45;&gt;Node9 -->
<g id="edge26" class="edge"><title>Node8&#45;&gt;Node9</title>
<path fill="none" stroke="#9a32cd" stroke-dasharray="5,2" d="M292.914,-332.812C291.017,-303.603 286.178,-248.013 275,-202 271.648,-188.2 271.746,-183.903 264,-172 259.417,-164.957 252.827,-158.342 246.991,-153.214"/>
<polygon fill="#9a32cd" stroke="#9a32cd" points="289.431,-333.193 293.522,-342.965 296.418,-332.774 289.431,-333.193"/>
<text text-anchor="middle" x="301" y="-245" font-family="Helvetica,sans-Serif" font-size="10.00"> stream</text>
</g>
<!-- Node9&#45;&gt;Node1 -->
<g id="edge28" class="edge"><title>Node9&#45;&gt;Node1</title>
<path fill="none" stroke="#9a32cd" stroke-dasharray="5,2" d="M229.594,-122.723C228.146,-116.112 226.518,-108.741 225,-102 218.376,-72.5787 210.292,-37.8719 206.366,-21.0915"/>
<polygon fill="#9a32cd" stroke="#9a32cd" points="226.26,-123.86 231.811,-132.884 233.099,-122.367 226.26,-123.86"/>
<text text-anchor="middle" x="232.5" y="-75" font-family="Helvetica,sans-Serif" font-size="10.00"> gneg</text>
<text text-anchor="middle" x="232.5" y="-63" font-family="Helvetica,sans-Serif" font-size="10.00">gpos</text>
</g>
<!-- Node9&#45;&gt;Node2 -->
<g id="edge18" class="edge"><title>Node9&#45;&gt;Node2</title>
<path fill="none" stroke="#9a32cd" stroke-dasharray="5,2" d="M193.327,-129.014C184.212,-124.919 174.909,-119.917 167,-114 155.144,-105.13 144.74,-91.4744 138.422,-82.1591"/>
<polygon fill="#9a32cd" stroke="#9a32cd" points="192.116,-132.302 202.691,-132.955 194.831,-125.85 192.116,-132.302"/>
<text text-anchor="middle" x="196" y="-105" font-family="Helvetica,sans-Serif" font-size="10.00"> randomTime</text>
</g>
<!-- Node10&#45;&gt;Node9 -->
<g id="edge22" class="edge"><title>Node10&#45;&gt;Node9</title>
<path fill="none" stroke="#9a32cd" stroke-dasharray="5,2" d="M232.582,-192.613C232.954,-179.597 233.42,-163.296 233.714,-153.011"/>
<polygon fill="#9a32cd" stroke="#9a32cd" points="229.074,-192.875 232.287,-202.971 236.071,-193.075 229.074,-192.875"/>
<text text-anchor="middle" x="246.5" y="-175" font-family="Helvetica,sans-Serif" font-size="10.00"> Ggen</text>
</g>
</g>
</svg>
