<?xml version="1.0" encoding="UTF-8" standalone="no"?>
<!DOCTYPE svg PUBLIC "-//W3C//DTD SVG 1.1//EN"
 "http://www.w3.org/Graphics/SVG/1.1/DTD/svg11.dtd">
<!-- Generated by graphviz version 2.38.0 (20140413.2041)
 -->
<!-- Title: Polynomial Pages: 1 -->
<svg width="505pt" height="208pt"
 viewBox="0.00 0.00 505.00 208.30" xmlns="http://www.w3.org/2000/svg" xmlns:xlink="http://www.w3.org/1999/xlink">
<g id="graph0" class="graph" transform="scale(1 1) rotate(0) translate(4 204.303)">
<title>Polynomial</title>
<!-- Node1 -->
<g id="node1" class="node"><title>Node1</title>
<polygon fill="#bfbfbf" stroke="black" points="330,-95.5 330,-114.5 401,-114.5 401,-95.5 330,-95.5"/>
<text text-anchor="middle" x="365.5" y="-102.5" font-family="Helvetica,sans-Serif" font-size="10.00">Polynomial</text>
</g>
<!-- Node8 -->
<g id="node8" class="node"><title>Node8</title>
<g id="a_node8"><a xlink:href="classumontreal_1_1ssj_1_1functionfit_1_1PolInterp.html" target="_top" xlink:title="Represents a polynomial that interpolates through a set of points. ">
<polygon fill="none" stroke="black" points="437,-95.5 437,-114.5 497,-114.5 497,-95.5 437,-95.5"/>
<text text-anchor="middle" x="467" y="-102.5" font-family="Helvetica,sans-Serif" font-size="10.00">PolInterp</text>
</a>
</g>
</g>
<!-- Node1&#45;&gt;Node8 -->
<g id="edge10" class="edge"><title>Node1&#45;&gt;Node8</title>
<path fill="none" stroke="midnightblue" d="M411.1,-105C419.825,-105 428.764,-105 436.827,-105"/>
<polygon fill="midnightblue" stroke="midnightblue" points="411.021,-101.5 401.021,-105 411.021,-108.5 411.021,-101.5"/>
</g>
<!-- Node2 -->
<g id="node2" class="node"><title>Node2</title>
<g id="a_node2"><a xlink:href="interfaceumontreal_1_1ssj_1_1functions_1_1MathFunction.html" target="_top" xlink:title="This interface should be implemented by classes which represent univariate mathematical functions...">
<polygon fill="none" stroke="black" points="0,-133.5 0,-152.5 82,-152.5 82,-133.5 0,-133.5"/>
<text text-anchor="middle" x="41" y="-140.5" font-family="Helvetica,sans-Serif" font-size="10.00">MathFunction</text>
</a>
</g>
</g>
<!-- Node2&#45;&gt;Node1 -->
<g id="edge1" class="edge"><title>Node2&#45;&gt;Node1</title>
<path fill="none" stroke="midnightblue" d="M64.8569,-157.947C79.4138,-166.552 99.0384,-176.524 118,-181 194.13,-198.972 222.306,-212.285 294,-181 325.506,-167.252 349.243,-131.713 359.266,-114.552"/>
<polygon fill="midnightblue" stroke="midnightblue" points="66.4344,-154.809 56.0807,-152.561 62.7728,-160.775 66.4344,-154.809"/>
</g>
<!-- Node3 -->
<g id="node3" class="node"><title>Node3</title>
<g id="a_node3"><a xlink:href="interfaceumontreal_1_1ssj_1_1functions_1_1MathFunctionWithFirstDerivative.html" target="_top" xlink:title="Represents a mathematical function whose derivative can be computed using derivative(double). ">
<polygon fill="none" stroke="black" points="118,-152.5 118,-171.5 294,-171.5 294,-152.5 118,-152.5"/>
<text text-anchor="middle" x="206" y="-159.5" font-family="Helvetica,sans-Serif" font-size="10.00">MathFunctionWithFirstDerivative</text>
</a>
</g>
</g>
<!-- Node2&#45;&gt;Node3 -->
<g id="edge3" class="edge"><title>Node2&#45;&gt;Node3</title>
<path fill="none" stroke="midnightblue" d="M92.3119,-148.865C102.207,-150.018 112.824,-151.256 123.442,-152.493"/>
<polygon fill="midnightblue" stroke="midnightblue" points="92.6302,-145.378 82.2921,-147.697 91.8196,-152.331 92.6302,-145.378"/>
</g>
<!-- Node4 -->
<g id="node4" class="node"><title>Node4</title>
<g id="a_node4"><a xlink:href="interfaceumontreal_1_1ssj_1_1functions_1_1MathFunctionWithDerivative.html" target="_top" xlink:title="Represents a mathematical function whose th derivative can be computed using derivative(double,int). ">
<polygon fill="none" stroke="black" points="128.5,-114.5 128.5,-133.5 283.5,-133.5 283.5,-114.5 128.5,-114.5"/>
<text text-anchor="middle" x="206" y="-121.5" font-family="Helvetica,sans-Serif" font-size="10.00">MathFunctionWithDerivative</text>
</a>
</g>
</g>
<!-- Node2&#45;&gt;Node4 -->
<g id="edge5" class="edge"><title>Node2&#45;&gt;Node4</title>
<path fill="none" stroke="midnightblue" d="M92.4317,-137.121C103.797,-135.797 116.11,-134.361 128.28,-132.943"/>
<polygon fill="midnightblue" stroke="midnightblue" points="91.8196,-133.669 82.2921,-138.303 92.6302,-140.622 91.8196,-133.669"/>
</g>
<!-- Node5 -->
<g id="node5" class="node"><title>Node5</title>
<g id="a_node5"><a xlink:href="interfaceumontreal_1_1ssj_1_1functions_1_1MathFunctionWithIntegral.html" target="_top" xlink:title="Represents a mathematical function whose integral can be computed by the integral(double,double) method. ">
<polygon fill="none" stroke="black" points="135,-76.5 135,-95.5 277,-95.5 277,-76.5 135,-76.5"/>
<text text-anchor="middle" x="206" y="-83.5" font-family="Helvetica,sans-Serif" font-size="10.00">MathFunctionWithIntegral</text>
</a>
</g>
</g>
<!-- Node2&#45;&gt;Node5 -->
<g id="edge7" class="edge"><title>Node2&#45;&gt;Node5</title>
<path fill="none" stroke="midnightblue" d="M66.9367,-128.555C81.4471,-120.659 100.313,-111.243 118,-105 128.497,-101.295 139.971,-98.1709 151.042,-95.5944"/>
<polygon fill="midnightblue" stroke="midnightblue" points="65.1253,-125.558 58.0864,-133.477 68.5271,-131.676 65.1253,-125.558"/>
</g>
<!-- Node3&#45;&gt;Node1 -->
<g id="edge2" class="edge"><title>Node3&#45;&gt;Node1</title>
<path fill="none" stroke="midnightblue" d="M271.877,-149.942C279.426,-147.92 286.944,-145.613 294,-143 314.21,-135.515 335.792,-123.163 349.675,-114.582"/>
<polygon fill="midnightblue" stroke="midnightblue" points="270.813,-146.6 261.971,-152.437 272.523,-153.388 270.813,-146.6"/>
</g>
<!-- Node4&#45;&gt;Node1 -->
<g id="edge4" class="edge"><title>Node4&#45;&gt;Node1</title>
<path fill="none" stroke="midnightblue" d="M294.072,-113.496C306.705,-111.972 319.049,-110.483 329.784,-109.188"/>
<polygon fill="midnightblue" stroke="midnightblue" points="293.413,-110.05 283.904,-114.723 294.252,-117 293.413,-110.05"/>
</g>
<!-- Node5&#45;&gt;Node1 -->
<g id="edge6" class="edge"><title>Node5&#45;&gt;Node1</title>
<path fill="none" stroke="midnightblue" d="M287.723,-95.738C302.566,-97.5286 317.315,-99.3078 329.86,-100.821"/>
<polygon fill="midnightblue" stroke="midnightblue" points="287.805,-92.2226 277.458,-94.4997 286.967,-99.1723 287.805,-92.2226"/>
</g>
<!-- Node6 -->
<g id="node6" class="node"><title>Node6</title>
<polygon fill="none" stroke="#bfbfbf" points="169,-38.5 169,-57.5 243,-57.5 243,-38.5 169,-38.5"/>
<text text-anchor="middle" x="206" y="-45.5" font-family="Helvetica,sans-Serif" font-size="10.00">Serializable</text>
</g>
<!-- Node6&#45;&gt;Node1 -->
<g id="edge8" class="edge"><title>Node6&#45;&gt;Node1</title>
<path fill="none" stroke="midnightblue" d="M253.18,-55.5826C266.569,-58.4478 281.061,-62.2079 294,-67 314.21,-74.4849 335.792,-86.8366 349.675,-95.4177"/>
<polygon fill="midnightblue" stroke="midnightblue" points="253.696,-52.1161 243.201,-53.5637 252.308,-58.9772 253.696,-52.1161"/>
</g>
<!-- Node7 -->
<g id="node7" class="node"><title>Node7</title>
<polygon fill="none" stroke="#bfbfbf" points="173.5,-0.5 173.5,-19.5 238.5,-19.5 238.5,-0.5 173.5,-0.5"/>
<text text-anchor="middle" x="206" y="-7.5" font-family="Helvetica,sans-Serif" font-size="10.00">Cloneable</text>
</g>
<!-- Node7&#45;&gt;Node1 -->
<g id="edge9" class="edge"><title>Node7&#45;&gt;Node1</title>
<path fill="none" stroke="midnightblue" d="M248.899,-13.8986C263.856,-16.6132 280.366,-21.2122 294,-29 323.38,-45.7816 347.629,-78.9025 358.439,-95.314"/>
<polygon fill="midnightblue" stroke="midnightblue" points="249.271,-10.4139 238.847,-12.3042 248.175,-17.3275 249.271,-10.4139"/>
</g>
</g>
</svg>
