<?xml version="1.0" encoding="UTF-8" standalone="no"?>
<!DOCTYPE svg PUBLIC "-//W3C//DTD SVG 1.1//EN"
 "http://www.w3.org/Graphics/SVG/1.1/DTD/svg11.dtd">
<!-- Generated by graphviz version 2.38.0 (20140413.2041)
 -->
<!-- Title: Accumulate Pages: 1 -->
<svg width="156pt" height="84pt"
 viewBox="0.00 0.00 155.50 84.00" xmlns="http://www.w3.org/2000/svg" xmlns:xlink="http://www.w3.org/1999/xlink">
<g id="graph0" class="graph" transform="scale(1 1) rotate(0) translate(4 80)">
<title>Accumulate</title>
<!-- Node1 -->
<g id="node1" class="node"><title>Node1</title>
<polygon fill="#bfbfbf" stroke="black" points="36,-0.5 36,-19.5 110,-19.5 110,-0.5 36,-0.5"/>
<text text-anchor="middle" x="73" y="-7.5" font-family="Helvetica,sans-Serif" font-size="10.00">Accumulate</text>
</g>
<!-- Node2 -->
<g id="node2" class="node"><title>Node2</title>
<g id="a_node2"><a xlink:href="classumontreal_1_1ssj_1_1stat_1_1StatProbe.html" target="_top" xlink:title="The objects of this class are statistical probes or collectors, which are elementary devices for coll...">
<polygon fill="none" stroke="black" points="0,-56.5 0,-75.5 64,-75.5 64,-56.5 0,-56.5"/>
<text text-anchor="middle" x="32" y="-63.5" font-family="Helvetica,sans-Serif" font-size="10.00">StatProbe</text>
</a>
</g>
</g>
<!-- Node2&#45;&gt;Node1 -->
<g id="edge1" class="edge"><title>Node2&#45;&gt;Node1</title>
<path fill="none" stroke="midnightblue" d="M45.0172,-47.8554C52.1167,-38.5048 60.604,-27.3265 66.3557,-19.7511"/>
<polygon fill="midnightblue" stroke="midnightblue" points="42.0299,-46.002 38.7703,-56.083 47.605,-50.235 42.0299,-46.002"/>
</g>
<!-- Node3 -->
<g id="node3" class="node"><title>Node3</title>
<polygon fill="none" stroke="#bfbfbf" points="82.5,-56.5 82.5,-75.5 147.5,-75.5 147.5,-56.5 82.5,-56.5"/>
<text text-anchor="middle" x="115" y="-63.5" font-family="Helvetica,sans-Serif" font-size="10.00">Cloneable</text>
</g>
<!-- Node3&#45;&gt;Node1 -->
<g id="edge2" class="edge"><title>Node3&#45;&gt;Node1</title>
<path fill="none" stroke="midnightblue" d="M101.89,-48.144C94.5722,-38.7357 85.7591,-27.4046 79.8064,-19.7511"/>
<polygon fill="midnightblue" stroke="midnightblue" points="99.1624,-50.3383 108.065,-56.083 104.688,-46.0406 99.1624,-50.3383"/>
</g>
</g>
</svg>
