<?xml version="1.0" encoding="UTF-8" standalone="no"?>
<!DOCTYPE svg PUBLIC "-//W3C//DTD SVG 1.1//EN"
 "http://www.w3.org/Graphics/SVG/1.1/DTD/svg11.dtd">
<!-- Generated by graphviz version 2.38.0 (20140413.2041)
 -->
<!-- Title: XYLineChart Pages: 1 -->
<svg width="312pt" height="230pt"
 viewBox="0.00 0.00 311.50 230.00" xmlns="http://www.w3.org/2000/svg" xmlns:xlink="http://www.w3.org/1999/xlink">
<g id="graph0" class="graph" transform="scale(1 1) rotate(0) translate(4 226)">
<title>XYLineChart</title>
<!-- Node1 -->
<g id="node1" class="node"><title>Node1</title>
<polygon fill="#bfbfbf" stroke="black" points="66.5,-0.5 66.5,-19.5 142.5,-19.5 142.5,-0.5 66.5,-0.5"/>
<text text-anchor="middle" x="104.5" y="-7.5" font-family="Helvetica,sans-Serif" font-size="10.00">XYLineChart</text>
</g>
<!-- Node2 -->
<g id="node2" class="node"><title>Node2</title>
<g id="a_node2"><a xlink:href="classumontreal_1_1ssj_1_1charts_1_1XYChart.html" target="_top" xlink:title="This class provides tools to create charts from data in a simple way. ">
<polygon fill="none" stroke="black" points="76.5,-57.5 76.5,-76.5 132.5,-76.5 132.5,-57.5 76.5,-57.5"/>
<text text-anchor="middle" x="104.5" y="-64.5" font-family="Helvetica,sans-Serif" font-size="10.00">XYChart</text>
</a>
</g>
</g>
<!-- Node2&#45;&gt;Node1 -->
<g id="edge1" class="edge"><title>Node2&#45;&gt;Node1</title>
<path fill="none" stroke="midnightblue" d="M104.5,-47.1166C104.5,-37.8173 104.5,-27.0557 104.5,-19.7149"/>
<polygon fill="midnightblue" stroke="midnightblue" points="101,-47.4062 104.5,-57.4062 108,-47.4063 101,-47.4062"/>
</g>
<!-- Node3 -->
<g id="node3" class="node"><title>Node3</title>
<polygon fill="none" stroke="#bfbfbf" points="0,-135.5 0,-154.5 67,-154.5 67,-135.5 0,-135.5"/>
<text text-anchor="middle" x="33.5" y="-142.5" font-family="Helvetica,sans-Serif" font-size="10.00">JFreeChart</text>
</g>
<!-- Node3&#45;&gt;Node2 -->
<g id="edge2" class="edge"><title>Node3&#45;&gt;Node2</title>
<path fill="none" stroke="#9a32cd" stroke-dasharray="5,2" d="M45.6187,-127.128C52.9558,-117.35 62.7537,-105.029 72.5,-95 78.883,-88.4318 86.7346,-81.7884 93.063,-76.7351"/>
<polygon fill="#9a32cd" stroke="#9a32cd" points="42.7479,-125.124 39.6443,-135.254 48.3877,-129.271 42.7479,-125.124"/>
<text text-anchor="middle" x="86.5" y="-103.5" font-family="Helvetica,sans-Serif" font-size="10.00"> chart</text>
</g>
<!-- Node4 -->
<g id="node4" class="node"><title>Node4</title>
<g id="a_node4"><a xlink:href="classumontreal_1_1ssj_1_1charts_1_1Axis.html" target="_top" xlink:title="Represents an axis of a chart encapsulated by an instance of XYChart. ">
<polygon fill="none" stroke="black" points="85.5,-135.5 85.5,-154.5 123.5,-154.5 123.5,-135.5 85.5,-135.5"/>
<text text-anchor="middle" x="104.5" y="-142.5" font-family="Helvetica,sans-Serif" font-size="10.00">Axis</text>
</a>
</g>
</g>
<!-- Node4&#45;&gt;Node2 -->
<g id="edge3" class="edge"><title>Node4&#45;&gt;Node2</title>
<path fill="none" stroke="#9a32cd" stroke-dasharray="5,2" d="M104.5,-125.224C104.5,-109.697 104.5,-88.3582 104.5,-76.6165"/>
<polygon fill="#9a32cd" stroke="#9a32cd" points="101,-125.282 104.5,-135.282 108,-125.282 101,-125.282"/>
<text text-anchor="middle" x="120" y="-109" font-family="Helvetica,sans-Serif" font-size="10.00"> XAxis</text>
<text text-anchor="middle" x="120" y="-98" font-family="Helvetica,sans-Serif" font-size="10.00">YAxis</text>
</g>
<!-- Node5 -->
<g id="node5" class="node"><title>Node5</title>
<g id="a_node5"><a xlink:href="classumontreal_1_1ssj_1_1charts_1_1SSJXYSeriesCollection.html" target="_top" xlink:title="Stores data used in a XYChart. ">
<polygon fill="none" stroke="black" points="142,-135.5 142,-154.5 265,-154.5 265,-135.5 142,-135.5"/>
<text text-anchor="middle" x="203.5" y="-142.5" font-family="Helvetica,sans-Serif" font-size="10.00">SSJXYSeriesCollection</text>
</a>
</g>
</g>
<!-- Node5&#45;&gt;Node2 -->
<g id="edge4" class="edge"><title>Node5&#45;&gt;Node2</title>
<path fill="none" stroke="#9a32cd" stroke-dasharray="5,2" d="M184.157,-129.15C163.77,-113.5 132.356,-89.3841 115.724,-76.6165"/>
<polygon fill="#9a32cd" stroke="#9a32cd" points="182.08,-131.969 192.143,-135.282 186.343,-126.416 182.08,-131.969"/>
<text text-anchor="middle" x="186.5" y="-103.5" font-family="Helvetica,sans-Serif" font-size="10.00"> dataset</text>
</g>
<!-- Node6 -->
<g id="node6" class="node"><title>Node6</title>
<polygon fill="none" stroke="#bfbfbf" points="116.5,-202.5 116.5,-221.5 184.5,-221.5 184.5,-202.5 116.5,-202.5"/>
<text text-anchor="middle" x="150.5" y="-209.5" font-family="Helvetica,sans-Serif" font-size="10.00">XYDataset</text>
</g>
<!-- Node6&#45;&gt;Node5 -->
<g id="edge5" class="edge"><title>Node6&#45;&gt;Node5</title>
<path fill="none" stroke="#9a32cd" stroke-dasharray="5,2" d="M144.629,-192.345C143.661,-185.8 143.938,-178.673 147.5,-173 152.838,-164.5 161.689,-158.612 170.795,-154.561"/>
<polygon fill="#9a32cd" stroke="#9a32cd" points="141.32,-193.553 147.073,-202.45 148.124,-191.908 141.32,-193.553"/>
<text text-anchor="middle" x="188.5" y="-176" font-family="Helvetica,sans-Serif" font-size="10.00"> seriesCollection</text>
</g>
<!-- Node7 -->
<g id="node7" class="node"><title>Node7</title>
<polygon fill="none" stroke="#bfbfbf" points="207.5,-202.5 207.5,-221.5 303.5,-221.5 303.5,-202.5 207.5,-202.5"/>
<text text-anchor="middle" x="255.5" y="-209.5" font-family="Helvetica,sans-Serif" font-size="10.00">XYItemRenderer</text>
</g>
<!-- Node7&#45;&gt;Node5 -->
<g id="edge6" class="edge"><title>Node7&#45;&gt;Node5</title>
<path fill="none" stroke="#9a32cd" stroke-dasharray="5,2" d="M246.81,-193.387C243.132,-186.7 238.533,-179.206 233.5,-173 227.939,-166.143 220.585,-159.495 214.549,-154.511"/>
<polygon fill="#9a32cd" stroke="#9a32cd" points="243.76,-195.108 251.481,-202.363 249.969,-191.877 243.76,-195.108"/>
<text text-anchor="middle" x="263" y="-176" font-family="Helvetica,sans-Serif" font-size="10.00"> renderer</text>
</g>
</g>
</svg>
