<?xml version="1.0" encoding="UTF-8" standalone="no"?>
<!DOCTYPE svg PUBLIC "-//W3C//DTD SVG 1.1//EN"
 "http://www.w3.org/Graphics/SVG/1.1/DTD/svg11.dtd">
<!-- Generated by graphviz version 2.38.0 (20140413.2041)
 -->
<!-- Title: QueueObs.LargeWaitsCollector Pages: 1 -->
<svg width="232pt" height="95pt"
 viewBox="0.00 0.00 232.00 95.00" xmlns="http://www.w3.org/2000/svg" xmlns:xlink="http://www.w3.org/1999/xlink">
<g id="graph0" class="graph" transform="scale(1 1) rotate(0) translate(4 91)">
<title>QueueObs.LargeWaitsCollector</title>
<!-- Node2 -->
<g id="node1" class="node"><title>Node2</title>
<polygon fill="#bfbfbf" stroke="black" points="34,-0.5 34,-19.5 188,-19.5 188,-0.5 34,-0.5"/>
<text text-anchor="middle" x="111" y="-7.5" font-family="Helvetica,sans-Serif" font-size="10.00">QueueObs.LargeWaitsCollector</text>
</g>
<!-- Node3 -->
<g id="node2" class="node"><title>Node3</title>
<g id="a_node2"><a xlink:href="interfaceumontreal_1_1ssj_1_1stat_1_1ObservationListener.html" target="_top" xlink:title="Represents an object that can listen to observations broadcast by statistical probes. ">
<polygon fill="none" stroke="black" points="0,-67.5 0,-86.5 102,-86.5 102,-67.5 0,-67.5"/>
<text text-anchor="middle" x="51" y="-74.5" font-family="Helvetica,sans-Serif" font-size="10.00">ObservationListener</text>
</a>
</g>
</g>
<!-- Node3&#45;&gt;Node2 -->
<g id="edge1" class="edge"><title>Node3&#45;&gt;Node2</title>
<path fill="none" stroke="midnightblue" d="M66.1063,-59.6348C77.8405,-46.9228 93.6482,-29.7978 103.036,-19.6273"/>
<polygon fill="midnightblue" stroke="midnightblue" points="63.3029,-57.5118 59.0919,-67.2338 68.4465,-62.2597 63.3029,-57.5118"/>
</g>
<!-- Node4 -->
<g id="node3" class="node"><title>Node4</title>
<polygon fill="none" stroke="#bfbfbf" points="120,-67.5 120,-86.5 224,-86.5 224,-67.5 120,-67.5"/>
<text text-anchor="middle" x="172" y="-74.5" font-family="Helvetica,sans-Serif" font-size="10.00">ArrayList&lt; Double &gt;</text>
</g>
<!-- Node4&#45;&gt;Node2 -->
<g id="edge2" class="edge"><title>Node4&#45;&gt;Node2</title>
<path fill="none" stroke="#9a32cd" stroke-dasharray="5,2" d="M156.642,-59.6348C144.712,-46.9228 128.641,-29.7978 119.096,-19.6273"/>
<polygon fill="#9a32cd" stroke="#9a32cd" points="154.378,-62.337 163.773,-67.2338 159.482,-57.5468 154.378,-62.337"/>
<text text-anchor="middle" x="170" y="-41" font-family="Helvetica,sans-Serif" font-size="10.00"> largeWaits</text>
</g>
</g>
</svg>
