<?xml version="1.0" encoding="UTF-8" standalone="no"?>
<!DOCTYPE svg PUBLIC "-//W3C//DTD SVG 1.1//EN"
 "http://www.w3.org/Graphics/SVG/1.1/DTD/svg11.dtd">
<!-- Generated by graphviz version 2.26.3 (20100126.1600)
 -->
<!-- Title: VarianceGammaProcessDiffPCABridge Pages: 1 -->
<!--zoomable 504 -->
<svg id="main" version="1.1" xmlns="http://www.w3.org/2000/svg" xmlns:xlink="http://www.w3.org/1999/xlink" xml:space="preserve" onload="init(evt)">
<style type="text/css"><![CDATA[
.edge:hover path { stroke: red; }
.edge:hover polygon { stroke: red; fill: red; }
]]></style>
<script type="text/javascript"><![CDATA[
var edges = document.getElementsByTagName('g');
if (edges && edges.length) {
  for (var i=0;i<edges.length;i++) {
    if (edges[i].id.substr(0,4)=='edge') {
      edges[i].setAttribute('class','edge');
    }
  }
}
]]></script>
        <defs>
                <circle id="rim" cx="0" cy="0" r="7"/>
                <circle id="rim2" cx="0" cy="0" r="3.5"/>
                <g id="zoomPlus">
                        <use xlink:href="#rim" fill="#404040">
                                <set attributeName="fill" to="#808080" begin="zoomplus.mouseover" end="zoomplus.mouseout"/>
                        </use>
                        <path d="M-4,0h8M0,-4v8" fill="none" stroke="white" stroke-width="1.5" pointer-events="none"/>
                </g>
                <g id="zoomMin">
                        <use xlink:href="#rim" fill="#404040">
                                <set attributeName="fill" to="#808080" begin="zoomminus.mouseover" end="zoomminus.mouseout"/>
                        </use>
                        <path d="M-4,0h8" fill="none" stroke="white" stroke-width="1.5" pointer-events="none"/>
                </g>
                <g id="dirArrow">
                        <path fill="none" stroke="white" stroke-width="1.5" d="M0,-3.0v7 M-2.5,-0.5L0,-3.0L2.5,-0.5"/>
                </g>
               <g id="resetDef">
                       <use xlink:href="#rim2" fill="#404040">
                               <set attributeName="fill" to="#808080" begin="reset.mouseover" end="reset.mouseout"/>
                       </use>
               </g>
        </defs>

<script type="text/javascript">
var viewWidth = 344;
var viewHeight = 504;
var sectionId = 'dynsection-1';
</script>
<script xlink:href="svgpan.js"/>
<svg id="graph" class="graph">
<g id="viewport">
<title>VarianceGammaProcessDiffPCABridge</title>
<!-- Node1 -->
<g id="node1" class="node"><title>Node1</title>
<polygon fill="#bfbfbf" stroke="black" points="134,-1 134,-33 274,-33 274,-1 134,-1"/>
<text text-anchor="start" x="142" y="-20" font-family="Helvetica,sans-Serif" font-size="10.00">VarianceGammaProcessDiff</text>
<text text-anchor="middle" x="204" y="-8" font-family="Helvetica,sans-Serif" font-size="10.00">PCABridge</text>
</g>
<!-- Node2 -->
<g id="node2" class="node"><title>Node2</title>
<a xlink:href="classumontreal_1_1ssj_1_1stochprocess_1_1VarianceGammaProcessDiffPCA.html" target="_top" xlink:title="Same as VarianceGammaProcessDiff, but the two inner GammaProcess ’es are of PCA type. ">
<polygon fill="none" stroke="black" points="124,-73 124,-93 284,-93 284,-73 124,-73"/>
<text text-anchor="middle" x="204" y="-80" font-family="Helvetica,sans-Serif" font-size="10.00">VarianceGammaProcessDiffPCA</text>
</a>
</g>
<!-- Node2&#45;&gt;Node1 -->
<g id="edge2" class="edge"><title>Node2&#45;&gt;Node1</title>
<path fill="none" stroke="midnightblue" d="M204,-62.7783C204,-53.2276 204,-41.988 204,-33.036"/>
<polygon fill="midnightblue" stroke="midnightblue" points="200.5,-62.976 204,-72.976 207.5,-62.9761 200.5,-62.976"/>
</g>
<!-- Node3 -->
<g id="node4" class="node"><title>Node3</title>
<a xlink:href="classumontreal_1_1ssj_1_1stochprocess_1_1VarianceGammaProcessDiff.html" target="_top" xlink:title="This class represents a variance gamma (VG) process . ">
<polygon fill="none" stroke="black" points="134,-133 134,-153 274,-153 274,-133 134,-133"/>
<text text-anchor="middle" x="204" y="-140" font-family="Helvetica,sans-Serif" font-size="10.00">VarianceGammaProcessDiff</text>
</a>
</g>
<!-- Node3&#45;&gt;Node2 -->
<g id="edge4" class="edge"><title>Node3&#45;&gt;Node2</title>
<path fill="none" stroke="midnightblue" d="M204,-122.516C204,-112.562 204,-101.05 204,-93.0279"/>
<polygon fill="midnightblue" stroke="midnightblue" points="200.5,-122.822 204,-132.822 207.5,-122.822 200.5,-122.822"/>
</g>
<!-- Node4 -->
<g id="node6" class="node"><title>Node4</title>
<a xlink:href="classumontreal_1_1ssj_1_1stochprocess_1_1VarianceGammaProcess.html" target="_top" xlink:title="This class represents a variance gamma (VG) process . ">
<polygon fill="none" stroke="black" points="69.5,-194 69.5,-214 194.5,-214 194.5,-194 69.5,-194"/>
<text text-anchor="middle" x="132" y="-201" font-family="Helvetica,sans-Serif" font-size="10.00">VarianceGammaProcess</text>
</a>
</g>
<!-- Node4&#45;&gt;Node3 -->
<g id="edge6" class="edge"><title>Node4&#45;&gt;Node3</title>
<path fill="none" stroke="midnightblue" d="M151.727,-187.287C164.561,-176.414 180.889,-162.58 191.852,-153.292"/>
<polygon fill="midnightblue" stroke="midnightblue" points="149.257,-184.792 143.889,-193.927 153.782,-190.133 149.257,-184.792"/>
</g>
<!-- Node5 -->
<g id="node8" class="node"><title>Node5</title>
<a xlink:href="classumontreal_1_1ssj_1_1stochprocess_1_1StochasticProcess.html" target="_top" xlink:title="Abstract base class for a stochastic process &#160;sampled (or observed) at a finite number of time points...">
<polygon fill="none" stroke="black" points="81.5,-335 81.5,-355 180.5,-355 180.5,-335 81.5,-335"/>
<text text-anchor="middle" x="131" y="-342" font-family="Helvetica,sans-Serif" font-size="10.00">StochasticProcess</text>
</a>
</g>
<!-- Node5&#45;&gt;Node4 -->
<g id="edge8" class="edge"><title>Node5&#45;&gt;Node4</title>
<path fill="none" stroke="midnightblue" d="M86.8578,-329.837C81.3554,-326.144 76.4569,-321.593 73,-316 70.1961,-311.463 72.6686,-309.323 73,-304 74.1133,-286.118 70.5543,-280.296 78,-264 87.3185,-243.605 106.083,-225.266 118.845,-214.38"/>
<polygon fill="midnightblue" stroke="midnightblue" points="85.4569,-333.066 95.8812,-334.959 88.9129,-326.978 85.4569,-333.066"/>
</g>
<!-- Node6 -->
<g id="node10" class="node"><title>Node6</title>
<a xlink:href="classumontreal_1_1ssj_1_1stochprocess_1_1BrownianMotion.html" target="_top" xlink:title="This class represents a Brownian motion process , sampled at times . ">
<polygon fill="none" stroke="black" points="87,-265 87,-285 173,-285 173,-265 87,-265"/>
<text text-anchor="middle" x="130" y="-272" font-family="Helvetica,sans-Serif" font-size="10.00">BrownianMotion</text>
</a>
</g>
<!-- Node5&#45;&gt;Node6 -->
<g id="edge12" class="edge"><title>Node5&#45;&gt;Node6</title>
<path fill="none" stroke="midnightblue" d="M130.709,-324.613C130.523,-311.597 130.29,-295.296 130.143,-285.011"/>
<polygon fill="midnightblue" stroke="midnightblue" points="127.214,-325.022 130.857,-334.971 134.213,-324.922 127.214,-325.022"/>
</g>
<!-- Node11 -->
<g id="node21" class="node"><title>Node11</title>
<a xlink:href="classumontreal_1_1ssj_1_1stochprocess_1_1GammaProcess.html" target="_top" xlink:title="This class represents a gamma process   (page 82) &#160;with mean parameter &#160;and variance parameter ...">
<polygon fill="none" stroke="black" points="190.5,-265 190.5,-285 277.5,-285 277.5,-265 190.5,-265"/>
<text text-anchor="middle" x="234" y="-272" font-family="Helvetica,sans-Serif" font-size="10.00">GammaProcess</text>
</a>
</g>
<!-- Node5&#45;&gt;Node11 -->
<g id="edge24" class="edge"><title>Node5&#45;&gt;Node11</title>
<path fill="none" stroke="midnightblue" d="M154.272,-329.184C174.205,-315.637 202.302,-296.542 219.27,-285.011"/>
<polygon fill="midnightblue" stroke="midnightblue" points="152.061,-326.455 145.757,-334.971 155.995,-332.245 152.061,-326.455"/>
</g>
<!-- Node6&#45;&gt;Node4 -->
<g id="edge10" class="edge"><title>Node6&#45;&gt;Node4</title>
<path fill="none" stroke="#9a32cd" stroke-dasharray="5,2" d="M125.625,-254.739C124.707,-248.129 124.222,-240.754 125,-234 125.771,-227.305 127.478,-219.933 129.014,-214.172"/>
<polygon fill="#9a32cd" stroke="#9a32cd" points="122.234,-255.663 127.433,-264.895 129.126,-254.436 122.234,-255.663"/>
<text text-anchor="middle" x="134.5" y="-237" font-family="Helvetica,sans-Serif" font-size="10.00"> BM</text>
</g>
<!-- Node7 -->
<g id="node13" class="node"><title>Node7</title>
<a xlink:href="classumontreal_1_1ssj_1_1randvar_1_1NormalGen.html" target="_top" xlink:title="This class implements methods for generating random variates from the normal distribution ...">
<polygon fill="none" stroke="black" points="-0.5,-335 -0.5,-355 64.5,-355 64.5,-335 -0.5,-335"/>
<text text-anchor="middle" x="32" y="-342" font-family="Helvetica,sans-Serif" font-size="10.00">NormalGen</text>
</a>
</g>
<!-- Node7&#45;&gt;Node6 -->
<g id="edge14" class="edge"><title>Node7&#45;&gt;Node6</title>
<path fill="none" stroke="#9a32cd" stroke-dasharray="5,2" d="M54.3991,-329.001C73.3483,-315.465 99.9136,-296.49 115.985,-285.011"/>
<polygon fill="#9a32cd" stroke="#9a32cd" points="52.144,-326.31 46.041,-334.971 56.2127,-332.006 52.144,-326.31"/>
<text text-anchor="middle" x="96.5" y="-307" font-family="Helvetica,sans-Serif" font-size="10.00"> gen</text>
</g>
<!-- Node8 -->
<g id="node15" class="node"><title>Node8</title>
<a xlink:href="classumontreal_1_1ssj_1_1randvar_1_1RandomVariateGen.html" target="_top" xlink:title="This is the base class for all random variate generators over the real line. ">
<polygon fill="none" stroke="black" points="158.5,-405 158.5,-425 259.5,-425 259.5,-405 158.5,-405"/>
<text text-anchor="middle" x="209" y="-412" font-family="Helvetica,sans-Serif" font-size="10.00">RandomVariateGen</text>
</a>
</g>
<!-- Node8&#45;&gt;Node7 -->
<g id="edge16" class="edge"><title>Node8&#45;&gt;Node7</title>
<path fill="none" stroke="midnightblue" d="M173.993,-401.155C139.586,-387.548 87.9158,-367.114 57.3127,-355.011"/>
<polygon fill="midnightblue" stroke="midnightblue" points="173.054,-404.548 183.64,-404.971 175.628,-398.038 173.054,-404.548"/>
</g>
<!-- Node12 -->
<g id="node24" class="node"><title>Node12</title>
<a xlink:href="classumontreal_1_1ssj_1_1randvar_1_1GammaGen.html" target="_top" xlink:title="This class implements random variate generators for the gamma distribution. ">
<polygon fill="none" stroke="black" points="197.5,-335 197.5,-355 266.5,-355 266.5,-335 197.5,-335"/>
<text text-anchor="middle" x="232" y="-342" font-family="Helvetica,sans-Serif" font-size="10.00">GammaGen</text>
</a>
</g>
<!-- Node8&#45;&gt;Node12 -->
<g id="edge28" class="edge"><title>Node8&#45;&gt;Node12</title>
<path fill="none" stroke="midnightblue" d="M215.441,-395.397C219.758,-382.258 225.263,-365.503 228.711,-355.011"/>
<polygon fill="midnightblue" stroke="midnightblue" points="212.092,-394.378 212.295,-404.971 218.742,-396.563 212.092,-394.378"/>
</g>
<!-- Node9 -->
<g id="node17" class="node"><title>Node9</title>
<a xlink:href="interfaceumontreal_1_1ssj_1_1probdist_1_1Distribution.html" target="_top" xlink:title="This interface should be implemented by all classes supporting discrete and continuous distributions...">
<polygon fill="none" stroke="black" points="169.5,-475 169.5,-495 234.5,-495 234.5,-475 169.5,-475"/>
<text text-anchor="middle" x="202" y="-482" font-family="Helvetica,sans-Serif" font-size="10.00">Distribution</text>
</a>
</g>
<!-- Node9&#45;&gt;Node8 -->
<g id="edge18" class="edge"><title>Node9&#45;&gt;Node8</title>
<path fill="none" stroke="#9a32cd" stroke-dasharray="5,2" d="M202.5,-464.694C202.794,-458.081 203.26,-450.716 204,-444 204.694,-437.703 205.889,-430.702 206.936,-425.157"/>
<polygon fill="#9a32cd" stroke="#9a32cd" points="198.996,-464.749 202.151,-474.863 205.992,-464.989 198.996,-464.749"/>
<text text-anchor="middle" x="213.5" y="-447" font-family="Helvetica,sans-Serif" font-size="10.00"> dist</text>
</g>
<!-- Node10 -->
<g id="node19" class="node"><title>Node10</title>
<a xlink:href="interfaceumontreal_1_1ssj_1_1rng_1_1RandomStream.html" target="_top" xlink:title="This interface defines the basic structures to handle multiple streams of uniform (pseudo)random numb...">
<polygon fill="none" stroke="black" points="252,-475 252,-495 336,-495 336,-475 252,-475"/>
<text text-anchor="middle" x="294" y="-482" font-family="Helvetica,sans-Serif" font-size="10.00">RandomStream</text>
</a>
</g>
<!-- Node10&#45;&gt;Node8 -->
<g id="edge20" class="edge"><title>Node10&#45;&gt;Node8</title>
<path fill="none" stroke="#9a32cd" stroke-dasharray="5,2" d="M265.588,-469.718C258.904,-465.62 251.988,-460.943 246,-456 234.761,-446.723 223.824,-434.008 216.793,-425.209"/>
<polygon fill="#9a32cd" stroke="#9a32cd" points="264.053,-472.876 274.45,-474.917 267.596,-466.838 264.053,-472.876"/>
<text text-anchor="middle" x="263" y="-447" font-family="Helvetica,sans-Serif" font-size="10.00"> stream</text>
</g>
<!-- Node10&#45;&gt;Node11 -->
<g id="edge30" class="edge"><title>Node10&#45;&gt;Node11</title>
<path fill="none" stroke="#9a32cd" stroke-dasharray="5,2" d="M292.914,-464.812C291.017,-435.603 286.178,-380.013 275,-334 271.648,-320.2 271.746,-315.903 264,-304 259.417,-296.957 252.827,-290.342 246.991,-285.214"/>
<polygon fill="#9a32cd" stroke="#9a32cd" points="289.431,-465.193 293.522,-474.965 296.418,-464.774 289.431,-465.193"/>
<text text-anchor="middle" x="301" y="-377" font-family="Helvetica,sans-Serif" font-size="10.00"> stream</text>
</g>
<!-- Node11&#45;&gt;Node3 -->
<g id="edge32" class="edge"><title>Node11&#45;&gt;Node3</title>
<path fill="none" stroke="#9a32cd" stroke-dasharray="5,2" d="M229.594,-254.723C228.146,-248.112 226.518,-240.741 225,-234 218.376,-204.579 210.292,-169.872 206.366,-153.091"/>
<polygon fill="#9a32cd" stroke="#9a32cd" points="226.26,-255.86 231.811,-264.884 233.099,-254.367 226.26,-255.86"/>
<text text-anchor="middle" x="232.5" y="-207" font-family="Helvetica,sans-Serif" font-size="10.00"> gneg</text>
<text text-anchor="middle" x="232.5" y="-195" font-family="Helvetica,sans-Serif" font-size="10.00">gpos</text>
</g>
<!-- Node11&#45;&gt;Node4 -->
<g id="edge22" class="edge"><title>Node11&#45;&gt;Node4</title>
<path fill="none" stroke="#9a32cd" stroke-dasharray="5,2" d="M193.327,-261.014C184.212,-256.919 174.909,-251.917 167,-246 155.144,-237.13 144.74,-223.474 138.422,-214.159"/>
<polygon fill="#9a32cd" stroke="#9a32cd" points="192.116,-264.302 202.691,-264.955 194.831,-257.85 192.116,-264.302"/>
<text text-anchor="middle" x="196" y="-237" font-family="Helvetica,sans-Serif" font-size="10.00"> randomTime</text>
</g>
<!-- Node12&#45;&gt;Node11 -->
<g id="edge26" class="edge"><title>Node12&#45;&gt;Node11</title>
<path fill="none" stroke="#9a32cd" stroke-dasharray="5,2" d="M232.582,-324.613C232.954,-311.597 233.42,-295.296 233.714,-285.011"/>
<polygon fill="#9a32cd" stroke="#9a32cd" points="229.074,-324.875 232.287,-334.971 236.071,-325.075 229.074,-324.875"/>
<text text-anchor="middle" x="246.5" y="-307" font-family="Helvetica,sans-Serif" font-size="10.00"> Ggen</text>
</g>
</g>
</svg>
        <g id="navigator" transform="translate(0 0)" fill="#404254">
                <rect fill="#f2f5e9" fill-opacity="0.5" stroke="#606060" stroke-width=".5" x="0" y="0" width="60" height="60"/>
                <use id="zoomplus" xlink:href="#zoomPlus" x="17" y="9" onmousedown="handleZoom(evt,'in')"/>
                <use id="zoomminus" xlink:href="#zoomMin" x="42" y="9" onmousedown="handleZoom(evt,'out')"/>
                <use id="reset" xlink:href="#resetDef" x="30" y="36" onmousedown="handleReset()"/>
                <g id="arrowUp" xlink:href="#dirArrow" transform="translate(30 24)" onmousedown="handlePan(0,-1)">
                  <use xlink:href="#rim" fill="#404040">
                        <set attributeName="fill" to="#808080" begin="arrowUp.mouseover" end="arrowUp.mouseout"/>
                  </use>
                  <path fill="none" stroke="white" stroke-width="1.5" d="M0,-3.0v7 M-2.5,-0.5L0,-3.0L2.5,-0.5"/>
                </g>
                <g id="arrowRight" xlink:href="#dirArrow" transform="rotate(90) translate(36 -43)" onmousedown="handlePan(1,0)">
                  <use xlink:href="#rim" fill="#404040">
                        <set attributeName="fill" to="#808080" begin="arrowRight.mouseover" end="arrowRight.mouseout"/>
                  </use>
                  <path fill="none" stroke="white" stroke-width="1.5" d="M0,-3.0v7 M-2.5,-0.5L0,-3.0L2.5,-0.5"/>
                </g>
                <g id="arrowDown" xlink:href="#dirArrow" transform="rotate(180) translate(-30 -48)" onmousedown="handlePan(0,1)">
                  <use xlink:href="#rim" fill="#404040">
                        <set attributeName="fill" to="#808080" begin="arrowDown.mouseover" end="arrowDown.mouseout"/>
                  </use>
                  <path fill="none" stroke="white" stroke-width="1.5" d="M0,-3.0v7 M-2.5,-0.5L0,-3.0L2.5,-0.5"/>
                </g>
                <g id="arrowLeft" xlink:href="#dirArrow" transform="rotate(270) translate(-36 17)" onmousedown="handlePan(-1,0)">
                  <use xlink:href="#rim" fill="#404040">
                        <set attributeName="fill" to="#808080" begin="arrowLeft.mouseover" end="arrowLeft.mouseout"/>
                  </use>
                  <path fill="none" stroke="white" stroke-width="1.5" d="M0,-3.0v7 M-2.5,-0.5L0,-3.0L2.5,-0.5"/>
                </g>
        </g>
        <svg viewBox="0 0 15 15" width="100%" height="30px" preserveAspectRatio="xMaxYMin meet">
         <g id="arrow_out" transform="scale(0.3 0.3)">
          <a xlink:href="classumontreal_1_1ssj_1_1stochprocess_1_1VarianceGammaProcessDiffPCABridge__coll__graph_org.svg" target="_base">
           <rect id="button" ry="5" rx="5" y="6" x="6" height="38" width="38"
                fill="#f2f5e9" fill-opacity="0.5" stroke="#606060" stroke-width="1.0"/>
           <path id="arrow"
             d="M 11.500037,31.436501 C 11.940474,20.09759 22.043105,11.32322 32.158766,21.979434 L 37.068811,17.246167 C 37.068811,17.246167 37.088388,32 37.088388,32 L 22.160133,31.978069 C 22.160133,31.978069 26.997745,27.140456 26.997745,27.140456 C 18.528582,18.264221 13.291696,25.230495 11.500037,31.436501 z"
             style="fill:#404040;"/>
          </a>
         </g>
        </svg>
</svg>
