<?xml version="1.0" encoding="UTF-8" standalone="no"?>
<!DOCTYPE svg PUBLIC "-//W3C//DTD SVG 1.1//EN"
 "http://www.w3.org/Graphics/SVG/1.1/DTD/svg11.dtd">
<!-- Generated by graphviz version 2.26.3 (20100126.1600)
 -->
<!-- Title: CustomHistogramDataset Pages: 1 -->
<svg width="534pt" height="100pt"
 viewBox="0.00 0.00 534.00 100.00" xmlns="http://www.w3.org/2000/svg" xmlns:xlink="http://www.w3.org/1999/xlink">
<g id="graph1" class="graph" transform="scale(1 1) rotate(0) translate(4 96)">
<title>CustomHistogramDataset</title>
<!-- Node1 -->
<g id="node1" class="node"><title>Node1</title>
<polygon fill="#bfbfbf" stroke="black" points="229,-1 229,-21 357,-21 357,-1 229,-1"/>
<text text-anchor="middle" x="293" y="-8" font-family="Helvetica,sans-Serif" font-size="10.00">CustomHistogramDataset</text>
</g>
<!-- Node2 -->
<g id="node2" class="node"><title>Node2</title>
<polygon fill="none" stroke="#bfbfbf" points="-0.5,-71 -0.5,-91 132.5,-91 132.5,-71 -0.5,-71"/>
<text text-anchor="middle" x="66" y="-78" font-family="Helvetica,sans-Serif" font-size="10.00">AbstractIntervalXYDataset</text>
</g>
<!-- Node2&#45;&gt;Node1 -->
<g id="edge2" class="edge"><title>Node2&#45;&gt;Node1</title>
<path fill="none" stroke="midnightblue" d="M108.087,-68.0217C152.166,-54.4291 220.447,-33.3733 260.537,-21.0107"/>
<polygon fill="midnightblue" stroke="midnightblue" points="107.048,-64.6793 98.5236,-70.9707 109.111,-71.3685 107.048,-64.6793"/>
</g>
<!-- Node3 -->
<g id="node4" class="node"><title>Node3</title>
<polygon fill="none" stroke="#bfbfbf" points="150,-71 150,-91 246,-91 246,-71 150,-71"/>
<text text-anchor="middle" x="198" y="-78" font-family="Helvetica,sans-Serif" font-size="10.00">IntervalXYDataset</text>
</g>
<!-- Node3&#45;&gt;Node1 -->
<g id="edge4" class="edge"><title>Node3&#45;&gt;Node1</title>
<path fill="none" stroke="midnightblue" d="M219.963,-64.8166C238.315,-51.2939 263.905,-32.4383 279.414,-21.0107"/>
<polygon fill="midnightblue" stroke="midnightblue" points="217.586,-62.221 211.611,-70.9707 221.738,-67.8564 217.586,-62.221"/>
</g>
<!-- Node4 -->
<g id="node6" class="node"><title>Node4</title>
<polygon fill="none" stroke="#bfbfbf" points="263.5,-71 263.5,-91 322.5,-91 322.5,-71 263.5,-71"/>
<text text-anchor="middle" x="293" y="-78" font-family="Helvetica,sans-Serif" font-size="10.00">Cloneable</text>
</g>
<!-- Node4&#45;&gt;Node1 -->
<g id="edge6" class="edge"><title>Node4&#45;&gt;Node1</title>
<path fill="none" stroke="midnightblue" d="M293,-60.6126C293,-47.5971 293,-31.2956 293,-21.0107"/>
<polygon fill="midnightblue" stroke="midnightblue" points="289.5,-60.9707 293,-70.9707 296.5,-60.9707 289.5,-60.9707"/>
</g>
<!-- Node5 -->
<g id="node8" class="node"><title>Node5</title>
<polygon fill="none" stroke="#bfbfbf" points="340,-71 340,-91 426,-91 426,-71 340,-71"/>
<text text-anchor="middle" x="383" y="-78" font-family="Helvetica,sans-Serif" font-size="10.00">PublicCloneable</text>
</g>
<!-- Node5&#45;&gt;Node1 -->
<g id="edge8" class="edge"><title>Node5&#45;&gt;Node1</title>
<path fill="none" stroke="midnightblue" d="M362.193,-64.8166C344.806,-51.2939 320.564,-32.4383 305.871,-21.0107"/>
<polygon fill="midnightblue" stroke="midnightblue" points="360.063,-67.594 370.105,-70.9707 364.36,-62.0685 360.063,-67.594"/>
</g>
<!-- Node6 -->
<g id="node10" class="node"><title>Node6</title>
<polygon fill="none" stroke="#bfbfbf" points="444,-71 444,-91 526,-91 526,-71 444,-71"/>
<text text-anchor="middle" x="485" y="-78" font-family="Helvetica,sans-Serif" font-size="10.00">HistogramType</text>
</g>
<!-- Node6&#45;&gt;Node1 -->
<g id="edge10" class="edge"><title>Node6&#45;&gt;Node1</title>
<path fill="none" stroke="#9a32cd" stroke-dasharray="5,2" d="M447.983,-67.5042C410.668,-53.8996 353.939,-33.2175 320.458,-21.0107"/>
<polygon fill="#9a32cd" stroke="#9a32cd" points="446.897,-70.8336 457.491,-70.9707 449.295,-64.2571 446.897,-70.8336"/>
<text text-anchor="middle" x="411" y="-43" font-family="Helvetica,sans-Serif" font-size="10.00"> type</text>
</g>
</g>
</svg>
