<?xml version="1.0" encoding="UTF-8" standalone="no"?>
<!DOCTYPE svg PUBLIC "-//W3C//DTD SVG 1.1//EN"
 "http://www.w3.org/Graphics/SVG/1.1/DTD/svg11.dtd">
<!-- Generated by graphviz version 2.26.3 (20100126.1600)
 -->
<!-- Title: ContainerPointSet.ContainerPointSetIterator Pages: 1 -->
<svg width="502pt" height="90pt"
 viewBox="0.00 0.00 502.00 90.00" xmlns="http://www.w3.org/2000/svg" xmlns:xlink="http://www.w3.org/1999/xlink">
<g id="graph1" class="graph" transform="scale(1 1) rotate(0) translate(4 86)">
<title>ContainerPointSet.ContainerPointSetIterator</title>
<!-- Node1 -->
<g id="node1" class="node"><title>Node1</title>
<polygon fill="#bfbfbf" stroke="black" points="152,-25 152,-57 292,-57 292,-25 152,-25"/>
<text text-anchor="start" x="160" y="-44" font-family="Helvetica,sans-Serif" font-size="10.00">ContainerPointSet.Container</text>
<text text-anchor="middle" x="222" y="-32" font-family="Helvetica,sans-Serif" font-size="10.00">PointSetIterator</text>
</g>
<!-- Node3 -->
<g id="node5" class="node"><title>Node3</title>
<a xlink:href="classumontreal_1_1ssj_1_1hups_1_1AntitheticPointSet_1_1AntitheticPointSetIterator.html" target="_top" xlink:title="AntitheticPointSet.Antithetic\lPointSetIterator">
<polygon fill="none" stroke="black" points="341,-50 341,-82 481,-82 481,-50 341,-50"/>
<text text-anchor="start" x="349" y="-69" font-family="Helvetica,sans-Serif" font-size="10.00">AntitheticPointSet.Antithetic</text>
<text text-anchor="middle" x="411" y="-57" font-family="Helvetica,sans-Serif" font-size="10.00">PointSetIterator</text>
</a>
</g>
<!-- Node1&#45;&gt;Node3 -->
<g id="edge4" class="edge"><title>Node1&#45;&gt;Node3</title>
<path fill="none" stroke="midnightblue" d="M302.259,-51.6163C315.035,-53.3062 328.166,-55.0432 340.69,-56.6997"/>
<polygon fill="midnightblue" stroke="midnightblue" points="302.481,-48.1152 292.108,-50.2736 301.563,-55.0547 302.481,-48.1152"/>
</g>
<!-- Node4 -->
<g id="node7" class="node"><title>Node4</title>
<a xlink:href="classumontreal_1_1ssj_1_1hups_1_1BakerTransformedPointSet_1_1BakerTransformedPointSetIterator.html" target="_top" xlink:title="BakerTransformedPointSet.\lBakerTransformedPointSetIterator">
<polygon fill="none" stroke="black" points="328.5,-0 328.5,-32 493.5,-32 493.5,-0 328.5,-0"/>
<text text-anchor="start" x="336.5" y="-19" font-family="Helvetica,sans-Serif" font-size="10.00">BakerTransformedPointSet.</text>
<text text-anchor="middle" x="411" y="-7" font-family="Helvetica,sans-Serif" font-size="10.00">BakerTransformedPointSetIterator</text>
</a>
</g>
<!-- Node1&#45;&gt;Node4 -->
<g id="edge6" class="edge"><title>Node1&#45;&gt;Node4</title>
<path fill="none" stroke="midnightblue" d="M302.146,-30.3986C310.777,-29.2571 319.57,-28.0939 328.231,-26.9483"/>
<polygon fill="midnightblue" stroke="midnightblue" points="301.563,-26.9453 292.108,-31.7264 302.481,-33.8848 301.563,-26.9453"/>
</g>
<!-- Node2 -->
<g id="node2" class="node"><title>Node2</title>
<polygon fill="none" stroke="#bfbfbf" points="0,-31 0,-51 116,-51 116,-31 0,-31"/>
<text text-anchor="middle" x="58" y="-38" font-family="Helvetica,sans-Serif" font-size="10.00">DefaultPointSetIterator</text>
</g>
<!-- Node2&#45;&gt;Node1 -->
<g id="edge2" class="edge"><title>Node2&#45;&gt;Node1</title>
<path fill="none" stroke="midnightblue" d="M126.408,-41C134.81,-41 143.407,-41 151.834,-41"/>
<polygon fill="midnightblue" stroke="midnightblue" points="126.282,-37.5001 116.282,-41 126.282,-44.5001 126.282,-37.5001"/>
</g>
</g>
</svg>
