<?xml version="1.0" encoding="UTF-8" standalone="no"?>
<!DOCTYPE svg PUBLIC "-//W3C//DTD SVG 1.1//EN"
 "http://www.w3.org/Graphics/SVG/1.1/DTD/svg11.dtd">
<!-- Generated by graphviz version 2.26.3 (20100126.1600)
 -->
<!-- Title: Polynomial Pages: 1 -->
<svg width="472pt" height="207pt"
 viewBox="0.00 0.00 472.00 206.59" xmlns="http://www.w3.org/2000/svg" xmlns:xlink="http://www.w3.org/1999/xlink">
<g id="graph1" class="graph" transform="scale(1 1) rotate(0) translate(4 202.595)">
<title>Polynomial</title>
<!-- Node1 -->
<g id="node1" class="node"><title>Node1</title>
<polygon fill="#bfbfbf" stroke="black" points="306.5,-95 306.5,-115 371.5,-115 371.5,-95 306.5,-95"/>
<text text-anchor="middle" x="339" y="-102" font-family="Helvetica,sans-Serif" font-size="10.00">Polynomial</text>
</g>
<!-- Node8 -->
<g id="node18" class="node"><title>Node8</title>
<a xlink:href="classumontreal_1_1ssj_1_1functionfit_1_1PolInterp.html" target="_top" xlink:title="Represents a polynomial that interpolates through a set of points. ">
<polygon fill="none" stroke="black" points="408,-95 408,-115 464,-115 464,-95 408,-95"/>
<text text-anchor="middle" x="436" y="-102" font-family="Helvetica,sans-Serif" font-size="10.00">PolInterp</text>
</a>
</g>
<!-- Node1&#45;&gt;Node8 -->
<g id="edge20" class="edge"><title>Node1&#45;&gt;Node8</title>
<path fill="none" stroke="midnightblue" d="M381.77,-105C390.622,-105 399.731,-105 407.898,-105"/>
<polygon fill="midnightblue" stroke="midnightblue" points="381.569,-101.5 371.569,-105 381.569,-108.5 381.569,-101.5"/>
</g>
<!-- Node2 -->
<g id="node2" class="node"><title>Node2</title>
<a xlink:href="interfaceumontreal_1_1ssj_1_1functions_1_1MathFunction.html" target="_top" xlink:title="This interface should be implemented by classes which represent univariate mathematical functions...">
<polygon fill="none" stroke="black" points="0,-133 0,-153 76,-153 76,-133 0,-133"/>
<text text-anchor="middle" x="38" y="-140" font-family="Helvetica,sans-Serif" font-size="10.00">MathFunction</text>
</a>
</g>
<!-- Node2&#45;&gt;Node1 -->
<g id="edge2" class="edge"><title>Node2&#45;&gt;Node1</title>
<path fill="none" stroke="midnightblue" d="M60.9975,-158.425C75.0664,-166.916 93.8058,-176.602 112,-181 180.256,-197.501 205.79,-209.43 270,-181 300.798,-167.364 323.73,-132.438 333.624,-115.09"/>
<polygon fill="midnightblue" stroke="midnightblue" points="62.8112,-155.431 52.4794,-153.085 59.0932,-161.362 62.8112,-155.431"/>
</g>
<!-- Node3 -->
<g id="node4" class="node"><title>Node3</title>
<a xlink:href="interfaceumontreal_1_1ssj_1_1functions_1_1MathFunctionWithFirstDerivative.html" target="_top" xlink:title="Represents a mathematical function whose derivative can be computed using derivative(double). ">
<polygon fill="none" stroke="black" points="112,-152 112,-172 270,-172 270,-152 112,-152"/>
<text text-anchor="middle" x="191" y="-159" font-family="Helvetica,sans-Serif" font-size="10.00">MathFunctionWithFirstDerivative</text>
</a>
</g>
<!-- Node2&#45;&gt;Node3 -->
<g id="edge6" class="edge"><title>Node2&#45;&gt;Node3</title>
<path fill="none" stroke="midnightblue" d="M86.2443,-148.991C94.4006,-150.004 103.055,-151.079 111.758,-152.159"/>
<polygon fill="midnightblue" stroke="midnightblue" points="86.5688,-145.505 76.2137,-147.745 85.7061,-152.451 86.5688,-145.505"/>
</g>
<!-- Node4 -->
<g id="node7" class="node"><title>Node4</title>
<a xlink:href="interfaceumontreal_1_1ssj_1_1functions_1_1MathFunctionWithDerivative.html" target="_top" xlink:title="Represents a mathematical function whose th derivative can be computed using derivative(double,int). ">
<polygon fill="none" stroke="black" points="121.5,-114 121.5,-134 260.5,-134 260.5,-114 121.5,-114"/>
<text text-anchor="middle" x="191" y="-121" font-family="Helvetica,sans-Serif" font-size="10.00">MathFunctionWithDerivative</text>
</a>
</g>
<!-- Node2&#45;&gt;Node4 -->
<g id="edge10" class="edge"><title>Node2&#45;&gt;Node4</title>
<path fill="none" stroke="midnightblue" d="M86.1913,-137.015C97.3802,-135.626 109.51,-134.12 121.414,-132.641"/>
<polygon fill="midnightblue" stroke="midnightblue" points="85.7061,-133.549 76.2137,-138.255 86.5688,-140.495 85.7061,-133.549"/>
</g>
<!-- Node5 -->
<g id="node10" class="node"><title>Node5</title>
<a xlink:href="interfaceumontreal_1_1ssj_1_1functions_1_1MathFunctionWithIntegral.html" target="_top" xlink:title="Represents a mathematical function whose integral can be computed by the integral(double,double) method. ">
<polygon fill="none" stroke="black" points="127,-76 127,-96 255,-96 255,-76 127,-76"/>
<text text-anchor="middle" x="191" y="-83" font-family="Helvetica,sans-Serif" font-size="10.00">MathFunctionWithIntegral</text>
</a>
</g>
<!-- Node2&#45;&gt;Node5 -->
<g id="edge14" class="edge"><title>Node2&#45;&gt;Node5</title>
<path fill="none" stroke="midnightblue" d="M63.7871,-127.831C77.7018,-120.146 95.3875,-111.162 112,-105 121.258,-101.566 131.36,-98.589 141.152,-96.0764"/>
<polygon fill="midnightblue" stroke="midnightblue" points="61.8047,-124.931 54.8158,-132.894 65.2449,-131.027 61.8047,-124.931"/>
</g>
<!-- Node3&#45;&gt;Node1 -->
<g id="edge4" class="edge"><title>Node3&#45;&gt;Node1</title>
<path fill="none" stroke="midnightblue" d="M251.63,-149.183C257.907,-147.334 264.13,-145.275 270,-143 289.255,-135.538 309.801,-123.658 323.416,-115.168"/>
<polygon fill="midnightblue" stroke="midnightblue" points="250.47,-145.873 241.768,-151.918 252.34,-152.618 250.47,-145.873"/>
</g>
<!-- Node4&#45;&gt;Node1 -->
<g id="edge8" class="edge"><title>Node4&#45;&gt;Node1</title>
<path fill="none" stroke="midnightblue" d="M270.733,-113.764C283.26,-112.156 295.567,-110.576 306.206,-109.21"/>
<polygon fill="midnightblue" stroke="midnightblue" points="270.139,-110.311 260.666,-115.056 271.031,-117.254 270.139,-110.311"/>
</g>
<!-- Node5&#45;&gt;Node1 -->
<g id="edge12" class="edge"><title>Node5&#45;&gt;Node1</title>
<path fill="none" stroke="midnightblue" d="M265.039,-95.5051C279.501,-97.3617 293.961,-99.218 306.21,-100.79"/>
<polygon fill="midnightblue" stroke="midnightblue" points="265.418,-92.0251 255.054,-94.2232 264.527,-98.9681 265.418,-92.0251"/>
</g>
<!-- Node6 -->
<g id="node13" class="node"><title>Node6</title>
<polygon fill="none" stroke="#bfbfbf" points="157.5,-38 157.5,-58 224.5,-58 224.5,-38 157.5,-38"/>
<text text-anchor="middle" x="191" y="-45" font-family="Helvetica,sans-Serif" font-size="10.00">Serializable</text>
</g>
<!-- Node6&#45;&gt;Node1 -->
<g id="edge16" class="edge"><title>Node6&#45;&gt;Node1</title>
<path fill="none" stroke="midnightblue" d="M234.658,-56.2998C246.332,-59.1106 258.809,-62.6633 270,-67 289.255,-74.4619 309.801,-86.3419 323.416,-94.8319"/>
<polygon fill="midnightblue" stroke="midnightblue" points="235.187,-52.8306 224.659,-54.0195 233.631,-59.6554 235.187,-52.8306"/>
</g>
<!-- Node7 -->
<g id="node15" class="node"><title>Node7</title>
<polygon fill="none" stroke="#bfbfbf" points="161.5,-0 161.5,-20 220.5,-20 220.5,-0 161.5,-0"/>
<text text-anchor="middle" x="191" y="-7" font-family="Helvetica,sans-Serif" font-size="10.00">Cloneable</text>
</g>
<!-- Node7&#45;&gt;Node1 -->
<g id="edge18" class="edge"><title>Node7&#45;&gt;Node1</title>
<path fill="none" stroke="midnightblue" d="M230.923,-14.8079C244.018,-17.6039 258.221,-22.0218 270,-29 298.519,-45.895 322.021,-78.3593 332.741,-94.8501"/>
<polygon fill="midnightblue" stroke="midnightblue" points="231.199,-11.2988 220.726,-12.8953 229.909,-18.1788 231.199,-11.2988"/>
</g>
</g>
</svg>
