<?xml version="1.0" encoding="UTF-8" standalone="no"?>
<!DOCTYPE svg PUBLIC "-//W3C//DTD SVG 1.1//EN"
 "http://www.w3.org/Graphics/SVG/1.1/DTD/svg11.dtd">
<!-- Generated by graphviz version 2.38.0 (20140413.2041)
 -->
<!-- Title: YListSeriesCollection Pages: 1 -->
<svg width="195pt" height="209pt"
 viewBox="0.00 0.00 195.00 209.00" xmlns="http://www.w3.org/2000/svg" xmlns:xlink="http://www.w3.org/1999/xlink">
<g id="graph0" class="graph" transform="scale(1 1) rotate(0) translate(4 205)">
<title>YListSeriesCollection</title>
<!-- Node1 -->
<g id="node1" class="node"><title>Node1</title>
<polygon fill="#bfbfbf" stroke="black" points="26.5,-0.5 26.5,-19.5 145.5,-19.5 145.5,-0.5 26.5,-0.5"/>
<text text-anchor="middle" x="86" y="-7.5" font-family="Helvetica,sans-Serif" font-size="10.00">YListSeriesCollection</text>
</g>
<!-- Node2 -->
<g id="node2" class="node"><title>Node2</title>
<g id="a_node2"><a xlink:href="classumontreal_1_1ssj_1_1charts_1_1XYListSeriesCollection.html" target="_top" xlink:title="This class extends umontreal.ssj.charts.SSJXYSeriesCollection. ">
<polygon fill="none" stroke="black" points="23.5,-57.5 23.5,-76.5 148.5,-76.5 148.5,-57.5 23.5,-57.5"/>
<text text-anchor="middle" x="86" y="-64.5" font-family="Helvetica,sans-Serif" font-size="10.00">XYListSeriesCollection</text>
</a>
</g>
</g>
<!-- Node2&#45;&gt;Node1 -->
<g id="edge1" class="edge"><title>Node2&#45;&gt;Node1</title>
<path fill="none" stroke="midnightblue" d="M86,-47.1166C86,-37.8173 86,-27.0557 86,-19.7149"/>
<polygon fill="midnightblue" stroke="midnightblue" points="82.5001,-47.4062 86,-57.4062 89.5001,-47.4063 82.5001,-47.4062"/>
</g>
<!-- Node3 -->
<g id="node3" class="node"><title>Node3</title>
<g id="a_node3"><a xlink:href="classumontreal_1_1ssj_1_1charts_1_1SSJXYSeriesCollection.html" target="_top" xlink:title="Stores data used in a XYChart. ">
<polygon fill="none" stroke="black" points="24.5,-114.5 24.5,-133.5 147.5,-133.5 147.5,-114.5 24.5,-114.5"/>
<text text-anchor="middle" x="86" y="-121.5" font-family="Helvetica,sans-Serif" font-size="10.00">SSJXYSeriesCollection</text>
</a>
</g>
</g>
<!-- Node3&#45;&gt;Node2 -->
<g id="edge2" class="edge"><title>Node3&#45;&gt;Node2</title>
<path fill="none" stroke="midnightblue" d="M86,-104.117C86,-94.8173 86,-84.0557 86,-76.7149"/>
<polygon fill="midnightblue" stroke="midnightblue" points="82.5001,-104.406 86,-114.406 89.5001,-104.406 82.5001,-104.406"/>
</g>
<!-- Node4 -->
<g id="node4" class="node"><title>Node4</title>
<polygon fill="none" stroke="#bfbfbf" points="0,-181.5 0,-200.5 68,-200.5 68,-181.5 0,-181.5"/>
<text text-anchor="middle" x="34" y="-188.5" font-family="Helvetica,sans-Serif" font-size="10.00">XYDataset</text>
</g>
<!-- Node4&#45;&gt;Node3 -->
<g id="edge3" class="edge"><title>Node4&#45;&gt;Node3</title>
<path fill="none" stroke="#9a32cd" stroke-dasharray="5,2" d="M30.7937,-171.35C30.5865,-164.805 31.4795,-157.677 35,-152 40.1744,-143.656 48.861,-137.744 57.6124,-133.624"/>
<polygon fill="#9a32cd" stroke="#9a32cd" points="27.333,-171.899 31.9114,-181.453 34.2906,-171.129 27.333,-171.899"/>
<text text-anchor="middle" x="76" y="-155" font-family="Helvetica,sans-Serif" font-size="10.00"> seriesCollection</text>
</g>
<!-- Node5 -->
<g id="node5" class="node"><title>Node5</title>
<polygon fill="none" stroke="#bfbfbf" points="91,-181.5 91,-200.5 187,-200.5 187,-181.5 91,-181.5"/>
<text text-anchor="middle" x="139" y="-188.5" font-family="Helvetica,sans-Serif" font-size="10.00">XYItemRenderer</text>
</g>
<!-- Node5&#45;&gt;Node3 -->
<g id="edge4" class="edge"><title>Node5&#45;&gt;Node3</title>
<path fill="none" stroke="#9a32cd" stroke-dasharray="5,2" d="M130.362,-172.344C126.692,-165.651 122.083,-158.165 117,-152 111.37,-145.172 103.921,-138.624 97.7357,-133.686"/>
<polygon fill="#9a32cd" stroke="#9a32cd" points="127.311,-174.062 135.015,-181.335 133.527,-170.845 127.311,-174.062"/>
<text text-anchor="middle" x="146.5" y="-155" font-family="Helvetica,sans-Serif" font-size="10.00"> renderer</text>
</g>
</g>
</svg>
