<?xml version="1.0" encoding="UTF-8" standalone="no"?>
<!DOCTYPE svg PUBLIC "-//W3C//DTD SVG 1.1//EN"
 "http://www.w3.org/Graphics/SVG/1.1/DTD/svg11.dtd">
<!-- Generated by graphviz version 2.38.0 (20140413.2041)
 -->
<!-- Title: RandShiftedPointSet Pages: 1 -->
<svg width="161pt" height="219pt"
 viewBox="0.00 0.00 161.00 219.00" xmlns="http://www.w3.org/2000/svg" xmlns:xlink="http://www.w3.org/1999/xlink">
<g id="graph0" class="graph" transform="scale(1 1) rotate(0) translate(4 215)">
<title>RandShiftedPointSet</title>
<!-- Node1 -->
<g id="node1" class="node"><title>Node1</title>
<polygon fill="#bfbfbf" stroke="black" points="0,-0.5 0,-19.5 108,-19.5 108,-0.5 0,-0.5"/>
<text text-anchor="middle" x="54" y="-7.5" font-family="Helvetica,sans-Serif" font-size="10.00">RandShiftedPointSet</text>
</g>
<!-- Node2 -->
<g id="node2" class="node"><title>Node2</title>
<g id="a_node2"><a xlink:href="classumontreal_1_1ssj_1_1hups_1_1ContainerPointSet.html" target="_top" xlink:title="This acts as a generic base class for all container classes that contain a point set and apply some k...">
<polygon fill="none" stroke="black" points="57,-57.5 57,-76.5 153,-76.5 153,-57.5 57,-57.5"/>
<text text-anchor="middle" x="105" y="-64.5" font-family="Helvetica,sans-Serif" font-size="10.00">ContainerPointSet</text>
</a>
</g>
</g>
<!-- Node2&#45;&gt;Node1 -->
<g id="edge1" class="edge"><title>Node2&#45;&gt;Node1</title>
<path fill="none" stroke="midnightblue" d="M90.0043,-49.8281C80.8718,-39.9794 69.5612,-27.7817 62.0811,-19.7149"/>
<polygon fill="midnightblue" stroke="midnightblue" points="87.6654,-52.4533 97.0312,-57.4062 92.7983,-47.6937 87.6654,-52.4533"/>
</g>
<!-- Node3 -->
<g id="node3" class="node"><title>Node3</title>
<g id="a_node3"><a xlink:href="classumontreal_1_1ssj_1_1hups_1_1PointSet.html" target="_top" xlink:title="This abstract class defines the basic methods for accessing and manipulating point sets...">
<polygon fill="none" stroke="black" points="71,-124.5 71,-143.5 125,-143.5 125,-124.5 71,-124.5"/>
<text text-anchor="middle" x="98" y="-131.5" font-family="Helvetica,sans-Serif" font-size="10.00">PointSet</text>
</a>
</g>
</g>
<!-- Node3&#45;&gt;Node2 -->
<g id="edge2" class="edge"><title>Node3&#45;&gt;Node2</title>
<path fill="none" stroke="midnightblue" d="M100.042,-114.037C101.374,-101.67 103.049,-86.1198 104.071,-76.6273"/>
<polygon fill="midnightblue" stroke="midnightblue" points="96.535,-113.917 98.9441,-124.234 103.495,-114.666 96.535,-113.917"/>
</g>
<!-- Node3&#45;&gt;Node2 -->
<g id="edge4" class="edge"><title>Node3&#45;&gt;Node2</title>
<path fill="none" stroke="#9a32cd" stroke-dasharray="5,2" d="M106.444,-114.995C107.502,-112.047 108.416,-108.98 109,-106 110.964,-95.9747 109.117,-84.2597 107.334,-76.5159"/>
<polygon fill="#9a32cd" stroke="#9a32cd" points="103.195,-113.692 102.566,-124.268 109.653,-116.393 103.195,-113.692"/>
<text text-anchor="middle" x="114" y="-98" font-family="Helvetica,sans-Serif" font-size="10.00"> P</text>
</g>
<!-- Node4 -->
<g id="node4" class="node"><title>Node4</title>
<g id="a_node4"><a xlink:href="interfaceumontreal_1_1ssj_1_1rng_1_1RandomStream.html" target="_top" xlink:title="This interface defines the basic structures to handle multiple streams of uniform (pseudo)random numb...">
<polygon fill="none" stroke="black" points="11.5,-191.5 11.5,-210.5 96.5,-210.5 96.5,-191.5 11.5,-191.5"/>
<text text-anchor="middle" x="54" y="-198.5" font-family="Helvetica,sans-Serif" font-size="10.00">RandomStream</text>
</a>
</g>
</g>
<!-- Node4&#45;&gt;Node1 -->
<g id="edge5" class="edge"><title>Node4&#45;&gt;Node1</title>
<path fill="none" stroke="#9a32cd" stroke-dasharray="5,2" d="M50.0991,-181.213C46.1942,-160.233 41.0279,-125.247 43,-95 44.799,-67.4078 49.8881,-35.0399 52.4647,-19.7913"/>
<polygon fill="#9a32cd" stroke="#9a32cd" points="46.7206,-182.172 52.0853,-191.308 53.5889,-180.82 46.7206,-182.172"/>
<text text-anchor="middle" x="70" y="-98" font-family="Helvetica,sans-Serif" font-size="10.00"> shiftStream</text>
</g>
<!-- Node4&#45;&gt;Node3 -->
<g id="edge3" class="edge"><title>Node4&#45;&gt;Node3</title>
<path fill="none" stroke="#9a32cd" stroke-dasharray="5,2" d="M65.5729,-182.904C74.123,-170.273 85.4065,-153.604 92.16,-143.627"/>
<polygon fill="#9a32cd" stroke="#9a32cd" points="62.6414,-180.991 59.934,-191.234 68.4381,-184.915 62.6414,-180.991"/>
<text text-anchor="middle" x="105" y="-165" font-family="Helvetica,sans-Serif" font-size="10.00"> shiftStream</text>
</g>
</g>
</svg>
