<?xml version="1.0" encoding="UTF-8" standalone="no"?>
<!DOCTYPE svg PUBLIC "-//W3C//DTD SVG 1.1//EN"
 "http://www.w3.org/Graphics/SVG/1.1/DTD/svg11.dtd">
<!-- Generated by graphviz version 2.26.3 (20100126.1600)
 -->
<!-- Title: RandomStreamBase Pages: 1 -->
<svg width="241pt" height="146pt"
 viewBox="0.00 0.00 241.00 146.00" xmlns="http://www.w3.org/2000/svg" xmlns:xlink="http://www.w3.org/1999/xlink">
<g id="graph1" class="graph" transform="scale(1 1) rotate(0) translate(4 142)">
<title>RandomStreamBase</title>
<!-- Node1 -->
<g id="node1" class="node"><title>Node1</title>
<polygon fill="#bfbfbf" stroke="black" points="89.5,-1 89.5,-21 196.5,-21 196.5,-1 89.5,-1"/>
<text text-anchor="middle" x="143" y="-8" font-family="Helvetica,sans-Serif" font-size="10.00">RandomStreamBase</text>
</g>
<!-- Node2 -->
<g id="node2" class="node"><title>Node2</title>
<a xlink:href="interfaceumontreal_1_1ssj_1_1rng_1_1CloneableRandomStream.html" target="_top" xlink:title="CloneableRandomStream extends RandomStream and Cloneable. ">
<polygon fill="none" stroke="black" points="22.5,-59 22.5,-79 149.5,-79 149.5,-59 22.5,-59"/>
<text text-anchor="middle" x="86" y="-66" font-family="Helvetica,sans-Serif" font-size="10.00">CloneableRandomStream</text>
</a>
</g>
<!-- Node2&#45;&gt;Node1 -->
<g id="edge2" class="edge"><title>Node2&#45;&gt;Node1</title>
<path fill="none" stroke="midnightblue" d="M103.131,-51.5682C112.805,-41.7249 124.569,-29.7548 132.801,-21.3776"/>
<polygon fill="midnightblue" stroke="midnightblue" points="100.442,-49.3116 95.9286,-58.8972 105.434,-54.2181 100.442,-49.3116"/>
</g>
<!-- Node3 -->
<g id="node4" class="node"><title>Node3</title>
<a xlink:href="interfaceumontreal_1_1ssj_1_1rng_1_1RandomStream.html" target="_top" xlink:title="This interface defines the basic structures to handle multiple streams of uniform (pseudo)random numb...">
<polygon fill="none" stroke="black" points="0,-117 0,-137 84,-137 84,-117 0,-117"/>
<text text-anchor="middle" x="42" y="-124" font-family="Helvetica,sans-Serif" font-size="10.00">RandomStream</text>
</a>
</g>
<!-- Node3&#45;&gt;Node2 -->
<g id="edge4" class="edge"><title>Node3&#45;&gt;Node2</title>
<path fill="none" stroke="midnightblue" d="M55.8937,-108.686C63.2285,-99.0169 71.961,-87.5059 78.1273,-79.3776"/>
<polygon fill="midnightblue" stroke="midnightblue" points="52.9197,-106.815 49.6642,-116.897 58.4965,-111.046 52.9197,-106.815"/>
</g>
<!-- Node4 -->
<g id="node6" class="node"><title>Node4</title>
<polygon fill="none" stroke="#bfbfbf" points="101.5,-117 101.5,-137 160.5,-137 160.5,-117 101.5,-117"/>
<text text-anchor="middle" x="131" y="-124" font-family="Helvetica,sans-Serif" font-size="10.00">Cloneable</text>
</g>
<!-- Node4&#45;&gt;Node2 -->
<g id="edge6" class="edge"><title>Node4&#45;&gt;Node2</title>
<path fill="none" stroke="midnightblue" d="M117.02,-108.981C109.472,-99.2522 100.422,-87.5889 94.0516,-79.3776"/>
<polygon fill="midnightblue" stroke="midnightblue" points="114.266,-111.142 123.162,-116.897 119.797,-106.851 114.266,-111.142"/>
</g>
<!-- Node5 -->
<g id="node8" class="node"><title>Node5</title>
<polygon fill="none" stroke="#bfbfbf" points="166.5,-59 166.5,-79 233.5,-79 233.5,-59 166.5,-59"/>
<text text-anchor="middle" x="200" y="-66" font-family="Helvetica,sans-Serif" font-size="10.00">Serializable</text>
</g>
<!-- Node5&#45;&gt;Node1 -->
<g id="edge8" class="edge"><title>Node5&#45;&gt;Node1</title>
<path fill="none" stroke="midnightblue" d="M182.869,-51.5682C173.195,-41.7249 161.431,-29.7548 153.199,-21.3776"/>
<polygon fill="midnightblue" stroke="midnightblue" points="180.566,-54.2181 190.071,-58.8972 185.558,-49.3116 180.566,-54.2181"/>
</g>
</g>
</svg>
