<?xml version="1.0" encoding="UTF-8" standalone="no"?>
<!DOCTYPE svg PUBLIC "-//W3C//DTD SVG 1.1//EN"
 "http://www.w3.org/Graphics/SVG/1.1/DTD/svg11.dtd">
<!-- Generated by graphviz version 2.26.3 (20100126.1600)
 -->
<!-- Title: BiNormalDonnellyDist Pages: 1 -->
<svg width="144pt" height="204pt"
 viewBox="0.00 0.00 144.00 204.00" xmlns="http://www.w3.org/2000/svg" xmlns:xlink="http://www.w3.org/1999/xlink">
<g id="graph1" class="graph" transform="scale(1 1) rotate(0) translate(4 200)">
<title>BiNormalDonnellyDist</title>
<!-- Node1 -->
<g id="node1" class="node"><title>Node1</title>
<polygon fill="#bfbfbf" stroke="black" points="12.5,-1 12.5,-21 123.5,-21 123.5,-1 12.5,-1"/>
<text text-anchor="middle" x="68" y="-8" font-family="Helvetica,sans-Serif" font-size="10.00">BiNormalDonnellyDist</text>
</g>
<!-- Node2 -->
<g id="node2" class="node"><title>Node2</title>
<a xlink:href="classumontreal_1_1ssj_1_1probdistmulti_1_1BiNormalDist.html" target="_top" xlink:title="Extends the class ContinuousDistribution2Dim for the bivariate normal distribution   (page 84)...">
<polygon fill="none" stroke="black" points="31,-59 31,-79 105,-79 105,-59 31,-59"/>
<text text-anchor="middle" x="68" y="-66" font-family="Helvetica,sans-Serif" font-size="10.00">BiNormalDist</text>
</a>
</g>
<!-- Node2&#45;&gt;Node1 -->
<g id="edge2" class="edge"><title>Node2&#45;&gt;Node1</title>
<path fill="none" stroke="midnightblue" d="M68,-48.8902C68,-39.6201 68,-29.0083 68,-21.3776"/>
<polygon fill="midnightblue" stroke="midnightblue" points="64.5001,-48.8971 68,-58.8972 71.5001,-48.8972 64.5001,-48.8971"/>
</g>
<!-- Node3 -->
<g id="node4" class="node"><title>Node3</title>
<a xlink:href="classumontreal_1_1ssj_1_1probdistmulti_1_1ContinuousDistribution2Dim.html" target="_top" xlink:title="Classes implementing 2&#45;dimensional continuous distributions should inherit from this class...">
<polygon fill="none" stroke="black" points="-0.5,-117 -0.5,-137 136.5,-137 136.5,-117 -0.5,-117"/>
<text text-anchor="middle" x="68" y="-124" font-family="Helvetica,sans-Serif" font-size="10.00">ContinuousDistribution2Dim</text>
</a>
</g>
<!-- Node3&#45;&gt;Node2 -->
<g id="edge4" class="edge"><title>Node3&#45;&gt;Node2</title>
<path fill="none" stroke="midnightblue" d="M68,-106.89C68,-97.6201 68,-87.0083 68,-79.3776"/>
<polygon fill="midnightblue" stroke="midnightblue" points="64.5001,-106.897 68,-116.897 71.5001,-106.897 64.5001,-106.897"/>
</g>
<!-- Node4 -->
<g id="node6" class="node"><title>Node4</title>
<a xlink:href="classumontreal_1_1ssj_1_1probdistmulti_1_1ContinuousDistributionMulti.html" target="_top" xlink:title="Classes implementing continuous multi&#45;dimensional distributions should inherit from this class...">
<polygon fill="none" stroke="black" points="0.5,-175 0.5,-195 135.5,-195 135.5,-175 0.5,-175"/>
<text text-anchor="middle" x="68" y="-182" font-family="Helvetica,sans-Serif" font-size="10.00">ContinuousDistributionMulti</text>
</a>
</g>
<!-- Node4&#45;&gt;Node3 -->
<g id="edge6" class="edge"><title>Node4&#45;&gt;Node3</title>
<path fill="none" stroke="midnightblue" d="M68,-164.89C68,-155.62 68,-145.008 68,-137.378"/>
<polygon fill="midnightblue" stroke="midnightblue" points="64.5001,-164.897 68,-174.897 71.5001,-164.897 64.5001,-164.897"/>
</g>
</g>
</svg>
