<?xml version="1.0" encoding="UTF-8" standalone="no"?>
<!DOCTYPE svg PUBLIC "-//W3C//DTD SVG 1.1//EN"
 "http://www.w3.org/Graphics/SVG/1.1/DTD/svg11.dtd">
<!-- Generated by graphviz version 2.38.0 (20140413.2041)
 -->
<!-- Title: InverseGaussianProcessBridge Pages: 1 -->
<svg width="316pt" height="286pt"
 viewBox="0.00 0.00 316.00 286.00" xmlns="http://www.w3.org/2000/svg" xmlns:xlink="http://www.w3.org/1999/xlink">
<g id="graph0" class="graph" transform="scale(1 1) rotate(0) translate(4 282)">
<title>InverseGaussianProcessBridge</title>
<!-- Node1 -->
<g id="node1" class="node"><title>Node1</title>
<polygon fill="#bfbfbf" stroke="black" points="84.5,-0.5 84.5,-19.5 251.5,-19.5 251.5,-0.5 84.5,-0.5"/>
<text text-anchor="middle" x="168" y="-7.5" font-family="Helvetica,sans-Serif" font-size="10.00">InverseGaussianProcessBridge</text>
</g>
<!-- Node2 -->
<g id="node2" class="node"><title>Node2</title>
<g id="a_node2"><a xlink:href="classumontreal_1_1ssj_1_1stochprocess_1_1InverseGaussianProcessMSH.html" target="_top" xlink:title="Uses a faster generating method (MSH)   than the simple inversion of the distribution function used ...">
<polygon fill="none" stroke="black" points="89.5,-57.5 89.5,-76.5 246.5,-76.5 246.5,-57.5 89.5,-57.5"/>
<text text-anchor="middle" x="168" y="-64.5" font-family="Helvetica,sans-Serif" font-size="10.00">InverseGaussianProcessMSH</text>
</a>
</g>
</g>
<!-- Node2&#45;&gt;Node1 -->
<g id="edge1" class="edge"><title>Node2&#45;&gt;Node1</title>
<path fill="none" stroke="midnightblue" d="M168,-47.1166C168,-37.8173 168,-27.0557 168,-19.7149"/>
<polygon fill="midnightblue" stroke="midnightblue" points="164.5,-47.4062 168,-57.4062 171.5,-47.4063 164.5,-47.4062"/>
</g>
<!-- Node3 -->
<g id="node3" class="node"><title>Node3</title>
<g id="a_node3"><a xlink:href="classumontreal_1_1ssj_1_1stochprocess_1_1InverseGaussianProcess.html" target="_top" xlink:title="The inverse Gaussian process is a non&#45;decreasing process where the increments are additive and are gi...">
<polygon fill="none" stroke="black" points="4.5,-191.5 4.5,-210.5 139.5,-210.5 139.5,-191.5 4.5,-191.5"/>
<text text-anchor="middle" x="72" y="-198.5" font-family="Helvetica,sans-Serif" font-size="10.00">InverseGaussianProcess</text>
</a>
</g>
</g>
<!-- Node3&#45;&gt;Node2 -->
<g id="edge2" class="edge"><title>Node3&#45;&gt;Node2</title>
<path fill="none" stroke="midnightblue" d="M84.2447,-183.164C104.958,-154.683 146.18,-98.003 161.803,-76.5212"/>
<polygon fill="midnightblue" stroke="midnightblue" points="81.35,-181.193 78.2988,-191.339 87.0112,-185.31 81.35,-181.193"/>
</g>
<!-- Node4 -->
<g id="node4" class="node"><title>Node4</title>
<g id="a_node4"><a xlink:href="classumontreal_1_1ssj_1_1stochprocess_1_1StochasticProcess.html" target="_top" xlink:title="Abstract base class for a stochastic process &#160;sampled (or observed) at a finite number of time points...">
<polygon fill="none" stroke="black" points="0,-258.5 0,-277.5 104,-277.5 104,-258.5 0,-258.5"/>
<text text-anchor="middle" x="52" y="-265.5" font-family="Helvetica,sans-Serif" font-size="10.00">StochasticProcess</text>
</a>
</g>
</g>
<!-- Node4&#45;&gt;Node3 -->
<g id="edge3" class="edge"><title>Node4&#45;&gt;Node3</title>
<path fill="none" stroke="midnightblue" d="M57.7186,-248.415C61.542,-235.988 66.3949,-220.217 69.3454,-210.627"/>
<polygon fill="midnightblue" stroke="midnightblue" points="54.293,-247.647 54.6973,-258.234 60.9834,-249.705 54.293,-247.647"/>
</g>
<!-- Node5 -->
<g id="node5" class="node"><title>Node5</title>
<g id="a_node5"><a xlink:href="interfaceumontreal_1_1ssj_1_1rng_1_1RandomStream.html" target="_top" xlink:title="This interface defines the basic structures to handle multiple streams of uniform (pseudo)random numb...">
<polygon fill="none" stroke="black" points="122,-258.5 122,-277.5 214,-277.5 214,-258.5 122,-258.5"/>
<text text-anchor="middle" x="168" y="-265.5" font-family="Helvetica,sans-Serif" font-size="10.00">RandomStream</text>
</a>
</g>
</g>
<!-- Node5&#45;&gt;Node2 -->
<g id="edge9" class="edge"><title>Node5&#45;&gt;Node2</title>
<path fill="none" stroke="#9a32cd" stroke-dasharray="5,2" d="M168,-248.302C168,-206.506 168,-106.826 168,-76.743"/>
<polygon fill="#9a32cd" stroke="#9a32cd" points="164.5,-248.449 168,-258.449 171.5,-248.449 164.5,-248.449"/>
<text text-anchor="middle" x="200" y="-165" font-family="Helvetica,sans-Serif" font-size="10.00"> otherStream</text>
</g>
<!-- Node5&#45;&gt;Node3 -->
<g id="edge4" class="edge"><title>Node5&#45;&gt;Node3</title>
<path fill="none" stroke="#9a32cd" stroke-dasharray="5,2" d="M139.441,-253.69C131.627,-249.645 123.303,-244.95 116,-240 102.799,-231.053 89.1323,-218.675 80.6035,-210.509"/>
<polygon fill="#9a32cd" stroke="#9a32cd" points="138.107,-256.936 148.617,-258.274 141.236,-250.674 138.107,-256.936"/>
<text text-anchor="middle" x="135" y="-232" font-family="Helvetica,sans-Serif" font-size="10.00"> stream</text>
</g>
<!-- Node7 -->
<g id="node7" class="node"><title>Node7</title>
<g id="a_node7"><a xlink:href="classumontreal_1_1ssj_1_1randvar_1_1RandomVariateGen.html" target="_top" xlink:title="This is the base class for all random variate generators over the real line. ">
<polygon fill="none" stroke="black" points="196,-191.5 196,-210.5 308,-210.5 308,-191.5 196,-191.5"/>
<text text-anchor="middle" x="252" y="-198.5" font-family="Helvetica,sans-Serif" font-size="10.00">RandomVariateGen</text>
</a>
</g>
</g>
<!-- Node5&#45;&gt;Node7 -->
<g id="edge8" class="edge"><title>Node5&#45;&gt;Node7</title>
<path fill="none" stroke="#9a32cd" stroke-dasharray="5,2" d="M187.297,-252.068C203.878,-239.238 227.207,-221.185 240.851,-210.627"/>
<polygon fill="#9a32cd" stroke="#9a32cd" points="185.095,-249.346 179.329,-258.234 189.379,-254.882 185.095,-249.346"/>
<text text-anchor="middle" x="235" y="-232" font-family="Helvetica,sans-Serif" font-size="10.00"> stream</text>
</g>
<!-- Node6 -->
<g id="node6" class="node"><title>Node6</title>
<g id="a_node6"><a xlink:href="classumontreal_1_1ssj_1_1randvar_1_1NormalGen.html" target="_top" xlink:title="This class implements methods for generating random variates from the normal distribution ...">
<polygon fill="none" stroke="black" points="204,-124.5 204,-143.5 276,-143.5 276,-124.5 204,-124.5"/>
<text text-anchor="middle" x="240" y="-131.5" font-family="Helvetica,sans-Serif" font-size="10.00">NormalGen</text>
</a>
</g>
</g>
<!-- Node6&#45;&gt;Node2 -->
<g id="edge5" class="edge"><title>Node6&#45;&gt;Node2</title>
<path fill="none" stroke="#9a32cd" stroke-dasharray="5,2" d="M222.672,-117.356C208.517,-104.578 189.037,-86.9915 177.556,-76.6273"/>
<polygon fill="#9a32cd" stroke="#9a32cd" points="220.522,-120.131 230.29,-124.234 225.212,-114.935 220.522,-120.131"/>
<text text-anchor="middle" x="238" y="-98" font-family="Helvetica,sans-Serif" font-size="10.00"> normalGen</text>
</g>
<!-- Node7&#45;&gt;Node6 -->
<g id="edge6" class="edge"><title>Node7&#45;&gt;Node6</title>
<path fill="none" stroke="midnightblue" d="M248.499,-181.037C246.216,-168.67 243.345,-153.12 241.593,-143.627"/>
<polygon fill="midnightblue" stroke="midnightblue" points="245.124,-182.035 250.382,-191.234 252.008,-180.765 245.124,-182.035"/>
</g>
<!-- Node8 -->
<g id="node8" class="node"><title>Node8</title>
<g id="a_node8"><a xlink:href="interfaceumontreal_1_1ssj_1_1probdist_1_1Distribution.html" target="_top" xlink:title="This interface should be implemented by all classes supporting discrete and continuous distributions...">
<polygon fill="none" stroke="black" points="232,-258.5 232,-277.5 306,-277.5 306,-258.5 232,-258.5"/>
<text text-anchor="middle" x="269" y="-265.5" font-family="Helvetica,sans-Serif" font-size="10.00">Distribution</text>
</a>
</g>
</g>
<!-- Node8&#45;&gt;Node7 -->
<g id="edge7" class="edge"><title>Node8&#45;&gt;Node7</title>
<path fill="none" stroke="#9a32cd" stroke-dasharray="5,2" d="M264.139,-248.415C260.889,-235.988 256.764,-220.217 254.256,-210.627"/>
<polygon fill="#9a32cd" stroke="#9a32cd" points="260.791,-249.445 266.707,-258.234 267.563,-247.674 260.791,-249.445"/>
<text text-anchor="middle" x="273" y="-232" font-family="Helvetica,sans-Serif" font-size="10.00"> dist</text>
</g>
</g>
</svg>
