<?xml version="1.0" encoding="UTF-8" standalone="no"?>
<!DOCTYPE svg PUBLIC "-//W3C//DTD SVG 1.1//EN"
 "http://www.w3.org/Graphics/SVG/1.1/DTD/svg11.dtd">
<!-- Generated by graphviz version 2.38.0 (20140413.2041)
 -->
<!-- Title: ListWithStat&lt; E &gt; Pages: 1 -->
<svg width="142pt" height="151pt"
 viewBox="0.00 0.00 142.00 151.00" xmlns="http://www.w3.org/2000/svg" xmlns:xlink="http://www.w3.org/1999/xlink">
<g id="graph0" class="graph" transform="scale(1 1) rotate(0) translate(4 147)">
<title>ListWithStat&lt; E &gt;</title>
<!-- Node1 -->
<g id="node1" class="node"><title>Node1</title>
<polygon fill="#bfbfbf" stroke="black" points="19.5,-56.5 19.5,-75.5 114.5,-75.5 114.5,-56.5 19.5,-56.5"/>
<text text-anchor="middle" x="67" y="-63.5" font-family="Helvetica,sans-Serif" font-size="10.00">ListWithStat&lt; E &gt;</text>
</g>
<!-- Node3 -->
<g id="node3" class="node"><title>Node3</title>
<g id="a_node3"><a xlink:href="classumontreal_1_1ssj_1_1simevents_1_1LinkedListStat_3_01E_01_4.html" target="_top" xlink:title="This class extends ListWithStat, and uses a linked list as the internal data structure. ">
<polygon fill="none" stroke="black" points="15,-0.5 15,-19.5 119,-19.5 119,-0.5 15,-0.5"/>
<text text-anchor="middle" x="67" y="-7.5" font-family="Helvetica,sans-Serif" font-size="10.00">LinkedListStat&lt; E &gt;</text>
</a>
</g>
</g>
<!-- Node1&#45;&gt;Node3 -->
<g id="edge2" class="edge"><title>Node1&#45;&gt;Node3</title>
<path fill="none" stroke="midnightblue" d="M67,-45.8045C67,-36.9102 67,-26.7798 67,-19.7511"/>
<polygon fill="midnightblue" stroke="midnightblue" points="63.5001,-46.083 67,-56.083 70.5001,-46.083 63.5001,-46.083"/>
</g>
<!-- Node2 -->
<g id="node2" class="node"><title>Node2</title>
<polygon fill="none" stroke="#bfbfbf" points="0,-112.5 0,-142.5 134,-142.5 134,-112.5 0,-112.5"/>
<text text-anchor="start" x="8" y="-130.5" font-family="Helvetica,sans-Serif" font-size="10.00">TransformingList&lt; E,</text>
<text text-anchor="middle" x="67" y="-119.5" font-family="Helvetica,sans-Serif" font-size="10.00"> ListWithStat.Node&lt; E &gt; &gt;</text>
</g>
<!-- Node2&#45;&gt;Node1 -->
<g id="edge1" class="edge"><title>Node2&#45;&gt;Node1</title>
<path fill="none" stroke="midnightblue" d="M67,-102.289C67,-92.857 67,-82.6548 67,-75.6578"/>
<polygon fill="midnightblue" stroke="midnightblue" points="63.5001,-102.399 67,-112.399 70.5001,-102.399 63.5001,-102.399"/>
</g>
</g>
</svg>
