<?xml version="1.0" encoding="UTF-8" standalone="no"?>
<!DOCTYPE svg PUBLIC "-//W3C//DTD SVG 1.1//EN"
 "http://www.w3.org/Graphics/SVG/1.1/DTD/svg11.dtd">
<!-- Generated by graphviz version 2.26.3 (20100126.1600)
 -->
<!-- Title: DiscreteDistIntChart Pages: 1 -->
<svg width="295pt" height="324pt"
 viewBox="0.00 0.00 295.00 324.00" xmlns="http://www.w3.org/2000/svg" xmlns:xlink="http://www.w3.org/1999/xlink">
<g id="graph1" class="graph" transform="scale(1 1) rotate(0) translate(4 320)">
<title>DiscreteDistIntChart</title>
<!-- Node1 -->
<g id="node1" class="node"><title>Node1</title>
<polygon fill="#bfbfbf" stroke="black" points="107,-1 107,-21 211,-21 211,-1 107,-1"/>
<text text-anchor="middle" x="159" y="-8" font-family="Helvetica,sans-Serif" font-size="10.00">DiscreteDistIntChart</text>
</g>
<!-- Node2 -->
<g id="node2" class="node"><title>Node2</title>
<a xlink:href="classumontreal_1_1ssj_1_1charts_1_1XYLineChart.html" target="_top" xlink:title="This class provides tools to create and manage curve plots. ">
<polygon fill="none" stroke="black" points="64.5,-83 64.5,-103 135.5,-103 135.5,-83 64.5,-83"/>
<text text-anchor="middle" x="100" y="-90" font-family="Helvetica,sans-Serif" font-size="10.00">XYLineChart</text>
</a>
</g>
<!-- Node2&#45;&gt;Node1 -->
<g id="edge2" class="edge"><title>Node2&#45;&gt;Node1</title>
<path fill="none" stroke="#9a32cd" stroke-dasharray="5,2" d="M108.854,-73.5779C114.031,-63.1579 121.095,-50.3655 129,-40 134.271,-33.0878 141.192,-26.2837 147.059,-21.0052"/>
<polygon fill="#9a32cd" stroke="#9a32cd" points="105.656,-72.1526 104.503,-82.6845 111.972,-75.1705 105.656,-72.1526"/>
<text text-anchor="middle" x="152" y="-55" font-family="Helvetica,sans-Serif" font-size="10.00"> probChart</text>
<text text-anchor="middle" x="152" y="-43" font-family="Helvetica,sans-Serif" font-size="10.00">cdfChart</text>
</g>
<!-- Node3 -->
<g id="node4" class="node"><title>Node3</title>
<a xlink:href="classumontreal_1_1ssj_1_1charts_1_1XYChart.html" target="_top" xlink:title="This class provides tools to create charts from data in a simple way. ">
<polygon fill="none" stroke="black" points="73.5,-143 73.5,-163 126.5,-163 126.5,-143 73.5,-143"/>
<text text-anchor="middle" x="100" y="-150" font-family="Helvetica,sans-Serif" font-size="10.00">XYChart</text>
</a>
</g>
<!-- Node3&#45;&gt;Node2 -->
<g id="edge4" class="edge"><title>Node3&#45;&gt;Node2</title>
<path fill="none" stroke="midnightblue" d="M100,-132.516C100,-122.562 100,-111.05 100,-103.028"/>
<polygon fill="midnightblue" stroke="midnightblue" points="96.5001,-132.822 100,-142.822 103.5,-132.822 96.5001,-132.822"/>
</g>
<!-- Node4 -->
<g id="node6" class="node"><title>Node4</title>
<polygon fill="none" stroke="#bfbfbf" points="-0.5,-225 -0.5,-245 64.5,-245 64.5,-225 -0.5,-225"/>
<text text-anchor="middle" x="32" y="-232" font-family="Helvetica,sans-Serif" font-size="10.00">JFreeChart</text>
</g>
<!-- Node4&#45;&gt;Node3 -->
<g id="edge6" class="edge"><title>Node4&#45;&gt;Node3</title>
<path fill="none" stroke="#9a32cd" stroke-dasharray="5,2" d="M44.5524,-216.533C51.8957,-206.101 61.5557,-192.99 71,-182 76.6615,-175.412 83.5131,-168.517 89.1347,-163.104"/>
<polygon fill="#9a32cd" stroke="#9a32cd" points="41.5798,-214.678 38.7592,-224.89 47.3328,-218.666 41.5798,-214.678"/>
<text text-anchor="middle" x="83.5" y="-191" font-family="Helvetica,sans-Serif" font-size="10.00"> chart</text>
</g>
<!-- Node5 -->
<g id="node8" class="node"><title>Node5</title>
<a xlink:href="classumontreal_1_1ssj_1_1charts_1_1Axis.html" target="_top" xlink:title="Represents an axis of a chart encapsulated by an instance of XYChart. ">
<polygon fill="none" stroke="black" points="82,-225 82,-245 118,-245 118,-225 82,-225"/>
<text text-anchor="middle" x="100" y="-232" font-family="Helvetica,sans-Serif" font-size="10.00">Axis</text>
</a>
</g>
<!-- Node5&#45;&gt;Node3 -->
<g id="edge8" class="edge"><title>Node5&#45;&gt;Node3</title>
<path fill="none" stroke="#9a32cd" stroke-dasharray="5,2" d="M100,-214.75C100,-198.361 100,-175.965 100,-163.137"/>
<polygon fill="#9a32cd" stroke="#9a32cd" points="96.5001,-214.945 100,-224.945 103.5,-214.945 96.5001,-214.945"/>
<text text-anchor="middle" x="115" y="-197" font-family="Helvetica,sans-Serif" font-size="10.00"> XAxis</text>
<text text-anchor="middle" x="115" y="-185" font-family="Helvetica,sans-Serif" font-size="10.00">YAxis</text>
</g>
<!-- Node6 -->
<g id="node10" class="node"><title>Node6</title>
<a xlink:href="classumontreal_1_1ssj_1_1charts_1_1SSJXYSeriesCollection.html" target="_top" xlink:title="Stores data used in a XYChart. ">
<polygon fill="none" stroke="black" points="135.5,-225 135.5,-245 254.5,-245 254.5,-225 135.5,-225"/>
<text text-anchor="middle" x="195" y="-232" font-family="Helvetica,sans-Serif" font-size="10.00">SSJXYSeriesCollection</text>
</a>
</g>
<!-- Node6&#45;&gt;Node3 -->
<g id="edge10" class="edge"><title>Node6&#45;&gt;Node3</title>
<path fill="none" stroke="#9a32cd" stroke-dasharray="5,2" d="M175.705,-218.157C163.724,-207.717 147.995,-194.048 134,-182 126.709,-175.724 118.504,-168.723 111.981,-163.173"/>
<polygon fill="#9a32cd" stroke="#9a32cd" points="173.496,-220.874 183.333,-224.808 178.096,-215.598 173.496,-220.874"/>
<text text-anchor="middle" x="179" y="-191" font-family="Helvetica,sans-Serif" font-size="10.00"> dataset</text>
</g>
<!-- Node7 -->
<g id="node12" class="node"><title>Node7</title>
<polygon fill="none" stroke="#bfbfbf" points="115,-295 115,-315 179,-315 179,-295 115,-295"/>
<text text-anchor="middle" x="147" y="-302" font-family="Helvetica,sans-Serif" font-size="10.00">XYDataset</text>
</g>
<!-- Node7&#45;&gt;Node6 -->
<g id="edge12" class="edge"><title>Node7&#45;&gt;Node6</title>
<path fill="none" stroke="#9a32cd" stroke-dasharray="5,2" d="M143.711,-284.707C143.531,-277.744 144.464,-270.159 148,-264 152.678,-255.851 160.662,-249.692 168.736,-245.192"/>
<polygon fill="#9a32cd" stroke="#9a32cd" points="140.245,-285.229 144.693,-294.845 147.212,-284.554 140.245,-285.229"/>
<text text-anchor="middle" x="184.5" y="-267" font-family="Helvetica,sans-Serif" font-size="10.00"> seriesCollection</text>
</g>
<!-- Node8 -->
<g id="node14" class="node"><title>Node8</title>
<polygon fill="none" stroke="#bfbfbf" points="198.5,-295 198.5,-315 287.5,-315 287.5,-295 198.5,-295"/>
<text text-anchor="middle" x="243" y="-302" font-family="Helvetica,sans-Serif" font-size="10.00">XYItemRenderer</text>
</g>
<!-- Node8&#45;&gt;Node6 -->
<g id="edge14" class="edge"><title>Node8&#45;&gt;Node6</title>
<path fill="none" stroke="#9a32cd" stroke-dasharray="5,2" d="M233.7,-285.41C230.079,-278.436 225.675,-270.665 221,-264 216.34,-257.357 210.336,-250.57 205.272,-245.233"/>
<polygon fill="#9a32cd" stroke="#9a32cd" points="230.801,-287.44 238.387,-294.835 237.068,-284.323 230.801,-287.44"/>
<text text-anchor="middle" x="248.5" y="-267" font-family="Helvetica,sans-Serif" font-size="10.00"> renderer</text>
</g>
<!-- Node9 -->
<g id="node16" class="node"><title>Node9</title>
<a xlink:href="classumontreal_1_1ssj_1_1probdist_1_1DiscreteDistributionInt.html" target="_top" xlink:title="Classes implementing discrete distributions over the integers should inherit from this class...">
<polygon fill="none" stroke="black" points="152.5,-83 152.5,-103 265.5,-103 265.5,-83 152.5,-83"/>
<text text-anchor="middle" x="209" y="-90" font-family="Helvetica,sans-Serif" font-size="10.00">DiscreteDistributionInt</text>
</a>
</g>
<!-- Node9&#45;&gt;Node1 -->
<g id="edge16" class="edge"><title>Node9&#45;&gt;Node1</title>
<path fill="none" stroke="#9a32cd" stroke-dasharray="5,2" d="M197.508,-74.153C187.452,-57.6611 173.229,-34.3353 165.181,-21.1371"/>
<polygon fill="#9a32cd" stroke="#9a32cd" points="194.675,-76.2294 202.869,-82.9452 200.651,-72.5851 194.675,-76.2294"/>
<text text-anchor="middle" x="199.5" y="-49" font-family="Helvetica,sans-Serif" font-size="10.00"> dist</text>
</g>
<!-- Node10 -->
<g id="node18" class="node"><title>Node10</title>
<a xlink:href="interfaceumontreal_1_1ssj_1_1probdist_1_1Distribution.html" target="_top" xlink:title="This interface should be implemented by all classes supporting discrete and continuous distributions...">
<polygon fill="none" stroke="black" points="176.5,-143 176.5,-163 241.5,-163 241.5,-143 176.5,-143"/>
<text text-anchor="middle" x="209" y="-150" font-family="Helvetica,sans-Serif" font-size="10.00">Distribution</text>
</a>
</g>
<!-- Node10&#45;&gt;Node9 -->
<g id="edge18" class="edge"><title>Node10&#45;&gt;Node9</title>
<path fill="none" stroke="midnightblue" d="M209,-132.516C209,-122.562 209,-111.05 209,-103.028"/>
<polygon fill="midnightblue" stroke="midnightblue" points="205.5,-132.822 209,-142.822 212.5,-132.822 205.5,-132.822"/>
</g>
</g>
</svg>
