<?xml version="1.0" encoding="UTF-8" standalone="no"?>
<!DOCTYPE svg PUBLIC "-//W3C//DTD SVG 1.1//EN"
 "http://www.w3.org/Graphics/SVG/1.1/DTD/svg11.dtd">
<!-- Generated by graphviz version 2.26.3 (20100126.1600)
 -->
<!-- Title: BetaRejectionLoglogisticGen Pages: 1 -->
<svg width="150pt" height="146pt"
 viewBox="0.00 0.00 150.00 146.00" xmlns="http://www.w3.org/2000/svg" xmlns:xlink="http://www.w3.org/1999/xlink">
<g id="graph1" class="graph" transform="scale(1 1) rotate(0) translate(4 142)">
<title>BetaRejectionLoglogisticGen</title>
<!-- Node1 -->
<g id="node1" class="node"><title>Node1</title>
<polygon fill="#bfbfbf" stroke="black" points="0,-1 0,-21 142,-21 142,-1 0,-1"/>
<text text-anchor="middle" x="71" y="-8" font-family="Helvetica,sans-Serif" font-size="10.00">BetaRejectionLoglogisticGen</text>
</g>
<!-- Node2 -->
<g id="node2" class="node"><title>Node2</title>
<a xlink:href="classumontreal_1_1ssj_1_1randvar_1_1BetaGen.html" target="_top" xlink:title="This class implements random variate generators with the beta distribution with shape parameters &#160;and...">
<polygon fill="none" stroke="black" points="43.5,-59 43.5,-79 98.5,-79 98.5,-59 43.5,-59"/>
<text text-anchor="middle" x="71" y="-66" font-family="Helvetica,sans-Serif" font-size="10.00">BetaGen</text>
</a>
</g>
<!-- Node2&#45;&gt;Node1 -->
<g id="edge2" class="edge"><title>Node2&#45;&gt;Node1</title>
<path fill="none" stroke="midnightblue" d="M71,-48.8902C71,-39.6201 71,-29.0083 71,-21.3776"/>
<polygon fill="midnightblue" stroke="midnightblue" points="67.5001,-48.8971 71,-58.8972 74.5001,-48.8972 67.5001,-48.8971"/>
</g>
<!-- Node3 -->
<g id="node4" class="node"><title>Node3</title>
<a xlink:href="classumontreal_1_1ssj_1_1randvar_1_1RandomVariateGen.html" target="_top" xlink:title="This is the base class for all random variate generators over the real line. ">
<polygon fill="none" stroke="black" points="20.5,-117 20.5,-137 121.5,-137 121.5,-117 20.5,-117"/>
<text text-anchor="middle" x="71" y="-124" font-family="Helvetica,sans-Serif" font-size="10.00">RandomVariateGen</text>
</a>
</g>
<!-- Node3&#45;&gt;Node2 -->
<g id="edge4" class="edge"><title>Node3&#45;&gt;Node2</title>
<path fill="none" stroke="midnightblue" d="M71,-106.89C71,-97.6201 71,-87.0083 71,-79.3776"/>
<polygon fill="midnightblue" stroke="midnightblue" points="67.5001,-106.897 71,-116.897 74.5001,-106.897 67.5001,-106.897"/>
</g>
</g>
</svg>
