<?xml version="1.0" encoding="UTF-8" standalone="no"?>
<!DOCTYPE svg PUBLIC "-//W3C//DTD SVG 1.1//EN"
 "http://www.w3.org/Graphics/SVG/1.1/DTD/svg11.dtd">
<!-- Generated by graphviz version 2.38.0 (20140413.2041)
 -->
<!-- Title: Collision Pages: 1 -->
<svg width="120pt" height="209pt"
 viewBox="0.00 0.00 120.00 209.00" xmlns="http://www.w3.org/2000/svg" xmlns:xlink="http://www.w3.org/1999/xlink">
<g id="graph0" class="graph" transform="scale(1 1) rotate(0) translate(4 205)">
<title>Collision</title>
<!-- Node1 -->
<g id="node1" class="node"><title>Node1</title>
<polygon fill="#bfbfbf" stroke="black" points="29.5,-0.5 29.5,-19.5 82.5,-19.5 82.5,-0.5 29.5,-0.5"/>
<text text-anchor="middle" x="56" y="-7.5" font-family="Helvetica,sans-Serif" font-size="10.00">Collision</text>
</g>
<!-- Node2 -->
<g id="node2" class="node"><title>Node2</title>
<g id="a_node2"><a xlink:href="classumontreal_1_1ssj_1_1probdist_1_1PoissonDist.html" target="_top" xlink:title="Extends the class DiscreteDistributionInt for the Poisson distribution   (page 325) with mean ...">
<polygon fill="none" stroke="black" points="21.5,-67.5 21.5,-86.5 90.5,-86.5 90.5,-67.5 21.5,-67.5"/>
<text text-anchor="middle" x="56" y="-74.5" font-family="Helvetica,sans-Serif" font-size="10.00">PoissonDist</text>
</a>
</g>
</g>
<!-- Node2&#45;&gt;Node1 -->
<g id="edge1" class="edge"><title>Node2&#45;&gt;Node1</title>
<path fill="none" stroke="#9a32cd" stroke-dasharray="5,2" d="M56,-57.037C56,-44.6703 56,-29.1198 56,-19.6273"/>
<polygon fill="#9a32cd" stroke="#9a32cd" points="52.5001,-57.2338 56,-67.2338 59.5001,-57.2338 52.5001,-57.2338"/>
<text text-anchor="middle" x="74.5" y="-41" font-family="Helvetica,sans-Serif" font-size="10.00"> poisson</text>
</g>
<!-- Node3 -->
<g id="node3" class="node"><title>Node3</title>
<g id="a_node3"><a xlink:href="classumontreal_1_1ssj_1_1probdist_1_1DiscreteDistributionInt.html" target="_top" xlink:title="Classes implementing discrete distributions over the integers should inherit from this class...">
<polygon fill="none" stroke="black" points="0,-124.5 0,-143.5 112,-143.5 112,-124.5 0,-124.5"/>
<text text-anchor="middle" x="56" y="-131.5" font-family="Helvetica,sans-Serif" font-size="10.00">DiscreteDistributionInt</text>
</a>
</g>
</g>
<!-- Node3&#45;&gt;Node2 -->
<g id="edge2" class="edge"><title>Node3&#45;&gt;Node2</title>
<path fill="none" stroke="midnightblue" d="M56,-114.117C56,-104.817 56,-94.0557 56,-86.7149"/>
<polygon fill="midnightblue" stroke="midnightblue" points="52.5001,-114.406 56,-124.406 59.5001,-114.406 52.5001,-114.406"/>
</g>
<!-- Node4 -->
<g id="node4" class="node"><title>Node4</title>
<g id="a_node4"><a xlink:href="interfaceumontreal_1_1ssj_1_1probdist_1_1Distribution.html" target="_top" xlink:title="This interface should be implemented by all classes supporting discrete and continuous distributions...">
<polygon fill="none" stroke="black" points="23.5,-181.5 23.5,-200.5 88.5,-200.5 88.5,-181.5 23.5,-181.5"/>
<text text-anchor="middle" x="56" y="-188.5" font-family="Helvetica,sans-Serif" font-size="10.00">Distribution</text>
</a>
</g>
</g>
<!-- Node4&#45;&gt;Node3 -->
<g id="edge3" class="edge"><title>Node4&#45;&gt;Node3</title>
<path fill="none" stroke="midnightblue" d="M56,-171.117C56,-161.817 56,-151.056 56,-143.715"/>
<polygon fill="midnightblue" stroke="midnightblue" points="52.5001,-171.406 56,-181.406 59.5001,-171.406 52.5001,-171.406"/>
</g>
</g>
</svg>
