<?xml version="1.0" encoding="UTF-8" standalone="no"?>
<!DOCTYPE svg PUBLIC "-//W3C//DTD SVG 1.1//EN"
 "http://www.w3.org/Graphics/SVG/1.1/DTD/svg11.dtd">
<!-- Generated by graphviz version 2.38.0 (20140413.2041)
 -->
<!-- Title: HypoExponentialDist Pages: 1 -->
<svg width="292pt" height="196pt"
 viewBox="0.00 0.00 291.50 196.00" xmlns="http://www.w3.org/2000/svg" xmlns:xlink="http://www.w3.org/1999/xlink">
<g id="graph0" class="graph" transform="scale(1 1) rotate(0) translate(4 192)">
<title>HypoExponentialDist</title>
<!-- Node0 -->
<g id="node1" class="node"><title>Node0</title>
<polygon fill="#bfbfbf" stroke="black" points="87.5,-56.5 87.5,-75.5 194.5,-75.5 194.5,-56.5 87.5,-56.5"/>
<text text-anchor="middle" x="141" y="-63.5" font-family="Helvetica,sans-Serif" font-size="10.00">HypoExponentialDist</text>
</g>
<!-- Node3 -->
<g id="node4" class="node"><title>Node3</title>
<g id="a_node4"><a xlink:href="classumontreal_1_1ssj_1_1probdist_1_1HypoExponentialDistEqual.html" target="_top" xlink:title="This class implements the hypoexponential distribution for the case of equidistant ...">
<polygon fill="none" stroke="black" points="0,-0.5 0,-19.5 132,-19.5 132,-0.5 0,-0.5"/>
<text text-anchor="middle" x="66" y="-7.5" font-family="Helvetica,sans-Serif" font-size="10.00">HypoExponentialDistEqual</text>
</a>
</g>
</g>
<!-- Node0&#45;&gt;Node3 -->
<g id="edge3" class="edge"><title>Node0&#45;&gt;Node3</title>
<path fill="none" stroke="midnightblue" d="M120.695,-50.3804C107.139,-40.6204 89.7579,-28.1057 78.2693,-19.8339"/>
<polygon fill="midnightblue" stroke="midnightblue" points="118.79,-53.3213 128.95,-56.324 122.88,-47.6405 118.79,-53.3213"/>
</g>
<!-- Node4 -->
<g id="node5" class="node"><title>Node4</title>
<g id="a_node5"><a xlink:href="classumontreal_1_1ssj_1_1probdist_1_1HypoExponentialDistQuick.html" target="_top" xlink:title="This class is a subclass of HypoExponentialDist and also implements the hypoexponential distribution...">
<polygon fill="none" stroke="black" points="150.5,-0.5 150.5,-19.5 283.5,-19.5 283.5,-0.5 150.5,-0.5"/>
<text text-anchor="middle" x="217" y="-7.5" font-family="Helvetica,sans-Serif" font-size="10.00">HypoExponentialDistQuick</text>
</a>
</g>
</g>
<!-- Node0&#45;&gt;Node4 -->
<g id="edge4" class="edge"><title>Node0&#45;&gt;Node4</title>
<path fill="none" stroke="midnightblue" d="M161.576,-50.3804C175.312,-40.6204 192.925,-28.1057 204.567,-19.8339"/>
<polygon fill="midnightblue" stroke="midnightblue" points="159.335,-47.6787 153.211,-56.324 163.39,-53.385 159.335,-47.6787"/>
</g>
<!-- Node1 -->
<g id="node2" class="node"><title>Node1</title>
<g id="a_node2"><a xlink:href="classumontreal_1_1ssj_1_1probdist_1_1ContinuousDistribution.html" target="_top" xlink:title="Classes implementing continuous distributions should inherit from this base class. ">
<polygon fill="none" stroke="black" points="84,-112.5 84,-131.5 198,-131.5 198,-112.5 84,-112.5"/>
<text text-anchor="middle" x="141" y="-119.5" font-family="Helvetica,sans-Serif" font-size="10.00">ContinuousDistribution</text>
</a>
</g>
</g>
<!-- Node1&#45;&gt;Node0 -->
<g id="edge1" class="edge"><title>Node1&#45;&gt;Node0</title>
<path fill="none" stroke="midnightblue" d="M141,-101.805C141,-92.9102 141,-82.7798 141,-75.7511"/>
<polygon fill="midnightblue" stroke="midnightblue" points="137.5,-102.083 141,-112.083 144.5,-102.083 137.5,-102.083"/>
</g>
<!-- Node2 -->
<g id="node3" class="node"><title>Node2</title>
<g id="a_node3"><a xlink:href="interfaceumontreal_1_1ssj_1_1probdist_1_1Distribution.html" target="_top" xlink:title="This interface should be implemented by all classes supporting discrete and continuous distributions...">
<polygon fill="none" stroke="black" points="108.5,-168.5 108.5,-187.5 173.5,-187.5 173.5,-168.5 108.5,-168.5"/>
<text text-anchor="middle" x="141" y="-175.5" font-family="Helvetica,sans-Serif" font-size="10.00">Distribution</text>
</a>
</g>
</g>
<!-- Node2&#45;&gt;Node1 -->
<g id="edge2" class="edge"><title>Node2&#45;&gt;Node1</title>
<path fill="none" stroke="midnightblue" d="M141,-157.805C141,-148.91 141,-138.78 141,-131.751"/>
<polygon fill="midnightblue" stroke="midnightblue" points="137.5,-158.083 141,-168.083 144.5,-158.083 137.5,-158.083"/>
</g>
</g>
</svg>
