<?xml version="1.0" encoding="UTF-8" standalone="no"?>
<!DOCTYPE svg PUBLIC "-//W3C//DTD SVG 1.1//EN"
 "http://www.w3.org/Graphics/SVG/1.1/DTD/svg11.dtd">
<!-- Generated by graphviz version 2.38.0 (20140413.2041)
 -->
<!-- Title: GammaProcessPCABridge Pages: 1 -->
<svg width="370pt" height="419pt"
 viewBox="0.00 0.00 370.00 419.00" xmlns="http://www.w3.org/2000/svg" xmlns:xlink="http://www.w3.org/1999/xlink">
<g id="graph0" class="graph" transform="scale(1 1) rotate(0) translate(4 415)">
<title>GammaProcessPCABridge</title>
<!-- Node1 -->
<g id="node1" class="node"><title>Node1</title>
<polygon fill="#bfbfbf" stroke="black" points="43,-0.5 43,-19.5 187,-19.5 187,-0.5 43,-0.5"/>
<text text-anchor="middle" x="115" y="-7.5" font-family="Helvetica,sans-Serif" font-size="10.00">GammaProcessPCABridge</text>
</g>
<!-- Node2 -->
<g id="node2" class="node"><title>Node2</title>
<g id="a_node2"><a xlink:href="classumontreal_1_1ssj_1_1stochprocess_1_1GammaProcessPCA.html" target="_top" xlink:title="Represents a gamma process sampled using the principal component analysis (PCA). ">
<polygon fill="none" stroke="black" points="146.5,-57.5 146.5,-76.5 259.5,-76.5 259.5,-57.5 146.5,-57.5"/>
<text text-anchor="middle" x="203" y="-64.5" font-family="Helvetica,sans-Serif" font-size="10.00">GammaProcessPCA</text>
</a>
</g>
</g>
<!-- Node2&#45;&gt;Node1 -->
<g id="edge1" class="edge"><title>Node2&#45;&gt;Node1</title>
<path fill="none" stroke="midnightblue" d="M180.319,-51.8244C163.968,-41.605 142.437,-28.1483 128.653,-19.5334"/>
<polygon fill="midnightblue" stroke="midnightblue" points="178.915,-55.0742 189.25,-57.4062 182.625,-49.1382 178.915,-55.0742"/>
</g>
<!-- Node3 -->
<g id="node3" class="node"><title>Node3</title>
<g id="a_node3"><a xlink:href="classumontreal_1_1ssj_1_1stochprocess_1_1GammaProcess.html" target="_top" xlink:title="This class represents a gamma process   (page 82) &#160;with mean parameter &#160;and variance parameter ...">
<polygon fill="none" stroke="black" points="203.5,-190.5 203.5,-209.5 296.5,-209.5 296.5,-190.5 203.5,-190.5"/>
<text text-anchor="middle" x="250" y="-197.5" font-family="Helvetica,sans-Serif" font-size="10.00">GammaProcess</text>
</a>
</g>
</g>
<!-- Node3&#45;&gt;Node2 -->
<g id="edge2" class="edge"><title>Node3&#45;&gt;Node2</title>
<path fill="none" stroke="midnightblue" d="M249.971,-180.151C249.192,-158.402 245.556,-122.149 231,-95 227.171,-87.8581 220.779,-81.4791 215.069,-76.7171"/>
<polygon fill="midnightblue" stroke="midnightblue" points="246.475,-180.403 250.16,-190.336 253.474,-180.273 246.475,-180.403"/>
</g>
<!-- Node4 -->
<g id="node4" class="node"><title>Node4</title>
<g id="a_node4"><a xlink:href="classumontreal_1_1ssj_1_1stochprocess_1_1StochasticProcess.html" target="_top" xlink:title="Abstract base class for a stochastic process &#160;sampled (or observed) at a finite number of time points...">
<polygon fill="none" stroke="black" points="90,-257.5 90,-276.5 194,-276.5 194,-257.5 90,-257.5"/>
<text text-anchor="middle" x="142" y="-264.5" font-family="Helvetica,sans-Serif" font-size="10.00">StochasticProcess</text>
</a>
</g>
</g>
<!-- Node4&#45;&gt;Node3 -->
<g id="edge3" class="edge"><title>Node4&#45;&gt;Node3</title>
<path fill="none" stroke="midnightblue" d="M165.358,-251.942C186.746,-239.07 217.721,-220.427 235.665,-209.627"/>
<polygon fill="midnightblue" stroke="midnightblue" points="163.328,-249.078 156.565,-257.234 166.938,-255.076 163.328,-249.078"/>
</g>
<!-- Node10 -->
<g id="node10" class="node"><title>Node10</title>
<g id="a_node10"><a xlink:href="classumontreal_1_1ssj_1_1stochprocess_1_1BrownianMotion.html" target="_top" xlink:title="This class represents a Brownian motion process , sampled at times . ">
<polygon fill="none" stroke="black" points="49.5,-190.5 49.5,-209.5 144.5,-209.5 144.5,-190.5 49.5,-190.5"/>
<text text-anchor="middle" x="97" y="-197.5" font-family="Helvetica,sans-Serif" font-size="10.00">BrownianMotion</text>
</a>
</g>
</g>
<!-- Node4&#45;&gt;Node10 -->
<g id="edge11" class="edge"><title>Node4&#45;&gt;Node10</title>
<path fill="none" stroke="midnightblue" d="M130.164,-248.904C121.42,-236.273 109.88,-219.604 102.973,-209.627"/>
<polygon fill="midnightblue" stroke="midnightblue" points="127.361,-251.004 135.931,-257.234 133.117,-247.02 127.361,-251.004"/>
</g>
<!-- Node5 -->
<g id="node5" class="node"><title>Node5</title>
<g id="a_node5"><a xlink:href="classumontreal_1_1ssj_1_1randvar_1_1GammaGen.html" target="_top" xlink:title="This class implements random variate generators for the gamma distribution. ">
<polygon fill="none" stroke="black" points="212.5,-257.5 212.5,-276.5 287.5,-276.5 287.5,-257.5 212.5,-257.5"/>
<text text-anchor="middle" x="250" y="-264.5" font-family="Helvetica,sans-Serif" font-size="10.00">GammaGen</text>
</a>
</g>
</g>
<!-- Node5&#45;&gt;Node3 -->
<g id="edge4" class="edge"><title>Node5&#45;&gt;Node3</title>
<path fill="none" stroke="#9a32cd" stroke-dasharray="5,2" d="M250,-247.037C250,-234.67 250,-219.12 250,-209.627"/>
<polygon fill="#9a32cd" stroke="#9a32cd" points="246.5,-247.234 250,-257.234 253.5,-247.234 246.5,-247.234"/>
<text text-anchor="middle" x="264.5" y="-231" font-family="Helvetica,sans-Serif" font-size="10.00"> Ggen</text>
</g>
<!-- Node6 -->
<g id="node6" class="node"><title>Node6</title>
<g id="a_node6"><a xlink:href="classumontreal_1_1ssj_1_1randvar_1_1RandomVariateGen.html" target="_top" xlink:title="This is the base class for all random variate generators over the real line. ">
<polygon fill="none" stroke="black" points="167,-324.5 167,-343.5 279,-343.5 279,-324.5 167,-324.5"/>
<text text-anchor="middle" x="223" y="-331.5" font-family="Helvetica,sans-Serif" font-size="10.00">RandomVariateGen</text>
</a>
</g>
</g>
<!-- Node6&#45;&gt;Node5 -->
<g id="edge5" class="edge"><title>Node6&#45;&gt;Node5</title>
<path fill="none" stroke="midnightblue" d="M230.564,-314.79C235.749,-302.308 242.393,-286.314 246.416,-276.627"/>
<polygon fill="midnightblue" stroke="midnightblue" points="227.245,-313.656 226.641,-324.234 233.71,-316.341 227.245,-313.656"/>
</g>
<!-- Node11 -->
<g id="node11" class="node"><title>Node11</title>
<g id="a_node11"><a xlink:href="classumontreal_1_1ssj_1_1randvar_1_1NormalGen.html" target="_top" xlink:title="This class implements methods for generating random variates from the normal distribution ...">
<polygon fill="none" stroke="black" points="0,-257.5 0,-276.5 72,-276.5 72,-257.5 0,-257.5"/>
<text text-anchor="middle" x="36" y="-264.5" font-family="Helvetica,sans-Serif" font-size="10.00">NormalGen</text>
</a>
</g>
</g>
<!-- Node6&#45;&gt;Node11 -->
<g id="edge13" class="edge"><title>Node6&#45;&gt;Node11</title>
<path fill="none" stroke="midnightblue" d="M188.294,-320.936C151.197,-308.042 93.3206,-287.924 60.637,-276.564"/>
<polygon fill="midnightblue" stroke="midnightblue" points="187.573,-324.391 198.168,-324.369 189.871,-317.779 187.573,-324.391"/>
</g>
<!-- Node7 -->
<g id="node7" class="node"><title>Node7</title>
<g id="a_node7"><a xlink:href="interfaceumontreal_1_1ssj_1_1probdist_1_1Distribution.html" target="_top" xlink:title="This interface should be implemented by all classes supporting discrete and continuous distributions...">
<polygon fill="none" stroke="black" points="178,-391.5 178,-410.5 252,-410.5 252,-391.5 178,-391.5"/>
<text text-anchor="middle" x="215" y="-398.5" font-family="Helvetica,sans-Serif" font-size="10.00">Distribution</text>
</a>
</g>
</g>
<!-- Node7&#45;&gt;Node6 -->
<g id="edge6" class="edge"><title>Node7&#45;&gt;Node6</title>
<path fill="none" stroke="#9a32cd" stroke-dasharray="5,2" d="M216.093,-381.211C216.554,-375.073 217.179,-368.233 218,-362 218.797,-355.95 220.047,-349.2 221.098,-343.963"/>
<polygon fill="#9a32cd" stroke="#9a32cd" points="212.599,-381.01 215.433,-391.219 219.584,-381.471 212.599,-381.01"/>
<text text-anchor="middle" x="229" y="-365" font-family="Helvetica,sans-Serif" font-size="10.00"> dist</text>
</g>
<!-- Node8 -->
<g id="node8" class="node"><title>Node8</title>
<g id="a_node8"><a xlink:href="interfaceumontreal_1_1ssj_1_1rng_1_1RandomStream.html" target="_top" xlink:title="This interface defines the basic structures to handle multiple streams of uniform (pseudo)random numb...">
<polygon fill="none" stroke="black" points="270,-391.5 270,-410.5 362,-410.5 362,-391.5 270,-391.5"/>
<text text-anchor="middle" x="316" y="-398.5" font-family="Helvetica,sans-Serif" font-size="10.00">RandomStream</text>
</a>
</g>
</g>
<!-- Node8&#45;&gt;Node3 -->
<g id="edge8" class="edge"><title>Node8&#45;&gt;Node3</title>
<path fill="none" stroke="#9a32cd" stroke-dasharray="5,2" d="M315.065,-381.254C313.31,-353.591 308.495,-300.423 296,-257 292.094,-243.426 291.584,-239.217 283,-228 277.511,-220.828 269.759,-214.36 263.148,-209.554"/>
<polygon fill="#9a32cd" stroke="#9a32cd" points="311.582,-381.66 315.643,-391.445 318.571,-381.263 311.582,-381.66"/>
<text text-anchor="middle" x="325" y="-298" font-family="Helvetica,sans-Serif" font-size="10.00"> stream</text>
</g>
<!-- Node8&#45;&gt;Node6 -->
<g id="edge7" class="edge"><title>Node8&#45;&gt;Node6</title>
<path fill="none" stroke="#9a32cd" stroke-dasharray="5,2" d="M287.326,-386.857C279.511,-382.813 271.215,-378.077 264,-373 251.459,-364.176 238.781,-351.769 230.912,-343.563"/>
<polygon fill="#9a32cd" stroke="#9a32cd" points="286.002,-390.107 296.515,-391.422 289.117,-383.838 286.002,-390.107"/>
<text text-anchor="middle" x="283" y="-365" font-family="Helvetica,sans-Serif" font-size="10.00"> stream</text>
</g>
<!-- Node9 -->
<g id="node9" class="node"><title>Node9</title>
<g id="a_node9"><a xlink:href="classumontreal_1_1ssj_1_1stochprocess_1_1BrownianMotionPCA.html" target="_top" xlink:title="A Brownian motion process &#160;sampled using the principal component decomposition (PCA) ...">
<polygon fill="none" stroke="black" points="106.5,-133.5 106.5,-152.5 221.5,-152.5 221.5,-133.5 106.5,-133.5"/>
<text text-anchor="middle" x="164" y="-140.5" font-family="Helvetica,sans-Serif" font-size="10.00">BrownianMotionPCA</text>
</a>
</g>
</g>
<!-- Node9&#45;&gt;Node2 -->
<g id="edge9" class="edge"><title>Node9&#45;&gt;Node2</title>
<path fill="none" stroke="#9a32cd" stroke-dasharray="5,2" d="M173.29,-124.372C181.198,-109.368 192.225,-88.4448 198.379,-76.7679"/>
<polygon fill="#9a32cd" stroke="#9a32cd" points="170.193,-122.742 168.627,-133.221 176.386,-126.006 170.193,-122.742"/>
<text text-anchor="middle" x="208" y="-102.5" font-family="Helvetica,sans-Serif" font-size="10.00"> BMPCA</text>
</g>
<!-- Node10&#45;&gt;Node9 -->
<g id="edge10" class="edge"><title>Node10&#45;&gt;Node9</title>
<path fill="none" stroke="midnightblue" d="M115.275,-183.998C127.501,-173.962 143.164,-161.104 153.384,-152.715"/>
<polygon fill="midnightblue" stroke="midnightblue" points="112.977,-181.356 107.469,-190.406 117.419,-186.767 112.977,-181.356"/>
</g>
<!-- Node12 -->
<g id="node12" class="node"><title>Node12</title>
<g id="a_node12"><a xlink:href="classumontreal_1_1ssj_1_1stochprocess_1_1BrownianMotionBridge.html" target="_top" xlink:title=", then the observations are generated in the following order: , , , , . ">
<polygon fill="none" stroke="black" points="14.5,-95.5 14.5,-114.5 141.5,-114.5 141.5,-95.5 14.5,-95.5"/>
<text text-anchor="middle" x="78" y="-102.5" font-family="Helvetica,sans-Serif" font-size="10.00">BrownianMotionBridge</text>
</a>
</g>
</g>
<!-- Node10&#45;&gt;Node12 -->
<g id="edge15" class="edge"><title>Node10&#45;&gt;Node12</title>
<path fill="none" stroke="midnightblue" d="M93.1884,-180.343C89.0998,-160.331 82.786,-129.426 79.7492,-114.562"/>
<polygon fill="midnightblue" stroke="midnightblue" points="89.8157,-181.32 95.2466,-190.417 96.674,-179.919 89.8157,-181.32"/>
</g>
<!-- Node11&#45;&gt;Node10 -->
<g id="edge12" class="edge"><title>Node11&#45;&gt;Node10</title>
<path fill="none" stroke="#9a32cd" stroke-dasharray="5,2" d="M51.3581,-249.635C63.2879,-236.923 79.359,-219.798 88.9036,-209.627"/>
<polygon fill="#9a32cd" stroke="#9a32cd" points="48.5177,-247.547 44.2267,-257.234 53.6221,-252.337 48.5177,-247.547"/>
<text text-anchor="middle" x="82" y="-231" font-family="Helvetica,sans-Serif" font-size="10.00"> gen</text>
</g>
<!-- Node12&#45;&gt;Node1 -->
<g id="edge14" class="edge"><title>Node12&#45;&gt;Node1</title>
<path fill="none" stroke="#9a32cd" stroke-dasharray="5,2" d="M79.9955,-85.436C81.3332,-76.6153 83.5116,-66.0478 87,-57 92.3813,-43.0427 101.974,-28.5633 108.411,-19.6664"/>
<polygon fill="#9a32cd" stroke="#9a32cd" points="76.5146,-85.065 78.7154,-95.4287 83.4578,-85.9545 76.5146,-85.065"/>
<text text-anchor="middle" x="112" y="-64.5" font-family="Helvetica,sans-Serif" font-size="10.00"> BMBridge</text>
</g>
</g>
</svg>
