<?xml version="1.0" encoding="UTF-8" standalone="no"?>
<!DOCTYPE svg PUBLIC "-//W3C//DTD SVG 1.1//EN"
 "http://www.w3.org/Graphics/SVG/1.1/DTD/svg11.dtd">
<!-- Generated by graphviz version 2.26.3 (20100126.1600)
 -->
<!-- Title: CategoryChart Pages: 1 -->
<svg width="319pt" height="170pt"
 viewBox="0.00 0.00 319.00 170.00" xmlns="http://www.w3.org/2000/svg" xmlns:xlink="http://www.w3.org/1999/xlink">
<g id="graph1" class="graph" transform="scale(1 1) rotate(0) translate(4 166)">
<title>CategoryChart</title>
<!-- Node1 -->
<g id="node1" class="node"><title>Node1</title>
<polygon fill="#bfbfbf" stroke="black" points="185.5,-1 185.5,-21 264.5,-21 264.5,-1 185.5,-1"/>
<text text-anchor="middle" x="225" y="-8" font-family="Helvetica,sans-Serif" font-size="10.00">CategoryChart</text>
</g>
<!-- Node2 -->
<g id="node2" class="node"><title>Node2</title>
<a xlink:href="classumontreal_1_1ssj_1_1charts_1_1SSJCategorySeriesCollection.html" target="_top" xlink:title="Stores data used in a CategoryChart. ">
<polygon fill="none" stroke="black" points="30.5,-71 30.5,-91 175.5,-91 175.5,-71 30.5,-71"/>
<text text-anchor="middle" x="103" y="-78" font-family="Helvetica,sans-Serif" font-size="10.00">SSJCategorySeriesCollection</text>
</a>
</g>
<!-- Node2&#45;&gt;Node1 -->
<g id="edge2" class="edge"><title>Node2&#45;&gt;Node1</title>
<path fill="none" stroke="#9a32cd" stroke-dasharray="5,2" d="M129.298,-65.9108C152.971,-52.3279 187.093,-32.75 207.553,-21.0107"/>
<polygon fill="#9a32cd" stroke="#9a32cd" points="127.411,-62.9582 120.48,-70.9707 130.895,-69.0298 127.411,-62.9582"/>
<text text-anchor="middle" x="190" y="-43" font-family="Helvetica,sans-Serif" font-size="10.00"> dataset</text>
</g>
<!-- Node3 -->
<g id="node4" class="node"><title>Node3</title>
<polygon fill="none" stroke="#bfbfbf" points="-0.5,-141 -0.5,-161 88.5,-161 88.5,-141 -0.5,-141"/>
<text text-anchor="middle" x="44" y="-148" font-family="Helvetica,sans-Serif" font-size="10.00">CategoryDataset</text>
</g>
<!-- Node3&#45;&gt;Node2 -->
<g id="edge4" class="edge"><title>Node3&#45;&gt;Node2</title>
<path fill="none" stroke="#9a32cd" stroke-dasharray="5,2" d="M53.4044,-131.819C57.396,-124.606 62.4196,-116.569 68,-110 74.0288,-102.904 81.936,-96.1877 88.7091,-91.0093"/>
<polygon fill="#9a32cd" stroke="#9a32cd" points="50.1739,-130.445 48.6457,-140.929 56.3783,-133.686 50.1739,-130.445"/>
<text text-anchor="middle" x="104.5" y="-113" font-family="Helvetica,sans-Serif" font-size="10.00"> seriesCollection</text>
</g>
<!-- Node4 -->
<g id="node6" class="node"><title>Node4</title>
<polygon fill="none" stroke="#bfbfbf" points="106,-141 106,-161 220,-161 220,-141 106,-141"/>
<text text-anchor="middle" x="163" y="-148" font-family="Helvetica,sans-Serif" font-size="10.00">CategoryItemRenderer</text>
</g>
<!-- Node4&#45;&gt;Node2 -->
<g id="edge6" class="edge"><title>Node4&#45;&gt;Node2</title>
<path fill="none" stroke="#9a32cd" stroke-dasharray="5,2" d="M154.757,-131.669C151.146,-124.437 146.475,-116.425 141,-110 134.864,-102.799 126.657,-96.2605 119.441,-91.2226"/>
<polygon fill="#9a32cd" stroke="#9a32cd" points="151.62,-133.224 159,-140.825 157.971,-130.281 151.62,-133.224"/>
<text text-anchor="middle" x="169.5" y="-113" font-family="Helvetica,sans-Serif" font-size="10.00"> renderer</text>
</g>
<!-- Node5 -->
<g id="node8" class="node"><title>Node5</title>
<polygon fill="none" stroke="#bfbfbf" points="192.5,-71 192.5,-91 257.5,-91 257.5,-71 192.5,-71"/>
<text text-anchor="middle" x="225" y="-78" font-family="Helvetica,sans-Serif" font-size="10.00">JFreeChart</text>
</g>
<!-- Node5&#45;&gt;Node1 -->
<g id="edge8" class="edge"><title>Node5&#45;&gt;Node1</title>
<path fill="none" stroke="#9a32cd" stroke-dasharray="5,2" d="M225,-60.6126C225,-47.5971 225,-31.2956 225,-21.0107"/>
<polygon fill="#9a32cd" stroke="#9a32cd" points="221.5,-60.9707 225,-70.9707 228.5,-60.9707 221.5,-60.9707"/>
<text text-anchor="middle" x="237.5" y="-43" font-family="Helvetica,sans-Serif" font-size="10.00"> chart</text>
</g>
<!-- Node6 -->
<g id="node10" class="node"><title>Node6</title>
<a xlink:href="classumontreal_1_1ssj_1_1charts_1_1Axis.html" target="_top" xlink:title="Represents an axis of a chart encapsulated by an instance of XYChart. ">
<polygon fill="none" stroke="black" points="275,-71 275,-91 311,-91 311,-71 275,-71"/>
<text text-anchor="middle" x="293" y="-78" font-family="Helvetica,sans-Serif" font-size="10.00">Axis</text>
</a>
</g>
<!-- Node6&#45;&gt;Node1 -->
<g id="edge10" class="edge"><title>Node6&#45;&gt;Node1</title>
<path fill="none" stroke="#9a32cd" stroke-dasharray="5,2" d="M276.526,-63.489C269.61,-56.1875 261.455,-47.6439 254,-40 247.835,-33.6794 240.839,-26.6779 235.263,-21.1381"/>
<polygon fill="#9a32cd" stroke="#9a32cd" points="274.042,-65.9566 283.453,-70.8231 279.131,-61.15 274.042,-65.9566"/>
<text text-anchor="middle" x="278.5" y="-43" font-family="Helvetica,sans-Serif" font-size="10.00"> YAxis</text>
</g>
</g>
</svg>
