<?xml version="1.0" encoding="UTF-8" standalone="no"?>
<!DOCTYPE svg PUBLIC "-//W3C//DTD SVG 1.1//EN"
 "http://www.w3.org/Graphics/SVG/1.1/DTD/svg11.dtd">
<!-- Generated by graphviz version 2.38.0 (20140413.2041)
 -->
<!-- Title: BoxSeriesCollection Pages: 1 -->
<svg width="254pt" height="152pt"
 viewBox="0.00 0.00 253.50 152.00" xmlns="http://www.w3.org/2000/svg" xmlns:xlink="http://www.w3.org/1999/xlink">
<g id="graph0" class="graph" transform="scale(1 1) rotate(0) translate(4 148)">
<title>BoxSeriesCollection</title>
<!-- Node1 -->
<g id="node1" class="node"><title>Node1</title>
<polygon fill="#bfbfbf" stroke="black" points="58.5,-0.5 58.5,-19.5 172.5,-19.5 172.5,-0.5 58.5,-0.5"/>
<text text-anchor="middle" x="115.5" y="-7.5" font-family="Helvetica,sans-Serif" font-size="10.00">BoxSeriesCollection</text>
</g>
<!-- Node2 -->
<g id="node2" class="node"><title>Node2</title>
<g id="a_node2"><a xlink:href="classumontreal_1_1ssj_1_1charts_1_1SSJCategorySeriesCollection.html" target="_top" xlink:title="Stores data used in a CategoryChart. ">
<polygon fill="none" stroke="black" points="38,-57.5 38,-76.5 193,-76.5 193,-57.5 38,-57.5"/>
<text text-anchor="middle" x="115.5" y="-64.5" font-family="Helvetica,sans-Serif" font-size="10.00">SSJCategorySeriesCollection</text>
</a>
</g>
</g>
<!-- Node2&#45;&gt;Node1 -->
<g id="edge1" class="edge"><title>Node2&#45;&gt;Node1</title>
<path fill="none" stroke="midnightblue" d="M115.5,-47.1166C115.5,-37.8173 115.5,-27.0557 115.5,-19.7149"/>
<polygon fill="midnightblue" stroke="midnightblue" points="112,-47.4062 115.5,-57.4062 119,-47.4063 112,-47.4062"/>
</g>
<!-- Node3 -->
<g id="node3" class="node"><title>Node3</title>
<polygon fill="none" stroke="#bfbfbf" points="0,-124.5 0,-143.5 99,-143.5 99,-124.5 0,-124.5"/>
<text text-anchor="middle" x="49.5" y="-131.5" font-family="Helvetica,sans-Serif" font-size="10.00">CategoryDataset</text>
</g>
<!-- Node3&#45;&gt;Node2 -->
<g id="edge2" class="edge"><title>Node3&#45;&gt;Node2</title>
<path fill="none" stroke="#9a32cd" stroke-dasharray="5,2" d="M60.5257,-115.66C65.3014,-108.829 71.2319,-101.161 77.5,-95 84.657,-87.9655 93.7962,-81.411 101.318,-76.5219"/>
<polygon fill="#9a32cd" stroke="#9a32cd" points="57.4425,-113.975 54.806,-124.237 63.2662,-117.859 57.4425,-113.975"/>
<text text-anchor="middle" x="118.5" y="-98" font-family="Helvetica,sans-Serif" font-size="10.00"> seriesCollection</text>
</g>
<!-- Node4 -->
<g id="node4" class="node"><title>Node4</title>
<polygon fill="none" stroke="#bfbfbf" points="117.5,-124.5 117.5,-143.5 245.5,-143.5 245.5,-124.5 117.5,-124.5"/>
<text text-anchor="middle" x="181.5" y="-131.5" font-family="Helvetica,sans-Serif" font-size="10.00">CategoryItemRenderer</text>
</g>
<!-- Node4&#45;&gt;Node2 -->
<g id="edge3" class="edge"><title>Node4&#45;&gt;Node2</title>
<path fill="none" stroke="#9a32cd" stroke-dasharray="5,2" d="M173.517,-115.14C169.895,-108.318 165.148,-100.795 159.5,-95 152.243,-87.5552 142.529,-81.3135 134.074,-76.7132"/>
<polygon fill="#9a32cd" stroke="#9a32cd" points="170.474,-116.885 177.992,-124.349 176.77,-113.825 170.474,-116.885"/>
<text text-anchor="middle" x="191" y="-98" font-family="Helvetica,sans-Serif" font-size="10.00"> renderer</text>
</g>
</g>
</svg>
