<?xml version="1.0" encoding="UTF-8" standalone="no"?>
<!DOCTYPE svg PUBLIC "-//W3C//DTD SVG 1.1//EN"
 "http://www.w3.org/Graphics/SVG/1.1/DTD/svg11.dtd">
<!-- Generated by graphviz version 2.38.0 (20140413.2041)
 -->
<!-- Title: Event Pages: 1 -->
<svg width="361pt" height="370pt"
 viewBox="0.00 0.00 361.00 370.00" xmlns="http://www.w3.org/2000/svg" xmlns:xlink="http://www.w3.org/1999/xlink">
<g id="graph0" class="graph" transform="scale(1 1) rotate(0) translate(4 366)">
<title>Event</title>
<!-- Node0 -->
<g id="node1" class="node"><title>Node0</title>
<polygon fill="#bfbfbf" stroke="black" points="146,-171.5 146,-190.5 187,-190.5 187,-171.5 146,-171.5"/>
<text text-anchor="middle" x="166.5" y="-178.5" font-family="Helvetica,sans-Serif" font-size="10.00">Event</text>
</g>
<!-- Node2 -->
<g id="node3" class="node"><title>Node2</title>
<g id="a_node3"><a xlink:href="classtutorial_1_1BankEv_1_1Arrival.html" target="_top" xlink:title="BankEv.Arrival">
<polygon fill="none" stroke="black" points="248.5,-342.5 248.5,-361.5 327.5,-361.5 327.5,-342.5 248.5,-342.5"/>
<text text-anchor="middle" x="288" y="-349.5" font-family="Helvetica,sans-Serif" font-size="10.00">BankEv.Arrival</text>
</a>
</g>
</g>
<!-- Node0&#45;&gt;Node2 -->
<g id="edge2" class="edge"><title>Node0&#45;&gt;Node2</title>
<path fill="none" stroke="midnightblue" d="M169.137,-200.818C172.876,-233.142 184.92,-297.193 223,-333 230.008,-339.59 239.2,-343.904 248.422,-346.725"/>
<polygon fill="midnightblue" stroke="midnightblue" points="172.614,-200.406 168.132,-190.806 165.649,-201.105 172.614,-200.406"/>
</g>
<!-- Node3 -->
<g id="node4" class="node"><title>Node3</title>
<g id="a_node4"><a xlink:href="classtutorial_1_1BankEv_1_1Departure.html" target="_top" xlink:title="BankEv.Departure">
<polygon fill="none" stroke="black" points="240.5,-304.5 240.5,-323.5 335.5,-323.5 335.5,-304.5 240.5,-304.5"/>
<text text-anchor="middle" x="288" y="-311.5" font-family="Helvetica,sans-Serif" font-size="10.00">BankEv.Departure</text>
</a>
</g>
</g>
<!-- Node0&#45;&gt;Node3 -->
<g id="edge3" class="edge"><title>Node0&#45;&gt;Node3</title>
<path fill="none" stroke="midnightblue" d="M171.817,-200.496C178.454,-225.919 193.6,-270.078 223,-295 228.039,-299.272 234.008,-302.584 240.241,-305.151"/>
<polygon fill="midnightblue" stroke="midnightblue" points="175.167,-199.458 169.411,-190.563 168.364,-201.106 175.167,-199.458"/>
</g>
<!-- Node4 -->
<g id="node5" class="node"><title>Node4</title>
<g id="a_node5"><a xlink:href="classtutorial_1_1CallCenter_1_1Arrival.html" target="_top" xlink:title="CallCenter.Arrival">
<polygon fill="none" stroke="black" points="242.5,-266.5 242.5,-285.5 333.5,-285.5 333.5,-266.5 242.5,-266.5"/>
<text text-anchor="middle" x="288" y="-273.5" font-family="Helvetica,sans-Serif" font-size="10.00">CallCenter.Arrival</text>
</a>
</g>
</g>
<!-- Node0&#45;&gt;Node4 -->
<g id="edge4" class="edge"><title>Node0&#45;&gt;Node4</title>
<path fill="none" stroke="midnightblue" d="M176.698,-199.899C186.053,-217.198 202.13,-242.279 223,-257 228.777,-261.075 235.435,-264.287 242.226,-266.816"/>
<polygon fill="midnightblue" stroke="midnightblue" points="179.674,-198.034 171.981,-190.749 173.453,-201.241 179.674,-198.034"/>
</g>
<!-- Node5 -->
<g id="node6" class="node"><title>Node5</title>
<g id="a_node6"><a xlink:href="classtutorial_1_1CallCenter_1_1CallCompletion.html" target="_top" xlink:title="CallCenter.CallCompletion">
<polygon fill="none" stroke="black" points="223,-228.5 223,-247.5 353,-247.5 353,-228.5 223,-228.5"/>
<text text-anchor="middle" x="288" y="-235.5" font-family="Helvetica,sans-Serif" font-size="10.00">CallCenter.CallCompletion</text>
</a>
</g>
</g>
<!-- Node0&#45;&gt;Node5 -->
<g id="edge5" class="edge"><title>Node0&#45;&gt;Node5</title>
<path fill="none" stroke="midnightblue" d="M187.365,-196.846C197.556,-204.378 210.442,-213.019 223,-219 230.744,-222.688 239.358,-225.831 247.693,-228.437"/>
<polygon fill="midnightblue" stroke="midnightblue" points="189.254,-193.885 179.179,-190.608 185.011,-199.453 189.254,-193.885"/>
</g>
<!-- Node6 -->
<g id="node7" class="node"><title>Node6</title>
<g id="a_node7"><a xlink:href="classtutorial_1_1CallCenter_1_1NextPeriod.html" target="_top" xlink:title="CallCenter.NextPeriod">
<polygon fill="none" stroke="black" points="231.5,-190.5 231.5,-209.5 344.5,-209.5 344.5,-190.5 231.5,-190.5"/>
<text text-anchor="middle" x="288" y="-197.5" font-family="Helvetica,sans-Serif" font-size="10.00">CallCenter.NextPeriod</text>
</a>
</g>
</g>
<!-- Node0&#45;&gt;Node6 -->
<g id="edge6" class="edge"><title>Node0&#45;&gt;Node6</title>
<path fill="none" stroke="midnightblue" d="M197.352,-185.746C207.694,-187.391 219.647,-189.291 231.385,-191.157"/>
<polygon fill="midnightblue" stroke="midnightblue" points="197.659,-182.251 187.233,-184.137 196.559,-189.164 197.659,-182.251"/>
</g>
<!-- Node7 -->
<g id="node8" class="node"><title>Node7</title>
<g id="a_node8"><a xlink:href="classtutorial_1_1PreyPred_1_1EndOfSim.html" target="_top" xlink:title="PreyPred.EndOfSim">
<polygon fill="none" stroke="black" points="236,-152.5 236,-171.5 340,-171.5 340,-152.5 236,-152.5"/>
<text text-anchor="middle" x="288" y="-159.5" font-family="Helvetica,sans-Serif" font-size="10.00">PreyPred.EndOfSim</text>
</a>
</g>
</g>
<!-- Node0&#45;&gt;Node7 -->
<g id="edge7" class="edge"><title>Node0&#45;&gt;Node7</title>
<path fill="none" stroke="midnightblue" d="M197.282,-176.265C208.934,-174.412 222.638,-172.233 235.78,-170.144"/>
<polygon fill="midnightblue" stroke="midnightblue" points="196.559,-172.836 187.233,-177.863 197.659,-179.749 196.559,-172.836"/>
</g>
<!-- Node8 -->
<g id="node9" class="node"><title>Node8</title>
<g id="a_node9"><a xlink:href="classtutorial_1_1PreyPred_1_1PrintPoint.html" target="_top" xlink:title="PreyPred.PrintPoint">
<polygon fill="none" stroke="black" points="236.5,-114.5 236.5,-133.5 339.5,-133.5 339.5,-114.5 236.5,-114.5"/>
<text text-anchor="middle" x="288" y="-121.5" font-family="Helvetica,sans-Serif" font-size="10.00">PreyPred.PrintPoint</text>
</a>
</g>
</g>
<!-- Node0&#45;&gt;Node8 -->
<g id="edge8" class="edge"><title>Node0&#45;&gt;Node8</title>
<path fill="none" stroke="midnightblue" d="M187.365,-165.154C197.556,-157.622 210.442,-148.981 223,-143 230.744,-139.312 239.358,-136.169 247.693,-133.563"/>
<polygon fill="midnightblue" stroke="midnightblue" points="185.011,-162.547 179.179,-171.392 189.254,-168.115 185.011,-162.547"/>
</g>
<!-- Node9 -->
<g id="node10" class="node"><title>Node9</title>
<g id="a_node10"><a xlink:href="classtutorial_1_1QueueEv_1_1Arrival.html" target="_top" xlink:title="QueueEv.Arrival">
<polygon fill="none" stroke="black" points="245.5,-76.5 245.5,-95.5 330.5,-95.5 330.5,-76.5 245.5,-76.5"/>
<text text-anchor="middle" x="288" y="-83.5" font-family="Helvetica,sans-Serif" font-size="10.00">QueueEv.Arrival</text>
</a>
</g>
</g>
<!-- Node0&#45;&gt;Node9 -->
<g id="edge9" class="edge"><title>Node0&#45;&gt;Node9</title>
<path fill="none" stroke="midnightblue" d="M176.698,-162.101C186.053,-144.802 202.13,-119.721 223,-105 229.63,-100.323 237.419,-96.7839 245.238,-94.109"/>
<polygon fill="midnightblue" stroke="midnightblue" points="173.453,-160.759 171.981,-171.251 179.674,-163.966 173.453,-160.759"/>
</g>
<!-- Node10 -->
<g id="node11" class="node"><title>Node10</title>
<g id="a_node11"><a xlink:href="classtutorial_1_1QueueEv_1_1Departure.html" target="_top" xlink:title="QueueEv.Departure">
<polygon fill="none" stroke="black" points="237.5,-38.5 237.5,-57.5 338.5,-57.5 338.5,-38.5 237.5,-38.5"/>
<text text-anchor="middle" x="288" y="-45.5" font-family="Helvetica,sans-Serif" font-size="10.00">QueueEv.Departure</text>
</a>
</g>
</g>
<!-- Node0&#45;&gt;Node10 -->
<g id="edge10" class="edge"><title>Node0&#45;&gt;Node10</title>
<path fill="none" stroke="midnightblue" d="M171.817,-161.504C178.454,-136.081 193.6,-91.9222 223,-67 227.597,-63.1027 232.968,-60.0048 238.607,-57.5423"/>
<polygon fill="midnightblue" stroke="midnightblue" points="168.364,-160.894 169.411,-171.437 175.167,-162.542 168.364,-160.894"/>
</g>
<!-- Node11 -->
<g id="node12" class="node"><title>Node11</title>
<g id="a_node12"><a xlink:href="classtutorial_1_1QueueEv_1_1EndOfSim.html" target="_top" xlink:title="QueueEv.EndOfSim">
<polygon fill="none" stroke="black" points="236.5,-0.5 236.5,-19.5 339.5,-19.5 339.5,-0.5 236.5,-0.5"/>
<text text-anchor="middle" x="288" y="-7.5" font-family="Helvetica,sans-Serif" font-size="10.00">QueueEv.EndOfSim</text>
</a>
</g>
</g>
<!-- Node0&#45;&gt;Node11 -->
<g id="edge11" class="edge"><title>Node0&#45;&gt;Node11</title>
<path fill="none" stroke="midnightblue" d="M169.137,-161.182C172.876,-128.858 184.92,-64.8069 223,-29 227.137,-25.1095 232.036,-22.0122 237.252,-19.5471"/>
<polygon fill="midnightblue" stroke="midnightblue" points="165.649,-160.895 168.132,-171.194 172.614,-161.594 165.649,-160.895"/>
</g>
<!-- Node1 -->
<g id="node2" class="node"><title>Node1</title>
<polygon fill="none" stroke="#bfbfbf" points="0,-171.5 0,-190.5 110,-190.5 110,-171.5 0,-171.5"/>
<text text-anchor="middle" x="55" y="-178.5" font-family="Helvetica,sans-Serif" font-size="10.00">Comparable&lt; Event &gt;</text>
</g>
<!-- Node1&#45;&gt;Node0 -->
<g id="edge1" class="edge"><title>Node1&#45;&gt;Node0</title>
<path fill="none" stroke="midnightblue" d="M120.285,-181C129.574,-181 138.486,-181 145.906,-181"/>
<polygon fill="midnightblue" stroke="midnightblue" points="120.108,-177.5 110.108,-181 120.108,-184.5 120.108,-177.5"/>
</g>
</g>
</svg>
