<?xml version="1.0" encoding="UTF-8" standalone="no"?>
<!DOCTYPE svg PUBLIC "-//W3C//DTD SVG 1.1//EN"
 "http://www.w3.org/Graphics/SVG/1.1/DTD/svg11.dtd">
<!-- Generated by graphviz version 2.38.0 (20140413.2041)
 -->
<!-- Title: GeometricNormalInverseGaussianProcess Pages: 1 -->
<svg width="193pt" height="163pt"
 viewBox="0.00 0.00 193.00 163.00" xmlns="http://www.w3.org/2000/svg" xmlns:xlink="http://www.w3.org/1999/xlink">
<g id="graph0" class="graph" transform="scale(1 1) rotate(0) translate(4 159)">
<title>GeometricNormalInverseGaussianProcess</title>
<!-- Node1 -->
<g id="node1" class="node"><title>Node1</title>
<polygon fill="#bfbfbf" stroke="black" points="-1.42109e-14,-0.5 -1.42109e-14,-30.5 185,-30.5 185,-0.5 -1.42109e-14,-0.5"/>
<text text-anchor="start" x="8" y="-18.5" font-family="Helvetica,sans-Serif" font-size="10.00">GeometricNormalInverseGaussian</text>
<text text-anchor="middle" x="92.5" y="-7.5" font-family="Helvetica,sans-Serif" font-size="10.00">Process</text>
</g>
<!-- Node2 -->
<g id="node2" class="node"><title>Node2</title>
<g id="a_node2"><a xlink:href="classumontreal_1_1ssj_1_1stochprocess_1_1GeometricLevyProcess.html" target="_top" xlink:title="Abstract class used as a parent class for the exponentiation of a Lévy process : &#160;The interest is her...">
<polygon fill="none" stroke="black" points="28.5,-68.5 28.5,-87.5 156.5,-87.5 156.5,-68.5 28.5,-68.5"/>
<text text-anchor="middle" x="92.5" y="-75.5" font-family="Helvetica,sans-Serif" font-size="10.00">GeometricLevyProcess</text>
</a>
</g>
</g>
<!-- Node2&#45;&gt;Node1 -->
<g id="edge1" class="edge"><title>Node2&#45;&gt;Node1</title>
<path fill="none" stroke="midnightblue" d="M92.5,-58.2154C92.5,-49.3565 92.5,-38.9577 92.5,-30.7587"/>
<polygon fill="midnightblue" stroke="midnightblue" points="89.0001,-58.3318 92.5,-68.3318 96.0001,-58.3319 89.0001,-58.3318"/>
</g>
<!-- Node3 -->
<g id="node3" class="node"><title>Node3</title>
<g id="a_node3"><a xlink:href="classumontreal_1_1ssj_1_1stochprocess_1_1StochasticProcess.html" target="_top" xlink:title="Abstract base class for a stochastic process &#160;sampled (or observed) at a finite number of time points...">
<polygon fill="none" stroke="black" points="40.5,-135.5 40.5,-154.5 144.5,-154.5 144.5,-135.5 40.5,-135.5"/>
<text text-anchor="middle" x="92.5" y="-142.5" font-family="Helvetica,sans-Serif" font-size="10.00">StochasticProcess</text>
</a>
</g>
</g>
<!-- Node3&#45;&gt;Node2 -->
<g id="edge2" class="edge"><title>Node3&#45;&gt;Node2</title>
<path fill="none" stroke="midnightblue" d="M90.9399,-125.382C90.7572,-122.575 90.6003,-119.713 90.5,-117 90.1288,-106.965 90.9035,-95.4502 91.5942,-87.7505"/>
<polygon fill="midnightblue" stroke="midnightblue" points="87.4607,-125.791 91.7083,-135.497 94.4406,-125.26 87.4607,-125.791"/>
</g>
<!-- Node3&#45;&gt;Node2 -->
<g id="edge3" class="edge"><title>Node3&#45;&gt;Node2</title>
<path fill="none" stroke="#9a32cd" stroke-dasharray="5,2" d="M92.5,-125.037C92.5,-112.67 92.5,-97.1198 92.5,-87.6273"/>
<polygon fill="#9a32cd" stroke="#9a32cd" points="89.0001,-125.234 92.5,-135.234 96.0001,-125.234 89.0001,-125.234"/>
<text text-anchor="middle" x="123.5" y="-109" font-family="Helvetica,sans-Serif" font-size="10.00"> levyProcess</text>
</g>
</g>
</svg>
