<?xml version="1.0" encoding="UTF-8" standalone="no"?>
<!DOCTYPE svg PUBLIC "-//W3C//DTD SVG 1.1//EN"
 "http://www.w3.org/Graphics/SVG/1.1/DTD/svg11.dtd">
<!-- Generated by graphviz version 2.38.0 (20140413.2041)
 -->
<!-- Title: StochasticProcess Pages: 1 -->
<!--zoomable 575 -->
<svg id="main" version="1.1" xmlns="http://www.w3.org/2000/svg" xmlns:xlink="http://www.w3.org/1999/xlink" xml:space="preserve" onload="init(evt)">
<style type="text/css"><![CDATA[
.edge:hover path { stroke: red; }
.edge:hover polygon { stroke: red; fill: red; }
]]></style>
<script type="text/javascript"><![CDATA[
var edges = document.getElementsByTagName('g');
if (edges && edges.length) {
  for (var i=0;i<edges.length;i++) {
    if (edges[i].id.substr(0,4)=='edge') {
      edges[i].setAttribute('class','edge');
    }
  }
}
]]></script>
        <defs>
                <circle id="rim" cx="0" cy="0" r="7"/>
                <circle id="rim2" cx="0" cy="0" r="3.5"/>
                <g id="zoomPlus">
                        <use xlink:href="#rim" fill="#404040">
                                <set attributeName="fill" to="#808080" begin="zoomplus.mouseover" end="zoomplus.mouseout"/>
                        </use>
                        <path d="M-4,0h8M0,-4v8" fill="none" stroke="white" stroke-width="1.5" pointer-events="none"/>
                </g>
                <g id="zoomMin">
                        <use xlink:href="#rim" fill="#404040">
                                <set attributeName="fill" to="#808080" begin="zoomminus.mouseover" end="zoomminus.mouseout"/>
                        </use>
                        <path d="M-4,0h8" fill="none" stroke="white" stroke-width="1.5" pointer-events="none"/>
                </g>
                <g id="dirArrow">
                        <path fill="none" stroke="white" stroke-width="1.5" d="M0,-3.0v7 M-2.5,-0.5L0,-3.0L2.5,-0.5"/>
                </g>
               <g id="resetDef">
                       <use xlink:href="#rim2" fill="#404040">
                               <set attributeName="fill" to="#808080" begin="reset.mouseover" end="reset.mouseout"/>
                       </use>
               </g>
        </defs>

<script type="text/javascript">
var viewWidth = 921;
var viewHeight = 575;
var sectionId = 'dynsection-0';
</script>
<script xlink:href="svgpan.js"/>
<svg id="graph" class="graph">
<g id="viewport">
<title>StochasticProcess</title>
<!-- Node0 -->
<g id="node1" class="node"><title>Node0</title>
<polygon fill="#bfbfbf" stroke="black" points="0,-300 0,-319 99,-319 99,-300 0,-300"/>
<text text-anchor="middle" x="49.5" y="-307" font-family="Helvetica,sans-Serif" font-size="10.00">StochasticProcess</text>
</g>
<!-- Node1 -->
<g id="node2" class="node"><title>Node1</title>
<g id="a_node2"><a xlink:href="classumontreal_1_1ssj_1_1stochprocess_1_1BrownianMotion.html" target="_top" xlink:title="This class represents a Brownian motion process , sampled at times . ">
<polygon fill="none" stroke="black" points="177,-509 177,-528 263,-528 263,-509 177,-509"/>
<text text-anchor="middle" x="220" y="-516" font-family="Helvetica,sans-Serif" font-size="10.00">BrownianMotion</text>
</a>
</g>
</g>
<!-- Node0&#45;&gt;Node1 -->
<g id="edge1" class="edge"><title>Node0&#45;&gt;Node1</title>
<path fill="none" stroke="midnightblue" d="M53.3623,-329.249C60.0896,-368.173 80.6527,-454.883 135,-499.5 146.672,-509.082 162.209,-514.061 176.744,-516.577"/>
<polygon fill="midnightblue" stroke="midnightblue" points="56.7913,-328.527 51.7553,-319.206 49.8792,-329.633 56.7913,-328.527"/>
</g>
<!-- Node5 -->
<g id="node6" class="node"><title>Node5</title>
<g id="a_node6"><a xlink:href="classumontreal_1_1ssj_1_1stochprocess_1_1CIRProcess.html" target="_top" xlink:title="This class represents a CIR (Cox, Ingersoll, Ross) process   , sampled at times . ">
<polygon fill="none" stroke="black" points="184.5,-471 184.5,-490 255.5,-490 255.5,-471 184.5,-471"/>
<text text-anchor="middle" x="220" y="-478" font-family="Helvetica,sans-Serif" font-size="10.00">CIRProcess</text>
</a>
</g>
</g>
<!-- Node0&#45;&gt;Node5 -->
<g id="edge5" class="edge"><title>Node0&#45;&gt;Node5</title>
<path fill="none" stroke="midnightblue" d="M55.638,-328.891C65.3531,-361.605 89.6259,-427.51 135,-461.5 149.12,-472.078 168.071,-476.941 184.398,-479.11"/>
<polygon fill="midnightblue" stroke="midnightblue" points="58.977,-327.836 52.8919,-319.163 52.2403,-329.738 58.977,-327.836"/>
</g>
<!-- Node6 -->
<g id="node7" class="node"><title>Node6</title>
<g id="a_node7"><a xlink:href="classumontreal_1_1ssj_1_1stochprocess_1_1CIRProcessEuler.html" target="_top" xlink:title="This class represents a CIR process as in CIRProcess, but the process is generated using the simple E...">
<polygon fill="none" stroke="black" points="173.5,-433 173.5,-452 266.5,-452 266.5,-433 173.5,-433"/>
<text text-anchor="middle" x="220" y="-440" font-family="Helvetica,sans-Serif" font-size="10.00">CIRProcessEuler</text>
</a>
</g>
</g>
<!-- Node0&#45;&gt;Node6 -->
<g id="edge6" class="edge"><title>Node0&#45;&gt;Node6</title>
<path fill="none" stroke="midnightblue" d="M59.1418,-328.371C71.9271,-354.078 98.3787,-399.628 135,-423.5 146.273,-430.848 160.002,-435.378 173.066,-438.163"/>
<polygon fill="midnightblue" stroke="midnightblue" points="62.2617,-326.783 54.7809,-319.28 55.9503,-329.811 62.2617,-326.783"/>
</g>
<!-- Node7 -->
<g id="node8" class="node"><title>Node7</title>
<g id="a_node8"><a xlink:href="classumontreal_1_1ssj_1_1stochprocess_1_1GammaProcess.html" target="_top" xlink:title="This class represents a gamma process   (page 82) &#160;with mean parameter &#160;and variance parameter ...">
<polygon fill="none" stroke="black" points="176.5,-395 176.5,-414 263.5,-414 263.5,-395 176.5,-395"/>
<text text-anchor="middle" x="220" y="-402" font-family="Helvetica,sans-Serif" font-size="10.00">GammaProcess</text>
</a>
</g>
</g>
<!-- Node0&#45;&gt;Node7 -->
<g id="edge7" class="edge"><title>Node0&#45;&gt;Node7</title>
<path fill="none" stroke="midnightblue" d="M64.9548,-326.916C80.4556,-344.422 106.687,-370.851 135,-385.5 147.616,-392.027 162.436,-396.327 176.087,-399.153"/>
<polygon fill="midnightblue" stroke="midnightblue" points="67.4245,-324.421 58.2452,-319.13 62.1217,-328.99 67.4245,-324.421"/>
</g>
<!-- Node13 -->
<g id="node14" class="node"><title>Node13</title>
<g id="a_node14"><a xlink:href="classumontreal_1_1ssj_1_1stochprocess_1_1GeometricBrownianMotion.html" target="_top" xlink:title="Represents a geometric Brownian motion (GBM) process , which evolves according to the stochastic diff...">
<polygon fill="none" stroke="black" points="154.5,-357 154.5,-376 285.5,-376 285.5,-357 154.5,-357"/>
<text text-anchor="middle" x="220" y="-364" font-family="Helvetica,sans-Serif" font-size="10.00">GeometricBrownianMotion</text>
</a>
</g>
</g>
<!-- Node0&#45;&gt;Node13 -->
<g id="edge13" class="edge"><title>Node0&#45;&gt;Node13</title>
<path fill="none" stroke="midnightblue" d="M78.283,-323.692C94.5022,-331.544 115.544,-340.998 135,-347.5 145.919,-351.149 157.869,-354.322 169.242,-356.975"/>
<polygon fill="midnightblue" stroke="midnightblue" points="79.382,-320.332 68.8648,-319.051 76.2879,-326.611 79.382,-320.332"/>
</g>
<!-- Node14 -->
<g id="node15" class="node"><title>Node14</title>
<g id="a_node15"><a xlink:href="classumontreal_1_1ssj_1_1stochprocess_1_1GeometricLevyProcess.html" target="_top" xlink:title="Abstract class used as a parent class for the exponentiation of a Lévy process : &#160;The interest rate i...">
<polygon fill="none" stroke="black" points="160.5,-319 160.5,-338 279.5,-338 279.5,-319 160.5,-319"/>
<text text-anchor="middle" x="220" y="-326" font-family="Helvetica,sans-Serif" font-size="10.00">GeometricLevyProcess</text>
</a>
</g>
</g>
<!-- Node0&#45;&gt;Node14 -->
<g id="edge14" class="edge"><title>Node0&#45;&gt;Node14</title>
<path fill="none" stroke="midnightblue" d="M109.297,-316.13C125.794,-317.99 143.727,-320.012 160.222,-321.872"/>
<polygon fill="midnightblue" stroke="midnightblue" points="109.566,-312.638 99.2372,-314.996 108.782,-319.594 109.566,-312.638"/>
</g>
<!-- Node16 -->
<g id="node17" class="node"><title>Node16</title>
<g id="a_node17"><a xlink:href="classumontreal_1_1ssj_1_1stochprocess_1_1GeometricVarianceGammaProcess.html" target="_top" xlink:title="This class represents a geometric variance gamma process &#160;(see   (page 86)). ">
<polygon fill="none" stroke="black" points="135,-281 135,-300 305,-300 305,-281 135,-281"/>
<text text-anchor="middle" x="220" y="-288" font-family="Helvetica,sans-Serif" font-size="10.00">GeometricVarianceGammaProcess</text>
</a>
</g>
</g>
<!-- Node0&#45;&gt;Node16 -->
<g id="edge16" class="edge"><title>Node0&#45;&gt;Node16</title>
<path fill="none" stroke="midnightblue" d="M109.435,-302.854C117.657,-301.927 126.234,-300.96 134.81,-299.993"/>
<polygon fill="midnightblue" stroke="midnightblue" points="108.782,-299.406 99.2372,-304.004 109.566,-306.362 108.782,-299.406"/>
</g>
<!-- Node17 -->
<g id="node18" class="node"><title>Node17</title>
<g id="a_node18"><a xlink:href="classumontreal_1_1ssj_1_1stochprocess_1_1InverseGaussianProcess.html" target="_top" xlink:title="The inverse Gaussian process is a non&#45;decreasing process where the increments are additive and are gi...">
<polygon fill="none" stroke="black" points="157,-243 157,-262 283,-262 283,-243 157,-243"/>
<text text-anchor="middle" x="220" y="-250" font-family="Helvetica,sans-Serif" font-size="10.00">InverseGaussianProcess</text>
</a>
</g>
</g>
<!-- Node0&#45;&gt;Node17 -->
<g id="edge17" class="edge"><title>Node0&#45;&gt;Node17</title>
<path fill="none" stroke="midnightblue" d="M78.283,-295.308C94.5022,-287.456 115.544,-278.002 135,-271.5 145.919,-267.851 157.869,-264.678 169.242,-262.025"/>
<polygon fill="midnightblue" stroke="midnightblue" points="76.2879,-292.389 68.8648,-299.949 79.382,-298.668 76.2879,-292.389"/>
</g>
<!-- Node21 -->
<g id="node22" class="node"><title>Node21</title>
<g id="a_node22"><a xlink:href="classumontreal_1_1ssj_1_1stochprocess_1_1MultivariateStochasticProcess.html" target="_top" xlink:title="This class is a multivariate version of StochasticProcess where the process evolves in the &#45;dimension...">
<polygon fill="none" stroke="black" points="145.5,-205 145.5,-224 294.5,-224 294.5,-205 145.5,-205"/>
<text text-anchor="middle" x="220" y="-212" font-family="Helvetica,sans-Serif" font-size="10.00">MultivariateStochasticProcess</text>
</a>
</g>
</g>
<!-- Node0&#45;&gt;Node21 -->
<g id="edge21" class="edge"><title>Node0&#45;&gt;Node21</title>
<path fill="none" stroke="midnightblue" d="M64.9548,-292.084C80.4556,-274.578 106.687,-248.149 135,-233.5 142.437,-229.652 150.639,-226.579 158.917,-224.125"/>
<polygon fill="midnightblue" stroke="midnightblue" points="62.1217,-290.01 58.2452,-299.87 67.4245,-294.579 62.1217,-290.01"/>
</g>
<!-- Node27 -->
<g id="node28" class="node"><title>Node27</title>
<g id="a_node28"><a xlink:href="classumontreal_1_1ssj_1_1stochprocess_1_1NormalInverseGaussianProcess.html" target="_top" xlink:title="This class represents a normal inverse gaussian process (NIG). ">
<polygon fill="none" stroke="black" points="141,-167 141,-186 299,-186 299,-167 141,-167"/>
<text text-anchor="middle" x="220" y="-174" font-family="Helvetica,sans-Serif" font-size="10.00">NormalInverseGaussianProcess</text>
</a>
</g>
</g>
<!-- Node0&#45;&gt;Node27 -->
<g id="edge27" class="edge"><title>Node0&#45;&gt;Node27</title>
<path fill="none" stroke="midnightblue" d="M59.1418,-290.629C71.9271,-264.922 98.3787,-219.372 135,-195.5 140.887,-191.662 147.444,-188.594 154.226,-186.14"/>
<polygon fill="midnightblue" stroke="midnightblue" points="55.9503,-289.189 54.7809,-299.72 62.2617,-292.217 55.9503,-289.189"/>
</g>
<!-- Node28 -->
<g id="node29" class="node"><title>Node28</title>
<g id="a_node29"><a xlink:href="classumontreal_1_1ssj_1_1stochprocess_1_1OrnsteinUhlenbeckProcess.html" target="_top" xlink:title="This class represents an Ornstein&#45;Uhlenbeck process , sampled at times . ">
<polygon fill="none" stroke="black" points="152,-120 152,-139 288,-139 288,-120 152,-120"/>
<text text-anchor="middle" x="220" y="-127" font-family="Helvetica,sans-Serif" font-size="10.00">OrnsteinUhlenbeckProcess</text>
</a>
</g>
</g>
<!-- Node0&#45;&gt;Node28 -->
<g id="edge28" class="edge"><title>Node0&#45;&gt;Node28</title>
<path fill="none" stroke="midnightblue" d="M56.1578,-290.118C66.5225,-257.953 91.5776,-193.527 135,-157.5 145.056,-149.157 157.695,-143.267 170.092,-139.121"/>
<polygon fill="midnightblue" stroke="midnightblue" points="52.8047,-289.115 53.2007,-299.702 59.4935,-291.178 52.8047,-289.115"/>
</g>
<!-- Node30 -->
<g id="node31" class="node"><title>Node30</title>
<g id="a_node31"><a xlink:href="classumontreal_1_1ssj_1_1stochprocess_1_1VarianceGammaProcess.html" target="_top" xlink:title="This class represents a variance gamma (VG) process . ">
<polygon fill="none" stroke="black" points="157.5,-68 157.5,-87 282.5,-87 282.5,-68 157.5,-68"/>
<text text-anchor="middle" x="220" y="-75" font-family="Helvetica,sans-Serif" font-size="10.00">VarianceGammaProcess</text>
</a>
</g>
</g>
<!-- Node0&#45;&gt;Node30 -->
<g id="edge30" class="edge"><title>Node0&#45;&gt;Node30</title>
<path fill="none" stroke="midnightblue" d="M53.6507,-289.799C60.9319,-250.463 82.4946,-161.595 135,-110.5 146.341,-99.4633 161.809,-91.9987 176.381,-87.0054"/>
<polygon fill="midnightblue" stroke="midnightblue" points="50.1918,-289.26 51.9287,-299.712 57.0886,-290.458 50.1918,-289.26"/>
</g>
<!-- Node2 -->
<g id="node3" class="node"><title>Node2</title>
<g id="a_node3"><a xlink:href="classumontreal_1_1ssj_1_1stochprocess_1_1BrownianMotionBridge.html" target="_top" xlink:title="Represents a Brownian motion process &#160;sampled using the bridge sampling technique (see for example  ...">
<polygon fill="none" stroke="black" points="367.5,-547 367.5,-566 481.5,-566 481.5,-547 367.5,-547"/>
<text text-anchor="middle" x="424.5" y="-554" font-family="Helvetica,sans-Serif" font-size="10.00">BrownianMotionBridge</text>
</a>
</g>
</g>
<!-- Node1&#45;&gt;Node2 -->
<g id="edge2" class="edge"><title>Node1&#45;&gt;Node2</title>
<path fill="none" stroke="midnightblue" d="M273.514,-528.354C304.138,-534.101 342.574,-541.314 372.869,-546.999"/>
<polygon fill="midnightblue" stroke="midnightblue" points="273.925,-524.871 263.451,-526.466 272.634,-531.75 273.925,-524.871"/>
</g>
<!-- Node3 -->
<g id="node4" class="node"><title>Node3</title>
<g id="a_node4"><a xlink:href="classumontreal_1_1ssj_1_1stochprocess_1_1BrownianMotionPCA.html" target="_top" xlink:title="A Brownian motion process &#160;sampled using the principal component decomposition (PCA) ...">
<polygon fill="none" stroke="black" points="371,-509 371,-528 478,-528 478,-509 371,-509"/>
<text text-anchor="middle" x="424.5" y="-516" font-family="Helvetica,sans-Serif" font-size="10.00">BrownianMotionPCA</text>
</a>
</g>
</g>
<!-- Node1&#45;&gt;Node3 -->
<g id="edge3" class="edge"><title>Node1&#45;&gt;Node3</title>
<path fill="none" stroke="midnightblue" d="M273.678,-518.5C303.531,-518.5 340.766,-518.5 370.648,-518.5"/>
<polygon fill="midnightblue" stroke="midnightblue" points="273.451,-515 263.451,-518.5 273.451,-522 273.451,-515"/>
</g>
<!-- Node4 -->
<g id="node5" class="node"><title>Node4</title>
<g id="a_node5"><a xlink:href="classumontreal_1_1ssj_1_1stochprocess_1_1BrownianMotionPCAEqualSteps.html" target="_top" xlink:title="Same as BrownianMotionPCA, but uses a trick to speed up the calculation when the time steps are equid...">
<polygon fill="none" stroke="black" points="345.5,-471 345.5,-490 503.5,-490 503.5,-471 345.5,-471"/>
<text text-anchor="middle" x="424.5" y="-478" font-family="Helvetica,sans-Serif" font-size="10.00">BrownianMotionPCAEqualSteps</text>
</a>
</g>
</g>
<!-- Node1&#45;&gt;Node4 -->
<g id="edge4" class="edge"><title>Node1&#45;&gt;Node4</title>
<path fill="none" stroke="midnightblue" d="M273.514,-508.646C304.138,-502.899 342.574,-495.686 372.869,-490.001"/>
<polygon fill="midnightblue" stroke="midnightblue" points="272.634,-505.25 263.451,-510.534 273.925,-512.129 272.634,-505.25"/>
</g>
<!-- Node8 -->
<g id="node9" class="node"><title>Node8</title>
<g id="a_node9"><a xlink:href="classumontreal_1_1ssj_1_1stochprocess_1_1GammaProcessBridge.html" target="_top" xlink:title="This class represents a gamma process &#160;with mean parameter &#160;and variance parameter ...">
<polygon fill="none" stroke="black" points="367,-420 367,-439 482,-439 482,-420 367,-420"/>
<text text-anchor="middle" x="424.5" y="-427" font-family="Helvetica,sans-Serif" font-size="10.00">GammaProcessBridge</text>
</a>
</g>
</g>
<!-- Node7&#45;&gt;Node8 -->
<g id="edge8" class="edge"><title>Node7&#45;&gt;Node8</title>
<path fill="none" stroke="midnightblue" d="M274.121,-411.058C302.618,-414.576 337.744,-418.913 366.773,-422.497"/>
<polygon fill="midnightblue" stroke="midnightblue" points="274.299,-407.554 263.945,-409.802 273.441,-414.501 274.299,-407.554"/>
</g>
<!-- Node10 -->
<g id="node11" class="node"><title>Node10</title>
<g id="a_node11"><a xlink:href="classumontreal_1_1ssj_1_1stochprocess_1_1GammaProcessPCA.html" target="_top" xlink:title="Represents a gamma process sampled using the principal component analysis (PCA). ">
<polygon fill="none" stroke="black" points="370.5,-382 370.5,-401 478.5,-401 478.5,-382 370.5,-382"/>
<text text-anchor="middle" x="424.5" y="-389" font-family="Helvetica,sans-Serif" font-size="10.00">GammaProcessPCA</text>
</a>
</g>
</g>
<!-- Node7&#45;&gt;Node10 -->
<g id="edge10" class="edge"><title>Node7&#45;&gt;Node10</title>
<path fill="none" stroke="midnightblue" d="M274.099,-401.091C303.716,-399.19 340.498,-396.829 370.155,-394.925"/>
<polygon fill="midnightblue" stroke="midnightblue" points="273.7,-397.609 263.945,-401.743 274.149,-404.595 273.7,-397.609"/>
</g>
<!-- Node9 -->
<g id="node10" class="node"><title>Node9</title>
<g id="a_node10"><a xlink:href="classumontreal_1_1ssj_1_1stochprocess_1_1GammaProcessSymmetricalBridge.html" target="_top" xlink:title="This class differs from GammaProcessBridge only in that it requires the number of interval of the pat...">
<polygon fill="none" stroke="black" points="544,-420 544,-439 714,-439 714,-420 544,-420"/>
<text text-anchor="middle" x="629" y="-427" font-family="Helvetica,sans-Serif" font-size="10.00">GammaProcessSymmetricalBridge</text>
</a>
</g>
</g>
<!-- Node8&#45;&gt;Node9 -->
<g id="edge9" class="edge"><title>Node8&#45;&gt;Node9</title>
<path fill="none" stroke="midnightblue" d="M492.226,-429.5C508.682,-429.5 526.52,-429.5 543.689,-429.5"/>
<polygon fill="midnightblue" stroke="midnightblue" points="492.177,-426 482.177,-429.5 492.177,-433 492.177,-426"/>
</g>
<!-- Node11 -->
<g id="node12" class="node"><title>Node11</title>
<g id="a_node12"><a xlink:href="classumontreal_1_1ssj_1_1stochprocess_1_1GammaProcessPCABridge.html" target="_top" xlink:title="Same as GammaProcessPCA, but the generated uniforms correspond to a bridge transformation of the Brow...">
<polygon fill="none" stroke="black" points="561,-382 561,-401 697,-401 697,-382 561,-382"/>
<text text-anchor="middle" x="629" y="-389" font-family="Helvetica,sans-Serif" font-size="10.00">GammaProcessPCABridge</text>
</a>
</g>
</g>
<!-- Node10&#45;&gt;Node11 -->
<g id="edge11" class="edge"><title>Node10&#45;&gt;Node11</title>
<path fill="none" stroke="midnightblue" d="M488.947,-391.5C511.74,-391.5 537.517,-391.5 560.632,-391.5"/>
<polygon fill="midnightblue" stroke="midnightblue" points="488.705,-388 478.704,-391.5 488.704,-395 488.705,-388"/>
</g>
<!-- Node12 -->
<g id="node13" class="node"><title>Node12</title>
<g id="a_node13"><a xlink:href="classumontreal_1_1ssj_1_1stochprocess_1_1GammaProcessPCASymmetricalBridge.html" target="_top" xlink:title="Same as GammaProcessPCABridge, but uses the fast inversion method for the symmetrical beta distributi...">
<polygon fill="none" stroke="black" points="750,-376.5 750,-406.5 913,-406.5 913,-376.5 750,-376.5"/>
<text text-anchor="start" x="758" y="-394.5" font-family="Helvetica,sans-Serif" font-size="10.00">GammaProcessPCASymmetrical</text>
<text text-anchor="middle" x="831.5" y="-383.5" font-family="Helvetica,sans-Serif" font-size="10.00">Bridge</text>
</a>
</g>
</g>
<!-- Node11&#45;&gt;Node12 -->
<g id="edge12" class="edge"><title>Node11&#45;&gt;Node12</title>
<path fill="none" stroke="midnightblue" d="M707.128,-391.5C721.157,-391.5 735.825,-391.5 749.95,-391.5"/>
<polygon fill="midnightblue" stroke="midnightblue" points="707.042,-388 697.042,-391.5 707.042,-395 707.042,-388"/>
</g>
<!-- Node15 -->
<g id="node16" class="node"><title>Node15</title>
<g id="a_node16"><a xlink:href="classumontreal_1_1ssj_1_1stochprocess_1_1GeometricNormalInverseGaussianProcess.html" target="_top" xlink:title="The geometric normal inverse gaussian (GNIG) process is the exponentiation of a NormalInverseGaussian...">
<polygon fill="none" stroke="black" points="341,-319.5 341,-349.5 508,-349.5 508,-319.5 341,-319.5"/>
<text text-anchor="start" x="349" y="-337.5" font-family="Helvetica,sans-Serif" font-size="10.00">GeometricNormalInverseGaussian</text>
<text text-anchor="middle" x="424.5" y="-326.5" font-family="Helvetica,sans-Serif" font-size="10.00">Process</text>
</a>
</g>
</g>
<!-- Node14&#45;&gt;Node15 -->
<g id="edge15" class="edge"><title>Node14&#45;&gt;Node15</title>
<path fill="none" stroke="midnightblue" d="M289.652,-330.534C306.139,-331.023 323.917,-331.549 340.962,-332.054"/>
<polygon fill="midnightblue" stroke="midnightblue" points="289.671,-327.033 279.571,-330.235 289.463,-334.03 289.671,-327.033"/>
</g>
<!-- Node18 -->
<g id="node19" class="node"><title>Node18</title>
<g id="a_node19"><a xlink:href="classumontreal_1_1ssj_1_1stochprocess_1_1InverseGaussianProcessMSH.html" target="_top" xlink:title="Uses a faster generating method (MSH)   than the simple inversion of the distribution function used ...">
<polygon fill="none" stroke="black" points="350,-281 350,-300 499,-300 499,-281 350,-281"/>
<text text-anchor="middle" x="424.5" y="-288" font-family="Helvetica,sans-Serif" font-size="10.00">InverseGaussianProcessMSH</text>
</a>
</g>
</g>
<!-- Node17&#45;&gt;Node18 -->
<g id="edge18" class="edge"><title>Node17&#45;&gt;Node18</title>
<path fill="none" stroke="midnightblue" d="M281.847,-263.918C310.821,-269.355 345.075,-275.783 372.641,-280.956"/>
<polygon fill="midnightblue" stroke="midnightblue" points="282.312,-260.444 271.838,-262.04 281.021,-267.324 282.312,-260.444"/>
</g>
<!-- Node20 -->
<g id="node21" class="node"><title>Node20</title>
<g id="a_node21"><a xlink:href="classumontreal_1_1ssj_1_1stochprocess_1_1InverseGaussianProcessPCA.html" target="_top" xlink:title="Approximates a principal component analysis (PCA) decomposition of the InverseGaussianProcess. ">
<polygon fill="none" stroke="black" points="351,-243 351,-262 498,-262 498,-243 351,-243"/>
<text text-anchor="middle" x="424.5" y="-250" font-family="Helvetica,sans-Serif" font-size="10.00">InverseGaussianProcessPCA</text>
</a>
</g>
</g>
<!-- Node17&#45;&gt;Node20 -->
<g id="edge20" class="edge"><title>Node17&#45;&gt;Node20</title>
<path fill="none" stroke="midnightblue" d="M293.344,-252.5C312.022,-252.5 332.132,-252.5 350.826,-252.5"/>
<polygon fill="midnightblue" stroke="midnightblue" points="293.133,-249 283.133,-252.5 293.133,-256 293.133,-249"/>
</g>
<!-- Node19 -->
<g id="node20" class="node"><title>Node19</title>
<g id="a_node20"><a xlink:href="classumontreal_1_1ssj_1_1stochprocess_1_1InverseGaussianProcessBridge.html" target="_top" xlink:title="Samples the path by bridge sampling: first finding the process value at the final time and then the m...">
<polygon fill="none" stroke="black" points="552,-287 552,-306 706,-306 706,-287 552,-287"/>
<text text-anchor="middle" x="629" y="-294" font-family="Helvetica,sans-Serif" font-size="10.00">InverseGaussianProcessBridge</text>
</a>
</g>
</g>
<!-- Node18&#45;&gt;Node19 -->
<g id="edge19" class="edge"><title>Node18&#45;&gt;Node19</title>
<path fill="none" stroke="midnightblue" d="M509.367,-292.985C523.492,-293.403 538.082,-293.836 551.993,-294.248"/>
<polygon fill="midnightblue" stroke="midnightblue" points="509.279,-289.481 499.18,-292.683 509.072,-296.478 509.279,-289.481"/>
</g>
<!-- Node22 -->
<g id="node23" class="node"><title>Node22</title>
<g id="a_node23"><a xlink:href="classumontreal_1_1ssj_1_1stochprocess_1_1MultivariateBrownianMotion.html" target="_top" xlink:title="This class represents a multivariate Brownian motion process , sampled at times . ...">
<polygon fill="none" stroke="black" points="356,-205 356,-224 493,-224 493,-205 356,-205"/>
<text text-anchor="middle" x="424.5" y="-212" font-family="Helvetica,sans-Serif" font-size="10.00">MultivariateBrownianMotion</text>
</a>
</g>
</g>
<!-- Node21&#45;&gt;Node22 -->
<g id="edge22" class="edge"><title>Node21&#45;&gt;Node22</title>
<path fill="none" stroke="midnightblue" d="M305.121,-214.5C322.055,-214.5 339.647,-214.5 355.929,-214.5"/>
<polygon fill="midnightblue" stroke="midnightblue" points="304.68,-211 294.68,-214.5 304.68,-218 304.68,-211"/>
</g>
<!-- Node26 -->
<g id="node27" class="node"><title>Node26</title>
<g id="a_node27"><a xlink:href="classumontreal_1_1ssj_1_1stochprocess_1_1MultivariateGeometricBrownianMotion.html" target="_top" xlink:title="This class is a multivariate version of GeometricBrownianMotion. ">
<polygon fill="none" stroke="black" points="348.5,-155.5 348.5,-185.5 500.5,-185.5 500.5,-155.5 348.5,-155.5"/>
<text text-anchor="start" x="356.5" y="-173.5" font-family="Helvetica,sans-Serif" font-size="10.00">MultivariateGeometricBrownian</text>
<text text-anchor="middle" x="424.5" y="-162.5" font-family="Helvetica,sans-Serif" font-size="10.00">Motion</text>
</a>
</g>
</g>
<!-- Node21&#45;&gt;Node26 -->
<g id="edge26" class="edge"><title>Node21&#45;&gt;Node26</title>
<path fill="none" stroke="midnightblue" d="M274.717,-202.828C299.075,-197.535 328.182,-191.211 354.165,-185.565"/>
<polygon fill="midnightblue" stroke="midnightblue" points="273.968,-199.409 264.939,-204.953 275.455,-206.249 273.968,-199.409"/>
</g>
<!-- Node23 -->
<g id="node24" class="node"><title>Node23</title>
<g id="a_node24"><a xlink:href="classumontreal_1_1ssj_1_1stochprocess_1_1MultivariateBrownianMotionBridge.html" target="_top" xlink:title="A multivariate Brownian motion process &#160;sampled via bridge sampling. ">
<polygon fill="none" stroke="black" points="560.5,-237.5 560.5,-267.5 697.5,-267.5 697.5,-237.5 560.5,-237.5"/>
<text text-anchor="start" x="568.5" y="-255.5" font-family="Helvetica,sans-Serif" font-size="10.00">MultivariateBrownianMotion</text>
<text text-anchor="middle" x="629" y="-244.5" font-family="Helvetica,sans-Serif" font-size="10.00">Bridge</text>
</a>
</g>
</g>
<!-- Node22&#45;&gt;Node23 -->
<g id="edge23" class="edge"><title>Node22&#45;&gt;Node23</title>
<path fill="none" stroke="midnightblue" d="M486.433,-225.934C509.722,-230.305 536.411,-235.313 560.294,-239.795"/>
<polygon fill="midnightblue" stroke="midnightblue" points="486.812,-222.444 476.338,-224.04 485.521,-229.324 486.812,-222.444"/>
</g>
<!-- Node24 -->
<g id="node25" class="node"><title>Node24</title>
<g id="a_node25"><a xlink:href="classumontreal_1_1ssj_1_1stochprocess_1_1MultivariateBrownianMotionPCA.html" target="_top" xlink:title="A multivariate Brownian motion process &#160;sampled entirely using the principal component decomposition ...">
<polygon fill="none" stroke="black" points="550,-199 550,-218 708,-218 708,-199 550,-199"/>
<text text-anchor="middle" x="629" y="-206" font-family="Helvetica,sans-Serif" font-size="10.00">MultivariateBrownianMotionPCA</text>
</a>
</g>
</g>
<!-- Node22&#45;&gt;Node24 -->
<g id="edge24" class="edge"><title>Node22&#45;&gt;Node24</title>
<path fill="none" stroke="midnightblue" d="M503.583,-212.186C518.76,-211.737 534.671,-211.265 549.85,-210.816"/>
<polygon fill="midnightblue" stroke="midnightblue" points="503.103,-208.699 493.211,-212.494 503.31,-215.696 503.103,-208.699"/>
</g>
<!-- Node25 -->
<g id="node26" class="node"><title>Node25</title>
<g id="a_node26"><a xlink:href="classumontreal_1_1ssj_1_1stochprocess_1_1MultivariateBrownianMotionPCABigSigma.html" target="_top" xlink:title="A multivariate Brownian motion process &#160;sampled entirely using the principal component decomposition ...">
<polygon fill="none" stroke="black" points="560.5,-149.5 560.5,-179.5 697.5,-179.5 697.5,-149.5 560.5,-149.5"/>
<text text-anchor="start" x="568.5" y="-167.5" font-family="Helvetica,sans-Serif" font-size="10.00">MultivariateBrownianMotion</text>
<text text-anchor="middle" x="629" y="-156.5" font-family="Helvetica,sans-Serif" font-size="10.00">PCABigSigma</text>
</a>
</g>
</g>
<!-- Node22&#45;&gt;Node25 -->
<g id="edge25" class="edge"><title>Node22&#45;&gt;Node25</title>
<path fill="none" stroke="midnightblue" d="M474.796,-202.61C485.732,-199.956 497.263,-197.144 508,-194.5 527.601,-189.674 548.986,-184.347 568.203,-179.538"/>
<polygon fill="midnightblue" stroke="midnightblue" points="473.854,-199.237 464.96,-204.995 475.503,-206.04 473.854,-199.237"/>
</g>
<!-- Node29 -->
<g id="node30" class="node"><title>Node29</title>
<g id="a_node30"><a xlink:href="classumontreal_1_1ssj_1_1stochprocess_1_1OrnsteinUhlenbeckProcessEuler.html" target="_top" xlink:title="This class represents an Ornstein&#45;Uhlenbeck process as in OrnsteinUhlenbeckProcess, but the process is generated using the simple Euler scheme. ">
<polygon fill="none" stroke="black" points="356.5,-106.5 356.5,-136.5 492.5,-136.5 492.5,-106.5 356.5,-106.5"/>
<text text-anchor="start" x="364.5" y="-124.5" font-family="Helvetica,sans-Serif" font-size="10.00">OrnsteinUhlenbeckProcess</text>
<text text-anchor="middle" x="424.5" y="-113.5" font-family="Helvetica,sans-Serif" font-size="10.00">Euler</text>
</a>
</g>
</g>
<!-- Node28&#45;&gt;Node29 -->
<g id="edge29" class="edge"><title>Node28&#45;&gt;Node29</title>
<path fill="none" stroke="midnightblue" d="M298.296,-126.446C317.365,-125.693 337.636,-124.892 356.188,-124.159"/>
<polygon fill="midnightblue" stroke="midnightblue" points="298.002,-122.955 288.148,-126.847 298.279,-129.95 298.002,-122.955"/>
</g>
<!-- Node31 -->
<g id="node32" class="node"><title>Node31</title>
<g id="a_node32"><a xlink:href="classumontreal_1_1ssj_1_1stochprocess_1_1VarianceGammaProcessAlternate.html" target="_top" xlink:title="This is a VarianceGammaProcess for which the successive random numbers are used in a different order ...">
<polygon fill="none" stroke="black" points="342.5,-68 342.5,-87 506.5,-87 506.5,-68 342.5,-68"/>
<text text-anchor="middle" x="424.5" y="-75" font-family="Helvetica,sans-Serif" font-size="10.00">VarianceGammaProcessAlternate</text>
</a>
</g>
</g>
<!-- Node30&#45;&gt;Node31 -->
<g id="edge31" class="edge"><title>Node30&#45;&gt;Node31</title>
<path fill="none" stroke="midnightblue" d="M292.935,-77.5C308.954,-77.5 326.045,-77.5 342.404,-77.5"/>
<polygon fill="midnightblue" stroke="midnightblue" points="292.581,-74.0001 282.581,-77.5 292.581,-81.0001 292.581,-74.0001"/>
</g>
<!-- Node32 -->
<g id="node33" class="node"><title>Node32</title>
<g id="a_node33"><a xlink:href="classumontreal_1_1ssj_1_1stochprocess_1_1VarianceGammaProcessDiff.html" target="_top" xlink:title="This class represents a variance gamma (VG) process . ">
<polygon fill="none" stroke="black" points="354,-30 354,-49 495,-49 495,-30 354,-30"/>
<text text-anchor="middle" x="424.5" y="-37" font-family="Helvetica,sans-Serif" font-size="10.00">VarianceGammaProcessDiff</text>
</a>
</g>
</g>
<!-- Node30&#45;&gt;Node32 -->
<g id="edge32" class="edge"><title>Node30&#45;&gt;Node32</title>
<path fill="none" stroke="midnightblue" d="M281.847,-66.0819C310.821,-60.6448 345.075,-54.2168 372.641,-49.0439"/>
<polygon fill="midnightblue" stroke="midnightblue" points="281.021,-62.6757 271.838,-67.96 282.312,-69.5556 281.021,-62.6757"/>
</g>
<!-- Node33 -->
<g id="node34" class="node"><title>Node33</title>
<g id="a_node34"><a xlink:href="classumontreal_1_1ssj_1_1stochprocess_1_1VarianceGammaProcessDiffPCA.html" target="_top" xlink:title="Same as VarianceGammaProcessDiff, but the two inner GammaProcess ’es are of PCA type. ">
<polygon fill="none" stroke="black" points="548,-30 548,-49 710,-49 710,-30 548,-30"/>
<text text-anchor="middle" x="629" y="-37" font-family="Helvetica,sans-Serif" font-size="10.00">VarianceGammaProcessDiffPCA</text>
</a>
</g>
</g>
<!-- Node32&#45;&gt;Node33 -->
<g id="edge33" class="edge"><title>Node32&#45;&gt;Node33</title>
<path fill="none" stroke="midnightblue" d="M505.244,-39.5C519.213,-39.5 533.756,-39.5 547.739,-39.5"/>
<polygon fill="midnightblue" stroke="midnightblue" points="505.189,-36.0001 495.189,-39.5 505.189,-43.0001 505.189,-36.0001"/>
</g>
<!-- Node34 -->
<g id="node35" class="node"><title>Node34</title>
<g id="a_node35"><a xlink:href="classumontreal_1_1ssj_1_1stochprocess_1_1VarianceGammaProcessDiffPCABridge.html" target="_top" xlink:title="Same as VarianceGammaProcessDiff, but the two inner GammaProcess ’es are of the type PCABridge...">
<polygon fill="none" stroke="black" points="761,-49.5 761,-79.5 902,-79.5 902,-49.5 761,-49.5"/>
<text text-anchor="start" x="769" y="-67.5" font-family="Helvetica,sans-Serif" font-size="10.00">VarianceGammaProcessDiff</text>
<text text-anchor="middle" x="831.5" y="-56.5" font-family="Helvetica,sans-Serif" font-size="10.00">PCABridge</text>
</a>
</g>
</g>
<!-- Node33&#45;&gt;Node34 -->
<g id="edge34" class="edge"><title>Node33&#45;&gt;Node34</title>
<path fill="none" stroke="midnightblue" d="M716.555,-50.2923C731.38,-52.1409 746.612,-54.0402 760.922,-55.8245"/>
<polygon fill="midnightblue" stroke="midnightblue" points="716.729,-46.787 706.372,-49.0227 715.862,-53.7332 716.729,-46.787"/>
</g>
<!-- Node35 -->
<g id="node36" class="node"><title>Node35</title>
<g id="a_node36"><a xlink:href="classumontreal_1_1ssj_1_1stochprocess_1_1VarianceGammaProcessDiffPCASymmetricalBridge.html" target="_top" xlink:title="Same as VarianceGammaProcessDiff, but the two inner GammaProcess ’es are of the PCASymmetricalBridge...">
<polygon fill="none" stroke="black" points="761,-0.5 761,-30.5 902,-30.5 902,-0.5 761,-0.5"/>
<text text-anchor="start" x="769" y="-18.5" font-family="Helvetica,sans-Serif" font-size="10.00">VarianceGammaProcessDiff</text>
<text text-anchor="middle" x="831.5" y="-7.5" font-family="Helvetica,sans-Serif" font-size="10.00">PCASymmetricalBridge</text>
</a>
</g>
</g>
<!-- Node33&#45;&gt;Node35 -->
<g id="edge35" class="edge"><title>Node33&#45;&gt;Node35</title>
<path fill="none" stroke="midnightblue" d="M719.54,-28.782C733.373,-27.1262 747.482,-25.4374 760.795,-23.8437"/>
<polygon fill="midnightblue" stroke="midnightblue" points="719.044,-25.3163 709.531,-29.9801 719.876,-32.2667 719.044,-25.3163"/>
</g>
</g>
</svg>
        <g id="navigator" transform="translate(0 0)" fill="#404254">
                <rect fill="#f2f5e9" fill-opacity="0.5" stroke="#606060" stroke-width=".5" x="0" y="0" width="60" height="60"/>
                <use id="zoomplus" xlink:href="#zoomPlus" x="17" y="9" onmousedown="handleZoom(evt,'in')"/>
                <use id="zoomminus" xlink:href="#zoomMin" x="42" y="9" onmousedown="handleZoom(evt,'out')"/>
                <use id="reset" xlink:href="#resetDef" x="30" y="36" onmousedown="handleReset()"/>
                <g id="arrowUp" xlink:href="#dirArrow" transform="translate(30 24)" onmousedown="handlePan(0,-1)">
                  <use xlink:href="#rim" fill="#404040">
                        <set attributeName="fill" to="#808080" begin="arrowUp.mouseover" end="arrowUp.mouseout"/>
                  </use>
                  <path fill="none" stroke="white" stroke-width="1.5" d="M0,-3.0v7 M-2.5,-0.5L0,-3.0L2.5,-0.5"/>
                </g>
                <g id="arrowRight" xlink:href="#dirArrow" transform="rotate(90) translate(36 -43)" onmousedown="handlePan(1,0)">
                  <use xlink:href="#rim" fill="#404040">
                        <set attributeName="fill" to="#808080" begin="arrowRight.mouseover" end="arrowRight.mouseout"/>
                  </use>
                  <path fill="none" stroke="white" stroke-width="1.5" d="M0,-3.0v7 M-2.5,-0.5L0,-3.0L2.5,-0.5"/>
                </g>
                <g id="arrowDown" xlink:href="#dirArrow" transform="rotate(180) translate(-30 -48)" onmousedown="handlePan(0,1)">
                  <use xlink:href="#rim" fill="#404040">
                        <set attributeName="fill" to="#808080" begin="arrowDown.mouseover" end="arrowDown.mouseout"/>
                  </use>
                  <path fill="none" stroke="white" stroke-width="1.5" d="M0,-3.0v7 M-2.5,-0.5L0,-3.0L2.5,-0.5"/>
                </g>
                <g id="arrowLeft" xlink:href="#dirArrow" transform="rotate(270) translate(-36 17)" onmousedown="handlePan(-1,0)">
                  <use xlink:href="#rim" fill="#404040">
                        <set attributeName="fill" to="#808080" begin="arrowLeft.mouseover" end="arrowLeft.mouseout"/>
                  </use>
                  <path fill="none" stroke="white" stroke-width="1.5" d="M0,-3.0v7 M-2.5,-0.5L0,-3.0L2.5,-0.5"/>
                </g>
        </g>
        <svg viewBox="0 0 15 15" width="100%" height="30px" preserveAspectRatio="xMaxYMin meet">
         <g id="arrow_out" transform="scale(0.3 0.3)">
          <a xlink:href="classumontreal_1_1ssj_1_1stochprocess_1_1StochasticProcess__inherit__graph_org.svg" target="_base">
           <rect id="button" ry="5" rx="5" y="6" x="6" height="38" width="38"
                fill="#f2f5e9" fill-opacity="0.5" stroke="#606060" stroke-width="1.0"/>
           <path id="arrow"
             d="M 11.500037,31.436501 C 11.940474,20.09759 22.043105,11.32322 32.158766,21.979434 L 37.068811,17.246167 C 37.068811,17.246167 37.088388,32 37.088388,32 L 22.160133,31.978069 C 22.160133,31.978069 26.997745,27.140456 26.997745,27.140456 C 18.528582,18.264221 13.291696,25.230495 11.500037,31.436501 z"
             style="fill:#404040;"/>
          </a>
         </g>
        </svg>
</svg>
