<?xml version="1.0" encoding="UTF-8" standalone="no"?>
<!DOCTYPE svg PUBLIC "-//W3C//DTD SVG 1.1//EN"
 "http://www.w3.org/Graphics/SVG/1.1/DTD/svg11.dtd">
<!-- Generated by graphviz version 2.38.0 (20140413.2041)
 -->
<!-- Title: RandomMultivariateGen Pages: 1 -->
<svg width="188pt" height="162pt"
 viewBox="0.00 0.00 187.50 162.00" xmlns="http://www.w3.org/2000/svg" xmlns:xlink="http://www.w3.org/1999/xlink">
<g id="graph0" class="graph" transform="scale(1 1) rotate(0) translate(4 158)">
<title>RandomMultivariateGen</title>
<!-- Node6 -->
<g id="node1" class="node"><title>Node6</title>
<polygon fill="#bfbfbf" stroke="black" points="56,-0.5 56,-19.5 175,-19.5 175,-0.5 56,-0.5"/>
<text text-anchor="middle" x="115.5" y="-7.5" font-family="Helvetica,sans-Serif" font-size="10.00">RandomMultivariateGen</text>
</g>
<!-- Node7 -->
<g id="node2" class="node"><title>Node7</title>
<g id="a_node2"><a xlink:href="classumontreal_1_1ssj_1_1randvar_1_1RandomVariateGen.html" target="_top" xlink:title="This is the base class for all random variate generators over the real line. ">
<polygon fill="none" stroke="black" points="0,-67.5 0,-86.5 101,-86.5 101,-67.5 0,-67.5"/>
<text text-anchor="middle" x="50.5" y="-74.5" font-family="Helvetica,sans-Serif" font-size="10.00">RandomVariateGen</text>
</a>
</g>
</g>
<!-- Node7&#45;&gt;Node6 -->
<g id="edge1" class="edge"><title>Node7&#45;&gt;Node6</title>
<path fill="none" stroke="#9a32cd" stroke-dasharray="5,2" d="M66.5032,-59.9968C79.2504,-47.2496 96.6053,-29.8947 106.873,-19.6273"/>
<polygon fill="#9a32cd" stroke="#9a32cd" points="63.8624,-57.6878 59.2662,-67.2338 68.8122,-62.6376 63.8624,-57.6878"/>
<text text-anchor="middle" x="100" y="-41" font-family="Helvetica,sans-Serif" font-size="10.00"> gen1</text>
</g>
<!-- Node8 -->
<g id="node3" class="node"><title>Node8</title>
<g id="a_node3"><a xlink:href="interfaceumontreal_1_1ssj_1_1probdist_1_1Distribution.html" target="_top" xlink:title="This interface should be implemented by all classes supporting discrete and continuous distributions...">
<polygon fill="none" stroke="black" points="12,-134.5 12,-153.5 77,-153.5 77,-134.5 12,-134.5"/>
<text text-anchor="middle" x="44.5" y="-141.5" font-family="Helvetica,sans-Serif" font-size="10.00">Distribution</text>
</a>
</g>
</g>
<!-- Node8&#45;&gt;Node7 -->
<g id="edge2" class="edge"><title>Node8&#45;&gt;Node7</title>
<path fill="none" stroke="#9a32cd" stroke-dasharray="5,2" d="M45.136,-124.225C45.4378,-118.088 45.8745,-111.245 46.5,-105 47.1045,-98.9647 48.1045,-92.2147 48.9534,-86.9735"/>
<polygon fill="#9a32cd" stroke="#9a32cd" points="41.6385,-124.093 44.7265,-134.228 48.6326,-124.38 41.6385,-124.093"/>
<text text-anchor="middle" x="56" y="-108" font-family="Helvetica,sans-Serif" font-size="10.00"> dist</text>
</g>
<!-- Node9 -->
<g id="node4" class="node"><title>Node9</title>
<g id="a_node4"><a xlink:href="interfaceumontreal_1_1ssj_1_1rng_1_1RandomStream.html" target="_top" xlink:title="This interface defines the basic structures to handle multiple streams of uniform (pseudo)random numb...">
<polygon fill="none" stroke="black" points="95.5,-134.5 95.5,-153.5 179.5,-153.5 179.5,-134.5 95.5,-134.5"/>
<text text-anchor="middle" x="137.5" y="-141.5" font-family="Helvetica,sans-Serif" font-size="10.00">RandomStream</text>
</a>
</g>
</g>
<!-- Node9&#45;&gt;Node6 -->
<g id="edge4" class="edge"><title>Node9&#45;&gt;Node6</title>
<path fill="none" stroke="#9a32cd" stroke-dasharray="5,2" d="M134.379,-124.275C129.541,-95.2462 120.423,-40.5381 116.92,-19.5212"/>
<polygon fill="#9a32cd" stroke="#9a32cd" points="130.96,-125.051 136.057,-134.339 137.865,-123.9 130.96,-125.051"/>
<text text-anchor="middle" x="145.5" y="-74.5" font-family="Helvetica,sans-Serif" font-size="10.00"> stream</text>
</g>
<!-- Node9&#45;&gt;Node7 -->
<g id="edge3" class="edge"><title>Node9&#45;&gt;Node7</title>
<path fill="none" stroke="#9a32cd" stroke-dasharray="5,2" d="M110.29,-129.312C103.287,-125.359 95.9209,-120.805 89.5,-116 77.541,-107.051 65.488,-94.6737 58.0124,-86.5084"/>
<polygon fill="#9a32cd" stroke="#9a32cd" points="109.03,-132.61 119.49,-134.296 112.365,-126.455 109.03,-132.61"/>
<text text-anchor="middle" x="106.5" y="-108" font-family="Helvetica,sans-Serif" font-size="10.00"> stream</text>
</g>
</g>
</svg>
