<?xml version="1.0" encoding="UTF-8" standalone="no"?>
<!DOCTYPE svg PUBLIC "-//W3C//DTD SVG 1.1//EN"
 "http://www.w3.org/Graphics/SVG/1.1/DTD/svg11.dtd">
<!-- Generated by graphviz version 2.38.0 (20140413.2041)
 -->
<!-- Title: ListOfStatProbes&lt; E extends StatProbe &gt; Pages: 1 -->
<svg width="248pt" height="95pt"
 viewBox="0.00 0.00 248.00 95.00" xmlns="http://www.w3.org/2000/svg" xmlns:xlink="http://www.w3.org/1999/xlink">
<g id="graph0" class="graph" transform="scale(1 1) rotate(0) translate(4 91)">
<title>ListOfStatProbes&lt; E extends StatProbe &gt;</title>
<!-- Node1 -->
<g id="node1" class="node"><title>Node1</title>
<polygon fill="#bfbfbf" stroke="black" points="52,-0.5 52,-30.5 162,-30.5 162,-0.5 52,-0.5"/>
<text text-anchor="start" x="60" y="-18.5" font-family="Helvetica,sans-Serif" font-size="10.00">ListOfStatProbes&lt; E</text>
<text text-anchor="middle" x="107" y="-7.5" font-family="Helvetica,sans-Serif" font-size="10.00"> extends StatProbe &gt;</text>
</g>
<!-- Node2 -->
<g id="node2" class="node"><title>Node2</title>
<polygon fill="none" stroke="#bfbfbf" points="0,-67.5 0,-86.5 60,-86.5 60,-67.5 0,-67.5"/>
<text text-anchor="middle" x="30" y="-74.5" font-family="Helvetica,sans-Serif" font-size="10.00">Cloneable</text>
</g>
<!-- Node2&#45;&gt;Node1 -->
<g id="edge1" class="edge"><title>Node2&#45;&gt;Node1</title>
<path fill="none" stroke="midnightblue" d="M49.1588,-61.1955C61.3009,-51.8129 76.9102,-39.7512 88.8526,-30.523"/>
<polygon fill="midnightblue" stroke="midnightblue" points="46.805,-58.5911 41.0322,-67.4751 51.0852,-64.1301 46.805,-58.5911"/>
</g>
<!-- Node3 -->
<g id="node3" class="node"><title>Node3</title>
<polygon fill="none" stroke="#bfbfbf" points="78.5,-67.5 78.5,-86.5 135.5,-86.5 135.5,-67.5 78.5,-67.5"/>
<text text-anchor="middle" x="107" y="-74.5" font-family="Helvetica,sans-Serif" font-size="10.00">List&lt; E &gt;</text>
</g>
<!-- Node3&#45;&gt;Node1 -->
<g id="edge2" class="edge"><title>Node3&#45;&gt;Node1</title>
<path fill="none" stroke="midnightblue" d="M107,-57.2349C107,-48.5864 107,-38.4969 107,-30.523"/>
<polygon fill="midnightblue" stroke="midnightblue" points="103.5,-57.4751 107,-67.4751 110.5,-57.4751 103.5,-57.4751"/>
</g>
<!-- Node4 -->
<g id="node4" class="node"><title>Node4</title>
<polygon fill="none" stroke="#bfbfbf" points="154,-67.5 154,-86.5 240,-86.5 240,-67.5 154,-67.5"/>
<text text-anchor="middle" x="197" y="-74.5" font-family="Helvetica,sans-Serif" font-size="10.00">RandomAccess</text>
</g>
<!-- Node4&#45;&gt;Node1 -->
<g id="edge3" class="edge"><title>Node4&#45;&gt;Node1</title>
<path fill="none" stroke="midnightblue" d="M175.429,-61.739C161.125,-52.2824 142.441,-39.9304 128.211,-30.523"/>
<polygon fill="midnightblue" stroke="midnightblue" points="173.833,-64.8798 184.105,-67.4751 177.694,-59.0405 173.833,-64.8798"/>
</g>
</g>
</svg>
