<?xml version="1.0" encoding="UTF-8" standalone="no"?>
<!DOCTYPE svg PUBLIC "-//W3C//DTD SVG 1.1//EN"
 "http://www.w3.org/Graphics/SVG/1.1/DTD/svg11.dtd">
<!-- Generated by graphviz version 2.38.0 (20140413.2041)
 -->
<!-- Title: ListWithStat&lt; E &gt; Pages: 1 -->
<svg width="141pt" height="151pt"
 viewBox="0.00 0.00 141.00 151.00" xmlns="http://www.w3.org/2000/svg" xmlns:xlink="http://www.w3.org/1999/xlink">
<g id="graph0" class="graph" transform="scale(1 1) rotate(0) translate(4 147)">
<title>ListWithStat&lt; E &gt;</title>
<!-- Node4 -->
<g id="node1" class="node"><title>Node4</title>
<polygon fill="#bfbfbf" stroke="black" points="19,-0.5 19,-19.5 114,-19.5 114,-0.5 19,-0.5"/>
<text text-anchor="middle" x="66.5" y="-7.5" font-family="Helvetica,sans-Serif" font-size="10.00">ListWithStat&lt; E &gt;</text>
</g>
<!-- Node5 -->
<g id="node2" class="node"><title>Node5</title>
<g id="a_node2"><a xlink:href="classumontreal_1_1ssj_1_1util_1_1TransformingList.html" target="_top" xlink:title="Represents a list that dynamically transforms the elements of another list. ">
<polygon fill="none" stroke="black" points="0,-56.5 0,-86.5 133,-86.5 133,-56.5 0,-56.5"/>
<text text-anchor="start" x="8" y="-74.5" font-family="Helvetica,sans-Serif" font-size="10.00">TransformingList&lt; E,</text>
<text text-anchor="middle" x="66.5" y="-63.5" font-family="Helvetica,sans-Serif" font-size="10.00"> ListWithStat.Node&lt; E &gt; &gt;</text>
</a>
</g>
</g>
<!-- Node5&#45;&gt;Node4 -->
<g id="edge1" class="edge"><title>Node5&#45;&gt;Node4</title>
<path fill="none" stroke="midnightblue" d="M66.5,-46.2892C66.5,-36.857 66.5,-26.6548 66.5,-19.6578"/>
<polygon fill="midnightblue" stroke="midnightblue" points="63.0001,-46.3993 66.5,-56.3993 70.0001,-46.3994 63.0001,-46.3993"/>
</g>
<!-- Node6 -->
<g id="node3" class="node"><title>Node6</title>
<polygon fill="none" stroke="#bfbfbf" points="16,-123.5 16,-142.5 117,-142.5 117,-123.5 16,-123.5"/>
<text text-anchor="middle" x="66.5" y="-130.5" font-family="Helvetica,sans-Serif" font-size="10.00">AbstractList&lt; OE &gt;</text>
</g>
<!-- Node6&#45;&gt;Node5 -->
<g id="edge2" class="edge"><title>Node6&#45;&gt;Node5</title>
<path fill="none" stroke="midnightblue" d="M66.5,-113.235C66.5,-104.586 66.5,-94.4969 66.5,-86.523"/>
<polygon fill="midnightblue" stroke="midnightblue" points="63.0001,-113.475 66.5,-123.475 70.0001,-113.475 63.0001,-113.475"/>
</g>
</g>
</svg>
