<?xml version="1.0" encoding="UTF-8" standalone="no"?>
<!DOCTYPE svg PUBLIC "-//W3C//DTD SVG 1.1//EN"
 "http://www.w3.org/Graphics/SVG/1.1/DTD/svg11.dtd">
<!-- Generated by graphviz version 2.26.3 (20100126.1600)
 -->
<!-- Title: InverseGaussianProcessBridge Pages: 1 -->
<svg width="294pt" height="300pt"
 viewBox="0.00 0.00 294.00 300.00" xmlns="http://www.w3.org/2000/svg" xmlns:xlink="http://www.w3.org/1999/xlink">
<g id="graph1" class="graph" transform="scale(1 1) rotate(0) translate(4 296)">
<title>InverseGaussianProcessBridge</title>
<!-- Node1 -->
<g id="node1" class="node"><title>Node1</title>
<polygon fill="#bfbfbf" stroke="black" points="81,-1 81,-21 235,-21 235,-1 81,-1"/>
<text text-anchor="middle" x="158" y="-8" font-family="Helvetica,sans-Serif" font-size="10.00">InverseGaussianProcessBridge</text>
</g>
<!-- Node2 -->
<g id="node2" class="node"><title>Node2</title>
<a xlink:href="classumontreal_1_1ssj_1_1stochprocess_1_1InverseGaussianProcessMSH.html" target="_top" xlink:title="Uses a faster generating method (MSH)   than the simple inversion of the distribution function used ...">
<polygon fill="none" stroke="black" points="84,-61 84,-81 232,-81 232,-61 84,-61"/>
<text text-anchor="middle" x="158" y="-68" font-family="Helvetica,sans-Serif" font-size="10.00">InverseGaussianProcessMSH</text>
</a>
</g>
<!-- Node2&#45;&gt;Node1 -->
<g id="edge2" class="edge"><title>Node2&#45;&gt;Node1</title>
<path fill="none" stroke="midnightblue" d="M158,-50.5155C158,-40.562 158,-29.0495 158,-21.0279"/>
<polygon fill="midnightblue" stroke="midnightblue" points="154.5,-50.8218 158,-60.8218 161.5,-50.8219 154.5,-50.8218"/>
</g>
<!-- Node3 -->
<g id="node4" class="node"><title>Node3</title>
<a xlink:href="classumontreal_1_1ssj_1_1stochprocess_1_1InverseGaussianProcess.html" target="_top" xlink:title="The inverse Gaussian process is a non&#45;decreasing process where the increments are additive and are gi...">
<polygon fill="none" stroke="black" points="4,-201 4,-221 130,-221 130,-201 4,-201"/>
<text text-anchor="middle" x="67" y="-208" font-family="Helvetica,sans-Serif" font-size="10.00">InverseGaussianProcess</text>
</a>
</g>
<!-- Node3&#45;&gt;Node2 -->
<g id="edge4" class="edge"><title>Node3&#45;&gt;Node2</title>
<path fill="none" stroke="midnightblue" d="M79.1726,-192.273C98.6082,-162.372 136.01,-104.83 151.269,-81.3549"/>
<polygon fill="midnightblue" stroke="midnightblue" points="76.0599,-190.64 73.5445,-200.932 81.929,-194.455 76.0599,-190.64"/>
</g>
<!-- Node4 -->
<g id="node6" class="node"><title>Node4</title>
<a xlink:href="classumontreal_1_1ssj_1_1stochprocess_1_1StochasticProcess.html" target="_top" xlink:title="Abstract base class for a stochastic process &#160;sampled (or observed) at a finite number of time points...">
<polygon fill="none" stroke="black" points="-0.5,-271 -0.5,-291 98.5,-291 98.5,-271 -0.5,-271"/>
<text text-anchor="middle" x="49" y="-278" font-family="Helvetica,sans-Serif" font-size="10.00">StochasticProcess</text>
</a>
</g>
<!-- Node4&#45;&gt;Node3 -->
<g id="edge6" class="edge"><title>Node4&#45;&gt;Node3</title>
<path fill="none" stroke="midnightblue" d="M54.1413,-261.006C57.5045,-247.927 61.7544,-231.399 64.4258,-221.011"/>
<polygon fill="midnightblue" stroke="midnightblue" points="50.6797,-260.414 51.579,-270.971 57.4592,-262.157 50.6797,-260.414"/>
</g>
<!-- Node5 -->
<g id="node8" class="node"><title>Node5</title>
<a xlink:href="interfaceumontreal_1_1ssj_1_1rng_1_1RandomStream.html" target="_top" xlink:title="This interface defines the basic structures to handle multiple streams of uniform (pseudo)random numb...">
<polygon fill="none" stroke="black" points="116,-271 116,-291 200,-291 200,-271 116,-271"/>
<text text-anchor="middle" x="158" y="-278" font-family="Helvetica,sans-Serif" font-size="10.00">RandomStream</text>
</a>
</g>
<!-- Node5&#45;&gt;Node2 -->
<g id="edge18" class="edge"><title>Node5&#45;&gt;Node2</title>
<path fill="none" stroke="#9a32cd" stroke-dasharray="5,2" d="M158,-260.812C158,-216.808 158,-113.591 158,-81.0271"/>
<polygon fill="#9a32cd" stroke="#9a32cd" points="154.5,-260.871 158,-270.871 161.5,-260.871 154.5,-260.871"/>
<text text-anchor="middle" x="186.5" y="-173" font-family="Helvetica,sans-Serif" font-size="10.00"> otherStream</text>
</g>
<!-- Node5&#45;&gt;Node3 -->
<g id="edge8" class="edge"><title>Node5&#45;&gt;Node3</title>
<path fill="none" stroke="#9a32cd" stroke-dasharray="5,2" d="M130.191,-265.605C123.394,-261.465 116.276,-256.796 110,-252 97.5426,-242.48 84.7192,-229.811 76.3561,-221.088"/>
<polygon fill="#9a32cd" stroke="#9a32cd" points="128.759,-268.823 139.151,-270.886 132.313,-262.793 128.759,-268.823"/>
<text text-anchor="middle" x="127" y="-243" font-family="Helvetica,sans-Serif" font-size="10.00"> stream</text>
</g>
<!-- Node7 -->
<g id="node12" class="node"><title>Node7</title>
<a xlink:href="classumontreal_1_1ssj_1_1randvar_1_1RandomVariateGen.html" target="_top" xlink:title="This is the base class for all random variate generators over the real line. ">
<polygon fill="none" stroke="black" points="185.5,-201 185.5,-221 286.5,-221 286.5,-201 185.5,-201"/>
<text text-anchor="middle" x="236" y="-208" font-family="Helvetica,sans-Serif" font-size="10.00">RandomVariateGen</text>
</a>
</g>
<!-- Node5&#45;&gt;Node7 -->
<g id="edge16" class="edge"><title>Node5&#45;&gt;Node7</title>
<path fill="none" stroke="#9a32cd" stroke-dasharray="5,2" d="M176.861,-264.074C191.862,-250.611 212.343,-232.231 224.845,-221.011"/>
<polygon fill="#9a32cd" stroke="#9a32cd" points="174.28,-261.687 169.175,-270.971 178.956,-266.896 174.28,-261.687"/>
<text text-anchor="middle" x="218" y="-243" font-family="Helvetica,sans-Serif" font-size="10.00"> stream</text>
</g>
<!-- Node6 -->
<g id="node10" class="node"><title>Node6</title>
<a xlink:href="classumontreal_1_1ssj_1_1randvar_1_1NormalGen.html" target="_top" xlink:title="This class implements methods for generating random variates from the normal distribution ...">
<polygon fill="none" stroke="black" points="192.5,-131 192.5,-151 257.5,-151 257.5,-131 192.5,-131"/>
<text text-anchor="middle" x="225" y="-138" font-family="Helvetica,sans-Serif" font-size="10.00">NormalGen</text>
</a>
</g>
<!-- Node6&#45;&gt;Node2 -->
<g id="edge10" class="edge"><title>Node6&#45;&gt;Node2</title>
<path fill="none" stroke="#9a32cd" stroke-dasharray="5,2" d="M208.44,-123.699C195.588,-110.271 178.221,-92.1267 167.582,-81.0107"/>
<polygon fill="#9a32cd" stroke="#9a32cd" points="205.957,-126.167 215.401,-130.971 211.014,-121.326 205.957,-126.167"/>
<text text-anchor="middle" x="220.5" y="-103" font-family="Helvetica,sans-Serif" font-size="10.00"> normalGen</text>
</g>
<!-- Node7&#45;&gt;Node6 -->
<g id="edge12" class="edge"><title>Node7&#45;&gt;Node6</title>
<path fill="none" stroke="midnightblue" d="M232.858,-191.006C230.803,-177.927 228.206,-161.399 226.573,-151.011"/>
<polygon fill="midnightblue" stroke="midnightblue" points="229.414,-191.635 234.424,-200.971 236.329,-190.549 229.414,-191.635"/>
</g>
<!-- Node8 -->
<g id="node14" class="node"><title>Node8</title>
<a xlink:href="interfaceumontreal_1_1ssj_1_1probdist_1_1Distribution.html" target="_top" xlink:title="This interface should be implemented by all classes supporting discrete and continuous distributions...">
<polygon fill="none" stroke="black" points="217.5,-271 217.5,-291 282.5,-291 282.5,-271 217.5,-271"/>
<text text-anchor="middle" x="250" y="-278" font-family="Helvetica,sans-Serif" font-size="10.00">Distribution</text>
</a>
</g>
<!-- Node8&#45;&gt;Node7 -->
<g id="edge14" class="edge"><title>Node8&#45;&gt;Node7</title>
<path fill="none" stroke="#9a32cd" stroke-dasharray="5,2" d="M246.001,-261.006C243.385,-247.927 240.08,-231.399 238.002,-221.011"/>
<polygon fill="#9a32cd" stroke="#9a32cd" points="242.601,-261.851 247.994,-270.971 249.465,-260.478 242.601,-261.851"/>
<text text-anchor="middle" x="252.5" y="-243" font-family="Helvetica,sans-Serif" font-size="10.00"> dist</text>
</g>
</g>
</svg>
