<?xml version="1.0" encoding="UTF-8" standalone="no"?>
<!DOCTYPE svg PUBLIC "-//W3C//DTD SVG 1.1//EN"
 "http://www.w3.org/Graphics/SVG/1.1/DTD/svg11.dtd">
<!-- Generated by graphviz version 2.38.0 (20140413.2041)
 -->
<!-- Title: Event Pages: 1 -->
<!--zoomable 484 -->
<svg id="main" version="1.1" xmlns="http://www.w3.org/2000/svg" xmlns:xlink="http://www.w3.org/1999/xlink" xml:space="preserve" onload="init(evt)">
<style type="text/css"><![CDATA[
.edge:hover path { stroke: red; }
.edge:hover polygon { stroke: red; fill: red; }
]]></style>
<script type="text/javascript"><![CDATA[
var edges = document.getElementsByTagName('g');
if (edges && edges.length) {
  for (var i=0;i<edges.length;i++) {
    if (edges[i].id.substr(0,4)=='edge') {
      edges[i].setAttribute('class','edge');
    }
  }
}
]]></script>
        <defs>
                <circle id="rim" cx="0" cy="0" r="7"/>
                <circle id="rim2" cx="0" cy="0" r="3.5"/>
                <g id="zoomPlus">
                        <use xlink:href="#rim" fill="#404040">
                                <set attributeName="fill" to="#808080" begin="zoomplus.mouseover" end="zoomplus.mouseout"/>
                        </use>
                        <path d="M-4,0h8M0,-4v8" fill="none" stroke="white" stroke-width="1.5" pointer-events="none"/>
                </g>
                <g id="zoomMin">
                        <use xlink:href="#rim" fill="#404040">
                                <set attributeName="fill" to="#808080" begin="zoomminus.mouseover" end="zoomminus.mouseout"/>
                        </use>
                        <path d="M-4,0h8" fill="none" stroke="white" stroke-width="1.5" pointer-events="none"/>
                </g>
                <g id="dirArrow">
                        <path fill="none" stroke="white" stroke-width="1.5" d="M0,-3.0v7 M-2.5,-0.5L0,-3.0L2.5,-0.5"/>
                </g>
               <g id="resetDef">
                       <use xlink:href="#rim2" fill="#404040">
                               <set attributeName="fill" to="#808080" begin="reset.mouseover" end="reset.mouseout"/>
                       </use>
               </g>
        </defs>

<script type="text/javascript">
var viewWidth = 396;
var viewHeight = 484;
var sectionId = 'dynsection-0';
</script>
<script xlink:href="svgpan.js"/>
<svg id="graph" class="graph">
<g id="viewport">
<title>Event</title>
<!-- Node1 -->
<g id="node1" class="node"><title>Node1</title>
<polygon fill="#bfbfbf" stroke="black" points="162,-228.5 162,-247.5 206,-247.5 206,-228.5 162,-228.5"/>
<text text-anchor="middle" x="184" y="-235.5" font-family="Helvetica,sans-Serif" font-size="10.00">Event</text>
</g>
<!-- Node3 -->
<g id="node3" class="node"><title>Node3</title>
<g id="a_node3"><a xlink:href="classBankEv_1_1Arrival.html" target="_top" xlink:title="BankEv.Arrival">
<polygon fill="none" stroke="black" points="270.5,-456.5 270.5,-475.5 359.5,-475.5 359.5,-456.5 270.5,-456.5"/>
<text text-anchor="middle" x="315" y="-463.5" font-family="Helvetica,sans-Serif" font-size="10.00">BankEv.Arrival</text>
</a>
</g>
</g>
<!-- Node1&#45;&gt;Node3 -->
<g id="edge2" class="edge"><title>Node1&#45;&gt;Node3</title>
<path fill="none" stroke="midnightblue" d="M184.307,-257.598C183.974,-298.761 189.277,-394.71 242,-447 249.619,-454.556 259.865,-459.21 270.236,-462.049"/>
<polygon fill="midnightblue" stroke="midnightblue" points="187.807,-257.593 184.515,-247.523 180.809,-257.449 187.807,-257.593"/>
</g>
<!-- Node4 -->
<g id="node4" class="node"><title>Node4</title>
<g id="a_node4"><a xlink:href="classBankEv_1_1Departure.html" target="_top" xlink:title="BankEv.Departure">
<polygon fill="none" stroke="black" points="262.5,-418.5 262.5,-437.5 367.5,-437.5 367.5,-418.5 262.5,-418.5"/>
<text text-anchor="middle" x="315" y="-425.5" font-family="Helvetica,sans-Serif" font-size="10.00">BankEv.Departure</text>
</a>
</g>
</g>
<!-- Node1&#45;&gt;Node4 -->
<g id="edge3" class="edge"><title>Node1&#45;&gt;Node4</title>
<path fill="none" stroke="midnightblue" d="M185.751,-257.903C188.201,-293.52 198.549,-368.234 242,-409 247.751,-414.396 254.849,-418.299 262.327,-421.114"/>
<polygon fill="midnightblue" stroke="midnightblue" points="189.24,-257.601 185.201,-247.806 182.25,-257.981 189.24,-257.601"/>
</g>
<!-- Node5 -->
<g id="node5" class="node"><title>Node5</title>
<g id="a_node5"><a xlink:href="classCallCenter_1_1Arrival.html" target="_top" xlink:title="CallCenter.Arrival">
<polygon fill="none" stroke="black" points="263.5,-380.5 263.5,-399.5 366.5,-399.5 366.5,-380.5 263.5,-380.5"/>
<text text-anchor="middle" x="315" y="-387.5" font-family="Helvetica,sans-Serif" font-size="10.00">CallCenter.Arrival</text>
</a>
</g>
</g>
<!-- Node1&#45;&gt;Node5 -->
<g id="edge4" class="edge"><title>Node1&#45;&gt;Node5</title>
<path fill="none" stroke="midnightblue" d="M187.948,-257.92C193.339,-287.122 207.58,-341.298 242,-371 248.166,-376.321 255.658,-380.174 263.449,-382.959"/>
<polygon fill="midnightblue" stroke="midnightblue" points="191.345,-257.012 186.243,-247.726 184.441,-258.167 191.345,-257.012"/>
</g>
<!-- Node6 -->
<g id="node6" class="node"><title>Node6</title>
<g id="a_node6"><a xlink:href="classCallCenter_1_1CallCompletion.html" target="_top" xlink:title="CallCenter.CallCompletion">
<polygon fill="none" stroke="black" points="242,-342.5 242,-361.5 388,-361.5 388,-342.5 242,-342.5"/>
<text text-anchor="middle" x="315" y="-349.5" font-family="Helvetica,sans-Serif" font-size="10.00">CallCenter.CallCompletion</text>
</a>
</g>
</g>
<!-- Node1&#45;&gt;Node6 -->
<g id="edge5" class="edge"><title>Node1&#45;&gt;Node6</title>
<path fill="none" stroke="midnightblue" d="M191.479,-257.243C199.772,-278.92 216.228,-313.643 242,-333 247.168,-336.882 253.065,-339.972 259.207,-342.432"/>
<polygon fill="midnightblue" stroke="midnightblue" points="194.748,-255.991 188.058,-247.774 188.164,-258.369 194.748,-255.991"/>
</g>
<!-- Node7 -->
<g id="node7" class="node"><title>Node7</title>
<g id="a_node7"><a xlink:href="classCallCenter_1_1NextPeriod.html" target="_top" xlink:title="CallCenter.NextPeriod">
<polygon fill="none" stroke="black" points="252.5,-304.5 252.5,-323.5 377.5,-323.5 377.5,-304.5 252.5,-304.5"/>
<text text-anchor="middle" x="315" y="-311.5" font-family="Helvetica,sans-Serif" font-size="10.00">CallCenter.NextPeriod</text>
</a>
</g>
</g>
<!-- Node1&#45;&gt;Node7 -->
<g id="edge6" class="edge"><title>Node1&#45;&gt;Node7</title>
<path fill="none" stroke="midnightblue" d="M198.372,-255.684C208.897,-268.41 224.65,-285.027 242,-295 248.725,-298.866 256.253,-301.963 263.837,-304.44"/>
<polygon fill="midnightblue" stroke="midnightblue" points="200.927,-253.274 191.964,-247.624 195.448,-257.63 200.927,-253.274"/>
</g>
<!-- Node8 -->
<g id="node8" class="node"><title>Node8</title>
<g id="a_node8"><a xlink:href="classCallEv_1_1Arrival.html" target="_top" xlink:title="CallEv.Arrival">
<polygon fill="none" stroke="black" points="273.5,-266.5 273.5,-285.5 356.5,-285.5 356.5,-266.5 273.5,-266.5"/>
<text text-anchor="middle" x="315" y="-273.5" font-family="Helvetica,sans-Serif" font-size="10.00">CallEv.Arrival</text>
</a>
</g>
</g>
<!-- Node1&#45;&gt;Node8 -->
<g id="edge7" class="edge"><title>Node1&#45;&gt;Node8</title>
<path fill="none" stroke="midnightblue" d="M215.577,-248.591C224.096,-251.433 233.379,-254.428 242,-257 253.026,-260.289 265.087,-263.587 276.132,-266.491"/>
<polygon fill="midnightblue" stroke="midnightblue" points="216.607,-245.245 206.012,-245.36 214.366,-251.876 216.607,-245.245"/>
</g>
<!-- Node9 -->
<g id="node9" class="node"><title>Node9</title>
<g id="a_node9"><a xlink:href="classCallEv_1_1CallCompletion.html" target="_top" xlink:title="CallEv.CallCompletion">
<polygon fill="none" stroke="black" points="252.5,-228.5 252.5,-247.5 377.5,-247.5 377.5,-228.5 252.5,-228.5"/>
<text text-anchor="middle" x="315" y="-235.5" font-family="Helvetica,sans-Serif" font-size="10.00">CallEv.CallCompletion</text>
</a>
</g>
</g>
<!-- Node1&#45;&gt;Node9 -->
<g id="edge8" class="edge"><title>Node1&#45;&gt;Node9</title>
<path fill="none" stroke="midnightblue" d="M216.265,-238C227.167,-238 239.813,-238 252.317,-238"/>
<polygon fill="midnightblue" stroke="midnightblue" points="216.013,-234.5 206.013,-238 216.013,-241.5 216.013,-234.5"/>
</g>
<!-- Node10 -->
<g id="node10" class="node"><title>Node10</title>
<g id="a_node10"><a xlink:href="classCallEv_1_1NextPeriod.html" target="_top" xlink:title="CallEv.NextPeriod">
<polygon fill="none" stroke="black" points="263,-190.5 263,-209.5 367,-209.5 367,-190.5 263,-190.5"/>
<text text-anchor="middle" x="315" y="-197.5" font-family="Helvetica,sans-Serif" font-size="10.00">CallEv.NextPeriod</text>
</a>
</g>
</g>
<!-- Node1&#45;&gt;Node10 -->
<g id="edge9" class="edge"><title>Node1&#45;&gt;Node10</title>
<path fill="none" stroke="midnightblue" d="M215.577,-227.409C224.096,-224.567 233.379,-221.572 242,-219 253.026,-215.711 265.087,-212.413 276.132,-209.509"/>
<polygon fill="midnightblue" stroke="midnightblue" points="214.366,-224.124 206.012,-230.64 216.607,-230.755 214.366,-224.124"/>
</g>
<!-- Node11 -->
<g id="node11" class="node"><title>Node11</title>
<g id="a_node11"><a xlink:href="classPreyPred_1_1EndOfSim.html" target="_top" xlink:title="PreyPred.EndOfSim">
<polygon fill="none" stroke="black" points="259.5,-152.5 259.5,-171.5 370.5,-171.5 370.5,-152.5 259.5,-152.5"/>
<text text-anchor="middle" x="315" y="-159.5" font-family="Helvetica,sans-Serif" font-size="10.00">PreyPred.EndOfSim</text>
</a>
</g>
</g>
<!-- Node1&#45;&gt;Node11 -->
<g id="edge10" class="edge"><title>Node1&#45;&gt;Node11</title>
<path fill="none" stroke="midnightblue" d="M198.372,-220.316C208.897,-207.59 224.65,-190.973 242,-181 248.725,-177.134 256.253,-174.037 263.837,-171.56"/>
<polygon fill="midnightblue" stroke="midnightblue" points="195.448,-218.37 191.964,-228.376 200.927,-222.726 195.448,-218.37"/>
</g>
<!-- Node12 -->
<g id="node12" class="node"><title>Node12</title>
<g id="a_node12"><a xlink:href="classPreyPred_1_1PrintPoint.html" target="_top" xlink:title="PreyPred.PrintPoint">
<polygon fill="none" stroke="black" points="260,-114.5 260,-133.5 370,-133.5 370,-114.5 260,-114.5"/>
<text text-anchor="middle" x="315" y="-121.5" font-family="Helvetica,sans-Serif" font-size="10.00">PreyPred.PrintPoint</text>
</a>
</g>
</g>
<!-- Node1&#45;&gt;Node12 -->
<g id="edge11" class="edge"><title>Node1&#45;&gt;Node12</title>
<path fill="none" stroke="midnightblue" d="M191.479,-218.757C199.772,-197.08 216.228,-162.357 242,-143 247.375,-138.963 253.537,-135.782 259.945,-133.276"/>
<polygon fill="midnightblue" stroke="midnightblue" points="188.164,-217.631 188.058,-228.226 194.748,-220.009 188.164,-217.631"/>
</g>
<!-- Node13 -->
<g id="node13" class="node"><title>Node13</title>
<g id="a_node13"><a xlink:href="classQueueEv_1_1Arrival.html" target="_top" xlink:title="QueueEv.Arrival">
<polygon fill="none" stroke="black" points="267.5,-76.5 267.5,-95.5 362.5,-95.5 362.5,-76.5 267.5,-76.5"/>
<text text-anchor="middle" x="315" y="-83.5" font-family="Helvetica,sans-Serif" font-size="10.00">QueueEv.Arrival</text>
</a>
</g>
</g>
<!-- Node1&#45;&gt;Node13 -->
<g id="edge12" class="edge"><title>Node1&#45;&gt;Node13</title>
<path fill="none" stroke="midnightblue" d="M187.948,-218.08C193.339,-188.878 207.58,-134.702 242,-105 249.145,-98.8344 258.07,-94.6402 267.178,-91.7943"/>
<polygon fill="midnightblue" stroke="midnightblue" points="184.441,-217.833 186.243,-228.274 191.345,-218.988 184.441,-217.833"/>
</g>
<!-- Node14 -->
<g id="node14" class="node"><title>Node14</title>
<g id="a_node14"><a xlink:href="classQueueEv_1_1Departure.html" target="_top" xlink:title="QueueEv.Departure">
<polygon fill="none" stroke="black" points="259,-38.5 259,-57.5 371,-57.5 371,-38.5 259,-38.5"/>
<text text-anchor="middle" x="315" y="-45.5" font-family="Helvetica,sans-Serif" font-size="10.00">QueueEv.Departure</text>
</a>
</g>
</g>
<!-- Node1&#45;&gt;Node14 -->
<g id="edge13" class="edge"><title>Node1&#45;&gt;Node14</title>
<path fill="none" stroke="midnightblue" d="M185.751,-218.097C188.201,-182.48 198.549,-107.766 242,-67 246.808,-62.4888 252.558,-59.021 258.684,-56.3598"/>
<polygon fill="midnightblue" stroke="midnightblue" points="182.25,-218.019 185.201,-228.194 189.24,-218.399 182.25,-218.019"/>
</g>
<!-- Node15 -->
<g id="node15" class="node"><title>Node15</title>
<g id="a_node15"><a xlink:href="classQueueEv_1_1EndOfSim.html" target="_top" xlink:title="QueueEv.EndOfSim">
<polygon fill="none" stroke="black" points="259.5,-0.5 259.5,-19.5 370.5,-19.5 370.5,-0.5 259.5,-0.5"/>
<text text-anchor="middle" x="315" y="-7.5" font-family="Helvetica,sans-Serif" font-size="10.00">QueueEv.EndOfSim</text>
</a>
</g>
</g>
<!-- Node1&#45;&gt;Node15 -->
<g id="edge14" class="edge"><title>Node1&#45;&gt;Node15</title>
<path fill="none" stroke="midnightblue" d="M184.307,-218.402C183.974,-177.239 189.277,-81.2901 242,-29 246.865,-24.1751 252.801,-20.5336 259.157,-17.7923"/>
<polygon fill="midnightblue" stroke="midnightblue" points="180.809,-218.551 184.515,-228.477 187.807,-218.407 180.809,-218.551"/>
</g>
<!-- Node2 -->
<g id="node2" class="node"><title>Node2</title>
<polygon fill="none" stroke="#bfbfbf" points="0,-228.5 0,-247.5 126,-247.5 126,-228.5 0,-228.5"/>
<text text-anchor="middle" x="63" y="-235.5" font-family="Helvetica,sans-Serif" font-size="10.00">Comparable&lt; Event &gt;</text>
</g>
<!-- Node2&#45;&gt;Node1 -->
<g id="edge1" class="edge"><title>Node2&#45;&gt;Node1</title>
<path fill="none" stroke="midnightblue" d="M136.424,-238C145.648,-238 154.438,-238 161.845,-238"/>
<polygon fill="midnightblue" stroke="midnightblue" points="136.288,-234.5 126.288,-238 136.288,-241.5 136.288,-234.5"/>
</g>
</g>
</svg>
        <g id="navigator" transform="translate(0 0)" fill="#404254">
                <rect fill="#f2f5e9" fill-opacity="0.5" stroke="#606060" stroke-width=".5" x="0" y="0" width="60" height="60"/>
                <use id="zoomplus" xlink:href="#zoomPlus" x="17" y="9" onmousedown="handleZoom(evt,'in')"/>
                <use id="zoomminus" xlink:href="#zoomMin" x="42" y="9" onmousedown="handleZoom(evt,'out')"/>
                <use id="reset" xlink:href="#resetDef" x="30" y="36" onmousedown="handleReset()"/>
                <g id="arrowUp" xlink:href="#dirArrow" transform="translate(30 24)" onmousedown="handlePan(0,-1)">
                  <use xlink:href="#rim" fill="#404040">
                        <set attributeName="fill" to="#808080" begin="arrowUp.mouseover" end="arrowUp.mouseout"/>
                  </use>
                  <path fill="none" stroke="white" stroke-width="1.5" d="M0,-3.0v7 M-2.5,-0.5L0,-3.0L2.5,-0.5"/>
                </g>
                <g id="arrowRight" xlink:href="#dirArrow" transform="rotate(90) translate(36 -43)" onmousedown="handlePan(1,0)">
                  <use xlink:href="#rim" fill="#404040">
                        <set attributeName="fill" to="#808080" begin="arrowRight.mouseover" end="arrowRight.mouseout"/>
                  </use>
                  <path fill="none" stroke="white" stroke-width="1.5" d="M0,-3.0v7 M-2.5,-0.5L0,-3.0L2.5,-0.5"/>
                </g>
                <g id="arrowDown" xlink:href="#dirArrow" transform="rotate(180) translate(-30 -48)" onmousedown="handlePan(0,1)">
                  <use xlink:href="#rim" fill="#404040">
                        <set attributeName="fill" to="#808080" begin="arrowDown.mouseover" end="arrowDown.mouseout"/>
                  </use>
                  <path fill="none" stroke="white" stroke-width="1.5" d="M0,-3.0v7 M-2.5,-0.5L0,-3.0L2.5,-0.5"/>
                </g>
                <g id="arrowLeft" xlink:href="#dirArrow" transform="rotate(270) translate(-36 17)" onmousedown="handlePan(-1,0)">
                  <use xlink:href="#rim" fill="#404040">
                        <set attributeName="fill" to="#808080" begin="arrowLeft.mouseover" end="arrowLeft.mouseout"/>
                  </use>
                  <path fill="none" stroke="white" stroke-width="1.5" d="M0,-3.0v7 M-2.5,-0.5L0,-3.0L2.5,-0.5"/>
                </g>
        </g>
        <svg viewBox="0 0 15 15" width="100%" height="30px" preserveAspectRatio="xMaxYMin meet">
         <g id="arrow_out" transform="scale(0.3 0.3)">
          <a xlink:href="classumontreal_1_1ssj_1_1simevents_1_1Event__inherit__graph_org.svg" target="_base">
           <rect id="button" ry="5" rx="5" y="6" x="6" height="38" width="38"
                fill="#f2f5e9" fill-opacity="0.5" stroke="#606060" stroke-width="1.0"/>
           <path id="arrow"
             d="M 11.500037,31.436501 C 11.940474,20.09759 22.043105,11.32322 32.158766,21.979434 L 37.068811,17.246167 C 37.068811,17.246167 37.088388,32 37.088388,32 L 22.160133,31.978069 C 22.160133,31.978069 26.997745,27.140456 26.997745,27.140456 C 18.528582,18.264221 13.291696,25.230495 11.500037,31.436501 z"
             style="fill:#404040;"/>
          </a>
         </g>
        </svg>
</svg>
