<?xml version="1.0" encoding="UTF-8" standalone="no"?>
<!DOCTYPE svg PUBLIC "-//W3C//DTD SVG 1.1//EN"
 "http://www.w3.org/Graphics/SVG/1.1/DTD/svg11.dtd">
<!-- Generated by graphviz version 2.38.0 (20140413.2041)
 -->
<!-- Title: SmoothingCubicSpline Pages: 1 -->
<svg width="464pt" height="125pt"
 viewBox="0.00 0.00 464.00 125.36" xmlns="http://www.w3.org/2000/svg" xmlns:xlink="http://www.w3.org/1999/xlink">
<g id="graph0" class="graph" transform="scale(1 1) rotate(0) translate(4 121.358)">
<title>SmoothingCubicSpline</title>
<!-- Node1 -->
<g id="node1" class="node"><title>Node1</title>
<polygon fill="#bfbfbf" stroke="black" points="330,-57.5 330,-76.5 456,-76.5 456,-57.5 330,-57.5"/>
<text text-anchor="middle" x="393" y="-64.5" font-family="Helvetica,sans-Serif" font-size="10.00">SmoothingCubicSpline</text>
</g>
<!-- Node2 -->
<g id="node2" class="node"><title>Node2</title>
<g id="a_node2"><a xlink:href="interfaceumontreal_1_1ssj_1_1functions_1_1MathFunction.html" target="_top" xlink:title="This interface should be implemented by classes which represent univariate mathematical functions...">
<polygon fill="none" stroke="black" points="0,-57.5 0,-76.5 82,-76.5 82,-57.5 0,-57.5"/>
<text text-anchor="middle" x="41" y="-64.5" font-family="Helvetica,sans-Serif" font-size="10.00">MathFunction</text>
</a>
</g>
</g>
<!-- Node2&#45;&gt;Node1 -->
<g id="edge1" class="edge"><title>Node2&#45;&gt;Node1</title>
<path fill="none" stroke="midnightblue" d="M64.8569,-81.947C79.4138,-90.5523 99.0384,-100.524 118,-105 194.13,-122.972 217.112,-119.385 294,-105 322.878,-99.5971 354.195,-85.9602 373.46,-76.583"/>
<polygon fill="midnightblue" stroke="midnightblue" points="66.4344,-78.8085 56.0807,-76.5608 62.7728,-84.7746 66.4344,-78.8085"/>
</g>
<!-- Node3 -->
<g id="node3" class="node"><title>Node3</title>
<g id="a_node3"><a xlink:href="interfaceumontreal_1_1ssj_1_1functions_1_1MathFunctionWithFirstDerivative.html" target="_top" xlink:title="Represents a mathematical function whose derivative can be computed using derivative(double). ">
<polygon fill="none" stroke="black" points="118,-76.5 118,-95.5 294,-95.5 294,-76.5 118,-76.5"/>
<text text-anchor="middle" x="206" y="-83.5" font-family="Helvetica,sans-Serif" font-size="10.00">MathFunctionWithFirstDerivative</text>
</a>
</g>
</g>
<!-- Node2&#45;&gt;Node3 -->
<g id="edge3" class="edge"><title>Node2&#45;&gt;Node3</title>
<path fill="none" stroke="midnightblue" d="M92.3119,-72.8646C102.207,-74.018 112.824,-75.2555 123.442,-76.4933"/>
<polygon fill="midnightblue" stroke="midnightblue" points="92.6302,-69.3781 82.2921,-71.6966 91.8196,-76.331 92.6302,-69.3781"/>
</g>
<!-- Node4 -->
<g id="node4" class="node"><title>Node4</title>
<g id="a_node4"><a xlink:href="interfaceumontreal_1_1ssj_1_1functions_1_1MathFunctionWithDerivative.html" target="_top" xlink:title="Represents a mathematical function whose th derivative can be computed using derivative(double,int). ">
<polygon fill="none" stroke="black" points="128.5,-38.5 128.5,-57.5 283.5,-57.5 283.5,-38.5 128.5,-38.5"/>
<text text-anchor="middle" x="206" y="-45.5" font-family="Helvetica,sans-Serif" font-size="10.00">MathFunctionWithDerivative</text>
</a>
</g>
</g>
<!-- Node2&#45;&gt;Node4 -->
<g id="edge5" class="edge"><title>Node2&#45;&gt;Node4</title>
<path fill="none" stroke="midnightblue" d="M92.4317,-61.1215C103.797,-59.7967 116.11,-58.3614 128.28,-56.9428"/>
<polygon fill="midnightblue" stroke="midnightblue" points="91.8196,-57.669 82.2921,-62.3034 92.6302,-64.6219 91.8196,-57.669"/>
</g>
<!-- Node5 -->
<g id="node5" class="node"><title>Node5</title>
<g id="a_node5"><a xlink:href="interfaceumontreal_1_1ssj_1_1functions_1_1MathFunctionWithIntegral.html" target="_top" xlink:title="Represents a mathematical function whose integral can be computed by the integral(double,double) method. ">
<polygon fill="none" stroke="black" points="135,-0.5 135,-19.5 277,-19.5 277,-0.5 135,-0.5"/>
<text text-anchor="middle" x="206" y="-7.5" font-family="Helvetica,sans-Serif" font-size="10.00">MathFunctionWithIntegral</text>
</a>
</g>
</g>
<!-- Node2&#45;&gt;Node5 -->
<g id="edge7" class="edge"><title>Node2&#45;&gt;Node5</title>
<path fill="none" stroke="midnightblue" d="M66.9367,-52.5554C81.4471,-44.6589 100.313,-35.2433 118,-29 128.497,-25.2949 139.971,-22.1709 151.042,-19.5944"/>
<polygon fill="midnightblue" stroke="midnightblue" points="65.1253,-49.5579 58.0864,-57.4766 68.5271,-55.6757 65.1253,-49.5579"/>
</g>
<!-- Node3&#45;&gt;Node1 -->
<g id="edge2" class="edge"><title>Node3&#45;&gt;Node1</title>
<path fill="none" stroke="midnightblue" d="M304.294,-76.0076C312.987,-75.1149 321.622,-74.228 329.893,-73.3785"/>
<polygon fill="midnightblue" stroke="midnightblue" points="303.673,-72.5529 294.083,-77.0564 304.388,-79.5163 303.673,-72.5529"/>
</g>
<!-- Node4&#45;&gt;Node1 -->
<g id="edge4" class="edge"><title>Node4&#45;&gt;Node1</title>
<path fill="none" stroke="midnightblue" d="M293.762,-56.9107C305.94,-58.1614 318.251,-59.4258 329.847,-60.6168"/>
<polygon fill="midnightblue" stroke="midnightblue" points="293.887,-53.4052 283.582,-55.8652 293.172,-60.3686 293.887,-53.4052"/>
</g>
<!-- Node5&#45;&gt;Node1 -->
<g id="edge6" class="edge"><title>Node5&#45;&gt;Node1</title>
<path fill="none" stroke="midnightblue" d="M266.867,-21.7933C276.016,-23.9639 285.303,-26.3813 294,-29 320.734,-37.0495 350.518,-49.0507 370.156,-57.4048"/>
<polygon fill="midnightblue" stroke="midnightblue" points="267.558,-18.361 257.029,-19.537 265.993,-25.1839 267.558,-18.361"/>
</g>
</g>
</svg>
