<?xml version="1.0" encoding="UTF-8" standalone="no"?>
<!DOCTYPE svg PUBLIC "-//W3C//DTD SVG 1.1//EN"
 "http://www.w3.org/Graphics/SVG/1.1/DTD/svg11.dtd">
<!-- Generated by graphviz version 2.26.3 (20100126.1600)
 -->
<!-- Title: QueueEv Pages: 1 -->
<svg width="533pt" height="182pt"
 viewBox="0.00 0.00 533.00 182.00" xmlns="http://www.w3.org/2000/svg" xmlns:xlink="http://www.w3.org/1999/xlink">
<g id="graph1" class="graph" transform="scale(1 1) rotate(0) translate(4 178)">
<title>QueueEv</title>
<!-- Node1 -->
<g id="node1" class="node"><title>Node1</title>
<polygon fill="#bfbfbf" stroke="black" points="261.5,-1 261.5,-21 318.5,-21 318.5,-1 261.5,-1"/>
<text text-anchor="middle" x="290" y="-8" font-family="Helvetica,sans-Serif" font-size="10.00">QueueEv</text>
</g>
<!-- Node2 -->
<g id="node2" class="node"><title>Node2</title>
<a xlink:href="classumontreal_1_1ssj_1_1randvar_1_1RandomVariateGen.html" target="_top" xlink:title="This is the base class for all random variate generators over the real line. ">
<polygon fill="none" stroke="black" points="37.5,-83 37.5,-103 138.5,-103 138.5,-83 37.5,-83"/>
<text text-anchor="middle" x="88" y="-90" font-family="Helvetica,sans-Serif" font-size="10.00">RandomVariateGen</text>
</a>
</g>
<!-- Node2&#45;&gt;Node1 -->
<g id="edge2" class="edge"><title>Node2&#45;&gt;Node1</title>
<path fill="none" stroke="#9a32cd" stroke-dasharray="5,2" d="M112.895,-77.7138C132.489,-66.1708 160.774,-50.5661 187,-40 211.468,-30.1421 240.483,-22.2976 261.472,-17.266"/>
<polygon fill="#9a32cd" stroke="#9a32cd" points="111.074,-74.7246 104.283,-82.8563 114.663,-80.7347 111.074,-74.7246"/>
<text text-anchor="middle" x="205.5" y="-55" font-family="Helvetica,sans-Serif" font-size="10.00"> genArr</text>
<text text-anchor="middle" x="205.5" y="-43" font-family="Helvetica,sans-Serif" font-size="10.00">genServ</text>
</g>
<!-- Node3 -->
<g id="node4" class="node"><title>Node3</title>
<a xlink:href="interfaceumontreal_1_1ssj_1_1probdist_1_1Distribution.html" target="_top" xlink:title="This interface should be implemented by all classes supporting discrete and continuous distributions...">
<polygon fill="none" stroke="black" points="101.5,-153 101.5,-173 166.5,-173 166.5,-153 101.5,-153"/>
<text text-anchor="middle" x="134" y="-160" font-family="Helvetica,sans-Serif" font-size="10.00">Distribution</text>
</a>
</g>
<!-- Node3&#45;&gt;Node2 -->
<g id="edge4" class="edge"><title>Node3&#45;&gt;Node2</title>
<path fill="none" stroke="#9a32cd" stroke-dasharray="5,2" d="M121.881,-144.558C113.142,-131.259 101.678,-113.815 94.5785,-103.011"/>
<polygon fill="#9a32cd" stroke="#9a32cd" points="118.993,-146.536 127.409,-152.971 124.842,-142.691 118.993,-146.536"/>
<text text-anchor="middle" x="123.5" y="-125" font-family="Helvetica,sans-Serif" font-size="10.00"> dist</text>
</g>
<!-- Node4 -->
<g id="node6" class="node"><title>Node4</title>
<a xlink:href="interfaceumontreal_1_1ssj_1_1rng_1_1RandomStream.html" target="_top" xlink:title="This interface defines the basic structures to handle multiple streams of uniform (pseudo)random numb...">
<polygon fill="none" stroke="black" points="0,-153 0,-173 84,-173 84,-153 0,-153"/>
<text text-anchor="middle" x="42" y="-160" font-family="Helvetica,sans-Serif" font-size="10.00">RandomStream</text>
</a>
</g>
<!-- Node4&#45;&gt;Node2 -->
<g id="edge6" class="edge"><title>Node4&#45;&gt;Node2</title>
<path fill="none" stroke="#9a32cd" stroke-dasharray="5,2" d="M54.1189,-144.558C62.8584,-131.259 74.3216,-113.815 81.4215,-103.011"/>
<polygon fill="#9a32cd" stroke="#9a32cd" points="51.1575,-142.691 48.5907,-152.971 57.0075,-146.536 51.1575,-142.691"/>
<text text-anchor="middle" x="85" y="-125" font-family="Helvetica,sans-Serif" font-size="10.00"> stream</text>
</g>
<!-- Node5 -->
<g id="node8" class="node"><title>Node5</title>
<a xlink:href="classumontreal_1_1ssj_1_1stat_1_1Tally.html" target="_top" xlink:title="A subclass of StatProbe. ">
<polygon fill="none" stroke="black" points="423.5,-83 423.5,-103 460.5,-103 460.5,-83 423.5,-83"/>
<text text-anchor="middle" x="442" y="-90" font-family="Helvetica,sans-Serif" font-size="10.00">Tally</text>
</a>
</g>
<!-- Node5&#45;&gt;Node1 -->
<g id="edge8" class="edge"><title>Node5&#45;&gt;Node1</title>
<path fill="none" stroke="#9a32cd" stroke-dasharray="5,2" d="M417.339,-77.6226C399.451,-66.6807 374.542,-51.875 352,-40 339.279,-33.2983 324.732,-26.4531 312.927,-21.0972"/>
<polygon fill="#9a32cd" stroke="#9a32cd" points="415.652,-80.6945 426.003,-82.9564 419.322,-74.7335 415.652,-80.6945"/>
<text text-anchor="middle" x="417.5" y="-49" font-family="Helvetica,sans-Serif" font-size="10.00"> custWaits</text>
</g>
<!-- Node6 -->
<g id="node10" class="node"><title>Node6</title>
<a xlink:href="classumontreal_1_1ssj_1_1stat_1_1StatProbe.html" target="_top" xlink:title="The objects of this class are statistical probes or collectors, which are elementary devices for coll...">
<polygon fill="none" stroke="black" points="317,-153 317,-173 377,-173 377,-153 317,-153"/>
<text text-anchor="middle" x="347" y="-160" font-family="Helvetica,sans-Serif" font-size="10.00">StatProbe</text>
</a>
</g>
<!-- Node6&#45;&gt;Node5 -->
<g id="edge10" class="edge"><title>Node6&#45;&gt;Node5</title>
<path fill="none" stroke="midnightblue" d="M368.963,-146.817C387.315,-133.294 412.905,-114.438 428.414,-103.011"/>
<polygon fill="midnightblue" stroke="midnightblue" points="366.586,-144.221 360.611,-152.971 370.738,-149.856 366.586,-144.221"/>
</g>
<!-- Node10 -->
<g id="node18" class="node"><title>Node10</title>
<a xlink:href="classumontreal_1_1ssj_1_1simevents_1_1Accumulate.html" target="_top" xlink:title="A subclass of umontreal.ssj.stat.StatProbe, for collecting statistics on a variable that evolves in s...">
<polygon fill="none" stroke="black" points="156,-83 156,-103 224,-103 224,-83 156,-83"/>
<text text-anchor="middle" x="190" y="-90" font-family="Helvetica,sans-Serif" font-size="10.00">Accumulate</text>
</a>
</g>
<!-- Node6&#45;&gt;Node10 -->
<g id="edge20" class="edge"><title>Node6&#45;&gt;Node10</title>
<path fill="none" stroke="midnightblue" d="M315.159,-148.803C284.644,-135.198 239.365,-115.01 212.453,-103.011"/>
<polygon fill="midnightblue" stroke="midnightblue" points="313.947,-152.095 324.506,-152.971 316.798,-145.702 313.947,-152.095"/>
</g>
<!-- Node7 -->
<g id="node12" class="node"><title>Node7</title>
<polygon fill="none" stroke="#bfbfbf" points="215.5,-153 215.5,-173 274.5,-173 274.5,-153 215.5,-153"/>
<text text-anchor="middle" x="245" y="-160" font-family="Helvetica,sans-Serif" font-size="10.00">Cloneable</text>
</g>
<!-- Node7&#45;&gt;Node5 -->
<g id="edge12" class="edge"><title>Node7&#45;&gt;Node5</title>
<path fill="none" stroke="midnightblue" d="M284.376,-149.991C318.968,-138.407 370.567,-120.748 415,-104 417.747,-102.965 420.635,-101.834 423.46,-100.704"/>
<polygon fill="midnightblue" stroke="midnightblue" points="283.03,-146.751 274.653,-153.238 285.247,-153.391 283.03,-146.751"/>
</g>
<!-- Node7&#45;&gt;Node10 -->
<g id="edge22" class="edge"><title>Node7&#45;&gt;Node10</title>
<path fill="none" stroke="midnightblue" d="M230.811,-144.941C220.325,-131.595 206.436,-113.919 197.866,-103.011"/>
<polygon fill="midnightblue" stroke="midnightblue" points="228.189,-147.27 237.12,-152.971 233.694,-142.945 228.189,-147.27"/>
</g>
<!-- Node8 -->
<g id="node14" class="node"><title>Node8</title>
<polygon fill="none" stroke="#bfbfbf" points="407,-153 407,-173 477,-173 477,-153 407,-153"/>
<text text-anchor="middle" x="442" y="-160" font-family="Helvetica,sans-Serif" font-size="10.00">Tally.CIType</text>
</g>
<!-- Node8&#45;&gt;Node5 -->
<g id="edge14" class="edge"><title>Node8&#45;&gt;Node5</title>
<path fill="none" stroke="#9a32cd" stroke-dasharray="5,2" d="M442,-142.613C442,-129.597 442,-113.296 442,-103.011"/>
<polygon fill="#9a32cd" stroke="#9a32cd" points="438.5,-142.971 442,-152.971 445.5,-142.971 438.5,-142.971"/>
<text text-anchor="middle" x="483.5" y="-125" font-family="Helvetica,sans-Serif" font-size="10.00"> confidenceInterval</text>
</g>
<!-- Node9 -->
<g id="node16" class="node"><title>Node9</title>
<polygon fill="none" stroke="#bfbfbf" points="242,-83 242,-103 406,-103 406,-83 242,-83"/>
<text text-anchor="middle" x="324" y="-90" font-family="Helvetica,sans-Serif" font-size="10.00">LinkedList&lt; QueueEv.Customer &gt;</text>
</g>
<!-- Node9&#45;&gt;Node1 -->
<g id="edge16" class="edge"><title>Node9&#45;&gt;Node1</title>
<path fill="none" stroke="#9a32cd" stroke-dasharray="5,2" d="M315.993,-73.6888C309.167,-57.226 299.624,-34.2119 294.203,-21.1371"/>
<polygon fill="#9a32cd" stroke="#9a32cd" points="312.768,-75.0483 319.831,-82.9452 319.234,-72.3672 312.768,-75.0483"/>
<text text-anchor="middle" x="329.5" y="-55" font-family="Helvetica,sans-Serif" font-size="10.00"> waitList</text>
<text text-anchor="middle" x="329.5" y="-43" font-family="Helvetica,sans-Serif" font-size="10.00">servList</text>
</g>
<!-- Node10&#45;&gt;Node1 -->
<g id="edge18" class="edge"><title>Node10&#45;&gt;Node1</title>
<path fill="none" stroke="#9a32cd" stroke-dasharray="5,2" d="M210.221,-76.4184C230.411,-59.8632 260.79,-34.952 277.638,-21.1371"/>
<polygon fill="#9a32cd" stroke="#9a32cd" points="207.775,-73.8979 202.262,-82.9452 212.214,-79.3108 207.775,-73.8979"/>
<text text-anchor="middle" x="268" y="-49" font-family="Helvetica,sans-Serif" font-size="10.00"> totWait</text>
</g>
</g>
</svg>
