<?xml version="1.0" encoding="UTF-8" standalone="no"?>
<!DOCTYPE svg PUBLIC "-//W3C//DTD SVG 1.1//EN"
 "http://www.w3.org/Graphics/SVG/1.1/DTD/svg11.dtd">
<!-- Generated by graphviz version 2.38.0 (20140413.2041)
 -->
<!-- Title: RandShiftedMod1PointSet Pages: 1 -->
<svg width="173pt" height="219pt"
 viewBox="0.00 0.00 173.00 219.00" xmlns="http://www.w3.org/2000/svg" xmlns:xlink="http://www.w3.org/1999/xlink">
<g id="graph0" class="graph" transform="scale(1 1) rotate(0) translate(4 215)">
<title>RandShiftedMod1PointSet</title>
<!-- Node3 -->
<g id="node1" class="node"><title>Node3</title>
<polygon fill="#bfbfbf" stroke="black" points="0,-0.5 0,-19.5 132,-19.5 132,-0.5 0,-0.5"/>
<text text-anchor="middle" x="66" y="-7.5" font-family="Helvetica,sans-Serif" font-size="10.00">RandShiftedMod1PointSet</text>
</g>
<!-- Node4 -->
<g id="node2" class="node"><title>Node4</title>
<g id="a_node2"><a xlink:href="classumontreal_1_1ssj_1_1hups_1_1ContainerPointSet.html" target="_top" xlink:title="This acts as a generic base class for all container classes that contain a point set and apply some k...">
<polygon fill="none" stroke="black" points="69,-57.5 69,-76.5 165,-76.5 165,-57.5 69,-57.5"/>
<text text-anchor="middle" x="117" y="-64.5" font-family="Helvetica,sans-Serif" font-size="10.00">ContainerPointSet</text>
</a>
</g>
</g>
<!-- Node4&#45;&gt;Node3 -->
<g id="edge1" class="edge"><title>Node4&#45;&gt;Node3</title>
<path fill="none" stroke="midnightblue" d="M102.004,-49.8281C92.8718,-39.9794 81.5612,-27.7817 74.0811,-19.7149"/>
<polygon fill="midnightblue" stroke="midnightblue" points="99.6654,-52.4533 109.031,-57.4062 104.798,-47.6937 99.6654,-52.4533"/>
</g>
<!-- Node5 -->
<g id="node3" class="node"><title>Node5</title>
<g id="a_node3"><a xlink:href="classumontreal_1_1ssj_1_1hups_1_1PointSet.html" target="_top" xlink:title="This abstract class represents a general point set. ">
<polygon fill="none" stroke="black" points="83,-124.5 83,-143.5 137,-143.5 137,-124.5 83,-124.5"/>
<text text-anchor="middle" x="110" y="-131.5" font-family="Helvetica,sans-Serif" font-size="10.00">PointSet</text>
</a>
</g>
</g>
<!-- Node5&#45;&gt;Node4 -->
<g id="edge2" class="edge"><title>Node5&#45;&gt;Node4</title>
<path fill="none" stroke="midnightblue" d="M112.042,-114.037C113.374,-101.67 115.049,-86.1198 116.071,-76.6273"/>
<polygon fill="midnightblue" stroke="midnightblue" points="108.535,-113.917 110.944,-124.234 115.495,-114.666 108.535,-113.917"/>
</g>
<!-- Node5&#45;&gt;Node4 -->
<g id="edge4" class="edge"><title>Node5&#45;&gt;Node4</title>
<path fill="none" stroke="#9a32cd" stroke-dasharray="5,2" d="M118.444,-114.995C119.502,-112.047 120.416,-108.98 121,-106 122.964,-95.9747 121.117,-84.2597 119.334,-76.5159"/>
<polygon fill="#9a32cd" stroke="#9a32cd" points="115.195,-113.692 114.566,-124.268 121.653,-116.393 115.195,-113.692"/>
<text text-anchor="middle" x="126" y="-98" font-family="Helvetica,sans-Serif" font-size="10.00"> P</text>
</g>
<!-- Node6 -->
<g id="node4" class="node"><title>Node6</title>
<g id="a_node4"><a xlink:href="interfaceumontreal_1_1ssj_1_1rng_1_1RandomStream.html" target="_top" xlink:title="This interface defines the basic structures to handle multiple streams of uniform (pseudo)random numb...">
<polygon fill="none" stroke="black" points="23.5,-191.5 23.5,-210.5 108.5,-210.5 108.5,-191.5 23.5,-191.5"/>
<text text-anchor="middle" x="66" y="-198.5" font-family="Helvetica,sans-Serif" font-size="10.00">RandomStream</text>
</a>
</g>
</g>
<!-- Node6&#45;&gt;Node3 -->
<g id="edge5" class="edge"><title>Node6&#45;&gt;Node3</title>
<path fill="none" stroke="#9a32cd" stroke-dasharray="5,2" d="M62.0991,-181.213C58.1942,-160.233 53.0279,-125.247 55,-95 56.799,-67.4078 61.8881,-35.0399 64.4647,-19.7913"/>
<polygon fill="#9a32cd" stroke="#9a32cd" points="58.7206,-182.172 64.0853,-191.308 65.5889,-180.82 58.7206,-182.172"/>
<text text-anchor="middle" x="82" y="-98" font-family="Helvetica,sans-Serif" font-size="10.00"> shiftStream</text>
</g>
<!-- Node6&#45;&gt;Node5 -->
<g id="edge3" class="edge"><title>Node6&#45;&gt;Node5</title>
<path fill="none" stroke="#9a32cd" stroke-dasharray="5,2" d="M77.5729,-182.904C86.123,-170.273 97.4065,-153.604 104.16,-143.627"/>
<polygon fill="#9a32cd" stroke="#9a32cd" points="74.6414,-180.991 71.934,-191.234 80.4381,-184.915 74.6414,-180.991"/>
<text text-anchor="middle" x="117" y="-165" font-family="Helvetica,sans-Serif" font-size="10.00"> shiftStream</text>
</g>
</g>
</svg>
