<?xml version="1.0" encoding="UTF-8" standalone="no"?>
<!DOCTYPE svg PUBLIC "-//W3C//DTD SVG 1.1//EN"
 "http://www.w3.org/Graphics/SVG/1.1/DTD/svg11.dtd">
<!-- Generated by graphviz version 2.38.0 (20140413.2041)
 -->
<!-- Title: BakerTransformedPointSet Pages: 1 -->
<svg width="156pt" height="219pt"
 viewBox="0.00 0.00 156.00 219.00" xmlns="http://www.w3.org/2000/svg" xmlns:xlink="http://www.w3.org/1999/xlink">
<g id="graph0" class="graph" transform="scale(1 1) rotate(0) translate(4 215)">
<title>BakerTransformedPointSet</title>
<!-- Node1 -->
<g id="node1" class="node"><title>Node1</title>
<polygon fill="#bfbfbf" stroke="black" points="0,-0.5 0,-19.5 148,-19.5 148,-0.5 0,-0.5"/>
<text text-anchor="middle" x="74" y="-7.5" font-family="Helvetica,sans-Serif" font-size="10.00">BakerTransformedPointSet</text>
</g>
<!-- Node2 -->
<g id="node2" class="node"><title>Node2</title>
<g id="a_node2"><a xlink:href="classumontreal_1_1ssj_1_1hups_1_1ContainerPointSet.html" target="_top" xlink:title="This acts as a generic base class for all container classes that contain a point set and apply some k...">
<polygon fill="none" stroke="black" points="22,-57.5 22,-76.5 126,-76.5 126,-57.5 22,-57.5"/>
<text text-anchor="middle" x="74" y="-64.5" font-family="Helvetica,sans-Serif" font-size="10.00">ContainerPointSet</text>
</a>
</g>
</g>
<!-- Node2&#45;&gt;Node1 -->
<g id="edge1" class="edge"><title>Node2&#45;&gt;Node1</title>
<path fill="none" stroke="midnightblue" d="M74,-47.1166C74,-37.8173 74,-27.0557 74,-19.7149"/>
<polygon fill="midnightblue" stroke="midnightblue" points="70.5001,-47.4062 74,-57.4062 77.5001,-47.4063 70.5001,-47.4062"/>
</g>
<!-- Node3 -->
<g id="node3" class="node"><title>Node3</title>
<g id="a_node3"><a xlink:href="classumontreal_1_1ssj_1_1hups_1_1PointSet.html" target="_top" xlink:title="This abstract class defines the basic methods for accessing and manipulating point sets...">
<polygon fill="none" stroke="black" points="45.5,-124.5 45.5,-143.5 102.5,-143.5 102.5,-124.5 45.5,-124.5"/>
<text text-anchor="middle" x="74" y="-131.5" font-family="Helvetica,sans-Serif" font-size="10.00">PointSet</text>
</a>
</g>
</g>
<!-- Node3&#45;&gt;Node2 -->
<g id="edge2" class="edge"><title>Node3&#45;&gt;Node2</title>
<path fill="none" stroke="midnightblue" d="M72.4399,-114.382C72.2572,-111.575 72.1003,-108.713 72,-106 71.6288,-95.9652 72.4035,-84.4502 73.0942,-76.7505"/>
<polygon fill="midnightblue" stroke="midnightblue" points="68.9607,-114.791 73.2083,-124.497 75.9406,-114.26 68.9607,-114.791"/>
</g>
<!-- Node3&#45;&gt;Node2 -->
<g id="edge4" class="edge"><title>Node3&#45;&gt;Node2</title>
<path fill="none" stroke="#9a32cd" stroke-dasharray="5,2" d="M74,-114.037C74,-101.67 74,-86.1198 74,-76.6273"/>
<polygon fill="#9a32cd" stroke="#9a32cd" points="70.5001,-114.234 74,-124.234 77.5001,-114.234 70.5001,-114.234"/>
<text text-anchor="middle" x="79" y="-98" font-family="Helvetica,sans-Serif" font-size="10.00"> P</text>
</g>
<!-- Node4 -->
<g id="node4" class="node"><title>Node4</title>
<g id="a_node4"><a xlink:href="interfaceumontreal_1_1ssj_1_1rng_1_1RandomStream.html" target="_top" xlink:title="This interface defines the basic structures to handle multiple streams of uniform (pseudo)random numb...">
<polygon fill="none" stroke="black" points="28,-191.5 28,-210.5 120,-210.5 120,-191.5 28,-191.5"/>
<text text-anchor="middle" x="74" y="-198.5" font-family="Helvetica,sans-Serif" font-size="10.00">RandomStream</text>
</a>
</g>
</g>
<!-- Node4&#45;&gt;Node3 -->
<g id="edge3" class="edge"><title>Node4&#45;&gt;Node3</title>
<path fill="none" stroke="#9a32cd" stroke-dasharray="5,2" d="M74,-181.037C74,-168.67 74,-153.12 74,-143.627"/>
<polygon fill="#9a32cd" stroke="#9a32cd" points="70.5001,-181.234 74,-191.234 77.5001,-181.234 70.5001,-181.234"/>
<text text-anchor="middle" x="104.5" y="-165" font-family="Helvetica,sans-Serif" font-size="10.00"> shiftStream</text>
</g>
</g>
</svg>
