<?xml version="1.0" encoding="UTF-8" standalone="no"?>
<!DOCTYPE svg PUBLIC "-//W3C//DTD SVG 1.1//EN"
 "http://www.w3.org/Graphics/SVG/1.1/DTD/svg11.dtd">
<!-- Generated by graphviz version 2.26.3 (20100126.1600)
 -->
<!-- Title: BrownianMotion Pages: 1 -->
<svg width="418pt" height="146pt"
 viewBox="0.00 0.00 418.00 146.00" xmlns="http://www.w3.org/2000/svg" xmlns:xlink="http://www.w3.org/1999/xlink">
<g id="graph1" class="graph" transform="scale(1 1) rotate(0) translate(4 142)">
<title>BrownianMotion</title>
<!-- Node1 -->
<g id="node1" class="node"><title>Node1</title>
<polygon fill="#bfbfbf" stroke="black" points="140,-59 140,-79 226,-79 226,-59 140,-59"/>
<text text-anchor="middle" x="183" y="-66" font-family="Helvetica,sans-Serif" font-size="10.00">BrownianMotion</text>
</g>
<!-- Node3 -->
<g id="node5" class="node"><title>Node3</title>
<a xlink:href="classumontreal_1_1ssj_1_1stochprocess_1_1BrownianMotionBridge.html" target="_top" xlink:title=", then the observations are generated in the following order: , , , , . ">
<polygon fill="none" stroke="black" points="-0.5,-1 -0.5,-21 112.5,-21 112.5,-1 -0.5,-1"/>
<text text-anchor="middle" x="56" y="-8" font-family="Helvetica,sans-Serif" font-size="10.00">BrownianMotionBridge</text>
</a>
</g>
<!-- Node1&#45;&gt;Node3 -->
<g id="edge4" class="edge"><title>Node1&#45;&gt;Node3</title>
<path fill="none" stroke="midnightblue" d="M151.631,-54.674C128.867,-44.2778 98.6226,-30.4654 78.2943,-21.1817"/>
<polygon fill="midnightblue" stroke="midnightblue" points="150.328,-57.9266 160.878,-58.8972 153.236,-51.5592 150.328,-57.9266"/>
</g>
<!-- Node4 -->
<g id="node7" class="node"><title>Node4</title>
<a xlink:href="classumontreal_1_1ssj_1_1stochprocess_1_1BrownianMotionPCA.html" target="_top" xlink:title="A Brownian motion process &#160;sampled using the principal component decomposition (PCA) ...">
<polygon fill="none" stroke="black" points="130,-1 130,-21 236,-21 236,-1 130,-1"/>
<text text-anchor="middle" x="183" y="-8" font-family="Helvetica,sans-Serif" font-size="10.00">BrownianMotionPCA</text>
</a>
</g>
<!-- Node1&#45;&gt;Node4 -->
<g id="edge6" class="edge"><title>Node1&#45;&gt;Node4</title>
<path fill="none" stroke="midnightblue" d="M183,-48.8902C183,-39.6201 183,-29.0083 183,-21.3776"/>
<polygon fill="midnightblue" stroke="midnightblue" points="179.5,-48.8971 183,-58.8972 186.5,-48.8972 179.5,-48.8971"/>
</g>
<!-- Node5 -->
<g id="node9" class="node"><title>Node5</title>
<a xlink:href="classumontreal_1_1ssj_1_1stochprocess_1_1BrownianMotionPCAEqualSteps.html" target="_top" xlink:title="Same as BrownianMotionPCA, but uses a trick to speed up the calculation when the time steps are equid...">
<polygon fill="none" stroke="black" points="254,-1 254,-21 410,-21 410,-1 254,-1"/>
<text text-anchor="middle" x="332" y="-8" font-family="Helvetica,sans-Serif" font-size="10.00">BrownianMotionPCAEqualSteps</text>
</a>
</g>
<!-- Node1&#45;&gt;Node5 -->
<g id="edge8" class="edge"><title>Node1&#45;&gt;Node5</title>
<path fill="none" stroke="midnightblue" d="M218.411,-55.2158C245.359,-44.7258 281.828,-30.5302 306.094,-21.0842"/>
<polygon fill="midnightblue" stroke="midnightblue" points="217.003,-52.008 208.954,-58.8972 219.542,-58.5312 217.003,-52.008"/>
</g>
<!-- Node2 -->
<g id="node2" class="node"><title>Node2</title>
<a xlink:href="classumontreal_1_1ssj_1_1stochprocess_1_1StochasticProcess.html" target="_top" xlink:title="Abstract base class for a stochastic process &#160;sampled (or observed) at a finite number of time points...">
<polygon fill="none" stroke="black" points="133.5,-117 133.5,-137 232.5,-137 232.5,-117 133.5,-117"/>
<text text-anchor="middle" x="183" y="-124" font-family="Helvetica,sans-Serif" font-size="10.00">StochasticProcess</text>
</a>
</g>
<!-- Node2&#45;&gt;Node1 -->
<g id="edge2" class="edge"><title>Node2&#45;&gt;Node1</title>
<path fill="none" stroke="midnightblue" d="M183,-106.89C183,-97.6201 183,-87.0083 183,-79.3776"/>
<polygon fill="midnightblue" stroke="midnightblue" points="179.5,-106.897 183,-116.897 186.5,-106.897 179.5,-106.897"/>
</g>
</g>
</svg>
