<?xml version="1.0" encoding="UTF-8" standalone="no"?>
<!DOCTYPE svg PUBLIC "-//W3C//DTD SVG 1.1//EN"
 "http://www.w3.org/Graphics/SVG/1.1/DTD/svg11.dtd">
<!-- Generated by graphviz version 2.38.0 (20140413.2041)
 -->
<!-- Title: CallCenter Pages: 1 -->
<!--zoomable 352 -->
<svg id="main" version="1.1" xmlns="http://www.w3.org/2000/svg" xmlns:xlink="http://www.w3.org/1999/xlink" xml:space="preserve" onload="init(evt)">
<style type="text/css"><![CDATA[
.edge:hover path { stroke: red; }
.edge:hover polygon { stroke: red; fill: red; }
]]></style>
<script type="text/javascript"><![CDATA[
var edges = document.getElementsByTagName('g');
if (edges && edges.length) {
  for (var i=0;i<edges.length;i++) {
    if (edges[i].id.substr(0,4)=='edge') {
      edges[i].setAttribute('class','edge');
    }
  }
}
]]></script>
        <defs>
                <circle id="rim" cx="0" cy="0" r="7"/>
                <circle id="rim2" cx="0" cy="0" r="3.5"/>
                <g id="zoomPlus">
                        <use xlink:href="#rim" fill="#404040">
                                <set attributeName="fill" to="#808080" begin="zoomplus.mouseover" end="zoomplus.mouseout"/>
                        </use>
                        <path d="M-4,0h8M0,-4v8" fill="none" stroke="white" stroke-width="1.5" pointer-events="none"/>
                </g>
                <g id="zoomMin">
                        <use xlink:href="#rim" fill="#404040">
                                <set attributeName="fill" to="#808080" begin="zoomminus.mouseover" end="zoomminus.mouseout"/>
                        </use>
                        <path d="M-4,0h8" fill="none" stroke="white" stroke-width="1.5" pointer-events="none"/>
                </g>
                <g id="dirArrow">
                        <path fill="none" stroke="white" stroke-width="1.5" d="M0,-3.0v7 M-2.5,-0.5L0,-3.0L2.5,-0.5"/>
                </g>
               <g id="resetDef">
                       <use xlink:href="#rim2" fill="#404040">
                               <set attributeName="fill" to="#808080" begin="reset.mouseover" end="reset.mouseout"/>
                       </use>
               </g>
        </defs>

<script type="text/javascript">
var viewWidth = 721;
var viewHeight = 352;
var sectionId = 'dynsection-1';
</script>
<script xlink:href="svgpan.js"/>
<svg id="graph" class="graph">
<g id="viewport">
<title>CallCenter</title>
<!-- Node2 -->
<g id="node1" class="node"><title>Node2</title>
<polygon fill="#bfbfbf" stroke="black" points="346.5,-0.5 346.5,-19.5 409.5,-19.5 409.5,-0.5 346.5,-0.5"/>
<text text-anchor="middle" x="378" y="-7.5" font-family="Helvetica,sans-Serif" font-size="10.00">CallCenter</text>
</g>
<!-- Node3 -->
<g id="node2" class="node"><title>Node3</title>
<g id="a_node2"><a xlink:href="classumontreal_1_1ssj_1_1stat_1_1Tally.html" target="_top" xlink:title="A subclass of StatProbe. ">
<polygon fill="none" stroke="black" points="117,-111.5 117,-130.5 155,-130.5 155,-111.5 117,-111.5"/>
<text text-anchor="middle" x="136" y="-118.5" font-family="Helvetica,sans-Serif" font-size="10.00">Tally</text>
</a>
</g>
</g>
<!-- Node3&#45;&gt;Node2 -->
<g id="edge1" class="edge"><title>Node3&#45;&gt;Node2</title>
<path fill="none" stroke="#9a32cd" stroke-dasharray="5,2" d="M150.91,-104.172C169.623,-85.3203 203.585,-54.3325 239,-38 273.601,-22.0426 317.259,-15.5106 346.322,-12.8403"/>
<polygon fill="#9a32cd" stroke="#9a32cd" points="148.318,-101.818 143.863,-111.431 153.34,-106.694 148.318,-101.818"/>
<text text-anchor="middle" x="271" y="-85" font-family="Helvetica,sans-Serif" font-size="10.00"> statWaitsDay</text>
<text text-anchor="middle" x="271" y="-74" font-family="Helvetica,sans-Serif" font-size="10.00">statWaits</text>
<text text-anchor="middle" x="271" y="-63" font-family="Helvetica,sans-Serif" font-size="10.00">statArrivals</text>
<text text-anchor="middle" x="271" y="-52" font-family="Helvetica,sans-Serif" font-size="10.00">statAbandon</text>
<text text-anchor="middle" x="271" y="-41" font-family="Helvetica,sans-Serif" font-size="10.00">statGoodQoS</text>
</g>
<!-- Node4 -->
<g id="node3" class="node"><title>Node4</title>
<g id="a_node3"><a xlink:href="classumontreal_1_1ssj_1_1stat_1_1StatProbe.html" target="_top" xlink:title="The objects of this class are statistical probes or collectors, which are elementary devices for coll...">
<polygon fill="none" stroke="black" points="0,-200.5 0,-219.5 60,-219.5 60,-200.5 0,-200.5"/>
<text text-anchor="middle" x="30" y="-207.5" font-family="Helvetica,sans-Serif" font-size="10.00">StatProbe</text>
</a>
</g>
</g>
<!-- Node4&#45;&gt;Node3 -->
<g id="edge2" class="edge"><title>Node4&#45;&gt;Node3</title>
<path fill="none" stroke="midnightblue" d="M48.311,-193.971C70.6059,-175.673 107.505,-145.387 125.491,-130.625"/>
<polygon fill="midnightblue" stroke="midnightblue" points="46.0605,-191.29 40.5512,-200.34 50.5016,-196.701 46.0605,-191.29"/>
</g>
<!-- Node5 -->
<g id="node4" class="node"><title>Node5</title>
<polygon fill="none" stroke="#bfbfbf" points="78,-200.5 78,-219.5 138,-219.5 138,-200.5 78,-200.5"/>
<text text-anchor="middle" x="108" y="-207.5" font-family="Helvetica,sans-Serif" font-size="10.00">Cloneable</text>
</g>
<!-- Node5&#45;&gt;Node3 -->
<g id="edge3" class="edge"><title>Node5&#45;&gt;Node3</title>
<path fill="none" stroke="midnightblue" d="M113.885,-190.715C119.826,-172.255 128.745,-144.542 133.224,-130.625"/>
<polygon fill="midnightblue" stroke="midnightblue" points="110.519,-189.749 110.787,-200.34 117.183,-191.893 110.519,-189.749"/>
</g>
<!-- Node6 -->
<g id="node5" class="node"><title>Node6</title>
<polygon fill="none" stroke="#bfbfbf" points="156.5,-200.5 156.5,-219.5 229.5,-219.5 229.5,-200.5 156.5,-200.5"/>
<text text-anchor="middle" x="193" y="-207.5" font-family="Helvetica,sans-Serif" font-size="10.00">Tally.CIType</text>
</g>
<!-- Node6&#45;&gt;Node3 -->
<g id="edge4" class="edge"><title>Node6&#45;&gt;Node3</title>
<path fill="none" stroke="#9a32cd" stroke-dasharray="5,2" d="M181.692,-191.74C169.607,-173.295 150.939,-144.802 141.651,-130.625"/>
<polygon fill="#9a32cd" stroke="#9a32cd" points="178.918,-193.894 187.326,-200.34 184.774,-190.057 178.918,-193.894"/>
<text text-anchor="middle" x="216.5" y="-163" font-family="Helvetica,sans-Serif" font-size="10.00"> confidenceInterval</text>
</g>
<!-- Node7 -->
<g id="node6" class="node"><title>Node7</title>
<g id="a_node6"><a xlink:href="classumontreal_1_1ssj_1_1randvar_1_1GammaGen.html" target="_top" xlink:title="This class implements random variate generators for the gamma distribution. ">
<polygon fill="none" stroke="black" points="272.5,-111.5 272.5,-130.5 341.5,-130.5 341.5,-111.5 272.5,-111.5"/>
<text text-anchor="middle" x="307" y="-118.5" font-family="Helvetica,sans-Serif" font-size="10.00">GammaGen</text>
</a>
</g>
</g>
<!-- Node7&#45;&gt;Node2 -->
<g id="edge5" class="edge"><title>Node7&#45;&gt;Node2</title>
<path fill="none" stroke="#9a32cd" stroke-dasharray="5,2" d="M306.406,-101.24C306.79,-83.2601 309.97,-56.2352 324,-38 330.391,-29.6926 340.029,-23.7555 349.402,-19.6045"/>
<polygon fill="#9a32cd" stroke="#9a32cd" points="302.907,-101.356 306.465,-111.336 309.907,-101.316 302.907,-101.356"/>
<text text-anchor="middle" x="344" y="-63" font-family="Helvetica,sans-Serif" font-size="10.00"> genServ</text>
</g>
<!-- Node8 -->
<g id="node7" class="node"><title>Node8</title>
<g id="a_node7"><a xlink:href="classumontreal_1_1ssj_1_1randvar_1_1RandomVariateGen.html" target="_top" xlink:title="This is the base class for all random variate generators over the real line. ">
<polygon fill="none" stroke="black" points="248,-200.5 248,-219.5 350,-219.5 350,-200.5 248,-200.5"/>
<text text-anchor="middle" x="299" y="-207.5" font-family="Helvetica,sans-Serif" font-size="10.00">RandomVariateGen</text>
</a>
</g>
</g>
<!-- Node8&#45;&gt;Node7 -->
<g id="edge6" class="edge"><title>Node8&#45;&gt;Node7</title>
<path fill="none" stroke="midnightblue" d="M300.729,-190.195C302.426,-171.738 304.939,-144.412 306.207,-130.625"/>
<polygon fill="midnightblue" stroke="midnightblue" points="297.227,-190.062 299.796,-200.34 304.197,-190.703 297.227,-190.062"/>
</g>
<!-- Node9 -->
<g id="node8" class="node"><title>Node9</title>
<g id="a_node8"><a xlink:href="interfaceumontreal_1_1ssj_1_1probdist_1_1Distribution.html" target="_top" xlink:title="This interface should be implemented by all classes supporting discrete and continuous distributions...">
<polygon fill="none" stroke="black" points="251,-267.5 251,-286.5 317,-286.5 317,-267.5 251,-267.5"/>
<text text-anchor="middle" x="284" y="-274.5" font-family="Helvetica,sans-Serif" font-size="10.00">Distribution</text>
</a>
</g>
</g>
<!-- Node9&#45;&gt;Node8 -->
<g id="edge7" class="edge"><title>Node9&#45;&gt;Node8</title>
<path fill="none" stroke="#9a32cd" stroke-dasharray="5,2" d="M283.522,-257.272C283.749,-251.059 284.423,-244.16 286,-238 287.652,-231.549 290.902,-224.799 293.739,-219.662"/>
<polygon fill="#9a32cd" stroke="#9a32cd" points="280.022,-257.395 283.498,-267.403 287.022,-257.412 280.022,-257.395"/>
<text text-anchor="middle" x="295.5" y="-241" font-family="Helvetica,sans-Serif" font-size="10.00"> dist</text>
</g>
<!-- Node10 -->
<g id="node9" class="node"><title>Node10</title>
<g id="a_node9"><a xlink:href="interfaceumontreal_1_1ssj_1_1rng_1_1RandomStream.html" target="_top" xlink:title="This interface defines the basic structures to handle multiple streams of uniform (pseudo)random numb...">
<polygon fill="none" stroke="black" points="335.5,-267.5 335.5,-286.5 420.5,-286.5 420.5,-267.5 335.5,-267.5"/>
<text text-anchor="middle" x="378" y="-274.5" font-family="Helvetica,sans-Serif" font-size="10.00">RandomStream</text>
</a>
</g>
</g>
<!-- Node10&#45;&gt;Node2 -->
<g id="edge17" class="edge"><title>Node10&#45;&gt;Node2</title>
<path fill="none" stroke="#9a32cd" stroke-dasharray="5,2" d="M378,-257.264C378,-204.636 378,-56.8826 378,-19.6184"/>
<polygon fill="#9a32cd" stroke="#9a32cd" points="374.5,-257.483 378,-267.483 381.5,-257.483 374.5,-257.483"/>
<text text-anchor="middle" x="412.5" y="-174" font-family="Helvetica,sans-Serif" font-size="10.00"> streamB</text>
<text text-anchor="middle" x="412.5" y="-163" font-family="Helvetica,sans-Serif" font-size="10.00">streamArr</text>
<text text-anchor="middle" x="412.5" y="-152" font-family="Helvetica,sans-Serif" font-size="10.00">streamPatience</text>
</g>
<!-- Node10&#45;&gt;Node8 -->
<g id="edge8" class="edge"><title>Node10&#45;&gt;Node8</title>
<path fill="none" stroke="#9a32cd" stroke-dasharray="5,2" d="M350.059,-262.603C343.167,-258.688 336.036,-254.078 330,-249 319.706,-240.34 310.31,-227.894 304.625,-219.635"/>
<polygon fill="#9a32cd" stroke="#9a32cd" points="348.718,-265.855 359.186,-267.49 352.023,-259.684 348.718,-265.855"/>
<text text-anchor="middle" x="347" y="-241" font-family="Helvetica,sans-Serif" font-size="10.00"> stream</text>
</g>
<!-- Node11 -->
<g id="node10" class="node"><title>Node11</title>
<polygon fill="none" stroke="#bfbfbf" points="406.5,-111.5 406.5,-130.5 467.5,-130.5 467.5,-111.5 406.5,-111.5"/>
<text text-anchor="middle" x="437" y="-118.5" font-family="Helvetica,sans-Serif" font-size="10.00">LinkedList</text>
</g>
<!-- Node11&#45;&gt;Node2 -->
<g id="edge9" class="edge"><title>Node11&#45;&gt;Node2</title>
<path fill="none" stroke="#9a32cd" stroke-dasharray="5,2" d="M427.517,-102.481C414.671,-78.7481 392.24,-37.3071 382.608,-19.5133"/>
<polygon fill="#9a32cd" stroke="#9a32cd" points="424.532,-104.319 432.37,-111.447 430.688,-100.987 424.532,-104.319"/>
<text text-anchor="middle" x="440.5" y="-63" font-family="Helvetica,sans-Serif" font-size="10.00"> waitList</text>
</g>
<!-- Node12 -->
<g id="node11" class="node"><title>Node12</title>
<g id="a_node11"><a xlink:href="classumontreal_1_1ssj_1_1simevents_1_1Event.html" target="_top" xlink:title="This abstract class provides event scheduling tools. ">
<polygon fill="none" stroke="black" points="486,-111.5 486,-130.5 528,-130.5 528,-111.5 486,-111.5"/>
<text text-anchor="middle" x="507" y="-118.5" font-family="Helvetica,sans-Serif" font-size="10.00">Event</text>
</a>
</g>
</g>
<!-- Node12&#45;&gt;Node2 -->
<g id="edge10" class="edge"><title>Node12&#45;&gt;Node2</title>
<path fill="none" stroke="#9a32cd" stroke-dasharray="5,2" d="M501.724,-101.774C495.434,-83.1755 483.158,-54.737 463,-38 447.99,-25.5375 427.164,-18.802 409.884,-15.1751"/>
<polygon fill="#9a32cd" stroke="#9a32cd" points="498.419,-102.929 504.751,-111.424 505.098,-100.835 498.419,-102.929"/>
<text text-anchor="middle" x="524" y="-63" font-family="Helvetica,sans-Serif" font-size="10.00"> nextArrival</text>
</g>
<!-- Node13 -->
<g id="node12" class="node"><title>Node13</title>
<polygon fill="none" stroke="#bfbfbf" points="431.5,-200.5 431.5,-219.5 544.5,-219.5 544.5,-200.5 431.5,-200.5"/>
<text text-anchor="middle" x="488" y="-207.5" font-family="Helvetica,sans-Serif" font-size="10.00">Comparable&lt; Event &gt;</text>
</g>
<!-- Node13&#45;&gt;Node12 -->
<g id="edge11" class="edge"><title>Node13&#45;&gt;Node12</title>
<path fill="none" stroke="midnightblue" d="M492.05,-190.455C496.081,-171.996 502.091,-144.477 505.116,-130.625"/>
<polygon fill="midnightblue" stroke="midnightblue" points="488.606,-189.824 489.891,-200.34 495.444,-191.317 488.606,-189.824"/>
</g>
<!-- Node14 -->
<g id="node13" class="node"><title>Node14</title>
<g id="a_node13"><a xlink:href="classumontreal_1_1ssj_1_1simevents_1_1Simulator.html" target="_top" xlink:title="Represents the executive of a discrete&#45;event simulator. ">
<polygon fill="none" stroke="black" points="563,-200.5 563,-219.5 621,-219.5 621,-200.5 563,-200.5"/>
<text text-anchor="middle" x="592" y="-207.5" font-family="Helvetica,sans-Serif" font-size="10.00">Simulator</text>
</a>
</g>
</g>
<!-- Node14&#45;&gt;Node12 -->
<g id="edge12" class="edge"><title>Node14&#45;&gt;Node12</title>
<path fill="none" stroke="#9a32cd" stroke-dasharray="5,2" d="M576.119,-192.745C558.143,-174.346 529.532,-145.062 515.427,-130.625"/>
<polygon fill="#9a32cd" stroke="#9a32cd" points="574.047,-195.633 583.539,-200.34 579.054,-190.741 574.047,-195.633"/>
<text text-anchor="middle" x="573.5" y="-163" font-family="Helvetica,sans-Serif" font-size="10.00"> sim</text>
</g>
<!-- Node14&#45;&gt;Node14 -->
<g id="edge13" class="edge"><title>Node14&#45;&gt;Node14</title>
<path fill="none" stroke="#9a32cd" stroke-dasharray="5,2" d="M631.603,-215.084C636.091,-214.132 639,-212.438 639,-210 639,-206 631.167,-204 621.375,-204"/>
<polygon fill="#9a32cd" stroke="#9a32cd" points="631.023,-211.622 621.375,-216 631.647,-218.594 631.023,-211.622"/>
<text text-anchor="middle" x="676" y="-207.5" font-family="Helvetica,sans-Serif" font-size="10.00"> defaultSimulator</text>
</g>
<!-- Node15 -->
<g id="node14" class="node"><title>Node15</title>
<g id="a_node14"><a xlink:href="interfaceumontreal_1_1ssj_1_1simevents_1_1eventlist_1_1EventList.html" target="_top" xlink:title="An interface for implementations of event lists. ">
<polygon fill="none" stroke="black" points="510,-267.5 510,-286.5 568,-286.5 568,-267.5 510,-267.5"/>
<text text-anchor="middle" x="539" y="-274.5" font-family="Helvetica,sans-Serif" font-size="10.00">EventList</text>
</a>
</g>
</g>
<!-- Node15&#45;&gt;Node14 -->
<g id="edge14" class="edge"><title>Node15&#45;&gt;Node14</title>
<path fill="none" stroke="#9a32cd" stroke-dasharray="5,2" d="M548.2,-258.41C552.059,-251.726 556.848,-244.228 562,-238 567.628,-231.197 574.983,-224.55 581.002,-219.553"/>
<polygon fill="#9a32cd" stroke="#9a32cd" points="545.021,-256.928 543.277,-267.378 551.157,-260.297 545.021,-256.928"/>
<text text-anchor="middle" x="583.5" y="-241" font-family="Helvetica,sans-Serif" font-size="10.00"> eventList</text>
</g>
<!-- Node16 -->
<g id="node15" class="node"><title>Node16</title>
<polygon fill="none" stroke="#bfbfbf" points="493,-324.5 493,-343.5 585,-343.5 585,-324.5 493,-324.5"/>
<text text-anchor="middle" x="539" y="-331.5" font-family="Helvetica,sans-Serif" font-size="10.00">Iterable&lt; Event &gt;</text>
</g>
<!-- Node16&#45;&gt;Node15 -->
<g id="edge15" class="edge"><title>Node16&#45;&gt;Node15</title>
<path fill="none" stroke="midnightblue" d="M539,-314.117C539,-304.817 539,-294.056 539,-286.715"/>
<polygon fill="midnightblue" stroke="midnightblue" points="535.5,-314.406 539,-324.406 542.5,-314.406 535.5,-314.406"/>
</g>
<!-- Node17 -->
<g id="node16" class="node"><title>Node17</title>
<g id="a_node16"><a xlink:href="classumontreal_1_1ssj_1_1simevents_1_1ContinuousState.html" target="_top" xlink:title="Represents the portion of the simulator’s state associated with continuous&#45;time simulation. ">
<polygon fill="none" stroke="black" points="586.5,-267.5 586.5,-286.5 675.5,-286.5 675.5,-267.5 586.5,-267.5"/>
<text text-anchor="middle" x="631" y="-274.5" font-family="Helvetica,sans-Serif" font-size="10.00">ContinuousState</text>
</a>
</g>
</g>
<!-- Node17&#45;&gt;Node14 -->
<g id="edge16" class="edge"><title>Node17&#45;&gt;Node14</title>
<path fill="none" stroke="#9a32cd" stroke-dasharray="5,2" d="M620.521,-258.535C612.97,-245.95 603.104,-229.507 597.176,-219.627"/>
<polygon fill="#9a32cd" stroke="#9a32cd" points="617.594,-260.46 625.74,-267.234 623.597,-256.858 617.594,-260.46"/>
<text text-anchor="middle" x="650" y="-241" font-family="Helvetica,sans-Serif" font-size="10.00"> continuousState</text>
</g>
</g>
</svg>
        <g id="navigator" transform="translate(0 0)" fill="#404254">
                <rect fill="#f2f5e9" fill-opacity="0.5" stroke="#606060" stroke-width=".5" x="0" y="0" width="60" height="60"/>
                <use id="zoomplus" xlink:href="#zoomPlus" x="17" y="9" onmousedown="handleZoom(evt,'in')"/>
                <use id="zoomminus" xlink:href="#zoomMin" x="42" y="9" onmousedown="handleZoom(evt,'out')"/>
                <use id="reset" xlink:href="#resetDef" x="30" y="36" onmousedown="handleReset()"/>
                <g id="arrowUp" xlink:href="#dirArrow" transform="translate(30 24)" onmousedown="handlePan(0,-1)">
                  <use xlink:href="#rim" fill="#404040">
                        <set attributeName="fill" to="#808080" begin="arrowUp.mouseover" end="arrowUp.mouseout"/>
                  </use>
                  <path fill="none" stroke="white" stroke-width="1.5" d="M0,-3.0v7 M-2.5,-0.5L0,-3.0L2.5,-0.5"/>
                </g>
                <g id="arrowRight" xlink:href="#dirArrow" transform="rotate(90) translate(36 -43)" onmousedown="handlePan(1,0)">
                  <use xlink:href="#rim" fill="#404040">
                        <set attributeName="fill" to="#808080" begin="arrowRight.mouseover" end="arrowRight.mouseout"/>
                  </use>
                  <path fill="none" stroke="white" stroke-width="1.5" d="M0,-3.0v7 M-2.5,-0.5L0,-3.0L2.5,-0.5"/>
                </g>
                <g id="arrowDown" xlink:href="#dirArrow" transform="rotate(180) translate(-30 -48)" onmousedown="handlePan(0,1)">
                  <use xlink:href="#rim" fill="#404040">
                        <set attributeName="fill" to="#808080" begin="arrowDown.mouseover" end="arrowDown.mouseout"/>
                  </use>
                  <path fill="none" stroke="white" stroke-width="1.5" d="M0,-3.0v7 M-2.5,-0.5L0,-3.0L2.5,-0.5"/>
                </g>
                <g id="arrowLeft" xlink:href="#dirArrow" transform="rotate(270) translate(-36 17)" onmousedown="handlePan(-1,0)">
                  <use xlink:href="#rim" fill="#404040">
                        <set attributeName="fill" to="#808080" begin="arrowLeft.mouseover" end="arrowLeft.mouseout"/>
                  </use>
                  <path fill="none" stroke="white" stroke-width="1.5" d="M0,-3.0v7 M-2.5,-0.5L0,-3.0L2.5,-0.5"/>
                </g>
        </g>
        <svg viewBox="0 0 15 15" width="100%" height="30px" preserveAspectRatio="xMaxYMin meet">
         <g id="arrow_out" transform="scale(0.3 0.3)">
          <a xlink:href="classift6561examples_1_1CallCenter__coll__graph_org.svg" target="_base">
           <rect id="button" ry="5" rx="5" y="6" x="6" height="38" width="38"
                fill="#f2f5e9" fill-opacity="0.5" stroke="#606060" stroke-width="1.0"/>
           <path id="arrow"
             d="M 11.500037,31.436501 C 11.940474,20.09759 22.043105,11.32322 32.158766,21.979434 L 37.068811,17.246167 C 37.068811,17.246167 37.088388,32 37.088388,32 L 22.160133,31.978069 C 22.160133,31.978069 26.997745,27.140456 26.997745,27.140456 C 18.528582,18.264221 13.291696,25.230495 11.500037,31.436501 z"
             style="fill:#404040;"/>
          </a>
         </g>
        </svg>
</svg>
