<?xml version="1.0" encoding="UTF-8" standalone="no"?>
<!DOCTYPE svg PUBLIC "-//W3C//DTD SVG 1.1//EN"
 "http://www.w3.org/Graphics/SVG/1.1/DTD/svg11.dtd">
<!-- Generated by graphviz version 2.26.3 (20100126.1600)
 -->
<!-- Title: BoxChart Pages: 1 -->
<svg width="319pt" height="230pt"
 viewBox="0.00 0.00 319.00 230.00" xmlns="http://www.w3.org/2000/svg" xmlns:xlink="http://www.w3.org/1999/xlink">
<g id="graph1" class="graph" transform="scale(1 1) rotate(0) translate(4 226)">
<title>BoxChart</title>
<!-- Node1 -->
<g id="node1" class="node"><title>Node1</title>
<polygon fill="#bfbfbf" stroke="black" points="196.5,-1 196.5,-21 253.5,-21 253.5,-1 196.5,-1"/>
<text text-anchor="middle" x="225" y="-8" font-family="Helvetica,sans-Serif" font-size="10.00">BoxChart</text>
</g>
<!-- Node2 -->
<g id="node2" class="node"><title>Node2</title>
<a xlink:href="classumontreal_1_1ssj_1_1charts_1_1CategoryChart.html" target="_top" xlink:title="This class provides tools to create charts from data in a simple way. ">
<polygon fill="none" stroke="black" points="185.5,-61 185.5,-81 264.5,-81 264.5,-61 185.5,-61"/>
<text text-anchor="middle" x="225" y="-68" font-family="Helvetica,sans-Serif" font-size="10.00">CategoryChart</text>
</a>
</g>
<!-- Node2&#45;&gt;Node1 -->
<g id="edge2" class="edge"><title>Node2&#45;&gt;Node1</title>
<path fill="none" stroke="midnightblue" d="M225,-50.5155C225,-40.562 225,-29.0495 225,-21.0279"/>
<polygon fill="midnightblue" stroke="midnightblue" points="221.5,-50.8218 225,-60.8218 228.5,-50.8219 221.5,-50.8218"/>
</g>
<!-- Node3 -->
<g id="node4" class="node"><title>Node3</title>
<a xlink:href="classumontreal_1_1ssj_1_1charts_1_1SSJCategorySeriesCollection.html" target="_top" xlink:title="Stores data used in a CategoryChart. ">
<polygon fill="none" stroke="black" points="30.5,-131 30.5,-151 175.5,-151 175.5,-131 30.5,-131"/>
<text text-anchor="middle" x="103" y="-138" font-family="Helvetica,sans-Serif" font-size="10.00">SSJCategorySeriesCollection</text>
</a>
</g>
<!-- Node3&#45;&gt;Node2 -->
<g id="edge4" class="edge"><title>Node3&#45;&gt;Node2</title>
<path fill="none" stroke="#9a32cd" stroke-dasharray="5,2" d="M129.298,-125.911C152.971,-112.328 187.093,-92.75 207.553,-81.0107"/>
<polygon fill="#9a32cd" stroke="#9a32cd" points="127.411,-122.958 120.48,-130.971 130.895,-129.03 127.411,-122.958"/>
<text text-anchor="middle" x="190" y="-103" font-family="Helvetica,sans-Serif" font-size="10.00"> dataset</text>
</g>
<!-- Node4 -->
<g id="node6" class="node"><title>Node4</title>
<polygon fill="none" stroke="#bfbfbf" points="-0.5,-201 -0.5,-221 88.5,-221 88.5,-201 -0.5,-201"/>
<text text-anchor="middle" x="44" y="-208" font-family="Helvetica,sans-Serif" font-size="10.00">CategoryDataset</text>
</g>
<!-- Node4&#45;&gt;Node3 -->
<g id="edge6" class="edge"><title>Node4&#45;&gt;Node3</title>
<path fill="none" stroke="#9a32cd" stroke-dasharray="5,2" d="M53.4044,-191.819C57.396,-184.606 62.4196,-176.569 68,-170 74.0288,-162.904 81.936,-156.188 88.7091,-151.009"/>
<polygon fill="#9a32cd" stroke="#9a32cd" points="50.1739,-190.445 48.6457,-200.929 56.3783,-193.686 50.1739,-190.445"/>
<text text-anchor="middle" x="104.5" y="-173" font-family="Helvetica,sans-Serif" font-size="10.00"> seriesCollection</text>
</g>
<!-- Node5 -->
<g id="node8" class="node"><title>Node5</title>
<polygon fill="none" stroke="#bfbfbf" points="106,-201 106,-221 220,-221 220,-201 106,-201"/>
<text text-anchor="middle" x="163" y="-208" font-family="Helvetica,sans-Serif" font-size="10.00">CategoryItemRenderer</text>
</g>
<!-- Node5&#45;&gt;Node3 -->
<g id="edge8" class="edge"><title>Node5&#45;&gt;Node3</title>
<path fill="none" stroke="#9a32cd" stroke-dasharray="5,2" d="M154.757,-191.669C151.146,-184.437 146.475,-176.425 141,-170 134.864,-162.799 126.657,-156.261 119.441,-151.223"/>
<polygon fill="#9a32cd" stroke="#9a32cd" points="151.62,-193.224 159,-200.825 157.971,-190.281 151.62,-193.224"/>
<text text-anchor="middle" x="169.5" y="-173" font-family="Helvetica,sans-Serif" font-size="10.00"> renderer</text>
</g>
<!-- Node6 -->
<g id="node10" class="node"><title>Node6</title>
<polygon fill="none" stroke="#bfbfbf" points="192.5,-131 192.5,-151 257.5,-151 257.5,-131 192.5,-131"/>
<text text-anchor="middle" x="225" y="-138" font-family="Helvetica,sans-Serif" font-size="10.00">JFreeChart</text>
</g>
<!-- Node6&#45;&gt;Node2 -->
<g id="edge10" class="edge"><title>Node6&#45;&gt;Node2</title>
<path fill="none" stroke="#9a32cd" stroke-dasharray="5,2" d="M225,-120.613C225,-107.597 225,-91.2956 225,-81.0107"/>
<polygon fill="#9a32cd" stroke="#9a32cd" points="221.5,-120.971 225,-130.971 228.5,-120.971 221.5,-120.971"/>
<text text-anchor="middle" x="237.5" y="-103" font-family="Helvetica,sans-Serif" font-size="10.00"> chart</text>
</g>
<!-- Node7 -->
<g id="node12" class="node"><title>Node7</title>
<a xlink:href="classumontreal_1_1ssj_1_1charts_1_1Axis.html" target="_top" xlink:title="Represents an axis of a chart encapsulated by an instance of XYChart. ">
<polygon fill="none" stroke="black" points="275,-131 275,-151 311,-151 311,-131 275,-131"/>
<text text-anchor="middle" x="293" y="-138" font-family="Helvetica,sans-Serif" font-size="10.00">Axis</text>
</a>
</g>
<!-- Node7&#45;&gt;Node2 -->
<g id="edge12" class="edge"><title>Node7&#45;&gt;Node2</title>
<path fill="none" stroke="#9a32cd" stroke-dasharray="5,2" d="M276.526,-123.489C269.61,-116.187 261.455,-107.644 254,-100 247.835,-93.6794 240.839,-86.6779 235.263,-81.1381"/>
<polygon fill="#9a32cd" stroke="#9a32cd" points="274.042,-125.957 283.453,-130.823 279.131,-121.15 274.042,-125.957"/>
<text text-anchor="middle" x="278.5" y="-103" font-family="Helvetica,sans-Serif" font-size="10.00"> YAxis</text>
</g>
</g>
</svg>
