<?xml version="1.0" encoding="UTF-8" standalone="no"?>
<!DOCTYPE svg PUBLIC "-//W3C//DTD SVG 1.1//EN"
 "http://www.w3.org/Graphics/SVG/1.1/DTD/svg11.dtd">
<!-- Generated by graphviz version 2.38.0 (20140413.2041)
 -->
<!-- Title: JohnsonSystem Pages: 1 -->
<svg width="306pt" height="196pt"
 viewBox="0.00 0.00 305.50 196.00" xmlns="http://www.w3.org/2000/svg" xmlns:xlink="http://www.w3.org/1999/xlink">
<g id="graph0" class="graph" transform="scale(1 1) rotate(0) translate(4 192)">
<title>JohnsonSystem</title>
<!-- Node1 -->
<g id="node1" class="node"><title>Node1</title>
<polygon fill="#bfbfbf" stroke="black" points="102.5,-56.5 102.5,-75.5 194.5,-75.5 194.5,-56.5 102.5,-56.5"/>
<text text-anchor="middle" x="148.5" y="-63.5" font-family="Helvetica,sans-Serif" font-size="10.00">JohnsonSystem</text>
</g>
<!-- Node4 -->
<g id="node4" class="node"><title>Node4</title>
<g id="a_node4"><a xlink:href="classumontreal_1_1ssj_1_1probdist_1_1JohnsonSBDist.html" target="_top" xlink:title="Extends the class ContinuousDistribution for the Johnson &#160;distribution , ,   with shape parameters &#160;...">
<polygon fill="none" stroke="black" points="0,-0.5 0,-19.5 87,-19.5 87,-0.5 0,-0.5"/>
<text text-anchor="middle" x="43.5" y="-7.5" font-family="Helvetica,sans-Serif" font-size="10.00">JohnsonSBDist</text>
</a>
</g>
</g>
<!-- Node1&#45;&gt;Node4 -->
<g id="edge3" class="edge"><title>Node1&#45;&gt;Node4</title>
<path fill="none" stroke="midnightblue" d="M122.69,-51.7261C103.247,-41.7271 77.1516,-28.3065 60.3282,-19.6545"/>
<polygon fill="midnightblue" stroke="midnightblue" points="121.136,-54.8629 131.63,-56.324 124.338,-48.6379 121.136,-54.8629"/>
</g>
<!-- Node5 -->
<g id="node5" class="node"><title>Node5</title>
<g id="a_node5"><a xlink:href="classumontreal_1_1ssj_1_1probdist_1_1JohnsonSLDist.html" target="_top" xlink:title="Extends the class ContinuousDistribution for the Johnson &#160;distribution (see ,  ). ">
<polygon fill="none" stroke="black" points="105.5,-0.5 105.5,-19.5 191.5,-19.5 191.5,-0.5 105.5,-0.5"/>
<text text-anchor="middle" x="148.5" y="-7.5" font-family="Helvetica,sans-Serif" font-size="10.00">JohnsonSLDist</text>
</a>
</g>
</g>
<!-- Node1&#45;&gt;Node5 -->
<g id="edge4" class="edge"><title>Node1&#45;&gt;Node5</title>
<path fill="none" stroke="midnightblue" d="M148.5,-45.8045C148.5,-36.9102 148.5,-26.7798 148.5,-19.7511"/>
<polygon fill="midnightblue" stroke="midnightblue" points="145,-46.083 148.5,-56.083 152,-46.083 145,-46.083"/>
</g>
<!-- Node6 -->
<g id="node6" class="node"><title>Node6</title>
<g id="a_node6"><a xlink:href="classumontreal_1_1ssj_1_1probdist_1_1JohnsonSUDist.html" target="_top" xlink:title="Extends the class ContinuousDistribution for the Johnson &#160;distribution (see   (page 316))...">
<polygon fill="none" stroke="black" points="209.5,-0.5 209.5,-19.5 297.5,-19.5 297.5,-0.5 209.5,-0.5"/>
<text text-anchor="middle" x="253.5" y="-7.5" font-family="Helvetica,sans-Serif" font-size="10.00">JohnsonSUDist</text>
</a>
</g>
</g>
<!-- Node1&#45;&gt;Node6 -->
<g id="edge5" class="edge"><title>Node1&#45;&gt;Node6</title>
<path fill="none" stroke="midnightblue" d="M174.31,-51.7261C193.753,-41.7271 219.848,-28.3065 236.672,-19.6545"/>
<polygon fill="midnightblue" stroke="midnightblue" points="172.662,-48.6379 165.37,-56.324 175.864,-54.8629 172.662,-48.6379"/>
</g>
<!-- Node2 -->
<g id="node2" class="node"><title>Node2</title>
<g id="a_node2"><a xlink:href="classumontreal_1_1ssj_1_1probdist_1_1ContinuousDistribution.html" target="_top" xlink:title="Classes implementing continuous distributions should inherit from this base class. ">
<polygon fill="none" stroke="black" points="84.5,-112.5 84.5,-131.5 212.5,-131.5 212.5,-112.5 84.5,-112.5"/>
<text text-anchor="middle" x="148.5" y="-119.5" font-family="Helvetica,sans-Serif" font-size="10.00">ContinuousDistribution</text>
</a>
</g>
</g>
<!-- Node2&#45;&gt;Node1 -->
<g id="edge1" class="edge"><title>Node2&#45;&gt;Node1</title>
<path fill="none" stroke="midnightblue" d="M148.5,-101.805C148.5,-92.9102 148.5,-82.7798 148.5,-75.7511"/>
<polygon fill="midnightblue" stroke="midnightblue" points="145,-102.083 148.5,-112.083 152,-102.083 145,-102.083"/>
</g>
<!-- Node3 -->
<g id="node3" class="node"><title>Node3</title>
<g id="a_node3"><a xlink:href="interfaceumontreal_1_1ssj_1_1probdist_1_1Distribution.html" target="_top" xlink:title="This interface should be implemented by all classes supporting discrete and continuous distributions...">
<polygon fill="none" stroke="black" points="111.5,-168.5 111.5,-187.5 185.5,-187.5 185.5,-168.5 111.5,-168.5"/>
<text text-anchor="middle" x="148.5" y="-175.5" font-family="Helvetica,sans-Serif" font-size="10.00">Distribution</text>
</a>
</g>
</g>
<!-- Node3&#45;&gt;Node2 -->
<g id="edge2" class="edge"><title>Node3&#45;&gt;Node2</title>
<path fill="none" stroke="midnightblue" d="M148.5,-157.805C148.5,-148.91 148.5,-138.78 148.5,-131.751"/>
<polygon fill="midnightblue" stroke="midnightblue" points="145,-158.083 148.5,-168.083 152,-158.083 145,-158.083"/>
</g>
</g>
</svg>
