<?xml version="1.0" encoding="UTF-8" standalone="no"?>
<!DOCTYPE svg PUBLIC "-//W3C//DTD SVG 1.1//EN"
 "http://www.w3.org/Graphics/SVG/1.1/DTD/svg11.dtd">
<!-- Generated by graphviz version 2.38.0 (20140413.2041)
 -->
<!-- Title: BSpline Pages: 1 -->
<svg width="362pt" height="127pt"
 viewBox="0.00 0.00 362.00 126.60" xmlns="http://www.w3.org/2000/svg" xmlns:xlink="http://www.w3.org/1999/xlink">
<g id="graph0" class="graph" transform="scale(1 1) rotate(0) translate(4 122.599)">
<title>BSpline</title>
<!-- Node0 -->
<g id="node1" class="node"><title>Node0</title>
<polygon fill="#bfbfbf" stroke="black" points="304,-57.5 304,-76.5 354,-76.5 354,-57.5 304,-57.5"/>
<text text-anchor="middle" x="329" y="-64.5" font-family="Helvetica,sans-Serif" font-size="10.00">BSpline</text>
</g>
<!-- Node1 -->
<g id="node2" class="node"><title>Node1</title>
<g id="a_node2"><a xlink:href="interfaceumontreal_1_1ssj_1_1functions_1_1MathFunction.html" target="_top" xlink:title="This interface should be implemented by classes which represent univariate mathematical functions...">
<polygon fill="none" stroke="black" points="0,-57.5 0,-76.5 76,-76.5 76,-57.5 0,-57.5"/>
<text text-anchor="middle" x="38" y="-64.5" font-family="Helvetica,sans-Serif" font-size="10.00">MathFunction</text>
</a>
</g>
</g>
<!-- Node1&#45;&gt;Node0 -->
<g id="edge1" class="edge"><title>Node1&#45;&gt;Node0</title>
<path fill="none" stroke="midnightblue" d="M61.2729,-82.187C75.1833,-90.7332 93.8452,-100.558 112,-105 179.347,-121.479 201.411,-124.313 268,-105 286.947,-99.5047 305.648,-86.0348 317.009,-76.7051"/>
<polygon fill="midnightblue" stroke="midnightblue" points="62.7769,-78.9943 52.4664,-76.5564 59.0061,-84.892 62.7769,-78.9943"/>
</g>
<!-- Node2 -->
<g id="node3" class="node"><title>Node2</title>
<g id="a_node3"><a xlink:href="interfaceumontreal_1_1ssj_1_1functions_1_1MathFunctionWithIntegral.html" target="_top" xlink:title="Represents a mathematical function whose integral can be computed by the integral(double,double) method. ">
<polygon fill="none" stroke="black" points="126,-76.5 126,-95.5 254,-95.5 254,-76.5 126,-76.5"/>
<text text-anchor="middle" x="190" y="-83.5" font-family="Helvetica,sans-Serif" font-size="10.00">MathFunctionWithIntegral</text>
</a>
</g>
</g>
<!-- Node1&#45;&gt;Node2 -->
<g id="edge3" class="edge"><title>Node1&#45;&gt;Node2</title>
<path fill="none" stroke="midnightblue" d="M86.2855,-72.9895C98.8175,-74.5769 112.551,-76.3164 125.782,-77.9924"/>
<polygon fill="midnightblue" stroke="midnightblue" points="86.4392,-69.4811 76.0787,-71.6966 85.5595,-76.4256 86.4392,-69.4811"/>
</g>
<!-- Node3 -->
<g id="node4" class="node"><title>Node3</title>
<g id="a_node4"><a xlink:href="interfaceumontreal_1_1ssj_1_1functions_1_1MathFunctionWithDerivative.html" target="_top" xlink:title="Represents a mathematical function whose th derivative can be computed using derivative(double,int). ">
<polygon fill="none" stroke="black" points="121.5,-38.5 121.5,-57.5 258.5,-57.5 258.5,-38.5 121.5,-38.5"/>
<text text-anchor="middle" x="190" y="-45.5" font-family="Helvetica,sans-Serif" font-size="10.00">MathFunctionWithDerivative</text>
</a>
</g>
</g>
<!-- Node1&#45;&gt;Node3 -->
<g id="edge5" class="edge"><title>Node1&#45;&gt;Node3</title>
<path fill="none" stroke="midnightblue" d="M86.0597,-61.0391C97.2631,-59.62 109.437,-58.078 121.361,-56.5677"/>
<polygon fill="midnightblue" stroke="midnightblue" points="85.5595,-57.5744 76.0787,-62.3034 86.4392,-64.5189 85.5595,-57.5744"/>
</g>
<!-- Node4 -->
<g id="node5" class="node"><title>Node4</title>
<g id="a_node5"><a xlink:href="interfaceumontreal_1_1ssj_1_1functions_1_1MathFunctionWithFirstDerivative.html" target="_top" xlink:title="Represents a mathematical function whose derivative can be computed using derivative(double). ">
<polygon fill="none" stroke="black" points="112,-0.5 112,-19.5 268,-19.5 268,-0.5 112,-0.5"/>
<text text-anchor="middle" x="190" y="-7.5" font-family="Helvetica,sans-Serif" font-size="10.00">MathFunctionWithFirstDerivative</text>
</a>
</g>
</g>
<!-- Node1&#45;&gt;Node4 -->
<g id="edge7" class="edge"><title>Node1&#45;&gt;Node4</title>
<path fill="none" stroke="midnightblue" d="M63.6153,-52.3102C77.4591,-44.5334 95.2742,-35.3135 112,-29 121.661,-25.3531 132.271,-22.2123 142.443,-19.594"/>
<polygon fill="midnightblue" stroke="midnightblue" points="61.6592,-49.3973 54.7278,-57.4102 65.1433,-55.4687 61.6592,-49.3973"/>
</g>
<!-- Node2&#45;&gt;Node0 -->
<g id="edge2" class="edge"><title>Node2&#45;&gt;Node0</title>
<path fill="none" stroke="midnightblue" d="M264.243,-75.8423C278.604,-73.8505 292.686,-71.8975 303.948,-70.3357"/>
<polygon fill="midnightblue" stroke="midnightblue" points="263.711,-72.3824 254.287,-77.223 264.673,-79.316 263.711,-72.3824"/>
</g>
<!-- Node3&#45;&gt;Node0 -->
<g id="edge4" class="edge"><title>Node3&#45;&gt;Node0</title>
<path fill="none" stroke="midnightblue" d="M268.91,-58.805C281.569,-60.5607 293.792,-62.2558 303.803,-63.6442"/>
<polygon fill="midnightblue" stroke="midnightblue" points="269.083,-55.2957 258.697,-57.3887 268.122,-62.2293 269.083,-55.2957"/>
</g>
<!-- Node4&#45;&gt;Node0 -->
<g id="edge6" class="edge"><title>Node4&#45;&gt;Node0</title>
<path fill="none" stroke="midnightblue" d="M249.7,-22.3706C255.973,-24.3149 262.182,-26.518 268,-29 285.465,-36.4511 303.63,-48.6889 315.333,-57.2581"/>
<polygon fill="midnightblue" stroke="midnightblue" points="250.416,-18.9344 239.837,-19.5254 248.475,-25.6602 250.416,-18.9344"/>
</g>
</g>
</svg>
