<?xml version="1.0" encoding="UTF-8" standalone="no"?>
<!DOCTYPE svg PUBLIC "-//W3C//DTD SVG 1.1//EN"
 "http://www.w3.org/Graphics/SVG/1.1/DTD/svg11.dtd">
<!-- Generated by graphviz version 2.38.0 (20140413.2041)
 -->
<!-- Title: GammaGen Pages: 1 -->
<svg width="449pt" height="196pt"
 viewBox="0.00 0.00 449.00 196.00" xmlns="http://www.w3.org/2000/svg" xmlns:xlink="http://www.w3.org/1999/xlink">
<g id="graph0" class="graph" transform="scale(1 1) rotate(0) translate(4 192)">
<title>GammaGen</title>
<!-- Node0 -->
<g id="node1" class="node"><title>Node0</title>
<polygon fill="#bfbfbf" stroke="black" points="151.5,-112.5 151.5,-131.5 220.5,-131.5 220.5,-112.5 151.5,-112.5"/>
<text text-anchor="middle" x="186" y="-119.5" font-family="Helvetica,sans-Serif" font-size="10.00">GammaGen</text>
</g>
<!-- Node2 -->
<g id="node3" class="node"><title>Node2</title>
<g id="a_node3"><a xlink:href="classumontreal_1_1ssj_1_1randvar_1_1ErlangGen.html" target="_top" xlink:title="This class implements random variate generators for the Erlang distribution with parameters &#160;and ...">
<polygon fill="none" stroke="black" points="25,-56.5 25,-75.5 87,-75.5 87,-56.5 25,-56.5"/>
<text text-anchor="middle" x="56" y="-63.5" font-family="Helvetica,sans-Serif" font-size="10.00">ErlangGen</text>
</a>
</g>
</g>
<!-- Node0&#45;&gt;Node2 -->
<g id="edge2" class="edge"><title>Node0&#45;&gt;Node2</title>
<path fill="none" stroke="midnightblue" d="M155.915,-108.503C131.543,-98.3795 97.86,-84.388 76.5025,-75.5164"/>
<polygon fill="midnightblue" stroke="midnightblue" points="154.823,-111.84 165.401,-112.444 157.509,-105.375 154.823,-111.84"/>
</g>
<!-- Node4 -->
<g id="node5" class="node"><title>Node4</title>
<g id="a_node5"><a xlink:href="classumontreal_1_1ssj_1_1randvar_1_1GammaAcceptanceRejectionGen.html" target="_top" xlink:title="This class implements gamma random variate generators using a method that combines acceptance&#45;rejecti...">
<polygon fill="none" stroke="black" points="105.5,-56.5 105.5,-75.5 266.5,-75.5 266.5,-56.5 105.5,-56.5"/>
<text text-anchor="middle" x="186" y="-63.5" font-family="Helvetica,sans-Serif" font-size="10.00">GammaAcceptanceRejectionGen</text>
</a>
</g>
</g>
<!-- Node0&#45;&gt;Node4 -->
<g id="edge4" class="edge"><title>Node0&#45;&gt;Node4</title>
<path fill="none" stroke="midnightblue" d="M186,-101.805C186,-92.9102 186,-82.7798 186,-75.7511"/>
<polygon fill="midnightblue" stroke="midnightblue" points="182.5,-102.083 186,-112.083 189.5,-102.083 182.5,-102.083"/>
</g>
<!-- Node5 -->
<g id="node6" class="node"><title>Node5</title>
<g id="a_node6"><a xlink:href="classumontreal_1_1ssj_1_1randvar_1_1GammaRejectionLoglogisticGen.html" target="_top" xlink:title="This class implements gamma random variate generators using a rejection method with loglogistic envel...">
<polygon fill="none" stroke="black" points="285,-56.5 285,-75.5 441,-75.5 441,-56.5 285,-56.5"/>
<text text-anchor="middle" x="363" y="-63.5" font-family="Helvetica,sans-Serif" font-size="10.00">GammaRejectionLoglogisticGen</text>
</a>
</g>
</g>
<!-- Node0&#45;&gt;Node5 -->
<g id="edge5" class="edge"><title>Node0&#45;&gt;Node5</title>
<path fill="none" stroke="midnightblue" d="M223.903,-109.436C257.275,-99.2551 305.101,-84.664 335.085,-75.5164"/>
<polygon fill="midnightblue" stroke="midnightblue" points="222.59,-106.178 214.046,-112.444 224.632,-112.873 222.59,-106.178"/>
</g>
<!-- Node1 -->
<g id="node2" class="node"><title>Node1</title>
<g id="a_node2"><a xlink:href="classumontreal_1_1ssj_1_1randvar_1_1RandomVariateGen.html" target="_top" xlink:title="This is the base class for all random variate generators over the real line. ">
<polygon fill="none" stroke="black" points="135.5,-168.5 135.5,-187.5 236.5,-187.5 236.5,-168.5 135.5,-168.5"/>
<text text-anchor="middle" x="186" y="-175.5" font-family="Helvetica,sans-Serif" font-size="10.00">RandomVariateGen</text>
</a>
</g>
</g>
<!-- Node1&#45;&gt;Node0 -->
<g id="edge1" class="edge"><title>Node1&#45;&gt;Node0</title>
<path fill="none" stroke="midnightblue" d="M186,-157.805C186,-148.91 186,-138.78 186,-131.751"/>
<polygon fill="midnightblue" stroke="midnightblue" points="182.5,-158.083 186,-168.083 189.5,-158.083 182.5,-158.083"/>
</g>
<!-- Node3 -->
<g id="node4" class="node"><title>Node3</title>
<g id="a_node4"><a xlink:href="classumontreal_1_1ssj_1_1randvar_1_1ErlangConvolutionGen.html" target="_top" xlink:title="This class implements Erlang random variate generators using the convolution method. ">
<polygon fill="none" stroke="black" points="0,-0.5 0,-19.5 112,-19.5 112,-0.5 0,-0.5"/>
<text text-anchor="middle" x="56" y="-7.5" font-family="Helvetica,sans-Serif" font-size="10.00">ErlangConvolutionGen</text>
</a>
</g>
</g>
<!-- Node2&#45;&gt;Node3 -->
<g id="edge3" class="edge"><title>Node2&#45;&gt;Node3</title>
<path fill="none" stroke="midnightblue" d="M56,-45.8045C56,-36.9102 56,-26.7798 56,-19.7511"/>
<polygon fill="midnightblue" stroke="midnightblue" points="52.5001,-46.083 56,-56.083 59.5001,-46.083 52.5001,-46.083"/>
</g>
</g>
</svg>
