<?xml version="1.0" encoding="UTF-8" standalone="no"?>
<!DOCTYPE svg PUBLIC "-//W3C//DTD SVG 1.1//EN"
 "http://www.w3.org/Graphics/SVG/1.1/DTD/svg11.dtd">
<!-- Generated by graphviz version 2.38.0 (20140413.2041)
 -->
<!-- Title: MarkovChainDouble Pages: 1 -->
<svg width="250pt" height="277pt"
 viewBox="0.00 0.00 249.50 277.00" xmlns="http://www.w3.org/2000/svg" xmlns:xlink="http://www.w3.org/1999/xlink">
<g id="graph0" class="graph" transform="scale(1 1) rotate(0) translate(4 273)">
<title>MarkovChainDouble</title>
<!-- Node5 -->
<g id="node1" class="node"><title>Node5</title>
<polygon fill="#bfbfbf" stroke="black" points="87.5,-0.5 87.5,-19.5 189.5,-19.5 189.5,-0.5 87.5,-0.5"/>
<text text-anchor="middle" x="138.5" y="-7.5" font-family="Helvetica,sans-Serif" font-size="10.00">MarkovChainDouble</text>
</g>
<!-- Node6 -->
<g id="node2" class="node"><title>Node6</title>
<g id="a_node2"><a xlink:href="classumontreal_1_1ssj_1_1markovchainrqmc_1_1MarkovChainComparable.html" target="_top" xlink:title="A subclass of MarkovChain for which there is a total ordering between the states, induced by the impl...">
<polygon fill="none" stroke="black" points="76.5,-57.5 76.5,-76.5 200.5,-76.5 200.5,-57.5 76.5,-57.5"/>
<text text-anchor="middle" x="138.5" y="-64.5" font-family="Helvetica,sans-Serif" font-size="10.00">MarkovChainComparable</text>
</a>
</g>
</g>
<!-- Node6&#45;&gt;Node5 -->
<g id="edge1" class="edge"><title>Node6&#45;&gt;Node5</title>
<path fill="none" stroke="midnightblue" d="M138.5,-47.1166C138.5,-37.8173 138.5,-27.0557 138.5,-19.7149"/>
<polygon fill="midnightblue" stroke="midnightblue" points="135,-47.4062 138.5,-57.4063 142,-47.4063 135,-47.4062"/>
</g>
<!-- Node7 -->
<g id="node3" class="node"><title>Node7</title>
<g id="a_node3"><a xlink:href="classumontreal_1_1ssj_1_1markovchainrqmc_1_1MarkovChain.html" target="_top" xlink:title="This class defines a generic Markov chain and provides basic tools to simulate it for a given number ...">
<polygon fill="none" stroke="black" points="9.5,-120 9.5,-139 81.5,-139 81.5,-120 9.5,-120"/>
<text text-anchor="middle" x="45.5" y="-127" font-family="Helvetica,sans-Serif" font-size="10.00">MarkovChain</text>
</a>
</g>
</g>
<!-- Node7&#45;&gt;Node6 -->
<g id="edge2" class="edge"><title>Node7&#45;&gt;Node6</title>
<path fill="none" stroke="midnightblue" d="M67.4925,-114.193C85.4213,-102.53 110.156,-86.4391 125.2,-76.6521"/>
<polygon fill="midnightblue" stroke="midnightblue" points="65.2984,-111.445 58.8246,-119.832 69.1156,-117.313 65.2984,-111.445"/>
</g>
<!-- Node8 -->
<g id="node4" class="node"><title>Node8</title>
<polygon fill="none" stroke="#bfbfbf" points="0,-192.5 0,-211.5 59,-211.5 59,-192.5 0,-192.5"/>
<text text-anchor="middle" x="29.5" y="-199.5" font-family="Helvetica,sans-Serif" font-size="10.00">Cloneable</text>
</g>
<!-- Node8&#45;&gt;Node7 -->
<g id="edge3" class="edge"><title>Node8&#45;&gt;Node7</title>
<path fill="none" stroke="midnightblue" d="M33.7308,-182.358C36.8996,-168.395 41.0912,-149.926 43.522,-139.215"/>
<polygon fill="midnightblue" stroke="midnightblue" points="30.262,-181.829 31.4619,-192.355 37.0884,-183.378 30.262,-181.829"/>
</g>
<!-- Node9 -->
<g id="node5" class="node"><title>Node9</title>
<g id="a_node5"><a xlink:href="classumontreal_1_1ssj_1_1util_1_1Chrono.html" target="_top" xlink:title="The Chrono class extends the umontreal.ssj.util.AbstractChrono class and computes the CPU time for th...">
<polygon fill="none" stroke="black" points="77,-192.5 77,-211.5 124,-211.5 124,-192.5 77,-192.5"/>
<text text-anchor="middle" x="100.5" y="-199.5" font-family="Helvetica,sans-Serif" font-size="10.00">Chrono</text>
</a>
</g>
</g>
<!-- Node9&#45;&gt;Node7 -->
<g id="edge4" class="edge"><title>Node9&#45;&gt;Node7</title>
<path fill="none" stroke="#9a32cd" stroke-dasharray="5,2" d="M87.5474,-184.397C76.5053,-170.243 61.069,-150.457 52.2992,-139.215"/>
<polygon fill="#9a32cd" stroke="#9a32cd" points="84.8453,-186.624 93.7559,-192.355 90.3644,-182.318 84.8453,-186.624"/>
<text text-anchor="middle" x="91" y="-166" font-family="Helvetica,sans-Serif" font-size="10.00"> timer</text>
</g>
<!-- Node10 -->
<g id="node6" class="node"><title>Node10</title>
<g id="a_node6"><a xlink:href="classumontreal_1_1ssj_1_1util_1_1AbstractChrono.html" target="_top" xlink:title="AbstractChrono is a class that acts as an interface to the system clock and calculates the CPU or sys...">
<polygon fill="none" stroke="black" points="58.5,-249.5 58.5,-268.5 142.5,-268.5 142.5,-249.5 58.5,-249.5"/>
<text text-anchor="middle" x="100.5" y="-256.5" font-family="Helvetica,sans-Serif" font-size="10.00">AbstractChrono</text>
</a>
</g>
</g>
<!-- Node10&#45;&gt;Node9 -->
<g id="edge5" class="edge"><title>Node10&#45;&gt;Node9</title>
<path fill="none" stroke="midnightblue" d="M100.5,-239.117C100.5,-229.817 100.5,-219.056 100.5,-211.715"/>
<polygon fill="midnightblue" stroke="midnightblue" points="97.0001,-239.406 100.5,-249.406 104,-239.406 97.0001,-239.406"/>
</g>
<!-- Node11 -->
<g id="node7" class="node"><title>Node11</title>
<g id="a_node7"><a xlink:href="interfaceumontreal_1_1ssj_1_1util_1_1sort_1_1MultiDimComparable.html" target="_top" xlink:title="This interface is an extension (or variant) of the Comparable interface in Java. ">
<polygon fill="none" stroke="black" points="99.5,-114.5 99.5,-144.5 241.5,-144.5 241.5,-114.5 99.5,-114.5"/>
<text text-anchor="start" x="107.5" y="-132.5" font-family="Helvetica,sans-Serif" font-size="10.00">MultiDimComparable</text>
<text text-anchor="middle" x="170.5" y="-121.5" font-family="Helvetica,sans-Serif" font-size="10.00">&lt; MarkovChainComparable &gt;</text>
</a>
</g>
</g>
<!-- Node11&#45;&gt;Node6 -->
<g id="edge6" class="edge"><title>Node11&#45;&gt;Node6</title>
<path fill="none" stroke="midnightblue" d="M158.389,-105.603C153.01,-95.4335 147.007,-84.0832 143.017,-76.5399"/>
<polygon fill="midnightblue" stroke="midnightblue" points="155.309,-107.265 163.078,-114.468 161.496,-103.992 155.309,-107.265"/>
</g>
</g>
</svg>
