<?xml version="1.0" encoding="UTF-8" standalone="no"?>
<!DOCTYPE svg PUBLIC "-//W3C//DTD SVG 1.1//EN"
 "http://www.w3.org/Graphics/SVG/1.1/DTD/svg11.dtd">
<!-- Generated by graphviz version 2.26.3 (20100126.1600)
 -->
<!-- Title: LognormalDist Pages: 1 -->
<svg width="150pt" height="204pt"
 viewBox="0.00 0.00 150.00 204.00" xmlns="http://www.w3.org/2000/svg" xmlns:xlink="http://www.w3.org/1999/xlink">
<g id="graph1" class="graph" transform="scale(1 1) rotate(0) translate(4 200)">
<title>LognormalDist</title>
<!-- Node1 -->
<g id="node1" class="node"><title>Node1</title>
<polygon fill="#bfbfbf" stroke="black" points="31.5,-59 31.5,-79 110.5,-79 110.5,-59 31.5,-59"/>
<text text-anchor="middle" x="71" y="-66" font-family="Helvetica,sans-Serif" font-size="10.00">LognormalDist</text>
</g>
<!-- Node4 -->
<g id="node7" class="node"><title>Node4</title>
<a xlink:href="classumontreal_1_1ssj_1_1probdist_1_1LognormalDistFromMoments.html" target="_top" xlink:title="Extends the LognormalDist class with a constructor accepting the mean &#160;and the variance &#160;of the distr...">
<polygon fill="none" stroke="black" points="0,-1 0,-21 142,-21 142,-1 0,-1"/>
<text text-anchor="middle" x="71" y="-8" font-family="Helvetica,sans-Serif" font-size="10.00">LognormalDistFromMoments</text>
</a>
</g>
<!-- Node1&#45;&gt;Node4 -->
<g id="edge6" class="edge"><title>Node1&#45;&gt;Node4</title>
<path fill="none" stroke="midnightblue" d="M71,-48.8902C71,-39.6201 71,-29.0083 71,-21.3776"/>
<polygon fill="midnightblue" stroke="midnightblue" points="67.5001,-48.8971 71,-58.8972 74.5001,-48.8972 67.5001,-48.8971"/>
</g>
<!-- Node2 -->
<g id="node2" class="node"><title>Node2</title>
<a xlink:href="classumontreal_1_1ssj_1_1probdist_1_1ContinuousDistribution.html" target="_top" xlink:title="Classes implementing continuous distributions should inherit from this base class. ">
<polygon fill="none" stroke="black" points="14,-117 14,-137 128,-137 128,-117 14,-117"/>
<text text-anchor="middle" x="71" y="-124" font-family="Helvetica,sans-Serif" font-size="10.00">ContinuousDistribution</text>
</a>
</g>
<!-- Node2&#45;&gt;Node1 -->
<g id="edge2" class="edge"><title>Node2&#45;&gt;Node1</title>
<path fill="none" stroke="midnightblue" d="M71,-106.89C71,-97.6201 71,-87.0083 71,-79.3776"/>
<polygon fill="midnightblue" stroke="midnightblue" points="67.5001,-106.897 71,-116.897 74.5001,-106.897 67.5001,-106.897"/>
</g>
<!-- Node3 -->
<g id="node4" class="node"><title>Node3</title>
<a xlink:href="interfaceumontreal_1_1ssj_1_1probdist_1_1Distribution.html" target="_top" xlink:title="This interface should be implemented by all classes supporting discrete and continuous distributions...">
<polygon fill="none" stroke="black" points="38.5,-175 38.5,-195 103.5,-195 103.5,-175 38.5,-175"/>
<text text-anchor="middle" x="71" y="-182" font-family="Helvetica,sans-Serif" font-size="10.00">Distribution</text>
</a>
</g>
<!-- Node3&#45;&gt;Node2 -->
<g id="edge4" class="edge"><title>Node3&#45;&gt;Node2</title>
<path fill="none" stroke="midnightblue" d="M71,-164.89C71,-155.62 71,-145.008 71,-137.378"/>
<polygon fill="midnightblue" stroke="midnightblue" points="67.5001,-164.897 71,-174.897 74.5001,-164.897 67.5001,-164.897"/>
</g>
</g>
</svg>
