<?xml version="1.0" encoding="UTF-8" standalone="no"?>
<!DOCTYPE svg PUBLIC "-//W3C//DTD SVG 1.1//EN"
 "http://www.w3.org/Graphics/SVG/1.1/DTD/svg11.dtd">
<!-- Generated by graphviz version 2.38.0 (20140413.2041)
 -->
<!-- Title: ContainerPointSet Pages: 1 -->
<svg width="403pt" height="140pt"
 viewBox="0.00 0.00 403.00 140.00" xmlns="http://www.w3.org/2000/svg" xmlns:xlink="http://www.w3.org/1999/xlink">
<g id="graph0" class="graph" transform="scale(1 1) rotate(0) translate(4 136)">
<title>ContainerPointSet</title>
<!-- Node0 -->
<g id="node1" class="node"><title>Node0</title>
<polygon fill="#bfbfbf" stroke="black" points="132,-56.5 132,-75.5 227,-75.5 227,-56.5 132,-56.5"/>
<text text-anchor="middle" x="179.5" y="-63.5" font-family="Helvetica,sans-Serif" font-size="10.00">ContainerPointSet</text>
</g>
<!-- Node2 -->
<g id="node3" class="node"><title>Node2</title>
<g id="a_node3"><a xlink:href="classumontreal_1_1ssj_1_1hups_1_1AntitheticPointSet.html" target="_top" xlink:title="This container class provides antithetic versions of the contained points. ">
<polygon fill="none" stroke="black" points="0,-0.5 0,-19.5 95,-19.5 95,-0.5 0,-0.5"/>
<text text-anchor="middle" x="47.5" y="-7.5" font-family="Helvetica,sans-Serif" font-size="10.00">AntitheticPointSet</text>
</a>
</g>
</g>
<!-- Node0&#45;&gt;Node2 -->
<g id="edge2" class="edge"><title>Node0&#45;&gt;Node2</title>
<path fill="none" stroke="midnightblue" d="M149.281,-52.6377C124.51,-42.504 90.1004,-28.4274 68.3179,-19.5164"/>
<polygon fill="midnightblue" stroke="midnightblue" points="148.003,-55.8966 158.584,-56.4435 150.654,-49.4177 148.003,-55.8966"/>
</g>
<!-- Node3 -->
<g id="node4" class="node"><title>Node3</title>
<g id="a_node4"><a xlink:href="classumontreal_1_1ssj_1_1hups_1_1BakerTransformedPointSet.html" target="_top" xlink:title="This container class embodies a point set to which a baker&#39;s transformation (also called a tent trans...">
<polygon fill="none" stroke="black" points="113,-0.5 113,-19.5 246,-19.5 246,-0.5 113,-0.5"/>
<text text-anchor="middle" x="179.5" y="-7.5" font-family="Helvetica,sans-Serif" font-size="10.00">BakerTransformedPointSet</text>
</a>
</g>
</g>
<!-- Node0&#45;&gt;Node3 -->
<g id="edge3" class="edge"><title>Node0&#45;&gt;Node3</title>
<path fill="none" stroke="midnightblue" d="M179.5,-45.8045C179.5,-36.9102 179.5,-26.7798 179.5,-19.7511"/>
<polygon fill="midnightblue" stroke="midnightblue" points="176,-46.083 179.5,-56.083 183,-46.083 176,-46.083"/>
</g>
<!-- Node4 -->
<g id="node5" class="node"><title>Node4</title>
<g id="a_node5"><a xlink:href="classumontreal_1_1ssj_1_1hups_1_1RandShiftedMod1PointSet.html" target="_top" xlink:title="This container class embodies an arbitrary point set and its iterator adds a random shift modulo 1 to...">
<polygon fill="none" stroke="black" points="264,-0.5 264,-19.5 395,-19.5 395,-0.5 264,-0.5"/>
<text text-anchor="middle" x="329.5" y="-7.5" font-family="Helvetica,sans-Serif" font-size="10.00">RandShiftedMod1PointSet</text>
</a>
</g>
</g>
<!-- Node0&#45;&gt;Node4 -->
<g id="edge4" class="edge"><title>Node0&#45;&gt;Node4</title>
<path fill="none" stroke="midnightblue" d="M212.725,-53.0392C240.948,-42.8786 280.762,-28.5457 305.843,-19.5164"/>
<polygon fill="midnightblue" stroke="midnightblue" points="211.491,-49.7632 203.268,-56.4435 213.862,-56.3494 211.491,-49.7632"/>
</g>
<!-- Node1 -->
<g id="node2" class="node"><title>Node1</title>
<g id="a_node2"><a xlink:href="classumontreal_1_1ssj_1_1hups_1_1PointSet.html" target="_top" xlink:title="This abstract class represents a general point set. ">
<polygon fill="none" stroke="black" points="152.5,-112.5 152.5,-131.5 206.5,-131.5 206.5,-112.5 152.5,-112.5"/>
<text text-anchor="middle" x="179.5" y="-119.5" font-family="Helvetica,sans-Serif" font-size="10.00">PointSet</text>
</a>
</g>
</g>
<!-- Node1&#45;&gt;Node0 -->
<g id="edge1" class="edge"><title>Node1&#45;&gt;Node0</title>
<path fill="none" stroke="midnightblue" d="M179.5,-101.805C179.5,-92.9102 179.5,-82.7798 179.5,-75.7511"/>
<polygon fill="midnightblue" stroke="midnightblue" points="176,-102.083 179.5,-112.083 183,-102.083 176,-102.083"/>
</g>
</g>
</svg>
