<?xml version="1.0" encoding="UTF-8" standalone="no"?>
<!DOCTYPE svg PUBLIC "-//W3C//DTD SVG 1.1//EN"
 "http://www.w3.org/Graphics/SVG/1.1/DTD/svg11.dtd">
<!-- Generated by graphviz version 2.38.0 (20140413.2041)
 -->
<!-- Title: DiscreteDistributionInt Pages: 1 -->
<svg width="484pt" height="294pt"
 viewBox="0.00 0.00 484.00 294.00" xmlns="http://www.w3.org/2000/svg" xmlns:xlink="http://www.w3.org/1999/xlink">
<g id="graph0" class="graph" transform="scale(1 1) rotate(0) translate(4 290)">
<title>DiscreteDistributionInt</title>
<!-- Node0 -->
<g id="node1" class="node"><title>Node0</title>
<polygon fill="#bfbfbf" stroke="black" points="101,-133.5 101,-152.5 213,-152.5 213,-133.5 101,-133.5"/>
<text text-anchor="middle" x="157" y="-140.5" font-family="Helvetica,sans-Serif" font-size="10.00">DiscreteDistributionInt</text>
</g>
<!-- Node2 -->
<g id="node3" class="node"><title>Node2</title>
<g id="a_node3"><a xlink:href="classumontreal_1_1ssj_1_1probdist_1_1BernoulliDist.html" target="_top" xlink:title="Extends the class DiscreteDistributionInt for the Bernoulli distribution   with parameter ...">
<polygon fill="none" stroke="black" points="267.5,-266.5 267.5,-285.5 338.5,-285.5 338.5,-266.5 267.5,-266.5"/>
<text text-anchor="middle" x="303" y="-273.5" font-family="Helvetica,sans-Serif" font-size="10.00">BernoulliDist</text>
</a>
</g>
</g>
<!-- Node0&#45;&gt;Node2 -->
<g id="edge2" class="edge"><title>Node0&#45;&gt;Node2</title>
<path fill="none" stroke="midnightblue" d="M168.342,-161.607C183.139,-186.634 212.627,-230.996 249,-257 254.487,-260.923 260.866,-264.111 267.258,-266.676"/>
<polygon fill="midnightblue" stroke="midnightblue" points="171.266,-159.671 163.244,-152.75 165.199,-163.163 171.266,-159.671"/>
</g>
<!-- Node3 -->
<g id="node4" class="node"><title>Node3</title>
<g id="a_node4"><a xlink:href="classumontreal_1_1ssj_1_1probdist_1_1BinomialDist.html" target="_top" xlink:title="Extends the class DiscreteDistributionInt for the binomial distribution   (page 321) with parameters...">
<polygon fill="none" stroke="black" points="267.5,-228.5 267.5,-247.5 338.5,-247.5 338.5,-228.5 267.5,-228.5"/>
<text text-anchor="middle" x="303" y="-235.5" font-family="Helvetica,sans-Serif" font-size="10.00">BinomialDist</text>
</a>
</g>
</g>
<!-- Node0&#45;&gt;Node3 -->
<g id="edge3" class="edge"><title>Node0&#45;&gt;Node3</title>
<path fill="none" stroke="midnightblue" d="M174.786,-160.193C192.073,-177.089 220.447,-202.651 249,-219 255.362,-222.643 262.545,-225.782 269.523,-228.4"/>
<polygon fill="midnightblue" stroke="midnightblue" points="176.793,-157.251 167.238,-152.672 171.852,-162.21 176.793,-157.251"/>
</g>
<!-- Node4 -->
<g id="node5" class="node"><title>Node4</title>
<g id="a_node5"><a xlink:href="classumontreal_1_1ssj_1_1probdist_1_1GeometricDist.html" target="_top" xlink:title="Extends the class DiscreteDistributionInt for the geometric distribution   (page 322) with parameter...">
<polygon fill="none" stroke="black" points="263.5,-190.5 263.5,-209.5 342.5,-209.5 342.5,-190.5 263.5,-190.5"/>
<text text-anchor="middle" x="303" y="-197.5" font-family="Helvetica,sans-Serif" font-size="10.00">GeometricDist</text>
</a>
</g>
</g>
<!-- Node0&#45;&gt;Node4 -->
<g id="edge4" class="edge"><title>Node0&#45;&gt;Node4</title>
<path fill="none" stroke="midnightblue" d="M189.611,-156.67C207.041,-164.088 229.118,-173.291 249,-181 257.202,-184.18 266.188,-187.473 274.392,-190.406"/>
<polygon fill="midnightblue" stroke="midnightblue" points="190.509,-153.247 179.938,-152.533 187.756,-159.683 190.509,-153.247"/>
</g>
<!-- Node5 -->
<g id="node6" class="node"><title>Node5</title>
<g id="a_node6"><a xlink:href="classumontreal_1_1ssj_1_1probdist_1_1HypergeometricDist.html" target="_top" xlink:title="Extends the class DiscreteDistributionInt for the hypergeometric distribution   (page 101) with &#160;ele...">
<polygon fill="none" stroke="black" points="252,-152.5 252,-171.5 354,-171.5 354,-152.5 252,-152.5"/>
<text text-anchor="middle" x="303" y="-159.5" font-family="Helvetica,sans-Serif" font-size="10.00">HypergeometricDist</text>
</a>
</g>
</g>
<!-- Node0&#45;&gt;Node5 -->
<g id="edge5" class="edge"><title>Node0&#45;&gt;Node5</title>
<path fill="none" stroke="midnightblue" d="M223.195,-151.602C232.811,-152.871 242.59,-154.161 251.838,-155.381"/>
<polygon fill="midnightblue" stroke="midnightblue" points="223.634,-148.13 213.262,-150.292 222.719,-155.07 223.634,-148.13"/>
</g>
<!-- Node6 -->
<g id="node7" class="node"><title>Node6</title>
<g id="a_node7"><a xlink:href="classumontreal_1_1ssj_1_1probdist_1_1LogarithmicDist.html" target="_top" xlink:title="Extends the class DiscreteDistributionInt for the logarithmic distribution. ">
<polygon fill="none" stroke="black" points="261,-114.5 261,-133.5 345,-133.5 345,-114.5 261,-114.5"/>
<text text-anchor="middle" x="303" y="-121.5" font-family="Helvetica,sans-Serif" font-size="10.00">LogarithmicDist</text>
</a>
</g>
</g>
<!-- Node0&#45;&gt;Node6 -->
<g id="edge6" class="edge"><title>Node0&#45;&gt;Node6</title>
<path fill="none" stroke="midnightblue" d="M223.423,-134.368C236.205,-132.681 249.266,-130.958 260.976,-129.413"/>
<polygon fill="midnightblue" stroke="midnightblue" points="222.719,-130.93 213.262,-135.708 223.634,-137.87 222.719,-130.93"/>
</g>
<!-- Node7 -->
<g id="node8" class="node"><title>Node7</title>
<g id="a_node8"><a xlink:href="classumontreal_1_1ssj_1_1probdist_1_1NegativeBinomialDist.html" target="_top" xlink:title="Extends the class DiscreteDistributionInt for the negative binomial distribution   (page 324) with r...">
<polygon fill="none" stroke="black" points="249,-76.5 249,-95.5 357,-95.5 357,-76.5 249,-76.5"/>
<text text-anchor="middle" x="303" y="-83.5" font-family="Helvetica,sans-Serif" font-size="10.00">NegativeBinomialDist</text>
</a>
</g>
</g>
<!-- Node0&#45;&gt;Node7 -->
<g id="edge7" class="edge"><title>Node0&#45;&gt;Node7</title>
<path fill="none" stroke="midnightblue" d="M189.611,-129.33C207.041,-121.912 229.118,-112.709 249,-105 257.202,-101.82 266.188,-98.5271 274.392,-95.5944"/>
<polygon fill="midnightblue" stroke="midnightblue" points="187.756,-126.317 179.938,-133.467 190.509,-132.753 187.756,-126.317"/>
</g>
<!-- Node9 -->
<g id="node10" class="node"><title>Node9</title>
<g id="a_node10"><a xlink:href="classumontreal_1_1ssj_1_1probdist_1_1PoissonDist.html" target="_top" xlink:title="Extends the class DiscreteDistributionInt for the Poisson distribution   (page 325) with mean ...">
<polygon fill="none" stroke="black" points="268.5,-38.5 268.5,-57.5 337.5,-57.5 337.5,-38.5 268.5,-38.5"/>
<text text-anchor="middle" x="303" y="-45.5" font-family="Helvetica,sans-Serif" font-size="10.00">PoissonDist</text>
</a>
</g>
</g>
<!-- Node0&#45;&gt;Node9 -->
<g id="edge9" class="edge"><title>Node0&#45;&gt;Node9</title>
<path fill="none" stroke="midnightblue" d="M174.786,-125.807C192.073,-108.911 220.447,-83.3488 249,-67 255.362,-63.3572 262.545,-60.2181 269.523,-57.6002"/>
<polygon fill="midnightblue" stroke="midnightblue" points="171.852,-123.79 167.238,-133.328 176.793,-128.749 171.852,-123.79"/>
</g>
<!-- Node10 -->
<g id="node11" class="node"><title>Node10</title>
<g id="a_node11"><a xlink:href="classumontreal_1_1ssj_1_1probdist_1_1UniformIntDist.html" target="_top" xlink:title="Extends the class DiscreteDistributionInt for the discrete uniform distribution over the range ...">
<polygon fill="none" stroke="black" points="264.5,-0.5 264.5,-19.5 341.5,-19.5 341.5,-0.5 264.5,-0.5"/>
<text text-anchor="middle" x="303" y="-7.5" font-family="Helvetica,sans-Serif" font-size="10.00">UniformIntDist</text>
</a>
</g>
</g>
<!-- Node0&#45;&gt;Node10 -->
<g id="edge10" class="edge"><title>Node0&#45;&gt;Node10</title>
<path fill="none" stroke="midnightblue" d="M168.342,-124.393C183.139,-99.3661 212.627,-55.0041 249,-29 254.328,-25.1912 260.497,-22.0746 266.702,-19.5488"/>
<polygon fill="midnightblue" stroke="midnightblue" points="165.199,-122.837 163.244,-133.25 171.266,-126.329 165.199,-122.837"/>
</g>
<!-- Node1 -->
<g id="node2" class="node"><title>Node1</title>
<g id="a_node2"><a xlink:href="interfaceumontreal_1_1ssj_1_1probdist_1_1Distribution.html" target="_top" xlink:title="This interface should be implemented by all classes supporting discrete and continuous distributions...">
<polygon fill="none" stroke="black" points="0,-133.5 0,-152.5 65,-152.5 65,-133.5 0,-133.5"/>
<text text-anchor="middle" x="32.5" y="-140.5" font-family="Helvetica,sans-Serif" font-size="10.00">Distribution</text>
</a>
</g>
</g>
<!-- Node1&#45;&gt;Node0 -->
<g id="edge1" class="edge"><title>Node1&#45;&gt;Node0</title>
<path fill="none" stroke="midnightblue" d="M75.1571,-143C83.4035,-143 92.1796,-143 100.795,-143"/>
<polygon fill="midnightblue" stroke="midnightblue" points="75.0468,-139.5 65.0468,-143 75.0468,-146.5 75.0468,-139.5"/>
</g>
<!-- Node8 -->
<g id="node9" class="node"><title>Node8</title>
<g id="a_node9"><a xlink:href="classumontreal_1_1ssj_1_1probdist_1_1PascalDist.html" target="_top" xlink:title="The Pascal distribution is a special case of the negative binomial distribution   (page 324) with pa...">
<polygon fill="none" stroke="black" points="402.5,-76.5 402.5,-95.5 466.5,-95.5 466.5,-76.5 402.5,-76.5"/>
<text text-anchor="middle" x="434.5" y="-83.5" font-family="Helvetica,sans-Serif" font-size="10.00">PascalDist</text>
</a>
</g>
</g>
<!-- Node7&#45;&gt;Node8 -->
<g id="edge8" class="edge"><title>Node7&#45;&gt;Node8</title>
<path fill="none" stroke="midnightblue" d="M367.224,-86C379.405,-86 391.658,-86 402.257,-86"/>
<polygon fill="midnightblue" stroke="midnightblue" points="367.046,-82.5001 357.046,-86 367.046,-89.5001 367.046,-82.5001"/>
</g>
<!-- Node11 -->
<g id="node12" class="node"><title>Node11</title>
<g id="a_node12"><a xlink:href="classumontreal_1_1ssj_1_1probdist_1_1ConstantIntDist.html" target="_top" xlink:title="Represents a constant discrete distribution taking a single integer value with probability 1...">
<polygon fill="none" stroke="black" points="393,-0.5 393,-19.5 476,-19.5 476,-0.5 393,-0.5"/>
<text text-anchor="middle" x="434.5" y="-7.5" font-family="Helvetica,sans-Serif" font-size="10.00">ConstantIntDist</text>
</a>
</g>
</g>
<!-- Node10&#45;&gt;Node11 -->
<g id="edge11" class="edge"><title>Node10&#45;&gt;Node11</title>
<path fill="none" stroke="midnightblue" d="M351.828,-10C365.257,-10 379.729,-10 392.707,-10"/>
<polygon fill="midnightblue" stroke="midnightblue" points="351.805,-6.5001 341.805,-10 351.805,-13.5001 351.805,-6.5001"/>
</g>
</g>
</svg>
