<?xml version="1.0" encoding="UTF-8" standalone="no"?>
<!DOCTYPE svg PUBLIC "-//W3C//DTD SVG 1.1//EN"
 "http://www.w3.org/Graphics/SVG/1.1/DTD/svg11.dtd">
<!-- Generated by graphviz version 2.26.3 (20100126.1600)
 -->
<!-- Title: ContinuousDistributionMulti Pages: 1 -->
<svg width="427pt" height="204pt"
 viewBox="0.00 0.00 427.00 204.00" xmlns="http://www.w3.org/2000/svg" xmlns:xlink="http://www.w3.org/1999/xlink">
<g id="graph1" class="graph" transform="scale(1 1) rotate(0) translate(4 200)">
<title>ContinuousDistributionMulti</title>
<!-- Node1 -->
<g id="node1" class="node"><title>Node1</title>
<polygon fill="#bfbfbf" stroke="black" points="213.5,-175 213.5,-195 348.5,-195 348.5,-175 213.5,-175"/>
<text text-anchor="middle" x="281" y="-182" font-family="Helvetica,sans-Serif" font-size="10.00">ContinuousDistributionMulti</text>
</g>
<!-- Node2 -->
<g id="node3" class="node"><title>Node2</title>
<a xlink:href="classumontreal_1_1ssj_1_1probdistmulti_1_1ContinuousDistribution2Dim.html" target="_top" xlink:title="Classes implementing 2&#45;dimensional continuous distributions should inherit from this class...">
<polygon fill="none" stroke="black" points="92.5,-117 92.5,-137 229.5,-137 229.5,-117 92.5,-117"/>
<text text-anchor="middle" x="161" y="-124" font-family="Helvetica,sans-Serif" font-size="10.00">ContinuousDistribution2Dim</text>
</a>
</g>
<!-- Node1&#45;&gt;Node2 -->
<g id="edge2" class="edge"><title>Node1&#45;&gt;Node2</title>
<path fill="none" stroke="midnightblue" d="M251.071,-170.535C229.596,-160.155 201.188,-146.424 182.066,-137.182"/>
<polygon fill="midnightblue" stroke="midnightblue" points="249.571,-173.697 260.098,-174.897 252.617,-167.394 249.571,-173.697"/>
</g>
<!-- Node7 -->
<g id="node13" class="node"><title>Node7</title>
<a xlink:href="classumontreal_1_1ssj_1_1probdistmulti_1_1DirichletDist.html" target="_top" xlink:title="Implements the abstract class ContinuousDistributionMulti for the Dirichlet distribution with paramet...">
<polygon fill="none" stroke="black" points="246.5,-117 246.5,-137 315.5,-137 315.5,-117 246.5,-117"/>
<text text-anchor="middle" x="281" y="-124" font-family="Helvetica,sans-Serif" font-size="10.00">DirichletDist</text>
</a>
</g>
<!-- Node1&#45;&gt;Node7 -->
<g id="edge12" class="edge"><title>Node1&#45;&gt;Node7</title>
<path fill="none" stroke="midnightblue" d="M281,-164.89C281,-155.62 281,-145.008 281,-137.378"/>
<polygon fill="midnightblue" stroke="midnightblue" points="277.5,-164.897 281,-174.897 284.5,-164.897 277.5,-164.897"/>
</g>
<!-- Node8 -->
<g id="node15" class="node"><title>Node8</title>
<a xlink:href="classumontreal_1_1ssj_1_1probdistmulti_1_1MultiNormalDist.html" target="_top" xlink:title="Implements the abstract class ContinuousDistributionMulti for the multinormal distribution with mean ...">
<polygon fill="none" stroke="black" points="333,-117 333,-137 419,-137 419,-117 333,-117"/>
<text text-anchor="middle" x="376" y="-124" font-family="Helvetica,sans-Serif" font-size="10.00">MultiNormalDist</text>
</a>
</g>
<!-- Node1&#45;&gt;Node8 -->
<g id="edge14" class="edge"><title>Node1&#45;&gt;Node8</title>
<path fill="none" stroke="midnightblue" d="M306.31,-169.547C323.1,-159.297 344.66,-146.134 359.323,-137.182"/>
<polygon fill="midnightblue" stroke="midnightblue" points="304.259,-166.699 297.548,-174.897 307.907,-172.674 304.259,-166.699"/>
</g>
<!-- Node3 -->
<g id="node5" class="node"><title>Node3</title>
<a xlink:href="classumontreal_1_1ssj_1_1probdistmulti_1_1BiNormalDist.html" target="_top" xlink:title="Extends the class ContinuousDistribution2Dim for the bivariate normal distribution   (page 84)...">
<polygon fill="none" stroke="black" points="78,-59 78,-79 152,-79 152,-59 78,-59"/>
<text text-anchor="middle" x="115" y="-66" font-family="Helvetica,sans-Serif" font-size="10.00">BiNormalDist</text>
</a>
</g>
<!-- Node2&#45;&gt;Node3 -->
<g id="edge4" class="edge"><title>Node2&#45;&gt;Node3</title>
<path fill="none" stroke="midnightblue" d="M146.709,-108.981C138.993,-99.2522 129.743,-87.5889 123.231,-79.3776"/>
<polygon fill="midnightblue" stroke="midnightblue" points="144.031,-111.237 152.987,-116.897 149.516,-106.887 144.031,-111.237"/>
</g>
<!-- Node6 -->
<g id="node11" class="node"><title>Node6</title>
<a xlink:href="classumontreal_1_1ssj_1_1probdistmulti_1_1BiStudentDist.html" target="_top" xlink:title="Extends the class ContinuousDistribution2Dim for the standard bivariate Student’s &#160;distribution   (...">
<polygon fill="none" stroke="black" points="169.5,-59 169.5,-79 246.5,-79 246.5,-59 169.5,-59"/>
<text text-anchor="middle" x="208" y="-66" font-family="Helvetica,sans-Serif" font-size="10.00">BiStudentDist</text>
</a>
</g>
<!-- Node2&#45;&gt;Node6 -->
<g id="edge10" class="edge"><title>Node2&#45;&gt;Node6</title>
<path fill="none" stroke="midnightblue" d="M175.602,-108.981C183.485,-99.2522 192.937,-87.5889 199.591,-79.3776"/>
<polygon fill="midnightblue" stroke="midnightblue" points="172.763,-106.924 169.187,-116.897 178.202,-111.331 172.763,-106.924"/>
</g>
<!-- Node4 -->
<g id="node7" class="node"><title>Node4</title>
<a xlink:href="classumontreal_1_1ssj_1_1probdistmulti_1_1BiNormalDonnellyDist.html" target="_top" xlink:title="Extends the class BiNormalDist for the bivariate normal distribution   (page 84) using a translation...">
<polygon fill="none" stroke="black" points="-0.5,-1 -0.5,-21 110.5,-21 110.5,-1 -0.5,-1"/>
<text text-anchor="middle" x="55" y="-8" font-family="Helvetica,sans-Serif" font-size="10.00">BiNormalDonnellyDist</text>
</a>
</g>
<!-- Node3&#45;&gt;Node4 -->
<g id="edge6" class="edge"><title>Node3&#45;&gt;Node4</title>
<path fill="none" stroke="midnightblue" d="M97.2689,-51.86C87.0299,-41.9622 74.4873,-29.8377 65.7355,-21.3776"/>
<polygon fill="midnightblue" stroke="midnightblue" points="94.9263,-54.4634 104.549,-58.8972 99.7915,-49.4305 94.9263,-54.4634"/>
</g>
<!-- Node5 -->
<g id="node9" class="node"><title>Node5</title>
<a xlink:href="classumontreal_1_1ssj_1_1probdistmulti_1_1BiNormalGenzDist.html" target="_top" xlink:title="Extends the class BiNormalDist for the bivariate normal distribution   (page 84) using Genz’s algor...">
<polygon fill="none" stroke="black" points="127.5,-1 127.5,-21 224.5,-21 224.5,-1 127.5,-1"/>
<text text-anchor="middle" x="176" y="-8" font-family="Helvetica,sans-Serif" font-size="10.00">BiNormalGenzDist</text>
</a>
</g>
<!-- Node3&#45;&gt;Node5 -->
<g id="edge8" class="edge"><title>Node3&#45;&gt;Node5</title>
<path fill="none" stroke="midnightblue" d="M133.027,-51.86C143.436,-41.9622 156.188,-29.8377 165.086,-21.3776"/>
<polygon fill="midnightblue" stroke="midnightblue" points="130.461,-49.4701 125.625,-58.8972 135.284,-54.543 130.461,-49.4701"/>
</g>
</g>
</svg>
