<?xml version="1.0" encoding="UTF-8" standalone="no"?>
<!DOCTYPE svg PUBLIC "-//W3C//DTD SVG 1.1//EN"
 "http://www.w3.org/Graphics/SVG/1.1/DTD/svg11.dtd">
<!-- Generated by graphviz version 2.26.3 (20100126.1600)
 -->
<!-- Title: ContinuousDistribution2Dim Pages: 1 -->
<svg width="254pt" height="204pt"
 viewBox="0.00 0.00 254.00 204.00" xmlns="http://www.w3.org/2000/svg" xmlns:xlink="http://www.w3.org/1999/xlink">
<g id="graph1" class="graph" transform="scale(1 1) rotate(0) translate(4 200)">
<title>ContinuousDistribution2Dim</title>
<!-- Node1 -->
<g id="node1" class="node"><title>Node1</title>
<polygon fill="#bfbfbf" stroke="black" points="92.5,-117 92.5,-137 229.5,-137 229.5,-117 92.5,-117"/>
<text text-anchor="middle" x="161" y="-124" font-family="Helvetica,sans-Serif" font-size="10.00">ContinuousDistribution2Dim</text>
</g>
<!-- Node3 -->
<g id="node5" class="node"><title>Node3</title>
<a xlink:href="classumontreal_1_1ssj_1_1probdistmulti_1_1BiNormalDist.html" target="_top" xlink:title="Extends the class ContinuousDistribution2Dim for the bivariate normal distribution   (page 84)...">
<polygon fill="none" stroke="black" points="78,-59 78,-79 152,-79 152,-59 78,-59"/>
<text text-anchor="middle" x="115" y="-66" font-family="Helvetica,sans-Serif" font-size="10.00">BiNormalDist</text>
</a>
</g>
<!-- Node1&#45;&gt;Node3 -->
<g id="edge4" class="edge"><title>Node1&#45;&gt;Node3</title>
<path fill="none" stroke="midnightblue" d="M146.709,-108.981C138.993,-99.2522 129.743,-87.5889 123.231,-79.3776"/>
<polygon fill="midnightblue" stroke="midnightblue" points="144.031,-111.237 152.987,-116.897 149.516,-106.887 144.031,-111.237"/>
</g>
<!-- Node6 -->
<g id="node11" class="node"><title>Node6</title>
<a xlink:href="classumontreal_1_1ssj_1_1probdistmulti_1_1BiStudentDist.html" target="_top" xlink:title="Extends the class ContinuousDistribution2Dim for the standard bivariate Student’s &#160;distribution   (...">
<polygon fill="none" stroke="black" points="169.5,-59 169.5,-79 246.5,-79 246.5,-59 169.5,-59"/>
<text text-anchor="middle" x="208" y="-66" font-family="Helvetica,sans-Serif" font-size="10.00">BiStudentDist</text>
</a>
</g>
<!-- Node1&#45;&gt;Node6 -->
<g id="edge10" class="edge"><title>Node1&#45;&gt;Node6</title>
<path fill="none" stroke="midnightblue" d="M175.602,-108.981C183.485,-99.2522 192.937,-87.5889 199.591,-79.3776"/>
<polygon fill="midnightblue" stroke="midnightblue" points="172.763,-106.924 169.187,-116.897 178.202,-111.331 172.763,-106.924"/>
</g>
<!-- Node2 -->
<g id="node2" class="node"><title>Node2</title>
<a xlink:href="classumontreal_1_1ssj_1_1probdistmulti_1_1ContinuousDistributionMulti.html" target="_top" xlink:title="Classes implementing continuous multi&#45;dimensional distributions should inherit from this class...">
<polygon fill="none" stroke="black" points="93.5,-175 93.5,-195 228.5,-195 228.5,-175 93.5,-175"/>
<text text-anchor="middle" x="161" y="-182" font-family="Helvetica,sans-Serif" font-size="10.00">ContinuousDistributionMulti</text>
</a>
</g>
<!-- Node2&#45;&gt;Node1 -->
<g id="edge2" class="edge"><title>Node2&#45;&gt;Node1</title>
<path fill="none" stroke="midnightblue" d="M161,-164.89C161,-155.62 161,-145.008 161,-137.378"/>
<polygon fill="midnightblue" stroke="midnightblue" points="157.5,-164.897 161,-174.897 164.5,-164.897 157.5,-164.897"/>
</g>
<!-- Node4 -->
<g id="node7" class="node"><title>Node4</title>
<a xlink:href="classumontreal_1_1ssj_1_1probdistmulti_1_1BiNormalDonnellyDist.html" target="_top" xlink:title="Extends the class BiNormalDist for the bivariate normal distribution   (page 84) using a translation...">
<polygon fill="none" stroke="black" points="-0.5,-1 -0.5,-21 110.5,-21 110.5,-1 -0.5,-1"/>
<text text-anchor="middle" x="55" y="-8" font-family="Helvetica,sans-Serif" font-size="10.00">BiNormalDonnellyDist</text>
</a>
</g>
<!-- Node3&#45;&gt;Node4 -->
<g id="edge6" class="edge"><title>Node3&#45;&gt;Node4</title>
<path fill="none" stroke="midnightblue" d="M97.2689,-51.86C87.0299,-41.9622 74.4873,-29.8377 65.7355,-21.3776"/>
<polygon fill="midnightblue" stroke="midnightblue" points="94.9263,-54.4634 104.549,-58.8972 99.7915,-49.4305 94.9263,-54.4634"/>
</g>
<!-- Node5 -->
<g id="node9" class="node"><title>Node5</title>
<a xlink:href="classumontreal_1_1ssj_1_1probdistmulti_1_1BiNormalGenzDist.html" target="_top" xlink:title="Extends the class BiNormalDist for the bivariate normal distribution   (page 84) using Genz’s algor...">
<polygon fill="none" stroke="black" points="127.5,-1 127.5,-21 224.5,-21 224.5,-1 127.5,-1"/>
<text text-anchor="middle" x="176" y="-8" font-family="Helvetica,sans-Serif" font-size="10.00">BiNormalGenzDist</text>
</a>
</g>
<!-- Node3&#45;&gt;Node5 -->
<g id="edge8" class="edge"><title>Node3&#45;&gt;Node5</title>
<path fill="none" stroke="midnightblue" d="M133.027,-51.86C143.436,-41.9622 156.188,-29.8377 165.086,-21.3776"/>
<polygon fill="midnightblue" stroke="midnightblue" points="130.461,-49.4701 125.625,-58.8972 135.284,-54.543 130.461,-49.4701"/>
</g>
</g>
</svg>
