<?xml version="1.0" encoding="UTF-8" standalone="no"?>
<!DOCTYPE svg PUBLIC "-//W3C//DTD SVG 1.1//EN"
 "http://www.w3.org/Graphics/SVG/1.1/DTD/svg11.dtd">
<!-- Generated by graphviz version 2.38.0 (20140413.2041)
 -->
<!-- Title: PartialVariance Pages: 1 -->
<svg width="401pt" height="162pt"
 viewBox="0.00 0.00 401.00 162.00" xmlns="http://www.w3.org/2000/svg" xmlns:xlink="http://www.w3.org/1999/xlink">
<g id="graph0" class="graph" transform="scale(1 1) rotate(0) translate(4 158)">
<title>PartialVariance</title>
<!-- Node5 -->
<g id="node1" class="node"><title>Node5</title>
<polygon fill="#bfbfbf" stroke="black" points="153.5,-0.5 153.5,-19.5 236.5,-19.5 236.5,-0.5 153.5,-0.5"/>
<text text-anchor="middle" x="195" y="-7.5" font-family="Helvetica,sans-Serif" font-size="10.00">PartialVariance</text>
</g>
<!-- Node6 -->
<g id="node2" class="node"><title>Node6</title>
<g id="a_node2"><a xlink:href="classumontreal_1_1ssj_1_1stat_1_1Tally.html" target="_top" xlink:title="A subclass of StatProbe. ">
<polygon fill="none" stroke="black" points="89.5,-67.5 89.5,-86.5 126.5,-86.5 126.5,-67.5 89.5,-67.5"/>
<text text-anchor="middle" x="108" y="-74.5" font-family="Helvetica,sans-Serif" font-size="10.00">Tally</text>
</a>
</g>
</g>
<!-- Node6&#45;&gt;Node5 -->
<g id="edge1" class="edge"><title>Node6&#45;&gt;Node5</title>
<path fill="none" stroke="midnightblue" d="M119.896,-58.9307C125.429,-51.8378 132.452,-43.9021 140,-38 149.72,-30.3994 161.924,-24.1432 172.365,-19.5735"/>
<polygon fill="midnightblue" stroke="midnightblue" points="116.88,-57.1232 113.758,-67.2477 122.513,-61.2798 116.88,-57.1232"/>
</g>
<!-- Node6&#45;&gt;Node5 -->
<g id="edge7" class="edge"><title>Node6&#45;&gt;Node5</title>
<path fill="none" stroke="#9a32cd" stroke-dasharray="5,2" d="M127.986,-61.0678C145.159,-48.2376 169.321,-30.1853 183.453,-19.6273"/>
<polygon fill="#9a32cd" stroke="#9a32cd" points="125.649,-58.4446 119.733,-67.2338 129.839,-64.0524 125.649,-58.4446"/>
<text text-anchor="middle" x="175.5" y="-41" font-family="Helvetica,sans-Serif" font-size="10.00"> totalVar</text>
</g>
<!-- Node7 -->
<g id="node3" class="node"><title>Node7</title>
<g id="a_node3"><a xlink:href="classumontreal_1_1ssj_1_1stat_1_1StatProbe.html" target="_top" xlink:title="The objects of this class are statistical probes or collectors, which are elementary devices for coll...">
<polygon fill="none" stroke="black" points="0,-134.5 0,-153.5 60,-153.5 60,-134.5 0,-134.5"/>
<text text-anchor="middle" x="30" y="-141.5" font-family="Helvetica,sans-Serif" font-size="10.00">StatProbe</text>
</a>
</g>
</g>
<!-- Node7&#45;&gt;Node6 -->
<g id="edge2" class="edge"><title>Node7&#45;&gt;Node6</title>
<path fill="none" stroke="midnightblue" d="M48.3439,-127.713C63.7116,-114.907 85.0939,-97.0884 97.6472,-86.6273"/>
<polygon fill="midnightblue" stroke="midnightblue" points="45.961,-125.143 40.5194,-134.234 50.4423,-130.521 45.961,-125.143"/>
</g>
<!-- Node8 -->
<g id="node4" class="node"><title>Node8</title>
<polygon fill="none" stroke="#bfbfbf" points="78.5,-134.5 78.5,-153.5 137.5,-153.5 137.5,-134.5 78.5,-134.5"/>
<text text-anchor="middle" x="108" y="-141.5" font-family="Helvetica,sans-Serif" font-size="10.00">Cloneable</text>
</g>
<!-- Node8&#45;&gt;Node6 -->
<g id="edge3" class="edge"><title>Node8&#45;&gt;Node6</title>
<path fill="none" stroke="midnightblue" d="M108,-124.037C108,-111.67 108,-96.1198 108,-86.6273"/>
<polygon fill="midnightblue" stroke="midnightblue" points="104.5,-124.234 108,-134.234 111.5,-124.234 104.5,-124.234"/>
</g>
<!-- Node9 -->
<g id="node5" class="node"><title>Node9</title>
<polygon fill="none" stroke="#bfbfbf" points="156,-134.5 156,-153.5 226,-153.5 226,-134.5 156,-134.5"/>
<text text-anchor="middle" x="191" y="-141.5" font-family="Helvetica,sans-Serif" font-size="10.00">Tally.CIType</text>
</g>
<!-- Node9&#45;&gt;Node6 -->
<g id="edge4" class="edge"><title>Node9&#45;&gt;Node6</title>
<path fill="none" stroke="#9a32cd" stroke-dasharray="5,2" d="M171.933,-128.068C155.55,-115.238 132.498,-97.1853 119.016,-86.6273"/>
<polygon fill="#9a32cd" stroke="#9a32cd" points="169.775,-130.824 179.806,-134.234 174.091,-125.313 169.775,-130.824"/>
<text text-anchor="middle" x="195" y="-108" font-family="Helvetica,sans-Serif" font-size="10.00"> confidenceInterval</text>
</g>
<!-- Node10 -->
<g id="node6" class="node"><title>Node10</title>
<polygon fill="none" stroke="#bfbfbf" points="145,-67.5 145,-86.5 297,-86.5 297,-67.5 145,-67.5"/>
<text text-anchor="middle" x="221" y="-74.5" font-family="Helvetica,sans-Serif" font-size="10.00">Comparable&lt; PartialVariance &gt;</text>
</g>
<!-- Node10&#45;&gt;Node5 -->
<g id="edge5" class="edge"><title>Node10&#45;&gt;Node5</title>
<path fill="none" stroke="midnightblue" d="M213.716,-57.79C208.723,-45.3076 202.325,-29.3135 198.451,-19.6273"/>
<polygon fill="midnightblue" stroke="midnightblue" points="210.53,-59.2489 217.494,-67.2338 217.029,-56.6491 210.53,-59.2489"/>
</g>
<!-- Node11 -->
<g id="node7" class="node"><title>Node11</title>
<g id="a_node7"><a xlink:href="classumontreal_1_1ssj_1_1mcqmctools_1_1anova_1_1CoordinateSet.html" target="_top" xlink:title="Represents a set of coordinates. ">
<polygon fill="none" stroke="black" points="315,-67.5 315,-86.5 393,-86.5 393,-67.5 315,-67.5"/>
<text text-anchor="middle" x="354" y="-74.5" font-family="Helvetica,sans-Serif" font-size="10.00">CoordinateSet</text>
</a>
</g>
</g>
<!-- Node11&#45;&gt;Node5 -->
<g id="edge6" class="edge"><title>Node11&#45;&gt;Node5</title>
<path fill="none" stroke="#9a32cd" stroke-dasharray="5,2" d="M323.269,-63.4369C291.69,-50.5273 243.382,-30.7786 215.948,-19.5637"/>
<polygon fill="#9a32cd" stroke="#9a32cd" points="322.305,-66.8241 332.886,-67.3685 324.954,-60.3446 322.305,-66.8241"/>
<text text-anchor="middle" x="301.5" y="-41" font-family="Helvetica,sans-Serif" font-size="10.00"> coords</text>
</g>
</g>
</svg>
