<?xml version="1.0" encoding="UTF-8" standalone="no"?>
<!DOCTYPE svg PUBLIC "-//W3C//DTD SVG 1.1//EN"
 "http://www.w3.org/Graphics/SVG/1.1/DTD/svg11.dtd">
<!-- Generated by graphviz version 2.26.3 (20100126.1600)
 -->
<!-- Title: HistogramChart Pages: 1 -->
<svg width="295pt" height="242pt"
 viewBox="0.00 0.00 295.00 242.00" xmlns="http://www.w3.org/2000/svg" xmlns:xlink="http://www.w3.org/1999/xlink">
<g id="graph1" class="graph" transform="scale(1 1) rotate(0) translate(4 238)">
<title>HistogramChart</title>
<!-- Node1 -->
<g id="node1" class="node"><title>Node1</title>
<polygon fill="#bfbfbf" stroke="black" points="58,-1 58,-21 142,-21 142,-1 58,-1"/>
<text text-anchor="middle" x="100" y="-8" font-family="Helvetica,sans-Serif" font-size="10.00">HistogramChart</text>
</g>
<!-- Node2 -->
<g id="node2" class="node"><title>Node2</title>
<a xlink:href="classumontreal_1_1ssj_1_1charts_1_1XYChart.html" target="_top" xlink:title="This class provides tools to create charts from data in a simple way. ">
<polygon fill="none" stroke="black" points="73.5,-61 73.5,-81 126.5,-81 126.5,-61 73.5,-61"/>
<text text-anchor="middle" x="100" y="-68" font-family="Helvetica,sans-Serif" font-size="10.00">XYChart</text>
</a>
</g>
<!-- Node2&#45;&gt;Node1 -->
<g id="edge2" class="edge"><title>Node2&#45;&gt;Node1</title>
<path fill="none" stroke="midnightblue" d="M100,-50.5155C100,-40.562 100,-29.0495 100,-21.0279"/>
<polygon fill="midnightblue" stroke="midnightblue" points="96.5001,-50.8218 100,-60.8218 103.5,-50.8219 96.5001,-50.8218"/>
</g>
<!-- Node3 -->
<g id="node4" class="node"><title>Node3</title>
<polygon fill="none" stroke="#bfbfbf" points="-0.5,-143 -0.5,-163 64.5,-163 64.5,-143 -0.5,-143"/>
<text text-anchor="middle" x="32" y="-150" font-family="Helvetica,sans-Serif" font-size="10.00">JFreeChart</text>
</g>
<!-- Node3&#45;&gt;Node2 -->
<g id="edge4" class="edge"><title>Node3&#45;&gt;Node2</title>
<path fill="none" stroke="#9a32cd" stroke-dasharray="5,2" d="M44.5524,-134.533C51.8957,-124.101 61.5557,-110.99 71,-100 76.6615,-93.4118 83.5131,-86.5167 89.1347,-81.1035"/>
<polygon fill="#9a32cd" stroke="#9a32cd" points="41.5798,-132.678 38.7592,-142.89 47.3328,-136.666 41.5798,-132.678"/>
<text text-anchor="middle" x="83.5" y="-109" font-family="Helvetica,sans-Serif" font-size="10.00"> chart</text>
</g>
<!-- Node4 -->
<g id="node6" class="node"><title>Node4</title>
<a xlink:href="classumontreal_1_1ssj_1_1charts_1_1Axis.html" target="_top" xlink:title="Represents an axis of a chart encapsulated by an instance of XYChart. ">
<polygon fill="none" stroke="black" points="82,-143 82,-163 118,-163 118,-143 82,-143"/>
<text text-anchor="middle" x="100" y="-150" font-family="Helvetica,sans-Serif" font-size="10.00">Axis</text>
</a>
</g>
<!-- Node4&#45;&gt;Node2 -->
<g id="edge6" class="edge"><title>Node4&#45;&gt;Node2</title>
<path fill="none" stroke="#9a32cd" stroke-dasharray="5,2" d="M100,-132.75C100,-116.361 100,-93.9652 100,-81.1371"/>
<polygon fill="#9a32cd" stroke="#9a32cd" points="96.5001,-132.945 100,-142.945 103.5,-132.945 96.5001,-132.945"/>
<text text-anchor="middle" x="115" y="-115" font-family="Helvetica,sans-Serif" font-size="10.00"> XAxis</text>
<text text-anchor="middle" x="115" y="-103" font-family="Helvetica,sans-Serif" font-size="10.00">YAxis</text>
</g>
<!-- Node5 -->
<g id="node8" class="node"><title>Node5</title>
<a xlink:href="classumontreal_1_1ssj_1_1charts_1_1SSJXYSeriesCollection.html" target="_top" xlink:title="Stores data used in a XYChart. ">
<polygon fill="none" stroke="black" points="135.5,-143 135.5,-163 254.5,-163 254.5,-143 135.5,-143"/>
<text text-anchor="middle" x="195" y="-150" font-family="Helvetica,sans-Serif" font-size="10.00">SSJXYSeriesCollection</text>
</a>
</g>
<!-- Node5&#45;&gt;Node2 -->
<g id="edge8" class="edge"><title>Node5&#45;&gt;Node2</title>
<path fill="none" stroke="#9a32cd" stroke-dasharray="5,2" d="M175.705,-136.157C163.724,-125.717 147.995,-112.048 134,-100 126.709,-93.7236 118.504,-86.7235 111.981,-81.1733"/>
<polygon fill="#9a32cd" stroke="#9a32cd" points="173.496,-138.874 183.333,-142.808 178.096,-133.598 173.496,-138.874"/>
<text text-anchor="middle" x="178" y="-109" font-family="Helvetica,sans-Serif" font-size="10.00"> dataset</text>
</g>
<!-- Node6 -->
<g id="node10" class="node"><title>Node6</title>
<polygon fill="none" stroke="#bfbfbf" points="115,-213 115,-233 179,-233 179,-213 115,-213"/>
<text text-anchor="middle" x="147" y="-220" font-family="Helvetica,sans-Serif" font-size="10.00">XYDataset</text>
</g>
<!-- Node6&#45;&gt;Node5 -->
<g id="edge10" class="edge"><title>Node6&#45;&gt;Node5</title>
<path fill="none" stroke="#9a32cd" stroke-dasharray="5,2" d="M143.711,-202.707C143.531,-195.744 144.464,-188.159 148,-182 152.678,-173.851 160.662,-167.692 168.736,-163.192"/>
<polygon fill="#9a32cd" stroke="#9a32cd" points="140.245,-203.229 144.693,-212.845 147.212,-202.554 140.245,-203.229"/>
<text text-anchor="middle" x="184.5" y="-185" font-family="Helvetica,sans-Serif" font-size="10.00"> seriesCollection</text>
</g>
<!-- Node7 -->
<g id="node12" class="node"><title>Node7</title>
<polygon fill="none" stroke="#bfbfbf" points="198.5,-213 198.5,-233 287.5,-233 287.5,-213 198.5,-213"/>
<text text-anchor="middle" x="243" y="-220" font-family="Helvetica,sans-Serif" font-size="10.00">XYItemRenderer</text>
</g>
<!-- Node7&#45;&gt;Node5 -->
<g id="edge12" class="edge"><title>Node7&#45;&gt;Node5</title>
<path fill="none" stroke="#9a32cd" stroke-dasharray="5,2" d="M233.7,-203.41C230.079,-196.436 225.675,-188.665 221,-182 216.34,-175.357 210.336,-168.57 205.272,-163.233"/>
<polygon fill="#9a32cd" stroke="#9a32cd" points="230.801,-205.44 238.387,-212.835 237.068,-202.323 230.801,-205.44"/>
<text text-anchor="middle" x="247.5" y="-185" font-family="Helvetica,sans-Serif" font-size="10.00"> renderer</text>
</g>
</g>
</svg>
