<?xml version="1.0" encoding="UTF-8" standalone="no"?>
<!DOCTYPE svg PUBLIC "-//W3C//DTD SVG 1.1//EN"
 "http://www.w3.org/Graphics/SVG/1.1/DTD/svg11.dtd">
<!-- Generated by graphviz version 2.26.3 (20100126.1600)
 -->
<!-- Title: InverseGaussianProcessBridge Pages: 1 -->
<svg width="162pt" height="204pt"
 viewBox="0.00 0.00 162.00 204.00" xmlns="http://www.w3.org/2000/svg" xmlns:xlink="http://www.w3.org/1999/xlink">
<g id="graph1" class="graph" transform="scale(1 1) rotate(0) translate(4 200)">
<title>InverseGaussianProcessBridge</title>
<!-- Node1 -->
<g id="node1" class="node"><title>Node1</title>
<polygon fill="#bfbfbf" stroke="black" points="0,-1 0,-21 154,-21 154,-1 0,-1"/>
<text text-anchor="middle" x="77" y="-8" font-family="Helvetica,sans-Serif" font-size="10.00">InverseGaussianProcessBridge</text>
</g>
<!-- Node2 -->
<g id="node2" class="node"><title>Node2</title>
<a xlink:href="classumontreal_1_1ssj_1_1stochprocess_1_1InverseGaussianProcessMSH.html" target="_top" xlink:title="Uses a faster generating method (MSH)   than the simple inversion of the distribution function used ...">
<polygon fill="none" stroke="black" points="3,-59 3,-79 151,-79 151,-59 3,-59"/>
<text text-anchor="middle" x="77" y="-66" font-family="Helvetica,sans-Serif" font-size="10.00">InverseGaussianProcessMSH</text>
</a>
</g>
<!-- Node2&#45;&gt;Node1 -->
<g id="edge2" class="edge"><title>Node2&#45;&gt;Node1</title>
<path fill="none" stroke="midnightblue" d="M77,-48.8902C77,-39.6201 77,-29.0083 77,-21.3776"/>
<polygon fill="midnightblue" stroke="midnightblue" points="73.5001,-48.8971 77,-58.8972 80.5001,-48.8972 73.5001,-48.8971"/>
</g>
<!-- Node3 -->
<g id="node4" class="node"><title>Node3</title>
<a xlink:href="classumontreal_1_1ssj_1_1stochprocess_1_1InverseGaussianProcess.html" target="_top" xlink:title="The inverse Gaussian process is a non&#45;decreasing process where the increments are additive and are gi...">
<polygon fill="none" stroke="black" points="14,-117 14,-137 140,-137 140,-117 14,-117"/>
<text text-anchor="middle" x="77" y="-124" font-family="Helvetica,sans-Serif" font-size="10.00">InverseGaussianProcess</text>
</a>
</g>
<!-- Node3&#45;&gt;Node2 -->
<g id="edge4" class="edge"><title>Node3&#45;&gt;Node2</title>
<path fill="none" stroke="midnightblue" d="M77,-106.89C77,-97.6201 77,-87.0083 77,-79.3776"/>
<polygon fill="midnightblue" stroke="midnightblue" points="73.5001,-106.897 77,-116.897 80.5001,-106.897 73.5001,-106.897"/>
</g>
<!-- Node4 -->
<g id="node6" class="node"><title>Node4</title>
<a xlink:href="classumontreal_1_1ssj_1_1stochprocess_1_1StochasticProcess.html" target="_top" xlink:title="Abstract base class for a stochastic process &#160;sampled (or observed) at a finite number of time points...">
<polygon fill="none" stroke="black" points="27.5,-175 27.5,-195 126.5,-195 126.5,-175 27.5,-175"/>
<text text-anchor="middle" x="77" y="-182" font-family="Helvetica,sans-Serif" font-size="10.00">StochasticProcess</text>
</a>
</g>
<!-- Node4&#45;&gt;Node3 -->
<g id="edge6" class="edge"><title>Node4&#45;&gt;Node3</title>
<path fill="none" stroke="midnightblue" d="M77,-164.89C77,-155.62 77,-145.008 77,-137.378"/>
<polygon fill="midnightblue" stroke="midnightblue" points="73.5001,-164.897 77,-174.897 80.5001,-164.897 73.5001,-164.897"/>
</g>
</g>
</svg>
