<?xml version="1.0" encoding="UTF-8" standalone="no"?>
<!DOCTYPE svg PUBLIC "-//W3C//DTD SVG 1.1//EN"
 "http://www.w3.org/Graphics/SVG/1.1/DTD/svg11.dtd">
<!-- Generated by graphviz version 2.38.0 (20140413.2041)
 -->
<!-- Title: DoublyLinked Pages: 1 -->
<svg width="329pt" height="355pt"
 viewBox="0.00 0.00 329.00 355.00" xmlns="http://www.w3.org/2000/svg" xmlns:xlink="http://www.w3.org/1999/xlink">
<g id="graph0" class="graph" transform="scale(1 1) rotate(0) translate(4 351)">
<title>DoublyLinked</title>
<!-- Node3 -->
<g id="node1" class="node"><title>Node3</title>
<polygon fill="#bfbfbf" stroke="black" points="227.5,-0.5 227.5,-19.5 302.5,-19.5 302.5,-0.5 227.5,-0.5"/>
<text text-anchor="middle" x="265" y="-7.5" font-family="Helvetica,sans-Serif" font-size="10.00">DoublyLinked</text>
</g>
<!-- Node4 -->
<g id="node2" class="node"><title>Node4</title>
<g id="a_node2"><a xlink:href="interfaceumontreal_1_1ssj_1_1simevents_1_1eventlist_1_1EventList.html" target="_top" xlink:title="An interface for implementations of event lists. ">
<polygon fill="none" stroke="black" points="248,-270.5 248,-289.5 304,-289.5 304,-270.5 248,-270.5"/>
<text text-anchor="middle" x="276" y="-277.5" font-family="Helvetica,sans-Serif" font-size="10.00">EventList</text>
</a>
</g>
</g>
<!-- Node4&#45;&gt;Node3 -->
<g id="edge1" class="edge"><title>Node4&#45;&gt;Node3</title>
<path fill="none" stroke="midnightblue" d="M288.425,-261.78C296.296,-249.181 305,-231.331 305,-214 305,-214 305,-214 305,-77 305,-53.6867 286.521,-31.5745 274.683,-19.8009"/>
<polygon fill="midnightblue" stroke="midnightblue" points="285.379,-260.039 282.726,-270.296 291.197,-263.932 285.379,-260.039"/>
</g>
<!-- Node9 -->
<g id="node7" class="node"><title>Node9</title>
<g id="a_node7"><a xlink:href="classumontreal_1_1ssj_1_1simevents_1_1Simulator.html" target="_top" xlink:title="Represents the executive of a discrete&#45;event simulator. ">
<polygon fill="none" stroke="black" points="128,-203.5 128,-222.5 186,-222.5 186,-203.5 128,-203.5"/>
<text text-anchor="middle" x="157" y="-210.5" font-family="Helvetica,sans-Serif" font-size="10.00">Simulator</text>
</a>
</g>
</g>
<!-- Node4&#45;&gt;Node9 -->
<g id="edge8" class="edge"><title>Node4&#45;&gt;Node9</title>
<path fill="none" stroke="#9a32cd" stroke-dasharray="5,2" d="M258.542,-263.824C249.298,-256.295 237.502,-247.455 226,-241 212.763,-233.571 197.069,-227.254 183.995,-222.602"/>
<polygon fill="#9a32cd" stroke="#9a32cd" points="256.319,-266.527 266.233,-270.264 260.813,-261.16 256.319,-266.527"/>
<text text-anchor="middle" x="263" y="-244" font-family="Helvetica,sans-Serif" font-size="10.00"> eventList</text>
</g>
<!-- Node5 -->
<g id="node3" class="node"><title>Node5</title>
<polygon fill="none" stroke="#bfbfbf" points="231,-327.5 231,-346.5 321,-346.5 321,-327.5 231,-327.5"/>
<text text-anchor="middle" x="276" y="-334.5" font-family="Helvetica,sans-Serif" font-size="10.00">Iterable&lt; Event &gt;</text>
</g>
<!-- Node5&#45;&gt;Node4 -->
<g id="edge2" class="edge"><title>Node5&#45;&gt;Node4</title>
<path fill="none" stroke="midnightblue" d="M276,-317.117C276,-307.817 276,-297.056 276,-289.715"/>
<polygon fill="midnightblue" stroke="midnightblue" points="272.5,-317.406 276,-327.406 279.5,-317.406 272.5,-317.406"/>
</g>
<!-- Node6 -->
<g id="node4" class="node"><title>Node6</title>
<polygon fill="none" stroke="#bfbfbf" points="128.5,-68.5 128.5,-87.5 229.5,-87.5 229.5,-68.5 128.5,-68.5"/>
<text text-anchor="middle" x="179" y="-75.5" font-family="Helvetica,sans-Serif" font-size="10.00">DoublyLinked.Node</text>
</g>
<!-- Node6&#45;&gt;Node3 -->
<g id="edge3" class="edge"><title>Node6&#45;&gt;Node3</title>
<path fill="none" stroke="#9a32cd" stroke-dasharray="5,2" d="M198.42,-62.0961C215.483,-49.0012 239.718,-30.4028 253.754,-19.6305"/>
<polygon fill="#9a32cd" stroke="#9a32cd" points="196.045,-59.5068 190.243,-68.3717 200.307,-65.06 196.045,-59.5068"/>
<text text-anchor="middle" x="239.5" y="-41" font-family="Helvetica,sans-Serif" font-size="10.00"> last</text>
</g>
<!-- Node6&#45;&gt;Node6 -->
<g id="edge10" class="edge"><title>Node6&#45;&gt;Node6</title>
<path fill="none" stroke="#9a32cd" stroke-dasharray="5,2" d="M239.926,-82.7999C244.612,-81.7374 247.5,-80.1375 247.5,-78 247.5,-74.5801 240.107,-72.5361 229.784,-71.8682"/>
<polygon fill="#9a32cd" stroke="#9a32cd" points="239.243,-79.3594 229.784,-84.1318 240.155,-86.2998 239.243,-79.3594"/>
<text text-anchor="middle" x="258.5" y="-81" font-family="Helvetica,sans-Serif" font-size="10.00"> prec</text>
<text text-anchor="middle" x="258.5" y="-70" font-family="Helvetica,sans-Serif" font-size="10.00">succ</text>
</g>
<!-- Node7 -->
<g id="node5" class="node"><title>Node7</title>
<g id="a_node5"><a xlink:href="classumontreal_1_1ssj_1_1simevents_1_1Event.html" target="_top" xlink:title="This abstract class provides event scheduling tools. ">
<polygon fill="none" stroke="black" points="136.5,-136.5 136.5,-155.5 177.5,-155.5 177.5,-136.5 136.5,-136.5"/>
<text text-anchor="middle" x="157" y="-143.5" font-family="Helvetica,sans-Serif" font-size="10.00">Event</text>
</a>
</g>
</g>
<!-- Node7&#45;&gt;Node6 -->
<g id="edge4" class="edge"><title>Node7&#45;&gt;Node6</title>
<path fill="none" stroke="#9a32cd" stroke-dasharray="5,2" d="M163.064,-126.807C167.292,-114.124 172.746,-97.7615 176.053,-87.8411"/>
<polygon fill="#9a32cd" stroke="#9a32cd" points="159.718,-125.778 159.876,-136.372 166.359,-127.992 159.718,-125.778"/>
<text text-anchor="middle" x="176.5" y="-110" font-family="Helvetica,sans-Serif" font-size="10.00"> ev</text>
</g>
<!-- Node8 -->
<g id="node6" class="node"><title>Node8</title>
<polygon fill="none" stroke="#bfbfbf" points="0,-203.5 0,-222.5 110,-222.5 110,-203.5 0,-203.5"/>
<text text-anchor="middle" x="55" y="-210.5" font-family="Helvetica,sans-Serif" font-size="10.00">Comparable&lt; Event &gt;</text>
</g>
<!-- Node8&#45;&gt;Node7 -->
<g id="edge5" class="edge"><title>Node8&#45;&gt;Node7</title>
<path fill="none" stroke="midnightblue" d="M77.3322,-197.769C97.5221,-184.903 126.59,-166.379 143.462,-155.627"/>
<polygon fill="midnightblue" stroke="midnightblue" points="75.3084,-194.908 68.7562,-203.234 79.0704,-200.811 75.3084,-194.908"/>
</g>
<!-- Node9&#45;&gt;Node7 -->
<g id="edge6" class="edge"><title>Node9&#45;&gt;Node7</title>
<path fill="none" stroke="#9a32cd" stroke-dasharray="5,2" d="M157,-193.037C157,-180.67 157,-165.12 157,-155.627"/>
<polygon fill="#9a32cd" stroke="#9a32cd" points="153.5,-193.234 157,-203.234 160.5,-193.234 153.5,-193.234"/>
<text text-anchor="middle" x="166.5" y="-177" font-family="Helvetica,sans-Serif" font-size="10.00"> sim</text>
</g>
<!-- Node9&#45;&gt;Node9 -->
<g id="edge7" class="edge"><title>Node9&#45;&gt;Node9</title>
<path fill="none" stroke="#9a32cd" stroke-dasharray="5,2" d="M196.603,-218.084C201.091,-217.132 204,-215.438 204,-213 204,-209 196.167,-207 186.375,-207"/>
<polygon fill="#9a32cd" stroke="#9a32cd" points="196.023,-214.622 186.375,-219 196.647,-221.594 196.023,-214.622"/>
<text text-anchor="middle" x="240.5" y="-210.5" font-family="Helvetica,sans-Serif" font-size="10.00"> defaultSimulator</text>
</g>
<!-- Node10 -->
<g id="node8" class="node"><title>Node10</title>
<g id="a_node8"><a xlink:href="classumontreal_1_1ssj_1_1simevents_1_1ContinuousState.html" target="_top" xlink:title="Represents the portion of the simulator’s state associated with continuous&#45;time simulation. ">
<polygon fill="none" stroke="black" points="106.5,-270.5 106.5,-289.5 195.5,-289.5 195.5,-270.5 106.5,-270.5"/>
<text text-anchor="middle" x="151" y="-277.5" font-family="Helvetica,sans-Serif" font-size="10.00">ContinuousState</text>
</a>
</g>
</g>
<!-- Node10&#45;&gt;Node9 -->
<g id="edge9" class="edge"><title>Node10&#45;&gt;Node9</title>
<path fill="none" stroke="#9a32cd" stroke-dasharray="5,2" d="M150.912,-260.214C151.038,-254.076 151.345,-247.235 152,-241 152.638,-234.931 153.888,-228.181 154.978,-222.949"/>
<polygon fill="#9a32cd" stroke="#9a32cd" points="147.412,-260.196 150.842,-270.221 154.411,-260.245 147.412,-260.196"/>
<text text-anchor="middle" x="189" y="-244" font-family="Helvetica,sans-Serif" font-size="10.00"> continuousState</text>
</g>
</g>
</svg>
