<?xml version="1.0" encoding="UTF-8" standalone="no"?>
<!DOCTYPE svg PUBLIC "-//W3C//DTD SVG 1.1//EN"
 "http://www.w3.org/Graphics/SVG/1.1/DTD/svg11.dtd">
<!-- Generated by graphviz version 2.38.0 (20140413.2041)
 -->
<!-- Title: GeometricNormalInverseGaussianProcess Pages: 1 -->
<svg width="172pt" height="163pt"
 viewBox="0.00 0.00 172.00 163.00" xmlns="http://www.w3.org/2000/svg" xmlns:xlink="http://www.w3.org/1999/xlink">
<g id="graph0" class="graph" transform="scale(1 1) rotate(0) translate(4 159)">
<title>GeometricNormalInverseGaussianProcess</title>
<!-- Node3 -->
<g id="node1" class="node"><title>Node3</title>
<polygon fill="#bfbfbf" stroke="black" points="0,-0.5 0,-30.5 164,-30.5 164,-0.5 0,-0.5"/>
<text text-anchor="start" x="8" y="-18.5" font-family="Helvetica,sans-Serif" font-size="10.00">GeometricNormalInverseGaussian</text>
<text text-anchor="middle" x="82" y="-7.5" font-family="Helvetica,sans-Serif" font-size="10.00">Process</text>
</g>
<!-- Node4 -->
<g id="node2" class="node"><title>Node4</title>
<g id="a_node2"><a xlink:href="classumontreal_1_1ssj_1_1stochprocess_1_1GeometricLevyProcess.html" target="_top" xlink:title="Abstract class used as a parent class for the exponentiation of a Lévy process : &#160;The interest rate i...">
<polygon fill="none" stroke="black" points="23.5,-68.5 23.5,-87.5 140.5,-87.5 140.5,-68.5 23.5,-68.5"/>
<text text-anchor="middle" x="82" y="-75.5" font-family="Helvetica,sans-Serif" font-size="10.00">GeometricLevyProcess</text>
</a>
</g>
</g>
<!-- Node4&#45;&gt;Node3 -->
<g id="edge1" class="edge"><title>Node4&#45;&gt;Node3</title>
<path fill="none" stroke="midnightblue" d="M82,-58.2154C82,-49.3565 82,-38.9577 82,-30.7587"/>
<polygon fill="midnightblue" stroke="midnightblue" points="78.5001,-58.3318 82,-68.3318 85.5001,-58.3319 78.5001,-58.3318"/>
</g>
<!-- Node5 -->
<g id="node3" class="node"><title>Node5</title>
<g id="a_node3"><a xlink:href="classumontreal_1_1ssj_1_1stochprocess_1_1StochasticProcess.html" target="_top" xlink:title="Abstract base class for a stochastic process &#160;sampled (or observed) at a finite number of time points...">
<polygon fill="none" stroke="black" points="32.5,-135.5 32.5,-154.5 131.5,-154.5 131.5,-135.5 32.5,-135.5"/>
<text text-anchor="middle" x="82" y="-142.5" font-family="Helvetica,sans-Serif" font-size="10.00">StochasticProcess</text>
</a>
</g>
</g>
<!-- Node5&#45;&gt;Node4 -->
<g id="edge2" class="edge"><title>Node5&#45;&gt;Node4</title>
<path fill="none" stroke="midnightblue" d="M80.4399,-125.382C80.2572,-122.575 80.1003,-119.713 80,-117 79.6288,-106.965 80.4035,-95.4502 81.0942,-87.7505"/>
<polygon fill="midnightblue" stroke="midnightblue" points="76.9607,-125.791 81.2083,-135.497 83.9406,-125.26 76.9607,-125.791"/>
</g>
<!-- Node5&#45;&gt;Node4 -->
<g id="edge3" class="edge"><title>Node5&#45;&gt;Node4</title>
<path fill="none" stroke="#9a32cd" stroke-dasharray="5,2" d="M82,-125.037C82,-112.67 82,-97.1198 82,-87.6273"/>
<polygon fill="#9a32cd" stroke="#9a32cd" points="78.5001,-125.234 82,-135.234 85.5001,-125.234 78.5001,-125.234"/>
<text text-anchor="middle" x="110" y="-109" font-family="Helvetica,sans-Serif" font-size="10.00"> levyProcess</text>
</g>
</g>
</svg>
