<?xml version="1.0" encoding="UTF-8" standalone="no"?>
<!DOCTYPE svg PUBLIC "-//W3C//DTD SVG 1.1//EN"
 "http://www.w3.org/Graphics/SVG/1.1/DTD/svg11.dtd">
<!-- Generated by graphviz version 2.38.0 (20140413.2041)
 -->
<!-- Title: MultinormalGen Pages: 1 -->
<svg width="280pt" height="140pt"
 viewBox="0.00 0.00 280.00 140.00" xmlns="http://www.w3.org/2000/svg" xmlns:xlink="http://www.w3.org/1999/xlink">
<g id="graph0" class="graph" transform="scale(1 1) rotate(0) translate(4 136)">
<title>MultinormalGen</title>
<!-- Node1 -->
<g id="node1" class="node"><title>Node1</title>
<polygon fill="#bfbfbf" stroke="black" points="94.5,-56.5 94.5,-75.5 189.5,-75.5 189.5,-56.5 94.5,-56.5"/>
<text text-anchor="middle" x="142" y="-63.5" font-family="Helvetica,sans-Serif" font-size="10.00">MultinormalGen</text>
</g>
<!-- Node3 -->
<g id="node3" class="node"><title>Node3</title>
<g id="a_node3"><a xlink:href="classumontreal_1_1ssj_1_1randvarmulti_1_1MultinormalCholeskyGen.html" target="_top" xlink:title="Extends MultinormalGen for a multivariate normal distribution  , generated via a Cholesky decomposit...">
<polygon fill="none" stroke="black" points="0,-0.5 0,-19.5 140,-19.5 140,-0.5 0,-0.5"/>
<text text-anchor="middle" x="70" y="-7.5" font-family="Helvetica,sans-Serif" font-size="10.00">MultinormalCholeskyGen</text>
</a>
</g>
</g>
<!-- Node1&#45;&gt;Node3 -->
<g id="edge2" class="edge"><title>Node1&#45;&gt;Node3</title>
<path fill="none" stroke="midnightblue" d="M122.134,-50.1008C109.177,-40.3824 92.7026,-28.0269 81.7785,-19.8339"/>
<polygon fill="midnightblue" stroke="midnightblue" points="120.332,-53.1239 130.432,-56.324 124.532,-47.5239 120.332,-53.1239"/>
</g>
<!-- Node4 -->
<g id="node4" class="node"><title>Node4</title>
<g id="a_node4"><a xlink:href="classumontreal_1_1ssj_1_1randvarmulti_1_1MultinormalPCAGen.html" target="_top" xlink:title="Extends MultinormalGen for a multivariate normal distribution  , generated via the method of princip...">
<polygon fill="none" stroke="black" points="158,-0.5 158,-19.5 272,-19.5 272,-0.5 158,-0.5"/>
<text text-anchor="middle" x="215" y="-7.5" font-family="Helvetica,sans-Serif" font-size="10.00">MultinormalPCAGen</text>
</a>
</g>
</g>
<!-- Node1&#45;&gt;Node4 -->
<g id="edge3" class="edge"><title>Node1&#45;&gt;Node4</title>
<path fill="none" stroke="midnightblue" d="M162.142,-50.1008C175.279,-40.3824 191.982,-28.0269 203.058,-19.8339"/>
<polygon fill="midnightblue" stroke="midnightblue" points="159.687,-47.5631 153.729,-56.324 163.85,-53.1907 159.687,-47.5631"/>
</g>
<!-- Node2 -->
<g id="node2" class="node"><title>Node2</title>
<g id="a_node2"><a xlink:href="classumontreal_1_1ssj_1_1randvarmulti_1_1RandomMultivariateGen.html" target="_top" xlink:title="This class is the multivariate counterpart of umontreal.ssj.randvar.RandomVariateGen. ">
<polygon fill="none" stroke="black" points="74.5,-112.5 74.5,-131.5 209.5,-131.5 209.5,-112.5 74.5,-112.5"/>
<text text-anchor="middle" x="142" y="-119.5" font-family="Helvetica,sans-Serif" font-size="10.00">RandomMultivariateGen</text>
</a>
</g>
</g>
<!-- Node2&#45;&gt;Node1 -->
<g id="edge1" class="edge"><title>Node2&#45;&gt;Node1</title>
<path fill="none" stroke="midnightblue" d="M142,-101.805C142,-92.9102 142,-82.7798 142,-75.7511"/>
<polygon fill="midnightblue" stroke="midnightblue" points="138.5,-102.083 142,-112.083 145.5,-102.083 138.5,-102.083"/>
</g>
</g>
</svg>
