<?xml version="1.0" encoding="UTF-8" standalone="no"?>
<!DOCTYPE svg PUBLIC "-//W3C//DTD SVG 1.1//EN"
 "http://www.w3.org/Graphics/SVG/1.1/DTD/svg11.dtd">
<!-- Generated by graphviz version 2.38.0 (20140413.2041)
 -->
<!-- Title: GammaGen Pages: 1 -->
<svg width="452pt" height="196pt"
 viewBox="0.00 0.00 451.50 196.00" xmlns="http://www.w3.org/2000/svg" xmlns:xlink="http://www.w3.org/1999/xlink">
<g id="graph0" class="graph" transform="scale(1 1) rotate(0) translate(4 192)">
<title>GammaGen</title>
<!-- Node1 -->
<g id="node1" class="node"><title>Node1</title>
<polygon fill="#bfbfbf" stroke="black" points="152.5,-112.5 152.5,-131.5 221.5,-131.5 221.5,-112.5 152.5,-112.5"/>
<text text-anchor="middle" x="187" y="-119.5" font-family="Helvetica,sans-Serif" font-size="10.00">GammaGen</text>
</g>
<!-- Node3 -->
<g id="node3" class="node"><title>Node3</title>
<g id="a_node3"><a xlink:href="classumontreal_1_1ssj_1_1randvar_1_1ErlangGen.html" target="_top" xlink:title="This class implements random variate generators for the Erlang distribution with parameters &#160;and ...">
<polygon fill="none" stroke="black" points="26,-56.5 26,-75.5 88,-75.5 88,-56.5 26,-56.5"/>
<text text-anchor="middle" x="57" y="-63.5" font-family="Helvetica,sans-Serif" font-size="10.00">ErlangGen</text>
</a>
</g>
</g>
<!-- Node1&#45;&gt;Node3 -->
<g id="edge2" class="edge"><title>Node1&#45;&gt;Node3</title>
<path fill="none" stroke="midnightblue" d="M156.915,-108.503C132.543,-98.3795 98.86,-84.388 77.5025,-75.5164"/>
<polygon fill="midnightblue" stroke="midnightblue" points="155.823,-111.84 166.401,-112.444 158.509,-105.375 155.823,-111.84"/>
</g>
<!-- Node5 -->
<g id="node5" class="node"><title>Node5</title>
<g id="a_node5"><a xlink:href="classumontreal_1_1ssj_1_1randvar_1_1GammaAcceptanceRejectionGen.html" target="_top" xlink:title="This class implements gamma random variate generators using a method that combines acceptance&#45;rejecti...">
<polygon fill="none" stroke="black" points="106,-56.5 106,-75.5 268,-75.5 268,-56.5 106,-56.5"/>
<text text-anchor="middle" x="187" y="-63.5" font-family="Helvetica,sans-Serif" font-size="10.00">GammaAcceptanceRejectionGen</text>
</a>
</g>
</g>
<!-- Node1&#45;&gt;Node5 -->
<g id="edge4" class="edge"><title>Node1&#45;&gt;Node5</title>
<path fill="none" stroke="midnightblue" d="M187,-101.805C187,-92.9102 187,-82.7798 187,-75.7511"/>
<polygon fill="midnightblue" stroke="midnightblue" points="183.5,-102.083 187,-112.083 190.5,-102.083 183.5,-102.083"/>
</g>
<!-- Node6 -->
<g id="node6" class="node"><title>Node6</title>
<g id="a_node6"><a xlink:href="classumontreal_1_1ssj_1_1randvar_1_1GammaRejectionLoglogisticGen.html" target="_top" xlink:title="This class implements gamma random variate generators using a rejection method with loglogistic envel...">
<polygon fill="none" stroke="black" points="286.5,-56.5 286.5,-75.5 443.5,-75.5 443.5,-56.5 286.5,-56.5"/>
<text text-anchor="middle" x="365" y="-63.5" font-family="Helvetica,sans-Serif" font-size="10.00">GammaRejectionLoglogisticGen</text>
</a>
</g>
</g>
<!-- Node1&#45;&gt;Node6 -->
<g id="edge5" class="edge"><title>Node1&#45;&gt;Node6</title>
<path fill="none" stroke="midnightblue" d="M225.117,-109.436C258.678,-99.2551 306.774,-84.664 336.927,-75.5164"/>
<polygon fill="midnightblue" stroke="midnightblue" points="223.758,-106.191 215.205,-112.444 225.79,-112.89 223.758,-106.191"/>
</g>
<!-- Node2 -->
<g id="node2" class="node"><title>Node2</title>
<g id="a_node2"><a xlink:href="classumontreal_1_1ssj_1_1randvar_1_1RandomVariateGen.html" target="_top" xlink:title="This is the base class for all random variate generators over the real line. ">
<polygon fill="none" stroke="black" points="136,-168.5 136,-187.5 238,-187.5 238,-168.5 136,-168.5"/>
<text text-anchor="middle" x="187" y="-175.5" font-family="Helvetica,sans-Serif" font-size="10.00">RandomVariateGen</text>
</a>
</g>
</g>
<!-- Node2&#45;&gt;Node1 -->
<g id="edge1" class="edge"><title>Node2&#45;&gt;Node1</title>
<path fill="none" stroke="midnightblue" d="M187,-157.805C187,-148.91 187,-138.78 187,-131.751"/>
<polygon fill="midnightblue" stroke="midnightblue" points="183.5,-158.083 187,-168.083 190.5,-158.083 183.5,-158.083"/>
</g>
<!-- Node4 -->
<g id="node4" class="node"><title>Node4</title>
<g id="a_node4"><a xlink:href="classumontreal_1_1ssj_1_1randvar_1_1ErlangConvolutionGen.html" target="_top" xlink:title="This class implements Erlang random variate generators using the convolution method. ">
<polygon fill="none" stroke="black" points="0,-0.5 0,-19.5 114,-19.5 114,-0.5 0,-0.5"/>
<text text-anchor="middle" x="57" y="-7.5" font-family="Helvetica,sans-Serif" font-size="10.00">ErlangConvolutionGen</text>
</a>
</g>
</g>
<!-- Node3&#45;&gt;Node4 -->
<g id="edge3" class="edge"><title>Node3&#45;&gt;Node4</title>
<path fill="none" stroke="midnightblue" d="M57,-45.8045C57,-36.9102 57,-26.7798 57,-19.7511"/>
<polygon fill="midnightblue" stroke="midnightblue" points="53.5001,-46.083 57,-56.083 60.5001,-46.083 53.5001,-46.083"/>
</g>
</g>
</svg>
