<?xml version="1.0" encoding="UTF-8" standalone="no"?>
<!DOCTYPE svg PUBLIC "-//W3C//DTD SVG 1.1//EN"
 "http://www.w3.org/Graphics/SVG/1.1/DTD/svg11.dtd">
<!-- Generated by graphviz version 2.38.0 (20140413.2041)
 -->
<!-- Title: Inventory Pages: 1 -->
<svg width="464pt" height="240pt"
 viewBox="0.00 0.00 464.00 240.00" xmlns="http://www.w3.org/2000/svg" xmlns:xlink="http://www.w3.org/1999/xlink">
<g id="graph0" class="graph" transform="scale(1 1) rotate(0) translate(4 236)">
<title>Inventory</title>
<!-- Node1 -->
<g id="node1" class="node"><title>Node1</title>
<polygon fill="#bfbfbf" stroke="black" points="266.5,-0.5 266.5,-19.5 323.5,-19.5 323.5,-0.5 266.5,-0.5"/>
<text text-anchor="middle" x="295" y="-7.5" font-family="Helvetica,sans-Serif" font-size="10.00">Inventory</text>
</g>
<!-- Node2 -->
<g id="node2" class="node"><title>Node2</title>
<g id="a_node2"><a xlink:href="classumontreal_1_1ssj_1_1stat_1_1Tally.html" target="_top" xlink:title="A subclass of StatProbe. ">
<polygon fill="none" stroke="black" points="132,-67.5 132,-86.5 170,-86.5 170,-67.5 132,-67.5"/>
<text text-anchor="middle" x="151" y="-74.5" font-family="Helvetica,sans-Serif" font-size="10.00">Tally</text>
</a>
</g>
</g>
<!-- Node2&#45;&gt;Node1 -->
<g id="edge1" class="edge"><title>Node2&#45;&gt;Node1</title>
<path fill="none" stroke="#9a32cd" stroke-dasharray="5,2" d="M179.55,-63.1127C208.071,-50.2387 251.122,-30.8059 275.799,-19.6672"/>
<polygon fill="#9a32cd" stroke="#9a32cd" points="177.797,-60.0642 170.122,-67.3685 180.677,-66.4443 177.797,-60.0642"/>
<text text-anchor="middle" x="253.5" y="-41" font-family="Helvetica,sans-Serif" font-size="10.00"> statProfit</text>
</g>
<!-- Node3 -->
<g id="node3" class="node"><title>Node3</title>
<g id="a_node3"><a xlink:href="classumontreal_1_1ssj_1_1stat_1_1StatProbe.html" target="_top" xlink:title="The objects of this class are statistical probes or collectors, which are elementary devices for coll...">
<polygon fill="none" stroke="black" points="0,-145.5 0,-164.5 60,-164.5 60,-145.5 0,-145.5"/>
<text text-anchor="middle" x="30" y="-152.5" font-family="Helvetica,sans-Serif" font-size="10.00">StatProbe</text>
</a>
</g>
</g>
<!-- Node3&#45;&gt;Node2 -->
<g id="edge2" class="edge"><title>Node3&#45;&gt;Node2</title>
<path fill="none" stroke="midnightblue" d="M52.6482,-139.775C77.5277,-124.148 116.682,-99.5551 137.282,-86.6165"/>
<polygon fill="midnightblue" stroke="midnightblue" points="50.4868,-136.999 43.8802,-145.282 54.21,-142.927 50.4868,-136.999"/>
</g>
<!-- Node4 -->
<g id="node4" class="node"><title>Node4</title>
<polygon fill="none" stroke="#bfbfbf" points="78,-145.5 78,-164.5 138,-164.5 138,-145.5 78,-145.5"/>
<text text-anchor="middle" x="108" y="-152.5" font-family="Helvetica,sans-Serif" font-size="10.00">Cloneable</text>
</g>
<!-- Node4&#45;&gt;Node2 -->
<g id="edge3" class="edge"><title>Node4&#45;&gt;Node2</title>
<path fill="none" stroke="midnightblue" d="M117.864,-136.565C126.7,-120.949 139.288,-98.7002 146.125,-86.6165"/>
<polygon fill="midnightblue" stroke="midnightblue" points="114.811,-134.855 112.933,-145.282 120.903,-138.302 114.811,-134.855"/>
</g>
<!-- Node5 -->
<g id="node5" class="node"><title>Node5</title>
<polygon fill="none" stroke="#bfbfbf" points="156.5,-145.5 156.5,-164.5 229.5,-164.5 229.5,-145.5 156.5,-145.5"/>
<text text-anchor="middle" x="193" y="-152.5" font-family="Helvetica,sans-Serif" font-size="10.00">Tally.CIType</text>
</g>
<!-- Node5&#45;&gt;Node2 -->
<g id="edge4" class="edge"><title>Node5&#45;&gt;Node2</title>
<path fill="none" stroke="#9a32cd" stroke-dasharray="5,2" d="M183.12,-136.122C174.503,-120.53 162.377,-98.5862 155.762,-86.6165"/>
<polygon fill="#9a32cd" stroke="#9a32cd" points="180.282,-138.222 188.182,-145.282 186.409,-134.836 180.282,-138.222"/>
<text text-anchor="middle" x="218.5" y="-113.5" font-family="Helvetica,sans-Serif" font-size="10.00"> confidenceInterval</text>
</g>
<!-- Node6 -->
<g id="node6" class="node"><title>Node6</title>
<g id="a_node6"><a xlink:href="classumontreal_1_1ssj_1_1randvar_1_1RandomVariateGenInt.html" target="_top" xlink:title="This is the base class for all generators of discrete random variates over the set of integers...">
<polygon fill="none" stroke="black" points="238.5,-67.5 238.5,-86.5 351.5,-86.5 351.5,-67.5 238.5,-67.5"/>
<text text-anchor="middle" x="295" y="-74.5" font-family="Helvetica,sans-Serif" font-size="10.00">RandomVariateGenInt</text>
</a>
</g>
</g>
<!-- Node6&#45;&gt;Node1 -->
<g id="edge5" class="edge"><title>Node6&#45;&gt;Node1</title>
<path fill="none" stroke="#9a32cd" stroke-dasharray="5,2" d="M295,-57.037C295,-44.6703 295,-29.1198 295,-19.6273"/>
<polygon fill="#9a32cd" stroke="#9a32cd" points="291.5,-57.2338 295,-67.2338 298.5,-57.2338 291.5,-57.2338"/>
<text text-anchor="middle" x="323" y="-41" font-family="Helvetica,sans-Serif" font-size="10.00"> genDemand</text>
</g>
<!-- Node7 -->
<g id="node7" class="node"><title>Node7</title>
<g id="a_node7"><a xlink:href="classumontreal_1_1ssj_1_1randvar_1_1RandomVariateGen.html" target="_top" xlink:title="This is the base class for all random variate generators over the real line. ">
<polygon fill="none" stroke="black" points="248,-145.5 248,-164.5 350,-164.5 350,-145.5 248,-145.5"/>
<text text-anchor="middle" x="299" y="-152.5" font-family="Helvetica,sans-Serif" font-size="10.00">RandomVariateGen</text>
</a>
</g>
</g>
<!-- Node7&#45;&gt;Node6 -->
<g id="edge6" class="edge"><title>Node7&#45;&gt;Node6</title>
<path fill="none" stroke="midnightblue" d="M298.012,-135.224C297.195,-119.697 296.071,-98.3582 295.453,-86.6165"/>
<polygon fill="midnightblue" stroke="midnightblue" points="294.52,-135.48 298.541,-145.282 301.511,-135.112 294.52,-135.48"/>
</g>
<!-- Node8 -->
<g id="node8" class="node"><title>Node8</title>
<g id="a_node8"><a xlink:href="interfaceumontreal_1_1ssj_1_1probdist_1_1Distribution.html" target="_top" xlink:title="This interface should be implemented by all classes supporting discrete and continuous distributions...">
<polygon fill="none" stroke="black" points="253,-212.5 253,-231.5 319,-231.5 319,-212.5 253,-212.5"/>
<text text-anchor="middle" x="286" y="-219.5" font-family="Helvetica,sans-Serif" font-size="10.00">Distribution</text>
</a>
</g>
</g>
<!-- Node8&#45;&gt;Node7 -->
<g id="edge7" class="edge"><title>Node8&#45;&gt;Node7</title>
<path fill="none" stroke="#9a32cd" stroke-dasharray="5,2" d="M286.446,-202.343C286.866,-196.135 287.63,-189.221 289,-183 290.376,-176.751 292.876,-170.001 295.032,-164.814"/>
<polygon fill="#9a32cd" stroke="#9a32cd" points="282.945,-202.306 286.005,-212.45 289.938,-202.612 282.945,-202.306"/>
<text text-anchor="middle" x="298.5" y="-186" font-family="Helvetica,sans-Serif" font-size="10.00"> dist</text>
</g>
<!-- Node9 -->
<g id="node9" class="node"><title>Node9</title>
<g id="a_node9"><a xlink:href="interfaceumontreal_1_1ssj_1_1rng_1_1RandomStream.html" target="_top" xlink:title="This interface defines the basic structures to handle multiple streams of uniform (pseudo)random numb...">
<polygon fill="none" stroke="black" points="337.5,-212.5 337.5,-231.5 422.5,-231.5 422.5,-212.5 337.5,-212.5"/>
<text text-anchor="middle" x="380" y="-219.5" font-family="Helvetica,sans-Serif" font-size="10.00">RandomStream</text>
</a>
</g>
</g>
<!-- Node9&#45;&gt;Node1 -->
<g id="edge9" class="edge"><title>Node9&#45;&gt;Node1</title>
<path fill="none" stroke="#9a32cd" stroke-dasharray="5,2" d="M383.084,-202.15C387.864,-166.172 392.932,-86.9413 355,-38 347.303,-28.0686 335.142,-21.687 323.776,-17.6382"/>
<polygon fill="#9a32cd" stroke="#9a32cd" points="379.595,-201.815 381.597,-212.219 386.52,-202.837 379.595,-201.815"/>
<text text-anchor="middle" x="421" y="-119" font-family="Helvetica,sans-Serif" font-size="10.00"> streamDemand</text>
<text text-anchor="middle" x="421" y="-108" font-family="Helvetica,sans-Serif" font-size="10.00">streamOrder</text>
</g>
<!-- Node9&#45;&gt;Node7 -->
<g id="edge8" class="edge"><title>Node9&#45;&gt;Node7</title>
<path fill="none" stroke="#9a32cd" stroke-dasharray="5,2" d="M352.166,-207.474C345.272,-203.561 338.113,-198.985 332,-194 321.3,-185.276 311.238,-172.846 305.102,-164.607"/>
<polygon fill="#9a32cd" stroke="#9a32cd" points="350.817,-210.722 361.282,-212.375 354.132,-204.557 350.817,-210.722"/>
<text text-anchor="middle" x="349" y="-186" font-family="Helvetica,sans-Serif" font-size="10.00"> stream</text>
</g>
</g>
</svg>
