<?xml version="1.0" encoding="UTF-8" standalone="no"?>
<!DOCTYPE svg PUBLIC "-//W3C//DTD SVG 1.1//EN"
 "http://www.w3.org/Graphics/SVG/1.1/DTD/svg11.dtd">
<!-- Generated by graphviz version 2.38.0 (20140413.2041)
 -->
<!-- Title: PolInterp Pages: 1 -->
<svg width="468pt" height="208pt"
 viewBox="0.00 0.00 468.00 208.06" xmlns="http://www.w3.org/2000/svg" xmlns:xlink="http://www.w3.org/1999/xlink">
<g id="graph0" class="graph" transform="scale(1 1) rotate(0) translate(4 204.063)">
<title>PolInterp</title>
<!-- Node0 -->
<g id="node1" class="node"><title>Node0</title>
<polygon fill="#bfbfbf" stroke="black" points="405,-47.5 405,-66.5 460,-66.5 460,-47.5 405,-47.5"/>
<text text-anchor="middle" x="432.5" y="-54.5" font-family="Helvetica,sans-Serif" font-size="10.00">PolInterp</text>
</g>
<!-- Node1 -->
<g id="node2" class="node"><title>Node1</title>
<g id="a_node2"><a xlink:href="classumontreal_1_1ssj_1_1functions_1_1Polynomial.html" target="_top" xlink:title="Represents a polynomial of degree &#160;in power form. ">
<polygon fill="none" stroke="black" points="304,-76.5 304,-95.5 369,-95.5 369,-76.5 304,-76.5"/>
<text text-anchor="middle" x="336.5" y="-83.5" font-family="Helvetica,sans-Serif" font-size="10.00">Polynomial</text>
</a>
</g>
</g>
<!-- Node1&#45;&gt;Node0 -->
<g id="edge1" class="edge"><title>Node1&#45;&gt;Node0</title>
<path fill="none" stroke="midnightblue" d="M378.17,-73.4528C387.221,-70.6606 396.59,-67.77 404.903,-65.2054"/>
<polygon fill="midnightblue" stroke="midnightblue" points="377.063,-70.1314 368.54,-76.4239 379.127,-76.8203 377.063,-70.1314"/>
</g>
<!-- Node2 -->
<g id="node3" class="node"><title>Node2</title>
<g id="a_node3"><a xlink:href="interfaceumontreal_1_1ssj_1_1functions_1_1MathFunction.html" target="_top" xlink:title="This interface should be implemented by classes which represent univariate mathematical functions...">
<polygon fill="none" stroke="black" points="0,-133.5 0,-152.5 76,-152.5 76,-133.5 0,-133.5"/>
<text text-anchor="middle" x="38" y="-140.5" font-family="Helvetica,sans-Serif" font-size="10.00">MathFunction</text>
</a>
</g>
</g>
<!-- Node2&#45;&gt;Node1 -->
<g id="edge2" class="edge"><title>Node2&#45;&gt;Node1</title>
<path fill="none" stroke="midnightblue" d="M61.2729,-158.187C75.1833,-166.733 93.8452,-176.558 112,-181 179.347,-197.479 206.391,-212.803 268,-181 303.597,-162.625 324.509,-115.844 332.157,-95.59"/>
<polygon fill="midnightblue" stroke="midnightblue" points="62.7769,-154.994 52.4664,-152.556 59.0061,-160.892 62.7769,-154.994"/>
</g>
<!-- Node3 -->
<g id="node4" class="node"><title>Node3</title>
<g id="a_node4"><a xlink:href="interfaceumontreal_1_1ssj_1_1functions_1_1MathFunctionWithFirstDerivative.html" target="_top" xlink:title="Represents a mathematical function whose derivative can be computed using derivative(double). ">
<polygon fill="none" stroke="black" points="112,-152.5 112,-171.5 268,-171.5 268,-152.5 112,-152.5"/>
<text text-anchor="middle" x="190" y="-159.5" font-family="Helvetica,sans-Serif" font-size="10.00">MathFunctionWithFirstDerivative</text>
</a>
</g>
</g>
<!-- Node2&#45;&gt;Node3 -->
<g id="edge4" class="edge"><title>Node2&#45;&gt;Node3</title>
<path fill="none" stroke="midnightblue" d="M86.1639,-148.974C95.022,-150.096 104.484,-151.295 113.947,-152.493"/>
<polygon fill="midnightblue" stroke="midnightblue" points="86.4392,-145.481 76.0787,-147.697 85.5595,-152.426 86.4392,-145.481"/>
</g>
<!-- Node4 -->
<g id="node5" class="node"><title>Node4</title>
<g id="a_node5"><a xlink:href="interfaceumontreal_1_1ssj_1_1functions_1_1MathFunctionWithDerivative.html" target="_top" xlink:title="Represents a mathematical function whose th derivative can be computed using derivative(double,int). ">
<polygon fill="none" stroke="black" points="121.5,-114.5 121.5,-133.5 258.5,-133.5 258.5,-114.5 121.5,-114.5"/>
<text text-anchor="middle" x="190" y="-121.5" font-family="Helvetica,sans-Serif" font-size="10.00">MathFunctionWithDerivative</text>
</a>
</g>
</g>
<!-- Node2&#45;&gt;Node4 -->
<g id="edge6" class="edge"><title>Node2&#45;&gt;Node4</title>
<path fill="none" stroke="midnightblue" d="M86.0597,-137.039C97.2631,-135.62 109.437,-134.078 121.361,-132.568"/>
<polygon fill="midnightblue" stroke="midnightblue" points="85.5595,-133.574 76.0787,-138.303 86.4392,-140.519 85.5595,-133.574"/>
</g>
<!-- Node5 -->
<g id="node6" class="node"><title>Node5</title>
<g id="a_node6"><a xlink:href="interfaceumontreal_1_1ssj_1_1functions_1_1MathFunctionWithIntegral.html" target="_top" xlink:title="Represents a mathematical function whose integral can be computed by the integral(double,double) method. ">
<polygon fill="none" stroke="black" points="126,-76.5 126,-95.5 254,-95.5 254,-76.5 126,-76.5"/>
<text text-anchor="middle" x="190" y="-83.5" font-family="Helvetica,sans-Serif" font-size="10.00">MathFunctionWithIntegral</text>
</a>
</g>
</g>
<!-- Node2&#45;&gt;Node5 -->
<g id="edge8" class="edge"><title>Node2&#45;&gt;Node5</title>
<path fill="none" stroke="midnightblue" d="M63.6153,-128.31C77.4591,-120.533 95.2742,-111.314 112,-105 121.661,-101.353 132.271,-98.2123 142.443,-95.594"/>
<polygon fill="midnightblue" stroke="midnightblue" points="61.6592,-125.397 54.7278,-133.41 65.1433,-131.469 61.6592,-125.397"/>
</g>
<!-- Node3&#45;&gt;Node1 -->
<g id="edge3" class="edge"><title>Node3&#45;&gt;Node1</title>
<path fill="none" stroke="midnightblue" d="M253.362,-149.271C258.422,-147.443 263.366,-145.363 268,-143 292.048,-130.736 314.935,-108.394 326.89,-95.6273"/>
<polygon fill="midnightblue" stroke="midnightblue" points="251.952,-146.049 243.536,-152.485 254.129,-152.703 251.952,-146.049"/>
</g>
<!-- Node4&#45;&gt;Node1 -->
<g id="edge5" class="edge"><title>Node4&#45;&gt;Node1</title>
<path fill="none" stroke="midnightblue" d="M240.424,-112.057C249.604,-109.767 259.103,-107.349 268,-105 279.771,-101.892 292.645,-98.313 303.965,-95.1051"/>
<polygon fill="midnightblue" stroke="midnightblue" points="239.496,-108.681 230.63,-114.482 241.179,-115.475 239.496,-108.681"/>
</g>
<!-- Node5&#45;&gt;Node1 -->
<g id="edge7" class="edge"><title>Node5&#45;&gt;Node1</title>
<path fill="none" stroke="midnightblue" d="M264.469,-86C278.352,-86 292.174,-86 303.885,-86"/>
<polygon fill="midnightblue" stroke="midnightblue" points="264.38,-82.5001 254.38,-86 264.38,-89.5001 264.38,-82.5001"/>
</g>
<!-- Node6 -->
<g id="node7" class="node"><title>Node6</title>
<polygon fill="none" stroke="#bfbfbf" points="156.5,-0.5 156.5,-19.5 223.5,-19.5 223.5,-0.5 156.5,-0.5"/>
<text text-anchor="middle" x="190" y="-7.5" font-family="Helvetica,sans-Serif" font-size="10.00">Serializable</text>
</g>
<!-- Node6&#45;&gt;Node0 -->
<g id="edge11" class="edge"><title>Node6&#45;&gt;Node0</title>
<path fill="none" stroke="midnightblue" d="M233.768,-18.358C283.31,-28.0397 363.41,-43.6935 404.815,-51.7851"/>
<polygon fill="midnightblue" stroke="midnightblue" points="234.171,-14.8706 223.685,-16.3875 232.828,-21.7406 234.171,-14.8706"/>
</g>
<!-- Node6&#45;&gt;Node1 -->
<g id="edge9" class="edge"><title>Node6&#45;&gt;Node1</title>
<path fill="none" stroke="midnightblue" d="M233.563,-16.8298C245.123,-19.6543 257.375,-23.5813 268,-29 292.048,-41.2639 314.935,-63.6064 326.89,-76.3727"/>
<polygon fill="midnightblue" stroke="midnightblue" points="234.162,-13.3776 223.641,-14.6218 232.642,-20.2104 234.162,-13.3776"/>
</g>
<!-- Node7 -->
<g id="node8" class="node"><title>Node7</title>
<polygon fill="none" stroke="#bfbfbf" points="160.5,-38.5 160.5,-57.5 219.5,-57.5 219.5,-38.5 160.5,-38.5"/>
<text text-anchor="middle" x="190" y="-45.5" font-family="Helvetica,sans-Serif" font-size="10.00">Cloneable</text>
</g>
<!-- Node7&#45;&gt;Node1 -->
<g id="edge10" class="edge"><title>Node7&#45;&gt;Node1</title>
<path fill="none" stroke="midnightblue" d="M229.544,-57.2508C241.853,-60.2747 255.519,-63.7046 268,-67 279.771,-70.108 292.645,-73.687 303.965,-76.8949"/>
<polygon fill="midnightblue" stroke="midnightblue" points="230.124,-53.7896 219.579,-54.818 228.463,-60.5899 230.124,-53.7896"/>
</g>
</g>
</svg>
