<?xml version="1.0" encoding="UTF-8" standalone="no"?>
<!DOCTYPE svg PUBLIC "-//W3C//DTD SVG 1.1//EN"
 "http://www.w3.org/Graphics/SVG/1.1/DTD/svg11.dtd">
<!-- Generated by graphviz version 2.26.3 (20100126.1600)
 -->
<!-- Title: InverseGaussianProcessMSH Pages: 1 -->
<svg width="294pt" height="240pt"
 viewBox="0.00 0.00 294.00 240.00" xmlns="http://www.w3.org/2000/svg" xmlns:xlink="http://www.w3.org/1999/xlink">
<g id="graph1" class="graph" transform="scale(1 1) rotate(0) translate(4 236)">
<title>InverseGaussianProcessMSH</title>
<!-- Node1 -->
<g id="node1" class="node"><title>Node1</title>
<polygon fill="#bfbfbf" stroke="black" points="84,-1 84,-21 232,-21 232,-1 84,-1"/>
<text text-anchor="middle" x="158" y="-8" font-family="Helvetica,sans-Serif" font-size="10.00">InverseGaussianProcessMSH</text>
</g>
<!-- Node2 -->
<g id="node2" class="node"><title>Node2</title>
<a xlink:href="classumontreal_1_1ssj_1_1stochprocess_1_1InverseGaussianProcess.html" target="_top" xlink:title="The inverse Gaussian process is a non&#45;decreasing process where the increments are additive and are gi...">
<polygon fill="none" stroke="black" points="4,-141 4,-161 130,-161 130,-141 4,-141"/>
<text text-anchor="middle" x="67" y="-148" font-family="Helvetica,sans-Serif" font-size="10.00">InverseGaussianProcess</text>
</a>
</g>
<!-- Node2&#45;&gt;Node1 -->
<g id="edge2" class="edge"><title>Node2&#45;&gt;Node1</title>
<path fill="none" stroke="midnightblue" d="M79.1726,-132.273C98.6082,-102.372 136.01,-44.8302 151.269,-21.3549"/>
<polygon fill="midnightblue" stroke="midnightblue" points="76.0599,-130.64 73.5445,-140.932 81.929,-134.455 76.0599,-130.64"/>
</g>
<!-- Node3 -->
<g id="node4" class="node"><title>Node3</title>
<a xlink:href="classumontreal_1_1ssj_1_1stochprocess_1_1StochasticProcess.html" target="_top" xlink:title="Abstract base class for a stochastic process &#160;sampled (or observed) at a finite number of time points...">
<polygon fill="none" stroke="black" points="-0.5,-211 -0.5,-231 98.5,-231 98.5,-211 -0.5,-211"/>
<text text-anchor="middle" x="49" y="-218" font-family="Helvetica,sans-Serif" font-size="10.00">StochasticProcess</text>
</a>
</g>
<!-- Node3&#45;&gt;Node2 -->
<g id="edge4" class="edge"><title>Node3&#45;&gt;Node2</title>
<path fill="none" stroke="midnightblue" d="M54.1413,-201.006C57.5045,-187.927 61.7544,-171.399 64.4258,-161.011"/>
<polygon fill="midnightblue" stroke="midnightblue" points="50.6797,-200.414 51.579,-210.971 57.4592,-202.157 50.6797,-200.414"/>
</g>
<!-- Node4 -->
<g id="node6" class="node"><title>Node4</title>
<a xlink:href="interfaceumontreal_1_1ssj_1_1rng_1_1RandomStream.html" target="_top" xlink:title="This interface defines the basic structures to handle multiple streams of uniform (pseudo)random numb...">
<polygon fill="none" stroke="black" points="116,-211 116,-231 200,-231 200,-211 116,-211"/>
<text text-anchor="middle" x="158" y="-218" font-family="Helvetica,sans-Serif" font-size="10.00">RandomStream</text>
</a>
</g>
<!-- Node4&#45;&gt;Node1 -->
<g id="edge16" class="edge"><title>Node4&#45;&gt;Node1</title>
<path fill="none" stroke="#9a32cd" stroke-dasharray="5,2" d="M158,-200.812C158,-156.808 158,-53.5909 158,-21.0271"/>
<polygon fill="#9a32cd" stroke="#9a32cd" points="154.5,-200.871 158,-210.871 161.5,-200.871 154.5,-200.871"/>
<text text-anchor="middle" x="186.5" y="-113" font-family="Helvetica,sans-Serif" font-size="10.00"> otherStream</text>
</g>
<!-- Node4&#45;&gt;Node2 -->
<g id="edge6" class="edge"><title>Node4&#45;&gt;Node2</title>
<path fill="none" stroke="#9a32cd" stroke-dasharray="5,2" d="M130.191,-205.605C123.394,-201.465 116.276,-196.796 110,-192 97.5426,-182.48 84.7192,-169.811 76.3561,-161.088"/>
<polygon fill="#9a32cd" stroke="#9a32cd" points="128.759,-208.823 139.151,-210.886 132.313,-202.793 128.759,-208.823"/>
<text text-anchor="middle" x="127" y="-183" font-family="Helvetica,sans-Serif" font-size="10.00"> stream</text>
</g>
<!-- Node6 -->
<g id="node10" class="node"><title>Node6</title>
<a xlink:href="classumontreal_1_1ssj_1_1randvar_1_1RandomVariateGen.html" target="_top" xlink:title="This is the base class for all random variate generators over the real line. ">
<polygon fill="none" stroke="black" points="185.5,-141 185.5,-161 286.5,-161 286.5,-141 185.5,-141"/>
<text text-anchor="middle" x="236" y="-148" font-family="Helvetica,sans-Serif" font-size="10.00">RandomVariateGen</text>
</a>
</g>
<!-- Node4&#45;&gt;Node6 -->
<g id="edge14" class="edge"><title>Node4&#45;&gt;Node6</title>
<path fill="none" stroke="#9a32cd" stroke-dasharray="5,2" d="M176.861,-204.074C191.862,-190.611 212.343,-172.231 224.845,-161.011"/>
<polygon fill="#9a32cd" stroke="#9a32cd" points="174.28,-201.687 169.175,-210.971 178.956,-206.896 174.28,-201.687"/>
<text text-anchor="middle" x="218" y="-183" font-family="Helvetica,sans-Serif" font-size="10.00"> stream</text>
</g>
<!-- Node5 -->
<g id="node8" class="node"><title>Node5</title>
<a xlink:href="classumontreal_1_1ssj_1_1randvar_1_1NormalGen.html" target="_top" xlink:title="This class implements methods for generating random variates from the normal distribution ...">
<polygon fill="none" stroke="black" points="192.5,-71 192.5,-91 257.5,-91 257.5,-71 192.5,-71"/>
<text text-anchor="middle" x="225" y="-78" font-family="Helvetica,sans-Serif" font-size="10.00">NormalGen</text>
</a>
</g>
<!-- Node5&#45;&gt;Node1 -->
<g id="edge8" class="edge"><title>Node5&#45;&gt;Node1</title>
<path fill="none" stroke="#9a32cd" stroke-dasharray="5,2" d="M208.44,-63.6986C195.588,-50.2709 178.221,-32.1267 167.582,-21.0107"/>
<polygon fill="#9a32cd" stroke="#9a32cd" points="205.957,-66.1666 215.401,-70.9707 211.014,-61.3264 205.957,-66.1666"/>
<text text-anchor="middle" x="220.5" y="-43" font-family="Helvetica,sans-Serif" font-size="10.00"> normalGen</text>
</g>
<!-- Node6&#45;&gt;Node5 -->
<g id="edge10" class="edge"><title>Node6&#45;&gt;Node5</title>
<path fill="none" stroke="midnightblue" d="M232.858,-131.006C230.803,-117.927 228.206,-101.399 226.573,-91.0107"/>
<polygon fill="midnightblue" stroke="midnightblue" points="229.414,-131.635 234.424,-140.971 236.329,-130.549 229.414,-131.635"/>
</g>
<!-- Node7 -->
<g id="node12" class="node"><title>Node7</title>
<a xlink:href="interfaceumontreal_1_1ssj_1_1probdist_1_1Distribution.html" target="_top" xlink:title="This interface should be implemented by all classes supporting discrete and continuous distributions...">
<polygon fill="none" stroke="black" points="217.5,-211 217.5,-231 282.5,-231 282.5,-211 217.5,-211"/>
<text text-anchor="middle" x="250" y="-218" font-family="Helvetica,sans-Serif" font-size="10.00">Distribution</text>
</a>
</g>
<!-- Node7&#45;&gt;Node6 -->
<g id="edge12" class="edge"><title>Node7&#45;&gt;Node6</title>
<path fill="none" stroke="#9a32cd" stroke-dasharray="5,2" d="M246.001,-201.006C243.385,-187.927 240.08,-171.399 238.002,-161.011"/>
<polygon fill="#9a32cd" stroke="#9a32cd" points="242.601,-201.851 247.994,-210.971 249.465,-200.478 242.601,-201.851"/>
<text text-anchor="middle" x="252.5" y="-183" font-family="Helvetica,sans-Serif" font-size="10.00"> dist</text>
</g>
</g>
</svg>
