<?xml version="1.0" encoding="UTF-8" standalone="no"?>
<!DOCTYPE svg PUBLIC "-//W3C//DTD SVG 1.1//EN"
 "http://www.w3.org/Graphics/SVG/1.1/DTD/svg11.dtd">
<!-- Generated by graphviz version 2.26.3 (20100126.1600)
 -->
<!-- Title: RandomVariateGenInt Pages: 1 -->
<!--zoomable 370 -->
<svg id="main" version="1.1" xmlns="http://www.w3.org/2000/svg" xmlns:xlink="http://www.w3.org/1999/xlink" xml:space="preserve" onload="init(evt)">
<style type="text/css"><![CDATA[
.edge:hover path { stroke: red; }
.edge:hover polygon { stroke: red; fill: red; }
]]></style>
<script type="text/javascript"><![CDATA[
var edges = document.getElementsByTagName('g');
if (edges && edges.length) {
  for (var i=0;i<edges.length;i++) {
    if (edges[i].id.substr(0,4)=='edge') {
      edges[i].setAttribute('class','edge');
    }
  }
}
]]></script>
        <defs>
                <circle id="rim" cx="0" cy="0" r="7"/>
                <circle id="rim2" cx="0" cy="0" r="3.5"/>
                <g id="zoomPlus">
                        <use xlink:href="#rim" fill="#404040">
                                <set attributeName="fill" to="#808080" begin="zoomplus.mouseover" end="zoomplus.mouseout"/>
                        </use>
                        <path d="M-4,0h8M0,-4v8" fill="none" stroke="white" stroke-width="1.5" pointer-events="none"/>
                </g>
                <g id="zoomMin">
                        <use xlink:href="#rim" fill="#404040">
                                <set attributeName="fill" to="#808080" begin="zoomminus.mouseover" end="zoomminus.mouseout"/>
                        </use>
                        <path d="M-4,0h8" fill="none" stroke="white" stroke-width="1.5" pointer-events="none"/>
                </g>
                <g id="dirArrow">
                        <path fill="none" stroke="white" stroke-width="1.5" d="M0,-3.0v7 M-2.5,-0.5L0,-3.0L2.5,-0.5"/>
                </g>
               <g id="resetDef">
                       <use xlink:href="#rim2" fill="#404040">
                               <set attributeName="fill" to="#808080" begin="reset.mouseover" end="reset.mouseout"/>
                       </use>
               </g>
        </defs>

<script type="text/javascript">
var viewWidth = 564;
var viewHeight = 370;
var sectionId = 'dynsection-0';
</script>
<script xlink:href="svgpan.js"/>
<svg id="graph" class="graph">
<g id="viewport">
<title>RandomVariateGenInt</title>
<!-- Node1 -->
<g id="node1" class="node"><title>Node1</title>
<polygon fill="#bfbfbf" stroke="black" points="138,-171 138,-191 250,-191 250,-171 138,-171"/>
<text text-anchor="middle" x="194" y="-178" font-family="Helvetica,sans-Serif" font-size="10.00">RandomVariateGenInt</text>
</g>
<!-- Node3 -->
<g id="node5" class="node"><title>Node3</title>
<a xlink:href="classumontreal_1_1ssj_1_1randvar_1_1BernoulliGen.html" target="_top" xlink:title="This class implements random variate generators for the Bernoulli distribution (see class umontreal...">
<polygon fill="none" stroke="black" points="305,-342 305,-362 377,-362 377,-342 305,-342"/>
<text text-anchor="middle" x="341" y="-349" font-family="Helvetica,sans-Serif" font-size="10.00">BernoulliGen</text>
</a>
</g>
<!-- Node1&#45;&gt;Node3 -->
<g id="edge4" class="edge"><title>Node1&#45;&gt;Node3</title>
<path fill="none" stroke="midnightblue" d="M200.869,-200.804C213.035,-233.058 241.378,-296.948 286,-333 291.501,-337.444 298.105,-340.879 304.799,-343.523"/>
<polygon fill="midnightblue" stroke="midnightblue" points="204.07,-199.365 197.363,-191.164 197.491,-201.758 204.07,-199.365"/>
</g>
<!-- Node4 -->
<g id="node7" class="node"><title>Node4</title>
<a xlink:href="classumontreal_1_1ssj_1_1randvar_1_1BinomialGen.html" target="_top" xlink:title="This class implements random variate generators for the binomial distribution. ">
<polygon fill="none" stroke="black" points="305,-304 305,-324 377,-324 377,-304 305,-304"/>
<text text-anchor="middle" x="341" y="-311" font-family="Helvetica,sans-Serif" font-size="10.00">BinomialGen</text>
</a>
</g>
<!-- Node1&#45;&gt;Node4 -->
<g id="edge6" class="edge"><title>Node1&#45;&gt;Node4</title>
<path fill="none" stroke="midnightblue" d="M204.688,-200.042C219.729,-225.201 249.435,-269.324 286,-295 291.705,-299.006 298.33,-302.233 304.965,-304.809"/>
<polygon fill="midnightblue" stroke="midnightblue" points="207.547,-197.995 199.492,-191.112 201.496,-201.516 207.547,-197.995"/>
</g>
<!-- Node6 -->
<g id="node11" class="node"><title>Node6</title>
<a xlink:href="classumontreal_1_1ssj_1_1randvar_1_1GeometricGen.html" target="_top" xlink:title="This class implements a random variate generator for the geometric distribution. ">
<polygon fill="none" stroke="black" points="301,-266 301,-286 381,-286 381,-266 301,-266"/>
<text text-anchor="middle" x="341" y="-273" font-family="Helvetica,sans-Serif" font-size="10.00">GeometricGen</text>
</a>
</g>
<!-- Node1&#45;&gt;Node6 -->
<g id="edge10" class="edge"><title>Node1&#45;&gt;Node6</title>
<path fill="none" stroke="midnightblue" d="M211.059,-198.341C228.541,-215.283 257.174,-240.818 286,-257 292.166,-260.462 299.073,-263.451 305.853,-265.967"/>
<polygon fill="midnightblue" stroke="midnightblue" points="213.426,-195.759 203.85,-191.225 208.509,-200.741 213.426,-195.759"/>
</g>
<!-- Node7 -->
<g id="node13" class="node"><title>Node7</title>
<a xlink:href="classumontreal_1_1ssj_1_1randvar_1_1HypergeometricGen.html" target="_top" xlink:title="This class implements random variate generators for the hypergeometric distribution. ">
<polygon fill="none" stroke="black" points="289.5,-228 289.5,-248 392.5,-248 392.5,-228 289.5,-228"/>
<text text-anchor="middle" x="341" y="-235" font-family="Helvetica,sans-Serif" font-size="10.00">HypergeometricGen</text>
</a>
</g>
<!-- Node1&#45;&gt;Node7 -->
<g id="edge12" class="edge"><title>Node1&#45;&gt;Node7</title>
<path fill="none" stroke="midnightblue" d="M226.519,-194.981C244.041,-202.375 266.093,-211.458 286,-219 294.03,-222.042 302.791,-225.159 310.912,-227.965"/>
<polygon fill="midnightblue" stroke="midnightblue" points="227.865,-191.75 217.292,-191.067 225.132,-198.195 227.865,-191.75"/>
</g>
<!-- Node8 -->
<g id="node15" class="node"><title>Node8</title>
<a xlink:href="classumontreal_1_1ssj_1_1randvar_1_1LogarithmicGen.html" target="_top" xlink:title="This class implements random variate generators for the (discrete) logarithmic distribution. ">
<polygon fill="none" stroke="black" points="298.5,-190 298.5,-210 383.5,-210 383.5,-190 298.5,-190"/>
<text text-anchor="middle" x="341" y="-197" font-family="Helvetica,sans-Serif" font-size="10.00">LogarithmicGen</text>
</a>
</g>
<!-- Node1&#45;&gt;Node8 -->
<g id="edge14" class="edge"><title>Node1&#45;&gt;Node8</title>
<path fill="none" stroke="midnightblue" d="M260.576,-189.605C273.361,-191.258 286.427,-192.946 298.21,-194.469"/>
<polygon fill="midnightblue" stroke="midnightblue" points="260.78,-186.102 250.414,-188.292 259.882,-193.045 260.78,-186.102"/>
</g>
<!-- Node9 -->
<g id="node17" class="node"><title>Node9</title>
<a xlink:href="classumontreal_1_1ssj_1_1randvar_1_1NegativeBinomialGen.html" target="_top" xlink:title="This class implements random variate generators having the negative binomial distribution. ">
<polygon fill="none" stroke="black" points="286,-152 286,-172 396,-172 396,-152 286,-152"/>
<text text-anchor="middle" x="341" y="-159" font-family="Helvetica,sans-Serif" font-size="10.00">NegativeBinomialGen</text>
</a>
</g>
<!-- Node1&#45;&gt;Node9 -->
<g id="edge16" class="edge"><title>Node1&#45;&gt;Node9</title>
<path fill="none" stroke="midnightblue" d="M260.367,-172.422C268.921,-171.316 277.604,-170.194 285.949,-169.115"/>
<polygon fill="midnightblue" stroke="midnightblue" points="259.882,-168.955 250.414,-173.708 260.78,-175.898 259.882,-168.955"/>
</g>
<!-- Node10 -->
<g id="node19" class="node"><title>Node10</title>
<a xlink:href="classumontreal_1_1ssj_1_1randvar_1_1PascalGen.html" target="_top" xlink:title="Implements Pascal random variate generators, which is a special case of the negative binomial generat...">
<polygon fill="none" stroke="black" points="308.5,-114 308.5,-134 373.5,-134 373.5,-114 308.5,-114"/>
<text text-anchor="middle" x="341" y="-121" font-family="Helvetica,sans-Serif" font-size="10.00">PascalGen</text>
</a>
</g>
<!-- Node1&#45;&gt;Node10 -->
<g id="edge18" class="edge"><title>Node1&#45;&gt;Node10</title>
<path fill="none" stroke="midnightblue" d="M226.519,-167.019C244.041,-159.625 266.093,-150.542 286,-143 294.03,-139.958 302.791,-136.841 310.912,-134.035"/>
<polygon fill="midnightblue" stroke="midnightblue" points="225.132,-163.805 217.292,-170.933 227.865,-170.25 225.132,-163.805"/>
</g>
<!-- Node12 -->
<g id="node23" class="node"><title>Node12</title>
<a xlink:href="classumontreal_1_1ssj_1_1randvar_1_1PoissonGen.html" target="_top" xlink:title="This class implements random variate generators having the Poisson distribution. ">
<polygon fill="none" stroke="black" points="306,-76 306,-96 376,-96 376,-76 306,-76"/>
<text text-anchor="middle" x="341" y="-83" font-family="Helvetica,sans-Serif" font-size="10.00">PoissonGen</text>
</a>
</g>
<!-- Node1&#45;&gt;Node12 -->
<g id="edge22" class="edge"><title>Node1&#45;&gt;Node12</title>
<path fill="none" stroke="midnightblue" d="M211.059,-163.659C228.541,-146.717 257.174,-121.182 286,-105 292.166,-101.538 299.073,-98.5492 305.853,-96.0329"/>
<polygon fill="midnightblue" stroke="midnightblue" points="208.509,-161.259 203.85,-170.775 213.426,-166.241 208.509,-161.259"/>
</g>
<!-- Node14 -->
<g id="node27" class="node"><title>Node14</title>
<a xlink:href="classumontreal_1_1ssj_1_1randvar_1_1UniformIntGen.html" target="_top" xlink:title="This class implements a random variate generator for the uniform distribution over integers...">
<polygon fill="none" stroke="black" points="301,-38 301,-58 381,-58 381,-38 301,-38"/>
<text text-anchor="middle" x="341" y="-45" font-family="Helvetica,sans-Serif" font-size="10.00">UniformIntGen</text>
</a>
</g>
<!-- Node1&#45;&gt;Node14 -->
<g id="edge26" class="edge"><title>Node1&#45;&gt;Node14</title>
<path fill="none" stroke="midnightblue" d="M204.688,-161.958C219.729,-136.799 249.435,-92.6765 286,-67 291.043,-63.4586 296.806,-60.5262 302.659,-58.1135"/>
<polygon fill="midnightblue" stroke="midnightblue" points="201.496,-160.484 199.492,-170.888 207.547,-164.005 201.496,-160.484"/>
</g>
<!-- Node15 -->
<g id="node29" class="node"><title>Node15</title>
<a xlink:href="classumontreal_1_1ssj_1_1randvar_1_1UnuranDiscreteInt.html" target="_top" xlink:title="This class permits one to create a discrete univariate generator using UNURAN via its string API...">
<polygon fill="none" stroke="black" points="293.5,-0 293.5,-20 388.5,-20 388.5,-0 293.5,-0"/>
<text text-anchor="middle" x="341" y="-7" font-family="Helvetica,sans-Serif" font-size="10.00">UnuranDiscreteInt</text>
</a>
</g>
<!-- Node1&#45;&gt;Node15 -->
<g id="edge28" class="edge"><title>Node1&#45;&gt;Node15</title>
<path fill="none" stroke="midnightblue" d="M200.869,-161.196C213.035,-128.942 241.378,-65.0524 286,-29 290.479,-25.3811 295.69,-22.4319 301.085,-20.0334"/>
<polygon fill="midnightblue" stroke="midnightblue" points="197.491,-160.242 197.363,-170.836 204.07,-162.635 197.491,-160.242"/>
</g>
<!-- Node2 -->
<g id="node2" class="node"><title>Node2</title>
<a xlink:href="classumontreal_1_1ssj_1_1randvar_1_1RandomVariateGen.html" target="_top" xlink:title="This is the base class for all random variate generators over the real line. ">
<polygon fill="none" stroke="black" points="0.5,-171 0.5,-191 101.5,-191 101.5,-171 0.5,-171"/>
<text text-anchor="middle" x="51" y="-178" font-family="Helvetica,sans-Serif" font-size="10.00">RandomVariateGen</text>
</a>
</g>
<!-- Node2&#45;&gt;Node1 -->
<g id="edge2" class="edge"><title>Node2&#45;&gt;Node1</title>
<path fill="none" stroke="midnightblue" d="M111.869,-181C120.541,-181 129.426,-181 137.999,-181"/>
<polygon fill="midnightblue" stroke="midnightblue" points="111.819,-177.5 101.819,-181 111.819,-184.5 111.819,-177.5"/>
</g>
<!-- Node5 -->
<g id="node9" class="node"><title>Node5</title>
<a xlink:href="classumontreal_1_1ssj_1_1randvar_1_1BinomialConvolutionGen.html" target="_top" xlink:title="Implements binomial random variate generators using the convolution method. ">
<polygon fill="none" stroke="black" points="432.5,-304 432.5,-324 555.5,-324 555.5,-304 432.5,-304"/>
<text text-anchor="middle" x="494" y="-311" font-family="Helvetica,sans-Serif" font-size="10.00">BinomialConvolutionGen</text>
</a>
</g>
<!-- Node4&#45;&gt;Node5 -->
<g id="edge8" class="edge"><title>Node4&#45;&gt;Node5</title>
<path fill="none" stroke="midnightblue" d="M387.664,-314C401.73,-314 417.39,-314 432.275,-314"/>
<polygon fill="midnightblue" stroke="midnightblue" points="387.259,-310.5 377.259,-314 387.259,-317.5 387.259,-310.5"/>
</g>
<!-- Node11 -->
<g id="node21" class="node"><title>Node11</title>
<a xlink:href="classumontreal_1_1ssj_1_1randvar_1_1PascalConvolutionGen.html" target="_top" xlink:title="Implements Pascal random variate generators by the convolution method (see  ). ">
<polygon fill="none" stroke="black" points="436,-114 436,-134 552,-134 552,-114 436,-114"/>
<text text-anchor="middle" x="494" y="-121" font-family="Helvetica,sans-Serif" font-size="10.00">PascalConvolutionGen</text>
</a>
</g>
<!-- Node10&#45;&gt;Node11 -->
<g id="edge20" class="edge"><title>Node10&#45;&gt;Node11</title>
<path fill="none" stroke="midnightblue" d="M384.008,-124C400.108,-124 418.674,-124 435.914,-124"/>
<polygon fill="midnightblue" stroke="midnightblue" points="383.822,-120.5 373.822,-124 383.822,-127.5 383.822,-120.5"/>
</g>
<!-- Node13 -->
<g id="node25" class="node"><title>Node13</title>
<a xlink:href="classumontreal_1_1ssj_1_1randvar_1_1PoissonTIACGen.html" target="_top" xlink:title="This class implements random variate generators having the Poisson distribution (see PoissonGen )...">
<polygon fill="none" stroke="black" points="448,-76 448,-96 540,-96 540,-76 448,-76"/>
<text text-anchor="middle" x="494" y="-83" font-family="Helvetica,sans-Serif" font-size="10.00">PoissonTIACGen</text>
</a>
</g>
<!-- Node12&#45;&gt;Node13 -->
<g id="edge24" class="edge"><title>Node12&#45;&gt;Node13</title>
<path fill="none" stroke="midnightblue" d="M386.207,-86C405.601,-86 428.237,-86 447.746,-86"/>
<polygon fill="midnightblue" stroke="midnightblue" points="386.101,-82.5001 376.101,-86 386.101,-89.5001 386.101,-82.5001"/>
</g>
</g>
</svg>
        <g id="navigator" transform="translate(0 0)" fill="#404254">
                <rect fill="#f2f5e9" fill-opacity="0.5" stroke="#606060" stroke-width=".5" x="0" y="0" width="60" height="60"/>
                <use id="zoomplus" xlink:href="#zoomPlus" x="17" y="9" onmousedown="handleZoom(evt,'in')"/>
                <use id="zoomminus" xlink:href="#zoomMin" x="42" y="9" onmousedown="handleZoom(evt,'out')"/>
                <use id="reset" xlink:href="#resetDef" x="30" y="36" onmousedown="handleReset()"/>
                <g id="arrowUp" xlink:href="#dirArrow" transform="translate(30 24)" onmousedown="handlePan(0,-1)">
                  <use xlink:href="#rim" fill="#404040">
                        <set attributeName="fill" to="#808080" begin="arrowUp.mouseover" end="arrowUp.mouseout"/>
                  </use>
                  <path fill="none" stroke="white" stroke-width="1.5" d="M0,-3.0v7 M-2.5,-0.5L0,-3.0L2.5,-0.5"/>
                </g>
                <g id="arrowRight" xlink:href="#dirArrow" transform="rotate(90) translate(36 -43)" onmousedown="handlePan(1,0)">
                  <use xlink:href="#rim" fill="#404040">
                        <set attributeName="fill" to="#808080" begin="arrowRight.mouseover" end="arrowRight.mouseout"/>
                  </use>
                  <path fill="none" stroke="white" stroke-width="1.5" d="M0,-3.0v7 M-2.5,-0.5L0,-3.0L2.5,-0.5"/>
                </g>
                <g id="arrowDown" xlink:href="#dirArrow" transform="rotate(180) translate(-30 -48)" onmousedown="handlePan(0,1)">
                  <use xlink:href="#rim" fill="#404040">
                        <set attributeName="fill" to="#808080" begin="arrowDown.mouseover" end="arrowDown.mouseout"/>
                  </use>
                  <path fill="none" stroke="white" stroke-width="1.5" d="M0,-3.0v7 M-2.5,-0.5L0,-3.0L2.5,-0.5"/>
                </g>
                <g id="arrowLeft" xlink:href="#dirArrow" transform="rotate(270) translate(-36 17)" onmousedown="handlePan(-1,0)">
                  <use xlink:href="#rim" fill="#404040">
                        <set attributeName="fill" to="#808080" begin="arrowLeft.mouseover" end="arrowLeft.mouseout"/>
                  </use>
                  <path fill="none" stroke="white" stroke-width="1.5" d="M0,-3.0v7 M-2.5,-0.5L0,-3.0L2.5,-0.5"/>
                </g>
        </g>
        <svg viewBox="0 0 15 15" width="100%" height="30px" preserveAspectRatio="xMaxYMin meet">
         <g id="arrow_out" transform="scale(0.3 0.3)">
          <a xlink:href="classumontreal_1_1ssj_1_1randvar_1_1RandomVariateGenInt__inherit__graph_org.svg" target="_base">
           <rect id="button" ry="5" rx="5" y="6" x="6" height="38" width="38"
                fill="#f2f5e9" fill-opacity="0.5" stroke="#606060" stroke-width="1.0"/>
           <path id="arrow"
             d="M 11.500037,31.436501 C 11.940474,20.09759 22.043105,11.32322 32.158766,21.979434 L 37.068811,17.246167 C 37.068811,17.246167 37.088388,32 37.088388,32 L 22.160133,31.978069 C 22.160133,31.978069 26.997745,27.140456 26.997745,27.140456 C 18.528582,18.264221 13.291696,25.230495 11.500037,31.436501 z"
             style="fill:#404040;"/>
          </a>
         </g>
        </svg>
</svg>
