<?xml version="1.0" encoding="UTF-8" standalone="no"?>
<!DOCTYPE svg PUBLIC "-//W3C//DTD SVG 1.1//EN"
 "http://www.w3.org/Graphics/SVG/1.1/DTD/svg11.dtd">
<!-- Generated by graphviz version 2.38.0 (20140413.2041)
 -->
<!-- Title: XYChart Pages: 1 -->
<svg width="443pt" height="140pt"
 viewBox="0.00 0.00 443.00 140.00" xmlns="http://www.w3.org/2000/svg" xmlns:xlink="http://www.w3.org/1999/xlink">
<g id="graph0" class="graph" transform="scale(1 1) rotate(0) translate(4 136)">
<title>XYChart</title>
<!-- Node1 -->
<g id="node1" class="node"><title>Node1</title>
<polygon fill="#bfbfbf" stroke="black" points="163.5,-112.5 163.5,-131.5 217.5,-131.5 217.5,-112.5 163.5,-112.5"/>
<text text-anchor="middle" x="190.5" y="-119.5" font-family="Helvetica,sans-Serif" font-size="10.00">XYChart</text>
</g>
<!-- Node2 -->
<g id="node2" class="node"><title>Node2</title>
<g id="a_node2"><a xlink:href="classumontreal_1_1ssj_1_1charts_1_1EmpiricalChart.html" target="_top" xlink:title="This class provides additional tools to create and manage empirical plots. ">
<polygon fill="none" stroke="black" points="0,-56.5 0,-75.5 81,-75.5 81,-56.5 0,-56.5"/>
<text text-anchor="middle" x="40.5" y="-63.5" font-family="Helvetica,sans-Serif" font-size="10.00">EmpiricalChart</text>
</a>
</g>
</g>
<!-- Node1&#45;&gt;Node2 -->
<g id="edge1" class="edge"><title>Node1&#45;&gt;Node2</title>
<path fill="none" stroke="midnightblue" d="M157.275,-109.039C129.052,-98.8786 89.2381,-84.5457 64.1567,-75.5164"/>
<polygon fill="midnightblue" stroke="midnightblue" points="156.138,-112.349 166.732,-112.444 158.509,-105.763 156.138,-112.349"/>
</g>
<!-- Node3 -->
<g id="node3" class="node"><title>Node3</title>
<g id="a_node3"><a xlink:href="classumontreal_1_1ssj_1_1charts_1_1HistogramChart.html" target="_top" xlink:title="This class provides tools to create and manage histograms. ">
<polygon fill="none" stroke="black" points="99.5,-56.5 99.5,-75.5 185.5,-75.5 185.5,-56.5 99.5,-56.5"/>
<text text-anchor="middle" x="142.5" y="-63.5" font-family="Helvetica,sans-Serif" font-size="10.00">HistogramChart</text>
</a>
</g>
</g>
<!-- Node1&#45;&gt;Node3 -->
<g id="edge2" class="edge"><title>Node1&#45;&gt;Node3</title>
<path fill="none" stroke="midnightblue" d="M175.772,-104.431C167.36,-94.9673 157.151,-83.4827 150.279,-75.7511"/>
<polygon fill="midnightblue" stroke="midnightblue" points="173.314,-106.934 182.574,-112.083 178.546,-102.284 173.314,-106.934"/>
</g>
<!-- Node4 -->
<g id="node4" class="node"><title>Node4</title>
<g id="a_node4"><a xlink:href="classumontreal_1_1ssj_1_1charts_1_1ScatterChart.html" target="_top" xlink:title="This class provides tools to create and manage scatter plots. ">
<polygon fill="none" stroke="black" points="203.5,-56.5 203.5,-75.5 275.5,-75.5 275.5,-56.5 203.5,-56.5"/>
<text text-anchor="middle" x="239.5" y="-63.5" font-family="Helvetica,sans-Serif" font-size="10.00">ScatterChart</text>
</a>
</g>
</g>
<!-- Node1&#45;&gt;Node4 -->
<g id="edge3" class="edge"><title>Node1&#45;&gt;Node4</title>
<path fill="none" stroke="midnightblue" d="M205.534,-104.431C214.122,-94.9673 224.543,-83.4827 231.559,-75.7511"/>
<polygon fill="midnightblue" stroke="midnightblue" points="202.719,-102.325 198.591,-112.083 207.903,-107.029 202.719,-102.325"/>
</g>
<!-- Node5 -->
<g id="node5" class="node"><title>Node5</title>
<g id="a_node5"><a xlink:href="classumontreal_1_1ssj_1_1charts_1_1XYLineChart.html" target="_top" xlink:title="This class provides tools to create and manage curve plots. ">
<polygon fill="none" stroke="black" points="293.5,-56.5 293.5,-75.5 365.5,-75.5 365.5,-56.5 293.5,-56.5"/>
<text text-anchor="middle" x="329.5" y="-63.5" font-family="Helvetica,sans-Serif" font-size="10.00">XYLineChart</text>
</a>
</g>
</g>
<!-- Node1&#45;&gt;Node5 -->
<g id="edge4" class="edge"><title>Node1&#45;&gt;Node5</title>
<path fill="none" stroke="midnightblue" d="M221.976,-108.772C248.085,-98.6287 284.539,-84.4669 307.578,-75.5164"/>
<polygon fill="midnightblue" stroke="midnightblue" points="220.579,-105.56 212.525,-112.444 223.114,-112.085 220.579,-105.56"/>
</g>
<!-- Node6 -->
<g id="node6" class="node"><title>Node6</title>
<g id="a_node6"><a xlink:href="classumontreal_1_1ssj_1_1charts_1_1PPPlot.html" target="_top" xlink:title="This class implements PP&#45;plot (or probability&#45;probability plot) objects that compare two probability ...">
<polygon fill="none" stroke="black" points="240,-0.5 240,-19.5 287,-19.5 287,-0.5 240,-0.5"/>
<text text-anchor="middle" x="263.5" y="-7.5" font-family="Helvetica,sans-Serif" font-size="10.00">PPPlot</text>
</a>
</g>
</g>
<!-- Node5&#45;&gt;Node6 -->
<g id="edge5" class="edge"><title>Node5&#45;&gt;Node6</title>
<path fill="none" stroke="midnightblue" d="M310.946,-49.8197C299.122,-40.1452 284.214,-27.9481 274.297,-19.8339"/>
<polygon fill="midnightblue" stroke="midnightblue" points="308.94,-52.7004 318.896,-56.324 313.373,-47.2827 308.94,-52.7004"/>
</g>
<!-- Node7 -->
<g id="node7" class="node"><title>Node7</title>
<g id="a_node7"><a xlink:href="classumontreal_1_1ssj_1_1charts_1_1QQPlot.html" target="_top" xlink:title="This class implements QQ&#45;plot (or quantile&#45;quantile plot) objects that compare two probability distri...">
<polygon fill="none" stroke="black" points="305,-0.5 305,-19.5 354,-19.5 354,-0.5 305,-0.5"/>
<text text-anchor="middle" x="329.5" y="-7.5" font-family="Helvetica,sans-Serif" font-size="10.00">QQPlot</text>
</a>
</g>
</g>
<!-- Node5&#45;&gt;Node7 -->
<g id="edge6" class="edge"><title>Node5&#45;&gt;Node7</title>
<path fill="none" stroke="midnightblue" d="M329.5,-45.8045C329.5,-36.9102 329.5,-26.7798 329.5,-19.7511"/>
<polygon fill="midnightblue" stroke="midnightblue" points="326,-46.083 329.5,-56.083 333,-46.083 326,-46.083"/>
</g>
<!-- Node8 -->
<g id="node8" class="node"><title>Node8</title>
<g id="a_node8"><a xlink:href="classumontreal_1_1ssj_1_1charts_1_1YListChart.html" target="_top" xlink:title="This class extends the class umontreal.ssj.charts.XYLineChart. ">
<polygon fill="none" stroke="black" points="372,-0.5 372,-19.5 435,-19.5 435,-0.5 372,-0.5"/>
<text text-anchor="middle" x="403.5" y="-7.5" font-family="Helvetica,sans-Serif" font-size="10.00">YListChart</text>
</a>
</g>
</g>
<!-- Node5&#45;&gt;Node8 -->
<g id="edge7" class="edge"><title>Node5&#45;&gt;Node8</title>
<path fill="none" stroke="midnightblue" d="M349.534,-50.3804C362.909,-40.6204 380.059,-28.1057 391.394,-19.8339"/>
<polygon fill="midnightblue" stroke="midnightblue" points="347.404,-47.602 341.389,-56.324 351.53,-53.2565 347.404,-47.602"/>
</g>
</g>
</svg>
