<?xml version="1.0" encoding="UTF-8" standalone="no"?>
<!DOCTYPE svg PUBLIC "-//W3C//DTD SVG 1.1//EN"
 "http://www.w3.org/Graphics/SVG/1.1/DTD/svg11.dtd">
<!-- Generated by graphviz version 2.38.0 (20140413.2041)
 -->
<!-- Title: LCGPointSet Pages: 1 -->
<svg width="126pt" height="209pt"
 viewBox="0.00 0.00 126.00 209.00" xmlns="http://www.w3.org/2000/svg" xmlns:xlink="http://www.w3.org/1999/xlink">
<g id="graph0" class="graph" transform="scale(1 1) rotate(0) translate(4 205)">
<title>LCGPointSet</title>
<!-- Node1 -->
<g id="node1" class="node"><title>Node1</title>
<polygon fill="#bfbfbf" stroke="black" points="18.5,-0.5 18.5,-19.5 95.5,-19.5 95.5,-0.5 18.5,-0.5"/>
<text text-anchor="middle" x="57" y="-7.5" font-family="Helvetica,sans-Serif" font-size="10.00">LCGPointSet</text>
</g>
<!-- Node2 -->
<g id="node2" class="node"><title>Node2</title>
<g id="a_node2"><a xlink:href="classumontreal_1_1ssj_1_1hups_1_1CycleBasedPointSet.html" target="_top" xlink:title="This abstract class provides the basic structures for storing and manipulating a highly uniform point...">
<polygon fill="none" stroke="black" points="0,-57.5 0,-76.5 114,-76.5 114,-57.5 0,-57.5"/>
<text text-anchor="middle" x="57" y="-64.5" font-family="Helvetica,sans-Serif" font-size="10.00">CycleBasedPointSet</text>
</a>
</g>
</g>
<!-- Node2&#45;&gt;Node1 -->
<g id="edge1" class="edge"><title>Node2&#45;&gt;Node1</title>
<path fill="none" stroke="midnightblue" d="M57,-47.1166C57,-37.8173 57,-27.0557 57,-19.7149"/>
<polygon fill="midnightblue" stroke="midnightblue" points="53.5001,-47.4062 57,-57.4062 60.5001,-47.4063 53.5001,-47.4062"/>
</g>
<!-- Node3 -->
<g id="node3" class="node"><title>Node3</title>
<g id="a_node3"><a xlink:href="classumontreal_1_1ssj_1_1hups_1_1PointSet.html" target="_top" xlink:title="This abstract class defines the basic methods for accessing and manipulating point sets...">
<polygon fill="none" stroke="black" points="28.5,-114.5 28.5,-133.5 85.5,-133.5 85.5,-114.5 28.5,-114.5"/>
<text text-anchor="middle" x="57" y="-121.5" font-family="Helvetica,sans-Serif" font-size="10.00">PointSet</text>
</a>
</g>
</g>
<!-- Node3&#45;&gt;Node2 -->
<g id="edge2" class="edge"><title>Node3&#45;&gt;Node2</title>
<path fill="none" stroke="midnightblue" d="M57,-104.117C57,-94.8173 57,-84.0557 57,-76.7149"/>
<polygon fill="midnightblue" stroke="midnightblue" points="53.5001,-104.406 57,-114.406 60.5001,-104.406 53.5001,-104.406"/>
</g>
<!-- Node4 -->
<g id="node4" class="node"><title>Node4</title>
<g id="a_node4"><a xlink:href="interfaceumontreal_1_1ssj_1_1rng_1_1RandomStream.html" target="_top" xlink:title="This interface defines the basic structures to handle multiple streams of uniform (pseudo)random numb...">
<polygon fill="none" stroke="black" points="11,-181.5 11,-200.5 103,-200.5 103,-181.5 11,-181.5"/>
<text text-anchor="middle" x="57" y="-188.5" font-family="Helvetica,sans-Serif" font-size="10.00">RandomStream</text>
</a>
</g>
</g>
<!-- Node4&#45;&gt;Node3 -->
<g id="edge3" class="edge"><title>Node4&#45;&gt;Node3</title>
<path fill="none" stroke="#9a32cd" stroke-dasharray="5,2" d="M57,-171.037C57,-158.67 57,-143.12 57,-133.627"/>
<polygon fill="#9a32cd" stroke="#9a32cd" points="53.5001,-171.234 57,-181.234 60.5001,-171.234 53.5001,-171.234"/>
<text text-anchor="middle" x="87.5" y="-155" font-family="Helvetica,sans-Serif" font-size="10.00"> shiftStream</text>
</g>
</g>
</svg>
