<?xml version="1.0" encoding="UTF-8" standalone="no"?>
<!DOCTYPE svg PUBLIC "-//W3C//DTD SVG 1.1//EN"
 "http://www.w3.org/Graphics/SVG/1.1/DTD/svg11.dtd">
<!-- Generated by graphviz version 2.38.0 (20140413.2041)
 -->
<!-- Title: ShiftedMathFunction Pages: 1 -->
<svg width="418pt" height="125pt"
 viewBox="0.00 0.00 418.00 124.60" xmlns="http://www.w3.org/2000/svg" xmlns:xlink="http://www.w3.org/1999/xlink">
<g id="graph0" class="graph" transform="scale(1 1) rotate(0) translate(4 120.595)">
<title>ShiftedMathFunction</title>
<!-- Node0 -->
<g id="node1" class="node"><title>Node0</title>
<polygon fill="#bfbfbf" stroke="black" points="304,-57.5 304,-76.5 410,-76.5 410,-57.5 304,-57.5"/>
<text text-anchor="middle" x="357" y="-64.5" font-family="Helvetica,sans-Serif" font-size="10.00">ShiftedMathFunction</text>
</g>
<!-- Node1 -->
<g id="node2" class="node"><title>Node1</title>
<g id="a_node2"><a xlink:href="interfaceumontreal_1_1ssj_1_1functions_1_1MathFunction.html" target="_top" xlink:title="This interface should be implemented by classes which represent univariate mathematical functions...">
<polygon fill="none" stroke="black" points="0,-57.5 0,-76.5 76,-76.5 76,-57.5 0,-57.5"/>
<text text-anchor="middle" x="38" y="-64.5" font-family="Helvetica,sans-Serif" font-size="10.00">MathFunction</text>
</a>
</g>
</g>
<!-- Node1&#45;&gt;Node0 -->
<g id="edge1" class="edge"><title>Node1&#45;&gt;Node0</title>
<path fill="none" stroke="midnightblue" d="M61.2729,-82.187C75.1833,-90.7332 93.8452,-100.558 112,-105 179.347,-121.479 200.102,-119.034 268,-105 294.238,-99.577 322.28,-85.9452 339.478,-76.5747"/>
<polygon fill="midnightblue" stroke="midnightblue" points="62.7769,-78.9943 52.4664,-76.5564 59.0061,-84.892 62.7769,-78.9943"/>
</g>
<!-- Node2 -->
<g id="node3" class="node"><title>Node2</title>
<g id="a_node3"><a xlink:href="interfaceumontreal_1_1ssj_1_1functions_1_1MathFunctionWithFirstDerivative.html" target="_top" xlink:title="Represents a mathematical function whose derivative can be computed using derivative(double). ">
<polygon fill="none" stroke="black" points="112,-76.5 112,-95.5 268,-95.5 268,-76.5 112,-76.5"/>
<text text-anchor="middle" x="190" y="-83.5" font-family="Helvetica,sans-Serif" font-size="10.00">MathFunctionWithFirstDerivative</text>
</a>
</g>
</g>
<!-- Node1&#45;&gt;Node2 -->
<g id="edge3" class="edge"><title>Node1&#45;&gt;Node2</title>
<path fill="none" stroke="midnightblue" d="M86.1639,-72.9741C95.022,-74.0961 104.484,-75.2946 113.947,-76.4933"/>
<polygon fill="midnightblue" stroke="midnightblue" points="86.4392,-69.4811 76.0787,-71.6966 85.5595,-76.4256 86.4392,-69.4811"/>
</g>
<!-- Node3 -->
<g id="node4" class="node"><title>Node3</title>
<g id="a_node4"><a xlink:href="interfaceumontreal_1_1ssj_1_1functions_1_1MathFunctionWithDerivative.html" target="_top" xlink:title="Represents a mathematical function whose th derivative can be computed using derivative(double,int). ">
<polygon fill="none" stroke="black" points="121.5,-38.5 121.5,-57.5 258.5,-57.5 258.5,-38.5 121.5,-38.5"/>
<text text-anchor="middle" x="190" y="-45.5" font-family="Helvetica,sans-Serif" font-size="10.00">MathFunctionWithDerivative</text>
</a>
</g>
</g>
<!-- Node1&#45;&gt;Node3 -->
<g id="edge5" class="edge"><title>Node1&#45;&gt;Node3</title>
<path fill="none" stroke="midnightblue" d="M86.0597,-61.0391C97.2631,-59.62 109.437,-58.078 121.361,-56.5677"/>
<polygon fill="midnightblue" stroke="midnightblue" points="85.5595,-57.5744 76.0787,-62.3034 86.4392,-64.5189 85.5595,-57.5744"/>
</g>
<!-- Node4 -->
<g id="node5" class="node"><title>Node4</title>
<g id="a_node5"><a xlink:href="interfaceumontreal_1_1ssj_1_1functions_1_1MathFunctionWithIntegral.html" target="_top" xlink:title="Represents a mathematical function whose integral can be computed by the integral(double,double) method. ">
<polygon fill="none" stroke="black" points="126,-0.5 126,-19.5 254,-19.5 254,-0.5 126,-0.5"/>
<text text-anchor="middle" x="190" y="-7.5" font-family="Helvetica,sans-Serif" font-size="10.00">MathFunctionWithIntegral</text>
</a>
</g>
</g>
<!-- Node1&#45;&gt;Node4 -->
<g id="edge7" class="edge"><title>Node1&#45;&gt;Node4</title>
<path fill="none" stroke="midnightblue" d="M63.6153,-52.3102C77.4591,-44.5334 95.2742,-35.3135 112,-29 121.661,-25.3531 132.271,-22.2123 142.443,-19.594"/>
<polygon fill="midnightblue" stroke="midnightblue" points="61.6592,-49.3973 54.7278,-57.4102 65.1433,-55.4687 61.6592,-49.3973"/>
</g>
<!-- Node2&#45;&gt;Node0 -->
<g id="edge2" class="edge"><title>Node2&#45;&gt;Node0</title>
<path fill="none" stroke="midnightblue" d="M278.39,-75.937C287.073,-74.9371 295.684,-73.9455 303.835,-73.0068"/>
<polygon fill="midnightblue" stroke="midnightblue" points="277.72,-72.4909 268.186,-77.1119 278.521,-79.4449 277.72,-72.4909"/>
</g>
<!-- Node3&#45;&gt;Node0 -->
<g id="edge4" class="edge"><title>Node3&#45;&gt;Node0</title>
<path fill="none" stroke="midnightblue" d="M268.594,-56.935C280.571,-58.3142 292.686,-59.7093 303.926,-61.0036"/>
<polygon fill="midnightblue" stroke="midnightblue" points="268.923,-53.4499 258.588,-55.7828 268.122,-60.4039 268.923,-53.4499"/>
</g>
<!-- Node4&#45;&gt;Node0 -->
<g id="edge6" class="edge"><title>Node4&#45;&gt;Node0</title>
<path fill="none" stroke="midnightblue" d="M244.784,-22.0589C252.632,-24.1684 260.568,-26.4977 268,-29 292.13,-37.1246 318.85,-49.1111 336.445,-57.4413"/>
<polygon fill="midnightblue" stroke="midnightblue" points="245.492,-18.6271 234.934,-19.5081 243.737,-25.4035 245.492,-18.6271"/>
</g>
</g>
</svg>
