<?xml version="1.0" encoding="UTF-8" standalone="no"?>
<!DOCTYPE svg PUBLIC "-//W3C//DTD SVG 1.1//EN"
 "http://www.w3.org/Graphics/SVG/1.1/DTD/svg11.dtd">
<!-- Generated by graphviz version 2.38.0 (20140413.2041)
 -->
<!-- Title: TestOptionVGIS Pages: 1 -->
<!--zoomable 156 -->
<svg id="main" version="1.1" xmlns="http://www.w3.org/2000/svg" xmlns:xlink="http://www.w3.org/1999/xlink" xml:space="preserve" onload="init(evt)">
<style type="text/css"><![CDATA[
.edge:hover path { stroke: red; }
.edge:hover polygon { stroke: red; fill: red; }
]]></style>
<script type="text/javascript"><![CDATA[
var edges = document.getElementsByTagName('g');
if (edges && edges.length) {
  for (var i=0;i<edges.length;i++) {
    if (edges[i].id.substr(0,4)=='edge') {
      edges[i].setAttribute('class','edge');
    }
  }
}
]]></script>
        <defs>
                <circle id="rim" cx="0" cy="0" r="7"/>
                <circle id="rim2" cx="0" cy="0" r="3.5"/>
                <g id="zoomPlus">
                        <use xlink:href="#rim" fill="#404040">
                                <set attributeName="fill" to="#808080" begin="zoomplus.mouseover" end="zoomplus.mouseout"/>
                        </use>
                        <path d="M-4,0h8M0,-4v8" fill="none" stroke="white" stroke-width="1.5" pointer-events="none"/>
                </g>
                <g id="zoomMin">
                        <use xlink:href="#rim" fill="#404040">
                                <set attributeName="fill" to="#808080" begin="zoomminus.mouseover" end="zoomminus.mouseout"/>
                        </use>
                        <path d="M-4,0h8" fill="none" stroke="white" stroke-width="1.5" pointer-events="none"/>
                </g>
                <g id="dirArrow">
                        <path fill="none" stroke="white" stroke-width="1.5" d="M0,-3.0v7 M-2.5,-0.5L0,-3.0L2.5,-0.5"/>
                </g>
               <g id="resetDef">
                       <use xlink:href="#rim2" fill="#404040">
                               <set attributeName="fill" to="#808080" begin="reset.mouseover" end="reset.mouseout"/>
                       </use>
               </g>
        </defs>

<script type="text/javascript">
var viewWidth = 664;
var viewHeight = 156;
var sectionId = 'dynsection-0';
</script>
<script xlink:href="svgpan.js"/>
<svg id="graph" class="graph">
<g id="viewport">
<title>TestOptionVGIS</title>
<!-- Node1 -->
<g id="node1" class="node"><title>Node1</title>
<polygon fill="#bfbfbf" stroke="black" points="567,-84.5 567,-103.5 656,-103.5 656,-84.5 567,-84.5"/>
<text text-anchor="middle" x="611.5" y="-91.5" font-family="Helvetica,sans-Serif" font-size="10.00">TestOptionVGIS</text>
</g>
<!-- Node2 -->
<g id="node2" class="node"><title>Node2</title>
<g id="a_node2"><a xlink:href="classift6561examples_1_1TestOptionVGIS_1_1OptionVG1.html" target="_top" xlink:title="TestOptionVGIS.OptionVG1">
<polygon fill="none" stroke="black" points="161,-101.5 161,-120.5 301,-120.5 301,-101.5 161,-101.5"/>
<text text-anchor="middle" x="231" y="-108.5" font-family="Helvetica,sans-Serif" font-size="10.00">TestOptionVGIS.OptionVG1</text>
</a>
</g>
</g>
<!-- Node2&#45;&gt;Node1 -->
<g id="edge1" class="edge"><title>Node2&#45;&gt;Node1</title>
<path fill="none" stroke="#9a32cd" stroke-dasharray="5,2" d="M285.268,-122.452C302.057,-125.547 320.728,-128.464 338,-130 431.56,-138.319 458.771,-144.105 549,-118 562.542,-114.082 577.268,-108.389 588.915,-103.53"/>
<polygon fill="#9a32cd" stroke="#9a32cd" points="285.566,-118.945 275.088,-120.512 284.256,-125.822 285.566,-118.945"/>
<text text-anchor="middle" x="412.5" y="-140" font-family="Helvetica,sans-Serif" font-size="10.00"> vg1</text>
</g>
<!-- Node7 -->
<g id="node7" class="node"><title>Node7</title>
<g id="a_node7"><a xlink:href="classift6561examples_1_1TestOptionVGIS_1_1OptionVGIS1.html" target="_top" xlink:title="TestOptionVGIS.OptionVGIS1">
<polygon fill="none" stroke="black" points="338,-101.5 338,-120.5 487,-120.5 487,-101.5 338,-101.5"/>
<text text-anchor="middle" x="412.5" y="-108.5" font-family="Helvetica,sans-Serif" font-size="10.00">TestOptionVGIS.OptionVGIS1</text>
</a>
</g>
</g>
<!-- Node2&#45;&gt;Node7 -->
<g id="edge7" class="edge"><title>Node2&#45;&gt;Node7</title>
<path fill="none" stroke="midnightblue" d="M311.412,-111C320.231,-111 329.185,-111 337.927,-111"/>
<polygon fill="midnightblue" stroke="midnightblue" points="311.143,-107.5 301.143,-111 311.143,-114.5 311.143,-107.5"/>
</g>
<!-- Node8 -->
<g id="node8" class="node"><title>Node8</title>
<g id="a_node8"><a xlink:href="classift6561examples_1_1TestOptionVGIS_1_1OptionVGIS2.html" target="_top" xlink:title="TestOptionVGIS.OptionVGIS2">
<polygon fill="none" stroke="black" points="338,-63.5 338,-82.5 487,-82.5 487,-63.5 338,-63.5"/>
<text text-anchor="middle" x="412.5" y="-70.5" font-family="Helvetica,sans-Serif" font-size="10.00">TestOptionVGIS.OptionVGIS2</text>
</a>
</g>
</g>
<!-- Node2&#45;&gt;Node8 -->
<g id="edge9" class="edge"><title>Node2&#45;&gt;Node8</title>
<path fill="none" stroke="midnightblue" d="M287.177,-99.319C312.633,-93.9301 342.468,-87.6139 366.53,-82.5201"/>
<polygon fill="midnightblue" stroke="midnightblue" points="286.354,-95.9157 277.295,-101.411 287.804,-102.764 286.354,-95.9157"/>
</g>
<!-- Node3 -->
<g id="node3" class="node"><title>Node3</title>
<g id="a_node3"><a xlink:href="interfaceumontreal_1_1ssj_1_1mcqmctools_1_1MonteCarloModelDouble.html" target="_top" xlink:title="An interface for a very simple simulation model for which Monte Carlo (MC) and RQMC experiments are t...">
<polygon fill="none" stroke="black" points="0,-101.5 0,-120.5 124,-120.5 124,-101.5 0,-101.5"/>
<text text-anchor="middle" x="62" y="-108.5" font-family="Helvetica,sans-Serif" font-size="10.00">MonteCarloModelDouble</text>
</a>
</g>
</g>
<!-- Node3&#45;&gt;Node2 -->
<g id="edge2" class="edge"><title>Node3&#45;&gt;Node2</title>
<path fill="none" stroke="midnightblue" d="M134.421,-111C143.188,-111 152.137,-111 160.869,-111"/>
<polygon fill="midnightblue" stroke="midnightblue" points="134.236,-107.5 124.236,-111 134.236,-114.5 134.236,-107.5"/>
</g>
<!-- Node4 -->
<g id="node4" class="node"><title>Node4</title>
<g id="a_node4"><a xlink:href="classumontreal_1_1ssj_1_1probdist_1_1GammaDist.html" target="_top" xlink:title="Extends the class ContinuousDistribution for the gamma distribution   (page 337) with shape paramete...">
<polygon fill="none" stroke="black" points="378,-0.5 378,-19.5 447,-19.5 447,-0.5 378,-0.5"/>
<text text-anchor="middle" x="412.5" y="-7.5" font-family="Helvetica,sans-Serif" font-size="10.00">GammaDist</text>
</a>
</g>
</g>
<!-- Node4&#45;&gt;Node1 -->
<g id="edge3" class="edge"><title>Node4&#45;&gt;Node1</title>
<path fill="none" stroke="#9a32cd" stroke-dasharray="5,2" d="M457.233,-9.81448C484.902,-11.3332 520.664,-16.4058 549,-31 573.731,-43.7374 594.382,-70.206 604.254,-84.4439"/>
<polygon fill="#9a32cd" stroke="#9a32cd" points="457.194,-6.30996 447.058,-9.39397 456.905,-13.304 457.194,-6.30996"/>
<text text-anchor="middle" x="527" y="-67" font-family="Helvetica,sans-Serif" font-size="10.00"> distPos</text>
<text text-anchor="middle" x="527" y="-56" font-family="Helvetica,sans-Serif" font-size="10.00">distPosIS</text>
<text text-anchor="middle" x="527" y="-45" font-family="Helvetica,sans-Serif" font-size="10.00">distNeg</text>
<text text-anchor="middle" x="527" y="-34" font-family="Helvetica,sans-Serif" font-size="10.00">distNegIS</text>
</g>
<!-- Node5 -->
<g id="node5" class="node"><title>Node5</title>
<g id="a_node5"><a xlink:href="classumontreal_1_1ssj_1_1probdist_1_1ContinuousDistribution.html" target="_top" xlink:title="Classes implementing continuous distributions should inherit from this base class. ">
<polygon fill="none" stroke="black" points="173,-0.5 173,-19.5 289,-19.5 289,-0.5 173,-0.5"/>
<text text-anchor="middle" x="231" y="-7.5" font-family="Helvetica,sans-Serif" font-size="10.00">ContinuousDistribution</text>
</a>
</g>
</g>
<!-- Node5&#45;&gt;Node4 -->
<g id="edge4" class="edge"><title>Node5&#45;&gt;Node4</title>
<path fill="none" stroke="midnightblue" d="M299.409,-10C326.235,-10 355.904,-10 377.977,-10"/>
<polygon fill="midnightblue" stroke="midnightblue" points="299.288,-6.5001 289.288,-10 299.288,-13.5001 299.288,-6.5001"/>
</g>
<!-- Node6 -->
<g id="node6" class="node"><title>Node6</title>
<g id="a_node6"><a xlink:href="interfaceumontreal_1_1ssj_1_1probdist_1_1Distribution.html" target="_top" xlink:title="This interface should be implemented by all classes supporting discrete and continuous distributions...">
<polygon fill="none" stroke="black" points="29,-0.5 29,-19.5 95,-19.5 95,-0.5 29,-0.5"/>
<text text-anchor="middle" x="62" y="-7.5" font-family="Helvetica,sans-Serif" font-size="10.00">Distribution</text>
</a>
</g>
</g>
<!-- Node6&#45;&gt;Node5 -->
<g id="edge5" class="edge"><title>Node6&#45;&gt;Node5</title>
<path fill="none" stroke="midnightblue" d="M105.466,-10C125.934,-10 150.78,-10 172.878,-10"/>
<polygon fill="midnightblue" stroke="midnightblue" points="105.199,-6.5001 95.1993,-10 105.199,-13.5001 105.199,-6.5001"/>
</g>
<!-- Node7&#45;&gt;Node1 -->
<g id="edge6" class="edge"><title>Node7&#45;&gt;Node1</title>
<path fill="none" stroke="#9a32cd" stroke-dasharray="5,2" d="M497.324,-103.766C521.307,-101.697 546.477,-99.5248 566.975,-97.756"/>
<polygon fill="#9a32cd" stroke="#9a32cd" points="496.798,-100.299 487.136,-104.646 497.4,-107.273 496.798,-100.299"/>
<text text-anchor="middle" x="527" y="-106" font-family="Helvetica,sans-Serif" font-size="10.00"> vgis1</text>
</g>
<!-- Node8&#45;&gt;Node1 -->
<g id="edge8" class="edge"><title>Node8&#45;&gt;Node1</title>
<path fill="none" stroke="#9a32cd" stroke-dasharray="5,2" d="M497.111,-78.7302C514.298,-80.2049 532.255,-81.9622 549,-84 554.799,-84.7056 560.887,-85.5585 566.886,-86.4652"/>
<polygon fill="#9a32cd" stroke="#9a32cd" points="497.352,-75.2383 487.096,-77.8947 496.77,-82.2141 497.352,-75.2383"/>
<text text-anchor="middle" x="527" y="-87" font-family="Helvetica,sans-Serif" font-size="10.00"> vgis2</text>
</g>
</g>
</svg>
        <g id="navigator" transform="translate(0 0)" fill="#404254">
                <rect fill="#f2f5e9" fill-opacity="0.5" stroke="#606060" stroke-width=".5" x="0" y="0" width="60" height="60"/>
                <use id="zoomplus" xlink:href="#zoomPlus" x="17" y="9" onmousedown="handleZoom(evt,'in')"/>
                <use id="zoomminus" xlink:href="#zoomMin" x="42" y="9" onmousedown="handleZoom(evt,'out')"/>
                <use id="reset" xlink:href="#resetDef" x="30" y="36" onmousedown="handleReset()"/>
                <g id="arrowUp" xlink:href="#dirArrow" transform="translate(30 24)" onmousedown="handlePan(0,-1)">
                  <use xlink:href="#rim" fill="#404040">
                        <set attributeName="fill" to="#808080" begin="arrowUp.mouseover" end="arrowUp.mouseout"/>
                  </use>
                  <path fill="none" stroke="white" stroke-width="1.5" d="M0,-3.0v7 M-2.5,-0.5L0,-3.0L2.5,-0.5"/>
                </g>
                <g id="arrowRight" xlink:href="#dirArrow" transform="rotate(90) translate(36 -43)" onmousedown="handlePan(1,0)">
                  <use xlink:href="#rim" fill="#404040">
                        <set attributeName="fill" to="#808080" begin="arrowRight.mouseover" end="arrowRight.mouseout"/>
                  </use>
                  <path fill="none" stroke="white" stroke-width="1.5" d="M0,-3.0v7 M-2.5,-0.5L0,-3.0L2.5,-0.5"/>
                </g>
                <g id="arrowDown" xlink:href="#dirArrow" transform="rotate(180) translate(-30 -48)" onmousedown="handlePan(0,1)">
                  <use xlink:href="#rim" fill="#404040">
                        <set attributeName="fill" to="#808080" begin="arrowDown.mouseover" end="arrowDown.mouseout"/>
                  </use>
                  <path fill="none" stroke="white" stroke-width="1.5" d="M0,-3.0v7 M-2.5,-0.5L0,-3.0L2.5,-0.5"/>
                </g>
                <g id="arrowLeft" xlink:href="#dirArrow" transform="rotate(270) translate(-36 17)" onmousedown="handlePan(-1,0)">
                  <use xlink:href="#rim" fill="#404040">
                        <set attributeName="fill" to="#808080" begin="arrowLeft.mouseover" end="arrowLeft.mouseout"/>
                  </use>
                  <path fill="none" stroke="white" stroke-width="1.5" d="M0,-3.0v7 M-2.5,-0.5L0,-3.0L2.5,-0.5"/>
                </g>
        </g>
        <svg viewBox="0 0 15 15" width="100%" height="30px" preserveAspectRatio="xMaxYMin meet">
         <g id="arrow_out" transform="scale(0.3 0.3)">
          <a xlink:href="classift6561examples_1_1TestOptionVGIS__coll__graph_org.svg" target="_base">
           <rect id="button" ry="5" rx="5" y="6" x="6" height="38" width="38"
                fill="#f2f5e9" fill-opacity="0.5" stroke="#606060" stroke-width="1.0"/>
           <path id="arrow"
             d="M 11.500037,31.436501 C 11.940474,20.09759 22.043105,11.32322 32.158766,21.979434 L 37.068811,17.246167 C 37.068811,17.246167 37.088388,32 37.088388,32 L 22.160133,31.978069 C 22.160133,31.978069 26.997745,27.140456 26.997745,27.140456 C 18.528582,18.264221 13.291696,25.230495 11.500037,31.436501 z"
             style="fill:#404040;"/>
          </a>
         </g>
        </svg>
</svg>
