<?xml version="1.0" encoding="UTF-8" standalone="no"?>
<!DOCTYPE svg PUBLIC "-//W3C//DTD SVG 1.1//EN"
 "http://www.w3.org/Graphics/SVG/1.1/DTD/svg11.dtd">
<!-- Generated by graphviz version 2.26.3 (20100126.1600)
 -->
<!-- Title: YListSeriesCollection Pages: 1 -->
<svg width="180pt" height="220pt"
 viewBox="0.00 0.00 180.00 220.00" xmlns="http://www.w3.org/2000/svg" xmlns:xlink="http://www.w3.org/1999/xlink">
<g id="graph1" class="graph" transform="scale(1 1) rotate(0) translate(4 216)">
<title>YListSeriesCollection</title>
<!-- Node1 -->
<g id="node1" class="node"><title>Node1</title>
<polygon fill="#bfbfbf" stroke="black" points="25,-1 25,-21 135,-21 135,-1 25,-1"/>
<text text-anchor="middle" x="80" y="-8" font-family="Helvetica,sans-Serif" font-size="10.00">YListSeriesCollection</text>
</g>
<!-- Node2 -->
<g id="node2" class="node"><title>Node2</title>
<a xlink:href="classumontreal_1_1ssj_1_1charts_1_1XYListSeriesCollection.html" target="_top" xlink:title="This class extends umontreal.ssj.charts.SSJXYSeriesCollection. ">
<polygon fill="none" stroke="black" points="22,-61 22,-81 138,-81 138,-61 22,-61"/>
<text text-anchor="middle" x="80" y="-68" font-family="Helvetica,sans-Serif" font-size="10.00">XYListSeriesCollection</text>
</a>
</g>
<!-- Node2&#45;&gt;Node1 -->
<g id="edge2" class="edge"><title>Node2&#45;&gt;Node1</title>
<path fill="none" stroke="midnightblue" d="M80,-50.5155C80,-40.562 80,-29.0495 80,-21.0279"/>
<polygon fill="midnightblue" stroke="midnightblue" points="76.5001,-50.8218 80,-60.8218 83.5001,-50.8219 76.5001,-50.8218"/>
</g>
<!-- Node3 -->
<g id="node4" class="node"><title>Node3</title>
<a xlink:href="classumontreal_1_1ssj_1_1charts_1_1SSJXYSeriesCollection.html" target="_top" xlink:title="Stores data used in a XYChart. ">
<polygon fill="none" stroke="black" points="20.5,-121 20.5,-141 139.5,-141 139.5,-121 20.5,-121"/>
<text text-anchor="middle" x="80" y="-128" font-family="Helvetica,sans-Serif" font-size="10.00">SSJXYSeriesCollection</text>
</a>
</g>
<!-- Node3&#45;&gt;Node2 -->
<g id="edge4" class="edge"><title>Node3&#45;&gt;Node2</title>
<path fill="none" stroke="midnightblue" d="M80,-110.516C80,-100.562 80,-89.0495 80,-81.0279"/>
<polygon fill="midnightblue" stroke="midnightblue" points="76.5001,-110.822 80,-120.822 83.5001,-110.822 76.5001,-110.822"/>
</g>
<!-- Node4 -->
<g id="node6" class="node"><title>Node4</title>
<polygon fill="none" stroke="#bfbfbf" points="0,-191 0,-211 64,-211 64,-191 0,-191"/>
<text text-anchor="middle" x="32" y="-198" font-family="Helvetica,sans-Serif" font-size="10.00">XYDataset</text>
</g>
<!-- Node4&#45;&gt;Node3 -->
<g id="edge6" class="edge"><title>Node4&#45;&gt;Node3</title>
<path fill="none" stroke="#9a32cd" stroke-dasharray="5,2" d="M28.7108,-180.707C28.5315,-173.744 29.4638,-166.159 33,-160 37.6783,-151.851 45.6625,-145.692 53.7358,-141.192"/>
<polygon fill="#9a32cd" stroke="#9a32cd" points="25.2449,-181.229 29.6931,-190.845 32.2123,-180.554 25.2449,-181.229"/>
<text text-anchor="middle" x="69.5" y="-163" font-family="Helvetica,sans-Serif" font-size="10.00"> seriesCollection</text>
</g>
<!-- Node5 -->
<g id="node8" class="node"><title>Node5</title>
<polygon fill="none" stroke="#bfbfbf" points="83.5,-191 83.5,-211 172.5,-211 172.5,-191 83.5,-191"/>
<text text-anchor="middle" x="128" y="-198" font-family="Helvetica,sans-Serif" font-size="10.00">XYItemRenderer</text>
</g>
<!-- Node5&#45;&gt;Node3 -->
<g id="edge8" class="edge"><title>Node5&#45;&gt;Node3</title>
<path fill="none" stroke="#9a32cd" stroke-dasharray="5,2" d="M118.7,-181.41C115.079,-174.436 110.675,-166.665 106,-160 101.34,-153.357 95.3362,-146.57 90.2719,-141.233"/>
<polygon fill="#9a32cd" stroke="#9a32cd" points="115.801,-183.44 123.387,-190.835 122.068,-180.323 115.801,-183.44"/>
<text text-anchor="middle" x="132.5" y="-163" font-family="Helvetica,sans-Serif" font-size="10.00"> renderer</text>
</g>
</g>
</svg>
