<?xml version="1.0" encoding="UTF-8" standalone="no"?>
<!DOCTYPE svg PUBLIC "-//W3C//DTD SVG 1.1//EN"
 "http://www.w3.org/Graphics/SVG/1.1/DTD/svg11.dtd">
<!-- Generated by graphviz version 2.26.3 (20100126.1600)
 -->
<!-- Title: CallCenter Pages: 1 -->
<!--zoomable 384 -->
<svg id="main" version="1.1" xmlns="http://www.w3.org/2000/svg" xmlns:xlink="http://www.w3.org/1999/xlink" xml:space="preserve" onload="init(evt)">
<style type="text/css"><![CDATA[
.edge:hover path { stroke: red; }
.edge:hover polygon { stroke: red; fill: red; }
]]></style>
<script type="text/javascript"><![CDATA[
var edges = document.getElementsByTagName('g');
if (edges && edges.length) {
  for (var i=0;i<edges.length;i++) {
    if (edges[i].id.substr(0,4)=='edge') {
      edges[i].setAttribute('class','edge');
    }
  }
}
]]></script>
        <defs>
                <circle id="rim" cx="0" cy="0" r="7"/>
                <circle id="rim2" cx="0" cy="0" r="3.5"/>
                <g id="zoomPlus">
                        <use xlink:href="#rim" fill="#404040">
                                <set attributeName="fill" to="#808080" begin="zoomplus.mouseover" end="zoomplus.mouseout"/>
                        </use>
                        <path d="M-4,0h8M0,-4v8" fill="none" stroke="white" stroke-width="1.5" pointer-events="none"/>
                </g>
                <g id="zoomMin">
                        <use xlink:href="#rim" fill="#404040">
                                <set attributeName="fill" to="#808080" begin="zoomminus.mouseover" end="zoomminus.mouseout"/>
                        </use>
                        <path d="M-4,0h8" fill="none" stroke="white" stroke-width="1.5" pointer-events="none"/>
                </g>
                <g id="dirArrow">
                        <path fill="none" stroke="white" stroke-width="1.5" d="M0,-3.0v7 M-2.5,-0.5L0,-3.0L2.5,-0.5"/>
                </g>
               <g id="resetDef">
                       <use xlink:href="#rim2" fill="#404040">
                               <set attributeName="fill" to="#808080" begin="reset.mouseover" end="reset.mouseout"/>
                       </use>
               </g>
        </defs>

<script type="text/javascript">
var viewWidth = 686;
var viewHeight = 384;
var sectionId = 'dynsection-0';
</script>
<script xlink:href="svgpan.js"/>
<svg id="graph" class="graph">
<g id="viewport">
<title>CallCenter</title>
<!-- Node1 -->
<g id="node1" class="node"><title>Node1</title>
<polygon fill="#bfbfbf" stroke="black" points="261,-1 261,-21 323,-21 323,-1 261,-1"/>
<text text-anchor="middle" x="292" y="-8" font-family="Helvetica,sans-Serif" font-size="10.00">CallCenter</text>
</g>
<!-- Node2 -->
<g id="node2" class="node"><title>Node2</title>
<polygon fill="none" stroke="#bfbfbf" points="10.5,-131 10.5,-151 153.5,-151 153.5,-131 10.5,-131"/>
<text text-anchor="middle" x="82" y="-138" font-family="Helvetica,sans-Serif" font-size="10.00">LinkedList&lt; CallCenter.Call &gt;</text>
</g>
<!-- Node2&#45;&gt;Node1 -->
<g id="edge2" class="edge"><title>Node2&#45;&gt;Node1</title>
<path fill="none" stroke="#9a32cd" stroke-dasharray="5,2" d="M90.0135,-121.539C100.628,-98.313 121.622,-60.0986 152,-40 169.544,-28.3926 225.23,-19.4427 260.859,-14.7197"/>
<polygon fill="#9a32cd" stroke="#9a32cd" points="86.7819,-120.194 85.9862,-130.759 93.1966,-122.996 86.7819,-120.194"/>
<text text-anchor="middle" x="170.5" y="-73" font-family="Helvetica,sans-Serif" font-size="10.00"> waitList</text>
</g>
<!-- Node3 -->
<g id="node4" class="node"><title>Node3</title>
<a xlink:href="classumontreal_1_1ssj_1_1stat_1_1Tally.html" target="_top" xlink:title="A subclass of StatProbe. ">
<polygon fill="none" stroke="black" points="170.5,-131 170.5,-151 207.5,-151 207.5,-131 170.5,-131"/>
<text text-anchor="middle" x="189" y="-138" font-family="Helvetica,sans-Serif" font-size="10.00">Tally</text>
</a>
</g>
<!-- Node3&#45;&gt;Node1 -->
<g id="edge4" class="edge"><title>Node3&#45;&gt;Node1</title>
<path fill="none" stroke="#9a32cd" stroke-dasharray="5,2" d="M191.638,-120.691C195.526,-98.3398 204.785,-62.5924 226,-40 235.339,-30.0553 248.69,-23.3217 260.944,-18.8677"/>
<polygon fill="#9a32cd" stroke="#9a32cd" points="188.153,-120.329 190.096,-130.744 195.072,-121.391 188.153,-120.329"/>
<text text-anchor="middle" x="257" y="-103" font-family="Helvetica,sans-Serif" font-size="10.00"> statWaitsDay</text>
<text text-anchor="middle" x="257" y="-91" font-family="Helvetica,sans-Serif" font-size="10.00">statWaits</text>
<text text-anchor="middle" x="257" y="-79" font-family="Helvetica,sans-Serif" font-size="10.00">statArrivals</text>
<text text-anchor="middle" x="257" y="-67" font-family="Helvetica,sans-Serif" font-size="10.00">statAbandon</text>
<text text-anchor="middle" x="257" y="-55" font-family="Helvetica,sans-Serif" font-size="10.00">statGoodQoS</text>
<text text-anchor="middle" x="257" y="-43" font-family="Helvetica,sans-Serif" font-size="10.00">allTal</text>
</g>
<!-- Node4 -->
<g id="node6" class="node"><title>Node4</title>
<a xlink:href="classumontreal_1_1ssj_1_1stat_1_1StatProbe.html" target="_top" xlink:title="The objects of this class are statistical probes or collectors, which are elementary devices for coll...">
<polygon fill="none" stroke="black" points="0,-225 0,-245 60,-245 60,-225 0,-225"/>
<text text-anchor="middle" x="30" y="-232" font-family="Helvetica,sans-Serif" font-size="10.00">StatProbe</text>
</a>
</g>
<!-- Node4&#45;&gt;Node3 -->
<g id="edge6" class="edge"><title>Node4&#45;&gt;Node3</title>
<path fill="none" stroke="midnightblue" d="M52.6482,-219.165C72.607,-205.482 102.677,-185.521 130,-170 143.199,-162.502 158.608,-154.967 170.369,-149.458"/>
<polygon fill="midnightblue" stroke="midnightblue" points="50.4776,-216.411 44.2358,-224.971 54.4539,-222.172 50.4776,-216.411"/>
</g>
<!-- Node5 -->
<g id="node8" class="node"><title>Node5</title>
<polygon fill="none" stroke="#bfbfbf" points="77.5,-225 77.5,-245 136.5,-245 136.5,-225 77.5,-225"/>
<text text-anchor="middle" x="107" y="-232" font-family="Helvetica,sans-Serif" font-size="10.00">Cloneable</text>
</g>
<!-- Node5&#45;&gt;Node3 -->
<g id="edge8" class="edge"><title>Node5&#45;&gt;Node3</title>
<path fill="none" stroke="midnightblue" d="M122.395,-217.352C139.394,-197.865 166.185,-167.154 180.039,-151.272"/>
<polygon fill="midnightblue" stroke="midnightblue" points="119.712,-215.104 115.775,-224.94 124.987,-219.705 119.712,-215.104"/>
</g>
<!-- Node6 -->
<g id="node10" class="node"><title>Node6</title>
<polygon fill="none" stroke="#bfbfbf" points="154,-225 154,-245 224,-245 224,-225 154,-225"/>
<text text-anchor="middle" x="189" y="-232" font-family="Helvetica,sans-Serif" font-size="10.00">Tally.CIType</text>
</g>
<!-- Node6&#45;&gt;Node3 -->
<g id="edge10" class="edge"><title>Node6&#45;&gt;Node3</title>
<path fill="none" stroke="#9a32cd" stroke-dasharray="5,2" d="M189,-214.677C189,-195.153 189,-166.445 189,-151.272"/>
<polygon fill="#9a32cd" stroke="#9a32cd" points="185.5,-214.94 189,-224.94 192.5,-214.94 185.5,-214.94"/>
<text text-anchor="middle" x="230.5" y="-185" font-family="Helvetica,sans-Serif" font-size="10.00"> confidenceInterval</text>
</g>
<!-- Node7 -->
<g id="node12" class="node"><title>Node7</title>
<a xlink:href="classumontreal_1_1ssj_1_1randvar_1_1GammaGen.html" target="_top" xlink:title="This class implements random variate generators for the gamma distribution. ">
<polygon fill="none" stroke="black" points="257.5,-131 257.5,-151 326.5,-151 326.5,-131 257.5,-131"/>
<text text-anchor="middle" x="292" y="-138" font-family="Helvetica,sans-Serif" font-size="10.00">GammaGen</text>
</a>
</g>
<!-- Node7&#45;&gt;Node1 -->
<g id="edge12" class="edge"><title>Node7&#45;&gt;Node1</title>
<path fill="none" stroke="#9a32cd" stroke-dasharray="5,2" d="M292,-120.483C292,-92.2424 292,-42.4702 292,-21.1535"/>
<polygon fill="#9a32cd" stroke="#9a32cd" points="288.5,-120.799 292,-130.799 295.5,-120.799 288.5,-120.799"/>
<text text-anchor="middle" x="312" y="-73" font-family="Helvetica,sans-Serif" font-size="10.00"> genServ</text>
</g>
<!-- Node8 -->
<g id="node14" class="node"><title>Node8</title>
<a xlink:href="classumontreal_1_1ssj_1_1randvar_1_1RandomVariateGen.html" target="_top" xlink:title="This is the base class for all random variate generators over the real line. ">
<polygon fill="none" stroke="black" points="241.5,-225 241.5,-245 342.5,-245 342.5,-225 241.5,-225"/>
<text text-anchor="middle" x="292" y="-232" font-family="Helvetica,sans-Serif" font-size="10.00">RandomVariateGen</text>
</a>
</g>
<!-- Node8&#45;&gt;Node7 -->
<g id="edge14" class="edge"><title>Node8&#45;&gt;Node7</title>
<path fill="none" stroke="midnightblue" d="M292,-214.677C292,-195.153 292,-166.445 292,-151.272"/>
<polygon fill="midnightblue" stroke="midnightblue" points="288.5,-214.94 292,-224.94 295.5,-214.94 288.5,-214.94"/>
</g>
<!-- Node9 -->
<g id="node16" class="node"><title>Node9</title>
<a xlink:href="interfaceumontreal_1_1ssj_1_1probdist_1_1Distribution.html" target="_top" xlink:title="This interface should be implemented by all classes supporting discrete and continuous distributions...">
<polygon fill="none" stroke="black" points="245.5,-295 245.5,-315 310.5,-315 310.5,-295 245.5,-295"/>
<text text-anchor="middle" x="278" y="-302" font-family="Helvetica,sans-Serif" font-size="10.00">Distribution</text>
</a>
</g>
<!-- Node9&#45;&gt;Node8 -->
<g id="edge16" class="edge"><title>Node9&#45;&gt;Node8</title>
<path fill="none" stroke="#9a32cd" stroke-dasharray="5,2" d="M276.915,-284.536C276.984,-277.915 277.508,-270.584 279,-264 280.488,-257.435 283.51,-250.541 286.266,-245.123"/>
<polygon fill="#9a32cd" stroke="#9a32cd" points="273.421,-284.832 277.14,-294.753 280.419,-284.678 273.421,-284.832"/>
<text text-anchor="middle" x="288.5" y="-267" font-family="Helvetica,sans-Serif" font-size="10.00"> dist</text>
</g>
<!-- Node10 -->
<g id="node18" class="node"><title>Node10</title>
<a xlink:href="interfaceumontreal_1_1ssj_1_1rng_1_1RandomStream.html" target="_top" xlink:title="This interface defines the basic structures to handle multiple streams of uniform (pseudo)random numb...">
<polygon fill="none" stroke="black" points="328,-295 328,-315 412,-315 412,-295 328,-295"/>
<text text-anchor="middle" x="370" y="-302" font-family="Helvetica,sans-Serif" font-size="10.00">RandomStream</text>
</a>
</g>
<!-- Node10&#45;&gt;Node1 -->
<g id="edge34" class="edge"><title>Node10&#45;&gt;Node1</title>
<path fill="none" stroke="#9a32cd" stroke-dasharray="5,2" d="M372.769,-284.79C378.138,-237.817 385.449,-119.254 336,-40 331.06,-32.0828 323.072,-25.8709 315.248,-21.2621"/>
<polygon fill="#9a32cd" stroke="#9a32cd" points="369.274,-284.532 371.513,-294.887 376.22,-285.396 369.274,-284.532"/>
<text text-anchor="middle" x="410.5" y="-197" font-family="Helvetica,sans-Serif" font-size="10.00"> streamB</text>
<text text-anchor="middle" x="410.5" y="-185" font-family="Helvetica,sans-Serif" font-size="10.00">streamArr</text>
<text text-anchor="middle" x="410.5" y="-173" font-family="Helvetica,sans-Serif" font-size="10.00">streamPatience</text>
</g>
<!-- Node10&#45;&gt;Node8 -->
<g id="edge18" class="edge"><title>Node10&#45;&gt;Node8</title>
<path fill="none" stroke="#9a32cd" stroke-dasharray="5,2" d="M340.526,-289.717C334.075,-285.703 327.53,-281.062 322,-276 312.111,-266.947 303.389,-254.191 297.935,-245.32"/>
<polygon fill="#9a32cd" stroke="#9a32cd" points="338.762,-292.741 349.158,-294.785 342.306,-286.704 338.762,-292.741"/>
<text text-anchor="middle" x="339" y="-267" font-family="Helvetica,sans-Serif" font-size="10.00"> stream</text>
</g>
<!-- Node11 -->
<g id="node20" class="node"><title>Node11</title>
<a xlink:href="classumontreal_1_1ssj_1_1simevents_1_1Event.html" target="_top" xlink:title="This abstract class provides event scheduling tools. ">
<polygon fill="none" stroke="black" points="433,-131 433,-151 475,-151 475,-131 433,-131"/>
<text text-anchor="middle" x="454" y="-138" font-family="Helvetica,sans-Serif" font-size="10.00">Event</text>
</a>
</g>
<!-- Node11&#45;&gt;Node1 -->
<g id="edge20" class="edge"><title>Node11&#45;&gt;Node1</title>
<path fill="none" stroke="#9a32cd" stroke-dasharray="5,2" d="M445.318,-121.386C434.26,-98.5986 413.043,-61.4013 384,-40 366.204,-26.8864 342.3,-19.586 323.318,-15.5904"/>
<polygon fill="#9a32cd" stroke="#9a32cd" points="442.278,-123.148 449.675,-130.733 448.623,-120.19 442.278,-123.148"/>
<text text-anchor="middle" x="464" y="-73" font-family="Helvetica,sans-Serif" font-size="10.00"> nextArrival</text>
</g>
<!-- Node12 -->
<g id="node22" class="node"><title>Node12</title>
<polygon fill="none" stroke="#bfbfbf" points="398,-225 398,-245 510,-245 510,-225 398,-225"/>
<text text-anchor="middle" x="454" y="-232" font-family="Helvetica,sans-Serif" font-size="10.00">Comparable&lt; Event &gt;</text>
</g>
<!-- Node12&#45;&gt;Node11 -->
<g id="edge22" class="edge"><title>Node12&#45;&gt;Node11</title>
<path fill="none" stroke="midnightblue" d="M454,-214.677C454,-195.153 454,-166.445 454,-151.272"/>
<polygon fill="midnightblue" stroke="midnightblue" points="450.5,-214.94 454,-224.94 457.5,-214.94 450.5,-214.94"/>
</g>
<!-- Node13 -->
<g id="node24" class="node"><title>Node13</title>
<a xlink:href="classumontreal_1_1ssj_1_1simevents_1_1Simulator.html" target="_top" xlink:title="Represents the executive of a discrete&#45;event simulator. ">
<polygon fill="none" stroke="black" points="528,-225 528,-245 586,-245 586,-225 528,-225"/>
<text text-anchor="middle" x="557" y="-232" font-family="Helvetica,sans-Serif" font-size="10.00">Simulator</text>
</a>
</g>
<!-- Node13&#45;&gt;Node11 -->
<g id="edge24" class="edge"><title>Node13&#45;&gt;Node11</title>
<path fill="none" stroke="#9a32cd" stroke-dasharray="5,2" d="M538.514,-218.129C517.214,-198.691 482.891,-167.366 465.256,-151.272"/>
<polygon fill="#9a32cd" stroke="#9a32cd" points="536.231,-220.785 545.977,-224.94 540.95,-215.614 536.231,-220.785"/>
<text text-anchor="middle" x="532.5" y="-185" font-family="Helvetica,sans-Serif" font-size="10.00"> sim</text>
</g>
<!-- Node13&#45;&gt;Node13 -->
<g id="edge26" class="edge"><title>Node13&#45;&gt;Node13</title>
<path fill="none" stroke="#9a32cd" stroke-dasharray="5,2" d="M596.603,-240.402C601.091,-239.391 604,-237.59 604,-235 604,-230.75 596.167,-228.625 586.375,-228.625"/>
<polygon fill="#9a32cd" stroke="#9a32cd" points="595.999,-236.944 586.375,-241.375 596.661,-243.912 595.999,-236.944"/>
<text text-anchor="middle" x="641" y="-232" font-family="Helvetica,sans-Serif" font-size="10.00"> defaultSimulator</text>
</g>
<!-- Node14 -->
<g id="node27" class="node"><title>Node14</title>
<a xlink:href="interfaceumontreal_1_1ssj_1_1simevents_1_1eventlist_1_1EventList.html" target="_top" xlink:title="An interface for implementations of event lists. ">
<polygon fill="none" stroke="black" points="476,-295 476,-315 534,-315 534,-295 476,-295"/>
<text text-anchor="middle" x="505" y="-302" font-family="Helvetica,sans-Serif" font-size="10.00">EventList</text>
</a>
</g>
<!-- Node14&#45;&gt;Node13 -->
<g id="edge28" class="edge"><title>Node14&#45;&gt;Node13</title>
<path fill="none" stroke="#9a32cd" stroke-dasharray="5,2" d="M514.04,-285.222C517.636,-278.229 522.09,-270.494 527,-264 532.155,-257.182 538.932,-250.488 544.74,-245.252"/>
<polygon fill="#9a32cd" stroke="#9a32cd" points="510.655,-284.18 509.433,-294.704 516.951,-287.239 510.655,-284.18"/>
<text text-anchor="middle" x="548.5" y="-267" font-family="Helvetica,sans-Serif" font-size="10.00"> eventList</text>
</g>
<!-- Node15 -->
<g id="node29" class="node"><title>Node15</title>
<polygon fill="none" stroke="#bfbfbf" points="459,-355 459,-375 551,-375 551,-355 459,-355"/>
<text text-anchor="middle" x="505" y="-362" font-family="Helvetica,sans-Serif" font-size="10.00">Iterable&lt; Event &gt;</text>
</g>
<!-- Node15&#45;&gt;Node14 -->
<g id="edge30" class="edge"><title>Node15&#45;&gt;Node14</title>
<path fill="none" stroke="midnightblue" d="M505,-344.516C505,-334.562 505,-323.05 505,-315.028"/>
<polygon fill="midnightblue" stroke="midnightblue" points="501.5,-344.822 505,-354.822 508.5,-344.822 501.5,-344.822"/>
</g>
<!-- Node16 -->
<g id="node31" class="node"><title>Node16</title>
<a xlink:href="classumontreal_1_1ssj_1_1simevents_1_1ContinuousState.html" target="_top" xlink:title="Represents the portion of the simulator’s state associated with continuous&#45;time simulation. ">
<polygon fill="none" stroke="black" points="551.5,-295 551.5,-315 640.5,-315 640.5,-295 551.5,-295"/>
<text text-anchor="middle" x="596" y="-302" font-family="Helvetica,sans-Serif" font-size="10.00">ContinuousState</text>
</a>
</g>
<!-- Node16&#45;&gt;Node13 -->
<g id="edge32" class="edge"><title>Node16&#45;&gt;Node13</title>
<path fill="none" stroke="#9a32cd" stroke-dasharray="5,2" d="M585.511,-286.173C578.129,-272.924 568.539,-255.711 562.577,-245.011"/>
<polygon fill="#9a32cd" stroke="#9a32cd" points="582.488,-287.938 590.412,-294.971 588.603,-284.532 582.488,-287.938"/>
<text text-anchor="middle" x="615" y="-267" font-family="Helvetica,sans-Serif" font-size="10.00"> continuousState</text>
</g>
</g>
</svg>
        <g id="navigator" transform="translate(0 0)" fill="#404254">
                <rect fill="#f2f5e9" fill-opacity="0.5" stroke="#606060" stroke-width=".5" x="0" y="0" width="60" height="60"/>
                <use id="zoomplus" xlink:href="#zoomPlus" x="17" y="9" onmousedown="handleZoom(evt,'in')"/>
                <use id="zoomminus" xlink:href="#zoomMin" x="42" y="9" onmousedown="handleZoom(evt,'out')"/>
                <use id="reset" xlink:href="#resetDef" x="30" y="36" onmousedown="handleReset()"/>
                <g id="arrowUp" xlink:href="#dirArrow" transform="translate(30 24)" onmousedown="handlePan(0,-1)">
                  <use xlink:href="#rim" fill="#404040">
                        <set attributeName="fill" to="#808080" begin="arrowUp.mouseover" end="arrowUp.mouseout"/>
                  </use>
                  <path fill="none" stroke="white" stroke-width="1.5" d="M0,-3.0v7 M-2.5,-0.5L0,-3.0L2.5,-0.5"/>
                </g>
                <g id="arrowRight" xlink:href="#dirArrow" transform="rotate(90) translate(36 -43)" onmousedown="handlePan(1,0)">
                  <use xlink:href="#rim" fill="#404040">
                        <set attributeName="fill" to="#808080" begin="arrowRight.mouseover" end="arrowRight.mouseout"/>
                  </use>
                  <path fill="none" stroke="white" stroke-width="1.5" d="M0,-3.0v7 M-2.5,-0.5L0,-3.0L2.5,-0.5"/>
                </g>
                <g id="arrowDown" xlink:href="#dirArrow" transform="rotate(180) translate(-30 -48)" onmousedown="handlePan(0,1)">
                  <use xlink:href="#rim" fill="#404040">
                        <set attributeName="fill" to="#808080" begin="arrowDown.mouseover" end="arrowDown.mouseout"/>
                  </use>
                  <path fill="none" stroke="white" stroke-width="1.5" d="M0,-3.0v7 M-2.5,-0.5L0,-3.0L2.5,-0.5"/>
                </g>
                <g id="arrowLeft" xlink:href="#dirArrow" transform="rotate(270) translate(-36 17)" onmousedown="handlePan(-1,0)">
                  <use xlink:href="#rim" fill="#404040">
                        <set attributeName="fill" to="#808080" begin="arrowLeft.mouseover" end="arrowLeft.mouseout"/>
                  </use>
                  <path fill="none" stroke="white" stroke-width="1.5" d="M0,-3.0v7 M-2.5,-0.5L0,-3.0L2.5,-0.5"/>
                </g>
        </g>
        <svg viewBox="0 0 15 15" width="100%" height="30px" preserveAspectRatio="xMaxYMin meet">
         <g id="arrow_out" transform="scale(0.3 0.3)">
          <a xlink:href="classCallCenter__coll__graph_org.svg" target="_base">
           <rect id="button" ry="5" rx="5" y="6" x="6" height="38" width="38"
                fill="#f2f5e9" fill-opacity="0.5" stroke="#606060" stroke-width="1.0"/>
           <path id="arrow"
             d="M 11.500037,31.436501 C 11.940474,20.09759 22.043105,11.32322 32.158766,21.979434 L 37.068811,17.246167 C 37.068811,17.246167 37.088388,32 37.088388,32 L 22.160133,31.978069 C 22.160133,31.978069 26.997745,27.140456 26.997745,27.140456 C 18.528582,18.264221 13.291696,25.230495 11.500037,31.436501 z"
             style="fill:#404040;"/>
          </a>
         </g>
        </svg>
</svg>
