<?xml version="1.0" encoding="UTF-8" standalone="no"?>
<!DOCTYPE svg PUBLIC "-//W3C//DTD SVG 1.1//EN"
 "http://www.w3.org/Graphics/SVG/1.1/DTD/svg11.dtd">
<!-- Generated by graphviz version 2.38.0 (20140413.2041)
 -->
<!-- Title: SortedAndCutPointSet Pages: 1 -->
<svg width="212pt" height="229pt"
 viewBox="0.00 0.00 212.00 229.00" xmlns="http://www.w3.org/2000/svg" xmlns:xlink="http://www.w3.org/1999/xlink">
<g id="graph0" class="graph" transform="scale(1 1) rotate(0) translate(4 225)">
<title>SortedAndCutPointSet</title>
<!-- Node3 -->
<g id="node1" class="node"><title>Node3</title>
<polygon fill="#bfbfbf" stroke="black" points="69,-0.5 69,-19.5 185,-19.5 185,-0.5 69,-0.5"/>
<text text-anchor="middle" x="127" y="-7.5" font-family="Helvetica,sans-Serif" font-size="10.00">SortedAndCutPointSet</text>
</g>
<!-- Node4 -->
<g id="node2" class="node"><title>Node4</title>
<g id="a_node2"><a xlink:href="classumontreal_1_1ssj_1_1hups_1_1CachedPointSet.html" target="_top" xlink:title="This container class caches a point set by precomputing and storing its points locally in an array...">
<polygon fill="none" stroke="black" points="0,-67.5 0,-86.5 88,-86.5 88,-67.5 0,-67.5"/>
<text text-anchor="middle" x="44" y="-74.5" font-family="Helvetica,sans-Serif" font-size="10.00">CachedPointSet</text>
</a>
</g>
</g>
<!-- Node4&#45;&gt;Node3 -->
<g id="edge1" class="edge"><title>Node4&#45;&gt;Node3</title>
<path fill="none" stroke="midnightblue" d="M63.0673,-61.0678C79.4504,-48.2376 102.502,-30.1853 115.984,-19.6273"/>
<polygon fill="midnightblue" stroke="midnightblue" points="60.9088,-58.3126 55.1937,-67.2338 65.2248,-63.8237 60.9088,-58.3126"/>
</g>
<!-- Node5 -->
<g id="node3" class="node"><title>Node5</title>
<g id="a_node3"><a xlink:href="classumontreal_1_1ssj_1_1hups_1_1PointSet.html" target="_top" xlink:title="This abstract class represents a general point set. ">
<polygon fill="none" stroke="black" points="17,-134.5 17,-153.5 71,-153.5 71,-134.5 17,-134.5"/>
<text text-anchor="middle" x="44" y="-141.5" font-family="Helvetica,sans-Serif" font-size="10.00">PointSet</text>
</a>
</g>
</g>
<!-- Node5&#45;&gt;Node4 -->
<g id="edge2" class="edge"><title>Node5&#45;&gt;Node4</title>
<path fill="none" stroke="midnightblue" d="M42.4399,-124.382C42.2572,-121.575 42.1003,-118.713 42,-116 41.6288,-105.965 42.4035,-94.4502 43.0942,-86.7505"/>
<polygon fill="midnightblue" stroke="midnightblue" points="38.9607,-124.791 43.2083,-134.497 45.9406,-124.26 38.9607,-124.791"/>
</g>
<!-- Node5&#45;&gt;Node4 -->
<g id="edge4" class="edge"><title>Node5&#45;&gt;Node4</title>
<path fill="none" stroke="#9a32cd" stroke-dasharray="5,2" d="M44,-124.037C44,-111.67 44,-96.1198 44,-86.6273"/>
<polygon fill="#9a32cd" stroke="#9a32cd" points="40.5001,-124.234 44,-134.234 47.5001,-124.234 40.5001,-124.234"/>
<text text-anchor="middle" x="49" y="-108" font-family="Helvetica,sans-Serif" font-size="10.00"> P</text>
</g>
<!-- Node6 -->
<g id="node4" class="node"><title>Node6</title>
<g id="a_node4"><a xlink:href="interfaceumontreal_1_1ssj_1_1rng_1_1RandomStream.html" target="_top" xlink:title="This interface defines the basic structures to handle multiple streams of uniform (pseudo)random numb...">
<polygon fill="none" stroke="black" points="1.5,-201.5 1.5,-220.5 86.5,-220.5 86.5,-201.5 1.5,-201.5"/>
<text text-anchor="middle" x="44" y="-208.5" font-family="Helvetica,sans-Serif" font-size="10.00">RandomStream</text>
</a>
</g>
</g>
<!-- Node6&#45;&gt;Node5 -->
<g id="edge3" class="edge"><title>Node6&#45;&gt;Node5</title>
<path fill="none" stroke="#9a32cd" stroke-dasharray="5,2" d="M44,-191.037C44,-178.67 44,-163.12 44,-153.627"/>
<polygon fill="#9a32cd" stroke="#9a32cd" points="40.5001,-191.234 44,-201.234 47.5001,-191.234 40.5001,-191.234"/>
<text text-anchor="middle" x="71" y="-175" font-family="Helvetica,sans-Serif" font-size="10.00"> shiftStream</text>
</g>
<!-- Node7 -->
<g id="node5" class="node"><title>Node7</title>
<g id="a_node5"><a xlink:href="interfaceumontreal_1_1ssj_1_1util_1_1sort_1_1MultiDimSort.html" target="_top" xlink:title="This interface is meant to be implemented by certain multivariate sorting algorithms that sort object...">
<polygon fill="none" stroke="black" points="106,-67.5 106,-86.5 204,-86.5 204,-67.5 106,-67.5"/>
<text text-anchor="middle" x="155" y="-74.5" font-family="Helvetica,sans-Serif" font-size="10.00">MultiDimSort&lt; T &gt;</text>
</a>
</g>
</g>
<!-- Node7&#45;&gt;Node3 -->
<g id="edge5" class="edge"><title>Node7&#45;&gt;Node3</title>
<path fill="none" stroke="#9a32cd" stroke-dasharray="5,2" d="M147.156,-57.79C141.779,-45.3076 134.889,-29.3135 130.716,-19.6273"/>
<polygon fill="#9a32cd" stroke="#9a32cd" points="144.053,-59.4344 151.224,-67.2338 150.482,-56.665 144.053,-59.4344"/>
<text text-anchor="middle" x="153" y="-41" font-family="Helvetica,sans-Serif" font-size="10.00"> sort</text>
</g>
</g>
</svg>
