<?xml version="1.0" encoding="UTF-8" standalone="no"?>
<!DOCTYPE svg PUBLIC "-//W3C//DTD SVG 1.1//EN"
 "http://www.w3.org/Graphics/SVG/1.1/DTD/svg11.dtd">
<!-- Generated by graphviz version 2.26.3 (20100126.1600)
 -->
<!-- Title: Accumulate Pages: 1 -->
<svg width="144pt" height="88pt"
 viewBox="0.00 0.00 144.00 88.00" xmlns="http://www.w3.org/2000/svg" xmlns:xlink="http://www.w3.org/1999/xlink">
<g id="graph1" class="graph" transform="scale(1 1) rotate(0) translate(4 84)">
<title>Accumulate</title>
<!-- Node1 -->
<g id="node1" class="node"><title>Node1</title>
<polygon fill="#bfbfbf" stroke="black" points="34,-1 34,-21 102,-21 102,-1 34,-1"/>
<text text-anchor="middle" x="68" y="-8" font-family="Helvetica,sans-Serif" font-size="10.00">Accumulate</text>
</g>
<!-- Node2 -->
<g id="node2" class="node"><title>Node2</title>
<a xlink:href="classumontreal_1_1ssj_1_1stat_1_1StatProbe.html" target="_top" xlink:title="The objects of this class are statistical probes or collectors, which are elementary devices for coll...">
<polygon fill="none" stroke="black" points="0,-59 0,-79 60,-79 60,-59 0,-59"/>
<text text-anchor="middle" x="30" y="-66" font-family="Helvetica,sans-Serif" font-size="10.00">StatProbe</text>
</a>
</g>
<!-- Node2&#45;&gt;Node1 -->
<g id="edge2" class="edge"><title>Node2&#45;&gt;Node1</title>
<path fill="none" stroke="midnightblue" d="M42.1934,-50.3891C48.4874,-40.7824 55.9298,-29.423 61.2009,-21.3776"/>
<polygon fill="midnightblue" stroke="midnightblue" points="39.1718,-48.6144 36.6191,-58.8972 45.027,-52.4507 39.1718,-48.6144"/>
</g>
<!-- Node3 -->
<g id="node4" class="node"><title>Node3</title>
<polygon fill="none" stroke="#bfbfbf" points="77.5,-59 77.5,-79 136.5,-79 136.5,-59 77.5,-59"/>
<text text-anchor="middle" x="107" y="-66" font-family="Helvetica,sans-Serif" font-size="10.00">Cloneable</text>
</g>
<!-- Node3&#45;&gt;Node1 -->
<g id="edge4" class="edge"><title>Node3&#45;&gt;Node1</title>
<path fill="none" stroke="midnightblue" d="M94.4857,-50.3891C88.0261,-40.7824 80.3879,-29.423 74.978,-21.3776"/>
<polygon fill="midnightblue" stroke="midnightblue" points="91.7222,-52.5517 100.207,-58.8972 97.5312,-48.6457 91.7222,-52.5517"/>
</g>
</g>
</svg>
