<?xml version="1.0" encoding="UTF-8" standalone="no"?>
<!DOCTYPE svg PUBLIC "-//W3C//DTD SVG 1.1//EN"
 "http://www.w3.org/Graphics/SVG/1.1/DTD/svg11.dtd">
<!-- Generated by graphviz version 2.26.3 (20100126.1600)
 -->
<!-- Title: PiecewiseLinearEmpiricalDist Pages: 1 -->
<svg width="152pt" height="146pt"
 viewBox="0.00 0.00 152.00 146.00" xmlns="http://www.w3.org/2000/svg" xmlns:xlink="http://www.w3.org/1999/xlink">
<g id="graph1" class="graph" transform="scale(1 1) rotate(0) translate(4 142)">
<title>PiecewiseLinearEmpiricalDist</title>
<!-- Node1 -->
<g id="node1" class="node"><title>Node1</title>
<polygon fill="#bfbfbf" stroke="black" points="-0.5,-1 -0.5,-21 144.5,-21 144.5,-1 -0.5,-1"/>
<text text-anchor="middle" x="72" y="-8" font-family="Helvetica,sans-Serif" font-size="10.00">PiecewiseLinearEmpiricalDist</text>
</g>
<!-- Node2 -->
<g id="node2" class="node"><title>Node2</title>
<a xlink:href="classumontreal_1_1ssj_1_1probdist_1_1ContinuousDistribution.html" target="_top" xlink:title="Classes implementing continuous distributions should inherit from this base class. ">
<polygon fill="none" stroke="black" points="15,-59 15,-79 129,-79 129,-59 15,-59"/>
<text text-anchor="middle" x="72" y="-66" font-family="Helvetica,sans-Serif" font-size="10.00">ContinuousDistribution</text>
</a>
</g>
<!-- Node2&#45;&gt;Node1 -->
<g id="edge2" class="edge"><title>Node2&#45;&gt;Node1</title>
<path fill="none" stroke="midnightblue" d="M72,-48.8902C72,-39.6201 72,-29.0083 72,-21.3776"/>
<polygon fill="midnightblue" stroke="midnightblue" points="68.5001,-48.8971 72,-58.8972 75.5001,-48.8972 68.5001,-48.8971"/>
</g>
<!-- Node3 -->
<g id="node4" class="node"><title>Node3</title>
<a xlink:href="interfaceumontreal_1_1ssj_1_1probdist_1_1Distribution.html" target="_top" xlink:title="This interface should be implemented by all classes supporting discrete and continuous distributions...">
<polygon fill="none" stroke="black" points="39.5,-117 39.5,-137 104.5,-137 104.5,-117 39.5,-117"/>
<text text-anchor="middle" x="72" y="-124" font-family="Helvetica,sans-Serif" font-size="10.00">Distribution</text>
</a>
</g>
<!-- Node3&#45;&gt;Node2 -->
<g id="edge4" class="edge"><title>Node3&#45;&gt;Node2</title>
<path fill="none" stroke="midnightblue" d="M72,-106.89C72,-97.6201 72,-87.0083 72,-79.3776"/>
<polygon fill="midnightblue" stroke="midnightblue" points="68.5001,-106.897 72,-116.897 75.5001,-106.897 68.5001,-106.897"/>
</g>
</g>
</svg>
