<?xml version="1.0" encoding="UTF-8" standalone="no"?>
<!DOCTYPE svg PUBLIC "-//W3C//DTD SVG 1.1//EN"
 "http://www.w3.org/Graphics/SVG/1.1/DTD/svg11.dtd">
<!-- Generated by graphviz version 2.26.3 (20100126.1600)
 -->
<!-- Title: ContinuousDistribution Pages: 1 -->
<!--zoomable 1662 -->
<svg id="main" version="1.1" xmlns="http://www.w3.org/2000/svg" xmlns:xlink="http://www.w3.org/1999/xlink" xml:space="preserve" onload="init(evt)">
<style type="text/css"><![CDATA[
.edge:hover path { stroke: red; }
.edge:hover polygon { stroke: red; fill: red; }
]]></style>
<script type="text/javascript"><![CDATA[
var edges = document.getElementsByTagName('g');
if (edges && edges.length) {
  for (var i=0;i<edges.length;i++) {
    if (edges[i].id.substr(0,4)=='edge') {
      edges[i].setAttribute('class','edge');
    }
  }
}
]]></script>
        <defs>
                <circle id="rim" cx="0" cy="0" r="7"/>
                <circle id="rim2" cx="0" cy="0" r="3.5"/>
                <g id="zoomPlus">
                        <use xlink:href="#rim" fill="#404040">
                                <set attributeName="fill" to="#808080" begin="zoomplus.mouseover" end="zoomplus.mouseout"/>
                        </use>
                        <path d="M-4,0h8M0,-4v8" fill="none" stroke="white" stroke-width="1.5" pointer-events="none"/>
                </g>
                <g id="zoomMin">
                        <use xlink:href="#rim" fill="#404040">
                                <set attributeName="fill" to="#808080" begin="zoomminus.mouseover" end="zoomminus.mouseout"/>
                        </use>
                        <path d="M-4,0h8" fill="none" stroke="white" stroke-width="1.5" pointer-events="none"/>
                </g>
                <g id="dirArrow">
                        <path fill="none" stroke="white" stroke-width="1.5" d="M0,-3.0v7 M-2.5,-0.5L0,-3.0L2.5,-0.5"/>
                </g>
               <g id="resetDef">
                       <use xlink:href="#rim2" fill="#404040">
                               <set attributeName="fill" to="#808080" begin="reset.mouseover" end="reset.mouseout"/>
                       </use>
               </g>
        </defs>

<script type="text/javascript">
var viewWidth = 574;
var viewHeight = 1662;
var sectionId = 'dynsection-0';
</script>
<script xlink:href="svgpan.js"/>
<svg id="graph" class="graph">
<g id="viewport">
<title>ContinuousDistribution</title>
<!-- Node1 -->
<g id="node1" class="node"><title>Node1</title>
<polygon fill="#bfbfbf" stroke="black" points="102,-817 102,-837 216,-837 216,-817 102,-817"/>
<text text-anchor="middle" x="159" y="-824" font-family="Helvetica,sans-Serif" font-size="10.00">ContinuousDistribution</text>
</g>
<!-- Node3 -->
<g id="node5" class="node"><title>Node3</title>
<a xlink:href="classumontreal_1_1ssj_1_1probdist_1_1AndersonDarlingDist.html" target="_top" xlink:title="Extends the class ContinuousDistribution for the Anderson–Darling distribution (see ...">
<polygon fill="none" stroke="black" points="272.5,-1634 272.5,-1654 377.5,-1654 377.5,-1634 272.5,-1634"/>
<text text-anchor="middle" x="325" y="-1641" font-family="Helvetica,sans-Serif" font-size="10.00">AndersonDarlingDist</text>
</a>
</g>
<!-- Node1&#45;&gt;Node3 -->
<g id="edge4" class="edge"><title>Node1&#45;&gt;Node3</title>
<path fill="none" stroke="midnightblue" d="M160.008,-847.26C166.073,-965.606 199.222,-1564.35 252,-1625 257.416,-1631.22 264.587,-1635.54 272.322,-1638.5"/>
<polygon fill="midnightblue" stroke="midnightblue" points="163.494,-846.884 159.493,-837.073 156.503,-847.237 163.494,-846.884"/>
</g>
<!-- Node5 -->
<g id="node9" class="node"><title>Node5</title>
<a xlink:href="classumontreal_1_1ssj_1_1probdist_1_1BetaDist.html" target="_top" xlink:title="Extends the class ContinuousDistribution for the beta distribution   (page 210) with shape parameter...">
<polygon fill="none" stroke="black" points="298,-1596 298,-1616 352,-1616 352,-1596 298,-1596"/>
<text text-anchor="middle" x="325" y="-1603" font-family="Helvetica,sans-Serif" font-size="10.00">BetaDist</text>
</a>
</g>
<!-- Node1&#45;&gt;Node5 -->
<g id="edge8" class="edge"><title>Node1&#45;&gt;Node5</title>
<path fill="none" stroke="midnightblue" d="M160.138,-847.362C166.75,-962.564 201.692,-1529.52 252,-1587 263.299,-1599.91 282.149,-1604.58 297.864,-1606.07"/>
<polygon fill="midnightblue" stroke="midnightblue" points="163.618,-846.916 159.557,-837.13 156.629,-847.312 163.618,-846.916"/>
</g>
<!-- Node7 -->
<g id="node13" class="node"><title>Node7</title>
<a xlink:href="classumontreal_1_1ssj_1_1probdist_1_1CauchyDist.html" target="_top" xlink:title="Extends the class ContinuousDistribution for the Cauchy distribution   (page 299) with location para...">
<polygon fill="none" stroke="black" points="291.5,-1558 291.5,-1578 358.5,-1578 358.5,-1558 291.5,-1558"/>
<text text-anchor="middle" x="325" y="-1565" font-family="Helvetica,sans-Serif" font-size="10.00">CauchyDist</text>
</a>
</g>
<!-- Node1&#45;&gt;Node7 -->
<g id="edge12" class="edge"><title>Node1&#45;&gt;Node7</title>
<path fill="none" stroke="midnightblue" d="M160.276,-847.381C167.449,-959.155 204.145,-1494.67 252,-1549 261.782,-1560.1 277.151,-1565.11 291.27,-1567.23"/>
<polygon fill="midnightblue" stroke="midnightblue" points="163.753,-846.905 159.626,-837.147 156.767,-847.348 163.753,-846.905"/>
</g>
<!-- Node8 -->
<g id="node15" class="node"><title>Node8</title>
<a xlink:href="classumontreal_1_1ssj_1_1probdist_1_1ChiDist.html" target="_top" xlink:title="Extends the class ContinuousDistribution for the chi distribution   (page 417) with shape parameter ...">
<polygon fill="none" stroke="black" points="301,-1520 301,-1540 349,-1540 349,-1520 301,-1520"/>
<text text-anchor="middle" x="325" y="-1527" font-family="Helvetica,sans-Serif" font-size="10.00">ChiDist</text>
</a>
</g>
<!-- Node1&#45;&gt;Node8 -->
<g id="edge14" class="edge"><title>Node1&#45;&gt;Node8</title>
<path fill="none" stroke="midnightblue" d="M160.424,-847.314C168.171,-955.381 206.583,-1459.8 252,-1511 264.08,-1524.62 284.563,-1529.05 300.763,-1530.25"/>
<polygon fill="midnightblue" stroke="midnightblue" points="163.899,-846.848 159.7,-837.121 156.917,-847.344 163.899,-846.848"/>
</g>
<!-- Node9 -->
<g id="node17" class="node"><title>Node9</title>
<a xlink:href="classumontreal_1_1ssj_1_1probdist_1_1ChiSquareDist.html" target="_top" xlink:title="Extends the class ContinuousDistribution for the chi&#45;square distribution with &#160;degrees of freedom...">
<polygon fill="none" stroke="black" points="285.5,-1482 285.5,-1502 364.5,-1502 364.5,-1482 285.5,-1482"/>
<text text-anchor="middle" x="325" y="-1489" font-family="Helvetica,sans-Serif" font-size="10.00">ChiSquareDist</text>
</a>
</g>
<!-- Node1&#45;&gt;Node9 -->
<g id="edge16" class="edge"><title>Node1&#45;&gt;Node9</title>
<path fill="none" stroke="midnightblue" d="M160.607,-847.488C169,-952.247 209.049,-1424.97 252,-1473 260.467,-1482.47 272.998,-1487.49 285.298,-1490.08"/>
<polygon fill="midnightblue" stroke="midnightblue" points="164.079,-846.992 159.798,-837.3 157.101,-847.546 164.079,-846.992"/>
</g>
<!-- Node11 -->
<g id="node21" class="node"><title>Node11</title>
<a xlink:href="classumontreal_1_1ssj_1_1probdist_1_1ChiSquareNoncentralDist.html" target="_top" xlink:title="Extends the class ContinuousDistribution for the noncentral chi&#45;square distribution with &#160;degrees of ...">
<polygon fill="none" stroke="black" points="262.5,-1444 262.5,-1464 387.5,-1464 387.5,-1444 262.5,-1444"/>
<text text-anchor="middle" x="325" y="-1451" font-family="Helvetica,sans-Serif" font-size="10.00">ChiSquareNoncentralDist</text>
</a>
</g>
<!-- Node1&#45;&gt;Node11 -->
<g id="edge20" class="edge"><title>Node1&#45;&gt;Node11</title>
<path fill="none" stroke="midnightblue" d="M159.215,-847.23C160.639,-942.516 171.411,-1345.67 252,-1435 255.246,-1438.6 259.078,-1441.55 263.26,-1443.97"/>
<polygon fill="midnightblue" stroke="midnightblue" points="162.714,-847.131 159.083,-837.178 155.714,-847.223 162.714,-847.131"/>
</g>
<!-- Node12 -->
<g id="node23" class="node"><title>Node12</title>
<a xlink:href="classumontreal_1_1ssj_1_1probdist_1_1CramerVonMisesDist.html" target="_top" xlink:title="Extends the class ContinuousDistribution for the Cramér&#45;von Mises distribution (see ...">
<polygon fill="none" stroke="black" points="271,-1406 271,-1426 379,-1426 379,-1406 271,-1406"/>
<text text-anchor="middle" x="325" y="-1413" font-family="Helvetica,sans-Serif" font-size="10.00">CramerVonMisesDist</text>
</a>
</g>
<!-- Node1&#45;&gt;Node12 -->
<g id="edge22" class="edge"><title>Node1&#45;&gt;Node12</title>
<path fill="none" stroke="midnightblue" d="M159.453,-847.697C161.898,-940.099 176.391,-1314.02 252,-1397 257.116,-1402.61 263.661,-1406.66 270.724,-1409.56"/>
<polygon fill="midnightblue" stroke="midnightblue" points="162.946,-847.341 159.202,-837.43 155.948,-847.513 162.946,-847.341"/>
</g>
<!-- Node13 -->
<g id="node25" class="node"><title>Node13</title>
<a xlink:href="classumontreal_1_1ssj_1_1probdist_1_1ExponentialDist.html" target="_top" xlink:title="Extends the class ContinuousDistribution for the exponential distribution   (page 494) with mean &#160;wh...">
<polygon fill="none" stroke="red" points="282.5,-1368 282.5,-1388 367.5,-1388 367.5,-1368 282.5,-1368"/>
<text text-anchor="middle" x="325" y="-1375" font-family="Helvetica,sans-Serif" font-size="10.00">ExponentialDist</text>
</a>
</g>
<!-- Node1&#45;&gt;Node13 -->
<g id="edge24" class="edge"><title>Node1&#45;&gt;Node13</title>
<path fill="none" stroke="midnightblue" d="M159.706,-847.423C163.167,-935.533 181.155,-1282.13 252,-1359 259.899,-1367.57 271.128,-1372.48 282.418,-1375.23"/>
<polygon fill="midnightblue" stroke="midnightblue" points="163.194,-847.029 159.325,-837.166 156.199,-847.289 163.194,-847.029"/>
</g>
<!-- Node14 -->
<g id="node27" class="node"><title>Node14</title>
<a xlink:href="classumontreal_1_1ssj_1_1probdist_1_1ExtremeValueDist.html" target="_top" xlink:title="This class has been replaced by GumbelDist . ">
<polygon fill="none" stroke="black" points="277.5,-1330 277.5,-1350 372.5,-1350 372.5,-1330 277.5,-1330"/>
<text text-anchor="middle" x="325" y="-1337" font-family="Helvetica,sans-Serif" font-size="10.00">ExtremeValueDist</text>
</a>
</g>
<!-- Node1&#45;&gt;Node14 -->
<g id="edge26" class="edge"><title>Node1&#45;&gt;Node14</title>
<path fill="none" stroke="midnightblue" d="M159.999,-847.301C164.54,-931.26 185.948,-1250.26 252,-1321 258.703,-1328.18 267.744,-1332.78 277.178,-1335.7"/>
<polygon fill="midnightblue" stroke="midnightblue" points="163.492,-847.065 159.477,-837.26 156.501,-847.429 163.492,-847.065"/>
</g>
<!-- Node15 -->
<g id="node29" class="node"><title>Node15</title>
<a xlink:href="classumontreal_1_1ssj_1_1probdist_1_1FatigueLifeDist.html" target="_top" xlink:title="Extends the class ContinuousDistribution for the fatigue life distribution   with location parameter...">
<polygon fill="none" stroke="black" points="284,-1292 284,-1312 366,-1312 366,-1292 284,-1292"/>
<text text-anchor="middle" x="325" y="-1299" font-family="Helvetica,sans-Serif" font-size="10.00">FatigueLifeDist</text>
</a>
</g>
<!-- Node1&#45;&gt;Node15 -->
<g id="edge28" class="edge"><title>Node1&#45;&gt;Node15</title>
<path fill="none" stroke="midnightblue" d="M160.359,-847.502C166.082,-927.638 190.809,-1218.45 252,-1283 260.289,-1291.74 272.048,-1296.66 283.713,-1299.36"/>
<polygon fill="midnightblue" stroke="midnightblue" points="163.833,-846.994 159.651,-837.259 156.849,-847.477 163.833,-846.994"/>
</g>
<!-- Node16 -->
<g id="node31" class="node"><title>Node16</title>
<a xlink:href="classumontreal_1_1ssj_1_1probdist_1_1FisherFDist.html" target="_top" xlink:title="Extends the class ContinuousDistribution for the Fisher F distribution with &#160;and &#160;degrees of freedom...">
<polygon fill="none" stroke="black" points="291.5,-1254 291.5,-1274 358.5,-1274 358.5,-1254 291.5,-1254"/>
<text text-anchor="middle" x="325" y="-1261" font-family="Helvetica,sans-Serif" font-size="10.00">FisherFDist</text>
</a>
</g>
<!-- Node1&#45;&gt;Node16 -->
<g id="edge30" class="edge"><title>Node1&#45;&gt;Node16</title>
<path fill="none" stroke="midnightblue" d="M160.746,-847.238C167.659,-922.719 195.533,-1186.48 252,-1245 262.185,-1255.55 277.43,-1260.51 291.359,-1262.75"/>
<polygon fill="midnightblue" stroke="midnightblue" points="164.221,-846.804 159.846,-837.155 157.249,-847.427 164.221,-846.804"/>
</g>
<!-- Node17 -->
<g id="node33" class="node"><title>Node17</title>
<a xlink:href="classumontreal_1_1ssj_1_1probdist_1_1FoldedNormalDist.html" target="_top" xlink:title="Extends the class ContinuousDistribution for the folded normal distribution with parameters &#160;and ...">
<polygon fill="none" stroke="black" points="278,-1216 278,-1236 372,-1236 372,-1216 278,-1216"/>
<text text-anchor="middle" x="325" y="-1223" font-family="Helvetica,sans-Serif" font-size="10.00">FoldedNormalDist</text>
</a>
</g>
<!-- Node1&#45;&gt;Node17 -->
<g id="edge32" class="edge"><title>Node1&#45;&gt;Node17</title>
<path fill="none" stroke="midnightblue" d="M161.279,-847.658C169.574,-919.167 200.405,-1154.65 252,-1207 258.986,-1214.09 268.258,-1218.64 277.843,-1221.54"/>
<polygon fill="midnightblue" stroke="midnightblue" points="164.709,-846.841 160.103,-837.3 157.753,-847.63 164.709,-846.841"/>
</g>
<!-- Node18 -->
<g id="node35" class="node"><title>Node18</title>
<a xlink:href="classumontreal_1_1ssj_1_1probdist_1_1FrechetDist.html" target="_top" xlink:title="Extends the class ContinuousDistribution for the Fréchet distribution   (page 3), with location parameter , scale parameter , and shape parameter , where we use the notation . ">
<polygon fill="none" stroke="black" points="291.5,-1178 291.5,-1198 358.5,-1198 358.5,-1178 291.5,-1178"/>
<text text-anchor="middle" x="325" y="-1185" font-family="Helvetica,sans-Serif" font-size="10.00">FrechetDist</text>
</a>
</g>
<!-- Node1&#45;&gt;Node18 -->
<g id="edge34" class="edge"><title>Node1&#45;&gt;Node18</title>
<path fill="none" stroke="midnightblue" d="M161.829,-847.31C171.47,-913.681 205.064,-1122.57 252,-1169 262.335,-1179.22 277.431,-1184.15 291.218,-1186.46"/>
<polygon fill="midnightblue" stroke="midnightblue" points="165.276,-846.687 160.398,-837.281 158.346,-847.675 165.276,-846.687"/>
</g>
<!-- Node19 -->
<g id="node37" class="node"><title>Node19</title>
<a xlink:href="classumontreal_1_1ssj_1_1probdist_1_1GammaDist.html" target="_top" xlink:title="Extends the class ContinuousDistribution for the gamma distribution   (page 337) with shape paramete...">
<polygon fill="none" stroke="red" points="291,-1140 291,-1160 359,-1160 359,-1140 291,-1140"/>
<text text-anchor="middle" x="325" y="-1147" font-family="Helvetica,sans-Serif" font-size="10.00">GammaDist</text>
</a>
</g>
<!-- Node1&#45;&gt;Node19 -->
<g id="edge36" class="edge"><title>Node1&#45;&gt;Node19</title>
<path fill="none" stroke="midnightblue" d="M162.51,-847.018C173.606,-908.11 209.71,-1090.46 252,-1131 262.399,-1140.97 277.34,-1145.88 290.999,-1148.24"/>
<polygon fill="midnightblue" stroke="midnightblue" points="165.939,-846.311 160.733,-837.083 159.048,-847.543 165.939,-846.311"/>
</g>
<!-- Node20 -->
<g id="node39" class="node"><title>Node20</title>
<a xlink:href="classumontreal_1_1ssj_1_1probdist_1_1GumbelDist.html" target="_top" xlink:title="Extends the class ContinuousDistribution for the Gumbel distribution   (page 2), with location param...">
<polygon fill="none" stroke="black" points="291,-1102 291,-1122 359,-1122 359,-1102 291,-1102"/>
<text text-anchor="middle" x="325" y="-1109" font-family="Helvetica,sans-Serif" font-size="10.00">GumbelDist</text>
</a>
</g>
<!-- Node1&#45;&gt;Node20 -->
<g id="edge38" class="edge"><title>Node1&#45;&gt;Node20</title>
<path fill="none" stroke="midnightblue" d="M159.886,-847.36C163.183,-897.071 178.737,-1025.49 252,-1093 262.497,-1102.67 277.29,-1107.55 290.817,-1109.97"/>
<polygon fill="midnightblue" stroke="midnightblue" points="163.373,-847.03 159.317,-837.243 156.384,-847.423 163.373,-847.03"/>
</g>
<!-- Node21 -->
<g id="node41" class="node"><title>Node21</title>
<a xlink:href="classumontreal_1_1ssj_1_1probdist_1_1HalfNormalDist.html" target="_top" xlink:title="Extends the class ContinuousDistribution for the half&#45;normal distribution with parameters &#160;and ...">
<polygon fill="none" stroke="black" points="284,-1064 284,-1084 366,-1084 366,-1064 284,-1064"/>
<text text-anchor="middle" x="325" y="-1071" font-family="Helvetica,sans-Serif" font-size="10.00">HalfNormalDist</text>
</a>
</g>
<!-- Node1&#45;&gt;Node21 -->
<g id="edge40" class="edge"><title>Node1&#45;&gt;Node21</title>
<path fill="none" stroke="midnightblue" d="M161.202,-847.124C167.17,-891.606 187.79,-998.789 252,-1055 260.868,-1062.76 272.524,-1067.42 283.91,-1070.19"/>
<polygon fill="midnightblue" stroke="midnightblue" points="164.653,-846.506 159.958,-837.008 157.705,-847.361 164.653,-846.506"/>
</g>
<!-- Node22 -->
<g id="node43" class="node"><title>Node22</title>
<a xlink:href="classumontreal_1_1ssj_1_1probdist_1_1HyperbolicSecantDist.html" target="_top" xlink:title="Extends the class ContinuousDistribution for the hyperbolic secant distribution with location paramet...">
<polygon fill="none" stroke="black" points="270,-1026 270,-1046 380,-1046 380,-1026 270,-1026"/>
<text text-anchor="middle" x="325" y="-1033" font-family="Helvetica,sans-Serif" font-size="10.00">HyperbolicSecantDist</text>
</a>
</g>
<!-- Node1&#45;&gt;Node22 -->
<g id="edge42" class="edge"><title>Node1&#45;&gt;Node22</title>
<path fill="none" stroke="midnightblue" d="M163.033,-847.185C171.904,-886.171 196.868,-971.949 252,-1017 257.273,-1021.31 263.416,-1024.65 269.858,-1027.24"/>
<polygon fill="midnightblue" stroke="midnightblue" points="166.387,-846.132 160.863,-837.091 159.543,-847.604 166.387,-846.132"/>
</g>
<!-- Node23 -->
<g id="node45" class="node"><title>Node23</title>
<a xlink:href="classumontreal_1_1ssj_1_1probdist_1_1HypoExponentialDist.html" target="_top" xlink:title="This class implements the hypoexponential distribution, also called the generalized Erlang distributi...">
<polygon fill="none" stroke="red" points="271.5,-988 271.5,-1008 378.5,-1008 378.5,-988 271.5,-988"/>
<text text-anchor="middle" x="325" y="-995" font-family="Helvetica,sans-Serif" font-size="10.00">HypoExponentialDist</text>
</a>
</g>
<!-- Node1&#45;&gt;Node23 -->
<g id="edge44" class="edge"><title>Node1&#45;&gt;Node23</title>
<path fill="none" stroke="midnightblue" d="M165.696,-847.203C177.638,-880.03 205.789,-944.725 252,-979 257.785,-983.291 264.454,-986.615 271.36,-989.19"/>
<polygon fill="midnightblue" stroke="midnightblue" points="168.867,-845.667 162.264,-837.381 162.258,-847.976 168.867,-845.667"/>
</g>
<!-- Node24 -->
<g id="node47" class="node"><title>Node24</title>
<a xlink:href="classumontreal_1_1ssj_1_1probdist_1_1InverseDistFromDensity.html" target="_top" xlink:title="Implements a method for computing the inverse of an arbitrary continuous distribution function when o...">
<polygon fill="none" stroke="black" points="264,-950 264,-970 386,-970 386,-950 264,-950"/>
<text text-anchor="middle" x="325" y="-957" font-family="Helvetica,sans-Serif" font-size="10.00">InverseDistFromDensity</text>
</a>
</g>
<!-- Node1&#45;&gt;Node24 -->
<g id="edge46" class="edge"><title>Node1&#45;&gt;Node24</title>
<path fill="none" stroke="midnightblue" d="M169.147,-845.744C183.943,-871.257 213.878,-916.535 252,-941 257.621,-944.607 263.899,-947.531 270.351,-949.901"/>
<polygon fill="midnightblue" stroke="midnightblue" points="172.189,-844.013 164.232,-837.018 166.09,-847.448 172.189,-844.013"/>
</g>
<!-- Node25 -->
<g id="node49" class="node"><title>Node25</title>
<a xlink:href="classumontreal_1_1ssj_1_1probdist_1_1InverseGammaDist.html" target="_top" xlink:title="Extends the class ContinuousDistribution for the inverse gamma distribution with shape parameter &#160;and...">
<polygon fill="none" stroke="black" points="274.5,-912 274.5,-932 375.5,-932 375.5,-912 274.5,-912"/>
<text text-anchor="middle" x="325" y="-919" font-family="Helvetica,sans-Serif" font-size="10.00">InverseGammaDist</text>
</a>
</g>
<!-- Node1&#45;&gt;Node25 -->
<g id="edge48" class="edge"><title>Node1&#45;&gt;Node25</title>
<path fill="none" stroke="midnightblue" d="M175.454,-844.255C192.894,-861.562 222.012,-887.772 252,-903 259.006,-906.558 266.738,-909.492 274.471,-911.898"/>
<polygon fill="midnightblue" stroke="midnightblue" points="177.814,-841.664 168.301,-837.001 172.83,-846.579 177.814,-841.664"/>
</g>
<!-- Node26 -->
<g id="node51" class="node"><title>Node26</title>
<a xlink:href="classumontreal_1_1ssj_1_1probdist_1_1InverseGaussianDist.html" target="_top" xlink:title="Extends the class ContinuousDistribution for the inverse Gaussian distribution with location paramete...">
<polygon fill="none" stroke="black" points="271.5,-874 271.5,-894 378.5,-894 378.5,-874 271.5,-874"/>
<text text-anchor="middle" x="325" y="-881" font-family="Helvetica,sans-Serif" font-size="10.00">InverseGaussianDist</text>
</a>
</g>
<!-- Node1&#45;&gt;Node26 -->
<g id="edge50" class="edge"><title>Node1&#45;&gt;Node26</title>
<path fill="none" stroke="midnightblue" d="M190.578,-841.128C208.395,-848.788 231.194,-858.076 252,-865 261.816,-868.267 272.526,-871.327 282.643,-873.996"/>
<polygon fill="midnightblue" stroke="midnightblue" points="191.802,-837.844 181.236,-837.065 189.01,-844.263 191.802,-837.844"/>
</g>
<!-- Node27 -->
<g id="node53" class="node"><title>Node27</title>
<a xlink:href="classumontreal_1_1ssj_1_1probdist_1_1JohnsonSystem.html" target="_top" xlink:title="This class contains common parameters and methods for the Johnson system of distributions ...">
<polygon fill="none" stroke="red" points="281.5,-836 281.5,-856 368.5,-856 368.5,-836 281.5,-836"/>
<text text-anchor="middle" x="325" y="-843" font-family="Helvetica,sans-Serif" font-size="10.00">JohnsonSystem</text>
</a>
</g>
<!-- Node1&#45;&gt;Node27 -->
<g id="edge52" class="edge"><title>Node1&#45;&gt;Node27</title>
<path fill="none" stroke="midnightblue" d="M226.313,-834.704C244.892,-836.831 264.559,-839.082 281.406,-841.01"/>
<polygon fill="midnightblue" stroke="midnightblue" points="226.461,-831.199 216.128,-833.539 225.665,-838.153 226.461,-831.199"/>
</g>
<!-- Node28 -->
<g id="node55" class="node"><title>Node28</title>
<a xlink:href="classumontreal_1_1ssj_1_1probdist_1_1KolmogorovSmirnovDist.html" target="_top" xlink:title="Extends the class ContinuousDistribution for the Kolmogorov&#45;Smirnov distribution with parameter &#160; ...">
<polygon fill="none" stroke="red" points="264,-798 264,-818 386,-818 386,-798 264,-798"/>
<text text-anchor="middle" x="325" y="-805" font-family="Helvetica,sans-Serif" font-size="10.00">KolmogorovSmirnovDist</text>
</a>
</g>
<!-- Node1&#45;&gt;Node28 -->
<g id="edge54" class="edge"><title>Node1&#45;&gt;Node28</title>
<path fill="none" stroke="midnightblue" d="M226.385,-819.287C238.761,-817.871 251.617,-816.399 263.799,-815.005"/>
<polygon fill="midnightblue" stroke="midnightblue" points="225.665,-815.847 216.128,-820.461 226.461,-822.801 225.665,-815.847"/>
</g>
<!-- Node29 -->
<g id="node57" class="node"><title>Node29</title>
<a xlink:href="classumontreal_1_1ssj_1_1probdist_1_1KolmogorovSmirnovPlusDist.html" target="_top" xlink:title="Extends the class ContinuousDistribution for the Kolmogorov–Smirnov+ distribution (see ...">
<polygon fill="none" stroke="black" points="254.5,-760 254.5,-780 395.5,-780 395.5,-760 254.5,-760"/>
<text text-anchor="middle" x="325" y="-767" font-family="Helvetica,sans-Serif" font-size="10.00">KolmogorovSmirnovPlusDist</text>
</a>
</g>
<!-- Node1&#45;&gt;Node29 -->
<g id="edge56" class="edge"><title>Node1&#45;&gt;Node29</title>
<path fill="none" stroke="midnightblue" d="M190.578,-812.872C208.395,-805.212 231.194,-795.924 252,-789 261.816,-785.733 272.526,-782.673 282.643,-780.004"/>
<polygon fill="midnightblue" stroke="midnightblue" points="189.01,-809.737 181.236,-816.935 191.802,-816.156 189.01,-809.737"/>
</g>
<!-- Node30 -->
<g id="node59" class="node"><title>Node30</title>
<a xlink:href="classumontreal_1_1ssj_1_1probdist_1_1LaplaceDist.html" target="_top" xlink:title="Extends the class ContinuousDistribution for the Laplace distribution (see, e.g.,   (page 165))...">
<polygon fill="none" stroke="black" points="291,-722 291,-742 359,-742 359,-722 291,-722"/>
<text text-anchor="middle" x="325" y="-729" font-family="Helvetica,sans-Serif" font-size="10.00">LaplaceDist</text>
</a>
</g>
<!-- Node1&#45;&gt;Node30 -->
<g id="edge58" class="edge"><title>Node1&#45;&gt;Node30</title>
<path fill="none" stroke="midnightblue" d="M175.454,-809.745C192.894,-792.438 222.012,-766.228 252,-751 264.027,-744.893 278.193,-740.624 290.83,-737.703"/>
<polygon fill="midnightblue" stroke="midnightblue" points="172.83,-807.421 168.301,-816.999 177.814,-812.336 172.83,-807.421"/>
</g>
<!-- Node31 -->
<g id="node61" class="node"><title>Node31</title>
<a xlink:href="classumontreal_1_1ssj_1_1probdist_1_1LogisticDist.html" target="_top" xlink:title="Extends the class ContinuousDistribution for the logistic distribution (e.g.,   (page 115))...">
<polygon fill="none" stroke="black" points="291,-684 291,-704 359,-704 359,-684 291,-684"/>
<text text-anchor="middle" x="325" y="-691" font-family="Helvetica,sans-Serif" font-size="10.00">LogisticDist</text>
</a>
</g>
<!-- Node1&#45;&gt;Node31 -->
<g id="edge60" class="edge"><title>Node1&#45;&gt;Node31</title>
<path fill="none" stroke="midnightblue" d="M169.147,-808.256C183.943,-782.743 213.878,-737.465 252,-713 263.572,-705.573 277.933,-701.042 290.847,-698.281"/>
<polygon fill="midnightblue" stroke="midnightblue" points="166.09,-806.552 164.232,-816.982 172.189,-809.987 166.09,-806.552"/>
</g>
<!-- Node32 -->
<g id="node63" class="node"><title>Node32</title>
<a xlink:href="classumontreal_1_1ssj_1_1probdist_1_1LoglogisticDist.html" target="_top" xlink:title="Extends the class ContinuousDistribution for the Log&#45;Logistic distribution with shape parameter &#160;and ...">
<polygon fill="none" stroke="black" points="285,-646 285,-666 365,-666 365,-646 285,-646"/>
<text text-anchor="middle" x="325" y="-653" font-family="Helvetica,sans-Serif" font-size="10.00">LoglogisticDist</text>
</a>
</g>
<!-- Node1&#45;&gt;Node32 -->
<g id="edge62" class="edge"><title>Node1&#45;&gt;Node32</title>
<path fill="none" stroke="midnightblue" d="M165.696,-806.797C177.638,-773.97 205.789,-709.275 252,-675 261.467,-667.979 273.299,-663.546 284.665,-660.749"/>
<polygon fill="midnightblue" stroke="midnightblue" points="162.258,-806.024 162.264,-816.619 168.867,-808.333 162.258,-806.024"/>
</g>
<!-- Node33 -->
<g id="node65" class="node"><title>Node33</title>
<a xlink:href="classumontreal_1_1ssj_1_1probdist_1_1LognormalDist.html" target="_top" xlink:title="Extends the class ContinuousDistribution for the lognormal distribution  . ">
<polygon fill="none" stroke="red" points="285.5,-608 285.5,-628 364.5,-628 364.5,-608 285.5,-608"/>
<text text-anchor="middle" x="325" y="-615" font-family="Helvetica,sans-Serif" font-size="10.00">LognormalDist</text>
</a>
</g>
<!-- Node1&#45;&gt;Node33 -->
<g id="edge64" class="edge"><title>Node1&#45;&gt;Node33</title>
<path fill="none" stroke="midnightblue" d="M163.033,-806.815C171.904,-767.829 196.868,-682.051 252,-637 261.431,-629.294 273.644,-624.679 285.373,-621.926"/>
<polygon fill="midnightblue" stroke="midnightblue" points="159.543,-806.396 160.863,-816.909 166.387,-807.868 159.543,-806.396"/>
</g>
<!-- Node34 -->
<g id="node67" class="node"><title>Node34</title>
<a xlink:href="classumontreal_1_1ssj_1_1probdist_1_1NakagamiDist.html" target="_top" xlink:title="Extends the class ContinuousDistribution for the Nakagami distribution with location parameter ...">
<polygon fill="none" stroke="black" points="286.5,-570 286.5,-590 363.5,-590 363.5,-570 286.5,-570"/>
<text text-anchor="middle" x="325" y="-577" font-family="Helvetica,sans-Serif" font-size="10.00">NakagamiDist</text>
</a>
</g>
<!-- Node1&#45;&gt;Node34 -->
<g id="edge66" class="edge"><title>Node1&#45;&gt;Node34</title>
<path fill="none" stroke="midnightblue" d="M161.202,-806.876C167.17,-762.394 187.79,-655.211 252,-599 261.459,-590.719 274.09,-585.977 286.183,-583.284"/>
<polygon fill="midnightblue" stroke="midnightblue" points="157.705,-806.639 159.958,-816.992 164.653,-807.494 157.705,-806.639"/>
</g>
<!-- Node35 -->
<g id="node69" class="node"><title>Node35</title>
<a xlink:href="classumontreal_1_1ssj_1_1probdist_1_1NormalDist.html" target="_top" xlink:title="Extends the class ContinuousDistribution for the normal distribution (e.g.,   (page 80))...">
<polygon fill="none" stroke="red" points="292.5,-532 292.5,-552 357.5,-552 357.5,-532 292.5,-532"/>
<text text-anchor="middle" x="325" y="-539" font-family="Helvetica,sans-Serif" font-size="10.00">NormalDist</text>
</a>
</g>
<!-- Node1&#45;&gt;Node35 -->
<g id="edge68" class="edge"><title>Node1&#45;&gt;Node35</title>
<path fill="none" stroke="midnightblue" d="M159.886,-806.64C163.183,-756.929 178.737,-628.508 252,-561 262.883,-550.972 278.381,-546.095 292.3,-543.775"/>
<polygon fill="midnightblue" stroke="midnightblue" points="156.384,-806.577 159.317,-816.757 163.373,-806.97 156.384,-806.577"/>
</g>
<!-- Node36 -->
<g id="node71" class="node"><title>Node36</title>
<a xlink:href="classumontreal_1_1ssj_1_1probdist_1_1NormalInverseGaussianDist.html" target="_top" xlink:title="Extends the class ContinuousDistribution for the normal inverse gaussian distribution with location p...">
<polygon fill="none" stroke="black" points="256,-494 256,-514 394,-514 394,-494 256,-494"/>
<text text-anchor="middle" x="325" y="-501" font-family="Helvetica,sans-Serif" font-size="10.00">NormalInverseGaussianDist</text>
</a>
</g>
<!-- Node1&#45;&gt;Node36 -->
<g id="edge70" class="edge"><title>Node1&#45;&gt;Node36</title>
<path fill="none" stroke="midnightblue" d="M162.51,-806.982C173.606,-745.89 209.71,-563.54 252,-523 255.781,-519.375 260.163,-516.419 264.866,-514.011"/>
<polygon fill="midnightblue" stroke="midnightblue" points="159.048,-806.457 160.733,-816.917 165.939,-807.689 159.048,-806.457"/>
</g>
<!-- Node37 -->
<g id="node73" class="node"><title>Node37</title>
<a xlink:href="classumontreal_1_1ssj_1_1probdist_1_1ParetoDist.html" target="_top" xlink:title="Extends the class ContinuousDistribution for a distribution from the Pareto family, with shape parameter &#160;and location parameter &#160;  (page 574). ">
<polygon fill="none" stroke="black" points="294,-456 294,-476 356,-476 356,-456 294,-456"/>
<text text-anchor="middle" x="325" y="-463" font-family="Helvetica,sans-Serif" font-size="10.00">ParetoDist</text>
</a>
</g>
<!-- Node1&#45;&gt;Node37 -->
<g id="edge72" class="edge"><title>Node1&#45;&gt;Node37</title>
<path fill="none" stroke="midnightblue" d="M161.829,-806.69C171.47,-740.319 205.064,-531.427 252,-485 262.986,-474.133 279.354,-469.247 293.809,-467.137"/>
<polygon fill="midnightblue" stroke="midnightblue" points="158.346,-806.325 160.398,-816.719 165.276,-807.313 158.346,-806.325"/>
</g>
<!-- Node38 -->
<g id="node75" class="node"><title>Node38</title>
<a xlink:href="classumontreal_1_1ssj_1_1probdist_1_1Pearson5Dist.html" target="_top" xlink:title="THIS CLASS HAS BEEN RENAMED InverseGammaDist . ">
<polygon fill="none" stroke="black" points="287.5,-418 287.5,-438 362.5,-438 362.5,-418 287.5,-418"/>
<text text-anchor="middle" x="325" y="-425" font-family="Helvetica,sans-Serif" font-size="10.00">Pearson5Dist</text>
</a>
</g>
<!-- Node1&#45;&gt;Node38 -->
<g id="edge74" class="edge"><title>Node1&#45;&gt;Node38</title>
<path fill="none" stroke="midnightblue" d="M161.279,-806.342C169.574,-734.833 200.405,-499.355 252,-447 261.284,-437.579 274.605,-432.635 287.333,-430.1"/>
<polygon fill="midnightblue" stroke="midnightblue" points="157.753,-806.37 160.103,-816.7 164.709,-807.159 157.753,-806.37"/>
</g>
<!-- Node39 -->
<g id="node77" class="node"><title>Node39</title>
<a xlink:href="classumontreal_1_1ssj_1_1probdist_1_1Pearson6Dist.html" target="_top" xlink:title="Extends the class ContinuousDistribution for the Pearson type VI distribution with shape parameters &#160;...">
<polygon fill="none" stroke="black" points="287.5,-380 287.5,-400 362.5,-400 362.5,-380 287.5,-380"/>
<text text-anchor="middle" x="325" y="-387" font-family="Helvetica,sans-Serif" font-size="10.00">Pearson6Dist</text>
</a>
</g>
<!-- Node1&#45;&gt;Node39 -->
<g id="edge76" class="edge"><title>Node1&#45;&gt;Node39</title>
<path fill="none" stroke="midnightblue" d="M160.746,-806.762C167.659,-731.281 195.533,-467.52 252,-409 261.184,-399.482 274.484,-394.517 287.223,-391.993"/>
<polygon fill="midnightblue" stroke="midnightblue" points="157.249,-806.573 159.846,-816.845 164.221,-807.196 157.249,-806.573"/>
</g>
<!-- Node40 -->
<g id="node79" class="node"><title>Node40</title>
<a xlink:href="classumontreal_1_1ssj_1_1probdist_1_1PiecewiseLinearEmpiricalDist.html" target="_top" xlink:title="Extends the class ContinuousDistribution for a piecewise&#45;linear approximation of the empirical distri...">
<polygon fill="none" stroke="black" points="252.5,-342 252.5,-362 397.5,-362 397.5,-342 252.5,-342"/>
<text text-anchor="middle" x="325" y="-349" font-family="Helvetica,sans-Serif" font-size="10.00">PiecewiseLinearEmpiricalDist</text>
</a>
</g>
<!-- Node1&#45;&gt;Node40 -->
<g id="edge78" class="edge"><title>Node1&#45;&gt;Node40</title>
<path fill="none" stroke="midnightblue" d="M160.359,-806.498C166.082,-726.362 190.809,-435.552 252,-371 255.424,-367.388 259.439,-364.43 263.796,-362.011"/>
<polygon fill="midnightblue" stroke="midnightblue" points="156.849,-806.523 159.651,-816.741 163.833,-807.006 156.849,-806.523"/>
</g>
<!-- Node41 -->
<g id="node81" class="node"><title>Node41</title>
<a xlink:href="classumontreal_1_1ssj_1_1probdist_1_1PowerDist.html" target="_top" xlink:title="Extends the class ContinuousDistribution for the power distribution   (page 161) with shape paramete...">
<polygon fill="none" stroke="black" points="294.5,-304 294.5,-324 355.5,-324 355.5,-304 294.5,-304"/>
<text text-anchor="middle" x="325" y="-311" font-family="Helvetica,sans-Serif" font-size="10.00">PowerDist</text>
</a>
</g>
<!-- Node1&#45;&gt;Node41 -->
<g id="edge80" class="edge"><title>Node1&#45;&gt;Node41</title>
<path fill="none" stroke="midnightblue" d="M159.999,-806.699C164.54,-722.74 185.948,-403.742 252,-333 262.725,-321.514 279.435,-316.621 294.163,-314.664"/>
<polygon fill="midnightblue" stroke="midnightblue" points="156.501,-806.571 159.477,-816.74 163.492,-806.935 156.501,-806.571"/>
</g>
<!-- Node42 -->
<g id="node83" class="node"><title>Node42</title>
<a xlink:href="classumontreal_1_1ssj_1_1probdist_1_1RayleighDist.html" target="_top" xlink:title="This class extends the class ContinuousDistribution for the Rayleigh distribution   with location pa...">
<polygon fill="none" stroke="black" points="289.5,-266 289.5,-286 360.5,-286 360.5,-266 289.5,-266"/>
<text text-anchor="middle" x="325" y="-273" font-family="Helvetica,sans-Serif" font-size="10.00">RayleighDist</text>
</a>
</g>
<!-- Node1&#45;&gt;Node42 -->
<g id="edge82" class="edge"><title>Node1&#45;&gt;Node42</title>
<path fill="none" stroke="midnightblue" d="M159.706,-806.577C163.167,-718.467 181.155,-371.872 252,-295 261.496,-284.696 275.807,-279.686 289.249,-277.345"/>
<polygon fill="midnightblue" stroke="midnightblue" points="156.199,-806.711 159.325,-816.834 163.194,-806.971 156.199,-806.711"/>
</g>
<!-- Node43 -->
<g id="node85" class="node"><title>Node43</title>
<a xlink:href="classumontreal_1_1ssj_1_1probdist_1_1StudentDist.html" target="_top" xlink:title="Extends the class ContinuousDistribution for the Student &#45;distribution   (page 362) with &#160;degrees of...">
<polygon fill="none" stroke="red" points="291,-228 291,-248 359,-248 359,-228 291,-228"/>
<text text-anchor="middle" x="325" y="-235" font-family="Helvetica,sans-Serif" font-size="10.00">StudentDist</text>
</a>
</g>
<!-- Node1&#45;&gt;Node43 -->
<g id="edge84" class="edge"><title>Node1&#45;&gt;Node43</title>
<path fill="none" stroke="midnightblue" d="M159.453,-806.303C161.898,-713.901 176.391,-339.98 252,-257 261.79,-246.255 276.815,-241.256 290.694,-239.04"/>
<polygon fill="midnightblue" stroke="midnightblue" points="155.948,-806.487 159.202,-816.57 162.946,-806.659 155.948,-806.487"/>
</g>
<!-- Node44 -->
<g id="node87" class="node"><title>Node44</title>
<a xlink:href="classumontreal_1_1ssj_1_1probdist_1_1TriangularDist.html" target="_top" xlink:title="Extends the class ContinuousDistribution for the triangular distribution (see   (page 297) and   (p...">
<polygon fill="none" stroke="black" points="286.5,-190 286.5,-210 363.5,-210 363.5,-190 286.5,-190"/>
<text text-anchor="middle" x="325" y="-197" font-family="Helvetica,sans-Serif" font-size="10.00">TriangularDist</text>
</a>
</g>
<!-- Node1&#45;&gt;Node44 -->
<g id="edge86" class="edge"><title>Node1&#45;&gt;Node44</title>
<path fill="none" stroke="midnightblue" d="M159.215,-806.77C160.639,-711.484 171.411,-308.334 252,-219 260.772,-209.276 273.83,-204.25 286.487,-201.735"/>
<polygon fill="midnightblue" stroke="midnightblue" points="155.714,-806.777 159.083,-816.822 162.714,-806.869 155.714,-806.777"/>
</g>
<!-- Node45 -->
<g id="node89" class="node"><title>Node45</title>
<a xlink:href="classumontreal_1_1ssj_1_1probdist_1_1TruncatedDist.html" target="_top" xlink:title="This container class takes an arbitrary continuous distribution and truncates it to an interval ...">
<polygon fill="none" stroke="black" points="286.5,-152 286.5,-172 363.5,-172 363.5,-152 286.5,-152"/>
<text text-anchor="middle" x="325" y="-159" font-family="Helvetica,sans-Serif" font-size="10.00">TruncatedDist</text>
</a>
</g>
<!-- Node1&#45;&gt;Node45 -->
<g id="edge88" class="edge"><title>Node1&#45;&gt;Node45</title>
<path fill="none" stroke="midnightblue" d="M160.607,-806.512C169,-701.753 209.049,-229.035 252,-181 260.729,-171.238 273.777,-166.203 286.439,-163.692"/>
<polygon fill="midnightblue" stroke="midnightblue" points="157.101,-806.454 159.798,-816.7 164.079,-807.008 157.101,-806.454"/>
</g>
<!-- Node46 -->
<g id="node91" class="node"><title>Node46</title>
<a xlink:href="classumontreal_1_1ssj_1_1probdist_1_1UniformDist.html" target="_top" xlink:title="Extends the class ContinuousDistribution for the uniform distribution   (page 276) over the interval...">
<polygon fill="none" stroke="black" points="291,-114 291,-134 359,-134 359,-114 291,-114"/>
<text text-anchor="middle" x="325" y="-121" font-family="Helvetica,sans-Serif" font-size="10.00">UniformDist</text>
</a>
</g>
<!-- Node1&#45;&gt;Node46 -->
<g id="edge90" class="edge"><title>Node1&#45;&gt;Node46</title>
<path fill="none" stroke="midnightblue" d="M160.424,-806.686C168.171,-698.619 206.583,-194.196 252,-143 261.734,-132.028 276.923,-127.02 290.931,-124.857"/>
<polygon fill="midnightblue" stroke="midnightblue" points="156.917,-806.656 159.7,-816.879 163.899,-807.152 156.917,-806.656"/>
</g>
<!-- Node47 -->
<g id="node93" class="node"><title>Node47</title>
<a xlink:href="classumontreal_1_1ssj_1_1probdist_1_1WatsonGDist.html" target="_top" xlink:title="Extends the class ContinuousDistribution for the Watson &#160;distribution (see ,  ). ...">
<polygon fill="none" stroke="black" points="288,-76 288,-96 362,-96 362,-76 288,-76"/>
<text text-anchor="middle" x="325" y="-83" font-family="Helvetica,sans-Serif" font-size="10.00">WatsonGDist</text>
</a>
</g>
<!-- Node1&#45;&gt;Node47 -->
<g id="edge92" class="edge"><title>Node1&#45;&gt;Node47</title>
<path fill="none" stroke="midnightblue" d="M160.276,-806.619C167.449,-694.845 204.145,-159.328 252,-105 261.002,-94.7799 274.738,-89.7278 287.876,-87.3316"/>
<polygon fill="midnightblue" stroke="midnightblue" points="156.767,-806.652 159.626,-816.853 163.753,-807.095 156.767,-806.652"/>
</g>
<!-- Node48 -->
<g id="node95" class="node"><title>Node48</title>
<a xlink:href="classumontreal_1_1ssj_1_1probdist_1_1WatsonUDist.html" target="_top" xlink:title="Extends the class ContinuousDistribution for the Watson U distribution (see , ,  ). ">
<polygon fill="none" stroke="black" points="288,-38 288,-58 362,-58 362,-38 288,-38"/>
<text text-anchor="middle" x="325" y="-45" font-family="Helvetica,sans-Serif" font-size="10.00">WatsonUDist</text>
</a>
</g>
<!-- Node1&#45;&gt;Node48 -->
<g id="edge94" class="edge"><title>Node1&#45;&gt;Node48</title>
<path fill="none" stroke="midnightblue" d="M160.138,-806.638C166.75,-691.436 201.692,-124.479 252,-67 260.97,-56.7514 274.7,-51.694 287.842,-49.3014"/>
<polygon fill="midnightblue" stroke="midnightblue" points="156.629,-806.688 159.557,-816.87 163.618,-807.084 156.629,-806.688"/>
</g>
<!-- Node49 -->
<g id="node97" class="node"><title>Node49</title>
<a xlink:href="classumontreal_1_1ssj_1_1probdist_1_1WeibullDist.html" target="_top" xlink:title="This class extends the class ContinuousDistribution for the Weibull distribution   (page 628) with s...">
<polygon fill="none" stroke="black" points="292.5,-0 292.5,-20 357.5,-20 357.5,-0 292.5,-0"/>
<text text-anchor="middle" x="325" y="-7" font-family="Helvetica,sans-Serif" font-size="10.00">WeibullDist</text>
</a>
</g>
<!-- Node1&#45;&gt;Node49 -->
<g id="edge96" class="edge"><title>Node1&#45;&gt;Node49</title>
<path fill="none" stroke="midnightblue" d="M160.008,-806.74C166.073,-688.394 199.222,-89.6518 252,-29 261.972,-17.5402 277.896,-12.5647 292.329,-10.5501"/>
<polygon fill="midnightblue" stroke="midnightblue" points="156.503,-806.763 159.493,-816.927 163.494,-807.116 156.503,-806.763"/>
</g>
<!-- Node2 -->
<g id="node2" class="node"><title>Node2</title>
<a xlink:href="interfaceumontreal_1_1ssj_1_1probdist_1_1Distribution.html" target="_top" xlink:title="This interface should be implemented by all classes supporting discrete and continuous distributions...">
<polygon fill="none" stroke="black" points="0.5,-817 0.5,-837 65.5,-837 65.5,-817 0.5,-817"/>
<text text-anchor="middle" x="33" y="-824" font-family="Helvetica,sans-Serif" font-size="10.00">Distribution</text>
</a>
</g>
<!-- Node2&#45;&gt;Node1 -->
<g id="edge2" class="edge"><title>Node2&#45;&gt;Node1</title>
<path fill="none" stroke="midnightblue" d="M76.0286,-827C84.3837,-827 93.2614,-827 101.985,-827"/>
<polygon fill="midnightblue" stroke="midnightblue" points="75.7761,-823.5 65.7761,-827 75.7761,-830.5 75.7761,-823.5"/>
</g>
<!-- Node4 -->
<g id="node7" class="node"><title>Node4</title>
<a xlink:href="classumontreal_1_1ssj_1_1probdist_1_1AndersonDarlingDistQuick.html" target="_top" xlink:title="Extends the class AndersonDarlingDist for the Anderson–Darling distribution (see ...">
<polygon fill="none" stroke="black" points="434.5,-1634 434.5,-1654 565.5,-1654 565.5,-1634 434.5,-1634"/>
<text text-anchor="middle" x="500" y="-1641" font-family="Helvetica,sans-Serif" font-size="10.00">AndersonDarlingDistQuick</text>
</a>
</g>
<!-- Node3&#45;&gt;Node4 -->
<g id="edge6" class="edge"><title>Node3&#45;&gt;Node4</title>
<path fill="none" stroke="midnightblue" d="M387.749,-1644C402.828,-1644 418.975,-1644 434.189,-1644"/>
<polygon fill="midnightblue" stroke="midnightblue" points="387.506,-1640.5 377.506,-1644 387.506,-1647.5 387.506,-1640.5"/>
</g>
<!-- Node6 -->
<g id="node11" class="node"><title>Node6</title>
<a xlink:href="classumontreal_1_1ssj_1_1probdist_1_1BetaSymmetricalDist.html" target="_top" xlink:title="Specializes the class BetaDist to the case of a symmetrical beta distribution over the interval ...">
<polygon fill="none" stroke="black" points="445.5,-1596 445.5,-1616 554.5,-1616 554.5,-1596 445.5,-1596"/>
<text text-anchor="middle" x="500" y="-1603" font-family="Helvetica,sans-Serif" font-size="10.00">BetaSymmetricalDist</text>
</a>
</g>
<!-- Node5&#45;&gt;Node6 -->
<g id="edge10" class="edge"><title>Node5&#45;&gt;Node6</title>
<path fill="none" stroke="midnightblue" d="M362.518,-1606C386.655,-1606 418.428,-1606 445.349,-1606"/>
<polygon fill="midnightblue" stroke="midnightblue" points="362.344,-1602.5 352.344,-1606 362.344,-1609.5 362.344,-1602.5"/>
</g>
<!-- Node10 -->
<g id="node19" class="node"><title>Node10</title>
<a xlink:href="classumontreal_1_1ssj_1_1probdist_1_1ChiSquareDistQuick.html" target="_top" xlink:title="Provides a variant of ChiSquareDist with faster but less accurate methods. ">
<polygon fill="none" stroke="black" points="448,-1482 448,-1502 552,-1502 552,-1482 448,-1482"/>
<text text-anchor="middle" x="500" y="-1489" font-family="Helvetica,sans-Serif" font-size="10.00">ChiSquareDistQuick</text>
</a>
</g>
<!-- Node9&#45;&gt;Node10 -->
<g id="edge18" class="edge"><title>Node9&#45;&gt;Node10</title>
<path fill="none" stroke="midnightblue" d="M374.87,-1492C397.692,-1492 424.733,-1492 447.827,-1492"/>
<polygon fill="midnightblue" stroke="midnightblue" points="374.71,-1488.5 364.71,-1492 374.71,-1495.5 374.71,-1488.5"/>
</g>
</g>
</svg>
        <g id="navigator" transform="translate(0 0)" fill="#404254">
                <rect fill="#f2f5e9" fill-opacity="0.5" stroke="#606060" stroke-width=".5" x="0" y="0" width="60" height="60"/>
                <use id="zoomplus" xlink:href="#zoomPlus" x="17" y="9" onmousedown="handleZoom(evt,'in')"/>
                <use id="zoomminus" xlink:href="#zoomMin" x="42" y="9" onmousedown="handleZoom(evt,'out')"/>
                <use id="reset" xlink:href="#resetDef" x="30" y="36" onmousedown="handleReset()"/>
                <g id="arrowUp" xlink:href="#dirArrow" transform="translate(30 24)" onmousedown="handlePan(0,-1)">
                  <use xlink:href="#rim" fill="#404040">
                        <set attributeName="fill" to="#808080" begin="arrowUp.mouseover" end="arrowUp.mouseout"/>
                  </use>
                  <path fill="none" stroke="white" stroke-width="1.5" d="M0,-3.0v7 M-2.5,-0.5L0,-3.0L2.5,-0.5"/>
                </g>
                <g id="arrowRight" xlink:href="#dirArrow" transform="rotate(90) translate(36 -43)" onmousedown="handlePan(1,0)">
                  <use xlink:href="#rim" fill="#404040">
                        <set attributeName="fill" to="#808080" begin="arrowRight.mouseover" end="arrowRight.mouseout"/>
                  </use>
                  <path fill="none" stroke="white" stroke-width="1.5" d="M0,-3.0v7 M-2.5,-0.5L0,-3.0L2.5,-0.5"/>
                </g>
                <g id="arrowDown" xlink:href="#dirArrow" transform="rotate(180) translate(-30 -48)" onmousedown="handlePan(0,1)">
                  <use xlink:href="#rim" fill="#404040">
                        <set attributeName="fill" to="#808080" begin="arrowDown.mouseover" end="arrowDown.mouseout"/>
                  </use>
                  <path fill="none" stroke="white" stroke-width="1.5" d="M0,-3.0v7 M-2.5,-0.5L0,-3.0L2.5,-0.5"/>
                </g>
                <g id="arrowLeft" xlink:href="#dirArrow" transform="rotate(270) translate(-36 17)" onmousedown="handlePan(-1,0)">
                  <use xlink:href="#rim" fill="#404040">
                        <set attributeName="fill" to="#808080" begin="arrowLeft.mouseover" end="arrowLeft.mouseout"/>
                  </use>
                  <path fill="none" stroke="white" stroke-width="1.5" d="M0,-3.0v7 M-2.5,-0.5L0,-3.0L2.5,-0.5"/>
                </g>
        </g>
        <svg viewBox="0 0 15 15" width="100%" height="30px" preserveAspectRatio="xMaxYMin meet">
         <g id="arrow_out" transform="scale(0.3 0.3)">
          <a xlink:href="classumontreal_1_1ssj_1_1probdist_1_1ContinuousDistribution__inherit__graph_org.svg" target="_base">
           <rect id="button" ry="5" rx="5" y="6" x="6" height="38" width="38"
                fill="#f2f5e9" fill-opacity="0.5" stroke="#606060" stroke-width="1.0"/>
           <path id="arrow"
             d="M 11.500037,31.436501 C 11.940474,20.09759 22.043105,11.32322 32.158766,21.979434 L 37.068811,17.246167 C 37.068811,17.246167 37.088388,32 37.088388,32 L 22.160133,31.978069 C 22.160133,31.978069 26.997745,27.140456 26.997745,27.140456 C 18.528582,18.264221 13.291696,25.230495 11.500037,31.436501 z"
             style="fill:#404040;"/>
          </a>
         </g>
        </svg>
</svg>
