<?xml version="1.0" encoding="UTF-8" standalone="no"?>
<!DOCTYPE svg PUBLIC "-//W3C//DTD SVG 1.1//EN"
 "http://www.w3.org/Graphics/SVG/1.1/DTD/svg11.dtd">
<!-- Generated by graphviz version 2.26.3 (20100126.1600)
 -->
<!-- Title: PoissonGen Pages: 1 -->
<svg width="120pt" height="204pt"
 viewBox="0.00 0.00 120.00 204.00" xmlns="http://www.w3.org/2000/svg" xmlns:xlink="http://www.w3.org/1999/xlink">
<g id="graph1" class="graph" transform="scale(1 1) rotate(0) translate(4 200)">
<title>PoissonGen</title>
<!-- Node1 -->
<g id="node1" class="node"><title>Node1</title>
<polygon fill="#bfbfbf" stroke="black" points="21,-59 21,-79 91,-79 91,-59 21,-59"/>
<text text-anchor="middle" x="56" y="-66" font-family="Helvetica,sans-Serif" font-size="10.00">PoissonGen</text>
</g>
<!-- Node4 -->
<g id="node7" class="node"><title>Node4</title>
<a xlink:href="classumontreal_1_1ssj_1_1randvar_1_1PoissonTIACGen.html" target="_top" xlink:title="This class implements random variate generators having the Poisson distribution (see PoissonGen )...">
<polygon fill="none" stroke="black" points="10,-1 10,-21 102,-21 102,-1 10,-1"/>
<text text-anchor="middle" x="56" y="-8" font-family="Helvetica,sans-Serif" font-size="10.00">PoissonTIACGen</text>
</a>
</g>
<!-- Node1&#45;&gt;Node4 -->
<g id="edge6" class="edge"><title>Node1&#45;&gt;Node4</title>
<path fill="none" stroke="midnightblue" d="M56,-48.8902C56,-39.6201 56,-29.0083 56,-21.3776"/>
<polygon fill="midnightblue" stroke="midnightblue" points="52.5001,-48.8971 56,-58.8972 59.5001,-48.8972 52.5001,-48.8971"/>
</g>
<!-- Node2 -->
<g id="node2" class="node"><title>Node2</title>
<a xlink:href="classumontreal_1_1ssj_1_1randvar_1_1RandomVariateGenInt.html" target="_top" xlink:title="This is the base class for all generators of discrete random variates over the set of integers...">
<polygon fill="none" stroke="black" points="0,-117 0,-137 112,-137 112,-117 0,-117"/>
<text text-anchor="middle" x="56" y="-124" font-family="Helvetica,sans-Serif" font-size="10.00">RandomVariateGenInt</text>
</a>
</g>
<!-- Node2&#45;&gt;Node1 -->
<g id="edge2" class="edge"><title>Node2&#45;&gt;Node1</title>
<path fill="none" stroke="midnightblue" d="M56,-106.89C56,-97.6201 56,-87.0083 56,-79.3776"/>
<polygon fill="midnightblue" stroke="midnightblue" points="52.5001,-106.897 56,-116.897 59.5001,-106.897 52.5001,-106.897"/>
</g>
<!-- Node3 -->
<g id="node4" class="node"><title>Node3</title>
<a xlink:href="classumontreal_1_1ssj_1_1randvar_1_1RandomVariateGen.html" target="_top" xlink:title="This is the base class for all random variate generators over the real line. ">
<polygon fill="none" stroke="black" points="5.5,-175 5.5,-195 106.5,-195 106.5,-175 5.5,-175"/>
<text text-anchor="middle" x="56" y="-182" font-family="Helvetica,sans-Serif" font-size="10.00">RandomVariateGen</text>
</a>
</g>
<!-- Node3&#45;&gt;Node2 -->
<g id="edge4" class="edge"><title>Node3&#45;&gt;Node2</title>
<path fill="none" stroke="midnightblue" d="M56,-164.89C56,-155.62 56,-145.008 56,-137.378"/>
<polygon fill="midnightblue" stroke="midnightblue" points="52.5001,-164.897 56,-174.897 59.5001,-164.897 52.5001,-164.897"/>
</g>
</g>
</svg>
