<?xml version="1.0" encoding="UTF-8" standalone="no"?>
<!DOCTYPE svg PUBLIC "-//W3C//DTD SVG 1.1//EN"
 "http://www.w3.org/Graphics/SVG/1.1/DTD/svg11.dtd">
<!-- Generated by graphviz version 2.26.3 (20100126.1600)
 -->
<!-- Title: DigitalNet Pages: 1 -->
<!--zoomable 262 -->
<svg id="main" version="1.1" xmlns="http://www.w3.org/2000/svg" xmlns:xlink="http://www.w3.org/1999/xlink" xml:space="preserve" onload="init(evt)">
<style type="text/css"><![CDATA[
.edge:hover path { stroke: red; }
.edge:hover polygon { stroke: red; fill: red; }
]]></style>
<script type="text/javascript"><![CDATA[
var edges = document.getElementsByTagName('g');
if (edges && edges.length) {
  for (var i=0;i<edges.length;i++) {
    if (edges[i].id.substr(0,4)=='edge') {
      edges[i].setAttribute('class','edge');
    }
  }
}
]]></script>
        <defs>
                <circle id="rim" cx="0" cy="0" r="7"/>
                <circle id="rim2" cx="0" cy="0" r="3.5"/>
                <g id="zoomPlus">
                        <use xlink:href="#rim" fill="#404040">
                                <set attributeName="fill" to="#808080" begin="zoomplus.mouseover" end="zoomplus.mouseout"/>
                        </use>
                        <path d="M-4,0h8M0,-4v8" fill="none" stroke="white" stroke-width="1.5" pointer-events="none"/>
                </g>
                <g id="zoomMin">
                        <use xlink:href="#rim" fill="#404040">
                                <set attributeName="fill" to="#808080" begin="zoomminus.mouseover" end="zoomminus.mouseout"/>
                        </use>
                        <path d="M-4,0h8" fill="none" stroke="white" stroke-width="1.5" pointer-events="none"/>
                </g>
                <g id="dirArrow">
                        <path fill="none" stroke="white" stroke-width="1.5" d="M0,-3.0v7 M-2.5,-0.5L0,-3.0L2.5,-0.5"/>
                </g>
               <g id="resetDef">
                       <use xlink:href="#rim2" fill="#404040">
                               <set attributeName="fill" to="#808080" begin="reset.mouseover" end="reset.mouseout"/>
                       </use>
               </g>
        </defs>

<script type="text/javascript">
var viewWidth = 572;
var viewHeight = 262;
var sectionId = 'dynsection-0';
</script>
<script xlink:href="svgpan.js"/>
<svg id="graph" class="graph">
<g id="viewport">
<title>DigitalNet</title>
<!-- Node1 -->
<g id="node1" class="node"><title>Node1</title>
<polygon fill="#bfbfbf" stroke="black" points="382.5,-175 382.5,-195 441.5,-195 441.5,-175 382.5,-175"/>
<text text-anchor="middle" x="412" y="-182" font-family="Helvetica,sans-Serif" font-size="10.00">DigitalNet</text>
</g>
<!-- Node3 -->
<g id="node5" class="node"><title>Node3</title>
<a xlink:href="classumontreal_1_1ssj_1_1hups_1_1DigitalNetBase2.html" target="_top" xlink:title="A special case of DigitalNet for the base . ">
<polygon fill="none" stroke="black" points="260,-117 260,-137 346,-137 346,-117 260,-117"/>
<text text-anchor="middle" x="303" y="-124" font-family="Helvetica,sans-Serif" font-size="10.00">DigitalNetBase2</text>
</a>
</g>
<!-- Node1&#45;&gt;Node3 -->
<g id="edge4" class="edge"><title>Node1&#45;&gt;Node3</title>
<path fill="none" stroke="midnightblue" d="M384.024,-170.114C364.615,-159.786 339.27,-146.3 322.135,-137.182"/>
<polygon fill="midnightblue" stroke="midnightblue" points="382.541,-173.289 393.014,-174.897 385.83,-167.11 382.541,-173.289"/>
</g>
<!-- Node11 -->
<g id="node21" class="node"><title>Node11</title>
<a xlink:href="classumontreal_1_1ssj_1_1hups_1_1DigitalNetFromFile.html" target="_top" xlink:title="This class allows us to read the parameters defining a digital net either from a file, or from a URL address on the World Wide Web. ">
<polygon fill="none" stroke="black" points="363.5,-117 363.5,-137 460.5,-137 460.5,-117 363.5,-117"/>
<text text-anchor="middle" x="412" y="-124" font-family="Helvetica,sans-Serif" font-size="10.00">DigitalNetFromFile</text>
</a>
</g>
<!-- Node1&#45;&gt;Node11 -->
<g id="edge20" class="edge"><title>Node1&#45;&gt;Node11</title>
<path fill="none" stroke="midnightblue" d="M412,-164.89C412,-155.62 412,-145.008 412,-137.378"/>
<polygon fill="midnightblue" stroke="midnightblue" points="408.5,-164.897 412,-174.897 415.5,-164.897 408.5,-164.897"/>
</g>
<!-- Node12 -->
<g id="node23" class="node"><title>Node12</title>
<a xlink:href="classumontreal_1_1ssj_1_1hups_1_1DigitalSequence.html" target="_top" xlink:title="This abstract class describes methods specific to digital sequences. ">
<polygon fill="none" stroke="black" points="477.5,-117 477.5,-137 564.5,-137 564.5,-117 477.5,-117"/>
<text text-anchor="middle" x="521" y="-124" font-family="Helvetica,sans-Serif" font-size="10.00">DigitalSequence</text>
</a>
</g>
<!-- Node1&#45;&gt;Node12 -->
<g id="edge22" class="edge"><title>Node1&#45;&gt;Node12</title>
<path fill="none" stroke="midnightblue" d="M439.976,-170.114C459.385,-159.786 484.73,-146.3 501.865,-137.182"/>
<polygon fill="midnightblue" stroke="midnightblue" points="438.17,-167.11 430.986,-174.897 441.459,-173.289 438.17,-167.11"/>
</g>
<!-- Node2 -->
<g id="node2" class="node"><title>Node2</title>
<a xlink:href="classumontreal_1_1ssj_1_1hups_1_1PointSet.html" target="_top" xlink:title="This abstract class defines the basic methods for accessing and manipulating point sets...">
<polygon fill="none" stroke="black" points="385,-233 385,-253 439,-253 439,-233 385,-233"/>
<text text-anchor="middle" x="412" y="-240" font-family="Helvetica,sans-Serif" font-size="10.00">PointSet</text>
</a>
</g>
<!-- Node2&#45;&gt;Node1 -->
<g id="edge2" class="edge"><title>Node2&#45;&gt;Node1</title>
<path fill="none" stroke="midnightblue" d="M412,-222.89C412,-213.62 412,-203.008 412,-195.378"/>
<polygon fill="midnightblue" stroke="midnightblue" points="408.5,-222.897 412,-232.897 415.5,-222.897 408.5,-222.897"/>
</g>
<!-- Node4 -->
<g id="node7" class="node"><title>Node4</title>
<a xlink:href="classumontreal_1_1ssj_1_1hups_1_1DigitalNetBase2FromFile.html" target="_top" xlink:title="This class allows us to read the parameters defining a digital net in base 2 either from a file...">
<polygon fill="none" stroke="black" points="-0.5,-59 -0.5,-79 124.5,-79 124.5,-59 -0.5,-59"/>
<text text-anchor="middle" x="62" y="-66" font-family="Helvetica,sans-Serif" font-size="10.00">DigitalNetBase2FromFile</text>
</a>
</g>
<!-- Node3&#45;&gt;Node4 -->
<g id="edge6" class="edge"><title>Node3&#45;&gt;Node4</title>
<path fill="none" stroke="midnightblue" d="M251.341,-114.567C207.214,-103.948 144.554,-88.8678 103.597,-79.0108"/>
<polygon fill="midnightblue" stroke="midnightblue" points="250.755,-118.026 261.296,-116.963 252.393,-111.221 250.755,-118.026"/>
</g>
<!-- Node5 -->
<g id="node9" class="node"><title>Node5</title>
<a xlink:href="classumontreal_1_1ssj_1_1hups_1_1DigitalSequenceBase2.html" target="_top" xlink:title="This abstract class describes methods specific to digital sequences in base 2. ">
<polygon fill="none" stroke="black" points="141.5,-59 141.5,-79 256.5,-79 256.5,-59 141.5,-59"/>
<text text-anchor="middle" x="199" y="-66" font-family="Helvetica,sans-Serif" font-size="10.00">DigitalSequenceBase2</text>
</a>
</g>
<!-- Node3&#45;&gt;Node5 -->
<g id="edge8" class="edge"><title>Node3&#45;&gt;Node5</title>
<path fill="none" stroke="midnightblue" d="M276.055,-111.973C257.569,-101.663 233.532,-88.2582 217.257,-79.1817"/>
<polygon fill="midnightblue" stroke="midnightblue" points="274.446,-115.083 284.885,-116.897 277.856,-108.97 274.446,-115.083"/>
</g>
<!-- Node9 -->
<g id="node17" class="node"><title>Node9</title>
<a xlink:href="classumontreal_1_1ssj_1_1hups_1_1F2wNetLFSR.html" target="_top" xlink:title="This class implements a digital net in base 2 starting from a linear feedback shift register generato...">
<polygon fill="none" stroke="black" points="274,-59 274,-79 348,-79 348,-59 274,-59"/>
<text text-anchor="middle" x="311" y="-66" font-family="Helvetica,sans-Serif" font-size="10.00">F2wNetLFSR</text>
</a>
</g>
<!-- Node3&#45;&gt;Node9 -->
<g id="edge16" class="edge"><title>Node3&#45;&gt;Node9</title>
<path fill="none" stroke="midnightblue" d="M305.774,-106.89C307.052,-97.6201 308.516,-87.0083 309.569,-79.3776"/>
<polygon fill="midnightblue" stroke="midnightblue" points="302.293,-106.513 304.393,-116.897 309.227,-107.469 302.293,-106.513"/>
</g>
<!-- Node10 -->
<g id="node19" class="node"><title>Node10</title>
<a xlink:href="classumontreal_1_1ssj_1_1hups_1_1F2wNetPolyLCG.html" target="_top" xlink:title="This class implements a digital net in base 2 starting from a polynomial LCG in . ...">
<polygon fill="none" stroke="black" points="365.5,-59 365.5,-79 454.5,-79 454.5,-59 365.5,-59"/>
<text text-anchor="middle" x="410" y="-66" font-family="Helvetica,sans-Serif" font-size="10.00">F2wNetPolyLCG</text>
</a>
</g>
<!-- Node3&#45;&gt;Node10 -->
<g id="edge18" class="edge"><title>Node3&#45;&gt;Node10</title>
<path fill="none" stroke="midnightblue" d="M330.462,-112.114C349.516,-101.786 374.395,-88.2996 391.217,-79.1817"/>
<polygon fill="midnightblue" stroke="midnightblue" points="328.762,-109.055 321.638,-116.897 332.097,-115.209 328.762,-109.055"/>
</g>
<!-- Node6 -->
<g id="node11" class="node"><title>Node6</title>
<a xlink:href="classumontreal_1_1ssj_1_1hups_1_1NiedSequenceBase2.html" target="_top" xlink:title="This class implements digital sequences constructed from the Niederreiter sequence in base 2...">
<polygon fill="none" stroke="black" points="11.5,-1 11.5,-21 118.5,-21 118.5,-1 11.5,-1"/>
<text text-anchor="middle" x="65" y="-8" font-family="Helvetica,sans-Serif" font-size="10.00">NiedSequenceBase2</text>
</a>
</g>
<!-- Node5&#45;&gt;Node6 -->
<g id="edge10" class="edge"><title>Node5&#45;&gt;Node6</title>
<path fill="none" stroke="midnightblue" d="M166.223,-54.813C142.168,-44.4012 110.068,-30.5069 88.5231,-21.1817"/>
<polygon fill="midnightblue" stroke="midnightblue" points="165.091,-58.1369 175.659,-58.8972 167.872,-51.7129 165.091,-58.1369"/>
</g>
<!-- Node7 -->
<g id="node13" class="node"><title>Node7</title>
<a xlink:href="classumontreal_1_1ssj_1_1hups_1_1NiedXingSequenceBase2.html" target="_top" xlink:title="This class implements digital sequences based on the Niederreiter&#45;Xing sequence in base 2...">
<polygon fill="none" stroke="black" points="135.5,-1 135.5,-21 262.5,-21 262.5,-1 135.5,-1"/>
<text text-anchor="middle" x="199" y="-8" font-family="Helvetica,sans-Serif" font-size="10.00">NiedXingSequenceBase2</text>
</a>
</g>
<!-- Node5&#45;&gt;Node7 -->
<g id="edge12" class="edge"><title>Node5&#45;&gt;Node7</title>
<path fill="none" stroke="midnightblue" d="M199,-48.8902C199,-39.6201 199,-29.0083 199,-21.3776"/>
<polygon fill="midnightblue" stroke="midnightblue" points="195.5,-48.8971 199,-58.8972 202.5,-48.8972 195.5,-48.8971"/>
</g>
<!-- Node8 -->
<g id="node15" class="node"><title>Node8</title>
<a xlink:href="classumontreal_1_1ssj_1_1hups_1_1SobolSequence.html" target="_top" xlink:title="This class implements digital nets or digital sequences in base 2 formed by the first &#160;points of a So...">
<polygon fill="none" stroke="black" points="279.5,-1 279.5,-21 364.5,-21 364.5,-1 279.5,-1"/>
<text text-anchor="middle" x="322" y="-8" font-family="Helvetica,sans-Serif" font-size="10.00">SobolSequence</text>
</a>
</g>
<!-- Node5&#45;&gt;Node8 -->
<g id="edge14" class="edge"><title>Node5&#45;&gt;Node8</title>
<path fill="none" stroke="midnightblue" d="M229.677,-54.5345C251.69,-44.1545 280.808,-30.424 300.408,-21.1817"/>
<polygon fill="midnightblue" stroke="midnightblue" points="227.977,-51.4664 220.425,-58.8972 230.963,-57.7978 227.977,-51.4664"/>
</g>
<!-- Node13 -->
<g id="node25" class="node"><title>Node13</title>
<a xlink:href="classumontreal_1_1ssj_1_1hups_1_1FaureSequence.html" target="_top" xlink:title="This class implements digital nets or digital sequences formed by the first &#160;points of the Faure sequ...">
<polygon fill="none" stroke="black" points="478.5,-59 478.5,-79 563.5,-79 563.5,-59 478.5,-59"/>
<text text-anchor="middle" x="521" y="-66" font-family="Helvetica,sans-Serif" font-size="10.00">FaureSequence</text>
</a>
</g>
<!-- Node12&#45;&gt;Node13 -->
<g id="edge24" class="edge"><title>Node12&#45;&gt;Node13</title>
<path fill="none" stroke="midnightblue" d="M521,-106.89C521,-97.6201 521,-87.0083 521,-79.3776"/>
<polygon fill="midnightblue" stroke="midnightblue" points="517.5,-106.897 521,-116.897 524.5,-106.897 517.5,-106.897"/>
</g>
</g>
</svg>
        <g id="navigator" transform="translate(0 0)" fill="#404254">
                <rect fill="#f2f5e9" fill-opacity="0.5" stroke="#606060" stroke-width=".5" x="0" y="0" width="60" height="60"/>
                <use id="zoomplus" xlink:href="#zoomPlus" x="17" y="9" onmousedown="handleZoom(evt,'in')"/>
                <use id="zoomminus" xlink:href="#zoomMin" x="42" y="9" onmousedown="handleZoom(evt,'out')"/>
                <use id="reset" xlink:href="#resetDef" x="30" y="36" onmousedown="handleReset()"/>
                <g id="arrowUp" xlink:href="#dirArrow" transform="translate(30 24)" onmousedown="handlePan(0,-1)">
                  <use xlink:href="#rim" fill="#404040">
                        <set attributeName="fill" to="#808080" begin="arrowUp.mouseover" end="arrowUp.mouseout"/>
                  </use>
                  <path fill="none" stroke="white" stroke-width="1.5" d="M0,-3.0v7 M-2.5,-0.5L0,-3.0L2.5,-0.5"/>
                </g>
                <g id="arrowRight" xlink:href="#dirArrow" transform="rotate(90) translate(36 -43)" onmousedown="handlePan(1,0)">
                  <use xlink:href="#rim" fill="#404040">
                        <set attributeName="fill" to="#808080" begin="arrowRight.mouseover" end="arrowRight.mouseout"/>
                  </use>
                  <path fill="none" stroke="white" stroke-width="1.5" d="M0,-3.0v7 M-2.5,-0.5L0,-3.0L2.5,-0.5"/>
                </g>
                <g id="arrowDown" xlink:href="#dirArrow" transform="rotate(180) translate(-30 -48)" onmousedown="handlePan(0,1)">
                  <use xlink:href="#rim" fill="#404040">
                        <set attributeName="fill" to="#808080" begin="arrowDown.mouseover" end="arrowDown.mouseout"/>
                  </use>
                  <path fill="none" stroke="white" stroke-width="1.5" d="M0,-3.0v7 M-2.5,-0.5L0,-3.0L2.5,-0.5"/>
                </g>
                <g id="arrowLeft" xlink:href="#dirArrow" transform="rotate(270) translate(-36 17)" onmousedown="handlePan(-1,0)">
                  <use xlink:href="#rim" fill="#404040">
                        <set attributeName="fill" to="#808080" begin="arrowLeft.mouseover" end="arrowLeft.mouseout"/>
                  </use>
                  <path fill="none" stroke="white" stroke-width="1.5" d="M0,-3.0v7 M-2.5,-0.5L0,-3.0L2.5,-0.5"/>
                </g>
        </g>
        <svg viewBox="0 0 15 15" width="100%" height="30px" preserveAspectRatio="xMaxYMin meet">
         <g id="arrow_out" transform="scale(0.3 0.3)">
          <a xlink:href="classumontreal_1_1ssj_1_1hups_1_1DigitalNet__inherit__graph_org.svg" target="_base">
           <rect id="button" ry="5" rx="5" y="6" x="6" height="38" width="38"
                fill="#f2f5e9" fill-opacity="0.5" stroke="#606060" stroke-width="1.0"/>
           <path id="arrow"
             d="M 11.500037,31.436501 C 11.940474,20.09759 22.043105,11.32322 32.158766,21.979434 L 37.068811,17.246167 C 37.068811,17.246167 37.088388,32 37.088388,32 L 22.160133,31.978069 C 22.160133,31.978069 26.997745,27.140456 26.997745,27.140456 C 18.528582,18.264221 13.291696,25.230495 11.500037,31.436501 z"
             style="fill:#404040;"/>
          </a>
         </g>
        </svg>
</svg>
