<?xml version="1.0" encoding="UTF-8" standalone="no"?>
<!DOCTYPE svg PUBLIC "-//W3C//DTD SVG 1.1//EN"
 "http://www.w3.org/Graphics/SVG/1.1/DTD/svg11.dtd">
<!-- Generated by graphviz version 2.26.3 (20100126.1600)
 -->
<!-- Title: BetaSymmetricalBestGen Pages: 1 -->
<svg width="138pt" height="204pt"
 viewBox="0.00 0.00 138.00 204.00" xmlns="http://www.w3.org/2000/svg" xmlns:xlink="http://www.w3.org/1999/xlink">
<g id="graph1" class="graph" transform="scale(1 1) rotate(0) translate(4 200)">
<title>BetaSymmetricalBestGen</title>
<!-- Node1 -->
<g id="node1" class="node"><title>Node1</title>
<polygon fill="#bfbfbf" stroke="black" points="0,-1 0,-21 130,-21 130,-1 0,-1"/>
<text text-anchor="middle" x="65" y="-8" font-family="Helvetica,sans-Serif" font-size="10.00">BetaSymmetricalBestGen</text>
</g>
<!-- Node2 -->
<g id="node2" class="node"><title>Node2</title>
<a xlink:href="classumontreal_1_1ssj_1_1randvar_1_1BetaSymmetricalGen.html" target="_top" xlink:title="This class implements random variate generators with the symmetrical beta distribution with shape par...">
<polygon fill="none" stroke="black" points="10,-59 10,-79 120,-79 120,-59 10,-59"/>
<text text-anchor="middle" x="65" y="-66" font-family="Helvetica,sans-Serif" font-size="10.00">BetaSymmetricalGen</text>
</a>
</g>
<!-- Node2&#45;&gt;Node1 -->
<g id="edge2" class="edge"><title>Node2&#45;&gt;Node1</title>
<path fill="none" stroke="midnightblue" d="M65,-48.8902C65,-39.6201 65,-29.0083 65,-21.3776"/>
<polygon fill="midnightblue" stroke="midnightblue" points="61.5001,-48.8971 65,-58.8972 68.5001,-48.8972 61.5001,-48.8971"/>
</g>
<!-- Node3 -->
<g id="node4" class="node"><title>Node3</title>
<a xlink:href="classumontreal_1_1ssj_1_1randvar_1_1BetaGen.html" target="_top" xlink:title="This class implements random variate generators with the beta distribution with shape parameters &#160;and...">
<polygon fill="none" stroke="black" points="37.5,-117 37.5,-137 92.5,-137 92.5,-117 37.5,-117"/>
<text text-anchor="middle" x="65" y="-124" font-family="Helvetica,sans-Serif" font-size="10.00">BetaGen</text>
</a>
</g>
<!-- Node3&#45;&gt;Node2 -->
<g id="edge4" class="edge"><title>Node3&#45;&gt;Node2</title>
<path fill="none" stroke="midnightblue" d="M65,-106.89C65,-97.6201 65,-87.0083 65,-79.3776"/>
<polygon fill="midnightblue" stroke="midnightblue" points="61.5001,-106.897 65,-116.897 68.5001,-106.897 61.5001,-106.897"/>
</g>
<!-- Node4 -->
<g id="node6" class="node"><title>Node4</title>
<a xlink:href="classumontreal_1_1ssj_1_1randvar_1_1RandomVariateGen.html" target="_top" xlink:title="This is the base class for all random variate generators over the real line. ">
<polygon fill="none" stroke="black" points="14.5,-175 14.5,-195 115.5,-195 115.5,-175 14.5,-175"/>
<text text-anchor="middle" x="65" y="-182" font-family="Helvetica,sans-Serif" font-size="10.00">RandomVariateGen</text>
</a>
</g>
<!-- Node4&#45;&gt;Node3 -->
<g id="edge6" class="edge"><title>Node4&#45;&gt;Node3</title>
<path fill="none" stroke="midnightblue" d="M65,-164.89C65,-155.62 65,-145.008 65,-137.378"/>
<polygon fill="midnightblue" stroke="midnightblue" points="61.5001,-164.897 65,-174.897 68.5001,-164.897 61.5001,-164.897"/>
</g>
</g>
</svg>
