<?xml version="1.0" encoding="UTF-8" standalone="no"?>
<!DOCTYPE svg PUBLIC "-//W3C//DTD SVG 1.1//EN"
 "http://www.w3.org/Graphics/SVG/1.1/DTD/svg11.dtd">
<!-- Generated by graphviz version 2.38.0 (20140413.2041)
 -->
<!-- Title: HammersleyPointSet Pages: 1 -->
<svg width="117pt" height="152pt"
 viewBox="0.00 0.00 117.00 152.00" xmlns="http://www.w3.org/2000/svg" xmlns:xlink="http://www.w3.org/1999/xlink">
<g id="graph0" class="graph" transform="scale(1 1) rotate(0) translate(4 148)">
<title>HammersleyPointSet</title>
<!-- Node2 -->
<g id="node1" class="node"><title>Node2</title>
<polygon fill="#bfbfbf" stroke="black" points="0,-0.5 0,-19.5 109,-19.5 109,-0.5 0,-0.5"/>
<text text-anchor="middle" x="54.5" y="-7.5" font-family="Helvetica,sans-Serif" font-size="10.00">HammersleyPointSet</text>
</g>
<!-- Node3 -->
<g id="node2" class="node"><title>Node3</title>
<g id="a_node2"><a xlink:href="classumontreal_1_1ssj_1_1hups_1_1PointSet.html" target="_top" xlink:title="This abstract class represents a general point set. ">
<polygon fill="none" stroke="black" points="27.5,-57.5 27.5,-76.5 81.5,-76.5 81.5,-57.5 27.5,-57.5"/>
<text text-anchor="middle" x="54.5" y="-64.5" font-family="Helvetica,sans-Serif" font-size="10.00">PointSet</text>
</a>
</g>
</g>
<!-- Node3&#45;&gt;Node2 -->
<g id="edge1" class="edge"><title>Node3&#45;&gt;Node2</title>
<path fill="none" stroke="midnightblue" d="M54.5,-47.1166C54.5,-37.8173 54.5,-27.0557 54.5,-19.7149"/>
<polygon fill="midnightblue" stroke="midnightblue" points="51.0001,-47.4062 54.5,-57.4063 58.0001,-47.4063 51.0001,-47.4062"/>
</g>
<!-- Node4 -->
<g id="node3" class="node"><title>Node4</title>
<g id="a_node3"><a xlink:href="interfaceumontreal_1_1ssj_1_1rng_1_1RandomStream.html" target="_top" xlink:title="This interface defines the basic structures to handle multiple streams of uniform (pseudo)random numb...">
<polygon fill="none" stroke="black" points="12.5,-124.5 12.5,-143.5 96.5,-143.5 96.5,-124.5 12.5,-124.5"/>
<text text-anchor="middle" x="54.5" y="-131.5" font-family="Helvetica,sans-Serif" font-size="10.00">RandomStream</text>
</a>
</g>
</g>
<!-- Node4&#45;&gt;Node3 -->
<g id="edge2" class="edge"><title>Node4&#45;&gt;Node3</title>
<path fill="none" stroke="#9a32cd" stroke-dasharray="5,2" d="M54.5,-114.037C54.5,-101.67 54.5,-86.1198 54.5,-76.6273"/>
<polygon fill="#9a32cd" stroke="#9a32cd" points="51.0001,-114.234 54.5,-124.234 58.0001,-114.234 51.0001,-114.234"/>
<text text-anchor="middle" x="81" y="-98" font-family="Helvetica,sans-Serif" font-size="10.00"> shiftStream</text>
</g>
</g>
</svg>
