<?xml version="1.0" encoding="UTF-8" standalone="no"?>
<!DOCTYPE svg PUBLIC "-//W3C//DTD SVG 1.1//EN"
 "http://www.w3.org/Graphics/SVG/1.1/DTD/svg11.dtd">
<!-- Generated by graphviz version 2.38.0 (20140413.2041)
 -->
<!-- Title: KernelDensityVarCorrectGen Pages: 1 -->
<svg width="192pt" height="219pt"
 viewBox="0.00 0.00 192.00 219.00" xmlns="http://www.w3.org/2000/svg" xmlns:xlink="http://www.w3.org/1999/xlink">
<g id="graph0" class="graph" transform="scale(1 1) rotate(0) translate(4 215)">
<title>KernelDensityVarCorrectGen</title>
<!-- Node1 -->
<g id="node1" class="node"><title>Node1</title>
<polygon fill="#bfbfbf" stroke="black" points="8.5,-0.5 8.5,-19.5 165.5,-19.5 165.5,-0.5 8.5,-0.5"/>
<text text-anchor="middle" x="87" y="-7.5" font-family="Helvetica,sans-Serif" font-size="10.00">KernelDensityVarCorrectGen</text>
</g>
<!-- Node2 -->
<g id="node2" class="node"><title>Node2</title>
<g id="a_node2"><a xlink:href="classumontreal_1_1ssj_1_1randvar_1_1KernelDensityGen.html" target="_top" xlink:title="This class implements random variate generators for distributions obtained via kernel density estimat...">
<polygon fill="none" stroke="black" points="34.5,-57.5 34.5,-76.5 139.5,-76.5 139.5,-57.5 34.5,-57.5"/>
<text text-anchor="middle" x="87" y="-64.5" font-family="Helvetica,sans-Serif" font-size="10.00">KernelDensityGen</text>
</a>
</g>
</g>
<!-- Node2&#45;&gt;Node1 -->
<g id="edge1" class="edge"><title>Node2&#45;&gt;Node1</title>
<path fill="none" stroke="midnightblue" d="M87,-47.1166C87,-37.8173 87,-27.0557 87,-19.7149"/>
<polygon fill="midnightblue" stroke="midnightblue" points="83.5001,-47.4062 87,-57.4062 90.5001,-47.4063 83.5001,-47.4062"/>
</g>
<!-- Node3 -->
<g id="node3" class="node"><title>Node3</title>
<g id="a_node3"><a xlink:href="classumontreal_1_1ssj_1_1randvar_1_1RandomVariateGen.html" target="_top" xlink:title="This is the base class for all random variate generators over the real line. ">
<polygon fill="none" stroke="black" points="31,-124.5 31,-143.5 143,-143.5 143,-124.5 31,-124.5"/>
<text text-anchor="middle" x="87" y="-131.5" font-family="Helvetica,sans-Serif" font-size="10.00">RandomVariateGen</text>
</a>
</g>
</g>
<!-- Node3&#45;&gt;Node2 -->
<g id="edge2" class="edge"><title>Node3&#45;&gt;Node2</title>
<path fill="none" stroke="midnightblue" d="M85.4399,-114.382C85.2572,-111.575 85.1003,-108.713 85,-106 84.6288,-95.9652 85.4035,-84.4502 86.0942,-76.7505"/>
<polygon fill="midnightblue" stroke="midnightblue" points="81.9607,-114.791 86.2083,-124.497 88.9406,-114.26 81.9607,-114.791"/>
</g>
<!-- Node3&#45;&gt;Node2 -->
<g id="edge5" class="edge"><title>Node3&#45;&gt;Node2</title>
<path fill="none" stroke="#9a32cd" stroke-dasharray="5,2" d="M87,-114.037C87,-101.67 87,-86.1198 87,-76.6273"/>
<polygon fill="#9a32cd" stroke="#9a32cd" points="83.5001,-114.234 87,-124.234 90.5001,-114.234 83.5001,-114.234"/>
<text text-anchor="middle" x="114" y="-98" font-family="Helvetica,sans-Serif" font-size="10.00"> kernelGen</text>
</g>
<!-- Node4 -->
<g id="node4" class="node"><title>Node4</title>
<g id="a_node4"><a xlink:href="interfaceumontreal_1_1ssj_1_1probdist_1_1Distribution.html" target="_top" xlink:title="This interface should be implemented by all classes supporting discrete and continuous distributions...">
<polygon fill="none" stroke="black" points="0,-191.5 0,-210.5 74,-210.5 74,-191.5 0,-191.5"/>
<text text-anchor="middle" x="37" y="-198.5" font-family="Helvetica,sans-Serif" font-size="10.00">Distribution</text>
</a>
</g>
</g>
<!-- Node4&#45;&gt;Node3 -->
<g id="edge3" class="edge"><title>Node4&#45;&gt;Node3</title>
<path fill="none" stroke="#9a32cd" stroke-dasharray="5,2" d="M49.8689,-183.27C59.6175,-170.597 72.6147,-153.701 80.3636,-143.627"/>
<polygon fill="#9a32cd" stroke="#9a32cd" points="47.0662,-181.174 43.7432,-191.234 52.6146,-185.442 47.0662,-181.174"/>
<text text-anchor="middle" x="76" y="-165" font-family="Helvetica,sans-Serif" font-size="10.00"> dist</text>
</g>
<!-- Node5 -->
<g id="node5" class="node"><title>Node5</title>
<g id="a_node5"><a xlink:href="interfaceumontreal_1_1ssj_1_1rng_1_1RandomStream.html" target="_top" xlink:title="This interface defines the basic structures to handle multiple streams of uniform (pseudo)random numb...">
<polygon fill="none" stroke="black" points="92,-191.5 92,-210.5 184,-210.5 184,-191.5 92,-191.5"/>
<text text-anchor="middle" x="138" y="-198.5" font-family="Helvetica,sans-Serif" font-size="10.00">RandomStream</text>
</a>
</g>
</g>
<!-- Node5&#45;&gt;Node3 -->
<g id="edge4" class="edge"><title>Node5&#45;&gt;Node3</title>
<path fill="none" stroke="#9a32cd" stroke-dasharray="5,2" d="M124.874,-183.27C114.93,-170.597 101.673,-153.701 93.7691,-143.627"/>
<polygon fill="#9a32cd" stroke="#9a32cd" points="122.195,-185.527 131.122,-191.234 127.703,-181.206 122.195,-185.527"/>
<text text-anchor="middle" x="134" y="-165" font-family="Helvetica,sans-Serif" font-size="10.00"> stream</text>
</g>
</g>
</svg>
