<?xml version="1.0" encoding="UTF-8" standalone="no"?>
<!DOCTYPE svg PUBLIC "-//W3C//DTD SVG 1.1//EN"
 "http://www.w3.org/Graphics/SVG/1.1/DTD/svg11.dtd">
<!-- Generated by graphviz version 2.38.0 (20140413.2041)
 -->
<!-- Title: Event Pages: 1 -->
<svg width="285pt" height="219pt"
 viewBox="0.00 0.00 285.00 219.00" xmlns="http://www.w3.org/2000/svg" xmlns:xlink="http://www.w3.org/1999/xlink">
<g id="graph0" class="graph" transform="scale(1 1) rotate(0) translate(4 215)">
<title>Event</title>
<!-- Node12 -->
<g id="node1" class="node"><title>Node12</title>
<polygon fill="#bfbfbf" stroke="black" points="67.5,-0.5 67.5,-19.5 108.5,-19.5 108.5,-0.5 67.5,-0.5"/>
<text text-anchor="middle" x="88" y="-7.5" font-family="Helvetica,sans-Serif" font-size="10.00">Event</text>
</g>
<!-- Node13 -->
<g id="node2" class="node"><title>Node13</title>
<polygon fill="none" stroke="#bfbfbf" points="0,-67.5 0,-86.5 110,-86.5 110,-67.5 0,-67.5"/>
<text text-anchor="middle" x="55" y="-74.5" font-family="Helvetica,sans-Serif" font-size="10.00">Comparable&lt; Event &gt;</text>
</g>
<!-- Node13&#45;&gt;Node12 -->
<g id="edge1" class="edge"><title>Node13&#45;&gt;Node12</title>
<path fill="none" stroke="midnightblue" d="M64.0555,-58.1635C70.4196,-45.6281 78.6532,-29.4104 83.62,-19.6273"/>
<polygon fill="midnightblue" stroke="midnightblue" points="60.8567,-56.7327 59.4505,-67.2338 67.0983,-59.9016 60.8567,-56.7327"/>
</g>
<!-- Node14 -->
<g id="node3" class="node"><title>Node14</title>
<g id="a_node3"><a xlink:href="classumontreal_1_1ssj_1_1simevents_1_1Simulator.html" target="_top" xlink:title="Represents the executive of a discrete&#45;event simulator. ">
<polygon fill="none" stroke="black" points="128,-67.5 128,-86.5 186,-86.5 186,-67.5 128,-67.5"/>
<text text-anchor="middle" x="157" y="-74.5" font-family="Helvetica,sans-Serif" font-size="10.00">Simulator</text>
</a>
</g>
</g>
<!-- Node14&#45;&gt;Node12 -->
<g id="edge2" class="edge"><title>Node14&#45;&gt;Node12</title>
<path fill="none" stroke="#9a32cd" stroke-dasharray="5,2" d="M140.394,-60.3564C126.829,-47.5777 108.16,-29.9915 97.1582,-19.6273"/>
<polygon fill="#9a32cd" stroke="#9a32cd" points="138.015,-62.9245 147.694,-67.2338 142.815,-57.8292 138.015,-62.9245"/>
<text text-anchor="middle" x="135.5" y="-41" font-family="Helvetica,sans-Serif" font-size="10.00"> sim</text>
</g>
<!-- Node14&#45;&gt;Node14 -->
<g id="edge3" class="edge"><title>Node14&#45;&gt;Node14</title>
<path fill="none" stroke="#9a32cd" stroke-dasharray="5,2" d="M196.603,-82.0845C201.091,-81.1323 204,-79.4375 204,-77 204,-73 196.167,-71 186.375,-71"/>
<polygon fill="#9a32cd" stroke="#9a32cd" points="196.023,-78.6223 186.375,-83 196.647,-85.5944 196.023,-78.6223"/>
<text text-anchor="middle" x="240.5" y="-74.5" font-family="Helvetica,sans-Serif" font-size="10.00"> defaultSimulator</text>
</g>
<!-- Node15 -->
<g id="node4" class="node"><title>Node15</title>
<g id="a_node4"><a xlink:href="interfaceumontreal_1_1ssj_1_1simevents_1_1eventlist_1_1EventList.html" target="_top" xlink:title="An interface for implementations of event lists. ">
<polygon fill="none" stroke="black" points="77,-134.5 77,-153.5 133,-153.5 133,-134.5 77,-134.5"/>
<text text-anchor="middle" x="105" y="-141.5" font-family="Helvetica,sans-Serif" font-size="10.00">EventList</text>
</a>
</g>
</g>
<!-- Node15&#45;&gt;Node14 -->
<g id="edge4" class="edge"><title>Node15&#45;&gt;Node14</title>
<path fill="none" stroke="#9a32cd" stroke-dasharray="5,2" d="M114.255,-125.455C118.122,-118.777 122.901,-111.271 128,-105 133.468,-98.275 140.579,-91.6292 146.391,-86.6138"/>
<polygon fill="#9a32cd" stroke="#9a32cd" points="111.082,-123.962 109.313,-134.408 117.21,-127.345 111.082,-123.962"/>
<text text-anchor="middle" x="149" y="-108" font-family="Helvetica,sans-Serif" font-size="10.00"> eventList</text>
</g>
<!-- Node16 -->
<g id="node5" class="node"><title>Node16</title>
<polygon fill="none" stroke="#bfbfbf" points="60,-191.5 60,-210.5 150,-210.5 150,-191.5 60,-191.5"/>
<text text-anchor="middle" x="105" y="-198.5" font-family="Helvetica,sans-Serif" font-size="10.00">Iterable&lt; Event &gt;</text>
</g>
<!-- Node16&#45;&gt;Node15 -->
<g id="edge5" class="edge"><title>Node16&#45;&gt;Node15</title>
<path fill="none" stroke="midnightblue" d="M105,-181.117C105,-171.817 105,-161.056 105,-153.715"/>
<polygon fill="midnightblue" stroke="midnightblue" points="101.5,-181.406 105,-191.406 108.5,-181.406 101.5,-181.406"/>
</g>
<!-- Node17 -->
<g id="node6" class="node"><title>Node17</title>
<g id="a_node6"><a xlink:href="classumontreal_1_1ssj_1_1simevents_1_1ContinuousState.html" target="_top" xlink:title="Represents the portion of the simulator’s state associated with continuous&#45;time simulation. ">
<polygon fill="none" stroke="black" points="151.5,-134.5 151.5,-153.5 240.5,-153.5 240.5,-134.5 151.5,-134.5"/>
<text text-anchor="middle" x="196" y="-141.5" font-family="Helvetica,sans-Serif" font-size="10.00">ContinuousState</text>
</a>
</g>
</g>
<!-- Node17&#45;&gt;Node14 -->
<g id="edge6" class="edge"><title>Node17&#45;&gt;Node14</title>
<path fill="none" stroke="#9a32cd" stroke-dasharray="5,2" d="M185.521,-125.535C177.97,-112.95 168.104,-96.5072 162.176,-86.6273"/>
<polygon fill="#9a32cd" stroke="#9a32cd" points="182.594,-127.46 190.74,-134.234 188.597,-123.858 182.594,-127.46"/>
<text text-anchor="middle" x="215" y="-108" font-family="Helvetica,sans-Serif" font-size="10.00"> continuousState</text>
</g>
</g>
</svg>
