<?xml version="1.0" encoding="UTF-8" standalone="no"?>
<!DOCTYPE svg PUBLIC "-//W3C//DTD SVG 1.1//EN"
 "http://www.w3.org/Graphics/SVG/1.1/DTD/svg11.dtd">
<!-- Generated by graphviz version 2.38.0 (20140413.2041)
 -->
<!-- Title: XYListSeriesCollection Pages: 1 -->
<svg width="195pt" height="152pt"
 viewBox="0.00 0.00 195.00 152.00" xmlns="http://www.w3.org/2000/svg" xmlns:xlink="http://www.w3.org/1999/xlink">
<g id="graph0" class="graph" transform="scale(1 1) rotate(0) translate(4 148)">
<title>XYListSeriesCollection</title>
<!-- Node1 -->
<g id="node1" class="node"><title>Node1</title>
<polygon fill="#bfbfbf" stroke="black" points="23.5,-0.5 23.5,-19.5 148.5,-19.5 148.5,-0.5 23.5,-0.5"/>
<text text-anchor="middle" x="86" y="-7.5" font-family="Helvetica,sans-Serif" font-size="10.00">XYListSeriesCollection</text>
</g>
<!-- Node2 -->
<g id="node2" class="node"><title>Node2</title>
<g id="a_node2"><a xlink:href="classumontreal_1_1ssj_1_1charts_1_1SSJXYSeriesCollection.html" target="_top" xlink:title="Stores data used in a XYChart. ">
<polygon fill="none" stroke="black" points="24.5,-57.5 24.5,-76.5 147.5,-76.5 147.5,-57.5 24.5,-57.5"/>
<text text-anchor="middle" x="86" y="-64.5" font-family="Helvetica,sans-Serif" font-size="10.00">SSJXYSeriesCollection</text>
</a>
</g>
</g>
<!-- Node2&#45;&gt;Node1 -->
<g id="edge1" class="edge"><title>Node2&#45;&gt;Node1</title>
<path fill="none" stroke="midnightblue" d="M86,-47.1166C86,-37.8173 86,-27.0557 86,-19.7149"/>
<polygon fill="midnightblue" stroke="midnightblue" points="82.5001,-47.4062 86,-57.4062 89.5001,-47.4063 82.5001,-47.4062"/>
</g>
<!-- Node3 -->
<g id="node3" class="node"><title>Node3</title>
<polygon fill="none" stroke="#bfbfbf" points="0,-124.5 0,-143.5 68,-143.5 68,-124.5 0,-124.5"/>
<text text-anchor="middle" x="34" y="-131.5" font-family="Helvetica,sans-Serif" font-size="10.00">XYDataset</text>
</g>
<!-- Node3&#45;&gt;Node2 -->
<g id="edge2" class="edge"><title>Node3&#45;&gt;Node2</title>
<path fill="none" stroke="#9a32cd" stroke-dasharray="5,2" d="M30.7937,-114.35C30.5865,-107.805 31.4795,-100.677 35,-95 40.1744,-86.6562 48.861,-80.7438 57.6124,-76.6242"/>
<polygon fill="#9a32cd" stroke="#9a32cd" points="27.333,-114.899 31.9114,-124.453 34.2906,-114.129 27.333,-114.899"/>
<text text-anchor="middle" x="76" y="-98" font-family="Helvetica,sans-Serif" font-size="10.00"> seriesCollection</text>
</g>
<!-- Node4 -->
<g id="node4" class="node"><title>Node4</title>
<polygon fill="none" stroke="#bfbfbf" points="91,-124.5 91,-143.5 187,-143.5 187,-124.5 91,-124.5"/>
<text text-anchor="middle" x="139" y="-131.5" font-family="Helvetica,sans-Serif" font-size="10.00">XYItemRenderer</text>
</g>
<!-- Node4&#45;&gt;Node2 -->
<g id="edge3" class="edge"><title>Node4&#45;&gt;Node2</title>
<path fill="none" stroke="#9a32cd" stroke-dasharray="5,2" d="M130.362,-115.344C126.692,-108.651 122.083,-101.165 117,-95 111.37,-88.1718 103.921,-81.6237 97.7357,-76.6864"/>
<polygon fill="#9a32cd" stroke="#9a32cd" points="127.311,-117.062 135.015,-124.335 133.527,-113.845 127.311,-117.062"/>
<text text-anchor="middle" x="146.5" y="-98" font-family="Helvetica,sans-Serif" font-size="10.00"> renderer</text>
</g>
</g>
</svg>
