<?xml version="1.0" encoding="UTF-8" standalone="no"?>
<!DOCTYPE svg PUBLIC "-//W3C//DTD SVG 1.1//EN"
 "http://www.w3.org/Graphics/SVG/1.1/DTD/svg11.dtd">
<!-- Generated by graphviz version 2.38.0 (20140413.2041)
 -->
<!-- Title: RandomStreamBase Pages: 1 -->
<!--zoomable 252 -->
<svg id="main" version="1.1" xmlns="http://www.w3.org/2000/svg" xmlns:xlink="http://www.w3.org/1999/xlink" xml:space="preserve" onload="init(evt)">
<style type="text/css"><![CDATA[
.edge:hover path { stroke: red; }
.edge:hover polygon { stroke: red; fill: red; }
]]></style>
<script type="text/javascript"><![CDATA[
var edges = document.getElementsByTagName('g');
if (edges && edges.length) {
  for (var i=0;i<edges.length;i++) {
    if (edges[i].id.substr(0,4)=='edge') {
      edges[i].setAttribute('class','edge');
    }
  }
}
]]></script>
        <defs>
                <circle id="rim" cx="0" cy="0" r="7"/>
                <circle id="rim2" cx="0" cy="0" r="3.5"/>
                <g id="zoomPlus">
                        <use xlink:href="#rim" fill="#404040">
                                <set attributeName="fill" to="#808080" begin="zoomplus.mouseover" end="zoomplus.mouseout"/>
                        </use>
                        <path d="M-4,0h8M0,-4v8" fill="none" stroke="white" stroke-width="1.5" pointer-events="none"/>
                </g>
                <g id="zoomMin">
                        <use xlink:href="#rim" fill="#404040">
                                <set attributeName="fill" to="#808080" begin="zoomminus.mouseover" end="zoomminus.mouseout"/>
                        </use>
                        <path d="M-4,0h8" fill="none" stroke="white" stroke-width="1.5" pointer-events="none"/>
                </g>
                <g id="dirArrow">
                        <path fill="none" stroke="white" stroke-width="1.5" d="M0,-3.0v7 M-2.5,-0.5L0,-3.0L2.5,-0.5"/>
                </g>
               <g id="resetDef">
                       <use xlink:href="#rim2" fill="#404040">
                               <set attributeName="fill" to="#808080" begin="reset.mouseover" end="reset.mouseout"/>
                       </use>
               </g>
        </defs>

<script type="text/javascript">
var viewWidth = 869;
var viewHeight = 252;
var sectionId = 'dynsection-0';
</script>
<script xlink:href="svgpan.js"/>
<svg id="graph" class="graph">
<g id="viewport">
<title>RandomStreamBase</title>
<!-- Node1 -->
<g id="node1" class="node"><title>Node1</title>
<polygon fill="#bfbfbf" stroke="black" points="347,-112.5 347,-131.5 463,-131.5 463,-112.5 347,-112.5"/>
<text text-anchor="middle" x="405" y="-119.5" font-family="Helvetica,sans-Serif" font-size="10.00">RandomStreamBase</text>
</g>
<!-- Node6 -->
<g id="node6" class="node"><title>Node6</title>
<g id="a_node6"><a xlink:href="classumontreal_1_1ssj_1_1rng_1_1GenF2w32.html" target="_top" xlink:title="Implements the RandomStream interface via inheritance from RandomStreamBase. ">
<polygon fill="none" stroke="black" points="0,-56.5 0,-75.5 68,-75.5 68,-56.5 0,-56.5"/>
<text text-anchor="middle" x="34" y="-63.5" font-family="Helvetica,sans-Serif" font-size="10.00">GenF2w32</text>
</a>
</g>
</g>
<!-- Node1&#45;&gt;Node6 -->
<g id="edge5" class="edge"><title>Node1&#45;&gt;Node6</title>
<path fill="none" stroke="midnightblue" d="M336.808,-113.056C270.315,-104.978 166.426,-91.4733 77,-76 74.1442,-75.5059 71.1887,-74.9601 68.2261,-74.389"/>
<polygon fill="midnightblue" stroke="midnightblue" points="336.398,-116.532 346.746,-114.257 337.238,-109.583 336.398,-116.532"/>
</g>
<!-- Node7 -->
<g id="node7" class="node"><title>Node7</title>
<g id="a_node7"><a xlink:href="classumontreal_1_1ssj_1_1rng_1_1LFSR113.html" target="_top" xlink:title="Extends RandomStreamBase using a composite linear feedback shift register (LFSR) (or Tausworthe) RNG ...">
<polygon fill="none" stroke="black" points="86,-56.5 86,-75.5 144,-75.5 144,-56.5 86,-56.5"/>
<text text-anchor="middle" x="115" y="-63.5" font-family="Helvetica,sans-Serif" font-size="10.00">LFSR113</text>
</a>
</g>
</g>
<!-- Node1&#45;&gt;Node7 -->
<g id="edge6" class="edge"><title>Node1&#45;&gt;Node7</title>
<path fill="none" stroke="midnightblue" d="M342.321,-110.807C291.22,-102.258 217.252,-89.3348 153,-76 150.079,-75.3938 147.04,-74.7301 144.009,-74.0466"/>
<polygon fill="midnightblue" stroke="midnightblue" points="341.787,-114.267 352.226,-112.458 342.938,-107.362 341.787,-114.267"/>
</g>
<!-- Node8 -->
<g id="node8" class="node"><title>Node8</title>
<g id="a_node8"><a xlink:href="classumontreal_1_1ssj_1_1rng_1_1LFSR258.html" target="_top" xlink:title="Extends RandomStreamBase using a 64&#45;bit composite linear feedback shift register (LFSR) (or Tausworth...">
<polygon fill="none" stroke="black" points="162,-56.5 162,-75.5 220,-75.5 220,-56.5 162,-56.5"/>
<text text-anchor="middle" x="191" y="-63.5" font-family="Helvetica,sans-Serif" font-size="10.00">LFSR258</text>
</a>
</g>
</g>
<!-- Node1&#45;&gt;Node8 -->
<g id="edge7" class="edge"><title>Node1&#45;&gt;Node8</title>
<path fill="none" stroke="midnightblue" d="M361.385,-109.994C319.289,-99.3719 256.724,-83.5847 220.28,-74.3884"/>
<polygon fill="midnightblue" stroke="midnightblue" points="360.539,-113.39 371.091,-112.444 362.251,-106.603 360.539,-113.39"/>
</g>
<!-- Node9 -->
<g id="node9" class="node"><title>Node9</title>
<g id="a_node9"><a xlink:href="classumontreal_1_1ssj_1_1rng_1_1MRG31k3p.html" target="_top" xlink:title="Extends the abstract class RandomStreamBase, thus implementing the RandomStream interface indirectly...">
<polygon fill="none" stroke="black" points="238.5,-56.5 238.5,-75.5 307.5,-75.5 307.5,-56.5 238.5,-56.5"/>
<text text-anchor="middle" x="273" y="-63.5" font-family="Helvetica,sans-Serif" font-size="10.00">MRG31k3p</text>
</a>
</g>
</g>
<!-- Node1&#45;&gt;Node9 -->
<g id="edge8" class="edge"><title>Node1&#45;&gt;Node9</title>
<path fill="none" stroke="midnightblue" d="M374.781,-108.638C350.01,-98.504 315.6,-84.4274 293.818,-75.5164"/>
<polygon fill="midnightblue" stroke="midnightblue" points="373.503,-111.897 384.084,-112.444 376.154,-105.418 373.503,-111.897"/>
</g>
<!-- Node10 -->
<g id="node10" class="node"><title>Node10</title>
<g id="a_node10"><a xlink:href="classumontreal_1_1ssj_1_1rng_1_1MRG32k3a.html" target="_top" xlink:title="Extends the abstract class RandomStreamBase by using as a backbone (or main) generator the combined m...">
<polygon fill="none" stroke="black" points="325.5,-56.5 325.5,-75.5 394.5,-75.5 394.5,-56.5 325.5,-56.5"/>
<text text-anchor="middle" x="360" y="-63.5" font-family="Helvetica,sans-Serif" font-size="10.00">MRG32k3a</text>
</a>
</g>
</g>
<!-- Node1&#45;&gt;Node10 -->
<g id="edge9" class="edge"><title>Node1&#45;&gt;Node10</title>
<path fill="none" stroke="midnightblue" d="M390.953,-104.144C383.113,-94.7357 373.671,-83.4046 367.293,-75.7511"/>
<polygon fill="midnightblue" stroke="midnightblue" points="388.479,-106.641 397.569,-112.083 393.856,-102.16 388.479,-106.641"/>
</g>
<!-- Node11 -->
<g id="node11" class="node"><title>Node11</title>
<g id="a_node11"><a xlink:href="classumontreal_1_1ssj_1_1rng_1_1MRG32k3aL.html" target="_top" xlink:title="The same generator as MRG32k3a, except here it is implemented with type long instead of double...">
<polygon fill="none" stroke="black" points="413,-56.5 413,-75.5 487,-75.5 487,-56.5 413,-56.5"/>
<text text-anchor="middle" x="450" y="-63.5" font-family="Helvetica,sans-Serif" font-size="10.00">MRG32k3aL</text>
</a>
</g>
</g>
<!-- Node1&#45;&gt;Node11 -->
<g id="edge10" class="edge"><title>Node1&#45;&gt;Node11</title>
<path fill="none" stroke="midnightblue" d="M419.047,-104.144C426.887,-94.7357 436.329,-83.4046 442.707,-75.7511"/>
<polygon fill="midnightblue" stroke="midnightblue" points="416.144,-102.16 412.431,-112.083 421.521,-106.641 416.144,-102.16"/>
</g>
<!-- Node12 -->
<g id="node12" class="node"><title>Node12</title>
<g id="a_node12"><a xlink:href="classumontreal_1_1ssj_1_1rng_1_1MT19937.html" target="_top" xlink:title="Implements the RandomStream interface via inheritance from RandomStreamBase. ">
<polygon fill="none" stroke="black" points="505.5,-56.5 505.5,-75.5 566.5,-75.5 566.5,-56.5 505.5,-56.5"/>
<text text-anchor="middle" x="536" y="-63.5" font-family="Helvetica,sans-Serif" font-size="10.00">MT19937</text>
</a>
</g>
</g>
<!-- Node1&#45;&gt;Node12 -->
<g id="edge11" class="edge"><title>Node1&#45;&gt;Node12</title>
<path fill="none" stroke="midnightblue" d="M435.317,-108.503C459.876,-98.3795 493.818,-84.388 515.34,-75.5164"/>
<polygon fill="midnightblue" stroke="midnightblue" points="433.669,-105.397 425.757,-112.444 436.337,-111.868 433.669,-105.397"/>
</g>
<!-- Node13 -->
<g id="node13" class="node"><title>Node13</title>
<g id="a_node13"><a xlink:href="classumontreal_1_1ssj_1_1rng_1_1WELL1024.html" target="_top" xlink:title="Implements the RandomStream interface via inheritance from RandomStreamBase. ">
<polygon fill="none" stroke="black" points="584.5,-56.5 584.5,-75.5 651.5,-75.5 651.5,-56.5 584.5,-56.5"/>
<text text-anchor="middle" x="618" y="-63.5" font-family="Helvetica,sans-Serif" font-size="10.00">WELL1024</text>
</a>
</g>
</g>
<!-- Node1&#45;&gt;Node13 -->
<g id="edge12" class="edge"><title>Node1&#45;&gt;Node13</title>
<path fill="none" stroke="midnightblue" d="M448.551,-109.959C488.781,-99.7598 547.703,-84.8217 584.407,-75.5164"/>
<polygon fill="midnightblue" stroke="midnightblue" points="447.584,-106.593 438.75,-112.444 449.304,-113.379 447.584,-106.593"/>
</g>
<!-- Node14 -->
<g id="node14" class="node"><title>Node14</title>
<g id="a_node14"><a xlink:href="classumontreal_1_1ssj_1_1rng_1_1WELL512.html" target="_top" xlink:title="This class implements the RandomStream interface via inheritance from RandomStreamBase. ">
<polygon fill="none" stroke="black" points="669.5,-56.5 669.5,-75.5 730.5,-75.5 730.5,-56.5 669.5,-56.5"/>
<text text-anchor="middle" x="700" y="-63.5" font-family="Helvetica,sans-Serif" font-size="10.00">WELL512</text>
</a>
</g>
</g>
<!-- Node1&#45;&gt;Node14 -->
<g id="edge13" class="edge"><title>Node1&#45;&gt;Node14</title>
<path fill="none" stroke="midnightblue" d="M467.409,-110.822C519.129,-102.187 594.505,-89.1397 660,-76 663.071,-75.3839 666.268,-74.7138 669.456,-74.0263"/>
<polygon fill="midnightblue" stroke="midnightblue" points="466.68,-107.395 457.39,-112.489 467.829,-114.3 466.68,-107.395"/>
</g>
<!-- Node15 -->
<g id="node15" class="node"><title>Node15</title>
<g id="a_node15"><a xlink:href="classumontreal_1_1ssj_1_1rng_1_1WELL607base.html" target="_top" xlink:title="WELL607base">
<polygon fill="none" stroke="black" points="749,-56.5 749,-75.5 833,-75.5 833,-56.5 749,-56.5"/>
<text text-anchor="middle" x="791" y="-63.5" font-family="Helvetica,sans-Serif" font-size="10.00">WELL607base</text>
</a>
</g>
</g>
<!-- Node1&#45;&gt;Node15 -->
<g id="edge14" class="edge"><title>Node1&#45;&gt;Node15</title>
<path fill="none" stroke="midnightblue" d="M473.112,-112.582C540.684,-104.052 647.14,-90.1325 739,-76 742.169,-75.5124 745.444,-74.9899 748.736,-74.4511"/>
<polygon fill="midnightblue" stroke="midnightblue" points="472.504,-109.131 463.02,-113.852 473.379,-116.076 472.504,-109.131"/>
</g>
<!-- Node2 -->
<g id="node2" class="node"><title>Node2</title>
<g id="a_node2"><a xlink:href="interfaceumontreal_1_1ssj_1_1rng_1_1CloneableRandomStream.html" target="_top" xlink:title="CloneableRandomStream extends RandomStream and Cloneable. ">
<polygon fill="none" stroke="black" points="271.5,-168.5 271.5,-187.5 412.5,-187.5 412.5,-168.5 271.5,-168.5"/>
<text text-anchor="middle" x="342" y="-175.5" font-family="Helvetica,sans-Serif" font-size="10.00">CloneableRandomStream</text>
</a>
</g>
</g>
<!-- Node2&#45;&gt;Node1 -->
<g id="edge1" class="edge"><title>Node2&#45;&gt;Node1</title>
<path fill="none" stroke="midnightblue" d="M360.04,-161.537C371.273,-151.909 385.319,-139.869 394.694,-131.834"/>
<polygon fill="midnightblue" stroke="midnightblue" points="357.437,-159.159 352.122,-168.324 361.992,-164.473 357.437,-159.159"/>
</g>
<!-- Node3 -->
<g id="node3" class="node"><title>Node3</title>
<g id="a_node3"><a xlink:href="interfaceumontreal_1_1ssj_1_1rng_1_1RandomStream.html" target="_top" xlink:title="This interface defines the basic structures to handle multiple streams of uniform (pseudo)random numb...">
<polygon fill="none" stroke="black" points="248,-224.5 248,-243.5 340,-243.5 340,-224.5 248,-224.5"/>
<text text-anchor="middle" x="294" y="-231.5" font-family="Helvetica,sans-Serif" font-size="10.00">RandomStream</text>
</a>
</g>
</g>
<!-- Node3&#45;&gt;Node2 -->
<g id="edge2" class="edge"><title>Node3&#45;&gt;Node2</title>
<path fill="none" stroke="midnightblue" d="M308.728,-216.431C317.14,-206.967 327.349,-195.483 334.221,-187.751"/>
<polygon fill="midnightblue" stroke="midnightblue" points="305.954,-214.284 301.926,-224.083 311.186,-218.934 305.954,-214.284"/>
</g>
<!-- Node4 -->
<g id="node4" class="node"><title>Node4</title>
<polygon fill="none" stroke="#bfbfbf" points="358.5,-224.5 358.5,-243.5 423.5,-243.5 423.5,-224.5 358.5,-224.5"/>
<text text-anchor="middle" x="391" y="-231.5" font-family="Helvetica,sans-Serif" font-size="10.00">Cloneable</text>
</g>
<!-- Node4&#45;&gt;Node2 -->
<g id="edge3" class="edge"><title>Node4&#45;&gt;Node2</title>
<path fill="none" stroke="midnightblue" d="M375.966,-216.431C367.378,-206.967 356.957,-195.483 349.941,-187.751"/>
<polygon fill="midnightblue" stroke="midnightblue" points="373.597,-219.029 382.909,-224.083 378.781,-214.325 373.597,-219.029"/>
</g>
<!-- Node5 -->
<g id="node5" class="node"><title>Node5</title>
<polygon fill="none" stroke="#bfbfbf" points="431,-168.5 431,-187.5 505,-187.5 505,-168.5 431,-168.5"/>
<text text-anchor="middle" x="468" y="-175.5" font-family="Helvetica,sans-Serif" font-size="10.00">Serializable</text>
</g>
<!-- Node5&#45;&gt;Node1 -->
<g id="edge4" class="edge"><title>Node5&#45;&gt;Node1</title>
<path fill="none" stroke="midnightblue" d="M449.96,-161.537C438.727,-151.909 424.681,-139.869 415.306,-131.834"/>
<polygon fill="midnightblue" stroke="midnightblue" points="448.008,-164.473 457.878,-168.324 452.563,-159.159 448.008,-164.473"/>
</g>
<!-- Node16 -->
<g id="node16" class="node"><title>Node16</title>
<g id="a_node16"><a xlink:href="classumontreal_1_1ssj_1_1rng_1_1F2NL607.html" target="_top" xlink:title="Implements the RandomStream interface by using as a backbone generator the combination of the WELL607...">
<polygon fill="none" stroke="black" points="722.5,-0.5 722.5,-19.5 781.5,-19.5 781.5,-0.5 722.5,-0.5"/>
<text text-anchor="middle" x="752" y="-7.5" font-family="Helvetica,sans-Serif" font-size="10.00">F2NL607</text>
</a>
</g>
</g>
<!-- Node15&#45;&gt;Node16 -->
<g id="edge15" class="edge"><title>Node15&#45;&gt;Node16</title>
<path fill="none" stroke="midnightblue" d="M778.618,-47.8554C771.865,-38.5048 763.791,-27.3265 758.32,-19.7511"/>
<polygon fill="midnightblue" stroke="midnightblue" points="775.868,-50.0254 784.56,-56.083 781.542,-45.927 775.868,-50.0254"/>
</g>
<!-- Node17 -->
<g id="node17" class="node"><title>Node17</title>
<g id="a_node17"><a xlink:href="classumontreal_1_1ssj_1_1rng_1_1WELL607.html" target="_top" xlink:title="This class implements the RandomStream interface via inheritance from RandomStreamBase. ">
<polygon fill="none" stroke="black" points="799.5,-0.5 799.5,-19.5 860.5,-19.5 860.5,-0.5 799.5,-0.5"/>
<text text-anchor="middle" x="830" y="-7.5" font-family="Helvetica,sans-Serif" font-size="10.00">WELL607</text>
</a>
</g>
</g>
<!-- Node15&#45;&gt;Node17 -->
<g id="edge16" class="edge"><title>Node15&#45;&gt;Node17</title>
<path fill="none" stroke="midnightblue" d="M803.382,-47.8554C810.135,-38.5048 818.209,-27.3265 823.68,-19.7511"/>
<polygon fill="midnightblue" stroke="midnightblue" points="800.458,-45.927 797.44,-56.083 806.132,-50.0254 800.458,-45.927"/>
</g>
</g>
</svg>
        <g id="navigator" transform="translate(0 0)" fill="#404254">
                <rect fill="#f2f5e9" fill-opacity="0.5" stroke="#606060" stroke-width=".5" x="0" y="0" width="60" height="60"/>
                <use id="zoomplus" xlink:href="#zoomPlus" x="17" y="9" onmousedown="handleZoom(evt,'in')"/>
                <use id="zoomminus" xlink:href="#zoomMin" x="42" y="9" onmousedown="handleZoom(evt,'out')"/>
                <use id="reset" xlink:href="#resetDef" x="30" y="36" onmousedown="handleReset()"/>
                <g id="arrowUp" xlink:href="#dirArrow" transform="translate(30 24)" onmousedown="handlePan(0,-1)">
                  <use xlink:href="#rim" fill="#404040">
                        <set attributeName="fill" to="#808080" begin="arrowUp.mouseover" end="arrowUp.mouseout"/>
                  </use>
                  <path fill="none" stroke="white" stroke-width="1.5" d="M0,-3.0v7 M-2.5,-0.5L0,-3.0L2.5,-0.5"/>
                </g>
                <g id="arrowRight" xlink:href="#dirArrow" transform="rotate(90) translate(36 -43)" onmousedown="handlePan(1,0)">
                  <use xlink:href="#rim" fill="#404040">
                        <set attributeName="fill" to="#808080" begin="arrowRight.mouseover" end="arrowRight.mouseout"/>
                  </use>
                  <path fill="none" stroke="white" stroke-width="1.5" d="M0,-3.0v7 M-2.5,-0.5L0,-3.0L2.5,-0.5"/>
                </g>
                <g id="arrowDown" xlink:href="#dirArrow" transform="rotate(180) translate(-30 -48)" onmousedown="handlePan(0,1)">
                  <use xlink:href="#rim" fill="#404040">
                        <set attributeName="fill" to="#808080" begin="arrowDown.mouseover" end="arrowDown.mouseout"/>
                  </use>
                  <path fill="none" stroke="white" stroke-width="1.5" d="M0,-3.0v7 M-2.5,-0.5L0,-3.0L2.5,-0.5"/>
                </g>
                <g id="arrowLeft" xlink:href="#dirArrow" transform="rotate(270) translate(-36 17)" onmousedown="handlePan(-1,0)">
                  <use xlink:href="#rim" fill="#404040">
                        <set attributeName="fill" to="#808080" begin="arrowLeft.mouseover" end="arrowLeft.mouseout"/>
                  </use>
                  <path fill="none" stroke="white" stroke-width="1.5" d="M0,-3.0v7 M-2.5,-0.5L0,-3.0L2.5,-0.5"/>
                </g>
        </g>
        <svg viewBox="0 0 15 15" width="100%" height="30px" preserveAspectRatio="xMaxYMin meet">
         <g id="arrow_out" transform="scale(0.3 0.3)">
          <a xlink:href="classumontreal_1_1ssj_1_1rng_1_1RandomStreamBase__inherit__graph_org.svg" target="_base">
           <rect id="button" ry="5" rx="5" y="6" x="6" height="38" width="38"
                fill="#f2f5e9" fill-opacity="0.5" stroke="#606060" stroke-width="1.0"/>
           <path id="arrow"
             d="M 11.500037,31.436501 C 11.940474,20.09759 22.043105,11.32322 32.158766,21.979434 L 37.068811,17.246167 C 37.068811,17.246167 37.088388,32 37.088388,32 L 22.160133,31.978069 C 22.160133,31.978069 26.997745,27.140456 26.997745,27.140456 C 18.528582,18.264221 13.291696,25.230495 11.500037,31.436501 z"
             style="fill:#404040;"/>
          </a>
         </g>
        </svg>
</svg>
