<?xml version="1.0" encoding="UTF-8" standalone="no"?>
<!DOCTYPE svg PUBLIC "-//W3C//DTD SVG 1.1//EN"
 "http://www.w3.org/Graphics/SVG/1.1/DTD/svg11.dtd">
<!-- Generated by graphviz version 2.38.0 (20140413.2041)
 -->
<!-- Title: HilbertCurveBatchSort&lt; T extends MultiDimComparable&lt;?super T &gt; &gt; Pages: 1 -->
<!--zoomable 101 -->
<svg id="main" version="1.1" xmlns="http://www.w3.org/2000/svg" xmlns:xlink="http://www.w3.org/1999/xlink" xml:space="preserve" onload="init(evt)">
<style type="text/css"><![CDATA[
.edge:hover path { stroke: red; }
.edge:hover polygon { stroke: red; fill: red; }
]]></style>
<script type="text/javascript"><![CDATA[
var edges = document.getElementsByTagName('g');
if (edges && edges.length) {
  for (var i=0;i<edges.length;i++) {
    if (edges[i].id.substr(0,4)=='edge') {
      edges[i].setAttribute('class','edge');
    }
  }
}
]]></script>
        <defs>
                <circle id="rim" cx="0" cy="0" r="7"/>
                <circle id="rim2" cx="0" cy="0" r="3.5"/>
                <g id="zoomPlus">
                        <use xlink:href="#rim" fill="#404040">
                                <set attributeName="fill" to="#808080" begin="zoomplus.mouseover" end="zoomplus.mouseout"/>
                        </use>
                        <path d="M-4,0h8M0,-4v8" fill="none" stroke="white" stroke-width="1.5" pointer-events="none"/>
                </g>
                <g id="zoomMin">
                        <use xlink:href="#rim" fill="#404040">
                                <set attributeName="fill" to="#808080" begin="zoomminus.mouseover" end="zoomminus.mouseout"/>
                        </use>
                        <path d="M-4,0h8" fill="none" stroke="white" stroke-width="1.5" pointer-events="none"/>
                </g>
                <g id="dirArrow">
                        <path fill="none" stroke="white" stroke-width="1.5" d="M0,-3.0v7 M-2.5,-0.5L0,-3.0L2.5,-0.5"/>
                </g>
               <g id="resetDef">
                       <use xlink:href="#rim2" fill="#404040">
                               <set attributeName="fill" to="#808080" begin="reset.mouseover" end="reset.mouseout"/>
                       </use>
               </g>
        </defs>

<script type="text/javascript">
var viewWidth = 821;
var viewHeight = 101;
var sectionId = 'dynsection-1';
</script>
<script xlink:href="svgpan.js"/>
<svg id="graph" class="graph">
<g id="viewport">
<title>HilbertCurveBatchSort&lt; T extends MultiDimComparable&lt;?super T &gt; &gt;</title>
<!-- Node1 -->
<g id="node1" class="node"><title>Node1</title>
<polygon fill="#bfbfbf" stroke="black" points="649,-27.5 649,-68.5 813,-68.5 813,-27.5 649,-27.5"/>
<text text-anchor="start" x="657" y="-56.5" font-family="Helvetica,sans-Serif" font-size="10.00">HilbertCurveBatchSort</text>
<text text-anchor="start" x="657" y="-45.5" font-family="Helvetica,sans-Serif" font-size="10.00">&lt; T extends MultiDimComparable</text>
<text text-anchor="middle" x="731" y="-34.5" font-family="Helvetica,sans-Serif" font-size="10.00">&lt;?super T &gt; &gt;</text>
</g>
<!-- Node2 -->
<g id="node2" class="node"><title>Node2</title>
<g id="a_node2"><a xlink:href="interfaceumontreal_1_1ssj_1_1util_1_1sort_1_1MultiDimSortComparable_3_01T_01extends_01MultiDimCo45d0e8774cd123522345c6e0f6ef4062.html" target="_top" xlink:title="This interface extends MultiDimSort&lt;T&gt; to implement multivariate sorting algorithms that sort objects...">
<polygon fill="none" stroke="black" points="135,-51.5 135,-92.5 299,-92.5 299,-51.5 135,-51.5"/>
<text text-anchor="start" x="143" y="-80.5" font-family="Helvetica,sans-Serif" font-size="10.00">MultiDimSortComparable</text>
<text text-anchor="start" x="143" y="-69.5" font-family="Helvetica,sans-Serif" font-size="10.00">&lt; T extends MultiDimComparable</text>
<text text-anchor="middle" x="217" y="-58.5" font-family="Helvetica,sans-Serif" font-size="10.00">&lt;?super T &gt; &gt;</text>
</a>
</g>
</g>
<!-- Node2&#45;&gt;Node1 -->
<g id="edge1" class="edge"><title>Node2&#45;&gt;Node1</title>
<path fill="none" stroke="midnightblue" d="M309.03,-74.8324C392.933,-76.3028 520.768,-75.657 631,-63 636.786,-62.3357 642.752,-61.5884 648.753,-60.7912"/>
<polygon fill="midnightblue" stroke="midnightblue" points="309.085,-71.3329 299.02,-74.6433 308.952,-78.3317 309.085,-71.3329"/>
</g>
<!-- Node5 -->
<g id="node5" class="node"><title>Node5</title>
<g id="a_node5"><a xlink:href="classumontreal_1_1ssj_1_1util_1_1sort_1_1BatchSort_3_01T_01extends_01MultiDimComparable_3_04super_01T_01_4_01_4.html" target="_top" xlink:title="This class implements a MultiDimSortComparable that performs a batch sort on multivariate arrays...">
<polygon fill="none" stroke="black" points="336,-21.5 336,-62.5 453,-62.5 453,-21.5 336,-21.5"/>
<text text-anchor="start" x="344" y="-50.5" font-family="Helvetica,sans-Serif" font-size="10.00">BatchSort&lt; T extends</text>
<text text-anchor="start" x="344" y="-39.5" font-family="Helvetica,sans-Serif" font-size="10.00"> MultiDimComparable&lt;</text>
<text text-anchor="middle" x="394.5" y="-28.5" font-family="Helvetica,sans-Serif" font-size="10.00">?super T &gt; &gt;</text>
</a>
</g>
</g>
<!-- Node2&#45;&gt;Node5 -->
<g id="edge5" class="edge"><title>Node2&#45;&gt;Node5</title>
<path fill="none" stroke="midnightblue" d="M308.967,-56.45C318.087,-54.891 327.161,-53.34 335.794,-51.8643"/>
<polygon fill="midnightblue" stroke="midnightblue" points="308.339,-53.0066 299.072,-58.1416 309.518,-59.9065 308.339,-53.0066"/>
</g>
<!-- Node3 -->
<g id="node3" class="node"><title>Node3</title>
<g id="a_node3"><a xlink:href="interfaceumontreal_1_1ssj_1_1util_1_1sort_1_1MultiDimSort_3_01T_01_4.html" target="_top" xlink:title="This interface is meant to be implemented by certain multivariate sorting algorithms that sort object...">
<polygon fill="none" stroke="black" points="0,-62.5 0,-81.5 98,-81.5 98,-62.5 0,-62.5"/>
<text text-anchor="middle" x="49" y="-69.5" font-family="Helvetica,sans-Serif" font-size="10.00">MultiDimSort&lt; T &gt;</text>
</a>
</g>
</g>
<!-- Node3&#45;&gt;Node2 -->
<g id="edge2" class="edge"><title>Node3&#45;&gt;Node2</title>
<path fill="none" stroke="midnightblue" d="M108.028,-72C116.739,-72 125.855,-72 134.939,-72"/>
<polygon fill="midnightblue" stroke="midnightblue" points="108.014,-68.5001 98.0141,-72 108.014,-75.5001 108.014,-68.5001"/>
</g>
<!-- Node4 -->
<g id="node4" class="node"><title>Node4</title>
<g id="a_node4"><a xlink:href="classumontreal_1_1ssj_1_1util_1_1sort_1_1BatchSortPow2.html" target="_top" xlink:title="This is a subclass of BatchSort for which the batch numbers &#160;are always powers of 2...">
<polygon fill="none" stroke="black" points="492.5,-38.5 492.5,-57.5 577.5,-57.5 577.5,-38.5 492.5,-38.5"/>
<text text-anchor="middle" x="535" y="-45.5" font-family="Helvetica,sans-Serif" font-size="10.00">BatchSortPow2</text>
</a>
</g>
</g>
<!-- Node4&#45;&gt;Node1 -->
<g id="edge3" class="edge"><title>Node4&#45;&gt;Node1</title>
<path fill="none" stroke="#9a32cd" stroke-dasharray="5,2" d="M587.727,-48C606.509,-48 628.211,-48 648.918,-48"/>
<polygon fill="#9a32cd" stroke="#9a32cd" points="587.618,-44.5001 577.618,-48 587.618,-51.5001 587.618,-44.5001"/>
<text text-anchor="middle" x="614.5" y="-51" font-family="Helvetica,sans-Serif" font-size="10.00"> bsort</text>
</g>
<!-- Node5&#45;&gt;Node4 -->
<g id="edge4" class="edge"><title>Node5&#45;&gt;Node4</title>
<path fill="none" stroke="midnightblue" d="M463.034,-44.9257C473.082,-45.361 483.179,-45.7983 492.476,-46.2011"/>
<polygon fill="midnightblue" stroke="midnightblue" points="463.175,-41.4286 453.033,-44.4924 462.872,-48.422 463.175,-41.4286"/>
</g>
<!-- Node6 -->
<g id="node6" class="node"><title>Node6</title>
<g id="a_node6"><a xlink:href="classumontreal_1_1ssj_1_1util_1_1sort_1_1HilbertCurveMap.html" target="_top" xlink:title="This class implements the mapping of a Hilbert curve in the &#45;dimensional unit hypercube ...">
<polygon fill="none" stroke="black" points="490,-0.5 490,-19.5 580,-19.5 580,-0.5 490,-0.5"/>
<text text-anchor="middle" x="535" y="-7.5" font-family="Helvetica,sans-Serif" font-size="10.00">HilbertCurveMap</text>
</a>
</g>
</g>
<!-- Node6&#45;&gt;Node1 -->
<g id="edge6" class="edge"><title>Node6&#45;&gt;Node1</title>
<path fill="none" stroke="#9a32cd" stroke-dasharray="5,2" d="M589.866,-20.551C608.097,-24.1221 628.881,-28.1932 648.758,-32.0867"/>
<polygon fill="#9a32cd" stroke="#9a32cd" points="590.508,-17.1104 580.022,-18.6228 589.162,-23.9798 590.508,-17.1104"/>
<text text-anchor="middle" x="614.5" y="-31" font-family="Helvetica,sans-Serif" font-size="10.00"> hcMap</text>
</g>
</g>
</svg>
        <g id="navigator" transform="translate(0 0)" fill="#404254">
                <rect fill="#f2f5e9" fill-opacity="0.5" stroke="#606060" stroke-width=".5" x="0" y="0" width="60" height="60"/>
                <use id="zoomplus" xlink:href="#zoomPlus" x="17" y="9" onmousedown="handleZoom(evt,'in')"/>
                <use id="zoomminus" xlink:href="#zoomMin" x="42" y="9" onmousedown="handleZoom(evt,'out')"/>
                <use id="reset" xlink:href="#resetDef" x="30" y="36" onmousedown="handleReset()"/>
                <g id="arrowUp" xlink:href="#dirArrow" transform="translate(30 24)" onmousedown="handlePan(0,-1)">
                  <use xlink:href="#rim" fill="#404040">
                        <set attributeName="fill" to="#808080" begin="arrowUp.mouseover" end="arrowUp.mouseout"/>
                  </use>
                  <path fill="none" stroke="white" stroke-width="1.5" d="M0,-3.0v7 M-2.5,-0.5L0,-3.0L2.5,-0.5"/>
                </g>
                <g id="arrowRight" xlink:href="#dirArrow" transform="rotate(90) translate(36 -43)" onmousedown="handlePan(1,0)">
                  <use xlink:href="#rim" fill="#404040">
                        <set attributeName="fill" to="#808080" begin="arrowRight.mouseover" end="arrowRight.mouseout"/>
                  </use>
                  <path fill="none" stroke="white" stroke-width="1.5" d="M0,-3.0v7 M-2.5,-0.5L0,-3.0L2.5,-0.5"/>
                </g>
                <g id="arrowDown" xlink:href="#dirArrow" transform="rotate(180) translate(-30 -48)" onmousedown="handlePan(0,1)">
                  <use xlink:href="#rim" fill="#404040">
                        <set attributeName="fill" to="#808080" begin="arrowDown.mouseover" end="arrowDown.mouseout"/>
                  </use>
                  <path fill="none" stroke="white" stroke-width="1.5" d="M0,-3.0v7 M-2.5,-0.5L0,-3.0L2.5,-0.5"/>
                </g>
                <g id="arrowLeft" xlink:href="#dirArrow" transform="rotate(270) translate(-36 17)" onmousedown="handlePan(-1,0)">
                  <use xlink:href="#rim" fill="#404040">
                        <set attributeName="fill" to="#808080" begin="arrowLeft.mouseover" end="arrowLeft.mouseout"/>
                  </use>
                  <path fill="none" stroke="white" stroke-width="1.5" d="M0,-3.0v7 M-2.5,-0.5L0,-3.0L2.5,-0.5"/>
                </g>
        </g>
        <svg viewBox="0 0 15 15" width="100%" height="30px" preserveAspectRatio="xMaxYMin meet">
         <g id="arrow_out" transform="scale(0.3 0.3)">
          <a xlink:href="classumontreal_1_1ssj_1_1util_1_1sort_1_1HilbertCurveBatchSort_3_01T_01extends_01MultiDimComparabb011a09afb47f94dbecaea0b6b55ce9_org.svg" target="_base">
           <rect id="button" ry="5" rx="5" y="6" x="6" height="38" width="38"
                fill="#f2f5e9" fill-opacity="0.5" stroke="#606060" stroke-width="1.0"/>
           <path id="arrow"
             d="M 11.500037,31.436501 C 11.940474,20.09759 22.043105,11.32322 32.158766,21.979434 L 37.068811,17.246167 C 37.068811,17.246167 37.088388,32 37.088388,32 L 22.160133,31.978069 C 22.160133,31.978069 26.997745,27.140456 26.997745,27.140456 C 18.528582,18.264221 13.291696,25.230495 11.500037,31.436501 z"
             style="fill:#404040;"/>
          </a>
         </g>
        </svg>
</svg>
