<?xml version="1.0" encoding="UTF-8" standalone="no"?>
<!DOCTYPE svg PUBLIC "-//W3C//DTD SVG 1.1//EN"
 "http://www.w3.org/Graphics/SVG/1.1/DTD/svg11.dtd">
<!-- Generated by graphviz version 2.38.0 (20140413.2041)
 -->
<!-- Title: BatchMeansSim Pages: 1 -->
<svg width="232pt" height="276pt"
 viewBox="0.00 0.00 232.00 276.00" xmlns="http://www.w3.org/2000/svg" xmlns:xlink="http://www.w3.org/1999/xlink">
<g id="graph0" class="graph" transform="scale(1 1) rotate(0) translate(4 272)">
<title>BatchMeansSim</title>
<!-- Node1 -->
<g id="node1" class="node"><title>Node1</title>
<polygon fill="#bfbfbf" stroke="black" points="58.5,-0.5 58.5,-19.5 147.5,-19.5 147.5,-0.5 58.5,-0.5"/>
<text text-anchor="middle" x="103" y="-7.5" font-family="Helvetica,sans-Serif" font-size="10.00">BatchMeansSim</text>
</g>
<!-- Node2 -->
<g id="node2" class="node"><title>Node2</title>
<g id="a_node2"><a xlink:href="classumontreal_1_1ssj_1_1simexp_1_1SimExp.html" target="_top" xlink:title="Represents a framework for performing experiments using simulation. ">
<polygon fill="none" stroke="black" points="77.5,-57.5 77.5,-76.5 128.5,-76.5 128.5,-57.5 77.5,-57.5"/>
<text text-anchor="middle" x="103" y="-64.5" font-family="Helvetica,sans-Serif" font-size="10.00">SimExp</text>
</a>
</g>
</g>
<!-- Node2&#45;&gt;Node1 -->
<g id="edge1" class="edge"><title>Node2&#45;&gt;Node1</title>
<path fill="none" stroke="midnightblue" d="M103,-47.1166C103,-37.8173 103,-27.0557 103,-19.7149"/>
<polygon fill="midnightblue" stroke="midnightblue" points="99.5001,-47.4062 103,-57.4062 106.5,-47.4063 99.5001,-47.4062"/>
</g>
<!-- Node3 -->
<g id="node3" class="node"><title>Node3</title>
<g id="a_node3"><a xlink:href="classumontreal_1_1ssj_1_1simevents_1_1Simulator.html" target="_top" xlink:title="Represents the executive of a discrete&#45;event simulator. ">
<polygon fill="none" stroke="black" points="74,-124.5 74,-143.5 132,-143.5 132,-124.5 74,-124.5"/>
<text text-anchor="middle" x="103" y="-131.5" font-family="Helvetica,sans-Serif" font-size="10.00">Simulator</text>
</a>
</g>
</g>
<!-- Node3&#45;&gt;Node2 -->
<g id="edge2" class="edge"><title>Node3&#45;&gt;Node2</title>
<path fill="none" stroke="#9a32cd" stroke-dasharray="5,2" d="M103,-114.037C103,-101.67 103,-86.1198 103,-76.6273"/>
<polygon fill="#9a32cd" stroke="#9a32cd" points="99.5001,-114.234 103,-124.234 106.5,-114.234 99.5001,-114.234"/>
<text text-anchor="middle" x="112.5" y="-98" font-family="Helvetica,sans-Serif" font-size="10.00"> sim</text>
</g>
<!-- Node3&#45;&gt;Node3 -->
<g id="edge3" class="edge"><title>Node3&#45;&gt;Node3</title>
<path fill="none" stroke="#9a32cd" stroke-dasharray="5,2" d="M142.603,-139.084C147.091,-138.132 150,-136.438 150,-134 150,-130 142.167,-128 132.375,-128"/>
<polygon fill="#9a32cd" stroke="#9a32cd" points="142.023,-135.622 132.375,-140 142.647,-142.594 142.023,-135.622"/>
<text text-anchor="middle" x="187" y="-131.5" font-family="Helvetica,sans-Serif" font-size="10.00"> defaultSimulator</text>
</g>
<!-- Node4 -->
<g id="node4" class="node"><title>Node4</title>
<g id="a_node4"><a xlink:href="interfaceumontreal_1_1ssj_1_1simevents_1_1eventlist_1_1EventList.html" target="_top" xlink:title="An interface for implementations of event lists. ">
<polygon fill="none" stroke="black" points="17,-191.5 17,-210.5 75,-210.5 75,-191.5 17,-191.5"/>
<text text-anchor="middle" x="46" y="-198.5" font-family="Helvetica,sans-Serif" font-size="10.00">EventList</text>
</a>
</g>
</g>
<!-- Node4&#45;&gt;Node3 -->
<g id="edge4" class="edge"><title>Node4&#45;&gt;Node3</title>
<path fill="none" stroke="#9a32cd" stroke-dasharray="5,2" d="M55.5556,-182.303C59.577,-175.605 64.5816,-168.126 70,-162 76.0814,-155.125 84.0138,-148.575 90.5774,-143.649"/>
<polygon fill="#9a32cd" stroke="#9a32cd" points="52.3353,-180.886 50.4336,-191.309 58.42,-184.347 52.3353,-180.886"/>
<text text-anchor="middle" x="91.5" y="-165" font-family="Helvetica,sans-Serif" font-size="10.00"> eventList</text>
</g>
<!-- Node5 -->
<g id="node5" class="node"><title>Node5</title>
<polygon fill="none" stroke="#bfbfbf" points="0,-248.5 0,-267.5 92,-267.5 92,-248.5 0,-248.5"/>
<text text-anchor="middle" x="46" y="-255.5" font-family="Helvetica,sans-Serif" font-size="10.00">Iterable&lt; Event &gt;</text>
</g>
<!-- Node5&#45;&gt;Node4 -->
<g id="edge5" class="edge"><title>Node5&#45;&gt;Node4</title>
<path fill="none" stroke="midnightblue" d="M46,-238.117C46,-228.817 46,-218.056 46,-210.715"/>
<polygon fill="midnightblue" stroke="midnightblue" points="42.5001,-238.406 46,-248.406 49.5001,-238.406 42.5001,-238.406"/>
</g>
<!-- Node6 -->
<g id="node6" class="node"><title>Node6</title>
<g id="a_node6"><a xlink:href="classumontreal_1_1ssj_1_1simevents_1_1ContinuousState.html" target="_top" xlink:title="Represents the portion of the simulator’s state associated with continuous&#45;time simulation. ">
<polygon fill="none" stroke="black" points="92.5,-191.5 92.5,-210.5 181.5,-210.5 181.5,-191.5 92.5,-191.5"/>
<text text-anchor="middle" x="137" y="-198.5" font-family="Helvetica,sans-Serif" font-size="10.00">ContinuousState</text>
</a>
</g>
</g>
<!-- Node6&#45;&gt;Node3 -->
<g id="edge6" class="edge"><title>Node6&#45;&gt;Node3</title>
<path fill="none" stroke="#9a32cd" stroke-dasharray="5,2" d="M127.67,-182.163C121.113,-169.628 112.63,-153.41 107.513,-143.627"/>
<polygon fill="#9a32cd" stroke="#9a32cd" points="124.678,-183.995 132.415,-191.234 130.881,-180.751 124.678,-183.995"/>
<text text-anchor="middle" x="159" y="-165" font-family="Helvetica,sans-Serif" font-size="10.00"> continuousState</text>
</g>
</g>
</svg>
