<?xml version="1.0" encoding="UTF-8" standalone="no"?>
<!DOCTYPE svg PUBLIC "-//W3C//DTD SVG 1.1//EN"
 "http://www.w3.org/Graphics/SVG/1.1/DTD/svg11.dtd">
<!-- Generated by graphviz version 2.26.3 (20100126.1600)
 -->
<!-- Title: Simulator Pages: 1 -->
<svg width="232pt" height="160pt"
 viewBox="0.00 0.00 232.00 160.00" xmlns="http://www.w3.org/2000/svg" xmlns:xlink="http://www.w3.org/1999/xlink">
<g id="graph1" class="graph" transform="scale(1 1) rotate(0) translate(4 156)">
<title>Simulator</title>
<!-- Node1 -->
<g id="node1" class="node"><title>Node1</title>
<polygon fill="#bfbfbf" stroke="black" points="74,-1 74,-21 132,-21 132,-1 74,-1"/>
<text text-anchor="middle" x="103" y="-8" font-family="Helvetica,sans-Serif" font-size="10.00">Simulator</text>
</g>
<!-- Node1&#45;&gt;Node1 -->
<g id="edge2" class="edge"><title>Node1&#45;&gt;Node1</title>
<path fill="none" stroke="#9a32cd" stroke-dasharray="5,2" d="M142.603,-16.4023C147.091,-15.3906 150,-13.5898 150,-11 150,-6.75 142.167,-4.625 132.375,-4.625"/>
<polygon fill="#9a32cd" stroke="#9a32cd" points="141.999,-12.9438 132.375,-17.375 142.661,-19.9124 141.999,-12.9438"/>
<text text-anchor="middle" x="187" y="-8" font-family="Helvetica,sans-Serif" font-size="10.00"> defaultSimulator</text>
</g>
<!-- Node2 -->
<g id="node3" class="node"><title>Node2</title>
<a xlink:href="interfaceumontreal_1_1ssj_1_1simevents_1_1eventlist_1_1EventList.html" target="_top" xlink:title="An interface for implementations of event lists. ">
<polygon fill="none" stroke="black" points="17,-71 17,-91 75,-91 75,-71 17,-71"/>
<text text-anchor="middle" x="46" y="-78" font-family="Helvetica,sans-Serif" font-size="10.00">EventList</text>
</a>
</g>
<!-- Node2&#45;&gt;Node1 -->
<g id="edge4" class="edge"><title>Node2&#45;&gt;Node1</title>
<path fill="none" stroke="#9a32cd" stroke-dasharray="5,2" d="M55.5053,-61.9038C59.5096,-54.7016 64.5156,-46.649 70,-40 75.7267,-33.0572 83.1854,-26.3533 89.5627,-21.1433"/>
<polygon fill="#9a32cd" stroke="#9a32cd" points="52.2842,-60.5085 50.7148,-70.9865 58.4758,-63.7742 52.2842,-60.5085"/>
<text text-anchor="middle" x="91.5" y="-43" font-family="Helvetica,sans-Serif" font-size="10.00"> eventList</text>
</g>
<!-- Node3 -->
<g id="node5" class="node"><title>Node3</title>
<polygon fill="none" stroke="#bfbfbf" points="0,-131 0,-151 92,-151 92,-131 0,-131"/>
<text text-anchor="middle" x="46" y="-138" font-family="Helvetica,sans-Serif" font-size="10.00">Iterable&lt; Event &gt;</text>
</g>
<!-- Node3&#45;&gt;Node2 -->
<g id="edge6" class="edge"><title>Node3&#45;&gt;Node2</title>
<path fill="none" stroke="midnightblue" d="M46,-120.516C46,-110.562 46,-99.0495 46,-91.0279"/>
<polygon fill="midnightblue" stroke="midnightblue" points="42.5001,-120.822 46,-130.822 49.5001,-120.822 42.5001,-120.822"/>
</g>
<!-- Node4 -->
<g id="node7" class="node"><title>Node4</title>
<a xlink:href="classumontreal_1_1ssj_1_1simevents_1_1ContinuousState.html" target="_top" xlink:title="Represents the portion of the simulator’s state associated with continuous&#45;time simulation. ">
<polygon fill="none" stroke="black" points="92.5,-71 92.5,-91 181.5,-91 181.5,-71 92.5,-71"/>
<text text-anchor="middle" x="137" y="-78" font-family="Helvetica,sans-Serif" font-size="10.00">ContinuousState</text>
</a>
</g>
<!-- Node4&#45;&gt;Node1 -->
<g id="edge8" class="edge"><title>Node4&#45;&gt;Node1</title>
<path fill="none" stroke="#9a32cd" stroke-dasharray="5,2" d="M127.668,-61.7865C121.258,-48.5906 113.009,-31.6072 107.862,-21.0107"/>
<polygon fill="#9a32cd" stroke="#9a32cd" points="124.611,-63.5048 132.129,-70.9707 130.908,-60.4464 124.611,-63.5048"/>
<text text-anchor="middle" x="159" y="-43" font-family="Helvetica,sans-Serif" font-size="10.00"> continuousState</text>
</g>
</g>
</svg>
