<?xml version="1.0" encoding="UTF-8" standalone="no"?>
<!DOCTYPE svg PUBLIC "-//W3C//DTD SVG 1.1//EN"
 "http://www.w3.org/Graphics/SVG/1.1/DTD/svg11.dtd">
<!-- Generated by graphviz version 2.38.0 (20140413.2041)
 -->
<!-- Title: ListOfFunctionOfMultipleMeansTallies&lt; E extendsFunctionOfMultipleMeansTally &gt; Pages: 1 -->
<svg width="248pt" height="173pt"
 viewBox="0.00 0.00 248.00 173.00" xmlns="http://www.w3.org/2000/svg" xmlns:xlink="http://www.w3.org/1999/xlink">
<g id="graph0" class="graph" transform="scale(1 1) rotate(0) translate(4 169)">
<title>ListOfFunctionOfMultipleMeansTallies&lt; E extendsFunctionOfMultipleMeansTally &gt;</title>
<!-- Node1 -->
<g id="node1" class="node"><title>Node1</title>
<polygon fill="#bfbfbf" stroke="black" points="24.5,-0.5 24.5,-41.5 189.5,-41.5 189.5,-0.5 24.5,-0.5"/>
<text text-anchor="start" x="32.5" y="-29.5" font-family="Helvetica,sans-Serif" font-size="10.00">ListOfFunctionOfMultiple</text>
<text text-anchor="start" x="32.5" y="-18.5" font-family="Helvetica,sans-Serif" font-size="10.00">MeansTallies&lt; E extendsFunction</text>
<text text-anchor="middle" x="107" y="-7.5" font-family="Helvetica,sans-Serif" font-size="10.00">OfMultipleMeansTally &gt;</text>
</g>
<!-- Node2 -->
<g id="node2" class="node"><title>Node2</title>
<g id="a_node2"><a xlink:href="classumontreal_1_1ssj_1_1stat_1_1list_1_1ListOfStatProbes_3_01E_01extends_01StatProbe_01_4.html" target="_top" xlink:title="Represents a list of statistical probes that can be managed simultaneously. ">
<polygon fill="none" stroke="black" points="52,-78.5 52,-108.5 162,-108.5 162,-78.5 52,-78.5"/>
<text text-anchor="start" x="60" y="-96.5" font-family="Helvetica,sans-Serif" font-size="10.00">ListOfStatProbes&lt; E</text>
<text text-anchor="middle" x="107" y="-85.5" font-family="Helvetica,sans-Serif" font-size="10.00"> extends StatProbe &gt;</text>
</a>
</g>
</g>
<!-- Node2&#45;&gt;Node1 -->
<g id="edge1" class="edge"><title>Node2&#45;&gt;Node1</title>
<path fill="none" stroke="midnightblue" d="M107,-67.9815C107,-59.3468 107,-49.7625 107,-41.5884"/>
<polygon fill="midnightblue" stroke="midnightblue" points="103.5,-68.2332 107,-78.2333 110.5,-68.2333 103.5,-68.2332"/>
</g>
<!-- Node3 -->
<g id="node3" class="node"><title>Node3</title>
<polygon fill="none" stroke="#bfbfbf" points="0,-145.5 0,-164.5 60,-164.5 60,-145.5 0,-145.5"/>
<text text-anchor="middle" x="30" y="-152.5" font-family="Helvetica,sans-Serif" font-size="10.00">Cloneable</text>
</g>
<!-- Node3&#45;&gt;Node2 -->
<g id="edge2" class="edge"><title>Node3&#45;&gt;Node2</title>
<path fill="none" stroke="midnightblue" d="M49.1588,-139.195C61.3009,-129.813 76.9102,-117.751 88.8526,-108.523"/>
<polygon fill="midnightblue" stroke="midnightblue" points="46.805,-136.591 41.0322,-145.475 51.0852,-142.13 46.805,-136.591"/>
</g>
<!-- Node4 -->
<g id="node4" class="node"><title>Node4</title>
<polygon fill="none" stroke="#bfbfbf" points="78.5,-145.5 78.5,-164.5 135.5,-164.5 135.5,-145.5 78.5,-145.5"/>
<text text-anchor="middle" x="107" y="-152.5" font-family="Helvetica,sans-Serif" font-size="10.00">List&lt; E &gt;</text>
</g>
<!-- Node4&#45;&gt;Node2 -->
<g id="edge3" class="edge"><title>Node4&#45;&gt;Node2</title>
<path fill="none" stroke="midnightblue" d="M107,-135.235C107,-126.586 107,-116.497 107,-108.523"/>
<polygon fill="midnightblue" stroke="midnightblue" points="103.5,-135.475 107,-145.475 110.5,-135.475 103.5,-135.475"/>
</g>
<!-- Node5 -->
<g id="node5" class="node"><title>Node5</title>
<polygon fill="none" stroke="#bfbfbf" points="154,-145.5 154,-164.5 240,-164.5 240,-145.5 154,-145.5"/>
<text text-anchor="middle" x="197" y="-152.5" font-family="Helvetica,sans-Serif" font-size="10.00">RandomAccess</text>
</g>
<!-- Node5&#45;&gt;Node2 -->
<g id="edge4" class="edge"><title>Node5&#45;&gt;Node2</title>
<path fill="none" stroke="midnightblue" d="M175.429,-139.739C161.125,-130.282 142.441,-117.93 128.211,-108.523"/>
<polygon fill="midnightblue" stroke="midnightblue" points="173.833,-142.88 184.105,-145.475 177.694,-137.041 173.833,-142.88"/>
</g>
</g>
</svg>
