<?xml version="1.0" encoding="UTF-8" standalone="no"?>
<!DOCTYPE svg PUBLIC "-//W3C//DTD SVG 1.1//EN"
 "http://www.w3.org/Graphics/SVG/1.1/DTD/svg11.dtd">
<!-- Generated by graphviz version 2.26.3 (20100126.1600)
 -->
<!-- Title: MultinormalPCAGen Pages: 1 -->
<svg width="128pt" height="146pt"
 viewBox="0.00 0.00 128.00 146.00" xmlns="http://www.w3.org/2000/svg" xmlns:xlink="http://www.w3.org/1999/xlink">
<g id="graph1" class="graph" transform="scale(1 1) rotate(0) translate(4 142)">
<title>MultinormalPCAGen</title>
<!-- Node1 -->
<g id="node1" class="node"><title>Node1</title>
<polygon fill="#bfbfbf" stroke="black" points="7.5,-1 7.5,-21 112.5,-21 112.5,-1 7.5,-1"/>
<text text-anchor="middle" x="60" y="-8" font-family="Helvetica,sans-Serif" font-size="10.00">MultinormalPCAGen</text>
</g>
<!-- Node2 -->
<g id="node2" class="node"><title>Node2</title>
<a xlink:href="classumontreal_1_1ssj_1_1randvarmulti_1_1MultinormalGen.html" target="_top" xlink:title="Extends RandomMultivariateGen for a multivariate normal (or multinormal) distribution  ...">
<polygon fill="none" stroke="black" points="17.5,-59 17.5,-79 102.5,-79 102.5,-59 17.5,-59"/>
<text text-anchor="middle" x="60" y="-66" font-family="Helvetica,sans-Serif" font-size="10.00">MultinormalGen</text>
</a>
</g>
<!-- Node2&#45;&gt;Node1 -->
<g id="edge2" class="edge"><title>Node2&#45;&gt;Node1</title>
<path fill="none" stroke="midnightblue" d="M60,-48.8902C60,-39.6201 60,-29.0083 60,-21.3776"/>
<polygon fill="midnightblue" stroke="midnightblue" points="56.5001,-48.8971 60,-58.8972 63.5001,-48.8972 56.5001,-48.8971"/>
</g>
<!-- Node3 -->
<g id="node4" class="node"><title>Node3</title>
<a xlink:href="classumontreal_1_1ssj_1_1randvarmulti_1_1RandomMultivariateGen.html" target="_top" xlink:title="This class is the multivariate counterpart of umontreal.ssj.randvar.RandomVariateGen. ">
<polygon fill="none" stroke="black" points="-0.5,-117 -0.5,-137 120.5,-137 120.5,-117 -0.5,-117"/>
<text text-anchor="middle" x="60" y="-124" font-family="Helvetica,sans-Serif" font-size="10.00">RandomMultivariateGen</text>
</a>
</g>
<!-- Node3&#45;&gt;Node2 -->
<g id="edge4" class="edge"><title>Node3&#45;&gt;Node2</title>
<path fill="none" stroke="midnightblue" d="M60,-106.89C60,-97.6201 60,-87.0083 60,-79.3776"/>
<polygon fill="midnightblue" stroke="midnightblue" points="56.5001,-106.897 60,-116.897 63.5001,-106.897 56.5001,-106.897"/>
</g>
</g>
</svg>
