<?xml version="1.0" encoding="UTF-8" standalone="no"?>
<!DOCTYPE svg PUBLIC "-//W3C//DTD SVG 1.1//EN"
 "http://www.w3.org/Graphics/SVG/1.1/DTD/svg11.dtd">
<!-- Generated by graphviz version 2.26.3 (20100126.1600)
 -->
<!-- Title: CycleBasedPointSet Pages: 1 -->
<svg width="291pt" height="204pt"
 viewBox="0.00 0.00 291.00 204.00" xmlns="http://www.w3.org/2000/svg" xmlns:xlink="http://www.w3.org/1999/xlink">
<g id="graph1" class="graph" transform="scale(1 1) rotate(0) translate(4 200)">
<title>CycleBasedPointSet</title>
<!-- Node1 -->
<g id="node1" class="node"><title>Node1</title>
<polygon fill="#bfbfbf" stroke="black" points="131.5,-117 131.5,-137 238.5,-137 238.5,-117 131.5,-117"/>
<text text-anchor="middle" x="185" y="-124" font-family="Helvetica,sans-Serif" font-size="10.00">CycleBasedPointSet</text>
</g>
<!-- Node3 -->
<g id="node5" class="node"><title>Node3</title>
<a xlink:href="classumontreal_1_1ssj_1_1hups_1_1CycleBasedPointSetBase2.html" target="_top" xlink:title="Similar to CycleBasedPointSet, except that the successive values in the cycles are stored as integers...">
<polygon fill="none" stroke="black" points="57,-59 57,-79 191,-79 191,-59 57,-59"/>
<text text-anchor="middle" x="124" y="-66" font-family="Helvetica,sans-Serif" font-size="10.00">CycleBasedPointSetBase2</text>
</a>
</g>
<!-- Node1&#45;&gt;Node3 -->
<g id="edge4" class="edge"><title>Node1&#45;&gt;Node3</title>
<path fill="none" stroke="midnightblue" d="M166.973,-109.86C156.564,-99.9622 143.812,-87.8377 134.914,-79.3776"/>
<polygon fill="midnightblue" stroke="midnightblue" points="164.716,-112.543 174.375,-116.897 169.539,-107.47 164.716,-112.543"/>
</g>
<!-- Node6 -->
<g id="node11" class="node"><title>Node6</title>
<a xlink:href="classumontreal_1_1ssj_1_1hups_1_1LCGPointSet.html" target="_top" xlink:title="Implements a recurrence&#45;based point set defined via a linear congruential recurrence of the form &#160;and...">
<polygon fill="none" stroke="black" points="209,-59 209,-79 283,-79 283,-59 209,-59"/>
<text text-anchor="middle" x="246" y="-66" font-family="Helvetica,sans-Serif" font-size="10.00">LCGPointSet</text>
</a>
</g>
<!-- Node1&#45;&gt;Node6 -->
<g id="edge10" class="edge"><title>Node1&#45;&gt;Node6</title>
<path fill="none" stroke="midnightblue" d="M203.027,-109.86C213.436,-99.9622 226.188,-87.8377 235.086,-79.3776"/>
<polygon fill="midnightblue" stroke="midnightblue" points="200.461,-107.47 195.625,-116.897 205.284,-112.543 200.461,-107.47"/>
</g>
<!-- Node2 -->
<g id="node2" class="node"><title>Node2</title>
<a xlink:href="classumontreal_1_1ssj_1_1hups_1_1PointSet.html" target="_top" xlink:title="This abstract class defines the basic methods for accessing and manipulating point sets...">
<polygon fill="none" stroke="black" points="158,-175 158,-195 212,-195 212,-175 158,-175"/>
<text text-anchor="middle" x="185" y="-182" font-family="Helvetica,sans-Serif" font-size="10.00">PointSet</text>
</a>
</g>
<!-- Node2&#45;&gt;Node1 -->
<g id="edge2" class="edge"><title>Node2&#45;&gt;Node1</title>
<path fill="none" stroke="midnightblue" d="M185,-164.89C185,-155.62 185,-145.008 185,-137.378"/>
<polygon fill="midnightblue" stroke="midnightblue" points="181.5,-164.897 185,-174.897 188.5,-164.897 181.5,-164.897"/>
</g>
<!-- Node4 -->
<g id="node7" class="node"><title>Node4</title>
<a xlink:href="classumontreal_1_1ssj_1_1hups_1_1F2wCycleBasedLFSR.html" target="_top" xlink:title="This class creates a point set based upon a linear feedback shift register sequence. ">
<polygon fill="none" stroke="black" points="0,-1 0,-21 112,-21 112,-1 0,-1"/>
<text text-anchor="middle" x="56" y="-8" font-family="Helvetica,sans-Serif" font-size="10.00">F2wCycleBasedLFSR</text>
</a>
</g>
<!-- Node3&#45;&gt;Node4 -->
<g id="edge6" class="edge"><title>Node3&#45;&gt;Node4</title>
<path fill="none" stroke="midnightblue" d="M104.245,-52.1504C92.5797,-42.2003 78.1828,-29.9207 68.1668,-21.3776"/>
<polygon fill="midnightblue" stroke="midnightblue" points="102.276,-55.0706 112.155,-58.8972 106.818,-49.7447 102.276,-55.0706"/>
</g>
<!-- Node5 -->
<g id="node9" class="node"><title>Node5</title>
<a xlink:href="classumontreal_1_1ssj_1_1hups_1_1F2wCycleBasedPolyLCG.html" target="_top" xlink:title="This class creates a point set based upon a linear congruential sequence in the finite field ...">
<polygon fill="none" stroke="black" points="130,-1 130,-21 256,-21 256,-1 130,-1"/>
<text text-anchor="middle" x="193" y="-8" font-family="Helvetica,sans-Serif" font-size="10.00">F2wCycleBasedPolyLCG</text>
</a>
</g>
<!-- Node3&#45;&gt;Node5 -->
<g id="edge8" class="edge"><title>Node3&#45;&gt;Node5</title>
<path fill="none" stroke="midnightblue" d="M143.701,-52.4396C155.598,-42.4391 170.392,-30.0036 180.654,-21.3776"/>
<polygon fill="midnightblue" stroke="midnightblue" points="141.422,-49.7834 136.019,-58.8972 145.926,-55.1418 141.422,-49.7834"/>
</g>
</g>
</svg>
