<?xml version="1.0" encoding="UTF-8" standalone="no"?>
<!DOCTYPE svg PUBLIC "-//W3C//DTD SVG 1.1//EN"
 "http://www.w3.org/Graphics/SVG/1.1/DTD/svg11.dtd">
<!-- Generated by graphviz version 2.38.0 (20140413.2041)
 -->
<!-- Title: Discrepancy Pages: 1 -->
<svg width="535pt" height="332pt"
 viewBox="0.00 0.00 535.00 332.00" xmlns="http://www.w3.org/2000/svg" xmlns:xlink="http://www.w3.org/1999/xlink">
<g id="graph0" class="graph" transform="scale(1 1) rotate(0) translate(4 328)">
<title>Discrepancy</title>
<!-- Node1 -->
<g id="node1" class="node"><title>Node1</title>
<polygon fill="#bfbfbf" stroke="black" points="0,-152.5 0,-171.5 71,-171.5 71,-152.5 0,-152.5"/>
<text text-anchor="middle" x="35.5" y="-159.5" font-family="Helvetica,sans-Serif" font-size="10.00">Discrepancy</text>
</g>
<!-- Node2 -->
<g id="node2" class="node"><title>Node2</title>
<g id="a_node2"><a xlink:href="classumontreal_1_1ssj_1_1discrepancy_1_1BigDiscrepancy.html" target="_top" xlink:title="This abstract class is the base class of all discrepancy classes programmed with floating&#45;point numbe...">
<polygon fill="none" stroke="black" points="114,-304.5 114,-323.5 200,-323.5 200,-304.5 114,-304.5"/>
<text text-anchor="middle" x="157" y="-311.5" font-family="Helvetica,sans-Serif" font-size="10.00">BigDiscrepancy</text>
</a>
</g>
</g>
<!-- Node1&#45;&gt;Node2 -->
<g id="edge1" class="edge"><title>Node1&#45;&gt;Node2</title>
<path fill="none" stroke="midnightblue" d="M42.0207,-181.518C51.0673,-210.165 71.6675,-263.593 107,-295 111.296,-298.819 116.445,-301.909 121.768,-304.397"/>
<polygon fill="midnightblue" stroke="midnightblue" points="45.3447,-180.417 39.1126,-171.849 38.6413,-182.434 45.3447,-180.417"/>
</g>
<!-- Node5 -->
<g id="node5" class="node"><title>Node5</title>
<g id="a_node5"><a xlink:href="classumontreal_1_1ssj_1_1discrepancy_1_1DiscL2Hickernell.html" target="_top" xlink:title="This class computes the Hickernell &#45;star discrepancy in   (eq. ">
<polygon fill="none" stroke="black" points="111.5,-266.5 111.5,-285.5 202.5,-285.5 202.5,-266.5 111.5,-266.5"/>
<text text-anchor="middle" x="157" y="-273.5" font-family="Helvetica,sans-Serif" font-size="10.00">DiscL2Hickernell</text>
</a>
</g>
</g>
<!-- Node1&#45;&gt;Node5 -->
<g id="edge4" class="edge"><title>Node1&#45;&gt;Node5</title>
<path fill="none" stroke="midnightblue" d="M46.1454,-180.744C57.9057,-201.923 79.6407,-236.152 107,-257 111.935,-260.76 117.705,-263.864 123.519,-266.394"/>
<polygon fill="midnightblue" stroke="midnightblue" points="49.1402,-178.923 41.3258,-171.768 42.973,-182.234 49.1402,-178.923"/>
</g>
<!-- Node6 -->
<g id="node6" class="node"><title>Node6</title>
<g id="a_node6"><a xlink:href="classumontreal_1_1ssj_1_1discrepancy_1_1DiscL2Star.html" target="_top" xlink:title="This class computes the traditional &#45;star discrepancy &#160;for a set of &#160;points &#160;, ,  . ">
<polygon fill="none" stroke="black" points="124.5,-228.5 124.5,-247.5 189.5,-247.5 189.5,-228.5 124.5,-228.5"/>
<text text-anchor="middle" x="157" y="-235.5" font-family="Helvetica,sans-Serif" font-size="10.00">DiscL2Star</text>
</a>
</g>
</g>
<!-- Node1&#45;&gt;Node6 -->
<g id="edge5" class="edge"><title>Node1&#45;&gt;Node6</title>
<path fill="none" stroke="midnightblue" d="M53.8859,-178.638C67.5056,-191.005 87.3736,-207.634 107,-219 113.238,-222.612 120.292,-225.804 127.064,-228.492"/>
<polygon fill="midnightblue" stroke="midnightblue" points="55.9828,-175.809 46.2713,-171.574 51.222,-180.941 55.9828,-175.809"/>
</g>
<!-- Node7 -->
<g id="node7" class="node"><title>Node7</title>
<g id="a_node7"><a xlink:href="classumontreal_1_1ssj_1_1discrepancy_1_1DiscL2Symmetric.html" target="_top" xlink:title="COMPLÉTER LA DOC ICI. ">
<polygon fill="none" stroke="black" points="109.5,-190.5 109.5,-209.5 204.5,-209.5 204.5,-190.5 109.5,-190.5"/>
<text text-anchor="middle" x="157" y="-197.5" font-family="Helvetica,sans-Serif" font-size="10.00">DiscL2Symmetric</text>
</a>
</g>
</g>
<!-- Node1&#45;&gt;Node7 -->
<g id="edge6" class="edge"><title>Node1&#45;&gt;Node7</title>
<path fill="none" stroke="midnightblue" d="M76.3766,-174.68C92.523,-179.815 110.854,-185.644 125.855,-190.414"/>
<polygon fill="midnightblue" stroke="midnightblue" points="77.2453,-171.284 66.6549,-171.589 75.124,-177.955 77.2453,-171.284"/>
</g>
<!-- Node8 -->
<g id="node8" class="node"><title>Node8</title>
<g id="a_node8"><a xlink:href="classumontreal_1_1ssj_1_1discrepancy_1_1DiscL2Unanchored.html" target="_top" xlink:title="A discrepancy is said to be reflection&#45;invariant if it has the same value when the points are reflect...">
<polygon fill="none" stroke="black" points="107,-152.5 107,-171.5 207,-171.5 207,-152.5 107,-152.5"/>
<text text-anchor="middle" x="157" y="-159.5" font-family="Helvetica,sans-Serif" font-size="10.00">DiscL2Unanchored</text>
</a>
</g>
</g>
<!-- Node1&#45;&gt;Node8 -->
<g id="edge7" class="edge"><title>Node1&#45;&gt;Node8</title>
<path fill="none" stroke="midnightblue" d="M81.3367,-162C89.6625,-162 98.4011,-162 106.848,-162"/>
<polygon fill="midnightblue" stroke="midnightblue" points="81.0644,-158.5 71.0644,-162 81.0643,-165.5 81.0644,-158.5"/>
</g>
<!-- Node9 -->
<g id="node9" class="node"><title>Node9</title>
<g id="a_node9"><a xlink:href="classumontreal_1_1ssj_1_1discrepancy_1_1DiscShift1.html" target="_top" xlink:title="This class computes the discrepancy for randomly shifted points of a set &#160;  (eq. ...">
<polygon fill="none" stroke="black" points="126,-114.5 126,-133.5 188,-133.5 188,-114.5 126,-114.5"/>
<text text-anchor="middle" x="157" y="-121.5" font-family="Helvetica,sans-Serif" font-size="10.00">DiscShift1</text>
</a>
</g>
</g>
<!-- Node1&#45;&gt;Node9 -->
<g id="edge8" class="edge"><title>Node1&#45;&gt;Node9</title>
<path fill="none" stroke="midnightblue" d="M76.3766,-149.32C92.523,-144.185 110.854,-138.356 125.855,-133.586"/>
<polygon fill="midnightblue" stroke="midnightblue" points="75.124,-146.045 66.6549,-152.411 77.2453,-152.716 75.124,-146.045"/>
</g>
<!-- Node11 -->
<g id="node11" class="node"><title>Node11</title>
<g id="a_node11"><a xlink:href="classumontreal_1_1ssj_1_1discrepancy_1_1DiscShift2.html" target="_top" xlink:title="This class computes the discrepancy in   (eq. ">
<polygon fill="none" stroke="black" points="126,-76.5 126,-95.5 188,-95.5 188,-76.5 126,-76.5"/>
<text text-anchor="middle" x="157" y="-83.5" font-family="Helvetica,sans-Serif" font-size="10.00">DiscShift2</text>
</a>
</g>
</g>
<!-- Node1&#45;&gt;Node11 -->
<g id="edge10" class="edge"><title>Node1&#45;&gt;Node11</title>
<path fill="none" stroke="midnightblue" d="M53.8859,-145.362C67.5056,-132.995 87.3736,-116.366 107,-105 113.238,-101.388 120.292,-98.1957 127.064,-95.5083"/>
<polygon fill="midnightblue" stroke="midnightblue" points="51.222,-143.059 46.2713,-152.426 55.9828,-148.191 51.222,-143.059"/>
</g>
<!-- Node13 -->
<g id="node13" class="node"><title>Node13</title>
<g id="a_node13"><a xlink:href="classumontreal_1_1ssj_1_1discrepancy_1_1DiscShiftBaker1.html" target="_top" xlink:title="This class computes the discrepancy for randomly shifted, then baker folded points of a set ...">
<polygon fill="none" stroke="black" points="113,-38.5 113,-57.5 201,-57.5 201,-38.5 113,-38.5"/>
<text text-anchor="middle" x="157" y="-45.5" font-family="Helvetica,sans-Serif" font-size="10.00">DiscShiftBaker1</text>
</a>
</g>
</g>
<!-- Node1&#45;&gt;Node13 -->
<g id="edge12" class="edge"><title>Node1&#45;&gt;Node13</title>
<path fill="none" stroke="midnightblue" d="M46.1454,-143.256C57.9057,-122.077 79.6407,-87.8478 107,-67 111.935,-63.2396 117.705,-60.1363 123.519,-57.6064"/>
<polygon fill="midnightblue" stroke="midnightblue" points="42.973,-141.766 41.3258,-152.232 49.1402,-145.077 42.973,-141.766"/>
</g>
<!-- Node15 -->
<g id="node15" class="node"><title>Node15</title>
<g id="a_node15"><a xlink:href="classumontreal_1_1ssj_1_1discrepancy_1_1Palpha.html" target="_top" xlink:title="Extends the class Discrepancy and implements the methods required to compute the &#160;figure of merit for...">
<polygon fill="none" stroke="black" points="133.5,-0.5 133.5,-19.5 180.5,-19.5 180.5,-0.5 133.5,-0.5"/>
<text text-anchor="middle" x="157" y="-7.5" font-family="Helvetica,sans-Serif" font-size="10.00">Palpha</text>
</a>
</g>
</g>
<!-- Node1&#45;&gt;Node15 -->
<g id="edge14" class="edge"><title>Node1&#45;&gt;Node15</title>
<path fill="none" stroke="midnightblue" d="M42.0207,-142.482C51.0673,-113.835 71.6675,-60.4067 107,-29 114.365,-22.4533 124.237,-18.0488 133.189,-15.1442"/>
<polygon fill="midnightblue" stroke="midnightblue" points="38.6413,-141.566 39.1126,-152.151 45.3447,-143.583 38.6413,-141.566"/>
</g>
<!-- Node3 -->
<g id="node3" class="node"><title>Node3</title>
<g id="a_node3"><a xlink:href="classumontreal_1_1ssj_1_1discrepancy_1_1BigDiscShiftBaker1.html" target="_top" xlink:title="This class computes the same discrepancy as in umontreal.ssj.discrepancy.DiscShiftBaker1 [see eq...">
<polygon fill="none" stroke="black" points="250.5,-304.5 250.5,-323.5 352.5,-323.5 352.5,-304.5 250.5,-304.5"/>
<text text-anchor="middle" x="301.5" y="-311.5" font-family="Helvetica,sans-Serif" font-size="10.00">BigDiscShiftBaker1</text>
</a>
</g>
</g>
<!-- Node2&#45;&gt;Node3 -->
<g id="edge2" class="edge"><title>Node2&#45;&gt;Node3</title>
<path fill="none" stroke="midnightblue" d="M210.548,-314C223.524,-314 237.391,-314 250.254,-314"/>
<polygon fill="midnightblue" stroke="midnightblue" points="210.369,-310.5 200.369,-314 210.369,-317.5 210.369,-310.5"/>
</g>
<!-- Node4 -->
<g id="node4" class="node"><title>Node4</title>
<g id="a_node4"><a xlink:href="classumontreal_1_1ssj_1_1discrepancy_1_1BigDiscShiftBaker1Lattice.html" target="_top" xlink:title="This class computes the same discrepancy as in umontreal.ssj.discrepancy.DiscShiftBaker1Lattice [see ...">
<polygon fill="none" stroke="black" points="396,-304.5 396,-323.5 527,-323.5 527,-304.5 396,-304.5"/>
<text text-anchor="middle" x="461.5" y="-311.5" font-family="Helvetica,sans-Serif" font-size="10.00">BigDiscShiftBaker1Lattice</text>
</a>
</g>
</g>
<!-- Node3&#45;&gt;Node4 -->
<g id="edge3" class="edge"><title>Node3&#45;&gt;Node4</title>
<path fill="none" stroke="midnightblue" d="M363.038,-314C373.767,-314 384.978,-314 395.816,-314"/>
<polygon fill="midnightblue" stroke="midnightblue" points="362.927,-310.5 352.927,-314 362.927,-317.5 362.927,-310.5"/>
</g>
<!-- Node10 -->
<g id="node10" class="node"><title>Node10</title>
<g id="a_node10"><a xlink:href="classumontreal_1_1ssj_1_1discrepancy_1_1DiscShift1Lattice.html" target="_top" xlink:title="This class computes the same discrepancy for randomly shifted points of a set &#160;as given in eq...">
<polygon fill="none" stroke="black" points="255.5,-114.5 255.5,-133.5 347.5,-133.5 347.5,-114.5 255.5,-114.5"/>
<text text-anchor="middle" x="301.5" y="-121.5" font-family="Helvetica,sans-Serif" font-size="10.00">DiscShift1Lattice</text>
</a>
</g>
</g>
<!-- Node9&#45;&gt;Node10 -->
<g id="edge9" class="edge"><title>Node9&#45;&gt;Node10</title>
<path fill="none" stroke="midnightblue" d="M198.29,-124C216.096,-124 237.105,-124 255.43,-124"/>
<polygon fill="midnightblue" stroke="midnightblue" points="198.221,-120.5 188.221,-124 198.221,-127.5 198.221,-120.5"/>
</g>
<!-- Node12 -->
<g id="node12" class="node"><title>Node12</title>
<g id="a_node12"><a xlink:href="classumontreal_1_1ssj_1_1discrepancy_1_1DiscShift2Lattice.html" target="_top" xlink:title="This class computes the same discrepancy for randomly shifted points of a set &#160;as given in eq...">
<polygon fill="none" stroke="black" points="255.5,-76.5 255.5,-95.5 347.5,-95.5 347.5,-76.5 255.5,-76.5"/>
<text text-anchor="middle" x="301.5" y="-83.5" font-family="Helvetica,sans-Serif" font-size="10.00">DiscShift2Lattice</text>
</a>
</g>
</g>
<!-- Node11&#45;&gt;Node12 -->
<g id="edge11" class="edge"><title>Node11&#45;&gt;Node12</title>
<path fill="none" stroke="midnightblue" d="M198.29,-86C216.096,-86 237.105,-86 255.43,-86"/>
<polygon fill="midnightblue" stroke="midnightblue" points="198.221,-82.5001 188.221,-86 198.221,-89.5001 198.221,-82.5001"/>
</g>
<!-- Node14 -->
<g id="node14" class="node"><title>Node14</title>
<g id="a_node14"><a xlink:href="classumontreal_1_1ssj_1_1discrepancy_1_1DiscShiftBaker1Lattice.html" target="_top" xlink:title="This class computes the same discrepancy in   (eq. ">
<polygon fill="none" stroke="black" points="243,-38.5 243,-57.5 360,-57.5 360,-38.5 243,-38.5"/>
<text text-anchor="middle" x="301.5" y="-45.5" font-family="Helvetica,sans-Serif" font-size="10.00">DiscShiftBaker1Lattice</text>
</a>
</g>
</g>
<!-- Node13&#45;&gt;Node14 -->
<g id="edge13" class="edge"><title>Node13&#45;&gt;Node14</title>
<path fill="none" stroke="midnightblue" d="M211.22,-48C221.513,-48 232.342,-48 242.771,-48"/>
<polygon fill="midnightblue" stroke="midnightblue" points="211.141,-44.5001 201.141,-48 211.141,-51.5001 211.141,-44.5001"/>
</g>
</g>
</svg>
