<?xml version="1.0" encoding="UTF-8" standalone="no"?>
<!DOCTYPE svg PUBLIC "-//W3C//DTD SVG 1.1//EN"
 "http://www.w3.org/Graphics/SVG/1.1/DTD/svg11.dtd">
<!-- Generated by graphviz version 2.38.0 (20140413.2041)
 -->
<!-- Title: CustomHistogramDataset Pages: 1 -->
<svg width="530pt" height="95pt"
 viewBox="0.00 0.00 529.50 95.00" xmlns="http://www.w3.org/2000/svg" xmlns:xlink="http://www.w3.org/1999/xlink">
<g id="graph0" class="graph" transform="scale(1 1) rotate(0) translate(4 91)">
<title>CustomHistogramDataset</title>
<!-- Node5 -->
<g id="node1" class="node"><title>Node5</title>
<polygon fill="#bfbfbf" stroke="black" points="223.5,-0.5 223.5,-19.5 351.5,-19.5 351.5,-0.5 223.5,-0.5"/>
<text text-anchor="middle" x="287.5" y="-7.5" font-family="Helvetica,sans-Serif" font-size="10.00">CustomHistogramDataset</text>
</g>
<!-- Node6 -->
<g id="node2" class="node"><title>Node6</title>
<polygon fill="none" stroke="#bfbfbf" points="0,-67.5 0,-86.5 129,-86.5 129,-67.5 0,-67.5"/>
<text text-anchor="middle" x="64.5" y="-74.5" font-family="Helvetica,sans-Serif" font-size="10.00">AbstractIntervalXYDataset</text>
</g>
<!-- Node6&#45;&gt;Node5 -->
<g id="edge1" class="edge"><title>Node6&#45;&gt;Node5</title>
<path fill="none" stroke="midnightblue" d="M103.919,-64.5101C148.055,-51.6454 218.562,-31.0942 258.12,-19.5637"/>
<polygon fill="midnightblue" stroke="midnightblue" points="102.734,-61.2099 94.1127,-67.3685 104.693,-67.9303 102.734,-61.2099"/>
</g>
<!-- Node7 -->
<g id="node3" class="node"><title>Node7</title>
<polygon fill="none" stroke="#bfbfbf" points="147.5,-67.5 147.5,-86.5 239.5,-86.5 239.5,-67.5 147.5,-67.5"/>
<text text-anchor="middle" x="193.5" y="-74.5" font-family="Helvetica,sans-Serif" font-size="10.00">IntervalXYDataset</text>
</g>
<!-- Node7&#45;&gt;Node5 -->
<g id="edge2" class="edge"><title>Node7&#45;&gt;Node5</title>
<path fill="none" stroke="midnightblue" d="M214.585,-61.4196C233.169,-48.5695 259.615,-30.2821 275.024,-19.6273"/>
<polygon fill="midnightblue" stroke="midnightblue" points="212.412,-58.6674 206.177,-67.2338 216.393,-64.425 212.412,-58.6674"/>
</g>
<!-- Node8 -->
<g id="node4" class="node"><title>Node8</title>
<polygon fill="none" stroke="#bfbfbf" points="258,-67.5 258,-86.5 317,-86.5 317,-67.5 258,-67.5"/>
<text text-anchor="middle" x="287.5" y="-74.5" font-family="Helvetica,sans-Serif" font-size="10.00">Cloneable</text>
</g>
<!-- Node8&#45;&gt;Node5 -->
<g id="edge3" class="edge"><title>Node8&#45;&gt;Node5</title>
<path fill="none" stroke="midnightblue" d="M287.5,-57.037C287.5,-44.6703 287.5,-29.1198 287.5,-19.6273"/>
<polygon fill="midnightblue" stroke="midnightblue" points="284,-57.2338 287.5,-67.2338 291,-57.2338 284,-57.2338"/>
</g>
<!-- Node9 -->
<g id="node5" class="node"><title>Node9</title>
<polygon fill="none" stroke="#bfbfbf" points="335.5,-67.5 335.5,-86.5 421.5,-86.5 421.5,-67.5 335.5,-67.5"/>
<text text-anchor="middle" x="378.5" y="-74.5" font-family="Helvetica,sans-Serif" font-size="10.00">PublicCloneable</text>
</g>
<!-- Node9&#45;&gt;Node5 -->
<g id="edge4" class="edge"><title>Node9&#45;&gt;Node5</title>
<path fill="none" stroke="midnightblue" d="M358.087,-61.4196C340.097,-48.5695 314.495,-30.2821 299.578,-19.6273"/>
<polygon fill="midnightblue" stroke="midnightblue" points="356.056,-64.2695 366.227,-67.2338 360.124,-58.5733 356.056,-64.2695"/>
</g>
<!-- Node10 -->
<g id="node6" class="node"><title>Node10</title>
<polygon fill="none" stroke="#bfbfbf" points="439.5,-67.5 439.5,-86.5 521.5,-86.5 521.5,-67.5 439.5,-67.5"/>
<text text-anchor="middle" x="480.5" y="-74.5" font-family="Helvetica,sans-Serif" font-size="10.00">HistogramType</text>
</g>
<!-- Node10&#45;&gt;Node5 -->
<g id="edge5" class="edge"><title>Node10&#45;&gt;Node5</title>
<path fill="none" stroke="#9a32cd" stroke-dasharray="5,2" d="M445.17,-64.1013C406.904,-51.2138 346.804,-30.9728 312.928,-19.5637"/>
<polygon fill="#9a32cd" stroke="#9a32cd" points="444.277,-67.4937 454.871,-67.3685 446.511,-60.8598 444.277,-67.4937"/>
<text text-anchor="middle" x="407.5" y="-41" font-family="Helvetica,sans-Serif" font-size="10.00"> type</text>
</g>
</g>
</svg>
