<?xml version="1.0" encoding="UTF-8" standalone="no"?>
<!DOCTYPE svg PUBLIC "-//W3C//DTD SVG 1.1//EN"
 "http://www.w3.org/Graphics/SVG/1.1/DTD/svg11.dtd">
<!-- Generated by graphviz version 2.26.3 (20100126.1600)
 -->
<!-- Title: ListOfStatProbes&lt; E extends StatProbe &gt; Pages: 1 -->
<svg width="244pt" height="100pt"
 viewBox="0.00 0.00 244.00 100.00" xmlns="http://www.w3.org/2000/svg" xmlns:xlink="http://www.w3.org/1999/xlink">
<g id="graph1" class="graph" transform="scale(1 1) rotate(0) translate(4 96)">
<title>ListOfStatProbes&lt; E extends StatProbe &gt;</title>
<!-- Node1 -->
<g id="node1" class="node"><title>Node1</title>
<polygon fill="#bfbfbf" stroke="black" points="49,-1 49,-33 159,-33 159,-1 49,-1"/>
<text text-anchor="start" x="57" y="-20" font-family="Helvetica,sans-Serif" font-size="10.00">ListOfStatProbes&lt; E</text>
<text text-anchor="middle" x="104" y="-8" font-family="Helvetica,sans-Serif" font-size="10.00"> extends StatProbe &gt;</text>
</g>
<!-- Node2 -->
<g id="node2" class="node"><title>Node2</title>
<polygon fill="none" stroke="#bfbfbf" points="-0.5,-71 -0.5,-91 58.5,-91 58.5,-71 -0.5,-71"/>
<text text-anchor="middle" x="29" y="-78" font-family="Helvetica,sans-Serif" font-size="10.00">Cloneable</text>
</g>
<!-- Node2&#45;&gt;Node1 -->
<g id="edge2" class="edge"><title>Node2&#45;&gt;Node1</title>
<path fill="none" stroke="midnightblue" d="M48.699,-64.1901C59.9986,-54.5479 74.1059,-42.5096 85.2436,-33.0054"/>
<polygon fill="midnightblue" stroke="midnightblue" points="46.385,-61.5637 41.05,-70.7173 50.9289,-66.8885 46.385,-61.5637"/>
</g>
<!-- Node3 -->
<g id="node4" class="node"><title>Node3</title>
<polygon fill="none" stroke="#bfbfbf" points="75.5,-71 75.5,-91 132.5,-91 132.5,-71 75.5,-71"/>
<text text-anchor="middle" x="104" y="-78" font-family="Helvetica,sans-Serif" font-size="10.00">List&lt; E &gt;</text>
</g>
<!-- Node3&#45;&gt;Node1 -->
<g id="edge4" class="edge"><title>Node3&#45;&gt;Node1</title>
<path fill="none" stroke="midnightblue" d="M104,-60.4346C104,-51.5494 104,-41.3101 104,-33.0054"/>
<polygon fill="midnightblue" stroke="midnightblue" points="100.5,-60.7173 104,-70.7173 107.5,-60.7173 100.5,-60.7173"/>
</g>
<!-- Node4 -->
<g id="node6" class="node"><title>Node4</title>
<polygon fill="none" stroke="#bfbfbf" points="150,-71 150,-91 236,-91 236,-71 150,-71"/>
<text text-anchor="middle" x="193" y="-78" font-family="Helvetica,sans-Serif" font-size="10.00">RandomAccess</text>
</g>
<!-- Node4&#45;&gt;Node1 -->
<g id="edge6" class="edge"><title>Node4&#45;&gt;Node1</title>
<path fill="none" stroke="midnightblue" d="M170.401,-64.7491C156.866,-55.0163 139.731,-42.6942 126.258,-33.0054"/>
<polygon fill="midnightblue" stroke="midnightblue" points="168.538,-67.7206 178.701,-70.7173 172.625,-62.0374 168.538,-67.7206"/>
</g>
</g>
</svg>
