<?xml version="1.0" encoding="UTF-8" standalone="no"?>
<!DOCTYPE svg PUBLIC "-//W3C//DTD SVG 1.1//EN"
 "http://www.w3.org/Graphics/SVG/1.1/DTD/svg11.dtd">
<!-- Generated by graphviz version 2.38.0 (20140413.2041)
 -->
<!-- Title: InverseGaussianProcess Pages: 1 -->
<svg width="325pt" height="196pt"
 viewBox="0.00 0.00 324.50 196.00" xmlns="http://www.w3.org/2000/svg" xmlns:xlink="http://www.w3.org/1999/xlink">
<g id="graph0" class="graph" transform="scale(1 1) rotate(0) translate(4 192)">
<title>InverseGaussianProcess</title>
<!-- Node1 -->
<g id="node1" class="node"><title>Node1</title>
<polygon fill="#bfbfbf" stroke="black" points="97,-112.5 97,-131.5 223,-131.5 223,-112.5 97,-112.5"/>
<text text-anchor="middle" x="160" y="-119.5" font-family="Helvetica,sans-Serif" font-size="10.00">InverseGaussianProcess</text>
</g>
<!-- Node3 -->
<g id="node3" class="node"><title>Node3</title>
<g id="a_node3"><a xlink:href="classumontreal_1_1ssj_1_1stochprocess_1_1InverseGaussianProcessMSH.html" target="_top" xlink:title="Uses a faster generating method (MSH)   than the simple inversion of the distribution function used ...">
<polygon fill="none" stroke="black" points="2.5,-56.5 2.5,-75.5 151.5,-75.5 151.5,-56.5 2.5,-56.5"/>
<text text-anchor="middle" x="77" y="-63.5" font-family="Helvetica,sans-Serif" font-size="10.00">InverseGaussianProcessMSH</text>
</a>
</g>
</g>
<!-- Node1&#45;&gt;Node3 -->
<g id="edge2" class="edge"><title>Node1&#45;&gt;Node3</title>
<path fill="none" stroke="midnightblue" d="M137.901,-106.622C122.738,-96.7574 103.117,-83.9919 90.3023,-75.6545"/>
<polygon fill="midnightblue" stroke="midnightblue" points="136.374,-109.804 146.665,-112.324 140.191,-103.937 136.374,-109.804"/>
</g>
<!-- Node5 -->
<g id="node5" class="node"><title>Node5</title>
<g id="a_node5"><a xlink:href="classumontreal_1_1ssj_1_1stochprocess_1_1InverseGaussianProcessPCA.html" target="_top" xlink:title="Approximates a principal component analysis (PCA) decomposition of the InverseGaussianProcess. ">
<polygon fill="none" stroke="black" points="169.5,-56.5 169.5,-75.5 316.5,-75.5 316.5,-56.5 169.5,-56.5"/>
<text text-anchor="middle" x="243" y="-63.5" font-family="Helvetica,sans-Serif" font-size="10.00">InverseGaussianProcessPCA</text>
</a>
</g>
</g>
<!-- Node1&#45;&gt;Node5 -->
<g id="edge4" class="edge"><title>Node1&#45;&gt;Node5</title>
<path fill="none" stroke="midnightblue" d="M182.099,-106.622C197.262,-96.7574 216.883,-83.9919 229.698,-75.6545"/>
<polygon fill="midnightblue" stroke="midnightblue" points="179.809,-103.937 173.335,-112.324 183.626,-109.804 179.809,-103.937"/>
</g>
<!-- Node2 -->
<g id="node2" class="node"><title>Node2</title>
<g id="a_node2"><a xlink:href="classumontreal_1_1ssj_1_1stochprocess_1_1StochasticProcess.html" target="_top" xlink:title="Abstract base class for a stochastic process &#160;sampled (or observed) at a finite number of time points...">
<polygon fill="none" stroke="black" points="110.5,-168.5 110.5,-187.5 209.5,-187.5 209.5,-168.5 110.5,-168.5"/>
<text text-anchor="middle" x="160" y="-175.5" font-family="Helvetica,sans-Serif" font-size="10.00">StochasticProcess</text>
</a>
</g>
</g>
<!-- Node2&#45;&gt;Node1 -->
<g id="edge1" class="edge"><title>Node2&#45;&gt;Node1</title>
<path fill="none" stroke="midnightblue" d="M160,-157.805C160,-148.91 160,-138.78 160,-131.751"/>
<polygon fill="midnightblue" stroke="midnightblue" points="156.5,-158.083 160,-168.083 163.5,-158.083 156.5,-158.083"/>
</g>
<!-- Node4 -->
<g id="node4" class="node"><title>Node4</title>
<g id="a_node4"><a xlink:href="classumontreal_1_1ssj_1_1stochprocess_1_1InverseGaussianProcessBridge.html" target="_top" xlink:title="Samples the path by bridge sampling: first finding the process value at the final time and then the m...">
<polygon fill="none" stroke="black" points="0,-0.5 0,-19.5 154,-19.5 154,-0.5 0,-0.5"/>
<text text-anchor="middle" x="77" y="-7.5" font-family="Helvetica,sans-Serif" font-size="10.00">InverseGaussianProcessBridge</text>
</a>
</g>
</g>
<!-- Node3&#45;&gt;Node4 -->
<g id="edge3" class="edge"><title>Node3&#45;&gt;Node4</title>
<path fill="none" stroke="midnightblue" d="M77,-45.8045C77,-36.9102 77,-26.7798 77,-19.7511"/>
<polygon fill="midnightblue" stroke="midnightblue" points="73.5001,-46.083 77,-56.083 80.5001,-46.083 73.5001,-46.083"/>
</g>
</g>
</svg>
