<?xml version="1.0" encoding="UTF-8" standalone="no"?>
<!DOCTYPE svg PUBLIC "-//W3C//DTD SVG 1.1//EN"
 "http://www.w3.org/Graphics/SVG/1.1/DTD/svg11.dtd">
<!-- Generated by graphviz version 2.38.0 (20140413.2041)
 -->
<!-- Title: BakerTransformedPointSet.BakerTransformedPointSetIterator Pages: 1 -->
<svg width="192pt" height="162pt"
 viewBox="0.00 0.00 192.00 162.00" xmlns="http://www.w3.org/2000/svg" xmlns:xlink="http://www.w3.org/1999/xlink">
<g id="graph0" class="graph" transform="scale(1 1) rotate(0) translate(4 158)">
<title>BakerTransformedPointSet.BakerTransformedPointSetIterator</title>
<!-- Node1 -->
<g id="node1" class="node"><title>Node1</title>
<polygon fill="#bfbfbf" stroke="black" points="0,-0.5 0,-30.5 184,-30.5 184,-0.5 0,-0.5"/>
<text text-anchor="start" x="8" y="-18.5" font-family="Helvetica,sans-Serif" font-size="10.00">BakerTransformedPointSet.</text>
<text text-anchor="middle" x="92" y="-7.5" font-family="Helvetica,sans-Serif" font-size="10.00">BakerTransformedPointSetIterator</text>
</g>
<!-- Node2 -->
<g id="node2" class="node"><title>Node2</title>
<g id="a_node2"><a xlink:href="classumontreal_1_1ssj_1_1hups_1_1ContainerPointSet_1_1ContainerPointSetIterator.html" target="_top" xlink:title="ContainerPointSet.Container\lPointSetIterator">
<polygon fill="none" stroke="black" points="14.5,-67.5 14.5,-97.5 169.5,-97.5 169.5,-67.5 14.5,-67.5"/>
<text text-anchor="start" x="22.5" y="-85.5" font-family="Helvetica,sans-Serif" font-size="10.00">ContainerPointSet.Container</text>
<text text-anchor="middle" x="92" y="-74.5" font-family="Helvetica,sans-Serif" font-size="10.00">PointSetIterator</text>
</a>
</g>
</g>
<!-- Node2&#45;&gt;Node1 -->
<g id="edge1" class="edge"><title>Node2&#45;&gt;Node1</title>
<path fill="none" stroke="midnightblue" d="M92,-57.1081C92,-48.1539 92,-38.3227 92,-30.5765"/>
<polygon fill="midnightblue" stroke="midnightblue" points="88.5001,-57.3959 92,-67.396 95.5001,-57.396 88.5001,-57.3959"/>
</g>
<!-- Node3 -->
<g id="node3" class="node"><title>Node3</title>
<polygon fill="none" stroke="#bfbfbf" points="27.5,-134.5 27.5,-153.5 156.5,-153.5 156.5,-134.5 27.5,-134.5"/>
<text text-anchor="middle" x="92" y="-141.5" font-family="Helvetica,sans-Serif" font-size="10.00">DefaultPointSetIterator</text>
</g>
<!-- Node3&#45;&gt;Node2 -->
<g id="edge2" class="edge"><title>Node3&#45;&gt;Node2</title>
<path fill="none" stroke="midnightblue" d="M92,-124.235C92,-115.586 92,-105.497 92,-97.523"/>
<polygon fill="midnightblue" stroke="midnightblue" points="88.5001,-124.475 92,-134.475 95.5001,-124.475 88.5001,-124.475"/>
</g>
</g>
</svg>
