<?xml version="1.0" encoding="UTF-8" standalone="no"?>
<!DOCTYPE svg PUBLIC "-//W3C//DTD SVG 1.1//EN"
 "http://www.w3.org/Graphics/SVG/1.1/DTD/svg11.dtd">
<!-- Generated by graphviz version 2.38.0 (20140413.2041)
 -->
<!-- Title: GammaProcessPCA Pages: 1 -->
<svg width="348pt" height="353pt"
 viewBox="0.00 0.00 347.50 353.00" xmlns="http://www.w3.org/2000/svg" xmlns:xlink="http://www.w3.org/1999/xlink">
<g id="graph0" class="graph" transform="scale(1 1) rotate(0) translate(4 349)">
<title>GammaProcessPCA</title>
<!-- Node5 -->
<g id="node1" class="node"><title>Node5</title>
<polygon fill="#bfbfbf" stroke="black" points="143,-0.5 143,-19.5 250,-19.5 250,-0.5 143,-0.5"/>
<text text-anchor="middle" x="196.5" y="-7.5" font-family="Helvetica,sans-Serif" font-size="10.00">GammaProcessPCA</text>
</g>
<!-- Node6 -->
<g id="node2" class="node"><title>Node6</title>
<g id="a_node2"><a xlink:href="classumontreal_1_1ssj_1_1stochprocess_1_1GammaProcess.html" target="_top" xlink:title="This class represents a gamma process   (page 82) &#160;with mean parameter &#160;and variance parameter ...">
<polygon fill="none" stroke="black" points="191,-124.5 191,-143.5 278,-143.5 278,-124.5 191,-124.5"/>
<text text-anchor="middle" x="234.5" y="-131.5" font-family="Helvetica,sans-Serif" font-size="10.00">GammaProcess</text>
</a>
</g>
</g>
<!-- Node6&#45;&gt;Node5 -->
<g id="edge1" class="edge"><title>Node6&#45;&gt;Node5</title>
<path fill="none" stroke="midnightblue" d="M233.799,-114.377C232.466,-94.6431 228.613,-62.9488 217.5,-38 214.504,-31.2735 209.483,-24.7286 205.102,-19.7675"/>
<polygon fill="midnightblue" stroke="midnightblue" points="230.31,-114.67 234.329,-124.472 237.3,-114.303 230.31,-114.67"/>
</g>
<!-- Node7 -->
<g id="node3" class="node"><title>Node7</title>
<g id="a_node3"><a xlink:href="classumontreal_1_1ssj_1_1stochprocess_1_1StochasticProcess.html" target="_top" xlink:title="Abstract base class for a stochastic process &#160;sampled (or observed) at a finite number of time points...">
<polygon fill="none" stroke="black" points="83,-191.5 83,-210.5 182,-210.5 182,-191.5 83,-191.5"/>
<text text-anchor="middle" x="132.5" y="-198.5" font-family="Helvetica,sans-Serif" font-size="10.00">StochasticProcess</text>
</a>
</g>
</g>
<!-- Node7&#45;&gt;Node6 -->
<g id="edge2" class="edge"><title>Node7&#45;&gt;Node6</title>
<path fill="none" stroke="midnightblue" d="M154.832,-185.769C175.022,-172.903 204.09,-154.379 220.962,-143.627"/>
<polygon fill="midnightblue" stroke="midnightblue" points="152.808,-182.908 146.256,-191.234 156.57,-188.811 152.808,-182.908"/>
</g>
<!-- Node13 -->
<g id="node9" class="node"><title>Node13</title>
<g id="a_node9"><a xlink:href="classumontreal_1_1ssj_1_1stochprocess_1_1BrownianMotion.html" target="_top" xlink:title="This class represents a Brownian motion process , sampled at times . ">
<polygon fill="none" stroke="black" points="86.5,-124.5 86.5,-143.5 172.5,-143.5 172.5,-124.5 86.5,-124.5"/>
<text text-anchor="middle" x="129.5" y="-131.5" font-family="Helvetica,sans-Serif" font-size="10.00">BrownianMotion</text>
</a>
</g>
</g>
<!-- Node7&#45;&gt;Node13 -->
<g id="edge10" class="edge"><title>Node7&#45;&gt;Node13</title>
<path fill="none" stroke="midnightblue" d="M131.625,-181.037C131.054,-168.67 130.336,-153.12 129.898,-143.627"/>
<polygon fill="midnightblue" stroke="midnightblue" points="128.138,-181.406 132.095,-191.234 135.131,-181.083 128.138,-181.406"/>
</g>
<!-- Node8 -->
<g id="node4" class="node"><title>Node8</title>
<g id="a_node4"><a xlink:href="classumontreal_1_1ssj_1_1randvar_1_1GammaGen.html" target="_top" xlink:title="This class implements random variate generators for the gamma distribution. ">
<polygon fill="none" stroke="black" points="200,-191.5 200,-210.5 269,-210.5 269,-191.5 200,-191.5"/>
<text text-anchor="middle" x="234.5" y="-198.5" font-family="Helvetica,sans-Serif" font-size="10.00">GammaGen</text>
</a>
</g>
</g>
<!-- Node8&#45;&gt;Node6 -->
<g id="edge3" class="edge"><title>Node8&#45;&gt;Node6</title>
<path fill="none" stroke="#9a32cd" stroke-dasharray="5,2" d="M234.5,-181.037C234.5,-168.67 234.5,-153.12 234.5,-143.627"/>
<polygon fill="#9a32cd" stroke="#9a32cd" points="231,-181.234 234.5,-191.234 238,-181.234 231,-181.234"/>
<text text-anchor="middle" x="248" y="-165" font-family="Helvetica,sans-Serif" font-size="10.00"> Ggen</text>
</g>
<!-- Node9 -->
<g id="node5" class="node"><title>Node9</title>
<g id="a_node5"><a xlink:href="classumontreal_1_1ssj_1_1randvar_1_1RandomVariateGen.html" target="_top" xlink:title="This is the base class for all random variate generators over the real line. ">
<polygon fill="none" stroke="black" points="161,-258.5 161,-277.5 262,-277.5 262,-258.5 161,-258.5"/>
<text text-anchor="middle" x="211.5" y="-265.5" font-family="Helvetica,sans-Serif" font-size="10.00">RandomVariateGen</text>
</a>
</g>
</g>
<!-- Node9&#45;&gt;Node8 -->
<g id="edge4" class="edge"><title>Node9&#45;&gt;Node8</title>
<path fill="none" stroke="midnightblue" d="M217.944,-248.79C222.36,-236.308 228.02,-220.314 231.447,-210.627"/>
<polygon fill="midnightblue" stroke="midnightblue" points="214.638,-247.639 214.602,-258.234 221.237,-249.974 214.638,-247.639"/>
</g>
<!-- Node14 -->
<g id="node10" class="node"><title>Node14</title>
<g id="a_node10"><a xlink:href="classumontreal_1_1ssj_1_1randvar_1_1NormalGen.html" target="_top" xlink:title="This class implements methods for generating random variates from the normal distribution ...">
<polygon fill="none" stroke="black" points="0,-191.5 0,-210.5 65,-210.5 65,-191.5 0,-191.5"/>
<text text-anchor="middle" x="32.5" y="-198.5" font-family="Helvetica,sans-Serif" font-size="10.00">NormalGen</text>
</a>
</g>
</g>
<!-- Node9&#45;&gt;Node14 -->
<g id="edge12" class="edge"><title>Node9&#45;&gt;Node14</title>
<path fill="none" stroke="midnightblue" d="M178.279,-254.936C142.769,-242.042 87.3683,-221.924 56.083,-210.564"/>
<polygon fill="midnightblue" stroke="midnightblue" points="177.136,-258.245 187.73,-258.369 179.525,-251.665 177.136,-258.245"/>
</g>
<!-- Node10 -->
<g id="node6" class="node"><title>Node10</title>
<g id="a_node6"><a xlink:href="interfaceumontreal_1_1ssj_1_1probdist_1_1Distribution.html" target="_top" xlink:title="This interface should be implemented by all classes supporting discrete and continuous distributions...">
<polygon fill="none" stroke="black" points="172,-325.5 172,-344.5 237,-344.5 237,-325.5 172,-325.5"/>
<text text-anchor="middle" x="204.5" y="-332.5" font-family="Helvetica,sans-Serif" font-size="10.00">Distribution</text>
</a>
</g>
</g>
<!-- Node10&#45;&gt;Node9 -->
<g id="edge5" class="edge"><title>Node10&#45;&gt;Node9</title>
<path fill="none" stroke="#9a32cd" stroke-dasharray="5,2" d="M205.003,-315.21C205.296,-309.072 205.762,-302.233 206.5,-296 207.217,-289.94 208.467,-283.19 209.538,-277.955"/>
<polygon fill="#9a32cd" stroke="#9a32cd" points="201.504,-315.097 204.637,-325.218 208.5,-315.353 201.504,-315.097"/>
<text text-anchor="middle" x="216" y="-299" font-family="Helvetica,sans-Serif" font-size="10.00"> dist</text>
</g>
<!-- Node11 -->
<g id="node7" class="node"><title>Node11</title>
<g id="a_node7"><a xlink:href="interfaceumontreal_1_1ssj_1_1rng_1_1RandomStream.html" target="_top" xlink:title="This interface defines the basic structures to handle multiple streams of uniform (pseudo)random numb...">
<polygon fill="none" stroke="black" points="255.5,-325.5 255.5,-344.5 339.5,-344.5 339.5,-325.5 255.5,-325.5"/>
<text text-anchor="middle" x="297.5" y="-332.5" font-family="Helvetica,sans-Serif" font-size="10.00">RandomStream</text>
</a>
</g>
</g>
<!-- Node11&#45;&gt;Node6 -->
<g id="edge7" class="edge"><title>Node11&#45;&gt;Node6</title>
<path fill="none" stroke="#9a32cd" stroke-dasharray="5,2" d="M296.734,-315.254C295.219,-287.592 290.835,-234.425 278.5,-191 274.641,-177.413 273.911,-173.348 265.5,-162 260.315,-155.005 253.032,-148.545 246.827,-143.699"/>
<polygon fill="#9a32cd" stroke="#9a32cd" points="293.247,-315.624 297.222,-325.445 300.239,-315.289 293.247,-315.624"/>
<text text-anchor="middle" x="305.5" y="-232" font-family="Helvetica,sans-Serif" font-size="10.00"> stream</text>
</g>
<!-- Node11&#45;&gt;Node9 -->
<g id="edge6" class="edge"><title>Node11&#45;&gt;Node9</title>
<path fill="none" stroke="#9a32cd" stroke-dasharray="5,2" d="M270.247,-320.368C263.245,-316.415 255.89,-311.846 249.5,-307 237.755,-298.092 226.033,-285.705 218.779,-277.526"/>
<polygon fill="#9a32cd" stroke="#9a32cd" points="268.992,-323.668 279.453,-325.346 272.321,-317.511 268.992,-323.668"/>
<text text-anchor="middle" x="266.5" y="-299" font-family="Helvetica,sans-Serif" font-size="10.00"> stream</text>
</g>
<!-- Node12 -->
<g id="node8" class="node"><title>Node12</title>
<g id="a_node8"><a xlink:href="classumontreal_1_1ssj_1_1stochprocess_1_1BrownianMotionPCA.html" target="_top" xlink:title="A Brownian motion process &#160;sampled using the principal component decomposition (PCA) ...">
<polygon fill="none" stroke="black" points="94.5,-67.5 94.5,-86.5 200.5,-86.5 200.5,-67.5 94.5,-67.5"/>
<text text-anchor="middle" x="147.5" y="-74.5" font-family="Helvetica,sans-Serif" font-size="10.00">BrownianMotionPCA</text>
</a>
</g>
</g>
<!-- Node12&#45;&gt;Node5 -->
<g id="edge8" class="edge"><title>Node12&#45;&gt;Node5</title>
<path fill="none" stroke="#9a32cd" stroke-dasharray="5,2" d="M160.388,-58.9037C169.91,-46.2729 182.475,-29.6041 189.996,-19.6273"/>
<polygon fill="#9a32cd" stroke="#9a32cd" points="157.333,-57.1417 154.108,-67.2338 162.923,-61.3554 157.333,-57.1417"/>
<text text-anchor="middle" x="195" y="-41" font-family="Helvetica,sans-Serif" font-size="10.00"> BMPCA</text>
</g>
<!-- Node13&#45;&gt;Node12 -->
<g id="edge9" class="edge"><title>Node13&#45;&gt;Node12</title>
<path fill="none" stroke="midnightblue" d="M135.48,-114.728C138.568,-105.292 142.193,-94.217 144.648,-86.7149"/>
<polygon fill="midnightblue" stroke="midnightblue" points="132.097,-113.814 132.313,-124.406 138.749,-115.991 132.097,-113.814"/>
</g>
<!-- Node14&#45;&gt;Node13 -->
<g id="edge11" class="edge"><title>Node14&#45;&gt;Node13</title>
<path fill="none" stroke="#9a32cd" stroke-dasharray="5,2" d="M53.9974,-185.595C73.1864,-172.736 100.653,-154.331 116.625,-143.627"/>
<polygon fill="#9a32cd" stroke="#9a32cd" points="51.9408,-182.759 45.5819,-191.234 55.8375,-188.575 51.9408,-182.759"/>
<text text-anchor="middle" x="97" y="-165" font-family="Helvetica,sans-Serif" font-size="10.00"> gen</text>
</g>
</g>
</svg>
