<?xml version="1.0" encoding="UTF-8" standalone="no"?>
<!DOCTYPE svg PUBLIC "-//W3C//DTD SVG 1.1//EN"
 "http://www.w3.org/Graphics/SVG/1.1/DTD/svg11.dtd">
<!-- Generated by graphviz version 2.38.0 (20140413.2041)
 -->
<!-- Title: InverseGaussianProcessPCA Pages: 1 -->
<svg width="285pt" height="353pt"
 viewBox="0.00 0.00 284.50 353.00" xmlns="http://www.w3.org/2000/svg" xmlns:xlink="http://www.w3.org/1999/xlink">
<g id="graph0" class="graph" transform="scale(1 1) rotate(0) translate(4 349)">
<title>InverseGaussianProcessPCA</title>
<!-- Node1 -->
<g id="node1" class="node"><title>Node1</title>
<polygon fill="#bfbfbf" stroke="black" points="44,-0.5 44,-19.5 199,-19.5 199,-0.5 44,-0.5"/>
<text text-anchor="middle" x="121.5" y="-7.5" font-family="Helvetica,sans-Serif" font-size="10.00">InverseGaussianProcessPCA</text>
</g>
<!-- Node2 -->
<g id="node2" class="node"><title>Node2</title>
<g id="a_node2"><a xlink:href="classumontreal_1_1ssj_1_1stochprocess_1_1InverseGaussianProcess.html" target="_top" xlink:title="The inverse Gaussian process is a non&#45;decreasing process where the increments are additive and are gi...">
<polygon fill="none" stroke="black" points="0,-124.5 0,-143.5 135,-143.5 135,-124.5 0,-124.5"/>
<text text-anchor="middle" x="67.5" y="-131.5" font-family="Helvetica,sans-Serif" font-size="10.00">InverseGaussianProcess</text>
</a>
</g>
</g>
<!-- Node2&#45;&gt;Node1 -->
<g id="edge1" class="edge"><title>Node2&#45;&gt;Node1</title>
<path fill="none" stroke="midnightblue" d="M75.5098,-114.904C87.3038,-88.2581 108.89,-39.4891 117.652,-19.6944"/>
<polygon fill="midnightblue" stroke="midnightblue" points="72.2306,-113.665 71.3835,-124.226 78.6316,-116.498 72.2306,-113.665"/>
</g>
<!-- Node3 -->
<g id="node3" class="node"><title>Node3</title>
<g id="a_node3"><a xlink:href="classumontreal_1_1ssj_1_1stochprocess_1_1StochasticProcess.html" target="_top" xlink:title="Abstract base class for a stochastic process &#160;sampled (or observed) at a finite number of time points...">
<polygon fill="none" stroke="black" points="82.5,-191.5 82.5,-210.5 186.5,-210.5 186.5,-191.5 82.5,-191.5"/>
<text text-anchor="middle" x="134.5" y="-198.5" font-family="Helvetica,sans-Serif" font-size="10.00">StochasticProcess</text>
</a>
</g>
</g>
<!-- Node3&#45;&gt;Node2 -->
<g id="edge2" class="edge"><title>Node3&#45;&gt;Node2</title>
<path fill="none" stroke="midnightblue" d="M118.004,-183.997C104.865,-171.25 86.9761,-153.895 76.3928,-143.627"/>
<polygon fill="midnightblue" stroke="midnightblue" points="115.85,-186.783 125.464,-191.234 120.724,-181.759 115.85,-186.783"/>
</g>
<!-- Node6 -->
<g id="node6" class="node"><title>Node6</title>
<g id="a_node6"><a xlink:href="classumontreal_1_1ssj_1_1stochprocess_1_1BrownianMotion.html" target="_top" xlink:title="This class represents a Brownian motion process , sampled at times . ">
<polygon fill="none" stroke="black" points="153,-124.5 153,-143.5 248,-143.5 248,-124.5 153,-124.5"/>
<text text-anchor="middle" x="200.5" y="-131.5" font-family="Helvetica,sans-Serif" font-size="10.00">BrownianMotion</text>
</a>
</g>
</g>
<!-- Node3&#45;&gt;Node6 -->
<g id="edge6" class="edge"><title>Node3&#45;&gt;Node6</title>
<path fill="none" stroke="midnightblue" d="M150.749,-183.997C163.693,-171.25 181.315,-153.895 191.74,-143.627"/>
<polygon fill="midnightblue" stroke="midnightblue" points="148.07,-181.723 143.401,-191.234 152.982,-186.711 148.07,-181.723"/>
</g>
<!-- Node4 -->
<g id="node4" class="node"><title>Node4</title>
<g id="a_node4"><a xlink:href="interfaceumontreal_1_1ssj_1_1rng_1_1RandomStream.html" target="_top" xlink:title="This interface defines the basic structures to handle multiple streams of uniform (pseudo)random numb...">
<polygon fill="none" stroke="black" points="26.5,-325.5 26.5,-344.5 118.5,-344.5 118.5,-325.5 26.5,-325.5"/>
<text text-anchor="middle" x="72.5" y="-332.5" font-family="Helvetica,sans-Serif" font-size="10.00">RandomStream</text>
</a>
</g>
</g>
<!-- Node4&#45;&gt;Node2 -->
<g id="edge3" class="edge"><title>Node4&#45;&gt;Node2</title>
<path fill="none" stroke="#9a32cd" stroke-dasharray="5,2" d="M72.0302,-315.302C70.9801,-273.506 68.4755,-173.826 67.7197,-143.743"/>
<polygon fill="#9a32cd" stroke="#9a32cd" points="68.535,-315.54 72.2852,-325.449 75.5328,-315.364 68.535,-315.54"/>
<text text-anchor="middle" x="89.5" y="-232" font-family="Helvetica,sans-Serif" font-size="10.00"> stream</text>
</g>
<!-- Node8 -->
<g id="node8" class="node"><title>Node8</title>
<g id="a_node8"><a xlink:href="classumontreal_1_1ssj_1_1randvar_1_1RandomVariateGen.html" target="_top" xlink:title="This is the base class for all random variate generators over the real line. ">
<polygon fill="none" stroke="black" points="150.5,-258.5 150.5,-277.5 262.5,-277.5 262.5,-258.5 150.5,-258.5"/>
<text text-anchor="middle" x="206.5" y="-265.5" font-family="Helvetica,sans-Serif" font-size="10.00">RandomVariateGen</text>
</a>
</g>
</g>
<!-- Node4&#45;&gt;Node8 -->
<g id="edge10" class="edge"><title>Node4&#45;&gt;Node8</title>
<path fill="none" stroke="#9a32cd" stroke-dasharray="5,2" d="M99.4162,-320.944C125.958,-308.069 165.77,-288.757 188.632,-277.667"/>
<polygon fill="#9a32cd" stroke="#9a32cd" points="97.764,-317.855 90.2942,-325.369 100.819,-324.153 97.764,-317.855"/>
<text text-anchor="middle" x="167.5" y="-299" font-family="Helvetica,sans-Serif" font-size="10.00"> stream</text>
</g>
<!-- Node5 -->
<g id="node5" class="node"><title>Node5</title>
<g id="a_node5"><a xlink:href="classumontreal_1_1ssj_1_1stochprocess_1_1BrownianMotionPCA.html" target="_top" xlink:title="A Brownian motion process &#160;sampled using the principal component decomposition (PCA) ...">
<polygon fill="none" stroke="black" points="125,-67.5 125,-86.5 240,-86.5 240,-67.5 125,-67.5"/>
<text text-anchor="middle" x="182.5" y="-74.5" font-family="Helvetica,sans-Serif" font-size="10.00">BrownianMotionPCA</text>
</a>
</g>
</g>
<!-- Node5&#45;&gt;Node1 -->
<g id="edge4" class="edge"><title>Node5&#45;&gt;Node1</title>
<path fill="none" stroke="#9a32cd" stroke-dasharray="5,2" d="M167.142,-59.6348C155.212,-46.9228 139.141,-29.7978 129.596,-19.6273"/>
<polygon fill="#9a32cd" stroke="#9a32cd" points="164.878,-62.337 174.273,-67.2338 169.982,-57.5468 164.878,-62.337"/>
<text text-anchor="middle" x="176" y="-41" font-family="Helvetica,sans-Serif" font-size="10.00"> bmPCA</text>
</g>
<!-- Node6&#45;&gt;Node5 -->
<g id="edge5" class="edge"><title>Node6&#45;&gt;Node5</title>
<path fill="none" stroke="midnightblue" d="M194.52,-114.728C191.432,-105.292 187.807,-94.217 185.352,-86.7149"/>
<polygon fill="midnightblue" stroke="midnightblue" points="191.251,-115.991 197.688,-124.406 197.903,-113.814 191.251,-115.991"/>
</g>
<!-- Node7 -->
<g id="node7" class="node"><title>Node7</title>
<g id="a_node7"><a xlink:href="classumontreal_1_1ssj_1_1randvar_1_1NormalGen.html" target="_top" xlink:title="This class implements methods for generating random variates from the normal distribution ...">
<polygon fill="none" stroke="black" points="204.5,-191.5 204.5,-210.5 276.5,-210.5 276.5,-191.5 204.5,-191.5"/>
<text text-anchor="middle" x="240.5" y="-198.5" font-family="Helvetica,sans-Serif" font-size="10.00">NormalGen</text>
</a>
</g>
</g>
<!-- Node7&#45;&gt;Node6 -->
<g id="edge7" class="edge"><title>Node7&#45;&gt;Node6</title>
<path fill="none" stroke="#9a32cd" stroke-dasharray="5,2" d="M229.752,-182.535C222.008,-169.95 211.889,-153.507 205.809,-143.627"/>
<polygon fill="#9a32cd" stroke="#9a32cd" points="226.884,-184.552 235.105,-191.234 232.845,-180.883 226.884,-184.552"/>
<text text-anchor="middle" x="233.5" y="-165" font-family="Helvetica,sans-Serif" font-size="10.00"> gen</text>
</g>
<!-- Node8&#45;&gt;Node7 -->
<g id="edge8" class="edge"><title>Node8&#45;&gt;Node7</title>
<path fill="none" stroke="midnightblue" d="M215.83,-249.163C222.387,-236.628 230.87,-220.41 235.987,-210.627"/>
<polygon fill="midnightblue" stroke="midnightblue" points="212.619,-247.751 211.085,-258.234 218.822,-250.995 212.619,-247.751"/>
</g>
<!-- Node9 -->
<g id="node9" class="node"><title>Node9</title>
<g id="a_node9"><a xlink:href="interfaceumontreal_1_1ssj_1_1probdist_1_1Distribution.html" target="_top" xlink:title="This interface should be implemented by all classes supporting discrete and continuous distributions...">
<polygon fill="none" stroke="black" points="169.5,-325.5 169.5,-344.5 243.5,-344.5 243.5,-325.5 169.5,-325.5"/>
<text text-anchor="middle" x="206.5" y="-332.5" font-family="Helvetica,sans-Serif" font-size="10.00">Distribution</text>
</a>
</g>
</g>
<!-- Node9&#45;&gt;Node8 -->
<g id="edge9" class="edge"><title>Node9&#45;&gt;Node8</title>
<path fill="none" stroke="#9a32cd" stroke-dasharray="5,2" d="M206.5,-315.037C206.5,-302.67 206.5,-287.12 206.5,-277.627"/>
<polygon fill="#9a32cd" stroke="#9a32cd" points="203,-315.234 206.5,-325.234 210,-315.234 203,-315.234"/>
<text text-anchor="middle" x="217.5" y="-299" font-family="Helvetica,sans-Serif" font-size="10.00"> dist</text>
</g>
</g>
</svg>
