<?xml version="1.0" encoding="UTF-8" standalone="no"?>
<!DOCTYPE svg PUBLIC "-//W3C//DTD SVG 1.1//EN"
 "http://www.w3.org/Graphics/SVG/1.1/DTD/svg11.dtd">
<!-- Generated by graphviz version 2.26.3 (20100126.1600)
 -->
<!-- Title: KolmogorovSmirnovDist Pages: 1 -->
<svg width="154pt" height="204pt"
 viewBox="0.00 0.00 154.00 204.00" xmlns="http://www.w3.org/2000/svg" xmlns:xlink="http://www.w3.org/1999/xlink">
<g id="graph1" class="graph" transform="scale(1 1) rotate(0) translate(4 200)">
<title>KolmogorovSmirnovDist</title>
<!-- Node1 -->
<g id="node1" class="node"><title>Node1</title>
<polygon fill="#bfbfbf" stroke="black" points="12,-59 12,-79 134,-79 134,-59 12,-59"/>
<text text-anchor="middle" x="73" y="-66" font-family="Helvetica,sans-Serif" font-size="10.00">KolmogorovSmirnovDist</text>
</g>
<!-- Node4 -->
<g id="node7" class="node"><title>Node4</title>
<a xlink:href="classumontreal_1_1ssj_1_1probdist_1_1KolmogorovSmirnovDistQuick.html" target="_top" xlink:title="Extends the class KolmogorovSmirnovDist for the Kolmogorov–Smirnov distribution. ...">
<polygon fill="none" stroke="black" points="-0.5,-1 -0.5,-21 146.5,-21 146.5,-1 -0.5,-1"/>
<text text-anchor="middle" x="73" y="-8" font-family="Helvetica,sans-Serif" font-size="10.00">KolmogorovSmirnovDistQuick</text>
</a>
</g>
<!-- Node1&#45;&gt;Node4 -->
<g id="edge6" class="edge"><title>Node1&#45;&gt;Node4</title>
<path fill="none" stroke="midnightblue" d="M73,-48.8902C73,-39.6201 73,-29.0083 73,-21.3776"/>
<polygon fill="midnightblue" stroke="midnightblue" points="69.5001,-48.8971 73,-58.8972 76.5001,-48.8972 69.5001,-48.8971"/>
</g>
<!-- Node2 -->
<g id="node2" class="node"><title>Node2</title>
<a xlink:href="classumontreal_1_1ssj_1_1probdist_1_1ContinuousDistribution.html" target="_top" xlink:title="Classes implementing continuous distributions should inherit from this base class. ">
<polygon fill="none" stroke="black" points="16,-117 16,-137 130,-137 130,-117 16,-117"/>
<text text-anchor="middle" x="73" y="-124" font-family="Helvetica,sans-Serif" font-size="10.00">ContinuousDistribution</text>
</a>
</g>
<!-- Node2&#45;&gt;Node1 -->
<g id="edge2" class="edge"><title>Node2&#45;&gt;Node1</title>
<path fill="none" stroke="midnightblue" d="M73,-106.89C73,-97.6201 73,-87.0083 73,-79.3776"/>
<polygon fill="midnightblue" stroke="midnightblue" points="69.5001,-106.897 73,-116.897 76.5001,-106.897 69.5001,-106.897"/>
</g>
<!-- Node3 -->
<g id="node4" class="node"><title>Node3</title>
<a xlink:href="interfaceumontreal_1_1ssj_1_1probdist_1_1Distribution.html" target="_top" xlink:title="This interface should be implemented by all classes supporting discrete and continuous distributions...">
<polygon fill="none" stroke="black" points="40.5,-175 40.5,-195 105.5,-195 105.5,-175 40.5,-175"/>
<text text-anchor="middle" x="73" y="-182" font-family="Helvetica,sans-Serif" font-size="10.00">Distribution</text>
</a>
</g>
<!-- Node3&#45;&gt;Node2 -->
<g id="edge4" class="edge"><title>Node3&#45;&gt;Node2</title>
<path fill="none" stroke="midnightblue" d="M73,-164.89C73,-155.62 73,-145.008 73,-137.378"/>
<polygon fill="midnightblue" stroke="midnightblue" points="69.5001,-164.897 73,-174.897 76.5001,-164.897 69.5001,-164.897"/>
</g>
</g>
</svg>
