<?xml version="1.0" encoding="UTF-8" standalone="no"?>
<!DOCTYPE svg PUBLIC "-//W3C//DTD SVG 1.1//EN"
 "http://www.w3.org/Graphics/SVG/1.1/DTD/svg11.dtd">
<!-- Generated by graphviz version 2.38.0 (20140413.2041)
 -->
<!-- Title: MarkovChain Pages: 1 -->
<svg width="151pt" height="152pt"
 viewBox="0.00 0.00 150.50 152.00" xmlns="http://www.w3.org/2000/svg" xmlns:xlink="http://www.w3.org/1999/xlink">
<g id="graph0" class="graph" transform="scale(1 1) rotate(0) translate(4 148)">
<title>MarkovChain</title>
<!-- Node4 -->
<g id="node1" class="node"><title>Node4</title>
<polygon fill="#bfbfbf" stroke="black" points="19.5,-0.5 19.5,-19.5 91.5,-19.5 91.5,-0.5 19.5,-0.5"/>
<text text-anchor="middle" x="55.5" y="-7.5" font-family="Helvetica,sans-Serif" font-size="10.00">MarkovChain</text>
</g>
<!-- Node5 -->
<g id="node2" class="node"><title>Node5</title>
<polygon fill="none" stroke="#bfbfbf" points="0,-67.5 0,-86.5 59,-86.5 59,-67.5 0,-67.5"/>
<text text-anchor="middle" x="29.5" y="-74.5" font-family="Helvetica,sans-Serif" font-size="10.00">Cloneable</text>
</g>
<!-- Node5&#45;&gt;Node4 -->
<g id="edge1" class="edge"><title>Node5&#45;&gt;Node4</title>
<path fill="none" stroke="midnightblue" d="M36.784,-57.79C41.777,-45.3076 48.1746,-29.3135 52.0491,-19.6273"/>
<polygon fill="midnightblue" stroke="midnightblue" points="33.4708,-56.6491 33.0065,-67.2338 39.9701,-59.2489 33.4708,-56.6491"/>
</g>
<!-- Node6 -->
<g id="node3" class="node"><title>Node6</title>
<g id="a_node3"><a xlink:href="classumontreal_1_1ssj_1_1util_1_1Chrono.html" target="_top" xlink:title="The Chrono class extends the umontreal.ssj.util.AbstractChrono class and computes the CPU time for th...">
<polygon fill="none" stroke="black" points="77,-67.5 77,-86.5 124,-86.5 124,-67.5 77,-67.5"/>
<text text-anchor="middle" x="100.5" y="-74.5" font-family="Helvetica,sans-Serif" font-size="10.00">Chrono</text>
</a>
</g>
</g>
<!-- Node6&#45;&gt;Node4 -->
<g id="edge2" class="edge"><title>Node6&#45;&gt;Node4</title>
<path fill="none" stroke="#9a32cd" stroke-dasharray="5,2" d="M88.6641,-58.9037C79.9197,-46.2729 68.3798,-29.6041 61.4727,-19.6273"/>
<polygon fill="#9a32cd" stroke="#9a32cd" points="85.8613,-61.0041 94.4311,-67.2338 91.6166,-57.0196 85.8613,-61.0041"/>
<text text-anchor="middle" x="93" y="-41" font-family="Helvetica,sans-Serif" font-size="10.00"> timer</text>
</g>
<!-- Node7 -->
<g id="node4" class="node"><title>Node7</title>
<g id="a_node4"><a xlink:href="classumontreal_1_1ssj_1_1util_1_1AbstractChrono.html" target="_top" xlink:title="AbstractChrono is a class that acts as an interface to the system clock and calculates the CPU or sys...">
<polygon fill="none" stroke="black" points="58.5,-124.5 58.5,-143.5 142.5,-143.5 142.5,-124.5 58.5,-124.5"/>
<text text-anchor="middle" x="100.5" y="-131.5" font-family="Helvetica,sans-Serif" font-size="10.00">AbstractChrono</text>
</a>
</g>
</g>
<!-- Node7&#45;&gt;Node6 -->
<g id="edge3" class="edge"><title>Node7&#45;&gt;Node6</title>
<path fill="none" stroke="midnightblue" d="M100.5,-114.117C100.5,-104.817 100.5,-94.0557 100.5,-86.7149"/>
<polygon fill="midnightblue" stroke="midnightblue" points="97.0001,-114.406 100.5,-124.406 104,-114.406 97.0001,-114.406"/>
</g>
</g>
</svg>
