<?xml version="1.0" encoding="UTF-8" standalone="no"?>
<!DOCTYPE svg PUBLIC "-//W3C//DTD SVG 1.1//EN"
 "http://www.w3.org/Graphics/SVG/1.1/DTD/svg11.dtd">
<!-- Generated by graphviz version 2.38.0 (20140413.2041)
 -->
<!-- Title: MultivariateBrownianMotionPCABigSigma Pages: 1 -->
<svg width="527pt" height="322pt"
 viewBox="0.00 0.00 527.00 322.00" xmlns="http://www.w3.org/2000/svg" xmlns:xlink="http://www.w3.org/1999/xlink">
<g id="graph0" class="graph" transform="scale(1 1) rotate(0) translate(4 318)">
<title>MultivariateBrownianMotionPCABigSigma</title>
<!-- Node4 -->
<g id="node1" class="node"><title>Node4</title>
<polygon fill="#bfbfbf" stroke="black" points="332,-0.5 332,-30.5 466,-30.5 466,-0.5 332,-0.5"/>
<text text-anchor="start" x="340" y="-18.5" font-family="Helvetica,sans-Serif" font-size="10.00">MultivariateBrownianMotion</text>
<text text-anchor="middle" x="399" y="-7.5" font-family="Helvetica,sans-Serif" font-size="10.00">PCABigSigma</text>
</g>
<!-- Node5 -->
<g id="node2" class="node"><title>Node5</title>
<g id="a_node2"><a xlink:href="classumontreal_1_1ssj_1_1stochprocess_1_1MultivariateBrownianMotion.html" target="_top" xlink:title="This class represents a multivariate Brownian motion process , sampled at times . ...">
<polygon fill="none" stroke="black" points="233,-80.5 233,-99.5 367,-99.5 367,-80.5 233,-80.5"/>
<text text-anchor="middle" x="300" y="-87.5" font-family="Helvetica,sans-Serif" font-size="10.00">MultivariateBrownianMotion</text>
</a>
</g>
</g>
<!-- Node5&#45;&gt;Node4 -->
<g id="edge1" class="edge"><title>Node5&#45;&gt;Node4</title>
<path fill="none" stroke="midnightblue" d="M320.088,-74.2888C337.533,-61.5138 362.624,-43.1391 379.802,-30.5593"/>
<polygon fill="midnightblue" stroke="midnightblue" points="317.745,-71.6664 311.745,-80.3986 321.881,-77.314 317.745,-71.6664"/>
</g>
<!-- Node6 -->
<g id="node3" class="node"><title>Node6</title>
<g id="a_node3"><a xlink:href="classumontreal_1_1ssj_1_1stochprocess_1_1MultivariateStochasticProcess.html" target="_top" xlink:title="This class is a multivariate version of StochasticProcess where the process evolves in the &#45;dimension...">
<polygon fill="none" stroke="black" points="0,-170.5 0,-189.5 148,-189.5 148,-170.5 0,-170.5"/>
<text text-anchor="middle" x="74" y="-177.5" font-family="Helvetica,sans-Serif" font-size="10.00">MultivariateStochasticProcess</text>
</a>
</g>
</g>
<!-- Node6&#45;&gt;Node5 -->
<g id="edge2" class="edge"><title>Node6&#45;&gt;Node5</title>
<path fill="none" stroke="midnightblue" d="M105.665,-166.67C152.229,-148.539 237.989,-115.146 278.162,-99.5034"/>
<polygon fill="midnightblue" stroke="midnightblue" points="104.13,-163.512 96.0813,-170.402 106.67,-170.035 104.13,-163.512"/>
</g>
<!-- Node7 -->
<g id="node4" class="node"><title>Node7</title>
<g id="a_node4"><a xlink:href="classumontreal_1_1ssj_1_1stochprocess_1_1StochasticProcess.html" target="_top" xlink:title="Abstract base class for a stochastic process &#160;sampled (or observed) at a finite number of time points...">
<polygon fill="none" stroke="black" points="24.5,-227.5 24.5,-246.5 123.5,-246.5 123.5,-227.5 24.5,-227.5"/>
<text text-anchor="middle" x="74" y="-234.5" font-family="Helvetica,sans-Serif" font-size="10.00">StochasticProcess</text>
</a>
</g>
</g>
<!-- Node7&#45;&gt;Node6 -->
<g id="edge3" class="edge"><title>Node7&#45;&gt;Node6</title>
<path fill="none" stroke="midnightblue" d="M74,-217.117C74,-207.817 74,-197.056 74,-189.715"/>
<polygon fill="midnightblue" stroke="midnightblue" points="70.5001,-217.406 74,-227.406 77.5001,-217.406 70.5001,-217.406"/>
</g>
<!-- Node8 -->
<g id="node5" class="node"><title>Node8</title>
<polygon fill="none" stroke="#bfbfbf" points="166,-170.5 166,-189.5 288,-189.5 288,-170.5 166,-170.5"/>
<text text-anchor="middle" x="227" y="-177.5" font-family="Helvetica,sans-Serif" font-size="10.00">CholeskyDecomposition</text>
</g>
<!-- Node8&#45;&gt;Node5 -->
<g id="edge4" class="edge"><title>Node8&#45;&gt;Node5</title>
<path fill="none" stroke="#9a32cd" stroke-dasharray="5,2" d="M234.803,-161.294C239.572,-151.524 246.241,-139.486 254,-130 263.811,-118.006 277.652,-106.845 287.585,-99.5627"/>
<polygon fill="#9a32cd" stroke="#9a32cd" points="231.587,-159.909 230.555,-170.453 237.937,-162.854 231.587,-159.909"/>
<text text-anchor="middle" x="273" y="-138.5" font-family="Helvetica,sans-Serif" font-size="10.00"> decomp</text>
</g>
<!-- Node9 -->
<g id="node6" class="node"><title>Node9</title>
<g id="a_node6"><a xlink:href="classumontreal_1_1ssj_1_1randvar_1_1NormalGen.html" target="_top" xlink:title="This class implements methods for generating random variates from the normal distribution ...">
<polygon fill="none" stroke="black" points="306.5,-170.5 306.5,-189.5 371.5,-189.5 371.5,-170.5 306.5,-170.5"/>
<text text-anchor="middle" x="339" y="-177.5" font-family="Helvetica,sans-Serif" font-size="10.00">NormalGen</text>
</a>
</g>
</g>
<!-- Node9&#45;&gt;Node5 -->
<g id="edge5" class="edge"><title>Node9&#45;&gt;Node5</title>
<path fill="none" stroke="#9a32cd" stroke-dasharray="5,2" d="M311.583,-164.43C307.337,-160.937 303.528,-156.8 301,-152 292.215,-135.319 295.163,-112.344 297.775,-99.892"/>
<polygon fill="#9a32cd" stroke="#9a32cd" points="309.864,-167.499 320.066,-170.357 313.873,-161.76 309.864,-167.499"/>
<text text-anchor="middle" x="310.5" y="-138.5" font-family="Helvetica,sans-Serif" font-size="10.00"> gen</text>
</g>
<!-- Node10 -->
<g id="node7" class="node"><title>Node10</title>
<g id="a_node7"><a xlink:href="classumontreal_1_1ssj_1_1randvar_1_1RandomVariateGen.html" target="_top" xlink:title="This is the base class for all random variate generators over the real line. ">
<polygon fill="none" stroke="black" points="288.5,-227.5 288.5,-246.5 389.5,-246.5 389.5,-227.5 288.5,-227.5"/>
<text text-anchor="middle" x="339" y="-234.5" font-family="Helvetica,sans-Serif" font-size="10.00">RandomVariateGen</text>
</a>
</g>
</g>
<!-- Node10&#45;&gt;Node9 -->
<g id="edge6" class="edge"><title>Node10&#45;&gt;Node9</title>
<path fill="none" stroke="midnightblue" d="M339,-217.117C339,-207.817 339,-197.056 339,-189.715"/>
<polygon fill="midnightblue" stroke="midnightblue" points="335.5,-217.406 339,-227.406 342.5,-217.406 335.5,-217.406"/>
</g>
<!-- Node11 -->
<g id="node8" class="node"><title>Node11</title>
<g id="a_node8"><a xlink:href="interfaceumontreal_1_1ssj_1_1probdist_1_1Distribution.html" target="_top" xlink:title="This interface should be implemented by all classes supporting discrete and continuous distributions...">
<polygon fill="none" stroke="black" points="260.5,-294.5 260.5,-313.5 325.5,-313.5 325.5,-294.5 260.5,-294.5"/>
<text text-anchor="middle" x="293" y="-301.5" font-family="Helvetica,sans-Serif" font-size="10.00">Distribution</text>
</a>
</g>
</g>
<!-- Node11&#45;&gt;Node10 -->
<g id="edge7" class="edge"><title>Node11&#45;&gt;Node10</title>
<path fill="none" stroke="#9a32cd" stroke-dasharray="5,2" d="M305.099,-285.904C314.038,-273.273 325.834,-256.604 332.895,-246.627"/>
<polygon fill="#9a32cd" stroke="#9a32cd" points="302.124,-284.049 299.204,-294.234 307.837,-288.093 302.124,-284.049"/>
<text text-anchor="middle" x="328.5" y="-268" font-family="Helvetica,sans-Serif" font-size="10.00"> dist</text>
</g>
<!-- Node12 -->
<g id="node9" class="node"><title>Node12</title>
<g id="a_node9"><a xlink:href="interfaceumontreal_1_1ssj_1_1rng_1_1RandomStream.html" target="_top" xlink:title="This interface defines the basic structures to handle multiple streams of uniform (pseudo)random numb...">
<polygon fill="none" stroke="black" points="344,-294.5 344,-313.5 428,-313.5 428,-294.5 344,-294.5"/>
<text text-anchor="middle" x="386" y="-301.5" font-family="Helvetica,sans-Serif" font-size="10.00">RandomStream</text>
</a>
</g>
</g>
<!-- Node12&#45;&gt;Node10 -->
<g id="edge8" class="edge"><title>Node12&#45;&gt;Node10</title>
<path fill="none" stroke="#9a32cd" stroke-dasharray="5,2" d="M373.638,-285.904C364.505,-273.273 352.452,-256.604 345.238,-246.627"/>
<polygon fill="#9a32cd" stroke="#9a32cd" points="370.966,-288.181 379.661,-294.234 376.638,-284.079 370.966,-288.181"/>
<text text-anchor="middle" x="383" y="-268" font-family="Helvetica,sans-Serif" font-size="10.00"> stream</text>
</g>
<!-- Node13 -->
<g id="node10" class="node"><title>Node13</title>
<polygon fill="none" stroke="#bfbfbf" points="390,-170.5 390,-189.5 476,-189.5 476,-170.5 390,-170.5"/>
<text text-anchor="middle" x="433" y="-177.5" font-family="Helvetica,sans-Serif" font-size="10.00">DoubleMatrix2D</text>
</g>
<!-- Node13&#45;&gt;Node4 -->
<g id="edge10" class="edge"><title>Node13&#45;&gt;Node4</title>
<path fill="none" stroke="#9a32cd" stroke-dasharray="5,2" d="M429.059,-160.163C422.165,-127.214 408.068,-59.8417 401.947,-30.5835"/>
<polygon fill="#9a32cd" stroke="#9a32cd" points="425.698,-161.192 431.172,-170.263 432.55,-159.758 425.698,-161.192"/>
<text text-anchor="middle" x="469" y="-104" font-family="Helvetica,sans-Serif" font-size="10.00"> decompPCABigSigma</text>
<text text-anchor="middle" x="469" y="-93" font-family="Helvetica,sans-Serif" font-size="10.00">A</text>
<text text-anchor="middle" x="469" y="-82" font-family="Helvetica,sans-Serif" font-size="10.00">BigSigma</text>
<text text-anchor="middle" x="469" y="-71" font-family="Helvetica,sans-Serif" font-size="10.00">C</text>
</g>
<!-- Node13&#45;&gt;Node5 -->
<g id="edge9" class="edge"><title>Node13&#45;&gt;Node5</title>
<path fill="none" stroke="#9a32cd" stroke-dasharray="5,2" d="M379.867,-169.381C367.015,-165.407 353.865,-159.825 343,-152 323.864,-138.219 310.203,-113.202 303.905,-99.8898"/>
<polygon fill="#9a32cd" stroke="#9a32cd" points="379.021,-172.779 389.595,-172.117 380.916,-166.04 379.021,-172.779"/>
<text text-anchor="middle" x="381" y="-144" font-family="Helvetica,sans-Serif" font-size="10.00"> covZ</text>
<text text-anchor="middle" x="381" y="-133" font-family="Helvetica,sans-Serif" font-size="10.00">covZCholDecomp</text>
</g>
</g>
</svg>
