<?xml version="1.0" encoding="UTF-8" standalone="no"?>
<!DOCTYPE svg PUBLIC "-//W3C//DTD SVG 1.1//EN"
 "http://www.w3.org/Graphics/SVG/1.1/DTD/svg11.dtd">
<!-- Generated by graphviz version 2.38.0 (20140413.2041)
 -->
<!-- Title: DiscShift1Lattice Pages: 1 -->
<svg width="98pt" height="140pt"
 viewBox="0.00 0.00 98.00 140.00" xmlns="http://www.w3.org/2000/svg" xmlns:xlink="http://www.w3.org/1999/xlink">
<g id="graph0" class="graph" transform="scale(1 1) rotate(0) translate(4 136)">
<title>DiscShift1Lattice</title>
<!-- Node0 -->
<g id="node1" class="node"><title>Node0</title>
<polygon fill="#bfbfbf" stroke="black" points="0,-0.5 0,-19.5 90,-19.5 90,-0.5 0,-0.5"/>
<text text-anchor="middle" x="45" y="-7.5" font-family="Helvetica,sans-Serif" font-size="10.00">DiscShift1Lattice</text>
</g>
<!-- Node1 -->
<g id="node2" class="node"><title>Node1</title>
<g id="a_node2"><a xlink:href="classumontreal_1_1ssj_1_1discrepancy_1_1DiscShift1.html" target="_top" xlink:title="This class computes the discrepancy for randomly shifted points of a set &#160;  (eq. ...">
<polygon fill="none" stroke="black" points="14.5,-56.5 14.5,-75.5 75.5,-75.5 75.5,-56.5 14.5,-56.5"/>
<text text-anchor="middle" x="45" y="-63.5" font-family="Helvetica,sans-Serif" font-size="10.00">DiscShift1</text>
</a>
</g>
</g>
<!-- Node1&#45;&gt;Node0 -->
<g id="edge1" class="edge"><title>Node1&#45;&gt;Node0</title>
<path fill="none" stroke="midnightblue" d="M45,-45.8045C45,-36.9102 45,-26.7798 45,-19.7511"/>
<polygon fill="midnightblue" stroke="midnightblue" points="41.5001,-46.083 45,-56.083 48.5001,-46.083 41.5001,-46.083"/>
</g>
<!-- Node2 -->
<g id="node3" class="node"><title>Node2</title>
<g id="a_node3"><a xlink:href="classumontreal_1_1ssj_1_1discrepancy_1_1Discrepancy.html" target="_top" xlink:title="This abstract class is the base class of all discrepancy classes. ">
<polygon fill="none" stroke="black" points="9.5,-112.5 9.5,-131.5 80.5,-131.5 80.5,-112.5 9.5,-112.5"/>
<text text-anchor="middle" x="45" y="-119.5" font-family="Helvetica,sans-Serif" font-size="10.00">Discrepancy</text>
</a>
</g>
</g>
<!-- Node2&#45;&gt;Node1 -->
<g id="edge2" class="edge"><title>Node2&#45;&gt;Node1</title>
<path fill="none" stroke="midnightblue" d="M45,-101.805C45,-92.9102 45,-82.7798 45,-75.7511"/>
<polygon fill="midnightblue" stroke="midnightblue" points="41.5001,-102.083 45,-112.083 48.5001,-102.083 41.5001,-102.083"/>
</g>
</g>
</svg>
