<?xml version="1.0" encoding="UTF-8" standalone="no"?>
<!DOCTYPE svg PUBLIC "-//W3C//DTD SVG 1.1//EN"
 "http://www.w3.org/Graphics/SVG/1.1/DTD/svg11.dtd">
<!-- Generated by graphviz version 2.38.0 (20140413.2041)
 -->
<!-- Title: VarianceGammaProcessDiff Pages: 1 -->
<svg width="348pt" height="355pt"
 viewBox="0.00 0.00 347.50 355.00" xmlns="http://www.w3.org/2000/svg" xmlns:xlink="http://www.w3.org/1999/xlink">
<g id="graph0" class="graph" transform="scale(1 1) rotate(0) translate(4 351)">
<title>VarianceGammaProcessDiff</title>
<!-- Node6 -->
<g id="node1" class="node"><title>Node6</title>
<polygon fill="#bfbfbf" stroke="black" points="136,-0.5 136,-19.5 275,-19.5 275,-0.5 136,-0.5"/>
<text text-anchor="middle" x="205.5" y="-7.5" font-family="Helvetica,sans-Serif" font-size="10.00">VarianceGammaProcessDiff</text>
</g>
<!-- Node7 -->
<g id="node2" class="node"><title>Node7</title>
<g id="a_node2"><a xlink:href="classumontreal_1_1ssj_1_1stochprocess_1_1VarianceGammaProcess.html" target="_top" xlink:title="This class represents a variance gamma (VG) process . ">
<polygon fill="none" stroke="black" points="71,-58.5 71,-77.5 196,-77.5 196,-58.5 71,-58.5"/>
<text text-anchor="middle" x="133.5" y="-65.5" font-family="Helvetica,sans-Serif" font-size="10.00">VarianceGammaProcess</text>
</a>
</g>
</g>
<!-- Node7&#45;&gt;Node6 -->
<g id="edge1" class="edge"><title>Node7&#45;&gt;Node6</title>
<path fill="none" stroke="midnightblue" d="M152.53,-52.1986C165.901,-41.799 183.322,-28.2496 194.462,-19.5852"/>
<polygon fill="midnightblue" stroke="midnightblue" points="150.18,-49.5926 144.435,-58.4948 154.478,-55.1181 150.18,-49.5926"/>
</g>
<!-- Node8 -->
<g id="node3" class="node"><title>Node8</title>
<g id="a_node3"><a xlink:href="classumontreal_1_1ssj_1_1stochprocess_1_1StochasticProcess.html" target="_top" xlink:title="Abstract base class for a stochastic process &#160;sampled (or observed) at a finite number of time points...">
<polygon fill="none" stroke="black" points="83,-193.5 83,-212.5 182,-212.5 182,-193.5 83,-193.5"/>
<text text-anchor="middle" x="132.5" y="-200.5" font-family="Helvetica,sans-Serif" font-size="10.00">StochasticProcess</text>
</a>
</g>
</g>
<!-- Node8&#45;&gt;Node7 -->
<g id="edge2" class="edge"><title>Node8&#45;&gt;Node7</title>
<path fill="none" stroke="midnightblue" d="M88.7846,-188.586C83.1241,-185.046 78.0657,-180.593 74.5,-175 71.8719,-170.878 74.1804,-168.878 74.5,-164 75.6135,-147.002 72.1735,-141.378 79.5,-126 89.2324,-105.572 109.049,-87.6694 121.779,-77.6068"/>
<polygon fill="midnightblue" stroke="midnightblue" points="87.5642,-191.898 98.0475,-193.431 90.8086,-185.695 87.5642,-191.898"/>
</g>
<!-- Node9 -->
<g id="node4" class="node"><title>Node9</title>
<g id="a_node4"><a xlink:href="classumontreal_1_1ssj_1_1stochprocess_1_1BrownianMotion.html" target="_top" xlink:title="This class represents a Brownian motion process , sampled at times . ">
<polygon fill="none" stroke="black" points="88.5,-126.5 88.5,-145.5 174.5,-145.5 174.5,-126.5 88.5,-126.5"/>
<text text-anchor="middle" x="131.5" y="-133.5" font-family="Helvetica,sans-Serif" font-size="10.00">BrownianMotion</text>
</a>
</g>
</g>
<!-- Node8&#45;&gt;Node9 -->
<g id="edge4" class="edge"><title>Node8&#45;&gt;Node9</title>
<path fill="none" stroke="midnightblue" d="M132.208,-183.037C132.018,-170.67 131.779,-155.12 131.633,-145.627"/>
<polygon fill="midnightblue" stroke="midnightblue" points="128.712,-183.289 132.365,-193.234 135.711,-183.181 128.712,-183.289"/>
</g>
<!-- Node14 -->
<g id="node9" class="node"><title>Node14</title>
<g id="a_node9"><a xlink:href="classumontreal_1_1ssj_1_1stochprocess_1_1GammaProcess.html" target="_top" xlink:title="This class represents a gamma process   (page 82) &#160;with mean parameter &#160;and variance parameter ...">
<polygon fill="none" stroke="black" points="193,-126.5 193,-145.5 280,-145.5 280,-126.5 193,-126.5"/>
<text text-anchor="middle" x="236.5" y="-133.5" font-family="Helvetica,sans-Serif" font-size="10.00">GammaProcess</text>
</a>
</g>
</g>
<!-- Node8&#45;&gt;Node14 -->
<g id="edge10" class="edge"><title>Node8&#45;&gt;Node14</title>
<path fill="none" stroke="midnightblue" d="M155.27,-187.769C175.856,-174.903 205.494,-156.379 222.696,-145.627"/>
<polygon fill="midnightblue" stroke="midnightblue" points="153.151,-184.966 146.526,-193.234 156.861,-190.902 153.151,-184.966"/>
</g>
<!-- Node9&#45;&gt;Node7 -->
<g id="edge3" class="edge"><title>Node9&#45;&gt;Node7</title>
<path fill="none" stroke="#9a32cd" stroke-dasharray="5,2" d="M127.956,-116.251C127.216,-110.116 126.836,-103.267 127.5,-97 128.191,-90.4742 129.765,-83.2338 131.127,-77.7507"/>
<polygon fill="#9a32cd" stroke="#9a32cd" points="124.517,-116.912 129.53,-126.246 131.432,-115.823 124.517,-116.912"/>
<text text-anchor="middle" x="137" y="-100" font-family="Helvetica,sans-Serif" font-size="10.00"> BM</text>
</g>
<!-- Node10 -->
<g id="node5" class="node"><title>Node10</title>
<g id="a_node5"><a xlink:href="classumontreal_1_1ssj_1_1randvar_1_1NormalGen.html" target="_top" xlink:title="This class implements methods for generating random variates from the normal distribution ...">
<polygon fill="none" stroke="black" points="0,-193.5 0,-212.5 65,-212.5 65,-193.5 0,-193.5"/>
<text text-anchor="middle" x="32.5" y="-200.5" font-family="Helvetica,sans-Serif" font-size="10.00">NormalGen</text>
</a>
</g>
</g>
<!-- Node10&#45;&gt;Node9 -->
<g id="edge5" class="edge"><title>Node10&#45;&gt;Node9</title>
<path fill="none" stroke="#9a32cd" stroke-dasharray="5,2" d="M54.4407,-187.595C74.0253,-174.736 102.058,-156.331 118.36,-145.627"/>
<polygon fill="#9a32cd" stroke="#9a32cd" points="52.2899,-184.82 45.8516,-193.234 56.1318,-190.671 52.2899,-184.82"/>
<text text-anchor="middle" x="98" y="-167" font-family="Helvetica,sans-Serif" font-size="10.00"> gen</text>
</g>
<!-- Node11 -->
<g id="node6" class="node"><title>Node11</title>
<g id="a_node6"><a xlink:href="classumontreal_1_1ssj_1_1randvar_1_1RandomVariateGen.html" target="_top" xlink:title="This is the base class for all random variate generators over the real line. ">
<polygon fill="none" stroke="black" points="161,-260.5 161,-279.5 262,-279.5 262,-260.5 161,-260.5"/>
<text text-anchor="middle" x="211.5" y="-267.5" font-family="Helvetica,sans-Serif" font-size="10.00">RandomVariateGen</text>
</a>
</g>
</g>
<!-- Node11&#45;&gt;Node10 -->
<g id="edge6" class="edge"><title>Node11&#45;&gt;Node10</title>
<path fill="none" stroke="midnightblue" d="M178.279,-256.936C142.769,-244.042 87.3683,-223.924 56.083,-212.564"/>
<polygon fill="midnightblue" stroke="midnightblue" points="177.136,-260.245 187.73,-260.369 179.525,-253.665 177.136,-260.245"/>
</g>
<!-- Node15 -->
<g id="node10" class="node"><title>Node15</title>
<g id="a_node10"><a xlink:href="classumontreal_1_1ssj_1_1randvar_1_1GammaGen.html" target="_top" xlink:title="This class implements random variate generators for the gamma distribution. ">
<polygon fill="none" stroke="black" points="200,-193.5 200,-212.5 269,-212.5 269,-193.5 200,-193.5"/>
<text text-anchor="middle" x="234.5" y="-200.5" font-family="Helvetica,sans-Serif" font-size="10.00">GammaGen</text>
</a>
</g>
</g>
<!-- Node11&#45;&gt;Node15 -->
<g id="edge12" class="edge"><title>Node11&#45;&gt;Node15</title>
<path fill="none" stroke="midnightblue" d="M217.944,-250.79C222.36,-238.308 228.02,-222.314 231.447,-212.627"/>
<polygon fill="midnightblue" stroke="midnightblue" points="214.638,-249.639 214.602,-260.234 221.237,-251.974 214.638,-249.639"/>
</g>
<!-- Node12 -->
<g id="node7" class="node"><title>Node12</title>
<g id="a_node7"><a xlink:href="interfaceumontreal_1_1ssj_1_1probdist_1_1Distribution.html" target="_top" xlink:title="This interface should be implemented by all classes supporting discrete and continuous distributions...">
<polygon fill="none" stroke="black" points="172,-327.5 172,-346.5 237,-346.5 237,-327.5 172,-327.5"/>
<text text-anchor="middle" x="204.5" y="-334.5" font-family="Helvetica,sans-Serif" font-size="10.00">Distribution</text>
</a>
</g>
</g>
<!-- Node12&#45;&gt;Node11 -->
<g id="edge7" class="edge"><title>Node12&#45;&gt;Node11</title>
<path fill="none" stroke="#9a32cd" stroke-dasharray="5,2" d="M205.003,-317.21C205.296,-311.072 205.762,-304.233 206.5,-298 207.217,-291.94 208.467,-285.19 209.538,-279.955"/>
<polygon fill="#9a32cd" stroke="#9a32cd" points="201.504,-317.097 204.637,-327.218 208.5,-317.353 201.504,-317.097"/>
<text text-anchor="middle" x="216" y="-301" font-family="Helvetica,sans-Serif" font-size="10.00"> dist</text>
</g>
<!-- Node13 -->
<g id="node8" class="node"><title>Node13</title>
<g id="a_node8"><a xlink:href="interfaceumontreal_1_1ssj_1_1rng_1_1RandomStream.html" target="_top" xlink:title="This interface defines the basic structures to handle multiple streams of uniform (pseudo)random numb...">
<polygon fill="none" stroke="black" points="255.5,-327.5 255.5,-346.5 339.5,-346.5 339.5,-327.5 255.5,-327.5"/>
<text text-anchor="middle" x="297.5" y="-334.5" font-family="Helvetica,sans-Serif" font-size="10.00">RandomStream</text>
</a>
</g>
</g>
<!-- Node13&#45;&gt;Node11 -->
<g id="edge8" class="edge"><title>Node13&#45;&gt;Node11</title>
<path fill="none" stroke="#9a32cd" stroke-dasharray="5,2" d="M270.247,-322.368C263.245,-318.415 255.89,-313.846 249.5,-309 237.755,-300.092 226.033,-287.705 218.779,-279.526"/>
<polygon fill="#9a32cd" stroke="#9a32cd" points="268.992,-325.668 279.453,-327.346 272.321,-319.511 268.992,-325.668"/>
<text text-anchor="middle" x="266.5" y="-301" font-family="Helvetica,sans-Serif" font-size="10.00"> stream</text>
</g>
<!-- Node13&#45;&gt;Node14 -->
<g id="edge13" class="edge"><title>Node13&#45;&gt;Node14</title>
<path fill="none" stroke="#9a32cd" stroke-dasharray="5,2" d="M298.975,-316.928C300.621,-283.098 299.632,-211.664 267.5,-164 262.633,-156.78 255.364,-150.31 249.088,-145.514"/>
<polygon fill="#9a32cd" stroke="#9a32cd" points="295.462,-317.026 298.329,-327.226 302.448,-317.464 295.462,-317.026"/>
<text text-anchor="middle" x="312.5" y="-234" font-family="Helvetica,sans-Serif" font-size="10.00"> stream</text>
</g>
<!-- Node14&#45;&gt;Node6 -->
<g id="edge14" class="edge"><title>Node14&#45;&gt;Node6</title>
<path fill="none" stroke="#9a32cd" stroke-dasharray="5,2" d="M231.919,-116.676C225.123,-89.4936 212.638,-39.5522 207.646,-19.5827"/>
<polygon fill="#9a32cd" stroke="#9a32cd" points="228.548,-117.624 234.369,-126.477 235.339,-115.927 228.548,-117.624"/>
<text text-anchor="middle" x="235" y="-71" font-family="Helvetica,sans-Serif" font-size="10.00"> gneg</text>
<text text-anchor="middle" x="235" y="-60" font-family="Helvetica,sans-Serif" font-size="10.00">gpos</text>
</g>
<!-- Node14&#45;&gt;Node7 -->
<g id="edge9" class="edge"><title>Node14&#45;&gt;Node7</title>
<path fill="none" stroke="#9a32cd" stroke-dasharray="5,2" d="M197.885,-122.812C188.181,-118.86 178.092,-113.931 169.5,-108 157.367,-99.624 146.338,-86.4836 139.772,-77.8062"/>
<polygon fill="#9a32cd" stroke="#9a32cd" points="196.8,-126.144 207.391,-126.438 199.295,-119.604 196.8,-126.144"/>
<text text-anchor="middle" x="198" y="-100" font-family="Helvetica,sans-Serif" font-size="10.00"> randomTime</text>
</g>
<!-- Node15&#45;&gt;Node14 -->
<g id="edge11" class="edge"><title>Node15&#45;&gt;Node14</title>
<path fill="none" stroke="#9a32cd" stroke-dasharray="5,2" d="M235.083,-183.037C235.464,-170.67 235.942,-155.12 236.235,-145.627"/>
<polygon fill="#9a32cd" stroke="#9a32cd" points="231.579,-183.131 234.77,-193.234 238.576,-183.346 231.579,-183.131"/>
<text text-anchor="middle" x="250" y="-167" font-family="Helvetica,sans-Serif" font-size="10.00"> Ggen</text>
</g>
</g>
</svg>
