<?xml version="1.0" encoding="UTF-8" standalone="no"?>
<!DOCTYPE svg PUBLIC "-//W3C//DTD SVG 1.1//EN"
 "http://www.w3.org/Graphics/SVG/1.1/DTD/svg11.dtd">
<!-- Generated by graphviz version 2.38.0 (20140413.2041)
 -->
<!-- Title: CallCenter Pages: 1 -->
<!--zoomable 363 -->
<svg id="main" version="1.1" xmlns="http://www.w3.org/2000/svg" xmlns:xlink="http://www.w3.org/1999/xlink" xml:space="preserve" onload="init(evt)">
<style type="text/css"><![CDATA[
.edge:hover path { stroke: red; }
.edge:hover polygon { stroke: red; fill: red; }
]]></style>
<script type="text/javascript"><![CDATA[
var edges = document.getElementsByTagName('g');
if (edges && edges.length) {
  for (var i=0;i<edges.length;i++) {
    if (edges[i].id.substr(0,4)=='edge') {
      edges[i].setAttribute('class','edge');
    }
  }
}
]]></script>
        <defs>
                <circle id="rim" cx="0" cy="0" r="7"/>
                <circle id="rim2" cx="0" cy="0" r="3.5"/>
                <g id="zoomPlus">
                        <use xlink:href="#rim" fill="#404040">
                                <set attributeName="fill" to="#808080" begin="zoomplus.mouseover" end="zoomplus.mouseout"/>
                        </use>
                        <path d="M-4,0h8M0,-4v8" fill="none" stroke="white" stroke-width="1.5" pointer-events="none"/>
                </g>
                <g id="zoomMin">
                        <use xlink:href="#rim" fill="#404040">
                                <set attributeName="fill" to="#808080" begin="zoomminus.mouseover" end="zoomminus.mouseout"/>
                        </use>
                        <path d="M-4,0h8" fill="none" stroke="white" stroke-width="1.5" pointer-events="none"/>
                </g>
                <g id="dirArrow">
                        <path fill="none" stroke="white" stroke-width="1.5" d="M0,-3.0v7 M-2.5,-0.5L0,-3.0L2.5,-0.5"/>
                </g>
               <g id="resetDef">
                       <use xlink:href="#rim2" fill="#404040">
                               <set attributeName="fill" to="#808080" begin="reset.mouseover" end="reset.mouseout"/>
                       </use>
               </g>
        </defs>

<script type="text/javascript">
var viewWidth = 749;
var viewHeight = 363;
var sectionId = 'dynsection-0';
</script>
<script xlink:href="svgpan.js"/>
<svg id="graph" class="graph">
<g id="viewport">
<title>CallCenter</title>
<!-- Node1 -->
<g id="node1" class="node"><title>Node1</title>
<polygon fill="#bfbfbf" stroke="black" points="283,-0.5 283,-19.5 351,-19.5 351,-0.5 283,-0.5"/>
<text text-anchor="middle" x="317" y="-7.5" font-family="Helvetica,sans-Serif" font-size="10.00">CallCenter</text>
</g>
<!-- Node2 -->
<g id="node2" class="node"><title>Node2</title>
<polygon fill="none" stroke="#bfbfbf" points="4.5,-122.5 4.5,-141.5 165.5,-141.5 165.5,-122.5 4.5,-122.5"/>
<text text-anchor="middle" x="85" y="-129.5" font-family="Helvetica,sans-Serif" font-size="10.00">LinkedList&lt; CallCenter.Call &gt;</text>
</g>
<!-- Node2&#45;&gt;Node1 -->
<g id="edge1" class="edge"><title>Node2&#45;&gt;Node1</title>
<path fill="none" stroke="#9a32cd" stroke-dasharray="5,2" d="M94.5975,-113.6C107.43,-92.1139 132.285,-56.1857 164,-38 200.853,-16.8676 250.272,-11.5181 282.846,-10.53"/>
<polygon fill="#9a32cd" stroke="#9a32cd" points="91.5219,-111.928 89.5662,-122.34 97.5885,-115.42 91.5219,-111.928"/>
<text text-anchor="middle" x="185" y="-68.5" font-family="Helvetica,sans-Serif" font-size="10.00"> waitList</text>
</g>
<!-- Node3 -->
<g id="node3" class="node"><title>Node3</title>
<g id="a_node3"><a xlink:href="classumontreal_1_1ssj_1_1stat_1_1Tally.html" target="_top" xlink:title="A subclass of StatProbe. ">
<polygon fill="none" stroke="black" points="183.5,-122.5 183.5,-141.5 224.5,-141.5 224.5,-122.5 183.5,-122.5"/>
<text text-anchor="middle" x="204" y="-129.5" font-family="Helvetica,sans-Serif" font-size="10.00">Tally</text>
</a>
</g>
</g>
<!-- Node3&#45;&gt;Node1 -->
<g id="edge2" class="edge"><title>Node3&#45;&gt;Node1</title>
<path fill="none" stroke="#9a32cd" stroke-dasharray="5,2" d="M207.193,-112.407C211.694,-91.6037 221.844,-58.1794 243,-38 253.885,-27.6169 269.079,-21.1718 282.868,-17.1974"/>
<polygon fill="#9a32cd" stroke="#9a32cd" points="203.752,-111.767 205.283,-122.251 210.624,-113.101 203.752,-111.767"/>
<text text-anchor="middle" x="278" y="-96" font-family="Helvetica,sans-Serif" font-size="10.00"> statWaitsDay</text>
<text text-anchor="middle" x="278" y="-85" font-family="Helvetica,sans-Serif" font-size="10.00">statWaits</text>
<text text-anchor="middle" x="278" y="-74" font-family="Helvetica,sans-Serif" font-size="10.00">statArrivals</text>
<text text-anchor="middle" x="278" y="-63" font-family="Helvetica,sans-Serif" font-size="10.00">statAbandon</text>
<text text-anchor="middle" x="278" y="-52" font-family="Helvetica,sans-Serif" font-size="10.00">statGoodQoS</text>
<text text-anchor="middle" x="278" y="-41" font-family="Helvetica,sans-Serif" font-size="10.00">allTal</text>
</g>
<!-- Node4 -->
<g id="node4" class="node"><title>Node4</title>
<g id="a_node4"><a xlink:href="classumontreal_1_1ssj_1_1stat_1_1StatProbe.html" target="_top" xlink:title="The objects of this class are statistical probes or collectors, which are elementary devices for coll...">
<polygon fill="none" stroke="black" points="0,-211.5 0,-230.5 64,-230.5 64,-211.5 0,-211.5"/>
<text text-anchor="middle" x="32" y="-218.5" font-family="Helvetica,sans-Serif" font-size="10.00">StatProbe</text>
</a>
</g>
</g>
<!-- Node4&#45;&gt;Node3 -->
<g id="edge3" class="edge"><title>Node4&#45;&gt;Node3</title>
<path fill="none" stroke="midnightblue" d="M55.1867,-206.162C76.7989,-193.494 110.099,-174.561 140,-160 154.203,-153.084 170.629,-146.176 183.284,-141.078"/>
<polygon fill="midnightblue" stroke="midnightblue" points="53.2439,-203.244 46.4088,-211.339 56.8002,-209.273 53.2439,-203.244"/>
</g>
<!-- Node5 -->
<g id="node5" class="node"><title>Node5</title>
<polygon fill="none" stroke="#bfbfbf" points="82.5,-211.5 82.5,-230.5 147.5,-230.5 147.5,-211.5 82.5,-211.5"/>
<text text-anchor="middle" x="115" y="-218.5" font-family="Helvetica,sans-Serif" font-size="10.00">Cloneable</text>
</g>
<!-- Node5&#45;&gt;Node3 -->
<g id="edge4" class="edge"><title>Node5&#45;&gt;Node3</title>
<path fill="none" stroke="midnightblue" d="M131.123,-204.239C149.91,-185.875 180.274,-156.192 195.177,-141.625"/>
<polygon fill="midnightblue" stroke="midnightblue" points="128.563,-201.847 123.859,-211.34 133.457,-206.853 128.563,-201.847"/>
</g>
<!-- Node6 -->
<g id="node6" class="node"><title>Node6</title>
<polygon fill="none" stroke="#bfbfbf" points="165.5,-211.5 165.5,-230.5 242.5,-230.5 242.5,-211.5 165.5,-211.5"/>
<text text-anchor="middle" x="204" y="-218.5" font-family="Helvetica,sans-Serif" font-size="10.00">Tally.CIType</text>
</g>
<!-- Node6&#45;&gt;Node3 -->
<g id="edge5" class="edge"><title>Node6&#45;&gt;Node3</title>
<path fill="none" stroke="#9a32cd" stroke-dasharray="5,2" d="M204,-201.195C204,-182.738 204,-155.412 204,-141.625"/>
<polygon fill="#9a32cd" stroke="#9a32cd" points="200.5,-201.34 204,-211.34 207.5,-201.34 200.5,-201.34"/>
<text text-anchor="middle" x="251" y="-174" font-family="Helvetica,sans-Serif" font-size="10.00"> confidenceInterval</text>
</g>
<!-- Node7 -->
<g id="node7" class="node"><title>Node7</title>
<g id="a_node7"><a xlink:href="classumontreal_1_1ssj_1_1randvar_1_1GammaGen.html" target="_top" xlink:title="This class implements random variate generators for the gamma distribution. ">
<polygon fill="none" stroke="black" points="279.5,-122.5 279.5,-141.5 354.5,-141.5 354.5,-122.5 279.5,-122.5"/>
<text text-anchor="middle" x="317" y="-129.5" font-family="Helvetica,sans-Serif" font-size="10.00">GammaGen</text>
</a>
</g>
</g>
<!-- Node7&#45;&gt;Node1 -->
<g id="edge6" class="edge"><title>Node7&#45;&gt;Node1</title>
<path fill="none" stroke="#9a32cd" stroke-dasharray="5,2" d="M317,-112.145C317,-85.7231 317,-38.7637 317,-19.5519"/>
<polygon fill="#9a32cd" stroke="#9a32cd" points="313.5,-112.37 317,-122.37 320.5,-112.37 313.5,-112.37"/>
<text text-anchor="middle" x="338.5" y="-68.5" font-family="Helvetica,sans-Serif" font-size="10.00"> genServ</text>
</g>
<!-- Node8 -->
<g id="node8" class="node"><title>Node8</title>
<g id="a_node8"><a xlink:href="classumontreal_1_1ssj_1_1randvar_1_1RandomVariateGen.html" target="_top" xlink:title="This is the base class for all random variate generators over the real line. ">
<polygon fill="none" stroke="black" points="261,-211.5 261,-230.5 373,-230.5 373,-211.5 261,-211.5"/>
<text text-anchor="middle" x="317" y="-218.5" font-family="Helvetica,sans-Serif" font-size="10.00">RandomVariateGen</text>
</a>
</g>
</g>
<!-- Node8&#45;&gt;Node7 -->
<g id="edge7" class="edge"><title>Node8&#45;&gt;Node7</title>
<path fill="none" stroke="midnightblue" d="M317,-201.195C317,-182.738 317,-155.412 317,-141.625"/>
<polygon fill="midnightblue" stroke="midnightblue" points="313.5,-201.34 317,-211.34 320.5,-201.34 313.5,-201.34"/>
</g>
<!-- Node9 -->
<g id="node9" class="node"><title>Node9</title>
<g id="a_node9"><a xlink:href="interfaceumontreal_1_1ssj_1_1probdist_1_1Distribution.html" target="_top" xlink:title="This interface should be implemented by all classes supporting discrete and continuous distributions...">
<polygon fill="none" stroke="black" points="263,-278.5 263,-297.5 337,-297.5 337,-278.5 263,-278.5"/>
<text text-anchor="middle" x="300" y="-285.5" font-family="Helvetica,sans-Serif" font-size="10.00">Distribution</text>
</a>
</g>
</g>
<!-- Node9&#45;&gt;Node8 -->
<g id="edge8" class="edge"><title>Node9&#45;&gt;Node8</title>
<path fill="none" stroke="#9a32cd" stroke-dasharray="5,2" d="M299.313,-268.215C299.525,-261.999 300.244,-255.111 302,-249 303.896,-242.403 307.646,-235.653 310.922,-230.552"/>
<polygon fill="#9a32cd" stroke="#9a32cd" points="295.813,-268.383 299.361,-278.366 302.813,-268.35 295.813,-268.383"/>
<text text-anchor="middle" x="313" y="-252" font-family="Helvetica,sans-Serif" font-size="10.00"> dist</text>
</g>
<!-- Node10 -->
<g id="node10" class="node"><title>Node10</title>
<g id="a_node10"><a xlink:href="interfaceumontreal_1_1ssj_1_1rng_1_1RandomStream.html" target="_top" xlink:title="This interface defines the basic structures to handle multiple streams of uniform (pseudo)random numb...">
<polygon fill="none" stroke="black" points="355,-278.5 355,-297.5 447,-297.5 447,-278.5 355,-278.5"/>
<text text-anchor="middle" x="401" y="-285.5" font-family="Helvetica,sans-Serif" font-size="10.00">RandomStream</text>
</a>
</g>
</g>
<!-- Node10&#45;&gt;Node1 -->
<g id="edge17" class="edge"><title>Node10&#45;&gt;Node1</title>
<path fill="none" stroke="#9a32cd" stroke-dasharray="5,2" d="M403.398,-268.142C408.021,-223.751 413.722,-110.923 364,-38 358.487,-29.9141 349.696,-23.9419 341.201,-19.7006"/>
<polygon fill="#9a32cd" stroke="#9a32cd" points="399.892,-267.991 402.224,-278.326 406.846,-268.792 399.892,-267.991"/>
<text text-anchor="middle" x="444.5" y="-185" font-family="Helvetica,sans-Serif" font-size="10.00"> streamB</text>
<text text-anchor="middle" x="444.5" y="-174" font-family="Helvetica,sans-Serif" font-size="10.00">streamArr</text>
<text text-anchor="middle" x="444.5" y="-163" font-family="Helvetica,sans-Serif" font-size="10.00">streamPatience</text>
</g>
<!-- Node10&#45;&gt;Node8 -->
<g id="edge9" class="edge"><title>Node10&#45;&gt;Node8</title>
<path fill="none" stroke="#9a32cd" stroke-dasharray="5,2" d="M371.127,-274.028C363.543,-270.069 355.663,-265.332 349,-260 338.36,-251.485 328.665,-239.006 322.8,-230.699"/>
<polygon fill="#9a32cd" stroke="#9a32cd" points="369.612,-277.183 380.129,-278.459 372.703,-270.903 369.612,-277.183"/>
<text text-anchor="middle" x="368" y="-252" font-family="Helvetica,sans-Serif" font-size="10.00"> stream</text>
</g>
<!-- Node11 -->
<g id="node11" class="node"><title>Node11</title>
<g id="a_node11"><a xlink:href="classumontreal_1_1ssj_1_1simevents_1_1Event.html" target="_top" xlink:title="This abstract class provides event scheduling tools. ">
<polygon fill="none" stroke="black" points="471,-122.5 471,-141.5 515,-141.5 515,-122.5 471,-122.5"/>
<text text-anchor="middle" x="493" y="-129.5" font-family="Helvetica,sans-Serif" font-size="10.00">Event</text>
</a>
</g>
</g>
<!-- Node11&#45;&gt;Node1 -->
<g id="edge10" class="edge"><title>Node11&#45;&gt;Node1</title>
<path fill="none" stroke="#9a32cd" stroke-dasharray="5,2" d="M482.925,-113.464C469.917,-92.3966 445.308,-57.4637 415,-38 395.844,-25.6983 371.11,-18.9385 351.283,-15.2591"/>
<polygon fill="#9a32cd" stroke="#9a32cd" points="480.077,-115.522 488.209,-122.314 486.088,-111.934 480.077,-115.522"/>
<text text-anchor="middle" x="504" y="-68.5" font-family="Helvetica,sans-Serif" font-size="10.00"> nextArrival</text>
</g>
<!-- Node12 -->
<g id="node12" class="node"><title>Node12</title>
<polygon fill="none" stroke="#bfbfbf" points="430,-211.5 430,-230.5 556,-230.5 556,-211.5 430,-211.5"/>
<text text-anchor="middle" x="493" y="-218.5" font-family="Helvetica,sans-Serif" font-size="10.00">Comparable&lt; Event &gt;</text>
</g>
<!-- Node12&#45;&gt;Node11 -->
<g id="edge11" class="edge"><title>Node12&#45;&gt;Node11</title>
<path fill="none" stroke="midnightblue" d="M493,-201.195C493,-182.738 493,-155.412 493,-141.625"/>
<polygon fill="midnightblue" stroke="midnightblue" points="489.5,-201.34 493,-211.34 496.5,-201.34 489.5,-201.34"/>
</g>
<!-- Node13 -->
<g id="node13" class="node"><title>Node13</title>
<g id="a_node13"><a xlink:href="classumontreal_1_1ssj_1_1simevents_1_1Simulator.html" target="_top" xlink:title="Represents the executive of a discrete&#45;event simulator. ">
<polygon fill="none" stroke="black" points="574,-211.5 574,-230.5 638,-230.5 638,-211.5 574,-211.5"/>
<text text-anchor="middle" x="606" y="-218.5" font-family="Helvetica,sans-Serif" font-size="10.00">Simulator</text>
</a>
</g>
</g>
<!-- Node13&#45;&gt;Node11 -->
<g id="edge12" class="edge"><title>Node13&#45;&gt;Node11</title>
<path fill="none" stroke="#9a32cd" stroke-dasharray="5,2" d="M586.793,-205.212C563.06,-186.94 523.461,-156.453 504.203,-141.625"/>
<polygon fill="#9a32cd" stroke="#9a32cd" points="584.693,-208.013 594.752,-211.34 588.964,-202.466 584.693,-208.013"/>
<text text-anchor="middle" x="580" y="-174" font-family="Helvetica,sans-Serif" font-size="10.00"> sim</text>
</g>
<!-- Node13&#45;&gt;Node13 -->
<g id="edge13" class="edge"><title>Node13&#45;&gt;Node13</title>
<path fill="none" stroke="#9a32cd" stroke-dasharray="5,2" d="M648.222,-226.066C652.945,-225.111 656,-223.422 656,-221 656,-217.125 648.179,-215.127 638.22,-215.006"/>
<polygon fill="#9a32cd" stroke="#9a32cd" points="647.854,-222.585 638.22,-226.994 648.501,-229.555 647.854,-222.585"/>
<text text-anchor="middle" x="698.5" y="-218.5" font-family="Helvetica,sans-Serif" font-size="10.00"> defaultSimulator</text>
</g>
<!-- Node14 -->
<g id="node14" class="node"><title>Node14</title>
<g id="a_node14"><a xlink:href="interfaceumontreal_1_1ssj_1_1simevents_1_1eventlist_1_1EventList.html" target="_top" xlink:title="An interface for implementations of event lists. ">
<polygon fill="none" stroke="black" points="520,-278.5 520,-297.5 582,-297.5 582,-278.5 520,-278.5"/>
<text text-anchor="middle" x="551" y="-285.5" font-family="Helvetica,sans-Serif" font-size="10.00">EventList</text>
</a>
</g>
</g>
<!-- Node14&#45;&gt;Node13 -->
<g id="edge14" class="edge"><title>Node14&#45;&gt;Node13</title>
<path fill="none" stroke="#9a32cd" stroke-dasharray="5,2" d="M558.657,-268.682C561.907,-262.088 566.088,-254.842 571,-249 577.025,-241.834 585.256,-235.366 592.223,-230.558"/>
<polygon fill="#9a32cd" stroke="#9a32cd" points="555.279,-267.656 554.345,-278.21 561.657,-270.542 555.279,-267.656"/>
<text text-anchor="middle" x="595.5" y="-252" font-family="Helvetica,sans-Serif" font-size="10.00"> eventList</text>
</g>
<!-- Node15 -->
<g id="node15" class="node"><title>Node15</title>
<polygon fill="none" stroke="#bfbfbf" points="499,-335.5 499,-354.5 603,-354.5 603,-335.5 499,-335.5"/>
<text text-anchor="middle" x="551" y="-342.5" font-family="Helvetica,sans-Serif" font-size="10.00">Iterable&lt; Event &gt;</text>
</g>
<!-- Node15&#45;&gt;Node14 -->
<g id="edge15" class="edge"><title>Node15&#45;&gt;Node14</title>
<path fill="none" stroke="midnightblue" d="M551,-325.117C551,-315.817 551,-305.056 551,-297.715"/>
<polygon fill="midnightblue" stroke="midnightblue" points="547.5,-325.406 551,-335.406 554.5,-325.406 547.5,-325.406"/>
</g>
<!-- Node16 -->
<g id="node16" class="node"><title>Node16</title>
<g id="a_node16"><a xlink:href="classumontreal_1_1ssj_1_1simevents_1_1ContinuousState.html" target="_top" xlink:title="Represents the portion of the simulator’s state associated with continuous&#45;time simulation. ">
<polygon fill="none" stroke="black" points="599.5,-278.5 599.5,-297.5 696.5,-297.5 696.5,-278.5 599.5,-278.5"/>
<text text-anchor="middle" x="648" y="-285.5" font-family="Helvetica,sans-Serif" font-size="10.00">ContinuousState</text>
</a>
</g>
</g>
<!-- Node16&#45;&gt;Node13 -->
<g id="edge16" class="edge"><title>Node16&#45;&gt;Node13</title>
<path fill="none" stroke="#9a32cd" stroke-dasharray="5,2" d="M636.715,-269.535C628.583,-256.95 617.959,-240.507 611.575,-230.627"/>
<polygon fill="#9a32cd" stroke="#9a32cd" points="633.969,-271.734 642.336,-278.234 639.848,-267.935 633.969,-271.734"/>
<text text-anchor="middle" x="670" y="-252" font-family="Helvetica,sans-Serif" font-size="10.00"> continuousState</text>
</g>
</g>
</svg>
        <g id="navigator" transform="translate(0 0)" fill="#404254">
                <rect fill="#f2f5e9" fill-opacity="0.5" stroke="#606060" stroke-width=".5" x="0" y="0" width="60" height="60"/>
                <use id="zoomplus" xlink:href="#zoomPlus" x="17" y="9" onmousedown="handleZoom(evt,'in')"/>
                <use id="zoomminus" xlink:href="#zoomMin" x="42" y="9" onmousedown="handleZoom(evt,'out')"/>
                <use id="reset" xlink:href="#resetDef" x="30" y="36" onmousedown="handleReset()"/>
                <g id="arrowUp" xlink:href="#dirArrow" transform="translate(30 24)" onmousedown="handlePan(0,-1)">
                  <use xlink:href="#rim" fill="#404040">
                        <set attributeName="fill" to="#808080" begin="arrowUp.mouseover" end="arrowUp.mouseout"/>
                  </use>
                  <path fill="none" stroke="white" stroke-width="1.5" d="M0,-3.0v7 M-2.5,-0.5L0,-3.0L2.5,-0.5"/>
                </g>
                <g id="arrowRight" xlink:href="#dirArrow" transform="rotate(90) translate(36 -43)" onmousedown="handlePan(1,0)">
                  <use xlink:href="#rim" fill="#404040">
                        <set attributeName="fill" to="#808080" begin="arrowRight.mouseover" end="arrowRight.mouseout"/>
                  </use>
                  <path fill="none" stroke="white" stroke-width="1.5" d="M0,-3.0v7 M-2.5,-0.5L0,-3.0L2.5,-0.5"/>
                </g>
                <g id="arrowDown" xlink:href="#dirArrow" transform="rotate(180) translate(-30 -48)" onmousedown="handlePan(0,1)">
                  <use xlink:href="#rim" fill="#404040">
                        <set attributeName="fill" to="#808080" begin="arrowDown.mouseover" end="arrowDown.mouseout"/>
                  </use>
                  <path fill="none" stroke="white" stroke-width="1.5" d="M0,-3.0v7 M-2.5,-0.5L0,-3.0L2.5,-0.5"/>
                </g>
                <g id="arrowLeft" xlink:href="#dirArrow" transform="rotate(270) translate(-36 17)" onmousedown="handlePan(-1,0)">
                  <use xlink:href="#rim" fill="#404040">
                        <set attributeName="fill" to="#808080" begin="arrowLeft.mouseover" end="arrowLeft.mouseout"/>
                  </use>
                  <path fill="none" stroke="white" stroke-width="1.5" d="M0,-3.0v7 M-2.5,-0.5L0,-3.0L2.5,-0.5"/>
                </g>
        </g>
        <svg viewBox="0 0 15 15" width="100%" height="30px" preserveAspectRatio="xMaxYMin meet">
         <g id="arrow_out" transform="scale(0.3 0.3)">
          <a xlink:href="classCallCenter__coll__graph_org.svg" target="_base">
           <rect id="button" ry="5" rx="5" y="6" x="6" height="38" width="38"
                fill="#f2f5e9" fill-opacity="0.5" stroke="#606060" stroke-width="1.0"/>
           <path id="arrow"
             d="M 11.500037,31.436501 C 11.940474,20.09759 22.043105,11.32322 32.158766,21.979434 L 37.068811,17.246167 C 37.068811,17.246167 37.088388,32 37.088388,32 L 22.160133,31.978069 C 22.160133,31.978069 26.997745,27.140456 26.997745,27.140456 C 18.528582,18.264221 13.291696,25.230495 11.500037,31.436501 z"
             style="fill:#404040;"/>
          </a>
         </g>
        </svg>
</svg>
