<?xml version="1.0" encoding="UTF-8" standalone="no"?>
<!DOCTYPE svg PUBLIC "-//W3C//DTD SVG 1.1//EN"
 "http://www.w3.org/Graphics/SVG/1.1/DTD/svg11.dtd">
<!-- Generated by graphviz version 2.38.0 (20140413.2041)
 -->
<!-- Title: InventoryCRN Pages: 1 -->
<svg width="494pt" height="297pt"
 viewBox="0.00 0.00 494.00 297.00" xmlns="http://www.w3.org/2000/svg" xmlns:xlink="http://www.w3.org/1999/xlink">
<g id="graph0" class="graph" transform="scale(1 1) rotate(0) translate(4 293)">
<title>InventoryCRN</title>
<!-- Node1 -->
<g id="node1" class="node"><title>Node1</title>
<polygon fill="#bfbfbf" stroke="black" points="192,-0.5 192,-19.5 276,-19.5 276,-0.5 192,-0.5"/>
<text text-anchor="middle" x="234" y="-7.5" font-family="Helvetica,sans-Serif" font-size="10.00">InventoryCRN</text>
</g>
<!-- Node2 -->
<g id="node2" class="node"><title>Node2</title>
<g id="a_node2"><a xlink:href="classInventory.html" target="_top" xlink:title="Inventory">
<polygon fill="none" stroke="black" points="270.5,-57.5 270.5,-76.5 333.5,-76.5 333.5,-57.5 270.5,-57.5"/>
<text text-anchor="middle" x="302" y="-64.5" font-family="Helvetica,sans-Serif" font-size="10.00">Inventory</text>
</a>
</g>
</g>
<!-- Node2&#45;&gt;Node1 -->
<g id="edge1" class="edge"><title>Node2&#45;&gt;Node1</title>
<path fill="none" stroke="midnightblue" d="M283.452,-50.9983C271.044,-40.9619 255.147,-28.1044 244.775,-19.7149"/>
<polygon fill="midnightblue" stroke="midnightblue" points="281.399,-53.8388 291.375,-57.4062 285.801,-48.3962 281.399,-53.8388"/>
</g>
<!-- Node3 -->
<g id="node3" class="node"><title>Node3</title>
<g id="a_node3"><a xlink:href="classumontreal_1_1ssj_1_1stat_1_1Tally.html" target="_top" xlink:title="A subclass of StatProbe. ">
<polygon fill="none" stroke="black" points="183.5,-124.5 183.5,-143.5 224.5,-143.5 224.5,-124.5 183.5,-124.5"/>
<text text-anchor="middle" x="204" y="-131.5" font-family="Helvetica,sans-Serif" font-size="10.00">Tally</text>
</a>
</g>
</g>
<!-- Node3&#45;&gt;Node1 -->
<g id="edge11" class="edge"><title>Node3&#45;&gt;Node1</title>
<path fill="none" stroke="#9a32cd" stroke-dasharray="5,2" d="M207.9,-114.211C211.174,-98.7885 216.091,-76.4076 221,-57 224.297,-43.9663 228.627,-29.0076 231.362,-19.7796"/>
<polygon fill="#9a32cd" stroke="#9a32cd" points="204.46,-113.564 205.83,-124.07 211.31,-115.002 204.46,-113.564"/>
<text text-anchor="middle" x="241" y="-64.5" font-family="Helvetica,sans-Serif" font-size="10.00"> statDiff</text>
</g>
<!-- Node3&#45;&gt;Node2 -->
<g id="edge2" class="edge"><title>Node3&#45;&gt;Node2</title>
<path fill="none" stroke="#9a32cd" stroke-dasharray="5,2" d="M222.062,-117.902C231.104,-110.63 242.366,-101.992 253,-95 263.226,-88.2765 275.256,-81.6307 284.837,-76.6149"/>
<polygon fill="#9a32cd" stroke="#9a32cd" points="219.692,-115.319 214.166,-124.358 224.123,-120.738 219.692,-115.319"/>
<text text-anchor="middle" x="277.5" y="-98" font-family="Helvetica,sans-Serif" font-size="10.00"> statProfit</text>
</g>
<!-- Node4 -->
<g id="node4" class="node"><title>Node4</title>
<g id="a_node4"><a xlink:href="classumontreal_1_1ssj_1_1stat_1_1StatProbe.html" target="_top" xlink:title="The objects of this class are statistical probes or collectors, which are elementary devices for coll...">
<polygon fill="none" stroke="black" points="0,-202.5 0,-221.5 64,-221.5 64,-202.5 0,-202.5"/>
<text text-anchor="middle" x="32" y="-209.5" font-family="Helvetica,sans-Serif" font-size="10.00">StatProbe</text>
</a>
</g>
</g>
<!-- Node4&#45;&gt;Node3 -->
<g id="edge3" class="edge"><title>Node4&#45;&gt;Node3</title>
<path fill="none" stroke="midnightblue" d="M60.6448,-198.343C95.7968,-182.811 154.444,-156.897 184.675,-143.539"/>
<polygon fill="midnightblue" stroke="midnightblue" points="59.1285,-195.186 51.3962,-202.43 61.9577,-201.589 59.1285,-195.186"/>
</g>
<!-- Node5 -->
<g id="node5" class="node"><title>Node5</title>
<polygon fill="none" stroke="#bfbfbf" points="82.5,-202.5 82.5,-221.5 147.5,-221.5 147.5,-202.5 82.5,-202.5"/>
<text text-anchor="middle" x="115" y="-209.5" font-family="Helvetica,sans-Serif" font-size="10.00">Cloneable</text>
</g>
<!-- Node5&#45;&gt;Node3 -->
<g id="edge4" class="edge"><title>Node5&#45;&gt;Node3</title>
<path fill="none" stroke="midnightblue" d="M132.883,-195.729C151.22,-180.07 179.092,-156.27 193.91,-143.616"/>
<polygon fill="midnightblue" stroke="midnightblue" points="130.541,-193.126 125.209,-202.282 135.087,-198.45 130.541,-193.126"/>
</g>
<!-- Node6 -->
<g id="node6" class="node"><title>Node6</title>
<polygon fill="none" stroke="#bfbfbf" points="165.5,-202.5 165.5,-221.5 242.5,-221.5 242.5,-202.5 165.5,-202.5"/>
<text text-anchor="middle" x="204" y="-209.5" font-family="Helvetica,sans-Serif" font-size="10.00">Tally.CIType</text>
</g>
<!-- Node6&#45;&gt;Node3 -->
<g id="edge5" class="edge"><title>Node6&#45;&gt;Node3</title>
<path fill="none" stroke="#9a32cd" stroke-dasharray="5,2" d="M204,-192.224C204,-176.697 204,-155.358 204,-143.616"/>
<polygon fill="#9a32cd" stroke="#9a32cd" points="200.5,-192.282 204,-202.282 207.5,-192.282 200.5,-192.282"/>
<text text-anchor="middle" x="251" y="-170.5" font-family="Helvetica,sans-Serif" font-size="10.00"> confidenceInterval</text>
</g>
<!-- Node7 -->
<g id="node7" class="node"><title>Node7</title>
<g id="a_node7"><a xlink:href="classumontreal_1_1ssj_1_1randvar_1_1RandomVariateGenInt.html" target="_top" xlink:title="This is the base class for all generators of discrete random variates over the set of integers...">
<polygon fill="none" stroke="black" points="247.5,-124.5 247.5,-143.5 372.5,-143.5 372.5,-124.5 247.5,-124.5"/>
<text text-anchor="middle" x="310" y="-131.5" font-family="Helvetica,sans-Serif" font-size="10.00">RandomVariateGenInt</text>
</a>
</g>
</g>
<!-- Node7&#45;&gt;Node2 -->
<g id="edge6" class="edge"><title>Node7&#45;&gt;Node2</title>
<path fill="none" stroke="#9a32cd" stroke-dasharray="5,2" d="M307.666,-114.037C306.144,-101.67 304.23,-86.1198 303.062,-76.6273"/>
<polygon fill="#9a32cd" stroke="#9a32cd" points="304.226,-114.736 308.921,-124.234 311.173,-113.881 304.226,-114.736"/>
<text text-anchor="middle" x="338.5" y="-98" font-family="Helvetica,sans-Serif" font-size="10.00"> genDemand</text>
</g>
<!-- Node8 -->
<g id="node8" class="node"><title>Node8</title>
<g id="a_node8"><a xlink:href="classumontreal_1_1ssj_1_1randvar_1_1RandomVariateGen.html" target="_top" xlink:title="This is the base class for all random variate generators over the real line. ">
<polygon fill="none" stroke="black" points="261,-202.5 261,-221.5 373,-221.5 373,-202.5 261,-202.5"/>
<text text-anchor="middle" x="317" y="-209.5" font-family="Helvetica,sans-Serif" font-size="10.00">RandomVariateGen</text>
</a>
</g>
</g>
<!-- Node8&#45;&gt;Node7 -->
<g id="edge7" class="edge"><title>Node8&#45;&gt;Node7</title>
<path fill="none" stroke="midnightblue" d="M315.271,-192.224C313.841,-176.697 311.875,-155.358 310.794,-143.616"/>
<polygon fill="midnightblue" stroke="midnightblue" points="311.795,-192.645 316.197,-202.282 318.765,-192.003 311.795,-192.645"/>
</g>
<!-- Node9 -->
<g id="node9" class="node"><title>Node9</title>
<g id="a_node9"><a xlink:href="interfaceumontreal_1_1ssj_1_1probdist_1_1Distribution.html" target="_top" xlink:title="This interface should be implemented by all classes supporting discrete and continuous distributions...">
<polygon fill="none" stroke="black" points="263,-269.5 263,-288.5 337,-288.5 337,-269.5 263,-269.5"/>
<text text-anchor="middle" x="300" y="-276.5" font-family="Helvetica,sans-Serif" font-size="10.00">Distribution</text>
</a>
</g>
</g>
<!-- Node9&#45;&gt;Node8 -->
<g id="edge8" class="edge"><title>Node9&#45;&gt;Node8</title>
<path fill="none" stroke="#9a32cd" stroke-dasharray="5,2" d="M299.313,-259.215C299.525,-252.999 300.244,-246.111 302,-240 303.896,-233.403 307.646,-226.653 310.922,-221.552"/>
<polygon fill="#9a32cd" stroke="#9a32cd" points="295.813,-259.383 299.361,-269.366 302.813,-259.35 295.813,-259.383"/>
<text text-anchor="middle" x="313" y="-243" font-family="Helvetica,sans-Serif" font-size="10.00"> dist</text>
</g>
<!-- Node10 -->
<g id="node10" class="node"><title>Node10</title>
<g id="a_node10"><a xlink:href="interfaceumontreal_1_1ssj_1_1rng_1_1RandomStream.html" target="_top" xlink:title="This interface defines the basic structures to handle multiple streams of uniform (pseudo)random numb...">
<polygon fill="none" stroke="black" points="355,-269.5 355,-288.5 447,-288.5 447,-269.5 355,-269.5"/>
<text text-anchor="middle" x="401" y="-276.5" font-family="Helvetica,sans-Serif" font-size="10.00">RandomStream</text>
</a>
</g>
</g>
<!-- Node10&#45;&gt;Node2 -->
<g id="edge10" class="edge"><title>Node10&#45;&gt;Node2</title>
<path fill="none" stroke="#9a32cd" stroke-dasharray="5,2" d="M404.281,-259.21C409.505,-222.696 415.29,-141.658 374,-95 363.737,-83.403 347.992,-76.772 333.84,-72.9878"/>
<polygon fill="#9a32cd" stroke="#9a32cd" points="400.775,-258.976 402.665,-269.401 407.688,-260.072 400.775,-258.976"/>
<text text-anchor="middle" x="446.5" y="-176" font-family="Helvetica,sans-Serif" font-size="10.00"> streamDemand</text>
<text text-anchor="middle" x="446.5" y="-165" font-family="Helvetica,sans-Serif" font-size="10.00">streamOrder</text>
</g>
<!-- Node10&#45;&gt;Node8 -->
<g id="edge9" class="edge"><title>Node10&#45;&gt;Node8</title>
<path fill="none" stroke="#9a32cd" stroke-dasharray="5,2" d="M371.127,-265.028C363.543,-261.069 355.663,-256.332 349,-251 338.36,-242.485 328.665,-230.006 322.8,-221.699"/>
<polygon fill="#9a32cd" stroke="#9a32cd" points="369.612,-268.183 380.129,-269.459 372.703,-261.903 369.612,-268.183"/>
<text text-anchor="middle" x="368" y="-243" font-family="Helvetica,sans-Serif" font-size="10.00"> stream</text>
</g>
</g>
</svg>
