<?xml version="1.0" encoding="UTF-8" standalone="no"?>
<!DOCTYPE svg PUBLIC "-//W3C//DTD SVG 1.1//EN"
 "http://www.w3.org/Graphics/SVG/1.1/DTD/svg11.dtd">
<!-- Generated by graphviz version 2.38.0 (20140413.2041)
 -->
<!-- Title: VarianceGammaProcessDiffPCABridge Pages: 1 -->
<svg width="167pt" height="263pt"
 viewBox="0.00 0.00 167.00 263.00" xmlns="http://www.w3.org/2000/svg" xmlns:xlink="http://www.w3.org/1999/xlink">
<g id="graph0" class="graph" transform="scale(1 1) rotate(0) translate(4 259)">
<title>VarianceGammaProcessDiffPCABridge</title>
<!-- Node0 -->
<g id="node1" class="node"><title>Node0</title>
<polygon fill="#bfbfbf" stroke="black" points="10,-0.5 10,-30.5 149,-30.5 149,-0.5 10,-0.5"/>
<text text-anchor="start" x="18" y="-18.5" font-family="Helvetica,sans-Serif" font-size="10.00">VarianceGammaProcessDiff</text>
<text text-anchor="middle" x="79.5" y="-7.5" font-family="Helvetica,sans-Serif" font-size="10.00">PCABridge</text>
</g>
<!-- Node1 -->
<g id="node2" class="node"><title>Node1</title>
<g id="a_node2"><a xlink:href="classumontreal_1_1ssj_1_1stochprocess_1_1VarianceGammaProcessDiffPCA.html" target="_top" xlink:title="Same as VarianceGammaProcessDiff, but the two inner GammaProcess ’es are of PCA type. ">
<polygon fill="none" stroke="black" points="0,-67.5 0,-86.5 159,-86.5 159,-67.5 0,-67.5"/>
<text text-anchor="middle" x="79.5" y="-74.5" font-family="Helvetica,sans-Serif" font-size="10.00">VarianceGammaProcessDiffPCA</text>
</a>
</g>
</g>
<!-- Node1&#45;&gt;Node0 -->
<g id="edge1" class="edge"><title>Node1&#45;&gt;Node0</title>
<path fill="none" stroke="midnightblue" d="M79.5,-57.2349C79.5,-48.5864 79.5,-38.4969 79.5,-30.523"/>
<polygon fill="midnightblue" stroke="midnightblue" points="76.0001,-57.4751 79.5,-67.4751 83.0001,-57.4751 76.0001,-57.4751"/>
</g>
<!-- Node2 -->
<g id="node3" class="node"><title>Node2</title>
<g id="a_node3"><a xlink:href="classumontreal_1_1ssj_1_1stochprocess_1_1VarianceGammaProcessDiff.html" target="_top" xlink:title="This class represents a variance gamma (VG) process . ">
<polygon fill="none" stroke="black" points="10,-123.5 10,-142.5 149,-142.5 149,-123.5 10,-123.5"/>
<text text-anchor="middle" x="79.5" y="-130.5" font-family="Helvetica,sans-Serif" font-size="10.00">VarianceGammaProcessDiff</text>
</a>
</g>
</g>
<!-- Node2&#45;&gt;Node1 -->
<g id="edge2" class="edge"><title>Node2&#45;&gt;Node1</title>
<path fill="none" stroke="midnightblue" d="M79.5,-112.805C79.5,-103.91 79.5,-93.7798 79.5,-86.7511"/>
<polygon fill="midnightblue" stroke="midnightblue" points="76.0001,-113.083 79.5,-123.083 83.0001,-113.083 76.0001,-113.083"/>
</g>
<!-- Node3 -->
<g id="node4" class="node"><title>Node3</title>
<g id="a_node4"><a xlink:href="classumontreal_1_1ssj_1_1stochprocess_1_1VarianceGammaProcess.html" target="_top" xlink:title="This class represents a variance gamma (VG) process . ">
<polygon fill="none" stroke="black" points="17,-179.5 17,-198.5 142,-198.5 142,-179.5 17,-179.5"/>
<text text-anchor="middle" x="79.5" y="-186.5" font-family="Helvetica,sans-Serif" font-size="10.00">VarianceGammaProcess</text>
</a>
</g>
</g>
<!-- Node3&#45;&gt;Node2 -->
<g id="edge3" class="edge"><title>Node3&#45;&gt;Node2</title>
<path fill="none" stroke="midnightblue" d="M79.5,-168.805C79.5,-159.91 79.5,-149.78 79.5,-142.751"/>
<polygon fill="midnightblue" stroke="midnightblue" points="76.0001,-169.083 79.5,-179.083 83.0001,-169.083 76.0001,-169.083"/>
</g>
<!-- Node4 -->
<g id="node5" class="node"><title>Node4</title>
<g id="a_node5"><a xlink:href="classumontreal_1_1ssj_1_1stochprocess_1_1StochasticProcess.html" target="_top" xlink:title="Abstract base class for a stochastic process &#160;sampled (or observed) at a finite number of time points...">
<polygon fill="none" stroke="black" points="30,-235.5 30,-254.5 129,-254.5 129,-235.5 30,-235.5"/>
<text text-anchor="middle" x="79.5" y="-242.5" font-family="Helvetica,sans-Serif" font-size="10.00">StochasticProcess</text>
</a>
</g>
</g>
<!-- Node4&#45;&gt;Node3 -->
<g id="edge4" class="edge"><title>Node4&#45;&gt;Node3</title>
<path fill="none" stroke="midnightblue" d="M79.5,-224.805C79.5,-215.91 79.5,-205.78 79.5,-198.751"/>
<polygon fill="midnightblue" stroke="midnightblue" points="76.0001,-225.083 79.5,-235.083 83.0001,-225.083 76.0001,-225.083"/>
</g>
</g>
</svg>
