<?xml version="1.0" encoding="UTF-8" standalone="no"?>
<!DOCTYPE svg PUBLIC "-//W3C//DTD SVG 1.1//EN"
 "http://www.w3.org/Graphics/SVG/1.1/DTD/svg11.dtd">
<!-- Generated by graphviz version 2.38.0 (20140413.2041)
 -->
<!-- Title: GeometricBrownianMotion Pages: 1 -->
<svg width="263pt" height="286pt"
 viewBox="0.00 0.00 262.50 286.00" xmlns="http://www.w3.org/2000/svg" xmlns:xlink="http://www.w3.org/1999/xlink">
<g id="graph0" class="graph" transform="scale(1 1) rotate(0) translate(4 282)">
<title>GeometricBrownianMotion</title>
<!-- Node2 -->
<g id="node1" class="node"><title>Node2</title>
<polygon fill="#bfbfbf" stroke="black" points="36,-0.5 36,-19.5 167,-19.5 167,-0.5 36,-0.5"/>
<text text-anchor="middle" x="101.5" y="-7.5" font-family="Helvetica,sans-Serif" font-size="10.00">GeometricBrownianMotion</text>
</g>
<!-- Node3 -->
<g id="node2" class="node"><title>Node3</title>
<g id="a_node2"><a xlink:href="classumontreal_1_1ssj_1_1stochprocess_1_1StochasticProcess.html" target="_top" xlink:title="Abstract base class for a stochastic process &#160;sampled (or observed) at a finite number of time points...">
<polygon fill="none" stroke="black" points="0,-134.5 0,-153.5 99,-153.5 99,-134.5 0,-134.5"/>
<text text-anchor="middle" x="49.5" y="-141.5" font-family="Helvetica,sans-Serif" font-size="10.00">StochasticProcess</text>
</a>
</g>
</g>
<!-- Node3&#45;&gt;Node2 -->
<g id="edge1" class="edge"><title>Node3&#45;&gt;Node2</title>
<path fill="none" stroke="midnightblue" d="M45.7643,-124.072C43.5038,-108.248 42.2816,-85.3819 49.5,-67 57.4531,-46.7471 76.5571,-29.4608 89.261,-19.652"/>
<polygon fill="midnightblue" stroke="midnightblue" points="42.3573,-124.915 47.4879,-134.184 49.2578,-123.738 42.3573,-124.915"/>
</g>
<!-- Node8 -->
<g id="node7" class="node"><title>Node8</title>
<g id="a_node7"><a xlink:href="classumontreal_1_1ssj_1_1stochprocess_1_1BrownianMotion.html" target="_top" xlink:title="This class represents a Brownian motion process , sampled at times . ">
<polygon fill="none" stroke="black" points="58.5,-67.5 58.5,-86.5 144.5,-86.5 144.5,-67.5 58.5,-67.5"/>
<text text-anchor="middle" x="101.5" y="-74.5" font-family="Helvetica,sans-Serif" font-size="10.00">BrownianMotion</text>
</a>
</g>
</g>
<!-- Node3&#45;&gt;Node8 -->
<g id="edge7" class="edge"><title>Node3&#45;&gt;Node8</title>
<path fill="none" stroke="midnightblue" d="M62.8836,-126.27C73.0222,-113.597 86.5392,-96.701 94.5982,-86.6273"/>
<polygon fill="midnightblue" stroke="midnightblue" points="60.0269,-124.239 56.513,-134.234 65.493,-128.612 60.0269,-124.239"/>
</g>
<!-- Node4 -->
<g id="node3" class="node"><title>Node4</title>
<g id="a_node3"><a xlink:href="classumontreal_1_1ssj_1_1randvar_1_1NormalGen.html" target="_top" xlink:title="This class implements methods for generating random variates from the normal distribution ...">
<polygon fill="none" stroke="black" points="133,-134.5 133,-153.5 198,-153.5 198,-134.5 133,-134.5"/>
<text text-anchor="middle" x="165.5" y="-141.5" font-family="Helvetica,sans-Serif" font-size="10.00">NormalGen</text>
</a>
</g>
</g>
<!-- Node4&#45;&gt;Node2 -->
<g id="edge2" class="edge"><title>Node4&#45;&gt;Node2</title>
<path fill="none" stroke="#9a32cd" stroke-dasharray="5,2" d="M165.652,-123.806C165.053,-107.821 162.47,-84.8677 153.5,-67 143.619,-47.3174 124.688,-29.6143 112.598,-19.5995"/>
<polygon fill="#9a32cd" stroke="#9a32cd" points="162.155,-124.093 165.799,-134.041 169.155,-123.991 162.155,-124.093"/>
<text text-anchor="middle" x="171" y="-74.5" font-family="Helvetica,sans-Serif" font-size="10.00"> gen</text>
</g>
<!-- Node4&#45;&gt;Node8 -->
<g id="edge8" class="edge"><title>Node4&#45;&gt;Node8</title>
<path fill="none" stroke="#9a32cd" stroke-dasharray="5,2" d="M149.743,-126.997C137.192,-114.25 120.104,-96.8947 109.995,-86.6273"/>
<polygon fill="#9a32cd" stroke="#9a32cd" points="147.359,-129.564 156.869,-134.234 152.347,-124.652 147.359,-129.564"/>
<text text-anchor="middle" x="147" y="-108" font-family="Helvetica,sans-Serif" font-size="10.00"> gen</text>
</g>
<!-- Node5 -->
<g id="node4" class="node"><title>Node5</title>
<g id="a_node4"><a xlink:href="classumontreal_1_1ssj_1_1randvar_1_1RandomVariateGen.html" target="_top" xlink:title="This is the base class for all random variate generators over the real line. ">
<polygon fill="none" stroke="black" points="115,-191.5 115,-210.5 216,-210.5 216,-191.5 115,-191.5"/>
<text text-anchor="middle" x="165.5" y="-198.5" font-family="Helvetica,sans-Serif" font-size="10.00">RandomVariateGen</text>
</a>
</g>
</g>
<!-- Node5&#45;&gt;Node4 -->
<g id="edge3" class="edge"><title>Node5&#45;&gt;Node4</title>
<path fill="none" stroke="midnightblue" d="M165.5,-181.117C165.5,-171.817 165.5,-161.056 165.5,-153.715"/>
<polygon fill="midnightblue" stroke="midnightblue" points="162,-181.406 165.5,-191.406 169,-181.406 162,-181.406"/>
</g>
<!-- Node6 -->
<g id="node5" class="node"><title>Node6</title>
<g id="a_node5"><a xlink:href="interfaceumontreal_1_1ssj_1_1probdist_1_1Distribution.html" target="_top" xlink:title="This interface should be implemented by all classes supporting discrete and continuous distributions...">
<polygon fill="none" stroke="black" points="87,-258.5 87,-277.5 152,-277.5 152,-258.5 87,-258.5"/>
<text text-anchor="middle" x="119.5" y="-265.5" font-family="Helvetica,sans-Serif" font-size="10.00">Distribution</text>
</a>
</g>
</g>
<!-- Node6&#45;&gt;Node5 -->
<g id="edge4" class="edge"><title>Node6&#45;&gt;Node5</title>
<path fill="none" stroke="#9a32cd" stroke-dasharray="5,2" d="M131.599,-249.904C140.538,-237.273 152.334,-220.604 159.395,-210.627"/>
<polygon fill="#9a32cd" stroke="#9a32cd" points="128.624,-248.049 125.704,-258.234 134.337,-252.093 128.624,-248.049"/>
<text text-anchor="middle" x="155" y="-232" font-family="Helvetica,sans-Serif" font-size="10.00"> dist</text>
</g>
<!-- Node7 -->
<g id="node6" class="node"><title>Node7</title>
<g id="a_node6"><a xlink:href="interfaceumontreal_1_1ssj_1_1rng_1_1RandomStream.html" target="_top" xlink:title="This interface defines the basic structures to handle multiple streams of uniform (pseudo)random numb...">
<polygon fill="none" stroke="black" points="170.5,-258.5 170.5,-277.5 254.5,-277.5 254.5,-258.5 170.5,-258.5"/>
<text text-anchor="middle" x="212.5" y="-265.5" font-family="Helvetica,sans-Serif" font-size="10.00">RandomStream</text>
</a>
</g>
</g>
<!-- Node7&#45;&gt;Node5 -->
<g id="edge5" class="edge"><title>Node7&#45;&gt;Node5</title>
<path fill="none" stroke="#9a32cd" stroke-dasharray="5,2" d="M200.138,-249.904C191.005,-237.273 178.952,-220.604 171.738,-210.627"/>
<polygon fill="#9a32cd" stroke="#9a32cd" points="197.466,-252.181 206.161,-258.234 203.138,-248.079 197.466,-252.181"/>
<text text-anchor="middle" x="208.5" y="-232" font-family="Helvetica,sans-Serif" font-size="10.00"> stream</text>
</g>
<!-- Node8&#45;&gt;Node2 -->
<g id="edge6" class="edge"><title>Node8&#45;&gt;Node2</title>
<path fill="none" stroke="#9a32cd" stroke-dasharray="5,2" d="M101.5,-57.037C101.5,-44.6703 101.5,-29.1198 101.5,-19.6273"/>
<polygon fill="#9a32cd" stroke="#9a32cd" points="98.0001,-57.2338 101.5,-67.2338 105,-57.2338 98.0001,-57.2338"/>
<text text-anchor="middle" x="110" y="-41" font-family="Helvetica,sans-Serif" font-size="10.00"> bm</text>
</g>
</g>
</svg>
