<?xml version="1.0" encoding="UTF-8" standalone="no"?>
<!DOCTYPE svg PUBLIC "-//W3C//DTD SVG 1.1//EN"
 "http://www.w3.org/Graphics/SVG/1.1/DTD/svg11.dtd">
<!-- Generated by graphviz version 2.26.3 (20100126.1600)
 -->
<!-- Title: GammaProcess Pages: 1 -->
<svg width="344pt" height="274pt"
 viewBox="0.00 0.00 344.00 274.00" xmlns="http://www.w3.org/2000/svg" xmlns:xlink="http://www.w3.org/1999/xlink">
<g id="graph1" class="graph" transform="scale(1 1) rotate(0) translate(4 270)">
<title>GammaProcess</title>
<!-- Node1 -->
<g id="node1" class="node"><title>Node1</title>
<polygon fill="#bfbfbf" stroke="black" points="115.5,-187 115.5,-207 202.5,-207 202.5,-187 115.5,-187"/>
<text text-anchor="middle" x="159" y="-194" font-family="Helvetica,sans-Serif" font-size="10.00">GammaProcess</text>
</g>
<!-- Node3 -->
<g id="node5" class="node"><title>Node3</title>
<a xlink:href="classumontreal_1_1ssj_1_1stochprocess_1_1GammaProcessBridge.html" target="_top" xlink:title="This class represents a gamma process &#160;with mean parameter &#160;and variance parameter ...">
<polygon fill="none" stroke="black" points="37.5,-129 37.5,-149 152.5,-149 152.5,-129 37.5,-129"/>
<text text-anchor="middle" x="95" y="-136" font-family="Helvetica,sans-Serif" font-size="10.00">GammaProcessBridge</text>
</a>
</g>
<!-- Node1&#45;&gt;Node3 -->
<g id="edge4" class="edge"><title>Node1&#45;&gt;Node3</title>
<path fill="none" stroke="midnightblue" d="M140.407,-180.15C129.428,-170.2 115.878,-157.921 106.451,-149.378"/>
<polygon fill="midnightblue" stroke="midnightblue" points="138.092,-182.775 147.852,-186.897 142.792,-177.588 138.092,-182.775"/>
</g>
<!-- Node5 -->
<g id="node9" class="node"><title>Node5</title>
<a xlink:href="classumontreal_1_1ssj_1_1stochprocess_1_1GammaProcessPCA.html" target="_top" xlink:title="Represents a gamma process sampled using the principal component analysis (PCA). ">
<polygon fill="none" stroke="black" points="190.5,-129 190.5,-149 297.5,-149 297.5,-129 190.5,-129"/>
<text text-anchor="middle" x="244" y="-136" font-family="Helvetica,sans-Serif" font-size="10.00">GammaProcessPCA</text>
</a>
</g>
<!-- Node1&#45;&gt;Node5 -->
<g id="edge8" class="edge"><title>Node1&#45;&gt;Node5</title>
<path fill="none" stroke="midnightblue" d="M182.485,-180.975C197.381,-170.811 216.202,-157.968 229.079,-149.182"/>
<polygon fill="midnightblue" stroke="midnightblue" points="180.093,-178.37 173.806,-186.897 184.039,-184.152 180.093,-178.37"/>
</g>
<!-- Node2 -->
<g id="node2" class="node"><title>Node2</title>
<a xlink:href="classumontreal_1_1ssj_1_1stochprocess_1_1StochasticProcess.html" target="_top" xlink:title="Abstract base class for a stochastic process &#160;sampled (or observed) at a finite number of time points...">
<polygon fill="none" stroke="black" points="109.5,-245 109.5,-265 208.5,-265 208.5,-245 109.5,-245"/>
<text text-anchor="middle" x="159" y="-252" font-family="Helvetica,sans-Serif" font-size="10.00">StochasticProcess</text>
</a>
</g>
<!-- Node2&#45;&gt;Node1 -->
<g id="edge2" class="edge"><title>Node2&#45;&gt;Node1</title>
<path fill="none" stroke="midnightblue" d="M159,-234.89C159,-225.62 159,-215.008 159,-207.378"/>
<polygon fill="midnightblue" stroke="midnightblue" points="155.5,-234.897 159,-244.897 162.5,-234.897 155.5,-234.897"/>
</g>
<!-- Node4 -->
<g id="node7" class="node"><title>Node4</title>
<a xlink:href="classumontreal_1_1ssj_1_1stochprocess_1_1GammaProcessSymmetricalBridge.html" target="_top" xlink:title="This class differs from GammaProcessBridge only in that it requires the number of interval of the pat...">
<polygon fill="none" stroke="black" points="0,-71 0,-91 170,-91 170,-71 0,-71"/>
<text text-anchor="middle" x="85" y="-78" font-family="Helvetica,sans-Serif" font-size="10.00">GammaProcessSymmetricalBridge</text>
</a>
</g>
<!-- Node3&#45;&gt;Node4 -->
<g id="edge6" class="edge"><title>Node3&#45;&gt;Node4</title>
<path fill="none" stroke="midnightblue" d="M91.5328,-118.89C89.9345,-109.62 88.1049,-99.0083 86.7892,-91.3776"/>
<polygon fill="midnightblue" stroke="midnightblue" points="88.1099,-119.637 93.2581,-128.897 95.0081,-118.448 88.1099,-119.637"/>
</g>
<!-- Node6 -->
<g id="node11" class="node"><title>Node6</title>
<a xlink:href="classumontreal_1_1ssj_1_1stochprocess_1_1GammaProcessPCABridge.html" target="_top" xlink:title="Same as GammaProcessPCA, but the generated uniforms correspond to a bridge transformation of the Brow...">
<polygon fill="none" stroke="black" points="187.5,-71 187.5,-91 322.5,-91 322.5,-71 187.5,-71"/>
<text text-anchor="middle" x="255" y="-78" font-family="Helvetica,sans-Serif" font-size="10.00">GammaProcessPCABridge</text>
</a>
</g>
<!-- Node5&#45;&gt;Node6 -->
<g id="edge10" class="edge"><title>Node5&#45;&gt;Node6</title>
<path fill="none" stroke="midnightblue" d="M247.814,-118.89C249.572,-109.62 251.585,-99.0083 253.032,-91.3776"/>
<polygon fill="midnightblue" stroke="midnightblue" points="244.341,-118.42 245.916,-128.897 251.218,-119.724 244.341,-118.42"/>
</g>
<!-- Node7 -->
<g id="node13" class="node"><title>Node7</title>
<a xlink:href="classumontreal_1_1ssj_1_1stochprocess_1_1GammaProcessPCASymmetricalBridge.html" target="_top" xlink:title="Same as GammaProcessPCABridge, but uses the fast inversion method for the symmetrical beta distributi...">
<polygon fill="none" stroke="black" points="174,-1 174,-33 336,-33 336,-1 174,-1"/>
<text text-anchor="start" x="182" y="-20" font-family="Helvetica,sans-Serif" font-size="10.00">GammaProcessPCASymmetrical</text>
<text text-anchor="middle" x="255" y="-8" font-family="Helvetica,sans-Serif" font-size="10.00">Bridge</text>
</a>
</g>
<!-- Node6&#45;&gt;Node7 -->
<g id="edge12" class="edge"><title>Node6&#45;&gt;Node7</title>
<path fill="none" stroke="midnightblue" d="M255,-60.4346C255,-51.5494 255,-41.3101 255,-33.0054"/>
<polygon fill="midnightblue" stroke="midnightblue" points="251.5,-60.7173 255,-70.7173 258.5,-60.7173 251.5,-60.7173"/>
</g>
</g>
</svg>
