<?xml version="1.0" encoding="UTF-8" standalone="no"?>
<!DOCTYPE svg PUBLIC "-//W3C//DTD SVG 1.1//EN"
 "http://www.w3.org/Graphics/SVG/1.1/DTD/svg11.dtd">
<!-- Generated by graphviz version 2.26.3 (20100126.1600)
 -->
<!-- Title: NiedXingSequenceBase2 Pages: 1 -->
<svg width="134pt" height="262pt"
 viewBox="0.00 0.00 134.00 262.00" xmlns="http://www.w3.org/2000/svg" xmlns:xlink="http://www.w3.org/1999/xlink">
<g id="graph1" class="graph" transform="scale(1 1) rotate(0) translate(4 258)">
<title>NiedXingSequenceBase2</title>
<!-- Node1 -->
<g id="node1" class="node"><title>Node1</title>
<polygon fill="#bfbfbf" stroke="black" points="-0.5,-1 -0.5,-21 126.5,-21 126.5,-1 -0.5,-1"/>
<text text-anchor="middle" x="63" y="-8" font-family="Helvetica,sans-Serif" font-size="10.00">NiedXingSequenceBase2</text>
</g>
<!-- Node2 -->
<g id="node2" class="node"><title>Node2</title>
<a xlink:href="classumontreal_1_1ssj_1_1hups_1_1DigitalSequenceBase2.html" target="_top" xlink:title="This abstract class describes methods specific to digital sequences in base 2. ">
<polygon fill="none" stroke="black" points="5.5,-59 5.5,-79 120.5,-79 120.5,-59 5.5,-59"/>
<text text-anchor="middle" x="63" y="-66" font-family="Helvetica,sans-Serif" font-size="10.00">DigitalSequenceBase2</text>
</a>
</g>
<!-- Node2&#45;&gt;Node1 -->
<g id="edge2" class="edge"><title>Node2&#45;&gt;Node1</title>
<path fill="none" stroke="midnightblue" d="M63,-48.8902C63,-39.6201 63,-29.0083 63,-21.3776"/>
<polygon fill="midnightblue" stroke="midnightblue" points="59.5001,-48.8971 63,-58.8972 66.5001,-48.8972 59.5001,-48.8971"/>
</g>
<!-- Node3 -->
<g id="node4" class="node"><title>Node3</title>
<a xlink:href="classumontreal_1_1ssj_1_1hups_1_1DigitalNetBase2.html" target="_top" xlink:title="A special case of DigitalNet for the base . ">
<polygon fill="none" stroke="black" points="20,-117 20,-137 106,-137 106,-117 20,-117"/>
<text text-anchor="middle" x="63" y="-124" font-family="Helvetica,sans-Serif" font-size="10.00">DigitalNetBase2</text>
</a>
</g>
<!-- Node3&#45;&gt;Node2 -->
<g id="edge4" class="edge"><title>Node3&#45;&gt;Node2</title>
<path fill="none" stroke="midnightblue" d="M63,-106.89C63,-97.6201 63,-87.0083 63,-79.3776"/>
<polygon fill="midnightblue" stroke="midnightblue" points="59.5001,-106.897 63,-116.897 66.5001,-106.897 59.5001,-106.897"/>
</g>
<!-- Node4 -->
<g id="node6" class="node"><title>Node4</title>
<a xlink:href="classumontreal_1_1ssj_1_1hups_1_1DigitalNet.html" target="_top" xlink:title="This class provides the basic structures for storing and manipulating linear digital nets in base ...">
<polygon fill="none" stroke="black" points="33.5,-175 33.5,-195 92.5,-195 92.5,-175 33.5,-175"/>
<text text-anchor="middle" x="63" y="-182" font-family="Helvetica,sans-Serif" font-size="10.00">DigitalNet</text>
</a>
</g>
<!-- Node4&#45;&gt;Node3 -->
<g id="edge6" class="edge"><title>Node4&#45;&gt;Node3</title>
<path fill="none" stroke="midnightblue" d="M63,-164.89C63,-155.62 63,-145.008 63,-137.378"/>
<polygon fill="midnightblue" stroke="midnightblue" points="59.5001,-164.897 63,-174.897 66.5001,-164.897 59.5001,-164.897"/>
</g>
<!-- Node5 -->
<g id="node8" class="node"><title>Node5</title>
<a xlink:href="classumontreal_1_1ssj_1_1hups_1_1PointSet.html" target="_top" xlink:title="This abstract class defines the basic methods for accessing and manipulating point sets...">
<polygon fill="none" stroke="black" points="36,-233 36,-253 90,-253 90,-233 36,-233"/>
<text text-anchor="middle" x="63" y="-240" font-family="Helvetica,sans-Serif" font-size="10.00">PointSet</text>
</a>
</g>
<!-- Node5&#45;&gt;Node4 -->
<g id="edge8" class="edge"><title>Node5&#45;&gt;Node4</title>
<path fill="none" stroke="midnightblue" d="M63,-222.89C63,-213.62 63,-203.008 63,-195.378"/>
<polygon fill="midnightblue" stroke="midnightblue" points="59.5001,-222.897 63,-232.897 66.5001,-222.897 59.5001,-222.897"/>
</g>
</g>
</svg>
