<?xml version="1.0" encoding="UTF-8" standalone="no"?>
<!DOCTYPE svg PUBLIC "-//W3C//DTD SVG 1.1//EN"
 "http://www.w3.org/Graphics/SVG/1.1/DTD/svg11.dtd">
<!-- Generated by graphviz version 2.38.0 (20140413.2041)
 -->
<!-- Title: GammaAcceptanceRejectionGen Pages: 1 -->
<svg width="194pt" height="209pt"
 viewBox="0.00 0.00 193.50 209.00" xmlns="http://www.w3.org/2000/svg" xmlns:xlink="http://www.w3.org/1999/xlink">
<g id="graph0" class="graph" transform="scale(1 1) rotate(0) translate(4 205)">
<title>GammaAcceptanceRejectionGen</title>
<!-- Node1 -->
<g id="node1" class="node"><title>Node1</title>
<polygon fill="#bfbfbf" stroke="black" points="-1.42109e-14,-0.5 -1.42109e-14,-19.5 177,-19.5 177,-0.5 -1.42109e-14,-0.5"/>
<text text-anchor="middle" x="88.5" y="-7.5" font-family="Helvetica,sans-Serif" font-size="10.00">GammaAcceptanceRejectionGen</text>
</g>
<!-- Node2 -->
<g id="node2" class="node"><title>Node2</title>
<g id="a_node2"><a xlink:href="classumontreal_1_1ssj_1_1randvar_1_1GammaGen.html" target="_top" xlink:title="This class implements random variate generators for the gamma distribution. ">
<polygon fill="none" stroke="black" points="51,-57.5 51,-76.5 126,-76.5 126,-57.5 51,-57.5"/>
<text text-anchor="middle" x="88.5" y="-64.5" font-family="Helvetica,sans-Serif" font-size="10.00">GammaGen</text>
</a>
</g>
</g>
<!-- Node2&#45;&gt;Node1 -->
<g id="edge1" class="edge"><title>Node2&#45;&gt;Node1</title>
<path fill="none" stroke="midnightblue" d="M88.5,-47.1166C88.5,-37.8173 88.5,-27.0557 88.5,-19.7149"/>
<polygon fill="midnightblue" stroke="midnightblue" points="85.0001,-47.4062 88.5,-57.4062 92.0001,-47.4063 85.0001,-47.4062"/>
</g>
<!-- Node3 -->
<g id="node3" class="node"><title>Node3</title>
<g id="a_node3"><a xlink:href="classumontreal_1_1ssj_1_1randvar_1_1RandomVariateGen.html" target="_top" xlink:title="This is the base class for all random variate generators over the real line. ">
<polygon fill="none" stroke="black" points="32.5,-114.5 32.5,-133.5 144.5,-133.5 144.5,-114.5 32.5,-114.5"/>
<text text-anchor="middle" x="88.5" y="-121.5" font-family="Helvetica,sans-Serif" font-size="10.00">RandomVariateGen</text>
</a>
</g>
</g>
<!-- Node3&#45;&gt;Node2 -->
<g id="edge2" class="edge"><title>Node3&#45;&gt;Node2</title>
<path fill="none" stroke="midnightblue" d="M88.5,-104.117C88.5,-94.8173 88.5,-84.0557 88.5,-76.7149"/>
<polygon fill="midnightblue" stroke="midnightblue" points="85.0001,-104.406 88.5,-114.406 92.0001,-104.406 85.0001,-104.406"/>
</g>
<!-- Node4 -->
<g id="node4" class="node"><title>Node4</title>
<g id="a_node4"><a xlink:href="interfaceumontreal_1_1ssj_1_1probdist_1_1Distribution.html" target="_top" xlink:title="This interface should be implemented by all classes supporting discrete and continuous distributions...">
<polygon fill="none" stroke="black" points="1.5,-181.5 1.5,-200.5 75.5,-200.5 75.5,-181.5 1.5,-181.5"/>
<text text-anchor="middle" x="38.5" y="-188.5" font-family="Helvetica,sans-Serif" font-size="10.00">Distribution</text>
</a>
</g>
</g>
<!-- Node4&#45;&gt;Node3 -->
<g id="edge3" class="edge"><title>Node4&#45;&gt;Node3</title>
<path fill="none" stroke="#9a32cd" stroke-dasharray="5,2" d="M51.3689,-173.27C61.1175,-160.597 74.1147,-143.701 81.8636,-133.627"/>
<polygon fill="#9a32cd" stroke="#9a32cd" points="48.5662,-171.174 45.2432,-181.234 54.1146,-175.442 48.5662,-171.174"/>
<text text-anchor="middle" x="77.5" y="-155" font-family="Helvetica,sans-Serif" font-size="10.00"> dist</text>
</g>
<!-- Node5 -->
<g id="node5" class="node"><title>Node5</title>
<g id="a_node5"><a xlink:href="interfaceumontreal_1_1ssj_1_1rng_1_1RandomStream.html" target="_top" xlink:title="This interface defines the basic structures to handle multiple streams of uniform (pseudo)random numb...">
<polygon fill="none" stroke="black" points="93.5,-181.5 93.5,-200.5 185.5,-200.5 185.5,-181.5 93.5,-181.5"/>
<text text-anchor="middle" x="139.5" y="-188.5" font-family="Helvetica,sans-Serif" font-size="10.00">RandomStream</text>
</a>
</g>
</g>
<!-- Node5&#45;&gt;Node3 -->
<g id="edge4" class="edge"><title>Node5&#45;&gt;Node3</title>
<path fill="none" stroke="#9a32cd" stroke-dasharray="5,2" d="M126.374,-173.27C116.43,-160.597 103.173,-143.701 95.2691,-133.627"/>
<polygon fill="#9a32cd" stroke="#9a32cd" points="123.695,-175.527 132.622,-181.234 129.203,-171.206 123.695,-175.527"/>
<text text-anchor="middle" x="135.5" y="-155" font-family="Helvetica,sans-Serif" font-size="10.00"> stream</text>
</g>
</g>
</svg>
