<?xml version="1.0" encoding="UTF-8" standalone="no"?>
<!DOCTYPE svg PUBLIC "-//W3C//DTD SVG 1.1//EN"
 "http://www.w3.org/Graphics/SVG/1.1/DTD/svg11.dtd">
<!-- Generated by graphviz version 2.26.3 (20100126.1600)
 -->
<!-- Title: GammaProcessPCASymmetricalBridge Pages: 1 -->
<svg width="344pt" height="512pt"
 viewBox="0.00 0.00 344.00 512.00" xmlns="http://www.w3.org/2000/svg" xmlns:xlink="http://www.w3.org/1999/xlink">
<g id="graph1" class="graph" transform="scale(1 1) rotate(0) translate(4 508)">
<title>GammaProcessPCASymmetricalBridge</title>
<!-- Node1 -->
<g id="node1" class="node"><title>Node1</title>
<polygon fill="#bfbfbf" stroke="black" points="24,-1 24,-33 186,-33 186,-1 24,-1"/>
<text text-anchor="start" x="32" y="-20" font-family="Helvetica,sans-Serif" font-size="10.00">GammaProcessPCASymmetrical</text>
<text text-anchor="middle" x="105" y="-8" font-family="Helvetica,sans-Serif" font-size="10.00">Bridge</text>
</g>
<!-- Node2 -->
<g id="node2" class="node"><title>Node2</title>
<a xlink:href="classumontreal_1_1ssj_1_1stochprocess_1_1GammaProcessPCABridge.html" target="_top" xlink:title="Same as GammaProcessPCA, but the generated uniforms correspond to a bridge transformation of the Brow...">
<polygon fill="none" stroke="black" points="37.5,-73 37.5,-93 172.5,-93 172.5,-73 37.5,-73"/>
<text text-anchor="middle" x="105" y="-80" font-family="Helvetica,sans-Serif" font-size="10.00">GammaProcessPCABridge</text>
</a>
</g>
<!-- Node2&#45;&gt;Node1 -->
<g id="edge2" class="edge"><title>Node2&#45;&gt;Node1</title>
<path fill="none" stroke="midnightblue" d="M105,-62.7783C105,-53.2276 105,-41.988 105,-33.036"/>
<polygon fill="midnightblue" stroke="midnightblue" points="101.5,-62.976 105,-72.976 108.5,-62.9761 101.5,-62.976"/>
</g>
<!-- Node3 -->
<g id="node4" class="node"><title>Node3</title>
<a xlink:href="classumontreal_1_1ssj_1_1stochprocess_1_1GammaProcessPCA.html" target="_top" xlink:title="Represents a gamma process sampled using the principal component analysis (PCA). ">
<polygon fill="none" stroke="black" points="133.5,-133 133.5,-153 240.5,-153 240.5,-133 133.5,-133"/>
<text text-anchor="middle" x="187" y="-140" font-family="Helvetica,sans-Serif" font-size="10.00">GammaProcessPCA</text>
</a>
</g>
<!-- Node3&#45;&gt;Node2 -->
<g id="edge4" class="edge"><title>Node3&#45;&gt;Node2</title>
<path fill="none" stroke="midnightblue" d="M164.98,-126.887C150.247,-116.107 131.318,-102.257 118.705,-93.0279"/>
<polygon fill="midnightblue" stroke="midnightblue" points="162.953,-129.741 173.09,-132.822 167.086,-124.092 162.953,-129.741"/>
</g>
<!-- Node4 -->
<g id="node6" class="node"><title>Node4</title>
<a xlink:href="classumontreal_1_1ssj_1_1stochprocess_1_1GammaProcess.html" target="_top" xlink:title="This class represents a gamma process   (page 82) &#160;with mean parameter &#160;and variance parameter ...">
<polygon fill="none" stroke="black" points="188.5,-273 188.5,-293 275.5,-293 275.5,-273 188.5,-273"/>
<text text-anchor="middle" x="232" y="-280" font-family="Helvetica,sans-Serif" font-size="10.00">GammaProcess</text>
</a>
</g>
<!-- Node4&#45;&gt;Node3 -->
<g id="edge6" class="edge"><title>Node4&#45;&gt;Node3</title>
<path fill="none" stroke="midnightblue" d="M232.821,-262.862C232.948,-239.717 230.61,-201.174 216,-172 212.365,-164.742 206.217,-158.198 200.515,-153.17"/>
<polygon fill="midnightblue" stroke="midnightblue" points="229.322,-262.805 232.603,-272.879 236.32,-262.957 229.322,-262.805"/>
</g>
<!-- Node5 -->
<g id="node8" class="node"><title>Node5</title>
<a xlink:href="classumontreal_1_1ssj_1_1stochprocess_1_1StochasticProcess.html" target="_top" xlink:title="Abstract base class for a stochastic process &#160;sampled (or observed) at a finite number of time points...">
<polygon fill="none" stroke="black" points="81.5,-343 81.5,-363 180.5,-363 180.5,-343 81.5,-343"/>
<text text-anchor="middle" x="131" y="-350" font-family="Helvetica,sans-Serif" font-size="10.00">StochasticProcess</text>
</a>
</g>
<!-- Node5&#45;&gt;Node4 -->
<g id="edge8" class="edge"><title>Node5&#45;&gt;Node4</title>
<path fill="none" stroke="midnightblue" d="M153.82,-337.184C173.366,-323.637 200.918,-304.542 217.556,-293.011"/>
<polygon fill="midnightblue" stroke="midnightblue" points="151.696,-334.398 145.471,-342.971 155.684,-340.151 151.696,-334.398"/>
</g>
<!-- Node11 -->
<g id="node21" class="node"><title>Node11</title>
<a xlink:href="classumontreal_1_1ssj_1_1stochprocess_1_1BrownianMotion.html" target="_top" xlink:title="This class represents a Brownian motion process , sampled at times . ">
<polygon fill="none" stroke="black" points="45,-273 45,-293 131,-293 131,-273 45,-273"/>
<text text-anchor="middle" x="88" y="-280" font-family="Helvetica,sans-Serif" font-size="10.00">BrownianMotion</text>
</a>
</g>
<!-- Node5&#45;&gt;Node11 -->
<g id="edge24" class="edge"><title>Node5&#45;&gt;Node11</title>
<path fill="none" stroke="midnightblue" d="M119.435,-334.173C111.296,-320.924 100.723,-303.711 94.1494,-293.011"/>
<polygon fill="midnightblue" stroke="midnightblue" points="116.623,-336.282 124.839,-342.971 122.587,-332.618 116.623,-336.282"/>
</g>
<!-- Node6 -->
<g id="node10" class="node"><title>Node6</title>
<a xlink:href="classumontreal_1_1ssj_1_1randvar_1_1GammaGen.html" target="_top" xlink:title="This class implements random variate generators for the gamma distribution. ">
<polygon fill="none" stroke="black" points="197.5,-343 197.5,-363 266.5,-363 266.5,-343 197.5,-343"/>
<text text-anchor="middle" x="232" y="-350" font-family="Helvetica,sans-Serif" font-size="10.00">GammaGen</text>
</a>
</g>
<!-- Node6&#45;&gt;Node4 -->
<g id="edge10" class="edge"><title>Node6&#45;&gt;Node4</title>
<path fill="none" stroke="#9a32cd" stroke-dasharray="5,2" d="M232,-332.613C232,-319.597 232,-303.296 232,-293.011"/>
<polygon fill="#9a32cd" stroke="#9a32cd" points="228.5,-332.971 232,-342.971 235.5,-332.971 228.5,-332.971"/>
<text text-anchor="middle" x="245.5" y="-315" font-family="Helvetica,sans-Serif" font-size="10.00"> Ggen</text>
</g>
<!-- Node7 -->
<g id="node12" class="node"><title>Node7</title>
<a xlink:href="classumontreal_1_1ssj_1_1randvar_1_1RandomVariateGen.html" target="_top" xlink:title="This is the base class for all random variate generators over the real line. ">
<polygon fill="none" stroke="black" points="158.5,-413 158.5,-433 259.5,-433 259.5,-413 158.5,-413"/>
<text text-anchor="middle" x="209" y="-420" font-family="Helvetica,sans-Serif" font-size="10.00">RandomVariateGen</text>
</a>
</g>
<!-- Node7&#45;&gt;Node6 -->
<g id="edge12" class="edge"><title>Node7&#45;&gt;Node6</title>
<path fill="none" stroke="midnightblue" d="M215.441,-403.397C219.758,-390.258 225.263,-373.503 228.711,-363.011"/>
<polygon fill="midnightblue" stroke="midnightblue" points="212.092,-402.378 212.295,-412.971 218.742,-404.563 212.092,-402.378"/>
</g>
<!-- Node12 -->
<g id="node24" class="node"><title>Node12</title>
<a xlink:href="classumontreal_1_1ssj_1_1randvar_1_1NormalGen.html" target="_top" xlink:title="This class implements methods for generating random variates from the normal distribution ...">
<polygon fill="none" stroke="black" points="-0.5,-343 -0.5,-363 64.5,-363 64.5,-343 -0.5,-343"/>
<text text-anchor="middle" x="32" y="-350" font-family="Helvetica,sans-Serif" font-size="10.00">NormalGen</text>
</a>
</g>
<!-- Node7&#45;&gt;Node12 -->
<g id="edge28" class="edge"><title>Node7&#45;&gt;Node12</title>
<path fill="none" stroke="midnightblue" d="M173.993,-409.155C139.586,-395.548 87.9158,-375.114 57.3127,-363.011"/>
<polygon fill="midnightblue" stroke="midnightblue" points="173.054,-412.548 183.64,-412.971 175.628,-406.038 173.054,-412.548"/>
</g>
<!-- Node8 -->
<g id="node14" class="node"><title>Node8</title>
<a xlink:href="interfaceumontreal_1_1ssj_1_1probdist_1_1Distribution.html" target="_top" xlink:title="This interface should be implemented by all classes supporting discrete and continuous distributions...">
<polygon fill="none" stroke="black" points="169.5,-483 169.5,-503 234.5,-503 234.5,-483 169.5,-483"/>
<text text-anchor="middle" x="202" y="-490" font-family="Helvetica,sans-Serif" font-size="10.00">Distribution</text>
</a>
</g>
<!-- Node8&#45;&gt;Node7 -->
<g id="edge14" class="edge"><title>Node8&#45;&gt;Node7</title>
<path fill="none" stroke="#9a32cd" stroke-dasharray="5,2" d="M202.5,-472.694C202.794,-466.081 203.26,-458.716 204,-452 204.694,-445.703 205.889,-438.702 206.936,-433.157"/>
<polygon fill="#9a32cd" stroke="#9a32cd" points="198.996,-472.749 202.151,-482.863 205.992,-472.989 198.996,-472.749"/>
<text text-anchor="middle" x="213.5" y="-455" font-family="Helvetica,sans-Serif" font-size="10.00"> dist</text>
</g>
<!-- Node9 -->
<g id="node16" class="node"><title>Node9</title>
<a xlink:href="interfaceumontreal_1_1ssj_1_1rng_1_1RandomStream.html" target="_top" xlink:title="This interface defines the basic structures to handle multiple streams of uniform (pseudo)random numb...">
<polygon fill="none" stroke="black" points="252,-483 252,-503 336,-503 336,-483 252,-483"/>
<text text-anchor="middle" x="294" y="-490" font-family="Helvetica,sans-Serif" font-size="10.00">RandomStream</text>
</a>
</g>
<!-- Node9&#45;&gt;Node4 -->
<g id="edge18" class="edge"><title>Node9&#45;&gt;Node4</title>
<path fill="none" stroke="#9a32cd" stroke-dasharray="5,2" d="M293.094,-472.767C291.417,-443.502 286.845,-387.846 275,-342 271.408,-328.096 271.104,-323.855 263,-312 258.176,-304.942 251.358,-298.326 245.345,-293.201"/>
<polygon fill="#9a32cd" stroke="#9a32cd" points="289.608,-473.135 293.619,-482.941 296.599,-472.774 289.608,-473.135"/>
<text text-anchor="middle" x="301" y="-385" font-family="Helvetica,sans-Serif" font-size="10.00"> stream</text>
</g>
<!-- Node9&#45;&gt;Node7 -->
<g id="edge16" class="edge"><title>Node9&#45;&gt;Node7</title>
<path fill="none" stroke="#9a32cd" stroke-dasharray="5,2" d="M265.588,-477.718C258.904,-473.62 251.988,-468.943 246,-464 234.761,-454.723 223.824,-442.008 216.793,-433.209"/>
<polygon fill="#9a32cd" stroke="#9a32cd" points="264.053,-480.876 274.45,-482.917 267.596,-474.838 264.053,-480.876"/>
<text text-anchor="middle" x="263" y="-455" font-family="Helvetica,sans-Serif" font-size="10.00"> stream</text>
</g>
<!-- Node10 -->
<g id="node19" class="node"><title>Node10</title>
<a xlink:href="classumontreal_1_1ssj_1_1stochprocess_1_1BrownianMotionPCA.html" target="_top" xlink:title="A Brownian motion process &#160;sampled using the principal component decomposition (PCA) ...">
<polygon fill="none" stroke="black" points="98,-213 98,-233 204,-233 204,-213 98,-213"/>
<text text-anchor="middle" x="151" y="-220" font-family="Helvetica,sans-Serif" font-size="10.00">BrownianMotionPCA</text>
</a>
</g>
<!-- Node10&#45;&gt;Node3 -->
<g id="edge20" class="edge"><title>Node10&#45;&gt;Node3</title>
<path fill="none" stroke="#9a32cd" stroke-dasharray="5,2" d="M159.818,-203.405C166.989,-187.469 176.815,-165.633 182.478,-153.05"/>
<polygon fill="#9a32cd" stroke="#9a32cd" points="156.471,-202.312 155.559,-212.868 162.855,-205.185 156.471,-202.312"/>
<text text-anchor="middle" x="192.5" y="-180" font-family="Helvetica,sans-Serif" font-size="10.00"> BMPCA</text>
</g>
<!-- Node11&#45;&gt;Node10 -->
<g id="edge22" class="edge"><title>Node11&#45;&gt;Node10</title>
<path fill="none" stroke="midnightblue" d="M106.201,-265.666C117.318,-255.078 131.142,-241.912 140.471,-233.028"/>
<polygon fill="midnightblue" stroke="midnightblue" points="103.515,-263.391 98.6871,-272.822 108.342,-268.46 103.515,-263.391"/>
</g>
<!-- Node13 -->
<g id="node27" class="node"><title>Node13</title>
<a xlink:href="classumontreal_1_1ssj_1_1stochprocess_1_1BrownianMotionBridge.html" target="_top" xlink:title=", then the observations are generated in the following order: , , , , . ">
<polygon fill="none" stroke="black" points="13.5,-173 13.5,-193 126.5,-193 126.5,-173 13.5,-173"/>
<text text-anchor="middle" x="70" y="-180" font-family="Helvetica,sans-Serif" font-size="10.00">BrownianMotionBridge</text>
</a>
</g>
<!-- Node11&#45;&gt;Node13 -->
<g id="edge32" class="edge"><title>Node11&#45;&gt;Node13</title>
<path fill="none" stroke="midnightblue" d="M84.3625,-262.792C80.5609,-241.672 74.7501,-209.389 71.8216,-193.12"/>
<polygon fill="midnightblue" stroke="midnightblue" points="80.9252,-263.453 86.1415,-272.675 87.8145,-262.213 80.9252,-263.453"/>
</g>
<!-- Node12&#45;&gt;Node11 -->
<g id="edge26" class="edge"><title>Node12&#45;&gt;Node11</title>
<path fill="none" stroke="#9a32cd" stroke-dasharray="5,2" d="M46.4474,-334.941C57.1239,-321.595 71.2649,-303.919 79.9914,-293.011"/>
<polygon fill="#9a32cd" stroke="#9a32cd" points="43.5374,-332.976 40.0234,-342.971 49.0035,-337.348 43.5374,-332.976"/>
<text text-anchor="middle" x="73.5" y="-315" font-family="Helvetica,sans-Serif" font-size="10.00"> gen</text>
</g>
<!-- Node13&#45;&gt;Node2 -->
<g id="edge30" class="edge"><title>Node13&#45;&gt;Node2</title>
<path fill="none" stroke="#9a32cd" stroke-dasharray="5,2" d="M72.0723,-162.881C73.4258,-153.345 75.5952,-141.9 79,-132 83.886,-117.793 92.472,-102.706 98.4342,-93.0859"/>
<polygon fill="#9a32cd" stroke="#9a32cd" points="68.5756,-162.641 70.8331,-172.992 75.5237,-163.492 68.5756,-162.641"/>
<text text-anchor="middle" x="102" y="-140" font-family="Helvetica,sans-Serif" font-size="10.00"> BMBridge</text>
</g>
</g>
</svg>
