<?xml version="1.0" encoding="UTF-8" standalone="no"?>
<!DOCTYPE svg PUBLIC "-//W3C//DTD SVG 1.1//EN"
 "http://www.w3.org/Graphics/SVG/1.1/DTD/svg11.dtd">
<!-- Generated by graphviz version 2.38.0 (20140413.2041)
 -->
<!-- Title: ContainerPointSet Pages: 1 -->
<svg width="406pt" height="140pt"
 viewBox="0.00 0.00 405.50 140.00" xmlns="http://www.w3.org/2000/svg" xmlns:xlink="http://www.w3.org/1999/xlink">
<g id="graph0" class="graph" transform="scale(1 1) rotate(0) translate(4 136)">
<title>ContainerPointSet</title>
<!-- Node0 -->
<g id="node1" class="node"><title>Node0</title>
<polygon fill="#bfbfbf" stroke="black" points="132.5,-56.5 132.5,-75.5 228.5,-75.5 228.5,-56.5 132.5,-56.5"/>
<text text-anchor="middle" x="180.5" y="-63.5" font-family="Helvetica,sans-Serif" font-size="10.00">ContainerPointSet</text>
</g>
<!-- Node2 -->
<g id="node3" class="node"><title>Node2</title>
<g id="a_node3"><a xlink:href="classumontreal_1_1ssj_1_1hups_1_1AntitheticPointSet.html" target="_top" xlink:title="This container class provides antithetic points. ">
<polygon fill="none" stroke="black" points="0,-0.5 0,-19.5 95,-19.5 95,-0.5 0,-0.5"/>
<text text-anchor="middle" x="47.5" y="-7.5" font-family="Helvetica,sans-Serif" font-size="10.00">AntitheticPointSet</text>
</a>
</g>
</g>
<!-- Node0&#45;&gt;Node2 -->
<g id="edge2" class="edge"><title>Node0&#45;&gt;Node2</title>
<path fill="none" stroke="midnightblue" d="M150.052,-52.6377C125.093,-42.504 90.4231,-28.4274 68.4756,-19.5164"/>
<polygon fill="midnightblue" stroke="midnightblue" points="148.844,-55.9245 159.426,-56.4435 151.477,-49.4387 148.844,-55.9245"/>
</g>
<!-- Node3 -->
<g id="node4" class="node"><title>Node3</title>
<g id="a_node4"><a xlink:href="classumontreal_1_1ssj_1_1hups_1_1BakerTransformedPointSet.html" target="_top" xlink:title="This container class embodies a point set to which a Baker transformation is applied (see...">
<polygon fill="none" stroke="black" points="113.5,-0.5 113.5,-19.5 247.5,-19.5 247.5,-0.5 113.5,-0.5"/>
<text text-anchor="middle" x="180.5" y="-7.5" font-family="Helvetica,sans-Serif" font-size="10.00">BakerTransformedPointSet</text>
</a>
</g>
</g>
<!-- Node0&#45;&gt;Node3 -->
<g id="edge3" class="edge"><title>Node0&#45;&gt;Node3</title>
<path fill="none" stroke="midnightblue" d="M180.5,-45.8045C180.5,-36.9102 180.5,-26.7798 180.5,-19.7511"/>
<polygon fill="midnightblue" stroke="midnightblue" points="177,-46.083 180.5,-56.083 184,-46.083 177,-46.083"/>
</g>
<!-- Node4 -->
<g id="node5" class="node"><title>Node4</title>
<g id="a_node5"><a xlink:href="classumontreal_1_1ssj_1_1hups_1_1RandShiftedMod1PointSet.html" target="_top" xlink:title="This container class embodies a point set to which a random shift modulo 1 is applied (i...">
<polygon fill="none" stroke="black" points="265.5,-0.5 265.5,-19.5 397.5,-19.5 397.5,-0.5 265.5,-0.5"/>
<text text-anchor="middle" x="331.5" y="-7.5" font-family="Helvetica,sans-Serif" font-size="10.00">RandShiftedMod1PointSet</text>
</a>
</g>
</g>
<!-- Node0&#45;&gt;Node4 -->
<g id="edge4" class="edge"><title>Node0&#45;&gt;Node4</title>
<path fill="none" stroke="midnightblue" d="M213.946,-53.0392C242.358,-42.8786 282.437,-28.5457 307.686,-19.5164"/>
<polygon fill="midnightblue" stroke="midnightblue" points="212.664,-49.7806 204.426,-56.4435 215.021,-56.3718 212.664,-49.7806"/>
</g>
<!-- Node1 -->
<g id="node2" class="node"><title>Node1</title>
<g id="a_node2"><a xlink:href="classumontreal_1_1ssj_1_1hups_1_1PointSet.html" target="_top" xlink:title="This abstract class represents a general point set. ">
<polygon fill="none" stroke="black" points="153.5,-112.5 153.5,-131.5 207.5,-131.5 207.5,-112.5 153.5,-112.5"/>
<text text-anchor="middle" x="180.5" y="-119.5" font-family="Helvetica,sans-Serif" font-size="10.00">PointSet</text>
</a>
</g>
</g>
<!-- Node1&#45;&gt;Node0 -->
<g id="edge1" class="edge"><title>Node1&#45;&gt;Node0</title>
<path fill="none" stroke="midnightblue" d="M180.5,-101.805C180.5,-92.9102 180.5,-82.7798 180.5,-75.7511"/>
<polygon fill="midnightblue" stroke="midnightblue" points="177,-102.083 180.5,-112.083 184,-102.083 177,-102.083"/>
</g>
</g>
</svg>
