<?xml version="1.0" encoding="UTF-8" standalone="no"?>
<!DOCTYPE svg PUBLIC "-//W3C//DTD SVG 1.1//EN"
 "http://www.w3.org/Graphics/SVG/1.1/DTD/svg11.dtd">
<!-- Generated by graphviz version 2.38.0 (20140413.2041)
 -->
<!-- Title: EmpiricalRenderer Pages: 1 -->
<svg width="426pt" height="84pt"
 viewBox="0.00 0.00 425.50 84.00" xmlns="http://www.w3.org/2000/svg" xmlns:xlink="http://www.w3.org/1999/xlink">
<g id="graph0" class="graph" transform="scale(1 1) rotate(0) translate(4 80)">
<title>EmpiricalRenderer</title>
<!-- Node0 -->
<g id="node1" class="node"><title>Node0</title>
<polygon fill="#bfbfbf" stroke="black" points="189.5,-0.5 189.5,-19.5 285.5,-19.5 285.5,-0.5 189.5,-0.5"/>
<text text-anchor="middle" x="237.5" y="-7.5" font-family="Helvetica,sans-Serif" font-size="10.00">EmpiricalRenderer</text>
</g>
<!-- Node1 -->
<g id="node2" class="node"><title>Node1</title>
<polygon fill="none" stroke="#bfbfbf" points="0,-56.5 0,-75.5 131,-75.5 131,-56.5 0,-56.5"/>
<text text-anchor="middle" x="65.5" y="-63.5" font-family="Helvetica,sans-Serif" font-size="10.00">XYLineAndShapeRenderer</text>
</g>
<!-- Node1&#45;&gt;Node0 -->
<g id="edge1" class="edge"><title>Node1&#45;&gt;Node0</title>
<path fill="none" stroke="midnightblue" d="M102.332,-53.4363C134.762,-43.2551 181.237,-28.664 210.374,-19.5164"/>
<polygon fill="midnightblue" stroke="midnightblue" points="101.246,-50.1088 92.7539,-56.4435 103.343,-56.7874 101.246,-50.1088"/>
</g>
<!-- Node2 -->
<g id="node3" class="node"><title>Node2</title>
<polygon fill="none" stroke="#bfbfbf" points="149.5,-56.5 149.5,-75.5 235.5,-75.5 235.5,-56.5 149.5,-56.5"/>
<text text-anchor="middle" x="192.5" y="-63.5" font-family="Helvetica,sans-Serif" font-size="10.00">XYItemRenderer</text>
</g>
<!-- Node2&#45;&gt;Node0 -->
<g id="edge2" class="edge"><title>Node2&#45;&gt;Node0</title>
<path fill="none" stroke="midnightblue" d="M206.547,-48.144C214.387,-38.7357 223.829,-27.4046 230.207,-19.7511"/>
<polygon fill="midnightblue" stroke="midnightblue" points="203.644,-46.1601 199.931,-56.083 209.021,-50.6414 203.644,-46.1601"/>
</g>
<!-- Node3 -->
<g id="node4" class="node"><title>Node3</title>
<polygon fill="none" stroke="#bfbfbf" points="254,-56.5 254,-75.5 313,-75.5 313,-56.5 254,-56.5"/>
<text text-anchor="middle" x="283.5" y="-63.5" font-family="Helvetica,sans-Serif" font-size="10.00">Cloneable</text>
</g>
<!-- Node3&#45;&gt;Node0 -->
<g id="edge3" class="edge"><title>Node3&#45;&gt;Node0</title>
<path fill="none" stroke="midnightblue" d="M269.386,-48.4314C261.324,-38.9673 251.541,-27.4827 244.955,-19.7511"/>
<polygon fill="midnightblue" stroke="midnightblue" points="266.755,-50.7402 275.904,-56.083 272.084,-46.2009 266.755,-50.7402"/>
</g>
<!-- Node4 -->
<g id="node5" class="node"><title>Node4</title>
<polygon fill="none" stroke="#bfbfbf" points="331.5,-56.5 331.5,-75.5 417.5,-75.5 417.5,-56.5 331.5,-56.5"/>
<text text-anchor="middle" x="374.5" y="-63.5" font-family="Helvetica,sans-Serif" font-size="10.00">PublicCloneable</text>
</g>
<!-- Node4&#45;&gt;Node0 -->
<g id="edge4" class="edge"><title>Node4&#45;&gt;Node0</title>
<path fill="none" stroke="midnightblue" d="M343.477,-52.772C317.743,-42.6287 281.814,-28.4669 259.106,-19.5164"/>
<polygon fill="midnightblue" stroke="midnightblue" points="342.205,-56.0326 352.792,-56.4435 344.772,-49.5203 342.205,-56.0326"/>
</g>
</g>
</svg>
