<?xml version="1.0" encoding="UTF-8" standalone="no"?>
<!DOCTYPE svg PUBLIC "-//W3C//DTD SVG 1.1//EN"
 "http://www.w3.org/Graphics/SVG/1.1/DTD/svg11.dtd">
<!-- Generated by graphviz version 2.26.3 (20100126.1600)
 -->
<!-- Title: F2wNetLFSR Pages: 1 -->
<svg width="94pt" height="204pt"
 viewBox="0.00 0.00 94.00 204.00" xmlns="http://www.w3.org/2000/svg" xmlns:xlink="http://www.w3.org/1999/xlink">
<g id="graph1" class="graph" transform="scale(1 1) rotate(0) translate(4 200)">
<title>F2wNetLFSR</title>
<!-- Node1 -->
<g id="node1" class="node"><title>Node1</title>
<polygon fill="#bfbfbf" stroke="black" points="6,-1 6,-21 80,-21 80,-1 6,-1"/>
<text text-anchor="middle" x="43" y="-8" font-family="Helvetica,sans-Serif" font-size="10.00">F2wNetLFSR</text>
</g>
<!-- Node2 -->
<g id="node2" class="node"><title>Node2</title>
<a xlink:href="classumontreal_1_1ssj_1_1hups_1_1DigitalNetBase2.html" target="_top" xlink:title="A special case of DigitalNet for the base . ">
<polygon fill="none" stroke="black" points="0,-59 0,-79 86,-79 86,-59 0,-59"/>
<text text-anchor="middle" x="43" y="-66" font-family="Helvetica,sans-Serif" font-size="10.00">DigitalNetBase2</text>
</a>
</g>
<!-- Node2&#45;&gt;Node1 -->
<g id="edge2" class="edge"><title>Node2&#45;&gt;Node1</title>
<path fill="none" stroke="midnightblue" d="M43,-48.8902C43,-39.6201 43,-29.0083 43,-21.3776"/>
<polygon fill="midnightblue" stroke="midnightblue" points="39.5001,-48.8971 43,-58.8972 46.5001,-48.8972 39.5001,-48.8971"/>
</g>
<!-- Node3 -->
<g id="node4" class="node"><title>Node3</title>
<a xlink:href="classumontreal_1_1ssj_1_1hups_1_1DigitalNet.html" target="_top" xlink:title="This class provides the basic structures for storing and manipulating linear digital nets in base ...">
<polygon fill="none" stroke="black" points="13.5,-117 13.5,-137 72.5,-137 72.5,-117 13.5,-117"/>
<text text-anchor="middle" x="43" y="-124" font-family="Helvetica,sans-Serif" font-size="10.00">DigitalNet</text>
</a>
</g>
<!-- Node3&#45;&gt;Node2 -->
<g id="edge4" class="edge"><title>Node3&#45;&gt;Node2</title>
<path fill="none" stroke="midnightblue" d="M43,-106.89C43,-97.6201 43,-87.0083 43,-79.3776"/>
<polygon fill="midnightblue" stroke="midnightblue" points="39.5001,-106.897 43,-116.897 46.5001,-106.897 39.5001,-106.897"/>
</g>
<!-- Node4 -->
<g id="node6" class="node"><title>Node4</title>
<a xlink:href="classumontreal_1_1ssj_1_1hups_1_1PointSet.html" target="_top" xlink:title="This abstract class defines the basic methods for accessing and manipulating point sets...">
<polygon fill="none" stroke="black" points="16,-175 16,-195 70,-195 70,-175 16,-175"/>
<text text-anchor="middle" x="43" y="-182" font-family="Helvetica,sans-Serif" font-size="10.00">PointSet</text>
</a>
</g>
<!-- Node4&#45;&gt;Node3 -->
<g id="edge6" class="edge"><title>Node4&#45;&gt;Node3</title>
<path fill="none" stroke="midnightblue" d="M43,-164.89C43,-155.62 43,-145.008 43,-137.378"/>
<polygon fill="midnightblue" stroke="midnightblue" points="39.5001,-164.897 43,-174.897 46.5001,-164.897 39.5001,-164.897"/>
</g>
</g>
</svg>
