<?xml version="1.0" encoding="UTF-8" standalone="no"?>
<!DOCTYPE svg PUBLIC "-//W3C//DTD SVG 1.1//EN"
 "http://www.w3.org/Graphics/SVG/1.1/DTD/svg11.dtd">
<!-- Generated by graphviz version 2.38.0 (20140413.2041)
 -->
<!-- Title: ChiSquareNoncentralPoisGen Pages: 1 -->
<svg width="176pt" height="209pt"
 viewBox="0.00 0.00 175.50 209.00" xmlns="http://www.w3.org/2000/svg" xmlns:xlink="http://www.w3.org/1999/xlink">
<g id="graph0" class="graph" transform="scale(1 1) rotate(0) translate(4 205)">
<title>ChiSquareNoncentralPoisGen</title>
<!-- Node3 -->
<g id="node1" class="node"><title>Node3</title>
<polygon fill="#bfbfbf" stroke="black" points="5.5,-0.5 5.5,-19.5 151.5,-19.5 151.5,-0.5 5.5,-0.5"/>
<text text-anchor="middle" x="78.5" y="-7.5" font-family="Helvetica,sans-Serif" font-size="10.00">ChiSquareNoncentralPoisGen</text>
</g>
<!-- Node4 -->
<g id="node2" class="node"><title>Node4</title>
<g id="a_node2"><a xlink:href="classumontreal_1_1ssj_1_1randvar_1_1ChiSquareNoncentralGen.html" target="_top" xlink:title="This class implements random variate generators for the noncentral chi square distribution with &#160;degr...">
<polygon fill="none" stroke="black" points="15.5,-57.5 15.5,-76.5 141.5,-76.5 141.5,-57.5 15.5,-57.5"/>
<text text-anchor="middle" x="78.5" y="-64.5" font-family="Helvetica,sans-Serif" font-size="10.00">ChiSquareNoncentralGen</text>
</a>
</g>
</g>
<!-- Node4&#45;&gt;Node3 -->
<g id="edge1" class="edge"><title>Node4&#45;&gt;Node3</title>
<path fill="none" stroke="midnightblue" d="M78.5,-47.1166C78.5,-37.8173 78.5,-27.0557 78.5,-19.7149"/>
<polygon fill="midnightblue" stroke="midnightblue" points="75.0001,-47.4062 78.5,-57.4063 82.0001,-47.4063 75.0001,-47.4062"/>
</g>
<!-- Node5 -->
<g id="node3" class="node"><title>Node5</title>
<g id="a_node3"><a xlink:href="classumontreal_1_1ssj_1_1randvar_1_1RandomVariateGen.html" target="_top" xlink:title="This is the base class for all random variate generators over the real line. ">
<polygon fill="none" stroke="black" points="28,-114.5 28,-133.5 129,-133.5 129,-114.5 28,-114.5"/>
<text text-anchor="middle" x="78.5" y="-121.5" font-family="Helvetica,sans-Serif" font-size="10.00">RandomVariateGen</text>
</a>
</g>
</g>
<!-- Node5&#45;&gt;Node4 -->
<g id="edge2" class="edge"><title>Node5&#45;&gt;Node4</title>
<path fill="none" stroke="midnightblue" d="M78.5,-104.117C78.5,-94.8173 78.5,-84.0557 78.5,-76.7149"/>
<polygon fill="midnightblue" stroke="midnightblue" points="75.0001,-104.406 78.5,-114.406 82.0001,-104.406 75.0001,-104.406"/>
</g>
<!-- Node6 -->
<g id="node4" class="node"><title>Node6</title>
<g id="a_node4"><a xlink:href="interfaceumontreal_1_1ssj_1_1probdist_1_1Distribution.html" target="_top" xlink:title="This interface should be implemented by all classes supporting discrete and continuous distributions...">
<polygon fill="none" stroke="black" points="0,-181.5 0,-200.5 65,-200.5 65,-181.5 0,-181.5"/>
<text text-anchor="middle" x="32.5" y="-188.5" font-family="Helvetica,sans-Serif" font-size="10.00">Distribution</text>
</a>
</g>
</g>
<!-- Node6&#45;&gt;Node5 -->
<g id="edge3" class="edge"><title>Node6&#45;&gt;Node5</title>
<path fill="none" stroke="#9a32cd" stroke-dasharray="5,2" d="M44.5989,-172.904C53.5376,-160.273 65.334,-143.604 72.3945,-133.627"/>
<polygon fill="#9a32cd" stroke="#9a32cd" points="41.6235,-171.049 38.7038,-181.234 47.3375,-175.093 41.6235,-171.049"/>
<text text-anchor="middle" x="68" y="-155" font-family="Helvetica,sans-Serif" font-size="10.00"> dist</text>
</g>
<!-- Node7 -->
<g id="node5" class="node"><title>Node7</title>
<g id="a_node5"><a xlink:href="interfaceumontreal_1_1ssj_1_1rng_1_1RandomStream.html" target="_top" xlink:title="This interface defines the basic structures to handle multiple streams of uniform (pseudo)random numb...">
<polygon fill="none" stroke="black" points="83.5,-181.5 83.5,-200.5 167.5,-200.5 167.5,-181.5 83.5,-181.5"/>
<text text-anchor="middle" x="125.5" y="-188.5" font-family="Helvetica,sans-Serif" font-size="10.00">RandomStream</text>
</a>
</g>
</g>
<!-- Node7&#45;&gt;Node5 -->
<g id="edge4" class="edge"><title>Node7&#45;&gt;Node5</title>
<path fill="none" stroke="#9a32cd" stroke-dasharray="5,2" d="M113.138,-172.904C104.005,-160.273 91.9522,-143.604 84.7382,-133.627"/>
<polygon fill="#9a32cd" stroke="#9a32cd" points="110.466,-175.181 119.161,-181.234 116.138,-171.079 110.466,-175.181"/>
<text text-anchor="middle" x="122.5" y="-155" font-family="Helvetica,sans-Serif" font-size="10.00"> stream</text>
</g>
</g>
</svg>
