<?xml version="1.0" encoding="UTF-8" standalone="no"?>
<!DOCTYPE svg PUBLIC "-//W3C//DTD SVG 1.1//EN"
 "http://www.w3.org/Graphics/SVG/1.1/DTD/svg11.dtd">
<!-- Generated by graphviz version 2.38.0 (20140413.2041)
 -->
<!-- Title: WELL512 Pages: 1 -->
<svg width="265pt" height="196pt"
 viewBox="0.00 0.00 265.00 196.00" xmlns="http://www.w3.org/2000/svg" xmlns:xlink="http://www.w3.org/1999/xlink">
<g id="graph0" class="graph" transform="scale(1 1) rotate(0) translate(4 192)">
<title>WELL512</title>
<!-- Node1 -->
<g id="node1" class="node"><title>Node1</title>
<polygon fill="#bfbfbf" stroke="black" points="126.5,-0.5 126.5,-19.5 187.5,-19.5 187.5,-0.5 126.5,-0.5"/>
<text text-anchor="middle" x="157" y="-7.5" font-family="Helvetica,sans-Serif" font-size="10.00">WELL512</text>
</g>
<!-- Node2 -->
<g id="node2" class="node"><title>Node2</title>
<g id="a_node2"><a xlink:href="classumontreal_1_1ssj_1_1rng_1_1RandomStreamBase.html" target="_top" xlink:title="This class provides a convenient foundation on which RNGs can be built. ">
<polygon fill="none" stroke="black" points="99,-56.5 99,-75.5 215,-75.5 215,-56.5 99,-56.5"/>
<text text-anchor="middle" x="157" y="-63.5" font-family="Helvetica,sans-Serif" font-size="10.00">RandomStreamBase</text>
</a>
</g>
</g>
<!-- Node2&#45;&gt;Node1 -->
<g id="edge1" class="edge"><title>Node2&#45;&gt;Node1</title>
<path fill="none" stroke="midnightblue" d="M157,-45.8045C157,-36.9102 157,-26.7798 157,-19.7511"/>
<polygon fill="midnightblue" stroke="midnightblue" points="153.5,-46.083 157,-56.083 160.5,-46.083 153.5,-46.083"/>
</g>
<!-- Node3 -->
<g id="node3" class="node"><title>Node3</title>
<g id="a_node3"><a xlink:href="interfaceumontreal_1_1ssj_1_1rng_1_1CloneableRandomStream.html" target="_top" xlink:title="CloneableRandomStream extends RandomStream and Cloneable. ">
<polygon fill="none" stroke="black" points="23.5,-112.5 23.5,-131.5 164.5,-131.5 164.5,-112.5 23.5,-112.5"/>
<text text-anchor="middle" x="94" y="-119.5" font-family="Helvetica,sans-Serif" font-size="10.00">CloneableRandomStream</text>
</a>
</g>
</g>
<!-- Node3&#45;&gt;Node2 -->
<g id="edge2" class="edge"><title>Node3&#45;&gt;Node2</title>
<path fill="none" stroke="midnightblue" d="M112.04,-105.537C123.273,-95.9087 137.319,-83.8694 146.694,-75.8339"/>
<polygon fill="midnightblue" stroke="midnightblue" points="109.437,-103.159 104.122,-112.324 113.992,-108.473 109.437,-103.159"/>
</g>
<!-- Node4 -->
<g id="node4" class="node"><title>Node4</title>
<g id="a_node4"><a xlink:href="interfaceumontreal_1_1ssj_1_1rng_1_1RandomStream.html" target="_top" xlink:title="This interface defines the basic structures to handle multiple streams of uniform (pseudo)random numb...">
<polygon fill="none" stroke="black" points="0,-168.5 0,-187.5 92,-187.5 92,-168.5 0,-168.5"/>
<text text-anchor="middle" x="46" y="-175.5" font-family="Helvetica,sans-Serif" font-size="10.00">RandomStream</text>
</a>
</g>
</g>
<!-- Node4&#45;&gt;Node3 -->
<g id="edge3" class="edge"><title>Node4&#45;&gt;Node3</title>
<path fill="none" stroke="midnightblue" d="M60.7277,-160.431C69.1401,-150.967 79.3487,-139.483 86.2213,-131.751"/>
<polygon fill="midnightblue" stroke="midnightblue" points="57.954,-158.284 53.9262,-168.083 63.1858,-162.934 57.954,-158.284"/>
</g>
<!-- Node5 -->
<g id="node5" class="node"><title>Node5</title>
<polygon fill="none" stroke="#bfbfbf" points="110.5,-168.5 110.5,-187.5 175.5,-187.5 175.5,-168.5 110.5,-168.5"/>
<text text-anchor="middle" x="143" y="-175.5" font-family="Helvetica,sans-Serif" font-size="10.00">Cloneable</text>
</g>
<!-- Node5&#45;&gt;Node3 -->
<g id="edge4" class="edge"><title>Node5&#45;&gt;Node3</title>
<path fill="none" stroke="midnightblue" d="M127.966,-160.431C119.378,-150.967 108.957,-139.483 101.941,-131.751"/>
<polygon fill="midnightblue" stroke="midnightblue" points="125.597,-163.029 134.909,-168.083 130.781,-158.325 125.597,-163.029"/>
</g>
<!-- Node6 -->
<g id="node6" class="node"><title>Node6</title>
<polygon fill="none" stroke="#bfbfbf" points="183,-112.5 183,-131.5 257,-131.5 257,-112.5 183,-112.5"/>
<text text-anchor="middle" x="220" y="-119.5" font-family="Helvetica,sans-Serif" font-size="10.00">Serializable</text>
</g>
<!-- Node6&#45;&gt;Node2 -->
<g id="edge5" class="edge"><title>Node6&#45;&gt;Node2</title>
<path fill="none" stroke="midnightblue" d="M201.96,-105.537C190.727,-95.9087 176.681,-83.8694 167.306,-75.8339"/>
<polygon fill="midnightblue" stroke="midnightblue" points="200.008,-108.473 209.878,-112.324 204.563,-103.159 200.008,-108.473"/>
</g>
</g>
</svg>
