<?xml version="1.0" encoding="UTF-8" standalone="no"?>
<!DOCTYPE svg PUBLIC "-//W3C//DTD SVG 1.1//EN"
 "http://www.w3.org/Graphics/SVG/1.1/DTD/svg11.dtd">
<!-- Generated by graphviz version 2.38.0 (20140413.2041)
 -->
<!-- Title: FaureSequence Pages: 1 -->
<svg width="105pt" height="266pt"
 viewBox="0.00 0.00 104.50 266.00" xmlns="http://www.w3.org/2000/svg" xmlns:xlink="http://www.w3.org/1999/xlink">
<g id="graph0" class="graph" transform="scale(1 1) rotate(0) translate(4 262)">
<title>FaureSequence</title>
<!-- Node4 -->
<g id="node1" class="node"><title>Node4</title>
<polygon fill="#bfbfbf" stroke="black" points="1,-0.5 1,-19.5 86,-19.5 86,-0.5 1,-0.5"/>
<text text-anchor="middle" x="43.5" y="-7.5" font-family="Helvetica,sans-Serif" font-size="10.00">FaureSequence</text>
</g>
<!-- Node5 -->
<g id="node2" class="node"><title>Node5</title>
<g id="a_node2"><a xlink:href="classumontreal_1_1ssj_1_1hups_1_1DigitalSequence.html" target="_top" xlink:title="This abstract class describes methods specific to digital sequences. ">
<polygon fill="none" stroke="black" points="0,-57.5 0,-76.5 87,-76.5 87,-57.5 0,-57.5"/>
<text text-anchor="middle" x="43.5" y="-64.5" font-family="Helvetica,sans-Serif" font-size="10.00">DigitalSequence</text>
</a>
</g>
</g>
<!-- Node5&#45;&gt;Node4 -->
<g id="edge1" class="edge"><title>Node5&#45;&gt;Node4</title>
<path fill="none" stroke="midnightblue" d="M43.5,-47.1166C43.5,-37.8173 43.5,-27.0557 43.5,-19.7149"/>
<polygon fill="midnightblue" stroke="midnightblue" points="40.0001,-47.4062 43.5,-57.4063 47.0001,-47.4063 40.0001,-47.4062"/>
</g>
<!-- Node6 -->
<g id="node3" class="node"><title>Node6</title>
<g id="a_node3"><a xlink:href="classumontreal_1_1ssj_1_1hups_1_1DigitalNet.html" target="_top" xlink:title="This class provides the basic structures for storing and manipulating linear digital nets in base ...">
<polygon fill="none" stroke="black" points="14,-114.5 14,-133.5 73,-133.5 73,-114.5 14,-114.5"/>
<text text-anchor="middle" x="43.5" y="-121.5" font-family="Helvetica,sans-Serif" font-size="10.00">DigitalNet</text>
</a>
</g>
</g>
<!-- Node6&#45;&gt;Node5 -->
<g id="edge2" class="edge"><title>Node6&#45;&gt;Node5</title>
<path fill="none" stroke="midnightblue" d="M43.5,-104.117C43.5,-94.8173 43.5,-84.0557 43.5,-76.7149"/>
<polygon fill="midnightblue" stroke="midnightblue" points="40.0001,-104.406 43.5,-114.406 47.0001,-104.406 40.0001,-104.406"/>
</g>
<!-- Node7 -->
<g id="node4" class="node"><title>Node7</title>
<g id="a_node4"><a xlink:href="classumontreal_1_1ssj_1_1hups_1_1PointSet.html" target="_top" xlink:title="This abstract class represents a general point set. ">
<polygon fill="none" stroke="black" points="16.5,-171.5 16.5,-190.5 70.5,-190.5 70.5,-171.5 16.5,-171.5"/>
<text text-anchor="middle" x="43.5" y="-178.5" font-family="Helvetica,sans-Serif" font-size="10.00">PointSet</text>
</a>
</g>
</g>
<!-- Node7&#45;&gt;Node6 -->
<g id="edge3" class="edge"><title>Node7&#45;&gt;Node6</title>
<path fill="none" stroke="midnightblue" d="M43.5,-161.117C43.5,-151.817 43.5,-141.056 43.5,-133.715"/>
<polygon fill="midnightblue" stroke="midnightblue" points="40.0001,-161.406 43.5,-171.406 47.0001,-161.406 40.0001,-161.406"/>
</g>
<!-- Node8 -->
<g id="node5" class="node"><title>Node8</title>
<g id="a_node5"><a xlink:href="interfaceumontreal_1_1ssj_1_1rng_1_1RandomStream.html" target="_top" xlink:title="This interface defines the basic structures to handle multiple streams of uniform (pseudo)random numb...">
<polygon fill="none" stroke="black" points="1.5,-238.5 1.5,-257.5 85.5,-257.5 85.5,-238.5 1.5,-238.5"/>
<text text-anchor="middle" x="43.5" y="-245.5" font-family="Helvetica,sans-Serif" font-size="10.00">RandomStream</text>
</a>
</g>
</g>
<!-- Node8&#45;&gt;Node7 -->
<g id="edge4" class="edge"><title>Node8&#45;&gt;Node7</title>
<path fill="none" stroke="#9a32cd" stroke-dasharray="5,2" d="M43.5,-228.037C43.5,-215.67 43.5,-200.12 43.5,-190.627"/>
<polygon fill="#9a32cd" stroke="#9a32cd" points="40.0001,-228.234 43.5,-238.234 47.0001,-228.234 40.0001,-228.234"/>
<text text-anchor="middle" x="70" y="-212" font-family="Helvetica,sans-Serif" font-size="10.00"> shiftStream</text>
</g>
</g>
</svg>
