<?xml version="1.0" encoding="UTF-8" standalone="no"?>
<!DOCTYPE svg PUBLIC "-//W3C//DTD SVG 1.1//EN"
 "http://www.w3.org/Graphics/SVG/1.1/DTD/svg11.dtd">
<!-- Generated by graphviz version 2.26.3 (20100126.1600)
 -->
<!-- Title: BoxSeriesCollection Pages: 1 -->
<svg width="228pt" height="160pt"
 viewBox="0.00 0.00 228.00 160.00" xmlns="http://www.w3.org/2000/svg" xmlns:xlink="http://www.w3.org/1999/xlink">
<g id="graph1" class="graph" transform="scale(1 1) rotate(0) translate(4 156)">
<title>BoxSeriesCollection</title>
<!-- Node1 -->
<g id="node1" class="node"><title>Node1</title>
<polygon fill="#bfbfbf" stroke="black" points="51,-1 51,-21 155,-21 155,-1 51,-1"/>
<text text-anchor="middle" x="103" y="-8" font-family="Helvetica,sans-Serif" font-size="10.00">BoxSeriesCollection</text>
</g>
<!-- Node2 -->
<g id="node2" class="node"><title>Node2</title>
<a xlink:href="classumontreal_1_1ssj_1_1charts_1_1SSJCategorySeriesCollection.html" target="_top" xlink:title="Stores data used in a CategoryChart. ">
<polygon fill="none" stroke="black" points="30.5,-61 30.5,-81 175.5,-81 175.5,-61 30.5,-61"/>
<text text-anchor="middle" x="103" y="-68" font-family="Helvetica,sans-Serif" font-size="10.00">SSJCategorySeriesCollection</text>
</a>
</g>
<!-- Node2&#45;&gt;Node1 -->
<g id="edge2" class="edge"><title>Node2&#45;&gt;Node1</title>
<path fill="none" stroke="midnightblue" d="M103,-50.5155C103,-40.562 103,-29.0495 103,-21.0279"/>
<polygon fill="midnightblue" stroke="midnightblue" points="99.5001,-50.8218 103,-60.8218 106.5,-50.8219 99.5001,-50.8218"/>
</g>
<!-- Node3 -->
<g id="node4" class="node"><title>Node3</title>
<polygon fill="none" stroke="#bfbfbf" points="-0.5,-131 -0.5,-151 88.5,-151 88.5,-131 -0.5,-131"/>
<text text-anchor="middle" x="44" y="-138" font-family="Helvetica,sans-Serif" font-size="10.00">CategoryDataset</text>
</g>
<!-- Node3&#45;&gt;Node2 -->
<g id="edge4" class="edge"><title>Node3&#45;&gt;Node2</title>
<path fill="none" stroke="#9a32cd" stroke-dasharray="5,2" d="M53.4044,-121.819C57.396,-114.606 62.4196,-106.569 68,-100 74.0288,-92.9035 81.936,-86.1877 88.7091,-81.0093"/>
<polygon fill="#9a32cd" stroke="#9a32cd" points="50.1739,-120.445 48.6457,-130.929 56.3783,-123.686 50.1739,-120.445"/>
<text text-anchor="middle" x="104.5" y="-103" font-family="Helvetica,sans-Serif" font-size="10.00"> seriesCollection</text>
</g>
<!-- Node4 -->
<g id="node6" class="node"><title>Node4</title>
<polygon fill="none" stroke="#bfbfbf" points="106,-131 106,-151 220,-151 220,-131 106,-131"/>
<text text-anchor="middle" x="163" y="-138" font-family="Helvetica,sans-Serif" font-size="10.00">CategoryItemRenderer</text>
</g>
<!-- Node4&#45;&gt;Node2 -->
<g id="edge6" class="edge"><title>Node4&#45;&gt;Node2</title>
<path fill="none" stroke="#9a32cd" stroke-dasharray="5,2" d="M154.757,-121.669C151.146,-114.437 146.475,-106.425 141,-100 134.864,-92.7989 126.657,-86.2605 119.441,-81.2226"/>
<polygon fill="#9a32cd" stroke="#9a32cd" points="151.62,-123.224 159,-130.825 157.971,-120.281 151.62,-123.224"/>
<text text-anchor="middle" x="168.5" y="-103" font-family="Helvetica,sans-Serif" font-size="10.00"> renderer</text>
</g>
</g>
</svg>
