<?xml version="1.0" encoding="UTF-8" standalone="no"?>
<!DOCTYPE svg PUBLIC "-//W3C//DTD SVG 1.1//EN"
 "http://www.w3.org/Graphics/SVG/1.1/DTD/svg11.dtd">
<!-- Generated by graphviz version 2.38.0 (20140413.2041)
 -->
<!-- Title: BoxChart Pages: 1 -->
<svg width="326pt" height="219pt"
 viewBox="0.00 0.00 325.50 219.00" xmlns="http://www.w3.org/2000/svg" xmlns:xlink="http://www.w3.org/1999/xlink">
<g id="graph0" class="graph" transform="scale(1 1) rotate(0) translate(4 215)">
<title>BoxChart</title>
<!-- Node1 -->
<g id="node1" class="node"><title>Node1</title>
<polygon fill="#bfbfbf" stroke="black" points="201.5,-0.5 201.5,-19.5 259.5,-19.5 259.5,-0.5 201.5,-0.5"/>
<text text-anchor="middle" x="230.5" y="-7.5" font-family="Helvetica,sans-Serif" font-size="10.00">BoxChart</text>
</g>
<!-- Node2 -->
<g id="node2" class="node"><title>Node2</title>
<g id="a_node2"><a xlink:href="classumontreal_1_1ssj_1_1charts_1_1CategoryChart.html" target="_top" xlink:title="This class provides tools to create charts from data in a simple way. ">
<polygon fill="none" stroke="black" points="190.5,-57.5 190.5,-76.5 270.5,-76.5 270.5,-57.5 190.5,-57.5"/>
<text text-anchor="middle" x="230.5" y="-64.5" font-family="Helvetica,sans-Serif" font-size="10.00">CategoryChart</text>
</a>
</g>
</g>
<!-- Node2&#45;&gt;Node1 -->
<g id="edge1" class="edge"><title>Node2&#45;&gt;Node1</title>
<path fill="none" stroke="midnightblue" d="M230.5,-47.1166C230.5,-37.8173 230.5,-27.0557 230.5,-19.7149"/>
<polygon fill="midnightblue" stroke="midnightblue" points="227,-47.4062 230.5,-57.4062 234,-47.4063 227,-47.4062"/>
</g>
<!-- Node3 -->
<g id="node3" class="node"><title>Node3</title>
<g id="a_node3"><a xlink:href="classumontreal_1_1ssj_1_1charts_1_1SSJCategorySeriesCollection.html" target="_top" xlink:title="Stores data used in a CategoryChart. ">
<polygon fill="none" stroke="black" points="33.5,-124.5 33.5,-143.5 179.5,-143.5 179.5,-124.5 33.5,-124.5"/>
<text text-anchor="middle" x="106.5" y="-131.5" font-family="Helvetica,sans-Serif" font-size="10.00">SSJCategorySeriesCollection</text>
</a>
</g>
</g>
<!-- Node3&#45;&gt;Node2 -->
<g id="edge2" class="edge"><title>Node3&#45;&gt;Node2</title>
<path fill="none" stroke="#9a32cd" stroke-dasharray="5,2" d="M132.057,-119.603C156.613,-106.731 192.995,-87.66 213.966,-76.6672"/>
<polygon fill="#9a32cd" stroke="#9a32cd" points="130.198,-116.626 122.966,-124.369 133.448,-122.826 130.198,-116.626"/>
<text text-anchor="middle" x="194.5" y="-98" font-family="Helvetica,sans-Serif" font-size="10.00"> dataset</text>
</g>
<!-- Node4 -->
<g id="node4" class="node"><title>Node4</title>
<polygon fill="none" stroke="#bfbfbf" points="0,-191.5 0,-210.5 91,-210.5 91,-191.5 0,-191.5"/>
<text text-anchor="middle" x="45.5" y="-198.5" font-family="Helvetica,sans-Serif" font-size="10.00">CategoryDataset</text>
</g>
<!-- Node4&#45;&gt;Node3 -->
<g id="edge3" class="edge"><title>Node4&#45;&gt;Node3</title>
<path fill="none" stroke="#9a32cd" stroke-dasharray="5,2" d="M56.2056,-182.801C60.8216,-175.99 66.5285,-168.299 72.5,-162 78.9303,-155.217 87.1083,-148.67 93.8322,-143.722"/>
<polygon fill="#9a32cd" stroke="#9a32cd" points="53.1779,-181.037 50.6649,-191.329 59.0479,-184.85 53.1779,-181.037"/>
<text text-anchor="middle" x="109" y="-165" font-family="Helvetica,sans-Serif" font-size="10.00"> seriesCollection</text>
</g>
<!-- Node5 -->
<g id="node5" class="node"><title>Node5</title>
<polygon fill="none" stroke="#bfbfbf" points="109.5,-191.5 109.5,-210.5 225.5,-210.5 225.5,-191.5 109.5,-191.5"/>
<text text-anchor="middle" x="167.5" y="-198.5" font-family="Helvetica,sans-Serif" font-size="10.00">CategoryItemRenderer</text>
</g>
<!-- Node5&#45;&gt;Node3 -->
<g id="edge4" class="edge"><title>Node5&#45;&gt;Node3</title>
<path fill="none" stroke="#9a32cd" stroke-dasharray="5,2" d="M159.351,-182.298C155.706,-175.498 150.987,-167.948 145.5,-162 138.8,-154.736 129.812,-148.349 122.153,-143.614"/>
<polygon fill="#9a32cd" stroke="#9a32cd" points="156.31,-184.044 163.886,-191.45 162.582,-180.935 156.31,-184.044"/>
<text text-anchor="middle" x="174" y="-165" font-family="Helvetica,sans-Serif" font-size="10.00"> renderer</text>
</g>
<!-- Node6 -->
<g id="node6" class="node"><title>Node6</title>
<polygon fill="none" stroke="#bfbfbf" points="198,-124.5 198,-143.5 263,-143.5 263,-124.5 198,-124.5"/>
<text text-anchor="middle" x="230.5" y="-131.5" font-family="Helvetica,sans-Serif" font-size="10.00">JFreeChart</text>
</g>
<!-- Node6&#45;&gt;Node2 -->
<g id="edge5" class="edge"><title>Node6&#45;&gt;Node2</title>
<path fill="none" stroke="#9a32cd" stroke-dasharray="5,2" d="M230.5,-114.037C230.5,-101.67 230.5,-86.1198 230.5,-76.6273"/>
<polygon fill="#9a32cd" stroke="#9a32cd" points="227,-114.234 230.5,-124.234 234,-114.234 227,-114.234"/>
<text text-anchor="middle" x="243" y="-98" font-family="Helvetica,sans-Serif" font-size="10.00"> chart</text>
</g>
<!-- Node7 -->
<g id="node7" class="node"><title>Node7</title>
<g id="a_node7"><a xlink:href="classumontreal_1_1ssj_1_1charts_1_1Axis.html" target="_top" xlink:title="Represents an axis of a chart encapsulated by an instance of XYChart. ">
<polygon fill="none" stroke="black" points="281.5,-124.5 281.5,-143.5 317.5,-143.5 317.5,-124.5 281.5,-124.5"/>
<text text-anchor="middle" x="299.5" y="-131.5" font-family="Helvetica,sans-Serif" font-size="10.00">Axis</text>
</a>
</g>
</g>
<!-- Node7&#45;&gt;Node2 -->
<g id="edge6" class="edge"><title>Node7&#45;&gt;Node2</title>
<path fill="none" stroke="#9a32cd" stroke-dasharray="5,2" d="M282.652,-116.923C275.525,-110.14 267.123,-102.169 259.5,-95 252.986,-88.8734 245.609,-82.0065 239.926,-76.7311"/>
<polygon fill="#9a32cd" stroke="#9a32cd" points="280.656,-119.855 290.31,-124.22 285.485,-114.788 280.656,-119.855"/>
<text text-anchor="middle" x="286.5" y="-98" font-family="Helvetica,sans-Serif" font-size="10.00"> YAxis</text>
</g>
</g>
</svg>
