<?xml version="1.0" encoding="UTF-8" standalone="no"?>
<!DOCTYPE svg PUBLIC "-//W3C//DTD SVG 1.1//EN"
 "http://www.w3.org/Graphics/SVG/1.1/DTD/svg11.dtd">
<!-- Generated by graphviz version 2.26.3 (20100126.1600)
 -->
<!-- Title: TallyStore Pages: 1 -->
<svg width="243pt" height="160pt"
 viewBox="0.00 0.00 243.00 160.00" xmlns="http://www.w3.org/2000/svg" xmlns:xlink="http://www.w3.org/1999/xlink">
<g id="graph1" class="graph" transform="scale(1 1) rotate(0) translate(4 156)">
<title>TallyStore</title>
<!-- Node1 -->
<g id="node1" class="node"><title>Node1</title>
<polygon fill="#bfbfbf" stroke="black" points="77,-1 77,-21 137,-21 137,-1 77,-1"/>
<text text-anchor="middle" x="107" y="-8" font-family="Helvetica,sans-Serif" font-size="10.00">TallyStore</text>
</g>
<!-- Node2 -->
<g id="node2" class="node"><title>Node2</title>
<a xlink:href="classumontreal_1_1ssj_1_1stat_1_1Tally.html" target="_top" xlink:title="A subclass of StatProbe. ">
<polygon fill="none" stroke="black" points="88.5,-61 88.5,-81 125.5,-81 125.5,-61 88.5,-61"/>
<text text-anchor="middle" x="107" y="-68" font-family="Helvetica,sans-Serif" font-size="10.00">Tally</text>
</a>
</g>
<!-- Node2&#45;&gt;Node1 -->
<g id="edge2" class="edge"><title>Node2&#45;&gt;Node1</title>
<path fill="none" stroke="midnightblue" d="M107,-50.5155C107,-40.562 107,-29.0495 107,-21.0279"/>
<polygon fill="midnightblue" stroke="midnightblue" points="103.5,-50.8218 107,-60.8218 110.5,-50.8219 103.5,-50.8218"/>
</g>
<!-- Node3 -->
<g id="node4" class="node"><title>Node3</title>
<a xlink:href="classumontreal_1_1ssj_1_1stat_1_1StatProbe.html" target="_top" xlink:title="The objects of this class are statistical probes or collectors, which are elementary devices for coll...">
<polygon fill="none" stroke="black" points="0,-131 0,-151 60,-151 60,-131 0,-131"/>
<text text-anchor="middle" x="30" y="-138" font-family="Helvetica,sans-Serif" font-size="10.00">StatProbe</text>
</a>
</g>
<!-- Node3&#45;&gt;Node2 -->
<g id="edge4" class="edge"><title>Node3&#45;&gt;Node2</title>
<path fill="none" stroke="midnightblue" d="M48.6188,-124.074C63.4282,-110.611 83.6464,-92.2306 95.9882,-81.0107"/>
<polygon fill="midnightblue" stroke="midnightblue" points="46.0773,-121.654 41.0322,-130.971 50.786,-126.834 46.0773,-121.654"/>
</g>
<!-- Node4 -->
<g id="node6" class="node"><title>Node4</title>
<polygon fill="none" stroke="#bfbfbf" points="77.5,-131 77.5,-151 136.5,-151 136.5,-131 77.5,-131"/>
<text text-anchor="middle" x="107" y="-138" font-family="Helvetica,sans-Serif" font-size="10.00">Cloneable</text>
</g>
<!-- Node4&#45;&gt;Node2 -->
<g id="edge6" class="edge"><title>Node4&#45;&gt;Node2</title>
<path fill="none" stroke="midnightblue" d="M107,-120.613C107,-107.597 107,-91.2956 107,-81.0107"/>
<polygon fill="midnightblue" stroke="midnightblue" points="103.5,-120.971 107,-130.971 110.5,-120.971 103.5,-120.971"/>
</g>
<!-- Node5 -->
<g id="node8" class="node"><title>Node5</title>
<polygon fill="none" stroke="#bfbfbf" points="154,-131 154,-151 224,-151 224,-131 154,-131"/>
<text text-anchor="middle" x="189" y="-138" font-family="Helvetica,sans-Serif" font-size="10.00">Tally.CIType</text>
</g>
<!-- Node5&#45;&gt;Node2 -->
<g id="edge8" class="edge"><title>Node5&#45;&gt;Node2</title>
<path fill="none" stroke="#9a32cd" stroke-dasharray="5,2" d="M169.609,-124.446C153.801,-110.952 131.992,-92.3344 118.727,-81.0107"/>
<polygon fill="#9a32cd" stroke="#9a32cd" points="167.373,-127.14 177.251,-130.971 171.918,-121.816 167.373,-127.14"/>
<text text-anchor="middle" x="193.5" y="-103" font-family="Helvetica,sans-Serif" font-size="10.00"> confidenceInterval</text>
</g>
</g>
</svg>
