<?xml version="1.0" encoding="UTF-8" standalone="no"?>
<!DOCTYPE svg PUBLIC "-//W3C//DTD SVG 1.1//EN"
 "http://www.w3.org/Graphics/SVG/1.1/DTD/svg11.dtd">
<!-- Generated by graphviz version 2.38.0 (20140413.2041)
 -->
<!-- Title: InverseGaussianProcessBridge Pages: 1 -->
<svg width="298pt" height="286pt"
 viewBox="0.00 0.00 297.50 286.00" xmlns="http://www.w3.org/2000/svg" xmlns:xlink="http://www.w3.org/1999/xlink">
<g id="graph0" class="graph" transform="scale(1 1) rotate(0) translate(4 282)">
<title>InverseGaussianProcessBridge</title>
<!-- Node1 -->
<g id="node1" class="node"><title>Node1</title>
<polygon fill="#bfbfbf" stroke="black" points="82.5,-0.5 82.5,-19.5 236.5,-19.5 236.5,-0.5 82.5,-0.5"/>
<text text-anchor="middle" x="159.5" y="-7.5" font-family="Helvetica,sans-Serif" font-size="10.00">InverseGaussianProcessBridge</text>
</g>
<!-- Node2 -->
<g id="node2" class="node"><title>Node2</title>
<g id="a_node2"><a xlink:href="classumontreal_1_1ssj_1_1stochprocess_1_1InverseGaussianProcessMSH.html" target="_top" xlink:title="Uses a faster generating method (MSH)   than the simple inversion of the distribution function used ...">
<polygon fill="none" stroke="black" points="85,-57.5 85,-76.5 234,-76.5 234,-57.5 85,-57.5"/>
<text text-anchor="middle" x="159.5" y="-64.5" font-family="Helvetica,sans-Serif" font-size="10.00">InverseGaussianProcessMSH</text>
</a>
</g>
</g>
<!-- Node2&#45;&gt;Node1 -->
<g id="edge1" class="edge"><title>Node2&#45;&gt;Node1</title>
<path fill="none" stroke="midnightblue" d="M159.5,-47.1166C159.5,-37.8173 159.5,-27.0557 159.5,-19.7149"/>
<polygon fill="midnightblue" stroke="midnightblue" points="156,-47.4062 159.5,-57.4062 163,-47.4063 156,-47.4062"/>
</g>
<!-- Node3 -->
<g id="node3" class="node"><title>Node3</title>
<g id="a_node3"><a xlink:href="classumontreal_1_1ssj_1_1stochprocess_1_1InverseGaussianProcess.html" target="_top" xlink:title="The inverse Gaussian process is a non&#45;decreasing process where the increments are additive and are gi...">
<polygon fill="none" stroke="black" points="5.5,-191.5 5.5,-210.5 131.5,-210.5 131.5,-191.5 5.5,-191.5"/>
<text text-anchor="middle" x="68.5" y="-198.5" font-family="Helvetica,sans-Serif" font-size="10.00">InverseGaussianProcess</text>
</a>
</g>
</g>
<!-- Node3&#45;&gt;Node2 -->
<g id="edge2" class="edge"><title>Node3&#45;&gt;Node2</title>
<path fill="none" stroke="midnightblue" d="M80.363,-182.792C100.079,-154.193 138.88,-97.9101 153.626,-76.5212"/>
<polygon fill="midnightblue" stroke="midnightblue" points="77.2651,-181.119 74.4708,-191.339 83.0283,-185.093 77.2651,-181.119"/>
</g>
<!-- Node4 -->
<g id="node4" class="node"><title>Node4</title>
<g id="a_node4"><a xlink:href="classumontreal_1_1ssj_1_1stochprocess_1_1StochasticProcess.html" target="_top" xlink:title="Abstract base class for a stochastic process &#160;sampled (or observed) at a finite number of time points...">
<polygon fill="none" stroke="black" points="0,-258.5 0,-277.5 99,-277.5 99,-258.5 0,-258.5"/>
<text text-anchor="middle" x="49.5" y="-265.5" font-family="Helvetica,sans-Serif" font-size="10.00">StochasticProcess</text>
</a>
</g>
</g>
<!-- Node4&#45;&gt;Node3 -->
<g id="edge3" class="edge"><title>Node4&#45;&gt;Node3</title>
<path fill="none" stroke="midnightblue" d="M54.9327,-248.415C58.5649,-235.988 63.1751,-220.217 65.9782,-210.627"/>
<polygon fill="midnightblue" stroke="midnightblue" points="51.5087,-247.653 52.0624,-258.234 58.2276,-249.617 51.5087,-247.653"/>
</g>
<!-- Node5 -->
<g id="node5" class="node"><title>Node5</title>
<g id="a_node5"><a xlink:href="interfaceumontreal_1_1ssj_1_1rng_1_1RandomStream.html" target="_top" xlink:title="This interface defines the basic structures to handle multiple streams of uniform (pseudo)random numb...">
<polygon fill="none" stroke="black" points="117,-258.5 117,-277.5 202,-277.5 202,-258.5 117,-258.5"/>
<text text-anchor="middle" x="159.5" y="-265.5" font-family="Helvetica,sans-Serif" font-size="10.00">RandomStream</text>
</a>
</g>
</g>
<!-- Node5&#45;&gt;Node2 -->
<g id="edge9" class="edge"><title>Node5&#45;&gt;Node2</title>
<path fill="none" stroke="#9a32cd" stroke-dasharray="5,2" d="M159.5,-248.302C159.5,-206.506 159.5,-106.826 159.5,-76.743"/>
<polygon fill="#9a32cd" stroke="#9a32cd" points="156,-248.449 159.5,-258.449 163,-248.449 156,-248.449"/>
<text text-anchor="middle" x="188" y="-165" font-family="Helvetica,sans-Serif" font-size="10.00"> otherStream</text>
</g>
<!-- Node5&#45;&gt;Node3 -->
<g id="edge4" class="edge"><title>Node5&#45;&gt;Node3</title>
<path fill="none" stroke="#9a32cd" stroke-dasharray="5,2" d="M133.273,-253.564C126.028,-249.502 118.294,-244.831 111.5,-240 98.8335,-230.994 85.6368,-218.853 77.2596,-210.743"/>
<polygon fill="#9a32cd" stroke="#9a32cd" points="131.624,-256.651 142.082,-258.347 134.965,-250.499 131.624,-256.651"/>
<text text-anchor="middle" x="128.5" y="-232" font-family="Helvetica,sans-Serif" font-size="10.00"> stream</text>
</g>
<!-- Node7 -->
<g id="node7" class="node"><title>Node7</title>
<g id="a_node7"><a xlink:href="classumontreal_1_1ssj_1_1randvar_1_1RandomVariateGen.html" target="_top" xlink:title="This is the base class for all random variate generators over the real line. ">
<polygon fill="none" stroke="black" points="187.5,-191.5 187.5,-210.5 289.5,-210.5 289.5,-191.5 187.5,-191.5"/>
<text text-anchor="middle" x="238.5" y="-198.5" font-family="Helvetica,sans-Serif" font-size="10.00">RandomVariateGen</text>
</a>
</g>
</g>
<!-- Node5&#45;&gt;Node7 -->
<g id="edge8" class="edge"><title>Node5&#45;&gt;Node7</title>
<path fill="none" stroke="#9a32cd" stroke-dasharray="5,2" d="M178.079,-251.713C193.644,-238.907 215.3,-221.088 228.015,-210.627"/>
<polygon fill="#9a32cd" stroke="#9a32cd" points="175.653,-249.177 170.154,-258.234 180.1,-254.583 175.653,-249.177"/>
<text text-anchor="middle" x="221.5" y="-232" font-family="Helvetica,sans-Serif" font-size="10.00"> stream</text>
</g>
<!-- Node6 -->
<g id="node6" class="node"><title>Node6</title>
<g id="a_node6"><a xlink:href="classumontreal_1_1ssj_1_1randvar_1_1NormalGen.html" target="_top" xlink:title="This class implements methods for generating random variates from the normal distribution ...">
<polygon fill="none" stroke="black" points="194.5,-124.5 194.5,-143.5 260.5,-143.5 260.5,-124.5 194.5,-124.5"/>
<text text-anchor="middle" x="227.5" y="-131.5" font-family="Helvetica,sans-Serif" font-size="10.00">NormalGen</text>
</a>
</g>
</g>
<!-- Node6&#45;&gt;Node2 -->
<g id="edge5" class="edge"><title>Node6&#45;&gt;Node2</title>
<path fill="none" stroke="#9a32cd" stroke-dasharray="5,2" d="M210.758,-116.997C197.423,-104.25 179.267,-86.8947 168.525,-76.6273"/>
<polygon fill="#9a32cd" stroke="#9a32cd" points="208.682,-119.854 218.329,-124.234 213.519,-114.794 208.682,-119.854"/>
<text text-anchor="middle" x="224" y="-98" font-family="Helvetica,sans-Serif" font-size="10.00"> normalGen</text>
</g>
<!-- Node7&#45;&gt;Node6 -->
<g id="edge6" class="edge"><title>Node7&#45;&gt;Node6</title>
<path fill="none" stroke="midnightblue" d="M235.291,-181.037C233.198,-168.67 230.566,-153.12 228.96,-143.627"/>
<polygon fill="midnightblue" stroke="midnightblue" points="231.897,-181.958 237.016,-191.234 238.799,-180.79 231.897,-181.958"/>
</g>
<!-- Node8 -->
<g id="node8" class="node"><title>Node8</title>
<g id="a_node8"><a xlink:href="interfaceumontreal_1_1ssj_1_1probdist_1_1Distribution.html" target="_top" xlink:title="This interface should be implemented by all classes supporting discrete and continuous distributions...">
<polygon fill="none" stroke="black" points="220.5,-258.5 220.5,-277.5 286.5,-277.5 286.5,-258.5 220.5,-258.5"/>
<text text-anchor="middle" x="253.5" y="-265.5" font-family="Helvetica,sans-Serif" font-size="10.00">Distribution</text>
</a>
</g>
</g>
<!-- Node8&#45;&gt;Node7 -->
<g id="edge7" class="edge"><title>Node8&#45;&gt;Node7</title>
<path fill="none" stroke="#9a32cd" stroke-dasharray="5,2" d="M249.211,-248.415C246.343,-235.988 242.704,-220.217 240.491,-210.627"/>
<polygon fill="#9a32cd" stroke="#9a32cd" points="245.818,-249.277 251.477,-258.234 252.639,-247.703 245.818,-249.277"/>
<text text-anchor="middle" x="257" y="-232" font-family="Helvetica,sans-Serif" font-size="10.00"> dist</text>
</g>
</g>
</svg>
