<?xml version="1.0" encoding="UTF-8" standalone="no"?>
<!DOCTYPE svg PUBLIC "-//W3C//DTD SVG 1.1//EN"
 "http://www.w3.org/Graphics/SVG/1.1/DTD/svg11.dtd">
<!-- Generated by graphviz version 2.38.0 (20140413.2041)
 -->
<!-- Title: CallEv Pages: 1 -->
<!--zoomable 352 -->
<svg id="main" version="1.1" xmlns="http://www.w3.org/2000/svg" xmlns:xlink="http://www.w3.org/1999/xlink" xml:space="preserve" onload="init(evt)">
<style type="text/css"><![CDATA[
.edge:hover path { stroke: red; }
.edge:hover polygon { stroke: red; fill: red; }
]]></style>
<script type="text/javascript"><![CDATA[
var edges = document.getElementsByTagName('g');
if (edges && edges.length) {
  for (var i=0;i<edges.length;i++) {
    if (edges[i].id.substr(0,4)=='edge') {
      edges[i].setAttribute('class','edge');
    }
  }
}
]]></script>
        <defs>
                <circle id="rim" cx="0" cy="0" r="7"/>
                <circle id="rim2" cx="0" cy="0" r="3.5"/>
                <g id="zoomPlus">
                        <use xlink:href="#rim" fill="#404040">
                                <set attributeName="fill" to="#808080" begin="zoomplus.mouseover" end="zoomplus.mouseout"/>
                        </use>
                        <path d="M-4,0h8M0,-4v8" fill="none" stroke="white" stroke-width="1.5" pointer-events="none"/>
                </g>
                <g id="zoomMin">
                        <use xlink:href="#rim" fill="#404040">
                                <set attributeName="fill" to="#808080" begin="zoomminus.mouseover" end="zoomminus.mouseout"/>
                        </use>
                        <path d="M-4,0h8" fill="none" stroke="white" stroke-width="1.5" pointer-events="none"/>
                </g>
                <g id="dirArrow">
                        <path fill="none" stroke="white" stroke-width="1.5" d="M0,-3.0v7 M-2.5,-0.5L0,-3.0L2.5,-0.5"/>
                </g>
               <g id="resetDef">
                       <use xlink:href="#rim2" fill="#404040">
                               <set attributeName="fill" to="#808080" begin="reset.mouseover" end="reset.mouseout"/>
                       </use>
               </g>
        </defs>

<script type="text/javascript">
var viewWidth = 696;
var viewHeight = 352;
var sectionId = 'dynsection-0';
</script>
<script xlink:href="svgpan.js"/>
<svg id="graph" class="graph">
<g id="viewport">
<title>CallEv</title>
<!-- Node1 -->
<g id="node1" class="node"><title>Node1</title>
<polygon fill="#bfbfbf" stroke="black" points="355,-0.5 355,-19.5 401,-19.5 401,-0.5 355,-0.5"/>
<text text-anchor="middle" x="378" y="-7.5" font-family="Helvetica,sans-Serif" font-size="10.00">CallEv</text>
</g>
<!-- Node2 -->
<g id="node2" class="node"><title>Node2</title>
<g id="a_node2"><a xlink:href="classumontreal_1_1ssj_1_1stat_1_1Tally.html" target="_top" xlink:title="A subclass of StatProbe. ">
<polygon fill="none" stroke="black" points="118,-111.5 118,-130.5 156,-130.5 156,-111.5 118,-111.5"/>
<text text-anchor="middle" x="137" y="-118.5" font-family="Helvetica,sans-Serif" font-size="10.00">Tally</text>
</a>
</g>
</g>
<!-- Node2&#45;&gt;Node1 -->
<g id="edge1" class="edge"><title>Node2&#45;&gt;Node1</title>
<path fill="none" stroke="#9a32cd" stroke-dasharray="5,2" d="M151.913,-104.18C170.631,-85.3363 204.596,-54.3565 240,-38 277.897,-20.4917 326.739,-14.3265 354.995,-12.1626"/>
<polygon fill="#9a32cd" stroke="#9a32cd" points="149.323,-101.824 144.865,-111.435 154.344,-106.701 149.323,-101.824"/>
<text text-anchor="middle" x="272" y="-85" font-family="Helvetica,sans-Serif" font-size="10.00"> statWaitsDay</text>
<text text-anchor="middle" x="272" y="-74" font-family="Helvetica,sans-Serif" font-size="10.00">statWaits</text>
<text text-anchor="middle" x="272" y="-63" font-family="Helvetica,sans-Serif" font-size="10.00">statArrivals</text>
<text text-anchor="middle" x="272" y="-52" font-family="Helvetica,sans-Serif" font-size="10.00">statAbandon</text>
<text text-anchor="middle" x="272" y="-41" font-family="Helvetica,sans-Serif" font-size="10.00">statGoodQoS</text>
</g>
<!-- Node3 -->
<g id="node3" class="node"><title>Node3</title>
<g id="a_node3"><a xlink:href="classumontreal_1_1ssj_1_1stat_1_1StatProbe.html" target="_top" xlink:title="The objects of this class are statistical probes or collectors, which are elementary devices for coll...">
<polygon fill="none" stroke="black" points="0,-200.5 0,-219.5 60,-219.5 60,-200.5 0,-200.5"/>
<text text-anchor="middle" x="30" y="-207.5" font-family="Helvetica,sans-Serif" font-size="10.00">StatProbe</text>
</a>
</g>
</g>
<!-- Node3&#45;&gt;Node2 -->
<g id="edge2" class="edge"><title>Node3&#45;&gt;Node2</title>
<path fill="none" stroke="midnightblue" d="M48.4838,-193.971C70.989,-175.673 108.236,-145.387 126.392,-130.625"/>
<polygon fill="midnightblue" stroke="midnightblue" points="46.2017,-191.316 40.6508,-200.34 50.6177,-196.747 46.2017,-191.316"/>
</g>
<!-- Node4 -->
<g id="node4" class="node"><title>Node4</title>
<polygon fill="none" stroke="#bfbfbf" points="78,-200.5 78,-219.5 138,-219.5 138,-200.5 78,-200.5"/>
<text text-anchor="middle" x="108" y="-207.5" font-family="Helvetica,sans-Serif" font-size="10.00">Cloneable</text>
</g>
<!-- Node4&#45;&gt;Node2 -->
<g id="edge3" class="edge"><title>Node4&#45;&gt;Node2</title>
<path fill="none" stroke="midnightblue" d="M114.095,-190.715C120.248,-172.255 129.486,-144.542 134.125,-130.625"/>
<polygon fill="midnightblue" stroke="midnightblue" points="110.729,-189.746 110.887,-200.34 117.369,-191.96 110.729,-189.746"/>
</g>
<!-- Node5 -->
<g id="node5" class="node"><title>Node5</title>
<polygon fill="none" stroke="#bfbfbf" points="156.5,-200.5 156.5,-219.5 229.5,-219.5 229.5,-200.5 156.5,-200.5"/>
<text text-anchor="middle" x="193" y="-207.5" font-family="Helvetica,sans-Serif" font-size="10.00">Tally.CIType</text>
</g>
<!-- Node5&#45;&gt;Node2 -->
<g id="edge4" class="edge"><title>Node5&#45;&gt;Node2</title>
<path fill="none" stroke="#9a32cd" stroke-dasharray="5,2" d="M181.89,-191.74C170.018,-173.295 151.677,-144.802 142.552,-130.625"/>
<polygon fill="#9a32cd" stroke="#9a32cd" points="179.07,-193.826 187.426,-200.34 184.956,-190.037 179.07,-193.826"/>
<text text-anchor="middle" x="216.5" y="-163" font-family="Helvetica,sans-Serif" font-size="10.00"> confidenceInterval</text>
</g>
<!-- Node6 -->
<g id="node6" class="node"><title>Node6</title>
<g id="a_node6"><a xlink:href="classumontreal_1_1ssj_1_1randvar_1_1GammaGen.html" target="_top" xlink:title="This class implements random variate generators for the gamma distribution. ">
<polygon fill="none" stroke="black" points="273.5,-111.5 273.5,-130.5 342.5,-130.5 342.5,-111.5 273.5,-111.5"/>
<text text-anchor="middle" x="308" y="-118.5" font-family="Helvetica,sans-Serif" font-size="10.00">GammaGen</text>
</a>
</g>
</g>
<!-- Node6&#45;&gt;Node1 -->
<g id="edge5" class="edge"><title>Node6&#45;&gt;Node1</title>
<path fill="none" stroke="#9a32cd" stroke-dasharray="5,2" d="M307.142,-101.257C307.279,-83.2897 310.11,-56.274 324,-38 331.611,-27.9864 343.952,-21.4279 354.916,-17.2856"/>
<polygon fill="#9a32cd" stroke="#9a32cd" points="303.644,-101.416 307.34,-111.345 310.643,-101.278 303.644,-101.416"/>
<text text-anchor="middle" x="344" y="-63" font-family="Helvetica,sans-Serif" font-size="10.00"> genServ</text>
</g>
<!-- Node7 -->
<g id="node7" class="node"><title>Node7</title>
<g id="a_node7"><a xlink:href="classumontreal_1_1ssj_1_1randvar_1_1RandomVariateGen.html" target="_top" xlink:title="This is the base class for all random variate generators over the real line. ">
<polygon fill="none" stroke="black" points="248,-200.5 248,-219.5 350,-219.5 350,-200.5 248,-200.5"/>
<text text-anchor="middle" x="299" y="-207.5" font-family="Helvetica,sans-Serif" font-size="10.00">RandomVariateGen</text>
</a>
</g>
</g>
<!-- Node7&#45;&gt;Node6 -->
<g id="edge6" class="edge"><title>Node7&#45;&gt;Node6</title>
<path fill="none" stroke="midnightblue" d="M300.945,-190.195C302.855,-171.738 305.682,-144.412 307.108,-130.625"/>
<polygon fill="midnightblue" stroke="midnightblue" points="297.444,-190.033 299.896,-200.34 304.406,-190.753 297.444,-190.033"/>
</g>
<!-- Node8 -->
<g id="node8" class="node"><title>Node8</title>
<g id="a_node8"><a xlink:href="interfaceumontreal_1_1ssj_1_1probdist_1_1Distribution.html" target="_top" xlink:title="This interface should be implemented by all classes supporting discrete and continuous distributions...">
<polygon fill="none" stroke="black" points="251,-267.5 251,-286.5 317,-286.5 317,-267.5 251,-267.5"/>
<text text-anchor="middle" x="284" y="-274.5" font-family="Helvetica,sans-Serif" font-size="10.00">Distribution</text>
</a>
</g>
</g>
<!-- Node8&#45;&gt;Node7 -->
<g id="edge7" class="edge"><title>Node8&#45;&gt;Node7</title>
<path fill="none" stroke="#9a32cd" stroke-dasharray="5,2" d="M284.217,-257.288C284.621,-251.077 285.433,-244.174 287,-238 288.615,-231.636 291.615,-224.886 294.211,-219.727"/>
<polygon fill="#9a32cd" stroke="#9a32cd" points="280.714,-257.296 283.855,-267.414 287.71,-257.545 280.714,-257.296"/>
<text text-anchor="middle" x="296.5" y="-241" font-family="Helvetica,sans-Serif" font-size="10.00"> dist</text>
</g>
<!-- Node9 -->
<g id="node9" class="node"><title>Node9</title>
<g id="a_node9"><a xlink:href="interfaceumontreal_1_1ssj_1_1rng_1_1RandomStream.html" target="_top" xlink:title="This interface defines the basic structures to handle multiple streams of uniform (pseudo)random numb...">
<polygon fill="none" stroke="black" points="335.5,-267.5 335.5,-286.5 420.5,-286.5 420.5,-267.5 335.5,-267.5"/>
<text text-anchor="middle" x="378" y="-274.5" font-family="Helvetica,sans-Serif" font-size="10.00">RandomStream</text>
</a>
</g>
</g>
<!-- Node9&#45;&gt;Node1 -->
<g id="edge17" class="edge"><title>Node9&#45;&gt;Node1</title>
<path fill="none" stroke="#9a32cd" stroke-dasharray="5,2" d="M378,-257.264C378,-204.636 378,-56.8826 378,-19.6184"/>
<polygon fill="#9a32cd" stroke="#9a32cd" points="374.5,-257.483 378,-267.483 381.5,-257.483 374.5,-257.483"/>
<text text-anchor="middle" x="412.5" y="-174" font-family="Helvetica,sans-Serif" font-size="10.00"> streamArr</text>
<text text-anchor="middle" x="412.5" y="-163" font-family="Helvetica,sans-Serif" font-size="10.00">streamPatience</text>
<text text-anchor="middle" x="412.5" y="-152" font-family="Helvetica,sans-Serif" font-size="10.00">streamW</text>
</g>
<!-- Node9&#45;&gt;Node7 -->
<g id="edge8" class="edge"><title>Node9&#45;&gt;Node7</title>
<path fill="none" stroke="#9a32cd" stroke-dasharray="5,2" d="M350.059,-262.603C343.167,-258.688 336.036,-254.078 330,-249 319.706,-240.34 310.31,-227.894 304.625,-219.635"/>
<polygon fill="#9a32cd" stroke="#9a32cd" points="348.718,-265.855 359.186,-267.49 352.023,-259.684 348.718,-265.855"/>
<text text-anchor="middle" x="347" y="-241" font-family="Helvetica,sans-Serif" font-size="10.00"> stream</text>
</g>
<!-- Node10 -->
<g id="node10" class="node"><title>Node10</title>
<g id="a_node10"><a xlink:href="classumontreal_1_1ssj_1_1simevents_1_1Event.html" target="_top" xlink:title="This abstract class provides event scheduling tools. ">
<polygon fill="none" stroke="black" points="424,-111.5 424,-130.5 466,-130.5 466,-111.5 424,-111.5"/>
<text text-anchor="middle" x="445" y="-118.5" font-family="Helvetica,sans-Serif" font-size="10.00">Event</text>
</a>
</g>
</g>
<!-- Node10&#45;&gt;Node1 -->
<g id="edge9" class="edge"><title>Node10&#45;&gt;Node1</title>
<path fill="none" stroke="#9a32cd" stroke-dasharray="5,2" d="M434.426,-102.797C419.871,-79.1186 394.219,-37.3865 383.233,-19.5133"/>
<polygon fill="#9a32cd" stroke="#9a32cd" points="431.524,-104.761 439.743,-111.447 437.488,-101.095 431.524,-104.761"/>
<text text-anchor="middle" x="453" y="-63" font-family="Helvetica,sans-Serif" font-size="10.00"> nextArrival</text>
</g>
<!-- Node11 -->
<g id="node11" class="node"><title>Node11</title>
<polygon fill="none" stroke="#bfbfbf" points="406.5,-200.5 406.5,-219.5 519.5,-219.5 519.5,-200.5 406.5,-200.5"/>
<text text-anchor="middle" x="463" y="-207.5" font-family="Helvetica,sans-Serif" font-size="10.00">Comparable&lt; Event &gt;</text>
</g>
<!-- Node11&#45;&gt;Node10 -->
<g id="edge10" class="edge"><title>Node11&#45;&gt;Node10</title>
<path fill="none" stroke="midnightblue" d="M459.163,-190.455C455.344,-171.996 449.65,-144.477 446.784,-130.625"/>
<polygon fill="midnightblue" stroke="midnightblue" points="455.755,-191.257 461.208,-200.34 462.61,-189.838 455.755,-191.257"/>
</g>
<!-- Node12 -->
<g id="node12" class="node"><title>Node12</title>
<g id="a_node12"><a xlink:href="classumontreal_1_1ssj_1_1simevents_1_1Simulator.html" target="_top" xlink:title="Represents the executive of a discrete&#45;event simulator. ">
<polygon fill="none" stroke="black" points="538,-200.5 538,-219.5 596,-219.5 596,-200.5 538,-200.5"/>
<text text-anchor="middle" x="567" y="-207.5" font-family="Helvetica,sans-Serif" font-size="10.00">Simulator</text>
</a>
</g>
</g>
<!-- Node12&#45;&gt;Node10 -->
<g id="edge11" class="edge"><title>Node12&#45;&gt;Node10</title>
<path fill="none" stroke="#9a32cd" stroke-dasharray="5,2" d="M546.599,-194.452C521.015,-176.207 477.979,-145.518 457.095,-130.625"/>
<polygon fill="#9a32cd" stroke="#9a32cd" points="544.682,-197.384 554.856,-200.34 548.746,-191.684 544.682,-197.384"/>
<text text-anchor="middle" x="537.5" y="-163" font-family="Helvetica,sans-Serif" font-size="10.00"> sim</text>
</g>
<!-- Node12&#45;&gt;Node12 -->
<g id="edge12" class="edge"><title>Node12&#45;&gt;Node12</title>
<path fill="none" stroke="#9a32cd" stroke-dasharray="5,2" d="M606.603,-215.084C611.091,-214.132 614,-212.438 614,-210 614,-206 606.167,-204 596.375,-204"/>
<polygon fill="#9a32cd" stroke="#9a32cd" points="606.023,-211.622 596.375,-216 606.647,-218.594 606.023,-211.622"/>
<text text-anchor="middle" x="651" y="-207.5" font-family="Helvetica,sans-Serif" font-size="10.00"> defaultSimulator</text>
</g>
<!-- Node13 -->
<g id="node13" class="node"><title>Node13</title>
<g id="a_node13"><a xlink:href="interfaceumontreal_1_1ssj_1_1simevents_1_1eventlist_1_1EventList.html" target="_top" xlink:title="An interface for implementations of event lists. ">
<polygon fill="none" stroke="black" points="492,-267.5 492,-286.5 550,-286.5 550,-267.5 492,-267.5"/>
<text text-anchor="middle" x="521" y="-274.5" font-family="Helvetica,sans-Serif" font-size="10.00">EventList</text>
</a>
</g>
</g>
<!-- Node13&#45;&gt;Node12 -->
<g id="edge13" class="edge"><title>Node13&#45;&gt;Node12</title>
<path fill="none" stroke="#9a32cd" stroke-dasharray="5,2" d="M533.099,-258.904C542.038,-246.273 553.834,-229.604 560.895,-219.627"/>
<polygon fill="#9a32cd" stroke="#9a32cd" points="530.124,-257.049 527.204,-267.234 535.837,-261.093 530.124,-257.049"/>
<text text-anchor="middle" x="568.5" y="-241" font-family="Helvetica,sans-Serif" font-size="10.00"> eventList</text>
</g>
<!-- Node14 -->
<g id="node14" class="node"><title>Node14</title>
<polygon fill="none" stroke="#bfbfbf" points="475,-324.5 475,-343.5 567,-343.5 567,-324.5 475,-324.5"/>
<text text-anchor="middle" x="521" y="-331.5" font-family="Helvetica,sans-Serif" font-size="10.00">Iterable&lt; Event &gt;</text>
</g>
<!-- Node14&#45;&gt;Node13 -->
<g id="edge14" class="edge"><title>Node14&#45;&gt;Node13</title>
<path fill="none" stroke="midnightblue" d="M521,-314.117C521,-304.817 521,-294.056 521,-286.715"/>
<polygon fill="midnightblue" stroke="midnightblue" points="517.5,-314.406 521,-324.406 524.5,-314.406 517.5,-314.406"/>
</g>
<!-- Node15 -->
<g id="node15" class="node"><title>Node15</title>
<g id="a_node15"><a xlink:href="classumontreal_1_1ssj_1_1simevents_1_1ContinuousState.html" target="_top" xlink:title="Represents the portion of the simulator’s state associated with continuous&#45;time simulation. ">
<polygon fill="none" stroke="black" points="568.5,-267.5 568.5,-286.5 657.5,-286.5 657.5,-267.5 568.5,-267.5"/>
<text text-anchor="middle" x="613" y="-274.5" font-family="Helvetica,sans-Serif" font-size="10.00">ContinuousState</text>
</a>
</g>
</g>
<!-- Node15&#45;&gt;Node12 -->
<g id="edge15" class="edge"><title>Node15&#45;&gt;Node12</title>
<path fill="none" stroke="#9a32cd" stroke-dasharray="5,2" d="M603.796,-258.414C600.099,-251.826 595.62,-244.393 591,-238 586.298,-231.493 580.298,-224.743 575.474,-219.62"/>
<polygon fill="#9a32cd" stroke="#9a32cd" points="600.738,-260.117 608.58,-267.241 606.893,-256.782 600.738,-260.117"/>
<text text-anchor="middle" x="635" y="-241" font-family="Helvetica,sans-Serif" font-size="10.00"> continuousState</text>
</g>
<!-- Node16 -->
<g id="node16" class="node"><title>Node16</title>
<g id="a_node16"><a xlink:href="classumontreal_1_1ssj_1_1simevents_1_1LinkedListStat.html" target="_top" xlink:title="LinkedListStat\&lt; CallEv.Call \&gt;">
<polygon fill="none" stroke="black" points="484,-111.5 484,-130.5 630,-130.5 630,-111.5 484,-111.5"/>
<text text-anchor="middle" x="557" y="-118.5" font-family="Helvetica,sans-Serif" font-size="10.00">LinkedListStat&lt; CallEv.Call &gt;</text>
</a>
</g>
</g>
<!-- Node16&#45;&gt;Node1 -->
<g id="edge16" class="edge"><title>Node16&#45;&gt;Node1</title>
<path fill="none" stroke="#9a32cd" stroke-dasharray="5,2" d="M545.872,-102.834C532.815,-84.0804 509.43,-54.5162 482,-38 456.91,-22.8928 423.479,-16.1604 401.374,-13.2127"/>
<polygon fill="#9a32cd" stroke="#9a32cd" points="543.085,-104.961 551.576,-111.298 548.89,-101.049 543.085,-104.961"/>
<text text-anchor="middle" x="557.5" y="-63" font-family="Helvetica,sans-Serif" font-size="10.00"> waitList</text>
</g>
</g>
</svg>
        <g id="navigator" transform="translate(0 0)" fill="#404254">
                <rect fill="#f2f5e9" fill-opacity="0.5" stroke="#606060" stroke-width=".5" x="0" y="0" width="60" height="60"/>
                <use id="zoomplus" xlink:href="#zoomPlus" x="17" y="9" onmousedown="handleZoom(evt,'in')"/>
                <use id="zoomminus" xlink:href="#zoomMin" x="42" y="9" onmousedown="handleZoom(evt,'out')"/>
                <use id="reset" xlink:href="#resetDef" x="30" y="36" onmousedown="handleReset()"/>
                <g id="arrowUp" xlink:href="#dirArrow" transform="translate(30 24)" onmousedown="handlePan(0,-1)">
                  <use xlink:href="#rim" fill="#404040">
                        <set attributeName="fill" to="#808080" begin="arrowUp.mouseover" end="arrowUp.mouseout"/>
                  </use>
                  <path fill="none" stroke="white" stroke-width="1.5" d="M0,-3.0v7 M-2.5,-0.5L0,-3.0L2.5,-0.5"/>
                </g>
                <g id="arrowRight" xlink:href="#dirArrow" transform="rotate(90) translate(36 -43)" onmousedown="handlePan(1,0)">
                  <use xlink:href="#rim" fill="#404040">
                        <set attributeName="fill" to="#808080" begin="arrowRight.mouseover" end="arrowRight.mouseout"/>
                  </use>
                  <path fill="none" stroke="white" stroke-width="1.5" d="M0,-3.0v7 M-2.5,-0.5L0,-3.0L2.5,-0.5"/>
                </g>
                <g id="arrowDown" xlink:href="#dirArrow" transform="rotate(180) translate(-30 -48)" onmousedown="handlePan(0,1)">
                  <use xlink:href="#rim" fill="#404040">
                        <set attributeName="fill" to="#808080" begin="arrowDown.mouseover" end="arrowDown.mouseout"/>
                  </use>
                  <path fill="none" stroke="white" stroke-width="1.5" d="M0,-3.0v7 M-2.5,-0.5L0,-3.0L2.5,-0.5"/>
                </g>
                <g id="arrowLeft" xlink:href="#dirArrow" transform="rotate(270) translate(-36 17)" onmousedown="handlePan(-1,0)">
                  <use xlink:href="#rim" fill="#404040">
                        <set attributeName="fill" to="#808080" begin="arrowLeft.mouseover" end="arrowLeft.mouseout"/>
                  </use>
                  <path fill="none" stroke="white" stroke-width="1.5" d="M0,-3.0v7 M-2.5,-0.5L0,-3.0L2.5,-0.5"/>
                </g>
        </g>
        <svg viewBox="0 0 15 15" width="100%" height="30px" preserveAspectRatio="xMaxYMin meet">
         <g id="arrow_out" transform="scale(0.3 0.3)">
          <a xlink:href="classCallEv__coll__graph_org.svg" target="_base">
           <rect id="button" ry="5" rx="5" y="6" x="6" height="38" width="38"
                fill="#f2f5e9" fill-opacity="0.5" stroke="#606060" stroke-width="1.0"/>
           <path id="arrow"
             d="M 11.500037,31.436501 C 11.940474,20.09759 22.043105,11.32322 32.158766,21.979434 L 37.068811,17.246167 C 37.068811,17.246167 37.088388,32 37.088388,32 L 22.160133,31.978069 C 22.160133,31.978069 26.997745,27.140456 26.997745,27.140456 C 18.528582,18.264221 13.291696,25.230495 11.500037,31.436501 z"
             style="fill:#404040;"/>
          </a>
         </g>
        </svg>
</svg>
