<?xml version="1.0" encoding="UTF-8" standalone="no"?>
<!DOCTYPE svg PUBLIC "-//W3C//DTD SVG 1.1//EN"
 "http://www.w3.org/Graphics/SVG/1.1/DTD/svg11.dtd">
<!-- Generated by graphviz version 2.38.0 (20140413.2041)
 -->
<!-- Title: GammaProcessPCASymmetricalBridge Pages: 1 -->
<svg width="348pt" height="487pt"
 viewBox="0.00 0.00 347.50 487.00" xmlns="http://www.w3.org/2000/svg" xmlns:xlink="http://www.w3.org/1999/xlink">
<g id="graph0" class="graph" transform="scale(1 1) rotate(0) translate(4 483)">
<title>GammaProcessPCASymmetricalBridge</title>
<!-- Node5 -->
<g id="node1" class="node"><title>Node5</title>
<polygon fill="#bfbfbf" stroke="black" points="26.5,-0.5 26.5,-30.5 188.5,-30.5 188.5,-0.5 26.5,-0.5"/>
<text text-anchor="start" x="34.5" y="-18.5" font-family="Helvetica,sans-Serif" font-size="10.00">GammaProcessPCASymmetrical</text>
<text text-anchor="middle" x="107.5" y="-7.5" font-family="Helvetica,sans-Serif" font-size="10.00">Bridge</text>
</g>
<!-- Node6 -->
<g id="node2" class="node"><title>Node6</title>
<g id="a_node2"><a xlink:href="classumontreal_1_1ssj_1_1stochprocess_1_1GammaProcessPCABridge.html" target="_top" xlink:title="Same as GammaProcessPCA, but the generated uniforms correspond to a bridge transformation of the Brow...">
<polygon fill="none" stroke="black" points="40,-68.5 40,-87.5 175,-87.5 175,-68.5 40,-68.5"/>
<text text-anchor="middle" x="107.5" y="-75.5" font-family="Helvetica,sans-Serif" font-size="10.00">GammaProcessPCABridge</text>
</a>
</g>
</g>
<!-- Node6&#45;&gt;Node5 -->
<g id="edge1" class="edge"><title>Node6&#45;&gt;Node5</title>
<path fill="none" stroke="midnightblue" d="M107.5,-58.2154C107.5,-49.3565 107.5,-38.9577 107.5,-30.7587"/>
<polygon fill="midnightblue" stroke="midnightblue" points="104,-58.3318 107.5,-68.3318 111,-58.3319 104,-58.3318"/>
</g>
<!-- Node7 -->
<g id="node3" class="node"><title>Node7</title>
<g id="a_node3"><a xlink:href="classumontreal_1_1ssj_1_1stochprocess_1_1GammaProcessPCA.html" target="_top" xlink:title="Represents a gamma process sampled using the principal component analysis (PCA). ">
<polygon fill="none" stroke="black" points="137,-125.5 137,-144.5 244,-144.5 244,-125.5 137,-125.5"/>
<text text-anchor="middle" x="190.5" y="-132.5" font-family="Helvetica,sans-Serif" font-size="10.00">GammaProcessPCA</text>
</a>
</g>
</g>
<!-- Node7&#45;&gt;Node6 -->
<g id="edge2" class="edge"><title>Node7&#45;&gt;Node6</title>
<path fill="none" stroke="midnightblue" d="M169.108,-119.824C153.686,-109.605 133.378,-96.1483 120.378,-87.5334"/>
<polygon fill="midnightblue" stroke="midnightblue" points="167.262,-122.8 177.531,-125.406 171.129,-116.965 167.262,-122.8"/>
</g>
<!-- Node8 -->
<g id="node4" class="node"><title>Node8</title>
<g id="a_node4"><a xlink:href="classumontreal_1_1ssj_1_1stochprocess_1_1GammaProcess.html" target="_top" xlink:title="This class represents a gamma process   (page 82) &#160;with mean parameter &#160;and variance parameter ...">
<polygon fill="none" stroke="black" points="191,-258.5 191,-277.5 278,-277.5 278,-258.5 191,-258.5"/>
<text text-anchor="middle" x="234.5" y="-265.5" font-family="Helvetica,sans-Serif" font-size="10.00">GammaProcess</text>
</a>
</g>
</g>
<!-- Node8&#45;&gt;Node7 -->
<g id="edge3" class="edge"><title>Node8&#45;&gt;Node7</title>
<path fill="none" stroke="midnightblue" d="M235.44,-248.143C235.726,-226.386 233.697,-190.127 219.5,-163 215.672,-155.686 209.061,-149.297 203.117,-144.572"/>
<polygon fill="midnightblue" stroke="midnightblue" points="231.936,-248.226 235.118,-258.332 238.932,-248.447 231.936,-248.226"/>
</g>
<!-- Node9 -->
<g id="node5" class="node"><title>Node9</title>
<g id="a_node5"><a xlink:href="classumontreal_1_1ssj_1_1stochprocess_1_1StochasticProcess.html" target="_top" xlink:title="Abstract base class for a stochastic process &#160;sampled (or observed) at a finite number of time points...">
<polygon fill="none" stroke="black" points="83,-325.5 83,-344.5 182,-344.5 182,-325.5 83,-325.5"/>
<text text-anchor="middle" x="132.5" y="-332.5" font-family="Helvetica,sans-Serif" font-size="10.00">StochasticProcess</text>
</a>
</g>
</g>
<!-- Node9&#45;&gt;Node8 -->
<g id="edge4" class="edge"><title>Node9&#45;&gt;Node8</title>
<path fill="none" stroke="midnightblue" d="M154.832,-319.769C175.022,-306.903 204.09,-288.379 220.962,-277.627"/>
<polygon fill="midnightblue" stroke="midnightblue" points="152.808,-316.908 146.256,-325.234 156.57,-322.811 152.808,-316.908"/>
</g>
<!-- Node15 -->
<g id="node11" class="node"><title>Node15</title>
<g id="a_node11"><a xlink:href="classumontreal_1_1ssj_1_1stochprocess_1_1BrownianMotion.html" target="_top" xlink:title="This class represents a Brownian motion process , sampled at times . ">
<polygon fill="none" stroke="black" points="46.5,-258.5 46.5,-277.5 132.5,-277.5 132.5,-258.5 46.5,-258.5"/>
<text text-anchor="middle" x="89.5" y="-265.5" font-family="Helvetica,sans-Serif" font-size="10.00">BrownianMotion</text>
</a>
</g>
</g>
<!-- Node9&#45;&gt;Node15 -->
<g id="edge12" class="edge"><title>Node9&#45;&gt;Node15</title>
<path fill="none" stroke="midnightblue" d="M120.946,-316.535C112.621,-303.95 101.743,-287.507 95.2073,-277.627"/>
<polygon fill="midnightblue" stroke="midnightblue" points="118.264,-318.825 126.701,-325.234 124.103,-314.963 118.264,-318.825"/>
</g>
<!-- Node10 -->
<g id="node6" class="node"><title>Node10</title>
<g id="a_node6"><a xlink:href="classumontreal_1_1ssj_1_1randvar_1_1GammaGen.html" target="_top" xlink:title="This class implements random variate generators for the gamma distribution. ">
<polygon fill="none" stroke="black" points="200,-325.5 200,-344.5 269,-344.5 269,-325.5 200,-325.5"/>
<text text-anchor="middle" x="234.5" y="-332.5" font-family="Helvetica,sans-Serif" font-size="10.00">GammaGen</text>
</a>
</g>
</g>
<!-- Node10&#45;&gt;Node8 -->
<g id="edge5" class="edge"><title>Node10&#45;&gt;Node8</title>
<path fill="none" stroke="#9a32cd" stroke-dasharray="5,2" d="M234.5,-315.037C234.5,-302.67 234.5,-287.12 234.5,-277.627"/>
<polygon fill="#9a32cd" stroke="#9a32cd" points="231,-315.234 234.5,-325.234 238,-315.234 231,-315.234"/>
<text text-anchor="middle" x="248" y="-299" font-family="Helvetica,sans-Serif" font-size="10.00"> Ggen</text>
</g>
<!-- Node11 -->
<g id="node7" class="node"><title>Node11</title>
<g id="a_node7"><a xlink:href="classumontreal_1_1ssj_1_1randvar_1_1RandomVariateGen.html" target="_top" xlink:title="This is the base class for all random variate generators over the real line. ">
<polygon fill="none" stroke="black" points="161,-392.5 161,-411.5 262,-411.5 262,-392.5 161,-392.5"/>
<text text-anchor="middle" x="211.5" y="-399.5" font-family="Helvetica,sans-Serif" font-size="10.00">RandomVariateGen</text>
</a>
</g>
</g>
<!-- Node11&#45;&gt;Node10 -->
<g id="edge6" class="edge"><title>Node11&#45;&gt;Node10</title>
<path fill="none" stroke="midnightblue" d="M217.944,-382.79C222.36,-370.308 228.02,-354.314 231.447,-344.627"/>
<polygon fill="midnightblue" stroke="midnightblue" points="214.638,-381.639 214.602,-392.234 221.237,-383.974 214.638,-381.639"/>
</g>
<!-- Node16 -->
<g id="node12" class="node"><title>Node16</title>
<g id="a_node12"><a xlink:href="classumontreal_1_1ssj_1_1randvar_1_1NormalGen.html" target="_top" xlink:title="This class implements methods for generating random variates from the normal distribution ...">
<polygon fill="none" stroke="black" points="0,-325.5 0,-344.5 65,-344.5 65,-325.5 0,-325.5"/>
<text text-anchor="middle" x="32.5" y="-332.5" font-family="Helvetica,sans-Serif" font-size="10.00">NormalGen</text>
</a>
</g>
</g>
<!-- Node11&#45;&gt;Node16 -->
<g id="edge14" class="edge"><title>Node11&#45;&gt;Node16</title>
<path fill="none" stroke="midnightblue" d="M178.279,-388.936C142.769,-376.042 87.3683,-355.924 56.083,-344.564"/>
<polygon fill="midnightblue" stroke="midnightblue" points="177.136,-392.245 187.73,-392.369 179.525,-385.665 177.136,-392.245"/>
</g>
<!-- Node12 -->
<g id="node8" class="node"><title>Node12</title>
<g id="a_node8"><a xlink:href="interfaceumontreal_1_1ssj_1_1probdist_1_1Distribution.html" target="_top" xlink:title="This interface should be implemented by all classes supporting discrete and continuous distributions...">
<polygon fill="none" stroke="black" points="172,-459.5 172,-478.5 237,-478.5 237,-459.5 172,-459.5"/>
<text text-anchor="middle" x="204.5" y="-466.5" font-family="Helvetica,sans-Serif" font-size="10.00">Distribution</text>
</a>
</g>
</g>
<!-- Node12&#45;&gt;Node11 -->
<g id="edge7" class="edge"><title>Node12&#45;&gt;Node11</title>
<path fill="none" stroke="#9a32cd" stroke-dasharray="5,2" d="M205.003,-449.21C205.296,-443.072 205.762,-436.233 206.5,-430 207.217,-423.94 208.467,-417.19 209.538,-411.955"/>
<polygon fill="#9a32cd" stroke="#9a32cd" points="201.504,-449.097 204.637,-459.218 208.5,-449.353 201.504,-449.097"/>
<text text-anchor="middle" x="216" y="-433" font-family="Helvetica,sans-Serif" font-size="10.00"> dist</text>
</g>
<!-- Node13 -->
<g id="node9" class="node"><title>Node13</title>
<g id="a_node9"><a xlink:href="interfaceumontreal_1_1ssj_1_1rng_1_1RandomStream.html" target="_top" xlink:title="This interface defines the basic structures to handle multiple streams of uniform (pseudo)random numb...">
<polygon fill="none" stroke="black" points="255.5,-459.5 255.5,-478.5 339.5,-478.5 339.5,-459.5 255.5,-459.5"/>
<text text-anchor="middle" x="297.5" y="-466.5" font-family="Helvetica,sans-Serif" font-size="10.00">RandomStream</text>
</a>
</g>
</g>
<!-- Node13&#45;&gt;Node8 -->
<g id="edge9" class="edge"><title>Node13&#45;&gt;Node8</title>
<path fill="none" stroke="#9a32cd" stroke-dasharray="5,2" d="M296.734,-449.254C295.219,-421.592 290.835,-368.425 278.5,-325 274.641,-311.413 273.911,-307.348 265.5,-296 260.315,-289.005 253.032,-282.545 246.827,-277.699"/>
<polygon fill="#9a32cd" stroke="#9a32cd" points="293.247,-449.624 297.222,-459.445 300.239,-449.289 293.247,-449.624"/>
<text text-anchor="middle" x="305.5" y="-366" font-family="Helvetica,sans-Serif" font-size="10.00"> stream</text>
</g>
<!-- Node13&#45;&gt;Node11 -->
<g id="edge8" class="edge"><title>Node13&#45;&gt;Node11</title>
<path fill="none" stroke="#9a32cd" stroke-dasharray="5,2" d="M270.247,-454.368C263.245,-450.415 255.89,-445.846 249.5,-441 237.755,-432.092 226.033,-419.705 218.779,-411.526"/>
<polygon fill="#9a32cd" stroke="#9a32cd" points="268.992,-457.668 279.453,-459.346 272.321,-451.511 268.992,-457.668"/>
<text text-anchor="middle" x="266.5" y="-433" font-family="Helvetica,sans-Serif" font-size="10.00"> stream</text>
</g>
<!-- Node14 -->
<g id="node10" class="node"><title>Node14</title>
<g id="a_node10"><a xlink:href="classumontreal_1_1ssj_1_1stochprocess_1_1BrownianMotionPCA.html" target="_top" xlink:title="A Brownian motion process &#160;sampled using the principal component decomposition (PCA) ...">
<polygon fill="none" stroke="black" points="100.5,-201.5 100.5,-220.5 206.5,-220.5 206.5,-201.5 100.5,-201.5"/>
<text text-anchor="middle" x="153.5" y="-208.5" font-family="Helvetica,sans-Serif" font-size="10.00">BrownianMotionPCA</text>
</a>
</g>
</g>
<!-- Node14&#45;&gt;Node7 -->
<g id="edge10" class="edge"><title>Node14&#45;&gt;Node7</title>
<path fill="none" stroke="#9a32cd" stroke-dasharray="5,2" d="M162.529,-191.942C170.015,-176.971 180.333,-156.334 186.116,-144.768"/>
<polygon fill="#9a32cd" stroke="#9a32cd" points="159.231,-190.711 157.89,-201.221 165.492,-193.842 159.231,-190.711"/>
<text text-anchor="middle" x="196" y="-170.5" font-family="Helvetica,sans-Serif" font-size="10.00"> BMPCA</text>
</g>
<!-- Node15&#45;&gt;Node14 -->
<g id="edge11" class="edge"><title>Node15&#45;&gt;Node14</title>
<path fill="none" stroke="midnightblue" d="M107.294,-251.708C118.923,-241.715 133.691,-229.024 143.359,-220.715"/>
<polygon fill="midnightblue" stroke="midnightblue" points="104.803,-249.234 99.5,-258.406 109.365,-254.543 104.803,-249.234"/>
</g>
<!-- Node17 -->
<g id="node13" class="node"><title>Node17</title>
<g id="a_node13"><a xlink:href="classumontreal_1_1ssj_1_1stochprocess_1_1BrownianMotionBridge.html" target="_top" xlink:title="Represents a Brownian motion process &#160;sampled using the bridge sampling technique (see for example  ...">
<polygon fill="none" stroke="black" points="16,-163.5 16,-182.5 129,-182.5 129,-163.5 16,-163.5"/>
<text text-anchor="middle" x="72.5" y="-170.5" font-family="Helvetica,sans-Serif" font-size="10.00">BrownianMotionBridge</text>
</a>
</g>
</g>
<!-- Node15&#45;&gt;Node17 -->
<g id="edge16" class="edge"><title>Node15&#45;&gt;Node17</title>
<path fill="none" stroke="midnightblue" d="M86.0896,-248.343C82.4314,-228.331 76.7822,-197.426 74.0651,-182.562"/>
<polygon fill="midnightblue" stroke="midnightblue" points="82.69,-249.21 87.9312,-258.417 89.5759,-247.951 82.69,-249.21"/>
</g>
<!-- Node16&#45;&gt;Node15 -->
<g id="edge13" class="edge"><title>Node16&#45;&gt;Node15</title>
<path fill="none" stroke="#9a32cd" stroke-dasharray="5,2" d="M46.851,-317.635C57.9985,-304.923 73.0158,-287.798 81.9345,-277.627"/>
<polygon fill="#9a32cd" stroke="#9a32cd" points="44.149,-315.408 40.1873,-325.234 49.4121,-320.023 44.149,-315.408"/>
<text text-anchor="middle" x="74" y="-299" font-family="Helvetica,sans-Serif" font-size="10.00"> gen</text>
</g>
<!-- Node17&#45;&gt;Node6 -->
<g id="edge15" class="edge"><title>Node17&#45;&gt;Node6</title>
<path fill="none" stroke="#9a32cd" stroke-dasharray="5,2" d="M74.6259,-153.485C75.9929,-144.675 78.1583,-134.103 81.5,-125 86.5581,-111.221 95.4498,-96.6974 101.407,-87.7419"/>
<polygon fill="#9a32cd" stroke="#9a32cd" points="71.1486,-153.082 73.2927,-163.458 78.0869,-154.01 71.1486,-153.082"/>
<text text-anchor="middle" x="104.5" y="-132.5" font-family="Helvetica,sans-Serif" font-size="10.00"> BMBridge</text>
</g>
</g>
</svg>
