<?xml version="1.0" encoding="UTF-8" standalone="no"?>
<!DOCTYPE svg PUBLIC "-//W3C//DTD SVG 1.1//EN"
 "http://www.w3.org/Graphics/SVG/1.1/DTD/svg11.dtd">
<!-- Generated by graphviz version 2.38.0 (20140413.2041)
 -->
<!-- Title: MultinormalGen Pages: 1 -->
<svg width="314pt" height="240pt"
 viewBox="0.00 0.00 313.50 240.00" xmlns="http://www.w3.org/2000/svg" xmlns:xlink="http://www.w3.org/1999/xlink">
<g id="graph0" class="graph" transform="scale(1 1) rotate(0) translate(4 236)">
<title>MultinormalGen</title>
<!-- Node1 -->
<g id="node1" class="node"><title>Node1</title>
<polygon fill="#bfbfbf" stroke="black" points="176.5,-0.5 176.5,-19.5 271.5,-19.5 271.5,-0.5 176.5,-0.5"/>
<text text-anchor="middle" x="224" y="-7.5" font-family="Helvetica,sans-Serif" font-size="10.00">MultinormalGen</text>
</g>
<!-- Node2 -->
<g id="node2" class="node"><title>Node2</title>
<g id="a_node2"><a xlink:href="classumontreal_1_1ssj_1_1randvarmulti_1_1RandomMultivariateGen.html" target="_top" xlink:title="This class is the multivariate counterpart of umontreal.ssj.randvar.RandomVariateGen. ">
<polygon fill="none" stroke="black" points="57.5,-78.5 57.5,-97.5 192.5,-97.5 192.5,-78.5 57.5,-78.5"/>
<text text-anchor="middle" x="125" y="-85.5" font-family="Helvetica,sans-Serif" font-size="10.00">RandomMultivariateGen</text>
</a>
</g>
</g>
<!-- Node2&#45;&gt;Node1 -->
<g id="edge1" class="edge"><title>Node2&#45;&gt;Node1</title>
<path fill="none" stroke="midnightblue" d="M144.343,-72.1505C164.73,-56.4999 196.144,-32.3841 212.776,-19.6165"/>
<polygon fill="midnightblue" stroke="midnightblue" points="142.157,-69.4162 136.357,-78.2818 146.42,-74.9687 142.157,-69.4162"/>
</g>
<!-- Node3 -->
<g id="node3" class="node"><title>Node3</title>
<g id="a_node3"><a xlink:href="classumontreal_1_1ssj_1_1randvar_1_1RandomVariateGen.html" target="_top" xlink:title="This is the base class for all random variate generators over the real line. ">
<polygon fill="none" stroke="black" points="0,-145.5 0,-164.5 112,-164.5 112,-145.5 0,-145.5"/>
<text text-anchor="middle" x="56" y="-152.5" font-family="Helvetica,sans-Serif" font-size="10.00">RandomVariateGen</text>
</a>
</g>
</g>
<!-- Node3&#45;&gt;Node2 -->
<g id="edge2" class="edge"><title>Node3&#45;&gt;Node2</title>
<path fill="none" stroke="#9a32cd" stroke-dasharray="5,2" d="M72.6063,-138.356C86.1714,-125.578 104.84,-107.992 115.842,-97.6273"/>
<polygon fill="#9a32cd" stroke="#9a32cd" points="70.1846,-135.829 65.3056,-145.234 74.9845,-140.924 70.1846,-135.829"/>
<text text-anchor="middle" x="109" y="-119" font-family="Helvetica,sans-Serif" font-size="10.00"> gen1</text>
</g>
<!-- Node4 -->
<g id="node4" class="node"><title>Node4</title>
<g id="a_node4"><a xlink:href="interfaceumontreal_1_1ssj_1_1probdist_1_1Distribution.html" target="_top" xlink:title="This interface should be implemented by all classes supporting discrete and continuous distributions...">
<polygon fill="none" stroke="black" points="10,-212.5 10,-231.5 84,-231.5 84,-212.5 10,-212.5"/>
<text text-anchor="middle" x="47" y="-219.5" font-family="Helvetica,sans-Serif" font-size="10.00">Distribution</text>
</a>
</g>
</g>
<!-- Node4&#45;&gt;Node3 -->
<g id="edge3" class="edge"><title>Node4&#45;&gt;Node3</title>
<path fill="none" stroke="#9a32cd" stroke-dasharray="5,2" d="M47.9618,-202.193C48.4151,-196.053 49.0684,-189.217 50,-183 50.9108,-176.921 52.4108,-170.171 53.6831,-164.941"/>
<polygon fill="#9a32cd" stroke="#9a32cd" points="44.4665,-202.01 47.3451,-212.207 51.4533,-202.441 44.4665,-202.01"/>
<text text-anchor="middle" x="61" y="-186" font-family="Helvetica,sans-Serif" font-size="10.00"> dist</text>
</g>
<!-- Node5 -->
<g id="node5" class="node"><title>Node5</title>
<g id="a_node5"><a xlink:href="interfaceumontreal_1_1ssj_1_1rng_1_1RandomStream.html" target="_top" xlink:title="This interface defines the basic structures to handle multiple streams of uniform (pseudo)random numb...">
<polygon fill="none" stroke="black" points="102,-212.5 102,-231.5 194,-231.5 194,-212.5 102,-212.5"/>
<text text-anchor="middle" x="148" y="-219.5" font-family="Helvetica,sans-Serif" font-size="10.00">RandomStream</text>
</a>
</g>
</g>
<!-- Node5&#45;&gt;Node2 -->
<g id="edge5" class="edge"><title>Node5&#45;&gt;Node2</title>
<path fill="none" stroke="#9a32cd" stroke-dasharray="5,2" d="M144.737,-202.275C139.679,-173.246 130.147,-118.538 126.485,-97.5212"/>
<polygon fill="#9a32cd" stroke="#9a32cd" points="141.326,-203.088 146.491,-212.339 148.222,-201.887 141.326,-203.088"/>
<text text-anchor="middle" x="158" y="-152.5" font-family="Helvetica,sans-Serif" font-size="10.00"> stream</text>
</g>
<!-- Node5&#45;&gt;Node3 -->
<g id="edge4" class="edge"><title>Node5&#45;&gt;Node3</title>
<path fill="none" stroke="#9a32cd" stroke-dasharray="5,2" d="M119.285,-207.915C111.469,-203.872 103.184,-199.122 96,-194 83.6769,-185.215 71.3283,-172.799 63.6798,-164.58"/>
<polygon fill="#9a32cd" stroke="#9a32cd" points="117.965,-211.167 128.479,-212.473 121.074,-204.896 117.965,-211.167"/>
<text text-anchor="middle" x="115" y="-186" font-family="Helvetica,sans-Serif" font-size="10.00"> stream</text>
</g>
<!-- Node6 -->
<g id="node6" class="node"><title>Node6</title>
<polygon fill="none" stroke="#bfbfbf" points="210.5,-78.5 210.5,-97.5 305.5,-97.5 305.5,-78.5 210.5,-78.5"/>
<text text-anchor="middle" x="258" y="-85.5" font-family="Helvetica,sans-Serif" font-size="10.00">DoubleMatrix2D</text>
</g>
<!-- Node6&#45;&gt;Node1 -->
<g id="edge6" class="edge"><title>Node6&#45;&gt;Node1</title>
<path fill="none" stroke="#9a32cd" stroke-dasharray="5,2" d="M250.002,-69.1216C243.026,-53.5297 233.21,-31.5862 227.855,-19.6165"/>
<polygon fill="#9a32cd" stroke="#9a32cd" points="246.821,-70.5829 254.1,-78.2818 253.211,-67.7243 246.821,-70.5829"/>
<text text-anchor="middle" x="271.5" y="-52" font-family="Helvetica,sans-Serif" font-size="10.00"> sqrtSigma</text>
<text text-anchor="middle" x="271.5" y="-41" font-family="Helvetica,sans-Serif" font-size="10.00">sigma</text>
</g>
</g>
</svg>
