<?xml version="1.0" encoding="UTF-8" standalone="no"?>
<!DOCTYPE svg PUBLIC "-//W3C//DTD SVG 1.1//EN"
 "http://www.w3.org/Graphics/SVG/1.1/DTD/svg11.dtd">
<!-- Generated by graphviz version 2.38.0 (20140413.2041)
 -->
<!-- Title: InverseGaussianProcessPCA Pages: 1 -->
<svg width="267pt" height="353pt"
 viewBox="0.00 0.00 266.50 353.00" xmlns="http://www.w3.org/2000/svg" xmlns:xlink="http://www.w3.org/1999/xlink">
<g id="graph0" class="graph" transform="scale(1 1) rotate(0) translate(4 349)">
<title>InverseGaussianProcessPCA</title>
<!-- Node3 -->
<g id="node1" class="node"><title>Node3</title>
<polygon fill="#bfbfbf" stroke="black" points="40,-0.5 40,-19.5 184,-19.5 184,-0.5 40,-0.5"/>
<text text-anchor="middle" x="112" y="-7.5" font-family="Helvetica,sans-Serif" font-size="10.00">InverseGaussianProcessPCA</text>
</g>
<!-- Node4 -->
<g id="node2" class="node"><title>Node4</title>
<g id="a_node2"><a xlink:href="classumontreal_1_1ssj_1_1stochprocess_1_1InverseGaussianProcess.html" target="_top" xlink:title="The inverse Gaussian process is a non&#45;decreasing process where the increments are additive and are gi...">
<polygon fill="none" stroke="black" points="0,-124.5 0,-143.5 124,-143.5 124,-124.5 0,-124.5"/>
<text text-anchor="middle" x="62" y="-131.5" font-family="Helvetica,sans-Serif" font-size="10.00">InverseGaussianProcess</text>
</a>
</g>
</g>
<!-- Node4&#45;&gt;Node3 -->
<g id="edge1" class="edge"><title>Node4&#45;&gt;Node3</title>
<path fill="none" stroke="midnightblue" d="M69.4164,-114.904C80.3369,-88.2581 100.324,-39.4891 108.437,-19.6944"/>
<polygon fill="midnightblue" stroke="midnightblue" points="66.1496,-113.646 65.5959,-124.226 72.6267,-116.3 66.1496,-113.646"/>
</g>
<!-- Node5 -->
<g id="node3" class="node"><title>Node5</title>
<g id="a_node3"><a xlink:href="classumontreal_1_1ssj_1_1stochprocess_1_1StochasticProcess.html" target="_top" xlink:title="Abstract base class for a stochastic process &#160;sampled (or observed) at a finite number of time points...">
<polygon fill="none" stroke="black" points="76.5,-191.5 76.5,-210.5 175.5,-210.5 175.5,-191.5 76.5,-191.5"/>
<text text-anchor="middle" x="126" y="-198.5" font-family="Helvetica,sans-Serif" font-size="10.00">StochasticProcess</text>
</a>
</g>
</g>
<!-- Node5&#45;&gt;Node4 -->
<g id="edge2" class="edge"><title>Node5&#45;&gt;Node4</title>
<path fill="none" stroke="midnightblue" d="M110.243,-183.997C97.6919,-171.25 80.604,-153.895 70.4946,-143.627"/>
<polygon fill="midnightblue" stroke="midnightblue" points="107.859,-186.564 117.369,-191.234 112.847,-181.652 107.859,-186.564"/>
</g>
<!-- Node8 -->
<g id="node6" class="node"><title>Node8</title>
<g id="a_node6"><a xlink:href="classumontreal_1_1ssj_1_1stochprocess_1_1BrownianMotion.html" target="_top" xlink:title="This class represents a Brownian motion process , sampled at times . ">
<polygon fill="none" stroke="black" points="142,-124.5 142,-143.5 228,-143.5 228,-124.5 142,-124.5"/>
<text text-anchor="middle" x="185" y="-131.5" font-family="Helvetica,sans-Serif" font-size="10.00">BrownianMotion</text>
</a>
</g>
</g>
<!-- Node5&#45;&gt;Node8 -->
<g id="edge6" class="edge"><title>Node5&#45;&gt;Node8</title>
<path fill="none" stroke="midnightblue" d="M140.855,-183.635C152.393,-170.923 167.937,-153.798 177.169,-143.627"/>
<polygon fill="midnightblue" stroke="midnightblue" points="138.086,-181.477 133.957,-191.234 143.27,-186.182 138.086,-181.477"/>
</g>
<!-- Node6 -->
<g id="node4" class="node"><title>Node6</title>
<g id="a_node4"><a xlink:href="interfaceumontreal_1_1ssj_1_1rng_1_1RandomStream.html" target="_top" xlink:title="This interface defines the basic structures to handle multiple streams of uniform (pseudo)random numb...">
<polygon fill="none" stroke="black" points="23,-325.5 23,-344.5 107,-344.5 107,-325.5 23,-325.5"/>
<text text-anchor="middle" x="65" y="-332.5" font-family="Helvetica,sans-Serif" font-size="10.00">RandomStream</text>
</a>
</g>
</g>
<!-- Node6&#45;&gt;Node4 -->
<g id="edge3" class="edge"><title>Node6&#45;&gt;Node4</title>
<path fill="none" stroke="#9a32cd" stroke-dasharray="5,2" d="M64.7181,-315.302C64.088,-273.506 62.5853,-173.826 62.1318,-143.743"/>
<polygon fill="#9a32cd" stroke="#9a32cd" points="61.2207,-315.503 64.8711,-325.449 68.2199,-315.398 61.2207,-315.503"/>
<text text-anchor="middle" x="81" y="-232" font-family="Helvetica,sans-Serif" font-size="10.00"> stream</text>
</g>
<!-- Node10 -->
<g id="node8" class="node"><title>Node10</title>
<g id="a_node8"><a xlink:href="classumontreal_1_1ssj_1_1randvar_1_1RandomVariateGen.html" target="_top" xlink:title="This is the base class for all random variate generators over the real line. ">
<polygon fill="none" stroke="black" points="141.5,-258.5 141.5,-277.5 242.5,-277.5 242.5,-258.5 141.5,-258.5"/>
<text text-anchor="middle" x="192" y="-265.5" font-family="Helvetica,sans-Serif" font-size="10.00">RandomVariateGen</text>
</a>
</g>
</g>
<!-- Node6&#45;&gt;Node10 -->
<g id="edge10" class="edge"><title>Node6&#45;&gt;Node10</title>
<path fill="none" stroke="#9a32cd" stroke-dasharray="5,2" d="M90.8418,-320.774C115.996,-307.9 153.492,-288.709 175.066,-277.667"/>
<polygon fill="#9a32cd" stroke="#9a32cd" points="89.1718,-317.697 81.8646,-325.369 92.3611,-323.928 89.1718,-317.697"/>
<text text-anchor="middle" x="154" y="-299" font-family="Helvetica,sans-Serif" font-size="10.00"> stream</text>
</g>
<!-- Node7 -->
<g id="node5" class="node"><title>Node7</title>
<g id="a_node5"><a xlink:href="classumontreal_1_1ssj_1_1stochprocess_1_1BrownianMotionPCA.html" target="_top" xlink:title="A Brownian motion process &#160;sampled using the principal component decomposition (PCA) ...">
<polygon fill="none" stroke="black" points="116,-67.5 116,-86.5 222,-86.5 222,-67.5 116,-67.5"/>
<text text-anchor="middle" x="169" y="-74.5" font-family="Helvetica,sans-Serif" font-size="10.00">BrownianMotionPCA</text>
</a>
</g>
</g>
<!-- Node7&#45;&gt;Node3 -->
<g id="edge4" class="edge"><title>Node7&#45;&gt;Node3</title>
<path fill="none" stroke="#9a32cd" stroke-dasharray="5,2" d="M154.649,-59.6348C143.502,-46.9228 128.484,-29.7978 119.565,-19.6273"/>
<polygon fill="#9a32cd" stroke="#9a32cd" points="152.088,-62.0228 161.313,-67.2338 157.351,-57.4075 152.088,-62.0228"/>
<text text-anchor="middle" x="162.5" y="-41" font-family="Helvetica,sans-Serif" font-size="10.00"> bmPCA</text>
</g>
<!-- Node8&#45;&gt;Node7 -->
<g id="edge5" class="edge"><title>Node8&#45;&gt;Node7</title>
<path fill="none" stroke="midnightblue" d="M179.684,-114.728C176.939,-105.292 173.718,-94.217 171.535,-86.7149"/>
<polygon fill="midnightblue" stroke="midnightblue" points="176.346,-115.782 182.5,-124.406 183.067,-113.827 176.346,-115.782"/>
</g>
<!-- Node9 -->
<g id="node7" class="node"><title>Node9</title>
<g id="a_node7"><a xlink:href="classumontreal_1_1ssj_1_1randvar_1_1NormalGen.html" target="_top" xlink:title="This class implements methods for generating random variates from the normal distribution ...">
<polygon fill="none" stroke="black" points="193.5,-191.5 193.5,-210.5 258.5,-210.5 258.5,-191.5 193.5,-191.5"/>
<text text-anchor="middle" x="226" y="-198.5" font-family="Helvetica,sans-Serif" font-size="10.00">NormalGen</text>
</a>
</g>
</g>
<!-- Node9&#45;&gt;Node8 -->
<g id="edge7" class="edge"><title>Node9&#45;&gt;Node8</title>
<path fill="none" stroke="#9a32cd" stroke-dasharray="5,2" d="M214.983,-182.535C207.045,-169.95 196.674,-153.507 190.442,-143.627"/>
<polygon fill="#9a32cd" stroke="#9a32cd" points="212.175,-184.643 220.471,-191.234 218.096,-180.909 212.175,-184.643"/>
<text text-anchor="middle" x="216.5" y="-165" font-family="Helvetica,sans-Serif" font-size="10.00"> gen</text>
</g>
<!-- Node10&#45;&gt;Node9 -->
<g id="edge8" class="edge"><title>Node10&#45;&gt;Node9</title>
<path fill="none" stroke="midnightblue" d="M201.33,-249.163C207.887,-236.628 216.37,-220.41 221.487,-210.627"/>
<polygon fill="midnightblue" stroke="midnightblue" points="198.119,-247.751 196.585,-258.234 204.322,-250.995 198.119,-247.751"/>
</g>
<!-- Node11 -->
<g id="node9" class="node"><title>Node11</title>
<g id="a_node9"><a xlink:href="interfaceumontreal_1_1ssj_1_1probdist_1_1Distribution.html" target="_top" xlink:title="This interface should be implemented by all classes supporting discrete and continuous distributions...">
<polygon fill="none" stroke="black" points="159.5,-325.5 159.5,-344.5 224.5,-344.5 224.5,-325.5 159.5,-325.5"/>
<text text-anchor="middle" x="192" y="-332.5" font-family="Helvetica,sans-Serif" font-size="10.00">Distribution</text>
</a>
</g>
</g>
<!-- Node11&#45;&gt;Node10 -->
<g id="edge9" class="edge"><title>Node11&#45;&gt;Node10</title>
<path fill="none" stroke="#9a32cd" stroke-dasharray="5,2" d="M192,-315.037C192,-302.67 192,-287.12 192,-277.627"/>
<polygon fill="#9a32cd" stroke="#9a32cd" points="188.5,-315.234 192,-325.234 195.5,-315.234 188.5,-315.234"/>
<text text-anchor="middle" x="201.5" y="-299" font-family="Helvetica,sans-Serif" font-size="10.00"> dist</text>
</g>
</g>
</svg>
