<?xml version="1.0" encoding="UTF-8" standalone="no"?>
<!DOCTYPE svg PUBLIC "-//W3C//DTD SVG 1.1//EN"
 "http://www.w3.org/Graphics/SVG/1.1/DTD/svg11.dtd">
<!-- Generated by graphviz version 2.38.0 (20140413.2041)
 -->
<!-- Title: DiscreteDistribution Pages: 1 -->
<svg width="176pt" height="140pt"
 viewBox="0.00 0.00 175.50 140.00" xmlns="http://www.w3.org/2000/svg" xmlns:xlink="http://www.w3.org/1999/xlink">
<g id="graph0" class="graph" transform="scale(1 1) rotate(0) translate(4 136)">
<title>DiscreteDistribution</title>
<!-- Node0 -->
<g id="node1" class="node"><title>Node0</title>
<polygon fill="#bfbfbf" stroke="black" points="31.5,-56.5 31.5,-75.5 134.5,-75.5 134.5,-56.5 31.5,-56.5"/>
<text text-anchor="middle" x="83" y="-63.5" font-family="Helvetica,sans-Serif" font-size="10.00">DiscreteDistribution</text>
</g>
<!-- Node2 -->
<g id="node3" class="node"><title>Node2</title>
<g id="a_node3"><a xlink:href="classumontreal_1_1ssj_1_1probdist_1_1ConstantDist.html" target="_top" xlink:title="Represents a constant discrete distribution taking a single real value with probability 1...">
<polygon fill="none" stroke="black" points="0,-0.5 0,-19.5 74,-19.5 74,-0.5 0,-0.5"/>
<text text-anchor="middle" x="37" y="-7.5" font-family="Helvetica,sans-Serif" font-size="10.00">ConstantDist</text>
</a>
</g>
</g>
<!-- Node0&#45;&gt;Node2 -->
<g id="edge2" class="edge"><title>Node0&#45;&gt;Node2</title>
<path fill="none" stroke="midnightblue" d="M68.886,-48.4314C60.824,-38.9673 51.0408,-27.4827 44.4546,-19.7511"/>
<polygon fill="midnightblue" stroke="midnightblue" points="66.255,-50.7402 75.404,-56.083 71.5837,-46.2009 66.255,-50.7402"/>
</g>
<!-- Node3 -->
<g id="node4" class="node"><title>Node3</title>
<g id="a_node4"><a xlink:href="classumontreal_1_1ssj_1_1probdist_1_1EmpiricalDist.html" target="_top" xlink:title="Extends DiscreteDistribution to an empirical distribution function, based on the observations &#160;(sorte...">
<polygon fill="none" stroke="black" points="92.5,-0.5 92.5,-19.5 167.5,-19.5 167.5,-0.5 92.5,-0.5"/>
<text text-anchor="middle" x="130" y="-7.5" font-family="Helvetica,sans-Serif" font-size="10.00">EmpiricalDist</text>
</a>
</g>
</g>
<!-- Node0&#45;&gt;Node3 -->
<g id="edge3" class="edge"><title>Node0&#45;&gt;Node3</title>
<path fill="none" stroke="midnightblue" d="M97.4208,-48.4314C105.658,-38.9673 115.654,-27.4827 122.383,-19.7511"/>
<polygon fill="midnightblue" stroke="midnightblue" points="94.6863,-46.2421 90.7611,-56.083 99.9664,-50.8378 94.6863,-46.2421"/>
</g>
<!-- Node1 -->
<g id="node2" class="node"><title>Node1</title>
<g id="a_node2"><a xlink:href="interfaceumontreal_1_1ssj_1_1probdist_1_1Distribution.html" target="_top" xlink:title="This interface should be implemented by all classes supporting discrete and continuous distributions...">
<polygon fill="none" stroke="black" points="50,-112.5 50,-131.5 116,-131.5 116,-112.5 50,-112.5"/>
<text text-anchor="middle" x="83" y="-119.5" font-family="Helvetica,sans-Serif" font-size="10.00">Distribution</text>
</a>
</g>
</g>
<!-- Node1&#45;&gt;Node0 -->
<g id="edge1" class="edge"><title>Node1&#45;&gt;Node0</title>
<path fill="none" stroke="midnightblue" d="M83,-101.805C83,-92.9102 83,-82.7798 83,-75.7511"/>
<polygon fill="midnightblue" stroke="midnightblue" points="79.5001,-102.083 83,-112.083 86.5001,-102.083 79.5001,-102.083"/>
</g>
</g>
</svg>
