<?xml version="1.0" encoding="UTF-8" standalone="no"?>
<!DOCTYPE svg PUBLIC "-//W3C//DTD SVG 1.1//EN"
 "http://www.w3.org/Graphics/SVG/1.1/DTD/svg11.dtd">
<!-- Generated by graphviz version 2.26.3 (20100126.1600)
 -->
<!-- Title: BankEv Pages: 1 -->
<svg width="742pt" height="384pt"
 viewBox="0.00 0.00 742.00 384.00" xmlns="http://www.w3.org/2000/svg" xmlns:xlink="http://www.w3.org/1999/xlink">
<g id="graph1" class="graph" transform="scale(1 1) rotate(0) translate(4 380)">
<title>BankEv</title>
<!-- Node1 -->
<g id="node1" class="node"><title>Node1</title>
<polygon fill="#bfbfbf" stroke="black" points="205.5,-1 205.5,-21 256.5,-21 256.5,-1 205.5,-1"/>
<text text-anchor="middle" x="231" y="-8" font-family="Helvetica,sans-Serif" font-size="10.00">BankEv</text>
</g>
<!-- Node2 -->
<g id="node2" class="node"><title>Node2</title>
<a xlink:href="classumontreal_1_1ssj_1_1randvar_1_1ErlangGen.html" target="_top" xlink:title="This class implements random variate generators for the Erlang distribution with parameters &#160;and ...">
<polygon fill="none" stroke="black" points="34,-131 34,-151 96,-151 96,-131 34,-131"/>
<text text-anchor="middle" x="65" y="-138" font-family="Helvetica,sans-Serif" font-size="10.00">ErlangGen</text>
</a>
</g>
<!-- Node2&#45;&gt;Node1 -->
<g id="edge2" class="edge"><title>Node2&#45;&gt;Node1</title>
<path fill="none" stroke="#9a32cd" stroke-dasharray="5,2" d="M60.3717,-120.983C56.4246,-98.3486 54.1405,-61.8151 74,-40 91.2599,-21.0405 165.564,-14.3387 205.452,-12.0796"/>
<polygon fill="#9a32cd" stroke="#9a32cd" points="56.9532,-121.738 62.3532,-130.853 63.8163,-120.36 56.9532,-121.738"/>
<text text-anchor="middle" x="94" y="-73" font-family="Helvetica,sans-Serif" font-size="10.00"> genServ</text>
</g>
<!-- Node3 -->
<g id="node4" class="node"><title>Node3</title>
<a xlink:href="classumontreal_1_1ssj_1_1randvar_1_1GammaGen.html" target="_top" xlink:title="This class implements random variate generators for the gamma distribution. ">
<polygon fill="none" stroke="black" points="19.5,-208 19.5,-228 88.5,-228 88.5,-208 19.5,-208"/>
<text text-anchor="middle" x="54" y="-215" font-family="Helvetica,sans-Serif" font-size="10.00">GammaGen</text>
</a>
</g>
<!-- Node3&#45;&gt;Node2 -->
<g id="edge4" class="edge"><title>Node3&#45;&gt;Node2</title>
<path fill="none" stroke="midnightblue" d="M56.9062,-197.657C59.0364,-182.745 61.84,-163.12 63.5265,-151.315"/>
<polygon fill="midnightblue" stroke="midnightblue" points="53.3875,-197.539 55.4381,-207.934 60.3172,-198.529 53.3875,-197.539"/>
</g>
<!-- Node4 -->
<g id="node6" class="node"><title>Node4</title>
<a xlink:href="classumontreal_1_1ssj_1_1randvar_1_1RandomVariateGen.html" target="_top" xlink:title="This is the base class for all random variate generators over the real line. ">
<polygon fill="none" stroke="black" points="-0.5,-285 -0.5,-305 100.5,-305 100.5,-285 -0.5,-285"/>
<text text-anchor="middle" x="50" y="-292" font-family="Helvetica,sans-Serif" font-size="10.00">RandomVariateGen</text>
</a>
</g>
<!-- Node4&#45;&gt;Node3 -->
<g id="edge6" class="edge"><title>Node4&#45;&gt;Node3</title>
<path fill="none" stroke="midnightblue" d="M51.0568,-274.657C51.8314,-259.745 52.8509,-240.12 53.4642,-228.315"/>
<polygon fill="midnightblue" stroke="midnightblue" points="47.5465,-274.765 50.5229,-284.934 54.5371,-275.129 47.5465,-274.765"/>
</g>
<!-- Node5 -->
<g id="node8" class="node"><title>Node5</title>
<a xlink:href="interfaceumontreal_1_1ssj_1_1probdist_1_1Distribution.html" target="_top" xlink:title="This interface should be implemented by all classes supporting discrete and continuous distributions...">
<polygon fill="none" stroke="black" points="3.5,-355 3.5,-375 68.5,-375 68.5,-355 3.5,-355"/>
<text text-anchor="middle" x="36" y="-362" font-family="Helvetica,sans-Serif" font-size="10.00">Distribution</text>
</a>
</g>
<!-- Node5&#45;&gt;Node4 -->
<g id="edge8" class="edge"><title>Node5&#45;&gt;Node4</title>
<path fill="none" stroke="#9a32cd" stroke-dasharray="5,2" d="M35.6222,-344.547C35.8643,-337.927 36.5219,-330.593 38,-324 39.4542,-317.514 42.2477,-310.623 44.7737,-305.187"/>
<polygon fill="#9a32cd" stroke="#9a32cd" points="32.1206,-344.731 35.5356,-354.761 39.1204,-344.791 32.1206,-344.731"/>
<text text-anchor="middle" x="47.5" y="-327" font-family="Helvetica,sans-Serif" font-size="10.00"> dist</text>
</g>
<!-- Node6 -->
<g id="node10" class="node"><title>Node6</title>
<a xlink:href="interfaceumontreal_1_1ssj_1_1rng_1_1RandomStream.html" target="_top" xlink:title="This interface defines the basic structures to handle multiple streams of uniform (pseudo)random numb...">
<polygon fill="none" stroke="black" points="86,-355 86,-375 170,-375 170,-355 86,-355"/>
<text text-anchor="middle" x="128" y="-362" font-family="Helvetica,sans-Serif" font-size="10.00">RandomStream</text>
</a>
</g>
<!-- Node6&#45;&gt;Node1 -->
<g id="edge40" class="edge"><title>Node6&#45;&gt;Node1</title>
<path fill="none" stroke="#9a32cd" stroke-dasharray="5,2" d="M128,-344.153C128,-330.233 128,-311.52 128,-295 128,-295 128,-295 128,-141 128,-86.0018 185.336,-40.706 214.451,-21.2498"/>
<polygon fill="#9a32cd" stroke="#9a32cd" points="124.5,-344.564 128,-354.564 131.5,-344.564 124.5,-344.564"/>
<text text-anchor="middle" x="155" y="-227" font-family="Helvetica,sans-Serif" font-size="10.00"> streamArr</text>
<text text-anchor="middle" x="155" y="-215" font-family="Helvetica,sans-Serif" font-size="10.00">streamTeller</text>
<text text-anchor="middle" x="155" y="-203" font-family="Helvetica,sans-Serif" font-size="10.00">streamBalk</text>
</g>
<!-- Node6&#45;&gt;Node4 -->
<g id="edge10" class="edge"><title>Node6&#45;&gt;Node4</title>
<path fill="none" stroke="#9a32cd" stroke-dasharray="5,2" d="M98.5257,-349.717C92.0754,-345.703 85.5297,-341.062 80,-336 70.1114,-326.947 61.3894,-314.191 55.9347,-305.32"/>
<polygon fill="#9a32cd" stroke="#9a32cd" points="96.7623,-352.741 107.158,-354.785 100.306,-346.704 96.7623,-352.741"/>
<text text-anchor="middle" x="97" y="-327" font-family="Helvetica,sans-Serif" font-size="10.00"> stream</text>
</g>
<!-- Node7 -->
<g id="node12" class="node"><title>Node7</title>
<a xlink:href="classumontreal_1_1ssj_1_1stat_1_1Tally.html" target="_top" xlink:title="A subclass of StatProbe. ">
<polygon fill="none" stroke="black" points="284.5,-131 284.5,-151 321.5,-151 321.5,-131 284.5,-131"/>
<text text-anchor="middle" x="303" y="-138" font-family="Helvetica,sans-Serif" font-size="10.00">Tally</text>
</a>
</g>
<!-- Node7&#45;&gt;Node1 -->
<g id="edge12" class="edge"><title>Node7&#45;&gt;Node1</title>
<path fill="none" stroke="#9a32cd" stroke-dasharray="5,2" d="M295.73,-121.333C287.551,-100.35 273.146,-66.5451 256,-40 251.672,-33.2995 245.908,-26.5086 241.006,-21.1844"/>
<polygon fill="#9a32cd" stroke="#9a32cd" points="292.495,-122.674 299.325,-130.774 299.037,-120.183 292.495,-122.674"/>
<text text-anchor="middle" x="316" y="-79" font-family="Helvetica,sans-Serif" font-size="10.00"> avWait</text>
<text text-anchor="middle" x="316" y="-67" font-family="Helvetica,sans-Serif" font-size="10.00">statServed</text>
</g>
<!-- Node8 -->
<g id="node14" class="node"><title>Node8</title>
<a xlink:href="classumontreal_1_1ssj_1_1stat_1_1StatProbe.html" target="_top" xlink:title="The objects of this class are statistical probes or collectors, which are elementary devices for coll...">
<polygon fill="none" stroke="black" points="200,-208 200,-228 260,-228 260,-208 200,-208"/>
<text text-anchor="middle" x="230" y="-215" font-family="Helvetica,sans-Serif" font-size="10.00">StatProbe</text>
</a>
</g>
<!-- Node8&#45;&gt;Node7 -->
<g id="edge14" class="edge"><title>Node8&#45;&gt;Node7</title>
<path fill="none" stroke="midnightblue" d="M246.443,-200.656C260.835,-185.476 281.261,-163.93 293.221,-151.315"/>
<polygon fill="midnightblue" stroke="midnightblue" points="243.884,-198.268 239.543,-207.934 248.964,-203.085 243.884,-198.268"/>
</g>
<!-- Node17 -->
<g id="node33" class="node"><title>Node17</title>
<a xlink:href="classumontreal_1_1ssj_1_1simevents_1_1Accumulate.html" target="_top" xlink:title="A subclass of umontreal.ssj.stat.StatProbe, for collecting statistics on a variable that evolves in s...">
<polygon fill="none" stroke="black" points="197,-131 197,-151 265,-151 265,-131 197,-131"/>
<text text-anchor="middle" x="231" y="-138" font-family="Helvetica,sans-Serif" font-size="10.00">Accumulate</text>
</a>
</g>
<!-- Node8&#45;&gt;Node17 -->
<g id="edge36" class="edge"><title>Node8&#45;&gt;Node17</title>
<path fill="none" stroke="midnightblue" d="M230.264,-197.657C230.458,-182.745 230.713,-163.12 230.866,-151.315"/>
<polygon fill="midnightblue" stroke="midnightblue" points="226.761,-197.889 230.131,-207.934 233.76,-197.98 226.761,-197.889"/>
</g>
<!-- Node9 -->
<g id="node16" class="node"><title>Node9</title>
<polygon fill="none" stroke="#bfbfbf" points="277.5,-208 277.5,-228 336.5,-228 336.5,-208 277.5,-208"/>
<text text-anchor="middle" x="307" y="-215" font-family="Helvetica,sans-Serif" font-size="10.00">Cloneable</text>
</g>
<!-- Node9&#45;&gt;Node7 -->
<g id="edge16" class="edge"><title>Node9&#45;&gt;Node7</title>
<path fill="none" stroke="midnightblue" d="M305.943,-197.657C305.169,-182.745 304.149,-163.12 303.536,-151.315"/>
<polygon fill="midnightblue" stroke="midnightblue" points="302.463,-198.129 306.477,-207.934 309.453,-197.765 302.463,-198.129"/>
</g>
<!-- Node9&#45;&gt;Node17 -->
<g id="edge38" class="edge"><title>Node9&#45;&gt;Node17</title>
<path fill="none" stroke="midnightblue" d="M289.881,-200.656C274.898,-185.476 253.632,-163.93 241.181,-151.315"/>
<polygon fill="midnightblue" stroke="midnightblue" points="287.549,-203.275 297.064,-207.934 292.531,-198.358 287.549,-203.275"/>
</g>
<!-- Node10 -->
<g id="node18" class="node"><title>Node10</title>
<polygon fill="none" stroke="#bfbfbf" points="354,-208 354,-228 424,-228 424,-208 354,-208"/>
<text text-anchor="middle" x="389" y="-215" font-family="Helvetica,sans-Serif" font-size="10.00">Tally.CIType</text>
</g>
<!-- Node10&#45;&gt;Node7 -->
<g id="edge18" class="edge"><title>Node10&#45;&gt;Node7</title>
<path fill="none" stroke="#9a32cd" stroke-dasharray="5,2" d="M370.048,-201.031C352.962,-185.734 328.411,-163.752 314.246,-151.069"/>
<polygon fill="#9a32cd" stroke="#9a32cd" points="367.972,-203.871 377.757,-207.934 372.642,-198.656 367.972,-203.871"/>
<text text-anchor="middle" x="390.5" y="-173" font-family="Helvetica,sans-Serif" font-size="10.00"> confidenceInterval</text>
</g>
<!-- Node11 -->
<g id="node20" class="node"><title>Node11</title>
<a xlink:href="classumontreal_1_1ssj_1_1simevents_1_1Event.html" target="_top" xlink:title="This abstract class provides event scheduling tools. ">
<polygon fill="none" stroke="black" points="468,-131 468,-151 510,-151 510,-131 468,-131"/>
<text text-anchor="middle" x="489" y="-138" font-family="Helvetica,sans-Serif" font-size="10.00">Event</text>
</a>
</g>
<!-- Node11&#45;&gt;Node1 -->
<g id="edge20" class="edge"><title>Node11&#45;&gt;Node1</title>
<path fill="none" stroke="#9a32cd" stroke-dasharray="5,2" d="M469.73,-124.15C443.188,-101.781 393.071,-62.4939 344,-40 315.462,-26.9184 280.057,-19.0466 256.562,-14.8715"/>
<polygon fill="#9a32cd" stroke="#9a32cd" points="467.611,-126.943 477.488,-130.775 472.157,-121.62 467.611,-126.943"/>
<text text-anchor="middle" x="472" y="-103" font-family="Helvetica,sans-Serif" font-size="10.00"> e14h</text>
<text text-anchor="middle" x="472" y="-91" font-family="Helvetica,sans-Serif" font-size="10.00">e11h</text>
<text text-anchor="middle" x="472" y="-79" font-family="Helvetica,sans-Serif" font-size="10.00">e10h</text>
<text text-anchor="middle" x="472" y="-67" font-family="Helvetica,sans-Serif" font-size="10.00">nextArriv</text>
<text text-anchor="middle" x="472" y="-55" font-family="Helvetica,sans-Serif" font-size="10.00">e9h45</text>
<text text-anchor="middle" x="472" y="-43" font-family="Helvetica,sans-Serif" font-size="10.00">e15h</text>
</g>
<!-- Node12 -->
<g id="node22" class="node"><title>Node12</title>
<polygon fill="none" stroke="#bfbfbf" points="622,-208 622,-228 734,-228 734,-208 622,-208"/>
<text text-anchor="middle" x="678" y="-215" font-family="Helvetica,sans-Serif" font-size="10.00">Comparable&lt; Event &gt;</text>
</g>
<!-- Node12&#45;&gt;Node11 -->
<g id="edge22" class="edge"><title>Node12&#45;&gt;Node11</title>
<path fill="none" stroke="midnightblue" d="M643.949,-204.127C605.082,-188.293 542.702,-162.879 510.216,-149.644"/>
<polygon fill="midnightblue" stroke="midnightblue" points="642.71,-207.402 653.292,-207.934 645.351,-200.919 642.71,-207.402"/>
</g>
<!-- Node13 -->
<g id="node24" class="node"><title>Node13</title>
<a xlink:href="classumontreal_1_1ssj_1_1simevents_1_1Simulator.html" target="_top" xlink:title="Represents the executive of a discrete&#45;event simulator. ">
<polygon fill="none" stroke="black" points="454,-208 454,-228 512,-228 512,-208 454,-208"/>
<text text-anchor="middle" x="483" y="-215" font-family="Helvetica,sans-Serif" font-size="10.00">Simulator</text>
</a>
</g>
<!-- Node13&#45;&gt;Node11 -->
<g id="edge24" class="edge"><title>Node13&#45;&gt;Node11</title>
<path fill="none" stroke="#9a32cd" stroke-dasharray="5,2" d="M484.585,-197.657C485.747,-182.745 487.276,-163.12 488.196,-151.315"/>
<polygon fill="#9a32cd" stroke="#9a32cd" points="481.072,-197.692 483.784,-207.934 488.051,-198.236 481.072,-197.692"/>
<text text-anchor="middle" x="495.5" y="-173" font-family="Helvetica,sans-Serif" font-size="10.00"> sim</text>
</g>
<!-- Node13&#45;&gt;Node13 -->
<g id="edge26" class="edge"><title>Node13&#45;&gt;Node13</title>
<path fill="none" stroke="#9a32cd" stroke-dasharray="5,2" d="M522.603,-224.673C527.091,-223.424 530,-221.199 530,-218 530,-212.75 522.167,-210.125 512.375,-210.125"/>
<polygon fill="#9a32cd" stroke="#9a32cd" points="521.898,-221.232 512.375,-225.875 522.715,-228.184 521.898,-221.232"/>
<text text-anchor="middle" x="567" y="-215" font-family="Helvetica,sans-Serif" font-size="10.00"> defaultSimulator</text>
</g>
<!-- Node14 -->
<g id="node27" class="node"><title>Node14</title>
<a xlink:href="interfaceumontreal_1_1ssj_1_1simevents_1_1eventlist_1_1EventList.html" target="_top" xlink:title="An interface for implementations of event lists. ">
<polygon fill="none" stroke="black" points="402,-285 402,-305 460,-305 460,-285 402,-285"/>
<text text-anchor="middle" x="431" y="-292" font-family="Helvetica,sans-Serif" font-size="10.00">EventList</text>
</a>
</g>
<!-- Node14&#45;&gt;Node13 -->
<g id="edge28" class="edge"><title>Node14&#45;&gt;Node13</title>
<path fill="none" stroke="#9a32cd" stroke-dasharray="5,2" d="M440.766,-276.058C444.636,-268.98 449.285,-260.972 454,-254 460.205,-244.826 468.147,-235.081 474.151,-228.047"/>
<polygon fill="#9a32cd" stroke="#9a32cd" points="437.642,-274.476 436.037,-284.949 443.823,-277.764 437.642,-274.476"/>
<text text-anchor="middle" x="475.5" y="-257" font-family="Helvetica,sans-Serif" font-size="10.00"> eventList</text>
</g>
<!-- Node15 -->
<g id="node29" class="node"><title>Node15</title>
<polygon fill="none" stroke="#bfbfbf" points="385,-355 385,-375 477,-375 477,-355 385,-355"/>
<text text-anchor="middle" x="431" y="-362" font-family="Helvetica,sans-Serif" font-size="10.00">Iterable&lt; Event &gt;</text>
</g>
<!-- Node15&#45;&gt;Node14 -->
<g id="edge30" class="edge"><title>Node15&#45;&gt;Node14</title>
<path fill="none" stroke="midnightblue" d="M431,-344.613C431,-331.597 431,-315.296 431,-305.011"/>
<polygon fill="midnightblue" stroke="midnightblue" points="427.5,-344.971 431,-354.971 434.5,-344.971 427.5,-344.971"/>
</g>
<!-- Node16 -->
<g id="node31" class="node"><title>Node16</title>
<a xlink:href="classumontreal_1_1ssj_1_1simevents_1_1ContinuousState.html" target="_top" xlink:title="Represents the portion of the simulator’s state associated with continuous&#45;time simulation. ">
<polygon fill="none" stroke="black" points="477.5,-285 477.5,-305 566.5,-305 566.5,-285 477.5,-285"/>
<text text-anchor="middle" x="522" y="-292" font-family="Helvetica,sans-Serif" font-size="10.00">ContinuousState</text>
</a>
</g>
<!-- Node16&#45;&gt;Node13 -->
<g id="edge32" class="edge"><title>Node16&#45;&gt;Node13</title>
<path fill="none" stroke="#9a32cd" stroke-dasharray="5,2" d="M512.356,-275.96C504.732,-260.906 494.379,-240.467 488.224,-228.315"/>
<polygon fill="#9a32cd" stroke="#9a32cd" points="509.261,-277.594 516.901,-284.934 515.505,-274.431 509.261,-277.594"/>
<text text-anchor="middle" x="544" y="-257" font-family="Helvetica,sans-Serif" font-size="10.00"> continuousState</text>
</g>
<!-- Node17&#45;&gt;Node1 -->
<g id="edge34" class="edge"><title>Node17&#45;&gt;Node1</title>
<path fill="none" stroke="#9a32cd" stroke-dasharray="5,2" d="M231,-120.483C231,-92.2424 231,-42.4702 231,-21.1535"/>
<polygon fill="#9a32cd" stroke="#9a32cd" points="227.5,-120.799 231,-130.799 234.5,-120.799 227.5,-120.799"/>
<text text-anchor="middle" x="241.5" y="-73" font-family="Helvetica,sans-Serif" font-size="10.00"> wait</text>
</g>
</g>
</svg>
