<?xml version="1.0" encoding="UTF-8" standalone="no"?>
<!DOCTYPE svg PUBLIC "-//W3C//DTD SVG 1.1//EN"
 "http://www.w3.org/Graphics/SVG/1.1/DTD/svg11.dtd">
<!-- Generated by graphviz version 2.38.0 (20140413.2041)
 -->
<!-- Title: PreyPred.Preds Pages: 1 -->
<svg width="285pt" height="343pt"
 viewBox="0.00 0.00 285.00 343.00" xmlns="http://www.w3.org/2000/svg" xmlns:xlink="http://www.w3.org/1999/xlink">
<g id="graph0" class="graph" transform="scale(1 1) rotate(0) translate(4 339)">
<title>PreyPred.Preds</title>
<!-- Node2 -->
<g id="node1" class="node"><title>Node2</title>
<polygon fill="#bfbfbf" stroke="black" points="45,-0.5 45,-19.5 131,-19.5 131,-0.5 45,-0.5"/>
<text text-anchor="middle" x="88" y="-7.5" font-family="Helvetica,sans-Serif" font-size="10.00">PreyPred.Preds</text>
</g>
<!-- Node3 -->
<g id="node2" class="node"><title>Node3</title>
<g id="a_node2"><a xlink:href="classumontreal_1_1ssj_1_1simevents_1_1Continuous.html" target="_top" xlink:title="Represents a variable in a continuous&#45;time simulation. ">
<polygon fill="none" stroke="black" points="55.5,-57.5 55.5,-76.5 120.5,-76.5 120.5,-57.5 55.5,-57.5"/>
<text text-anchor="middle" x="88" y="-64.5" font-family="Helvetica,sans-Serif" font-size="10.00">Continuous</text>
</a>
</g>
</g>
<!-- Node3&#45;&gt;Node2 -->
<g id="edge1" class="edge"><title>Node3&#45;&gt;Node2</title>
<path fill="none" stroke="midnightblue" d="M88,-47.1166C88,-37.8173 88,-27.0557 88,-19.7149"/>
<polygon fill="midnightblue" stroke="midnightblue" points="84.5001,-47.4062 88,-57.4063 91.5001,-47.4063 84.5001,-47.4062"/>
</g>
<!-- Node4 -->
<g id="node3" class="node"><title>Node4</title>
<g id="a_node3"><a xlink:href="classumontreal_1_1ssj_1_1simevents_1_1Event.html" target="_top" xlink:title="This abstract class provides event scheduling tools. ">
<polygon fill="none" stroke="black" points="67.5,-124.5 67.5,-143.5 108.5,-143.5 108.5,-124.5 67.5,-124.5"/>
<text text-anchor="middle" x="88" y="-131.5" font-family="Helvetica,sans-Serif" font-size="10.00">Event</text>
</a>
</g>
</g>
<!-- Node4&#45;&gt;Node3 -->
<g id="edge2" class="edge"><title>Node4&#45;&gt;Node3</title>
<path fill="none" stroke="#9a32cd" stroke-dasharray="5,2" d="M88,-114.037C88,-101.67 88,-86.1198 88,-76.6273"/>
<polygon fill="#9a32cd" stroke="#9a32cd" points="84.5001,-114.234 88,-124.234 91.5001,-114.234 84.5001,-114.234"/>
<text text-anchor="middle" x="94.5" y="-98" font-family="Helvetica,sans-Serif" font-size="10.00"> ev</text>
</g>
<!-- Node5 -->
<g id="node4" class="node"><title>Node5</title>
<polygon fill="none" stroke="#bfbfbf" points="0,-191.5 0,-210.5 110,-210.5 110,-191.5 0,-191.5"/>
<text text-anchor="middle" x="55" y="-198.5" font-family="Helvetica,sans-Serif" font-size="10.00">Comparable&lt; Event &gt;</text>
</g>
<!-- Node5&#45;&gt;Node4 -->
<g id="edge3" class="edge"><title>Node5&#45;&gt;Node4</title>
<path fill="none" stroke="midnightblue" d="M64.0555,-182.163C70.4196,-169.628 78.6532,-153.41 83.62,-143.627"/>
<polygon fill="midnightblue" stroke="midnightblue" points="60.8567,-180.733 59.4505,-191.234 67.0983,-183.902 60.8567,-180.733"/>
</g>
<!-- Node6 -->
<g id="node5" class="node"><title>Node6</title>
<g id="a_node5"><a xlink:href="classumontreal_1_1ssj_1_1simevents_1_1Simulator.html" target="_top" xlink:title="Represents the executive of a discrete&#45;event simulator. ">
<polygon fill="none" stroke="black" points="128,-191.5 128,-210.5 186,-210.5 186,-191.5 128,-191.5"/>
<text text-anchor="middle" x="157" y="-198.5" font-family="Helvetica,sans-Serif" font-size="10.00">Simulator</text>
</a>
</g>
</g>
<!-- Node6&#45;&gt;Node4 -->
<g id="edge4" class="edge"><title>Node6&#45;&gt;Node4</title>
<path fill="none" stroke="#9a32cd" stroke-dasharray="5,2" d="M140.394,-184.356C126.829,-171.578 108.16,-153.992 97.1582,-143.627"/>
<polygon fill="#9a32cd" stroke="#9a32cd" points="138.015,-186.924 147.694,-191.234 142.815,-181.829 138.015,-186.924"/>
<text text-anchor="middle" x="135.5" y="-165" font-family="Helvetica,sans-Serif" font-size="10.00"> sim</text>
</g>
<!-- Node6&#45;&gt;Node6 -->
<g id="edge5" class="edge"><title>Node6&#45;&gt;Node6</title>
<path fill="none" stroke="#9a32cd" stroke-dasharray="5,2" d="M196.603,-206.084C201.091,-205.132 204,-203.438 204,-201 204,-197 196.167,-195 186.375,-195"/>
<polygon fill="#9a32cd" stroke="#9a32cd" points="196.023,-202.622 186.375,-207 196.647,-209.594 196.023,-202.622"/>
<text text-anchor="middle" x="240.5" y="-198.5" font-family="Helvetica,sans-Serif" font-size="10.00"> defaultSimulator</text>
</g>
<!-- Node7 -->
<g id="node6" class="node"><title>Node7</title>
<g id="a_node6"><a xlink:href="interfaceumontreal_1_1ssj_1_1simevents_1_1eventlist_1_1EventList.html" target="_top" xlink:title="An interface for implementations of event lists. ">
<polygon fill="none" stroke="black" points="77,-258.5 77,-277.5 133,-277.5 133,-258.5 77,-258.5"/>
<text text-anchor="middle" x="105" y="-265.5" font-family="Helvetica,sans-Serif" font-size="10.00">EventList</text>
</a>
</g>
</g>
<!-- Node7&#45;&gt;Node6 -->
<g id="edge6" class="edge"><title>Node7&#45;&gt;Node6</title>
<path fill="none" stroke="#9a32cd" stroke-dasharray="5,2" d="M114.255,-249.455C118.122,-242.777 122.901,-235.271 128,-229 133.468,-222.275 140.579,-215.629 146.391,-210.614"/>
<polygon fill="#9a32cd" stroke="#9a32cd" points="111.082,-247.962 109.313,-258.408 117.21,-251.345 111.082,-247.962"/>
<text text-anchor="middle" x="149" y="-232" font-family="Helvetica,sans-Serif" font-size="10.00"> eventList</text>
</g>
<!-- Node8 -->
<g id="node7" class="node"><title>Node8</title>
<polygon fill="none" stroke="#bfbfbf" points="60,-315.5 60,-334.5 150,-334.5 150,-315.5 60,-315.5"/>
<text text-anchor="middle" x="105" y="-322.5" font-family="Helvetica,sans-Serif" font-size="10.00">Iterable&lt; Event &gt;</text>
</g>
<!-- Node8&#45;&gt;Node7 -->
<g id="edge7" class="edge"><title>Node8&#45;&gt;Node7</title>
<path fill="none" stroke="midnightblue" d="M105,-305.117C105,-295.817 105,-285.056 105,-277.715"/>
<polygon fill="midnightblue" stroke="midnightblue" points="101.5,-305.406 105,-315.406 108.5,-305.406 101.5,-305.406"/>
</g>
<!-- Node9 -->
<g id="node8" class="node"><title>Node9</title>
<g id="a_node8"><a xlink:href="classumontreal_1_1ssj_1_1simevents_1_1ContinuousState.html" target="_top" xlink:title="Represents the portion of the simulator’s state associated with continuous&#45;time simulation. ">
<polygon fill="none" stroke="black" points="151.5,-258.5 151.5,-277.5 240.5,-277.5 240.5,-258.5 151.5,-258.5"/>
<text text-anchor="middle" x="196" y="-265.5" font-family="Helvetica,sans-Serif" font-size="10.00">ContinuousState</text>
</a>
</g>
</g>
<!-- Node9&#45;&gt;Node6 -->
<g id="edge8" class="edge"><title>Node9&#45;&gt;Node6</title>
<path fill="none" stroke="#9a32cd" stroke-dasharray="5,2" d="M185.521,-249.535C177.97,-236.95 168.104,-220.507 162.176,-210.627"/>
<polygon fill="#9a32cd" stroke="#9a32cd" points="182.594,-251.46 190.74,-258.234 188.597,-247.858 182.594,-251.46"/>
<text text-anchor="middle" x="215" y="-232" font-family="Helvetica,sans-Serif" font-size="10.00"> continuousState</text>
</g>
</g>
</svg>
