<?xml version="1.0" encoding="UTF-8" standalone="no"?>
<!DOCTYPE svg PUBLIC "-//W3C//DTD SVG 1.1//EN"
 "http://www.w3.org/Graphics/SVG/1.1/DTD/svg11.dtd">
<!-- Generated by graphviz version 2.38.0 (20140413.2041)
 -->
<!-- Title: NormalInverseGaussianDist Pages: 1 -->
<svg width="148pt" height="140pt"
 viewBox="0.00 0.00 148.00 140.00" xmlns="http://www.w3.org/2000/svg" xmlns:xlink="http://www.w3.org/1999/xlink">
<g id="graph0" class="graph" transform="scale(1 1) rotate(0) translate(4 136)">
<title>NormalInverseGaussianDist</title>
<!-- Node1 -->
<g id="node1" class="node"><title>Node1</title>
<polygon fill="#bfbfbf" stroke="black" points="0,-0.5 0,-19.5 140,-19.5 140,-0.5 0,-0.5"/>
<text text-anchor="middle" x="70" y="-7.5" font-family="Helvetica,sans-Serif" font-size="10.00">NormalInverseGaussianDist</text>
</g>
<!-- Node2 -->
<g id="node2" class="node"><title>Node2</title>
<g id="a_node2"><a xlink:href="classumontreal_1_1ssj_1_1probdist_1_1ContinuousDistribution.html" target="_top" xlink:title="Classes implementing continuous distributions should inherit from this base class. ">
<polygon fill="none" stroke="black" points="12,-56.5 12,-75.5 128,-75.5 128,-56.5 12,-56.5"/>
<text text-anchor="middle" x="70" y="-63.5" font-family="Helvetica,sans-Serif" font-size="10.00">ContinuousDistribution</text>
</a>
</g>
</g>
<!-- Node2&#45;&gt;Node1 -->
<g id="edge1" class="edge"><title>Node2&#45;&gt;Node1</title>
<path fill="none" stroke="midnightblue" d="M70,-45.8045C70,-36.9102 70,-26.7798 70,-19.7511"/>
<polygon fill="midnightblue" stroke="midnightblue" points="66.5001,-46.083 70,-56.083 73.5001,-46.083 66.5001,-46.083"/>
</g>
<!-- Node3 -->
<g id="node3" class="node"><title>Node3</title>
<g id="a_node3"><a xlink:href="interfaceumontreal_1_1ssj_1_1probdist_1_1Distribution.html" target="_top" xlink:title="This interface should be implemented by all classes supporting discrete and continuous distributions...">
<polygon fill="none" stroke="black" points="37,-112.5 37,-131.5 103,-131.5 103,-112.5 37,-112.5"/>
<text text-anchor="middle" x="70" y="-119.5" font-family="Helvetica,sans-Serif" font-size="10.00">Distribution</text>
</a>
</g>
</g>
<!-- Node3&#45;&gt;Node2 -->
<g id="edge2" class="edge"><title>Node3&#45;&gt;Node2</title>
<path fill="none" stroke="midnightblue" d="M70,-101.805C70,-92.9102 70,-82.7798 70,-75.7511"/>
<polygon fill="midnightblue" stroke="midnightblue" points="66.5001,-102.083 70,-112.083 73.5001,-102.083 66.5001,-102.083"/>
</g>
</g>
</svg>
