<?xml version="1.0" encoding="UTF-8" standalone="no"?>
<!DOCTYPE svg PUBLIC "-//W3C//DTD SVG 1.1//EN"
 "http://www.w3.org/Graphics/SVG/1.1/DTD/svg11.dtd">
<!-- Generated by graphviz version 2.38.0 (20140413.2041)
 -->
<!-- Title: NormalInverseGaussianIGGen Pages: 1 -->
<svg width="158pt" height="140pt"
 viewBox="0.00 0.00 158.00 140.00" xmlns="http://www.w3.org/2000/svg" xmlns:xlink="http://www.w3.org/1999/xlink">
<g id="graph0" class="graph" transform="scale(1 1) rotate(0) translate(4 136)">
<title>NormalInverseGaussianIGGen</title>
<!-- Node1 -->
<g id="node1" class="node"><title>Node1</title>
<polygon fill="#bfbfbf" stroke="black" points="-1.42109e-14,-0.5 -1.42109e-14,-19.5 150,-19.5 150,-0.5 -1.42109e-14,-0.5"/>
<text text-anchor="middle" x="75" y="-7.5" font-family="Helvetica,sans-Serif" font-size="10.00">NormalInverseGaussianIGGen</text>
</g>
<!-- Node2 -->
<g id="node2" class="node"><title>Node2</title>
<g id="a_node2"><a xlink:href="classumontreal_1_1ssj_1_1randvar_1_1NormalInverseGaussianGen.html" target="_top" xlink:title="This class implements random variate generators for the normal inverse gaussian ( ) distribution...">
<polygon fill="none" stroke="black" points="5,-56.5 5,-75.5 145,-75.5 145,-56.5 5,-56.5"/>
<text text-anchor="middle" x="75" y="-63.5" font-family="Helvetica,sans-Serif" font-size="10.00">NormalInverseGaussianGen</text>
</a>
</g>
</g>
<!-- Node2&#45;&gt;Node1 -->
<g id="edge1" class="edge"><title>Node2&#45;&gt;Node1</title>
<path fill="none" stroke="midnightblue" d="M75,-45.8045C75,-36.9102 75,-26.7798 75,-19.7511"/>
<polygon fill="midnightblue" stroke="midnightblue" points="71.5001,-46.083 75,-56.083 78.5001,-46.083 71.5001,-46.083"/>
</g>
<!-- Node3 -->
<g id="node3" class="node"><title>Node3</title>
<g id="a_node3"><a xlink:href="classumontreal_1_1ssj_1_1randvar_1_1RandomVariateGen.html" target="_top" xlink:title="This is the base class for all random variate generators over the real line. ">
<polygon fill="none" stroke="black" points="24,-112.5 24,-131.5 126,-131.5 126,-112.5 24,-112.5"/>
<text text-anchor="middle" x="75" y="-119.5" font-family="Helvetica,sans-Serif" font-size="10.00">RandomVariateGen</text>
</a>
</g>
</g>
<!-- Node3&#45;&gt;Node2 -->
<g id="edge2" class="edge"><title>Node3&#45;&gt;Node2</title>
<path fill="none" stroke="midnightblue" d="M75,-101.805C75,-92.9102 75,-82.7798 75,-75.7511"/>
<polygon fill="midnightblue" stroke="midnightblue" points="71.5001,-102.083 75,-112.083 78.5001,-102.083 71.5001,-102.083"/>
</g>
</g>
</svg>
