<?xml version="1.0" encoding="UTF-8" standalone="no"?>
<!DOCTYPE svg PUBLIC "-//W3C//DTD SVG 1.1//EN"
 "http://www.w3.org/Graphics/SVG/1.1/DTD/svg11.dtd">
<!-- Generated by graphviz version 2.38.0 (20140413.2041)
 -->
<!-- Title: InverseGaussianProcessMSH Pages: 1 -->
<svg width="175pt" height="196pt"
 viewBox="0.00 0.00 175.00 196.00" xmlns="http://www.w3.org/2000/svg" xmlns:xlink="http://www.w3.org/1999/xlink">
<g id="graph0" class="graph" transform="scale(1 1) rotate(0) translate(4 192)">
<title>InverseGaussianProcessMSH</title>
<!-- Node1 -->
<g id="node1" class="node"><title>Node1</title>
<polygon fill="#bfbfbf" stroke="black" points="5,-56.5 5,-75.5 162,-75.5 162,-56.5 5,-56.5"/>
<text text-anchor="middle" x="83.5" y="-63.5" font-family="Helvetica,sans-Serif" font-size="10.00">InverseGaussianProcessMSH</text>
</g>
<!-- Node4 -->
<g id="node4" class="node"><title>Node4</title>
<g id="a_node4"><a xlink:href="classumontreal_1_1ssj_1_1stochprocess_1_1InverseGaussianProcessBridge.html" target="_top" xlink:title="Samples the path by bridge sampling: first finding the process value at the final time and then the m...">
<polygon fill="none" stroke="black" points="-1.42109e-14,-0.5 -1.42109e-14,-19.5 167,-19.5 167,-0.5 -1.42109e-14,-0.5"/>
<text text-anchor="middle" x="83.5" y="-7.5" font-family="Helvetica,sans-Serif" font-size="10.00">InverseGaussianProcessBridge</text>
</a>
</g>
</g>
<!-- Node1&#45;&gt;Node4 -->
<g id="edge3" class="edge"><title>Node1&#45;&gt;Node4</title>
<path fill="none" stroke="midnightblue" d="M83.5,-45.8045C83.5,-36.9102 83.5,-26.7798 83.5,-19.7511"/>
<polygon fill="midnightblue" stroke="midnightblue" points="80.0001,-46.083 83.5,-56.083 87.0001,-46.083 80.0001,-46.083"/>
</g>
<!-- Node2 -->
<g id="node2" class="node"><title>Node2</title>
<g id="a_node2"><a xlink:href="classumontreal_1_1ssj_1_1stochprocess_1_1InverseGaussianProcess.html" target="_top" xlink:title="The inverse Gaussian process is a non&#45;decreasing process where the increments are additive and are gi...">
<polygon fill="none" stroke="black" points="16,-112.5 16,-131.5 151,-131.5 151,-112.5 16,-112.5"/>
<text text-anchor="middle" x="83.5" y="-119.5" font-family="Helvetica,sans-Serif" font-size="10.00">InverseGaussianProcess</text>
</a>
</g>
</g>
<!-- Node2&#45;&gt;Node1 -->
<g id="edge1" class="edge"><title>Node2&#45;&gt;Node1</title>
<path fill="none" stroke="midnightblue" d="M83.5,-101.805C83.5,-92.9102 83.5,-82.7798 83.5,-75.7511"/>
<polygon fill="midnightblue" stroke="midnightblue" points="80.0001,-102.083 83.5,-112.083 87.0001,-102.083 80.0001,-102.083"/>
</g>
<!-- Node3 -->
<g id="node3" class="node"><title>Node3</title>
<g id="a_node3"><a xlink:href="classumontreal_1_1ssj_1_1stochprocess_1_1StochasticProcess.html" target="_top" xlink:title="Abstract base class for a stochastic process &#160;sampled (or observed) at a finite number of time points...">
<polygon fill="none" stroke="black" points="31.5,-168.5 31.5,-187.5 135.5,-187.5 135.5,-168.5 31.5,-168.5"/>
<text text-anchor="middle" x="83.5" y="-175.5" font-family="Helvetica,sans-Serif" font-size="10.00">StochasticProcess</text>
</a>
</g>
</g>
<!-- Node3&#45;&gt;Node2 -->
<g id="edge2" class="edge"><title>Node3&#45;&gt;Node2</title>
<path fill="none" stroke="midnightblue" d="M83.5,-157.805C83.5,-148.91 83.5,-138.78 83.5,-131.751"/>
<polygon fill="midnightblue" stroke="midnightblue" points="80.0001,-158.083 83.5,-168.083 87.0001,-158.083 80.0001,-158.083"/>
</g>
</g>
</svg>
