<?xml version="1.0" encoding="UTF-8" standalone="no"?>
<!DOCTYPE svg PUBLIC "-//W3C//DTD SVG 1.1//EN"
 "http://www.w3.org/Graphics/SVG/1.1/DTD/svg11.dtd">
<!-- Generated by graphviz version 2.38.0 (20140413.2041)
 -->
<!-- Title: AnovaVarianceCollector Pages: 1 -->
<svg width="662pt" height="145pt"
 viewBox="0.00 0.00 662.00 144.50" xmlns="http://www.w3.org/2000/svg" xmlns:xlink="http://www.w3.org/1999/xlink">
<g id="graph0" class="graph" transform="scale(1 1) rotate(0) translate(4 140.5)">
<title>AnovaVarianceCollector</title>
<!-- Node3 -->
<g id="node1" class="node"><title>Node3</title>
<polygon fill="#bfbfbf" stroke="black" points="532,-50 532,-69 654,-69 654,-50 532,-50"/>
<text text-anchor="middle" x="593" y="-57" font-family="Helvetica,sans-Serif" font-size="10.00">AnovaVarianceCollector</text>
</g>
<!-- Node4 -->
<g id="node2" class="node"><title>Node4</title>
<g id="a_node2"><a xlink:href="classumontreal_1_1ssj_1_1stat_1_1list_1_1ListOfTallies.html" target="_top" xlink:title="Represents a list of tally statistical collectors. ">
<polygon fill="none" stroke="black" points="251.5,-107 251.5,-126 406.5,-126 406.5,-107 251.5,-107"/>
<text text-anchor="middle" x="329" y="-114" font-family="Helvetica,sans-Serif" font-size="10.00">ListOfTallies&lt; PartialVariance &gt;</text>
</a>
</g>
</g>
<!-- Node4&#45;&gt;Node3 -->
<g id="edge1" class="edge"><title>Node4&#45;&gt;Node3</title>
<path fill="none" stroke="midnightblue" d="M412.382,-105.408C444.342,-100.38 481.099,-93.7026 514,-85.5 531.867,-81.0456 551.533,-74.4784 566.649,-69.0589"/>
<polygon fill="midnightblue" stroke="midnightblue" points="411.534,-101.998 402.186,-106.983 412.603,-108.916 411.534,-101.998"/>
</g>
<!-- Node5 -->
<g id="node3" class="node"><title>Node5</title>
<g id="a_node3"><a xlink:href="classumontreal_1_1ssj_1_1stat_1_1list_1_1ListOfStatProbes.html" target="_top" xlink:title="ListOfStatProbes\&lt; E \&gt;">
<polygon fill="none" stroke="black" points="0,-117 0,-136 116,-136 116,-117 0,-117"/>
<text text-anchor="middle" x="58" y="-124" font-family="Helvetica,sans-Serif" font-size="10.00">ListOfStatProbes&lt; E &gt;</text>
</a>
</g>
</g>
<!-- Node5&#45;&gt;Node4 -->
<g id="edge2" class="edge"><title>Node5&#45;&gt;Node4</title>
<path fill="none" stroke="midnightblue" d="M126.49,-123.991C164.465,-122.579 212.012,-120.812 251.382,-119.348"/>
<polygon fill="midnightblue" stroke="midnightblue" points="125.911,-120.51 116.048,-124.379 126.171,-127.505 125.911,-120.51"/>
</g>
<!-- Node6 -->
<g id="node4" class="node"><title>Node6</title>
<g id="a_node4"><a xlink:href="classumontreal_1_1ssj_1_1stat_1_1Tally.html" target="_top" xlink:title="A subclass of StatProbe. ">
<polygon fill="none" stroke="black" points="310,-50 310,-69 348,-69 348,-50 310,-50"/>
<text text-anchor="middle" x="329" y="-57" font-family="Helvetica,sans-Serif" font-size="10.00">Tally</text>
</a>
</g>
</g>
<!-- Node6&#45;&gt;Node3 -->
<g id="edge3" class="edge"><title>Node6&#45;&gt;Node3</title>
<path fill="none" stroke="#9a32cd" stroke-dasharray="5,2" d="M358.147,-59.5C399.399,-59.5 477.283,-59.5 531.793,-59.5"/>
<polygon fill="#9a32cd" stroke="#9a32cd" points="358.008,-56.0001 348.008,-59.5 358.008,-63.0001 358.008,-56.0001"/>
<text text-anchor="middle" x="477.5" y="-73.5" font-family="Helvetica,sans-Serif" font-size="10.00"> meanCorrection</text>
<text text-anchor="middle" x="477.5" y="-62.5" font-family="Helvetica,sans-Serif" font-size="10.00">totalVar</text>
</g>
<!-- Node7 -->
<g id="node5" class="node"><title>Node7</title>
<g id="a_node5"><a xlink:href="classumontreal_1_1ssj_1_1stat_1_1StatProbe.html" target="_top" xlink:title="The objects of this class are statistical probes or collectors, which are elementary devices for coll...">
<polygon fill="none" stroke="black" points="28,-79 28,-98 88,-98 88,-79 28,-79"/>
<text text-anchor="middle" x="58" y="-86" font-family="Helvetica,sans-Serif" font-size="10.00">StatProbe</text>
</a>
</g>
</g>
<!-- Node7&#45;&gt;Node6 -->
<g id="edge4" class="edge"><title>Node7&#45;&gt;Node6</title>
<path fill="none" stroke="midnightblue" d="M98.1051,-84.2842C157.139,-77.9199 266.7,-66.1086 309.856,-61.456"/>
<polygon fill="midnightblue" stroke="midnightblue" points="97.6105,-80.8172 88.0433,-85.3689 98.3609,-87.7768 97.6105,-80.8172"/>
</g>
<!-- Node8 -->
<g id="node6" class="node"><title>Node8</title>
<polygon fill="none" stroke="#bfbfbf" points="28,-41 28,-60 88,-60 88,-41 28,-41"/>
<text text-anchor="middle" x="58" y="-48" font-family="Helvetica,sans-Serif" font-size="10.00">Cloneable</text>
</g>
<!-- Node8&#45;&gt;Node6 -->
<g id="edge5" class="edge"><title>Node8&#45;&gt;Node6</title>
<path fill="none" stroke="midnightblue" d="M98.1051,-51.8083C157.139,-53.7835 266.7,-57.4491 309.856,-58.893"/>
<polygon fill="midnightblue" stroke="midnightblue" points="98.1548,-48.3081 88.0433,-51.4717 97.9206,-55.3042 98.1548,-48.3081"/>
</g>
<!-- Node9 -->
<g id="node7" class="node"><title>Node9</title>
<polygon fill="none" stroke="#bfbfbf" points="21.5,-3 21.5,-22 94.5,-22 94.5,-3 21.5,-3"/>
<text text-anchor="middle" x="58" y="-10" font-family="Helvetica,sans-Serif" font-size="10.00">Tally.CIType</text>
</g>
<!-- Node9&#45;&gt;Node6 -->
<g id="edge6" class="edge"><title>Node9&#45;&gt;Node6</title>
<path fill="none" stroke="#9a32cd" stroke-dasharray="5,2" d="M105.053,-19.7808C136.597,-24.8408 179.37,-31.8453 217,-38.5 249.832,-44.3063 288.008,-51.6616 309.952,-55.9483"/>
<polygon fill="#9a32cd" stroke="#9a32cd" points="105.237,-16.2659 94.8095,-18.1427 104.131,-23.178 105.237,-16.2659"/>
<text text-anchor="middle" x="175.5" y="-41.5" font-family="Helvetica,sans-Serif" font-size="10.00"> confidenceInterval</text>
</g>
<!-- Node10 -->
<g id="node8" class="node"><title>Node10</title>
<polygon fill="none" stroke="#bfbfbf" points="235,-0.5 235,-30.5 423,-30.5 423,-0.5 235,-0.5"/>
<text text-anchor="start" x="243" y="-18.5" font-family="Helvetica,sans-Serif" font-size="10.00">List&lt; umontreal.ssj.mcqmctools.anova.</text>
<text text-anchor="middle" x="329" y="-7.5" font-family="Helvetica,sans-Serif" font-size="10.00">AnovaObserver &gt;</text>
</g>
<!-- Node10&#45;&gt;Node3 -->
<g id="edge7" class="edge"><title>Node10&#45;&gt;Node3</title>
<path fill="none" stroke="#9a32cd" stroke-dasharray="5,2" d="M433.236,-31.1446C459.598,-35.3115 487.872,-39.93 514,-44.5 523.644,-46.1869 533.939,-48.0918 543.781,-49.9642"/>
<polygon fill="#9a32cd" stroke="#9a32cd" points="433.657,-27.6679 423.234,-29.5708 432.569,-34.5828 433.657,-27.6679"/>
<text text-anchor="middle" x="477.5" y="-47.5" font-family="Helvetica,sans-Serif" font-size="10.00"> observers</text>
</g>
</g>
</svg>
