<?xml version="1.0" encoding="UTF-8" standalone="no"?>
<!DOCTYPE svg PUBLIC "-//W3C//DTD SVG 1.1//EN"
 "http://www.w3.org/Graphics/SVG/1.1/DTD/svg11.dtd">
<!-- Generated by graphviz version 2.38.0 (20140413.2041)
 -->
<!-- Title: GeometricLevyProcess Pages: 1 -->
<svg width="125pt" height="95pt"
 viewBox="0.00 0.00 125.00 95.00" xmlns="http://www.w3.org/2000/svg" xmlns:xlink="http://www.w3.org/1999/xlink">
<g id="graph0" class="graph" transform="scale(1 1) rotate(0) translate(4 91)">
<title>GeometricLevyProcess</title>
<!-- Node3 -->
<g id="node1" class="node"><title>Node3</title>
<polygon fill="#bfbfbf" stroke="black" points="0,-0.5 0,-19.5 117,-19.5 117,-0.5 0,-0.5"/>
<text text-anchor="middle" x="58.5" y="-7.5" font-family="Helvetica,sans-Serif" font-size="10.00">GeometricLevyProcess</text>
</g>
<!-- Node4 -->
<g id="node2" class="node"><title>Node4</title>
<g id="a_node2"><a xlink:href="classumontreal_1_1ssj_1_1stochprocess_1_1StochasticProcess.html" target="_top" xlink:title="Abstract base class for a stochastic process &#160;sampled (or observed) at a finite number of time points...">
<polygon fill="none" stroke="black" points="9,-67.5 9,-86.5 108,-86.5 108,-67.5 9,-67.5"/>
<text text-anchor="middle" x="58.5" y="-74.5" font-family="Helvetica,sans-Serif" font-size="10.00">StochasticProcess</text>
</a>
</g>
</g>
<!-- Node4&#45;&gt;Node3 -->
<g id="edge1" class="edge"><title>Node4&#45;&gt;Node3</title>
<path fill="none" stroke="midnightblue" d="M56.9399,-57.3825C56.7572,-54.5753 56.6003,-51.7126 56.5,-49 56.1288,-38.9652 56.9035,-27.4502 57.5942,-19.7505"/>
<polygon fill="midnightblue" stroke="midnightblue" points="53.4607,-57.7906 57.7083,-67.4967 60.4406,-57.2602 53.4607,-57.7906"/>
</g>
<!-- Node4&#45;&gt;Node3 -->
<g id="edge2" class="edge"><title>Node4&#45;&gt;Node3</title>
<path fill="none" stroke="#9a32cd" stroke-dasharray="5,2" d="M58.5,-57.037C58.5,-44.6703 58.5,-29.1198 58.5,-19.6273"/>
<polygon fill="#9a32cd" stroke="#9a32cd" points="55.0001,-57.2338 58.5,-67.2338 62.0001,-57.2338 55.0001,-57.2338"/>
<text text-anchor="middle" x="86.5" y="-41" font-family="Helvetica,sans-Serif" font-size="10.00"> levyProcess</text>
</g>
</g>
</svg>
