<?xml version="1.0" encoding="UTF-8" standalone="no"?>
<!DOCTYPE svg PUBLIC "-//W3C//DTD SVG 1.1//EN"
 "http://www.w3.org/Graphics/SVG/1.1/DTD/svg11.dtd">
<!-- Generated by graphviz version 2.38.0 (20140413.2041)
 -->
<!-- Title: ArrayOfDoubleChains Pages: 1 -->
<svg width="448pt" height="365pt"
 viewBox="0.00 0.00 447.50 365.00" xmlns="http://www.w3.org/2000/svg" xmlns:xlink="http://www.w3.org/1999/xlink">
<g id="graph0" class="graph" transform="scale(1 1) rotate(0) translate(4 361)">
<title>ArrayOfDoubleChains</title>
<!-- Node1 -->
<g id="node1" class="node"><title>Node1</title>
<polygon fill="#bfbfbf" stroke="black" points="206,-0.5 206,-19.5 318,-19.5 318,-0.5 206,-0.5"/>
<text text-anchor="middle" x="262" y="-7.5" font-family="Helvetica,sans-Serif" font-size="10.00">ArrayOfDoubleChains</text>
</g>
<!-- Node2 -->
<g id="node2" class="node"><title>Node2</title>
<g id="a_node2"><a xlink:href="classumontreal_1_1ssj_1_1markovchainrqmc_1_1ArrayOfComparableChains_3_01T_01extends_01MarkovChainComparable_01_4.html" target="_top" xlink:title="This class provides tools to simulate an array of MarkovChainComparable objects with the array&#45;RQMC m...">
<polygon fill="none" stroke="black" points="67.5,-67.5 67.5,-97.5 258.5,-97.5 258.5,-67.5 67.5,-67.5"/>
<text text-anchor="start" x="75.5" y="-85.5" font-family="Helvetica,sans-Serif" font-size="10.00">ArrayOfComparableChains</text>
<text text-anchor="middle" x="163" y="-74.5" font-family="Helvetica,sans-Serif" font-size="10.00">&lt; T extends MarkovChainComparable &gt;</text>
</a>
</g>
</g>
<!-- Node2&#45;&gt;Node1 -->
<g id="edge1" class="edge"><title>Node2&#45;&gt;Node1</title>
<path fill="none" stroke="midnightblue" d="M191.222,-61.4028C210.57,-47.6242 235.276,-30.0306 249.796,-19.6911"/>
<polygon fill="midnightblue" stroke="midnightblue" points="189.15,-58.5815 183.034,-67.2333 193.21,-64.2835 189.15,-58.5815"/>
</g>
<!-- Node3 -->
<g id="node3" class="node"><title>Node3</title>
<g id="a_node3"><a xlink:href="interfaceumontreal_1_1ssj_1_1util_1_1sort_1_1MultiDimSort_3_01T_01_4.html" target="_top" xlink:title="This interface is meant to be implemented by certain multivariate sorting algorithms that sort object...">
<polygon fill="none" stroke="black" points="0,-145.5 0,-164.5 98,-164.5 98,-145.5 0,-145.5"/>
<text text-anchor="middle" x="49" y="-152.5" font-family="Helvetica,sans-Serif" font-size="10.00">MultiDimSort&lt; T &gt;</text>
</a>
</g>
</g>
<!-- Node3&#45;&gt;Node2 -->
<g id="edge2" class="edge"><title>Node3&#45;&gt;Node2</title>
<path fill="none" stroke="#9a32cd" stroke-dasharray="5,2" d="M71.6882,-139.969C91.5733,-127.672 120.332,-109.887 140.239,-97.5762"/>
<polygon fill="#9a32cd" stroke="#9a32cd" points="69.6428,-137.119 62.9786,-145.355 73.3246,-143.072 69.6428,-137.119"/>
<text text-anchor="middle" x="134" y="-119" font-family="Helvetica,sans-Serif" font-size="10.00"> savedSort</text>
</g>
<!-- Node4 -->
<g id="node4" class="node"><title>Node4</title>
<g id="a_node4"><a xlink:href="interfaceumontreal_1_1ssj_1_1hups_1_1PointSetRandomization.html" target="_top" xlink:title="This interface is used to randomize a umontreal.ssj.hups.PointSet. ">
<polygon fill="none" stroke="black" points="116.5,-145.5 116.5,-164.5 235.5,-164.5 235.5,-145.5 116.5,-145.5"/>
<text text-anchor="middle" x="176" y="-152.5" font-family="Helvetica,sans-Serif" font-size="10.00">PointSetRandomization</text>
</a>
</g>
</g>
<!-- Node4&#45;&gt;Node2 -->
<g id="edge3" class="edge"><title>Node4&#45;&gt;Node2</title>
<path fill="none" stroke="#9a32cd" stroke-dasharray="5,2" d="M172.54,-135.236C170.359,-123.408 167.588,-108.383 165.596,-97.5762"/>
<polygon fill="#9a32cd" stroke="#9a32cd" points="169.15,-136.156 174.406,-145.355 176.034,-134.886 169.15,-136.156"/>
<text text-anchor="middle" x="203" y="-119" font-family="Helvetica,sans-Serif" font-size="10.00"> randomization</text>
</g>
<!-- Node5 -->
<g id="node5" class="node"><title>Node5</title>
<g id="a_node5"><a xlink:href="classumontreal_1_1ssj_1_1markovchainrqmc_1_1MarkovChainDouble.html" target="_top" xlink:title="A special kind of Markov chain whose state space is a subset of the real numbers. ...">
<polygon fill="none" stroke="black" points="276.5,-73 276.5,-92 381.5,-92 381.5,-73 276.5,-73"/>
<text text-anchor="middle" x="329" y="-80" font-family="Helvetica,sans-Serif" font-size="10.00">MarkovChainDouble</text>
</a>
</g>
</g>
<!-- Node5&#45;&gt;Node1 -->
<g id="edge4" class="edge"><title>Node5&#45;&gt;Node1</title>
<path fill="none" stroke="#9a32cd" stroke-dasharray="5,2" d="M313.601,-65.2962C300.126,-51.1172 281.067,-31.0626 270.283,-19.7154"/>
<polygon fill="#9a32cd" stroke="#9a32cd" points="311.359,-68.0177 320.784,-72.8553 316.433,-63.1955 311.359,-68.0177"/>
<text text-anchor="middle" x="322" y="-41" font-family="Helvetica,sans-Serif" font-size="10.00"> baseChain</text>
</g>
<!-- Node6 -->
<g id="node6" class="node"><title>Node6</title>
<g id="a_node6"><a xlink:href="classumontreal_1_1ssj_1_1markovchainrqmc_1_1MarkovChainComparable.html" target="_top" xlink:title="A subclass of Markov chain for which there is a total ordering between the states in each dimension i...">
<polygon fill="none" stroke="black" points="265.5,-145.5 265.5,-164.5 392.5,-164.5 392.5,-145.5 265.5,-145.5"/>
<text text-anchor="middle" x="329" y="-152.5" font-family="Helvetica,sans-Serif" font-size="10.00">MarkovChainComparable</text>
</a>
</g>
</g>
<!-- Node6&#45;&gt;Node5 -->
<g id="edge5" class="edge"><title>Node6&#45;&gt;Node5</title>
<path fill="none" stroke="midnightblue" d="M329,-134.942C329,-121.03 329,-102.82 329,-92.2154"/>
<polygon fill="midnightblue" stroke="midnightblue" points="325.5,-135.355 329,-145.355 332.5,-135.355 325.5,-135.355"/>
</g>
<!-- Node7 -->
<g id="node7" class="node"><title>Node7</title>
<g id="a_node7"><a xlink:href="classumontreal_1_1ssj_1_1markovchainrqmc_1_1MarkovChain.html" target="_top" xlink:title="This class defines a generic Markov chain and provides basic tools to simulate it for a given number ...">
<polygon fill="none" stroke="black" points="202,-208 202,-227 276,-227 276,-208 202,-208"/>
<text text-anchor="middle" x="239" y="-215" font-family="Helvetica,sans-Serif" font-size="10.00">MarkovChain</text>
</a>
</g>
</g>
<!-- Node7&#45;&gt;Node6 -->
<g id="edge6" class="edge"><title>Node7&#45;&gt;Node6</title>
<path fill="none" stroke="midnightblue" d="M260.283,-202.193C277.634,-190.53 301.57,-174.439 316.129,-164.652"/>
<polygon fill="midnightblue" stroke="midnightblue" points="258.241,-199.348 251.895,-207.832 262.147,-205.158 258.241,-199.348"/>
</g>
<!-- Node8 -->
<g id="node8" class="node"><title>Node8</title>
<polygon fill="none" stroke="#bfbfbf" points="193,-280.5 193,-299.5 253,-299.5 253,-280.5 193,-280.5"/>
<text text-anchor="middle" x="223" y="-287.5" font-family="Helvetica,sans-Serif" font-size="10.00">Cloneable</text>
</g>
<!-- Node8&#45;&gt;Node7 -->
<g id="edge7" class="edge"><title>Node8&#45;&gt;Node7</title>
<path fill="none" stroke="midnightblue" d="M227.231,-270.358C230.4,-256.395 234.591,-237.926 237.022,-227.215"/>
<polygon fill="midnightblue" stroke="midnightblue" points="223.762,-269.829 224.962,-280.355 230.588,-271.378 223.762,-269.829"/>
</g>
<!-- Node9 -->
<g id="node9" class="node"><title>Node9</title>
<g id="a_node9"><a xlink:href="classumontreal_1_1ssj_1_1util_1_1Chrono.html" target="_top" xlink:title="The Chrono class extends the umontreal.ssj.util.AbstractChrono class and computes the CPU time for th...">
<polygon fill="none" stroke="black" points="271,-280.5 271,-299.5 319,-299.5 319,-280.5 271,-280.5"/>
<text text-anchor="middle" x="295" y="-287.5" font-family="Helvetica,sans-Serif" font-size="10.00">Chrono</text>
</a>
</g>
</g>
<!-- Node9&#45;&gt;Node7 -->
<g id="edge8" class="edge"><title>Node9&#45;&gt;Node7</title>
<path fill="none" stroke="#9a32cd" stroke-dasharray="5,2" d="M281.812,-272.397C270.569,-258.243 254.852,-238.457 245.923,-227.215"/>
<polygon fill="#9a32cd" stroke="#9a32cd" points="279.173,-274.702 288.133,-280.355 284.654,-270.348 279.173,-274.702"/>
<text text-anchor="middle" x="284.5" y="-254" font-family="Helvetica,sans-Serif" font-size="10.00"> timer</text>
</g>
<!-- Node10 -->
<g id="node10" class="node"><title>Node10</title>
<g id="a_node10"><a xlink:href="classumontreal_1_1ssj_1_1util_1_1AbstractChrono.html" target="_top" xlink:title="AbstractChrono is a class that acts as an interface to the system clock and calculates the CPU or sys...">
<polygon fill="none" stroke="black" points="252.5,-337.5 252.5,-356.5 337.5,-356.5 337.5,-337.5 252.5,-337.5"/>
<text text-anchor="middle" x="295" y="-344.5" font-family="Helvetica,sans-Serif" font-size="10.00">AbstractChrono</text>
</a>
</g>
</g>
<!-- Node10&#45;&gt;Node9 -->
<g id="edge9" class="edge"><title>Node10&#45;&gt;Node9</title>
<path fill="none" stroke="midnightblue" d="M295,-327.117C295,-317.817 295,-307.056 295,-299.715"/>
<polygon fill="midnightblue" stroke="midnightblue" points="291.5,-327.406 295,-337.406 298.5,-327.406 291.5,-327.406"/>
</g>
<!-- Node11 -->
<g id="node11" class="node"><title>Node11</title>
<polygon fill="none" stroke="#bfbfbf" points="294.5,-202.5 294.5,-232.5 439.5,-232.5 439.5,-202.5 294.5,-202.5"/>
<text text-anchor="start" x="302.5" y="-220.5" font-family="Helvetica,sans-Serif" font-size="10.00">MultiDimComparable</text>
<text text-anchor="middle" x="367" y="-209.5" font-family="Helvetica,sans-Serif" font-size="10.00">&lt; MarkovChainComparable &gt;</text>
</g>
<!-- Node11&#45;&gt;Node6 -->
<g id="edge10" class="edge"><title>Node11&#45;&gt;Node6</title>
<path fill="none" stroke="midnightblue" d="M352.814,-193.914C346.377,-183.665 339.15,-172.16 334.364,-164.54"/>
<polygon fill="midnightblue" stroke="midnightblue" points="349.904,-195.861 358.187,-202.468 355.831,-192.138 349.904,-195.861"/>
</g>
</g>
</svg>
