<?xml version="1.0" encoding="UTF-8" standalone="no"?>
<!DOCTYPE svg PUBLIC "-//W3C//DTD SVG 1.1//EN"
 "http://www.w3.org/Graphics/SVG/1.1/DTD/svg11.dtd">
<!-- Generated by graphviz version 2.38.0 (20140413.2041)
 -->
<!-- Title: AbstractChrono Pages: 1 -->
<svg width="568pt" height="84pt"
 viewBox="0.00 0.00 567.50 84.00" xmlns="http://www.w3.org/2000/svg" xmlns:xlink="http://www.w3.org/1999/xlink">
<g id="graph0" class="graph" transform="scale(1 1) rotate(0) translate(4 80)">
<title>AbstractChrono</title>
<!-- Node0 -->
<g id="node1" class="node"><title>Node0</title>
<polygon fill="#bfbfbf" stroke="black" points="203.5,-56.5 203.5,-75.5 287.5,-75.5 287.5,-56.5 203.5,-56.5"/>
<text text-anchor="middle" x="245.5" y="-63.5" font-family="Helvetica,sans-Serif" font-size="10.00">AbstractChrono</text>
</g>
<!-- Node1 -->
<g id="node2" class="node"><title>Node1</title>
<g id="a_node2"><a xlink:href="classumontreal_1_1ssj_1_1util_1_1Chrono.html" target="_top" xlink:title="The Chrono class extends the umontreal.ssj.util.AbstractChrono class and computes the CPU time for th...">
<polygon fill="none" stroke="black" points="0,-0.5 0,-19.5 47,-19.5 47,-0.5 0,-0.5"/>
<text text-anchor="middle" x="23.5" y="-7.5" font-family="Helvetica,sans-Serif" font-size="10.00">Chrono</text>
</a>
</g>
</g>
<!-- Node0&#45;&gt;Node1 -->
<g id="edge1" class="edge"><title>Node0&#45;&gt;Node1</title>
<path fill="none" stroke="midnightblue" d="M198.275,-54.2049C159.979,-45.3429 104.65,-32.2947 56.5,-20 53.508,-19.236 50.37,-18.4111 47.2686,-17.5815"/>
<polygon fill="midnightblue" stroke="midnightblue" points="197.586,-57.6376 208.117,-56.4768 199.16,-50.817 197.586,-57.6376"/>
</g>
<!-- Node2 -->
<g id="node3" class="node"><title>Node2</title>
<g id="a_node3"><a xlink:href="classumontreal_1_1ssj_1_1util_1_1ChronoSingleThread.html" target="_top" xlink:title="This class is deprecated but kept for compatibility with older versions of SSJ. ">
<polygon fill="none" stroke="black" points="65.5,-0.5 65.5,-19.5 169.5,-19.5 169.5,-0.5 65.5,-0.5"/>
<text text-anchor="middle" x="117.5" y="-7.5" font-family="Helvetica,sans-Serif" font-size="10.00">ChronoSingleThread</text>
</a>
</g>
</g>
<!-- Node0&#45;&gt;Node2 -->
<g id="edge2" class="edge"><title>Node0&#45;&gt;Node2</title>
<path fill="none" stroke="midnightblue" d="M215.877,-52.503C191.881,-42.3795 158.716,-28.388 137.687,-19.5164"/>
<polygon fill="midnightblue" stroke="midnightblue" points="214.644,-55.7813 225.218,-56.4435 217.365,-49.3317 214.644,-55.7813"/>
</g>
<!-- Node3 -->
<g id="node4" class="node"><title>Node3</title>
<g id="a_node4"><a xlink:href="classumontreal_1_1ssj_1_1util_1_1GlobalCPUTimeChrono.html" target="_top" xlink:title="Extends the AbstractChrono class to compute the global CPU time used by the Java Virtual Machine...">
<polygon fill="none" stroke="black" points="187.5,-0.5 187.5,-19.5 303.5,-19.5 303.5,-0.5 187.5,-0.5"/>
<text text-anchor="middle" x="245.5" y="-7.5" font-family="Helvetica,sans-Serif" font-size="10.00">GlobalCPUTimeChrono</text>
</a>
</g>
</g>
<!-- Node0&#45;&gt;Node3 -->
<g id="edge3" class="edge"><title>Node0&#45;&gt;Node3</title>
<path fill="none" stroke="midnightblue" d="M245.5,-45.8045C245.5,-36.9102 245.5,-26.7798 245.5,-19.7511"/>
<polygon fill="midnightblue" stroke="midnightblue" points="242,-46.083 245.5,-56.083 249,-46.083 242,-46.083"/>
</g>
<!-- Node4 -->
<g id="node5" class="node"><title>Node4</title>
<g id="a_node5"><a xlink:href="classumontreal_1_1ssj_1_1util_1_1SystemTimeChrono.html" target="_top" xlink:title="Extends the AbstractChrono class to compute the total system time using Java’s builtin System...">
<polygon fill="none" stroke="black" points="321.5,-0.5 321.5,-19.5 423.5,-19.5 423.5,-0.5 321.5,-0.5"/>
<text text-anchor="middle" x="372.5" y="-7.5" font-family="Helvetica,sans-Serif" font-size="10.00">SystemTimeChrono</text>
</a>
</g>
</g>
<!-- Node0&#45;&gt;Node4 -->
<g id="edge4" class="edge"><title>Node0&#45;&gt;Node4</title>
<path fill="none" stroke="midnightblue" d="M274.891,-52.503C298.7,-42.3795 331.606,-28.388 352.471,-19.5164"/>
<polygon fill="midnightblue" stroke="midnightblue" points="273.457,-49.3096 265.624,-56.4435 276.196,-55.7515 273.457,-49.3096"/>
</g>
<!-- Node5 -->
<g id="node6" class="node"><title>Node5</title>
<g id="a_node6"><a xlink:href="classumontreal_1_1ssj_1_1util_1_1ThreadCPUTimeChrono.html" target="_top" xlink:title="Extends the AbstractChrono class to compute the CPU time for a single thread. ">
<polygon fill="none" stroke="black" points="441.5,-0.5 441.5,-19.5 559.5,-19.5 559.5,-0.5 441.5,-0.5"/>
<text text-anchor="middle" x="500.5" y="-7.5" font-family="Helvetica,sans-Serif" font-size="10.00">ThreadCPUTimeChrono</text>
</a>
</g>
</g>
<!-- Node0&#45;&gt;Node5 -->
<g id="edge5" class="edge"><title>Node0&#45;&gt;Node5</title>
<path fill="none" stroke="midnightblue" d="M295.812,-54.3456C344.003,-44.1405 415.783,-28.94 460.284,-19.5164"/>
<polygon fill="midnightblue" stroke="midnightblue" points="294.963,-50.9477 285.906,-56.4435 296.414,-57.7958 294.963,-50.9477"/>
</g>
</g>
</svg>
