<?xml version="1.0" encoding="UTF-8" standalone="no"?>
<!DOCTYPE svg PUBLIC "-//W3C//DTD SVG 1.1//EN"
 "http://www.w3.org/Graphics/SVG/1.1/DTD/svg11.dtd">
<!-- Generated by graphviz version 2.38.0 (20140413.2041)
 -->
<!-- Title: QQPlot Pages: 1 -->
<svg width="312pt" height="287pt"
 viewBox="0.00 0.00 311.50 287.00" xmlns="http://www.w3.org/2000/svg" xmlns:xlink="http://www.w3.org/1999/xlink">
<g id="graph0" class="graph" transform="scale(1 1) rotate(0) translate(4 283)">
<title>QQPlot</title>
<!-- Node1 -->
<g id="node1" class="node"><title>Node1</title>
<polygon fill="#bfbfbf" stroke="black" points="79.5,-0.5 79.5,-19.5 129.5,-19.5 129.5,-0.5 79.5,-0.5"/>
<text text-anchor="middle" x="104.5" y="-7.5" font-family="Helvetica,sans-Serif" font-size="10.00">QQPlot</text>
</g>
<!-- Node2 -->
<g id="node2" class="node"><title>Node2</title>
<g id="a_node2"><a xlink:href="classumontreal_1_1ssj_1_1charts_1_1XYLineChart.html" target="_top" xlink:title="This class provides tools to create and manage curve plots. ">
<polygon fill="none" stroke="black" points="66.5,-57.5 66.5,-76.5 142.5,-76.5 142.5,-57.5 66.5,-57.5"/>
<text text-anchor="middle" x="104.5" y="-64.5" font-family="Helvetica,sans-Serif" font-size="10.00">XYLineChart</text>
</a>
</g>
</g>
<!-- Node2&#45;&gt;Node1 -->
<g id="edge1" class="edge"><title>Node2&#45;&gt;Node1</title>
<path fill="none" stroke="midnightblue" d="M104.5,-47.1166C104.5,-37.8173 104.5,-27.0557 104.5,-19.7149"/>
<polygon fill="midnightblue" stroke="midnightblue" points="101,-47.4062 104.5,-57.4062 108,-47.4063 101,-47.4062"/>
</g>
<!-- Node3 -->
<g id="node3" class="node"><title>Node3</title>
<g id="a_node3"><a xlink:href="classumontreal_1_1ssj_1_1charts_1_1XYChart.html" target="_top" xlink:title="This class provides tools to create charts from data in a simple way. ">
<polygon fill="none" stroke="black" points="76.5,-114.5 76.5,-133.5 132.5,-133.5 132.5,-114.5 76.5,-114.5"/>
<text text-anchor="middle" x="104.5" y="-121.5" font-family="Helvetica,sans-Serif" font-size="10.00">XYChart</text>
</a>
</g>
</g>
<!-- Node3&#45;&gt;Node2 -->
<g id="edge2" class="edge"><title>Node3&#45;&gt;Node2</title>
<path fill="none" stroke="midnightblue" d="M104.5,-104.117C104.5,-94.8173 104.5,-84.0557 104.5,-76.7149"/>
<polygon fill="midnightblue" stroke="midnightblue" points="101,-104.406 104.5,-114.406 108,-104.406 101,-104.406"/>
</g>
<!-- Node4 -->
<g id="node4" class="node"><title>Node4</title>
<polygon fill="none" stroke="#bfbfbf" points="0,-192.5 0,-211.5 67,-211.5 67,-192.5 0,-192.5"/>
<text text-anchor="middle" x="33.5" y="-199.5" font-family="Helvetica,sans-Serif" font-size="10.00">JFreeChart</text>
</g>
<!-- Node4&#45;&gt;Node3 -->
<g id="edge3" class="edge"><title>Node4&#45;&gt;Node3</title>
<path fill="none" stroke="#9a32cd" stroke-dasharray="5,2" d="M45.6187,-184.128C52.9558,-174.35 62.7537,-162.029 72.5,-152 78.883,-145.432 86.7346,-138.788 93.063,-133.735"/>
<polygon fill="#9a32cd" stroke="#9a32cd" points="42.7479,-182.124 39.6443,-192.254 48.3877,-186.271 42.7479,-182.124"/>
<text text-anchor="middle" x="86.5" y="-160.5" font-family="Helvetica,sans-Serif" font-size="10.00"> chart</text>
</g>
<!-- Node5 -->
<g id="node5" class="node"><title>Node5</title>
<g id="a_node5"><a xlink:href="classumontreal_1_1ssj_1_1charts_1_1Axis.html" target="_top" xlink:title="Represents an axis of a chart encapsulated by an instance of XYChart. ">
<polygon fill="none" stroke="black" points="85.5,-192.5 85.5,-211.5 123.5,-211.5 123.5,-192.5 85.5,-192.5"/>
<text text-anchor="middle" x="104.5" y="-199.5" font-family="Helvetica,sans-Serif" font-size="10.00">Axis</text>
</a>
</g>
</g>
<!-- Node5&#45;&gt;Node3 -->
<g id="edge4" class="edge"><title>Node5&#45;&gt;Node3</title>
<path fill="none" stroke="#9a32cd" stroke-dasharray="5,2" d="M104.5,-182.224C104.5,-166.697 104.5,-145.358 104.5,-133.616"/>
<polygon fill="#9a32cd" stroke="#9a32cd" points="101,-182.282 104.5,-192.282 108,-182.282 101,-182.282"/>
<text text-anchor="middle" x="120" y="-166" font-family="Helvetica,sans-Serif" font-size="10.00"> XAxis</text>
<text text-anchor="middle" x="120" y="-155" font-family="Helvetica,sans-Serif" font-size="10.00">YAxis</text>
</g>
<!-- Node6 -->
<g id="node6" class="node"><title>Node6</title>
<g id="a_node6"><a xlink:href="classumontreal_1_1ssj_1_1charts_1_1SSJXYSeriesCollection.html" target="_top" xlink:title="Stores data used in a XYChart. ">
<polygon fill="none" stroke="black" points="142,-192.5 142,-211.5 265,-211.5 265,-192.5 142,-192.5"/>
<text text-anchor="middle" x="203.5" y="-199.5" font-family="Helvetica,sans-Serif" font-size="10.00">SSJXYSeriesCollection</text>
</a>
</g>
</g>
<!-- Node6&#45;&gt;Node3 -->
<g id="edge5" class="edge"><title>Node6&#45;&gt;Node3</title>
<path fill="none" stroke="#9a32cd" stroke-dasharray="5,2" d="M184.157,-186.15C163.77,-170.5 132.356,-146.384 115.724,-133.616"/>
<polygon fill="#9a32cd" stroke="#9a32cd" points="182.08,-188.969 192.143,-192.282 186.343,-183.416 182.08,-188.969"/>
<text text-anchor="middle" x="186.5" y="-160.5" font-family="Helvetica,sans-Serif" font-size="10.00"> dataset</text>
</g>
<!-- Node7 -->
<g id="node7" class="node"><title>Node7</title>
<polygon fill="none" stroke="#bfbfbf" points="116.5,-259.5 116.5,-278.5 184.5,-278.5 184.5,-259.5 116.5,-259.5"/>
<text text-anchor="middle" x="150.5" y="-266.5" font-family="Helvetica,sans-Serif" font-size="10.00">XYDataset</text>
</g>
<!-- Node7&#45;&gt;Node6 -->
<g id="edge6" class="edge"><title>Node7&#45;&gt;Node6</title>
<path fill="none" stroke="#9a32cd" stroke-dasharray="5,2" d="M144.629,-249.345C143.661,-242.8 143.938,-235.673 147.5,-230 152.838,-221.5 161.689,-215.612 170.795,-211.561"/>
<polygon fill="#9a32cd" stroke="#9a32cd" points="141.32,-250.553 147.073,-259.45 148.124,-248.908 141.32,-250.553"/>
<text text-anchor="middle" x="188.5" y="-233" font-family="Helvetica,sans-Serif" font-size="10.00"> seriesCollection</text>
</g>
<!-- Node8 -->
<g id="node8" class="node"><title>Node8</title>
<polygon fill="none" stroke="#bfbfbf" points="207.5,-259.5 207.5,-278.5 303.5,-278.5 303.5,-259.5 207.5,-259.5"/>
<text text-anchor="middle" x="255.5" y="-266.5" font-family="Helvetica,sans-Serif" font-size="10.00">XYItemRenderer</text>
</g>
<!-- Node8&#45;&gt;Node6 -->
<g id="edge7" class="edge"><title>Node8&#45;&gt;Node6</title>
<path fill="none" stroke="#9a32cd" stroke-dasharray="5,2" d="M246.81,-250.387C243.132,-243.7 238.533,-236.206 233.5,-230 227.939,-223.143 220.585,-216.495 214.549,-211.511"/>
<polygon fill="#9a32cd" stroke="#9a32cd" points="243.76,-252.108 251.481,-259.363 249.969,-248.877 243.76,-252.108"/>
<text text-anchor="middle" x="263" y="-233" font-family="Helvetica,sans-Serif" font-size="10.00"> renderer</text>
</g>
</g>
</svg>
