<?xml version="1.0" encoding="UTF-8" standalone="no"?>
<!DOCTYPE svg PUBLIC "-//W3C//DTD SVG 1.1//EN"
 "http://www.w3.org/Graphics/SVG/1.1/DTD/svg11.dtd">
<!-- Generated by graphviz version 2.38.0 (20140413.2041)
 -->
<!-- Title: DoublyLinked Pages: 1 -->
<svg width="367pt" height="355pt"
 viewBox="0.00 0.00 367.00 355.00" xmlns="http://www.w3.org/2000/svg" xmlns:xlink="http://www.w3.org/1999/xlink">
<g id="graph0" class="graph" transform="scale(1 1) rotate(0) translate(4 351)">
<title>DoublyLinked</title>
<!-- Node1 -->
<g id="node1" class="node"><title>Node1</title>
<polygon fill="#bfbfbf" stroke="black" points="254.5,-0.5 254.5,-19.5 337.5,-19.5 337.5,-0.5 254.5,-0.5"/>
<text text-anchor="middle" x="296" y="-7.5" font-family="Helvetica,sans-Serif" font-size="10.00">DoublyLinked</text>
</g>
<!-- Node2 -->
<g id="node2" class="node"><title>Node2</title>
<g id="a_node2"><a xlink:href="interfaceumontreal_1_1ssj_1_1simevents_1_1eventlist_1_1EventList.html" target="_top" xlink:title="An interface for implementations of event lists. ">
<polygon fill="none" stroke="black" points="276,-270.5 276,-289.5 338,-289.5 338,-270.5 276,-270.5"/>
<text text-anchor="middle" x="307" y="-277.5" font-family="Helvetica,sans-Serif" font-size="10.00">EventList</text>
</a>
</g>
</g>
<!-- Node2&#45;&gt;Node1 -->
<g id="edge1" class="edge"><title>Node2&#45;&gt;Node1</title>
<path fill="none" stroke="midnightblue" d="M320.455,-262.337C329.206,-249.811 339,-231.814 339,-214 339,-214 339,-214 339,-77 339,-53.2043 319.135,-31.2656 306.409,-19.6524"/>
<polygon fill="midnightblue" stroke="midnightblue" points="317.605,-260.304 314.422,-270.41 323.212,-264.495 317.605,-260.304"/>
</g>
<!-- Node7 -->
<g id="node7" class="node"><title>Node7</title>
<g id="a_node7"><a xlink:href="classumontreal_1_1ssj_1_1simevents_1_1Simulator.html" target="_top" xlink:title="Represents the executive of a discrete&#45;event simulator. ">
<polygon fill="none" stroke="black" points="144,-203.5 144,-222.5 208,-222.5 208,-203.5 144,-203.5"/>
<text text-anchor="middle" x="176" y="-210.5" font-family="Helvetica,sans-Serif" font-size="10.00">Simulator</text>
</a>
</g>
</g>
<!-- Node2&#45;&gt;Node7 -->
<g id="edge8" class="edge"><title>Node2&#45;&gt;Node7</title>
<path fill="none" stroke="#9a32cd" stroke-dasharray="5,2" d="M288.375,-263.963C278.326,-256.359 265.457,-247.41 253,-241 238.262,-233.417 220.912,-227.125 206.416,-222.529"/>
<polygon fill="#9a32cd" stroke="#9a32cd" points="286.356,-266.826 296.399,-270.201 290.652,-261.3 286.356,-266.826"/>
<text text-anchor="middle" x="294.5" y="-244" font-family="Helvetica,sans-Serif" font-size="10.00"> eventList</text>
</g>
<!-- Node3 -->
<g id="node3" class="node"><title>Node3</title>
<polygon fill="none" stroke="#bfbfbf" points="255,-327.5 255,-346.5 359,-346.5 359,-327.5 255,-327.5"/>
<text text-anchor="middle" x="307" y="-334.5" font-family="Helvetica,sans-Serif" font-size="10.00">Iterable&lt; Event &gt;</text>
</g>
<!-- Node3&#45;&gt;Node2 -->
<g id="edge2" class="edge"><title>Node3&#45;&gt;Node2</title>
<path fill="none" stroke="midnightblue" d="M307,-317.117C307,-307.817 307,-297.056 307,-289.715"/>
<polygon fill="midnightblue" stroke="midnightblue" points="303.5,-317.406 307,-327.406 310.5,-317.406 303.5,-317.406"/>
</g>
<!-- Node4 -->
<g id="node4" class="node"><title>Node4</title>
<polygon fill="none" stroke="#bfbfbf" points="147,-68.5 147,-87.5 259,-87.5 259,-68.5 147,-68.5"/>
<text text-anchor="middle" x="203" y="-75.5" font-family="Helvetica,sans-Serif" font-size="10.00">DoublyLinked.Node</text>
</g>
<!-- Node4&#45;&gt;Node1 -->
<g id="edge3" class="edge"><title>Node4&#45;&gt;Node1</title>
<path fill="none" stroke="#9a32cd" stroke-dasharray="5,2" d="M223.495,-62.4551C241.971,-49.3431 268.52,-30.5016 283.839,-19.6305"/>
<polygon fill="#9a32cd" stroke="#9a32cd" points="221.288,-59.7299 215.158,-68.3717 225.339,-65.4384 221.288,-59.7299"/>
<text text-anchor="middle" x="268" y="-41" font-family="Helvetica,sans-Serif" font-size="10.00"> last</text>
</g>
<!-- Node4&#45;&gt;Node4 -->
<g id="edge10" class="edge"><title>Node4&#45;&gt;Node4</title>
<path fill="none" stroke="#9a32cd" stroke-dasharray="5,2" d="M269.399,-82.6737C274.118,-81.6123 277,-80.0544 277,-78 277,-74.7129 269.622,-72.697 259.146,-71.9522"/>
<polygon fill="#9a32cd" stroke="#9a32cd" points="268.593,-79.2503 259.146,-84.0478 269.522,-86.1883 268.593,-79.2503"/>
<text text-anchor="middle" x="289.5" y="-81" font-family="Helvetica,sans-Serif" font-size="10.00"> prec</text>
<text text-anchor="middle" x="289.5" y="-70" font-family="Helvetica,sans-Serif" font-size="10.00">succ</text>
</g>
<!-- Node5 -->
<g id="node5" class="node"><title>Node5</title>
<g id="a_node5"><a xlink:href="classumontreal_1_1ssj_1_1simevents_1_1Event.html" target="_top" xlink:title="This abstract class provides event scheduling tools. ">
<polygon fill="none" stroke="black" points="154,-136.5 154,-155.5 198,-155.5 198,-136.5 154,-136.5"/>
<text text-anchor="middle" x="176" y="-143.5" font-family="Helvetica,sans-Serif" font-size="10.00">Event</text>
</a>
</g>
</g>
<!-- Node5&#45;&gt;Node4 -->
<g id="edge4" class="edge"><title>Node5&#45;&gt;Node4</title>
<path fill="none" stroke="#9a32cd" stroke-dasharray="5,2" d="M183.443,-126.807C188.631,-114.124 195.325,-97.7615 199.383,-87.8411"/>
<polygon fill="#9a32cd" stroke="#9a32cd" points="180.077,-125.791 179.53,-136.372 186.556,-128.441 180.077,-125.791"/>
<text text-anchor="middle" x="200" y="-110" font-family="Helvetica,sans-Serif" font-size="10.00"> ev</text>
</g>
<!-- Node6 -->
<g id="node6" class="node"><title>Node6</title>
<polygon fill="none" stroke="#bfbfbf" points="0,-203.5 0,-222.5 126,-222.5 126,-203.5 0,-203.5"/>
<text text-anchor="middle" x="63" y="-210.5" font-family="Helvetica,sans-Serif" font-size="10.00">Comparable&lt; Event &gt;</text>
</g>
<!-- Node6&#45;&gt;Node5 -->
<g id="edge5" class="edge"><title>Node6&#45;&gt;Node5</title>
<path fill="none" stroke="midnightblue" d="M87.1384,-198.115C109.526,-185.237 142.142,-166.476 161.002,-155.627"/>
<polygon fill="midnightblue" stroke="midnightblue" points="85.1628,-195.214 78.2397,-203.234 88.6531,-201.281 85.1628,-195.214"/>
</g>
<!-- Node7&#45;&gt;Node5 -->
<g id="edge6" class="edge"><title>Node7&#45;&gt;Node5</title>
<path fill="none" stroke="#9a32cd" stroke-dasharray="5,2" d="M176,-193.037C176,-180.67 176,-165.12 176,-155.627"/>
<polygon fill="#9a32cd" stroke="#9a32cd" points="172.5,-193.234 176,-203.234 179.5,-193.234 172.5,-193.234"/>
<text text-anchor="middle" x="187" y="-177" font-family="Helvetica,sans-Serif" font-size="10.00"> sim</text>
</g>
<!-- Node7&#45;&gt;Node7 -->
<g id="edge7" class="edge"><title>Node7&#45;&gt;Node7</title>
<path fill="none" stroke="#9a32cd" stroke-dasharray="5,2" d="M218.222,-218.066C222.945,-217.111 226,-215.422 226,-213 226,-209.125 218.179,-207.127 208.22,-207.006"/>
<polygon fill="#9a32cd" stroke="#9a32cd" points="217.854,-214.585 208.22,-218.994 218.501,-221.555 217.854,-214.585"/>
<text text-anchor="middle" x="268.5" y="-210.5" font-family="Helvetica,sans-Serif" font-size="10.00"> defaultSimulator</text>
</g>
<!-- Node8 -->
<g id="node8" class="node"><title>Node8</title>
<g id="a_node8"><a xlink:href="classumontreal_1_1ssj_1_1simevents_1_1ContinuousState.html" target="_top" xlink:title="Represents the portion of the simulator’s state associated with continuous&#45;time simulation. ">
<polygon fill="none" stroke="black" points="121.5,-270.5 121.5,-289.5 218.5,-289.5 218.5,-270.5 121.5,-270.5"/>
<text text-anchor="middle" x="170" y="-277.5" font-family="Helvetica,sans-Serif" font-size="10.00">ContinuousState</text>
</a>
</g>
</g>
<!-- Node8&#45;&gt;Node7 -->
<g id="edge9" class="edge"><title>Node8&#45;&gt;Node7</title>
<path fill="none" stroke="#9a32cd" stroke-dasharray="5,2" d="M169.912,-260.214C170.038,-254.076 170.345,-247.235 171,-241 171.638,-234.931 172.888,-228.181 173.978,-222.949"/>
<polygon fill="#9a32cd" stroke="#9a32cd" points="166.412,-260.196 169.842,-270.221 173.411,-260.245 166.412,-260.196"/>
<text text-anchor="middle" x="212" y="-244" font-family="Helvetica,sans-Serif" font-size="10.00"> continuousState</text>
</g>
</g>
</svg>
