<?xml version="1.0" encoding="UTF-8" standalone="no"?>
<!DOCTYPE svg PUBLIC "-//W3C//DTD SVG 1.1//EN"
 "http://www.w3.org/Graphics/SVG/1.1/DTD/svg11.dtd">
<!-- Generated by graphviz version 2.26.3 (20100126.1600)
 -->
<!-- Title: ShiftedMathFunction Pages: 1 -->
<svg width="426pt" height="167pt"
 viewBox="0.00 0.00 426.00 167.22" xmlns="http://www.w3.org/2000/svg" xmlns:xlink="http://www.w3.org/1999/xlink">
<g id="graph1" class="graph" transform="scale(1 1) rotate(0) translate(4 163.215)">
<title>ShiftedMathFunction</title>
<!-- Node1 -->
<g id="node1" class="node"><title>Node1</title>
<polygon fill="#bfbfbf" stroke="black" points="310.5,-76 310.5,-96 417.5,-96 417.5,-76 310.5,-76"/>
<text text-anchor="middle" x="364" y="-83" font-family="Helvetica,sans-Serif" font-size="10.00">ShiftedMathFunction</text>
</g>
<!-- Node2 -->
<g id="node2" class="node"><title>Node2</title>
<a xlink:href="interfaceumontreal_1_1ssj_1_1functions_1_1MathFunction.html" target="_top" xlink:title="This interface should be implemented by classes which represent univariate mathematical functions...">
<polygon fill="none" stroke="black" points="0,-76 0,-96 76,-96 76,-76 0,-76"/>
<text text-anchor="middle" x="38" y="-83" font-family="Helvetica,sans-Serif" font-size="10.00">MathFunction</text>
</a>
</g>
<!-- Node2&#45;&gt;Node1 -->
<g id="edge2" class="edge"><title>Node2&#45;&gt;Node1</title>
<path fill="none" stroke="midnightblue" d="M49.8033,-104.596C59.761,-118.548 75.355,-136.768 94,-146 117.991,-157.879 -78.6991,-165.491 272,-148 280.922,-147.555 283.762,-149.456 292,-146 318.708,-134.796 343.084,-110.165 355.459,-96.1956"/>
<polygon fill="midnightblue" stroke="midnightblue" points="52.6069,-102.494 44.0981,-96.1815 46.8131,-106.423 52.6069,-102.494"/>
</g>
<!-- Node2&#45;&gt;Node1 -->
<g id="edge16" class="edge"><title>Node2&#45;&gt;Node1</title>
<path fill="none" stroke="#9a32cd" stroke-dasharray="5,2" d="M80.293,-98.5198C91.1781,-101.203 102.942,-103.639 114,-105 183.696,-113.58 202.142,-112.138 272,-105 289.361,-103.226 308.281,-99.6158 324.424,-96.0141"/>
<polygon fill="#9a32cd" stroke="#9a32cd" points="81.1468,-95.1255 70.589,-96.0099 79.394,-101.903 81.1468,-95.1255"/>
<text text-anchor="middle" x="193" y="-113" font-family="Helvetica,sans-Serif" font-size="10.00"> func</text>
</g>
<!-- Node3 -->
<g id="node4" class="node"><title>Node3</title>
<a xlink:href="interfaceumontreal_1_1ssj_1_1functions_1_1MathFunctionWithFirstDerivative.html" target="_top" xlink:title="Represents a mathematical function whose derivative can be computed using derivative(double). ">
<polygon fill="none" stroke="black" points="114,-76 114,-96 272,-96 272,-76 114,-76"/>
<text text-anchor="middle" x="193" y="-83" font-family="Helvetica,sans-Serif" font-size="10.00">MathFunctionWithFirstDerivative</text>
</a>
</g>
<!-- Node2&#45;&gt;Node3 -->
<g id="edge6" class="edge"><title>Node2&#45;&gt;Node3</title>
<path fill="none" stroke="midnightblue" d="M86.3325,-86C95.1239,-86 104.502,-86 113.911,-86"/>
<polygon fill="midnightblue" stroke="midnightblue" points="86.3147,-82.5001 76.3146,-86 86.3146,-89.5001 86.3147,-82.5001"/>
</g>
<!-- Node4 -->
<g id="node7" class="node"><title>Node4</title>
<a xlink:href="interfaceumontreal_1_1ssj_1_1functions_1_1MathFunctionWithDerivative.html" target="_top" xlink:title="Represents a mathematical function whose th derivative can be computed using derivative(double,int). ">
<polygon fill="none" stroke="black" points="123.5,-38 123.5,-58 262.5,-58 262.5,-38 123.5,-38"/>
<text text-anchor="middle" x="193" y="-45" font-family="Helvetica,sans-Serif" font-size="10.00">MathFunctionWithDerivative</text>
</a>
</g>
<!-- Node2&#45;&gt;Node4 -->
<g id="edge10" class="edge"><title>Node2&#45;&gt;Node4</title>
<path fill="none" stroke="midnightblue" d="M86.1087,-73.9037C95.3615,-71.5968 104.979,-69.2125 114,-67 125.919,-64.0768 138.861,-60.9461 150.754,-58.0865"/>
<polygon fill="midnightblue" stroke="midnightblue" points="85.1103,-70.5455 76.2568,-76.3648 86.8069,-77.3368 85.1103,-70.5455"/>
</g>
<!-- Node5 -->
<g id="node10" class="node"><title>Node5</title>
<a xlink:href="interfaceumontreal_1_1ssj_1_1functions_1_1MathFunctionWithIntegral.html" target="_top" xlink:title="Represents a mathematical function whose integral can be computed by the integral(double,double) method. ">
<polygon fill="none" stroke="black" points="129,-0 129,-20 257,-20 257,-0 129,-0"/>
<text text-anchor="middle" x="193" y="-7" font-family="Helvetica,sans-Serif" font-size="10.00">MathFunctionWithIntegral</text>
</a>
</g>
<!-- Node2&#45;&gt;Node5 -->
<g id="edge14" class="edge"><title>Node2&#45;&gt;Node5</title>
<path fill="none" stroke="midnightblue" d="M56.1328,-69.0062C70.7181,-56.2214 92.2929,-39.213 114,-29 121.659,-25.3967 130.067,-22.4388 138.452,-20.0216"/>
<polygon fill="midnightblue" stroke="midnightblue" points="53.4957,-66.6709 48.4047,-75.9624 58.1788,-71.8736 53.4957,-66.6709"/>
</g>
<!-- Node3&#45;&gt;Node1 -->
<g id="edge4" class="edge"><title>Node3&#45;&gt;Node1</title>
<path fill="none" stroke="midnightblue" d="M282.656,-86C292.019,-86 301.314,-86 310.093,-86"/>
<polygon fill="midnightblue" stroke="midnightblue" points="282.493,-82.5001 272.493,-86 282.493,-89.5001 282.493,-82.5001"/>
</g>
<!-- Node4&#45;&gt;Node1 -->
<g id="edge8" class="edge"><title>Node4&#45;&gt;Node1</title>
<path fill="none" stroke="midnightblue" d="M248.246,-60.2769C271.022,-65.3383 297.087,-71.1304 318.709,-75.9353"/>
<polygon fill="midnightblue" stroke="midnightblue" points="248.897,-56.8363 238.376,-58.0835 247.379,-63.6696 248.897,-56.8363"/>
</g>
<!-- Node5&#45;&gt;Node1 -->
<g id="edge12" class="edge"><title>Node5&#45;&gt;Node1</title>
<path fill="none" stroke="midnightblue" d="M255.007,-22.8969C260.832,-24.7087 266.579,-26.7377 272,-29 301.998,-41.519 333.466,-63.1486 350.718,-75.858"/>
<polygon fill="midnightblue" stroke="midnightblue" points="255.755,-19.4698 245.176,-20.0501 253.808,-26.1936 255.755,-19.4698"/>
</g>
</g>
</svg>
