<?xml version="1.0" encoding="UTF-8" standalone="no"?>
<!DOCTYPE svg PUBLIC "-//W3C//DTD SVG 1.1//EN"
 "http://www.w3.org/Graphics/SVG/1.1/DTD/svg11.dtd">
<!-- Generated by graphviz version 2.38.0 (20140413.2041)
 -->
<!-- Title: TallyStore Pages: 1 -->
<svg width="243pt" height="152pt"
 viewBox="0.00 0.00 243.00 152.00" xmlns="http://www.w3.org/2000/svg" xmlns:xlink="http://www.w3.org/1999/xlink">
<g id="graph0" class="graph" transform="scale(1 1) rotate(0) translate(4 148)">
<title>TallyStore</title>
<!-- Node4 -->
<g id="node1" class="node"><title>Node4</title>
<polygon fill="#bfbfbf" stroke="black" points="78,-0.5 78,-19.5 138,-19.5 138,-0.5 78,-0.5"/>
<text text-anchor="middle" x="108" y="-7.5" font-family="Helvetica,sans-Serif" font-size="10.00">TallyStore</text>
</g>
<!-- Node5 -->
<g id="node2" class="node"><title>Node5</title>
<g id="a_node2"><a xlink:href="classumontreal_1_1ssj_1_1stat_1_1Tally.html" target="_top" xlink:title="A subclass of StatProbe. ">
<polygon fill="none" stroke="black" points="89.5,-57.5 89.5,-76.5 126.5,-76.5 126.5,-57.5 89.5,-57.5"/>
<text text-anchor="middle" x="108" y="-64.5" font-family="Helvetica,sans-Serif" font-size="10.00">Tally</text>
</a>
</g>
</g>
<!-- Node5&#45;&gt;Node4 -->
<g id="edge1" class="edge"><title>Node5&#45;&gt;Node4</title>
<path fill="none" stroke="midnightblue" d="M108,-47.1166C108,-37.8173 108,-27.0557 108,-19.7149"/>
<polygon fill="midnightblue" stroke="midnightblue" points="104.5,-47.4062 108,-57.4063 111.5,-47.4063 104.5,-47.4062"/>
</g>
<!-- Node6 -->
<g id="node3" class="node"><title>Node6</title>
<g id="a_node3"><a xlink:href="classumontreal_1_1ssj_1_1stat_1_1StatProbe.html" target="_top" xlink:title="The objects of this class are statistical probes or collectors, which are elementary devices for coll...">
<polygon fill="none" stroke="black" points="0,-124.5 0,-143.5 60,-143.5 60,-124.5 0,-124.5"/>
<text text-anchor="middle" x="30" y="-131.5" font-family="Helvetica,sans-Serif" font-size="10.00">StatProbe</text>
</a>
</g>
</g>
<!-- Node6&#45;&gt;Node5 -->
<g id="edge2" class="edge"><title>Node6&#45;&gt;Node5</title>
<path fill="none" stroke="midnightblue" d="M48.3439,-117.713C63.7116,-104.907 85.0939,-87.0884 97.6472,-76.6273"/>
<polygon fill="midnightblue" stroke="midnightblue" points="45.961,-115.143 40.5194,-124.234 50.4423,-120.521 45.961,-115.143"/>
</g>
<!-- Node7 -->
<g id="node4" class="node"><title>Node7</title>
<polygon fill="none" stroke="#bfbfbf" points="78.5,-124.5 78.5,-143.5 137.5,-143.5 137.5,-124.5 78.5,-124.5"/>
<text text-anchor="middle" x="108" y="-131.5" font-family="Helvetica,sans-Serif" font-size="10.00">Cloneable</text>
</g>
<!-- Node7&#45;&gt;Node5 -->
<g id="edge3" class="edge"><title>Node7&#45;&gt;Node5</title>
<path fill="none" stroke="midnightblue" d="M108,-114.037C108,-101.67 108,-86.1198 108,-76.6273"/>
<polygon fill="midnightblue" stroke="midnightblue" points="104.5,-114.234 108,-124.234 111.5,-114.234 104.5,-114.234"/>
</g>
<!-- Node8 -->
<g id="node5" class="node"><title>Node8</title>
<polygon fill="none" stroke="#bfbfbf" points="156,-124.5 156,-143.5 226,-143.5 226,-124.5 156,-124.5"/>
<text text-anchor="middle" x="191" y="-131.5" font-family="Helvetica,sans-Serif" font-size="10.00">Tally.CIType</text>
</g>
<!-- Node8&#45;&gt;Node5 -->
<g id="edge4" class="edge"><title>Node8&#45;&gt;Node5</title>
<path fill="none" stroke="#9a32cd" stroke-dasharray="5,2" d="M171.933,-118.068C155.55,-105.238 132.498,-87.1853 119.016,-76.6273"/>
<polygon fill="#9a32cd" stroke="#9a32cd" points="169.775,-120.824 179.806,-124.234 174.091,-115.313 169.775,-120.824"/>
<text text-anchor="middle" x="195" y="-98" font-family="Helvetica,sans-Serif" font-size="10.00"> confidenceInterval</text>
</g>
</g>
</svg>
