<?xml version="1.0" encoding="UTF-8" standalone="no"?>
<!DOCTYPE svg PUBLIC "-//W3C//DTD SVG 1.1//EN"
 "http://www.w3.org/Graphics/SVG/1.1/DTD/svg11.dtd">
<!-- Generated by graphviz version 2.38.0 (20140413.2041)
 -->
<!-- Title: YListChart Pages: 1 -->
<svg width="294pt" height="287pt"
 viewBox="0.00 0.00 294.00 287.00" xmlns="http://www.w3.org/2000/svg" xmlns:xlink="http://www.w3.org/1999/xlink">
<g id="graph0" class="graph" transform="scale(1 1) rotate(0) translate(4 283)">
<title>YListChart</title>
<!-- Node3 -->
<g id="node1" class="node"><title>Node3</title>
<polygon fill="#bfbfbf" stroke="black" points="69,-0.5 69,-19.5 131,-19.5 131,-0.5 69,-0.5"/>
<text text-anchor="middle" x="100" y="-7.5" font-family="Helvetica,sans-Serif" font-size="10.00">YListChart</text>
</g>
<!-- Node4 -->
<g id="node2" class="node"><title>Node4</title>
<g id="a_node2"><a xlink:href="classumontreal_1_1ssj_1_1charts_1_1XYLineChart.html" target="_top" xlink:title="This class provides tools to create and manage curve plots. ">
<polygon fill="none" stroke="black" points="65,-57.5 65,-76.5 135,-76.5 135,-57.5 65,-57.5"/>
<text text-anchor="middle" x="100" y="-64.5" font-family="Helvetica,sans-Serif" font-size="10.00">XYLineChart</text>
</a>
</g>
</g>
<!-- Node4&#45;&gt;Node3 -->
<g id="edge1" class="edge"><title>Node4&#45;&gt;Node3</title>
<path fill="none" stroke="midnightblue" d="M100,-47.1166C100,-37.8173 100,-27.0557 100,-19.7149"/>
<polygon fill="midnightblue" stroke="midnightblue" points="96.5001,-47.4062 100,-57.4063 103.5,-47.4063 96.5001,-47.4062"/>
</g>
<!-- Node5 -->
<g id="node3" class="node"><title>Node5</title>
<g id="a_node3"><a xlink:href="classumontreal_1_1ssj_1_1charts_1_1XYChart.html" target="_top" xlink:title="This class provides tools to create charts from data in a simple way. ">
<polygon fill="none" stroke="black" points="74,-114.5 74,-133.5 126,-133.5 126,-114.5 74,-114.5"/>
<text text-anchor="middle" x="100" y="-121.5" font-family="Helvetica,sans-Serif" font-size="10.00">XYChart</text>
</a>
</g>
</g>
<!-- Node5&#45;&gt;Node4 -->
<g id="edge2" class="edge"><title>Node5&#45;&gt;Node4</title>
<path fill="none" stroke="midnightblue" d="M100,-104.117C100,-94.8173 100,-84.0557 100,-76.7149"/>
<polygon fill="midnightblue" stroke="midnightblue" points="96.5001,-104.406 100,-114.406 103.5,-104.406 96.5001,-104.406"/>
</g>
<!-- Node6 -->
<g id="node4" class="node"><title>Node6</title>
<polygon fill="none" stroke="#bfbfbf" points="0,-192.5 0,-211.5 64,-211.5 64,-192.5 0,-192.5"/>
<text text-anchor="middle" x="32" y="-199.5" font-family="Helvetica,sans-Serif" font-size="10.00">JFreeChart</text>
</g>
<!-- Node6&#45;&gt;Node5 -->
<g id="edge3" class="edge"><title>Node6&#45;&gt;Node5</title>
<path fill="none" stroke="#9a32cd" stroke-dasharray="5,2" d="M44.3027,-184.303C51.7024,-174.584 61.5015,-162.264 71,-152 76.9805,-145.537 84.2305,-138.787 89.9853,-133.653"/>
<polygon fill="#9a32cd" stroke="#9a32cd" points="41.4578,-182.263 38.259,-192.363 47.0583,-186.462 41.4578,-182.263"/>
<text text-anchor="middle" x="83.5" y="-160.5" font-family="Helvetica,sans-Serif" font-size="10.00"> chart</text>
</g>
<!-- Node7 -->
<g id="node5" class="node"><title>Node7</title>
<g id="a_node5"><a xlink:href="classumontreal_1_1ssj_1_1charts_1_1Axis.html" target="_top" xlink:title="Represents an axis of a chart encapsulated by an instance of XYChart. ">
<polygon fill="none" stroke="black" points="82,-192.5 82,-211.5 118,-211.5 118,-192.5 82,-192.5"/>
<text text-anchor="middle" x="100" y="-199.5" font-family="Helvetica,sans-Serif" font-size="10.00">Axis</text>
</a>
</g>
</g>
<!-- Node7&#45;&gt;Node5 -->
<g id="edge4" class="edge"><title>Node7&#45;&gt;Node5</title>
<path fill="none" stroke="#9a32cd" stroke-dasharray="5,2" d="M100,-182.224C100,-166.697 100,-145.358 100,-133.616"/>
<polygon fill="#9a32cd" stroke="#9a32cd" points="96.5001,-182.282 100,-192.282 103.5,-182.282 96.5001,-182.282"/>
<text text-anchor="middle" x="114" y="-166" font-family="Helvetica,sans-Serif" font-size="10.00"> XAxis</text>
<text text-anchor="middle" x="114" y="-155" font-family="Helvetica,sans-Serif" font-size="10.00">YAxis</text>
</g>
<!-- Node8 -->
<g id="node6" class="node"><title>Node8</title>
<g id="a_node6"><a xlink:href="classumontreal_1_1ssj_1_1charts_1_1SSJXYSeriesCollection.html" target="_top" xlink:title="Stores data used in a XYChart. ">
<polygon fill="none" stroke="black" points="136.5,-192.5 136.5,-211.5 253.5,-211.5 253.5,-192.5 136.5,-192.5"/>
<text text-anchor="middle" x="195" y="-199.5" font-family="Helvetica,sans-Serif" font-size="10.00">SSJXYSeriesCollection</text>
</a>
</g>
</g>
<!-- Node8&#45;&gt;Node5 -->
<g id="edge5" class="edge"><title>Node8&#45;&gt;Node5</title>
<path fill="none" stroke="#9a32cd" stroke-dasharray="5,2" d="M176.175,-185.94C156.606,-170.285 126.659,-146.327 110.771,-133.616"/>
<polygon fill="#9a32cd" stroke="#9a32cd" points="174.107,-188.768 184.102,-192.282 178.48,-183.302 174.107,-188.768"/>
<text text-anchor="middle" x="177" y="-160.5" font-family="Helvetica,sans-Serif" font-size="10.00"> dataset</text>
</g>
<!-- Node9 -->
<g id="node7" class="node"><title>Node9</title>
<polygon fill="none" stroke="#bfbfbf" points="116,-259.5 116,-278.5 178,-278.5 178,-259.5 116,-259.5"/>
<text text-anchor="middle" x="147" y="-266.5" font-family="Helvetica,sans-Serif" font-size="10.00">XYDataset</text>
</g>
<!-- Node9&#45;&gt;Node8 -->
<g id="edge6" class="edge"><title>Node9&#45;&gt;Node8</title>
<path fill="none" stroke="#9a32cd" stroke-dasharray="5,2" d="M143.902,-249.415C143.706,-242.878 144.578,-235.737 148,-230 152.917,-221.757 161.377,-215.796 169.776,-211.607"/>
<polygon fill="#9a32cd" stroke="#9a32cd" points="140.436,-249.923 144.979,-259.494 147.396,-249.179 140.436,-249.923"/>
<text text-anchor="middle" x="184.5" y="-233" font-family="Helvetica,sans-Serif" font-size="10.00"> seriesCollection</text>
</g>
<!-- Node10 -->
<g id="node8" class="node"><title>Node10</title>
<polygon fill="none" stroke="#bfbfbf" points="200,-259.5 200,-278.5 286,-278.5 286,-259.5 200,-259.5"/>
<text text-anchor="middle" x="243" y="-266.5" font-family="Helvetica,sans-Serif" font-size="10.00">XYItemRenderer</text>
</g>
<!-- Node10&#45;&gt;Node8 -->
<g id="edge7" class="edge"><title>Node10&#45;&gt;Node8</title>
<path fill="none" stroke="#9a32cd" stroke-dasharray="5,2" d="M234.074,-250.571C230.367,-243.907 225.808,-236.382 221,-230 215.988,-223.347 209.488,-216.597 204.241,-211.51"/>
<polygon fill="#9a32cd" stroke="#9a32cd" points="231.033,-252.307 238.827,-259.483 237.21,-249.012 231.033,-252.307"/>
<text text-anchor="middle" x="247.5" y="-233" font-family="Helvetica,sans-Serif" font-size="10.00"> renderer</text>
</g>
</g>
</svg>
