<?xml version="1.0" encoding="UTF-8" standalone="no"?>
<!DOCTYPE svg PUBLIC "-//W3C//DTD SVG 1.1//EN"
 "http://www.w3.org/Graphics/SVG/1.1/DTD/svg11.dtd">
<!-- Generated by graphviz version 2.38.0 (20140413.2041)
 -->
<!-- Title: MatrixOfTallies&lt; E extends Tally &gt; Pages: 1 -->
<svg width="160pt" height="162pt"
 viewBox="0.00 0.00 160.00 162.00" xmlns="http://www.w3.org/2000/svg" xmlns:xlink="http://www.w3.org/1999/xlink">
<g id="graph0" class="graph" transform="scale(1 1) rotate(0) translate(4 158)">
<title>MatrixOfTallies&lt; E extends Tally &gt;</title>
<!-- Node1 -->
<g id="node1" class="node"><title>Node1</title>
<polygon fill="#bfbfbf" stroke="black" points="23,-0.5 23,-30.5 121,-30.5 121,-0.5 23,-0.5"/>
<text text-anchor="start" x="31" y="-18.5" font-family="Helvetica,sans-Serif" font-size="10.00">MatrixOfTallies&lt; E</text>
<text text-anchor="middle" x="72" y="-7.5" font-family="Helvetica,sans-Serif" font-size="10.00"> extends Tally &gt;</text>
</g>
<!-- Node2 -->
<g id="node2" class="node"><title>Node2</title>
<g id="a_node2"><a xlink:href="classumontreal_1_1ssj_1_1stat_1_1matrix_1_1MatrixOfStatProbes_3_01E_01extends_01StatProbe_01_4.html" target="_top" xlink:title="Represents a matrix of statistical probes that can be managed simultaneously. ">
<polygon fill="none" stroke="black" points="9.5,-67.5 9.5,-97.5 134.5,-97.5 134.5,-67.5 9.5,-67.5"/>
<text text-anchor="start" x="17.5" y="-85.5" font-family="Helvetica,sans-Serif" font-size="10.00">MatrixOfStatProbes</text>
<text text-anchor="middle" x="72" y="-74.5" font-family="Helvetica,sans-Serif" font-size="10.00">&lt; E extends StatProbe &gt;</text>
</a>
</g>
</g>
<!-- Node2&#45;&gt;Node1 -->
<g id="edge1" class="edge"><title>Node2&#45;&gt;Node1</title>
<path fill="none" stroke="midnightblue" d="M72,-57.1081C72,-48.1539 72,-38.3227 72,-30.5765"/>
<polygon fill="midnightblue" stroke="midnightblue" points="68.5001,-57.3959 72,-67.396 75.5001,-57.396 68.5001,-57.3959"/>
</g>
<!-- Node3 -->
<g id="node3" class="node"><title>Node3</title>
<polygon fill="none" stroke="#bfbfbf" points="0,-134.5 0,-153.5 60,-153.5 60,-134.5 0,-134.5"/>
<text text-anchor="middle" x="30" y="-141.5" font-family="Helvetica,sans-Serif" font-size="10.00">Cloneable</text>
</g>
<!-- Node3&#45;&gt;Node2 -->
<g id="edge2" class="edge"><title>Node3&#45;&gt;Node2</title>
<path fill="none" stroke="midnightblue" d="M41.8255,-126.247C48.2212,-117.187 56.0301,-106.124 62.1014,-97.523"/>
<polygon fill="midnightblue" stroke="midnightblue" points="38.9251,-124.287 36.0176,-134.475 44.6438,-128.324 38.9251,-124.287"/>
</g>
<!-- Node4 -->
<g id="node4" class="node"><title>Node4</title>
<polygon fill="none" stroke="#bfbfbf" points="78,-134.5 78,-153.5 152,-153.5 152,-134.5 78,-134.5"/>
<text text-anchor="middle" x="115" y="-141.5" font-family="Helvetica,sans-Serif" font-size="10.00">Iterable&lt; E &gt;</text>
</g>
<!-- Node4&#45;&gt;Node2 -->
<g id="edge3" class="edge"><title>Node4&#45;&gt;Node2</title>
<path fill="none" stroke="midnightblue" d="M102.893,-126.247C96.3449,-117.187 88.3501,-106.124 82.1342,-97.523"/>
<polygon fill="midnightblue" stroke="midnightblue" points="100.145,-128.42 108.839,-134.475 105.818,-124.32 100.145,-128.42"/>
</g>
</g>
</svg>
