<?xml version="1.0" encoding="UTF-8" standalone="no"?>
<!DOCTYPE svg PUBLIC "-//W3C//DTD SVG 1.1//EN"
 "http://www.w3.org/Graphics/SVG/1.1/DTD/svg11.dtd">
<!-- Generated by graphviz version 2.38.0 (20140413.2041)
 -->
<!-- Title: ContinuousDistribution Pages: 1 -->
<svg width="571pt" height="1662pt"
 viewBox="0.00 0.00 571.00 1662.00" xmlns="http://www.w3.org/2000/svg" xmlns:xlink="http://www.w3.org/1999/xlink">
<g id="graph0" class="graph" transform="scale(1 1) rotate(0) translate(4 1658)">
<title>ContinuousDistribution</title>
<!-- Node0 -->
<g id="node1" class="node"><title>Node0</title>
<polygon fill="#bfbfbf" stroke="black" points="101,-817.5 101,-836.5 215,-836.5 215,-817.5 101,-817.5"/>
<text text-anchor="middle" x="158" y="-824.5" font-family="Helvetica,sans-Serif" font-size="10.00">ContinuousDistribution</text>
</g>
<!-- Node2 -->
<g id="node3" class="node"><title>Node2</title>
<g id="a_node3"><a xlink:href="classumontreal_1_1ssj_1_1probdist_1_1AndersonDarlingDist.html" target="_top" xlink:title="Extends the class ContinuousDistribution for the Anderson–Darling distribution (see ...">
<polygon fill="none" stroke="black" points="271,-1634.5 271,-1653.5 376,-1653.5 376,-1634.5 271,-1634.5"/>
<text text-anchor="middle" x="323.5" y="-1641.5" font-family="Helvetica,sans-Serif" font-size="10.00">AndersonDarlingDist</text>
</a>
</g>
</g>
<!-- Node0&#45;&gt;Node2 -->
<g id="edge2" class="edge"><title>Node0&#45;&gt;Node2</title>
<path fill="none" stroke="midnightblue" d="M159.949,-846.517C165.787,-963.059 198.312,-1564.06 251,-1625 256.292,-1631.12 263.31,-1635.38 270.883,-1638.32"/>
<polygon fill="midnightblue" stroke="midnightblue" points="163.445,-846.339 159.455,-836.524 156.454,-846.685 163.445,-846.339"/>
</g>
<!-- Node4 -->
<g id="node5" class="node"><title>Node4</title>
<g id="a_node5"><a xlink:href="classumontreal_1_1ssj_1_1probdist_1_1BetaDist.html" target="_top" xlink:title="Extends the class ContinuousDistribution for the beta distribution   (page 210) with shape parameter...">
<polygon fill="none" stroke="black" points="296.5,-1596.5 296.5,-1615.5 350.5,-1615.5 350.5,-1596.5 296.5,-1596.5"/>
<text text-anchor="middle" x="323.5" y="-1603.5" font-family="Helvetica,sans-Serif" font-size="10.00">BetaDist</text>
</a>
</g>
</g>
<!-- Node0&#45;&gt;Node4 -->
<g id="edge4" class="edge"><title>Node0&#45;&gt;Node4</title>
<path fill="none" stroke="midnightblue" d="M160.074,-846.637C166.451,-960.146 200.778,-1529.25 251,-1587 262.125,-1599.79 280.787,-1604.45 296.256,-1605.95"/>
<polygon fill="midnightblue" stroke="midnightblue" points="163.565,-846.383 159.516,-836.593 156.576,-846.772 163.565,-846.383"/>
</g>
<!-- Node6 -->
<g id="node7" class="node"><title>Node6</title>
<g id="a_node7"><a xlink:href="classumontreal_1_1ssj_1_1probdist_1_1CauchyDist.html" target="_top" xlink:title="Extends the class ContinuousDistribution for the Cauchy distribution   (page 299) with location para...">
<polygon fill="none" stroke="black" points="290,-1558.5 290,-1577.5 357,-1577.5 357,-1558.5 290,-1558.5"/>
<text text-anchor="middle" x="323.5" y="-1565.5" font-family="Helvetica,sans-Serif" font-size="10.00">CauchyDist</text>
</a>
</g>
</g>
<!-- Node0&#45;&gt;Node6 -->
<g id="edge6" class="edge"><title>Node0&#45;&gt;Node6</title>
<path fill="none" stroke="midnightblue" d="M158.656,-847.195C157.272,-952.782 156.153,-1440.62 251,-1549 260.643,-1560.02 275.876,-1564.99 289.809,-1567.12"/>
<polygon fill="midnightblue" stroke="midnightblue" points="162.158,-847.023 158.807,-836.972 155.159,-846.919 162.158,-847.023"/>
</g>
<!-- Node7 -->
<g id="node8" class="node"><title>Node7</title>
<g id="a_node8"><a xlink:href="classumontreal_1_1ssj_1_1probdist_1_1ChiDist.html" target="_top" xlink:title="Extends the class ContinuousDistribution for the chi distribution   (page 417) with shape parameter ...">
<polygon fill="none" stroke="black" points="299.5,-1520.5 299.5,-1539.5 347.5,-1539.5 347.5,-1520.5 299.5,-1520.5"/>
<text text-anchor="middle" x="323.5" y="-1527.5" font-family="Helvetica,sans-Serif" font-size="10.00">ChiDist</text>
</a>
</g>
</g>
<!-- Node0&#45;&gt;Node7 -->
<g id="edge7" class="edge"><title>Node0&#45;&gt;Node7</title>
<path fill="none" stroke="midnightblue" d="M158.814,-847.089C158.286,-949.096 160.988,-1408.86 251,-1511 262.974,-1524.59 283.448,-1528.97 299.426,-1530.17"/>
<polygon fill="midnightblue" stroke="midnightblue" points="162.315,-846.954 158.885,-836.93 155.316,-846.905 162.315,-846.954"/>
</g>
<!-- Node8 -->
<g id="node9" class="node"><title>Node8</title>
<g id="a_node9"><a xlink:href="classumontreal_1_1ssj_1_1probdist_1_1ChiSquareDist.html" target="_top" xlink:title="Extends the class ContinuousDistribution for the chi&#45;square distribution with &#160;degrees of freedom...">
<polygon fill="none" stroke="black" points="284,-1482.5 284,-1501.5 363,-1501.5 363,-1482.5 284,-1482.5"/>
<text text-anchor="middle" x="323.5" y="-1489.5" font-family="Helvetica,sans-Serif" font-size="10.00">ChiSquareDist</text>
</a>
</g>
</g>
<!-- Node0&#45;&gt;Node8 -->
<g id="edge8" class="edge"><title>Node0&#45;&gt;Node8</title>
<path fill="none" stroke="midnightblue" d="M158.989,-846.896C159.344,-945.081 165.79,-1377.07 251,-1473 259.359,-1482.41 271.796,-1487.4 283.964,-1489.98"/>
<polygon fill="midnightblue" stroke="midnightblue" points="162.489,-846.839 158.971,-836.845 155.489,-846.852 162.489,-846.839"/>
</g>
<!-- Node10 -->
<g id="node11" class="node"><title>Node10</title>
<g id="a_node11"><a xlink:href="classumontreal_1_1ssj_1_1probdist_1_1ChiSquareNoncentralDist.html" target="_top" xlink:title="Extends the class ContinuousDistribution for the noncentral chi&#45;square distribution with &#160;degrees of ...">
<polygon fill="none" stroke="black" points="261,-1444.5 261,-1463.5 386,-1463.5 386,-1444.5 261,-1444.5"/>
<text text-anchor="middle" x="323.5" y="-1451.5" font-family="Helvetica,sans-Serif" font-size="10.00">ChiSquareNoncentralDist</text>
</a>
</g>
</g>
<!-- Node0&#45;&gt;Node10 -->
<g id="edge10" class="edge"><title>Node0&#45;&gt;Node10</title>
<path fill="none" stroke="midnightblue" d="M159.184,-846.902C160.468,-941.559 170.642,-1345.32 251,-1435 254.428,-1438.83 258.531,-1441.92 263.014,-1444.42"/>
<polygon fill="midnightblue" stroke="midnightblue" points="162.682,-846.675 159.066,-836.717 155.683,-846.757 162.682,-846.675"/>
</g>
<!-- Node11 -->
<g id="node12" class="node"><title>Node11</title>
<g id="a_node12"><a xlink:href="classumontreal_1_1ssj_1_1probdist_1_1CramerVonMisesDist.html" target="_top" xlink:title="Extends the class ContinuousDistribution for the Cramér&#45;von Mises distribution (see ...">
<polygon fill="none" stroke="black" points="269,-1406.5 269,-1425.5 378,-1425.5 378,-1406.5 269,-1406.5"/>
<text text-anchor="middle" x="323.5" y="-1413.5" font-family="Helvetica,sans-Serif" font-size="10.00">CramerVonMisesDist</text>
</a>
</g>
</g>
<!-- Node0&#45;&gt;Node11 -->
<g id="edge11" class="edge"><title>Node0&#45;&gt;Node11</title>
<path fill="none" stroke="midnightblue" d="M159.402,-846.791C161.649,-937.601 175.45,-1313.51 251,-1397 255.912,-1402.43 262.182,-1406.38 268.961,-1409.25"/>
<polygon fill="midnightblue" stroke="midnightblue" points="162.896,-846.46 159.169,-836.542 155.897,-846.619 162.896,-846.46"/>
</g>
<!-- Node12 -->
<g id="node13" class="node"><title>Node12</title>
<g id="a_node13"><a xlink:href="classumontreal_1_1ssj_1_1probdist_1_1ExponentialDist.html" target="_top" xlink:title="Extends the class ContinuousDistribution for the exponential distribution   (page 494) with mean &#160;wh...">
<polygon fill="none" stroke="red" points="281,-1368.5 281,-1387.5 366,-1387.5 366,-1368.5 281,-1368.5"/>
<text text-anchor="middle" x="323.5" y="-1375.5" font-family="Helvetica,sans-Serif" font-size="10.00">ExponentialDist</text>
</a>
</g>
</g>
<!-- Node0&#45;&gt;Node12 -->
<g id="edge12" class="edge"><title>Node0&#45;&gt;Node12</title>
<path fill="none" stroke="midnightblue" d="M159.654,-846.849C162.926,-933.988 180.293,-1281.74 251,-1359 258.718,-1367.43 269.711,-1372.3 280.769,-1375.06"/>
<polygon fill="midnightblue" stroke="midnightblue" points="163.148,-846.605 159.295,-836.736 156.152,-846.853 163.148,-846.605"/>
</g>
<!-- Node14 -->
<g id="node14" class="node"><title>Node14</title>
<g id="a_node14"><a xlink:href="classumontreal_1_1ssj_1_1probdist_1_1ExtremeValueDist.html" target="_top" xlink:title="This class has been replaced by GumbelDist . ">
<polygon fill="none" stroke="black" points="276,-1330.5 276,-1349.5 371,-1349.5 371,-1330.5 276,-1330.5"/>
<text text-anchor="middle" x="323.5" y="-1337.5" font-family="Helvetica,sans-Serif" font-size="10.00">ExtremeValueDist</text>
</a>
</g>
</g>
<!-- Node0&#45;&gt;Node14 -->
<g id="edge13" class="edge"><title>Node0&#45;&gt;Node14</title>
<path fill="none" stroke="midnightblue" d="M159.95,-847.006C164.317,-930.482 185.148,-1249.97 251,-1321 257.549,-1328.06 266.398,-1332.62 275.637,-1335.53"/>
<polygon fill="midnightblue" stroke="midnightblue" points="163.437,-846.656 159.44,-836.844 156.446,-847.007 163.437,-846.656"/>
</g>
<!-- Node15 -->
<g id="node15" class="node"><title>Node15</title>
<g id="a_node15"><a xlink:href="classumontreal_1_1ssj_1_1probdist_1_1FatigueLifeDist.html" target="_top" xlink:title="Extends the class ContinuousDistribution for the fatigue life distribution   with location parameter...">
<polygon fill="none" stroke="black" points="283,-1292.5 283,-1311.5 364,-1311.5 364,-1292.5 283,-1292.5"/>
<text text-anchor="middle" x="323.5" y="-1299.5" font-family="Helvetica,sans-Serif" font-size="10.00">FatigueLifeDist</text>
</a>
</g>
</g>
<!-- Node0&#45;&gt;Node15 -->
<g id="edge14" class="edge"><title>Node0&#45;&gt;Node15</title>
<path fill="none" stroke="midnightblue" d="M160.285,-846.973C165.79,-926.324 189.936,-1218.12 251,-1283 259.274,-1291.79 271.112,-1296.69 282.781,-1299.37"/>
<polygon fill="midnightblue" stroke="midnightblue" points="163.768,-846.603 159.606,-836.86 156.784,-847.072 163.768,-846.603"/>
</g>
<!-- Node16 -->
<g id="node16" class="node"><title>Node16</title>
<g id="a_node16"><a xlink:href="classumontreal_1_1ssj_1_1probdist_1_1FisherFDist.html" target="_top" xlink:title="Extends the class ContinuousDistribution for the Fisher F distribution with &#160;and &#160;degrees of freedom...">
<polygon fill="none" stroke="black" points="290,-1254.5 290,-1273.5 357,-1273.5 357,-1254.5 290,-1254.5"/>
<text text-anchor="middle" x="323.5" y="-1261.5" font-family="Helvetica,sans-Serif" font-size="10.00">FisherFDist</text>
</a>
</g>
</g>
<!-- Node0&#45;&gt;Node16 -->
<g id="edge15" class="edge"><title>Node0&#45;&gt;Node16</title>
<path fill="none" stroke="midnightblue" d="M160.702,-847.2C167.454,-922.606 194.771,-1186.29 251,-1245 261.039,-1255.48 276.147,-1260.41 289.892,-1262.65"/>
<polygon fill="midnightblue" stroke="midnightblue" points="164.148,-846.433 159.793,-836.775 157.175,-847.041 164.148,-846.433"/>
</g>
<!-- Node17 -->
<g id="node17" class="node"><title>Node17</title>
<g id="a_node17"><a xlink:href="classumontreal_1_1ssj_1_1probdist_1_1FoldedNormalDist.html" target="_top" xlink:title="Extends the class ContinuousDistribution for the folded normal distribution with parameters &#160;and ...">
<polygon fill="none" stroke="black" points="276.5,-1216.5 276.5,-1235.5 370.5,-1235.5 370.5,-1216.5 276.5,-1216.5"/>
<text text-anchor="middle" x="323.5" y="-1223.5" font-family="Helvetica,sans-Serif" font-size="10.00">FoldedNormalDist</text>
</a>
</g>
</g>
<!-- Node0&#45;&gt;Node17 -->
<g id="edge16" class="edge"><title>Node0&#45;&gt;Node17</title>
<path fill="none" stroke="midnightblue" d="M161.126,-846.717C169.095,-917.053 199.41,-1154.25 251,-1207 257.825,-1213.98 266.9,-1218.49 276.286,-1221.38"/>
<polygon fill="midnightblue" stroke="midnightblue" points="164.583,-846.136 160.003,-836.583 157.625,-846.907 164.583,-846.136"/>
</g>
<!-- Node18 -->
<g id="node18" class="node"><title>Node18</title>
<g id="a_node18"><a xlink:href="classumontreal_1_1ssj_1_1probdist_1_1FrechetDist.html" target="_top" xlink:title="Extends the class ContinuousDistribution for the Fréchet distribution   (page 3), with location parameter , scale parameter , and shape parameter , where we use the notation . ">
<polygon fill="none" stroke="black" points="290,-1178.5 290,-1197.5 357,-1197.5 357,-1178.5 290,-1178.5"/>
<text text-anchor="middle" x="323.5" y="-1185.5" font-family="Helvetica,sans-Serif" font-size="10.00">FrechetDist</text>
</a>
</g>
</g>
<!-- Node0&#45;&gt;Node18 -->
<g id="edge17" class="edge"><title>Node0&#45;&gt;Node18</title>
<path fill="none" stroke="midnightblue" d="M161.71,-846.837C171.089,-912.659 204.172,-1122.31 251,-1169 261.187,-1179.16 276.146,-1184.06 289.752,-1186.37"/>
<polygon fill="midnightblue" stroke="midnightblue" points="165.13,-846.022 160.28,-836.603 158.198,-846.991 165.13,-846.022"/>
</g>
<!-- Node19 -->
<g id="node19" class="node"><title>Node19</title>
<g id="a_node19"><a xlink:href="classumontreal_1_1ssj_1_1probdist_1_1GammaDist.html" target="_top" xlink:title="Extends the class ContinuousDistribution for the gamma distribution   (page 337) with shape paramete...">
<polygon fill="none" stroke="red" points="289.5,-1140.5 289.5,-1159.5 357.5,-1159.5 357.5,-1140.5 289.5,-1140.5"/>
<text text-anchor="middle" x="323.5" y="-1147.5" font-family="Helvetica,sans-Serif" font-size="10.00">GammaDist</text>
</a>
</g>
</g>
<!-- Node0&#45;&gt;Node19 -->
<g id="edge18" class="edge"><title>Node0&#45;&gt;Node19</title>
<path fill="none" stroke="midnightblue" d="M158.794,-846.838C159.36,-900.777 168.623,-1051.39 251,-1131 261.159,-1140.82 275.789,-1145.71 289.172,-1148.09"/>
<polygon fill="midnightblue" stroke="midnightblue" points="162.294,-846.589 158.784,-836.592 155.294,-846.596 162.294,-846.589"/>
</g>
<!-- Node22 -->
<g id="node20" class="node"><title>Node22</title>
<g id="a_node20"><a xlink:href="classumontreal_1_1ssj_1_1probdist_1_1GumbelDist.html" target="_top" xlink:title="Extends the class ContinuousDistribution for the Gumbel distribution   (page 2), with location param...">
<polygon fill="none" stroke="black" points="289.5,-1102.5 289.5,-1121.5 357.5,-1121.5 357.5,-1102.5 289.5,-1102.5"/>
<text text-anchor="middle" x="323.5" y="-1109.5" font-family="Helvetica,sans-Serif" font-size="10.00">GumbelDist</text>
</a>
</g>
</g>
<!-- Node0&#45;&gt;Node22 -->
<g id="edge19" class="edge"><title>Node0&#45;&gt;Node22</title>
<path fill="none" stroke="midnightblue" d="M159.801,-846.969C162.894,-896.35 177.931,-1025.1 251,-1093 261.349,-1102.62 276.006,-1107.48 289.357,-1109.89"/>
<polygon fill="midnightblue" stroke="midnightblue" points="163.281,-846.499 159.264,-836.695 156.291,-846.865 163.281,-846.499"/>
</g>
<!-- Node23 -->
<g id="node21" class="node"><title>Node23</title>
<g id="a_node21"><a xlink:href="classumontreal_1_1ssj_1_1probdist_1_1HalfNormalDist.html" target="_top" xlink:title="Extends the class ContinuousDistribution for the half&#45;normal distribution with parameters &#160;and ...">
<polygon fill="none" stroke="black" points="283,-1064.5 283,-1083.5 364,-1083.5 364,-1064.5 283,-1064.5"/>
<text text-anchor="middle" x="323.5" y="-1071.5" font-family="Helvetica,sans-Serif" font-size="10.00">HalfNormalDist</text>
</a>
</g>
</g>
<!-- Node0&#45;&gt;Node23 -->
<g id="edge20" class="edge"><title>Node0&#45;&gt;Node23</title>
<path fill="none" stroke="midnightblue" d="M161.049,-846.485C166.746,-890.531 186.843,-998.331 251,-1055 259.856,-1062.82 271.581,-1067.48 282.97,-1070.23"/>
<polygon fill="midnightblue" stroke="midnightblue" points="164.52,-846.027 159.87,-836.508 157.568,-846.85 164.52,-846.027"/>
</g>
<!-- Node24 -->
<g id="node22" class="node"><title>Node24</title>
<g id="a_node22"><a xlink:href="classumontreal_1_1ssj_1_1probdist_1_1HyperbolicSecantDist.html" target="_top" xlink:title="Extends the class ContinuousDistribution for the hyperbolic secant distribution with location paramet...">
<polygon fill="none" stroke="black" points="268.5,-1026.5 268.5,-1045.5 378.5,-1045.5 378.5,-1026.5 268.5,-1026.5"/>
<text text-anchor="middle" x="323.5" y="-1033.5" font-family="Helvetica,sans-Serif" font-size="10.00">HyperbolicSecantDist</text>
</a>
</g>
</g>
<!-- Node0&#45;&gt;Node24 -->
<g id="edge21" class="edge"><title>Node0&#45;&gt;Node24</title>
<path fill="none" stroke="midnightblue" d="M162.821,-846.61C171.405,-885.286 195.936,-971.573 251,-1017 256.152,-1021.25 262.161,-1024.56 268.466,-1027.13"/>
<polygon fill="midnightblue" stroke="midnightblue" points="166.207,-845.704 160.731,-836.634 159.356,-847.139 166.207,-845.704"/>
</g>
<!-- Node25 -->
<g id="node23" class="node"><title>Node25</title>
<g id="a_node23"><a xlink:href="classumontreal_1_1ssj_1_1probdist_1_1HypoExponentialDist.html" target="_top" xlink:title="This class implements the hypoexponential distribution, also called the generalized Erlang distributi...">
<polygon fill="none" stroke="red" points="270,-988.5 270,-1007.5 377,-1007.5 377,-988.5 270,-988.5"/>
<text text-anchor="middle" x="323.5" y="-995.5" font-family="Helvetica,sans-Serif" font-size="10.00">HypoExponentialDist</text>
</a>
</g>
</g>
<!-- Node0&#45;&gt;Node25 -->
<g id="edge22" class="edge"><title>Node0&#45;&gt;Node25</title>
<path fill="none" stroke="midnightblue" d="M165.244,-846.233C176.798,-878.708 204.65,-944.265 251,-979 256.653,-983.236 263.177,-986.529 269.937,-989.089"/>
<polygon fill="midnightblue" stroke="midnightblue" points="168.492,-844.912 161.948,-836.58 161.867,-847.174 168.492,-844.912"/>
</g>
<!-- Node28 -->
<g id="node24" class="node"><title>Node28</title>
<g id="a_node24"><a xlink:href="classumontreal_1_1ssj_1_1probdist_1_1InverseDistFromDensity.html" target="_top" xlink:title="Implements a method for computing the inverse of an arbitrary continuous distribution function when o...">
<polygon fill="none" stroke="black" points="264,-950.5 264,-969.5 383,-969.5 383,-950.5 264,-950.5"/>
<text text-anchor="middle" x="323.5" y="-957.5" font-family="Helvetica,sans-Serif" font-size="10.00">InverseDistFromDensity</text>
</a>
</g>
</g>
<!-- Node0&#45;&gt;Node28 -->
<g id="edge23" class="edge"><title>Node0&#45;&gt;Node28</title>
<path fill="none" stroke="midnightblue" d="M168.979,-845.674C183.568,-871.149 213.147,-916.428 251,-941 256.925,-944.846 263.605,-947.917 270.441,-950.367"/>
<polygon fill="midnightblue" stroke="midnightblue" points="171.893,-843.713 163.977,-836.671 165.774,-847.112 171.893,-843.713"/>
</g>
<!-- Node29 -->
<g id="node25" class="node"><title>Node29</title>
<g id="a_node25"><a xlink:href="classumontreal_1_1ssj_1_1probdist_1_1InverseGammaDist.html" target="_top" xlink:title="Extends the class ContinuousDistribution for the inverse gamma distribution with shape parameter &#160;and...">
<polygon fill="none" stroke="black" points="274.5,-912.5 274.5,-931.5 372.5,-931.5 372.5,-912.5 274.5,-912.5"/>
<text text-anchor="middle" x="323.5" y="-919.5" font-family="Helvetica,sans-Serif" font-size="10.00">InverseGammaDist</text>
</a>
</g>
</g>
<!-- Node0&#45;&gt;Node29 -->
<g id="edge24" class="edge"><title>Node0&#45;&gt;Node29</title>
<path fill="none" stroke="midnightblue" d="M174.979,-843.953C192.182,-861.238 221.125,-887.633 251,-903 258.424,-906.819 266.687,-909.923 274.886,-912.43"/>
<polygon fill="midnightblue" stroke="midnightblue" points="177.424,-841.447 167.94,-836.725 172.409,-846.331 177.424,-841.447"/>
</g>
<!-- Node30 -->
<g id="node26" class="node"><title>Node30</title>
<g id="a_node26"><a xlink:href="classumontreal_1_1ssj_1_1probdist_1_1InverseGaussianDist.html" target="_top" xlink:title="Extends the class ContinuousDistribution for the inverse Gaussian distribution with location paramete...">
<polygon fill="none" stroke="black" points="271,-874.5 271,-893.5 376,-893.5 376,-874.5 271,-874.5"/>
<text text-anchor="middle" x="323.5" y="-881.5" font-family="Helvetica,sans-Serif" font-size="10.00">InverseGaussianDist</text>
</a>
</g>
</g>
<!-- Node0&#45;&gt;Node30 -->
<g id="edge25" class="edge"><title>Node0&#45;&gt;Node30</title>
<path fill="none" stroke="midnightblue" d="M189.178,-840.646C206.953,-848.385 230.002,-857.908 251,-865 261.222,-868.452 272.434,-871.685 282.885,-874.47"/>
<polygon fill="midnightblue" stroke="midnightblue" points="190.455,-837.384 179.893,-836.557 187.634,-843.791 190.455,-837.384"/>
</g>
<!-- Node31 -->
<g id="node27" class="node"><title>Node31</title>
<g id="a_node27"><a xlink:href="classumontreal_1_1ssj_1_1probdist_1_1JohnsonSystem.html" target="_top" xlink:title="This class contains common parameters and methods for the Johnson system of distributions ...">
<polygon fill="none" stroke="red" points="280.5,-836.5 280.5,-855.5 366.5,-855.5 366.5,-836.5 280.5,-836.5"/>
<text text-anchor="middle" x="323.5" y="-843.5" font-family="Helvetica,sans-Serif" font-size="10.00">JohnsonSystem</text>
</a>
</g>
</g>
<!-- Node0&#45;&gt;Node31 -->
<g id="edge26" class="edge"><title>Node0&#45;&gt;Node31</title>
<path fill="none" stroke="midnightblue" d="M225.433,-834.72C243.978,-836.875 263.614,-839.157 280.337,-841.1"/>
<polygon fill="midnightblue" stroke="midnightblue" points="225.605,-831.217 215.267,-833.539 224.797,-838.17 225.605,-831.217"/>
</g>
<!-- Node35 -->
<g id="node28" class="node"><title>Node35</title>
<g id="a_node28"><a xlink:href="classumontreal_1_1ssj_1_1probdist_1_1KolmogorovSmirnovDist.html" target="_top" xlink:title="Extends the class ContinuousDistribution for the Kolmogorov&#45;Smirnov distribution with parameter &#160; ...">
<polygon fill="none" stroke="red" points="264,-798.5 264,-817.5 383,-817.5 383,-798.5 264,-798.5"/>
<text text-anchor="middle" x="323.5" y="-805.5" font-family="Helvetica,sans-Serif" font-size="10.00">KolmogorovSmirnovDist</text>
</a>
</g>
</g>
<!-- Node0&#45;&gt;Node35 -->
<g id="edge27" class="edge"><title>Node0&#45;&gt;Node35</title>
<path fill="none" stroke="midnightblue" d="M225.366,-819.288C238.127,-817.805 251.408,-816.261 263.902,-814.81"/>
<polygon fill="midnightblue" stroke="midnightblue" points="224.797,-815.83 215.267,-820.461 225.605,-822.783 224.797,-815.83"/>
</g>
<!-- Node37 -->
<g id="node29" class="node"><title>Node37</title>
<g id="a_node29"><a xlink:href="classumontreal_1_1ssj_1_1probdist_1_1KolmogorovSmirnovPlusDist.html" target="_top" xlink:title="Extends the class ContinuousDistribution for the Kolmogorov–Smirnov+ distribution (see ...">
<polygon fill="none" stroke="black" points="254.5,-760.5 254.5,-779.5 392.5,-779.5 392.5,-760.5 254.5,-760.5"/>
<text text-anchor="middle" x="323.5" y="-767.5" font-family="Helvetica,sans-Serif" font-size="10.00">KolmogorovSmirnovPlusDist</text>
</a>
</g>
</g>
<!-- Node0&#45;&gt;Node37 -->
<g id="edge28" class="edge"><title>Node0&#45;&gt;Node37</title>
<path fill="none" stroke="midnightblue" d="M189.178,-813.354C206.953,-805.615 230.002,-796.092 251,-789 261.222,-785.548 272.434,-782.315 282.885,-779.53"/>
<polygon fill="midnightblue" stroke="midnightblue" points="187.634,-810.209 179.893,-817.443 190.455,-816.616 187.634,-810.209"/>
</g>
<!-- Node38 -->
<g id="node30" class="node"><title>Node38</title>
<g id="a_node30"><a xlink:href="classumontreal_1_1ssj_1_1probdist_1_1LaplaceDist.html" target="_top" xlink:title="Extends the class ContinuousDistribution for the Laplace distribution (see, e.g.,   (page 165))...">
<polygon fill="none" stroke="black" points="289.5,-722.5 289.5,-741.5 357.5,-741.5 357.5,-722.5 289.5,-722.5"/>
<text text-anchor="middle" x="323.5" y="-729.5" font-family="Helvetica,sans-Serif" font-size="10.00">LaplaceDist</text>
</a>
</g>
</g>
<!-- Node0&#45;&gt;Node38 -->
<g id="edge29" class="edge"><title>Node0&#45;&gt;Node38</title>
<path fill="none" stroke="midnightblue" d="M174.979,-810.047C192.182,-792.762 221.125,-766.367 251,-751 262.878,-744.89 276.906,-740.609 289.376,-737.678"/>
<polygon fill="midnightblue" stroke="midnightblue" points="172.409,-807.669 167.94,-817.275 177.424,-812.553 172.409,-807.669"/>
</g>
<!-- Node39 -->
<g id="node31" class="node"><title>Node39</title>
<g id="a_node31"><a xlink:href="classumontreal_1_1ssj_1_1probdist_1_1LogisticDist.html" target="_top" xlink:title="Extends the class ContinuousDistribution for the logistic distribution (e.g.,   (page 115))...">
<polygon fill="none" stroke="black" points="289.5,-684.5 289.5,-703.5 357.5,-703.5 357.5,-684.5 289.5,-684.5"/>
<text text-anchor="middle" x="323.5" y="-691.5" font-family="Helvetica,sans-Serif" font-size="10.00">LogisticDist</text>
</a>
</g>
</g>
<!-- Node0&#45;&gt;Node39 -->
<g id="edge30" class="edge"><title>Node0&#45;&gt;Node39</title>
<path fill="none" stroke="midnightblue" d="M168.979,-808.326C183.568,-782.851 213.147,-737.572 251,-713 262.42,-705.587 276.641,-701.056 289.386,-698.29"/>
<polygon fill="midnightblue" stroke="midnightblue" points="165.774,-806.888 163.977,-817.329 171.893,-810.287 165.774,-806.888"/>
</g>
<!-- Node40 -->
<g id="node32" class="node"><title>Node40</title>
<g id="a_node32"><a xlink:href="classumontreal_1_1ssj_1_1probdist_1_1LoglogisticDist.html" target="_top" xlink:title="Extends the class ContinuousDistribution for the Log&#45;Logistic distribution with shape parameter &#160;and ...">
<polygon fill="none" stroke="black" points="283.5,-646.5 283.5,-665.5 363.5,-665.5 363.5,-646.5 283.5,-646.5"/>
<text text-anchor="middle" x="323.5" y="-653.5" font-family="Helvetica,sans-Serif" font-size="10.00">LoglogisticDist</text>
</a>
</g>
</g>
<!-- Node0&#45;&gt;Node40 -->
<g id="edge31" class="edge"><title>Node0&#45;&gt;Node40</title>
<path fill="none" stroke="midnightblue" d="M165.244,-807.767C176.798,-775.292 204.65,-709.735 251,-675 260.353,-667.991 272.091,-663.564 283.337,-660.769"/>
<polygon fill="midnightblue" stroke="midnightblue" points="161.867,-806.826 161.948,-817.42 168.492,-809.088 161.867,-806.826"/>
</g>
<!-- Node41 -->
<g id="node33" class="node"><title>Node41</title>
<g id="a_node33"><a xlink:href="classumontreal_1_1ssj_1_1probdist_1_1LognormalDist.html" target="_top" xlink:title="Extends the class ContinuousDistribution for the lognormal distribution  . ">
<polygon fill="none" stroke="red" points="284,-608.5 284,-627.5 363,-627.5 363,-608.5 284,-608.5"/>
<text text-anchor="middle" x="323.5" y="-615.5" font-family="Helvetica,sans-Serif" font-size="10.00">LognormalDist</text>
</a>
</g>
</g>
<!-- Node0&#45;&gt;Node41 -->
<g id="edge32" class="edge"><title>Node0&#45;&gt;Node41</title>
<path fill="none" stroke="midnightblue" d="M162.821,-807.39C171.405,-768.714 195.936,-682.427 251,-637 260.214,-629.398 272.17,-624.812 283.659,-622.054"/>
<polygon fill="midnightblue" stroke="midnightblue" points="159.356,-806.861 160.731,-817.366 166.207,-808.296 159.356,-806.861"/>
</g>
<!-- Node43 -->
<g id="node34" class="node"><title>Node43</title>
<g id="a_node34"><a xlink:href="classumontreal_1_1ssj_1_1probdist_1_1NakagamiDist.html" target="_top" xlink:title="Extends the class ContinuousDistribution for the Nakagami distribution with location parameter ...">
<polygon fill="none" stroke="black" points="285,-570.5 285,-589.5 362,-589.5 362,-570.5 285,-570.5"/>
<text text-anchor="middle" x="323.5" y="-577.5" font-family="Helvetica,sans-Serif" font-size="10.00">NakagamiDist</text>
</a>
</g>
</g>
<!-- Node0&#45;&gt;Node43 -->
<g id="edge33" class="edge"><title>Node0&#45;&gt;Node43</title>
<path fill="none" stroke="midnightblue" d="M161.049,-807.515C166.746,-763.469 186.843,-655.669 251,-599 260.338,-590.752 272.864,-586.027 284.823,-583.339"/>
<polygon fill="midnightblue" stroke="midnightblue" points="157.568,-807.15 159.87,-817.492 164.52,-807.973 157.568,-807.15"/>
</g>
<!-- Node44 -->
<g id="node35" class="node"><title>Node44</title>
<g id="a_node35"><a xlink:href="classumontreal_1_1ssj_1_1probdist_1_1NormalDist.html" target="_top" xlink:title="Extends the class ContinuousDistribution for the normal distribution (e.g.,   (page 80))...">
<polygon fill="none" stroke="red" points="291,-532.5 291,-551.5 356,-551.5 356,-532.5 291,-532.5"/>
<text text-anchor="middle" x="323.5" y="-539.5" font-family="Helvetica,sans-Serif" font-size="10.00">NormalDist</text>
</a>
</g>
</g>
<!-- Node0&#45;&gt;Node44 -->
<g id="edge34" class="edge"><title>Node0&#45;&gt;Node44</title>
<path fill="none" stroke="midnightblue" d="M159.801,-807.031C162.894,-757.65 177.931,-628.904 251,-561 261.726,-551.033 277.078,-546.175 290.808,-543.852"/>
<polygon fill="midnightblue" stroke="midnightblue" points="156.291,-807.135 159.264,-817.305 163.281,-807.501 156.291,-807.135"/>
</g>
<!-- Node46 -->
<g id="node36" class="node"><title>Node46</title>
<g id="a_node36"><a xlink:href="classumontreal_1_1ssj_1_1probdist_1_1NormalInverseGaussianDist.html" target="_top" xlink:title="Extends the class ContinuousDistribution for the normal inverse gaussian distribution with location p...">
<polygon fill="none" stroke="black" points="255.5,-494.5 255.5,-513.5 391.5,-513.5 391.5,-494.5 255.5,-494.5"/>
<text text-anchor="middle" x="323.5" y="-501.5" font-family="Helvetica,sans-Serif" font-size="10.00">NormalInverseGaussianDist</text>
</a>
</g>
</g>
<!-- Node0&#45;&gt;Node46 -->
<g id="edge35" class="edge"><title>Node0&#45;&gt;Node46</title>
<path fill="none" stroke="midnightblue" d="M158.794,-807.162C159.36,-753.223 168.623,-602.612 251,-523 254.971,-519.162 259.626,-516.077 264.622,-513.601"/>
<polygon fill="midnightblue" stroke="midnightblue" points="155.294,-807.404 158.784,-817.408 162.294,-807.411 155.294,-807.404"/>
</g>
<!-- Node47 -->
<g id="node37" class="node"><title>Node47</title>
<g id="a_node37"><a xlink:href="classumontreal_1_1ssj_1_1probdist_1_1ParetoDist.html" target="_top" xlink:title="Extends the class ContinuousDistribution for a distribution from the Pareto family, with shape parameter &#160;and location parameter &#160;  (page 574). ">
<polygon fill="none" stroke="black" points="292.5,-456.5 292.5,-475.5 354.5,-475.5 354.5,-456.5 292.5,-456.5"/>
<text text-anchor="middle" x="323.5" y="-463.5" font-family="Helvetica,sans-Serif" font-size="10.00">ParetoDist</text>
</a>
</g>
</g>
<!-- Node0&#45;&gt;Node47 -->
<g id="edge36" class="edge"><title>Node0&#45;&gt;Node47</title>
<path fill="none" stroke="midnightblue" d="M161.71,-807.163C171.089,-741.341 204.172,-531.685 251,-485 261.824,-474.209 278.035,-469.345 292.286,-467.229"/>
<polygon fill="midnightblue" stroke="midnightblue" points="158.198,-807.009 160.28,-817.397 165.13,-807.978 158.198,-807.009"/>
</g>
<!-- Node48 -->
<g id="node38" class="node"><title>Node48</title>
<g id="a_node38"><a xlink:href="classumontreal_1_1ssj_1_1probdist_1_1Pearson5Dist.html" target="_top" xlink:title="THIS CLASS HAS BEEN RENAMED InverseGammaDist . ">
<polygon fill="none" stroke="black" points="286,-418.5 286,-437.5 361,-437.5 361,-418.5 286,-418.5"/>
<text text-anchor="middle" x="323.5" y="-425.5" font-family="Helvetica,sans-Serif" font-size="10.00">Pearson5Dist</text>
</a>
</g>
</g>
<!-- Node0&#45;&gt;Node48 -->
<g id="edge37" class="edge"><title>Node0&#45;&gt;Node48</title>
<path fill="none" stroke="midnightblue" d="M161.126,-807.283C169.095,-736.947 199.41,-499.748 251,-447 260.16,-437.634 273.372,-432.715 285.952,-430.187"/>
<polygon fill="midnightblue" stroke="midnightblue" points="157.625,-807.093 160.003,-817.417 164.583,-807.864 157.625,-807.093"/>
</g>
<!-- Node49 -->
<g id="node39" class="node"><title>Node49</title>
<g id="a_node39"><a xlink:href="classumontreal_1_1ssj_1_1probdist_1_1Pearson6Dist.html" target="_top" xlink:title="Extends the class ContinuousDistribution for the Pearson type VI distribution with shape parameters &#160;...">
<polygon fill="none" stroke="black" points="286,-380.5 286,-399.5 361,-399.5 361,-380.5 286,-380.5"/>
<text text-anchor="middle" x="323.5" y="-387.5" font-family="Helvetica,sans-Serif" font-size="10.00">Pearson6Dist</text>
</a>
</g>
</g>
<!-- Node0&#45;&gt;Node49 -->
<g id="edge38" class="edge"><title>Node0&#45;&gt;Node49</title>
<path fill="none" stroke="midnightblue" d="M160.702,-806.8C167.454,-731.394 194.771,-467.705 251,-409 260.062,-399.539 273.254,-394.601 285.845,-392.083"/>
<polygon fill="midnightblue" stroke="midnightblue" points="157.175,-806.959 159.793,-817.225 164.148,-807.567 157.175,-806.959"/>
</g>
<!-- Node50 -->
<g id="node40" class="node"><title>Node50</title>
<g id="a_node40"><a xlink:href="classumontreal_1_1ssj_1_1probdist_1_1PiecewiseLinearEmpiricalDist.html" target="_top" xlink:title="Extends the class ContinuousDistribution for a piecewise&#45;linear approximation of the empirical distri...">
<polygon fill="none" stroke="black" points="251,-342.5 251,-361.5 396,-361.5 396,-342.5 251,-342.5"/>
<text text-anchor="middle" x="323.5" y="-349.5" font-family="Helvetica,sans-Serif" font-size="10.00">PiecewiseLinearEmpiricalDist</text>
</a>
</g>
</g>
<!-- Node0&#45;&gt;Node50 -->
<g id="edge39" class="edge"><title>Node0&#45;&gt;Node50</title>
<path fill="none" stroke="midnightblue" d="M160.285,-807.027C165.79,-727.676 189.936,-435.884 251,-371 254.609,-367.165 258.896,-364.071 263.551,-361.579"/>
<polygon fill="midnightblue" stroke="midnightblue" points="156.784,-806.928 159.606,-817.14 163.768,-807.397 156.784,-806.928"/>
</g>
<!-- Node51 -->
<g id="node41" class="node"><title>Node51</title>
<g id="a_node41"><a xlink:href="classumontreal_1_1ssj_1_1probdist_1_1PowerDist.html" target="_top" xlink:title="Extends the class ContinuousDistribution for the power distribution   (page 161) with shape paramete...">
<polygon fill="none" stroke="black" points="293,-304.5 293,-323.5 354,-323.5 354,-304.5 293,-304.5"/>
<text text-anchor="middle" x="323.5" y="-311.5" font-family="Helvetica,sans-Serif" font-size="10.00">PowerDist</text>
</a>
</g>
</g>
<!-- Node0&#45;&gt;Node51 -->
<g id="edge40" class="edge"><title>Node0&#45;&gt;Node51</title>
<path fill="none" stroke="midnightblue" d="M159.95,-806.994C164.317,-723.518 185.148,-404.029 251,-333 261.653,-321.509 278.391,-316.655 292.995,-314.722"/>
<polygon fill="midnightblue" stroke="midnightblue" points="156.446,-806.993 159.44,-817.156 163.437,-807.344 156.446,-806.993"/>
</g>
<!-- Node52 -->
<g id="node42" class="node"><title>Node52</title>
<g id="a_node42"><a xlink:href="classumontreal_1_1ssj_1_1probdist_1_1RayleighDist.html" target="_top" xlink:title="This class extends the class ContinuousDistribution for the Rayleigh distribution   with location pa...">
<polygon fill="none" stroke="black" points="288,-266.5 288,-285.5 359,-285.5 359,-266.5 288,-266.5"/>
<text text-anchor="middle" x="323.5" y="-273.5" font-family="Helvetica,sans-Serif" font-size="10.00">RayleighDist</text>
</a>
</g>
</g>
<!-- Node0&#45;&gt;Node52 -->
<g id="edge41" class="edge"><title>Node0&#45;&gt;Node52</title>
<path fill="none" stroke="midnightblue" d="M159.654,-807.151C162.926,-720.012 180.293,-372.258 251,-295 260.365,-284.767 274.554,-279.787 287.83,-277.448"/>
<polygon fill="midnightblue" stroke="midnightblue" points="156.152,-807.147 159.295,-817.264 163.148,-807.395 156.152,-807.147"/>
</g>
<!-- Node53 -->
<g id="node43" class="node"><title>Node53</title>
<g id="a_node43"><a xlink:href="classumontreal_1_1ssj_1_1probdist_1_1StudentDist.html" target="_top" xlink:title="Extends the class ContinuousDistribution for the Student &#45;distribution   (page 362) with &#160;degrees of...">
<polygon fill="none" stroke="red" points="289.5,-228.5 289.5,-247.5 357.5,-247.5 357.5,-228.5 289.5,-228.5"/>
<text text-anchor="middle" x="323.5" y="-235.5" font-family="Helvetica,sans-Serif" font-size="10.00">StudentDist</text>
</a>
</g>
</g>
<!-- Node0&#45;&gt;Node53 -->
<g id="edge42" class="edge"><title>Node0&#45;&gt;Node53</title>
<path fill="none" stroke="midnightblue" d="M159.402,-807.209C161.649,-716.399 175.45,-340.485 251,-257 260.652,-246.334 275.544,-241.364 289.244,-239.147"/>
<polygon fill="midnightblue" stroke="midnightblue" points="155.897,-807.381 159.169,-817.458 162.896,-807.54 155.897,-807.381"/>
</g>
<!-- Node55 -->
<g id="node44" class="node"><title>Node55</title>
<g id="a_node44"><a xlink:href="classumontreal_1_1ssj_1_1probdist_1_1TriangularDist.html" target="_top" xlink:title="Extends the class ContinuousDistribution for the triangular distribution (see   (page 297) and   (p...">
<polygon fill="none" stroke="black" points="285.5,-190.5 285.5,-209.5 361.5,-209.5 361.5,-190.5 285.5,-190.5"/>
<text text-anchor="middle" x="323.5" y="-197.5" font-family="Helvetica,sans-Serif" font-size="10.00">TriangularDist</text>
</a>
</g>
</g>
<!-- Node0&#45;&gt;Node55 -->
<g id="edge43" class="edge"><title>Node0&#45;&gt;Node55</title>
<path fill="none" stroke="midnightblue" d="M159.184,-807.098C160.468,-712.441 170.642,-308.682 251,-219 259.743,-209.243 272.869,-204.245 285.499,-201.762"/>
<polygon fill="midnightblue" stroke="midnightblue" points="155.683,-807.243 159.066,-817.283 162.682,-807.325 155.683,-807.243"/>
</g>
<!-- Node56 -->
<g id="node45" class="node"><title>Node56</title>
<g id="a_node45"><a xlink:href="classumontreal_1_1ssj_1_1probdist_1_1TruncatedDist.html" target="_top" xlink:title="This container class takes an arbitrary continuous distribution and truncates it to an interval ...">
<polygon fill="none" stroke="black" points="285,-152.5 285,-171.5 362,-171.5 362,-152.5 285,-152.5"/>
<text text-anchor="middle" x="323.5" y="-159.5" font-family="Helvetica,sans-Serif" font-size="10.00">TruncatedDist</text>
</a>
</g>
</g>
<!-- Node0&#45;&gt;Node56 -->
<g id="edge44" class="edge"><title>Node0&#45;&gt;Node56</title>
<path fill="none" stroke="midnightblue" d="M158.989,-807.104C159.344,-708.919 165.79,-276.934 251,-181 259.529,-171.397 272.305,-166.397 284.709,-163.87"/>
<polygon fill="midnightblue" stroke="midnightblue" points="155.489,-807.148 158.971,-817.155 162.489,-807.161 155.489,-807.148"/>
</g>
<!-- Node57 -->
<g id="node46" class="node"><title>Node57</title>
<g id="a_node46"><a xlink:href="classumontreal_1_1ssj_1_1probdist_1_1UniformDist.html" target="_top" xlink:title="Extends the class ContinuousDistribution for the uniform distribution   (page 276) over the interval...">
<polygon fill="none" stroke="black" points="290,-114.5 290,-133.5 357,-133.5 357,-114.5 290,-114.5"/>
<text text-anchor="middle" x="323.5" y="-121.5" font-family="Helvetica,sans-Serif" font-size="10.00">UniformDist</text>
</a>
</g>
</g>
<!-- Node0&#45;&gt;Node57 -->
<g id="edge45" class="edge"><title>Node0&#45;&gt;Node57</title>
<path fill="none" stroke="midnightblue" d="M158.814,-806.911C158.286,-704.904 160.988,-245.137 251,-143 260.681,-132.015 275.919,-127.046 289.844,-124.913"/>
<polygon fill="midnightblue" stroke="midnightblue" points="155.316,-807.095 158.885,-817.07 162.315,-807.046 155.316,-807.095"/>
</g>
<!-- Node58 -->
<g id="node47" class="node"><title>Node58</title>
<g id="a_node47"><a xlink:href="classumontreal_1_1ssj_1_1probdist_1_1WatsonGDist.html" target="_top" xlink:title="Extends the class ContinuousDistribution for the Watson &#160;distribution (see ,  ). ...">
<polygon fill="none" stroke="black" points="286,-76.5 286,-95.5 361,-95.5 361,-76.5 286,-76.5"/>
<text text-anchor="middle" x="323.5" y="-83.5" font-family="Helvetica,sans-Serif" font-size="10.00">WatsonGDist</text>
</a>
</g>
</g>
<!-- Node0&#45;&gt;Node58 -->
<g id="edge46" class="edge"><title>Node0&#45;&gt;Node58</title>
<path fill="none" stroke="midnightblue" d="M158.656,-806.805C157.272,-701.218 156.153,-213.381 251,-105 259.712,-95.0446 272.988,-90.0244 285.745,-87.5798"/>
<polygon fill="midnightblue" stroke="midnightblue" points="155.159,-807.081 158.807,-817.028 162.158,-806.977 155.159,-807.081"/>
</g>
<!-- Node59 -->
<g id="node48" class="node"><title>Node59</title>
<g id="a_node48"><a xlink:href="classumontreal_1_1ssj_1_1probdist_1_1WatsonUDist.html" target="_top" xlink:title="Extends the class ContinuousDistribution for the Watson U distribution (see , ,  ). ">
<polygon fill="none" stroke="black" points="286.5,-38.5 286.5,-57.5 360.5,-57.5 360.5,-38.5 286.5,-38.5"/>
<text text-anchor="middle" x="323.5" y="-45.5" font-family="Helvetica,sans-Serif" font-size="10.00">WatsonUDist</text>
</a>
</g>
</g>
<!-- Node0&#45;&gt;Node59 -->
<g id="edge47" class="edge"><title>Node0&#45;&gt;Node59</title>
<path fill="none" stroke="midnightblue" d="M160.074,-807.363C166.451,-693.854 200.778,-124.752 251,-67 259.85,-56.8234 273.468,-51.7985 286.455,-49.4112"/>
<polygon fill="midnightblue" stroke="midnightblue" points="156.576,-807.228 159.516,-817.407 163.565,-807.617 156.576,-807.228"/>
</g>
<!-- Node60 -->
<g id="node49" class="node"><title>Node60</title>
<g id="a_node49"><a xlink:href="classumontreal_1_1ssj_1_1probdist_1_1WeibullDist.html" target="_top" xlink:title="This class extends the class ContinuousDistribution for the Weibull distribution   (page 628) with s...">
<polygon fill="none" stroke="black" points="290.5,-0.5 290.5,-19.5 356.5,-19.5 356.5,-0.5 290.5,-0.5"/>
<text text-anchor="middle" x="323.5" y="-7.5" font-family="Helvetica,sans-Serif" font-size="10.00">WeibullDist</text>
</a>
</g>
</g>
<!-- Node0&#45;&gt;Node60 -->
<g id="edge48" class="edge"><title>Node0&#45;&gt;Node60</title>
<path fill="none" stroke="midnightblue" d="M159.949,-807.483C165.787,-690.941 198.312,-89.9378 251,-29 260.745,-17.7296 276.339,-12.7719 290.48,-10.72"/>
<polygon fill="midnightblue" stroke="midnightblue" points="156.454,-807.315 159.455,-817.476 163.445,-807.661 156.454,-807.315"/>
</g>
<!-- Node1 -->
<g id="node2" class="node"><title>Node1</title>
<g id="a_node2"><a xlink:href="interfaceumontreal_1_1ssj_1_1probdist_1_1Distribution.html" target="_top" xlink:title="This interface should be implemented by all classes supporting discrete and continuous distributions...">
<polygon fill="none" stroke="black" points="0,-817.5 0,-836.5 65,-836.5 65,-817.5 0,-817.5"/>
<text text-anchor="middle" x="32.5" y="-824.5" font-family="Helvetica,sans-Serif" font-size="10.00">Distribution</text>
</a>
</g>
</g>
<!-- Node1&#45;&gt;Node0 -->
<g id="edge1" class="edge"><title>Node1&#45;&gt;Node0</title>
<path fill="none" stroke="midnightblue" d="M75.3604,-827C83.5604,-827 92.2843,-827 100.863,-827"/>
<polygon fill="midnightblue" stroke="midnightblue" points="75.3044,-823.5 65.3043,-827 75.3043,-830.5 75.3044,-823.5"/>
</g>
<!-- Node3 -->
<g id="node4" class="node"><title>Node3</title>
<g id="a_node4"><a xlink:href="classumontreal_1_1ssj_1_1probdist_1_1AndersonDarlingDistQuick.html" target="_top" xlink:title="Extends the class AndersonDarlingDist for the Anderson–Darling distribution (see ...">
<polygon fill="none" stroke="black" points="432,-1634.5 432,-1653.5 563,-1653.5 563,-1634.5 432,-1634.5"/>
<text text-anchor="middle" x="497.5" y="-1641.5" font-family="Helvetica,sans-Serif" font-size="10.00">AndersonDarlingDistQuick</text>
</a>
</g>
</g>
<!-- Node2&#45;&gt;Node3 -->
<g id="edge3" class="edge"><title>Node2&#45;&gt;Node3</title>
<path fill="none" stroke="midnightblue" d="M386.174,-1644C400.994,-1644 416.864,-1644 431.817,-1644"/>
<polygon fill="midnightblue" stroke="midnightblue" points="386.106,-1640.5 376.106,-1644 386.106,-1647.5 386.106,-1640.5"/>
</g>
<!-- Node5 -->
<g id="node6" class="node"><title>Node5</title>
<g id="a_node6"><a xlink:href="classumontreal_1_1ssj_1_1probdist_1_1BetaSymmetricalDist.html" target="_top" xlink:title="Specializes the class BetaDist to the case of a symmetrical beta distribution over the interval ...">
<polygon fill="none" stroke="black" points="443,-1596.5 443,-1615.5 552,-1615.5 552,-1596.5 443,-1596.5"/>
<text text-anchor="middle" x="497.5" y="-1603.5" font-family="Helvetica,sans-Serif" font-size="10.00">BetaSymmetricalDist</text>
</a>
</g>
</g>
<!-- Node4&#45;&gt;Node5 -->
<g id="edge5" class="edge"><title>Node4&#45;&gt;Node5</title>
<path fill="none" stroke="midnightblue" d="M360.628,-1606C384.408,-1606 415.96,-1606 442.673,-1606"/>
<polygon fill="midnightblue" stroke="midnightblue" points="360.623,-1602.5 350.623,-1606 360.623,-1609.5 360.623,-1602.5"/>
</g>
<!-- Node9 -->
<g id="node10" class="node"><title>Node9</title>
<g id="a_node10"><a xlink:href="classumontreal_1_1ssj_1_1probdist_1_1ChiSquareDistQuick.html" target="_top" xlink:title="Provides a variant of ChiSquareDist with faster but less accurate methods. ">
<polygon fill="none" stroke="black" points="445.5,-1482.5 445.5,-1501.5 549.5,-1501.5 549.5,-1482.5 445.5,-1482.5"/>
<text text-anchor="middle" x="497.5" y="-1489.5" font-family="Helvetica,sans-Serif" font-size="10.00">ChiSquareDistQuick</text>
</a>
</g>
</g>
<!-- Node8&#45;&gt;Node9 -->
<g id="edge9" class="edge"><title>Node8&#45;&gt;Node9</title>
<path fill="none" stroke="midnightblue" d="M373.127,-1492C395.664,-1492 422.454,-1492 445.301,-1492"/>
<polygon fill="midnightblue" stroke="midnightblue" points="373.1,-1488.5 363.1,-1492 373.1,-1495.5 373.1,-1488.5"/>
</g>
</g>
</svg>
