<?xml version="1.0" encoding="UTF-8" standalone="no"?>
<!DOCTYPE svg PUBLIC "-//W3C//DTD SVG 1.1//EN"
 "http://www.w3.org/Graphics/SVG/1.1/DTD/svg11.dtd">
<!-- Generated by graphviz version 2.38.0 (20140413.2041)
 -->
<!-- Title: VarianceGammaProcessDiffPCASymmetricalBridge Pages: 1 -->
<!--zoomable 480 -->
<svg id="main" version="1.1" xmlns="http://www.w3.org/2000/svg" xmlns:xlink="http://www.w3.org/1999/xlink" xml:space="preserve" onload="init(evt)">
<style type="text/css"><![CDATA[
.edge:hover path { stroke: red; }
.edge:hover polygon { stroke: red; fill: red; }
]]></style>
<script type="text/javascript"><![CDATA[
var edges = document.getElementsByTagName('g');
if (edges && edges.length) {
  for (var i=0;i<edges.length;i++) {
    if (edges[i].id.substr(0,4)=='edge') {
      edges[i].setAttribute('class','edge');
    }
  }
}
]]></script>
        <defs>
                <circle id="rim" cx="0" cy="0" r="7"/>
                <circle id="rim2" cx="0" cy="0" r="3.5"/>
                <g id="zoomPlus">
                        <use xlink:href="#rim" fill="#404040">
                                <set attributeName="fill" to="#808080" begin="zoomplus.mouseover" end="zoomplus.mouseout"/>
                        </use>
                        <path d="M-4,0h8M0,-4v8" fill="none" stroke="white" stroke-width="1.5" pointer-events="none"/>
                </g>
                <g id="zoomMin">
                        <use xlink:href="#rim" fill="#404040">
                                <set attributeName="fill" to="#808080" begin="zoomminus.mouseover" end="zoomminus.mouseout"/>
                        </use>
                        <path d="M-4,0h8" fill="none" stroke="white" stroke-width="1.5" pointer-events="none"/>
                </g>
                <g id="dirArrow">
                        <path fill="none" stroke="white" stroke-width="1.5" d="M0,-3.0v7 M-2.5,-0.5L0,-3.0L2.5,-0.5"/>
                </g>
               <g id="resetDef">
                       <use xlink:href="#rim2" fill="#404040">
                               <set attributeName="fill" to="#808080" begin="reset.mouseover" end="reset.mouseout"/>
                       </use>
               </g>
        </defs>

<script type="text/javascript">
var viewWidth = 348;
var viewHeight = 480;
var sectionId = 'dynsection-1';
</script>
<script xlink:href="svgpan.js"/>
<svg id="graph" class="graph">
<g id="viewport">
<title>VarianceGammaProcessDiffPCASymmetricalBridge</title>
<!-- Node5 -->
<g id="node1" class="node"><title>Node5</title>
<polygon fill="#bfbfbf" stroke="black" points="136,-0.5 136,-30.5 275,-30.5 275,-0.5 136,-0.5"/>
<text text-anchor="start" x="144" y="-18.5" font-family="Helvetica,sans-Serif" font-size="10.00">VarianceGammaProcessDiff</text>
<text text-anchor="middle" x="205.5" y="-7.5" font-family="Helvetica,sans-Serif" font-size="10.00">PCASymmetricalBridge</text>
</g>
<!-- Node6 -->
<g id="node2" class="node"><title>Node6</title>
<g id="a_node2"><a xlink:href="classumontreal_1_1ssj_1_1stochprocess_1_1VarianceGammaProcessDiffPCA.html" target="_top" xlink:title="Same as VarianceGammaProcessDiff, but the two inner GammaProcess ’es are of PCA type. ">
<polygon fill="none" stroke="black" points="126,-68.5 126,-87.5 285,-87.5 285,-68.5 126,-68.5"/>
<text text-anchor="middle" x="205.5" y="-75.5" font-family="Helvetica,sans-Serif" font-size="10.00">VarianceGammaProcessDiffPCA</text>
</a>
</g>
</g>
<!-- Node6&#45;&gt;Node5 -->
<g id="edge1" class="edge"><title>Node6&#45;&gt;Node5</title>
<path fill="none" stroke="midnightblue" d="M205.5,-58.2154C205.5,-49.3565 205.5,-38.9577 205.5,-30.7587"/>
<polygon fill="midnightblue" stroke="midnightblue" points="202,-58.3318 205.5,-68.3318 209,-58.3319 202,-58.3318"/>
</g>
<!-- Node7 -->
<g id="node3" class="node"><title>Node7</title>
<g id="a_node3"><a xlink:href="classumontreal_1_1ssj_1_1stochprocess_1_1VarianceGammaProcessDiff.html" target="_top" xlink:title="This class represents a variance gamma (VG) process . ">
<polygon fill="none" stroke="black" points="136,-125.5 136,-144.5 275,-144.5 275,-125.5 136,-125.5"/>
<text text-anchor="middle" x="205.5" y="-132.5" font-family="Helvetica,sans-Serif" font-size="10.00">VarianceGammaProcessDiff</text>
</a>
</g>
</g>
<!-- Node7&#45;&gt;Node6 -->
<g id="edge2" class="edge"><title>Node7&#45;&gt;Node6</title>
<path fill="none" stroke="midnightblue" d="M205.5,-115.117C205.5,-105.817 205.5,-95.0557 205.5,-87.7149"/>
<polygon fill="midnightblue" stroke="midnightblue" points="202,-115.406 205.5,-125.406 209,-115.406 202,-115.406"/>
</g>
<!-- Node8 -->
<g id="node4" class="node"><title>Node8</title>
<g id="a_node4"><a xlink:href="classumontreal_1_1ssj_1_1stochprocess_1_1VarianceGammaProcess.html" target="_top" xlink:title="This class represents a variance gamma (VG) process . ">
<polygon fill="none" stroke="black" points="71,-183.5 71,-202.5 196,-202.5 196,-183.5 71,-183.5"/>
<text text-anchor="middle" x="133.5" y="-190.5" font-family="Helvetica,sans-Serif" font-size="10.00">VarianceGammaProcess</text>
</a>
</g>
</g>
<!-- Node8&#45;&gt;Node7 -->
<g id="edge3" class="edge"><title>Node8&#45;&gt;Node7</title>
<path fill="none" stroke="midnightblue" d="M152.53,-177.199C165.901,-166.799 183.322,-153.25 194.462,-144.585"/>
<polygon fill="midnightblue" stroke="midnightblue" points="150.18,-174.593 144.435,-183.495 154.478,-180.118 150.18,-174.593"/>
</g>
<!-- Node9 -->
<g id="node5" class="node"><title>Node9</title>
<g id="a_node5"><a xlink:href="classumontreal_1_1ssj_1_1stochprocess_1_1StochasticProcess.html" target="_top" xlink:title="Abstract base class for a stochastic process &#160;sampled (or observed) at a finite number of time points...">
<polygon fill="none" stroke="black" points="83,-318.5 83,-337.5 182,-337.5 182,-318.5 83,-318.5"/>
<text text-anchor="middle" x="132.5" y="-325.5" font-family="Helvetica,sans-Serif" font-size="10.00">StochasticProcess</text>
</a>
</g>
</g>
<!-- Node9&#45;&gt;Node8 -->
<g id="edge4" class="edge"><title>Node9&#45;&gt;Node8</title>
<path fill="none" stroke="midnightblue" d="M88.7846,-313.586C83.1241,-310.046 78.0657,-305.593 74.5,-300 71.8719,-295.878 74.1804,-293.878 74.5,-289 75.6135,-272.002 72.1735,-266.378 79.5,-251 89.2324,-230.572 109.049,-212.669 121.779,-202.607"/>
<polygon fill="midnightblue" stroke="midnightblue" points="87.5642,-316.898 98.0475,-318.431 90.8086,-310.695 87.5642,-316.898"/>
</g>
<!-- Node10 -->
<g id="node6" class="node"><title>Node10</title>
<g id="a_node6"><a xlink:href="classumontreal_1_1ssj_1_1stochprocess_1_1BrownianMotion.html" target="_top" xlink:title="This class represents a Brownian motion process , sampled at times . ">
<polygon fill="none" stroke="black" points="88.5,-251.5 88.5,-270.5 174.5,-270.5 174.5,-251.5 88.5,-251.5"/>
<text text-anchor="middle" x="131.5" y="-258.5" font-family="Helvetica,sans-Serif" font-size="10.00">BrownianMotion</text>
</a>
</g>
</g>
<!-- Node9&#45;&gt;Node10 -->
<g id="edge6" class="edge"><title>Node9&#45;&gt;Node10</title>
<path fill="none" stroke="midnightblue" d="M132.208,-308.037C132.018,-295.67 131.779,-280.12 131.633,-270.627"/>
<polygon fill="midnightblue" stroke="midnightblue" points="128.712,-308.289 132.365,-318.234 135.711,-308.181 128.712,-308.289"/>
</g>
<!-- Node15 -->
<g id="node11" class="node"><title>Node15</title>
<g id="a_node11"><a xlink:href="classumontreal_1_1ssj_1_1stochprocess_1_1GammaProcess.html" target="_top" xlink:title="This class represents a gamma process   (page 82) &#160;with mean parameter &#160;and variance parameter ...">
<polygon fill="none" stroke="black" points="193,-251.5 193,-270.5 280,-270.5 280,-251.5 193,-251.5"/>
<text text-anchor="middle" x="236.5" y="-258.5" font-family="Helvetica,sans-Serif" font-size="10.00">GammaProcess</text>
</a>
</g>
</g>
<!-- Node9&#45;&gt;Node15 -->
<g id="edge12" class="edge"><title>Node9&#45;&gt;Node15</title>
<path fill="none" stroke="midnightblue" d="M155.27,-312.769C175.856,-299.903 205.494,-281.379 222.696,-270.627"/>
<polygon fill="midnightblue" stroke="midnightblue" points="153.151,-309.966 146.526,-318.234 156.861,-315.902 153.151,-309.966"/>
</g>
<!-- Node10&#45;&gt;Node8 -->
<g id="edge5" class="edge"><title>Node10&#45;&gt;Node8</title>
<path fill="none" stroke="#9a32cd" stroke-dasharray="5,2" d="M127.956,-241.251C127.216,-235.116 126.836,-228.267 127.5,-222 128.191,-215.474 129.765,-208.234 131.127,-202.751"/>
<polygon fill="#9a32cd" stroke="#9a32cd" points="124.517,-241.912 129.53,-251.246 131.432,-240.823 124.517,-241.912"/>
<text text-anchor="middle" x="137" y="-225" font-family="Helvetica,sans-Serif" font-size="10.00"> BM</text>
</g>
<!-- Node11 -->
<g id="node7" class="node"><title>Node11</title>
<g id="a_node7"><a xlink:href="classumontreal_1_1ssj_1_1randvar_1_1NormalGen.html" target="_top" xlink:title="This class implements methods for generating random variates from the normal distribution ...">
<polygon fill="none" stroke="black" points="0,-318.5 0,-337.5 65,-337.5 65,-318.5 0,-318.5"/>
<text text-anchor="middle" x="32.5" y="-325.5" font-family="Helvetica,sans-Serif" font-size="10.00">NormalGen</text>
</a>
</g>
</g>
<!-- Node11&#45;&gt;Node10 -->
<g id="edge7" class="edge"><title>Node11&#45;&gt;Node10</title>
<path fill="none" stroke="#9a32cd" stroke-dasharray="5,2" d="M54.4407,-312.595C74.0253,-299.736 102.058,-281.331 118.36,-270.627"/>
<polygon fill="#9a32cd" stroke="#9a32cd" points="52.2899,-309.82 45.8516,-318.234 56.1318,-315.671 52.2899,-309.82"/>
<text text-anchor="middle" x="98" y="-292" font-family="Helvetica,sans-Serif" font-size="10.00"> gen</text>
</g>
<!-- Node12 -->
<g id="node8" class="node"><title>Node12</title>
<g id="a_node8"><a xlink:href="classumontreal_1_1ssj_1_1randvar_1_1RandomVariateGen.html" target="_top" xlink:title="This is the base class for all random variate generators over the real line. ">
<polygon fill="none" stroke="black" points="161,-385.5 161,-404.5 262,-404.5 262,-385.5 161,-385.5"/>
<text text-anchor="middle" x="211.5" y="-392.5" font-family="Helvetica,sans-Serif" font-size="10.00">RandomVariateGen</text>
</a>
</g>
</g>
<!-- Node12&#45;&gt;Node11 -->
<g id="edge8" class="edge"><title>Node12&#45;&gt;Node11</title>
<path fill="none" stroke="midnightblue" d="M178.279,-381.936C142.769,-369.042 87.3683,-348.924 56.083,-337.564"/>
<polygon fill="midnightblue" stroke="midnightblue" points="177.136,-385.245 187.73,-385.369 179.525,-378.665 177.136,-385.245"/>
</g>
<!-- Node16 -->
<g id="node12" class="node"><title>Node16</title>
<g id="a_node12"><a xlink:href="classumontreal_1_1ssj_1_1randvar_1_1GammaGen.html" target="_top" xlink:title="This class implements random variate generators for the gamma distribution. ">
<polygon fill="none" stroke="black" points="200,-318.5 200,-337.5 269,-337.5 269,-318.5 200,-318.5"/>
<text text-anchor="middle" x="234.5" y="-325.5" font-family="Helvetica,sans-Serif" font-size="10.00">GammaGen</text>
</a>
</g>
</g>
<!-- Node12&#45;&gt;Node16 -->
<g id="edge14" class="edge"><title>Node12&#45;&gt;Node16</title>
<path fill="none" stroke="midnightblue" d="M217.944,-375.79C222.36,-363.308 228.02,-347.314 231.447,-337.627"/>
<polygon fill="midnightblue" stroke="midnightblue" points="214.638,-374.639 214.602,-385.234 221.237,-376.974 214.638,-374.639"/>
</g>
<!-- Node13 -->
<g id="node9" class="node"><title>Node13</title>
<g id="a_node9"><a xlink:href="interfaceumontreal_1_1ssj_1_1probdist_1_1Distribution.html" target="_top" xlink:title="This interface should be implemented by all classes supporting discrete and continuous distributions...">
<polygon fill="none" stroke="black" points="172,-452.5 172,-471.5 237,-471.5 237,-452.5 172,-452.5"/>
<text text-anchor="middle" x="204.5" y="-459.5" font-family="Helvetica,sans-Serif" font-size="10.00">Distribution</text>
</a>
</g>
</g>
<!-- Node13&#45;&gt;Node12 -->
<g id="edge9" class="edge"><title>Node13&#45;&gt;Node12</title>
<path fill="none" stroke="#9a32cd" stroke-dasharray="5,2" d="M205.003,-442.21C205.296,-436.072 205.762,-429.233 206.5,-423 207.217,-416.94 208.467,-410.19 209.538,-404.955"/>
<polygon fill="#9a32cd" stroke="#9a32cd" points="201.504,-442.097 204.637,-452.218 208.5,-442.353 201.504,-442.097"/>
<text text-anchor="middle" x="216" y="-426" font-family="Helvetica,sans-Serif" font-size="10.00"> dist</text>
</g>
<!-- Node14 -->
<g id="node10" class="node"><title>Node14</title>
<g id="a_node10"><a xlink:href="interfaceumontreal_1_1ssj_1_1rng_1_1RandomStream.html" target="_top" xlink:title="This interface defines the basic structures to handle multiple streams of uniform (pseudo)random numb...">
<polygon fill="none" stroke="black" points="255.5,-452.5 255.5,-471.5 339.5,-471.5 339.5,-452.5 255.5,-452.5"/>
<text text-anchor="middle" x="297.5" y="-459.5" font-family="Helvetica,sans-Serif" font-size="10.00">RandomStream</text>
</a>
</g>
</g>
<!-- Node14&#45;&gt;Node12 -->
<g id="edge10" class="edge"><title>Node14&#45;&gt;Node12</title>
<path fill="none" stroke="#9a32cd" stroke-dasharray="5,2" d="M270.247,-447.368C263.245,-443.415 255.89,-438.846 249.5,-434 237.755,-425.092 226.033,-412.705 218.779,-404.526"/>
<polygon fill="#9a32cd" stroke="#9a32cd" points="268.992,-450.668 279.453,-452.346 272.321,-444.511 268.992,-450.668"/>
<text text-anchor="middle" x="266.5" y="-426" font-family="Helvetica,sans-Serif" font-size="10.00"> stream</text>
</g>
<!-- Node14&#45;&gt;Node15 -->
<g id="edge15" class="edge"><title>Node14&#45;&gt;Node15</title>
<path fill="none" stroke="#9a32cd" stroke-dasharray="5,2" d="M298.975,-441.928C300.621,-408.098 299.632,-336.664 267.5,-289 262.633,-281.78 255.364,-275.31 249.088,-270.514"/>
<polygon fill="#9a32cd" stroke="#9a32cd" points="295.462,-442.026 298.329,-452.226 302.448,-442.464 295.462,-442.026"/>
<text text-anchor="middle" x="312.5" y="-359" font-family="Helvetica,sans-Serif" font-size="10.00"> stream</text>
</g>
<!-- Node15&#45;&gt;Node7 -->
<g id="edge16" class="edge"><title>Node15&#45;&gt;Node7</title>
<path fill="none" stroke="#9a32cd" stroke-dasharray="5,2" d="M231.919,-241.676C225.123,-214.494 212.638,-164.552 207.646,-144.583"/>
<polygon fill="#9a32cd" stroke="#9a32cd" points="228.548,-242.624 234.369,-251.477 235.339,-240.927 228.548,-242.624"/>
<text text-anchor="middle" x="235" y="-196" font-family="Helvetica,sans-Serif" font-size="10.00"> gneg</text>
<text text-anchor="middle" x="235" y="-185" font-family="Helvetica,sans-Serif" font-size="10.00">gpos</text>
</g>
<!-- Node15&#45;&gt;Node8 -->
<g id="edge11" class="edge"><title>Node15&#45;&gt;Node8</title>
<path fill="none" stroke="#9a32cd" stroke-dasharray="5,2" d="M197.885,-247.812C188.181,-243.86 178.092,-238.931 169.5,-233 157.367,-224.624 146.338,-211.484 139.772,-202.806"/>
<polygon fill="#9a32cd" stroke="#9a32cd" points="196.8,-251.144 207.391,-251.438 199.295,-244.604 196.8,-251.144"/>
<text text-anchor="middle" x="198" y="-225" font-family="Helvetica,sans-Serif" font-size="10.00"> randomTime</text>
</g>
<!-- Node16&#45;&gt;Node15 -->
<g id="edge13" class="edge"><title>Node16&#45;&gt;Node15</title>
<path fill="none" stroke="#9a32cd" stroke-dasharray="5,2" d="M235.083,-308.037C235.464,-295.67 235.942,-280.12 236.235,-270.627"/>
<polygon fill="#9a32cd" stroke="#9a32cd" points="231.579,-308.131 234.77,-318.234 238.576,-308.346 231.579,-308.131"/>
<text text-anchor="middle" x="250" y="-292" font-family="Helvetica,sans-Serif" font-size="10.00"> Ggen</text>
</g>
</g>
</svg>
        <g id="navigator" transform="translate(0 0)" fill="#404254">
                <rect fill="#f2f5e9" fill-opacity="0.5" stroke="#606060" stroke-width=".5" x="0" y="0" width="60" height="60"/>
                <use id="zoomplus" xlink:href="#zoomPlus" x="17" y="9" onmousedown="handleZoom(evt,'in')"/>
                <use id="zoomminus" xlink:href="#zoomMin" x="42" y="9" onmousedown="handleZoom(evt,'out')"/>
                <use id="reset" xlink:href="#resetDef" x="30" y="36" onmousedown="handleReset()"/>
                <g id="arrowUp" xlink:href="#dirArrow" transform="translate(30 24)" onmousedown="handlePan(0,-1)">
                  <use xlink:href="#rim" fill="#404040">
                        <set attributeName="fill" to="#808080" begin="arrowUp.mouseover" end="arrowUp.mouseout"/>
                  </use>
                  <path fill="none" stroke="white" stroke-width="1.5" d="M0,-3.0v7 M-2.5,-0.5L0,-3.0L2.5,-0.5"/>
                </g>
                <g id="arrowRight" xlink:href="#dirArrow" transform="rotate(90) translate(36 -43)" onmousedown="handlePan(1,0)">
                  <use xlink:href="#rim" fill="#404040">
                        <set attributeName="fill" to="#808080" begin="arrowRight.mouseover" end="arrowRight.mouseout"/>
                  </use>
                  <path fill="none" stroke="white" stroke-width="1.5" d="M0,-3.0v7 M-2.5,-0.5L0,-3.0L2.5,-0.5"/>
                </g>
                <g id="arrowDown" xlink:href="#dirArrow" transform="rotate(180) translate(-30 -48)" onmousedown="handlePan(0,1)">
                  <use xlink:href="#rim" fill="#404040">
                        <set attributeName="fill" to="#808080" begin="arrowDown.mouseover" end="arrowDown.mouseout"/>
                  </use>
                  <path fill="none" stroke="white" stroke-width="1.5" d="M0,-3.0v7 M-2.5,-0.5L0,-3.0L2.5,-0.5"/>
                </g>
                <g id="arrowLeft" xlink:href="#dirArrow" transform="rotate(270) translate(-36 17)" onmousedown="handlePan(-1,0)">
                  <use xlink:href="#rim" fill="#404040">
                        <set attributeName="fill" to="#808080" begin="arrowLeft.mouseover" end="arrowLeft.mouseout"/>
                  </use>
                  <path fill="none" stroke="white" stroke-width="1.5" d="M0,-3.0v7 M-2.5,-0.5L0,-3.0L2.5,-0.5"/>
                </g>
        </g>
        <svg viewBox="0 0 15 15" width="100%" height="30px" preserveAspectRatio="xMaxYMin meet">
         <g id="arrow_out" transform="scale(0.3 0.3)">
          <a xlink:href="classumontreal_1_1ssj_1_1stochprocess_1_1VarianceGammaProcessDiffPCASymmetricalBridge__coll__graph_org.svg" target="_base">
           <rect id="button" ry="5" rx="5" y="6" x="6" height="38" width="38"
                fill="#f2f5e9" fill-opacity="0.5" stroke="#606060" stroke-width="1.0"/>
           <path id="arrow"
             d="M 11.500037,31.436501 C 11.940474,20.09759 22.043105,11.32322 32.158766,21.979434 L 37.068811,17.246167 C 37.068811,17.246167 37.088388,32 37.088388,32 L 22.160133,31.978069 C 22.160133,31.978069 26.997745,27.140456 26.997745,27.140456 C 18.528582,18.264221 13.291696,25.230495 11.500037,31.436501 z"
             style="fill:#404040;"/>
          </a>
         </g>
        </svg>
</svg>
