<?xml version="1.0" encoding="UTF-8" standalone="no"?>
<!DOCTYPE svg PUBLIC "-//W3C//DTD SVG 1.1//EN"
 "http://www.w3.org/Graphics/SVG/1.1/DTD/svg11.dtd">
<!-- Generated by graphviz version 2.26.3 (20100126.1600)
 -->
<!-- Title: NiedXingSequenceBase2 Pages: 1 -->
<svg width="134pt" height="340pt"
 viewBox="0.00 0.00 134.00 340.00" xmlns="http://www.w3.org/2000/svg" xmlns:xlink="http://www.w3.org/1999/xlink">
<g id="graph1" class="graph" transform="scale(1 1) rotate(0) translate(4 336)">
<title>NiedXingSequenceBase2</title>
<!-- Node1 -->
<g id="node1" class="node"><title>Node1</title>
<polygon fill="#bfbfbf" stroke="black" points="-0.5,-1 -0.5,-21 126.5,-21 126.5,-1 -0.5,-1"/>
<text text-anchor="middle" x="63" y="-8" font-family="Helvetica,sans-Serif" font-size="10.00">NiedXingSequenceBase2</text>
</g>
<!-- Node2 -->
<g id="node2" class="node"><title>Node2</title>
<a xlink:href="classumontreal_1_1ssj_1_1hups_1_1DigitalSequenceBase2.html" target="_top" xlink:title="This abstract class describes methods specific to digital sequences in base 2. ">
<polygon fill="none" stroke="black" points="5.5,-61 5.5,-81 120.5,-81 120.5,-61 5.5,-61"/>
<text text-anchor="middle" x="63" y="-68" font-family="Helvetica,sans-Serif" font-size="10.00">DigitalSequenceBase2</text>
</a>
</g>
<!-- Node2&#45;&gt;Node1 -->
<g id="edge2" class="edge"><title>Node2&#45;&gt;Node1</title>
<path fill="none" stroke="midnightblue" d="M63,-50.5155C63,-40.562 63,-29.0495 63,-21.0279"/>
<polygon fill="midnightblue" stroke="midnightblue" points="59.5001,-50.8218 63,-60.8218 66.5001,-50.8219 59.5001,-50.8218"/>
</g>
<!-- Node3 -->
<g id="node4" class="node"><title>Node3</title>
<a xlink:href="classumontreal_1_1ssj_1_1hups_1_1DigitalNetBase2.html" target="_top" xlink:title="A special case of DigitalNet for the base . ">
<polygon fill="none" stroke="black" points="20,-121 20,-141 106,-141 106,-121 20,-121"/>
<text text-anchor="middle" x="63" y="-128" font-family="Helvetica,sans-Serif" font-size="10.00">DigitalNetBase2</text>
</a>
</g>
<!-- Node3&#45;&gt;Node2 -->
<g id="edge4" class="edge"><title>Node3&#45;&gt;Node2</title>
<path fill="none" stroke="midnightblue" d="M63,-110.516C63,-100.562 63,-89.0495 63,-81.0279"/>
<polygon fill="midnightblue" stroke="midnightblue" points="59.5001,-110.822 63,-120.822 66.5001,-110.822 59.5001,-110.822"/>
</g>
<!-- Node4 -->
<g id="node6" class="node"><title>Node4</title>
<a xlink:href="classumontreal_1_1ssj_1_1hups_1_1DigitalNet.html" target="_top" xlink:title="This class provides the basic structures for storing and manipulating linear digital nets in base ...">
<polygon fill="none" stroke="black" points="33.5,-181 33.5,-201 92.5,-201 92.5,-181 33.5,-181"/>
<text text-anchor="middle" x="63" y="-188" font-family="Helvetica,sans-Serif" font-size="10.00">DigitalNet</text>
</a>
</g>
<!-- Node4&#45;&gt;Node3 -->
<g id="edge6" class="edge"><title>Node4&#45;&gt;Node3</title>
<path fill="none" stroke="midnightblue" d="M63,-170.516C63,-160.562 63,-149.05 63,-141.028"/>
<polygon fill="midnightblue" stroke="midnightblue" points="59.5001,-170.822 63,-180.822 66.5001,-170.822 59.5001,-170.822"/>
</g>
<!-- Node5 -->
<g id="node8" class="node"><title>Node5</title>
<a xlink:href="classumontreal_1_1ssj_1_1hups_1_1PointSet.html" target="_top" xlink:title="This abstract class defines the basic methods for accessing and manipulating point sets...">
<polygon fill="none" stroke="black" points="36,-241 36,-261 90,-261 90,-241 36,-241"/>
<text text-anchor="middle" x="63" y="-248" font-family="Helvetica,sans-Serif" font-size="10.00">PointSet</text>
</a>
</g>
<!-- Node5&#45;&gt;Node4 -->
<g id="edge8" class="edge"><title>Node5&#45;&gt;Node4</title>
<path fill="none" stroke="midnightblue" d="M63,-230.516C63,-220.562 63,-209.05 63,-201.028"/>
<polygon fill="midnightblue" stroke="midnightblue" points="59.5001,-230.822 63,-240.822 66.5001,-230.822 59.5001,-230.822"/>
</g>
<!-- Node6 -->
<g id="node10" class="node"><title>Node6</title>
<a xlink:href="interfaceumontreal_1_1ssj_1_1rng_1_1RandomStream.html" target="_top" xlink:title="This interface defines the basic structures to handle multiple streams of uniform (pseudo)random numb...">
<polygon fill="none" stroke="black" points="21,-311 21,-331 105,-331 105,-311 21,-311"/>
<text text-anchor="middle" x="63" y="-318" font-family="Helvetica,sans-Serif" font-size="10.00">RandomStream</text>
</a>
</g>
<!-- Node6&#45;&gt;Node5 -->
<g id="edge10" class="edge"><title>Node6&#45;&gt;Node5</title>
<path fill="none" stroke="#9a32cd" stroke-dasharray="5,2" d="M63,-300.613C63,-287.597 63,-271.296 63,-261.011"/>
<polygon fill="#9a32cd" stroke="#9a32cd" points="59.5001,-300.971 63,-310.971 66.5001,-300.971 59.5001,-300.971"/>
<text text-anchor="middle" x="90" y="-283" font-family="Helvetica,sans-Serif" font-size="10.00"> shiftStream</text>
</g>
</g>
</svg>
