<?xml version="1.0" encoding="UTF-8" standalone="no"?>
<!DOCTYPE svg PUBLIC "-//W3C//DTD SVG 1.1//EN"
 "http://www.w3.org/Graphics/SVG/1.1/DTD/svg11.dtd">
<!-- Generated by graphviz version 2.26.3 (20100126.1600)
 -->
<!-- Title: PreyPred.Preds Pages: 1 -->
<svg width="288pt" height="360pt"
 viewBox="0.00 0.00 288.00 360.00" xmlns="http://www.w3.org/2000/svg" xmlns:xlink="http://www.w3.org/1999/xlink">
<g id="graph1" class="graph" transform="scale(1 1) rotate(0) translate(4 356)">
<title>PreyPred.Preds</title>
<!-- Node1 -->
<g id="node1" class="node"><title>Node1</title>
<polygon fill="#bfbfbf" stroke="black" points="47,-1 47,-21 133,-21 133,-1 47,-1"/>
<text text-anchor="middle" x="90" y="-8" font-family="Helvetica,sans-Serif" font-size="10.00">PreyPred.Preds</text>
</g>
<!-- Node2 -->
<g id="node2" class="node"><title>Node2</title>
<a xlink:href="classumontreal_1_1ssj_1_1simevents_1_1Continuous.html" target="_top" xlink:title="Represents a variable in a continuous&#45;time simulation. ">
<polygon fill="none" stroke="black" points="57.5,-61 57.5,-81 122.5,-81 122.5,-61 57.5,-61"/>
<text text-anchor="middle" x="90" y="-68" font-family="Helvetica,sans-Serif" font-size="10.00">Continuous</text>
</a>
</g>
<!-- Node2&#45;&gt;Node1 -->
<g id="edge2" class="edge"><title>Node2&#45;&gt;Node1</title>
<path fill="none" stroke="midnightblue" d="M90,-50.5155C90,-40.562 90,-29.0495 90,-21.0279"/>
<polygon fill="midnightblue" stroke="midnightblue" points="86.5001,-50.8218 90,-60.8218 93.5001,-50.8219 86.5001,-50.8218"/>
</g>
<!-- Node3 -->
<g id="node4" class="node"><title>Node3</title>
<a xlink:href="classumontreal_1_1ssj_1_1simevents_1_1Event.html" target="_top" xlink:title="This abstract class provides event scheduling tools. ">
<polygon fill="none" stroke="black" points="69,-131 69,-151 111,-151 111,-131 69,-131"/>
<text text-anchor="middle" x="90" y="-138" font-family="Helvetica,sans-Serif" font-size="10.00">Event</text>
</a>
</g>
<!-- Node3&#45;&gt;Node2 -->
<g id="edge4" class="edge"><title>Node3&#45;&gt;Node2</title>
<path fill="none" stroke="#9a32cd" stroke-dasharray="5,2" d="M90,-120.613C90,-107.597 90,-91.2956 90,-81.0107"/>
<polygon fill="#9a32cd" stroke="#9a32cd" points="86.5001,-120.971 90,-130.971 93.5001,-120.971 86.5001,-120.971"/>
<text text-anchor="middle" x="97" y="-103" font-family="Helvetica,sans-Serif" font-size="10.00"> ev</text>
</g>
<!-- Node4 -->
<g id="node6" class="node"><title>Node4</title>
<polygon fill="none" stroke="#bfbfbf" points="0,-201 0,-221 112,-221 112,-201 0,-201"/>
<text text-anchor="middle" x="56" y="-208" font-family="Helvetica,sans-Serif" font-size="10.00">Comparable&lt; Event &gt;</text>
</g>
<!-- Node4&#45;&gt;Node3 -->
<g id="edge6" class="edge"><title>Node4&#45;&gt;Node3</title>
<path fill="none" stroke="midnightblue" d="M65.3323,-191.786C71.7417,-178.591 79.9908,-161.607 85.1377,-151.011"/>
<polygon fill="midnightblue" stroke="midnightblue" points="62.0922,-190.446 60.8714,-200.971 68.3887,-193.505 62.0922,-190.446"/>
</g>
<!-- Node5 -->
<g id="node8" class="node"><title>Node5</title>
<a xlink:href="classumontreal_1_1ssj_1_1simevents_1_1Simulator.html" target="_top" xlink:title="Represents the executive of a discrete&#45;event simulator. ">
<polygon fill="none" stroke="black" points="130,-201 130,-221 188,-221 188,-201 130,-201"/>
<text text-anchor="middle" x="159" y="-208" font-family="Helvetica,sans-Serif" font-size="10.00">Simulator</text>
</a>
</g>
<!-- Node5&#45;&gt;Node3 -->
<g id="edge8" class="edge"><title>Node5&#45;&gt;Node3</title>
<path fill="none" stroke="#9a32cd" stroke-dasharray="5,2" d="M141.946,-193.699C128.71,-180.271 110.825,-162.127 99.8677,-151.011"/>
<polygon fill="#9a32cd" stroke="#9a32cd" points="139.601,-196.306 149.114,-200.971 144.587,-191.392 139.601,-196.306"/>
<text text-anchor="middle" x="137.5" y="-173" font-family="Helvetica,sans-Serif" font-size="10.00"> sim</text>
</g>
<!-- Node5&#45;&gt;Node5 -->
<g id="edge10" class="edge"><title>Node5&#45;&gt;Node5</title>
<path fill="none" stroke="#9a32cd" stroke-dasharray="5,2" d="M198.603,-216.402C203.091,-215.391 206,-213.59 206,-211 206,-206.75 198.167,-204.625 188.375,-204.625"/>
<polygon fill="#9a32cd" stroke="#9a32cd" points="197.999,-212.944 188.375,-217.375 198.661,-219.912 197.999,-212.944"/>
<text text-anchor="middle" x="243" y="-208" font-family="Helvetica,sans-Serif" font-size="10.00"> defaultSimulator</text>
</g>
<!-- Node6 -->
<g id="node11" class="node"><title>Node6</title>
<a xlink:href="interfaceumontreal_1_1ssj_1_1simevents_1_1eventlist_1_1EventList.html" target="_top" xlink:title="An interface for implementations of event lists. ">
<polygon fill="none" stroke="black" points="78,-271 78,-291 136,-291 136,-271 78,-271"/>
<text text-anchor="middle" x="107" y="-278" font-family="Helvetica,sans-Serif" font-size="10.00">EventList</text>
</a>
</g>
<!-- Node6&#45;&gt;Node5 -->
<g id="edge12" class="edge"><title>Node6&#45;&gt;Node5</title>
<path fill="none" stroke="#9a32cd" stroke-dasharray="5,2" d="M116.04,-261.222C119.636,-254.229 124.09,-246.494 129,-240 134.155,-233.182 140.932,-226.488 146.74,-221.252"/>
<polygon fill="#9a32cd" stroke="#9a32cd" points="112.655,-260.18 111.433,-270.704 118.951,-263.239 112.655,-260.18"/>
<text text-anchor="middle" x="150.5" y="-243" font-family="Helvetica,sans-Serif" font-size="10.00"> eventList</text>
</g>
<!-- Node7 -->
<g id="node13" class="node"><title>Node7</title>
<polygon fill="none" stroke="#bfbfbf" points="61,-331 61,-351 153,-351 153,-331 61,-331"/>
<text text-anchor="middle" x="107" y="-338" font-family="Helvetica,sans-Serif" font-size="10.00">Iterable&lt; Event &gt;</text>
</g>
<!-- Node7&#45;&gt;Node6 -->
<g id="edge14" class="edge"><title>Node7&#45;&gt;Node6</title>
<path fill="none" stroke="midnightblue" d="M107,-320.516C107,-310.562 107,-299.05 107,-291.028"/>
<polygon fill="midnightblue" stroke="midnightblue" points="103.5,-320.822 107,-330.822 110.5,-320.822 103.5,-320.822"/>
</g>
<!-- Node8 -->
<g id="node15" class="node"><title>Node8</title>
<a xlink:href="classumontreal_1_1ssj_1_1simevents_1_1ContinuousState.html" target="_top" xlink:title="Represents the portion of the simulator’s state associated with continuous&#45;time simulation. ">
<polygon fill="none" stroke="black" points="153.5,-271 153.5,-291 242.5,-291 242.5,-271 153.5,-271"/>
<text text-anchor="middle" x="198" y="-278" font-family="Helvetica,sans-Serif" font-size="10.00">ContinuousState</text>
</a>
</g>
<!-- Node8&#45;&gt;Node5 -->
<g id="edge16" class="edge"><title>Node8&#45;&gt;Node5</title>
<path fill="none" stroke="#9a32cd" stroke-dasharray="5,2" d="M187.511,-262.173C180.129,-248.924 170.539,-231.711 164.577,-221.011"/>
<polygon fill="#9a32cd" stroke="#9a32cd" points="184.488,-263.938 192.412,-270.971 190.603,-260.532 184.488,-263.938"/>
<text text-anchor="middle" x="217" y="-243" font-family="Helvetica,sans-Serif" font-size="10.00"> continuousState</text>
</g>
</g>
</svg>
