<?xml version="1.0" encoding="UTF-8" standalone="no"?>
<!DOCTYPE svg PUBLIC "-//W3C//DTD SVG 1.1//EN"
 "http://www.w3.org/Graphics/SVG/1.1/DTD/svg11.dtd">
<!-- Generated by graphviz version 2.26.3 (20100126.1600)
 -->
<!-- Title: ClassFinder Pages: 1 -->
<svg width="150pt" height="88pt"
 viewBox="0.00 0.00 150.00 88.00" xmlns="http://www.w3.org/2000/svg" xmlns:xlink="http://www.w3.org/1999/xlink">
<g id="graph1" class="graph" transform="scale(1 1) rotate(0) translate(4 84)">
<title>ClassFinder</title>
<!-- Node1 -->
<g id="node1" class="node"><title>Node1</title>
<polygon fill="#bfbfbf" stroke="black" points="35,-1 35,-21 103,-21 103,-1 35,-1"/>
<text text-anchor="middle" x="69" y="-8" font-family="Helvetica,sans-Serif" font-size="10.00">ClassFinder</text>
</g>
<!-- Node2 -->
<g id="node2" class="node"><title>Node2</title>
<polygon fill="none" stroke="#bfbfbf" points="-0.5,-59 -0.5,-79 58.5,-79 58.5,-59 -0.5,-59"/>
<text text-anchor="middle" x="29" y="-66" font-family="Helvetica,sans-Serif" font-size="10.00">Cloneable</text>
</g>
<!-- Node2&#45;&gt;Node1 -->
<g id="edge2" class="edge"><title>Node2&#45;&gt;Node1</title>
<path fill="none" stroke="midnightblue" d="M41.8351,-50.3891C48.4604,-40.7824 56.2945,-29.423 61.843,-21.3776"/>
<polygon fill="midnightblue" stroke="midnightblue" points="38.7636,-48.6779 35.9675,-58.8972 44.5261,-52.6521 38.7636,-48.6779"/>
</g>
<!-- Node3 -->
<g id="node4" class="node"><title>Node3</title>
<polygon fill="none" stroke="#bfbfbf" points="75.5,-59 75.5,-79 142.5,-79 142.5,-59 75.5,-59"/>
<text text-anchor="middle" x="109" y="-66" font-family="Helvetica,sans-Serif" font-size="10.00">Serializable</text>
</g>
<!-- Node3&#45;&gt;Node1 -->
<g id="edge4" class="edge"><title>Node3&#45;&gt;Node1</title>
<path fill="none" stroke="midnightblue" d="M96.1649,-50.3891C89.5396,-40.7824 81.7055,-29.423 76.157,-21.3776"/>
<polygon fill="midnightblue" stroke="midnightblue" points="93.4739,-52.6521 102.033,-58.8972 99.2364,-48.6779 93.4739,-52.6521"/>
</g>
</g>
</svg>
