<?xml version="1.0" encoding="UTF-8" standalone="no"?>
<!DOCTYPE svg PUBLIC "-//W3C//DTD SVG 1.1//EN"
 "http://www.w3.org/Graphics/SVG/1.1/DTD/svg11.dtd">
<!-- Generated by graphviz version 2.26.3 (20100126.1600)
 -->
<!-- Title: RandShiftedPointSet Pages: 1 -->
<svg width="158pt" height="230pt"
 viewBox="0.00 0.00 158.00 230.00" xmlns="http://www.w3.org/2000/svg" xmlns:xlink="http://www.w3.org/1999/xlink">
<g id="graph1" class="graph" transform="scale(1 1) rotate(0) translate(4 226)">
<title>RandShiftedPointSet</title>
<!-- Node1 -->
<g id="node1" class="node"><title>Node1</title>
<polygon fill="#bfbfbf" stroke="black" points="-0.5,-1 -0.5,-21 106.5,-21 106.5,-1 -0.5,-1"/>
<text text-anchor="middle" x="53" y="-8" font-family="Helvetica,sans-Serif" font-size="10.00">RandShiftedPointSet</text>
</g>
<!-- Node2 -->
<g id="node2" class="node"><title>Node2</title>
<a xlink:href="classumontreal_1_1ssj_1_1hups_1_1ContainerPointSet.html" target="_top" xlink:title="This acts as a generic base class for all container classes that contain a point set and apply some k...">
<polygon fill="none" stroke="black" points="55.5,-61 55.5,-81 150.5,-81 150.5,-61 55.5,-61"/>
<text text-anchor="middle" x="103" y="-68" font-family="Helvetica,sans-Serif" font-size="10.00">ContainerPointSet</text>
</a>
</g>
<!-- Node2&#45;&gt;Node1 -->
<g id="edge2" class="edge"><title>Node2&#45;&gt;Node1</title>
<path fill="none" stroke="midnightblue" d="M88.0386,-53.0463C79.307,-42.5684 68.6163,-29.7395 61.3566,-21.0279"/>
<polygon fill="midnightblue" stroke="midnightblue" points="85.4275,-55.3802 94.5182,-60.8218 90.8051,-50.8989 85.4275,-55.3802"/>
</g>
<!-- Node3 -->
<g id="node4" class="node"><title>Node3</title>
<a xlink:href="classumontreal_1_1ssj_1_1hups_1_1PointSet.html" target="_top" xlink:title="This abstract class defines the basic methods for accessing and manipulating point sets...">
<polygon fill="none" stroke="black" points="70,-131 70,-151 124,-151 124,-131 70,-131"/>
<text text-anchor="middle" x="97" y="-138" font-family="Helvetica,sans-Serif" font-size="10.00">PointSet</text>
</a>
</g>
<!-- Node3&#45;&gt;Node2 -->
<g id="edge4" class="edge"><title>Node3&#45;&gt;Node2</title>
<path fill="none" stroke="midnightblue" d="M98.7138,-121.006C99.8348,-107.927 101.251,-91.3995 102.142,-81.0107"/>
<polygon fill="midnightblue" stroke="midnightblue" points="95.2265,-120.708 97.8597,-130.971 102.201,-121.306 95.2265,-120.708"/>
</g>
<!-- Node3&#45;&gt;Node2 -->
<g id="edge8" class="edge"><title>Node3&#45;&gt;Node2</title>
<path fill="none" stroke="#9a32cd" stroke-dasharray="5,2" d="M105.594,-121.175C106.589,-118.152 107.445,-115.029 108,-112 109.913,-101.561 107.943,-89.4888 105.94,-81.1607"/>
<polygon fill="#9a32cd" stroke="#9a32cd" points="102.219,-120.202 101.913,-130.793 108.756,-122.704 102.219,-120.202"/>
<text text-anchor="middle" x="113" y="-103" font-family="Helvetica,sans-Serif" font-size="10.00"> P</text>
</g>
<!-- Node4 -->
<g id="node6" class="node"><title>Node4</title>
<a xlink:href="interfaceumontreal_1_1ssj_1_1rng_1_1RandomStream.html" target="_top" xlink:title="This interface defines the basic structures to handle multiple streams of uniform (pseudo)random numb...">
<polygon fill="none" stroke="black" points="11,-201 11,-221 95,-221 95,-201 11,-201"/>
<text text-anchor="middle" x="53" y="-208" font-family="Helvetica,sans-Serif" font-size="10.00">RandomStream</text>
</a>
</g>
<!-- Node4&#45;&gt;Node1 -->
<g id="edge10" class="edge"><title>Node4&#45;&gt;Node1</title>
<path fill="none" stroke="#9a32cd" stroke-dasharray="5,2" d="M48.7254,-191.033C44.4697,-168.845 38.8571,-131.931 41,-100 42.9314,-71.221 48.3381,-37.558 51.1886,-21.0992"/>
<polygon fill="#9a32cd" stroke="#9a32cd" points="45.3123,-191.814 50.7223,-200.923 52.1738,-190.428 45.3123,-191.814"/>
<text text-anchor="middle" x="68" y="-103" font-family="Helvetica,sans-Serif" font-size="10.00"> shiftStream</text>
</g>
<!-- Node4&#45;&gt;Node3 -->
<g id="edge6" class="edge"><title>Node4&#45;&gt;Node3</title>
<path fill="none" stroke="#9a32cd" stroke-dasharray="5,2" d="M64.8338,-192.173C73.1619,-178.924 83.9816,-161.711 90.7076,-151.011"/>
<polygon fill="#9a32cd" stroke="#9a32cd" points="61.6627,-190.642 59.3041,-200.971 67.5891,-194.367 61.6627,-190.642"/>
<text text-anchor="middle" x="104" y="-173" font-family="Helvetica,sans-Serif" font-size="10.00"> shiftStream</text>
</g>
</g>
</svg>
