<?xml version="1.0" encoding="UTF-8" standalone="no"?>
<!DOCTYPE svg PUBLIC "-//W3C//DTD SVG 1.1//EN"
 "http://www.w3.org/Graphics/SVG/1.1/DTD/svg11.dtd">
<!-- Generated by graphviz version 2.38.0 (20140413.2041)
 -->
<!-- Title: DigitalNetBase2 Pages: 1 -->
<svg width="498pt" height="252pt"
 viewBox="0.00 0.00 498.00 252.00" xmlns="http://www.w3.org/2000/svg" xmlns:xlink="http://www.w3.org/1999/xlink">
<g id="graph0" class="graph" transform="scale(1 1) rotate(0) translate(4 248)">
<title>DigitalNetBase2</title>
<!-- Node1 -->
<g id="node1" class="node"><title>Node1</title>
<polygon fill="#bfbfbf" stroke="black" points="231,-112.5 231,-131.5 327,-131.5 327,-112.5 231,-112.5"/>
<text text-anchor="middle" x="279" y="-119.5" font-family="Helvetica,sans-Serif" font-size="10.00">DigitalNetBase2</text>
</g>
<!-- Node4 -->
<g id="node4" class="node"><title>Node4</title>
<g id="a_node4"><a xlink:href="classumontreal_1_1ssj_1_1hups_1_1DigitalNetBase2FromFile.html" target="_top" xlink:title="This class allows us to read the parameters defining a digital net in base 2 either from a file...">
<polygon fill="none" stroke="black" points="0,-56.5 0,-75.5 138,-75.5 138,-56.5 0,-56.5"/>
<text text-anchor="middle" x="69" y="-63.5" font-family="Helvetica,sans-Serif" font-size="10.00">DigitalNetBase2FromFile</text>
</a>
</g>
</g>
<!-- Node1&#45;&gt;Node4 -->
<g id="edge3" class="edge"><title>Node1&#45;&gt;Node4</title>
<path fill="none" stroke="midnightblue" d="M235.81,-109.894C196.153,-99.6966 138.23,-84.802 102.119,-75.5164"/>
<polygon fill="midnightblue" stroke="midnightblue" points="235.168,-113.343 245.725,-112.444 236.912,-106.563 235.168,-113.343"/>
</g>
<!-- Node5 -->
<g id="node5" class="node"><title>Node5</title>
<g id="a_node5"><a xlink:href="classumontreal_1_1ssj_1_1hups_1_1DigitalSequenceBase2.html" target="_top" xlink:title="This abstract class describes methods specific to digital sequences in base 2. ">
<polygon fill="none" stroke="black" points="156,-56.5 156,-75.5 282,-75.5 282,-56.5 156,-56.5"/>
<text text-anchor="middle" x="219" y="-63.5" font-family="Helvetica,sans-Serif" font-size="10.00">DigitalSequenceBase2</text>
</a>
</g>
</g>
<!-- Node1&#45;&gt;Node5 -->
<g id="edge4" class="edge"><title>Node1&#45;&gt;Node5</title>
<path fill="none" stroke="midnightblue" d="M261.819,-105.537C251.121,-95.9087 237.744,-83.8694 228.815,-75.8339"/>
<polygon fill="midnightblue" stroke="midnightblue" points="259.586,-108.236 269.36,-112.324 264.268,-103.033 259.586,-108.236"/>
</g>
<!-- Node9 -->
<g id="node9" class="node"><title>Node9</title>
<g id="a_node9"><a xlink:href="classumontreal_1_1ssj_1_1hups_1_1F2wNetLFSR.html" target="_top" xlink:title="This class implements a digital net in base 2 starting from a linear feedback shift register generato...">
<polygon fill="none" stroke="black" points="300.5,-56.5 300.5,-75.5 377.5,-75.5 377.5,-56.5 300.5,-56.5"/>
<text text-anchor="middle" x="339" y="-63.5" font-family="Helvetica,sans-Serif" font-size="10.00">F2wNetLFSR</text>
</a>
</g>
</g>
<!-- Node1&#45;&gt;Node9 -->
<g id="edge8" class="edge"><title>Node1&#45;&gt;Node9</title>
<path fill="none" stroke="midnightblue" d="M296.181,-105.537C306.879,-95.9087 320.256,-83.8694 329.185,-75.8339"/>
<polygon fill="midnightblue" stroke="midnightblue" points="293.732,-103.033 288.64,-112.324 298.414,-108.236 293.732,-103.033"/>
</g>
<!-- Node10 -->
<g id="node10" class="node"><title>Node10</title>
<g id="a_node10"><a xlink:href="classumontreal_1_1ssj_1_1hups_1_1F2wNetPolyLCG.html" target="_top" xlink:title="This class implements a digital net in base 2 starting from a polynomial LCG in . ...">
<polygon fill="none" stroke="black" points="396,-56.5 396,-75.5 490,-75.5 490,-56.5 396,-56.5"/>
<text text-anchor="middle" x="443" y="-63.5" font-family="Helvetica,sans-Serif" font-size="10.00">F2wNetPolyLCG</text>
</a>
</g>
</g>
<!-- Node1&#45;&gt;Node10 -->
<g id="edge9" class="edge"><title>Node1&#45;&gt;Node10</title>
<path fill="none" stroke="midnightblue" d="M314.52,-109.304C345.422,-99.1294 389.473,-84.6246 417.135,-75.5164"/>
<polygon fill="midnightblue" stroke="midnightblue" points="313.39,-105.992 304.986,-112.444 315.579,-112.64 313.39,-105.992"/>
</g>
<!-- Node2 -->
<g id="node2" class="node"><title>Node2</title>
<g id="a_node2"><a xlink:href="classumontreal_1_1ssj_1_1hups_1_1DigitalNet.html" target="_top" xlink:title="This class provides the basic structures for storing and manipulating linear digital nets in base ...">
<polygon fill="none" stroke="black" points="246,-168.5 246,-187.5 312,-187.5 312,-168.5 246,-168.5"/>
<text text-anchor="middle" x="279" y="-175.5" font-family="Helvetica,sans-Serif" font-size="10.00">DigitalNet</text>
</a>
</g>
</g>
<!-- Node2&#45;&gt;Node1 -->
<g id="edge1" class="edge"><title>Node2&#45;&gt;Node1</title>
<path fill="none" stroke="midnightblue" d="M279,-157.805C279,-148.91 279,-138.78 279,-131.751"/>
<polygon fill="midnightblue" stroke="midnightblue" points="275.5,-158.083 279,-168.083 282.5,-158.083 275.5,-158.083"/>
</g>
<!-- Node3 -->
<g id="node3" class="node"><title>Node3</title>
<g id="a_node3"><a xlink:href="classumontreal_1_1ssj_1_1hups_1_1PointSet.html" target="_top" xlink:title="This abstract class defines the basic methods for accessing and manipulating point sets...">
<polygon fill="none" stroke="black" points="250.5,-224.5 250.5,-243.5 307.5,-243.5 307.5,-224.5 250.5,-224.5"/>
<text text-anchor="middle" x="279" y="-231.5" font-family="Helvetica,sans-Serif" font-size="10.00">PointSet</text>
</a>
</g>
</g>
<!-- Node3&#45;&gt;Node2 -->
<g id="edge2" class="edge"><title>Node3&#45;&gt;Node2</title>
<path fill="none" stroke="midnightblue" d="M279,-213.805C279,-204.91 279,-194.78 279,-187.751"/>
<polygon fill="midnightblue" stroke="midnightblue" points="275.5,-214.083 279,-224.083 282.5,-214.083 275.5,-214.083"/>
</g>
<!-- Node6 -->
<g id="node6" class="node"><title>Node6</title>
<g id="a_node6"><a xlink:href="classumontreal_1_1ssj_1_1hups_1_1NiedSequenceBase2.html" target="_top" xlink:title="This class implements digital sequences constructed from the Niederreiter sequence in base 2...">
<polygon fill="none" stroke="black" points="16,-0.5 16,-19.5 132,-19.5 132,-0.5 16,-0.5"/>
<text text-anchor="middle" x="74" y="-7.5" font-family="Helvetica,sans-Serif" font-size="10.00">NiedSequenceBase2</text>
</a>
</g>
</g>
<!-- Node5&#45;&gt;Node6 -->
<g id="edge5" class="edge"><title>Node5&#45;&gt;Node6</title>
<path fill="none" stroke="midnightblue" d="M186.525,-52.9058C159.264,-42.7536 121.008,-28.5063 96.8682,-19.5164"/>
<polygon fill="midnightblue" stroke="midnightblue" points="185.432,-56.2334 196.024,-56.4435 187.875,-49.6736 185.432,-56.2334"/>
</g>
<!-- Node7 -->
<g id="node7" class="node"><title>Node7</title>
<g id="a_node7"><a xlink:href="classumontreal_1_1ssj_1_1hups_1_1NiedXingSequenceBase2.html" target="_top" xlink:title="This class implements digital sequences based on the Niederreiter&#45;Xing sequence in base 2...">
<polygon fill="none" stroke="black" points="150,-0.5 150,-19.5 288,-19.5 288,-0.5 150,-0.5"/>
<text text-anchor="middle" x="219" y="-7.5" font-family="Helvetica,sans-Serif" font-size="10.00">NiedXingSequenceBase2</text>
</a>
</g>
</g>
<!-- Node5&#45;&gt;Node7 -->
<g id="edge6" class="edge"><title>Node5&#45;&gt;Node7</title>
<path fill="none" stroke="midnightblue" d="M219,-45.8045C219,-36.9102 219,-26.7798 219,-19.7511"/>
<polygon fill="midnightblue" stroke="midnightblue" points="215.5,-46.083 219,-56.083 222.5,-46.083 215.5,-46.083"/>
</g>
<!-- Node8 -->
<g id="node8" class="node"><title>Node8</title>
<g id="a_node8"><a xlink:href="classumontreal_1_1ssj_1_1hups_1_1SobolSequence.html" target="_top" xlink:title="This class implements digital nets or digital sequences in base 2 formed by the first &#160;points of a So...">
<polygon fill="none" stroke="black" points="306.5,-0.5 306.5,-19.5 397.5,-19.5 397.5,-0.5 306.5,-0.5"/>
<text text-anchor="middle" x="352" y="-7.5" font-family="Helvetica,sans-Serif" font-size="10.00">SobolSequence</text>
</a>
</g>
</g>
<!-- Node5&#45;&gt;Node8 -->
<g id="edge7" class="edge"><title>Node5&#45;&gt;Node8</title>
<path fill="none" stroke="midnightblue" d="M249.448,-52.6377C274.407,-42.504 309.077,-28.4274 331.024,-19.5164"/>
<polygon fill="midnightblue" stroke="midnightblue" points="248.023,-49.4387 240.074,-56.4435 250.656,-55.9245 248.023,-49.4387"/>
</g>
</g>
</svg>
