<?xml version="1.0" encoding="UTF-8" standalone="no"?>
<!DOCTYPE svg PUBLIC "-//W3C//DTD SVG 1.1//EN"
 "http://www.w3.org/Graphics/SVG/1.1/DTD/svg11.dtd">
<!-- Generated by graphviz version 2.38.0 (20140413.2041)
 -->
<!-- Title: Simulator Pages: 1 -->
<svg width="232pt" height="152pt"
 viewBox="0.00 0.00 232.00 152.00" xmlns="http://www.w3.org/2000/svg" xmlns:xlink="http://www.w3.org/1999/xlink">
<g id="graph0" class="graph" transform="scale(1 1) rotate(0) translate(4 148)">
<title>Simulator</title>
<!-- Node1 -->
<g id="node1" class="node"><title>Node1</title>
<polygon fill="#bfbfbf" stroke="black" points="74,-0.5 74,-19.5 132,-19.5 132,-0.5 74,-0.5"/>
<text text-anchor="middle" x="103" y="-7.5" font-family="Helvetica,sans-Serif" font-size="10.00">Simulator</text>
</g>
<!-- Node1&#45;&gt;Node1 -->
<g id="edge1" class="edge"><title>Node1&#45;&gt;Node1</title>
<path fill="none" stroke="#9a32cd" stroke-dasharray="5,2" d="M142.603,-15.0845C147.091,-14.1323 150,-12.4375 150,-10 150,-6 142.167,-4 132.375,-4"/>
<polygon fill="#9a32cd" stroke="#9a32cd" points="142.023,-11.6223 132.375,-16 142.647,-18.5944 142.023,-11.6223"/>
<text text-anchor="middle" x="187" y="-7.5" font-family="Helvetica,sans-Serif" font-size="10.00"> defaultSimulator</text>
</g>
<!-- Node2 -->
<g id="node2" class="node"><title>Node2</title>
<g id="a_node2"><a xlink:href="interfaceumontreal_1_1ssj_1_1simevents_1_1eventlist_1_1EventList.html" target="_top" xlink:title="An interface for implementations of event lists. ">
<polygon fill="none" stroke="black" points="17,-67.5 17,-86.5 75,-86.5 75,-67.5 17,-67.5"/>
<text text-anchor="middle" x="46" y="-74.5" font-family="Helvetica,sans-Serif" font-size="10.00">EventList</text>
</a>
</g>
</g>
<!-- Node2&#45;&gt;Node1 -->
<g id="edge2" class="edge"><title>Node2&#45;&gt;Node1</title>
<path fill="none" stroke="#9a32cd" stroke-dasharray="5,2" d="M55.5556,-58.3034C59.577,-51.6055 64.5816,-44.1259 70,-38 76.0814,-31.1246 84.0138,-24.575 90.5774,-19.6487"/>
<polygon fill="#9a32cd" stroke="#9a32cd" points="52.3353,-56.8859 50.4336,-67.3086 58.42,-60.3467 52.3353,-56.8859"/>
<text text-anchor="middle" x="91.5" y="-41" font-family="Helvetica,sans-Serif" font-size="10.00"> eventList</text>
</g>
<!-- Node3 -->
<g id="node3" class="node"><title>Node3</title>
<polygon fill="none" stroke="#bfbfbf" points="0,-124.5 0,-143.5 92,-143.5 92,-124.5 0,-124.5"/>
<text text-anchor="middle" x="46" y="-131.5" font-family="Helvetica,sans-Serif" font-size="10.00">Iterable&lt; Event &gt;</text>
</g>
<!-- Node3&#45;&gt;Node2 -->
<g id="edge3" class="edge"><title>Node3&#45;&gt;Node2</title>
<path fill="none" stroke="midnightblue" d="M46,-114.117C46,-104.817 46,-94.0557 46,-86.7149"/>
<polygon fill="midnightblue" stroke="midnightblue" points="42.5001,-114.406 46,-124.406 49.5001,-114.406 42.5001,-114.406"/>
</g>
<!-- Node4 -->
<g id="node4" class="node"><title>Node4</title>
<g id="a_node4"><a xlink:href="classumontreal_1_1ssj_1_1simevents_1_1ContinuousState.html" target="_top" xlink:title="Represents the portion of the simulator’s state associated with continuous&#45;time simulation. ">
<polygon fill="none" stroke="black" points="92.5,-67.5 92.5,-86.5 181.5,-86.5 181.5,-67.5 92.5,-67.5"/>
<text text-anchor="middle" x="137" y="-74.5" font-family="Helvetica,sans-Serif" font-size="10.00">ContinuousState</text>
</a>
</g>
</g>
<!-- Node4&#45;&gt;Node1 -->
<g id="edge4" class="edge"><title>Node4&#45;&gt;Node1</title>
<path fill="none" stroke="#9a32cd" stroke-dasharray="5,2" d="M127.67,-58.1635C121.113,-45.6281 112.63,-29.4104 107.513,-19.6273"/>
<polygon fill="#9a32cd" stroke="#9a32cd" points="124.678,-59.9951 132.415,-67.2338 130.881,-56.7506 124.678,-59.9951"/>
<text text-anchor="middle" x="159" y="-41" font-family="Helvetica,sans-Serif" font-size="10.00"> continuousState</text>
</g>
</g>
</svg>
