<?xml version="1.0" encoding="UTF-8" standalone="no"?>
<!DOCTYPE svg PUBLIC "-//W3C//DTD SVG 1.1//EN"
 "http://www.w3.org/Graphics/SVG/1.1/DTD/svg11.dtd">
<!-- Generated by graphviz version 2.38.0 (20140413.2041)
 -->
<!-- Title: F2NL607 Pages: 1 -->
<svg width="244pt" height="252pt"
 viewBox="0.00 0.00 243.50 252.00" xmlns="http://www.w3.org/2000/svg" xmlns:xlink="http://www.w3.org/1999/xlink">
<g id="graph0" class="graph" transform="scale(1 1) rotate(0) translate(4 248)">
<title>F2NL607</title>
<!-- Node0 -->
<g id="node1" class="node"><title>Node0</title>
<polygon fill="#bfbfbf" stroke="black" points="116,-0.5 116,-19.5 172,-19.5 172,-0.5 116,-0.5"/>
<text text-anchor="middle" x="144" y="-7.5" font-family="Helvetica,sans-Serif" font-size="10.00">F2NL607</text>
</g>
<!-- Node1 -->
<g id="node2" class="node"><title>Node1</title>
<g id="a_node2"><a xlink:href="classumontreal_1_1ssj_1_1rng_1_1WELL607base.html" target="_top" xlink:title="WELL607base">
<polygon fill="none" stroke="black" points="104,-56.5 104,-75.5 184,-75.5 184,-56.5 104,-56.5"/>
<text text-anchor="middle" x="144" y="-63.5" font-family="Helvetica,sans-Serif" font-size="10.00">WELL607base</text>
</a>
</g>
</g>
<!-- Node1&#45;&gt;Node0 -->
<g id="edge1" class="edge"><title>Node1&#45;&gt;Node0</title>
<path fill="none" stroke="midnightblue" d="M144,-45.8045C144,-36.9102 144,-26.7798 144,-19.7511"/>
<polygon fill="midnightblue" stroke="midnightblue" points="140.5,-46.083 144,-56.083 147.5,-46.083 140.5,-46.083"/>
</g>
<!-- Node2 -->
<g id="node3" class="node"><title>Node2</title>
<g id="a_node3"><a xlink:href="classumontreal_1_1ssj_1_1rng_1_1RandomStreamBase.html" target="_top" xlink:title="This class provides a convenient foundation on which RNGs can be built. ">
<polygon fill="none" stroke="black" points="90.5,-112.5 90.5,-131.5 197.5,-131.5 197.5,-112.5 90.5,-112.5"/>
<text text-anchor="middle" x="144" y="-119.5" font-family="Helvetica,sans-Serif" font-size="10.00">RandomStreamBase</text>
</a>
</g>
</g>
<!-- Node2&#45;&gt;Node1 -->
<g id="edge2" class="edge"><title>Node2&#45;&gt;Node1</title>
<path fill="none" stroke="midnightblue" d="M144,-101.805C144,-92.9102 144,-82.7798 144,-75.7511"/>
<polygon fill="midnightblue" stroke="midnightblue" points="140.5,-102.083 144,-112.083 147.5,-102.083 140.5,-102.083"/>
</g>
<!-- Node3 -->
<g id="node4" class="node"><title>Node3</title>
<g id="a_node4"><a xlink:href="interfaceumontreal_1_1ssj_1_1rng_1_1CloneableRandomStream.html" target="_top" xlink:title="CloneableRandomStream extends RandomStream and Cloneable. ">
<polygon fill="none" stroke="black" points="23.5,-168.5 23.5,-187.5 150.5,-187.5 150.5,-168.5 23.5,-168.5"/>
<text text-anchor="middle" x="87" y="-175.5" font-family="Helvetica,sans-Serif" font-size="10.00">CloneableRandomStream</text>
</a>
</g>
</g>
<!-- Node3&#45;&gt;Node2 -->
<g id="edge3" class="edge"><title>Node3&#45;&gt;Node2</title>
<path fill="none" stroke="midnightblue" d="M103.621,-161.253C113.734,-151.673 126.277,-139.791 134.675,-131.834"/>
<polygon fill="midnightblue" stroke="midnightblue" points="101.01,-158.906 96.158,-168.324 105.825,-163.987 101.01,-158.906"/>
</g>
<!-- Node4 -->
<g id="node5" class="node"><title>Node4</title>
<g id="a_node5"><a xlink:href="interfaceumontreal_1_1ssj_1_1rng_1_1RandomStream.html" target="_top" xlink:title="This interface defines the basic structures to handle multiple streams of uniform (pseudo)random numb...">
<polygon fill="none" stroke="black" points="0,-224.5 0,-243.5 84,-243.5 84,-224.5 0,-224.5"/>
<text text-anchor="middle" x="42" y="-231.5" font-family="Helvetica,sans-Serif" font-size="10.00">RandomStream</text>
</a>
</g>
</g>
<!-- Node4&#45;&gt;Node3 -->
<g id="edge4" class="edge"><title>Node4&#45;&gt;Node3</title>
<path fill="none" stroke="midnightblue" d="M56.0467,-216.144C63.8869,-206.736 73.3295,-195.405 79.7074,-187.751"/>
<polygon fill="midnightblue" stroke="midnightblue" points="53.1439,-214.16 49.4308,-224.083 58.5215,-218.641 53.1439,-214.16"/>
</g>
<!-- Node5 -->
<g id="node6" class="node"><title>Node5</title>
<polygon fill="none" stroke="#bfbfbf" points="102.5,-224.5 102.5,-243.5 161.5,-243.5 161.5,-224.5 102.5,-224.5"/>
<text text-anchor="middle" x="132" y="-231.5" font-family="Helvetica,sans-Serif" font-size="10.00">Cloneable</text>
</g>
<!-- Node5&#45;&gt;Node3 -->
<g id="edge5" class="edge"><title>Node5&#45;&gt;Node3</title>
<path fill="none" stroke="midnightblue" d="M117.953,-216.144C110.113,-206.736 100.671,-195.405 94.2926,-187.751"/>
<polygon fill="midnightblue" stroke="midnightblue" points="115.479,-218.641 124.569,-224.083 120.856,-214.16 115.479,-218.641"/>
</g>
<!-- Node6 -->
<g id="node7" class="node"><title>Node6</title>
<polygon fill="none" stroke="#bfbfbf" points="168.5,-168.5 168.5,-187.5 235.5,-187.5 235.5,-168.5 168.5,-168.5"/>
<text text-anchor="middle" x="202" y="-175.5" font-family="Helvetica,sans-Serif" font-size="10.00">Serializable</text>
</g>
<!-- Node6&#45;&gt;Node2 -->
<g id="edge6" class="edge"><title>Node6&#45;&gt;Node2</title>
<path fill="none" stroke="midnightblue" d="M185.087,-161.253C174.797,-151.673 162.034,-139.791 153.488,-131.834"/>
<polygon fill="midnightblue" stroke="midnightblue" points="182.977,-164.071 192.681,-168.324 187.747,-158.948 182.977,-164.071"/>
</g>
</g>
</svg>
