<?xml version="1.0" encoding="UTF-8" standalone="no"?>
<!DOCTYPE svg PUBLIC "-//W3C//DTD SVG 1.1//EN"
 "http://www.w3.org/Graphics/SVG/1.1/DTD/svg11.dtd">
<!-- Generated by graphviz version 2.26.3 (20100126.1600)
 -->
<!-- Title: ContainerPointSet.ContainerPointSetIterator Pages: 1 -->
<svg width="226pt" height="172pt"
 viewBox="0.00 0.00 226.00 172.00" xmlns="http://www.w3.org/2000/svg" xmlns:xlink="http://www.w3.org/1999/xlink">
<g id="graph1" class="graph" transform="scale(1 1) rotate(0) translate(4 168)">
<title>ContainerPointSet.ContainerPointSetIterator</title>
<!-- Node1 -->
<g id="node1" class="node"><title>Node1</title>
<polygon fill="#bfbfbf" stroke="black" points="25,-1 25,-33 165,-33 165,-1 25,-1"/>
<text text-anchor="start" x="33" y="-20" font-family="Helvetica,sans-Serif" font-size="10.00">ContainerPointSet.Container</text>
<text text-anchor="middle" x="95" y="-8" font-family="Helvetica,sans-Serif" font-size="10.00">PointSetIterator</text>
</g>
<!-- Node2 -->
<g id="node2" class="node"><title>Node2</title>
<polygon fill="none" stroke="#bfbfbf" points="0,-83 0,-103 116,-103 116,-83 0,-83"/>
<text text-anchor="middle" x="58" y="-90" font-family="Helvetica,sans-Serif" font-size="10.00">DefaultPointSetIterator</text>
</g>
<!-- Node2&#45;&gt;Node1 -->
<g id="edge2" class="edge"><title>Node2&#45;&gt;Node1</title>
<path fill="none" stroke="midnightblue" d="M67.4295,-73.6314C73.5225,-61.116 81.3598,-45.0178 87.12,-33.186"/>
<polygon fill="midnightblue" stroke="midnightblue" points="64.2204,-72.2271 62.99,-82.7503 70.5142,-75.2913 64.2204,-72.2271"/>
</g>
<!-- Node3 -->
<g id="node4" class="node"><title>Node3</title>
<a xlink:href="interfaceumontreal_1_1ssj_1_1hups_1_1PointSetIterator.html" target="_top" xlink:title="Objects of classes that implement this interface are iterators that permit one to enumerate (or obser...">
<polygon fill="none" stroke="black" points="133.5,-83 133.5,-103 218.5,-103 218.5,-83 133.5,-83"/>
<text text-anchor="middle" x="176" y="-90" font-family="Helvetica,sans-Serif" font-size="10.00">PointSetIterator</text>
</a>
</g>
<!-- Node3&#45;&gt;Node1 -->
<g id="edge4" class="edge"><title>Node3&#45;&gt;Node1</title>
<path fill="none" stroke="#9a32cd" stroke-dasharray="5,2" d="M157.692,-75.8222C144.073,-63.0438 125.61,-45.7207 112.251,-33.186"/>
<polygon fill="#9a32cd" stroke="#9a32cd" points="155.389,-78.4603 165.076,-82.7503 160.178,-73.3555 155.389,-78.4603"/>
<text text-anchor="middle" x="169.5" y="-55" font-family="Helvetica,sans-Serif" font-size="10.00"> innerIterator</text>
</g>
<!-- Node4 -->
<g id="node6" class="node"><title>Node4</title>
<a xlink:href="interfaceumontreal_1_1ssj_1_1rng_1_1RandomStream.html" target="_top" xlink:title="This interface defines the basic structures to handle multiple streams of uniform (pseudo)random numb...">
<polygon fill="none" stroke="black" points="134,-143 134,-163 218,-163 218,-143 134,-143"/>
<text text-anchor="middle" x="176" y="-150" font-family="Helvetica,sans-Serif" font-size="10.00">RandomStream</text>
</a>
</g>
<!-- Node4&#45;&gt;Node3 -->
<g id="edge6" class="edge"><title>Node4&#45;&gt;Node3</title>
<path fill="none" stroke="midnightblue" d="M176,-132.516C176,-122.562 176,-111.05 176,-103.028"/>
<polygon fill="midnightblue" stroke="midnightblue" points="172.5,-132.822 176,-142.822 179.5,-132.822 172.5,-132.822"/>
</g>
</g>
</svg>
