<?xml version="1.0" encoding="UTF-8" standalone="no"?>
<!DOCTYPE svg PUBLIC "-//W3C//DTD SVG 1.1//EN"
 "http://www.w3.org/Graphics/SVG/1.1/DTD/svg11.dtd">
<!-- Generated by graphviz version 2.38.0 (20140413.2041)
 -->
<!-- Title: ListOfTalliesWithCovariance&lt; E extends Tally &gt; Pages: 1 -->
<svg width="248pt" height="229pt"
 viewBox="0.00 0.00 248.00 229.00" xmlns="http://www.w3.org/2000/svg" xmlns:xlink="http://www.w3.org/1999/xlink">
<g id="graph0" class="graph" transform="scale(1 1) rotate(0) translate(4 225)">
<title>ListOfTalliesWithCovariance&lt; E extends Tally &gt;</title>
<!-- Node1 -->
<g id="node1" class="node"><title>Node1</title>
<polygon fill="#bfbfbf" stroke="black" points="36.5,-0.5 36.5,-30.5 177.5,-30.5 177.5,-0.5 36.5,-0.5"/>
<text text-anchor="start" x="44.5" y="-18.5" font-family="Helvetica,sans-Serif" font-size="10.00">ListOfTalliesWithCovariance</text>
<text text-anchor="middle" x="107" y="-7.5" font-family="Helvetica,sans-Serif" font-size="10.00">&lt; E extends Tally &gt;</text>
</g>
<!-- Node2 -->
<g id="node2" class="node"><title>Node2</title>
<g id="a_node2"><a xlink:href="classumontreal_1_1ssj_1_1stat_1_1list_1_1ListOfTallies_3_01E_01extends_01Tally_01_4.html" target="_top" xlink:title="Represents a list of tally statistical collectors. ">
<polygon fill="none" stroke="black" points="44.5,-67.5 44.5,-97.5 169.5,-97.5 169.5,-67.5 44.5,-67.5"/>
<text text-anchor="start" x="52.5" y="-85.5" font-family="Helvetica,sans-Serif" font-size="10.00">ListOfTallies&lt; E extends</text>
<text text-anchor="middle" x="107" y="-74.5" font-family="Helvetica,sans-Serif" font-size="10.00"> Tally &gt;</text>
</a>
</g>
</g>
<!-- Node2&#45;&gt;Node1 -->
<g id="edge1" class="edge"><title>Node2&#45;&gt;Node1</title>
<path fill="none" stroke="midnightblue" d="M107,-57.1081C107,-48.1539 107,-38.3227 107,-30.5765"/>
<polygon fill="midnightblue" stroke="midnightblue" points="103.5,-57.3959 107,-67.396 110.5,-57.396 103.5,-57.3959"/>
</g>
<!-- Node3 -->
<g id="node3" class="node"><title>Node3</title>
<g id="a_node3"><a xlink:href="classumontreal_1_1ssj_1_1stat_1_1list_1_1ListOfStatProbes_3_01E_01extends_01StatProbe_01_4.html" target="_top" xlink:title="Represents a list of statistical probes that can be managed simultaneously. ">
<polygon fill="none" stroke="black" points="52,-134.5 52,-164.5 162,-164.5 162,-134.5 52,-134.5"/>
<text text-anchor="start" x="60" y="-152.5" font-family="Helvetica,sans-Serif" font-size="10.00">ListOfStatProbes&lt; E</text>
<text text-anchor="middle" x="107" y="-141.5" font-family="Helvetica,sans-Serif" font-size="10.00"> extends StatProbe &gt;</text>
</a>
</g>
</g>
<!-- Node3&#45;&gt;Node2 -->
<g id="edge2" class="edge"><title>Node3&#45;&gt;Node2</title>
<path fill="none" stroke="midnightblue" d="M107,-124.108C107,-115.154 107,-105.323 107,-97.5765"/>
<polygon fill="midnightblue" stroke="midnightblue" points="103.5,-124.396 107,-134.396 110.5,-124.396 103.5,-124.396"/>
</g>
<!-- Node4 -->
<g id="node4" class="node"><title>Node4</title>
<polygon fill="none" stroke="#bfbfbf" points="0,-201.5 0,-220.5 60,-220.5 60,-201.5 0,-201.5"/>
<text text-anchor="middle" x="30" y="-208.5" font-family="Helvetica,sans-Serif" font-size="10.00">Cloneable</text>
</g>
<!-- Node4&#45;&gt;Node3 -->
<g id="edge3" class="edge"><title>Node4&#45;&gt;Node3</title>
<path fill="none" stroke="midnightblue" d="M49.1588,-195.195C61.3009,-185.813 76.9102,-173.751 88.8526,-164.523"/>
<polygon fill="midnightblue" stroke="midnightblue" points="46.805,-192.591 41.0322,-201.475 51.0852,-198.13 46.805,-192.591"/>
</g>
<!-- Node5 -->
<g id="node5" class="node"><title>Node5</title>
<polygon fill="none" stroke="#bfbfbf" points="78.5,-201.5 78.5,-220.5 135.5,-220.5 135.5,-201.5 78.5,-201.5"/>
<text text-anchor="middle" x="107" y="-208.5" font-family="Helvetica,sans-Serif" font-size="10.00">List&lt; E &gt;</text>
</g>
<!-- Node5&#45;&gt;Node3 -->
<g id="edge4" class="edge"><title>Node5&#45;&gt;Node3</title>
<path fill="none" stroke="midnightblue" d="M107,-191.235C107,-182.586 107,-172.497 107,-164.523"/>
<polygon fill="midnightblue" stroke="midnightblue" points="103.5,-191.475 107,-201.475 110.5,-191.475 103.5,-191.475"/>
</g>
<!-- Node6 -->
<g id="node6" class="node"><title>Node6</title>
<polygon fill="none" stroke="#bfbfbf" points="154,-201.5 154,-220.5 240,-220.5 240,-201.5 154,-201.5"/>
<text text-anchor="middle" x="197" y="-208.5" font-family="Helvetica,sans-Serif" font-size="10.00">RandomAccess</text>
</g>
<!-- Node6&#45;&gt;Node3 -->
<g id="edge5" class="edge"><title>Node6&#45;&gt;Node3</title>
<path fill="none" stroke="midnightblue" d="M175.429,-195.739C161.125,-186.282 142.441,-173.93 128.211,-164.523"/>
<polygon fill="midnightblue" stroke="midnightblue" points="173.833,-198.88 184.105,-201.475 177.694,-193.041 173.833,-198.88"/>
</g>
</g>
</svg>
