<?xml version="1.0" encoding="UTF-8" standalone="no"?>
<!DOCTYPE svg PUBLIC "-//W3C//DTD SVG 1.1//EN"
 "http://www.w3.org/Graphics/SVG/1.1/DTD/svg11.dtd">
<!-- Generated by graphviz version 2.38.0 (20140413.2041)
 -->
<!-- Title: IdentityMathFunction Pages: 1 -->
<svg width="419pt" height="125pt"
 viewBox="0.00 0.00 419.00 124.57" xmlns="http://www.w3.org/2000/svg" xmlns:xlink="http://www.w3.org/1999/xlink">
<g id="graph0" class="graph" transform="scale(1 1) rotate(0) translate(4 120.573)">
<title>IdentityMathFunction</title>
<!-- Node5 -->
<g id="node1" class="node"><title>Node5</title>
<polygon fill="#bfbfbf" stroke="black" points="304,-57.5 304,-76.5 411,-76.5 411,-57.5 304,-57.5"/>
<text text-anchor="middle" x="357.5" y="-64.5" font-family="Helvetica,sans-Serif" font-size="10.00">IdentityMathFunction</text>
</g>
<!-- Node6 -->
<g id="node2" class="node"><title>Node6</title>
<g id="a_node2"><a xlink:href="interfaceumontreal_1_1ssj_1_1functions_1_1MathFunction.html" target="_top" xlink:title="This interface should be implemented by classes which represent univariate mathematical functions...">
<polygon fill="none" stroke="black" points="0,-57.5 0,-76.5 76,-76.5 76,-57.5 0,-57.5"/>
<text text-anchor="middle" x="38" y="-64.5" font-family="Helvetica,sans-Serif" font-size="10.00">MathFunction</text>
</a>
</g>
</g>
<!-- Node6&#45;&gt;Node5 -->
<g id="edge1" class="edge"><title>Node6&#45;&gt;Node5</title>
<path fill="none" stroke="midnightblue" d="M61.2729,-82.187C75.1833,-90.7332 93.8452,-100.558 112,-105 179.347,-121.479 200.087,-118.964 268,-105 294.369,-99.5781 322.575,-85.9461 339.877,-76.5752"/>
<polygon fill="midnightblue" stroke="midnightblue" points="62.7769,-78.9943 52.4664,-76.5564 59.0061,-84.892 62.7769,-78.9943"/>
</g>
<!-- Node7 -->
<g id="node3" class="node"><title>Node7</title>
<g id="a_node3"><a xlink:href="interfaceumontreal_1_1ssj_1_1functions_1_1MathFunctionWithFirstDerivative.html" target="_top" xlink:title="Represents a mathematical function whose derivative can be computed using derivative(double). ">
<polygon fill="none" stroke="black" points="112,-76.5 112,-95.5 268,-95.5 268,-76.5 112,-76.5"/>
<text text-anchor="middle" x="190" y="-83.5" font-family="Helvetica,sans-Serif" font-size="10.00">MathFunctionWithFirstDerivative</text>
</a>
</g>
</g>
<!-- Node6&#45;&gt;Node7 -->
<g id="edge3" class="edge"><title>Node6&#45;&gt;Node7</title>
<path fill="none" stroke="midnightblue" d="M86.1639,-72.9741C95.022,-74.0961 104.484,-75.2946 113.947,-76.4933"/>
<polygon fill="midnightblue" stroke="midnightblue" points="86.4392,-69.4811 76.0787,-71.6966 85.5595,-76.4256 86.4392,-69.4811"/>
</g>
<!-- Node8 -->
<g id="node4" class="node"><title>Node8</title>
<g id="a_node4"><a xlink:href="interfaceumontreal_1_1ssj_1_1functions_1_1MathFunctionWithDerivative.html" target="_top" xlink:title="Represents a mathematical function whose th derivative can be computed using derivative(double,int). ">
<polygon fill="none" stroke="black" points="121.5,-38.5 121.5,-57.5 258.5,-57.5 258.5,-38.5 121.5,-38.5"/>
<text text-anchor="middle" x="190" y="-45.5" font-family="Helvetica,sans-Serif" font-size="10.00">MathFunctionWithDerivative</text>
</a>
</g>
</g>
<!-- Node6&#45;&gt;Node8 -->
<g id="edge5" class="edge"><title>Node6&#45;&gt;Node8</title>
<path fill="none" stroke="midnightblue" d="M86.0597,-61.0391C97.2631,-59.62 109.437,-58.078 121.361,-56.5677"/>
<polygon fill="midnightblue" stroke="midnightblue" points="85.5595,-57.5744 76.0787,-62.3034 86.4392,-64.5189 85.5595,-57.5744"/>
</g>
<!-- Node9 -->
<g id="node5" class="node"><title>Node9</title>
<g id="a_node5"><a xlink:href="interfaceumontreal_1_1ssj_1_1functions_1_1MathFunctionWithIntegral.html" target="_top" xlink:title="Represents a mathematical function whose integral can be computed by the integral(double,double) method. ">
<polygon fill="none" stroke="black" points="126,-0.5 126,-19.5 254,-19.5 254,-0.5 126,-0.5"/>
<text text-anchor="middle" x="190" y="-7.5" font-family="Helvetica,sans-Serif" font-size="10.00">MathFunctionWithIntegral</text>
</a>
</g>
</g>
<!-- Node6&#45;&gt;Node9 -->
<g id="edge7" class="edge"><title>Node6&#45;&gt;Node9</title>
<path fill="none" stroke="midnightblue" d="M63.6153,-52.3102C77.4591,-44.5334 95.2742,-35.3135 112,-29 121.661,-25.3531 132.271,-22.2123 142.443,-19.594"/>
<polygon fill="midnightblue" stroke="midnightblue" points="61.6592,-49.3973 54.7278,-57.4102 65.1433,-55.4687 61.6592,-49.3973"/>
</g>
<!-- Node7&#45;&gt;Node5 -->
<g id="edge2" class="edge"><title>Node7&#45;&gt;Node5</title>
<path fill="none" stroke="midnightblue" d="M278.512,-75.9533C287.102,-74.9672 295.623,-73.989 303.703,-73.0613"/>
<polygon fill="midnightblue" stroke="midnightblue" points="277.955,-72.4941 268.42,-77.1119 278.754,-79.4485 277.955,-72.4941"/>
</g>
<!-- Node8&#45;&gt;Node5 -->
<g id="edge4" class="edge"><title>Node8&#45;&gt;Node5</title>
<path fill="none" stroke="midnightblue" d="M269.066,-56.9623C280.821,-58.3118 292.703,-59.6759 303.758,-60.945"/>
<polygon fill="midnightblue" stroke="midnightblue" points="269.127,-53.4463 258.793,-55.7828 268.328,-60.4006 269.127,-53.4463"/>
</g>
<!-- Node9&#45;&gt;Node5 -->
<g id="edge6" class="edge"><title>Node9&#45;&gt;Node5</title>
<path fill="none" stroke="midnightblue" d="M244.779,-22.0728C252.628,-24.1803 260.566,-26.5053 268,-29 292.254,-37.1386 319.129,-49.1223 336.828,-57.448"/>
<polygon fill="midnightblue" stroke="midnightblue" points="245.487,-18.6408 234.929,-19.5234 243.733,-25.4175 245.487,-18.6408"/>
</g>
</g>
</svg>
