<?xml version="1.0" encoding="UTF-8" standalone="no"?>
<!DOCTYPE svg PUBLIC "-//W3C//DTD SVG 1.1//EN"
 "http://www.w3.org/Graphics/SVG/1.1/DTD/svg11.dtd">
<!-- Generated by graphviz version 2.38.0 (20140413.2041)
 -->
<!-- Title: NI2b Pages: 1 -->
<svg width="135pt" height="220pt"
 viewBox="0.00 0.00 135.00 220.00" xmlns="http://www.w3.org/2000/svg" xmlns:xlink="http://www.w3.org/1999/xlink">
<g id="graph0" class="graph" transform="scale(1 1) rotate(0) translate(4 216)">
<title>NI2b</title>
<!-- Node1 -->
<g id="node1" class="node"><title>Node1</title>
<polygon fill="#bfbfbf" stroke="black" points="44,-0.5 44,-19.5 83,-19.5 83,-0.5 44,-0.5"/>
<text text-anchor="middle" x="63.5" y="-7.5" font-family="Helvetica,sans-Serif" font-size="10.00">NI2b</text>
</g>
<!-- Node2 -->
<g id="node2" class="node"><title>Node2</title>
<g id="a_node2"><a xlink:href="classumontreal_1_1ssj_1_1probdistmulti_1_1norta_1_1NortaInitDisc.html" target="_top" xlink:title="This abstract class defines the algorithms used for NORTA initialization when the marginal distributi...">
<polygon fill="none" stroke="black" points="23.5,-57.5 23.5,-76.5 103.5,-76.5 103.5,-57.5 23.5,-57.5"/>
<text text-anchor="middle" x="63.5" y="-64.5" font-family="Helvetica,sans-Serif" font-size="10.00">NortaInitDisc</text>
</a>
</g>
</g>
<!-- Node2&#45;&gt;Node1 -->
<g id="edge1" class="edge"><title>Node2&#45;&gt;Node1</title>
<path fill="none" stroke="midnightblue" d="M63.5,-47.1166C63.5,-37.8173 63.5,-27.0557 63.5,-19.7149"/>
<polygon fill="midnightblue" stroke="midnightblue" points="60.0001,-47.4062 63.5,-57.4062 67.0001,-47.4063 60.0001,-47.4062"/>
</g>
<!-- Node3 -->
<g id="node3" class="node"><title>Node3</title>
<g id="a_node3"><a xlink:href="classumontreal_1_1ssj_1_1probdist_1_1DiscreteDistributionInt.html" target="_top" xlink:title="Classes implementing discrete distributions over the integers should inherit from this class...">
<polygon fill="none" stroke="black" points="0,-135.5 0,-154.5 127,-154.5 127,-135.5 0,-135.5"/>
<text text-anchor="middle" x="63.5" y="-142.5" font-family="Helvetica,sans-Serif" font-size="10.00">DiscreteDistributionInt</text>
</a>
</g>
</g>
<!-- Node3&#45;&gt;Node2 -->
<g id="edge2" class="edge"><title>Node3&#45;&gt;Node2</title>
<path fill="none" stroke="#9a32cd" stroke-dasharray="5,2" d="M63.5,-125.224C63.5,-109.697 63.5,-88.3582 63.5,-76.6165"/>
<polygon fill="#9a32cd" stroke="#9a32cd" points="60.0001,-125.282 63.5,-135.282 67.0001,-125.282 60.0001,-125.282"/>
<text text-anchor="middle" x="77.5" y="-109" font-family="Helvetica,sans-Serif" font-size="10.00"> dist1</text>
<text text-anchor="middle" x="77.5" y="-98" font-family="Helvetica,sans-Serif" font-size="10.00">dist2</text>
</g>
<!-- Node4 -->
<g id="node4" class="node"><title>Node4</title>
<g id="a_node4"><a xlink:href="interfaceumontreal_1_1ssj_1_1probdist_1_1Distribution.html" target="_top" xlink:title="This interface should be implemented by all classes supporting discrete and continuous distributions...">
<polygon fill="none" stroke="black" points="26.5,-192.5 26.5,-211.5 100.5,-211.5 100.5,-192.5 26.5,-192.5"/>
<text text-anchor="middle" x="63.5" y="-199.5" font-family="Helvetica,sans-Serif" font-size="10.00">Distribution</text>
</a>
</g>
</g>
<!-- Node4&#45;&gt;Node3 -->
<g id="edge3" class="edge"><title>Node4&#45;&gt;Node3</title>
<path fill="none" stroke="midnightblue" d="M63.5,-182.117C63.5,-172.817 63.5,-162.056 63.5,-154.715"/>
<polygon fill="midnightblue" stroke="midnightblue" points="60.0001,-182.406 63.5,-192.406 67.0001,-182.406 60.0001,-182.406"/>
</g>
</g>
</svg>
