<?xml version="1.0" encoding="UTF-8" standalone="no"?>
<!DOCTYPE svg PUBLIC "-//W3C//DTD SVG 1.1//EN"
 "http://www.w3.org/Graphics/SVG/1.1/DTD/svg11.dtd">
<!-- Generated by graphviz version 2.38.0 (20140413.2041)
 -->
<!-- Title: GammaProcessBridge Pages: 1 -->
<svg width="297pt" height="295pt"
 viewBox="0.00 0.00 296.50 295.00" xmlns="http://www.w3.org/2000/svg" xmlns:xlink="http://www.w3.org/1999/xlink">
<g id="graph0" class="graph" transform="scale(1 1) rotate(0) translate(4 291)">
<title>GammaProcessBridge</title>
<!-- Node1 -->
<g id="node1" class="node"><title>Node1</title>
<polygon fill="#bfbfbf" stroke="black" points="11,-0.5 11,-19.5 136,-19.5 136,-0.5 11,-0.5"/>
<text text-anchor="middle" x="73.5" y="-7.5" font-family="Helvetica,sans-Serif" font-size="10.00">GammaProcessBridge</text>
</g>
<!-- Node2 -->
<g id="node2" class="node"><title>Node2</title>
<g id="a_node2"><a xlink:href="classumontreal_1_1ssj_1_1stochprocess_1_1GammaProcess.html" target="_top" xlink:title="This class represents a gamma process   (page 82) &#160;with mean parameter &#160;and variance parameter ...">
<polygon fill="none" stroke="black" points="105,-57.5 105,-76.5 198,-76.5 198,-57.5 105,-57.5"/>
<text text-anchor="middle" x="151.5" y="-64.5" font-family="Helvetica,sans-Serif" font-size="10.00">GammaProcess</text>
</a>
</g>
</g>
<!-- Node2&#45;&gt;Node1 -->
<g id="edge1" class="edge"><title>Node2&#45;&gt;Node1</title>
<path fill="none" stroke="midnightblue" d="M130.989,-51.537C116.547,-41.3539 97.7052,-28.0678 85.6019,-19.5334"/>
<polygon fill="midnightblue" stroke="midnightblue" points="129.123,-54.5039 139.312,-57.4062 133.157,-48.7831 129.123,-54.5039"/>
</g>
<!-- Node3 -->
<g id="node3" class="node"><title>Node3</title>
<g id="a_node3"><a xlink:href="classumontreal_1_1ssj_1_1stochprocess_1_1StochasticProcess.html" target="_top" xlink:title="Abstract base class for a stochastic process &#160;sampled (or observed) at a finite number of time points...">
<polygon fill="none" stroke="black" points="184.5,-133.5 184.5,-152.5 288.5,-152.5 288.5,-133.5 184.5,-133.5"/>
<text text-anchor="middle" x="236.5" y="-140.5" font-family="Helvetica,sans-Serif" font-size="10.00">StochasticProcess</text>
</a>
</g>
</g>
<!-- Node3&#45;&gt;Node2 -->
<g id="edge2" class="edge"><title>Node3&#45;&gt;Node2</title>
<path fill="none" stroke="midnightblue" d="M218.62,-126.434C201.177,-111.248 175.288,-88.7098 161.309,-76.5395"/>
<polygon fill="midnightblue" stroke="midnightblue" points="216.575,-129.294 226.416,-133.221 221.172,-124.015 216.575,-129.294"/>
</g>
<!-- Node4 -->
<g id="node4" class="node"><title>Node4</title>
<g id="a_node4"><a xlink:href="classumontreal_1_1ssj_1_1randvar_1_1GammaGen.html" target="_top" xlink:title="This class implements random variate generators for the gamma distribution. ">
<polygon fill="none" stroke="black" points="53,-133.5 53,-152.5 128,-152.5 128,-133.5 53,-133.5"/>
<text text-anchor="middle" x="90.5" y="-140.5" font-family="Helvetica,sans-Serif" font-size="10.00">GammaGen</text>
</a>
</g>
</g>
<!-- Node4&#45;&gt;Node2 -->
<g id="edge3" class="edge"><title>Node4&#45;&gt;Node2</title>
<path fill="none" stroke="#9a32cd" stroke-dasharray="5,2" d="M96.9051,-123.807C100.76,-114.529 106.322,-103.452 113.5,-95 119.682,-87.7211 128.238,-81.4159 135.667,-76.7333"/>
<polygon fill="#9a32cd" stroke="#9a32cd" points="93.5849,-122.69 93.2827,-133.281 100.123,-125.19 93.5849,-122.69"/>
<text text-anchor="middle" x="128" y="-102.5" font-family="Helvetica,sans-Serif" font-size="10.00"> Ggen</text>
</g>
<!-- Node5 -->
<g id="node5" class="node"><title>Node5</title>
<g id="a_node5"><a xlink:href="classumontreal_1_1ssj_1_1randvar_1_1RandomVariateGen.html" target="_top" xlink:title="This is the base class for all random variate generators over the real line. ">
<polygon fill="none" stroke="black" points="7.5,-200.5 7.5,-219.5 119.5,-219.5 119.5,-200.5 7.5,-200.5"/>
<text text-anchor="middle" x="63.5" y="-207.5" font-family="Helvetica,sans-Serif" font-size="10.00">RandomVariateGen</text>
</a>
</g>
</g>
<!-- Node5&#45;&gt;Node4 -->
<g id="edge4" class="edge"><title>Node5&#45;&gt;Node4</title>
<path fill="none" stroke="midnightblue" d="M71.0641,-190.79C76.2492,-178.308 82.8929,-162.314 86.9164,-152.627"/>
<polygon fill="midnightblue" stroke="midnightblue" points="67.7452,-189.656 67.1413,-200.234 74.2097,-192.341 67.7452,-189.656"/>
</g>
<!-- Node8 -->
<g id="node8" class="node"><title>Node8</title>
<g id="a_node8"><a xlink:href="classumontreal_1_1ssj_1_1randvar_1_1BetaGen.html" target="_top" xlink:title="This class implements random variate generators with the beta distribution with shape parameters &#160;and...">
<polygon fill="none" stroke="black" points="0,-95.5 0,-114.5 59,-114.5 59,-95.5 0,-95.5"/>
<text text-anchor="middle" x="29.5" y="-102.5" font-family="Helvetica,sans-Serif" font-size="10.00">BetaGen</text>
</a>
</g>
</g>
<!-- Node5&#45;&gt;Node8 -->
<g id="edge9" class="edge"><title>Node5&#45;&gt;Node8</title>
<path fill="none" stroke="midnightblue" d="M56.6753,-190.673C52.6881,-179.778 47.642,-165.657 43.5,-153 39.1573,-139.73 34.633,-124.173 31.9421,-114.706"/>
<polygon fill="midnightblue" stroke="midnightblue" points="53.49,-192.151 60.237,-200.32 60.0567,-189.726 53.49,-192.151"/>
</g>
<!-- Node6 -->
<g id="node6" class="node"><title>Node6</title>
<g id="a_node6"><a xlink:href="interfaceumontreal_1_1ssj_1_1probdist_1_1Distribution.html" target="_top" xlink:title="This interface should be implemented by all classes supporting discrete and continuous distributions...">
<polygon fill="none" stroke="black" points="18.5,-267.5 18.5,-286.5 92.5,-286.5 92.5,-267.5 18.5,-267.5"/>
<text text-anchor="middle" x="55.5" y="-274.5" font-family="Helvetica,sans-Serif" font-size="10.00">Distribution</text>
</a>
</g>
</g>
<!-- Node6&#45;&gt;Node5 -->
<g id="edge5" class="edge"><title>Node6&#45;&gt;Node5</title>
<path fill="none" stroke="#9a32cd" stroke-dasharray="5,2" d="M56.5932,-257.211C57.0543,-251.073 57.6791,-244.233 58.5,-238 59.2968,-231.95 60.5468,-225.2 61.5976,-219.963"/>
<polygon fill="#9a32cd" stroke="#9a32cd" points="53.0989,-257.01 55.9328,-267.219 60.0837,-257.471 53.0989,-257.01"/>
<text text-anchor="middle" x="69.5" y="-241" font-family="Helvetica,sans-Serif" font-size="10.00"> dist</text>
</g>
<!-- Node7 -->
<g id="node7" class="node"><title>Node7</title>
<g id="a_node7"><a xlink:href="interfaceumontreal_1_1ssj_1_1rng_1_1RandomStream.html" target="_top" xlink:title="This interface defines the basic structures to handle multiple streams of uniform (pseudo)random numb...">
<polygon fill="none" stroke="black" points="110.5,-267.5 110.5,-286.5 202.5,-286.5 202.5,-267.5 110.5,-267.5"/>
<text text-anchor="middle" x="156.5" y="-274.5" font-family="Helvetica,sans-Serif" font-size="10.00">RandomStream</text>
</a>
</g>
</g>
<!-- Node7&#45;&gt;Node2 -->
<g id="edge7" class="edge"><title>Node7&#45;&gt;Node2</title>
<path fill="none" stroke="#9a32cd" stroke-dasharray="5,2" d="M156.051,-257.302C155.008,-213.934 152.457,-107.824 151.709,-76.7097"/>
<polygon fill="#9a32cd" stroke="#9a32cd" points="152.552,-257.414 156.292,-267.327 159.55,-257.246 152.552,-257.414"/>
<text text-anchor="middle" x="173.5" y="-174" font-family="Helvetica,sans-Serif" font-size="10.00"> stream</text>
</g>
<!-- Node7&#45;&gt;Node5 -->
<g id="edge6" class="edge"><title>Node7&#45;&gt;Node5</title>
<path fill="none" stroke="#9a32cd" stroke-dasharray="5,2" d="M127.826,-262.857C120.011,-258.813 111.715,-254.077 104.5,-249 91.9594,-240.176 79.2808,-227.769 71.4116,-219.563"/>
<polygon fill="#9a32cd" stroke="#9a32cd" points="126.502,-266.107 137.015,-267.422 129.617,-259.838 126.502,-266.107"/>
<text text-anchor="middle" x="123.5" y="-241" font-family="Helvetica,sans-Serif" font-size="10.00"> stream</text>
</g>
<!-- Node8&#45;&gt;Node1 -->
<g id="edge8" class="edge"><title>Node8&#45;&gt;Node1</title>
<path fill="none" stroke="#9a32cd" stroke-dasharray="5,2" d="M37.9335,-86.1746C47.3857,-66.1961 62.3185,-34.6337 69.4493,-19.5618"/>
<polygon fill="#9a32cd" stroke="#9a32cd" points="34.6735,-84.8813 33.5605,-95.4175 41.0011,-87.875 34.6735,-84.8813"/>
<text text-anchor="middle" x="65.5" y="-64.5" font-family="Helvetica,sans-Serif" font-size="10.00"> Bgen</text>
</g>
</g>
</svg>
