<?xml version="1.0" encoding="UTF-8" standalone="no"?>
<!DOCTYPE svg PUBLIC "-//W3C//DTD SVG 1.1//EN"
 "http://www.w3.org/Graphics/SVG/1.1/DTD/svg11.dtd">
<!-- Generated by graphviz version 2.38.0 (20140413.2041)
 -->
<!-- Title: LinkedListStat&lt; E &gt; Pages: 1 -->
<svg width="141pt" height="207pt"
 viewBox="0.00 0.00 141.00 207.00" xmlns="http://www.w3.org/2000/svg" xmlns:xlink="http://www.w3.org/1999/xlink">
<g id="graph0" class="graph" transform="scale(1 1) rotate(0) translate(4 203)">
<title>LinkedListStat&lt; E &gt;</title>
<!-- Node4 -->
<g id="node1" class="node"><title>Node4</title>
<polygon fill="#bfbfbf" stroke="black" points="14.5,-0.5 14.5,-19.5 118.5,-19.5 118.5,-0.5 14.5,-0.5"/>
<text text-anchor="middle" x="66.5" y="-7.5" font-family="Helvetica,sans-Serif" font-size="10.00">LinkedListStat&lt; E &gt;</text>
</g>
<!-- Node5 -->
<g id="node2" class="node"><title>Node5</title>
<g id="a_node2"><a xlink:href="classumontreal_1_1ssj_1_1simevents_1_1ListWithStat.html" target="_top" xlink:title="Implements a list with integrated statistical probes to provide automatic collection of statistics on...">
<polygon fill="none" stroke="black" points="19,-56.5 19,-75.5 114,-75.5 114,-56.5 19,-56.5"/>
<text text-anchor="middle" x="66.5" y="-63.5" font-family="Helvetica,sans-Serif" font-size="10.00">ListWithStat&lt; E &gt;</text>
</a>
</g>
</g>
<!-- Node5&#45;&gt;Node4 -->
<g id="edge1" class="edge"><title>Node5&#45;&gt;Node4</title>
<path fill="none" stroke="midnightblue" d="M66.5,-45.8045C66.5,-36.9102 66.5,-26.7798 66.5,-19.7511"/>
<polygon fill="midnightblue" stroke="midnightblue" points="63.0001,-46.083 66.5,-56.083 70.0001,-46.083 63.0001,-46.083"/>
</g>
<!-- Node6 -->
<g id="node3" class="node"><title>Node6</title>
<g id="a_node3"><a xlink:href="classumontreal_1_1ssj_1_1util_1_1TransformingList.html" target="_top" xlink:title="Represents a list that dynamically transforms the elements of another list. ">
<polygon fill="none" stroke="black" points="0,-112.5 0,-142.5 133,-142.5 133,-112.5 0,-112.5"/>
<text text-anchor="start" x="8" y="-130.5" font-family="Helvetica,sans-Serif" font-size="10.00">TransformingList&lt; E,</text>
<text text-anchor="middle" x="66.5" y="-119.5" font-family="Helvetica,sans-Serif" font-size="10.00"> ListWithStat.Node&lt; E &gt; &gt;</text>
</a>
</g>
</g>
<!-- Node6&#45;&gt;Node5 -->
<g id="edge2" class="edge"><title>Node6&#45;&gt;Node5</title>
<path fill="none" stroke="midnightblue" d="M66.5,-102.289C66.5,-92.857 66.5,-82.6548 66.5,-75.6578"/>
<polygon fill="midnightblue" stroke="midnightblue" points="63.0001,-102.399 66.5,-112.399 70.0001,-102.399 63.0001,-102.399"/>
</g>
<!-- Node7 -->
<g id="node4" class="node"><title>Node7</title>
<polygon fill="none" stroke="#bfbfbf" points="16,-179.5 16,-198.5 117,-198.5 117,-179.5 16,-179.5"/>
<text text-anchor="middle" x="66.5" y="-186.5" font-family="Helvetica,sans-Serif" font-size="10.00">AbstractList&lt; OE &gt;</text>
</g>
<!-- Node7&#45;&gt;Node6 -->
<g id="edge3" class="edge"><title>Node7&#45;&gt;Node6</title>
<path fill="none" stroke="midnightblue" d="M66.5,-169.235C66.5,-160.586 66.5,-150.497 66.5,-142.523"/>
<polygon fill="midnightblue" stroke="midnightblue" points="63.0001,-169.475 66.5,-179.475 70.0001,-169.475 63.0001,-169.475"/>
</g>
</g>
</svg>
