<?xml version="1.0" encoding="UTF-8" standalone="no"?>
<!DOCTYPE svg PUBLIC "-//W3C//DTD SVG 1.1//EN"
 "http://www.w3.org/Graphics/SVG/1.1/DTD/svg11.dtd">
<!-- Generated by graphviz version 2.38.0 (20140413.2041)
 -->
<!-- Title: RandomShift Pages: 1 -->
<svg width="210pt" height="140pt"
 viewBox="0.00 0.00 209.50 140.00" xmlns="http://www.w3.org/2000/svg" xmlns:xlink="http://www.w3.org/1999/xlink">
<g id="graph0" class="graph" transform="scale(1 1) rotate(0) translate(4 136)">
<title>RandomShift</title>
<!-- Node0 -->
<g id="node1" class="node"><title>Node0</title>
<polygon fill="#bfbfbf" stroke="black" points="64.5,-56.5 64.5,-75.5 136.5,-75.5 136.5,-56.5 64.5,-56.5"/>
<text text-anchor="middle" x="100.5" y="-63.5" font-family="Helvetica,sans-Serif" font-size="10.00">RandomShift</text>
</g>
<!-- Node2 -->
<g id="node3" class="node"><title>Node2</title>
<g id="a_node3"><a xlink:href="classumontreal_1_1ssj_1_1hups_1_1LMScrambleShift.html" target="_top" xlink:title="This class implements a umontreal.ssj.hups.PointSetRandomization that performs a left matrix scrambli...">
<polygon fill="none" stroke="black" points="0,-0.5 0,-19.5 91,-19.5 91,-0.5 0,-0.5"/>
<text text-anchor="middle" x="45.5" y="-7.5" font-family="Helvetica,sans-Serif" font-size="10.00">LMScrambleShift</text>
</a>
</g>
</g>
<!-- Node0&#45;&gt;Node2 -->
<g id="edge2" class="edge"><title>Node0&#45;&gt;Node2</title>
<path fill="none" stroke="midnightblue" d="M84.2062,-49.0024C74.4594,-39.4329 62.447,-27.6389 54.4131,-19.7511"/>
<polygon fill="midnightblue" stroke="midnightblue" points="81.8301,-51.5746 91.4179,-56.083 86.7343,-46.5796 81.8301,-51.5746"/>
</g>
<!-- Node3 -->
<g id="node4" class="node"><title>Node3</title>
<g id="a_node4"><a xlink:href="classumontreal_1_1ssj_1_1hups_1_1SMScrambleShift.html" target="_top" xlink:title="This class implements a umontreal.ssj.hups.PointSetRandomization that performs a striped matrix scram...">
<polygon fill="none" stroke="black" points="109.5,-0.5 109.5,-19.5 201.5,-19.5 201.5,-0.5 109.5,-0.5"/>
<text text-anchor="middle" x="155.5" y="-7.5" font-family="Helvetica,sans-Serif" font-size="10.00">SMScrambleShift</text>
</a>
</g>
</g>
<!-- Node0&#45;&gt;Node3 -->
<g id="edge3" class="edge"><title>Node0&#45;&gt;Node3</title>
<path fill="none" stroke="midnightblue" d="M116.794,-49.0024C126.541,-39.4329 138.553,-27.6389 146.587,-19.7511"/>
<polygon fill="midnightblue" stroke="midnightblue" points="114.266,-46.5796 109.582,-56.083 119.17,-51.5746 114.266,-46.5796"/>
</g>
<!-- Node1 -->
<g id="node2" class="node"><title>Node1</title>
<g id="a_node2"><a xlink:href="interfaceumontreal_1_1ssj_1_1hups_1_1PointSetRandomization.html" target="_top" xlink:title="This interface is for a randomization that can be used to randomize a umontreal.ssj.hups.PointSet. ">
<polygon fill="none" stroke="black" points="41,-112.5 41,-131.5 160,-131.5 160,-112.5 41,-112.5"/>
<text text-anchor="middle" x="100.5" y="-119.5" font-family="Helvetica,sans-Serif" font-size="10.00">PointSetRandomization</text>
</a>
</g>
</g>
<!-- Node1&#45;&gt;Node0 -->
<g id="edge1" class="edge"><title>Node1&#45;&gt;Node0</title>
<path fill="none" stroke="midnightblue" d="M100.5,-101.805C100.5,-92.9102 100.5,-82.7798 100.5,-75.7511"/>
<polygon fill="midnightblue" stroke="midnightblue" points="97.0001,-102.083 100.5,-112.083 104,-102.083 97.0001,-102.083"/>
</g>
</g>
</svg>
