<?xml version="1.0" encoding="UTF-8" standalone="no"?>
<!DOCTYPE svg PUBLIC "-//W3C//DTD SVG 1.1//EN"
 "http://www.w3.org/Graphics/SVG/1.1/DTD/svg11.dtd">
<!-- Generated by graphviz version 2.38.0 (20140413.2041)
 -->
<!-- Title: HistogramChart Pages: 1 -->
<svg width="294pt" height="230pt"
 viewBox="0.00 0.00 294.00 230.00" xmlns="http://www.w3.org/2000/svg" xmlns:xlink="http://www.w3.org/1999/xlink">
<g id="graph0" class="graph" transform="scale(1 1) rotate(0) translate(4 226)">
<title>HistogramChart</title>
<!-- Node2 -->
<g id="node1" class="node"><title>Node2</title>
<polygon fill="#bfbfbf" stroke="black" points="58,-0.5 58,-19.5 142,-19.5 142,-0.5 58,-0.5"/>
<text text-anchor="middle" x="100" y="-7.5" font-family="Helvetica,sans-Serif" font-size="10.00">HistogramChart</text>
</g>
<!-- Node3 -->
<g id="node2" class="node"><title>Node3</title>
<g id="a_node2"><a xlink:href="classumontreal_1_1ssj_1_1charts_1_1XYChart.html" target="_top" xlink:title="This class provides tools to create charts from data in a simple way. ">
<polygon fill="none" stroke="black" points="74,-57.5 74,-76.5 126,-76.5 126,-57.5 74,-57.5"/>
<text text-anchor="middle" x="100" y="-64.5" font-family="Helvetica,sans-Serif" font-size="10.00">XYChart</text>
</a>
</g>
</g>
<!-- Node3&#45;&gt;Node2 -->
<g id="edge1" class="edge"><title>Node3&#45;&gt;Node2</title>
<path fill="none" stroke="midnightblue" d="M100,-47.1166C100,-37.8173 100,-27.0557 100,-19.7149"/>
<polygon fill="midnightblue" stroke="midnightblue" points="96.5001,-47.4062 100,-57.4063 103.5,-47.4063 96.5001,-47.4062"/>
</g>
<!-- Node4 -->
<g id="node3" class="node"><title>Node4</title>
<polygon fill="none" stroke="#bfbfbf" points="0,-135.5 0,-154.5 64,-154.5 64,-135.5 0,-135.5"/>
<text text-anchor="middle" x="32" y="-142.5" font-family="Helvetica,sans-Serif" font-size="10.00">JFreeChart</text>
</g>
<!-- Node4&#45;&gt;Node3 -->
<g id="edge2" class="edge"><title>Node4&#45;&gt;Node3</title>
<path fill="none" stroke="#9a32cd" stroke-dasharray="5,2" d="M44.3027,-127.303C51.7024,-117.584 61.5015,-105.264 71,-95 76.9805,-88.5374 84.2305,-81.7874 89.9853,-76.6531"/>
<polygon fill="#9a32cd" stroke="#9a32cd" points="41.4578,-125.263 38.259,-135.363 47.0583,-129.462 41.4578,-125.263"/>
<text text-anchor="middle" x="83.5" y="-103.5" font-family="Helvetica,sans-Serif" font-size="10.00"> chart</text>
</g>
<!-- Node5 -->
<g id="node4" class="node"><title>Node5</title>
<g id="a_node4"><a xlink:href="classumontreal_1_1ssj_1_1charts_1_1Axis.html" target="_top" xlink:title="Represents an axis of a chart encapsulated by an instance of XYChart. ">
<polygon fill="none" stroke="black" points="82,-135.5 82,-154.5 118,-154.5 118,-135.5 82,-135.5"/>
<text text-anchor="middle" x="100" y="-142.5" font-family="Helvetica,sans-Serif" font-size="10.00">Axis</text>
</a>
</g>
</g>
<!-- Node5&#45;&gt;Node3 -->
<g id="edge3" class="edge"><title>Node5&#45;&gt;Node3</title>
<path fill="none" stroke="#9a32cd" stroke-dasharray="5,2" d="M100,-125.224C100,-109.697 100,-88.3582 100,-76.6165"/>
<polygon fill="#9a32cd" stroke="#9a32cd" points="96.5001,-125.282 100,-135.282 103.5,-125.282 96.5001,-125.282"/>
<text text-anchor="middle" x="114" y="-109" font-family="Helvetica,sans-Serif" font-size="10.00"> XAxis</text>
<text text-anchor="middle" x="114" y="-98" font-family="Helvetica,sans-Serif" font-size="10.00">YAxis</text>
</g>
<!-- Node6 -->
<g id="node5" class="node"><title>Node6</title>
<g id="a_node5"><a xlink:href="classumontreal_1_1ssj_1_1charts_1_1SSJXYSeriesCollection.html" target="_top" xlink:title="Stores data used in a XYChart. ">
<polygon fill="none" stroke="black" points="136.5,-135.5 136.5,-154.5 253.5,-154.5 253.5,-135.5 136.5,-135.5"/>
<text text-anchor="middle" x="195" y="-142.5" font-family="Helvetica,sans-Serif" font-size="10.00">SSJXYSeriesCollection</text>
</a>
</g>
</g>
<!-- Node6&#45;&gt;Node3 -->
<g id="edge4" class="edge"><title>Node6&#45;&gt;Node3</title>
<path fill="none" stroke="#9a32cd" stroke-dasharray="5,2" d="M176.175,-128.94C156.606,-113.285 126.659,-89.3271 110.771,-76.6165"/>
<polygon fill="#9a32cd" stroke="#9a32cd" points="174.107,-131.768 184.102,-135.282 178.48,-126.302 174.107,-131.768"/>
<text text-anchor="middle" x="177" y="-103.5" font-family="Helvetica,sans-Serif" font-size="10.00"> dataset</text>
</g>
<!-- Node7 -->
<g id="node6" class="node"><title>Node7</title>
<polygon fill="none" stroke="#bfbfbf" points="116,-202.5 116,-221.5 178,-221.5 178,-202.5 116,-202.5"/>
<text text-anchor="middle" x="147" y="-209.5" font-family="Helvetica,sans-Serif" font-size="10.00">XYDataset</text>
</g>
<!-- Node7&#45;&gt;Node6 -->
<g id="edge5" class="edge"><title>Node7&#45;&gt;Node6</title>
<path fill="none" stroke="#9a32cd" stroke-dasharray="5,2" d="M143.902,-192.415C143.706,-185.878 144.578,-178.737 148,-173 152.917,-164.757 161.377,-158.796 169.776,-154.607"/>
<polygon fill="#9a32cd" stroke="#9a32cd" points="140.436,-192.923 144.979,-202.494 147.396,-192.179 140.436,-192.923"/>
<text text-anchor="middle" x="184.5" y="-176" font-family="Helvetica,sans-Serif" font-size="10.00"> seriesCollection</text>
</g>
<!-- Node8 -->
<g id="node7" class="node"><title>Node8</title>
<polygon fill="none" stroke="#bfbfbf" points="200,-202.5 200,-221.5 286,-221.5 286,-202.5 200,-202.5"/>
<text text-anchor="middle" x="243" y="-209.5" font-family="Helvetica,sans-Serif" font-size="10.00">XYItemRenderer</text>
</g>
<!-- Node8&#45;&gt;Node6 -->
<g id="edge6" class="edge"><title>Node8&#45;&gt;Node6</title>
<path fill="none" stroke="#9a32cd" stroke-dasharray="5,2" d="M234.074,-193.571C230.367,-186.907 225.808,-179.382 221,-173 215.988,-166.347 209.488,-159.597 204.241,-154.51"/>
<polygon fill="#9a32cd" stroke="#9a32cd" points="231.033,-195.307 238.827,-202.483 237.21,-192.012 231.033,-195.307"/>
<text text-anchor="middle" x="247.5" y="-176" font-family="Helvetica,sans-Serif" font-size="10.00"> renderer</text>
</g>
</g>
</svg>
