<?xml version="1.0" encoding="UTF-8" standalone="no"?>
<!DOCTYPE svg PUBLIC "-//W3C//DTD SVG 1.1//EN"
 "http://www.w3.org/Graphics/SVG/1.1/DTD/svg11.dtd">
<!-- Generated by graphviz version 2.26.3 (20100126.1600)
 -->
<!-- Title: InverseGaussianGen Pages: 1 -->
<svg width="138pt" height="146pt"
 viewBox="0.00 0.00 138.00 146.00" xmlns="http://www.w3.org/2000/svg" xmlns:xlink="http://www.w3.org/1999/xlink">
<g id="graph1" class="graph" transform="scale(1 1) rotate(0) translate(4 142)">
<title>InverseGaussianGen</title>
<!-- Node1 -->
<g id="node1" class="node"><title>Node1</title>
<polygon fill="#bfbfbf" stroke="black" points="11,-59 11,-79 119,-79 119,-59 11,-59"/>
<text text-anchor="middle" x="65" y="-66" font-family="Helvetica,sans-Serif" font-size="10.00">InverseGaussianGen</text>
</g>
<!-- Node3 -->
<g id="node5" class="node"><title>Node3</title>
<a xlink:href="classumontreal_1_1ssj_1_1randvar_1_1InverseGaussianMSHGen.html" target="_top" xlink:title="This class implements inverse gaussian random variate generators using the many&#45;to&#45;one transformation...">
<polygon fill="none" stroke="black" points="0,-1 0,-21 130,-21 130,-1 0,-1"/>
<text text-anchor="middle" x="65" y="-8" font-family="Helvetica,sans-Serif" font-size="10.00">InverseGaussianMSHGen</text>
</a>
</g>
<!-- Node1&#45;&gt;Node3 -->
<g id="edge4" class="edge"><title>Node1&#45;&gt;Node3</title>
<path fill="none" stroke="midnightblue" d="M65,-48.8902C65,-39.6201 65,-29.0083 65,-21.3776"/>
<polygon fill="midnightblue" stroke="midnightblue" points="61.5001,-48.8971 65,-58.8972 68.5001,-48.8972 61.5001,-48.8971"/>
</g>
<!-- Node2 -->
<g id="node2" class="node"><title>Node2</title>
<a xlink:href="classumontreal_1_1ssj_1_1randvar_1_1RandomVariateGen.html" target="_top" xlink:title="This is the base class for all random variate generators over the real line. ">
<polygon fill="none" stroke="black" points="14.5,-117 14.5,-137 115.5,-137 115.5,-117 14.5,-117"/>
<text text-anchor="middle" x="65" y="-124" font-family="Helvetica,sans-Serif" font-size="10.00">RandomVariateGen</text>
</a>
</g>
<!-- Node2&#45;&gt;Node1 -->
<g id="edge2" class="edge"><title>Node2&#45;&gt;Node1</title>
<path fill="none" stroke="midnightblue" d="M65,-106.89C65,-97.6201 65,-87.0083 65,-79.3776"/>
<polygon fill="midnightblue" stroke="midnightblue" points="61.5001,-106.897 65,-116.897 68.5001,-106.897 61.5001,-106.897"/>
</g>
</g>
</svg>
