<?xml version="1.0" encoding="UTF-8" standalone="no"?>
<!DOCTYPE svg PUBLIC "-//W3C//DTD SVG 1.1//EN"
 "http://www.w3.org/Graphics/SVG/1.1/DTD/svg11.dtd">
<!-- Generated by graphviz version 2.38.0 (20140413.2041)
 -->
<!-- Title: QueueEv Pages: 1 -->
<svg width="477pt" height="184pt"
 viewBox="0.00 0.00 476.50 184.00" xmlns="http://www.w3.org/2000/svg" xmlns:xlink="http://www.w3.org/1999/xlink">
<g id="graph0" class="graph" transform="scale(1 1) rotate(0) translate(4 180)">
<title>QueueEv</title>
<!-- Node1 -->
<g id="node1" class="node"><title>Node1</title>
<polygon fill="#bfbfbf" stroke="black" points="237,-0.5 237,-19.5 293,-19.5 293,-0.5 237,-0.5"/>
<text text-anchor="middle" x="265" y="-7.5" font-family="Helvetica,sans-Serif" font-size="10.00">QueueEv</text>
</g>
<!-- Node2 -->
<g id="node2" class="node"><title>Node2</title>
<g id="a_node2"><a xlink:href="classumontreal_1_1ssj_1_1randvar_1_1RandomVariateGen.html" target="_top" xlink:title="This is the base class for all random variate generators over the real line. ">
<polygon fill="none" stroke="black" points="76.5,-84 76.5,-103 177.5,-103 177.5,-84 76.5,-84"/>
<text text-anchor="middle" x="127" y="-91" font-family="Helvetica,sans-Serif" font-size="10.00">RandomVariateGen</text>
</a>
</g>
</g>
<!-- Node2&#45;&gt;Node1 -->
<g id="edge1" class="edge"><title>Node2&#45;&gt;Node1</title>
<path fill="none" stroke="#9a32cd" stroke-dasharray="5,2" d="M143.41,-76.6194C156.337,-64.7658 175.247,-48.8153 194,-38 207.366,-30.2914 223.345,-23.9893 236.756,-19.4182"/>
<polygon fill="#9a32cd" stroke="#9a32cd" points="140.739,-74.3268 135.842,-83.7222 145.529,-79.431 140.739,-74.3268"/>
<text text-anchor="middle" x="211.5" y="-52" font-family="Helvetica,sans-Serif" font-size="10.00"> genArr</text>
<text text-anchor="middle" x="211.5" y="-41" font-family="Helvetica,sans-Serif" font-size="10.00">genServ</text>
</g>
<!-- Node3 -->
<g id="node3" class="node"><title>Node3</title>
<g id="a_node3"><a xlink:href="interfaceumontreal_1_1ssj_1_1probdist_1_1Distribution.html" target="_top" xlink:title="This interface should be implemented by all classes supporting discrete and continuous distributions...">
<polygon fill="none" stroke="black" points="102.5,-156.5 102.5,-175.5 167.5,-175.5 167.5,-156.5 102.5,-156.5"/>
<text text-anchor="middle" x="135" y="-163.5" font-family="Helvetica,sans-Serif" font-size="10.00">Distribution</text>
</a>
</g>
</g>
<!-- Node3&#45;&gt;Node2 -->
<g id="edge2" class="edge"><title>Node3&#45;&gt;Node2</title>
<path fill="none" stroke="#9a32cd" stroke-dasharray="5,2" d="M132.885,-146.358C131.3,-132.395 129.204,-113.926 127.989,-103.215"/>
<polygon fill="#9a32cd" stroke="#9a32cd" points="129.414,-146.814 134.019,-156.355 136.369,-146.024 129.414,-146.814"/>
<text text-anchor="middle" x="141.5" y="-130" font-family="Helvetica,sans-Serif" font-size="10.00"> dist</text>
</g>
<!-- Node4 -->
<g id="node4" class="node"><title>Node4</title>
<g id="a_node4"><a xlink:href="interfaceumontreal_1_1ssj_1_1rng_1_1RandomStream.html" target="_top" xlink:title="This interface defines the basic structures to handle multiple streams of uniform (pseudo)random numb...">
<polygon fill="none" stroke="black" points="0,-156.5 0,-175.5 84,-175.5 84,-156.5 0,-156.5"/>
<text text-anchor="middle" x="42" y="-163.5" font-family="Helvetica,sans-Serif" font-size="10.00">RandomStream</text>
</a>
</g>
</g>
<!-- Node4&#45;&gt;Node2 -->
<g id="edge3" class="edge"><title>Node4&#45;&gt;Node2</title>
<path fill="none" stroke="#9a32cd" stroke-dasharray="5,2" d="M60.5855,-149.585C77.7242,-135.37 102.555,-114.775 116.492,-103.215"/>
<polygon fill="#9a32cd" stroke="#9a32cd" points="57.8853,-147.277 52.4227,-156.355 62.3541,-152.665 57.8853,-147.277"/>
<text text-anchor="middle" x="105" y="-130" font-family="Helvetica,sans-Serif" font-size="10.00"> stream</text>
</g>
<!-- Node5 -->
<g id="node5" class="node"><title>Node5</title>
<g id="a_node5"><a xlink:href="classumontreal_1_1ssj_1_1stat_1_1Tally.html" target="_top" xlink:title="A subclass of StatProbe. ">
<polygon fill="none" stroke="black" points="282.5,-84 282.5,-103 319.5,-103 319.5,-84 282.5,-84"/>
<text text-anchor="middle" x="301" y="-91" font-family="Helvetica,sans-Serif" font-size="10.00">Tally</text>
</a>
</g>
</g>
<!-- Node5&#45;&gt;Node1 -->
<g id="edge4" class="edge"><title>Node5&#45;&gt;Node1</title>
<path fill="none" stroke="#9a32cd" stroke-dasharray="5,2" d="M292.982,-74.3478C285.463,-57.3261 274.546,-32.6117 268.825,-19.6592"/>
<polygon fill="#9a32cd" stroke="#9a32cd" points="289.905,-76.0449 297.147,-83.7781 296.308,-73.2165 289.905,-76.0449"/>
<text text-anchor="middle" x="311" y="-46.5" font-family="Helvetica,sans-Serif" font-size="10.00"> custWaits</text>
</g>
<!-- Node6 -->
<g id="node6" class="node"><title>Node6</title>
<g id="a_node6"><a xlink:href="classumontreal_1_1ssj_1_1stat_1_1StatProbe.html" target="_top" xlink:title="The objects of this class are statistical probes or collectors, which are elementary devices for coll...">
<polygon fill="none" stroke="black" points="271,-156.5 271,-175.5 331,-175.5 331,-156.5 271,-156.5"/>
<text text-anchor="middle" x="301" y="-163.5" font-family="Helvetica,sans-Serif" font-size="10.00">StatProbe</text>
</a>
</g>
</g>
<!-- Node6&#45;&gt;Node5 -->
<g id="edge5" class="edge"><title>Node6&#45;&gt;Node5</title>
<path fill="none" stroke="midnightblue" d="M301,-145.942C301,-132.03 301,-113.82 301,-103.215"/>
<polygon fill="midnightblue" stroke="midnightblue" points="297.5,-146.355 301,-156.355 304.5,-146.355 297.5,-146.355"/>
</g>
<!-- Node9 -->
<g id="node9" class="node"><title>Node9</title>
<g id="a_node9"><a xlink:href="classumontreal_1_1ssj_1_1simevents_1_1Accumulate.html" target="_top" xlink:title="A subclass of umontreal.ssj.stat.StatProbe, for collecting statistics on a variable that evolves in s...">
<polygon fill="none" stroke="black" points="196,-84 196,-103 264,-103 264,-84 196,-84"/>
<text text-anchor="middle" x="230" y="-91" font-family="Helvetica,sans-Serif" font-size="10.00">Accumulate</text>
</a>
</g>
</g>
<!-- Node6&#45;&gt;Node9 -->
<g id="edge9" class="edge"><title>Node6&#45;&gt;Node9</title>
<path fill="none" stroke="midnightblue" d="M285.08,-149.192C270.78,-134.993 250.312,-114.669 238.777,-103.215"/>
<polygon fill="midnightblue" stroke="midnightblue" points="282.732,-151.793 292.294,-156.355 287.664,-146.826 282.732,-151.793"/>
</g>
<!-- Node7 -->
<g id="node7" class="node"><title>Node7</title>
<polygon fill="none" stroke="#bfbfbf" points="193.5,-156.5 193.5,-175.5 252.5,-175.5 252.5,-156.5 193.5,-156.5"/>
<text text-anchor="middle" x="223" y="-163.5" font-family="Helvetica,sans-Serif" font-size="10.00">Cloneable</text>
</g>
<!-- Node7&#45;&gt;Node5 -->
<g id="edge6" class="edge"><title>Node7&#45;&gt;Node5</title>
<path fill="none" stroke="midnightblue" d="M240.055,-149.585C255.782,-135.37 278.568,-114.775 291.357,-103.215"/>
<polygon fill="midnightblue" stroke="midnightblue" points="237.636,-147.053 232.564,-156.355 242.33,-152.246 237.636,-147.053"/>
</g>
<!-- Node7&#45;&gt;Node9 -->
<g id="edge10" class="edge"><title>Node7&#45;&gt;Node9</title>
<path fill="none" stroke="midnightblue" d="M224.851,-146.358C226.237,-132.395 228.071,-113.926 229.135,-103.215"/>
<polygon fill="midnightblue" stroke="midnightblue" points="221.364,-146.058 223.858,-156.355 228.329,-146.75 221.364,-146.058"/>
</g>
<!-- Node8 -->
<g id="node8" class="node"><title>Node8</title>
<polygon fill="none" stroke="#bfbfbf" points="349,-156.5 349,-175.5 419,-175.5 419,-156.5 349,-156.5"/>
<text text-anchor="middle" x="384" y="-163.5" font-family="Helvetica,sans-Serif" font-size="10.00">Tally.CIType</text>
</g>
<!-- Node8&#45;&gt;Node5 -->
<g id="edge7" class="edge"><title>Node8&#45;&gt;Node5</title>
<path fill="none" stroke="#9a32cd" stroke-dasharray="5,2" d="M365.852,-149.585C349.116,-135.37 324.87,-114.775 311.261,-103.215"/>
<polygon fill="#9a32cd" stroke="#9a32cd" points="363.935,-152.549 373.823,-156.355 368.467,-147.214 363.935,-152.549"/>
<text text-anchor="middle" x="390" y="-130" font-family="Helvetica,sans-Serif" font-size="10.00"> confidenceInterval</text>
</g>
<!-- Node9&#45;&gt;Node1 -->
<g id="edge8" class="edge"><title>Node9&#45;&gt;Node1</title>
<path fill="none" stroke="#9a32cd" stroke-dasharray="5,2" d="M230.836,-73.7977C231.943,-62.8783 234.438,-49.1084 240,-38 243.489,-31.031 249.331,-24.5723 254.49,-19.7203"/>
<polygon fill="#9a32cd" stroke="#9a32cd" points="227.335,-73.6902 230.114,-83.9139 234.317,-74.1883 227.335,-73.6902"/>
<text text-anchor="middle" x="257.5" y="-46.5" font-family="Helvetica,sans-Serif" font-size="10.00"> totWait</text>
</g>
<!-- Node10 -->
<g id="node10" class="node"><title>Node10</title>
<polygon fill="none" stroke="#bfbfbf" points="337.5,-78.5 337.5,-108.5 468.5,-108.5 468.5,-78.5 337.5,-78.5"/>
<text text-anchor="start" x="345.5" y="-96.5" font-family="Helvetica,sans-Serif" font-size="10.00">LinkedList&lt; tutorial.Queue</text>
<text text-anchor="middle" x="403" y="-85.5" font-family="Helvetica,sans-Serif" font-size="10.00">Ev.Customer &gt;</text>
</g>
<!-- Node10&#45;&gt;Node1 -->
<g id="edge11" class="edge"><title>Node10&#45;&gt;Node1</title>
<path fill="none" stroke="#9a32cd" stroke-dasharray="5,2" d="M382.168,-71.4241C370.312,-60.3278 354.722,-47.1618 339,-38 324.703,-29.6685 307.389,-23.181 293.104,-18.6556"/>
<polygon fill="#9a32cd" stroke="#9a32cd" points="379.747,-73.9518 389.384,-78.3541 384.596,-68.903 379.747,-73.9518"/>
<text text-anchor="middle" x="387.5" y="-52" font-family="Helvetica,sans-Serif" font-size="10.00"> waitList</text>
<text text-anchor="middle" x="387.5" y="-41" font-family="Helvetica,sans-Serif" font-size="10.00">servList</text>
</g>
</g>
</svg>
