<?xml version="1.0" encoding="UTF-8" standalone="no"?>
<!DOCTYPE svg PUBLIC "-//W3C//DTD SVG 1.1//EN"
 "http://www.w3.org/Graphics/SVG/1.1/DTD/svg11.dtd">
<!-- Generated by graphviz version 2.26.3 (20100126.1600)
 -->
<!-- Title: Inventory Pages: 1 -->
<svg width="457pt" height="252pt"
 viewBox="0.00 0.00 457.00 252.00" xmlns="http://www.w3.org/2000/svg" xmlns:xlink="http://www.w3.org/1999/xlink">
<g id="graph1" class="graph" transform="scale(1 1) rotate(0) translate(4 248)">
<title>Inventory</title>
<!-- Node1 -->
<g id="node1" class="node"><title>Node1</title>
<polygon fill="#bfbfbf" stroke="black" points="259.5,-1 259.5,-21 316.5,-21 316.5,-1 259.5,-1"/>
<text text-anchor="middle" x="288" y="-8" font-family="Helvetica,sans-Serif" font-size="10.00">Inventory</text>
</g>
<!-- Node2 -->
<g id="node2" class="node"><title>Node2</title>
<a xlink:href="classumontreal_1_1ssj_1_1stat_1_1Tally.html" target="_top" xlink:title="A subclass of StatProbe. ">
<polygon fill="none" stroke="black" points="129.5,-71 129.5,-91 166.5,-91 166.5,-71 129.5,-71"/>
<text text-anchor="middle" x="148" y="-78" font-family="Helvetica,sans-Serif" font-size="10.00">Tally</text>
</a>
</g>
<!-- Node2&#45;&gt;Node1 -->
<g id="edge2" class="edge"><title>Node2&#45;&gt;Node1</title>
<path fill="none" stroke="#9a32cd" stroke-dasharray="5,2" d="M175.594,-67.203C202.806,-53.5971 243.738,-33.131 267.973,-21.0136"/>
<polygon fill="#9a32cd" stroke="#9a32cd" points="173.97,-64.1019 166.591,-71.7045 177.1,-70.3628 173.97,-64.1019"/>
<text text-anchor="middle" x="248.5" y="-43" font-family="Helvetica,sans-Serif" font-size="10.00"> statProfit</text>
</g>
<!-- Node3 -->
<g id="node4" class="node"><title>Node3</title>
<a xlink:href="classumontreal_1_1ssj_1_1stat_1_1StatProbe.html" target="_top" xlink:title="The objects of this class are statistical probes or collectors, which are elementary devices for coll...">
<polygon fill="none" stroke="black" points="0,-153 0,-173 60,-173 60,-153 0,-153"/>
<text text-anchor="middle" x="30" y="-160" font-family="Helvetica,sans-Serif" font-size="10.00">StatProbe</text>
</a>
</g>
<!-- Node3&#45;&gt;Node2 -->
<g id="edge4" class="edge"><title>Node3&#45;&gt;Node2</title>
<path fill="none" stroke="midnightblue" d="M52.9107,-147.079C76.7215,-130.532 113.266,-105.137 133.413,-91.1371"/>
<polygon fill="midnightblue" stroke="midnightblue" points="50.6837,-144.364 44.4691,-152.945 54.6783,-150.113 50.6837,-144.364"/>
</g>
<!-- Node4 -->
<g id="node6" class="node"><title>Node4</title>
<polygon fill="none" stroke="#bfbfbf" points="77.5,-153 77.5,-173 136.5,-173 136.5,-153 77.5,-153"/>
<text text-anchor="middle" x="107" y="-160" font-family="Helvetica,sans-Serif" font-size="10.00">Cloneable</text>
</g>
<!-- Node4&#45;&gt;Node2 -->
<g id="edge6" class="edge"><title>Node4&#45;&gt;Node2</title>
<path fill="none" stroke="midnightblue" d="M116.656,-143.689C124.887,-127.226 136.394,-104.212 142.931,-91.1371"/>
<polygon fill="midnightblue" stroke="midnightblue" points="113.369,-142.436 112.027,-152.945 119.63,-145.566 113.369,-142.436"/>
</g>
<!-- Node5 -->
<g id="node8" class="node"><title>Node5</title>
<polygon fill="none" stroke="#bfbfbf" points="154,-153 154,-173 224,-173 224,-153 154,-153"/>
<text text-anchor="middle" x="189" y="-160" font-family="Helvetica,sans-Serif" font-size="10.00">Tally.CIType</text>
</g>
<!-- Node5&#45;&gt;Node2 -->
<g id="edge8" class="edge"><title>Node5&#45;&gt;Node2</title>
<path fill="none" stroke="#9a32cd" stroke-dasharray="5,2" d="M179.344,-143.689C171.113,-127.226 159.606,-104.212 153.069,-91.1371"/>
<polygon fill="#9a32cd" stroke="#9a32cd" points="176.37,-145.566 183.973,-152.945 182.631,-142.436 176.37,-145.566"/>
<text text-anchor="middle" x="215.5" y="-119" font-family="Helvetica,sans-Serif" font-size="10.00"> confidenceInterval</text>
</g>
<!-- Node6 -->
<g id="node10" class="node"><title>Node6</title>
<a xlink:href="classumontreal_1_1ssj_1_1randvar_1_1RandomVariateGenInt.html" target="_top" xlink:title="This is the base class for all generators of discrete random variates over the set of integers...">
<polygon fill="none" stroke="black" points="232,-71 232,-91 344,-91 344,-71 232,-71"/>
<text text-anchor="middle" x="288" y="-78" font-family="Helvetica,sans-Serif" font-size="10.00">RandomVariateGenInt</text>
</a>
</g>
<!-- Node6&#45;&gt;Node1 -->
<g id="edge10" class="edge"><title>Node6&#45;&gt;Node1</title>
<path fill="none" stroke="#9a32cd" stroke-dasharray="5,2" d="M288,-60.6126C288,-47.5971 288,-31.2956 288,-21.0107"/>
<polygon fill="#9a32cd" stroke="#9a32cd" points="284.5,-60.9707 288,-70.9707 291.5,-60.9707 284.5,-60.9707"/>
<text text-anchor="middle" x="315.5" y="-43" font-family="Helvetica,sans-Serif" font-size="10.00"> genDemand</text>
</g>
<!-- Node7 -->
<g id="node12" class="node"><title>Node7</title>
<a xlink:href="classumontreal_1_1ssj_1_1randvar_1_1RandomVariateGen.html" target="_top" xlink:title="This is the base class for all random variate generators over the real line. ">
<polygon fill="none" stroke="black" points="241.5,-153 241.5,-173 342.5,-173 342.5,-153 241.5,-153"/>
<text text-anchor="middle" x="292" y="-160" font-family="Helvetica,sans-Serif" font-size="10.00">RandomVariateGen</text>
</a>
</g>
<!-- Node7&#45;&gt;Node6 -->
<g id="edge12" class="edge"><title>Node7&#45;&gt;Node6</title>
<path fill="none" stroke="midnightblue" d="M291.012,-142.75C290.213,-126.361 289.12,-103.965 288.494,-91.1371"/>
<polygon fill="midnightblue" stroke="midnightblue" points="287.526,-143.128 291.51,-152.945 294.518,-142.787 287.526,-143.128"/>
</g>
<!-- Node8 -->
<g id="node14" class="node"><title>Node8</title>
<a xlink:href="interfaceumontreal_1_1ssj_1_1probdist_1_1Distribution.html" target="_top" xlink:title="This interface should be implemented by all classes supporting discrete and continuous distributions...">
<polygon fill="none" stroke="black" points="247.5,-223 247.5,-243 312.5,-243 312.5,-223 247.5,-223"/>
<text text-anchor="middle" x="280" y="-230" font-family="Helvetica,sans-Serif" font-size="10.00">Distribution</text>
</a>
</g>
<!-- Node8&#45;&gt;Node7 -->
<g id="edge14" class="edge"><title>Node8&#45;&gt;Node7</title>
<path fill="none" stroke="#9a32cd" stroke-dasharray="5,2" d="M279.146,-212.585C279.228,-205.966 279.702,-198.625 281,-192 282.263,-185.553 284.82,-178.665 287.152,-173.22"/>
<polygon fill="#9a32cd" stroke="#9a32cd" points="275.65,-212.842 279.302,-222.787 282.649,-212.735 275.65,-212.842"/>
<text text-anchor="middle" x="290.5" y="-195" font-family="Helvetica,sans-Serif" font-size="10.00"> dist</text>
</g>
<!-- Node9 -->
<g id="node16" class="node"><title>Node9</title>
<a xlink:href="interfaceumontreal_1_1ssj_1_1rng_1_1RandomStream.html" target="_top" xlink:title="This interface defines the basic structures to handle multiple streams of uniform (pseudo)random numb...">
<polygon fill="none" stroke="black" points="330,-223 330,-243 414,-243 414,-223 330,-223"/>
<text text-anchor="middle" x="372" y="-230" font-family="Helvetica,sans-Serif" font-size="10.00">RandomStream</text>
</a>
</g>
<!-- Node9&#45;&gt;Node1 -->
<g id="edge18" class="edge"><title>Node9&#45;&gt;Node1</title>
<path fill="none" stroke="#9a32cd" stroke-dasharray="5,2" d="M375.499,-212.559C380.831,-174.38 386.577,-91.4525 347,-40 339.415,-30.139 327.593,-23.4179 316.517,-18.9505"/>
<polygon fill="#9a32cd" stroke="#9a32cd" points="371.972,-212.471 373.909,-222.887 378.89,-213.537 371.972,-212.471"/>
<text text-anchor="middle" x="414" y="-125" font-family="Helvetica,sans-Serif" font-size="10.00"> streamDemand</text>
<text text-anchor="middle" x="414" y="-113" font-family="Helvetica,sans-Serif" font-size="10.00">streamOrder</text>
</g>
<!-- Node9&#45;&gt;Node7 -->
<g id="edge16" class="edge"><title>Node9&#45;&gt;Node7</title>
<path fill="none" stroke="#9a32cd" stroke-dasharray="5,2" d="M342.986,-217.805C336.42,-213.746 329.708,-209.065 324,-204 313.734,-194.891 304.378,-182.145 298.47,-173.292"/>
<polygon fill="#9a32cd" stroke="#9a32cd" points="341.343,-220.899 351.741,-222.93 344.879,-214.858 341.343,-220.899"/>
<text text-anchor="middle" x="341" y="-195" font-family="Helvetica,sans-Serif" font-size="10.00"> stream</text>
</g>
</g>
</svg>
