<?xml version="1.0" encoding="UTF-8" standalone="no"?>
<!DOCTYPE svg PUBLIC "-//W3C//DTD SVG 1.1//EN"
 "http://www.w3.org/Graphics/SVG/1.1/DTD/svg11.dtd">
<!-- Generated by graphviz version 2.38.0 (20140413.2041)
 -->
<!-- Title: Tally Pages: 1 -->
<svg width="243pt" height="95pt"
 viewBox="0.00 0.00 243.00 95.00" xmlns="http://www.w3.org/2000/svg" xmlns:xlink="http://www.w3.org/1999/xlink">
<g id="graph0" class="graph" transform="scale(1 1) rotate(0) translate(4 91)">
<title>Tally</title>
<!-- Node7 -->
<g id="node1" class="node"><title>Node7</title>
<polygon fill="#bfbfbf" stroke="black" points="89.5,-0.5 89.5,-19.5 126.5,-19.5 126.5,-0.5 89.5,-0.5"/>
<text text-anchor="middle" x="108" y="-7.5" font-family="Helvetica,sans-Serif" font-size="10.00">Tally</text>
</g>
<!-- Node8 -->
<g id="node2" class="node"><title>Node8</title>
<g id="a_node2"><a xlink:href="classumontreal_1_1ssj_1_1stat_1_1StatProbe.html" target="_top" xlink:title="The objects of this class are statistical probes or collectors, which are elementary devices for coll...">
<polygon fill="none" stroke="black" points="0,-67.5 0,-86.5 60,-86.5 60,-67.5 0,-67.5"/>
<text text-anchor="middle" x="30" y="-74.5" font-family="Helvetica,sans-Serif" font-size="10.00">StatProbe</text>
</a>
</g>
</g>
<!-- Node8&#45;&gt;Node7 -->
<g id="edge1" class="edge"><title>Node8&#45;&gt;Node7</title>
<path fill="none" stroke="midnightblue" d="M48.3439,-60.7134C63.7116,-47.907 85.0939,-30.0884 97.6472,-19.6273"/>
<polygon fill="midnightblue" stroke="midnightblue" points="45.961,-58.1431 40.5194,-67.2338 50.4423,-63.5207 45.961,-58.1431"/>
</g>
<!-- Node9 -->
<g id="node3" class="node"><title>Node9</title>
<polygon fill="none" stroke="#bfbfbf" points="78.5,-67.5 78.5,-86.5 137.5,-86.5 137.5,-67.5 78.5,-67.5"/>
<text text-anchor="middle" x="108" y="-74.5" font-family="Helvetica,sans-Serif" font-size="10.00">Cloneable</text>
</g>
<!-- Node9&#45;&gt;Node7 -->
<g id="edge2" class="edge"><title>Node9&#45;&gt;Node7</title>
<path fill="none" stroke="midnightblue" d="M108,-57.037C108,-44.6703 108,-29.1198 108,-19.6273"/>
<polygon fill="midnightblue" stroke="midnightblue" points="104.5,-57.2338 108,-67.2338 111.5,-57.2338 104.5,-57.2338"/>
</g>
<!-- Node10 -->
<g id="node4" class="node"><title>Node10</title>
<polygon fill="none" stroke="#bfbfbf" points="156,-67.5 156,-86.5 226,-86.5 226,-67.5 156,-67.5"/>
<text text-anchor="middle" x="191" y="-74.5" font-family="Helvetica,sans-Serif" font-size="10.00">Tally.CIType</text>
</g>
<!-- Node10&#45;&gt;Node7 -->
<g id="edge3" class="edge"><title>Node10&#45;&gt;Node7</title>
<path fill="none" stroke="#9a32cd" stroke-dasharray="5,2" d="M171.933,-61.0678C155.55,-48.2376 132.498,-30.1853 119.016,-19.6273"/>
<polygon fill="#9a32cd" stroke="#9a32cd" points="169.775,-63.8237 179.806,-67.2338 174.091,-58.3126 169.775,-63.8237"/>
<text text-anchor="middle" x="195" y="-41" font-family="Helvetica,sans-Serif" font-size="10.00"> confidenceInterval</text>
</g>
</g>
</svg>
