<?xml version="1.0" encoding="UTF-8" standalone="no"?>
<!DOCTYPE svg PUBLIC "-//W3C//DTD SVG 1.1//EN"
 "http://www.w3.org/Graphics/SVG/1.1/DTD/svg11.dtd">
<!-- Generated by graphviz version 2.38.0 (20140413.2041)
 -->
<!-- Title: StratifiedUnitCube Pages: 1 -->
<svg width="111pt" height="219pt"
 viewBox="0.00 0.00 110.50 219.00" xmlns="http://www.w3.org/2000/svg" xmlns:xlink="http://www.w3.org/1999/xlink">
<g id="graph0" class="graph" transform="scale(1 1) rotate(0) translate(4 215)">
<title>StratifiedUnitCube</title>
<!-- Node3 -->
<g id="node1" class="node"><title>Node3</title>
<polygon fill="#bfbfbf" stroke="black" points="-7.10543e-15,-0.5 -7.10543e-15,-19.5 97,-19.5 97,-0.5 -7.10543e-15,-0.5"/>
<text text-anchor="middle" x="48.5" y="-7.5" font-family="Helvetica,sans-Serif" font-size="10.00">StratifiedUnitCube</text>
</g>
<!-- Node4 -->
<g id="node2" class="node"><title>Node4</title>
<g id="a_node2"><a xlink:href="classumontreal_1_1ssj_1_1hups_1_1CachedPointSet.html" target="_top" xlink:title="This container class caches a point set by precomputing and storing its points locally in an array...">
<polygon fill="none" stroke="black" points="4.5,-57.5 4.5,-76.5 92.5,-76.5 92.5,-57.5 4.5,-57.5"/>
<text text-anchor="middle" x="48.5" y="-64.5" font-family="Helvetica,sans-Serif" font-size="10.00">CachedPointSet</text>
</a>
</g>
</g>
<!-- Node4&#45;&gt;Node3 -->
<g id="edge1" class="edge"><title>Node4&#45;&gt;Node3</title>
<path fill="none" stroke="midnightblue" d="M48.5,-47.1166C48.5,-37.8173 48.5,-27.0557 48.5,-19.7149"/>
<polygon fill="midnightblue" stroke="midnightblue" points="45.0001,-47.4062 48.5,-57.4062 52.0001,-47.4063 45.0001,-47.4062"/>
</g>
<!-- Node5 -->
<g id="node3" class="node"><title>Node5</title>
<g id="a_node3"><a xlink:href="classumontreal_1_1ssj_1_1hups_1_1PointSet.html" target="_top" xlink:title="This abstract class defines the basic methods for accessing and manipulating point sets...">
<polygon fill="none" stroke="black" points="21.5,-124.5 21.5,-143.5 75.5,-143.5 75.5,-124.5 21.5,-124.5"/>
<text text-anchor="middle" x="48.5" y="-131.5" font-family="Helvetica,sans-Serif" font-size="10.00">PointSet</text>
</a>
</g>
</g>
<!-- Node5&#45;&gt;Node4 -->
<g id="edge2" class="edge"><title>Node5&#45;&gt;Node4</title>
<path fill="none" stroke="midnightblue" d="M46.9399,-114.382C46.7572,-111.575 46.6003,-108.713 46.5,-106 46.1288,-95.9652 46.9035,-84.4502 47.5942,-76.7505"/>
<polygon fill="midnightblue" stroke="midnightblue" points="43.4607,-114.791 47.7083,-124.497 50.4406,-114.26 43.4607,-114.791"/>
</g>
<!-- Node5&#45;&gt;Node4 -->
<g id="edge4" class="edge"><title>Node5&#45;&gt;Node4</title>
<path fill="none" stroke="#9a32cd" stroke-dasharray="5,2" d="M48.5,-114.037C48.5,-101.67 48.5,-86.1198 48.5,-76.6273"/>
<polygon fill="#9a32cd" stroke="#9a32cd" points="45.0001,-114.234 48.5,-124.234 52.0001,-114.234 45.0001,-114.234"/>
<text text-anchor="middle" x="53.5" y="-98" font-family="Helvetica,sans-Serif" font-size="10.00"> P</text>
</g>
<!-- Node6 -->
<g id="node4" class="node"><title>Node6</title>
<g id="a_node4"><a xlink:href="interfaceumontreal_1_1ssj_1_1rng_1_1RandomStream.html" target="_top" xlink:title="This interface defines the basic structures to handle multiple streams of uniform (pseudo)random numb...">
<polygon fill="none" stroke="black" points="6,-191.5 6,-210.5 91,-210.5 91,-191.5 6,-191.5"/>
<text text-anchor="middle" x="48.5" y="-198.5" font-family="Helvetica,sans-Serif" font-size="10.00">RandomStream</text>
</a>
</g>
</g>
<!-- Node6&#45;&gt;Node5 -->
<g id="edge3" class="edge"><title>Node6&#45;&gt;Node5</title>
<path fill="none" stroke="#9a32cd" stroke-dasharray="5,2" d="M48.5,-181.037C48.5,-168.67 48.5,-153.12 48.5,-143.627"/>
<polygon fill="#9a32cd" stroke="#9a32cd" points="45.0001,-181.234 48.5,-191.234 52.0001,-181.234 45.0001,-181.234"/>
<text text-anchor="middle" x="75.5" y="-165" font-family="Helvetica,sans-Serif" font-size="10.00"> shiftStream</text>
</g>
</g>
</svg>
