<?xml version="1.0" encoding="UTF-8" standalone="no"?>
<!DOCTYPE svg PUBLIC "-//W3C//DTD SVG 1.1//EN"
 "http://www.w3.org/Graphics/SVG/1.1/DTD/svg11.dtd">
<!-- Generated by graphviz version 2.26.3 (20100126.1600)
 -->
<!-- Title: LMScrambleShift Pages: 1 -->
<svg width="228pt" height="160pt"
 viewBox="0.00 0.00 228.00 160.00" xmlns="http://www.w3.org/2000/svg" xmlns:xlink="http://www.w3.org/1999/xlink">
<g id="graph1" class="graph" transform="scale(1 1) rotate(0) translate(4 156)">
<title>LMScrambleShift</title>
<!-- Node1 -->
<g id="node1" class="node"><title>Node1</title>
<polygon fill="#bfbfbf" stroke="black" points="72,-1 72,-21 164,-21 164,-1 72,-1"/>
<text text-anchor="middle" x="118" y="-8" font-family="Helvetica,sans-Serif" font-size="10.00">LMScrambleShift</text>
</g>
<!-- Node2 -->
<g id="node2" class="node"><title>Node2</title>
<a xlink:href="classumontreal_1_1ssj_1_1hups_1_1RandomShift.html" target="_top" xlink:title="This class implements a umontreal.ssj.hups.PointSetRandomization. ">
<polygon fill="none" stroke="black" points="81.5,-61 81.5,-81 154.5,-81 154.5,-61 81.5,-61"/>
<text text-anchor="middle" x="118" y="-68" font-family="Helvetica,sans-Serif" font-size="10.00">RandomShift</text>
</a>
</g>
<!-- Node2&#45;&gt;Node1 -->
<g id="edge2" class="edge"><title>Node2&#45;&gt;Node1</title>
<path fill="none" stroke="midnightblue" d="M118,-50.5155C118,-40.562 118,-29.0495 118,-21.0279"/>
<polygon fill="midnightblue" stroke="midnightblue" points="114.5,-50.8218 118,-60.8218 121.5,-50.8219 114.5,-50.8218"/>
</g>
<!-- Node3 -->
<g id="node4" class="node"><title>Node3</title>
<a xlink:href="interfaceumontreal_1_1ssj_1_1hups_1_1PointSetRandomization.html" target="_top" xlink:title="This interface is used to randomize a umontreal.ssj.hups.PointSet. ">
<polygon fill="none" stroke="black" points="-0.5,-131 -0.5,-151 118.5,-151 118.5,-131 -0.5,-131"/>
<text text-anchor="middle" x="59" y="-138" font-family="Helvetica,sans-Serif" font-size="10.00">PointSetRandomization</text>
</a>
</g>
<!-- Node3&#45;&gt;Node2 -->
<g id="edge4" class="edge"><title>Node3&#45;&gt;Node2</title>
<path fill="none" stroke="midnightblue" d="M73.901,-123.321C85.1855,-109.932 100.281,-92.0228 109.562,-81.0107"/>
<polygon fill="midnightblue" stroke="midnightblue" points="71.2218,-121.069 67.4533,-130.971 76.5742,-125.58 71.2218,-121.069"/>
</g>
<!-- Node4 -->
<g id="node6" class="node"><title>Node4</title>
<a xlink:href="interfaceumontreal_1_1ssj_1_1rng_1_1RandomStream.html" target="_top" xlink:title="This interface defines the basic structures to handle multiple streams of uniform (pseudo)random numb...">
<polygon fill="none" stroke="black" points="136,-131 136,-151 220,-151 220,-131 136,-131"/>
<text text-anchor="middle" x="178" y="-138" font-family="Helvetica,sans-Serif" font-size="10.00">RandomStream</text>
</a>
</g>
<!-- Node4&#45;&gt;Node2 -->
<g id="edge6" class="edge"><title>Node4&#45;&gt;Node2</title>
<path fill="none" stroke="#9a32cd" stroke-dasharray="5,2" d="M162.846,-123.321C151.371,-109.932 136.02,-92.0228 126.581,-81.0107"/>
<polygon fill="#9a32cd" stroke="#9a32cd" points="160.238,-125.656 169.403,-130.971 165.553,-121.1 160.238,-125.656"/>
<text text-anchor="middle" x="168" y="-103" font-family="Helvetica,sans-Serif" font-size="10.00"> stream</text>
</g>
</g>
</svg>
