<?xml version="1.0" encoding="UTF-8" standalone="no"?>
<!DOCTYPE svg PUBLIC "-//W3C//DTD SVG 1.1//EN"
 "http://www.w3.org/Graphics/SVG/1.1/DTD/svg11.dtd">
<!-- Generated by graphviz version 2.38.0 (20140413.2041)
 -->
<!-- Title: Nonuniform Pages: 1 -->
<svg width="235pt" height="231pt"
 viewBox="0.00 0.00 234.58 231.00" xmlns="http://www.w3.org/2000/svg" xmlns:xlink="http://www.w3.org/1999/xlink">
<g id="graph0" class="graph" transform="scale(1 1) rotate(0) translate(4 227)">
<title>Nonuniform</title>
<!-- Node1 -->
<g id="node1" class="node"><title>Node1</title>
<polygon fill="#bfbfbf" stroke="black" points="65.5783,-0.5 65.5783,-19.5 132.578,-19.5 132.578,-0.5 65.5783,-0.5"/>
<text text-anchor="middle" x="99.0783" y="-7.5" font-family="Helvetica,sans-Serif" font-size="10.00">Nonuniform</text>
</g>
<!-- Node2 -->
<g id="node2" class="node"><title>Node2</title>
<g id="a_node2"><a xlink:href="classumontreal_1_1ssj_1_1randvar_1_1RandomVariateGen.html" target="_top" xlink:title="This is the base class for all random variate generators over the real line. ">
<polygon fill="none" stroke="black" points="41.0783,-136.5 41.0783,-155.5 143.078,-155.5 143.078,-136.5 41.0783,-136.5"/>
<text text-anchor="middle" x="92.0783" y="-143.5" font-family="Helvetica,sans-Serif" font-size="10.00">RandomVariateGen</text>
</a>
</g>
</g>
<!-- Node2&#45;&gt;Node1 -->
<g id="edge1" class="edge"><title>Node2&#45;&gt;Node1</title>
<path fill="none" stroke="#9a32cd" stroke-dasharray="5,2" d="M58.1622,-132.617C26.9342,-119.123 -12.2588,-95.5946 4.07829,-67 18.0397,-42.5635 47.2914,-27.7261 69.67,-19.5212"/>
<polygon fill="#9a32cd" stroke="#9a32cd" points="56.9484,-135.902 67.5276,-136.477 59.6158,-129.43 56.9484,-135.902"/>
<text text-anchor="middle" x="18.5783" y="-81" font-family="Helvetica,sans-Serif" font-size="10.00"> genW</text>
<text text-anchor="middle" x="18.5783" y="-70" font-family="Helvetica,sans-Serif" font-size="10.00">genY</text>
</g>
<!-- Node5 -->
<g id="node5" class="node"><title>Node5</title>
<g id="a_node5"><a xlink:href="classumontreal_1_1ssj_1_1randvar_1_1RandomVariateGenInt.html" target="_top" xlink:title="This is the base class for all generators of discrete random variates over the set of integers...">
<polygon fill="none" stroke="black" points="42.5783,-68.5 42.5783,-87.5 155.578,-87.5 155.578,-68.5 42.5783,-68.5"/>
<text text-anchor="middle" x="99.0783" y="-75.5" font-family="Helvetica,sans-Serif" font-size="10.00">RandomVariateGenInt</text>
</a>
</g>
</g>
<!-- Node2&#45;&gt;Node5 -->
<g id="edge5" class="edge"><title>Node2&#45;&gt;Node5</title>
<path fill="none" stroke="midnightblue" d="M94.0484,-126.425C95.3876,-113.798 97.099,-97.6623 98.1406,-87.8411"/>
<polygon fill="midnightblue" stroke="midnightblue" points="90.5677,-126.058 92.9934,-136.372 97.5287,-126.797 90.5677,-126.058"/>
</g>
<!-- Node3 -->
<g id="node3" class="node"><title>Node3</title>
<g id="a_node3"><a xlink:href="interfaceumontreal_1_1ssj_1_1probdist_1_1Distribution.html" target="_top" xlink:title="This interface should be implemented by all classes supporting discrete and continuous distributions...">
<polygon fill="none" stroke="black" points="57.0783,-203.5 57.0783,-222.5 123.078,-222.5 123.078,-203.5 57.0783,-203.5"/>
<text text-anchor="middle" x="90.0783" y="-210.5" font-family="Helvetica,sans-Serif" font-size="10.00">Distribution</text>
</a>
</g>
</g>
<!-- Node3&#45;&gt;Node2 -->
<g id="edge2" class="edge"><title>Node3&#45;&gt;Node2</title>
<path fill="none" stroke="#9a32cd" stroke-dasharray="5,2" d="M90.6618,-193.037C91.0423,-180.67 91.5208,-165.12 91.8128,-155.627"/>
<polygon fill="#9a32cd" stroke="#9a32cd" points="87.1573,-193.131 90.348,-203.234 94.154,-193.346 87.1573,-193.131"/>
<text text-anchor="middle" x="101.578" y="-177" font-family="Helvetica,sans-Serif" font-size="10.00"> dist</text>
</g>
<!-- Node4 -->
<g id="node4" class="node"><title>Node4</title>
<g id="a_node4"><a xlink:href="interfaceumontreal_1_1ssj_1_1rng_1_1RandomStream.html" target="_top" xlink:title="This interface defines the basic structures to handle multiple streams of uniform (pseudo)random numb...">
<polygon fill="none" stroke="black" points="141.578,-203.5 141.578,-222.5 226.578,-222.5 226.578,-203.5 141.578,-203.5"/>
<text text-anchor="middle" x="184.078" y="-210.5" font-family="Helvetica,sans-Serif" font-size="10.00">RandomStream</text>
</a>
</g>
</g>
<!-- Node4&#45;&gt;Node1 -->
<g id="edge6" class="edge"><title>Node4&#45;&gt;Node1</title>
<path fill="none" stroke="#9a32cd" stroke-dasharray="5,2" d="M185.555,-193.195C186.973,-164.232 186.275,-107.79 164.078,-67 152.545,-45.8047 129.579,-29.0094 114.268,-19.5331"/>
<polygon fill="#9a32cd" stroke="#9a32cd" points="182.062,-192.974 184.924,-203.175 189.048,-193.416 182.062,-192.974"/>
<text text-anchor="middle" x="198.078" y="-110" font-family="Helvetica,sans-Serif" font-size="10.00"> stream</text>
</g>
<!-- Node4&#45;&gt;Node2 -->
<g id="edge3" class="edge"><title>Node4&#45;&gt;Node2</title>
<path fill="none" stroke="#9a32cd" stroke-dasharray="5,2" d="M157.887,-198.513C150.642,-194.451 142.9,-189.792 136.078,-185 123.194,-175.949 109.673,-163.818 101.077,-155.722"/>
<polygon fill="#9a32cd" stroke="#9a32cd" points="156.235,-201.598 166.692,-203.303 159.58,-195.45 156.235,-201.598"/>
<text text-anchor="middle" x="153.078" y="-177" font-family="Helvetica,sans-Serif" font-size="10.00"> stream</text>
</g>
<!-- Node5&#45;&gt;Node1 -->
<g id="edge4" class="edge"><title>Node5&#45;&gt;Node1</title>
<path fill="none" stroke="#9a32cd" stroke-dasharray="5,2" d="M99.0783,-58.0413C99.0783,-45.4724 99.0783,-29.5631 99.0783,-19.8411"/>
<polygon fill="#9a32cd" stroke="#9a32cd" points="95.5784,-58.3716 99.0783,-68.3717 102.578,-58.3717 95.5784,-58.3716"/>
<text text-anchor="middle" x="112.578" y="-41" font-family="Helvetica,sans-Serif" font-size="10.00"> genN</text>
</g>
</g>
</svg>
