<?xml version="1.0" encoding="UTF-8" standalone="no"?>
<!DOCTYPE svg PUBLIC "-//W3C//DTD SVG 1.1//EN"
 "http://www.w3.org/Graphics/SVG/1.1/DTD/svg11.dtd">
<!-- Generated by graphviz version 2.38.0 (20140413.2041)
 -->
<!-- Title: QueueEv.EndOfSim Pages: 1 -->
<svg width="319pt" height="276pt"
 viewBox="0.00 0.00 319.00 276.00" xmlns="http://www.w3.org/2000/svg" xmlns:xlink="http://www.w3.org/1999/xlink">
<g id="graph0" class="graph" transform="scale(1 1) rotate(0) translate(4 272)">
<title>QueueEv.EndOfSim</title>
<!-- Node1 -->
<g id="node1" class="node"><title>Node1</title>
<polygon fill="#bfbfbf" stroke="black" points="43.5,-0.5 43.5,-19.5 154.5,-19.5 154.5,-0.5 43.5,-0.5"/>
<text text-anchor="middle" x="99" y="-7.5" font-family="Helvetica,sans-Serif" font-size="10.00">QueueEv.EndOfSim</text>
</g>
<!-- Node2 -->
<g id="node2" class="node"><title>Node2</title>
<g id="a_node2"><a xlink:href="classumontreal_1_1ssj_1_1simevents_1_1Event.html" target="_top" xlink:title="This abstract class provides event scheduling tools. ">
<polygon fill="none" stroke="black" points="77,-57.5 77,-76.5 121,-76.5 121,-57.5 77,-57.5"/>
<text text-anchor="middle" x="99" y="-64.5" font-family="Helvetica,sans-Serif" font-size="10.00">Event</text>
</a>
</g>
</g>
<!-- Node2&#45;&gt;Node1 -->
<g id="edge1" class="edge"><title>Node2&#45;&gt;Node1</title>
<path fill="none" stroke="midnightblue" d="M99,-47.1166C99,-37.8173 99,-27.0557 99,-19.7149"/>
<polygon fill="midnightblue" stroke="midnightblue" points="95.5001,-47.4062 99,-57.4062 102.5,-47.4063 95.5001,-47.4062"/>
</g>
<!-- Node3 -->
<g id="node3" class="node"><title>Node3</title>
<polygon fill="none" stroke="#bfbfbf" points="0,-124.5 0,-143.5 126,-143.5 126,-124.5 0,-124.5"/>
<text text-anchor="middle" x="63" y="-131.5" font-family="Helvetica,sans-Serif" font-size="10.00">Comparable&lt; Event &gt;</text>
</g>
<!-- Node3&#45;&gt;Node2 -->
<g id="edge2" class="edge"><title>Node3&#45;&gt;Node2</title>
<path fill="none" stroke="midnightblue" d="M72.8787,-115.163C79.8214,-102.628 88.8035,-86.4104 94.2218,-76.6273"/>
<polygon fill="midnightblue" stroke="midnightblue" points="69.6384,-113.79 67.8551,-124.234 75.7619,-117.182 69.6384,-113.79"/>
</g>
<!-- Node4 -->
<g id="node4" class="node"><title>Node4</title>
<g id="a_node4"><a xlink:href="classumontreal_1_1ssj_1_1simevents_1_1Simulator.html" target="_top" xlink:title="Represents the executive of a discrete&#45;event simulator. ">
<polygon fill="none" stroke="black" points="144,-124.5 144,-143.5 208,-143.5 208,-124.5 144,-124.5"/>
<text text-anchor="middle" x="176" y="-131.5" font-family="Helvetica,sans-Serif" font-size="10.00">Simulator</text>
</a>
</g>
</g>
<!-- Node4&#45;&gt;Node2 -->
<g id="edge3" class="edge"><title>Node4&#45;&gt;Node2</title>
<path fill="none" stroke="#9a32cd" stroke-dasharray="5,2" d="M157.891,-117.713C142.721,-104.907 121.612,-87.0884 109.22,-76.6273"/>
<polygon fill="#9a32cd" stroke="#9a32cd" points="155.716,-120.458 165.615,-124.234 160.232,-115.109 155.716,-120.458"/>
<text text-anchor="middle" x="153" y="-98" font-family="Helvetica,sans-Serif" font-size="10.00"> sim</text>
</g>
<!-- Node4&#45;&gt;Node4 -->
<g id="edge4" class="edge"><title>Node4&#45;&gt;Node4</title>
<path fill="none" stroke="#9a32cd" stroke-dasharray="5,2" d="M218.222,-139.066C222.945,-138.111 226,-136.422 226,-134 226,-130.125 218.179,-128.127 208.22,-128.006"/>
<polygon fill="#9a32cd" stroke="#9a32cd" points="217.854,-135.585 208.22,-139.994 218.501,-142.555 217.854,-135.585"/>
<text text-anchor="middle" x="268.5" y="-131.5" font-family="Helvetica,sans-Serif" font-size="10.00"> defaultSimulator</text>
</g>
<!-- Node5 -->
<g id="node5" class="node"><title>Node5</title>
<g id="a_node5"><a xlink:href="interfaceumontreal_1_1ssj_1_1simevents_1_1eventlist_1_1EventList.html" target="_top" xlink:title="An interface for implementations of event lists. ">
<polygon fill="none" stroke="black" points="90,-191.5 90,-210.5 152,-210.5 152,-191.5 90,-191.5"/>
<text text-anchor="middle" x="121" y="-198.5" font-family="Helvetica,sans-Serif" font-size="10.00">EventList</text>
</a>
</g>
</g>
<!-- Node5&#45;&gt;Node4 -->
<g id="edge5" class="edge"><title>Node5&#45;&gt;Node4</title>
<path fill="none" stroke="#9a32cd" stroke-dasharray="5,2" d="M128.657,-181.682C131.907,-175.088 136.088,-167.842 141,-162 147.025,-154.834 155.256,-148.366 162.223,-143.558"/>
<polygon fill="#9a32cd" stroke="#9a32cd" points="125.279,-180.656 124.345,-191.21 131.657,-183.542 125.279,-180.656"/>
<text text-anchor="middle" x="165.5" y="-165" font-family="Helvetica,sans-Serif" font-size="10.00"> eventList</text>
</g>
<!-- Node6 -->
<g id="node6" class="node"><title>Node6</title>
<polygon fill="none" stroke="#bfbfbf" points="69,-248.5 69,-267.5 173,-267.5 173,-248.5 69,-248.5"/>
<text text-anchor="middle" x="121" y="-255.5" font-family="Helvetica,sans-Serif" font-size="10.00">Iterable&lt; Event &gt;</text>
</g>
<!-- Node6&#45;&gt;Node5 -->
<g id="edge6" class="edge"><title>Node6&#45;&gt;Node5</title>
<path fill="none" stroke="midnightblue" d="M121,-238.117C121,-228.817 121,-218.056 121,-210.715"/>
<polygon fill="midnightblue" stroke="midnightblue" points="117.5,-238.406 121,-248.406 124.5,-238.406 117.5,-238.406"/>
</g>
<!-- Node7 -->
<g id="node7" class="node"><title>Node7</title>
<g id="a_node7"><a xlink:href="classumontreal_1_1ssj_1_1simevents_1_1ContinuousState.html" target="_top" xlink:title="Represents the portion of the simulator’s state associated with continuous&#45;time simulation. ">
<polygon fill="none" stroke="black" points="169.5,-191.5 169.5,-210.5 266.5,-210.5 266.5,-191.5 169.5,-191.5"/>
<text text-anchor="middle" x="218" y="-198.5" font-family="Helvetica,sans-Serif" font-size="10.00">ContinuousState</text>
</a>
</g>
</g>
<!-- Node7&#45;&gt;Node4 -->
<g id="edge7" class="edge"><title>Node7&#45;&gt;Node4</title>
<path fill="none" stroke="#9a32cd" stroke-dasharray="5,2" d="M206.715,-182.535C198.583,-169.95 187.959,-153.507 181.575,-143.627"/>
<polygon fill="#9a32cd" stroke="#9a32cd" points="203.969,-184.734 212.336,-191.234 209.848,-180.935 203.969,-184.734"/>
<text text-anchor="middle" x="240" y="-165" font-family="Helvetica,sans-Serif" font-size="10.00"> continuousState</text>
</g>
</g>
</svg>
