<?xml version="1.0" encoding="UTF-8" standalone="no"?>
<!DOCTYPE svg PUBLIC "-//W3C//DTD SVG 1.1//EN"
 "http://www.w3.org/Graphics/SVG/1.1/DTD/svg11.dtd">
<!-- Generated by graphviz version 2.38.0 (20140413.2041)
 -->
<!-- Title: MultipleDatasetChart Pages: 1 -->
<svg width="300pt" height="117pt"
 viewBox="0.00 0.00 300.00 117.00" xmlns="http://www.w3.org/2000/svg" xmlns:xlink="http://www.w3.org/1999/xlink">
<g id="graph0" class="graph" transform="scale(1 1) rotate(0) translate(4 113)">
<title>MultipleDatasetChart</title>
<!-- Node1 -->
<g id="node1" class="node"><title>Node1</title>
<polygon fill="#bfbfbf" stroke="black" points="152.5,-0.5 152.5,-19.5 259.5,-19.5 259.5,-0.5 152.5,-0.5"/>
<text text-anchor="middle" x="206" y="-7.5" font-family="Helvetica,sans-Serif" font-size="10.00">MultipleDatasetChart</text>
</g>
<!-- Node2 -->
<g id="node2" class="node"><title>Node2</title>
<polygon fill="none" stroke="#bfbfbf" points="0,-78.5 0,-108.5 156,-108.5 156,-78.5 0,-78.5"/>
<text text-anchor="start" x="8" y="-96.5" font-family="Helvetica,sans-Serif" font-size="10.00">ArrayList&lt; umontreal.ssj.charts.</text>
<text text-anchor="middle" x="78" y="-85.5" font-family="Helvetica,sans-Serif" font-size="10.00">SSJXYSeriesCollection &gt;</text>
</g>
<!-- Node2&#45;&gt;Node1 -->
<g id="edge1" class="edge"><title>Node2&#45;&gt;Node1</title>
<path fill="none" stroke="#9a32cd" stroke-dasharray="5,2" d="M102.657,-71.8993C116.173,-61.1125 133.494,-48.0878 150,-38 161.42,-31.0206 174.915,-24.4678 185.796,-19.5658"/>
<polygon fill="#9a32cd" stroke="#9a32cd" points="100.345,-69.2679 94.7742,-78.2801 104.749,-74.7087 100.345,-69.2679"/>
<text text-anchor="middle" x="176" y="-46.5" font-family="Helvetica,sans-Serif" font-size="10.00"> datasetList</text>
</g>
<!-- Node3 -->
<g id="node3" class="node"><title>Node3</title>
<polygon fill="none" stroke="#bfbfbf" points="174,-84 174,-103 238,-103 238,-84 174,-84"/>
<text text-anchor="middle" x="206" y="-91" font-family="Helvetica,sans-Serif" font-size="10.00">JFreeChart</text>
</g>
<!-- Node3&#45;&gt;Node1 -->
<g id="edge2" class="edge"><title>Node3&#45;&gt;Node1</title>
<path fill="none" stroke="#9a32cd" stroke-dasharray="5,2" d="M206,-73.3762C206,-56.3977 206,-32.3673 206,-19.6592"/>
<polygon fill="#9a32cd" stroke="#9a32cd" points="202.5,-73.778 206,-83.7781 209.5,-73.7781 202.5,-73.778"/>
<text text-anchor="middle" x="218.5" y="-46.5" font-family="Helvetica,sans-Serif" font-size="10.00"> chart</text>
</g>
<!-- Node4 -->
<g id="node4" class="node"><title>Node4</title>
<g id="a_node4"><a xlink:href="classumontreal_1_1ssj_1_1charts_1_1Axis.html" target="_top" xlink:title="Represents an axis of a chart encapsulated by an instance of XYChart. ">
<polygon fill="none" stroke="black" points="256,-84 256,-103 292,-103 292,-84 256,-84"/>
<text text-anchor="middle" x="274" y="-91" font-family="Helvetica,sans-Serif" font-size="10.00">Axis</text>
</a>
</g>
</g>
<!-- Node4&#45;&gt;Node1 -->
<g id="edge3" class="edge"><title>Node4&#45;&gt;Node1</title>
<path fill="none" stroke="#9a32cd" stroke-dasharray="5,2" d="M262.979,-75.2857C255.584,-64.2173 245.338,-49.7603 235,-38 229.187,-31.3867 221.937,-24.6367 216.14,-19.54"/>
<polygon fill="#9a32cd" stroke="#9a32cd" points="260.269,-77.5364 268.673,-83.9873 266.126,-73.7032 260.269,-77.5364"/>
<text text-anchor="middle" x="266" y="-52" font-family="Helvetica,sans-Serif" font-size="10.00"> XAxis</text>
<text text-anchor="middle" x="266" y="-41" font-family="Helvetica,sans-Serif" font-size="10.00">YAxis</text>
</g>
</g>
</svg>
