<?xml version="1.0" encoding="UTF-8" standalone="no"?>
<!DOCTYPE svg PUBLIC "-//W3C//DTD SVG 1.1//EN"
 "http://www.w3.org/Graphics/SVG/1.1/DTD/svg11.dtd">
<!-- Generated by graphviz version 2.26.3 (20100126.1600)
 -->
<!-- Title: MultinormalPCAGen Pages: 1 -->
<svg width="286pt" height="312pt"
 viewBox="0.00 0.00 286.00 312.00" xmlns="http://www.w3.org/2000/svg" xmlns:xlink="http://www.w3.org/1999/xlink">
<g id="graph1" class="graph" transform="scale(1 1) rotate(0) translate(4 308)">
<title>MultinormalPCAGen</title>
<!-- Node1 -->
<g id="node1" class="node"><title>Node1</title>
<polygon fill="#bfbfbf" stroke="black" points="151.5,-1 151.5,-21 256.5,-21 256.5,-1 151.5,-1"/>
<text text-anchor="middle" x="204" y="-8" font-family="Helvetica,sans-Serif" font-size="10.00">MultinormalPCAGen</text>
</g>
<!-- Node2 -->
<g id="node2" class="node"><title>Node2</title>
<a xlink:href="classumontreal_1_1ssj_1_1randvarmulti_1_1MultinormalGen.html" target="_top" xlink:title="Extends RandomMultivariateGen for a multivariate normal (or multinormal) distribution  ...">
<polygon fill="none" stroke="black" points="161.5,-61 161.5,-81 246.5,-81 246.5,-61 161.5,-61"/>
<text text-anchor="middle" x="204" y="-68" font-family="Helvetica,sans-Serif" font-size="10.00">MultinormalGen</text>
</a>
</g>
<!-- Node2&#45;&gt;Node1 -->
<g id="edge2" class="edge"><title>Node2&#45;&gt;Node1</title>
<path fill="none" stroke="midnightblue" d="M204,-50.5155C204,-40.562 204,-29.0495 204,-21.0279"/>
<polygon fill="midnightblue" stroke="midnightblue" points="200.5,-50.8218 204,-60.8218 207.5,-50.8219 200.5,-50.8218"/>
</g>
<!-- Node3 -->
<g id="node4" class="node"><title>Node3</title>
<a xlink:href="classumontreal_1_1ssj_1_1randvarmulti_1_1RandomMultivariateGen.html" target="_top" xlink:title="This class is the multivariate counterpart of umontreal.ssj.randvar.RandomVariateGen. ">
<polygon fill="none" stroke="black" points="53.5,-143 53.5,-163 174.5,-163 174.5,-143 53.5,-143"/>
<text text-anchor="middle" x="114" y="-150" font-family="Helvetica,sans-Serif" font-size="10.00">RandomMultivariateGen</text>
</a>
</g>
<!-- Node3&#45;&gt;Node2 -->
<g id="edge4" class="edge"><title>Node3&#45;&gt;Node2</title>
<path fill="none" stroke="midnightblue" d="M132.688,-135.973C150.857,-119.419 177.847,-94.8287 192.874,-81.1371"/>
<polygon fill="midnightblue" stroke="midnightblue" points="130.071,-133.623 125.036,-142.945 134.785,-138.797 130.071,-133.623"/>
</g>
<!-- Node4 -->
<g id="node6" class="node"><title>Node4</title>
<a xlink:href="classumontreal_1_1ssj_1_1randvar_1_1RandomVariateGen.html" target="_top" xlink:title="This is the base class for all random variate generators over the real line. ">
<polygon fill="none" stroke="black" points="-0.5,-213 -0.5,-233 100.5,-233 100.5,-213 -0.5,-213"/>
<text text-anchor="middle" x="50" y="-220" font-family="Helvetica,sans-Serif" font-size="10.00">RandomVariateGen</text>
</a>
</g>
<!-- Node4&#45;&gt;Node3 -->
<g id="edge6" class="edge"><title>Node4&#45;&gt;Node3</title>
<path fill="none" stroke="#9a32cd" stroke-dasharray="5,2" d="M66.1638,-205.321C78.4047,-191.932 94.7792,-174.023 104.847,-163.011"/>
<polygon fill="#9a32cd" stroke="#9a32cd" points="63.3343,-203.229 59.1696,-212.971 68.5005,-207.952 63.3343,-203.229"/>
<text text-anchor="middle" x="98.5" y="-185" font-family="Helvetica,sans-Serif" font-size="10.00"> gen1</text>
</g>
<!-- Node5 -->
<g id="node8" class="node"><title>Node5</title>
<a xlink:href="interfaceumontreal_1_1ssj_1_1probdist_1_1Distribution.html" target="_top" xlink:title="This interface should be implemented by all classes supporting discrete and continuous distributions...">
<polygon fill="none" stroke="black" points="11.5,-283 11.5,-303 76.5,-303 76.5,-283 11.5,-283"/>
<text text-anchor="middle" x="44" y="-290" font-family="Helvetica,sans-Serif" font-size="10.00">Distribution</text>
</a>
</g>
<!-- Node5&#45;&gt;Node4 -->
<g id="edge8" class="edge"><title>Node5&#45;&gt;Node4</title>
<path fill="none" stroke="#9a32cd" stroke-dasharray="5,2" d="M44.6347,-272.707C44.9363,-266.096 45.3732,-258.728 46,-252 46.5847,-245.725 47.5414,-238.725 48.3726,-233.174"/>
<polygon fill="#9a32cd" stroke="#9a32cd" points="41.1307,-272.746 44.2451,-282.873 48.1256,-273.014 41.1307,-272.746"/>
<text text-anchor="middle" x="55.5" y="-255" font-family="Helvetica,sans-Serif" font-size="10.00"> dist</text>
</g>
<!-- Node6 -->
<g id="node10" class="node"><title>Node6</title>
<a xlink:href="interfaceumontreal_1_1ssj_1_1rng_1_1RandomStream.html" target="_top" xlink:title="This interface defines the basic structures to handle multiple streams of uniform (pseudo)random numb...">
<polygon fill="none" stroke="black" points="94,-283 94,-303 178,-303 178,-283 94,-283"/>
<text text-anchor="middle" x="136" y="-290" font-family="Helvetica,sans-Serif" font-size="10.00">RandomStream</text>
</a>
</g>
<!-- Node6&#45;&gt;Node3 -->
<g id="edge12" class="edge"><title>Node6&#45;&gt;Node3</title>
<path fill="none" stroke="#9a32cd" stroke-dasharray="5,2" d="M132.809,-272.695C128.047,-242.389 119.252,-186.424 115.627,-163.355"/>
<polygon fill="#9a32cd" stroke="#9a32cd" points="129.408,-273.596 134.418,-282.932 136.323,-272.509 129.408,-273.596"/>
<text text-anchor="middle" x="144" y="-220" font-family="Helvetica,sans-Serif" font-size="10.00"> stream</text>
</g>
<!-- Node6&#45;&gt;Node4 -->
<g id="edge10" class="edge"><title>Node6&#45;&gt;Node4</title>
<path fill="none" stroke="#9a32cd" stroke-dasharray="5,2" d="M107.634,-277.662C100.949,-273.565 94.0208,-268.903 88,-264 76.5611,-254.685 65.3094,-241.977 58.0553,-233.19"/>
<polygon fill="#9a32cd" stroke="#9a32cd" points="106.097,-280.818 116.492,-282.865 109.643,-274.782 106.097,-280.818"/>
<text text-anchor="middle" x="105" y="-255" font-family="Helvetica,sans-Serif" font-size="10.00"> stream</text>
</g>
<!-- Node7 -->
<g id="node13" class="node"><title>Node7</title>
<polygon fill="none" stroke="#bfbfbf" points="192,-143 192,-163 278,-163 278,-143 192,-143"/>
<text text-anchor="middle" x="235" y="-150" font-family="Helvetica,sans-Serif" font-size="10.00">DoubleMatrix2D</text>
</g>
<!-- Node7&#45;&gt;Node2 -->
<g id="edge14" class="edge"><title>Node7&#45;&gt;Node2</title>
<path fill="none" stroke="#9a32cd" stroke-dasharray="5,2" d="M227.523,-133.221C221.312,-116.793 212.729,-94.0886 207.832,-81.1371"/>
<polygon fill="#9a32cd" stroke="#9a32cd" points="224.389,-134.829 231.199,-142.945 230.936,-132.354 224.389,-134.829"/>
<text text-anchor="middle" x="247" y="-115" font-family="Helvetica,sans-Serif" font-size="10.00"> sqrtSigma</text>
<text text-anchor="middle" x="247" y="-103" font-family="Helvetica,sans-Serif" font-size="10.00">sigma</text>
</g>
</g>
</svg>
