<?xml version="1.0" encoding="UTF-8" standalone="no"?>
<!DOCTYPE svg PUBLIC "-//W3C//DTD SVG 1.1//EN"
 "http://www.w3.org/Graphics/SVG/1.1/DTD/svg11.dtd">
<!-- Generated by graphviz version 2.26.3 (20100126.1600)
 -->
<!-- Title: NI1 Pages: 1 -->
<svg width="120pt" height="232pt"
 viewBox="0.00 0.00 120.00 232.00" xmlns="http://www.w3.org/2000/svg" xmlns:xlink="http://www.w3.org/1999/xlink">
<g id="graph1" class="graph" transform="scale(1 1) rotate(0) translate(4 228)">
<title>NI1</title>
<!-- Node1 -->
<g id="node1" class="node"><title>Node1</title>
<polygon fill="#bfbfbf" stroke="black" points="40,-1 40,-21 72,-21 72,-1 40,-1"/>
<text text-anchor="middle" x="56" y="-8" font-family="Helvetica,sans-Serif" font-size="10.00">NI1</text>
</g>
<!-- Node2 -->
<g id="node2" class="node"><title>Node2</title>
<a xlink:href="classumontreal_1_1ssj_1_1probdistmulti_1_1norta_1_1NortaInitDisc.html" target="_top" xlink:title="This abstract class defines the algorithms used for NORTA initialization when the marginal distributi...">
<polygon fill="none" stroke="black" points="19.5,-61 19.5,-81 92.5,-81 92.5,-61 19.5,-61"/>
<text text-anchor="middle" x="56" y="-68" font-family="Helvetica,sans-Serif" font-size="10.00">NortaInitDisc</text>
</a>
</g>
<!-- Node2&#45;&gt;Node1 -->
<g id="edge2" class="edge"><title>Node2&#45;&gt;Node1</title>
<path fill="none" stroke="midnightblue" d="M56,-50.5155C56,-40.562 56,-29.0495 56,-21.0279"/>
<polygon fill="midnightblue" stroke="midnightblue" points="52.5001,-50.8218 56,-60.8218 59.5001,-50.8219 52.5001,-50.8218"/>
</g>
<!-- Node3 -->
<g id="node4" class="node"><title>Node3</title>
<a xlink:href="classumontreal_1_1ssj_1_1probdist_1_1DiscreteDistributionInt.html" target="_top" xlink:title="Classes implementing discrete distributions over the integers should inherit from this class...">
<polygon fill="none" stroke="black" points="-0.5,-143 -0.5,-163 112.5,-163 112.5,-143 -0.5,-143"/>
<text text-anchor="middle" x="56" y="-150" font-family="Helvetica,sans-Serif" font-size="10.00">DiscreteDistributionInt</text>
</a>
</g>
<!-- Node3&#45;&gt;Node2 -->
<g id="edge4" class="edge"><title>Node3&#45;&gt;Node2</title>
<path fill="none" stroke="#9a32cd" stroke-dasharray="5,2" d="M56,-132.75C56,-116.361 56,-93.9652 56,-81.1371"/>
<polygon fill="#9a32cd" stroke="#9a32cd" points="52.5001,-132.945 56,-142.945 59.5001,-132.945 52.5001,-132.945"/>
<text text-anchor="middle" x="68.5" y="-115" font-family="Helvetica,sans-Serif" font-size="10.00"> dist1</text>
<text text-anchor="middle" x="68.5" y="-103" font-family="Helvetica,sans-Serif" font-size="10.00">dist2</text>
</g>
<!-- Node4 -->
<g id="node6" class="node"><title>Node4</title>
<a xlink:href="interfaceumontreal_1_1ssj_1_1probdist_1_1Distribution.html" target="_top" xlink:title="This interface should be implemented by all classes supporting discrete and continuous distributions...">
<polygon fill="none" stroke="black" points="23.5,-203 23.5,-223 88.5,-223 88.5,-203 23.5,-203"/>
<text text-anchor="middle" x="56" y="-210" font-family="Helvetica,sans-Serif" font-size="10.00">Distribution</text>
</a>
</g>
<!-- Node4&#45;&gt;Node3 -->
<g id="edge6" class="edge"><title>Node4&#45;&gt;Node3</title>
<path fill="none" stroke="midnightblue" d="M56,-192.516C56,-182.562 56,-171.05 56,-163.028"/>
<polygon fill="midnightblue" stroke="midnightblue" points="52.5001,-192.822 56,-202.822 59.5001,-192.822 52.5001,-192.822"/>
</g>
</g>
</svg>
