<?xml version="1.0" encoding="UTF-8" standalone="no"?>
<!DOCTYPE svg PUBLIC "-//W3C//DTD SVG 1.1//EN"
 "http://www.w3.org/Graphics/SVG/1.1/DTD/svg11.dtd">
<!-- Generated by graphviz version 2.26.3 (20100126.1600)
 -->
<!-- Title: NormalInverseGaussianProcess Pages: 1 -->
<svg width="362pt" height="264pt"
 viewBox="0.00 0.00 362.00 264.00" xmlns="http://www.w3.org/2000/svg" xmlns:xlink="http://www.w3.org/1999/xlink">
<g id="graph1" class="graph" transform="scale(1 1) rotate(0) translate(4 260)">
<title>NormalInverseGaussianProcess</title>
<!-- Node1 -->
<g id="node1" class="node"><title>Node1</title>
<polygon fill="#bfbfbf" stroke="black" points="98.5,-1 98.5,-21 255.5,-21 255.5,-1 98.5,-1"/>
<text text-anchor="middle" x="177" y="-8" font-family="Helvetica,sans-Serif" font-size="10.00">NormalInverseGaussianProcess</text>
</g>
<!-- Node2 -->
<g id="node2" class="node"><title>Node2</title>
<a xlink:href="classumontreal_1_1ssj_1_1stochprocess_1_1StochasticProcess.html" target="_top" xlink:title="Abstract base class for a stochastic process &#160;sampled (or observed) at a finite number of time points...">
<polygon fill="none" stroke="black" points="-0.5,-165 -0.5,-185 98.5,-185 98.5,-165 -0.5,-165"/>
<text text-anchor="middle" x="49" y="-172" font-family="Helvetica,sans-Serif" font-size="10.00">StochasticProcess</text>
</a>
</g>
<!-- Node2&#45;&gt;Node1 -->
<g id="edge2" class="edge"><title>Node2&#45;&gt;Node1</title>
<path fill="none" stroke="midnightblue" d="M44.0164,-154.863C39.6356,-132.249 36.2721,-95.3999 53,-70 69.9808,-44.216 101.513,-29.4204 128.529,-21.0941"/>
<polygon fill="midnightblue" stroke="midnightblue" points="40.6131,-155.684 46.165,-164.708 47.4522,-154.191 40.6131,-155.684"/>
</g>
<!-- Node7 -->
<g id="node12" class="node"><title>Node7</title>
<a xlink:href="classumontreal_1_1ssj_1_1stochprocess_1_1InverseGaussianProcess.html" target="_top" xlink:title="The inverse Gaussian process is a non&#45;decreasing process where the increments are additive and are gi...">
<polygon fill="none" stroke="black" points="62,-71 62,-91 188,-91 188,-71 62,-71"/>
<text text-anchor="middle" x="125" y="-78" font-family="Helvetica,sans-Serif" font-size="10.00">InverseGaussianProcess</text>
</a>
</g>
<!-- Node2&#45;&gt;Node7 -->
<g id="edge14" class="edge"><title>Node2&#45;&gt;Node7</title>
<path fill="none" stroke="midnightblue" d="M63.4801,-157.09C79.2453,-137.591 103.912,-107.083 116.695,-91.2723"/>
<polygon fill="midnightblue" stroke="midnightblue" points="60.6989,-154.963 57.1333,-164.94 66.1423,-159.365 60.6989,-154.963"/>
</g>
<!-- Node3 -->
<g id="node4" class="node"><title>Node3</title>
<a xlink:href="classumontreal_1_1ssj_1_1randvar_1_1NormalGen.html" target="_top" xlink:title="This class implements methods for generating random variates from the normal distribution ...">
<polygon fill="none" stroke="black" points="257.5,-71 257.5,-91 322.5,-91 322.5,-71 257.5,-71"/>
<text text-anchor="middle" x="290" y="-78" font-family="Helvetica,sans-Serif" font-size="10.00">NormalGen</text>
</a>
</g>
<!-- Node3&#45;&gt;Node1 -->
<g id="edge4" class="edge"><title>Node3&#45;&gt;Node1</title>
<path fill="none" stroke="#9a32cd" stroke-dasharray="5,2" d="M267.657,-64.9579C256.514,-57.158 242.73,-47.8059 230,-40 219.091,-33.3109 206.543,-26.4111 196.395,-21.0206"/>
<polygon fill="#9a32cd" stroke="#9a32cd" points="265.769,-67.9096 275.956,-70.8213 269.808,-62.1925 265.769,-67.9096"/>
<text text-anchor="middle" x="273.5" y="-43" font-family="Helvetica,sans-Serif" font-size="10.00"> normalGen</text>
</g>
<!-- Node4 -->
<g id="node6" class="node"><title>Node4</title>
<a xlink:href="classumontreal_1_1ssj_1_1randvar_1_1RandomVariateGen.html" target="_top" xlink:title="This is the base class for all random variate generators over the real line. ">
<polygon fill="none" stroke="black" points="253.5,-165 253.5,-185 354.5,-185 354.5,-165 253.5,-165"/>
<text text-anchor="middle" x="304" y="-172" font-family="Helvetica,sans-Serif" font-size="10.00">RandomVariateGen</text>
</a>
</g>
<!-- Node4&#45;&gt;Node3 -->
<g id="edge6" class="edge"><title>Node4&#45;&gt;Node3</title>
<path fill="none" stroke="midnightblue" d="M301.014,-154.951C298.105,-135.421 293.8,-106.516 291.53,-91.2723"/>
<polygon fill="midnightblue" stroke="midnightblue" points="297.567,-155.565 302.502,-164.94 304.49,-154.534 297.567,-155.565"/>
</g>
<!-- Node5 -->
<g id="node8" class="node"><title>Node5</title>
<a xlink:href="interfaceumontreal_1_1ssj_1_1probdist_1_1Distribution.html" target="_top" xlink:title="This interface should be implemented by all classes supporting discrete and continuous distributions...">
<polygon fill="none" stroke="black" points="274.5,-235 274.5,-255 339.5,-255 339.5,-235 274.5,-235"/>
<text text-anchor="middle" x="307" y="-242" font-family="Helvetica,sans-Serif" font-size="10.00">Distribution</text>
</a>
</g>
<!-- Node5&#45;&gt;Node4 -->
<g id="edge8" class="edge"><title>Node5&#45;&gt;Node4</title>
<path fill="none" stroke="#9a32cd" stroke-dasharray="5,2" d="M306.126,-224.613C305.568,-211.597 304.87,-195.296 304.429,-185.011"/>
<polygon fill="#9a32cd" stroke="#9a32cd" points="302.645,-225.13 306.57,-234.971 309.639,-224.83 302.645,-225.13"/>
<text text-anchor="middle" x="314.5" y="-207" font-family="Helvetica,sans-Serif" font-size="10.00"> dist</text>
</g>
<!-- Node6 -->
<g id="node10" class="node"><title>Node6</title>
<a xlink:href="interfaceumontreal_1_1ssj_1_1rng_1_1RandomStream.html" target="_top" xlink:title="This interface defines the basic structures to handle multiple streams of uniform (pseudo)random numb...">
<polygon fill="none" stroke="black" points="173,-235 173,-255 257,-255 257,-235 173,-235"/>
<text text-anchor="middle" x="215" y="-242" font-family="Helvetica,sans-Serif" font-size="10.00">RandomStream</text>
</a>
</g>
<!-- Node6&#45;&gt;Node1 -->
<g id="edge18" class="edge"><title>Node6&#45;&gt;Node1</title>
<path fill="none" stroke="#9a32cd" stroke-dasharray="5,2" d="M215.34,-224.635C215.829,-179.618 215.475,-73.0268 202,-40 199.087,-32.8605 193.681,-26.2369 188.639,-21.1275"/>
<polygon fill="#9a32cd" stroke="#9a32cd" points="211.84,-224.625 215.205,-234.671 218.839,-224.719 211.84,-224.625"/>
<text text-anchor="middle" x="250.5" y="-137" font-family="Helvetica,sans-Serif" font-size="10.00"> streamBrownian</text>
<text text-anchor="middle" x="250.5" y="-125" font-family="Helvetica,sans-Serif" font-size="10.00">streamIG1</text>
<text text-anchor="middle" x="250.5" y="-113" font-family="Helvetica,sans-Serif" font-size="10.00">streamIG2</text>
</g>
<!-- Node6&#45;&gt;Node4 -->
<g id="edge10" class="edge"><title>Node6&#45;&gt;Node4</title>
<path fill="none" stroke="#9a32cd" stroke-dasharray="5,2" d="M235.911,-228.49C245.396,-221.007 256.759,-212.051 267,-204 274.956,-197.745 283.886,-190.746 290.979,-185.191"/>
<polygon fill="#9a32cd" stroke="#9a32cd" points="233.496,-225.938 227.814,-234.88 237.832,-231.433 233.496,-225.938"/>
<text text-anchor="middle" x="284" y="-207" font-family="Helvetica,sans-Serif" font-size="10.00"> stream</text>
</g>
<!-- Node6&#45;&gt;Node7 -->
<g id="edge16" class="edge"><title>Node6&#45;&gt;Node7</title>
<path fill="none" stroke="#9a32cd" stroke-dasharray="5,2" d="M198.467,-227.04C188.729,-215.827 176.662,-200.761 168,-186 148.858,-153.381 134.241,-110.628 128.13,-91.2901"/>
<polygon fill="#9a32cd" stroke="#9a32cd" points="196.103,-229.648 205.364,-234.794 201.333,-224.996 196.103,-229.648"/>
<text text-anchor="middle" x="185" y="-172" font-family="Helvetica,sans-Serif" font-size="10.00"> stream</text>
</g>
<!-- Node7&#45;&gt;Node1 -->
<g id="edge12" class="edge"><title>Node7&#45;&gt;Node1</title>
<path fill="none" stroke="#9a32cd" stroke-dasharray="5,2" d="M138.364,-62.5941C143.534,-55.5112 149.516,-47.3601 155,-40 159.682,-33.7162 164.99,-26.7159 169.219,-21.1675"/>
<polygon fill="#9a32cd" stroke="#9a32cd" points="135.406,-60.7104 132.349,-70.8546 141.065,-64.8309 135.406,-60.7104"/>
<text text-anchor="middle" x="178.5" y="-43" font-family="Helvetica,sans-Serif" font-size="10.00"> igProcess</text>
</g>
</g>
</svg>
