<?xml version="1.0" encoding="UTF-8" standalone="no"?>
<!DOCTYPE svg PUBLIC "-//W3C//DTD SVG 1.1//EN"
 "http://www.w3.org/Graphics/SVG/1.1/DTD/svg11.dtd">
<!-- Generated by graphviz version 2.26.3 (20100126.1600)
 -->
<!-- Title: GammaProcessPCABridge Pages: 1 -->
<svg width="344pt" height="440pt"
 viewBox="0.00 0.00 344.00 440.00" xmlns="http://www.w3.org/2000/svg" xmlns:xlink="http://www.w3.org/1999/xlink">
<g id="graph1" class="graph" transform="scale(1 1) rotate(0) translate(4 436)">
<title>GammaProcessPCABridge</title>
<!-- Node1 -->
<g id="node1" class="node"><title>Node1</title>
<polygon fill="#bfbfbf" stroke="black" points="37.5,-1 37.5,-21 172.5,-21 172.5,-1 37.5,-1"/>
<text text-anchor="middle" x="105" y="-8" font-family="Helvetica,sans-Serif" font-size="10.00">GammaProcessPCABridge</text>
</g>
<!-- Node2 -->
<g id="node2" class="node"><title>Node2</title>
<a xlink:href="classumontreal_1_1ssj_1_1stochprocess_1_1GammaProcessPCA.html" target="_top" xlink:title="Represents a gamma process sampled using the principal component analysis (PCA). ">
<polygon fill="none" stroke="black" points="133.5,-61 133.5,-81 240.5,-81 240.5,-61 133.5,-61"/>
<text text-anchor="middle" x="187" y="-68" font-family="Helvetica,sans-Serif" font-size="10.00">GammaProcessPCA</text>
</a>
</g>
<!-- Node2&#45;&gt;Node1 -->
<g id="edge2" class="edge"><title>Node2&#45;&gt;Node1</title>
<path fill="none" stroke="midnightblue" d="M164.98,-54.8875C150.247,-44.1072 131.318,-30.2571 118.705,-21.0279"/>
<polygon fill="midnightblue" stroke="midnightblue" points="162.953,-57.7413 173.09,-60.8218 167.086,-52.0921 162.953,-57.7413"/>
</g>
<!-- Node3 -->
<g id="node4" class="node"><title>Node3</title>
<a xlink:href="classumontreal_1_1ssj_1_1stochprocess_1_1GammaProcess.html" target="_top" xlink:title="This class represents a gamma process   (page 82) &#160;with mean parameter &#160;and variance parameter ...">
<polygon fill="none" stroke="black" points="188.5,-201 188.5,-221 275.5,-221 275.5,-201 188.5,-201"/>
<text text-anchor="middle" x="232" y="-208" font-family="Helvetica,sans-Serif" font-size="10.00">GammaProcess</text>
</a>
</g>
<!-- Node3&#45;&gt;Node2 -->
<g id="edge4" class="edge"><title>Node3&#45;&gt;Node2</title>
<path fill="none" stroke="midnightblue" d="M232.821,-190.862C232.948,-167.717 230.61,-129.174 216,-100 212.365,-92.7422 206.217,-86.1976 200.515,-81.1702"/>
<polygon fill="midnightblue" stroke="midnightblue" points="229.322,-190.805 232.603,-200.879 236.32,-190.957 229.322,-190.805"/>
</g>
<!-- Node4 -->
<g id="node6" class="node"><title>Node4</title>
<a xlink:href="classumontreal_1_1ssj_1_1stochprocess_1_1StochasticProcess.html" target="_top" xlink:title="Abstract base class for a stochastic process &#160;sampled (or observed) at a finite number of time points...">
<polygon fill="none" stroke="black" points="81.5,-271 81.5,-291 180.5,-291 180.5,-271 81.5,-271"/>
<text text-anchor="middle" x="131" y="-278" font-family="Helvetica,sans-Serif" font-size="10.00">StochasticProcess</text>
</a>
</g>
<!-- Node4&#45;&gt;Node3 -->
<g id="edge6" class="edge"><title>Node4&#45;&gt;Node3</title>
<path fill="none" stroke="midnightblue" d="M153.82,-265.184C173.366,-251.637 200.918,-232.542 217.556,-221.011"/>
<polygon fill="midnightblue" stroke="midnightblue" points="151.696,-262.398 145.471,-270.971 155.684,-268.151 151.696,-262.398"/>
</g>
<!-- Node10 -->
<g id="node19" class="node"><title>Node10</title>
<a xlink:href="classumontreal_1_1ssj_1_1stochprocess_1_1BrownianMotion.html" target="_top" xlink:title="This class represents a Brownian motion process , sampled at times . ">
<polygon fill="none" stroke="black" points="45,-201 45,-221 131,-221 131,-201 45,-201"/>
<text text-anchor="middle" x="88" y="-208" font-family="Helvetica,sans-Serif" font-size="10.00">BrownianMotion</text>
</a>
</g>
<!-- Node4&#45;&gt;Node10 -->
<g id="edge22" class="edge"><title>Node4&#45;&gt;Node10</title>
<path fill="none" stroke="midnightblue" d="M119.435,-262.173C111.296,-248.924 100.723,-231.711 94.1494,-221.011"/>
<polygon fill="midnightblue" stroke="midnightblue" points="116.623,-264.282 124.839,-270.971 122.587,-260.618 116.623,-264.282"/>
</g>
<!-- Node5 -->
<g id="node8" class="node"><title>Node5</title>
<a xlink:href="classumontreal_1_1ssj_1_1randvar_1_1GammaGen.html" target="_top" xlink:title="This class implements random variate generators for the gamma distribution. ">
<polygon fill="none" stroke="black" points="197.5,-271 197.5,-291 266.5,-291 266.5,-271 197.5,-271"/>
<text text-anchor="middle" x="232" y="-278" font-family="Helvetica,sans-Serif" font-size="10.00">GammaGen</text>
</a>
</g>
<!-- Node5&#45;&gt;Node3 -->
<g id="edge8" class="edge"><title>Node5&#45;&gt;Node3</title>
<path fill="none" stroke="#9a32cd" stroke-dasharray="5,2" d="M232,-260.613C232,-247.597 232,-231.296 232,-221.011"/>
<polygon fill="#9a32cd" stroke="#9a32cd" points="228.5,-260.971 232,-270.971 235.5,-260.971 228.5,-260.971"/>
<text text-anchor="middle" x="245.5" y="-243" font-family="Helvetica,sans-Serif" font-size="10.00"> Ggen</text>
</g>
<!-- Node6 -->
<g id="node10" class="node"><title>Node6</title>
<a xlink:href="classumontreal_1_1ssj_1_1randvar_1_1RandomVariateGen.html" target="_top" xlink:title="This is the base class for all random variate generators over the real line. ">
<polygon fill="none" stroke="black" points="158.5,-341 158.5,-361 259.5,-361 259.5,-341 158.5,-341"/>
<text text-anchor="middle" x="209" y="-348" font-family="Helvetica,sans-Serif" font-size="10.00">RandomVariateGen</text>
</a>
</g>
<!-- Node6&#45;&gt;Node5 -->
<g id="edge10" class="edge"><title>Node6&#45;&gt;Node5</title>
<path fill="none" stroke="midnightblue" d="M215.441,-331.397C219.758,-318.258 225.263,-301.503 228.711,-291.011"/>
<polygon fill="midnightblue" stroke="midnightblue" points="212.092,-330.378 212.295,-340.971 218.742,-332.563 212.092,-330.378"/>
</g>
<!-- Node11 -->
<g id="node22" class="node"><title>Node11</title>
<a xlink:href="classumontreal_1_1ssj_1_1randvar_1_1NormalGen.html" target="_top" xlink:title="This class implements methods for generating random variates from the normal distribution ...">
<polygon fill="none" stroke="black" points="-0.5,-271 -0.5,-291 64.5,-291 64.5,-271 -0.5,-271"/>
<text text-anchor="middle" x="32" y="-278" font-family="Helvetica,sans-Serif" font-size="10.00">NormalGen</text>
</a>
</g>
<!-- Node6&#45;&gt;Node11 -->
<g id="edge26" class="edge"><title>Node6&#45;&gt;Node11</title>
<path fill="none" stroke="midnightblue" d="M173.993,-337.155C139.586,-323.548 87.9158,-303.114 57.3127,-291.011"/>
<polygon fill="midnightblue" stroke="midnightblue" points="173.054,-340.548 183.64,-340.971 175.628,-334.038 173.054,-340.548"/>
</g>
<!-- Node7 -->
<g id="node12" class="node"><title>Node7</title>
<a xlink:href="interfaceumontreal_1_1ssj_1_1probdist_1_1Distribution.html" target="_top" xlink:title="This interface should be implemented by all classes supporting discrete and continuous distributions...">
<polygon fill="none" stroke="black" points="169.5,-411 169.5,-431 234.5,-431 234.5,-411 169.5,-411"/>
<text text-anchor="middle" x="202" y="-418" font-family="Helvetica,sans-Serif" font-size="10.00">Distribution</text>
</a>
</g>
<!-- Node7&#45;&gt;Node6 -->
<g id="edge12" class="edge"><title>Node7&#45;&gt;Node6</title>
<path fill="none" stroke="#9a32cd" stroke-dasharray="5,2" d="M202.5,-400.694C202.794,-394.081 203.26,-386.716 204,-380 204.694,-373.703 205.889,-366.702 206.936,-361.157"/>
<polygon fill="#9a32cd" stroke="#9a32cd" points="198.996,-400.749 202.151,-410.863 205.992,-400.989 198.996,-400.749"/>
<text text-anchor="middle" x="213.5" y="-383" font-family="Helvetica,sans-Serif" font-size="10.00"> dist</text>
</g>
<!-- Node8 -->
<g id="node14" class="node"><title>Node8</title>
<a xlink:href="interfaceumontreal_1_1ssj_1_1rng_1_1RandomStream.html" target="_top" xlink:title="This interface defines the basic structures to handle multiple streams of uniform (pseudo)random numb...">
<polygon fill="none" stroke="black" points="252,-411 252,-431 336,-431 336,-411 252,-411"/>
<text text-anchor="middle" x="294" y="-418" font-family="Helvetica,sans-Serif" font-size="10.00">RandomStream</text>
</a>
</g>
<!-- Node8&#45;&gt;Node3 -->
<g id="edge16" class="edge"><title>Node8&#45;&gt;Node3</title>
<path fill="none" stroke="#9a32cd" stroke-dasharray="5,2" d="M293.094,-400.767C291.417,-371.502 286.845,-315.846 275,-270 271.408,-256.096 271.104,-251.855 263,-240 258.176,-232.942 251.358,-226.326 245.345,-221.201"/>
<polygon fill="#9a32cd" stroke="#9a32cd" points="289.608,-401.135 293.619,-410.941 296.599,-400.774 289.608,-401.135"/>
<text text-anchor="middle" x="301" y="-313" font-family="Helvetica,sans-Serif" font-size="10.00"> stream</text>
</g>
<!-- Node8&#45;&gt;Node6 -->
<g id="edge14" class="edge"><title>Node8&#45;&gt;Node6</title>
<path fill="none" stroke="#9a32cd" stroke-dasharray="5,2" d="M265.588,-405.718C258.904,-401.62 251.988,-396.943 246,-392 234.761,-382.723 223.824,-370.008 216.793,-361.209"/>
<polygon fill="#9a32cd" stroke="#9a32cd" points="264.053,-408.876 274.45,-410.917 267.596,-402.838 264.053,-408.876"/>
<text text-anchor="middle" x="263" y="-383" font-family="Helvetica,sans-Serif" font-size="10.00"> stream</text>
</g>
<!-- Node9 -->
<g id="node17" class="node"><title>Node9</title>
<a xlink:href="classumontreal_1_1ssj_1_1stochprocess_1_1BrownianMotionPCA.html" target="_top" xlink:title="A Brownian motion process &#160;sampled using the principal component decomposition (PCA) ...">
<polygon fill="none" stroke="black" points="98,-141 98,-161 204,-161 204,-141 98,-141"/>
<text text-anchor="middle" x="151" y="-148" font-family="Helvetica,sans-Serif" font-size="10.00">BrownianMotionPCA</text>
</a>
</g>
<!-- Node9&#45;&gt;Node2 -->
<g id="edge18" class="edge"><title>Node9&#45;&gt;Node2</title>
<path fill="none" stroke="#9a32cd" stroke-dasharray="5,2" d="M159.818,-131.405C166.989,-115.469 176.815,-93.6329 182.478,-81.0498"/>
<polygon fill="#9a32cd" stroke="#9a32cd" points="156.471,-130.312 155.559,-140.868 162.855,-133.185 156.471,-130.312"/>
<text text-anchor="middle" x="192.5" y="-108" font-family="Helvetica,sans-Serif" font-size="10.00"> BMPCA</text>
</g>
<!-- Node10&#45;&gt;Node9 -->
<g id="edge20" class="edge"><title>Node10&#45;&gt;Node9</title>
<path fill="none" stroke="midnightblue" d="M106.201,-193.666C117.318,-183.078 131.142,-169.912 140.471,-161.028"/>
<polygon fill="midnightblue" stroke="midnightblue" points="103.515,-191.391 98.6871,-200.822 108.342,-196.46 103.515,-191.391"/>
</g>
<!-- Node12 -->
<g id="node25" class="node"><title>Node12</title>
<a xlink:href="classumontreal_1_1ssj_1_1stochprocess_1_1BrownianMotionBridge.html" target="_top" xlink:title=", then the observations are generated in the following order: , , , , . ">
<polygon fill="none" stroke="black" points="13.5,-101 13.5,-121 126.5,-121 126.5,-101 13.5,-101"/>
<text text-anchor="middle" x="70" y="-108" font-family="Helvetica,sans-Serif" font-size="10.00">BrownianMotionBridge</text>
</a>
</g>
<!-- Node10&#45;&gt;Node12 -->
<g id="edge30" class="edge"><title>Node10&#45;&gt;Node12</title>
<path fill="none" stroke="midnightblue" d="M84.3625,-190.792C80.5609,-169.672 74.7501,-137.389 71.8216,-121.12"/>
<polygon fill="midnightblue" stroke="midnightblue" points="80.9252,-191.453 86.1415,-200.675 87.8145,-190.213 80.9252,-191.453"/>
</g>
<!-- Node11&#45;&gt;Node10 -->
<g id="edge24" class="edge"><title>Node11&#45;&gt;Node10</title>
<path fill="none" stroke="#9a32cd" stroke-dasharray="5,2" d="M46.4474,-262.941C57.1239,-249.595 71.2649,-231.919 79.9914,-221.011"/>
<polygon fill="#9a32cd" stroke="#9a32cd" points="43.5374,-260.976 40.0234,-270.971 49.0035,-265.348 43.5374,-260.976"/>
<text text-anchor="middle" x="73.5" y="-243" font-family="Helvetica,sans-Serif" font-size="10.00"> gen</text>
</g>
<!-- Node12&#45;&gt;Node1 -->
<g id="edge28" class="edge"><title>Node12&#45;&gt;Node1</title>
<path fill="none" stroke="#9a32cd" stroke-dasharray="5,2" d="M72.0723,-90.881C73.4258,-81.3446 75.5952,-69.8997 79,-60 83.886,-45.7934 92.472,-30.7056 98.4342,-21.0859"/>
<polygon fill="#9a32cd" stroke="#9a32cd" points="68.5756,-90.6408 70.8331,-100.992 75.5237,-91.4924 68.5756,-90.6408"/>
<text text-anchor="middle" x="102" y="-68" font-family="Helvetica,sans-Serif" font-size="10.00"> BMBridge</text>
</g>
</g>
</svg>
