<?xml version="1.0" encoding="UTF-8" standalone="no"?>
<!DOCTYPE svg PUBLIC "-//W3C//DTD SVG 1.1//EN"
 "http://www.w3.org/Graphics/SVG/1.1/DTD/svg11.dtd">
<!-- Generated by graphviz version 2.38.0 (20140413.2041)
 -->
<!-- Title: QueueEv Pages: 1 -->
<!--zoomable 173 -->
<svg id="main" version="1.1" xmlns="http://www.w3.org/2000/svg" xmlns:xlink="http://www.w3.org/1999/xlink" xml:space="preserve" onload="init(evt)">
<style type="text/css"><![CDATA[
.edge:hover path { stroke: red; }
.edge:hover polygon { stroke: red; fill: red; }
]]></style>
<script type="text/javascript"><![CDATA[
var edges = document.getElementsByTagName('g');
if (edges && edges.length) {
  for (var i=0;i<edges.length;i++) {
    if (edges[i].id.substr(0,4)=='edge') {
      edges[i].setAttribute('class','edge');
    }
  }
}
]]></script>
        <defs>
                <circle id="rim" cx="0" cy="0" r="7"/>
                <circle id="rim2" cx="0" cy="0" r="3.5"/>
                <g id="zoomPlus">
                        <use xlink:href="#rim" fill="#404040">
                                <set attributeName="fill" to="#808080" begin="zoomplus.mouseover" end="zoomplus.mouseout"/>
                        </use>
                        <path d="M-4,0h8M0,-4v8" fill="none" stroke="white" stroke-width="1.5" pointer-events="none"/>
                </g>
                <g id="zoomMin">
                        <use xlink:href="#rim" fill="#404040">
                                <set attributeName="fill" to="#808080" begin="zoomminus.mouseover" end="zoomminus.mouseout"/>
                        </use>
                        <path d="M-4,0h8" fill="none" stroke="white" stroke-width="1.5" pointer-events="none"/>
                </g>
                <g id="dirArrow">
                        <path fill="none" stroke="white" stroke-width="1.5" d="M0,-3.0v7 M-2.5,-0.5L0,-3.0L2.5,-0.5"/>
                </g>
               <g id="resetDef">
                       <use xlink:href="#rim2" fill="#404040">
                               <set attributeName="fill" to="#808080" begin="reset.mouseover" end="reset.mouseout"/>
                       </use>
               </g>
        </defs>

<script type="text/javascript">
var viewWidth = 585;
var viewHeight = 173;
var sectionId = 'dynsection-0';
</script>
<script xlink:href="svgpan.js"/>
<svg id="graph" class="graph">
<g id="viewport">
<title>QueueEv</title>
<!-- Node1 -->
<g id="node1" class="node"><title>Node1</title>
<polygon fill="#bfbfbf" stroke="black" points="286,-0.5 286,-19.5 346,-19.5 346,-0.5 286,-0.5"/>
<text text-anchor="middle" x="316" y="-7.5" font-family="Helvetica,sans-Serif" font-size="10.00">QueueEv</text>
</g>
<!-- Node2 -->
<g id="node2" class="node"><title>Node2</title>
<g id="a_node2"><a xlink:href="classumontreal_1_1ssj_1_1randvar_1_1RandomVariateGen.html" target="_top" xlink:title="This is the base class for all random variate generators over the real line. ">
<polygon fill="none" stroke="black" points="40,-78.5 40,-97.5 152,-97.5 152,-78.5 40,-78.5"/>
<text text-anchor="middle" x="96" y="-85.5" font-family="Helvetica,sans-Serif" font-size="10.00">RandomVariateGen</text>
</a>
</g>
</g>
<!-- Node2&#45;&gt;Node1 -->
<g id="edge1" class="edge"><title>Node2&#45;&gt;Node1</title>
<path fill="none" stroke="#9a32cd" stroke-dasharray="5,2" d="M121.815,-73.7674C143.564,-63.0179 175.729,-48.0439 205,-38 231.826,-28.7954 263.317,-21.4493 285.891,-16.7575"/>
<polygon fill="#9a32cd" stroke="#9a32cd" points="119.98,-70.7718 112.603,-78.3762 123.112,-77.0321 119.98,-70.7718"/>
<text text-anchor="middle" x="225" y="-52" font-family="Helvetica,sans-Serif" font-size="10.00"> genArr</text>
<text text-anchor="middle" x="225" y="-41" font-family="Helvetica,sans-Serif" font-size="10.00">genServ</text>
</g>
<!-- Node3 -->
<g id="node3" class="node"><title>Node3</title>
<g id="a_node3"><a xlink:href="interfaceumontreal_1_1ssj_1_1probdist_1_1Distribution.html" target="_top" xlink:title="This interface should be implemented by all classes supporting discrete and continuous distributions...">
<polygon fill="none" stroke="black" points="110,-145.5 110,-164.5 184,-164.5 184,-145.5 110,-145.5"/>
<text text-anchor="middle" x="147" y="-152.5" font-family="Helvetica,sans-Serif" font-size="10.00">Distribution</text>
</a>
</g>
</g>
<!-- Node3&#45;&gt;Node2 -->
<g id="edge2" class="edge"><title>Node3&#45;&gt;Node2</title>
<path fill="none" stroke="#9a32cd" stroke-dasharray="5,2" d="M133.874,-137.27C123.93,-124.597 110.673,-107.701 102.769,-97.6273"/>
<polygon fill="#9a32cd" stroke="#9a32cd" points="131.195,-139.527 140.122,-145.234 136.703,-135.206 131.195,-139.527"/>
<text text-anchor="middle" x="136" y="-119" font-family="Helvetica,sans-Serif" font-size="10.00"> dist</text>
</g>
<!-- Node4 -->
<g id="node4" class="node"><title>Node4</title>
<g id="a_node4"><a xlink:href="interfaceumontreal_1_1ssj_1_1rng_1_1RandomStream.html" target="_top" xlink:title="This interface defines the basic structures to handle multiple streams of uniform (pseudo)random numb...">
<polygon fill="none" stroke="black" points="0,-145.5 0,-164.5 92,-164.5 92,-145.5 0,-145.5"/>
<text text-anchor="middle" x="46" y="-152.5" font-family="Helvetica,sans-Serif" font-size="10.00">RandomStream</text>
</a>
</g>
</g>
<!-- Node4&#45;&gt;Node2 -->
<g id="edge3" class="edge"><title>Node4&#45;&gt;Node2</title>
<path fill="none" stroke="#9a32cd" stroke-dasharray="5,2" d="M58.8689,-137.27C68.6175,-124.597 81.6147,-107.701 89.3636,-97.6273"/>
<polygon fill="#9a32cd" stroke="#9a32cd" points="56.0662,-135.174 52.7432,-145.234 61.6146,-139.442 56.0662,-135.174"/>
<text text-anchor="middle" x="93" y="-119" font-family="Helvetica,sans-Serif" font-size="10.00"> stream</text>
</g>
<!-- Node5 -->
<g id="node5" class="node"><title>Node5</title>
<g id="a_node5"><a xlink:href="classumontreal_1_1ssj_1_1stat_1_1Tally.html" target="_top" xlink:title="A subclass of StatProbe. ">
<polygon fill="none" stroke="black" points="462.5,-78.5 462.5,-97.5 503.5,-97.5 503.5,-78.5 462.5,-78.5"/>
<text text-anchor="middle" x="483" y="-85.5" font-family="Helvetica,sans-Serif" font-size="10.00">Tally</text>
</a>
</g>
</g>
<!-- Node5&#45;&gt;Node1 -->
<g id="edge4" class="edge"><title>Node5&#45;&gt;Node1</title>
<path fill="none" stroke="#9a32cd" stroke-dasharray="5,2" d="M458.015,-73.7212C438.387,-63.4824 410.244,-49.2226 385,-38 370.072,-31.3636 352.974,-24.6668 339.533,-19.6028"/>
<polygon fill="#9a32cd" stroke="#9a32cd" points="456.435,-76.8448 466.916,-78.3936 459.688,-70.6468 456.435,-76.8448"/>
<text text-anchor="middle" x="458" y="-46.5" font-family="Helvetica,sans-Serif" font-size="10.00"> custWaits</text>
</g>
<!-- Node6 -->
<g id="node6" class="node"><title>Node6</title>
<g id="a_node6"><a xlink:href="classumontreal_1_1ssj_1_1stat_1_1StatProbe.html" target="_top" xlink:title="The objects of this class are statistical probes or collectors, which are elementary devices for coll...">
<polygon fill="none" stroke="black" points="348,-145.5 348,-164.5 412,-164.5 412,-145.5 348,-145.5"/>
<text text-anchor="middle" x="380" y="-152.5" font-family="Helvetica,sans-Serif" font-size="10.00">StatProbe</text>
</a>
</g>
</g>
<!-- Node6&#45;&gt;Node5 -->
<g id="edge5" class="edge"><title>Node6&#45;&gt;Node5</title>
<path fill="none" stroke="midnightblue" d="M402.551,-139.769C422.939,-126.903 452.292,-108.379 469.329,-97.6273"/>
<polygon fill="midnightblue" stroke="midnightblue" points="400.48,-136.937 393.891,-145.234 404.216,-142.857 400.48,-136.937"/>
</g>
<!-- Node10 -->
<g id="node10" class="node"><title>Node10</title>
<g id="a_node10"><a xlink:href="classumontreal_1_1ssj_1_1simevents_1_1Accumulate.html" target="_top" xlink:title="A subclass of umontreal.ssj.stat.StatProbe, for collecting statistics on a variable that evolves in s...">
<polygon fill="none" stroke="black" points="170,-78.5 170,-97.5 244,-97.5 244,-78.5 170,-78.5"/>
<text text-anchor="middle" x="207" y="-85.5" font-family="Helvetica,sans-Serif" font-size="10.00">Accumulate</text>
</a>
</g>
</g>
<!-- Node6&#45;&gt;Node10 -->
<g id="edge10" class="edge"><title>Node6&#45;&gt;Node10</title>
<path fill="none" stroke="midnightblue" d="M347.451,-141.771C313.115,-128.87 259.9,-108.876 229.793,-97.5637"/>
<polygon fill="midnightblue" stroke="midnightblue" points="346.435,-145.128 357.027,-145.369 348.897,-138.575 346.435,-145.128"/>
</g>
<!-- Node7 -->
<g id="node7" class="node"><title>Node7</title>
<polygon fill="none" stroke="#bfbfbf" points="235.5,-145.5 235.5,-164.5 300.5,-164.5 300.5,-145.5 235.5,-145.5"/>
<text text-anchor="middle" x="268" y="-152.5" font-family="Helvetica,sans-Serif" font-size="10.00">Cloneable</text>
</g>
<!-- Node7&#45;&gt;Node5 -->
<g id="edge6" class="edge"><title>Node7&#45;&gt;Node5</title>
<path fill="none" stroke="midnightblue" d="M306.38,-142.397C352.016,-128.6 426.506,-106.079 462.393,-95.2299"/>
<polygon fill="midnightblue" stroke="midnightblue" points="305.11,-139.124 296.55,-145.369 307.135,-145.825 305.11,-139.124"/>
</g>
<!-- Node7&#45;&gt;Node10 -->
<g id="edge11" class="edge"><title>Node7&#45;&gt;Node10</title>
<path fill="none" stroke="midnightblue" d="M252.642,-137.635C240.712,-124.923 224.641,-107.798 215.096,-97.6273"/>
<polygon fill="midnightblue" stroke="midnightblue" points="250.378,-140.337 259.773,-145.234 255.482,-135.547 250.378,-140.337"/>
</g>
<!-- Node8 -->
<g id="node8" class="node"><title>Node8</title>
<polygon fill="none" stroke="#bfbfbf" points="444.5,-145.5 444.5,-164.5 521.5,-164.5 521.5,-145.5 444.5,-145.5"/>
<text text-anchor="middle" x="483" y="-152.5" font-family="Helvetica,sans-Serif" font-size="10.00">Tally.CIType</text>
</g>
<!-- Node8&#45;&gt;Node5 -->
<g id="edge7" class="edge"><title>Node8&#45;&gt;Node5</title>
<path fill="none" stroke="#9a32cd" stroke-dasharray="5,2" d="M483,-135.037C483,-122.67 483,-107.12 483,-97.6273"/>
<polygon fill="#9a32cd" stroke="#9a32cd" points="479.5,-135.234 483,-145.234 486.5,-135.234 479.5,-135.234"/>
<text text-anchor="middle" x="530" y="-119" font-family="Helvetica,sans-Serif" font-size="10.00"> confidenceInterval</text>
</g>
<!-- Node9 -->
<g id="node9" class="node"><title>Node9</title>
<polygon fill="none" stroke="#bfbfbf" points="262,-78.5 262,-97.5 444,-97.5 444,-78.5 262,-78.5"/>
<text text-anchor="middle" x="353" y="-85.5" font-family="Helvetica,sans-Serif" font-size="10.00">LinkedList&lt; QueueEv.Customer &gt;</text>
</g>
<!-- Node9&#45;&gt;Node1 -->
<g id="edge8" class="edge"><title>Node9&#45;&gt;Node1</title>
<path fill="none" stroke="#9a32cd" stroke-dasharray="5,2" d="M344.296,-69.1216C336.705,-53.5297 326.022,-31.5862 320.195,-19.6165"/>
<polygon fill="#9a32cd" stroke="#9a32cd" points="341.231,-70.8228 348.756,-78.2818 347.525,-67.7587 341.231,-70.8228"/>
<text text-anchor="middle" x="360" y="-52" font-family="Helvetica,sans-Serif" font-size="10.00"> waitList</text>
<text text-anchor="middle" x="360" y="-41" font-family="Helvetica,sans-Serif" font-size="10.00">servList</text>
</g>
<!-- Node10&#45;&gt;Node1 -->
<g id="edge9" class="edge"><title>Node10&#45;&gt;Node1</title>
<path fill="none" stroke="#9a32cd" stroke-dasharray="5,2" d="M227.997,-72.3596C250.434,-56.7154 285.249,-32.4411 303.642,-19.6165"/>
<polygon fill="#9a32cd" stroke="#9a32cd" points="225.705,-69.6913 219.504,-78.2818 229.708,-75.4334 225.705,-69.6913"/>
<text text-anchor="middle" x="295" y="-46.5" font-family="Helvetica,sans-Serif" font-size="10.00"> totWait</text>
</g>
</g>
</svg>
        <g id="navigator" transform="translate(0 0)" fill="#404254">
                <rect fill="#f2f5e9" fill-opacity="0.5" stroke="#606060" stroke-width=".5" x="0" y="0" width="60" height="60"/>
                <use id="zoomplus" xlink:href="#zoomPlus" x="17" y="9" onmousedown="handleZoom(evt,'in')"/>
                <use id="zoomminus" xlink:href="#zoomMin" x="42" y="9" onmousedown="handleZoom(evt,'out')"/>
                <use id="reset" xlink:href="#resetDef" x="30" y="36" onmousedown="handleReset()"/>
                <g id="arrowUp" xlink:href="#dirArrow" transform="translate(30 24)" onmousedown="handlePan(0,-1)">
                  <use xlink:href="#rim" fill="#404040">
                        <set attributeName="fill" to="#808080" begin="arrowUp.mouseover" end="arrowUp.mouseout"/>
                  </use>
                  <path fill="none" stroke="white" stroke-width="1.5" d="M0,-3.0v7 M-2.5,-0.5L0,-3.0L2.5,-0.5"/>
                </g>
                <g id="arrowRight" xlink:href="#dirArrow" transform="rotate(90) translate(36 -43)" onmousedown="handlePan(1,0)">
                  <use xlink:href="#rim" fill="#404040">
                        <set attributeName="fill" to="#808080" begin="arrowRight.mouseover" end="arrowRight.mouseout"/>
                  </use>
                  <path fill="none" stroke="white" stroke-width="1.5" d="M0,-3.0v7 M-2.5,-0.5L0,-3.0L2.5,-0.5"/>
                </g>
                <g id="arrowDown" xlink:href="#dirArrow" transform="rotate(180) translate(-30 -48)" onmousedown="handlePan(0,1)">
                  <use xlink:href="#rim" fill="#404040">
                        <set attributeName="fill" to="#808080" begin="arrowDown.mouseover" end="arrowDown.mouseout"/>
                  </use>
                  <path fill="none" stroke="white" stroke-width="1.5" d="M0,-3.0v7 M-2.5,-0.5L0,-3.0L2.5,-0.5"/>
                </g>
                <g id="arrowLeft" xlink:href="#dirArrow" transform="rotate(270) translate(-36 17)" onmousedown="handlePan(-1,0)">
                  <use xlink:href="#rim" fill="#404040">
                        <set attributeName="fill" to="#808080" begin="arrowLeft.mouseover" end="arrowLeft.mouseout"/>
                  </use>
                  <path fill="none" stroke="white" stroke-width="1.5" d="M0,-3.0v7 M-2.5,-0.5L0,-3.0L2.5,-0.5"/>
                </g>
        </g>
        <svg viewBox="0 0 15 15" width="100%" height="30px" preserveAspectRatio="xMaxYMin meet">
         <g id="arrow_out" transform="scale(0.3 0.3)">
          <a xlink:href="classQueueEv__coll__graph_org.svg" target="_base">
           <rect id="button" ry="5" rx="5" y="6" x="6" height="38" width="38"
                fill="#f2f5e9" fill-opacity="0.5" stroke="#606060" stroke-width="1.0"/>
           <path id="arrow"
             d="M 11.500037,31.436501 C 11.940474,20.09759 22.043105,11.32322 32.158766,21.979434 L 37.068811,17.246167 C 37.068811,17.246167 37.088388,32 37.088388,32 L 22.160133,31.978069 C 22.160133,31.978069 26.997745,27.140456 26.997745,27.140456 C 18.528582,18.264221 13.291696,25.230495 11.500037,31.436501 z"
             style="fill:#404040;"/>
          </a>
         </g>
        </svg>
</svg>
