<?xml version="1.0" encoding="UTF-8" standalone="no"?>
<!DOCTYPE svg PUBLIC "-//W3C//DTD SVG 1.1//EN"
 "http://www.w3.org/Graphics/SVG/1.1/DTD/svg11.dtd">
<!-- Generated by graphviz version 2.38.0 (20140413.2041)
 -->
<!-- Title: EmpiricalRenderer Pages: 1 -->
<svg width="431pt" height="84pt"
 viewBox="0.00 0.00 431.00 84.00" xmlns="http://www.w3.org/2000/svg" xmlns:xlink="http://www.w3.org/1999/xlink">
<g id="graph0" class="graph" transform="scale(1 1) rotate(0) translate(4 80)">
<title>EmpiricalRenderer</title>
<!-- Node1 -->
<g id="node1" class="node"><title>Node1</title>
<polygon fill="#bfbfbf" stroke="black" points="193,-0.5 193,-19.5 290,-19.5 290,-0.5 193,-0.5"/>
<text text-anchor="middle" x="241.5" y="-7.5" font-family="Helvetica,sans-Serif" font-size="10.00">EmpiricalRenderer</text>
</g>
<!-- Node2 -->
<g id="node2" class="node"><title>Node2</title>
<polygon fill="none" stroke="#bfbfbf" points="0,-56.5 0,-75.5 133,-75.5 133,-56.5 0,-56.5"/>
<text text-anchor="middle" x="66.5" y="-63.5" font-family="Helvetica,sans-Serif" font-size="10.00">XYLineAndShapeRenderer</text>
</g>
<!-- Node2&#45;&gt;Node1 -->
<g id="edge1" class="edge"><title>Node2&#45;&gt;Node1</title>
<path fill="none" stroke="midnightblue" d="M103.975,-53.4363C136.97,-43.2551 184.256,-28.664 213.9,-19.5164"/>
<polygon fill="midnightblue" stroke="midnightblue" points="102.753,-50.1505 94.2293,-56.4435 104.817,-56.8393 102.753,-50.1505"/>
</g>
<!-- Node3 -->
<g id="node3" class="node"><title>Node3</title>
<polygon fill="none" stroke="#bfbfbf" points="151,-56.5 151,-75.5 240,-75.5 240,-56.5 151,-56.5"/>
<text text-anchor="middle" x="195.5" y="-63.5" font-family="Helvetica,sans-Serif" font-size="10.00">XYItemRenderer</text>
</g>
<!-- Node3&#45;&gt;Node1 -->
<g id="edge2" class="edge"><title>Node3&#45;&gt;Node1</title>
<path fill="none" stroke="midnightblue" d="M209.614,-48.4314C217.676,-38.9673 227.459,-27.4827 234.045,-19.7511"/>
<polygon fill="midnightblue" stroke="midnightblue" points="206.916,-46.2009 203.096,-56.083 212.245,-50.7402 206.916,-46.2009"/>
</g>
<!-- Node4 -->
<g id="node4" class="node"><title>Node4</title>
<polygon fill="none" stroke="#bfbfbf" points="257.5,-56.5 257.5,-75.5 317.5,-75.5 317.5,-56.5 257.5,-56.5"/>
<text text-anchor="middle" x="287.5" y="-63.5" font-family="Helvetica,sans-Serif" font-size="10.00">Cloneable</text>
</g>
<!-- Node4&#45;&gt;Node1 -->
<g id="edge3" class="edge"><title>Node4&#45;&gt;Node1</title>
<path fill="none" stroke="midnightblue" d="M273.386,-48.4314C265.324,-38.9673 255.541,-27.4827 248.955,-19.7511"/>
<polygon fill="midnightblue" stroke="midnightblue" points="270.755,-50.7402 279.904,-56.083 276.084,-46.2009 270.755,-50.7402"/>
</g>
<!-- Node5 -->
<g id="node5" class="node"><title>Node5</title>
<polygon fill="none" stroke="#bfbfbf" points="336,-56.5 336,-75.5 423,-75.5 423,-56.5 336,-56.5"/>
<text text-anchor="middle" x="379.5" y="-63.5" font-family="Helvetica,sans-Serif" font-size="10.00">PublicCloneable</text>
</g>
<!-- Node5&#45;&gt;Node1 -->
<g id="edge4" class="edge"><title>Node5&#45;&gt;Node1</title>
<path fill="none" stroke="midnightblue" d="M348.251,-52.772C322.329,-42.6287 286.138,-28.4669 263.264,-19.5164"/>
<polygon fill="midnightblue" stroke="midnightblue" points="347.046,-56.0588 357.633,-56.4435 349.596,-49.5401 347.046,-56.0588"/>
</g>
</g>
</svg>
