<?xml version="1.0" encoding="UTF-8" standalone="no"?>
<!DOCTYPE svg PUBLIC "-//W3C//DTD SVG 1.1//EN"
 "http://www.w3.org/Graphics/SVG/1.1/DTD/svg11.dtd">
<!-- Generated by graphviz version 2.26.3 (20100126.1600)
 -->
<!-- Title: GammaDist Pages: 1 -->
<svg width="218pt" height="204pt"
 viewBox="0.00 0.00 218.00 204.00" xmlns="http://www.w3.org/2000/svg" xmlns:xlink="http://www.w3.org/1999/xlink">
<g id="graph1" class="graph" transform="scale(1 1) rotate(0) translate(4 200)">
<title>GammaDist</title>
<!-- Node1 -->
<g id="node1" class="node"><title>Node1</title>
<polygon fill="#bfbfbf" stroke="black" points="54,-59 54,-79 122,-79 122,-59 54,-59"/>
<text text-anchor="middle" x="88" y="-66" font-family="Helvetica,sans-Serif" font-size="10.00">GammaDist</text>
</g>
<!-- Node4 -->
<g id="node7" class="node"><title>Node4</title>
<a xlink:href="classumontreal_1_1ssj_1_1probdist_1_1ErlangDist.html" target="_top" xlink:title="Extends the class GammaDist for the special case of the Erlang distribution with shape parameter &#160;and...">
<polygon fill="none" stroke="black" points="0,-1 0,-21 62,-21 62,-1 0,-1"/>
<text text-anchor="middle" x="31" y="-8" font-family="Helvetica,sans-Serif" font-size="10.00">ErlangDist</text>
</a>
</g>
<!-- Node1&#45;&gt;Node4 -->
<g id="edge6" class="edge"><title>Node1&#45;&gt;Node4</title>
<path fill="none" stroke="midnightblue" d="M70.8688,-51.5682C61.1951,-41.7249 49.4314,-29.7548 41.1987,-21.3776"/>
<polygon fill="midnightblue" stroke="midnightblue" points="68.5657,-54.2181 78.0714,-58.8972 73.5583,-49.3116 68.5657,-54.2181"/>
</g>
<!-- Node5 -->
<g id="node9" class="node"><title>Node5</title>
<a xlink:href="classumontreal_1_1ssj_1_1probdist_1_1GammaDistFromMoments.html" target="_top" xlink:title="Extends the GammaDist distribution with constructors accepting the mean &#160;and variance &#160;as arguments i...">
<polygon fill="none" stroke="black" points="79.5,-1 79.5,-21 210.5,-21 210.5,-1 79.5,-1"/>
<text text-anchor="middle" x="145" y="-8" font-family="Helvetica,sans-Serif" font-size="10.00">GammaDistFromMoments</text>
</a>
</g>
<!-- Node1&#45;&gt;Node5 -->
<g id="edge8" class="edge"><title>Node1&#45;&gt;Node5</title>
<path fill="none" stroke="midnightblue" d="M105.131,-51.5682C114.805,-41.7249 126.569,-29.7548 134.801,-21.3776"/>
<polygon fill="midnightblue" stroke="midnightblue" points="102.442,-49.3116 97.9286,-58.8972 107.434,-54.2181 102.442,-49.3116"/>
</g>
<!-- Node2 -->
<g id="node2" class="node"><title>Node2</title>
<a xlink:href="classumontreal_1_1ssj_1_1probdist_1_1ContinuousDistribution.html" target="_top" xlink:title="Classes implementing continuous distributions should inherit from this base class. ">
<polygon fill="none" stroke="black" points="31,-117 31,-137 145,-137 145,-117 31,-117"/>
<text text-anchor="middle" x="88" y="-124" font-family="Helvetica,sans-Serif" font-size="10.00">ContinuousDistribution</text>
</a>
</g>
<!-- Node2&#45;&gt;Node1 -->
<g id="edge2" class="edge"><title>Node2&#45;&gt;Node1</title>
<path fill="none" stroke="midnightblue" d="M88,-106.89C88,-97.6201 88,-87.0083 88,-79.3776"/>
<polygon fill="midnightblue" stroke="midnightblue" points="84.5001,-106.897 88,-116.897 91.5001,-106.897 84.5001,-106.897"/>
</g>
<!-- Node3 -->
<g id="node4" class="node"><title>Node3</title>
<a xlink:href="interfaceumontreal_1_1ssj_1_1probdist_1_1Distribution.html" target="_top" xlink:title="This interface should be implemented by all classes supporting discrete and continuous distributions...">
<polygon fill="none" stroke="black" points="55.5,-175 55.5,-195 120.5,-195 120.5,-175 55.5,-175"/>
<text text-anchor="middle" x="88" y="-182" font-family="Helvetica,sans-Serif" font-size="10.00">Distribution</text>
</a>
</g>
<!-- Node3&#45;&gt;Node2 -->
<g id="edge4" class="edge"><title>Node3&#45;&gt;Node2</title>
<path fill="none" stroke="midnightblue" d="M88,-164.89C88,-155.62 88,-145.008 88,-137.378"/>
<polygon fill="midnightblue" stroke="midnightblue" points="84.5001,-164.897 88,-174.897 91.5001,-164.897 84.5001,-164.897"/>
</g>
</g>
</svg>
