<?xml version="1.0" encoding="UTF-8" standalone="no"?>
<!DOCTYPE svg PUBLIC "-//W3C//DTD SVG 1.1//EN"
 "http://www.w3.org/Graphics/SVG/1.1/DTD/svg11.dtd">
<!-- Generated by graphviz version 2.38.0 (20140413.2041)
 -->
<!-- Title: ListOfStatProbes&lt; E extends StatProbe &gt; Pages: 1 -->
<svg width="263pt" height="95pt"
 viewBox="0.00 0.00 263.00 95.00" xmlns="http://www.w3.org/2000/svg" xmlns:xlink="http://www.w3.org/1999/xlink">
<g id="graph0" class="graph" transform="scale(1 1) rotate(0) translate(4 91)">
<title>ListOfStatProbes&lt; E extends StatProbe &gt;</title>
<!-- Node1 -->
<g id="node1" class="node"><title>Node1</title>
<polygon fill="#bfbfbf" stroke="black" points="54.5,-0.5 54.5,-30.5 174.5,-30.5 174.5,-0.5 54.5,-0.5"/>
<text text-anchor="start" x="62.5" y="-18.5" font-family="Helvetica,sans-Serif" font-size="10.00">ListOfStatProbes&lt; E</text>
<text text-anchor="middle" x="114.5" y="-7.5" font-family="Helvetica,sans-Serif" font-size="10.00"> extends StatProbe &gt;</text>
</g>
<!-- Node2 -->
<g id="node2" class="node"><title>Node2</title>
<polygon fill="none" stroke="#bfbfbf" points="0,-67.5 0,-86.5 65,-86.5 65,-67.5 0,-67.5"/>
<text text-anchor="middle" x="32.5" y="-74.5" font-family="Helvetica,sans-Serif" font-size="10.00">Cloneable</text>
</g>
<!-- Node2&#45;&gt;Node1 -->
<g id="edge1" class="edge"><title>Node2&#45;&gt;Node1</title>
<path fill="none" stroke="midnightblue" d="M52.5273,-61.468C65.5103,-52.0474 82.3329,-39.8408 95.1742,-30.523"/>
<polygon fill="midnightblue" stroke="midnightblue" points="50.2868,-58.7693 44.2486,-67.4751 54.3979,-64.435 50.2868,-58.7693"/>
</g>
<!-- Node3 -->
<g id="node3" class="node"><title>Node3</title>
<polygon fill="none" stroke="#bfbfbf" points="83.5,-67.5 83.5,-86.5 145.5,-86.5 145.5,-67.5 83.5,-67.5"/>
<text text-anchor="middle" x="114.5" y="-74.5" font-family="Helvetica,sans-Serif" font-size="10.00">List&lt; E &gt;</text>
</g>
<!-- Node3&#45;&gt;Node1 -->
<g id="edge2" class="edge"><title>Node3&#45;&gt;Node1</title>
<path fill="none" stroke="midnightblue" d="M114.5,-57.2349C114.5,-48.5864 114.5,-38.4969 114.5,-30.523"/>
<polygon fill="midnightblue" stroke="midnightblue" points="111,-57.4751 114.5,-67.4751 118,-57.4751 111,-57.4751"/>
</g>
<!-- Node4 -->
<g id="node4" class="node"><title>Node4</title>
<polygon fill="none" stroke="#bfbfbf" points="164,-67.5 164,-86.5 255,-86.5 255,-67.5 164,-67.5"/>
<text text-anchor="middle" x="209.5" y="-74.5" font-family="Helvetica,sans-Serif" font-size="10.00">RandomAccess</text>
</g>
<!-- Node4&#45;&gt;Node1 -->
<g id="edge3" class="edge"><title>Node4&#45;&gt;Node1</title>
<path fill="none" stroke="midnightblue" d="M187.16,-62.0084C172.008,-52.518 152.053,-40.02 136.89,-30.523"/>
<polygon fill="midnightblue" stroke="midnightblue" points="185.556,-65.1333 195.889,-67.4751 189.272,-59.2008 185.556,-65.1333"/>
</g>
</g>
</svg>
