<?xml version="1.0" encoding="UTF-8" standalone="no"?>
<!DOCTYPE svg PUBLIC "-//W3C//DTD SVG 1.1//EN"
 "http://www.w3.org/Graphics/SVG/1.1/DTD/svg11.dtd">
<!-- Generated by graphviz version 2.38.0 (20140413.2041)
 -->
<!-- Title: Search Pages: 1 -->
<svg width="246pt" height="140pt"
 viewBox="0.00 0.00 246.00 140.00" xmlns="http://www.w3.org/2000/svg" xmlns:xlink="http://www.w3.org/1999/xlink">
<g id="graph0" class="graph" transform="scale(1 1) rotate(0) translate(4 136)">
<title>Search</title>
<!-- Node0 -->
<g id="node1" class="node"><title>Node0</title>
<polygon fill="#bfbfbf" stroke="black" points="98,-112.5 98,-131.5 145,-131.5 145,-112.5 98,-112.5"/>
<text text-anchor="middle" x="121.5" y="-119.5" font-family="Helvetica,sans-Serif" font-size="10.00">Search</text>
</g>
<!-- Node1 -->
<g id="node2" class="node"><title>Node1</title>
<g id="a_node2"><a xlink:href="classumontreal_1_1ssj_1_1latnetbuilder_1_1DigitalNetSearch.html" target="_top" xlink:title="Class for the search of good digital nets using LatNet Builder. ">
<polygon fill="none" stroke="black" points="18,-56.5 18,-75.5 107,-75.5 107,-56.5 18,-56.5"/>
<text text-anchor="middle" x="62.5" y="-63.5" font-family="Helvetica,sans-Serif" font-size="10.00">DigitalNetSearch</text>
</a>
</g>
</g>
<!-- Node0&#45;&gt;Node1 -->
<g id="edge1" class="edge"><title>Node0&#45;&gt;Node1</title>
<path fill="none" stroke="midnightblue" d="M104.605,-105.537C94.0855,-95.9087 80.9313,-83.8694 72.1519,-75.8339"/>
<polygon fill="midnightblue" stroke="midnightblue" points="102.281,-108.154 112.021,-112.324 107.007,-102.99 102.281,-108.154"/>
</g>
<!-- Node3 -->
<g id="node4" class="node"><title>Node3</title>
<g id="a_node4"><a xlink:href="classumontreal_1_1ssj_1_1latnetbuilder_1_1OrdinaryLatticeSearch.html" target="_top" xlink:title="Class for the search of good rank&#45;1 ordinary lattice rules using LatNet Builder. ">
<polygon fill="none" stroke="black" points="125,-56.5 125,-75.5 238,-75.5 238,-56.5 125,-56.5"/>
<text text-anchor="middle" x="181.5" y="-63.5" font-family="Helvetica,sans-Serif" font-size="10.00">OrdinaryLatticeSearch</text>
</a>
</g>
</g>
<!-- Node0&#45;&gt;Node3 -->
<g id="edge3" class="edge"><title>Node0&#45;&gt;Node3</title>
<path fill="none" stroke="midnightblue" d="M138.681,-105.537C149.379,-95.9087 162.756,-83.8694 171.685,-75.8339"/>
<polygon fill="midnightblue" stroke="midnightblue" points="136.232,-103.033 131.14,-112.324 140.914,-108.236 136.232,-103.033"/>
</g>
<!-- Node2 -->
<g id="node3" class="node"><title>Node2</title>
<g id="a_node3"><a xlink:href="classumontreal_1_1ssj_1_1latnetbuilder_1_1PolynomialLatticeSearch.html" target="_top" xlink:title="Class for the search of good polynomial lattice rules using LatNet Builder. ">
<polygon fill="none" stroke="black" points="0,-0.5 0,-19.5 125,-19.5 125,-0.5 0,-0.5"/>
<text text-anchor="middle" x="62.5" y="-7.5" font-family="Helvetica,sans-Serif" font-size="10.00">PolynomialLatticeSearch</text>
</a>
</g>
</g>
<!-- Node1&#45;&gt;Node2 -->
<g id="edge2" class="edge"><title>Node1&#45;&gt;Node2</title>
<path fill="none" stroke="midnightblue" d="M62.5,-45.8045C62.5,-36.9102 62.5,-26.7798 62.5,-19.7511"/>
<polygon fill="midnightblue" stroke="midnightblue" points="59.0001,-46.083 62.5,-56.083 66.0001,-46.083 59.0001,-46.083"/>
</g>
</g>
</svg>
