<?xml version="1.0" encoding="UTF-8" standalone="no"?>
<!DOCTYPE svg PUBLIC "-//W3C//DTD SVG 1.1//EN"
 "http://www.w3.org/Graphics/SVG/1.1/DTD/svg11.dtd">
<!-- Generated by graphviz version 2.38.0 (20140413.2041)
 -->
<!-- Title: AbstractDataWriter Pages: 1 -->
<svg width="234pt" height="196pt"
 viewBox="0.00 0.00 233.50 196.00" xmlns="http://www.w3.org/2000/svg" xmlns:xlink="http://www.w3.org/1999/xlink">
<g id="graph0" class="graph" transform="scale(1 1) rotate(0) translate(4 192)">
<title>AbstractDataWriter</title>
<!-- Node1 -->
<g id="node1" class="node"><title>Node1</title>
<polygon fill="#bfbfbf" stroke="black" points="56.5,-112.5 56.5,-131.5 166.5,-131.5 166.5,-112.5 56.5,-112.5"/>
<text text-anchor="middle" x="111.5" y="-119.5" font-family="Helvetica,sans-Serif" font-size="10.00">AbstractDataWriter</text>
</g>
<!-- Node3 -->
<g id="node3" class="node"><title>Node3</title>
<g id="a_node3"><a xlink:href="classumontreal_1_1ssj_1_1util_1_1io_1_1BinaryDataWriter.html" target="_top" xlink:title="Binary data writer. ">
<polygon fill="none" stroke="black" points="0,-56.5 0,-75.5 101,-75.5 101,-56.5 0,-56.5"/>
<text text-anchor="middle" x="50.5" y="-63.5" font-family="Helvetica,sans-Serif" font-size="10.00">BinaryDataWriter</text>
</a>
</g>
</g>
<!-- Node1&#45;&gt;Node3 -->
<g id="edge2" class="edge"><title>Node1&#45;&gt;Node3</title>
<path fill="none" stroke="midnightblue" d="M94.0328,-105.537C83.1562,-95.9087 69.5561,-83.8694 60.479,-75.8339"/>
<polygon fill="midnightblue" stroke="midnightblue" points="91.8917,-108.316 101.699,-112.324 96.5316,-103.075 91.8917,-108.316"/>
</g>
<!-- Node4 -->
<g id="node4" class="node"><title>Node4</title>
<g id="a_node4"><a xlink:href="classumontreal_1_1ssj_1_1util_1_1io_1_1CachedDataWriter.html" target="_top" xlink:title="This abstract class implements shared functionality for data writers that store all fields in memory ...">
<polygon fill="none" stroke="black" points="119.5,-56.5 119.5,-75.5 225.5,-75.5 225.5,-56.5 119.5,-56.5"/>
<text text-anchor="middle" x="172.5" y="-63.5" font-family="Helvetica,sans-Serif" font-size="10.00">CachedDataWriter</text>
</a>
</g>
</g>
<!-- Node1&#45;&gt;Node4 -->
<g id="edge3" class="edge"><title>Node1&#45;&gt;Node4</title>
<path fill="none" stroke="midnightblue" d="M128.967,-105.537C139.844,-95.9087 153.444,-83.8694 162.521,-75.8339"/>
<polygon fill="midnightblue" stroke="midnightblue" points="126.468,-103.075 121.301,-112.324 131.108,-108.316 126.468,-103.075"/>
</g>
<!-- Node2 -->
<g id="node2" class="node"><title>Node2</title>
<g id="a_node2"><a xlink:href="interfaceumontreal_1_1ssj_1_1util_1_1io_1_1DataWriter.html" target="_top" xlink:title="Data writer interface. ">
<polygon fill="none" stroke="black" points="76.5,-168.5 76.5,-187.5 146.5,-187.5 146.5,-168.5 76.5,-168.5"/>
<text text-anchor="middle" x="111.5" y="-175.5" font-family="Helvetica,sans-Serif" font-size="10.00">DataWriter</text>
</a>
</g>
</g>
<!-- Node2&#45;&gt;Node1 -->
<g id="edge1" class="edge"><title>Node2&#45;&gt;Node1</title>
<path fill="none" stroke="midnightblue" d="M111.5,-157.805C111.5,-148.91 111.5,-138.78 111.5,-131.751"/>
<polygon fill="midnightblue" stroke="midnightblue" points="108,-158.083 111.5,-168.083 115,-158.083 108,-158.083"/>
</g>
<!-- Node5 -->
<g id="node5" class="node"><title>Node5</title>
<g id="a_node5"><a xlink:href="classumontreal_1_1ssj_1_1util_1_1io_1_1TextDataWriter.html" target="_top" xlink:title="Text data writer. ">
<polygon fill="none" stroke="black" points="126.5,-0.5 126.5,-19.5 218.5,-19.5 218.5,-0.5 126.5,-0.5"/>
<text text-anchor="middle" x="172.5" y="-7.5" font-family="Helvetica,sans-Serif" font-size="10.00">TextDataWriter</text>
</a>
</g>
</g>
<!-- Node4&#45;&gt;Node5 -->
<g id="edge4" class="edge"><title>Node4&#45;&gt;Node5</title>
<path fill="none" stroke="midnightblue" d="M172.5,-45.8045C172.5,-36.9102 172.5,-26.7798 172.5,-19.7511"/>
<polygon fill="midnightblue" stroke="midnightblue" points="169,-46.083 172.5,-56.083 176,-46.083 169,-46.083"/>
</g>
</g>
</svg>
