<?xml version="1.0" encoding="UTF-8" standalone="no"?>
<!DOCTYPE svg PUBLIC "-//W3C//DTD SVG 1.1//EN"
 "http://www.w3.org/Graphics/SVG/1.1/DTD/svg11.dtd">
<!-- Generated by graphviz version 2.38.0 (20140413.2041)
 -->
<!-- Title: XYLineChart Pages: 1 -->
<svg width="208pt" height="140pt"
 viewBox="0.00 0.00 207.50 140.00" xmlns="http://www.w3.org/2000/svg" xmlns:xlink="http://www.w3.org/1999/xlink">
<g id="graph0" class="graph" transform="scale(1 1) rotate(0) translate(4 136)">
<title>XYLineChart</title>
<!-- Node1 -->
<g id="node1" class="node"><title>Node1</title>
<polygon fill="#bfbfbf" stroke="black" points="52.5,-56.5 52.5,-75.5 128.5,-75.5 128.5,-56.5 52.5,-56.5"/>
<text text-anchor="middle" x="90.5" y="-63.5" font-family="Helvetica,sans-Serif" font-size="10.00">XYLineChart</text>
</g>
<!-- Node3 -->
<g id="node3" class="node"><title>Node3</title>
<g id="a_node3"><a xlink:href="classumontreal_1_1ssj_1_1charts_1_1PPPlot.html" target="_top" xlink:title="This class implements PP&#45;plot (or probability&#45;probability plot) objects that compare two probability ...">
<polygon fill="none" stroke="black" points="0,-0.5 0,-19.5 47,-19.5 47,-0.5 0,-0.5"/>
<text text-anchor="middle" x="23.5" y="-7.5" font-family="Helvetica,sans-Serif" font-size="10.00">PPPlot</text>
</a>
</g>
</g>
<!-- Node1&#45;&gt;Node3 -->
<g id="edge2" class="edge"><title>Node1&#45;&gt;Node3</title>
<path fill="none" stroke="midnightblue" d="M71.6652,-49.8197C59.6616,-40.1452 44.5283,-27.9481 34.4606,-19.8339"/>
<polygon fill="midnightblue" stroke="midnightblue" points="69.753,-52.7738 79.7353,-56.324 74.1457,-47.3236 69.753,-52.7738"/>
</g>
<!-- Node4 -->
<g id="node4" class="node"><title>Node4</title>
<g id="a_node4"><a xlink:href="classumontreal_1_1ssj_1_1charts_1_1QQPlot.html" target="_top" xlink:title="This class implements QQ&#45;plot (or quantile&#45;quantile plot) objects that compare two probability distri...">
<polygon fill="none" stroke="black" points="65.5,-0.5 65.5,-19.5 115.5,-19.5 115.5,-0.5 65.5,-0.5"/>
<text text-anchor="middle" x="90.5" y="-7.5" font-family="Helvetica,sans-Serif" font-size="10.00">QQPlot</text>
</a>
</g>
</g>
<!-- Node1&#45;&gt;Node4 -->
<g id="edge3" class="edge"><title>Node1&#45;&gt;Node4</title>
<path fill="none" stroke="midnightblue" d="M90.5,-45.8045C90.5,-36.9102 90.5,-26.7798 90.5,-19.7511"/>
<polygon fill="midnightblue" stroke="midnightblue" points="87.0001,-46.083 90.5,-56.083 94.0001,-46.083 87.0001,-46.083"/>
</g>
<!-- Node5 -->
<g id="node5" class="node"><title>Node5</title>
<g id="a_node5"><a xlink:href="classumontreal_1_1ssj_1_1charts_1_1YListChart.html" target="_top" xlink:title="This class extends the class umontreal.ssj.charts.XYLineChart. ">
<polygon fill="none" stroke="black" points="133.5,-0.5 133.5,-19.5 199.5,-19.5 199.5,-0.5 133.5,-0.5"/>
<text text-anchor="middle" x="166.5" y="-7.5" font-family="Helvetica,sans-Serif" font-size="10.00">YListChart</text>
</a>
</g>
</g>
<!-- Node1&#45;&gt;Node5 -->
<g id="edge4" class="edge"><title>Node1&#45;&gt;Node5</title>
<path fill="none" stroke="midnightblue" d="M111.076,-50.3804C124.812,-40.6204 142.425,-28.1057 154.067,-19.8339"/>
<polygon fill="midnightblue" stroke="midnightblue" points="108.835,-47.6787 102.711,-56.324 112.89,-53.385 108.835,-47.6787"/>
</g>
<!-- Node2 -->
<g id="node2" class="node"><title>Node2</title>
<g id="a_node2"><a xlink:href="classumontreal_1_1ssj_1_1charts_1_1XYChart.html" target="_top" xlink:title="This class provides tools to create charts from data in a simple way. ">
<polygon fill="none" stroke="black" points="62.5,-112.5 62.5,-131.5 118.5,-131.5 118.5,-112.5 62.5,-112.5"/>
<text text-anchor="middle" x="90.5" y="-119.5" font-family="Helvetica,sans-Serif" font-size="10.00">XYChart</text>
</a>
</g>
</g>
<!-- Node2&#45;&gt;Node1 -->
<g id="edge1" class="edge"><title>Node2&#45;&gt;Node1</title>
<path fill="none" stroke="midnightblue" d="M90.5,-101.805C90.5,-92.9102 90.5,-82.7798 90.5,-75.7511"/>
<polygon fill="midnightblue" stroke="midnightblue" points="87.0001,-102.083 90.5,-112.083 94.0001,-102.083 87.0001,-102.083"/>
</g>
</g>
</svg>
