<?xml version="1.0" encoding="UTF-8" standalone="no"?>
<!DOCTYPE svg PUBLIC "-//W3C//DTD SVG 1.1//EN"
 "http://www.w3.org/Graphics/SVG/1.1/DTD/svg11.dtd">
<!-- Generated by graphviz version 2.38.0 (20140413.2041)
 -->
<!-- Title: F2wNetPolyLCG Pages: 1 -->
<svg width="108pt" height="266pt"
 viewBox="0.00 0.00 107.50 266.00" xmlns="http://www.w3.org/2000/svg" xmlns:xlink="http://www.w3.org/1999/xlink">
<g id="graph0" class="graph" transform="scale(1 1) rotate(0) translate(4 262)">
<title>F2wNetPolyLCG</title>
<!-- Node1 -->
<g id="node1" class="node"><title>Node1</title>
<polygon fill="#bfbfbf" stroke="black" points="0,-0.5 0,-19.5 91,-19.5 91,-0.5 0,-0.5"/>
<text text-anchor="middle" x="45.5" y="-7.5" font-family="Helvetica,sans-Serif" font-size="10.00">F2wNetPolyLCG</text>
</g>
<!-- Node2 -->
<g id="node2" class="node"><title>Node2</title>
<g id="a_node2"><a xlink:href="classumontreal_1_1ssj_1_1hups_1_1DigitalNetBase2.html" target="_top" xlink:title="A special case of DigitalNet for the base . ">
<polygon fill="none" stroke="black" points="1.5,-57.5 1.5,-76.5 89.5,-76.5 89.5,-57.5 1.5,-57.5"/>
<text text-anchor="middle" x="45.5" y="-64.5" font-family="Helvetica,sans-Serif" font-size="10.00">DigitalNetBase2</text>
</a>
</g>
</g>
<!-- Node2&#45;&gt;Node1 -->
<g id="edge1" class="edge"><title>Node2&#45;&gt;Node1</title>
<path fill="none" stroke="midnightblue" d="M45.5,-47.1166C45.5,-37.8173 45.5,-27.0557 45.5,-19.7149"/>
<polygon fill="midnightblue" stroke="midnightblue" points="42.0001,-47.4062 45.5,-57.4062 49.0001,-47.4063 42.0001,-47.4062"/>
</g>
<!-- Node3 -->
<g id="node3" class="node"><title>Node3</title>
<g id="a_node3"><a xlink:href="classumontreal_1_1ssj_1_1hups_1_1DigitalNet.html" target="_top" xlink:title="This class provides the basic structures for storing and manipulating linear digital nets in base ...">
<polygon fill="none" stroke="black" points="15.5,-114.5 15.5,-133.5 75.5,-133.5 75.5,-114.5 15.5,-114.5"/>
<text text-anchor="middle" x="45.5" y="-121.5" font-family="Helvetica,sans-Serif" font-size="10.00">DigitalNet</text>
</a>
</g>
</g>
<!-- Node3&#45;&gt;Node2 -->
<g id="edge2" class="edge"><title>Node3&#45;&gt;Node2</title>
<path fill="none" stroke="midnightblue" d="M45.5,-104.117C45.5,-94.8173 45.5,-84.0557 45.5,-76.7149"/>
<polygon fill="midnightblue" stroke="midnightblue" points="42.0001,-104.406 45.5,-114.406 49.0001,-104.406 42.0001,-104.406"/>
</g>
<!-- Node4 -->
<g id="node4" class="node"><title>Node4</title>
<g id="a_node4"><a xlink:href="classumontreal_1_1ssj_1_1hups_1_1PointSet.html" target="_top" xlink:title="This abstract class defines the basic methods for accessing and manipulating point sets...">
<polygon fill="none" stroke="black" points="18.5,-171.5 18.5,-190.5 72.5,-190.5 72.5,-171.5 18.5,-171.5"/>
<text text-anchor="middle" x="45.5" y="-178.5" font-family="Helvetica,sans-Serif" font-size="10.00">PointSet</text>
</a>
</g>
</g>
<!-- Node4&#45;&gt;Node3 -->
<g id="edge3" class="edge"><title>Node4&#45;&gt;Node3</title>
<path fill="none" stroke="midnightblue" d="M45.5,-161.117C45.5,-151.817 45.5,-141.056 45.5,-133.715"/>
<polygon fill="midnightblue" stroke="midnightblue" points="42.0001,-161.406 45.5,-171.406 49.0001,-161.406 42.0001,-161.406"/>
</g>
<!-- Node5 -->
<g id="node5" class="node"><title>Node5</title>
<g id="a_node5"><a xlink:href="interfaceumontreal_1_1ssj_1_1rng_1_1RandomStream.html" target="_top" xlink:title="This interface defines the basic structures to handle multiple streams of uniform (pseudo)random numb...">
<polygon fill="none" stroke="black" points="3,-238.5 3,-257.5 88,-257.5 88,-238.5 3,-238.5"/>
<text text-anchor="middle" x="45.5" y="-245.5" font-family="Helvetica,sans-Serif" font-size="10.00">RandomStream</text>
</a>
</g>
</g>
<!-- Node5&#45;&gt;Node4 -->
<g id="edge4" class="edge"><title>Node5&#45;&gt;Node4</title>
<path fill="none" stroke="#9a32cd" stroke-dasharray="5,2" d="M45.5,-228.037C45.5,-215.67 45.5,-200.12 45.5,-190.627"/>
<polygon fill="#9a32cd" stroke="#9a32cd" points="42.0001,-228.234 45.5,-238.234 49.0001,-228.234 42.0001,-228.234"/>
<text text-anchor="middle" x="72.5" y="-212" font-family="Helvetica,sans-Serif" font-size="10.00"> shiftStream</text>
</g>
</g>
</svg>
