<?xml version="1.0" encoding="UTF-8" standalone="no"?>
<!DOCTYPE svg PUBLIC "-//W3C//DTD SVG 1.1//EN"
 "http://www.w3.org/Graphics/SVG/1.1/DTD/svg11.dtd">
<!-- Generated by graphviz version 2.26.3 (20100126.1600)
 -->
<!-- Title: NiedSequenceBase2 Pages: 1 -->
<svg width="122pt" height="340pt"
 viewBox="0.00 0.00 122.00 340.00" xmlns="http://www.w3.org/2000/svg" xmlns:xlink="http://www.w3.org/1999/xlink">
<g id="graph1" class="graph" transform="scale(1 1) rotate(0) translate(4 336)">
<title>NiedSequenceBase2</title>
<!-- Node1 -->
<g id="node1" class="node"><title>Node1</title>
<polygon fill="#bfbfbf" stroke="black" points="3.5,-1 3.5,-21 110.5,-21 110.5,-1 3.5,-1"/>
<text text-anchor="middle" x="57" y="-8" font-family="Helvetica,sans-Serif" font-size="10.00">NiedSequenceBase2</text>
</g>
<!-- Node2 -->
<g id="node2" class="node"><title>Node2</title>
<a xlink:href="classumontreal_1_1ssj_1_1hups_1_1DigitalSequenceBase2.html" target="_top" xlink:title="This abstract class describes methods specific to digital sequences in base 2. ">
<polygon fill="none" stroke="black" points="-0.5,-61 -0.5,-81 114.5,-81 114.5,-61 -0.5,-61"/>
<text text-anchor="middle" x="57" y="-68" font-family="Helvetica,sans-Serif" font-size="10.00">DigitalSequenceBase2</text>
</a>
</g>
<!-- Node2&#45;&gt;Node1 -->
<g id="edge2" class="edge"><title>Node2&#45;&gt;Node1</title>
<path fill="none" stroke="midnightblue" d="M57,-50.5155C57,-40.562 57,-29.0495 57,-21.0279"/>
<polygon fill="midnightblue" stroke="midnightblue" points="53.5001,-50.8218 57,-60.8218 60.5001,-50.8219 53.5001,-50.8218"/>
</g>
<!-- Node3 -->
<g id="node4" class="node"><title>Node3</title>
<a xlink:href="classumontreal_1_1ssj_1_1hups_1_1DigitalNetBase2.html" target="_top" xlink:title="A special case of DigitalNet for the base . ">
<polygon fill="none" stroke="black" points="14,-121 14,-141 100,-141 100,-121 14,-121"/>
<text text-anchor="middle" x="57" y="-128" font-family="Helvetica,sans-Serif" font-size="10.00">DigitalNetBase2</text>
</a>
</g>
<!-- Node3&#45;&gt;Node2 -->
<g id="edge4" class="edge"><title>Node3&#45;&gt;Node2</title>
<path fill="none" stroke="midnightblue" d="M57,-110.516C57,-100.562 57,-89.0495 57,-81.0279"/>
<polygon fill="midnightblue" stroke="midnightblue" points="53.5001,-110.822 57,-120.822 60.5001,-110.822 53.5001,-110.822"/>
</g>
<!-- Node4 -->
<g id="node6" class="node"><title>Node4</title>
<a xlink:href="classumontreal_1_1ssj_1_1hups_1_1DigitalNet.html" target="_top" xlink:title="This class provides the basic structures for storing and manipulating linear digital nets in base ...">
<polygon fill="none" stroke="black" points="27.5,-181 27.5,-201 86.5,-201 86.5,-181 27.5,-181"/>
<text text-anchor="middle" x="57" y="-188" font-family="Helvetica,sans-Serif" font-size="10.00">DigitalNet</text>
</a>
</g>
<!-- Node4&#45;&gt;Node3 -->
<g id="edge6" class="edge"><title>Node4&#45;&gt;Node3</title>
<path fill="none" stroke="midnightblue" d="M57,-170.516C57,-160.562 57,-149.05 57,-141.028"/>
<polygon fill="midnightblue" stroke="midnightblue" points="53.5001,-170.822 57,-180.822 60.5001,-170.822 53.5001,-170.822"/>
</g>
<!-- Node5 -->
<g id="node8" class="node"><title>Node5</title>
<a xlink:href="classumontreal_1_1ssj_1_1hups_1_1PointSet.html" target="_top" xlink:title="This abstract class defines the basic methods for accessing and manipulating point sets...">
<polygon fill="none" stroke="black" points="30,-241 30,-261 84,-261 84,-241 30,-241"/>
<text text-anchor="middle" x="57" y="-248" font-family="Helvetica,sans-Serif" font-size="10.00">PointSet</text>
</a>
</g>
<!-- Node5&#45;&gt;Node4 -->
<g id="edge8" class="edge"><title>Node5&#45;&gt;Node4</title>
<path fill="none" stroke="midnightblue" d="M57,-230.516C57,-220.562 57,-209.05 57,-201.028"/>
<polygon fill="midnightblue" stroke="midnightblue" points="53.5001,-230.822 57,-240.822 60.5001,-230.822 53.5001,-230.822"/>
</g>
<!-- Node6 -->
<g id="node10" class="node"><title>Node6</title>
<a xlink:href="interfaceumontreal_1_1ssj_1_1rng_1_1RandomStream.html" target="_top" xlink:title="This interface defines the basic structures to handle multiple streams of uniform (pseudo)random numb...">
<polygon fill="none" stroke="black" points="15,-311 15,-331 99,-331 99,-311 15,-311"/>
<text text-anchor="middle" x="57" y="-318" font-family="Helvetica,sans-Serif" font-size="10.00">RandomStream</text>
</a>
</g>
<!-- Node6&#45;&gt;Node5 -->
<g id="edge10" class="edge"><title>Node6&#45;&gt;Node5</title>
<path fill="none" stroke="#9a32cd" stroke-dasharray="5,2" d="M57,-300.613C57,-287.597 57,-271.296 57,-261.011"/>
<polygon fill="#9a32cd" stroke="#9a32cd" points="53.5001,-300.971 57,-310.971 60.5001,-300.971 53.5001,-300.971"/>
<text text-anchor="middle" x="84" y="-283" font-family="Helvetica,sans-Serif" font-size="10.00"> shiftStream</text>
</g>
</g>
</svg>
