<?xml version="1.0" encoding="UTF-8" standalone="no"?>
<!DOCTYPE svg PUBLIC "-//W3C//DTD SVG 1.1//EN"
 "http://www.w3.org/Graphics/SVG/1.1/DTD/svg11.dtd">
<!-- Generated by graphviz version 2.38.0 (20140413.2041)
 -->
<!-- Title: BakerTransformedPointSet Pages: 1 -->
<svg width="141pt" height="219pt"
 viewBox="0.00 0.00 141.00 219.00" xmlns="http://www.w3.org/2000/svg" xmlns:xlink="http://www.w3.org/1999/xlink">
<g id="graph0" class="graph" transform="scale(1 1) rotate(0) translate(4 215)">
<title>BakerTransformedPointSet</title>
<!-- Node3 -->
<g id="node1" class="node"><title>Node3</title>
<polygon fill="#bfbfbf" stroke="black" points="0,-0.5 0,-19.5 133,-19.5 133,-0.5 0,-0.5"/>
<text text-anchor="middle" x="66.5" y="-7.5" font-family="Helvetica,sans-Serif" font-size="10.00">BakerTransformedPointSet</text>
</g>
<!-- Node4 -->
<g id="node2" class="node"><title>Node4</title>
<g id="a_node2"><a xlink:href="classumontreal_1_1ssj_1_1hups_1_1ContainerPointSet.html" target="_top" xlink:title="This acts as a generic base class for all container classes that contain a point set and apply a spec...">
<polygon fill="none" stroke="black" points="19,-57.5 19,-76.5 114,-76.5 114,-57.5 19,-57.5"/>
<text text-anchor="middle" x="66.5" y="-64.5" font-family="Helvetica,sans-Serif" font-size="10.00">ContainerPointSet</text>
</a>
</g>
</g>
<!-- Node4&#45;&gt;Node3 -->
<g id="edge1" class="edge"><title>Node4&#45;&gt;Node3</title>
<path fill="none" stroke="midnightblue" d="M66.5,-47.1166C66.5,-37.8173 66.5,-27.0557 66.5,-19.7149"/>
<polygon fill="midnightblue" stroke="midnightblue" points="63.0001,-47.4062 66.5,-57.4063 70.0001,-47.4063 63.0001,-47.4062"/>
</g>
<!-- Node5 -->
<g id="node3" class="node"><title>Node5</title>
<g id="a_node3"><a xlink:href="classumontreal_1_1ssj_1_1hups_1_1PointSet.html" target="_top" xlink:title="This abstract class represents a general point set. ">
<polygon fill="none" stroke="black" points="39.5,-124.5 39.5,-143.5 93.5,-143.5 93.5,-124.5 39.5,-124.5"/>
<text text-anchor="middle" x="66.5" y="-131.5" font-family="Helvetica,sans-Serif" font-size="10.00">PointSet</text>
</a>
</g>
</g>
<!-- Node5&#45;&gt;Node4 -->
<g id="edge2" class="edge"><title>Node5&#45;&gt;Node4</title>
<path fill="none" stroke="midnightblue" d="M64.9399,-114.382C64.7572,-111.575 64.6003,-108.713 64.5,-106 64.1288,-95.9652 64.9035,-84.4502 65.5942,-76.7505"/>
<polygon fill="midnightblue" stroke="midnightblue" points="61.4607,-114.791 65.7083,-124.497 68.4406,-114.26 61.4607,-114.791"/>
</g>
<!-- Node5&#45;&gt;Node4 -->
<g id="edge4" class="edge"><title>Node5&#45;&gt;Node4</title>
<path fill="none" stroke="#9a32cd" stroke-dasharray="5,2" d="M66.5,-114.037C66.5,-101.67 66.5,-86.1198 66.5,-76.6273"/>
<polygon fill="#9a32cd" stroke="#9a32cd" points="63.0001,-114.234 66.5,-124.234 70.0001,-114.234 63.0001,-114.234"/>
<text text-anchor="middle" x="71.5" y="-98" font-family="Helvetica,sans-Serif" font-size="10.00"> P</text>
</g>
<!-- Node6 -->
<g id="node4" class="node"><title>Node6</title>
<g id="a_node4"><a xlink:href="interfaceumontreal_1_1ssj_1_1rng_1_1RandomStream.html" target="_top" xlink:title="This interface defines the basic structures to handle multiple streams of uniform (pseudo)random numb...">
<polygon fill="none" stroke="black" points="24.5,-191.5 24.5,-210.5 108.5,-210.5 108.5,-191.5 24.5,-191.5"/>
<text text-anchor="middle" x="66.5" y="-198.5" font-family="Helvetica,sans-Serif" font-size="10.00">RandomStream</text>
</a>
</g>
</g>
<!-- Node6&#45;&gt;Node5 -->
<g id="edge3" class="edge"><title>Node6&#45;&gt;Node5</title>
<path fill="none" stroke="#9a32cd" stroke-dasharray="5,2" d="M66.5,-181.037C66.5,-168.67 66.5,-153.12 66.5,-143.627"/>
<polygon fill="#9a32cd" stroke="#9a32cd" points="63.0001,-181.234 66.5,-191.234 70.0001,-181.234 63.0001,-181.234"/>
<text text-anchor="middle" x="93" y="-165" font-family="Helvetica,sans-Serif" font-size="10.00"> shiftStream</text>
</g>
</g>
</svg>
