<?xml version="1.0" encoding="UTF-8" standalone="no"?>
<!DOCTYPE svg PUBLIC "-//W3C//DTD SVG 1.1//EN"
 "http://www.w3.org/Graphics/SVG/1.1/DTD/svg11.dtd">
<!-- Generated by graphviz version 2.38.0 (20140413.2041)
 -->
<!-- Title: JohnsonSystemG Pages: 1 -->
<svg width="296pt" height="140pt"
 viewBox="0.00 0.00 296.00 140.00" xmlns="http://www.w3.org/2000/svg" xmlns:xlink="http://www.w3.org/1999/xlink">
<g id="graph0" class="graph" transform="scale(1 1) rotate(0) translate(4 136)">
<title>JohnsonSystemG</title>
<!-- Node0 -->
<g id="node1" class="node"><title>Node0</title>
<polygon fill="#bfbfbf" stroke="black" points="97,-56.5 97,-75.5 191,-75.5 191,-56.5 97,-56.5"/>
<text text-anchor="middle" x="144" y="-63.5" font-family="Helvetica,sans-Serif" font-size="10.00">JohnsonSystemG</text>
</g>
<!-- Node2 -->
<g id="node3" class="node"><title>Node2</title>
<g id="a_node3"><a xlink:href="classumontreal_1_1ssj_1_1randvar_1_1JohnsonSBGen.html" target="_top" xlink:title="This class implements random variate generators for the Johnson &#160;distribution. ">
<polygon fill="none" stroke="black" points="0,-0.5 0,-19.5 84,-19.5 84,-0.5 0,-0.5"/>
<text text-anchor="middle" x="42" y="-7.5" font-family="Helvetica,sans-Serif" font-size="10.00">JohnsonSBGen</text>
</a>
</g>
</g>
<!-- Node0&#45;&gt;Node2 -->
<g id="edge2" class="edge"><title>Node0&#45;&gt;Node2</title>
<path fill="none" stroke="midnightblue" d="M118.669,-51.5895C99.8098,-41.6052 74.6158,-28.2672 58.3474,-19.6545"/>
<polygon fill="midnightblue" stroke="midnightblue" points="117.136,-54.7383 127.612,-56.324 120.412,-48.5518 117.136,-54.7383"/>
</g>
<!-- Node3 -->
<g id="node4" class="node"><title>Node3</title>
<g id="a_node4"><a xlink:href="classumontreal_1_1ssj_1_1randvar_1_1JohnsonSLGen.html" target="_top" xlink:title="This class implements random variate generators for the Johnson &#160;distribution. ">
<polygon fill="none" stroke="black" points="102.5,-0.5 102.5,-19.5 185.5,-19.5 185.5,-0.5 102.5,-0.5"/>
<text text-anchor="middle" x="144" y="-7.5" font-family="Helvetica,sans-Serif" font-size="10.00">JohnsonSLGen</text>
</a>
</g>
</g>
<!-- Node0&#45;&gt;Node3 -->
<g id="edge3" class="edge"><title>Node0&#45;&gt;Node3</title>
<path fill="none" stroke="midnightblue" d="M144,-45.8045C144,-36.9102 144,-26.7798 144,-19.7511"/>
<polygon fill="midnightblue" stroke="midnightblue" points="140.5,-46.083 144,-56.083 147.5,-46.083 140.5,-46.083"/>
</g>
<!-- Node4 -->
<g id="node5" class="node"><title>Node4</title>
<g id="a_node5"><a xlink:href="classumontreal_1_1ssj_1_1randvar_1_1JohnsonSUGen.html" target="_top" xlink:title="This class implements random variate generators for the Johnson &#160;distribution. ">
<polygon fill="none" stroke="black" points="204,-0.5 204,-19.5 288,-19.5 288,-0.5 204,-0.5"/>
<text text-anchor="middle" x="246" y="-7.5" font-family="Helvetica,sans-Serif" font-size="10.00">JohnsonSUGen</text>
</a>
</g>
</g>
<!-- Node0&#45;&gt;Node4 -->
<g id="edge4" class="edge"><title>Node0&#45;&gt;Node4</title>
<path fill="none" stroke="midnightblue" d="M169.331,-51.5895C188.19,-41.6052 213.384,-28.2672 229.653,-19.6545"/>
<polygon fill="midnightblue" stroke="midnightblue" points="167.588,-48.5518 160.388,-56.324 170.864,-54.7383 167.588,-48.5518"/>
</g>
<!-- Node1 -->
<g id="node2" class="node"><title>Node1</title>
<g id="a_node2"><a xlink:href="classumontreal_1_1ssj_1_1randvar_1_1RandomVariateGen.html" target="_top" xlink:title="This is the base class for all random variate generators over the real line. ">
<polygon fill="none" stroke="black" points="93.5,-112.5 93.5,-131.5 194.5,-131.5 194.5,-112.5 93.5,-112.5"/>
<text text-anchor="middle" x="144" y="-119.5" font-family="Helvetica,sans-Serif" font-size="10.00">RandomVariateGen</text>
</a>
</g>
</g>
<!-- Node1&#45;&gt;Node0 -->
<g id="edge1" class="edge"><title>Node1&#45;&gt;Node0</title>
<path fill="none" stroke="midnightblue" d="M144,-101.805C144,-92.9102 144,-82.7798 144,-75.7511"/>
<polygon fill="midnightblue" stroke="midnightblue" points="140.5,-102.083 144,-112.083 147.5,-102.083 140.5,-102.083"/>
</g>
</g>
</svg>
