<?xml version="1.0" encoding="UTF-8" standalone="no"?>
<!DOCTYPE svg PUBLIC "-//W3C//DTD SVG 1.1//EN"
 "http://www.w3.org/Graphics/SVG/1.1/DTD/svg11.dtd">
<!-- Generated by graphviz version 2.38.0 (20140413.2041)
 -->
<!-- Title: NiedXingSequenceBase2 Pages: 1 -->
<svg width="133pt" height="323pt"
 viewBox="0.00 0.00 133.00 323.00" xmlns="http://www.w3.org/2000/svg" xmlns:xlink="http://www.w3.org/1999/xlink">
<g id="graph0" class="graph" transform="scale(1 1) rotate(0) translate(4 319)">
<title>NiedXingSequenceBase2</title>
<!-- Node5 -->
<g id="node1" class="node"><title>Node5</title>
<polygon fill="#bfbfbf" stroke="black" points="0,-0.5 0,-19.5 125,-19.5 125,-0.5 0,-0.5"/>
<text text-anchor="middle" x="62.5" y="-7.5" font-family="Helvetica,sans-Serif" font-size="10.00">NiedXingSequenceBase2</text>
</g>
<!-- Node6 -->
<g id="node2" class="node"><title>Node6</title>
<g id="a_node2"><a xlink:href="classumontreal_1_1ssj_1_1hups_1_1DigitalSequenceBase2.html" target="_top" xlink:title="This abstract class describes methods specific to digital sequences in base 2. ">
<polygon fill="none" stroke="black" points="5,-57.5 5,-76.5 120,-76.5 120,-57.5 5,-57.5"/>
<text text-anchor="middle" x="62.5" y="-64.5" font-family="Helvetica,sans-Serif" font-size="10.00">DigitalSequenceBase2</text>
</a>
</g>
</g>
<!-- Node6&#45;&gt;Node5 -->
<g id="edge1" class="edge"><title>Node6&#45;&gt;Node5</title>
<path fill="none" stroke="midnightblue" d="M62.5,-47.1166C62.5,-37.8173 62.5,-27.0557 62.5,-19.7149"/>
<polygon fill="midnightblue" stroke="midnightblue" points="59.0001,-47.4062 62.5,-57.4063 66.0001,-47.4063 59.0001,-47.4062"/>
</g>
<!-- Node7 -->
<g id="node3" class="node"><title>Node7</title>
<g id="a_node3"><a xlink:href="classumontreal_1_1ssj_1_1hups_1_1DigitalNetBase2.html" target="_top" xlink:title="A special case of DigitalNet for the base . ">
<polygon fill="none" stroke="black" points="19.5,-114.5 19.5,-133.5 105.5,-133.5 105.5,-114.5 19.5,-114.5"/>
<text text-anchor="middle" x="62.5" y="-121.5" font-family="Helvetica,sans-Serif" font-size="10.00">DigitalNetBase2</text>
</a>
</g>
</g>
<!-- Node7&#45;&gt;Node6 -->
<g id="edge2" class="edge"><title>Node7&#45;&gt;Node6</title>
<path fill="none" stroke="midnightblue" d="M62.5,-104.117C62.5,-94.8173 62.5,-84.0557 62.5,-76.7149"/>
<polygon fill="midnightblue" stroke="midnightblue" points="59.0001,-104.406 62.5,-114.406 66.0001,-104.406 59.0001,-104.406"/>
</g>
<!-- Node8 -->
<g id="node4" class="node"><title>Node8</title>
<g id="a_node4"><a xlink:href="classumontreal_1_1ssj_1_1hups_1_1DigitalNet.html" target="_top" xlink:title="This class provides the basic structures for storing and manipulating linear digital nets in base ...">
<polygon fill="none" stroke="black" points="33,-171.5 33,-190.5 92,-190.5 92,-171.5 33,-171.5"/>
<text text-anchor="middle" x="62.5" y="-178.5" font-family="Helvetica,sans-Serif" font-size="10.00">DigitalNet</text>
</a>
</g>
</g>
<!-- Node8&#45;&gt;Node7 -->
<g id="edge3" class="edge"><title>Node8&#45;&gt;Node7</title>
<path fill="none" stroke="midnightblue" d="M62.5,-161.117C62.5,-151.817 62.5,-141.056 62.5,-133.715"/>
<polygon fill="midnightblue" stroke="midnightblue" points="59.0001,-161.406 62.5,-171.406 66.0001,-161.406 59.0001,-161.406"/>
</g>
<!-- Node9 -->
<g id="node5" class="node"><title>Node9</title>
<g id="a_node5"><a xlink:href="classumontreal_1_1ssj_1_1hups_1_1PointSet.html" target="_top" xlink:title="This abstract class represents a general point set. ">
<polygon fill="none" stroke="black" points="35.5,-228.5 35.5,-247.5 89.5,-247.5 89.5,-228.5 35.5,-228.5"/>
<text text-anchor="middle" x="62.5" y="-235.5" font-family="Helvetica,sans-Serif" font-size="10.00">PointSet</text>
</a>
</g>
</g>
<!-- Node9&#45;&gt;Node8 -->
<g id="edge4" class="edge"><title>Node9&#45;&gt;Node8</title>
<path fill="none" stroke="midnightblue" d="M62.5,-218.117C62.5,-208.817 62.5,-198.056 62.5,-190.715"/>
<polygon fill="midnightblue" stroke="midnightblue" points="59.0001,-218.406 62.5,-228.406 66.0001,-218.406 59.0001,-218.406"/>
</g>
<!-- Node10 -->
<g id="node6" class="node"><title>Node10</title>
<g id="a_node6"><a xlink:href="interfaceumontreal_1_1ssj_1_1rng_1_1RandomStream.html" target="_top" xlink:title="This interface defines the basic structures to handle multiple streams of uniform (pseudo)random numb...">
<polygon fill="none" stroke="black" points="20.5,-295.5 20.5,-314.5 104.5,-314.5 104.5,-295.5 20.5,-295.5"/>
<text text-anchor="middle" x="62.5" y="-302.5" font-family="Helvetica,sans-Serif" font-size="10.00">RandomStream</text>
</a>
</g>
</g>
<!-- Node10&#45;&gt;Node9 -->
<g id="edge5" class="edge"><title>Node10&#45;&gt;Node9</title>
<path fill="none" stroke="#9a32cd" stroke-dasharray="5,2" d="M62.5,-285.037C62.5,-272.67 62.5,-257.12 62.5,-247.627"/>
<polygon fill="#9a32cd" stroke="#9a32cd" points="59.0001,-285.234 62.5,-295.234 66.0001,-285.234 59.0001,-285.234"/>
<text text-anchor="middle" x="89" y="-269" font-family="Helvetica,sans-Serif" font-size="10.00"> shiftStream</text>
</g>
</g>
</svg>
