<?xml version="1.0" encoding="UTF-8" standalone="no"?>
<!DOCTYPE svg PUBLIC "-//W3C//DTD SVG 1.1//EN"
 "http://www.w3.org/Graphics/SVG/1.1/DTD/svg11.dtd">
<!-- Generated by graphviz version 2.26.3 (20100126.1600)
 -->
<!-- Title: RandRijndael Pages: 1 -->
<svg width="241pt" height="204pt"
 viewBox="0.00 0.00 241.00 204.00" xmlns="http://www.w3.org/2000/svg" xmlns:xlink="http://www.w3.org/1999/xlink">
<g id="graph1" class="graph" transform="scale(1 1) rotate(0) translate(4 200)">
<title>RandRijndael</title>
<!-- Node1 -->
<g id="node1" class="node"><title>Node1</title>
<polygon fill="#bfbfbf" stroke="black" points="106,-1 106,-21 180,-21 180,-1 106,-1"/>
<text text-anchor="middle" x="143" y="-8" font-family="Helvetica,sans-Serif" font-size="10.00">RandRijndael</text>
</g>
<!-- Node2 -->
<g id="node2" class="node"><title>Node2</title>
<a xlink:href="classumontreal_1_1ssj_1_1rng_1_1RandomStreamBase.html" target="_top" xlink:title="This class provides a convenient foundation on which RNGs can be built. ">
<polygon fill="none" stroke="black" points="89.5,-59 89.5,-79 196.5,-79 196.5,-59 89.5,-59"/>
<text text-anchor="middle" x="143" y="-66" font-family="Helvetica,sans-Serif" font-size="10.00">RandomStreamBase</text>
</a>
</g>
<!-- Node2&#45;&gt;Node1 -->
<g id="edge2" class="edge"><title>Node2&#45;&gt;Node1</title>
<path fill="none" stroke="midnightblue" d="M143,-48.8902C143,-39.6201 143,-29.0083 143,-21.3776"/>
<polygon fill="midnightblue" stroke="midnightblue" points="139.5,-48.8971 143,-58.8972 146.5,-48.8972 139.5,-48.8971"/>
</g>
<!-- Node3 -->
<g id="node4" class="node"><title>Node3</title>
<a xlink:href="interfaceumontreal_1_1ssj_1_1rng_1_1CloneableRandomStream.html" target="_top" xlink:title="CloneableRandomStream extends RandomStream and Cloneable. ">
<polygon fill="none" stroke="black" points="22.5,-117 22.5,-137 149.5,-137 149.5,-117 22.5,-117"/>
<text text-anchor="middle" x="86" y="-124" font-family="Helvetica,sans-Serif" font-size="10.00">CloneableRandomStream</text>
</a>
</g>
<!-- Node3&#45;&gt;Node2 -->
<g id="edge4" class="edge"><title>Node3&#45;&gt;Node2</title>
<path fill="none" stroke="midnightblue" d="M103.131,-109.568C112.805,-99.7249 124.569,-87.7548 132.801,-79.3776"/>
<polygon fill="midnightblue" stroke="midnightblue" points="100.442,-107.312 95.9286,-116.897 105.434,-112.218 100.442,-107.312"/>
</g>
<!-- Node4 -->
<g id="node6" class="node"><title>Node4</title>
<a xlink:href="interfaceumontreal_1_1ssj_1_1rng_1_1RandomStream.html" target="_top" xlink:title="This interface defines the basic structures to handle multiple streams of uniform (pseudo)random numb...">
<polygon fill="none" stroke="black" points="0,-175 0,-195 84,-195 84,-175 0,-175"/>
<text text-anchor="middle" x="42" y="-182" font-family="Helvetica,sans-Serif" font-size="10.00">RandomStream</text>
</a>
</g>
<!-- Node4&#45;&gt;Node3 -->
<g id="edge6" class="edge"><title>Node4&#45;&gt;Node3</title>
<path fill="none" stroke="midnightblue" d="M55.8937,-166.686C63.2285,-157.017 71.961,-145.506 78.1273,-137.378"/>
<polygon fill="midnightblue" stroke="midnightblue" points="52.9197,-164.815 49.6642,-174.897 58.4965,-169.046 52.9197,-164.815"/>
</g>
<!-- Node5 -->
<g id="node8" class="node"><title>Node5</title>
<polygon fill="none" stroke="#bfbfbf" points="101.5,-175 101.5,-195 160.5,-195 160.5,-175 101.5,-175"/>
<text text-anchor="middle" x="131" y="-182" font-family="Helvetica,sans-Serif" font-size="10.00">Cloneable</text>
</g>
<!-- Node5&#45;&gt;Node3 -->
<g id="edge8" class="edge"><title>Node5&#45;&gt;Node3</title>
<path fill="none" stroke="midnightblue" d="M117.02,-166.981C109.472,-157.252 100.422,-145.589 94.0516,-137.378"/>
<polygon fill="midnightblue" stroke="midnightblue" points="114.266,-169.142 123.162,-174.897 119.797,-164.851 114.266,-169.142"/>
</g>
<!-- Node6 -->
<g id="node10" class="node"><title>Node6</title>
<polygon fill="none" stroke="#bfbfbf" points="166.5,-117 166.5,-137 233.5,-137 233.5,-117 166.5,-117"/>
<text text-anchor="middle" x="200" y="-124" font-family="Helvetica,sans-Serif" font-size="10.00">Serializable</text>
</g>
<!-- Node6&#45;&gt;Node2 -->
<g id="edge10" class="edge"><title>Node6&#45;&gt;Node2</title>
<path fill="none" stroke="midnightblue" d="M182.869,-109.568C173.195,-99.7249 161.431,-87.7548 153.199,-79.3776"/>
<polygon fill="midnightblue" stroke="midnightblue" points="180.566,-112.218 190.071,-116.897 185.558,-107.312 180.566,-112.218"/>
</g>
</g>
</svg>
