<?xml version="1.0" encoding="UTF-8" standalone="no"?>
<!DOCTYPE svg PUBLIC "-//W3C//DTD SVG 1.1//EN"
 "http://www.w3.org/Graphics/SVG/1.1/DTD/svg11.dtd">
<!-- Generated by graphviz version 2.38.0 (20140413.2041)
 -->
<!-- Title: QueueObs Pages: 1 -->
<svg width="453pt" height="173pt"
 viewBox="0.00 0.00 452.50 173.00" xmlns="http://www.w3.org/2000/svg" xmlns:xlink="http://www.w3.org/1999/xlink">
<g id="graph0" class="graph" transform="scale(1 1) rotate(0) translate(4 169)">
<title>QueueObs</title>
<!-- Node1 -->
<g id="node1" class="node"><title>Node1</title>
<polygon fill="#bfbfbf" stroke="black" points="181.5,-0.5 181.5,-19.5 248.5,-19.5 248.5,-0.5 181.5,-0.5"/>
<text text-anchor="middle" x="215" y="-7.5" font-family="Helvetica,sans-Serif" font-size="10.00">QueueObs</text>
</g>
<!-- Node2 -->
<g id="node2" class="node"><title>Node2</title>
<g id="a_node2"><a xlink:href="classumontreal_1_1ssj_1_1randvar_1_1RandomVariateGen.html" target="_top" xlink:title="This is the base class for all random variate generators over the real line. ">
<polygon fill="none" stroke="black" points="82,-78.5 82,-97.5 194,-97.5 194,-78.5 82,-78.5"/>
<text text-anchor="middle" x="138" y="-85.5" font-family="Helvetica,sans-Serif" font-size="10.00">RandomVariateGen</text>
</a>
</g>
</g>
<!-- Node2&#45;&gt;Node1 -->
<g id="edge1" class="edge"><title>Node2&#45;&gt;Node1</title>
<path fill="none" stroke="#9a32cd" stroke-dasharray="5,2" d="M154.337,-70.875C170.202,-55.2161 193.681,-32.0422 206.27,-19.6165"/>
<polygon fill="#9a32cd" stroke="#9a32cd" points="151.491,-68.7661 146.833,-78.2818 156.409,-73.7481 151.491,-68.7661"/>
<text text-anchor="middle" x="206" y="-52" font-family="Helvetica,sans-Serif" font-size="10.00"> genArr</text>
<text text-anchor="middle" x="206" y="-41" font-family="Helvetica,sans-Serif" font-size="10.00">genServ</text>
</g>
<!-- Node3 -->
<g id="node3" class="node"><title>Node3</title>
<g id="a_node3"><a xlink:href="interfaceumontreal_1_1ssj_1_1probdist_1_1Distribution.html" target="_top" xlink:title="This interface should be implemented by all classes supporting discrete and continuous distributions...">
<polygon fill="none" stroke="black" points="0,-145.5 0,-164.5 74,-164.5 74,-145.5 0,-145.5"/>
<text text-anchor="middle" x="37" y="-152.5" font-family="Helvetica,sans-Serif" font-size="10.00">Distribution</text>
</a>
</g>
</g>
<!-- Node3&#45;&gt;Node2 -->
<g id="edge2" class="edge"><title>Node3&#45;&gt;Node2</title>
<path fill="none" stroke="#9a32cd" stroke-dasharray="5,2" d="M59.1132,-139.769C79.1052,-126.903 107.888,-108.379 124.594,-97.6273"/>
<polygon fill="#9a32cd" stroke="#9a32cd" points="57.1363,-136.879 50.6213,-145.234 60.9245,-142.765 57.1363,-136.879"/>
<text text-anchor="middle" x="105" y="-119" font-family="Helvetica,sans-Serif" font-size="10.00"> dist</text>
</g>
<!-- Node4 -->
<g id="node4" class="node"><title>Node4</title>
<g id="a_node4"><a xlink:href="interfaceumontreal_1_1ssj_1_1rng_1_1RandomStream.html" target="_top" xlink:title="This interface defines the basic structures to handle multiple streams of uniform (pseudo)random numb...">
<polygon fill="none" stroke="black" points="92,-145.5 92,-164.5 184,-164.5 184,-145.5 92,-145.5"/>
<text text-anchor="middle" x="138" y="-152.5" font-family="Helvetica,sans-Serif" font-size="10.00">RandomStream</text>
</a>
</g>
</g>
<!-- Node4&#45;&gt;Node2 -->
<g id="edge3" class="edge"><title>Node4&#45;&gt;Node2</title>
<path fill="none" stroke="#9a32cd" stroke-dasharray="5,2" d="M138,-135.037C138,-122.67 138,-107.12 138,-97.6273"/>
<polygon fill="#9a32cd" stroke="#9a32cd" points="134.5,-135.234 138,-145.234 141.5,-135.234 134.5,-135.234"/>
<text text-anchor="middle" x="157" y="-119" font-family="Helvetica,sans-Serif" font-size="10.00"> stream</text>
</g>
<!-- Node5 -->
<g id="node5" class="node"><title>Node5</title>
<g id="a_node5"><a xlink:href="classumontreal_1_1ssj_1_1stat_1_1Tally.html" target="_top" xlink:title="A subclass of StatProbe. ">
<polygon fill="none" stroke="black" points="254.5,-78.5 254.5,-97.5 295.5,-97.5 295.5,-78.5 254.5,-78.5"/>
<text text-anchor="middle" x="275" y="-85.5" font-family="Helvetica,sans-Serif" font-size="10.00">Tally</text>
</a>
</g>
</g>
<!-- Node5&#45;&gt;Node1 -->
<g id="edge4" class="edge"><title>Node5&#45;&gt;Node1</title>
<path fill="none" stroke="#9a32cd" stroke-dasharray="5,2" d="M261.583,-70.0056C249.239,-54.3693 231.432,-31.8142 221.802,-19.6165"/>
<polygon fill="#9a32cd" stroke="#9a32cd" points="259.174,-72.6018 268.117,-78.2818 264.668,-68.2642 259.174,-72.6018"/>
<text text-anchor="middle" x="288" y="-52" font-family="Helvetica,sans-Serif" font-size="10.00"> waitingTimes</text>
<text text-anchor="middle" x="288" y="-41" font-family="Helvetica,sans-Serif" font-size="10.00">averageWaits</text>
</g>
<!-- Node6 -->
<g id="node6" class="node"><title>Node6</title>
<g id="a_node6"><a xlink:href="classumontreal_1_1ssj_1_1stat_1_1StatProbe.html" target="_top" xlink:title="The objects of this class are statistical probes or collectors, which are elementary devices for coll...">
<polygon fill="none" stroke="black" points="202,-145.5 202,-164.5 266,-164.5 266,-145.5 202,-145.5"/>
<text text-anchor="middle" x="234" y="-152.5" font-family="Helvetica,sans-Serif" font-size="10.00">StatProbe</text>
</a>
</g>
</g>
<!-- Node6&#45;&gt;Node5 -->
<g id="edge5" class="edge"><title>Node6&#45;&gt;Node5</title>
<path fill="none" stroke="midnightblue" d="M245.017,-136.535C252.955,-123.95 263.326,-107.507 269.558,-97.6273"/>
<polygon fill="midnightblue" stroke="midnightblue" points="241.904,-134.909 239.529,-145.234 247.825,-138.643 241.904,-134.909"/>
</g>
<!-- Node7 -->
<g id="node7" class="node"><title>Node7</title>
<polygon fill="none" stroke="#bfbfbf" points="284.5,-145.5 284.5,-164.5 349.5,-164.5 349.5,-145.5 284.5,-145.5"/>
<text text-anchor="middle" x="317" y="-152.5" font-family="Helvetica,sans-Serif" font-size="10.00">Cloneable</text>
</g>
<!-- Node7&#45;&gt;Node5 -->
<g id="edge6" class="edge"><title>Node7&#45;&gt;Node5</title>
<path fill="none" stroke="midnightblue" d="M305.715,-136.535C297.583,-123.95 286.959,-107.507 280.575,-97.6273"/>
<polygon fill="midnightblue" stroke="midnightblue" points="302.969,-138.734 311.336,-145.234 308.848,-134.935 302.969,-138.734"/>
</g>
<!-- Node8 -->
<g id="node8" class="node"><title>Node8</title>
<polygon fill="none" stroke="#bfbfbf" points="367.5,-145.5 367.5,-164.5 444.5,-164.5 444.5,-145.5 367.5,-145.5"/>
<text text-anchor="middle" x="406" y="-152.5" font-family="Helvetica,sans-Serif" font-size="10.00">Tally.CIType</text>
</g>
<!-- Node8&#45;&gt;Node5 -->
<g id="edge7" class="edge"><title>Node8&#45;&gt;Node5</title>
<path fill="none" stroke="#9a32cd" stroke-dasharray="5,2" d="M379.344,-140.774C353.398,-127.9 314.72,-108.709 292.468,-97.6672"/>
<polygon fill="#9a32cd" stroke="#9a32cd" points="378.091,-144.059 388.604,-145.369 381.202,-137.788 378.091,-144.059"/>
<text text-anchor="middle" x="396" y="-119" font-family="Helvetica,sans-Serif" font-size="10.00"> confidenceInterval</text>
</g>
</g>
</svg>
