<?xml version="1.0" encoding="UTF-8" standalone="no"?>
<!DOCTYPE svg PUBLIC "-//W3C//DTD SVG 1.1//EN"
 "http://www.w3.org/Graphics/SVG/1.1/DTD/svg11.dtd">
<!-- Generated by graphviz version 2.38.0 (20140413.2041)
 -->
<!-- Title: RedblackTree Pages: 1 -->
<svg width="100pt" height="140pt"
 viewBox="0.00 0.00 100.00 140.00" xmlns="http://www.w3.org/2000/svg" xmlns:xlink="http://www.w3.org/1999/xlink">
<g id="graph0" class="graph" transform="scale(1 1) rotate(0) translate(4 136)">
<title>RedblackTree</title>
<!-- Node1 -->
<g id="node1" class="node"><title>Node1</title>
<polygon fill="#bfbfbf" stroke="black" points="7.5,-0.5 7.5,-19.5 84.5,-19.5 84.5,-0.5 7.5,-0.5"/>
<text text-anchor="middle" x="46" y="-7.5" font-family="Helvetica,sans-Serif" font-size="10.00">RedblackTree</text>
</g>
<!-- Node2 -->
<g id="node2" class="node"><title>Node2</title>
<g id="a_node2"><a xlink:href="interfaceumontreal_1_1ssj_1_1simevents_1_1eventlist_1_1EventList.html" target="_top" xlink:title="An interface for implementations of event lists. ">
<polygon fill="none" stroke="black" points="17,-56.5 17,-75.5 75,-75.5 75,-56.5 17,-56.5"/>
<text text-anchor="middle" x="46" y="-63.5" font-family="Helvetica,sans-Serif" font-size="10.00">EventList</text>
</a>
</g>
</g>
<!-- Node2&#45;&gt;Node1 -->
<g id="edge1" class="edge"><title>Node2&#45;&gt;Node1</title>
<path fill="none" stroke="midnightblue" d="M46,-45.8045C46,-36.9102 46,-26.7798 46,-19.7511"/>
<polygon fill="midnightblue" stroke="midnightblue" points="42.5001,-46.083 46,-56.083 49.5001,-46.083 42.5001,-46.083"/>
</g>
<!-- Node3 -->
<g id="node3" class="node"><title>Node3</title>
<polygon fill="none" stroke="#bfbfbf" points="0,-112.5 0,-131.5 92,-131.5 92,-112.5 0,-112.5"/>
<text text-anchor="middle" x="46" y="-119.5" font-family="Helvetica,sans-Serif" font-size="10.00">Iterable&lt; Event &gt;</text>
</g>
<!-- Node3&#45;&gt;Node2 -->
<g id="edge2" class="edge"><title>Node3&#45;&gt;Node2</title>
<path fill="none" stroke="midnightblue" d="M46,-101.805C46,-92.9102 46,-82.7798 46,-75.7511"/>
<polygon fill="midnightblue" stroke="midnightblue" points="42.5001,-102.083 46,-112.083 49.5001,-102.083 42.5001,-102.083"/>
</g>
</g>
</svg>
