<?xml version="1.0" encoding="UTF-8" standalone="no"?>
<!DOCTYPE svg PUBLIC "-//W3C//DTD SVG 1.1//EN"
 "http://www.w3.org/Graphics/SVG/1.1/DTD/svg11.dtd">
<!-- Generated by graphviz version 2.38.0 (20140413.2041)
 -->
<!-- Title: ListOfTalliesWithCovariance&lt; E extends Tally &gt; Pages: 1 -->
<svg width="145pt" height="151pt"
 viewBox="0.00 0.00 145.00 151.00" xmlns="http://www.w3.org/2000/svg" xmlns:xlink="http://www.w3.org/1999/xlink">
<g id="graph0" class="graph" transform="scale(1 1) rotate(0) translate(4 147)">
<title>ListOfTalliesWithCovariance&lt; E extends Tally &gt;</title>
<!-- Node0 -->
<g id="node1" class="node"><title>Node0</title>
<polygon fill="#bfbfbf" stroke="black" points="0,-56.5 0,-86.5 137,-86.5 137,-56.5 0,-56.5"/>
<text text-anchor="start" x="8" y="-74.5" font-family="Helvetica,sans-Serif" font-size="10.00">ListOfTalliesWithCovariance</text>
<text text-anchor="middle" x="68.5" y="-63.5" font-family="Helvetica,sans-Serif" font-size="10.00">&lt; E extends Tally &gt;</text>
</g>
<!-- Node2 -->
<g id="node3" class="node"><title>Node2</title>
<g id="a_node3"><a xlink:href="classumontreal_1_1ssj_1_1stat_1_1list_1_1lincv_1_1ListOfTalliesWithCV.html" target="_top" xlink:title="Represents a list of tallies with control variables that inherits the functionalities of a list of ta...">
<polygon fill="none" stroke="black" points="4.5,-0.5 4.5,-19.5 132.5,-19.5 132.5,-0.5 4.5,-0.5"/>
<text text-anchor="middle" x="68.5" y="-7.5" font-family="Helvetica,sans-Serif" font-size="10.00">ListOfTalliesWithCV&lt; E &gt;</text>
</a>
</g>
</g>
<!-- Node0&#45;&gt;Node2 -->
<g id="edge2" class="edge"><title>Node0&#45;&gt;Node2</title>
<path fill="none" stroke="midnightblue" d="M68.5,-46.2892C68.5,-36.857 68.5,-26.6548 68.5,-19.6578"/>
<polygon fill="midnightblue" stroke="midnightblue" points="65.0001,-46.3993 68.5,-56.3993 72.0001,-46.3994 65.0001,-46.3993"/>
</g>
<!-- Node1 -->
<g id="node2" class="node"><title>Node1</title>
<g id="a_node2"><a xlink:href="classumontreal_1_1ssj_1_1stat_1_1list_1_1ListOfTallies.html" target="_top" xlink:title="ListOfTallies\&lt; E \&gt;">
<polygon fill="none" stroke="black" points="21,-123.5 21,-142.5 116,-142.5 116,-123.5 21,-123.5"/>
<text text-anchor="middle" x="68.5" y="-130.5" font-family="Helvetica,sans-Serif" font-size="10.00">ListOfTallies&lt; E &gt;</text>
</a>
</g>
</g>
<!-- Node1&#45;&gt;Node0 -->
<g id="edge1" class="edge"><title>Node1&#45;&gt;Node0</title>
<path fill="none" stroke="midnightblue" d="M68.5,-113.235C68.5,-104.586 68.5,-94.4969 68.5,-86.523"/>
<polygon fill="midnightblue" stroke="midnightblue" points="65.0001,-113.475 68.5,-123.475 72.0001,-113.475 65.0001,-113.475"/>
</g>
</g>
</svg>
