<?xml version="1.0" encoding="UTF-8" standalone="no"?>
<!DOCTYPE svg PUBLIC "-//W3C//DTD SVG 1.1//EN"
 "http://www.w3.org/Graphics/SVG/1.1/DTD/svg11.dtd">
<!-- Generated by graphviz version 2.38.0 (20140413.2041)
 -->
<!-- Title: HistogramOnly Pages: 1 -->
<svg width="258pt" height="209pt"
 viewBox="0.00 0.00 257.50 209.00" xmlns="http://www.w3.org/2000/svg" xmlns:xlink="http://www.w3.org/1999/xlink">
<g id="graph0" class="graph" transform="scale(1 1) rotate(0) translate(4 205)">
<title>HistogramOnly</title>
<!-- Node5 -->
<g id="node1" class="node"><title>Node5</title>
<polygon fill="#bfbfbf" stroke="black" points="165.5,-0.5 165.5,-19.5 246.5,-19.5 246.5,-0.5 165.5,-0.5"/>
<text text-anchor="middle" x="206" y="-7.5" font-family="Helvetica,sans-Serif" font-size="10.00">HistogramOnly</text>
</g>
<!-- Node6 -->
<g id="node2" class="node"><title>Node6</title>
<g id="a_node2"><a xlink:href="classumontreal_1_1ssj_1_1stat_1_1TallyHistogram.html" target="_top" xlink:title="This class extends Tally. ">
<polygon fill="none" stroke="black" points="110.5,-57.5 110.5,-76.5 191.5,-76.5 191.5,-57.5 110.5,-57.5"/>
<text text-anchor="middle" x="151" y="-64.5" font-family="Helvetica,sans-Serif" font-size="10.00">TallyHistogram</text>
</a>
</g>
</g>
<!-- Node6&#45;&gt;Node5 -->
<g id="edge1" class="edge"><title>Node6&#45;&gt;Node5</title>
<path fill="none" stroke="midnightblue" d="M166.877,-50.1229C176.776,-40.2238 189.138,-27.8624 197.285,-19.7149"/>
<polygon fill="midnightblue" stroke="midnightblue" points="164.19,-47.8603 159.594,-57.4063 169.14,-52.81 164.19,-47.8603"/>
</g>
<!-- Node7 -->
<g id="node3" class="node"><title>Node7</title>
<g id="a_node3"><a xlink:href="classumontreal_1_1ssj_1_1stat_1_1Tally.html" target="_top" xlink:title="A subclass of StatProbe. ">
<polygon fill="none" stroke="black" points="100.5,-114.5 100.5,-133.5 137.5,-133.5 137.5,-114.5 100.5,-114.5"/>
<text text-anchor="middle" x="119" y="-121.5" font-family="Helvetica,sans-Serif" font-size="10.00">Tally</text>
</a>
</g>
</g>
<!-- Node7&#45;&gt;Node6 -->
<g id="edge2" class="edge"><title>Node7&#45;&gt;Node6</title>
<path fill="none" stroke="midnightblue" d="M129.103,-105.635C134.703,-96.0102 141.424,-84.459 145.93,-76.7149"/>
<polygon fill="midnightblue" stroke="midnightblue" points="126.004,-104.003 124,-114.406 132.054,-107.523 126.004,-104.003"/>
</g>
<!-- Node8 -->
<g id="node4" class="node"><title>Node8</title>
<g id="a_node4"><a xlink:href="classumontreal_1_1ssj_1_1stat_1_1StatProbe.html" target="_top" xlink:title="The objects of this class are statistical probes or collectors, which are elementary devices for coll...">
<polygon fill="none" stroke="black" points="0,-181.5 0,-200.5 60,-200.5 60,-181.5 0,-181.5"/>
<text text-anchor="middle" x="30" y="-188.5" font-family="Helvetica,sans-Serif" font-size="10.00">StatProbe</text>
</a>
</g>
</g>
<!-- Node8&#45;&gt;Node7 -->
<g id="edge3" class="edge"><title>Node8&#45;&gt;Node7</title>
<path fill="none" stroke="midnightblue" d="M50.4456,-175.068C68.0131,-162.238 92.7309,-144.185 107.187,-133.627"/>
<polygon fill="midnightblue" stroke="midnightblue" points="48.0143,-172.509 42.0029,-181.234 52.1428,-178.162 48.0143,-172.509"/>
</g>
<!-- Node9 -->
<g id="node5" class="node"><title>Node9</title>
<polygon fill="none" stroke="#bfbfbf" points="190.5,-181.5 190.5,-200.5 249.5,-200.5 249.5,-181.5 190.5,-181.5"/>
<text text-anchor="middle" x="220" y="-188.5" font-family="Helvetica,sans-Serif" font-size="10.00">Cloneable</text>
</g>
<!-- Node9&#45;&gt;Node5 -->
<g id="edge6" class="edge"><title>Node9&#45;&gt;Node5</title>
<path fill="none" stroke="midnightblue" d="M218.521,-171.086C215.517,-132.682 208.807,-46.8912 206.668,-19.5469"/>
<polygon fill="midnightblue" stroke="midnightblue" points="215.056,-171.67 219.325,-181.366 222.034,-171.124 215.056,-171.67"/>
</g>
<!-- Node9&#45;&gt;Node7 -->
<g id="edge4" class="edge"><title>Node9&#45;&gt;Node7</title>
<path fill="none" stroke="midnightblue" d="M211.064,-172.267C206.735,-165.151 200.956,-157.378 194,-152 177.249,-139.049 153.731,-131.934 137.518,-128.306"/>
<polygon fill="midnightblue" stroke="midnightblue" points="208.142,-174.217 216.042,-181.277 214.269,-170.831 208.142,-174.217"/>
</g>
<!-- Node10 -->
<g id="node6" class="node"><title>Node10</title>
<polygon fill="none" stroke="#bfbfbf" points="78,-181.5 78,-200.5 148,-200.5 148,-181.5 78,-181.5"/>
<text text-anchor="middle" x="113" y="-188.5" font-family="Helvetica,sans-Serif" font-size="10.00">Tally.CIType</text>
</g>
<!-- Node10&#45;&gt;Node7 -->
<g id="edge5" class="edge"><title>Node10&#45;&gt;Node7</title>
<path fill="none" stroke="#9a32cd" stroke-dasharray="5,2" d="M112.912,-171.214C113.038,-165.076 113.345,-158.235 114,-152 114.638,-145.931 115.888,-139.181 116.978,-133.949"/>
<polygon fill="#9a32cd" stroke="#9a32cd" points="109.412,-171.196 112.842,-181.221 116.411,-171.245 109.412,-171.196"/>
<text text-anchor="middle" x="154" y="-155" font-family="Helvetica,sans-Serif" font-size="10.00"> confidenceInterval</text>
</g>
</g>
</svg>
