<?xml version="1.0" encoding="UTF-8" standalone="no"?>
<!DOCTYPE svg PUBLIC "-//W3C//DTD SVG 1.1//EN"
 "http://www.w3.org/Graphics/SVG/1.1/DTD/svg11.dtd">
<!-- Generated by graphviz version 2.38.0 (20140413.2041)
 -->
<!-- Title: GammaProcessBridge Pages: 1 -->
<svg width="284pt" height="295pt"
 viewBox="0.00 0.00 284.00 295.00" xmlns="http://www.w3.org/2000/svg" xmlns:xlink="http://www.w3.org/1999/xlink">
<g id="graph0" class="graph" transform="scale(1 1) rotate(0) translate(4 291)">
<title>GammaProcessBridge</title>
<!-- Node4 -->
<g id="node1" class="node"><title>Node4</title>
<polygon fill="#bfbfbf" stroke="black" points="12,-0.5 12,-19.5 127,-19.5 127,-0.5 12,-0.5"/>
<text text-anchor="middle" x="69.5" y="-7.5" font-family="Helvetica,sans-Serif" font-size="10.00">GammaProcessBridge</text>
</g>
<!-- Node5 -->
<g id="node2" class="node"><title>Node5</title>
<g id="a_node2"><a xlink:href="classumontreal_1_1ssj_1_1stochprocess_1_1GammaProcess.html" target="_top" xlink:title="This class represents a gamma process   (page 82) &#160;with mean parameter &#160;and variance parameter ...">
<polygon fill="none" stroke="black" points="100,-57.5 100,-76.5 187,-76.5 187,-57.5 100,-57.5"/>
<text text-anchor="middle" x="143.5" y="-64.5" font-family="Helvetica,sans-Serif" font-size="10.00">GammaProcess</text>
</a>
</g>
</g>
<!-- Node5&#45;&gt;Node4 -->
<g id="edge1" class="edge"><title>Node5&#45;&gt;Node4</title>
<path fill="none" stroke="midnightblue" d="M123.704,-51.287C110.146,-41.2095 92.6217,-28.1851 81.2255,-19.7149"/>
<polygon fill="midnightblue" stroke="midnightblue" points="121.824,-54.2501 131.938,-57.4063 125.999,-48.6319 121.824,-54.2501"/>
</g>
<!-- Node6 -->
<g id="node3" class="node"><title>Node6</title>
<g id="a_node3"><a xlink:href="classumontreal_1_1ssj_1_1stochprocess_1_1StochasticProcess.html" target="_top" xlink:title="Abstract base class for a stochastic process &#160;sampled (or observed) at a finite number of time points...">
<polygon fill="none" stroke="black" points="177,-133.5 177,-152.5 276,-152.5 276,-133.5 177,-133.5"/>
<text text-anchor="middle" x="226.5" y="-140.5" font-family="Helvetica,sans-Serif" font-size="10.00">StochasticProcess</text>
</a>
</g>
</g>
<!-- Node6&#45;&gt;Node5 -->
<g id="edge2" class="edge"><title>Node6&#45;&gt;Node5</title>
<path fill="none" stroke="midnightblue" d="M209.041,-126.434C192.008,-111.248 166.729,-88.7098 153.078,-76.5395"/>
<polygon fill="midnightblue" stroke="midnightblue" points="206.859,-129.178 216.653,-133.221 211.518,-123.953 206.859,-129.178"/>
</g>
<!-- Node7 -->
<g id="node4" class="node"><title>Node7</title>
<g id="a_node4"><a xlink:href="classumontreal_1_1ssj_1_1randvar_1_1GammaGen.html" target="_top" xlink:title="This class implements random variate generators for the gamma distribution. ">
<polygon fill="none" stroke="black" points="51,-133.5 51,-152.5 120,-152.5 120,-133.5 51,-133.5"/>
<text text-anchor="middle" x="85.5" y="-140.5" font-family="Helvetica,sans-Serif" font-size="10.00">GammaGen</text>
</a>
</g>
</g>
<!-- Node7&#45;&gt;Node5 -->
<g id="edge3" class="edge"><title>Node7&#45;&gt;Node5</title>
<path fill="none" stroke="#9a32cd" stroke-dasharray="5,2" d="M91.5685,-123.874C95.24,-114.614 100.563,-103.533 107.5,-95 113.413,-87.7253 121.693,-81.338 128.821,-76.6046"/>
<polygon fill="#9a32cd" stroke="#9a32cd" points="88.2614,-122.727 88.1272,-133.321 94.8386,-125.123 88.2614,-122.727"/>
<text text-anchor="middle" x="121" y="-102.5" font-family="Helvetica,sans-Serif" font-size="10.00"> Ggen</text>
</g>
<!-- Node8 -->
<g id="node5" class="node"><title>Node8</title>
<g id="a_node5"><a xlink:href="classumontreal_1_1ssj_1_1randvar_1_1RandomVariateGen.html" target="_top" xlink:title="This is the base class for all random variate generators over the real line. ">
<polygon fill="none" stroke="black" points="12,-200.5 12,-219.5 113,-219.5 113,-200.5 12,-200.5"/>
<text text-anchor="middle" x="62.5" y="-207.5" font-family="Helvetica,sans-Serif" font-size="10.00">RandomVariateGen</text>
</a>
</g>
</g>
<!-- Node8&#45;&gt;Node7 -->
<g id="edge4" class="edge"><title>Node8&#45;&gt;Node7</title>
<path fill="none" stroke="midnightblue" d="M68.9435,-190.79C73.3604,-178.308 79.0198,-162.314 82.4473,-152.627"/>
<polygon fill="midnightblue" stroke="midnightblue" points="65.6382,-189.639 65.6019,-200.234 72.2373,-191.974 65.6382,-189.639"/>
</g>
<!-- Node11 -->
<g id="node8" class="node"><title>Node11</title>
<g id="a_node8"><a xlink:href="classumontreal_1_1ssj_1_1randvar_1_1BetaGen.html" target="_top" xlink:title="This class implements random variate generators with the beta distribution with shape parameters &#160;and...">
<polygon fill="none" stroke="black" points="0,-95.5 0,-114.5 55,-114.5 55,-95.5 0,-95.5"/>
<text text-anchor="middle" x="27.5" y="-102.5" font-family="Helvetica,sans-Serif" font-size="10.00">BetaGen</text>
</a>
</g>
</g>
<!-- Node8&#45;&gt;Node11 -->
<g id="edge9" class="edge"><title>Node8&#45;&gt;Node11</title>
<path fill="none" stroke="midnightblue" d="M55.2728,-190.703C51.0651,-179.817 45.766,-165.697 41.5,-153 37.0529,-139.764 32.558,-124.198 29.9017,-114.719"/>
<polygon fill="midnightblue" stroke="midnightblue" points="52.138,-192.297 59.038,-200.337 58.6578,-189.749 52.138,-192.297"/>
</g>
<!-- Node9 -->
<g id="node6" class="node"><title>Node9</title>
<g id="a_node6"><a xlink:href="interfaceumontreal_1_1ssj_1_1probdist_1_1Distribution.html" target="_top" xlink:title="This interface should be implemented by all classes supporting discrete and continuous distributions...">
<polygon fill="none" stroke="black" points="23,-267.5 23,-286.5 88,-286.5 88,-267.5 23,-267.5"/>
<text text-anchor="middle" x="55.5" y="-274.5" font-family="Helvetica,sans-Serif" font-size="10.00">Distribution</text>
</a>
</g>
</g>
<!-- Node9&#45;&gt;Node8 -->
<g id="edge5" class="edge"><title>Node9&#45;&gt;Node8</title>
<path fill="none" stroke="#9a32cd" stroke-dasharray="5,2" d="M56.0026,-257.21C56.2964,-251.072 56.7621,-244.233 57.5,-238 58.2174,-231.94 59.4674,-225.19 60.5381,-219.955"/>
<polygon fill="#9a32cd" stroke="#9a32cd" points="52.5045,-257.097 55.6375,-267.218 59.4998,-257.353 52.5045,-257.097"/>
<text text-anchor="middle" x="67" y="-241" font-family="Helvetica,sans-Serif" font-size="10.00"> dist</text>
</g>
<!-- Node10 -->
<g id="node7" class="node"><title>Node10</title>
<g id="a_node7"><a xlink:href="interfaceumontreal_1_1ssj_1_1rng_1_1RandomStream.html" target="_top" xlink:title="This interface defines the basic structures to handle multiple streams of uniform (pseudo)random numb...">
<polygon fill="none" stroke="black" points="106.5,-267.5 106.5,-286.5 190.5,-286.5 190.5,-267.5 106.5,-267.5"/>
<text text-anchor="middle" x="148.5" y="-274.5" font-family="Helvetica,sans-Serif" font-size="10.00">RandomStream</text>
</a>
</g>
</g>
<!-- Node10&#45;&gt;Node5 -->
<g id="edge7" class="edge"><title>Node10&#45;&gt;Node5</title>
<path fill="none" stroke="#9a32cd" stroke-dasharray="5,2" d="M148.051,-257.302C147.008,-213.934 144.457,-107.824 143.709,-76.7097"/>
<polygon fill="#9a32cd" stroke="#9a32cd" points="144.552,-257.414 148.292,-267.327 151.55,-257.246 144.552,-257.414"/>
<text text-anchor="middle" x="163.5" y="-174" font-family="Helvetica,sans-Serif" font-size="10.00"> stream</text>
</g>
<!-- Node10&#45;&gt;Node8 -->
<g id="edge6" class="edge"><title>Node10&#45;&gt;Node8</title>
<path fill="none" stroke="#9a32cd" stroke-dasharray="5,2" d="M121.247,-262.368C114.245,-258.415 106.89,-253.846 100.5,-249 88.7549,-240.092 77.0327,-227.705 69.779,-219.526"/>
<polygon fill="#9a32cd" stroke="#9a32cd" points="119.992,-265.668 130.453,-267.346 123.321,-259.511 119.992,-265.668"/>
<text text-anchor="middle" x="117.5" y="-241" font-family="Helvetica,sans-Serif" font-size="10.00"> stream</text>
</g>
<!-- Node11&#45;&gt;Node4 -->
<g id="edge8" class="edge"><title>Node11&#45;&gt;Node4</title>
<path fill="none" stroke="#9a32cd" stroke-dasharray="5,2" d="M35.5502,-86.1746C44.5727,-66.1961 58.8267,-34.6337 65.6334,-19.5618"/>
<polygon fill="#9a32cd" stroke="#9a32cd" points="32.3021,-84.8632 31.376,-95.4175 38.6817,-87.7443 32.3021,-84.8632"/>
<text text-anchor="middle" x="61.5" y="-64.5" font-family="Helvetica,sans-Serif" font-size="10.00"> Bgen</text>
</g>
</g>
</svg>
