<?xml version="1.0" encoding="UTF-8" standalone="no"?>
<!DOCTYPE svg PUBLIC "-//W3C//DTD SVG 1.1//EN"
 "http://www.w3.org/Graphics/SVG/1.1/DTD/svg11.dtd">
<!-- Generated by graphviz version 2.38.0 (20140413.2041)
 -->
<!-- Title: GammaProcessPCABridge Pages: 1 -->
<svg width="348pt" height="419pt"
 viewBox="0.00 0.00 347.50 419.00" xmlns="http://www.w3.org/2000/svg" xmlns:xlink="http://www.w3.org/1999/xlink">
<g id="graph0" class="graph" transform="scale(1 1) rotate(0) translate(4 415)">
<title>GammaProcessPCABridge</title>
<!-- Node5 -->
<g id="node1" class="node"><title>Node5</title>
<polygon fill="#bfbfbf" stroke="black" points="40,-0.5 40,-19.5 175,-19.5 175,-0.5 40,-0.5"/>
<text text-anchor="middle" x="107.5" y="-7.5" font-family="Helvetica,sans-Serif" font-size="10.00">GammaProcessPCABridge</text>
</g>
<!-- Node6 -->
<g id="node2" class="node"><title>Node6</title>
<g id="a_node2"><a xlink:href="classumontreal_1_1ssj_1_1stochprocess_1_1GammaProcessPCA.html" target="_top" xlink:title="Represents a gamma process sampled using the principal component analysis (PCA). ">
<polygon fill="none" stroke="black" points="137,-57.5 137,-76.5 244,-76.5 244,-57.5 137,-57.5"/>
<text text-anchor="middle" x="190.5" y="-64.5" font-family="Helvetica,sans-Serif" font-size="10.00">GammaProcessPCA</text>
</a>
</g>
</g>
<!-- Node6&#45;&gt;Node5 -->
<g id="edge1" class="edge"><title>Node6&#45;&gt;Node5</title>
<path fill="none" stroke="midnightblue" d="M169.108,-51.8244C153.686,-41.605 133.378,-28.1483 120.378,-19.5334"/>
<polygon fill="midnightblue" stroke="midnightblue" points="167.262,-54.8 177.531,-57.4063 171.129,-48.9648 167.262,-54.8"/>
</g>
<!-- Node7 -->
<g id="node3" class="node"><title>Node7</title>
<g id="a_node3"><a xlink:href="classumontreal_1_1ssj_1_1stochprocess_1_1GammaProcess.html" target="_top" xlink:title="This class represents a gamma process   (page 82) &#160;with mean parameter &#160;and variance parameter ...">
<polygon fill="none" stroke="black" points="191,-190.5 191,-209.5 278,-209.5 278,-190.5 191,-190.5"/>
<text text-anchor="middle" x="234.5" y="-197.5" font-family="Helvetica,sans-Serif" font-size="10.00">GammaProcess</text>
</a>
</g>
</g>
<!-- Node7&#45;&gt;Node6 -->
<g id="edge2" class="edge"><title>Node7&#45;&gt;Node6</title>
<path fill="none" stroke="midnightblue" d="M235.44,-180.143C235.726,-158.386 233.697,-122.127 219.5,-95 215.672,-87.6863 209.061,-81.2966 203.117,-76.5716"/>
<polygon fill="midnightblue" stroke="midnightblue" points="231.936,-180.226 235.118,-190.332 238.932,-180.447 231.936,-180.226"/>
</g>
<!-- Node8 -->
<g id="node4" class="node"><title>Node8</title>
<g id="a_node4"><a xlink:href="classumontreal_1_1ssj_1_1stochprocess_1_1StochasticProcess.html" target="_top" xlink:title="Abstract base class for a stochastic process &#160;sampled (or observed) at a finite number of time points...">
<polygon fill="none" stroke="black" points="83,-257.5 83,-276.5 182,-276.5 182,-257.5 83,-257.5"/>
<text text-anchor="middle" x="132.5" y="-264.5" font-family="Helvetica,sans-Serif" font-size="10.00">StochasticProcess</text>
</a>
</g>
</g>
<!-- Node8&#45;&gt;Node7 -->
<g id="edge3" class="edge"><title>Node8&#45;&gt;Node7</title>
<path fill="none" stroke="midnightblue" d="M154.832,-251.769C175.022,-238.903 204.09,-220.379 220.962,-209.627"/>
<polygon fill="midnightblue" stroke="midnightblue" points="152.808,-248.908 146.256,-257.234 156.57,-254.811 152.808,-248.908"/>
</g>
<!-- Node14 -->
<g id="node10" class="node"><title>Node14</title>
<g id="a_node10"><a xlink:href="classumontreal_1_1ssj_1_1stochprocess_1_1BrownianMotion.html" target="_top" xlink:title="This class represents a Brownian motion process , sampled at times . ">
<polygon fill="none" stroke="black" points="46.5,-190.5 46.5,-209.5 132.5,-209.5 132.5,-190.5 46.5,-190.5"/>
<text text-anchor="middle" x="89.5" y="-197.5" font-family="Helvetica,sans-Serif" font-size="10.00">BrownianMotion</text>
</a>
</g>
</g>
<!-- Node8&#45;&gt;Node14 -->
<g id="edge11" class="edge"><title>Node8&#45;&gt;Node14</title>
<path fill="none" stroke="midnightblue" d="M120.946,-248.535C112.621,-235.95 101.743,-219.507 95.2073,-209.627"/>
<polygon fill="midnightblue" stroke="midnightblue" points="118.264,-250.825 126.701,-257.234 124.103,-246.963 118.264,-250.825"/>
</g>
<!-- Node9 -->
<g id="node5" class="node"><title>Node9</title>
<g id="a_node5"><a xlink:href="classumontreal_1_1ssj_1_1randvar_1_1GammaGen.html" target="_top" xlink:title="This class implements random variate generators for the gamma distribution. ">
<polygon fill="none" stroke="black" points="200,-257.5 200,-276.5 269,-276.5 269,-257.5 200,-257.5"/>
<text text-anchor="middle" x="234.5" y="-264.5" font-family="Helvetica,sans-Serif" font-size="10.00">GammaGen</text>
</a>
</g>
</g>
<!-- Node9&#45;&gt;Node7 -->
<g id="edge4" class="edge"><title>Node9&#45;&gt;Node7</title>
<path fill="none" stroke="#9a32cd" stroke-dasharray="5,2" d="M234.5,-247.037C234.5,-234.67 234.5,-219.12 234.5,-209.627"/>
<polygon fill="#9a32cd" stroke="#9a32cd" points="231,-247.234 234.5,-257.234 238,-247.234 231,-247.234"/>
<text text-anchor="middle" x="248" y="-231" font-family="Helvetica,sans-Serif" font-size="10.00"> Ggen</text>
</g>
<!-- Node10 -->
<g id="node6" class="node"><title>Node10</title>
<g id="a_node6"><a xlink:href="classumontreal_1_1ssj_1_1randvar_1_1RandomVariateGen.html" target="_top" xlink:title="This is the base class for all random variate generators over the real line. ">
<polygon fill="none" stroke="black" points="161,-324.5 161,-343.5 262,-343.5 262,-324.5 161,-324.5"/>
<text text-anchor="middle" x="211.5" y="-331.5" font-family="Helvetica,sans-Serif" font-size="10.00">RandomVariateGen</text>
</a>
</g>
</g>
<!-- Node10&#45;&gt;Node9 -->
<g id="edge5" class="edge"><title>Node10&#45;&gt;Node9</title>
<path fill="none" stroke="midnightblue" d="M217.944,-314.79C222.36,-302.308 228.02,-286.314 231.447,-276.627"/>
<polygon fill="midnightblue" stroke="midnightblue" points="214.638,-313.639 214.602,-324.234 221.237,-315.974 214.638,-313.639"/>
</g>
<!-- Node15 -->
<g id="node11" class="node"><title>Node15</title>
<g id="a_node11"><a xlink:href="classumontreal_1_1ssj_1_1randvar_1_1NormalGen.html" target="_top" xlink:title="This class implements methods for generating random variates from the normal distribution ...">
<polygon fill="none" stroke="black" points="0,-257.5 0,-276.5 65,-276.5 65,-257.5 0,-257.5"/>
<text text-anchor="middle" x="32.5" y="-264.5" font-family="Helvetica,sans-Serif" font-size="10.00">NormalGen</text>
</a>
</g>
</g>
<!-- Node10&#45;&gt;Node15 -->
<g id="edge13" class="edge"><title>Node10&#45;&gt;Node15</title>
<path fill="none" stroke="midnightblue" d="M178.279,-320.936C142.769,-308.042 87.3683,-287.924 56.083,-276.564"/>
<polygon fill="midnightblue" stroke="midnightblue" points="177.136,-324.245 187.73,-324.369 179.525,-317.665 177.136,-324.245"/>
</g>
<!-- Node11 -->
<g id="node7" class="node"><title>Node11</title>
<g id="a_node7"><a xlink:href="interfaceumontreal_1_1ssj_1_1probdist_1_1Distribution.html" target="_top" xlink:title="This interface should be implemented by all classes supporting discrete and continuous distributions...">
<polygon fill="none" stroke="black" points="172,-391.5 172,-410.5 237,-410.5 237,-391.5 172,-391.5"/>
<text text-anchor="middle" x="204.5" y="-398.5" font-family="Helvetica,sans-Serif" font-size="10.00">Distribution</text>
</a>
</g>
</g>
<!-- Node11&#45;&gt;Node10 -->
<g id="edge6" class="edge"><title>Node11&#45;&gt;Node10</title>
<path fill="none" stroke="#9a32cd" stroke-dasharray="5,2" d="M205.003,-381.21C205.296,-375.072 205.762,-368.233 206.5,-362 207.217,-355.94 208.467,-349.19 209.538,-343.955"/>
<polygon fill="#9a32cd" stroke="#9a32cd" points="201.504,-381.097 204.637,-391.218 208.5,-381.353 201.504,-381.097"/>
<text text-anchor="middle" x="216" y="-365" font-family="Helvetica,sans-Serif" font-size="10.00"> dist</text>
</g>
<!-- Node12 -->
<g id="node8" class="node"><title>Node12</title>
<g id="a_node8"><a xlink:href="interfaceumontreal_1_1ssj_1_1rng_1_1RandomStream.html" target="_top" xlink:title="This interface defines the basic structures to handle multiple streams of uniform (pseudo)random numb...">
<polygon fill="none" stroke="black" points="255.5,-391.5 255.5,-410.5 339.5,-410.5 339.5,-391.5 255.5,-391.5"/>
<text text-anchor="middle" x="297.5" y="-398.5" font-family="Helvetica,sans-Serif" font-size="10.00">RandomStream</text>
</a>
</g>
</g>
<!-- Node12&#45;&gt;Node7 -->
<g id="edge8" class="edge"><title>Node12&#45;&gt;Node7</title>
<path fill="none" stroke="#9a32cd" stroke-dasharray="5,2" d="M296.734,-381.254C295.219,-353.592 290.835,-300.425 278.5,-257 274.641,-243.413 273.911,-239.348 265.5,-228 260.315,-221.005 253.032,-214.545 246.827,-209.699"/>
<polygon fill="#9a32cd" stroke="#9a32cd" points="293.247,-381.624 297.222,-391.445 300.239,-381.289 293.247,-381.624"/>
<text text-anchor="middle" x="305.5" y="-298" font-family="Helvetica,sans-Serif" font-size="10.00"> stream</text>
</g>
<!-- Node12&#45;&gt;Node10 -->
<g id="edge7" class="edge"><title>Node12&#45;&gt;Node10</title>
<path fill="none" stroke="#9a32cd" stroke-dasharray="5,2" d="M270.247,-386.368C263.245,-382.415 255.89,-377.846 249.5,-373 237.755,-364.092 226.033,-351.705 218.779,-343.526"/>
<polygon fill="#9a32cd" stroke="#9a32cd" points="268.992,-389.668 279.453,-391.346 272.321,-383.511 268.992,-389.668"/>
<text text-anchor="middle" x="266.5" y="-365" font-family="Helvetica,sans-Serif" font-size="10.00"> stream</text>
</g>
<!-- Node13 -->
<g id="node9" class="node"><title>Node13</title>
<g id="a_node9"><a xlink:href="classumontreal_1_1ssj_1_1stochprocess_1_1BrownianMotionPCA.html" target="_top" xlink:title="A Brownian motion process &#160;sampled using the principal component decomposition (PCA) ...">
<polygon fill="none" stroke="black" points="100.5,-133.5 100.5,-152.5 206.5,-152.5 206.5,-133.5 100.5,-133.5"/>
<text text-anchor="middle" x="153.5" y="-140.5" font-family="Helvetica,sans-Serif" font-size="10.00">BrownianMotionPCA</text>
</a>
</g>
</g>
<!-- Node13&#45;&gt;Node6 -->
<g id="edge9" class="edge"><title>Node13&#45;&gt;Node6</title>
<path fill="none" stroke="#9a32cd" stroke-dasharray="5,2" d="M162.529,-123.942C170.015,-108.971 180.333,-88.3336 186.116,-76.7679"/>
<polygon fill="#9a32cd" stroke="#9a32cd" points="159.231,-122.711 157.89,-133.221 165.492,-125.842 159.231,-122.711"/>
<text text-anchor="middle" x="196" y="-102.5" font-family="Helvetica,sans-Serif" font-size="10.00"> BMPCA</text>
</g>
<!-- Node14&#45;&gt;Node13 -->
<g id="edge10" class="edge"><title>Node14&#45;&gt;Node13</title>
<path fill="none" stroke="midnightblue" d="M107.294,-183.708C118.923,-173.715 133.691,-161.024 143.359,-152.715"/>
<polygon fill="midnightblue" stroke="midnightblue" points="104.803,-181.234 99.5,-190.406 109.365,-186.543 104.803,-181.234"/>
</g>
<!-- Node16 -->
<g id="node12" class="node"><title>Node16</title>
<g id="a_node12"><a xlink:href="classumontreal_1_1ssj_1_1stochprocess_1_1BrownianMotionBridge.html" target="_top" xlink:title="Represents a Brownian motion process &#160;sampled using the bridge sampling technique (see for example  ...">
<polygon fill="none" stroke="black" points="16,-95.5 16,-114.5 129,-114.5 129,-95.5 16,-95.5"/>
<text text-anchor="middle" x="72.5" y="-102.5" font-family="Helvetica,sans-Serif" font-size="10.00">BrownianMotionBridge</text>
</a>
</g>
</g>
<!-- Node14&#45;&gt;Node16 -->
<g id="edge15" class="edge"><title>Node14&#45;&gt;Node16</title>
<path fill="none" stroke="midnightblue" d="M86.0896,-180.343C82.4314,-160.331 76.7822,-129.426 74.0651,-114.562"/>
<polygon fill="midnightblue" stroke="midnightblue" points="82.69,-181.21 87.9312,-190.417 89.5759,-179.951 82.69,-181.21"/>
</g>
<!-- Node15&#45;&gt;Node14 -->
<g id="edge12" class="edge"><title>Node15&#45;&gt;Node14</title>
<path fill="none" stroke="#9a32cd" stroke-dasharray="5,2" d="M46.851,-249.635C57.9985,-236.923 73.0158,-219.798 81.9345,-209.627"/>
<polygon fill="#9a32cd" stroke="#9a32cd" points="44.149,-247.408 40.1873,-257.234 49.4121,-252.023 44.149,-247.408"/>
<text text-anchor="middle" x="74" y="-231" font-family="Helvetica,sans-Serif" font-size="10.00"> gen</text>
</g>
<!-- Node16&#45;&gt;Node5 -->
<g id="edge14" class="edge"><title>Node16&#45;&gt;Node5</title>
<path fill="none" stroke="#9a32cd" stroke-dasharray="5,2" d="M74.6259,-85.485C75.9929,-76.6754 78.1583,-66.103 81.5,-57 86.5581,-43.2215 95.4498,-28.6974 101.407,-19.7419"/>
<polygon fill="#9a32cd" stroke="#9a32cd" points="71.1486,-85.0822 73.2927,-95.4578 78.0869,-86.0097 71.1486,-85.0822"/>
<text text-anchor="middle" x="104.5" y="-64.5" font-family="Helvetica,sans-Serif" font-size="10.00"> BMBridge</text>
</g>
</g>
</svg>
