<?xml version="1.0" encoding="UTF-8" standalone="no"?>
<!DOCTYPE svg PUBLIC "-//W3C//DTD SVG 1.1//EN"
 "http://www.w3.org/Graphics/SVG/1.1/DTD/svg11.dtd">
<!-- Generated by graphviz version 2.26.3 (20100126.1600)
 -->
<!-- Title: BakerTransformedPointSet Pages: 1 -->
<svg width="142pt" height="230pt"
 viewBox="0.00 0.00 142.00 230.00" xmlns="http://www.w3.org/2000/svg" xmlns:xlink="http://www.w3.org/1999/xlink">
<g id="graph1" class="graph" transform="scale(1 1) rotate(0) translate(4 226)">
<title>BakerTransformedPointSet</title>
<!-- Node1 -->
<g id="node1" class="node"><title>Node1</title>
<polygon fill="#bfbfbf" stroke="black" points="0,-1 0,-21 134,-21 134,-1 0,-1"/>
<text text-anchor="middle" x="67" y="-8" font-family="Helvetica,sans-Serif" font-size="10.00">BakerTransformedPointSet</text>
</g>
<!-- Node2 -->
<g id="node2" class="node"><title>Node2</title>
<a xlink:href="classumontreal_1_1ssj_1_1hups_1_1ContainerPointSet.html" target="_top" xlink:title="This acts as a generic base class for all container classes that contain a point set and apply some k...">
<polygon fill="none" stroke="black" points="19.5,-61 19.5,-81 114.5,-81 114.5,-61 19.5,-61"/>
<text text-anchor="middle" x="67" y="-68" font-family="Helvetica,sans-Serif" font-size="10.00">ContainerPointSet</text>
</a>
</g>
<!-- Node2&#45;&gt;Node1 -->
<g id="edge2" class="edge"><title>Node2&#45;&gt;Node1</title>
<path fill="none" stroke="midnightblue" d="M67,-50.5155C67,-40.562 67,-29.0495 67,-21.0279"/>
<polygon fill="midnightblue" stroke="midnightblue" points="63.5001,-50.8218 67,-60.8218 70.5001,-50.8219 63.5001,-50.8218"/>
</g>
<!-- Node3 -->
<g id="node4" class="node"><title>Node3</title>
<a xlink:href="classumontreal_1_1ssj_1_1hups_1_1PointSet.html" target="_top" xlink:title="This abstract class defines the basic methods for accessing and manipulating point sets...">
<polygon fill="none" stroke="black" points="40,-131 40,-151 94,-151 94,-131 40,-131"/>
<text text-anchor="middle" x="67" y="-138" font-family="Helvetica,sans-Serif" font-size="10.00">PointSet</text>
</a>
</g>
<!-- Node3&#45;&gt;Node2 -->
<g id="edge4" class="edge"><title>Node3&#45;&gt;Node2</title>
<path fill="none" stroke="midnightblue" d="M65.3432,-120.737C64.9815,-114.128 64.7674,-106.753 65,-100 65.2154,-93.7458 65.6914,-86.7464 66.1249,-81.1911"/>
<polygon fill="midnightblue" stroke="midnightblue" points="61.8636,-121.156 66.0386,-130.894 68.8472,-120.678 61.8636,-121.156"/>
</g>
<!-- Node3&#45;&gt;Node2 -->
<g id="edge8" class="edge"><title>Node3&#45;&gt;Node2</title>
<path fill="none" stroke="#9a32cd" stroke-dasharray="5,2" d="M67,-120.613C67,-107.597 67,-91.2956 67,-81.0107"/>
<polygon fill="#9a32cd" stroke="#9a32cd" points="63.5001,-120.971 67,-130.971 70.5001,-120.971 63.5001,-120.971"/>
<text text-anchor="middle" x="72" y="-103" font-family="Helvetica,sans-Serif" font-size="10.00"> P</text>
</g>
<!-- Node4 -->
<g id="node6" class="node"><title>Node4</title>
<a xlink:href="interfaceumontreal_1_1ssj_1_1rng_1_1RandomStream.html" target="_top" xlink:title="This interface defines the basic structures to handle multiple streams of uniform (pseudo)random numb...">
<polygon fill="none" stroke="black" points="25,-201 25,-221 109,-221 109,-201 25,-201"/>
<text text-anchor="middle" x="67" y="-208" font-family="Helvetica,sans-Serif" font-size="10.00">RandomStream</text>
</a>
</g>
<!-- Node4&#45;&gt;Node3 -->
<g id="edge6" class="edge"><title>Node4&#45;&gt;Node3</title>
<path fill="none" stroke="#9a32cd" stroke-dasharray="5,2" d="M67,-190.613C67,-177.597 67,-161.296 67,-151.011"/>
<polygon fill="#9a32cd" stroke="#9a32cd" points="63.5001,-190.971 67,-200.971 70.5001,-190.971 63.5001,-190.971"/>
<text text-anchor="middle" x="94" y="-173" font-family="Helvetica,sans-Serif" font-size="10.00"> shiftStream</text>
</g>
</g>
</svg>
