<?xml version="1.0" encoding="UTF-8" standalone="no"?>
<!DOCTYPE svg PUBLIC "-//W3C//DTD SVG 1.1//EN"
 "http://www.w3.org/Graphics/SVG/1.1/DTD/svg11.dtd">
<!-- Generated by graphviz version 2.38.0 (20140413.2041)
 -->
<!-- Title: Inventory Pages: 1 -->
<svg width="460pt" height="240pt"
 viewBox="0.00 0.00 460.00 240.00" xmlns="http://www.w3.org/2000/svg" xmlns:xlink="http://www.w3.org/1999/xlink">
<g id="graph0" class="graph" transform="scale(1 1) rotate(0) translate(4 236)">
<title>Inventory</title>
<!-- Node2 -->
<g id="node1" class="node"><title>Node2</title>
<polygon fill="#bfbfbf" stroke="black" points="264.5,-0.5 264.5,-19.5 319.5,-19.5 319.5,-0.5 264.5,-0.5"/>
<text text-anchor="middle" x="292" y="-7.5" font-family="Helvetica,sans-Serif" font-size="10.00">Inventory</text>
</g>
<!-- Node3 -->
<g id="node2" class="node"><title>Node3</title>
<g id="a_node2"><a xlink:href="classumontreal_1_1ssj_1_1stat_1_1Tally.html" target="_top" xlink:title="A subclass of StatProbe. ">
<polygon fill="none" stroke="black" points="131.5,-67.5 131.5,-86.5 168.5,-86.5 168.5,-67.5 131.5,-67.5"/>
<text text-anchor="middle" x="150" y="-74.5" font-family="Helvetica,sans-Serif" font-size="10.00">Tally</text>
</a>
</g>
</g>
<!-- Node3&#45;&gt;Node2 -->
<g id="edge1" class="edge"><title>Node3&#45;&gt;Node2</title>
<path fill="none" stroke="#9a32cd" stroke-dasharray="5,2" d="M177.84,-63.2563C205.928,-50.3989 248.539,-30.8939 272.978,-19.7072"/>
<polygon fill="#9a32cd" stroke="#9a32cd" points="176.2,-60.1578 168.564,-67.5024 179.113,-66.5226 176.2,-60.1578"/>
<text text-anchor="middle" x="251.5" y="-41" font-family="Helvetica,sans-Serif" font-size="10.00"> statProfit</text>
</g>
<!-- Node4 -->
<g id="node3" class="node"><title>Node4</title>
<g id="a_node3"><a xlink:href="classumontreal_1_1ssj_1_1stat_1_1StatProbe.html" target="_top" xlink:title="The objects of this class are statistical probes or collectors, which are elementary devices for coll...">
<polygon fill="none" stroke="black" points="0,-145.5 0,-164.5 60,-164.5 60,-145.5 0,-145.5"/>
<text text-anchor="middle" x="30" y="-152.5" font-family="Helvetica,sans-Serif" font-size="10.00">StatProbe</text>
</a>
</g>
</g>
<!-- Node4&#45;&gt;Node3 -->
<g id="edge2" class="edge"><title>Node4&#45;&gt;Node3</title>
<path fill="none" stroke="midnightblue" d="M52.461,-139.775C77.1349,-124.148 115.966,-99.5551 136.395,-86.6165"/>
<polygon fill="midnightblue" stroke="midnightblue" points="50.341,-136.974 43.7655,-145.282 54.0864,-142.888 50.341,-136.974"/>
</g>
<!-- Node5 -->
<g id="node4" class="node"><title>Node5</title>
<polygon fill="none" stroke="#bfbfbf" points="78.5,-145.5 78.5,-164.5 137.5,-164.5 137.5,-145.5 78.5,-145.5"/>
<text text-anchor="middle" x="108" y="-152.5" font-family="Helvetica,sans-Serif" font-size="10.00">Cloneable</text>
</g>
<!-- Node5&#45;&gt;Node3 -->
<g id="edge3" class="edge"><title>Node5&#45;&gt;Node3</title>
<path fill="none" stroke="midnightblue" d="M117.88,-136.122C126.497,-120.53 138.623,-98.5862 145.238,-86.6165"/>
<polygon fill="midnightblue" stroke="midnightblue" points="114.591,-134.836 112.818,-145.282 120.718,-138.222 114.591,-134.836"/>
</g>
<!-- Node6 -->
<g id="node5" class="node"><title>Node6</title>
<polygon fill="none" stroke="#bfbfbf" points="156,-145.5 156,-164.5 226,-164.5 226,-145.5 156,-145.5"/>
<text text-anchor="middle" x="191" y="-152.5" font-family="Helvetica,sans-Serif" font-size="10.00">Tally.CIType</text>
</g>
<!-- Node6&#45;&gt;Node3 -->
<g id="edge4" class="edge"><title>Node6&#45;&gt;Node3</title>
<path fill="none" stroke="#9a32cd" stroke-dasharray="5,2" d="M181.355,-136.122C172.944,-120.53 161.106,-98.5862 154.648,-86.6165"/>
<polygon fill="#9a32cd" stroke="#9a32cd" points="178.468,-138.143 186.297,-145.282 184.629,-134.819 178.468,-138.143"/>
<text text-anchor="middle" x="216" y="-113.5" font-family="Helvetica,sans-Serif" font-size="10.00"> confidenceInterval</text>
</g>
<!-- Node7 -->
<g id="node6" class="node"><title>Node7</title>
<g id="a_node6"><a xlink:href="classumontreal_1_1ssj_1_1randvar_1_1RandomVariateGenInt.html" target="_top" xlink:title="This is the base class for all generators of discrete random variates over the set of integers...">
<polygon fill="none" stroke="black" points="236,-67.5 236,-86.5 348,-86.5 348,-67.5 236,-67.5"/>
<text text-anchor="middle" x="292" y="-74.5" font-family="Helvetica,sans-Serif" font-size="10.00">RandomVariateGenInt</text>
</a>
</g>
</g>
<!-- Node7&#45;&gt;Node2 -->
<g id="edge5" class="edge"><title>Node7&#45;&gt;Node2</title>
<path fill="none" stroke="#9a32cd" stroke-dasharray="5,2" d="M292,-57.037C292,-44.6703 292,-29.1198 292,-19.6273"/>
<polygon fill="#9a32cd" stroke="#9a32cd" points="288.5,-57.2338 292,-67.2338 295.5,-57.2338 288.5,-57.2338"/>
<text text-anchor="middle" x="319.5" y="-41" font-family="Helvetica,sans-Serif" font-size="10.00"> genDemand</text>
</g>
<!-- Node8 -->
<g id="node7" class="node"><title>Node8</title>
<g id="a_node7"><a xlink:href="classumontreal_1_1ssj_1_1randvar_1_1RandomVariateGen.html" target="_top" xlink:title="This is the base class for all random variate generators over the real line. ">
<polygon fill="none" stroke="black" points="244.5,-145.5 244.5,-164.5 345.5,-164.5 345.5,-145.5 244.5,-145.5"/>
<text text-anchor="middle" x="295" y="-152.5" font-family="Helvetica,sans-Serif" font-size="10.00">RandomVariateGen</text>
</a>
</g>
</g>
<!-- Node8&#45;&gt;Node7 -->
<g id="edge6" class="edge"><title>Node8&#45;&gt;Node7</title>
<path fill="none" stroke="midnightblue" d="M294.259,-135.224C293.646,-119.697 292.804,-98.3582 292.34,-86.6165"/>
<polygon fill="midnightblue" stroke="midnightblue" points="290.764,-135.428 294.656,-145.282 297.759,-135.152 290.764,-135.428"/>
</g>
<!-- Node9 -->
<g id="node8" class="node"><title>Node9</title>
<g id="a_node8"><a xlink:href="interfaceumontreal_1_1ssj_1_1probdist_1_1Distribution.html" target="_top" xlink:title="This interface should be implemented by all classes supporting discrete and continuous distributions...">
<polygon fill="none" stroke="black" points="250.5,-212.5 250.5,-231.5 315.5,-231.5 315.5,-212.5 250.5,-212.5"/>
<text text-anchor="middle" x="283" y="-219.5" font-family="Helvetica,sans-Serif" font-size="10.00">Distribution</text>
</a>
</g>
</g>
<!-- Node9&#45;&gt;Node8 -->
<g id="edge7" class="edge"><title>Node9&#45;&gt;Node8</title>
<path fill="none" stroke="#9a32cd" stroke-dasharray="5,2" d="M282.862,-202.35C283.112,-196.143 283.714,-189.227 285,-183 286.294,-176.734 288.794,-169.984 290.97,-164.8"/>
<polygon fill="#9a32cd" stroke="#9a32cd" points="279.361,-202.406 282.72,-212.455 286.36,-202.505 279.361,-202.406"/>
<text text-anchor="middle" x="294.5" y="-186" font-family="Helvetica,sans-Serif" font-size="10.00"> dist</text>
</g>
<!-- Node10 -->
<g id="node9" class="node"><title>Node10</title>
<g id="a_node9"><a xlink:href="interfaceumontreal_1_1ssj_1_1rng_1_1RandomStream.html" target="_top" xlink:title="This interface defines the basic structures to handle multiple streams of uniform (pseudo)random numb...">
<polygon fill="none" stroke="black" points="334,-212.5 334,-231.5 418,-231.5 418,-212.5 334,-212.5"/>
<text text-anchor="middle" x="376" y="-219.5" font-family="Helvetica,sans-Serif" font-size="10.00">RandomStream</text>
</a>
</g>
</g>
<!-- Node10&#45;&gt;Node2 -->
<g id="edge9" class="edge"><title>Node10&#45;&gt;Node2</title>
<path fill="none" stroke="#9a32cd" stroke-dasharray="5,2" d="M379.202,-202.057C384.186,-165.918 389.588,-86.4255 351,-38 343.138,-28.1331 330.862,-21.7317 319.539,-17.6522"/>
<polygon fill="#9a32cd" stroke="#9a32cd" points="375.707,-201.758 377.655,-212.173 382.627,-202.817 375.707,-201.758"/>
<text text-anchor="middle" x="417" y="-119" font-family="Helvetica,sans-Serif" font-size="10.00"> streamDemand</text>
<text text-anchor="middle" x="417" y="-108" font-family="Helvetica,sans-Serif" font-size="10.00">streamOrder</text>
</g>
<!-- Node10&#45;&gt;Node8 -->
<g id="edge8" class="edge"><title>Node10&#45;&gt;Node8</title>
<path fill="none" stroke="#9a32cd" stroke-dasharray="5,2" d="M348.166,-207.474C341.272,-203.561 334.113,-198.985 328,-194 317.3,-185.276 307.238,-172.846 301.102,-164.607"/>
<polygon fill="#9a32cd" stroke="#9a32cd" points="346.817,-210.722 357.282,-212.375 350.132,-204.557 346.817,-210.722"/>
<text text-anchor="middle" x="345" y="-186" font-family="Helvetica,sans-Serif" font-size="10.00"> stream</text>
</g>
</g>
</svg>
