<?xml version="1.0" encoding="UTF-8" standalone="no"?>
<!DOCTYPE svg PUBLIC "-//W3C//DTD SVG 1.1//EN"
 "http://www.w3.org/Graphics/SVG/1.1/DTD/svg11.dtd">
<!-- Generated by graphviz version 2.26.3 (20100126.1600)
 -->
<!-- Title: Rank1Lattice Pages: 1 -->
<svg width="132pt" height="204pt"
 viewBox="0.00 0.00 132.00 204.00" xmlns="http://www.w3.org/2000/svg" xmlns:xlink="http://www.w3.org/1999/xlink">
<g id="graph1" class="graph" transform="scale(1 1) rotate(0) translate(4 200)">
<title>Rank1Lattice</title>
<!-- Node1 -->
<g id="node1" class="node"><title>Node1</title>
<polygon fill="#bfbfbf" stroke="black" points="25,-117 25,-137 99,-137 99,-117 25,-117"/>
<text text-anchor="middle" x="62" y="-124" font-family="Helvetica,sans-Serif" font-size="10.00">Rank1Lattice</text>
</g>
<!-- Node3 -->
<g id="node5" class="node"><title>Node3</title>
<a xlink:href="classumontreal_1_1ssj_1_1hups_1_1KorobovLattice.html" target="_top" xlink:title="This class implements Korobov lattices, which represents the same point sets as in class LCGPointSet...">
<polygon fill="none" stroke="black" points="21,-59 21,-79 103,-79 103,-59 21,-59"/>
<text text-anchor="middle" x="62" y="-66" font-family="Helvetica,sans-Serif" font-size="10.00">KorobovLattice</text>
</a>
</g>
<!-- Node1&#45;&gt;Node3 -->
<g id="edge4" class="edge"><title>Node1&#45;&gt;Node3</title>
<path fill="none" stroke="midnightblue" d="M62,-106.89C62,-97.6201 62,-87.0083 62,-79.3776"/>
<polygon fill="midnightblue" stroke="midnightblue" points="58.5001,-106.897 62,-116.897 65.5001,-106.897 58.5001,-106.897"/>
</g>
<!-- Node2 -->
<g id="node2" class="node"><title>Node2</title>
<a xlink:href="classumontreal_1_1ssj_1_1hups_1_1PointSet.html" target="_top" xlink:title="This abstract class defines the basic methods for accessing and manipulating point sets...">
<polygon fill="none" stroke="black" points="35,-175 35,-195 89,-195 89,-175 35,-175"/>
<text text-anchor="middle" x="62" y="-182" font-family="Helvetica,sans-Serif" font-size="10.00">PointSet</text>
</a>
</g>
<!-- Node2&#45;&gt;Node1 -->
<g id="edge2" class="edge"><title>Node2&#45;&gt;Node1</title>
<path fill="none" stroke="midnightblue" d="M62,-164.89C62,-155.62 62,-145.008 62,-137.378"/>
<polygon fill="midnightblue" stroke="midnightblue" points="58.5001,-164.897 62,-174.897 65.5001,-164.897 58.5001,-164.897"/>
</g>
<!-- Node4 -->
<g id="node7" class="node"><title>Node4</title>
<a xlink:href="classumontreal_1_1ssj_1_1hups_1_1KorobovLatticeSequence.html" target="_top" xlink:title="KorobovLatticeSequence">
<polygon fill="none" stroke="black" points="-0.5,-1 -0.5,-21 124.5,-21 124.5,-1 -0.5,-1"/>
<text text-anchor="middle" x="62" y="-8" font-family="Helvetica,sans-Serif" font-size="10.00">KorobovLatticeSequence</text>
</a>
</g>
<!-- Node3&#45;&gt;Node4 -->
<g id="edge6" class="edge"><title>Node3&#45;&gt;Node4</title>
<path fill="none" stroke="midnightblue" d="M62,-48.8902C62,-39.6201 62,-29.0083 62,-21.3776"/>
<polygon fill="midnightblue" stroke="midnightblue" points="58.5001,-48.8971 62,-58.8972 65.5001,-48.8972 58.5001,-48.8971"/>
</g>
</g>
</svg>
