<?xml version="1.0" encoding="UTF-8" standalone="no"?>
<!DOCTYPE svg PUBLIC "-//W3C//DTD SVG 1.1//EN"
 "http://www.w3.org/Graphics/SVG/1.1/DTD/svg11.dtd">
<!-- Generated by graphviz version 2.26.3 (20100126.1600)
 -->
<!-- Title: ExponentialInverseFromDensityGen Pages: 1 -->
<svg width="182pt" height="220pt"
 viewBox="0.00 0.00 182.00 220.00" xmlns="http://www.w3.org/2000/svg" xmlns:xlink="http://www.w3.org/1999/xlink">
<g id="graph1" class="graph" transform="scale(1 1) rotate(0) translate(4 216)">
<title>ExponentialInverseFromDensityGen</title>
<!-- Node1 -->
<g id="node1" class="node"><title>Node1</title>
<polygon fill="#bfbfbf" stroke="black" points="-0.5,-1 -0.5,-21 172.5,-21 172.5,-1 -0.5,-1"/>
<text text-anchor="middle" x="86" y="-8" font-family="Helvetica,sans-Serif" font-size="10.00">ExponentialInverseFromDensityGen</text>
</g>
<!-- Node2 -->
<g id="node2" class="node"><title>Node2</title>
<a xlink:href="classumontreal_1_1ssj_1_1randvar_1_1ExponentialGen.html" target="_top" xlink:title="This class implements random variate generators for the exponential distribution. ...">
<polygon fill="none" stroke="black" points="43,-61 43,-81 129,-81 129,-61 43,-61"/>
<text text-anchor="middle" x="86" y="-68" font-family="Helvetica,sans-Serif" font-size="10.00">ExponentialGen</text>
</a>
</g>
<!-- Node2&#45;&gt;Node1 -->
<g id="edge2" class="edge"><title>Node2&#45;&gt;Node1</title>
<path fill="none" stroke="midnightblue" d="M86,-50.5155C86,-40.562 86,-29.0495 86,-21.0279"/>
<polygon fill="midnightblue" stroke="midnightblue" points="82.5001,-50.8218 86,-60.8218 89.5001,-50.8219 82.5001,-50.8218"/>
</g>
<!-- Node3 -->
<g id="node4" class="node"><title>Node3</title>
<a xlink:href="classumontreal_1_1ssj_1_1randvar_1_1RandomVariateGen.html" target="_top" xlink:title="This is the base class for all random variate generators over the real line. ">
<polygon fill="none" stroke="black" points="35.5,-121 35.5,-141 136.5,-141 136.5,-121 35.5,-121"/>
<text text-anchor="middle" x="86" y="-128" font-family="Helvetica,sans-Serif" font-size="10.00">RandomVariateGen</text>
</a>
</g>
<!-- Node3&#45;&gt;Node2 -->
<g id="edge4" class="edge"><title>Node3&#45;&gt;Node2</title>
<path fill="none" stroke="midnightblue" d="M86,-110.516C86,-100.562 86,-89.0495 86,-81.0279"/>
<polygon fill="midnightblue" stroke="midnightblue" points="82.5001,-110.822 86,-120.822 89.5001,-110.822 82.5001,-110.822"/>
</g>
<!-- Node4 -->
<g id="node6" class="node"><title>Node4</title>
<a xlink:href="interfaceumontreal_1_1ssj_1_1probdist_1_1Distribution.html" target="_top" xlink:title="This interface should be implemented by all classes supporting discrete and continuous distributions...">
<polygon fill="none" stroke="black" points="7.5,-191 7.5,-211 72.5,-211 72.5,-191 7.5,-191"/>
<text text-anchor="middle" x="40" y="-198" font-family="Helvetica,sans-Serif" font-size="10.00">Distribution</text>
</a>
</g>
<!-- Node4&#45;&gt;Node3 -->
<g id="edge6" class="edge"><title>Node4&#45;&gt;Node3</title>
<path fill="none" stroke="#9a32cd" stroke-dasharray="5,2" d="M52.1189,-182.558C60.8584,-169.259 72.3216,-151.815 79.4215,-141.011"/>
<polygon fill="#9a32cd" stroke="#9a32cd" points="49.1575,-180.691 46.5907,-190.971 55.0075,-184.536 49.1575,-180.691"/>
<text text-anchor="middle" x="75.5" y="-163" font-family="Helvetica,sans-Serif" font-size="10.00"> dist</text>
</g>
<!-- Node5 -->
<g id="node8" class="node"><title>Node5</title>
<a xlink:href="interfaceumontreal_1_1ssj_1_1rng_1_1RandomStream.html" target="_top" xlink:title="This interface defines the basic structures to handle multiple streams of uniform (pseudo)random numb...">
<polygon fill="none" stroke="black" points="90,-191 90,-211 174,-211 174,-191 90,-191"/>
<text text-anchor="middle" x="132" y="-198" font-family="Helvetica,sans-Serif" font-size="10.00">RandomStream</text>
</a>
</g>
<!-- Node5&#45;&gt;Node3 -->
<g id="edge8" class="edge"><title>Node5&#45;&gt;Node3</title>
<path fill="none" stroke="#9a32cd" stroke-dasharray="5,2" d="M119.881,-182.558C111.142,-169.259 99.6784,-151.815 92.5785,-141.011"/>
<polygon fill="#9a32cd" stroke="#9a32cd" points="116.993,-184.536 125.409,-190.971 122.842,-180.691 116.993,-184.536"/>
<text text-anchor="middle" x="128" y="-163" font-family="Helvetica,sans-Serif" font-size="10.00"> stream</text>
</g>
</g>
</svg>
