<?xml version="1.0" encoding="UTF-8" standalone="no"?>
<!DOCTYPE svg PUBLIC "-//W3C//DTD SVG 1.1//EN"
 "http://www.w3.org/Graphics/SVG/1.1/DTD/svg11.dtd">
<!-- Generated by graphviz version 2.26.3 (20100126.1600)
 -->
<!-- Title: YListSeriesCollection Pages: 1 -->
<svg width="126pt" height="146pt"
 viewBox="0.00 0.00 126.00 146.00" xmlns="http://www.w3.org/2000/svg" xmlns:xlink="http://www.w3.org/1999/xlink">
<g id="graph1" class="graph" transform="scale(1 1) rotate(0) translate(4 142)">
<title>YListSeriesCollection</title>
<!-- Node1 -->
<g id="node1" class="node"><title>Node1</title>
<polygon fill="#bfbfbf" stroke="black" points="4,-1 4,-21 114,-21 114,-1 4,-1"/>
<text text-anchor="middle" x="59" y="-8" font-family="Helvetica,sans-Serif" font-size="10.00">YListSeriesCollection</text>
</g>
<!-- Node2 -->
<g id="node2" class="node"><title>Node2</title>
<a xlink:href="classumontreal_1_1ssj_1_1charts_1_1XYListSeriesCollection.html" target="_top" xlink:title="This class extends umontreal.ssj.charts.SSJXYSeriesCollection. ">
<polygon fill="none" stroke="black" points="1,-59 1,-79 117,-79 117,-59 1,-59"/>
<text text-anchor="middle" x="59" y="-66" font-family="Helvetica,sans-Serif" font-size="10.00">XYListSeriesCollection</text>
</a>
</g>
<!-- Node2&#45;&gt;Node1 -->
<g id="edge2" class="edge"><title>Node2&#45;&gt;Node1</title>
<path fill="none" stroke="midnightblue" d="M59,-48.8902C59,-39.6201 59,-29.0083 59,-21.3776"/>
<polygon fill="midnightblue" stroke="midnightblue" points="55.5001,-48.8971 59,-58.8972 62.5001,-48.8972 55.5001,-48.8971"/>
</g>
<!-- Node3 -->
<g id="node4" class="node"><title>Node3</title>
<a xlink:href="classumontreal_1_1ssj_1_1charts_1_1SSJXYSeriesCollection.html" target="_top" xlink:title="Stores data used in a XYChart. ">
<polygon fill="none" stroke="black" points="-0.5,-117 -0.5,-137 118.5,-137 118.5,-117 -0.5,-117"/>
<text text-anchor="middle" x="59" y="-124" font-family="Helvetica,sans-Serif" font-size="10.00">SSJXYSeriesCollection</text>
</a>
</g>
<!-- Node3&#45;&gt;Node2 -->
<g id="edge4" class="edge"><title>Node3&#45;&gt;Node2</title>
<path fill="none" stroke="midnightblue" d="M59,-106.89C59,-97.6201 59,-87.0083 59,-79.3776"/>
<polygon fill="midnightblue" stroke="midnightblue" points="55.5001,-106.897 59,-116.897 62.5001,-106.897 55.5001,-106.897"/>
</g>
</g>
</svg>
