<?xml version="1.0" encoding="UTF-8" standalone="no"?>
<!DOCTYPE svg PUBLIC "-//W3C//DTD SVG 1.1//EN"
 "http://www.w3.org/Graphics/SVG/1.1/DTD/svg11.dtd">
<!-- Generated by graphviz version 2.26.3 (20100126.1600)
 -->
<!-- Title: Rank1Lattice Pages: 1 -->
<svg width="104pt" height="160pt"
 viewBox="0.00 0.00 104.00 160.00" xmlns="http://www.w3.org/2000/svg" xmlns:xlink="http://www.w3.org/1999/xlink">
<g id="graph1" class="graph" transform="scale(1 1) rotate(0) translate(4 156)">
<title>Rank1Lattice</title>
<!-- Node1 -->
<g id="node1" class="node"><title>Node1</title>
<polygon fill="#bfbfbf" stroke="black" points="5,-1 5,-21 79,-21 79,-1 5,-1"/>
<text text-anchor="middle" x="42" y="-8" font-family="Helvetica,sans-Serif" font-size="10.00">Rank1Lattice</text>
</g>
<!-- Node2 -->
<g id="node2" class="node"><title>Node2</title>
<a xlink:href="classumontreal_1_1ssj_1_1hups_1_1PointSet.html" target="_top" xlink:title="This abstract class defines the basic methods for accessing and manipulating point sets...">
<polygon fill="none" stroke="black" points="15,-61 15,-81 69,-81 69,-61 15,-61"/>
<text text-anchor="middle" x="42" y="-68" font-family="Helvetica,sans-Serif" font-size="10.00">PointSet</text>
</a>
</g>
<!-- Node2&#45;&gt;Node1 -->
<g id="edge2" class="edge"><title>Node2&#45;&gt;Node1</title>
<path fill="none" stroke="midnightblue" d="M42,-50.5155C42,-40.562 42,-29.0495 42,-21.0279"/>
<polygon fill="midnightblue" stroke="midnightblue" points="38.5001,-50.8218 42,-60.8218 45.5001,-50.8219 38.5001,-50.8218"/>
</g>
<!-- Node3 -->
<g id="node4" class="node"><title>Node3</title>
<a xlink:href="interfaceumontreal_1_1ssj_1_1rng_1_1RandomStream.html" target="_top" xlink:title="This interface defines the basic structures to handle multiple streams of uniform (pseudo)random numb...">
<polygon fill="none" stroke="black" points="0,-131 0,-151 84,-151 84,-131 0,-131"/>
<text text-anchor="middle" x="42" y="-138" font-family="Helvetica,sans-Serif" font-size="10.00">RandomStream</text>
</a>
</g>
<!-- Node3&#45;&gt;Node2 -->
<g id="edge4" class="edge"><title>Node3&#45;&gt;Node2</title>
<path fill="none" stroke="#9a32cd" stroke-dasharray="5,2" d="M42,-120.613C42,-107.597 42,-91.2956 42,-81.0107"/>
<polygon fill="#9a32cd" stroke="#9a32cd" points="38.5001,-120.971 42,-130.971 45.5001,-120.971 38.5001,-120.971"/>
<text text-anchor="middle" x="69" y="-103" font-family="Helvetica,sans-Serif" font-size="10.00"> shiftStream</text>
</g>
</g>
</svg>
