<?xml version="1.0" encoding="UTF-8" standalone="no"?>
<!DOCTYPE svg PUBLIC "-//W3C//DTD SVG 1.1//EN"
 "http://www.w3.org/Graphics/SVG/1.1/DTD/svg11.dtd">
<!-- Generated by graphviz version 2.38.0 (20140413.2041)
 -->
<!-- Title: BankEv Pages: 1 -->
<svg width="741pt" height="364pt"
 viewBox="0.00 0.00 740.50 364.00" xmlns="http://www.w3.org/2000/svg" xmlns:xlink="http://www.w3.org/1999/xlink">
<g id="graph0" class="graph" transform="scale(1 1) rotate(0) translate(4 360)">
<title>BankEv</title>
<!-- Node1 -->
<g id="node1" class="node"><title>Node1</title>
<polygon fill="#bfbfbf" stroke="black" points="207.5,-0.5 207.5,-19.5 257.5,-19.5 257.5,-0.5 207.5,-0.5"/>
<text text-anchor="middle" x="232.5" y="-7.5" font-family="Helvetica,sans-Serif" font-size="10.00">BankEv</text>
</g>
<!-- Node2 -->
<g id="node2" class="node"><title>Node2</title>
<g id="a_node2"><a xlink:href="classumontreal_1_1ssj_1_1randvar_1_1ErlangGen.html" target="_top" xlink:title="This class implements random variate generators for the Erlang distribution with parameters &#160;and ...">
<polygon fill="none" stroke="black" points="35.5,-122.5 35.5,-141.5 97.5,-141.5 97.5,-122.5 35.5,-122.5"/>
<text text-anchor="middle" x="66.5" y="-129.5" font-family="Helvetica,sans-Serif" font-size="10.00">ErlangGen</text>
</a>
</g>
</g>
<!-- Node2&#45;&gt;Node1 -->
<g id="edge1" class="edge"><title>Node2&#45;&gt;Node1</title>
<path fill="none" stroke="#9a32cd" stroke-dasharray="5,2" d="M62.8403,-112.557C59.8504,-91.6224 58.7401,-57.8158 77.5,-38 94.8704,-19.6519 168.081,-13.7222 207.354,-11.8445"/>
<polygon fill="#9a32cd" stroke="#9a32cd" points="59.3949,-113.175 64.53,-122.442 66.2948,-111.995 59.3949,-113.175"/>
<text text-anchor="middle" x="96.5" y="-68.5" font-family="Helvetica,sans-Serif" font-size="10.00"> genServ</text>
</g>
<!-- Node3 -->
<g id="node3" class="node"><title>Node3</title>
<g id="a_node3"><a xlink:href="classumontreal_1_1ssj_1_1randvar_1_1GammaGen.html" target="_top" xlink:title="This class implements random variate generators for the gamma distribution. ">
<polygon fill="none" stroke="black" points="20,-196 20,-215 89,-215 89,-196 20,-196"/>
<text text-anchor="middle" x="54.5" y="-203" font-family="Helvetica,sans-Serif" font-size="10.00">GammaGen</text>
</a>
</g>
</g>
<!-- Node3&#45;&gt;Node2 -->
<g id="edge2" class="edge"><title>Node3&#45;&gt;Node2</title>
<path fill="none" stroke="midnightblue" d="M57.6731,-185.594C60.0497,-171.433 63.1934,-152.702 65.0165,-141.839"/>
<polygon fill="midnightblue" stroke="midnightblue" points="54.175,-185.291 55.9714,-195.733 61.0784,-186.45 54.175,-185.291"/>
</g>
<!-- Node4 -->
<g id="node4" class="node"><title>Node4</title>
<g id="a_node4"><a xlink:href="classumontreal_1_1ssj_1_1randvar_1_1RandomVariateGen.html" target="_top" xlink:title="This is the base class for all random variate generators over the real line. ">
<polygon fill="none" stroke="black" points="0,-269.5 0,-288.5 101,-288.5 101,-269.5 0,-269.5"/>
<text text-anchor="middle" x="50.5" y="-276.5" font-family="Helvetica,sans-Serif" font-size="10.00">RandomVariateGen</text>
</a>
</g>
</g>
<!-- Node4&#45;&gt;Node3 -->
<g id="edge3" class="edge"><title>Node4&#45;&gt;Node3</title>
<path fill="none" stroke="midnightblue" d="M51.5577,-259.094C52.3499,-244.933 53.3978,-226.202 54.0055,-215.339"/>
<polygon fill="midnightblue" stroke="midnightblue" points="48.0546,-259.053 50.9905,-269.233 55.0437,-259.444 48.0546,-259.053"/>
</g>
<!-- Node5 -->
<g id="node5" class="node"><title>Node5</title>
<g id="a_node5"><a xlink:href="interfaceumontreal_1_1ssj_1_1probdist_1_1Distribution.html" target="_top" xlink:title="This interface should be implemented by all classes supporting discrete and continuous distributions...">
<polygon fill="none" stroke="black" points="4,-336.5 4,-355.5 69,-355.5 69,-336.5 4,-336.5"/>
<text text-anchor="middle" x="36.5" y="-343.5" font-family="Helvetica,sans-Serif" font-size="10.00">Distribution</text>
</a>
</g>
</g>
<!-- Node5&#45;&gt;Node4 -->
<g id="edge4" class="edge"><title>Node5&#45;&gt;Node4</title>
<path fill="none" stroke="#9a32cd" stroke-dasharray="5,2" d="M36.1319,-326.299C36.3664,-320.089 37.0169,-313.183 38.5,-307 40.0314,-300.615 43.0314,-293.865 45.6486,-288.711"/>
<polygon fill="#9a32cd" stroke="#9a32cd" points="32.6313,-326.4 36.0694,-336.421 39.6312,-326.443 32.6313,-326.4"/>
<text text-anchor="middle" x="48" y="-310" font-family="Helvetica,sans-Serif" font-size="10.00"> dist</text>
</g>
<!-- Node6 -->
<g id="node6" class="node"><title>Node6</title>
<g id="a_node6"><a xlink:href="interfaceumontreal_1_1ssj_1_1rng_1_1RandomStream.html" target="_top" xlink:title="This interface defines the basic structures to handle multiple streams of uniform (pseudo)random numb...">
<polygon fill="none" stroke="black" points="87.5,-336.5 87.5,-355.5 171.5,-355.5 171.5,-336.5 87.5,-336.5"/>
<text text-anchor="middle" x="129.5" y="-343.5" font-family="Helvetica,sans-Serif" font-size="10.00">RandomStream</text>
</a>
</g>
</g>
<!-- Node6&#45;&gt;Node1 -->
<g id="edge20" class="edge"><title>Node6&#45;&gt;Node1</title>
<path fill="none" stroke="#9a32cd" stroke-dasharray="5,2" d="M129.5,-326.134C129.5,-313.161 129.5,-295.536 129.5,-280 129.5,-280 129.5,-280 129.5,-131 129.5,-78.0113 188.043,-36.7147 216.857,-19.5981"/>
<polygon fill="#9a32cd" stroke="#9a32cd" points="126,-326.169 129.5,-336.169 133,-326.169 126,-326.169"/>
<text text-anchor="middle" x="156.5" y="-214" font-family="Helvetica,sans-Serif" font-size="10.00"> streamArr</text>
<text text-anchor="middle" x="156.5" y="-203" font-family="Helvetica,sans-Serif" font-size="10.00">streamTeller</text>
<text text-anchor="middle" x="156.5" y="-192" font-family="Helvetica,sans-Serif" font-size="10.00">streamBalk</text>
</g>
<!-- Node6&#45;&gt;Node4 -->
<g id="edge5" class="edge"><title>Node6&#45;&gt;Node4</title>
<path fill="none" stroke="#9a32cd" stroke-dasharray="5,2" d="M101.559,-331.603C94.6665,-327.688 87.5359,-323.078 81.5,-318 71.2064,-309.34 61.8104,-296.894 56.1251,-288.635"/>
<polygon fill="#9a32cd" stroke="#9a32cd" points="100.218,-334.855 110.686,-336.49 103.523,-328.684 100.218,-334.855"/>
<text text-anchor="middle" x="98.5" y="-310" font-family="Helvetica,sans-Serif" font-size="10.00"> stream</text>
</g>
<!-- Node7 -->
<g id="node7" class="node"><title>Node7</title>
<g id="a_node7"><a xlink:href="classumontreal_1_1ssj_1_1stat_1_1Tally.html" target="_top" xlink:title="A subclass of StatProbe. ">
<polygon fill="none" stroke="black" points="287,-122.5 287,-141.5 324,-141.5 324,-122.5 287,-122.5"/>
<text text-anchor="middle" x="305.5" y="-129.5" font-family="Helvetica,sans-Serif" font-size="10.00">Tally</text>
</a>
</g>
</g>
<!-- Node7&#45;&gt;Node1 -->
<g id="edge6" class="edge"><title>Node7&#45;&gt;Node1</title>
<path fill="none" stroke="#9a32cd" stroke-dasharray="5,2" d="M297.94,-112.941C289.442,-93.5816 274.58,-62.3482 257.5,-38 252.951,-31.5149 246.943,-24.9775 241.957,-19.9601"/>
<polygon fill="#9a32cd" stroke="#9a32cd" points="294.82,-114.546 301.979,-122.355 301.252,-111.785 294.82,-114.546"/>
<text text-anchor="middle" x="317.5" y="-74" font-family="Helvetica,sans-Serif" font-size="10.00"> avWait</text>
<text text-anchor="middle" x="317.5" y="-63" font-family="Helvetica,sans-Serif" font-size="10.00">statServed</text>
</g>
<!-- Node8 -->
<g id="node8" class="node"><title>Node8</title>
<g id="a_node8"><a xlink:href="classumontreal_1_1ssj_1_1stat_1_1StatProbe.html" target="_top" xlink:title="The objects of this class are statistical probes or collectors, which are elementary devices for coll...">
<polygon fill="none" stroke="black" points="201.5,-196 201.5,-215 261.5,-215 261.5,-196 201.5,-196"/>
<text text-anchor="middle" x="231.5" y="-203" font-family="Helvetica,sans-Serif" font-size="10.00">StatProbe</text>
</a>
</g>
</g>
<!-- Node8&#45;&gt;Node7 -->
<g id="edge7" class="edge"><title>Node8&#45;&gt;Node7</title>
<path fill="none" stroke="midnightblue" d="M248.093,-188.468C262.997,-174.067 284.33,-153.455 296.352,-141.839"/>
<polygon fill="midnightblue" stroke="midnightblue" points="245.333,-186.267 240.574,-195.733 250.197,-191.301 245.333,-186.267"/>
</g>
<!-- Node17 -->
<g id="node17" class="node"><title>Node17</title>
<g id="a_node17"><a xlink:href="classumontreal_1_1ssj_1_1simevents_1_1Accumulate.html" target="_top" xlink:title="A subclass of umontreal.ssj.stat.StatProbe, for collecting statistics on a variable that evolves in s...">
<polygon fill="none" stroke="black" points="198.5,-122.5 198.5,-141.5 266.5,-141.5 266.5,-122.5 198.5,-122.5"/>
<text text-anchor="middle" x="232.5" y="-129.5" font-family="Helvetica,sans-Serif" font-size="10.00">Accumulate</text>
</a>
</g>
</g>
<!-- Node8&#45;&gt;Node17 -->
<g id="edge18" class="edge"><title>Node8&#45;&gt;Node17</title>
<path fill="none" stroke="midnightblue" d="M231.764,-185.594C231.962,-171.433 232.224,-152.702 232.376,-141.839"/>
<polygon fill="midnightblue" stroke="midnightblue" points="228.263,-185.685 231.623,-195.733 235.262,-185.783 228.263,-185.685"/>
</g>
<!-- Node9 -->
<g id="node9" class="node"><title>Node9</title>
<polygon fill="none" stroke="#bfbfbf" points="280,-196 280,-215 339,-215 339,-196 280,-196"/>
<text text-anchor="middle" x="309.5" y="-203" font-family="Helvetica,sans-Serif" font-size="10.00">Cloneable</text>
</g>
<!-- Node9&#45;&gt;Node7 -->
<g id="edge8" class="edge"><title>Node9&#45;&gt;Node7</title>
<path fill="none" stroke="midnightblue" d="M308.442,-185.594C307.65,-171.433 306.602,-152.702 305.994,-141.839"/>
<polygon fill="midnightblue" stroke="midnightblue" points="304.956,-185.944 309.01,-195.733 311.945,-185.553 304.956,-185.944"/>
</g>
<!-- Node9&#45;&gt;Node17 -->
<g id="edge19" class="edge"><title>Node9&#45;&gt;Node17</title>
<path fill="none" stroke="midnightblue" d="M292.664,-188.866C277.138,-174.45 254.644,-153.562 242.019,-141.839"/>
<polygon fill="midnightblue" stroke="midnightblue" points="290.349,-191.493 300.058,-195.733 295.112,-186.363 290.349,-191.493"/>
</g>
<!-- Node10 -->
<g id="node10" class="node"><title>Node10</title>
<polygon fill="none" stroke="#bfbfbf" points="357.5,-196 357.5,-215 427.5,-215 427.5,-196 357.5,-196"/>
<text text-anchor="middle" x="392.5" y="-203" font-family="Helvetica,sans-Serif" font-size="10.00">Tally.CIType</text>
</g>
<!-- Node10&#45;&gt;Node7 -->
<g id="edge9" class="edge"><title>Node10&#45;&gt;Node7</title>
<path fill="none" stroke="#9a32cd" stroke-dasharray="5,2" d="M373.911,-189.223C356.246,-174.705 330.312,-153.391 315.983,-141.616"/>
<polygon fill="#9a32cd" stroke="#9a32cd" points="371.884,-192.087 381.832,-195.733 376.329,-186.679 371.884,-192.087"/>
<text text-anchor="middle" x="392.5" y="-163" font-family="Helvetica,sans-Serif" font-size="10.00"> confidenceInterval</text>
</g>
<!-- Node11 -->
<g id="node11" class="node"><title>Node11</title>
<g id="a_node11"><a xlink:href="classumontreal_1_1ssj_1_1simevents_1_1Event.html" target="_top" xlink:title="This abstract class provides event scheduling tools. ">
<polygon fill="none" stroke="black" points="469,-122.5 469,-141.5 510,-141.5 510,-122.5 469,-122.5"/>
<text text-anchor="middle" x="489.5" y="-129.5" font-family="Helvetica,sans-Serif" font-size="10.00">Event</text>
</a>
</g>
</g>
<!-- Node11&#45;&gt;Node1 -->
<g id="edge10" class="edge"><title>Node11&#45;&gt;Node1</title>
<path fill="none" stroke="#9a32cd" stroke-dasharray="5,2" d="M470.906,-116.143C444.374,-95.6512 393.43,-58.8851 344.5,-38 315.987,-25.8294 280.943,-18.4987 257.729,-14.6086"/>
<polygon fill="#9a32cd" stroke="#9a32cd" points="468.898,-119.015 478.93,-122.422 473.212,-113.502 468.898,-119.015"/>
<text text-anchor="middle" x="472.5" y="-96" font-family="Helvetica,sans-Serif" font-size="10.00"> e14h</text>
<text text-anchor="middle" x="472.5" y="-85" font-family="Helvetica,sans-Serif" font-size="10.00">e11h</text>
<text text-anchor="middle" x="472.5" y="-74" font-family="Helvetica,sans-Serif" font-size="10.00">e10h</text>
<text text-anchor="middle" x="472.5" y="-63" font-family="Helvetica,sans-Serif" font-size="10.00">nextArriv</text>
<text text-anchor="middle" x="472.5" y="-52" font-family="Helvetica,sans-Serif" font-size="10.00">e9h45</text>
<text text-anchor="middle" x="472.5" y="-41" font-family="Helvetica,sans-Serif" font-size="10.00">e15h</text>
</g>
<!-- Node12 -->
<g id="node12" class="node"><title>Node12</title>
<polygon fill="none" stroke="#bfbfbf" points="622.5,-196 622.5,-215 732.5,-215 732.5,-196 622.5,-196"/>
<text text-anchor="middle" x="677.5" y="-203" font-family="Helvetica,sans-Serif" font-size="10.00">Comparable&lt; Event &gt;</text>
</g>
<!-- Node12&#45;&gt;Node11 -->
<g id="edge11" class="edge"><title>Node12&#45;&gt;Node11</title>
<path fill="none" stroke="midnightblue" d="M645.087,-192.173C606.401,-177.46 542.858,-153.293 510.241,-140.888"/>
<polygon fill="midnightblue" stroke="midnightblue" points="644.232,-195.592 654.823,-195.875 646.72,-189.049 644.232,-195.592"/>
</g>
<!-- Node13 -->
<g id="node13" class="node"><title>Node13</title>
<g id="a_node13"><a xlink:href="classumontreal_1_1ssj_1_1simevents_1_1Simulator.html" target="_top" xlink:title="Represents the executive of a discrete&#45;event simulator. ">
<polygon fill="none" stroke="black" points="455.5,-196 455.5,-215 513.5,-215 513.5,-196 455.5,-196"/>
<text text-anchor="middle" x="484.5" y="-203" font-family="Helvetica,sans-Serif" font-size="10.00">Simulator</text>
</a>
</g>
</g>
<!-- Node13&#45;&gt;Node11 -->
<g id="edge12" class="edge"><title>Node13&#45;&gt;Node11</title>
<path fill="none" stroke="#9a32cd" stroke-dasharray="5,2" d="M485.822,-185.594C486.812,-171.433 488.122,-152.702 488.882,-141.839"/>
<polygon fill="#9a32cd" stroke="#9a32cd" points="482.319,-185.513 485.113,-195.733 489.302,-186.001 482.319,-185.513"/>
<text text-anchor="middle" x="498" y="-163" font-family="Helvetica,sans-Serif" font-size="10.00"> sim</text>
</g>
<!-- Node13&#45;&gt;Node13 -->
<g id="edge13" class="edge"><title>Node13&#45;&gt;Node13</title>
<path fill="none" stroke="#9a32cd" stroke-dasharray="5,2" d="M524.103,-211.856C528.591,-210.665 531.5,-208.547 531.5,-205.5 531.5,-200.5 523.667,-198 513.875,-198"/>
<polygon fill="#9a32cd" stroke="#9a32cd" points="523.424,-208.41 513.875,-213 524.202,-215.366 523.424,-208.41"/>
<text text-anchor="middle" x="568" y="-203" font-family="Helvetica,sans-Serif" font-size="10.00"> defaultSimulator</text>
</g>
<!-- Node14 -->
<g id="node14" class="node"><title>Node14</title>
<g id="a_node14"><a xlink:href="interfaceumontreal_1_1ssj_1_1simevents_1_1eventlist_1_1EventList.html" target="_top" xlink:title="An interface for implementations of event lists. ">
<polygon fill="none" stroke="black" points="404.5,-269.5 404.5,-288.5 460.5,-288.5 460.5,-269.5 404.5,-269.5"/>
<text text-anchor="middle" x="432.5" y="-276.5" font-family="Helvetica,sans-Serif" font-size="10.00">EventList</text>
</a>
</g>
</g>
<!-- Node14&#45;&gt;Node13 -->
<g id="edge14" class="edge"><title>Node14&#45;&gt;Node13</title>
<path fill="none" stroke="#9a32cd" stroke-dasharray="5,2" d="M443.422,-260.636C447.679,-254.074 452.685,-246.602 457.5,-240 463.838,-231.309 471.589,-221.796 477.158,-215.135"/>
<polygon fill="#9a32cd" stroke="#9a32cd" points="440.264,-259.077 437.831,-269.389 446.163,-262.845 440.264,-259.077"/>
<text text-anchor="middle" x="478.5" y="-243" font-family="Helvetica,sans-Serif" font-size="10.00"> eventList</text>
</g>
<!-- Node15 -->
<g id="node15" class="node"><title>Node15</title>
<polygon fill="none" stroke="#bfbfbf" points="387.5,-336.5 387.5,-355.5 477.5,-355.5 477.5,-336.5 387.5,-336.5"/>
<text text-anchor="middle" x="432.5" y="-343.5" font-family="Helvetica,sans-Serif" font-size="10.00">Iterable&lt; Event &gt;</text>
</g>
<!-- Node15&#45;&gt;Node14 -->
<g id="edge15" class="edge"><title>Node15&#45;&gt;Node14</title>
<path fill="none" stroke="midnightblue" d="M432.5,-326.037C432.5,-313.67 432.5,-298.12 432.5,-288.627"/>
<polygon fill="midnightblue" stroke="midnightblue" points="429,-326.234 432.5,-336.234 436,-326.234 429,-326.234"/>
</g>
<!-- Node16 -->
<g id="node16" class="node"><title>Node16</title>
<g id="a_node16"><a xlink:href="classumontreal_1_1ssj_1_1simevents_1_1ContinuousState.html" target="_top" xlink:title="Represents the portion of the simulator’s state associated with continuous&#45;time simulation. ">
<polygon fill="none" stroke="black" points="479,-269.5 479,-288.5 568,-288.5 568,-269.5 479,-269.5"/>
<text text-anchor="middle" x="523.5" y="-276.5" font-family="Helvetica,sans-Serif" font-size="10.00">ContinuousState</text>
</a>
</g>
</g>
<!-- Node16&#45;&gt;Node13 -->
<g id="edge16" class="edge"><title>Node16&#45;&gt;Node13</title>
<path fill="none" stroke="#9a32cd" stroke-dasharray="5,2" d="M513.869,-260.343C506.074,-246.053 495.422,-226.525 489.321,-215.339"/>
<polygon fill="#9a32cd" stroke="#9a32cd" points="510.857,-262.13 518.718,-269.233 517.002,-258.778 510.857,-262.13"/>
<text text-anchor="middle" x="546.5" y="-243" font-family="Helvetica,sans-Serif" font-size="10.00"> continuousState</text>
</g>
<!-- Node17&#45;&gt;Node1 -->
<g id="edge17" class="edge"><title>Node17&#45;&gt;Node1</title>
<path fill="none" stroke="#9a32cd" stroke-dasharray="5,2" d="M232.5,-112.145C232.5,-85.7231 232.5,-38.7637 232.5,-19.5519"/>
<polygon fill="#9a32cd" stroke="#9a32cd" points="229,-112.37 232.5,-122.37 236,-112.37 229,-112.37"/>
<text text-anchor="middle" x="243" y="-68.5" font-family="Helvetica,sans-Serif" font-size="10.00"> wait</text>
</g>
</g>
</svg>
