<?xml version="1.0" encoding="UTF-8" standalone="no"?>
<!DOCTYPE svg PUBLIC "-//W3C//DTD SVG 1.1//EN"
 "http://www.w3.org/Graphics/SVG/1.1/DTD/svg11.dtd">
<!-- Generated by graphviz version 2.26.3 (20100126.1600)
 -->
<!-- Title: PascalGen Pages: 1 -->
<svg width="124pt" height="204pt"
 viewBox="0.00 0.00 124.00 204.00" xmlns="http://www.w3.org/2000/svg" xmlns:xlink="http://www.w3.org/1999/xlink">
<g id="graph1" class="graph" transform="scale(1 1) rotate(0) translate(4 200)">
<title>PascalGen</title>
<!-- Node1 -->
<g id="node1" class="node"><title>Node1</title>
<polygon fill="#bfbfbf" stroke="black" points="25.5,-59 25.5,-79 90.5,-79 90.5,-59 25.5,-59"/>
<text text-anchor="middle" x="58" y="-66" font-family="Helvetica,sans-Serif" font-size="10.00">PascalGen</text>
</g>
<!-- Node4 -->
<g id="node7" class="node"><title>Node4</title>
<a xlink:href="classumontreal_1_1ssj_1_1randvar_1_1PascalConvolutionGen.html" target="_top" xlink:title="Implements Pascal random variate generators by the convolution method (see  ). ">
<polygon fill="none" stroke="black" points="0,-1 0,-21 116,-21 116,-1 0,-1"/>
<text text-anchor="middle" x="58" y="-8" font-family="Helvetica,sans-Serif" font-size="10.00">PascalConvolutionGen</text>
</a>
</g>
<!-- Node1&#45;&gt;Node4 -->
<g id="edge6" class="edge"><title>Node1&#45;&gt;Node4</title>
<path fill="none" stroke="midnightblue" d="M58,-48.8902C58,-39.6201 58,-29.0083 58,-21.3776"/>
<polygon fill="midnightblue" stroke="midnightblue" points="54.5001,-48.8971 58,-58.8972 61.5001,-48.8972 54.5001,-48.8971"/>
</g>
<!-- Node2 -->
<g id="node2" class="node"><title>Node2</title>
<a xlink:href="classumontreal_1_1ssj_1_1randvar_1_1RandomVariateGenInt.html" target="_top" xlink:title="This is the base class for all generators of discrete random variates over the set of integers...">
<polygon fill="none" stroke="black" points="2,-117 2,-137 114,-137 114,-117 2,-117"/>
<text text-anchor="middle" x="58" y="-124" font-family="Helvetica,sans-Serif" font-size="10.00">RandomVariateGenInt</text>
</a>
</g>
<!-- Node2&#45;&gt;Node1 -->
<g id="edge2" class="edge"><title>Node2&#45;&gt;Node1</title>
<path fill="none" stroke="midnightblue" d="M58,-106.89C58,-97.6201 58,-87.0083 58,-79.3776"/>
<polygon fill="midnightblue" stroke="midnightblue" points="54.5001,-106.897 58,-116.897 61.5001,-106.897 54.5001,-106.897"/>
</g>
<!-- Node3 -->
<g id="node4" class="node"><title>Node3</title>
<a xlink:href="classumontreal_1_1ssj_1_1randvar_1_1RandomVariateGen.html" target="_top" xlink:title="This is the base class for all random variate generators over the real line. ">
<polygon fill="none" stroke="black" points="7.5,-175 7.5,-195 108.5,-195 108.5,-175 7.5,-175"/>
<text text-anchor="middle" x="58" y="-182" font-family="Helvetica,sans-Serif" font-size="10.00">RandomVariateGen</text>
</a>
</g>
<!-- Node3&#45;&gt;Node2 -->
<g id="edge4" class="edge"><title>Node3&#45;&gt;Node2</title>
<path fill="none" stroke="midnightblue" d="M58,-164.89C58,-155.62 58,-145.008 58,-137.378"/>
<polygon fill="midnightblue" stroke="midnightblue" points="54.5001,-164.897 58,-174.897 61.5001,-164.897 54.5001,-164.897"/>
</g>
</g>
</svg>
