<?xml version="1.0" encoding="UTF-8" standalone="no"?>
<!DOCTYPE svg PUBLIC "-//W3C//DTD SVG 1.1//EN"
 "http://www.w3.org/Graphics/SVG/1.1/DTD/svg11.dtd">
<!-- Generated by graphviz version 2.38.0 (20140413.2041)
 -->
<!-- Title: CycleBasedPointSetBase2.CycleBasedPointSetBase2Iterator Pages: 1 -->
<svg width="210pt" height="174pt"
 viewBox="0.00 0.00 209.50 174.00" xmlns="http://www.w3.org/2000/svg" xmlns:xlink="http://www.w3.org/1999/xlink">
<g id="graph0" class="graph" transform="scale(1 1) rotate(0) translate(4 170)">
<title>CycleBasedPointSetBase2.CycleBasedPointSetBase2Iterator</title>
<!-- Node3 -->
<g id="node1" class="node"><title>Node3</title>
<polygon fill="#bfbfbf" stroke="black" points="30,-0.5 30,-30.5 194,-30.5 194,-0.5 30,-0.5"/>
<text text-anchor="start" x="38" y="-18.5" font-family="Helvetica,sans-Serif" font-size="10.00">CycleBasedPointSetBase2.</text>
<text text-anchor="middle" x="112" y="-7.5" font-family="Helvetica,sans-Serif" font-size="10.00">CycleBasedPointSetBase2Iterator</text>
</g>
<!-- Node4 -->
<g id="node2" class="node"><title>Node4</title>
<g id="a_node2"><a xlink:href="classumontreal_1_1ssj_1_1hups_1_1CycleBasedPointSet_1_1CycleBasedPointSetIterator.html" target="_top" xlink:title="CycleBasedPointSet.Cycle\lBasedPointSetIterator">
<polygon fill="none" stroke="black" points="45,-68.5 45,-98.5 179,-98.5 179,-68.5 45,-68.5"/>
<text text-anchor="start" x="53" y="-86.5" font-family="Helvetica,sans-Serif" font-size="10.00">CycleBasedPointSet.Cycle</text>
<text text-anchor="middle" x="112" y="-75.5" font-family="Helvetica,sans-Serif" font-size="10.00">BasedPointSetIterator</text>
</a>
</g>
</g>
<!-- Node4&#45;&gt;Node3 -->
<g id="edge1" class="edge"><title>Node4&#45;&gt;Node3</title>
<path fill="none" stroke="midnightblue" d="M112,-58.0322C112,-48.8606 112,-38.7449 112,-30.7931"/>
<polygon fill="midnightblue" stroke="midnightblue" points="108.5,-58.1789 112,-68.179 115.5,-58.179 108.5,-58.1789"/>
</g>
<!-- Node5 -->
<g id="node3" class="node"><title>Node5</title>
<polygon fill="none" stroke="#bfbfbf" points="0,-146.5 0,-165.5 114,-165.5 114,-146.5 0,-146.5"/>
<text text-anchor="middle" x="57" y="-153.5" font-family="Helvetica,sans-Serif" font-size="10.00">DefaultPointSetIterator</text>
</g>
<!-- Node5&#45;&gt;Node4 -->
<g id="edge2" class="edge"><title>Node5&#45;&gt;Node4</title>
<path fill="none" stroke="midnightblue" d="M69.956,-138.393C79.4035,-126.283 92.0663,-110.051 101.019,-98.5762"/>
<polygon fill="midnightblue" stroke="midnightblue" points="67.1356,-136.318 63.7441,-146.355 72.6547,-140.624 67.1356,-136.318"/>
</g>
<!-- Node6 -->
<g id="node4" class="node"><title>Node6</title>
<polygon fill="none" stroke="#bfbfbf" points="132.5,-146.5 132.5,-165.5 201.5,-165.5 201.5,-146.5 132.5,-146.5"/>
<text text-anchor="middle" x="167" y="-153.5" font-family="Helvetica,sans-Serif" font-size="10.00">AbstractList</text>
</g>
<!-- Node6&#45;&gt;Node4 -->
<g id="edge3" class="edge"><title>Node6&#45;&gt;Node4</title>
<path fill="none" stroke="#9a32cd" stroke-dasharray="5,2" d="M154.044,-138.393C144.596,-126.283 131.934,-110.051 122.981,-98.5762"/>
<polygon fill="#9a32cd" stroke="#9a32cd" points="151.345,-140.624 160.256,-146.355 156.864,-136.318 151.345,-140.624"/>
<text text-anchor="middle" x="166" y="-120" font-family="Helvetica,sans-Serif" font-size="10.00"> curCycle</text>
</g>
</g>
</svg>
