<?xml version="1.0" encoding="UTF-8" standalone="no"?>
<!DOCTYPE svg PUBLIC "-//W3C//DTD SVG 1.1//EN"
 "http://www.w3.org/Graphics/SVG/1.1/DTD/svg11.dtd">
<!-- Generated by graphviz version 2.26.3 (20100126.1600)
 -->
<!-- Title: SSJXYSeriesCollection Pages: 1 -->
<svg width="180pt" height="100pt"
 viewBox="0.00 0.00 180.00 100.00" xmlns="http://www.w3.org/2000/svg" xmlns:xlink="http://www.w3.org/1999/xlink">
<g id="graph1" class="graph" transform="scale(1 1) rotate(0) translate(4 96)">
<title>SSJXYSeriesCollection</title>
<!-- Node1 -->
<g id="node1" class="node"><title>Node1</title>
<polygon fill="#bfbfbf" stroke="black" points="20.5,-1 20.5,-21 139.5,-21 139.5,-1 20.5,-1"/>
<text text-anchor="middle" x="80" y="-8" font-family="Helvetica,sans-Serif" font-size="10.00">SSJXYSeriesCollection</text>
</g>
<!-- Node2 -->
<g id="node2" class="node"><title>Node2</title>
<polygon fill="none" stroke="#bfbfbf" points="0,-71 0,-91 64,-91 64,-71 0,-71"/>
<text text-anchor="middle" x="32" y="-78" font-family="Helvetica,sans-Serif" font-size="10.00">XYDataset</text>
</g>
<!-- Node2&#45;&gt;Node1 -->
<g id="edge2" class="edge"><title>Node2&#45;&gt;Node1</title>
<path fill="none" stroke="#9a32cd" stroke-dasharray="5,2" d="M28.7108,-60.7073C28.5315,-53.7437 29.4638,-46.1594 33,-40 37.6783,-31.8512 45.6625,-25.6916 53.7358,-21.1922"/>
<polygon fill="#9a32cd" stroke="#9a32cd" points="25.2449,-61.2293 29.6931,-70.8451 32.2123,-60.5542 25.2449,-61.2293"/>
<text text-anchor="middle" x="69.5" y="-43" font-family="Helvetica,sans-Serif" font-size="10.00"> seriesCollection</text>
</g>
<!-- Node3 -->
<g id="node4" class="node"><title>Node3</title>
<polygon fill="none" stroke="#bfbfbf" points="83.5,-71 83.5,-91 172.5,-91 172.5,-71 83.5,-71"/>
<text text-anchor="middle" x="128" y="-78" font-family="Helvetica,sans-Serif" font-size="10.00">XYItemRenderer</text>
</g>
<!-- Node3&#45;&gt;Node1 -->
<g id="edge4" class="edge"><title>Node3&#45;&gt;Node1</title>
<path fill="none" stroke="#9a32cd" stroke-dasharray="5,2" d="M118.7,-61.4104C115.079,-54.4365 110.675,-46.665 106,-40 101.34,-33.357 95.3362,-26.5698 90.2719,-21.2331"/>
<polygon fill="#9a32cd" stroke="#9a32cd" points="115.801,-63.4397 123.387,-70.8354 122.068,-60.3229 115.801,-63.4397"/>
<text text-anchor="middle" x="132.5" y="-43" font-family="Helvetica,sans-Serif" font-size="10.00"> renderer</text>
</g>
</g>
</svg>
