<?xml version="1.0" encoding="UTF-8" standalone="no"?>
<!DOCTYPE svg PUBLIC "-//W3C//DTD SVG 1.1//EN"
 "http://www.w3.org/Graphics/SVG/1.1/DTD/svg11.dtd">
<!-- Generated by graphviz version 2.38.0 (20140413.2041)
 -->
<!-- Title: HypoExponentialDistQuick Pages: 1 -->
<svg width="155pt" height="196pt"
 viewBox="0.00 0.00 155.00 196.00" xmlns="http://www.w3.org/2000/svg" xmlns:xlink="http://www.w3.org/1999/xlink">
<g id="graph0" class="graph" transform="scale(1 1) rotate(0) translate(4 192)">
<title>HypoExponentialDistQuick</title>
<!-- Node1 -->
<g id="node1" class="node"><title>Node1</title>
<polygon fill="#bfbfbf" stroke="black" points="0,-0.5 0,-19.5 147,-19.5 147,-0.5 0,-0.5"/>
<text text-anchor="middle" x="73.5" y="-7.5" font-family="Helvetica,sans-Serif" font-size="10.00">HypoExponentialDistQuick</text>
</g>
<!-- Node2 -->
<g id="node2" class="node"><title>Node2</title>
<g id="a_node2"><a xlink:href="classumontreal_1_1ssj_1_1probdist_1_1HypoExponentialDist.html" target="_top" xlink:title="This class implements the hypoexponential distribution, also called the generalized Erlang distributi...">
<polygon fill="none" stroke="black" points="14,-56.5 14,-75.5 133,-75.5 133,-56.5 14,-56.5"/>
<text text-anchor="middle" x="73.5" y="-63.5" font-family="Helvetica,sans-Serif" font-size="10.00">HypoExponentialDist</text>
</a>
</g>
</g>
<!-- Node2&#45;&gt;Node1 -->
<g id="edge1" class="edge"><title>Node2&#45;&gt;Node1</title>
<path fill="none" stroke="midnightblue" d="M73.5,-45.8045C73.5,-36.9102 73.5,-26.7798 73.5,-19.7511"/>
<polygon fill="midnightblue" stroke="midnightblue" points="70.0001,-46.083 73.5,-56.083 77.0001,-46.083 70.0001,-46.083"/>
</g>
<!-- Node3 -->
<g id="node3" class="node"><title>Node3</title>
<g id="a_node3"><a xlink:href="classumontreal_1_1ssj_1_1probdist_1_1ContinuousDistribution.html" target="_top" xlink:title="Classes implementing continuous distributions should inherit from this base class. ">
<polygon fill="none" stroke="black" points="9.5,-112.5 9.5,-131.5 137.5,-131.5 137.5,-112.5 9.5,-112.5"/>
<text text-anchor="middle" x="73.5" y="-119.5" font-family="Helvetica,sans-Serif" font-size="10.00">ContinuousDistribution</text>
</a>
</g>
</g>
<!-- Node3&#45;&gt;Node2 -->
<g id="edge2" class="edge"><title>Node3&#45;&gt;Node2</title>
<path fill="none" stroke="midnightblue" d="M73.5,-101.805C73.5,-92.9102 73.5,-82.7798 73.5,-75.7511"/>
<polygon fill="midnightblue" stroke="midnightblue" points="70.0001,-102.083 73.5,-112.083 77.0001,-102.083 70.0001,-102.083"/>
</g>
<!-- Node4 -->
<g id="node4" class="node"><title>Node4</title>
<g id="a_node4"><a xlink:href="interfaceumontreal_1_1ssj_1_1probdist_1_1Distribution.html" target="_top" xlink:title="This interface should be implemented by all classes supporting discrete and continuous distributions...">
<polygon fill="none" stroke="black" points="36.5,-168.5 36.5,-187.5 110.5,-187.5 110.5,-168.5 36.5,-168.5"/>
<text text-anchor="middle" x="73.5" y="-175.5" font-family="Helvetica,sans-Serif" font-size="10.00">Distribution</text>
</a>
</g>
</g>
<!-- Node4&#45;&gt;Node3 -->
<g id="edge3" class="edge"><title>Node4&#45;&gt;Node3</title>
<path fill="none" stroke="midnightblue" d="M73.5,-157.805C73.5,-148.91 73.5,-138.78 73.5,-131.751"/>
<polygon fill="midnightblue" stroke="midnightblue" points="70.0001,-158.083 73.5,-168.083 77.0001,-158.083 70.0001,-158.083"/>
</g>
</g>
</svg>
