<?xml version="1.0" encoding="UTF-8" standalone="no"?>
<!DOCTYPE svg PUBLIC "-//W3C//DTD SVG 1.1//EN"
 "http://www.w3.org/Graphics/SVG/1.1/DTD/svg11.dtd">
<!-- Generated by graphviz version 2.38.0 (20140413.2041)
 -->
<!-- Title: KolmogorovSmirnovDistQuick Pages: 1 -->
<svg width="152pt" height="196pt"
 viewBox="0.00 0.00 152.00 196.00" xmlns="http://www.w3.org/2000/svg" xmlns:xlink="http://www.w3.org/1999/xlink">
<g id="graph0" class="graph" transform="scale(1 1) rotate(0) translate(4 192)">
<title>KolmogorovSmirnovDistQuick</title>
<!-- Node4 -->
<g id="node1" class="node"><title>Node4</title>
<polygon fill="#bfbfbf" stroke="black" points="0,-0.5 0,-19.5 144,-19.5 144,-0.5 0,-0.5"/>
<text text-anchor="middle" x="72" y="-7.5" font-family="Helvetica,sans-Serif" font-size="10.00">KolmogorovSmirnovDistQuick</text>
</g>
<!-- Node5 -->
<g id="node2" class="node"><title>Node5</title>
<g id="a_node2"><a xlink:href="classumontreal_1_1ssj_1_1probdist_1_1KolmogorovSmirnovDist.html" target="_top" xlink:title="Extends the class ContinuousDistribution for the Kolmogorov&#45;Smirnov distribution with parameter &#160; ...">
<polygon fill="none" stroke="black" points="12.5,-56.5 12.5,-75.5 131.5,-75.5 131.5,-56.5 12.5,-56.5"/>
<text text-anchor="middle" x="72" y="-63.5" font-family="Helvetica,sans-Serif" font-size="10.00">KolmogorovSmirnovDist</text>
</a>
</g>
</g>
<!-- Node5&#45;&gt;Node4 -->
<g id="edge1" class="edge"><title>Node5&#45;&gt;Node4</title>
<path fill="none" stroke="midnightblue" d="M72,-45.8045C72,-36.9102 72,-26.7798 72,-19.7511"/>
<polygon fill="midnightblue" stroke="midnightblue" points="68.5001,-46.083 72,-56.083 75.5001,-46.083 68.5001,-46.083"/>
</g>
<!-- Node6 -->
<g id="node3" class="node"><title>Node6</title>
<g id="a_node3"><a xlink:href="classumontreal_1_1ssj_1_1probdist_1_1ContinuousDistribution.html" target="_top" xlink:title="Classes implementing continuous distributions should inherit from this base class. ">
<polygon fill="none" stroke="black" points="15,-112.5 15,-131.5 129,-131.5 129,-112.5 15,-112.5"/>
<text text-anchor="middle" x="72" y="-119.5" font-family="Helvetica,sans-Serif" font-size="10.00">ContinuousDistribution</text>
</a>
</g>
</g>
<!-- Node6&#45;&gt;Node5 -->
<g id="edge2" class="edge"><title>Node6&#45;&gt;Node5</title>
<path fill="none" stroke="midnightblue" d="M72,-101.805C72,-92.9102 72,-82.7798 72,-75.7511"/>
<polygon fill="midnightblue" stroke="midnightblue" points="68.5001,-102.083 72,-112.083 75.5001,-102.083 68.5001,-102.083"/>
</g>
<!-- Node7 -->
<g id="node4" class="node"><title>Node7</title>
<g id="a_node4"><a xlink:href="interfaceumontreal_1_1ssj_1_1probdist_1_1Distribution.html" target="_top" xlink:title="This interface should be implemented by all classes supporting discrete and continuous distributions...">
<polygon fill="none" stroke="black" points="39.5,-168.5 39.5,-187.5 104.5,-187.5 104.5,-168.5 39.5,-168.5"/>
<text text-anchor="middle" x="72" y="-175.5" font-family="Helvetica,sans-Serif" font-size="10.00">Distribution</text>
</a>
</g>
</g>
<!-- Node7&#45;&gt;Node6 -->
<g id="edge3" class="edge"><title>Node7&#45;&gt;Node6</title>
<path fill="none" stroke="midnightblue" d="M72,-157.805C72,-148.91 72,-138.78 72,-131.751"/>
<polygon fill="midnightblue" stroke="midnightblue" points="68.5001,-158.083 72,-168.083 75.5001,-158.083 68.5001,-158.083"/>
</g>
</g>
</svg>
