<?xml version="1.0" encoding="UTF-8" standalone="no"?>
<!DOCTYPE svg PUBLIC "-//W3C//DTD SVG 1.1//EN"
 "http://www.w3.org/Graphics/SVG/1.1/DTD/svg11.dtd">
<!-- Generated by graphviz version 2.26.3 (20100126.1600)
 -->
<!-- Title: Pearson6Gen Pages: 1 -->
<svg width="174pt" height="160pt"
 viewBox="0.00 0.00 174.00 160.00" xmlns="http://www.w3.org/2000/svg" xmlns:xlink="http://www.w3.org/1999/xlink">
<g id="graph1" class="graph" transform="scale(1 1) rotate(0) translate(4 156)">
<title>Pearson6Gen</title>
<!-- Node1 -->
<g id="node1" class="node"><title>Node1</title>
<polygon fill="#bfbfbf" stroke="black" points="40,-1 40,-21 116,-21 116,-1 40,-1"/>
<text text-anchor="middle" x="78" y="-8" font-family="Helvetica,sans-Serif" font-size="10.00">Pearson6Gen</text>
</g>
<!-- Node2 -->
<g id="node2" class="node"><title>Node2</title>
<a xlink:href="classumontreal_1_1ssj_1_1randvar_1_1RandomVariateGen.html" target="_top" xlink:title="This is the base class for all random variate generators over the real line. ">
<polygon fill="none" stroke="black" points="27.5,-61 27.5,-81 128.5,-81 128.5,-61 27.5,-61"/>
<text text-anchor="middle" x="78" y="-68" font-family="Helvetica,sans-Serif" font-size="10.00">RandomVariateGen</text>
</a>
</g>
<!-- Node2&#45;&gt;Node1 -->
<g id="edge2" class="edge"><title>Node2&#45;&gt;Node1</title>
<path fill="none" stroke="midnightblue" d="M78,-50.5155C78,-40.562 78,-29.0495 78,-21.0279"/>
<polygon fill="midnightblue" stroke="midnightblue" points="74.5001,-50.8218 78,-60.8218 81.5001,-50.8219 74.5001,-50.8218"/>
</g>
<!-- Node3 -->
<g id="node4" class="node"><title>Node3</title>
<a xlink:href="interfaceumontreal_1_1ssj_1_1probdist_1_1Distribution.html" target="_top" xlink:title="This interface should be implemented by all classes supporting discrete and continuous distributions...">
<polygon fill="none" stroke="black" points="-0.5,-131 -0.5,-151 64.5,-151 64.5,-131 -0.5,-131"/>
<text text-anchor="middle" x="32" y="-138" font-family="Helvetica,sans-Serif" font-size="10.00">Distribution</text>
</a>
</g>
<!-- Node3&#45;&gt;Node2 -->
<g id="edge4" class="edge"><title>Node3&#45;&gt;Node2</title>
<path fill="none" stroke="#9a32cd" stroke-dasharray="5,2" d="M44.1189,-122.558C52.8584,-109.259 64.3216,-91.815 71.4215,-81.0107"/>
<polygon fill="#9a32cd" stroke="#9a32cd" points="41.1575,-120.691 38.5907,-130.971 47.0075,-124.536 41.1575,-120.691"/>
<text text-anchor="middle" x="67.5" y="-103" font-family="Helvetica,sans-Serif" font-size="10.00"> dist</text>
</g>
<!-- Node4 -->
<g id="node6" class="node"><title>Node4</title>
<a xlink:href="interfaceumontreal_1_1ssj_1_1rng_1_1RandomStream.html" target="_top" xlink:title="This interface defines the basic structures to handle multiple streams of uniform (pseudo)random numb...">
<polygon fill="none" stroke="black" points="82,-131 82,-151 166,-151 166,-131 82,-131"/>
<text text-anchor="middle" x="124" y="-138" font-family="Helvetica,sans-Serif" font-size="10.00">RandomStream</text>
</a>
</g>
<!-- Node4&#45;&gt;Node2 -->
<g id="edge6" class="edge"><title>Node4&#45;&gt;Node2</title>
<path fill="none" stroke="#9a32cd" stroke-dasharray="5,2" d="M111.881,-122.558C103.142,-109.259 91.6784,-91.815 84.5785,-81.0107"/>
<polygon fill="#9a32cd" stroke="#9a32cd" points="108.993,-124.536 117.409,-130.971 114.842,-120.691 108.993,-124.536"/>
<text text-anchor="middle" x="120" y="-103" font-family="Helvetica,sans-Serif" font-size="10.00"> stream</text>
</g>
</g>
</svg>
