<?xml version="1.0" encoding="UTF-8" standalone="no"?>
<!DOCTYPE svg PUBLIC "-//W3C//DTD SVG 1.1//EN"
 "http://www.w3.org/Graphics/SVG/1.1/DTD/svg11.dtd">
<!-- Generated by graphviz version 2.38.0 (20140413.2041)
 -->
<!-- Title: MRG31k3p Pages: 1 -->
<svg width="244pt" height="196pt"
 viewBox="0.00 0.00 243.50 196.00" xmlns="http://www.w3.org/2000/svg" xmlns:xlink="http://www.w3.org/1999/xlink">
<g id="graph0" class="graph" transform="scale(1 1) rotate(0) translate(4 192)">
<title>MRG31k3p</title>
<!-- Node0 -->
<g id="node1" class="node"><title>Node0</title>
<polygon fill="#bfbfbf" stroke="black" points="111.5,-0.5 111.5,-19.5 176.5,-19.5 176.5,-0.5 111.5,-0.5"/>
<text text-anchor="middle" x="144" y="-7.5" font-family="Helvetica,sans-Serif" font-size="10.00">MRG31k3p</text>
</g>
<!-- Node1 -->
<g id="node2" class="node"><title>Node1</title>
<g id="a_node2"><a xlink:href="classumontreal_1_1ssj_1_1rng_1_1RandomStreamBase.html" target="_top" xlink:title="This class provides a convenient foundation on which RNGs can be built. ">
<polygon fill="none" stroke="black" points="90.5,-56.5 90.5,-75.5 197.5,-75.5 197.5,-56.5 90.5,-56.5"/>
<text text-anchor="middle" x="144" y="-63.5" font-family="Helvetica,sans-Serif" font-size="10.00">RandomStreamBase</text>
</a>
</g>
</g>
<!-- Node1&#45;&gt;Node0 -->
<g id="edge1" class="edge"><title>Node1&#45;&gt;Node0</title>
<path fill="none" stroke="midnightblue" d="M144,-45.8045C144,-36.9102 144,-26.7798 144,-19.7511"/>
<polygon fill="midnightblue" stroke="midnightblue" points="140.5,-46.083 144,-56.083 147.5,-46.083 140.5,-46.083"/>
</g>
<!-- Node2 -->
<g id="node3" class="node"><title>Node2</title>
<g id="a_node3"><a xlink:href="interfaceumontreal_1_1ssj_1_1rng_1_1CloneableRandomStream.html" target="_top" xlink:title="CloneableRandomStream extends RandomStream and Cloneable. ">
<polygon fill="none" stroke="black" points="23.5,-112.5 23.5,-131.5 150.5,-131.5 150.5,-112.5 23.5,-112.5"/>
<text text-anchor="middle" x="87" y="-119.5" font-family="Helvetica,sans-Serif" font-size="10.00">CloneableRandomStream</text>
</a>
</g>
</g>
<!-- Node2&#45;&gt;Node1 -->
<g id="edge2" class="edge"><title>Node2&#45;&gt;Node1</title>
<path fill="none" stroke="midnightblue" d="M103.621,-105.253C113.734,-95.6731 126.277,-83.7906 134.675,-75.8339"/>
<polygon fill="midnightblue" stroke="midnightblue" points="101.01,-102.906 96.158,-112.324 105.825,-107.987 101.01,-102.906"/>
</g>
<!-- Node3 -->
<g id="node4" class="node"><title>Node3</title>
<g id="a_node4"><a xlink:href="interfaceumontreal_1_1ssj_1_1rng_1_1RandomStream.html" target="_top" xlink:title="This interface defines the basic structures to handle multiple streams of uniform (pseudo)random numb...">
<polygon fill="none" stroke="black" points="0,-168.5 0,-187.5 84,-187.5 84,-168.5 0,-168.5"/>
<text text-anchor="middle" x="42" y="-175.5" font-family="Helvetica,sans-Serif" font-size="10.00">RandomStream</text>
</a>
</g>
</g>
<!-- Node3&#45;&gt;Node2 -->
<g id="edge3" class="edge"><title>Node3&#45;&gt;Node2</title>
<path fill="none" stroke="midnightblue" d="M56.0467,-160.144C63.8869,-150.736 73.3295,-139.405 79.7074,-131.751"/>
<polygon fill="midnightblue" stroke="midnightblue" points="53.1439,-158.16 49.4308,-168.083 58.5215,-162.641 53.1439,-158.16"/>
</g>
<!-- Node4 -->
<g id="node5" class="node"><title>Node4</title>
<polygon fill="none" stroke="#bfbfbf" points="102.5,-168.5 102.5,-187.5 161.5,-187.5 161.5,-168.5 102.5,-168.5"/>
<text text-anchor="middle" x="132" y="-175.5" font-family="Helvetica,sans-Serif" font-size="10.00">Cloneable</text>
</g>
<!-- Node4&#45;&gt;Node2 -->
<g id="edge4" class="edge"><title>Node4&#45;&gt;Node2</title>
<path fill="none" stroke="midnightblue" d="M117.953,-160.144C110.113,-150.736 100.671,-139.405 94.2926,-131.751"/>
<polygon fill="midnightblue" stroke="midnightblue" points="115.479,-162.641 124.569,-168.083 120.856,-158.16 115.479,-162.641"/>
</g>
<!-- Node5 -->
<g id="node6" class="node"><title>Node5</title>
<polygon fill="none" stroke="#bfbfbf" points="168.5,-112.5 168.5,-131.5 235.5,-131.5 235.5,-112.5 168.5,-112.5"/>
<text text-anchor="middle" x="202" y="-119.5" font-family="Helvetica,sans-Serif" font-size="10.00">Serializable</text>
</g>
<!-- Node5&#45;&gt;Node1 -->
<g id="edge5" class="edge"><title>Node5&#45;&gt;Node1</title>
<path fill="none" stroke="midnightblue" d="M185.087,-105.253C174.797,-95.6731 162.034,-83.7906 153.488,-75.8339"/>
<polygon fill="midnightblue" stroke="midnightblue" points="182.977,-108.071 192.681,-112.324 187.747,-102.948 182.977,-108.071"/>
</g>
</g>
</svg>
