<?xml version="1.0" encoding="UTF-8" standalone="no"?>
<!DOCTYPE svg PUBLIC "-//W3C//DTD SVG 1.1//EN"
 "http://www.w3.org/Graphics/SVG/1.1/DTD/svg11.dtd">
<!-- Generated by graphviz version 2.38.0 (20140413.2041)
 -->
<!-- Title: MultivariateBrownianMotion Pages: 1 -->
<svg width="659pt" height="127pt"
 viewBox="0.00 0.00 659.00 127.00" xmlns="http://www.w3.org/2000/svg" xmlns:xlink="http://www.w3.org/1999/xlink">
<g id="graph0" class="graph" transform="scale(1 1) rotate(0) translate(4 123)">
<title>MultivariateBrownianMotion</title>
<!-- Node1 -->
<g id="node1" class="node"><title>Node1</title>
<polygon fill="#bfbfbf" stroke="black" points="320,-50 320,-69 457,-69 457,-50 320,-50"/>
<text text-anchor="middle" x="388.5" y="-57" font-family="Helvetica,sans-Serif" font-size="10.00">MultivariateBrownianMotion</text>
</g>
<!-- Node4 -->
<g id="node4" class="node"><title>Node4</title>
<g id="a_node4"><a xlink:href="classumontreal_1_1ssj_1_1stochprocess_1_1MultivariateBrownianMotionBridge.html" target="_top" xlink:title="A multivariate Brownian motion process &#160;sampled via bridge sampling. ">
<polygon fill="none" stroke="black" points="503.5,-88.5 503.5,-118.5 640.5,-118.5 640.5,-88.5 503.5,-88.5"/>
<text text-anchor="start" x="511.5" y="-106.5" font-family="Helvetica,sans-Serif" font-size="10.00">MultivariateBrownianMotion</text>
<text text-anchor="middle" x="572" y="-95.5" font-family="Helvetica,sans-Serif" font-size="10.00">Bridge</text>
</a>
</g>
</g>
<!-- Node1&#45;&gt;Node4 -->
<g id="edge3" class="edge"><title>Node1&#45;&gt;Node4</title>
<path fill="none" stroke="midnightblue" d="M438.815,-71.455C460.405,-76.6892 485.981,-82.8893 508.855,-88.4346"/>
<polygon fill="midnightblue" stroke="midnightblue" points="439.426,-68.0019 428.883,-69.0473 437.777,-74.8049 439.426,-68.0019"/>
</g>
<!-- Node5 -->
<g id="node5" class="node"><title>Node5</title>
<g id="a_node5"><a xlink:href="classumontreal_1_1ssj_1_1stochprocess_1_1MultivariateBrownianMotionPCA.html" target="_top" xlink:title="A multivariate Brownian motion process &#160;sampled entirely using the principal component decomposition ...">
<polygon fill="none" stroke="black" points="493,-50 493,-69 651,-69 651,-50 493,-50"/>
<text text-anchor="middle" x="572" y="-57" font-family="Helvetica,sans-Serif" font-size="10.00">MultivariateBrownianMotionPCA</text>
</a>
</g>
</g>
<!-- Node1&#45;&gt;Node5 -->
<g id="edge4" class="edge"><title>Node1&#45;&gt;Node5</title>
<path fill="none" stroke="midnightblue" d="M467.34,-59.5C475.827,-59.5 484.468,-59.5 492.958,-59.5"/>
<polygon fill="midnightblue" stroke="midnightblue" points="467.084,-56.0001 457.084,-59.5 467.084,-63.0001 467.084,-56.0001"/>
</g>
<!-- Node6 -->
<g id="node6" class="node"><title>Node6</title>
<g id="a_node6"><a xlink:href="classumontreal_1_1ssj_1_1stochprocess_1_1MultivariateBrownianMotionPCABigSigma.html" target="_top" xlink:title="A multivariate Brownian motion process &#160;sampled entirely using the principal component decomposition ...">
<polygon fill="none" stroke="black" points="503.5,-0.5 503.5,-30.5 640.5,-30.5 640.5,-0.5 503.5,-0.5"/>
<text text-anchor="start" x="511.5" y="-18.5" font-family="Helvetica,sans-Serif" font-size="10.00">MultivariateBrownianMotion</text>
<text text-anchor="middle" x="572" y="-7.5" font-family="Helvetica,sans-Serif" font-size="10.00">PCABigSigma</text>
</a>
</g>
</g>
<!-- Node1&#45;&gt;Node6 -->
<g id="edge5" class="edge"><title>Node1&#45;&gt;Node6</title>
<path fill="none" stroke="midnightblue" d="M438.815,-47.545C460.405,-42.3108 485.981,-36.1107 508.855,-30.5654"/>
<polygon fill="midnightblue" stroke="midnightblue" points="437.777,-44.1951 428.883,-49.9527 439.426,-50.9981 437.777,-44.1951"/>
</g>
<!-- Node2 -->
<g id="node2" class="node"><title>Node2</title>
<g id="a_node2"><a xlink:href="classumontreal_1_1ssj_1_1stochprocess_1_1MultivariateStochasticProcess.html" target="_top" xlink:title="This class is a multivariate version of StochasticProcess where the process evolves in the &#45;dimension...">
<polygon fill="none" stroke="black" points="135,-50 135,-69 284,-69 284,-50 135,-50"/>
<text text-anchor="middle" x="209.5" y="-57" font-family="Helvetica,sans-Serif" font-size="10.00">MultivariateStochasticProcess</text>
</a>
</g>
</g>
<!-- Node2&#45;&gt;Node1 -->
<g id="edge1" class="edge"><title>Node2&#45;&gt;Node1</title>
<path fill="none" stroke="midnightblue" d="M294.112,-59.5C302.745,-59.5 311.44,-59.5 319.867,-59.5"/>
<polygon fill="midnightblue" stroke="midnightblue" points="294.026,-56.0001 284.026,-59.5 294.026,-63.0001 294.026,-56.0001"/>
</g>
<!-- Node3 -->
<g id="node3" class="node"><title>Node3</title>
<g id="a_node3"><a xlink:href="classumontreal_1_1ssj_1_1stochprocess_1_1StochasticProcess.html" target="_top" xlink:title="Abstract base class for a stochastic process &#160;sampled (or observed) at a finite number of time points...">
<polygon fill="none" stroke="black" points="0,-50 0,-69 99,-69 99,-50 0,-50"/>
<text text-anchor="middle" x="49.5" y="-57" font-family="Helvetica,sans-Serif" font-size="10.00">StochasticProcess</text>
</a>
</g>
</g>
<!-- Node3&#45;&gt;Node2 -->
<g id="edge2" class="edge"><title>Node3&#45;&gt;Node2</title>
<path fill="none" stroke="midnightblue" d="M109.241,-59.5C117.634,-59.5 126.353,-59.5 134.985,-59.5"/>
<polygon fill="midnightblue" stroke="midnightblue" points="109.194,-56.0001 99.1944,-59.5 109.194,-63.0001 109.194,-56.0001"/>
</g>
</g>
</svg>
