<?xml version="1.0" encoding="UTF-8" standalone="no"?>
<!DOCTYPE svg PUBLIC "-//W3C//DTD SVG 1.1//EN"
 "http://www.w3.org/Graphics/SVG/1.1/DTD/svg11.dtd">
<!-- Generated by graphviz version 2.26.3 (20100126.1600)
 -->
<!-- Title: MultiNormalDist Pages: 1 -->
<svg width="314pt" height="112pt"
 viewBox="0.00 0.00 314.00 112.00" xmlns="http://www.w3.org/2000/svg" xmlns:xlink="http://www.w3.org/1999/xlink">
<g id="graph1" class="graph" transform="scale(1 1) rotate(0) translate(4 108)">
<title>MultiNormalDist</title>
<!-- Node1 -->
<g id="node1" class="node"><title>Node1</title>
<polygon fill="#bfbfbf" stroke="black" points="152,-1 152,-21 238,-21 238,-1 152,-1"/>
<text text-anchor="middle" x="195" y="-8" font-family="Helvetica,sans-Serif" font-size="10.00">MultiNormalDist</text>
</g>
<!-- Node2 -->
<g id="node2" class="node"><title>Node2</title>
<a xlink:href="classumontreal_1_1ssj_1_1probdistmulti_1_1ContinuousDistributionMulti.html" target="_top" xlink:title="Classes implementing continuous multi&#45;dimensional distributions should inherit from this class...">
<polygon fill="none" stroke="black" points="-0.5,-83 -0.5,-103 134.5,-103 134.5,-83 -0.5,-83"/>
<text text-anchor="middle" x="67" y="-90" font-family="Helvetica,sans-Serif" font-size="10.00">ContinuousDistributionMulti</text>
</a>
</g>
<!-- Node2&#45;&gt;Node1 -->
<g id="edge2" class="edge"><title>Node2&#45;&gt;Node1</title>
<path fill="none" stroke="midnightblue" d="M91.1728,-77.5143C116.981,-60.9809 157.13,-35.2604 179.176,-21.1371"/>
<polygon fill="midnightblue" stroke="midnightblue" points="89.2276,-74.6038 82.6953,-82.9452 93.0037,-80.498 89.2276,-74.6038"/>
</g>
<!-- Node3 -->
<g id="node4" class="node"><title>Node3</title>
<polygon fill="none" stroke="#bfbfbf" points="152,-83 152,-103 238,-103 238,-83 152,-83"/>
<text text-anchor="middle" x="195" y="-90" font-family="Helvetica,sans-Serif" font-size="10.00">DoubleMatrix2D</text>
</g>
<!-- Node3&#45;&gt;Node1 -->
<g id="edge4" class="edge"><title>Node3&#45;&gt;Node1</title>
<path fill="none" stroke="#9a32cd" stroke-dasharray="5,2" d="M195,-72.7501C195,-56.3611 195,-33.9652 195,-21.1371"/>
<polygon fill="#9a32cd" stroke="#9a32cd" points="191.5,-72.9452 195,-82.9452 198.5,-72.9452 191.5,-72.9452"/>
<text text-anchor="middle" x="217" y="-55" font-family="Helvetica,sans-Serif" font-size="10.00"> invSigma</text>
<text text-anchor="middle" x="217" y="-43" font-family="Helvetica,sans-Serif" font-size="10.00">sigma</text>
</g>
<!-- Node4 -->
<g id="node6" class="node"><title>Node4</title>
<polygon fill="none" stroke="#bfbfbf" points="256,-83 256,-103 306,-103 306,-83 256,-83"/>
<text text-anchor="middle" x="281" y="-90" font-family="Helvetica,sans-Serif" font-size="10.00">Algebra</text>
</g>
<!-- Node4&#45;&gt;Node1 -->
<g id="edge6" class="edge"><title>Node4&#45;&gt;Node1</title>
<path fill="none" stroke="#9a32cd" stroke-dasharray="5,2" d="M270.044,-73.9767C263.2,-63.1682 253.675,-49.8673 243,-40 234.993,-32.5981 224.804,-26.1221 215.876,-21.1785"/>
<polygon fill="#9a32cd" stroke="#9a32cd" points="267.149,-75.9522 275.33,-82.6845 273.133,-72.32 267.149,-75.9522"/>
<text text-anchor="middle" x="279.5" y="-49" font-family="Helvetica,sans-Serif" font-size="10.00"> algebra</text>
</g>
</g>
</svg>
