<?xml version="1.0" encoding="UTF-8" standalone="no"?>
<!DOCTYPE svg PUBLIC "-//W3C//DTD SVG 1.1//EN"
 "http://www.w3.org/Graphics/SVG/1.1/DTD/svg11.dtd">
<!-- Generated by graphviz version 2.26.3 (20100126.1600)
 -->
<!-- Title: KernelDensityVarCorrectGen Pages: 1 -->
<svg width="174pt" height="230pt"
 viewBox="0.00 0.00 174.00 230.00" xmlns="http://www.w3.org/2000/svg" xmlns:xlink="http://www.w3.org/1999/xlink">
<g id="graph1" class="graph" transform="scale(1 1) rotate(0) translate(4 226)">
<title>KernelDensityVarCorrectGen</title>
<!-- Node1 -->
<g id="node1" class="node"><title>Node1</title>
<polygon fill="#bfbfbf" stroke="black" points="7.5,-1 7.5,-21 148.5,-21 148.5,-1 7.5,-1"/>
<text text-anchor="middle" x="78" y="-8" font-family="Helvetica,sans-Serif" font-size="10.00">KernelDensityVarCorrectGen</text>
</g>
<!-- Node2 -->
<g id="node2" class="node"><title>Node2</title>
<a xlink:href="classumontreal_1_1ssj_1_1randvar_1_1KernelDensityGen.html" target="_top" xlink:title="This class implements random variate generators for distributions obtained via kernel density estimat...">
<polygon fill="none" stroke="black" points="30.5,-61 30.5,-81 125.5,-81 125.5,-61 30.5,-61"/>
<text text-anchor="middle" x="78" y="-68" font-family="Helvetica,sans-Serif" font-size="10.00">KernelDensityGen</text>
</a>
</g>
<!-- Node2&#45;&gt;Node1 -->
<g id="edge2" class="edge"><title>Node2&#45;&gt;Node1</title>
<path fill="none" stroke="midnightblue" d="M78,-50.5155C78,-40.562 78,-29.0495 78,-21.0279"/>
<polygon fill="midnightblue" stroke="midnightblue" points="74.5001,-50.8218 78,-60.8218 81.5001,-50.8219 74.5001,-50.8218"/>
</g>
<!-- Node3 -->
<g id="node4" class="node"><title>Node3</title>
<a xlink:href="classumontreal_1_1ssj_1_1randvar_1_1RandomVariateGen.html" target="_top" xlink:title="This is the base class for all random variate generators over the real line. ">
<polygon fill="none" stroke="black" points="27.5,-131 27.5,-151 128.5,-151 128.5,-131 27.5,-131"/>
<text text-anchor="middle" x="78" y="-138" font-family="Helvetica,sans-Serif" font-size="10.00">RandomVariateGen</text>
</a>
</g>
<!-- Node3&#45;&gt;Node2 -->
<g id="edge4" class="edge"><title>Node3&#45;&gt;Node2</title>
<path fill="none" stroke="midnightblue" d="M76.3432,-120.737C75.9815,-114.128 75.7674,-106.753 76,-100 76.2154,-93.7458 76.6914,-86.7464 77.1249,-81.1911"/>
<polygon fill="midnightblue" stroke="midnightblue" points="72.8636,-121.156 77.0386,-130.894 79.8472,-120.678 72.8636,-121.156"/>
</g>
<!-- Node3&#45;&gt;Node2 -->
<g id="edge10" class="edge"><title>Node3&#45;&gt;Node2</title>
<path fill="none" stroke="#9a32cd" stroke-dasharray="5,2" d="M78,-120.613C78,-107.597 78,-91.2956 78,-81.0107"/>
<polygon fill="#9a32cd" stroke="#9a32cd" points="74.5001,-120.971 78,-130.971 81.5001,-120.971 74.5001,-120.971"/>
<text text-anchor="middle" x="102" y="-103" font-family="Helvetica,sans-Serif" font-size="10.00"> kernelGen</text>
</g>
<!-- Node4 -->
<g id="node6" class="node"><title>Node4</title>
<a xlink:href="interfaceumontreal_1_1ssj_1_1probdist_1_1Distribution.html" target="_top" xlink:title="This interface should be implemented by all classes supporting discrete and continuous distributions...">
<polygon fill="none" stroke="black" points="-0.5,-201 -0.5,-221 64.5,-221 64.5,-201 -0.5,-201"/>
<text text-anchor="middle" x="32" y="-208" font-family="Helvetica,sans-Serif" font-size="10.00">Distribution</text>
</a>
</g>
<!-- Node4&#45;&gt;Node3 -->
<g id="edge6" class="edge"><title>Node4&#45;&gt;Node3</title>
<path fill="none" stroke="#9a32cd" stroke-dasharray="5,2" d="M44.1189,-192.558C52.8584,-179.259 64.3216,-161.815 71.4215,-151.011"/>
<polygon fill="#9a32cd" stroke="#9a32cd" points="41.1575,-190.691 38.5907,-200.971 47.0075,-194.536 41.1575,-190.691"/>
<text text-anchor="middle" x="67.5" y="-173" font-family="Helvetica,sans-Serif" font-size="10.00"> dist</text>
</g>
<!-- Node5 -->
<g id="node8" class="node"><title>Node5</title>
<a xlink:href="interfaceumontreal_1_1ssj_1_1rng_1_1RandomStream.html" target="_top" xlink:title="This interface defines the basic structures to handle multiple streams of uniform (pseudo)random numb...">
<polygon fill="none" stroke="black" points="82,-201 82,-221 166,-221 166,-201 82,-201"/>
<text text-anchor="middle" x="124" y="-208" font-family="Helvetica,sans-Serif" font-size="10.00">RandomStream</text>
</a>
</g>
<!-- Node5&#45;&gt;Node3 -->
<g id="edge8" class="edge"><title>Node5&#45;&gt;Node3</title>
<path fill="none" stroke="#9a32cd" stroke-dasharray="5,2" d="M111.881,-192.558C103.142,-179.259 91.6784,-161.815 84.5785,-151.011"/>
<polygon fill="#9a32cd" stroke="#9a32cd" points="108.993,-194.536 117.409,-200.971 114.842,-190.691 108.993,-194.536"/>
<text text-anchor="middle" x="120" y="-173" font-family="Helvetica,sans-Serif" font-size="10.00"> stream</text>
</g>
</g>
</svg>
