<?xml version="1.0" encoding="UTF-8" standalone="no"?>
<!DOCTYPE svg PUBLIC "-//W3C//DTD SVG 1.1//EN"
 "http://www.w3.org/Graphics/SVG/1.1/DTD/svg11.dtd">
<!-- Generated by graphviz version 2.38.0 (20140413.2041)
 -->
<!-- Title: BinomialGen Pages: 1 -->
<svg width="132pt" height="196pt"
 viewBox="0.00 0.00 132.00 196.00" xmlns="http://www.w3.org/2000/svg" xmlns:xlink="http://www.w3.org/1999/xlink">
<g id="graph0" class="graph" transform="scale(1 1) rotate(0) translate(4 192)">
<title>BinomialGen</title>
<!-- Node0 -->
<g id="node1" class="node"><title>Node0</title>
<polygon fill="#bfbfbf" stroke="black" points="26,-56.5 26,-75.5 98,-75.5 98,-56.5 26,-56.5"/>
<text text-anchor="middle" x="62" y="-63.5" font-family="Helvetica,sans-Serif" font-size="10.00">BinomialGen</text>
</g>
<!-- Node3 -->
<g id="node4" class="node"><title>Node3</title>
<g id="a_node4"><a xlink:href="classumontreal_1_1ssj_1_1randvar_1_1BinomialConvolutionGen.html" target="_top" xlink:title="Implements binomial random variate generators using the convolution method. ">
<polygon fill="none" stroke="black" points="-7.10543e-15,-0.5 -7.10543e-15,-19.5 124,-19.5 124,-0.5 -7.10543e-15,-0.5"/>
<text text-anchor="middle" x="62" y="-7.5" font-family="Helvetica,sans-Serif" font-size="10.00">BinomialConvolutionGen</text>
</a>
</g>
</g>
<!-- Node0&#45;&gt;Node3 -->
<g id="edge3" class="edge"><title>Node0&#45;&gt;Node3</title>
<path fill="none" stroke="midnightblue" d="M62,-45.8045C62,-36.9102 62,-26.7798 62,-19.7511"/>
<polygon fill="midnightblue" stroke="midnightblue" points="58.5001,-46.083 62,-56.083 65.5001,-46.083 58.5001,-46.083"/>
</g>
<!-- Node1 -->
<g id="node2" class="node"><title>Node1</title>
<g id="a_node2"><a xlink:href="classumontreal_1_1ssj_1_1randvar_1_1RandomVariateGenInt.html" target="_top" xlink:title="This is the base class for all generators of discrete random variates over the set of integers...">
<polygon fill="none" stroke="black" points="5.5,-112.5 5.5,-131.5 118.5,-131.5 118.5,-112.5 5.5,-112.5"/>
<text text-anchor="middle" x="62" y="-119.5" font-family="Helvetica,sans-Serif" font-size="10.00">RandomVariateGenInt</text>
</a>
</g>
</g>
<!-- Node1&#45;&gt;Node0 -->
<g id="edge1" class="edge"><title>Node1&#45;&gt;Node0</title>
<path fill="none" stroke="midnightblue" d="M62,-101.805C62,-92.9102 62,-82.7798 62,-75.7511"/>
<polygon fill="midnightblue" stroke="midnightblue" points="58.5001,-102.083 62,-112.083 65.5001,-102.083 58.5001,-102.083"/>
</g>
<!-- Node2 -->
<g id="node3" class="node"><title>Node2</title>
<g id="a_node3"><a xlink:href="classumontreal_1_1ssj_1_1randvar_1_1RandomVariateGen.html" target="_top" xlink:title="This is the base class for all random variate generators over the real line. ">
<polygon fill="none" stroke="black" points="11,-168.5 11,-187.5 113,-187.5 113,-168.5 11,-168.5"/>
<text text-anchor="middle" x="62" y="-175.5" font-family="Helvetica,sans-Serif" font-size="10.00">RandomVariateGen</text>
</a>
</g>
</g>
<!-- Node2&#45;&gt;Node1 -->
<g id="edge2" class="edge"><title>Node2&#45;&gt;Node1</title>
<path fill="none" stroke="midnightblue" d="M62,-157.805C62,-148.91 62,-138.78 62,-131.751"/>
<polygon fill="midnightblue" stroke="midnightblue" points="58.5001,-158.083 62,-168.083 65.5001,-158.083 58.5001,-158.083"/>
</g>
</g>
</svg>
