<?xml version="1.0" encoding="UTF-8" standalone="no"?>
<!DOCTYPE svg PUBLIC "-//W3C//DTD SVG 1.1//EN"
 "http://www.w3.org/Graphics/SVG/1.1/DTD/svg11.dtd">
<!-- Generated by graphviz version 2.38.0 (20140413.2041)
 -->
<!-- Title: StatProbe Pages: 1 -->
<svg width="411pt" height="151pt"
 viewBox="0.00 0.00 410.50 151.00" xmlns="http://www.w3.org/2000/svg" xmlns:xlink="http://www.w3.org/1999/xlink">
<g id="graph0" class="graph" transform="scale(1 1) rotate(0) translate(4 147)">
<title>StatProbe</title>
<!-- Node1 -->
<g id="node1" class="node"><title>Node1</title>
<polygon fill="#bfbfbf" stroke="black" points="130,-123.5 130,-142.5 190,-142.5 190,-123.5 130,-123.5"/>
<text text-anchor="middle" x="160" y="-130.5" font-family="Helvetica,sans-Serif" font-size="10.00">StatProbe</text>
</g>
<!-- Node2 -->
<g id="node2" class="node"><title>Node2</title>
<g id="a_node2"><a xlink:href="classumontreal_1_1ssj_1_1simevents_1_1Accumulate.html" target="_top" xlink:title="A subclass of umontreal.ssj.stat.StatProbe, for collecting statistics on a variable that evolves in s...">
<polygon fill="none" stroke="black" points="0,-67.5 0,-86.5 68,-86.5 68,-67.5 0,-67.5"/>
<text text-anchor="middle" x="34" y="-74.5" font-family="Helvetica,sans-Serif" font-size="10.00">Accumulate</text>
</a>
</g>
</g>
<!-- Node1&#45;&gt;Node2 -->
<g id="edge1" class="edge"><title>Node1&#45;&gt;Node2</title>
<path fill="none" stroke="midnightblue" d="M130.84,-119.503C107.219,-109.38 74.572,-95.388 53.8717,-86.5164"/>
<polygon fill="midnightblue" stroke="midnightblue" points="129.465,-122.721 140.035,-123.444 132.222,-116.287 129.465,-122.721"/>
</g>
<!-- Node3 -->
<g id="node3" class="node"><title>Node3</title>
<g id="a_node3"><a xlink:href="classumontreal_1_1ssj_1_1stat_1_1FunctionOfMultipleMeansTally.html" target="_top" xlink:title="Represents a statistical collector for estimating a function of multiple means with a confidence inte...">
<polygon fill="none" stroke="black" points="85.5,-67.5 85.5,-86.5 234.5,-86.5 234.5,-67.5 85.5,-67.5"/>
<text text-anchor="middle" x="160" y="-74.5" font-family="Helvetica,sans-Serif" font-size="10.00">FunctionOfMultipleMeansTally</text>
</a>
</g>
</g>
<!-- Node1&#45;&gt;Node3 -->
<g id="edge2" class="edge"><title>Node1&#45;&gt;Node3</title>
<path fill="none" stroke="midnightblue" d="M160,-112.805C160,-103.91 160,-93.7798 160,-86.7511"/>
<polygon fill="midnightblue" stroke="midnightblue" points="156.5,-113.083 160,-123.083 163.5,-113.083 156.5,-113.083"/>
</g>
<!-- Node5 -->
<g id="node5" class="node"><title>Node5</title>
<g id="a_node5"><a xlink:href="classumontreal_1_1ssj_1_1stat_1_1Tally.html" target="_top" xlink:title="A subclass of StatProbe. ">
<polygon fill="none" stroke="black" points="263,-67.5 263,-86.5 301,-86.5 301,-67.5 263,-67.5"/>
<text text-anchor="middle" x="282" y="-74.5" font-family="Helvetica,sans-Serif" font-size="10.00">Tally</text>
</a>
</g>
</g>
<!-- Node1&#45;&gt;Node5 -->
<g id="edge4" class="edge"><title>Node1&#45;&gt;Node5</title>
<path fill="none" stroke="midnightblue" d="M188.539,-119.368C211.386,-109.255 242.805,-95.3486 262.759,-86.5164"/>
<polygon fill="midnightblue" stroke="midnightblue" points="187.059,-116.196 179.331,-123.444 189.892,-122.597 187.059,-116.196"/>
</g>
<!-- Node4 -->
<g id="node4" class="node"><title>Node4</title>
<g id="a_node4"><a xlink:href="classumontreal_1_1ssj_1_1stat_1_1list_1_1lincv_1_1FunctionOfMultipleMeansTallyWithCV.html" target="_top" xlink:title="Represents a function of multiple means tally for an estimator with linear control variables...">
<polygon fill="none" stroke="black" points="73.5,-0.5 73.5,-30.5 222.5,-30.5 222.5,-0.5 73.5,-0.5"/>
<text text-anchor="start" x="81.5" y="-18.5" font-family="Helvetica,sans-Serif" font-size="10.00">FunctionOfMultipleMeansTally</text>
<text text-anchor="middle" x="148" y="-7.5" font-family="Helvetica,sans-Serif" font-size="10.00">WithCV</text>
</a>
</g>
</g>
<!-- Node3&#45;&gt;Node4 -->
<g id="edge3" class="edge"><title>Node3&#45;&gt;Node4</title>
<path fill="none" stroke="midnightblue" d="M156.274,-57.5259C154.517,-48.8134 152.454,-38.5865 150.828,-30.523"/>
<polygon fill="midnightblue" stroke="midnightblue" points="152.873,-58.3645 158.281,-67.4751 159.735,-56.9805 152.873,-58.3645"/>
</g>
<!-- Node6 -->
<g id="node6" class="node"><title>Node6</title>
<g id="a_node6"><a xlink:href="classumontreal_1_1ssj_1_1stat_1_1TallyHistogram.html" target="_top" xlink:title="This class is an extension of Tally which gives a more detailed view of the observations statistics...">
<polygon fill="none" stroke="black" points="240.5,-6 240.5,-25 323.5,-25 323.5,-6 240.5,-6"/>
<text text-anchor="middle" x="282" y="-13" font-family="Helvetica,sans-Serif" font-size="10.00">TallyHistogram</text>
</a>
</g>
</g>
<!-- Node5&#45;&gt;Node6 -->
<g id="edge5" class="edge"><title>Node5&#45;&gt;Node6</title>
<path fill="none" stroke="midnightblue" d="M282,-57.3165C282,-46.4962 282,-33.398 282,-25.0091"/>
<polygon fill="midnightblue" stroke="midnightblue" points="278.5,-57.4751 282,-67.4751 285.5,-57.4751 278.5,-57.4751"/>
</g>
<!-- Node7 -->
<g id="node7" class="node"><title>Node7</title>
<g id="a_node7"><a xlink:href="classumontreal_1_1ssj_1_1stat_1_1TallyStore.html" target="_top" xlink:title="This class is a variant of Tally for which the individual observations are stored in a list implement...">
<polygon fill="none" stroke="black" points="341.5,-6 341.5,-25 402.5,-25 402.5,-6 341.5,-6"/>
<text text-anchor="middle" x="372" y="-13" font-family="Helvetica,sans-Serif" font-size="10.00">TallyStore</text>
</a>
</g>
</g>
<!-- Node5&#45;&gt;Node7 -->
<g id="edge6" class="edge"><title>Node5&#45;&gt;Node7</title>
<path fill="none" stroke="midnightblue" d="M303.283,-61.9295C320.634,-50.4589 344.57,-34.6343 359.129,-25.0091"/>
<polygon fill="midnightblue" stroke="midnightblue" points="301.306,-59.0405 294.895,-67.4751 305.167,-64.8798 301.306,-59.0405"/>
</g>
</g>
</svg>
