<?xml version="1.0" encoding="UTF-8" standalone="no"?>
<!DOCTYPE svg PUBLIC "-//W3C//DTD SVG 1.1//EN"
 "http://www.w3.org/Graphics/SVG/1.1/DTD/svg11.dtd">
<!-- Generated by graphviz version 2.38.0 (20140413.2041)
 -->
<!-- Title: Event Pages: 1 -->
<svg width="319pt" height="219pt"
 viewBox="0.00 0.00 319.00 219.00" xmlns="http://www.w3.org/2000/svg" xmlns:xlink="http://www.w3.org/1999/xlink">
<g id="graph0" class="graph" transform="scale(1 1) rotate(0) translate(4 215)">
<title>Event</title>
<!-- Node1 -->
<g id="node1" class="node"><title>Node1</title>
<polygon fill="#bfbfbf" stroke="black" points="77,-0.5 77,-19.5 121,-19.5 121,-0.5 77,-0.5"/>
<text text-anchor="middle" x="99" y="-7.5" font-family="Helvetica,sans-Serif" font-size="10.00">Event</text>
</g>
<!-- Node2 -->
<g id="node2" class="node"><title>Node2</title>
<polygon fill="none" stroke="#bfbfbf" points="0,-67.5 0,-86.5 126,-86.5 126,-67.5 0,-67.5"/>
<text text-anchor="middle" x="63" y="-74.5" font-family="Helvetica,sans-Serif" font-size="10.00">Comparable&lt; Event &gt;</text>
</g>
<!-- Node2&#45;&gt;Node1 -->
<g id="edge1" class="edge"><title>Node2&#45;&gt;Node1</title>
<path fill="none" stroke="midnightblue" d="M72.8787,-58.1635C79.8214,-45.6281 88.8035,-29.4104 94.2218,-19.6273"/>
<polygon fill="midnightblue" stroke="midnightblue" points="69.6384,-56.7901 67.8551,-67.2338 75.7619,-60.1817 69.6384,-56.7901"/>
</g>
<!-- Node3 -->
<g id="node3" class="node"><title>Node3</title>
<g id="a_node3"><a xlink:href="classumontreal_1_1ssj_1_1simevents_1_1Simulator.html" target="_top" xlink:title="Represents the executive of a discrete&#45;event simulator. ">
<polygon fill="none" stroke="black" points="144,-67.5 144,-86.5 208,-86.5 208,-67.5 144,-67.5"/>
<text text-anchor="middle" x="176" y="-74.5" font-family="Helvetica,sans-Serif" font-size="10.00">Simulator</text>
</a>
</g>
</g>
<!-- Node3&#45;&gt;Node1 -->
<g id="edge2" class="edge"><title>Node3&#45;&gt;Node1</title>
<path fill="none" stroke="#9a32cd" stroke-dasharray="5,2" d="M157.891,-60.7134C142.721,-47.907 121.612,-30.0884 109.22,-19.6273"/>
<polygon fill="#9a32cd" stroke="#9a32cd" points="155.716,-63.4577 165.615,-67.2338 160.232,-58.1088 155.716,-63.4577"/>
<text text-anchor="middle" x="153" y="-41" font-family="Helvetica,sans-Serif" font-size="10.00"> sim</text>
</g>
<!-- Node3&#45;&gt;Node3 -->
<g id="edge3" class="edge"><title>Node3&#45;&gt;Node3</title>
<path fill="none" stroke="#9a32cd" stroke-dasharray="5,2" d="M218.222,-82.0661C222.945,-81.1106 226,-79.4219 226,-77 226,-73.125 218.179,-71.127 208.22,-71.0059"/>
<polygon fill="#9a32cd" stroke="#9a32cd" points="217.854,-78.5851 208.22,-82.9941 218.501,-85.5552 217.854,-78.5851"/>
<text text-anchor="middle" x="268.5" y="-74.5" font-family="Helvetica,sans-Serif" font-size="10.00"> defaultSimulator</text>
</g>
<!-- Node4 -->
<g id="node4" class="node"><title>Node4</title>
<g id="a_node4"><a xlink:href="interfaceumontreal_1_1ssj_1_1simevents_1_1eventlist_1_1EventList.html" target="_top" xlink:title="An interface for implementations of event lists. ">
<polygon fill="none" stroke="black" points="90,-134.5 90,-153.5 152,-153.5 152,-134.5 90,-134.5"/>
<text text-anchor="middle" x="121" y="-141.5" font-family="Helvetica,sans-Serif" font-size="10.00">EventList</text>
</a>
</g>
</g>
<!-- Node4&#45;&gt;Node3 -->
<g id="edge4" class="edge"><title>Node4&#45;&gt;Node3</title>
<path fill="none" stroke="#9a32cd" stroke-dasharray="5,2" d="M128.657,-124.682C131.907,-118.088 136.088,-110.842 141,-105 147.025,-97.8336 155.256,-91.3657 162.223,-86.558"/>
<polygon fill="#9a32cd" stroke="#9a32cd" points="125.279,-123.656 124.345,-134.21 131.657,-126.542 125.279,-123.656"/>
<text text-anchor="middle" x="165.5" y="-108" font-family="Helvetica,sans-Serif" font-size="10.00"> eventList</text>
</g>
<!-- Node5 -->
<g id="node5" class="node"><title>Node5</title>
<polygon fill="none" stroke="#bfbfbf" points="69,-191.5 69,-210.5 173,-210.5 173,-191.5 69,-191.5"/>
<text text-anchor="middle" x="121" y="-198.5" font-family="Helvetica,sans-Serif" font-size="10.00">Iterable&lt; Event &gt;</text>
</g>
<!-- Node5&#45;&gt;Node4 -->
<g id="edge5" class="edge"><title>Node5&#45;&gt;Node4</title>
<path fill="none" stroke="midnightblue" d="M121,-181.117C121,-171.817 121,-161.056 121,-153.715"/>
<polygon fill="midnightblue" stroke="midnightblue" points="117.5,-181.406 121,-191.406 124.5,-181.406 117.5,-181.406"/>
</g>
<!-- Node6 -->
<g id="node6" class="node"><title>Node6</title>
<g id="a_node6"><a xlink:href="classumontreal_1_1ssj_1_1simevents_1_1ContinuousState.html" target="_top" xlink:title="Represents the portion of the simulator’s state associated with continuous&#45;time simulation. ">
<polygon fill="none" stroke="black" points="169.5,-134.5 169.5,-153.5 266.5,-153.5 266.5,-134.5 169.5,-134.5"/>
<text text-anchor="middle" x="218" y="-141.5" font-family="Helvetica,sans-Serif" font-size="10.00">ContinuousState</text>
</a>
</g>
</g>
<!-- Node6&#45;&gt;Node3 -->
<g id="edge6" class="edge"><title>Node6&#45;&gt;Node3</title>
<path fill="none" stroke="#9a32cd" stroke-dasharray="5,2" d="M206.715,-125.535C198.583,-112.95 187.959,-96.5072 181.575,-86.6273"/>
<polygon fill="#9a32cd" stroke="#9a32cd" points="203.969,-127.734 212.336,-134.234 209.848,-123.935 203.969,-127.734"/>
<text text-anchor="middle" x="240" y="-108" font-family="Helvetica,sans-Serif" font-size="10.00"> continuousState</text>
</g>
</g>
</svg>
