<?xml version="1.0" encoding="UTF-8" standalone="no"?>
<!DOCTYPE svg PUBLIC "-//W3C//DTD SVG 1.1//EN"
 "http://www.w3.org/Graphics/SVG/1.1/DTD/svg11.dtd">
<!-- Generated by graphviz version 2.26.3 (20100126.1600)
 -->
<!-- Title: DigitalNet.DigitalNetIteratorNoGray Pages: 1 -->
<svg width="142pt" height="286pt"
 viewBox="0.00 0.00 142.00 286.00" xmlns="http://www.w3.org/2000/svg" xmlns:xlink="http://www.w3.org/1999/xlink">
<g id="graph1" class="graph" transform="scale(1 1) rotate(0) translate(4 282)">
<title>DigitalNet.DigitalNetIteratorNoGray</title>
<!-- Node1 -->
<g id="node1" class="node"><title>Node1</title>
<polygon fill="#bfbfbf" stroke="black" points="0,-1 0,-33 134,-33 134,-1 0,-1"/>
<text text-anchor="start" x="8" y="-20" font-family="Helvetica,sans-Serif" font-size="10.00">DigitalNet.DigitalNetIterator</text>
<text text-anchor="middle" x="67" y="-8" font-family="Helvetica,sans-Serif" font-size="10.00">NoGray</text>
</g>
<!-- Node2 -->
<g id="node2" class="node"><title>Node2</title>
<a xlink:href="classumontreal_1_1ssj_1_1hups_1_1DigitalNet_1_1DigitalNetIterator.html" target="_top" xlink:title="DigitalNet.DigitalNetIterator">
<polygon fill="none" stroke="black" points="0,-71 0,-91 134,-91 134,-71 0,-71"/>
<text text-anchor="middle" x="67" y="-78" font-family="Helvetica,sans-Serif" font-size="10.00">DigitalNet.DigitalNetIterator</text>
</a>
</g>
<!-- Node2&#45;&gt;Node1 -->
<g id="edge2" class="edge"><title>Node2&#45;&gt;Node1</title>
<path fill="none" stroke="midnightblue" d="M67,-60.4346C67,-51.5494 67,-41.3101 67,-33.0054"/>
<polygon fill="midnightblue" stroke="midnightblue" points="63.5001,-60.7173 67,-70.7173 70.5001,-60.7173 63.5001,-60.7173"/>
</g>
<!-- Node3 -->
<g id="node4" class="node"><title>Node3</title>
<a xlink:href="classumontreal_1_1ssj_1_1hups_1_1PointSet_1_1DefaultPointSetIterator.html" target="_top" xlink:title="PointSet.DefaultPointSet\lIterator">
<polygon fill="none" stroke="black" points="4.5,-129 4.5,-161 129.5,-161 129.5,-129 4.5,-129"/>
<text text-anchor="start" x="12.5" y="-148" font-family="Helvetica,sans-Serif" font-size="10.00">PointSet.DefaultPointSet</text>
<text text-anchor="middle" x="67" y="-136" font-family="Helvetica,sans-Serif" font-size="10.00">Iterator</text>
</a>
</g>
<!-- Node3&#45;&gt;Node2 -->
<g id="edge4" class="edge"><title>Node3&#45;&gt;Node2</title>
<path fill="none" stroke="midnightblue" d="M67,-118.764C67,-109.039 67,-98.5805 67,-91.141"/>
<polygon fill="midnightblue" stroke="midnightblue" points="63.5001,-118.85 67,-128.85 70.5001,-118.85 63.5001,-118.85"/>
</g>
<!-- Node4 -->
<g id="node6" class="node"><title>Node4</title>
<a xlink:href="interfaceumontreal_1_1ssj_1_1hups_1_1PointSetIterator.html" target="_top" xlink:title="Objects of classes that implement this interface are iterators that permit one to enumerate (or obser...">
<polygon fill="none" stroke="black" points="24.5,-199 24.5,-219 109.5,-219 109.5,-199 24.5,-199"/>
<text text-anchor="middle" x="67" y="-206" font-family="Helvetica,sans-Serif" font-size="10.00">PointSetIterator</text>
</a>
</g>
<!-- Node4&#45;&gt;Node3 -->
<g id="edge6" class="edge"><title>Node4&#45;&gt;Node3</title>
<path fill="none" stroke="midnightblue" d="M67,-188.435C67,-179.549 67,-169.31 67,-161.005"/>
<polygon fill="midnightblue" stroke="midnightblue" points="63.5001,-188.717 67,-198.717 70.5001,-188.717 63.5001,-188.717"/>
</g>
<!-- Node5 -->
<g id="node8" class="node"><title>Node5</title>
<a xlink:href="interfaceumontreal_1_1ssj_1_1rng_1_1RandomStream.html" target="_top" xlink:title="This interface defines the basic structures to handle multiple streams of uniform (pseudo)random numb...">
<polygon fill="none" stroke="black" points="25,-257 25,-277 109,-277 109,-257 25,-257"/>
<text text-anchor="middle" x="67" y="-264" font-family="Helvetica,sans-Serif" font-size="10.00">RandomStream</text>
</a>
</g>
<!-- Node5&#45;&gt;Node4 -->
<g id="edge8" class="edge"><title>Node5&#45;&gt;Node4</title>
<path fill="none" stroke="midnightblue" d="M67,-246.89C67,-237.62 67,-227.008 67,-219.378"/>
<polygon fill="midnightblue" stroke="midnightblue" points="63.5001,-246.897 67,-256.897 70.5001,-246.897 63.5001,-246.897"/>
</g>
</g>
</svg>
