<?xml version="1.0" encoding="UTF-8" standalone="no"?>
<!DOCTYPE svg PUBLIC "-//W3C//DTD SVG 1.1//EN"
 "http://www.w3.org/Graphics/SVG/1.1/DTD/svg11.dtd">
<!-- Generated by graphviz version 2.38.0 (20140413.2041)
 -->
<!-- Title: HilbertCurveSort Pages: 1 -->
<svg width="264pt" height="95pt"
 viewBox="0.00 0.00 263.50 95.00" xmlns="http://www.w3.org/2000/svg" xmlns:xlink="http://www.w3.org/1999/xlink">
<g id="graph0" class="graph" transform="scale(1 1) rotate(0) translate(4 91)">
<title>HilbertCurveSort</title>
<!-- Node2 -->
<g id="node1" class="node"><title>Node2</title>
<polygon fill="#bfbfbf" stroke="black" points="100,-0.5 100,-19.5 186,-19.5 186,-0.5 100,-0.5"/>
<text text-anchor="middle" x="143" y="-7.5" font-family="Helvetica,sans-Serif" font-size="10.00">HilbertCurveSort</text>
</g>
<!-- Node3 -->
<g id="node2" class="node"><title>Node3</title>
<g id="a_node2"><a xlink:href="interfaceumontreal_1_1ssj_1_1util_1_1sort_1_1MultiDimSort01.html" target="_top" xlink:title="MultiDimSort01\&lt; MultiDim01 \&gt;">
<polygon fill="none" stroke="black" points="0,-67.5 0,-86.5 150,-86.5 150,-67.5 0,-67.5"/>
<text text-anchor="middle" x="75" y="-74.5" font-family="Helvetica,sans-Serif" font-size="10.00">MultiDimSort01&lt; MultiDim01 &gt;</text>
</a>
</g>
</g>
<!-- Node3&#45;&gt;Node2 -->
<g id="edge1" class="edge"><title>Node3&#45;&gt;Node2</title>
<path fill="none" stroke="midnightblue" d="M91.7418,-59.9968C105.077,-47.2496 123.233,-29.8947 133.975,-19.6273"/>
<polygon fill="midnightblue" stroke="midnightblue" points="88.9811,-57.7939 84.1708,-67.2338 93.818,-62.854 88.9811,-57.7939"/>
</g>
<!-- Node4 -->
<g id="node3" class="node"><title>Node4</title>
<g id="a_node3"><a xlink:href="classumontreal_1_1ssj_1_1util_1_1sort_1_1HilbertCurveMap.html" target="_top" xlink:title="This class implements the mapping of a Hilbert curve in the &#45;dimensional unit hypercube ...">
<polygon fill="none" stroke="black" points="168.5,-67.5 168.5,-86.5 255.5,-86.5 255.5,-67.5 168.5,-67.5"/>
<text text-anchor="middle" x="212" y="-74.5" font-family="Helvetica,sans-Serif" font-size="10.00">HilbertCurveMap</text>
</a>
</g>
</g>
<!-- Node4&#45;&gt;Node2 -->
<g id="edge2" class="edge"><title>Node4&#45;&gt;Node2</title>
<path fill="none" stroke="#9a32cd" stroke-dasharray="5,2" d="M195.394,-60.3564C181.829,-47.5777 163.16,-29.9915 152.158,-19.6273"/>
<polygon fill="#9a32cd" stroke="#9a32cd" points="193.015,-62.9245 202.694,-67.2338 197.815,-57.8292 193.015,-62.9245"/>
<text text-anchor="middle" x="198.5" y="-41" font-family="Helvetica,sans-Serif" font-size="10.00"> hcMap</text>
</g>
</g>
</svg>
