<?xml version="1.0" encoding="UTF-8" standalone="no"?>
<!DOCTYPE svg PUBLIC "-//W3C//DTD SVG 1.1//EN"
 "http://www.w3.org/Graphics/SVG/1.1/DTD/svg11.dtd">
<!-- Generated by graphviz version 2.38.0 (20140413.2041)
 -->
<!-- Title: CallCenterCRN Pages: 1 -->
<!--zoomable 510 -->
<svg id="main" version="1.1" xmlns="http://www.w3.org/2000/svg" xmlns:xlink="http://www.w3.org/1999/xlink" xml:space="preserve" onload="init(evt)">
<style type="text/css"><![CDATA[
.edge:hover path { stroke: red; }
.edge:hover polygon { stroke: red; fill: red; }
]]></style>
<script type="text/javascript"><![CDATA[
var edges = document.getElementsByTagName('g');
if (edges && edges.length) {
  for (var i=0;i<edges.length;i++) {
    if (edges[i].id.substr(0,4)=='edge') {
      edges[i].setAttribute('class','edge');
    }
  }
}
]]></script>
        <defs>
                <circle id="rim" cx="0" cy="0" r="7"/>
                <circle id="rim2" cx="0" cy="0" r="3.5"/>
                <g id="zoomPlus">
                        <use xlink:href="#rim" fill="#404040">
                                <set attributeName="fill" to="#808080" begin="zoomplus.mouseover" end="zoomplus.mouseout"/>
                        </use>
                        <path d="M-4,0h8M0,-4v8" fill="none" stroke="white" stroke-width="1.5" pointer-events="none"/>
                </g>
                <g id="zoomMin">
                        <use xlink:href="#rim" fill="#404040">
                                <set attributeName="fill" to="#808080" begin="zoomminus.mouseover" end="zoomminus.mouseout"/>
                        </use>
                        <path d="M-4,0h8" fill="none" stroke="white" stroke-width="1.5" pointer-events="none"/>
                </g>
                <g id="dirArrow">
                        <path fill="none" stroke="white" stroke-width="1.5" d="M0,-3.0v7 M-2.5,-0.5L0,-3.0L2.5,-0.5"/>
                </g>
               <g id="resetDef">
                       <use xlink:href="#rim2" fill="#404040">
                               <set attributeName="fill" to="#808080" begin="reset.mouseover" end="reset.mouseout"/>
                       </use>
               </g>
        </defs>

<script type="text/javascript">
var viewWidth = 721;
var viewHeight = 510;
var sectionId = 'dynsection-1';
</script>
<script xlink:href="svgpan.js"/>
<svg id="graph" class="graph">
<g id="viewport">
<title>CallCenterCRN</title>
<!-- Node2 -->
<g id="node1" class="node"><title>Node2</title>
<polygon fill="#bfbfbf" stroke="black" points="197,-0.5 197,-19.5 283,-19.5 283,-0.5 197,-0.5"/>
<text text-anchor="middle" x="240" y="-7.5" font-family="Helvetica,sans-Serif" font-size="10.00">CallCenterCRN</text>
</g>
<!-- Node3 -->
<g id="node2" class="node"><title>Node3</title>
<g id="a_node2"><a xlink:href="classift6561examples_1_1CallCenter.html" target="_top" xlink:title="CallCenter">
<polygon fill="none" stroke="black" points="318.5,-108 318.5,-127 381.5,-127 381.5,-108 318.5,-108"/>
<text text-anchor="middle" x="350" y="-115" font-family="Helvetica,sans-Serif" font-size="10.00">CallCenter</text>
</a>
</g>
</g>
<!-- Node3&#45;&gt;Node2 -->
<g id="edge1" class="edge"><title>Node3&#45;&gt;Node2</title>
<path fill="none" stroke="midnightblue" d="M333.545,-100.718C310.05,-78.1844 267.685,-37.552 249.126,-19.7528"/>
<polygon fill="midnightblue" stroke="midnightblue" points="331.358,-103.471 340.998,-107.866 336.204,-98.4185 331.358,-103.471"/>
</g>
<!-- Node4 -->
<g id="node3" class="node"><title>Node4</title>
<g id="a_node3"><a xlink:href="classumontreal_1_1ssj_1_1stat_1_1Tally.html" target="_top" xlink:title="A subclass of StatProbe. ">
<polygon fill="none" stroke="black" points="174,-269.5 174,-288.5 212,-288.5 212,-269.5 174,-269.5"/>
<text text-anchor="middle" x="193" y="-276.5" font-family="Helvetica,sans-Serif" font-size="10.00">Tally</text>
</a>
</g>
</g>
<!-- Node4&#45;&gt;Node2 -->
<g id="edge19" class="edge"><title>Node4&#45;&gt;Node2</title>
<path fill="none" stroke="#9a32cd" stroke-dasharray="5,2" d="M196.264,-259.455C205.547,-206.723 231.848,-57.3078 238.471,-19.6834"/>
<polygon fill="#9a32cd" stroke="#9a32cd" points="192.797,-258.963 194.511,-269.419 199.691,-260.177 192.797,-258.963"/>
<text text-anchor="middle" x="264" y="-170" font-family="Helvetica,sans-Serif" font-size="10.00"> statLR2</text>
<text text-anchor="middle" x="264" y="-159" font-family="Helvetica,sans-Serif" font-size="10.00">statDiffWait31</text>
<text text-anchor="middle" x="264" y="-148" font-family="Helvetica,sans-Serif" font-size="10.00">statLR3</text>
<text text-anchor="middle" x="264" y="-137" font-family="Helvetica,sans-Serif" font-size="10.00">statDiffQoS31</text>
<text text-anchor="middle" x="264" y="-126" font-family="Helvetica,sans-Serif" font-size="10.00">statDiffQoS21</text>
<text text-anchor="middle" x="264" y="-115" font-family="Helvetica,sans-Serif" font-size="10.00">statWait1</text>
<text text-anchor="middle" x="264" y="-104" font-family="Helvetica,sans-Serif" font-size="10.00">statDiffLR21</text>
<text text-anchor="middle" x="264" y="-93" font-family="Helvetica,sans-Serif" font-size="10.00">statWait2</text>
<text text-anchor="middle" x="264" y="-82" font-family="Helvetica,sans-Serif" font-size="10.00">statWait3</text>
<text text-anchor="middle" x="264" y="-71" font-family="Helvetica,sans-Serif" font-size="10.00">statQoS1</text>
<text text-anchor="middle" x="264" y="-60" font-family="Helvetica,sans-Serif" font-size="10.00">...</text>
</g>
<!-- Node4&#45;&gt;Node3 -->
<g id="edge2" class="edge"><title>Node4&#45;&gt;Node3</title>
<path fill="none" stroke="#9a32cd" stroke-dasharray="5,2" d="M203.368,-260.551C216.769,-238.121 238.984,-201.406 244,-196 259.04,-179.789 312.159,-143.641 337.006,-127.083"/>
<polygon fill="#9a32cd" stroke="#9a32cd" points="200.194,-259.04 198.082,-269.422 206.207,-262.623 200.194,-259.04"/>
<text text-anchor="middle" x="276" y="-243" font-family="Helvetica,sans-Serif" font-size="10.00"> statWaitsDay</text>
<text text-anchor="middle" x="276" y="-232" font-family="Helvetica,sans-Serif" font-size="10.00">statWaits</text>
<text text-anchor="middle" x="276" y="-221" font-family="Helvetica,sans-Serif" font-size="10.00">statArrivals</text>
<text text-anchor="middle" x="276" y="-210" font-family="Helvetica,sans-Serif" font-size="10.00">statAbandon</text>
<text text-anchor="middle" x="276" y="-199" font-family="Helvetica,sans-Serif" font-size="10.00">statGoodQoS</text>
</g>
<!-- Node5 -->
<g id="node4" class="node"><title>Node5</title>
<g id="a_node4"><a xlink:href="classumontreal_1_1ssj_1_1stat_1_1StatProbe.html" target="_top" xlink:title="The objects of this class are statistical probes or collectors, which are elementary devices for coll...">
<polygon fill="none" stroke="black" points="0,-358.5 0,-377.5 60,-377.5 60,-358.5 0,-358.5"/>
<text text-anchor="middle" x="30" y="-365.5" font-family="Helvetica,sans-Serif" font-size="10.00">StatProbe</text>
</a>
</g>
</g>
<!-- Node5&#45;&gt;Node4 -->
<g id="edge3" class="edge"><title>Node5&#45;&gt;Node4</title>
<path fill="none" stroke="midnightblue" d="M52.1265,-352.984C72.5126,-340.313 103.787,-321.481 132,-307 145.703,-299.966 161.633,-292.953 173.777,-287.838"/>
<polygon fill="midnightblue" stroke="midnightblue" points="50.1966,-350.063 43.5761,-358.335 53.9099,-355.997 50.1966,-350.063"/>
</g>
<!-- Node6 -->
<g id="node5" class="node"><title>Node6</title>
<polygon fill="none" stroke="#bfbfbf" points="78,-358.5 78,-377.5 138,-377.5 138,-358.5 78,-358.5"/>
<text text-anchor="middle" x="108" y="-365.5" font-family="Helvetica,sans-Serif" font-size="10.00">Cloneable</text>
</g>
<!-- Node6&#45;&gt;Node4 -->
<g id="edge4" class="edge"><title>Node6&#45;&gt;Node4</title>
<path fill="none" stroke="midnightblue" d="M123.881,-350.745C141.857,-332.346 170.468,-303.062 184.573,-288.625"/>
<polygon fill="midnightblue" stroke="midnightblue" points="120.946,-348.741 116.461,-358.34 125.953,-353.633 120.946,-348.741"/>
</g>
<!-- Node7 -->
<g id="node6" class="node"><title>Node7</title>
<polygon fill="none" stroke="#bfbfbf" points="156.5,-358.5 156.5,-377.5 229.5,-377.5 229.5,-358.5 156.5,-358.5"/>
<text text-anchor="middle" x="193" y="-365.5" font-family="Helvetica,sans-Serif" font-size="10.00">Tally.CIType</text>
</g>
<!-- Node7&#45;&gt;Node4 -->
<g id="edge5" class="edge"><title>Node7&#45;&gt;Node4</title>
<path fill="none" stroke="#9a32cd" stroke-dasharray="5,2" d="M193,-348.195C193,-329.738 193,-302.412 193,-288.625"/>
<polygon fill="#9a32cd" stroke="#9a32cd" points="189.5,-348.34 193,-358.34 196.5,-348.34 189.5,-348.34"/>
<text text-anchor="middle" x="234.5" y="-321" font-family="Helvetica,sans-Serif" font-size="10.00"> confidenceInterval</text>
</g>
<!-- Node8 -->
<g id="node7" class="node"><title>Node8</title>
<g id="a_node7"><a xlink:href="classumontreal_1_1ssj_1_1randvar_1_1GammaGen.html" target="_top" xlink:title="This class implements random variate generators for the gamma distribution. ">
<polygon fill="none" stroke="black" points="272.5,-269.5 272.5,-288.5 341.5,-288.5 341.5,-269.5 272.5,-269.5"/>
<text text-anchor="middle" x="307" y="-276.5" font-family="Helvetica,sans-Serif" font-size="10.00">GammaGen</text>
</a>
</g>
</g>
<!-- Node8&#45;&gt;Node3 -->
<g id="edge6" class="edge"><title>Node8&#45;&gt;Node3</title>
<path fill="none" stroke="#9a32cd" stroke-dasharray="5,2" d="M310.237,-259.205C313.272,-242.487 318.204,-217.438 324,-196 330.815,-170.792 341.265,-141.784 346.604,-127.461"/>
<polygon fill="#9a32cd" stroke="#9a32cd" points="306.746,-258.845 308.451,-269.302 313.639,-260.064 306.746,-258.845"/>
<text text-anchor="middle" x="344" y="-221" font-family="Helvetica,sans-Serif" font-size="10.00"> genServ</text>
</g>
<!-- Node9 -->
<g id="node8" class="node"><title>Node9</title>
<g id="a_node8"><a xlink:href="classumontreal_1_1ssj_1_1randvar_1_1RandomVariateGen.html" target="_top" xlink:title="This is the base class for all random variate generators over the real line. ">
<polygon fill="none" stroke="black" points="248,-358.5 248,-377.5 350,-377.5 350,-358.5 248,-358.5"/>
<text text-anchor="middle" x="299" y="-365.5" font-family="Helvetica,sans-Serif" font-size="10.00">RandomVariateGen</text>
</a>
</g>
</g>
<!-- Node9&#45;&gt;Node8 -->
<g id="edge7" class="edge"><title>Node9&#45;&gt;Node8</title>
<path fill="none" stroke="midnightblue" d="M300.729,-348.195C302.426,-329.738 304.939,-302.412 306.207,-288.625"/>
<polygon fill="midnightblue" stroke="midnightblue" points="297.227,-348.062 299.796,-358.34 304.197,-348.703 297.227,-348.062"/>
</g>
<!-- Node10 -->
<g id="node9" class="node"><title>Node10</title>
<g id="a_node9"><a xlink:href="interfaceumontreal_1_1ssj_1_1probdist_1_1Distribution.html" target="_top" xlink:title="This interface should be implemented by all classes supporting discrete and continuous distributions...">
<polygon fill="none" stroke="black" points="251,-425.5 251,-444.5 317,-444.5 317,-425.5 251,-425.5"/>
<text text-anchor="middle" x="284" y="-432.5" font-family="Helvetica,sans-Serif" font-size="10.00">Distribution</text>
</a>
</g>
</g>
<!-- Node10&#45;&gt;Node9 -->
<g id="edge8" class="edge"><title>Node10&#45;&gt;Node9</title>
<path fill="none" stroke="#9a32cd" stroke-dasharray="5,2" d="M283.522,-415.272C283.749,-409.059 284.423,-402.16 286,-396 287.652,-389.549 290.902,-382.799 293.739,-377.662"/>
<polygon fill="#9a32cd" stroke="#9a32cd" points="280.022,-415.395 283.498,-425.403 287.022,-415.412 280.022,-415.395"/>
<text text-anchor="middle" x="295.5" y="-399" font-family="Helvetica,sans-Serif" font-size="10.00"> dist</text>
</g>
<!-- Node11 -->
<g id="node10" class="node"><title>Node11</title>
<g id="a_node10"><a xlink:href="interfaceumontreal_1_1ssj_1_1rng_1_1RandomStream.html" target="_top" xlink:title="This interface defines the basic structures to handle multiple streams of uniform (pseudo)random numb...">
<polygon fill="none" stroke="black" points="335.5,-425.5 335.5,-444.5 420.5,-444.5 420.5,-425.5 335.5,-425.5"/>
<text text-anchor="middle" x="378" y="-432.5" font-family="Helvetica,sans-Serif" font-size="10.00">RandomStream</text>
</a>
</g>
</g>
<!-- Node11&#45;&gt;Node3 -->
<g id="edge18" class="edge"><title>Node11&#45;&gt;Node3</title>
<path fill="none" stroke="#9a32cd" stroke-dasharray="5,2" d="M377.658,-415.114C376.758,-374.757 373.684,-277.173 364,-196 360.987,-170.748 354.962,-141.279 351.892,-127.051"/>
<polygon fill="#9a32cd" stroke="#9a32cd" points="374.163,-415.395 377.865,-425.322 381.161,-415.253 374.163,-415.395"/>
<text text-anchor="middle" x="410.5" y="-332" font-family="Helvetica,sans-Serif" font-size="10.00"> streamB</text>
<text text-anchor="middle" x="410.5" y="-321" font-family="Helvetica,sans-Serif" font-size="10.00">streamArr</text>
<text text-anchor="middle" x="410.5" y="-310" font-family="Helvetica,sans-Serif" font-size="10.00">streamPatience</text>
</g>
<!-- Node11&#45;&gt;Node9 -->
<g id="edge9" class="edge"><title>Node11&#45;&gt;Node9</title>
<path fill="none" stroke="#9a32cd" stroke-dasharray="5,2" d="M350.059,-420.603C343.167,-416.688 336.036,-412.078 330,-407 319.706,-398.34 310.31,-385.894 304.625,-377.635"/>
<polygon fill="#9a32cd" stroke="#9a32cd" points="348.718,-423.855 359.186,-425.49 352.023,-417.684 348.718,-423.855"/>
<text text-anchor="middle" x="347" y="-399" font-family="Helvetica,sans-Serif" font-size="10.00"> stream</text>
</g>
<!-- Node12 -->
<g id="node11" class="node"><title>Node12</title>
<polygon fill="none" stroke="#bfbfbf" points="406.5,-269.5 406.5,-288.5 467.5,-288.5 467.5,-269.5 406.5,-269.5"/>
<text text-anchor="middle" x="437" y="-276.5" font-family="Helvetica,sans-Serif" font-size="10.00">LinkedList</text>
</g>
<!-- Node12&#45;&gt;Node3 -->
<g id="edge10" class="edge"><title>Node12&#45;&gt;Node3</title>
<path fill="none" stroke="#9a32cd" stroke-dasharray="5,2" d="M427.516,-260.613C408.964,-226.6 368.479,-152.379 354.701,-127.118"/>
<polygon fill="#9a32cd" stroke="#9a32cd" points="424.461,-262.322 432.323,-269.425 430.607,-258.97 424.461,-262.322"/>
<text text-anchor="middle" x="439.5" y="-221" font-family="Helvetica,sans-Serif" font-size="10.00"> waitList</text>
</g>
<!-- Node13 -->
<g id="node12" class="node"><title>Node13</title>
<g id="a_node12"><a xlink:href="classumontreal_1_1ssj_1_1simevents_1_1Event.html" target="_top" xlink:title="This abstract class provides event scheduling tools. ">
<polygon fill="none" stroke="black" points="486,-269.5 486,-288.5 528,-288.5 528,-269.5 486,-269.5"/>
<text text-anchor="middle" x="507" y="-276.5" font-family="Helvetica,sans-Serif" font-size="10.00">Event</text>
</a>
</g>
</g>
<!-- Node13&#45;&gt;Node3 -->
<g id="edge11" class="edge"><title>Node13&#45;&gt;Node3</title>
<path fill="none" stroke="#9a32cd" stroke-dasharray="5,2" d="M499.843,-259.586C492.324,-241.883 479.199,-215.077 462,-196 433.975,-164.916 391.162,-139.767 367.408,-127.205"/>
<polygon fill="#9a32cd" stroke="#9a32cd" points="496.777,-261.336 503.787,-269.281 503.261,-258.699 496.777,-261.336"/>
<text text-anchor="middle" x="521" y="-221" font-family="Helvetica,sans-Serif" font-size="10.00"> nextArrival</text>
</g>
<!-- Node14 -->
<g id="node13" class="node"><title>Node14</title>
<polygon fill="none" stroke="#bfbfbf" points="431.5,-358.5 431.5,-377.5 544.5,-377.5 544.5,-358.5 431.5,-358.5"/>
<text text-anchor="middle" x="488" y="-365.5" font-family="Helvetica,sans-Serif" font-size="10.00">Comparable&lt; Event &gt;</text>
</g>
<!-- Node14&#45;&gt;Node13 -->
<g id="edge12" class="edge"><title>Node14&#45;&gt;Node13</title>
<path fill="none" stroke="midnightblue" d="M492.05,-348.455C496.081,-329.996 502.091,-302.477 505.116,-288.625"/>
<polygon fill="midnightblue" stroke="midnightblue" points="488.606,-347.824 489.891,-358.34 495.444,-349.317 488.606,-347.824"/>
</g>
<!-- Node15 -->
<g id="node14" class="node"><title>Node15</title>
<g id="a_node14"><a xlink:href="classumontreal_1_1ssj_1_1simevents_1_1Simulator.html" target="_top" xlink:title="Represents the executive of a discrete&#45;event simulator. ">
<polygon fill="none" stroke="black" points="563,-358.5 563,-377.5 621,-377.5 621,-358.5 563,-358.5"/>
<text text-anchor="middle" x="592" y="-365.5" font-family="Helvetica,sans-Serif" font-size="10.00">Simulator</text>
</a>
</g>
</g>
<!-- Node15&#45;&gt;Node13 -->
<g id="edge13" class="edge"><title>Node15&#45;&gt;Node13</title>
<path fill="none" stroke="#9a32cd" stroke-dasharray="5,2" d="M576.119,-350.745C558.143,-332.346 529.532,-303.062 515.427,-288.625"/>
<polygon fill="#9a32cd" stroke="#9a32cd" points="574.047,-353.633 583.539,-358.34 579.054,-348.741 574.047,-353.633"/>
<text text-anchor="middle" x="573.5" y="-321" font-family="Helvetica,sans-Serif" font-size="10.00"> sim</text>
</g>
<!-- Node15&#45;&gt;Node15 -->
<g id="edge14" class="edge"><title>Node15&#45;&gt;Node15</title>
<path fill="none" stroke="#9a32cd" stroke-dasharray="5,2" d="M631.603,-373.084C636.091,-372.132 639,-370.438 639,-368 639,-364 631.167,-362 621.375,-362"/>
<polygon fill="#9a32cd" stroke="#9a32cd" points="631.023,-369.622 621.375,-374 631.647,-376.594 631.023,-369.622"/>
<text text-anchor="middle" x="676" y="-365.5" font-family="Helvetica,sans-Serif" font-size="10.00"> defaultSimulator</text>
</g>
<!-- Node16 -->
<g id="node15" class="node"><title>Node16</title>
<g id="a_node15"><a xlink:href="interfaceumontreal_1_1ssj_1_1simevents_1_1eventlist_1_1EventList.html" target="_top" xlink:title="An interface for implementations of event lists. ">
<polygon fill="none" stroke="black" points="510,-425.5 510,-444.5 568,-444.5 568,-425.5 510,-425.5"/>
<text text-anchor="middle" x="539" y="-432.5" font-family="Helvetica,sans-Serif" font-size="10.00">EventList</text>
</a>
</g>
</g>
<!-- Node16&#45;&gt;Node15 -->
<g id="edge15" class="edge"><title>Node16&#45;&gt;Node15</title>
<path fill="none" stroke="#9a32cd" stroke-dasharray="5,2" d="M548.2,-416.41C552.059,-409.726 556.848,-402.228 562,-396 567.628,-389.197 574.983,-382.55 581.002,-377.553"/>
<polygon fill="#9a32cd" stroke="#9a32cd" points="545.021,-414.928 543.277,-425.378 551.157,-418.297 545.021,-414.928"/>
<text text-anchor="middle" x="583.5" y="-399" font-family="Helvetica,sans-Serif" font-size="10.00"> eventList</text>
</g>
<!-- Node17 -->
<g id="node16" class="node"><title>Node17</title>
<polygon fill="none" stroke="#bfbfbf" points="493,-482.5 493,-501.5 585,-501.5 585,-482.5 493,-482.5"/>
<text text-anchor="middle" x="539" y="-489.5" font-family="Helvetica,sans-Serif" font-size="10.00">Iterable&lt; Event &gt;</text>
</g>
<!-- Node17&#45;&gt;Node16 -->
<g id="edge16" class="edge"><title>Node17&#45;&gt;Node16</title>
<path fill="none" stroke="midnightblue" d="M539,-472.117C539,-462.817 539,-452.056 539,-444.715"/>
<polygon fill="midnightblue" stroke="midnightblue" points="535.5,-472.406 539,-482.406 542.5,-472.406 535.5,-472.406"/>
</g>
<!-- Node18 -->
<g id="node17" class="node"><title>Node18</title>
<g id="a_node17"><a xlink:href="classumontreal_1_1ssj_1_1simevents_1_1ContinuousState.html" target="_top" xlink:title="Represents the portion of the simulator’s state associated with continuous&#45;time simulation. ">
<polygon fill="none" stroke="black" points="586.5,-425.5 586.5,-444.5 675.5,-444.5 675.5,-425.5 586.5,-425.5"/>
<text text-anchor="middle" x="631" y="-432.5" font-family="Helvetica,sans-Serif" font-size="10.00">ContinuousState</text>
</a>
</g>
</g>
<!-- Node18&#45;&gt;Node15 -->
<g id="edge17" class="edge"><title>Node18&#45;&gt;Node15</title>
<path fill="none" stroke="#9a32cd" stroke-dasharray="5,2" d="M620.521,-416.535C612.97,-403.95 603.104,-387.507 597.176,-377.627"/>
<polygon fill="#9a32cd" stroke="#9a32cd" points="617.594,-418.46 625.74,-425.234 623.597,-414.858 617.594,-418.46"/>
<text text-anchor="middle" x="650" y="-399" font-family="Helvetica,sans-Serif" font-size="10.00"> continuousState</text>
</g>
</g>
</svg>
        <g id="navigator" transform="translate(0 0)" fill="#404254">
                <rect fill="#f2f5e9" fill-opacity="0.5" stroke="#606060" stroke-width=".5" x="0" y="0" width="60" height="60"/>
                <use id="zoomplus" xlink:href="#zoomPlus" x="17" y="9" onmousedown="handleZoom(evt,'in')"/>
                <use id="zoomminus" xlink:href="#zoomMin" x="42" y="9" onmousedown="handleZoom(evt,'out')"/>
                <use id="reset" xlink:href="#resetDef" x="30" y="36" onmousedown="handleReset()"/>
                <g id="arrowUp" xlink:href="#dirArrow" transform="translate(30 24)" onmousedown="handlePan(0,-1)">
                  <use xlink:href="#rim" fill="#404040">
                        <set attributeName="fill" to="#808080" begin="arrowUp.mouseover" end="arrowUp.mouseout"/>
                  </use>
                  <path fill="none" stroke="white" stroke-width="1.5" d="M0,-3.0v7 M-2.5,-0.5L0,-3.0L2.5,-0.5"/>
                </g>
                <g id="arrowRight" xlink:href="#dirArrow" transform="rotate(90) translate(36 -43)" onmousedown="handlePan(1,0)">
                  <use xlink:href="#rim" fill="#404040">
                        <set attributeName="fill" to="#808080" begin="arrowRight.mouseover" end="arrowRight.mouseout"/>
                  </use>
                  <path fill="none" stroke="white" stroke-width="1.5" d="M0,-3.0v7 M-2.5,-0.5L0,-3.0L2.5,-0.5"/>
                </g>
                <g id="arrowDown" xlink:href="#dirArrow" transform="rotate(180) translate(-30 -48)" onmousedown="handlePan(0,1)">
                  <use xlink:href="#rim" fill="#404040">
                        <set attributeName="fill" to="#808080" begin="arrowDown.mouseover" end="arrowDown.mouseout"/>
                  </use>
                  <path fill="none" stroke="white" stroke-width="1.5" d="M0,-3.0v7 M-2.5,-0.5L0,-3.0L2.5,-0.5"/>
                </g>
                <g id="arrowLeft" xlink:href="#dirArrow" transform="rotate(270) translate(-36 17)" onmousedown="handlePan(-1,0)">
                  <use xlink:href="#rim" fill="#404040">
                        <set attributeName="fill" to="#808080" begin="arrowLeft.mouseover" end="arrowLeft.mouseout"/>
                  </use>
                  <path fill="none" stroke="white" stroke-width="1.5" d="M0,-3.0v7 M-2.5,-0.5L0,-3.0L2.5,-0.5"/>
                </g>
        </g>
        <svg viewBox="0 0 15 15" width="100%" height="30px" preserveAspectRatio="xMaxYMin meet">
         <g id="arrow_out" transform="scale(0.3 0.3)">
          <a xlink:href="classift6561examples_1_1CallCenterCRN__coll__graph_org.svg" target="_base">
           <rect id="button" ry="5" rx="5" y="6" x="6" height="38" width="38"
                fill="#f2f5e9" fill-opacity="0.5" stroke="#606060" stroke-width="1.0"/>
           <path id="arrow"
             d="M 11.500037,31.436501 C 11.940474,20.09759 22.043105,11.32322 32.158766,21.979434 L 37.068811,17.246167 C 37.068811,17.246167 37.088388,32 37.088388,32 L 22.160133,31.978069 C 22.160133,31.978069 26.997745,27.140456 26.997745,27.140456 C 18.528582,18.264221 13.291696,25.230495 11.500037,31.436501 z"
             style="fill:#404040;"/>
          </a>
         </g>
        </svg>
</svg>
