<?xml version="1.0" encoding="UTF-8" standalone="no"?>
<!DOCTYPE svg PUBLIC "-//W3C//DTD SVG 1.1//EN"
 "http://www.w3.org/Graphics/SVG/1.1/DTD/svg11.dtd">
<!-- Generated by graphviz version 2.26.3 (20100126.1600)
 -->
<!-- Title: SSJXYSeriesCollection Pages: 1 -->
<svg width="418pt" height="146pt"
 viewBox="0.00 0.00 418.00 146.00" xmlns="http://www.w3.org/2000/svg" xmlns:xlink="http://www.w3.org/1999/xlink">
<g id="graph1" class="graph" transform="scale(1 1) rotate(0) translate(4 142)">
<title>SSJXYSeriesCollection</title>
<!-- Node1 -->
<g id="node1" class="node"><title>Node1</title>
<polygon fill="#bfbfbf" stroke="black" points="151.5,-117 151.5,-137 270.5,-137 270.5,-117 151.5,-117"/>
<text text-anchor="middle" x="211" y="-124" font-family="Helvetica,sans-Serif" font-size="10.00">SSJXYSeriesCollection</text>
</g>
<!-- Node2 -->
<g id="node3" class="node"><title>Node2</title>
<a xlink:href="classumontreal_1_1ssj_1_1charts_1_1EmpiricalSeriesCollection.html" target="_top" xlink:title="Stores data used in a EmpiricalChart. ">
<polygon fill="none" stroke="black" points="0,-59 0,-79 128,-79 128,-59 0,-59"/>
<text text-anchor="middle" x="64" y="-66" font-family="Helvetica,sans-Serif" font-size="10.00">EmpiricalSeriesCollection</text>
</a>
</g>
<!-- Node1&#45;&gt;Node2 -->
<g id="edge2" class="edge"><title>Node1&#45;&gt;Node2</title>
<path fill="none" stroke="midnightblue" d="M175.745,-113.09C149.282,-102.649 113.65,-88.5898 89.8052,-79.1817"/>
<polygon fill="midnightblue" stroke="midnightblue" points="174.808,-116.483 185.395,-116.897 177.377,-109.971 174.808,-116.483"/>
</g>
<!-- Node3 -->
<g id="node5" class="node"><title>Node3</title>
<a xlink:href="classumontreal_1_1ssj_1_1charts_1_1HistogramSeriesCollection.html" target="_top" xlink:title="Stores data used in a HistogramChart. ">
<polygon fill="none" stroke="black" points="145.5,-59 145.5,-79 276.5,-79 276.5,-59 145.5,-59"/>
<text text-anchor="middle" x="211" y="-66" font-family="Helvetica,sans-Serif" font-size="10.00">HistogramSeriesCollection</text>
</a>
</g>
<!-- Node1&#45;&gt;Node3 -->
<g id="edge4" class="edge"><title>Node1&#45;&gt;Node3</title>
<path fill="none" stroke="midnightblue" d="M211,-106.89C211,-97.6201 211,-87.0083 211,-79.3776"/>
<polygon fill="midnightblue" stroke="midnightblue" points="207.5,-106.897 211,-116.897 214.5,-106.897 207.5,-106.897"/>
</g>
<!-- Node4 -->
<g id="node7" class="node"><title>Node4</title>
<a xlink:href="classumontreal_1_1ssj_1_1charts_1_1XYListSeriesCollection.html" target="_top" xlink:title="This class extends umontreal.ssj.charts.SSJXYSeriesCollection. ">
<polygon fill="none" stroke="black" points="294,-59 294,-79 410,-79 410,-59 294,-59"/>
<text text-anchor="middle" x="352" y="-66" font-family="Helvetica,sans-Serif" font-size="10.00">XYListSeriesCollection</text>
</a>
</g>
<!-- Node1&#45;&gt;Node4 -->
<g id="edge6" class="edge"><title>Node1&#45;&gt;Node4</title>
<path fill="none" stroke="midnightblue" d="M244.816,-113.09C270.199,-102.649 304.377,-88.5898 327.248,-79.1817"/>
<polygon fill="midnightblue" stroke="midnightblue" points="243.477,-109.856 235.56,-116.897 246.14,-116.33 243.477,-109.856"/>
</g>
<!-- Node5 -->
<g id="node9" class="node"><title>Node5</title>
<a xlink:href="classumontreal_1_1ssj_1_1charts_1_1YListSeriesCollection.html" target="_top" xlink:title="This class extends umontreal.ssj.charts.XYListSeriesCollection. ">
<polygon fill="none" stroke="black" points="297,-1 297,-21 407,-21 407,-1 297,-1"/>
<text text-anchor="middle" x="352" y="-8" font-family="Helvetica,sans-Serif" font-size="10.00">YListSeriesCollection</text>
</a>
</g>
<!-- Node4&#45;&gt;Node5 -->
<g id="edge8" class="edge"><title>Node4&#45;&gt;Node5</title>
<path fill="none" stroke="midnightblue" d="M352,-48.8902C352,-39.6201 352,-29.0083 352,-21.3776"/>
<polygon fill="midnightblue" stroke="midnightblue" points="348.5,-48.8971 352,-58.8972 355.5,-48.8972 348.5,-48.8971"/>
</g>
</g>
</svg>
