<?xml version="1.0" encoding="UTF-8" standalone="no"?>
<!DOCTYPE svg PUBLIC "-//W3C//DTD SVG 1.1//EN"
 "http://www.w3.org/Graphics/SVG/1.1/DTD/svg11.dtd">
<!-- Generated by graphviz version 2.38.0 (20140413.2041)
 -->
<!-- Title: RandomMultivariateGen Pages: 1 -->
<svg width="371pt" height="140pt"
 viewBox="0.00 0.00 370.50 140.00" xmlns="http://www.w3.org/2000/svg" xmlns:xlink="http://www.w3.org/1999/xlink">
<g id="graph0" class="graph" transform="scale(1 1) rotate(0) translate(4 136)">
<title>RandomMultivariateGen</title>
<!-- Node0 -->
<g id="node1" class="node"><title>Node0</title>
<polygon fill="#bfbfbf" stroke="black" points="76.5,-112.5 76.5,-131.5 195.5,-131.5 195.5,-112.5 76.5,-112.5"/>
<text text-anchor="middle" x="136" y="-119.5" font-family="Helvetica,sans-Serif" font-size="10.00">RandomMultivariateGen</text>
</g>
<!-- Node1 -->
<g id="node2" class="node"><title>Node1</title>
<g id="a_node2"><a xlink:href="classumontreal_1_1ssj_1_1randvarmulti_1_1DirichletGen.html" target="_top" xlink:title="Extends RandomMultivariateGen for a Dirichlet   distribution. ">
<polygon fill="none" stroke="black" points="0,-56.5 0,-75.5 70,-75.5 70,-56.5 0,-56.5"/>
<text text-anchor="middle" x="35" y="-63.5" font-family="Helvetica,sans-Serif" font-size="10.00">DirichletGen</text>
</a>
</g>
</g>
<!-- Node0&#45;&gt;Node1 -->
<g id="edge1" class="edge"><title>Node0&#45;&gt;Node1</title>
<path fill="none" stroke="midnightblue" d="M110.917,-107.59C92.243,-97.6052 67.296,-84.2672 51.1871,-75.6545"/>
<polygon fill="midnightblue" stroke="midnightblue" points="109.304,-110.696 119.773,-112.324 112.604,-104.522 109.304,-110.696"/>
</g>
<!-- Node2 -->
<g id="node3" class="node"><title>Node2</title>
<g id="a_node3"><a xlink:href="classumontreal_1_1ssj_1_1randvarmulti_1_1IIDMultivariateGen.html" target="_top" xlink:title="Extends RandomMultivariateGen for a vector of independent identically distributed (i...">
<polygon fill="none" stroke="black" points="88.5,-56.5 88.5,-75.5 183.5,-75.5 183.5,-56.5 88.5,-56.5"/>
<text text-anchor="middle" x="136" y="-63.5" font-family="Helvetica,sans-Serif" font-size="10.00">IIDMultivariateGen</text>
</a>
</g>
</g>
<!-- Node0&#45;&gt;Node2 -->
<g id="edge2" class="edge"><title>Node0&#45;&gt;Node2</title>
<path fill="none" stroke="midnightblue" d="M136,-101.805C136,-92.9102 136,-82.7798 136,-75.7511"/>
<polygon fill="midnightblue" stroke="midnightblue" points="132.5,-102.083 136,-112.083 139.5,-102.083 132.5,-102.083"/>
</g>
<!-- Node3 -->
<g id="node4" class="node"><title>Node3</title>
<g id="a_node4"><a xlink:href="classumontreal_1_1ssj_1_1randvarmulti_1_1MultinormalGen.html" target="_top" xlink:title="Extends RandomMultivariateGen for a multivariate normal (or multinormal) distribution  ...">
<polygon fill="none" stroke="black" points="201.5,-56.5 201.5,-75.5 286.5,-75.5 286.5,-56.5 201.5,-56.5"/>
<text text-anchor="middle" x="244" y="-63.5" font-family="Helvetica,sans-Serif" font-size="10.00">MultinormalGen</text>
</a>
</g>
</g>
<!-- Node0&#45;&gt;Node3 -->
<g id="edge3" class="edge"><title>Node0&#45;&gt;Node3</title>
<path fill="none" stroke="midnightblue" d="M162.548,-107.726C182.546,-97.7271 209.387,-84.3065 226.691,-75.6545"/>
<polygon fill="midnightblue" stroke="midnightblue" points="160.731,-104.721 153.352,-112.324 163.862,-110.982 160.731,-104.721"/>
</g>
<!-- Node4 -->
<g id="node5" class="node"><title>Node4</title>
<g id="a_node5"><a xlink:href="classumontreal_1_1ssj_1_1randvarmulti_1_1MultinormalCholeskyGen.html" target="_top" xlink:title="Extends MultinormalGen for a multivariate normal distribution  , generated via a Cholesky decomposit...">
<polygon fill="none" stroke="black" points="114.5,-0.5 114.5,-19.5 239.5,-19.5 239.5,-0.5 114.5,-0.5"/>
<text text-anchor="middle" x="177" y="-7.5" font-family="Helvetica,sans-Serif" font-size="10.00">MultinormalCholeskyGen</text>
</a>
</g>
</g>
<!-- Node3&#45;&gt;Node4 -->
<g id="edge4" class="edge"><title>Node3&#45;&gt;Node4</title>
<path fill="none" stroke="midnightblue" d="M225.165,-49.8197C213.162,-40.1452 198.028,-27.9481 187.961,-19.8339"/>
<polygon fill="midnightblue" stroke="midnightblue" points="223.253,-52.7738 233.235,-56.324 227.646,-47.3236 223.253,-52.7738"/>
</g>
<!-- Node5 -->
<g id="node6" class="node"><title>Node5</title>
<g id="a_node6"><a xlink:href="classumontreal_1_1ssj_1_1randvarmulti_1_1MultinormalPCAGen.html" target="_top" xlink:title="Extends MultinormalGen for a multivariate normal distribution  , generated via the method of princip...">
<polygon fill="none" stroke="black" points="257.5,-0.5 257.5,-19.5 362.5,-19.5 362.5,-0.5 257.5,-0.5"/>
<text text-anchor="middle" x="310" y="-7.5" font-family="Helvetica,sans-Serif" font-size="10.00">MultinormalPCAGen</text>
</a>
</g>
</g>
<!-- Node3&#45;&gt;Node5 -->
<g id="edge5" class="edge"><title>Node3&#45;&gt;Node5</title>
<path fill="none" stroke="midnightblue" d="M262.554,-49.8197C274.378,-40.1452 289.286,-27.9481 299.203,-19.8339"/>
<polygon fill="midnightblue" stroke="midnightblue" points="260.127,-47.2827 254.604,-56.324 264.56,-52.7004 260.127,-47.2827"/>
</g>
</g>
</svg>
