<?xml version="1.0" encoding="UTF-8" standalone="no"?>
<!DOCTYPE svg PUBLIC "-//W3C//DTD SVG 1.1//EN"
 "http://www.w3.org/Graphics/SVG/1.1/DTD/svg11.dtd">
<!-- Generated by graphviz version 2.38.0 (20140413.2041)
 -->
<!-- Title: VarianceGammaProcessDiffPCA Pages: 1 -->
<svg width="334pt" height="263pt"
 viewBox="0.00 0.00 334.00 263.00" xmlns="http://www.w3.org/2000/svg" xmlns:xlink="http://www.w3.org/1999/xlink">
<g id="graph0" class="graph" transform="scale(1 1) rotate(0) translate(4 259)">
<title>VarianceGammaProcessDiffPCA</title>
<!-- Node1 -->
<g id="node1" class="node"><title>Node1</title>
<polygon fill="#bfbfbf" stroke="black" points="76.5,-67.5 76.5,-86.5 249.5,-86.5 249.5,-67.5 76.5,-67.5"/>
<text text-anchor="middle" x="163" y="-74.5" font-family="Helvetica,sans-Serif" font-size="10.00">VarianceGammaProcessDiffPCA</text>
</g>
<!-- Node5 -->
<g id="node5" class="node"><title>Node5</title>
<g id="a_node5"><a xlink:href="classumontreal_1_1ssj_1_1stochprocess_1_1VarianceGammaProcessDiffPCABridge.html" target="_top" xlink:title="Same as VarianceGammaProcessDiff, but the two inner GammaProcess ’es are of the type PCABridge...">
<polygon fill="none" stroke="black" points="0,-0.5 0,-30.5 154,-30.5 154,-0.5 0,-0.5"/>
<text text-anchor="start" x="8" y="-18.5" font-family="Helvetica,sans-Serif" font-size="10.00">VarianceGammaProcessDiff</text>
<text text-anchor="middle" x="77" y="-7.5" font-family="Helvetica,sans-Serif" font-size="10.00">PCABridge</text>
</a>
</g>
</g>
<!-- Node1&#45;&gt;Node5 -->
<g id="edge4" class="edge"><title>Node1&#45;&gt;Node5</title>
<path fill="none" stroke="midnightblue" d="M142.387,-61.739C128.719,-52.2824 110.866,-39.9304 97.2685,-30.523"/>
<polygon fill="midnightblue" stroke="midnightblue" points="140.463,-64.6637 150.678,-67.4751 144.446,-58.9072 140.463,-64.6637"/>
</g>
<!-- Node6 -->
<g id="node6" class="node"><title>Node6</title>
<g id="a_node6"><a xlink:href="classumontreal_1_1ssj_1_1stochprocess_1_1VarianceGammaProcessDiffPCASymmetricalBridge.html" target="_top" xlink:title="Same as VarianceGammaProcessDiff, but the two inner GammaProcess ’es are of the PCASymmetricalBridge...">
<polygon fill="none" stroke="black" points="172,-0.5 172,-30.5 326,-30.5 326,-0.5 172,-0.5"/>
<text text-anchor="start" x="180" y="-18.5" font-family="Helvetica,sans-Serif" font-size="10.00">VarianceGammaProcessDiff</text>
<text text-anchor="middle" x="249" y="-7.5" font-family="Helvetica,sans-Serif" font-size="10.00">PCASymmetricalBridge</text>
</a>
</g>
</g>
<!-- Node1&#45;&gt;Node6 -->
<g id="edge5" class="edge"><title>Node1&#45;&gt;Node6</title>
<path fill="none" stroke="midnightblue" d="M183.613,-61.739C197.281,-52.2824 215.134,-39.9304 228.732,-30.523"/>
<polygon fill="midnightblue" stroke="midnightblue" points="181.554,-58.9072 175.322,-67.4751 185.537,-64.6637 181.554,-58.9072"/>
</g>
<!-- Node2 -->
<g id="node2" class="node"><title>Node2</title>
<g id="a_node2"><a xlink:href="classumontreal_1_1ssj_1_1stochprocess_1_1VarianceGammaProcessDiff.html" target="_top" xlink:title="This class represents a variance gamma (VG) process . ">
<polygon fill="none" stroke="black" points="86,-123.5 86,-142.5 240,-142.5 240,-123.5 86,-123.5"/>
<text text-anchor="middle" x="163" y="-130.5" font-family="Helvetica,sans-Serif" font-size="10.00">VarianceGammaProcessDiff</text>
</a>
</g>
</g>
<!-- Node2&#45;&gt;Node1 -->
<g id="edge1" class="edge"><title>Node2&#45;&gt;Node1</title>
<path fill="none" stroke="midnightblue" d="M163,-112.805C163,-103.91 163,-93.7798 163,-86.7511"/>
<polygon fill="midnightblue" stroke="midnightblue" points="159.5,-113.083 163,-123.083 166.5,-113.083 159.5,-113.083"/>
</g>
<!-- Node3 -->
<g id="node3" class="node"><title>Node3</title>
<g id="a_node3"><a xlink:href="classumontreal_1_1ssj_1_1stochprocess_1_1VarianceGammaProcess.html" target="_top" xlink:title="This class represents a variance gamma (VG) process . ">
<polygon fill="none" stroke="black" points="95,-179.5 95,-198.5 231,-198.5 231,-179.5 95,-179.5"/>
<text text-anchor="middle" x="163" y="-186.5" font-family="Helvetica,sans-Serif" font-size="10.00">VarianceGammaProcess</text>
</a>
</g>
</g>
<!-- Node3&#45;&gt;Node2 -->
<g id="edge2" class="edge"><title>Node3&#45;&gt;Node2</title>
<path fill="none" stroke="midnightblue" d="M163,-168.805C163,-159.91 163,-149.78 163,-142.751"/>
<polygon fill="midnightblue" stroke="midnightblue" points="159.5,-169.083 163,-179.083 166.5,-169.083 159.5,-169.083"/>
</g>
<!-- Node4 -->
<g id="node4" class="node"><title>Node4</title>
<g id="a_node4"><a xlink:href="classumontreal_1_1ssj_1_1stochprocess_1_1StochasticProcess.html" target="_top" xlink:title="Abstract base class for a stochastic process &#160;sampled (or observed) at a finite number of time points...">
<polygon fill="none" stroke="black" points="111,-235.5 111,-254.5 215,-254.5 215,-235.5 111,-235.5"/>
<text text-anchor="middle" x="163" y="-242.5" font-family="Helvetica,sans-Serif" font-size="10.00">StochasticProcess</text>
</a>
</g>
</g>
<!-- Node4&#45;&gt;Node3 -->
<g id="edge3" class="edge"><title>Node4&#45;&gt;Node3</title>
<path fill="none" stroke="midnightblue" d="M163,-224.805C163,-215.91 163,-205.78 163,-198.751"/>
<polygon fill="midnightblue" stroke="midnightblue" points="159.5,-225.083 163,-235.083 166.5,-225.083 159.5,-225.083"/>
</g>
</g>
</svg>
