<?xml version="1.0" encoding="UTF-8" standalone="no"?>
<!DOCTYPE svg PUBLIC "-//W3C//DTD SVG 1.1//EN"
 "http://www.w3.org/Graphics/SVG/1.1/DTD/svg11.dtd">
<!-- Generated by graphviz version 2.38.0 (20140413.2041)
 -->
<!-- Title: PolInterp Pages: 1 -->
<!--zoomable 210 -->
<svg id="main" version="1.1" xmlns="http://www.w3.org/2000/svg" xmlns:xlink="http://www.w3.org/1999/xlink" xml:space="preserve" onload="init(evt)">
<style type="text/css"><![CDATA[
.edge:hover path { stroke: red; }
.edge:hover polygon { stroke: red; fill: red; }
]]></style>
<script type="text/javascript"><![CDATA[
var edges = document.getElementsByTagName('g');
if (edges && edges.length) {
  for (var i=0;i<edges.length;i++) {
    if (edges[i].id.substr(0,4)=='edge') {
      edges[i].setAttribute('class','edge');
    }
  }
}
]]></script>
        <defs>
                <circle id="rim" cx="0" cy="0" r="7"/>
                <circle id="rim2" cx="0" cy="0" r="3.5"/>
                <g id="zoomPlus">
                        <use xlink:href="#rim" fill="#404040">
                                <set attributeName="fill" to="#808080" begin="zoomplus.mouseover" end="zoomplus.mouseout"/>
                        </use>
                        <path d="M-4,0h8M0,-4v8" fill="none" stroke="white" stroke-width="1.5" pointer-events="none"/>
                </g>
                <g id="zoomMin">
                        <use xlink:href="#rim" fill="#404040">
                                <set attributeName="fill" to="#808080" begin="zoomminus.mouseover" end="zoomminus.mouseout"/>
                        </use>
                        <path d="M-4,0h8" fill="none" stroke="white" stroke-width="1.5" pointer-events="none"/>
                </g>
                <g id="dirArrow">
                        <path fill="none" stroke="white" stroke-width="1.5" d="M0,-3.0v7 M-2.5,-0.5L0,-3.0L2.5,-0.5"/>
                </g>
               <g id="resetDef">
                       <use xlink:href="#rim2" fill="#404040">
                               <set attributeName="fill" to="#808080" begin="reset.mouseover" end="reset.mouseout"/>
                       </use>
               </g>
        </defs>

<script type="text/javascript">
var viewWidth = 505;
var viewHeight = 210;
var sectionId = 'dynsection-0';
</script>
<script xlink:href="svgpan.js"/>
<svg id="graph" class="graph">
<g id="viewport">
<title>PolInterp</title>
<!-- Node1 -->
<g id="node1" class="node"><title>Node1</title>
<polygon fill="#bfbfbf" stroke="black" points="437,-47.5 437,-66.5 497,-66.5 497,-47.5 437,-47.5"/>
<text text-anchor="middle" x="467" y="-54.5" font-family="Helvetica,sans-Serif" font-size="10.00">PolInterp</text>
</g>
<!-- Node2 -->
<g id="node2" class="node"><title>Node2</title>
<g id="a_node2"><a xlink:href="classumontreal_1_1ssj_1_1functions_1_1Polynomial.html" target="_top" xlink:title="Represents a polynomial of degree &#160;in power form. ">
<polygon fill="none" stroke="black" points="330,-76.5 330,-95.5 401,-95.5 401,-76.5 330,-76.5"/>
<text text-anchor="middle" x="365.5" y="-83.5" font-family="Helvetica,sans-Serif" font-size="10.00">Polynomial</text>
</a>
</g>
</g>
<!-- Node2&#45;&gt;Node1 -->
<g id="edge1" class="edge"><title>Node2&#45;&gt;Node1</title>
<path fill="none" stroke="midnightblue" d="M408.969,-73.622C418.373,-70.8812 428.132,-68.0369 436.862,-65.4925"/>
<polygon fill="midnightblue" stroke="midnightblue" points="407.977,-70.2655 399.356,-76.4239 409.936,-76.9859 407.977,-70.2655"/>
</g>
<!-- Node3 -->
<g id="node3" class="node"><title>Node3</title>
<g id="a_node3"><a xlink:href="interfaceumontreal_1_1ssj_1_1functions_1_1MathFunction.html" target="_top" xlink:title="This interface should be implemented by classes which represent univariate mathematical functions...">
<polygon fill="none" stroke="black" points="0,-133.5 0,-152.5 82,-152.5 82,-133.5 0,-133.5"/>
<text text-anchor="middle" x="41" y="-140.5" font-family="Helvetica,sans-Serif" font-size="10.00">MathFunction</text>
</a>
</g>
</g>
<!-- Node3&#45;&gt;Node2 -->
<g id="edge2" class="edge"><title>Node3&#45;&gt;Node2</title>
<path fill="none" stroke="midnightblue" d="M64.8569,-157.947C79.4138,-166.552 99.0384,-176.524 118,-181 194.13,-198.972 224.125,-216.159 294,-181 330.327,-162.721 352.634,-115.888 360.877,-95.6048"/>
<polygon fill="midnightblue" stroke="midnightblue" points="66.4344,-154.809 56.0807,-152.561 62.7728,-160.775 66.4344,-154.809"/>
</g>
<!-- Node4 -->
<g id="node4" class="node"><title>Node4</title>
<g id="a_node4"><a xlink:href="interfaceumontreal_1_1ssj_1_1functions_1_1MathFunctionWithFirstDerivative.html" target="_top" xlink:title="Represents a mathematical function whose derivative can be computed using derivative(double). ">
<polygon fill="none" stroke="black" points="118,-152.5 118,-171.5 294,-171.5 294,-152.5 118,-152.5"/>
<text text-anchor="middle" x="206" y="-159.5" font-family="Helvetica,sans-Serif" font-size="10.00">MathFunctionWithFirstDerivative</text>
</a>
</g>
</g>
<!-- Node3&#45;&gt;Node4 -->
<g id="edge4" class="edge"><title>Node3&#45;&gt;Node4</title>
<path fill="none" stroke="midnightblue" d="M92.3119,-148.865C102.207,-150.018 112.824,-151.256 123.442,-152.493"/>
<polygon fill="midnightblue" stroke="midnightblue" points="92.6302,-145.378 82.2921,-147.697 91.8196,-152.331 92.6302,-145.378"/>
</g>
<!-- Node5 -->
<g id="node5" class="node"><title>Node5</title>
<g id="a_node5"><a xlink:href="interfaceumontreal_1_1ssj_1_1functions_1_1MathFunctionWithDerivative.html" target="_top" xlink:title="Represents a mathematical function whose th derivative can be computed using derivative(double,int). ">
<polygon fill="none" stroke="black" points="128.5,-114.5 128.5,-133.5 283.5,-133.5 283.5,-114.5 128.5,-114.5"/>
<text text-anchor="middle" x="206" y="-121.5" font-family="Helvetica,sans-Serif" font-size="10.00">MathFunctionWithDerivative</text>
</a>
</g>
</g>
<!-- Node3&#45;&gt;Node5 -->
<g id="edge6" class="edge"><title>Node3&#45;&gt;Node5</title>
<path fill="none" stroke="midnightblue" d="M92.4317,-137.121C103.797,-135.797 116.11,-134.361 128.28,-132.943"/>
<polygon fill="midnightblue" stroke="midnightblue" points="91.8196,-133.669 82.2921,-138.303 92.6302,-140.622 91.8196,-133.669"/>
</g>
<!-- Node6 -->
<g id="node6" class="node"><title>Node6</title>
<g id="a_node6"><a xlink:href="interfaceumontreal_1_1ssj_1_1functions_1_1MathFunctionWithIntegral.html" target="_top" xlink:title="Represents a mathematical function whose integral can be computed by the integral(double,double) method. ">
<polygon fill="none" stroke="black" points="135,-76.5 135,-95.5 277,-95.5 277,-76.5 135,-76.5"/>
<text text-anchor="middle" x="206" y="-83.5" font-family="Helvetica,sans-Serif" font-size="10.00">MathFunctionWithIntegral</text>
</a>
</g>
</g>
<!-- Node3&#45;&gt;Node6 -->
<g id="edge8" class="edge"><title>Node3&#45;&gt;Node6</title>
<path fill="none" stroke="midnightblue" d="M66.9367,-128.555C81.4471,-120.659 100.313,-111.243 118,-105 128.497,-101.295 139.971,-98.1709 151.042,-95.5944"/>
<polygon fill="midnightblue" stroke="midnightblue" points="65.1253,-125.558 58.0864,-133.477 68.5271,-131.676 65.1253,-125.558"/>
</g>
<!-- Node4&#45;&gt;Node2 -->
<g id="edge3" class="edge"><title>Node4&#45;&gt;Node2</title>
<path fill="none" stroke="midnightblue" d="M278.092,-149.395C283.581,-147.544 288.947,-145.425 294,-143 318.974,-131.014 342.931,-108.567 355.465,-95.7087"/>
<polygon fill="midnightblue" stroke="midnightblue" points="276.657,-146.174 268.118,-152.447 278.705,-152.868 276.657,-146.174"/>
</g>
<!-- Node5&#45;&gt;Node2 -->
<g id="edge5" class="edge"><title>Node5&#45;&gt;Node2</title>
<path fill="none" stroke="midnightblue" d="M262.579,-112.281C273.038,-109.957 283.87,-107.47 294,-105 305.946,-102.088 318.961,-98.6544 330.52,-95.5132"/>
<polygon fill="midnightblue" stroke="midnightblue" points="261.714,-108.887 252.699,-114.453 263.218,-115.724 261.714,-108.887"/>
</g>
<!-- Node6&#45;&gt;Node2 -->
<g id="edge7" class="edge"><title>Node6&#45;&gt;Node2</title>
<path fill="none" stroke="midnightblue" d="M287.723,-86C302.566,-86 317.315,-86 329.86,-86"/>
<polygon fill="midnightblue" stroke="midnightblue" points="287.458,-82.5001 277.458,-86 287.458,-89.5001 287.458,-82.5001"/>
</g>
<!-- Node7 -->
<g id="node7" class="node"><title>Node7</title>
<polygon fill="none" stroke="#bfbfbf" points="169,-0.5 169,-19.5 243,-19.5 243,-0.5 169,-0.5"/>
<text text-anchor="middle" x="206" y="-7.5" font-family="Helvetica,sans-Serif" font-size="10.00">Serializable</text>
</g>
<!-- Node7&#45;&gt;Node1 -->
<g id="edge11" class="edge"><title>Node7&#45;&gt;Node1</title>
<path fill="none" stroke="midnightblue" d="M252.853,-18.3209C305.966,-27.9591 391.891,-43.5517 436.699,-51.6828"/>
<polygon fill="midnightblue" stroke="midnightblue" points="253.477,-14.877 243.013,-16.5351 252.227,-21.7645 253.477,-14.877"/>
</g>
<!-- Node7&#45;&gt;Node2 -->
<g id="edge9" class="edge"><title>Node7&#45;&gt;Node2</title>
<path fill="none" stroke="midnightblue" d="M253.457,-16.0076C266.964,-18.8397 281.449,-22.9765 294,-29 318.974,-40.9859 342.931,-63.4326 355.465,-76.2913"/>
<polygon fill="midnightblue" stroke="midnightblue" points="253.846,-12.5189 243.368,-14.0865 252.537,-19.3953 253.846,-12.5189"/>
</g>
<!-- Node8 -->
<g id="node8" class="node"><title>Node8</title>
<polygon fill="none" stroke="#bfbfbf" points="173.5,-38.5 173.5,-57.5 238.5,-57.5 238.5,-38.5 173.5,-38.5"/>
<text text-anchor="middle" x="206" y="-45.5" font-family="Helvetica,sans-Serif" font-size="10.00">Cloneable</text>
</g>
<!-- Node8&#45;&gt;Node2 -->
<g id="edge10" class="edge"><title>Node8&#45;&gt;Node2</title>
<path fill="none" stroke="midnightblue" d="M248.971,-56.738C263.29,-59.8327 279.375,-63.4345 294,-67 305.946,-69.9124 318.961,-73.3456 330.52,-76.4868"/>
<polygon fill="midnightblue" stroke="midnightblue" points="249.414,-53.2536 238.902,-54.5819 247.948,-60.0984 249.414,-53.2536"/>
</g>
</g>
</svg>
        <g id="navigator" transform="translate(0 0)" fill="#404254">
                <rect fill="#f2f5e9" fill-opacity="0.5" stroke="#606060" stroke-width=".5" x="0" y="0" width="60" height="60"/>
                <use id="zoomplus" xlink:href="#zoomPlus" x="17" y="9" onmousedown="handleZoom(evt,'in')"/>
                <use id="zoomminus" xlink:href="#zoomMin" x="42" y="9" onmousedown="handleZoom(evt,'out')"/>
                <use id="reset" xlink:href="#resetDef" x="30" y="36" onmousedown="handleReset()"/>
                <g id="arrowUp" xlink:href="#dirArrow" transform="translate(30 24)" onmousedown="handlePan(0,-1)">
                  <use xlink:href="#rim" fill="#404040">
                        <set attributeName="fill" to="#808080" begin="arrowUp.mouseover" end="arrowUp.mouseout"/>
                  </use>
                  <path fill="none" stroke="white" stroke-width="1.5" d="M0,-3.0v7 M-2.5,-0.5L0,-3.0L2.5,-0.5"/>
                </g>
                <g id="arrowRight" xlink:href="#dirArrow" transform="rotate(90) translate(36 -43)" onmousedown="handlePan(1,0)">
                  <use xlink:href="#rim" fill="#404040">
                        <set attributeName="fill" to="#808080" begin="arrowRight.mouseover" end="arrowRight.mouseout"/>
                  </use>
                  <path fill="none" stroke="white" stroke-width="1.5" d="M0,-3.0v7 M-2.5,-0.5L0,-3.0L2.5,-0.5"/>
                </g>
                <g id="arrowDown" xlink:href="#dirArrow" transform="rotate(180) translate(-30 -48)" onmousedown="handlePan(0,1)">
                  <use xlink:href="#rim" fill="#404040">
                        <set attributeName="fill" to="#808080" begin="arrowDown.mouseover" end="arrowDown.mouseout"/>
                  </use>
                  <path fill="none" stroke="white" stroke-width="1.5" d="M0,-3.0v7 M-2.5,-0.5L0,-3.0L2.5,-0.5"/>
                </g>
                <g id="arrowLeft" xlink:href="#dirArrow" transform="rotate(270) translate(-36 17)" onmousedown="handlePan(-1,0)">
                  <use xlink:href="#rim" fill="#404040">
                        <set attributeName="fill" to="#808080" begin="arrowLeft.mouseover" end="arrowLeft.mouseout"/>
                  </use>
                  <path fill="none" stroke="white" stroke-width="1.5" d="M0,-3.0v7 M-2.5,-0.5L0,-3.0L2.5,-0.5"/>
                </g>
        </g>
        <svg viewBox="0 0 15 15" width="100%" height="30px" preserveAspectRatio="xMaxYMin meet">
         <g id="arrow_out" transform="scale(0.3 0.3)">
          <a xlink:href="classumontreal_1_1ssj_1_1functionfit_1_1PolInterp__inherit__graph_org.svg" target="_base">
           <rect id="button" ry="5" rx="5" y="6" x="6" height="38" width="38"
                fill="#f2f5e9" fill-opacity="0.5" stroke="#606060" stroke-width="1.0"/>
           <path id="arrow"
             d="M 11.500037,31.436501 C 11.940474,20.09759 22.043105,11.32322 32.158766,21.979434 L 37.068811,17.246167 C 37.068811,17.246167 37.088388,32 37.088388,32 L 22.160133,31.978069 C 22.160133,31.978069 26.997745,27.140456 26.997745,27.140456 C 18.528582,18.264221 13.291696,25.230495 11.500037,31.436501 z"
             style="fill:#404040;"/>
          </a>
         </g>
        </svg>
</svg>
