<?xml version="1.0" encoding="UTF-8" standalone="no"?>
<!DOCTYPE svg PUBLIC "-//W3C//DTD SVG 1.1//EN"
 "http://www.w3.org/Graphics/SVG/1.1/DTD/svg11.dtd">
<!-- Generated by graphviz version 2.38.0 (20140413.2041)
 -->
<!-- Title: Polynomial Pages: 1 -->
<svg width="377pt" height="207pt"
 viewBox="0.00 0.00 377.00 206.58" xmlns="http://www.w3.org/2000/svg" xmlns:xlink="http://www.w3.org/1999/xlink">
<g id="graph0" class="graph" transform="scale(1 1) rotate(0) translate(4 202.582)">
<title>Polynomial</title>
<!-- Node8 -->
<g id="node1" class="node"><title>Node8</title>
<polygon fill="#bfbfbf" stroke="black" points="304,-95.5 304,-114.5 369,-114.5 369,-95.5 304,-95.5"/>
<text text-anchor="middle" x="336.5" y="-102.5" font-family="Helvetica,sans-Serif" font-size="10.00">Polynomial</text>
</g>
<!-- Node9 -->
<g id="node2" class="node"><title>Node9</title>
<g id="a_node2"><a xlink:href="interfaceumontreal_1_1ssj_1_1functions_1_1MathFunction.html" target="_top" xlink:title="This interface should be implemented by classes which represent univariate mathematical functions...">
<polygon fill="none" stroke="black" points="0,-133.5 0,-152.5 76,-152.5 76,-133.5 0,-133.5"/>
<text text-anchor="middle" x="38" y="-140.5" font-family="Helvetica,sans-Serif" font-size="10.00">MathFunction</text>
</a>
</g>
</g>
<!-- Node9&#45;&gt;Node8 -->
<g id="edge1" class="edge"><title>Node9&#45;&gt;Node8</title>
<path fill="none" stroke="midnightblue" d="M61.2729,-158.187C75.1833,-166.733 93.8452,-176.558 112,-181 179.347,-197.479 204.757,-209.416 268,-181 298.745,-167.186 321.187,-131.679 330.601,-114.539"/>
<polygon fill="midnightblue" stroke="midnightblue" points="62.7769,-154.994 52.4664,-152.556 59.0061,-160.892 62.7769,-154.994"/>
</g>
<!-- Node10 -->
<g id="node3" class="node"><title>Node10</title>
<g id="a_node3"><a xlink:href="interfaceumontreal_1_1ssj_1_1functions_1_1MathFunctionWithFirstDerivative.html" target="_top" xlink:title="Represents a mathematical function whose derivative can be computed using derivative(double). ">
<polygon fill="none" stroke="black" points="112,-152.5 112,-171.5 268,-171.5 268,-152.5 112,-152.5"/>
<text text-anchor="middle" x="190" y="-159.5" font-family="Helvetica,sans-Serif" font-size="10.00">MathFunctionWithFirstDerivative</text>
</a>
</g>
</g>
<!-- Node9&#45;&gt;Node10 -->
<g id="edge3" class="edge"><title>Node9&#45;&gt;Node10</title>
<path fill="none" stroke="midnightblue" d="M86.1639,-148.974C95.022,-150.096 104.484,-151.295 113.947,-152.493"/>
<polygon fill="midnightblue" stroke="midnightblue" points="86.4392,-145.481 76.0787,-147.697 85.5595,-152.426 86.4392,-145.481"/>
</g>
<!-- Node11 -->
<g id="node4" class="node"><title>Node11</title>
<g id="a_node4"><a xlink:href="interfaceumontreal_1_1ssj_1_1functions_1_1MathFunctionWithDerivative.html" target="_top" xlink:title="Represents a mathematical function whose th derivative can be computed using derivative(double,int). ">
<polygon fill="none" stroke="black" points="121.5,-114.5 121.5,-133.5 258.5,-133.5 258.5,-114.5 121.5,-114.5"/>
<text text-anchor="middle" x="190" y="-121.5" font-family="Helvetica,sans-Serif" font-size="10.00">MathFunctionWithDerivative</text>
</a>
</g>
</g>
<!-- Node9&#45;&gt;Node11 -->
<g id="edge5" class="edge"><title>Node9&#45;&gt;Node11</title>
<path fill="none" stroke="midnightblue" d="M86.0597,-137.039C97.2631,-135.62 109.437,-134.078 121.361,-132.568"/>
<polygon fill="midnightblue" stroke="midnightblue" points="85.5595,-133.574 76.0787,-138.303 86.4392,-140.519 85.5595,-133.574"/>
</g>
<!-- Node12 -->
<g id="node5" class="node"><title>Node12</title>
<g id="a_node5"><a xlink:href="interfaceumontreal_1_1ssj_1_1functions_1_1MathFunctionWithIntegral.html" target="_top" xlink:title="Represents a mathematical function whose integral can be computed by the integral(double,double) method. ">
<polygon fill="none" stroke="black" points="126,-76.5 126,-95.5 254,-95.5 254,-76.5 126,-76.5"/>
<text text-anchor="middle" x="190" y="-83.5" font-family="Helvetica,sans-Serif" font-size="10.00">MathFunctionWithIntegral</text>
</a>
</g>
</g>
<!-- Node9&#45;&gt;Node12 -->
<g id="edge7" class="edge"><title>Node9&#45;&gt;Node12</title>
<path fill="none" stroke="midnightblue" d="M63.6153,-128.31C77.4591,-120.533 95.2742,-111.314 112,-105 121.661,-101.353 132.271,-98.2123 142.443,-95.594"/>
<polygon fill="midnightblue" stroke="midnightblue" points="61.6592,-125.397 54.7278,-133.41 65.1433,-131.469 61.6592,-125.397"/>
</g>
<!-- Node10&#45;&gt;Node8 -->
<g id="edge2" class="edge"><title>Node10&#45;&gt;Node8</title>
<path fill="none" stroke="midnightblue" d="M248.295,-149.703C255.023,-147.72 261.722,-145.488 268,-143 287.253,-135.37 307.769,-123.168 321.061,-114.656"/>
<polygon fill="midnightblue" stroke="midnightblue" points="247.163,-146.385 238.462,-152.431 249.034,-153.13 247.163,-146.385"/>
</g>
<!-- Node11&#45;&gt;Node8 -->
<g id="edge4" class="edge"><title>Node11&#45;&gt;Node8</title>
<path fill="none" stroke="midnightblue" d="M268.554,-113.803C280.951,-112.173 293.138,-110.57 303.645,-109.189"/>
<polygon fill="midnightblue" stroke="midnightblue" points="268.054,-110.338 258.596,-115.112 268.967,-117.278 268.054,-110.338"/>
</g>
<!-- Node12&#45;&gt;Node8 -->
<g id="edge6" class="edge"><title>Node12&#45;&gt;Node8</title>
<path fill="none" stroke="midnightblue" d="M264.469,-95.6603C278.352,-97.4857 292.174,-99.3031 303.885,-100.843"/>
<polygon fill="midnightblue" stroke="midnightblue" points="264.751,-92.1673 254.38,-94.3337 263.838,-99.1076 264.751,-92.1673"/>
</g>
<!-- Node13 -->
<g id="node6" class="node"><title>Node13</title>
<polygon fill="none" stroke="#bfbfbf" points="156.5,-38.5 156.5,-57.5 223.5,-57.5 223.5,-38.5 156.5,-38.5"/>
<text text-anchor="middle" x="190" y="-45.5" font-family="Helvetica,sans-Serif" font-size="10.00">Serializable</text>
</g>
<!-- Node13&#45;&gt;Node8 -->
<g id="edge8" class="edge"><title>Node13&#45;&gt;Node8</title>
<path fill="none" stroke="midnightblue" d="M233.575,-56.3273C244.953,-59.1381 257.11,-62.6839 268,-67 287.253,-74.6304 307.769,-86.8319 321.061,-95.3435"/>
<polygon fill="midnightblue" stroke="midnightblue" points="234.363,-52.9171 223.828,-54.0455 232.767,-59.7329 234.363,-52.9171"/>
</g>
<!-- Node14 -->
<g id="node7" class="node"><title>Node14</title>
<polygon fill="none" stroke="#bfbfbf" points="160.5,-0.5 160.5,-19.5 219.5,-19.5 219.5,-0.5 160.5,-0.5"/>
<text text-anchor="middle" x="190" y="-7.5" font-family="Helvetica,sans-Serif" font-size="10.00">Cloneable</text>
</g>
<!-- Node14&#45;&gt;Node8 -->
<g id="edge9" class="edge"><title>Node14&#45;&gt;Node8</title>
<path fill="none" stroke="midnightblue" d="M229.649,-14.8213C242.502,-17.6199 256.467,-22.0361 268,-29 296.4,-46.1495 319.491,-79.098 329.754,-95.3918"/>
<polygon fill="midnightblue" stroke="midnightblue" points="230.126,-11.3492 219.647,-12.9058 228.81,-18.2243 230.126,-11.3492"/>
</g>
</g>
</svg>
