<?xml version="1.0" encoding="UTF-8" standalone="no"?>
<!DOCTYPE svg PUBLIC "-//W3C//DTD SVG 1.1//EN"
 "http://www.w3.org/Graphics/SVG/1.1/DTD/svg11.dtd">
<!-- Generated by graphviz version 2.38.0 (20140413.2041)
 -->
<!-- Title: DigitalNetBase2.DigitalNetBase2Iterator Pages: 1 -->
<svg width="157pt" height="162pt"
 viewBox="0.00 0.00 157.00 162.00" xmlns="http://www.w3.org/2000/svg" xmlns:xlink="http://www.w3.org/1999/xlink">
<g id="graph0" class="graph" transform="scale(1 1) rotate(0) translate(4 158)">
<title>DigitalNetBase2.DigitalNetBase2Iterator</title>
<!-- Node1 -->
<g id="node1" class="node"><title>Node1</title>
<polygon fill="#bfbfbf" stroke="black" points="-1.42109e-14,-67.5 -1.42109e-14,-97.5 149,-97.5 149,-67.5 -1.42109e-14,-67.5"/>
<text text-anchor="start" x="8" y="-85.5" font-family="Helvetica,sans-Serif" font-size="10.00">DigitalNetBase2.DigitalNet</text>
<text text-anchor="middle" x="74.5" y="-74.5" font-family="Helvetica,sans-Serif" font-size="10.00">Base2Iterator</text>
</g>
<!-- Node3 -->
<g id="node3" class="node"><title>Node3</title>
<g id="a_node3"><a xlink:href="classumontreal_1_1ssj_1_1hups_1_1DigitalNetBase2_1_1DigitalNetBase2IteratorNoGray.html" target="_top" xlink:title="DigitalNetBase2.DigitalNet\lBase2IteratorNoGray">
<polygon fill="none" stroke="black" points="-1.42109e-14,-0.5 -1.42109e-14,-30.5 149,-30.5 149,-0.5 -1.42109e-14,-0.5"/>
<text text-anchor="start" x="8" y="-18.5" font-family="Helvetica,sans-Serif" font-size="10.00">DigitalNetBase2.DigitalNet</text>
<text text-anchor="middle" x="74.5" y="-7.5" font-family="Helvetica,sans-Serif" font-size="10.00">Base2IteratorNoGray</text>
</a>
</g>
</g>
<!-- Node1&#45;&gt;Node3 -->
<g id="edge2" class="edge"><title>Node1&#45;&gt;Node3</title>
<path fill="none" stroke="midnightblue" d="M74.5,-57.1081C74.5,-48.1539 74.5,-38.3227 74.5,-30.5765"/>
<polygon fill="midnightblue" stroke="midnightblue" points="71.0001,-57.3959 74.5,-67.396 78.0001,-57.396 71.0001,-57.3959"/>
</g>
<!-- Node2 -->
<g id="node2" class="node"><title>Node2</title>
<polygon fill="none" stroke="#bfbfbf" points="23.5,-134.5 23.5,-153.5 125.5,-153.5 125.5,-134.5 23.5,-134.5"/>
<text text-anchor="middle" x="74.5" y="-141.5" font-family="Helvetica,sans-Serif" font-size="10.00">DigitalNetIterator</text>
</g>
<!-- Node2&#45;&gt;Node1 -->
<g id="edge1" class="edge"><title>Node2&#45;&gt;Node1</title>
<path fill="none" stroke="midnightblue" d="M74.5,-124.235C74.5,-115.586 74.5,-105.497 74.5,-97.523"/>
<polygon fill="midnightblue" stroke="midnightblue" points="71.0001,-124.475 74.5,-134.475 78.0001,-124.475 71.0001,-124.475"/>
</g>
</g>
</svg>
