<?xml version="1.0" encoding="UTF-8" standalone="no"?>
<!DOCTYPE svg PUBLIC "-//W3C//DTD SVG 1.1//EN"
 "http://www.w3.org/Graphics/SVG/1.1/DTD/svg11.dtd">
<!-- Generated by graphviz version 2.38.0 (20140413.2041)
 -->
<!-- Title: Inventory Pages: 1 -->
<svg width="497pt" height="240pt"
 viewBox="0.00 0.00 497.00 240.00" xmlns="http://www.w3.org/2000/svg" xmlns:xlink="http://www.w3.org/1999/xlink">
<g id="graph0" class="graph" transform="scale(1 1) rotate(0) translate(4 236)">
<title>Inventory</title>
<!-- Node1 -->
<g id="node1" class="node"><title>Node1</title>
<polygon fill="#bfbfbf" stroke="black" points="281.5,-0.5 281.5,-19.5 344.5,-19.5 344.5,-0.5 281.5,-0.5"/>
<text text-anchor="middle" x="313" y="-7.5" font-family="Helvetica,sans-Serif" font-size="10.00">Inventory</text>
</g>
<!-- Node2 -->
<g id="node2" class="node"><title>Node2</title>
<g id="a_node2"><a xlink:href="classumontreal_1_1ssj_1_1stat_1_1Tally.html" target="_top" xlink:title="A subclass of StatProbe. ">
<polygon fill="none" stroke="black" points="139.5,-67.5 139.5,-86.5 180.5,-86.5 180.5,-67.5 139.5,-67.5"/>
<text text-anchor="middle" x="160" y="-74.5" font-family="Helvetica,sans-Serif" font-size="10.00">Tally</text>
</a>
</g>
</g>
<!-- Node2&#45;&gt;Node1 -->
<g id="edge1" class="edge"><title>Node2&#45;&gt;Node1</title>
<path fill="none" stroke="#9a32cd" stroke-dasharray="5,2" d="M189.544,-63.4485C219.838,-50.5787 266.151,-30.9032 292.599,-19.6672"/>
<polygon fill="#9a32cd" stroke="#9a32cd" points="188.153,-60.237 180.317,-67.3685 190.89,-66.6797 188.153,-60.237"/>
<text text-anchor="middle" x="270.5" y="-41" font-family="Helvetica,sans-Serif" font-size="10.00"> statProfit</text>
</g>
<!-- Node3 -->
<g id="node3" class="node"><title>Node3</title>
<g id="a_node3"><a xlink:href="classumontreal_1_1ssj_1_1stat_1_1StatProbe.html" target="_top" xlink:title="The objects of this class are statistical probes or collectors, which are elementary devices for coll...">
<polygon fill="none" stroke="black" points="0,-145.5 0,-164.5 64,-164.5 64,-145.5 0,-145.5"/>
<text text-anchor="middle" x="32" y="-152.5" font-family="Helvetica,sans-Serif" font-size="10.00">StatProbe</text>
</a>
</g>
</g>
<!-- Node3&#45;&gt;Node2 -->
<g id="edge2" class="edge"><title>Node3&#45;&gt;Node2</title>
<path fill="none" stroke="midnightblue" d="M55.6115,-139.981C81.9119,-124.365 123.601,-99.6121 145.488,-86.6165"/>
<polygon fill="midnightblue" stroke="midnightblue" points="53.4949,-137.167 46.6832,-145.282 57.0687,-143.186 53.4949,-137.167"/>
</g>
<!-- Node4 -->
<g id="node4" class="node"><title>Node4</title>
<polygon fill="none" stroke="#bfbfbf" points="82.5,-145.5 82.5,-164.5 147.5,-164.5 147.5,-145.5 82.5,-145.5"/>
<text text-anchor="middle" x="115" y="-152.5" font-family="Helvetica,sans-Serif" font-size="10.00">Cloneable</text>
</g>
<!-- Node4&#45;&gt;Node2 -->
<g id="edge3" class="edge"><title>Node4&#45;&gt;Node2</title>
<path fill="none" stroke="midnightblue" d="M125.323,-136.565C134.57,-120.949 147.743,-98.7002 154.898,-86.6165"/>
<polygon fill="midnightblue" stroke="midnightblue" points="122.245,-134.894 120.162,-145.282 128.269,-138.46 122.245,-134.894"/>
</g>
<!-- Node5 -->
<g id="node5" class="node"><title>Node5</title>
<polygon fill="none" stroke="#bfbfbf" points="165.5,-145.5 165.5,-164.5 242.5,-164.5 242.5,-145.5 165.5,-145.5"/>
<text text-anchor="middle" x="204" y="-152.5" font-family="Helvetica,sans-Serif" font-size="10.00">Tally.CIType</text>
</g>
<!-- Node5&#45;&gt;Node2 -->
<g id="edge4" class="edge"><title>Node5&#45;&gt;Node2</title>
<path fill="none" stroke="#9a32cd" stroke-dasharray="5,2" d="M193.906,-136.565C184.865,-120.949 171.984,-98.7002 164.988,-86.6165"/>
<polygon fill="#9a32cd" stroke="#9a32cd" points="190.913,-138.381 198.953,-145.282 196.971,-134.874 190.913,-138.381"/>
<text text-anchor="middle" x="235" y="-113.5" font-family="Helvetica,sans-Serif" font-size="10.00"> confidenceInterval</text>
</g>
<!-- Node6 -->
<g id="node6" class="node"><title>Node6</title>
<g id="a_node6"><a xlink:href="classumontreal_1_1ssj_1_1randvar_1_1RandomVariateGenInt.html" target="_top" xlink:title="This is the base class for all generators of discrete random variates over the set of integers...">
<polygon fill="none" stroke="black" points="250.5,-67.5 250.5,-86.5 375.5,-86.5 375.5,-67.5 250.5,-67.5"/>
<text text-anchor="middle" x="313" y="-74.5" font-family="Helvetica,sans-Serif" font-size="10.00">RandomVariateGenInt</text>
</a>
</g>
</g>
<!-- Node6&#45;&gt;Node1 -->
<g id="edge5" class="edge"><title>Node6&#45;&gt;Node1</title>
<path fill="none" stroke="#9a32cd" stroke-dasharray="5,2" d="M313,-57.037C313,-44.6703 313,-29.1198 313,-19.6273"/>
<polygon fill="#9a32cd" stroke="#9a32cd" points="309.5,-57.2338 313,-67.2338 316.5,-57.2338 309.5,-57.2338"/>
<text text-anchor="middle" x="344.5" y="-41" font-family="Helvetica,sans-Serif" font-size="10.00"> genDemand</text>
</g>
<!-- Node7 -->
<g id="node7" class="node"><title>Node7</title>
<g id="a_node7"><a xlink:href="classumontreal_1_1ssj_1_1randvar_1_1RandomVariateGen.html" target="_top" xlink:title="This is the base class for all random variate generators over the real line. ">
<polygon fill="none" stroke="black" points="261,-145.5 261,-164.5 373,-164.5 373,-145.5 261,-145.5"/>
<text text-anchor="middle" x="317" y="-152.5" font-family="Helvetica,sans-Serif" font-size="10.00">RandomVariateGen</text>
</a>
</g>
</g>
<!-- Node7&#45;&gt;Node6 -->
<g id="edge6" class="edge"><title>Node7&#45;&gt;Node6</title>
<path fill="none" stroke="midnightblue" d="M316.012,-135.224C315.195,-119.697 314.071,-98.3582 313.453,-86.6165"/>
<polygon fill="midnightblue" stroke="midnightblue" points="312.52,-135.48 316.541,-145.282 319.511,-135.112 312.52,-135.48"/>
</g>
<!-- Node8 -->
<g id="node8" class="node"><title>Node8</title>
<g id="a_node8"><a xlink:href="interfaceumontreal_1_1ssj_1_1probdist_1_1Distribution.html" target="_top" xlink:title="This interface should be implemented by all classes supporting discrete and continuous distributions...">
<polygon fill="none" stroke="black" points="266,-212.5 266,-231.5 340,-231.5 340,-212.5 266,-212.5"/>
<text text-anchor="middle" x="303" y="-219.5" font-family="Helvetica,sans-Serif" font-size="10.00">Distribution</text>
</a>
</g>
</g>
<!-- Node8&#45;&gt;Node7 -->
<g id="edge7" class="edge"><title>Node8&#45;&gt;Node7</title>
<path fill="none" stroke="#9a32cd" stroke-dasharray="5,2" d="M303.33,-202.316C303.742,-196.107 304.53,-189.198 306,-183 307.495,-176.696 310.245,-169.946 312.621,-164.772"/>
<polygon fill="#9a32cd" stroke="#9a32cd" points="299.828,-202.302 302.929,-212.432 306.822,-202.578 299.828,-202.302"/>
<text text-anchor="middle" x="317" y="-186" font-family="Helvetica,sans-Serif" font-size="10.00"> dist</text>
</g>
<!-- Node9 -->
<g id="node9" class="node"><title>Node9</title>
<g id="a_node9"><a xlink:href="interfaceumontreal_1_1ssj_1_1rng_1_1RandomStream.html" target="_top" xlink:title="This interface defines the basic structures to handle multiple streams of uniform (pseudo)random numb...">
<polygon fill="none" stroke="black" points="358,-212.5 358,-231.5 450,-231.5 450,-212.5 358,-212.5"/>
<text text-anchor="middle" x="404" y="-219.5" font-family="Helvetica,sans-Serif" font-size="10.00">RandomStream</text>
</a>
</g>
</g>
<!-- Node9&#45;&gt;Node1 -->
<g id="edge9" class="edge"><title>Node9&#45;&gt;Node1</title>
<path fill="none" stroke="#9a32cd" stroke-dasharray="5,2" d="M407.257,-202.123C412.355,-166.097 418.054,-86.7901 380,-38 371.362,-26.9245 357.458,-20.3721 344.549,-16.505"/>
<polygon fill="#9a32cd" stroke="#9a32cd" points="403.768,-201.784 405.679,-212.205 410.683,-202.867 403.768,-201.784"/>
<text text-anchor="middle" x="449.5" y="-119" font-family="Helvetica,sans-Serif" font-size="10.00"> streamDemand</text>
<text text-anchor="middle" x="449.5" y="-108" font-family="Helvetica,sans-Serif" font-size="10.00">streamOrder</text>
</g>
<!-- Node9&#45;&gt;Node7 -->
<g id="edge8" class="edge"><title>Node9&#45;&gt;Node7</title>
<path fill="none" stroke="#9a32cd" stroke-dasharray="5,2" d="M374.478,-207.926C366.834,-203.947 358.837,-199.227 352,-194 340.742,-185.393 330.048,-172.936 323.511,-164.659"/>
<polygon fill="#9a32cd" stroke="#9a32cd" points="373.009,-211.104 383.525,-212.395 376.109,-204.828 373.009,-211.104"/>
<text text-anchor="middle" x="371" y="-186" font-family="Helvetica,sans-Serif" font-size="10.00"> stream</text>
</g>
</g>
</svg>
