<?xml version="1.0" encoding="UTF-8" standalone="no"?>
<!DOCTYPE svg PUBLIC "-//W3C//DTD SVG 1.1//EN"
 "http://www.w3.org/Graphics/SVG/1.1/DTD/svg11.dtd">
<!-- Generated by graphviz version 2.38.0 (20140413.2041)
 -->
<!-- Title: Searcher Pages: 1 -->
<svg width="207pt" height="162pt"
 viewBox="0.00 0.00 207.00 162.00" xmlns="http://www.w3.org/2000/svg" xmlns:xlink="http://www.w3.org/1999/xlink">
<g id="graph0" class="graph" transform="scale(1 1) rotate(0) translate(4 158)">
<title>Searcher</title>
<!-- Node3 -->
<g id="node1" class="node"><title>Node3</title>
<polygon fill="#bfbfbf" stroke="black" points="54.5,-0.5 54.5,-19.5 110.5,-19.5 110.5,-0.5 54.5,-0.5"/>
<text text-anchor="middle" x="82.5" y="-7.5" font-family="Helvetica,sans-Serif" font-size="10.00">Searcher</text>
</g>
<!-- Node4 -->
<g id="node2" class="node"><title>Node4</title>
<g id="a_node2"><a xlink:href="classumontreal_1_1ssj_1_1hups_1_1PointSet.html" target="_top" xlink:title="This abstract class defines the basic methods for accessing and manipulating point sets...">
<polygon fill="none" stroke="black" points="55.5,-67.5 55.5,-86.5 109.5,-86.5 109.5,-67.5 55.5,-67.5"/>
<text text-anchor="middle" x="82.5" y="-74.5" font-family="Helvetica,sans-Serif" font-size="10.00">PointSet</text>
</a>
</g>
</g>
<!-- Node4&#45;&gt;Node3 -->
<g id="edge1" class="edge"><title>Node4&#45;&gt;Node3</title>
<path fill="none" stroke="#9a32cd" stroke-dasharray="5,2" d="M82.5,-57.037C82.5,-44.6703 82.5,-29.1198 82.5,-19.6273"/>
<polygon fill="#9a32cd" stroke="#9a32cd" points="79.0001,-57.2338 82.5,-67.2338 86.0001,-57.2338 79.0001,-57.2338"/>
<text text-anchor="middle" x="89.5" y="-41" font-family="Helvetica,sans-Serif" font-size="10.00"> lat</text>
</g>
<!-- Node5 -->
<g id="node3" class="node"><title>Node5</title>
<g id="a_node3"><a xlink:href="interfaceumontreal_1_1ssj_1_1rng_1_1RandomStream.html" target="_top" xlink:title="This interface defines the basic structures to handle multiple streams of uniform (pseudo)random numb...">
<polygon fill="none" stroke="black" points="0,-134.5 0,-153.5 85,-153.5 85,-134.5 0,-134.5"/>
<text text-anchor="middle" x="42.5" y="-141.5" font-family="Helvetica,sans-Serif" font-size="10.00">RandomStream</text>
</a>
</g>
</g>
<!-- Node5&#45;&gt;Node3 -->
<g id="edge4" class="edge"><title>Node5&#45;&gt;Node3</title>
<path fill="none" stroke="#9a32cd" stroke-dasharray="5,2" d="M33.3306,-125.11C26.5526,-109.343 19.7327,-85.9934 27.5,-67 35.8561,-46.5667 55.6614,-29.569 69.0792,-19.8413"/>
<polygon fill="#9a32cd" stroke="#9a32cd" points="30.2059,-126.69 37.6249,-134.254 36.5419,-123.715 30.2059,-126.69"/>
<text text-anchor="middle" x="37" y="-74.5" font-family="Helvetica,sans-Serif" font-size="10.00"> gen</text>
</g>
<!-- Node5&#45;&gt;Node4 -->
<g id="edge2" class="edge"><title>Node5&#45;&gt;Node4</title>
<path fill="none" stroke="#9a32cd" stroke-dasharray="5,2" d="M53.2479,-125.535C60.9924,-112.95 71.1109,-96.5072 77.1909,-86.6273"/>
<polygon fill="#9a32cd" stroke="#9a32cd" points="50.1548,-123.883 47.8946,-134.234 56.1164,-127.552 50.1548,-123.883"/>
<text text-anchor="middle" x="92.5" y="-108" font-family="Helvetica,sans-Serif" font-size="10.00"> shiftStream</text>
</g>
<!-- Node6 -->
<g id="node4" class="node"><title>Node6</title>
<g id="a_node4"><a xlink:href="classumontreal_1_1ssj_1_1discrepancy_1_1Discrepancy.html" target="_top" xlink:title="This abstract class is the base class of all discrepancy classes. ">
<polygon fill="none" stroke="black" points="128,-67.5 128,-86.5 199,-86.5 199,-67.5 128,-67.5"/>
<text text-anchor="middle" x="163.5" y="-74.5" font-family="Helvetica,sans-Serif" font-size="10.00">Discrepancy</text>
</a>
</g>
</g>
<!-- Node6&#45;&gt;Node3 -->
<g id="edge3" class="edge"><title>Node6&#45;&gt;Node3</title>
<path fill="none" stroke="#9a32cd" stroke-dasharray="5,2" d="M144.451,-60.7134C128.492,-47.907 106.287,-30.0884 93.2509,-19.6273"/>
<polygon fill="#9a32cd" stroke="#9a32cd" points="142.586,-63.7048 152.576,-67.2338 146.967,-58.2453 142.586,-63.7048"/>
<text text-anchor="middle" x="139.5" y="-41" font-family="Helvetica,sans-Serif" font-size="10.00"> disc</text>
</g>
</g>
</svg>
