<?xml version="1.0" encoding="UTF-8" standalone="no"?>
<!DOCTYPE svg PUBLIC "-//W3C//DTD SVG 1.1//EN"
 "http://www.w3.org/Graphics/SVG/1.1/DTD/svg11.dtd">
<!-- Generated by graphviz version 2.26.3 (20100126.1600)
 -->
<!-- Title: GammaRejectionLoglogisticGen Pages: 1 -->
<svg width="164pt" height="146pt"
 viewBox="0.00 0.00 164.00 146.00" xmlns="http://www.w3.org/2000/svg" xmlns:xlink="http://www.w3.org/1999/xlink">
<g id="graph1" class="graph" transform="scale(1 1) rotate(0) translate(4 142)">
<title>GammaRejectionLoglogisticGen</title>
<!-- Node1 -->
<g id="node1" class="node"><title>Node1</title>
<polygon fill="#bfbfbf" stroke="black" points="0,-1 0,-21 156,-21 156,-1 0,-1"/>
<text text-anchor="middle" x="78" y="-8" font-family="Helvetica,sans-Serif" font-size="10.00">GammaRejectionLoglogisticGen</text>
</g>
<!-- Node2 -->
<g id="node2" class="node"><title>Node2</title>
<a xlink:href="classumontreal_1_1ssj_1_1randvar_1_1GammaGen.html" target="_top" xlink:title="This class implements random variate generators for the gamma distribution. ">
<polygon fill="none" stroke="black" points="43.5,-59 43.5,-79 112.5,-79 112.5,-59 43.5,-59"/>
<text text-anchor="middle" x="78" y="-66" font-family="Helvetica,sans-Serif" font-size="10.00">GammaGen</text>
</a>
</g>
<!-- Node2&#45;&gt;Node1 -->
<g id="edge2" class="edge"><title>Node2&#45;&gt;Node1</title>
<path fill="none" stroke="midnightblue" d="M78,-48.8902C78,-39.6201 78,-29.0083 78,-21.3776"/>
<polygon fill="midnightblue" stroke="midnightblue" points="74.5001,-48.8971 78,-58.8972 81.5001,-48.8972 74.5001,-48.8971"/>
</g>
<!-- Node3 -->
<g id="node4" class="node"><title>Node3</title>
<a xlink:href="classumontreal_1_1ssj_1_1randvar_1_1RandomVariateGen.html" target="_top" xlink:title="This is the base class for all random variate generators over the real line. ">
<polygon fill="none" stroke="black" points="27.5,-117 27.5,-137 128.5,-137 128.5,-117 27.5,-117"/>
<text text-anchor="middle" x="78" y="-124" font-family="Helvetica,sans-Serif" font-size="10.00">RandomVariateGen</text>
</a>
</g>
<!-- Node3&#45;&gt;Node2 -->
<g id="edge4" class="edge"><title>Node3&#45;&gt;Node2</title>
<path fill="none" stroke="midnightblue" d="M78,-106.89C78,-97.6201 78,-87.0083 78,-79.3776"/>
<polygon fill="midnightblue" stroke="midnightblue" points="74.5001,-106.897 78,-116.897 81.5001,-106.897 74.5001,-106.897"/>
</g>
</g>
</svg>
