<?xml version="1.0" encoding="UTF-8" standalone="no"?>
<!DOCTYPE svg PUBLIC "-//W3C//DTD SVG 1.1//EN"
 "http://www.w3.org/Graphics/SVG/1.1/DTD/svg11.dtd">
<!-- Generated by graphviz version 2.38.0 (20140413.2041)
 -->
<!-- Title: ContainerPointSet.ContainerPointSetIterator Pages: 1 -->
<svg width="497pt" height="88pt"
 viewBox="0.00 0.00 497.00 88.00" xmlns="http://www.w3.org/2000/svg" xmlns:xlink="http://www.w3.org/1999/xlink">
<g id="graph0" class="graph" transform="scale(1 1) rotate(0) translate(4 84)">
<title>ContainerPointSet.ContainerPointSetIterator</title>
<!-- Node0 -->
<g id="node1" class="node"><title>Node0</title>
<polygon fill="#bfbfbf" stroke="black" points="150,-24.5 150,-54.5 290,-54.5 290,-24.5 150,-24.5"/>
<text text-anchor="start" x="158" y="-42.5" font-family="Helvetica,sans-Serif" font-size="10.00">ContainerPointSet.Container</text>
<text text-anchor="middle" x="220" y="-31.5" font-family="Helvetica,sans-Serif" font-size="10.00">PointSetIterator</text>
</g>
<!-- Node2 -->
<g id="node3" class="node"><title>Node2</title>
<g id="a_node3"><a xlink:href="classumontreal_1_1ssj_1_1hups_1_1AntitheticPointSet_1_1AntitheticPointSetIterator.html" target="_top" xlink:title="AntitheticPointSet.Antithetic\lPointSetIterator">
<polygon fill="none" stroke="black" points="337.5,-49.5 337.5,-79.5 477.5,-79.5 477.5,-49.5 337.5,-49.5"/>
<text text-anchor="start" x="345.5" y="-67.5" font-family="Helvetica,sans-Serif" font-size="10.00">AntitheticPointSet.Antithetic</text>
<text text-anchor="middle" x="407.5" y="-56.5" font-family="Helvetica,sans-Serif" font-size="10.00">PointSetIterator</text>
</a>
</g>
</g>
<!-- Node0&#45;&gt;Node2 -->
<g id="edge2" class="edge"><title>Node0&#45;&gt;Node2</title>
<path fill="none" stroke="midnightblue" d="M300.328,-50.1912C312.651,-51.8518 325.296,-53.556 337.369,-55.1831"/>
<polygon fill="midnightblue" stroke="midnightblue" points="300.451,-46.6762 290.073,-48.8091 299.516,-53.6134 300.451,-46.6762"/>
</g>
<!-- Node3 -->
<g id="node4" class="node"><title>Node3</title>
<g id="a_node4"><a xlink:href="classumontreal_1_1ssj_1_1hups_1_1BakerTransformedPointSet_1_1BakerTransformedPointSetIterator.html" target="_top" xlink:title="BakerTransformedPointSet.\lBakerTransformedPointSetIterator">
<polygon fill="none" stroke="black" points="326,-0.5 326,-30.5 489,-30.5 489,-0.5 326,-0.5"/>
<text text-anchor="start" x="334" y="-18.5" font-family="Helvetica,sans-Serif" font-size="10.00">BakerTransformedPointSet.</text>
<text text-anchor="middle" x="407.5" y="-7.5" font-family="Helvetica,sans-Serif" font-size="10.00">BakerTransformedPointSetIterator</text>
</a>
</g>
</g>
<!-- Node0&#45;&gt;Node3 -->
<g id="edge3" class="edge"><title>Node0&#45;&gt;Node3</title>
<path fill="none" stroke="midnightblue" d="M300.003,-29.2786C308.539,-28.1741 317.234,-27.0492 325.79,-25.9422"/>
<polygon fill="midnightblue" stroke="midnightblue" points="299.542,-25.809 290.073,-30.5633 300.44,-32.7512 299.542,-25.809"/>
</g>
<!-- Node1 -->
<g id="node2" class="node"><title>Node1</title>
<polygon fill="none" stroke="#bfbfbf" points="0,-30 0,-49 114,-49 114,-30 0,-30"/>
<text text-anchor="middle" x="57" y="-37" font-family="Helvetica,sans-Serif" font-size="10.00">DefaultPointSetIterator</text>
</g>
<!-- Node1&#45;&gt;Node0 -->
<g id="edge1" class="edge"><title>Node1&#45;&gt;Node0</title>
<path fill="none" stroke="midnightblue" d="M124.453,-39.5C132.876,-39.5 141.511,-39.5 149.973,-39.5"/>
<polygon fill="midnightblue" stroke="midnightblue" points="124.31,-36.0001 114.31,-39.5 124.31,-43.0001 124.31,-36.0001"/>
</g>
</g>
</svg>
