<?xml version="1.0" encoding="UTF-8" standalone="no"?>
<!DOCTYPE svg PUBLIC "-//W3C//DTD SVG 1.1//EN"
 "http://www.w3.org/Graphics/SVG/1.1/DTD/svg11.dtd">
<!-- Generated by graphviz version 2.38.0 (20140413.2041)
 -->
<!-- Title: IndependentPointsCached Pages: 1 -->
<svg width="138pt" height="219pt"
 viewBox="0.00 0.00 138.00 219.00" xmlns="http://www.w3.org/2000/svg" xmlns:xlink="http://www.w3.org/1999/xlink">
<g id="graph0" class="graph" transform="scale(1 1) rotate(0) translate(4 215)">
<title>IndependentPointsCached</title>
<!-- Node3 -->
<g id="node1" class="node"><title>Node3</title>
<polygon fill="#bfbfbf" stroke="black" points="0,-0.5 0,-19.5 130,-19.5 130,-0.5 0,-0.5"/>
<text text-anchor="middle" x="65" y="-7.5" font-family="Helvetica,sans-Serif" font-size="10.00">IndependentPointsCached</text>
</g>
<!-- Node4 -->
<g id="node2" class="node"><title>Node4</title>
<g id="a_node2"><a xlink:href="classumontreal_1_1ssj_1_1hups_1_1CachedPointSet.html" target="_top" xlink:title="This container class caches a point set by precomputing and storing its points locally in an array...">
<polygon fill="none" stroke="black" points="21.5,-57.5 21.5,-76.5 108.5,-76.5 108.5,-57.5 21.5,-57.5"/>
<text text-anchor="middle" x="65" y="-64.5" font-family="Helvetica,sans-Serif" font-size="10.00">CachedPointSet</text>
</a>
</g>
</g>
<!-- Node4&#45;&gt;Node3 -->
<g id="edge1" class="edge"><title>Node4&#45;&gt;Node3</title>
<path fill="none" stroke="midnightblue" d="M65,-47.1166C65,-37.8173 65,-27.0557 65,-19.7149"/>
<polygon fill="midnightblue" stroke="midnightblue" points="61.5001,-47.4062 65,-57.4063 68.5001,-47.4063 61.5001,-47.4062"/>
</g>
<!-- Node5 -->
<g id="node3" class="node"><title>Node5</title>
<g id="a_node3"><a xlink:href="classumontreal_1_1ssj_1_1hups_1_1PointSet.html" target="_top" xlink:title="This abstract class represents a general point set. ">
<polygon fill="none" stroke="black" points="38,-124.5 38,-143.5 92,-143.5 92,-124.5 38,-124.5"/>
<text text-anchor="middle" x="65" y="-131.5" font-family="Helvetica,sans-Serif" font-size="10.00">PointSet</text>
</a>
</g>
</g>
<!-- Node5&#45;&gt;Node4 -->
<g id="edge2" class="edge"><title>Node5&#45;&gt;Node4</title>
<path fill="none" stroke="midnightblue" d="M63.4399,-114.382C63.2572,-111.575 63.1003,-108.713 63,-106 62.6288,-95.9652 63.4035,-84.4502 64.0942,-76.7505"/>
<polygon fill="midnightblue" stroke="midnightblue" points="59.9607,-114.791 64.2083,-124.497 66.9406,-114.26 59.9607,-114.791"/>
</g>
<!-- Node5&#45;&gt;Node4 -->
<g id="edge4" class="edge"><title>Node5&#45;&gt;Node4</title>
<path fill="none" stroke="#9a32cd" stroke-dasharray="5,2" d="M65,-114.037C65,-101.67 65,-86.1198 65,-76.6273"/>
<polygon fill="#9a32cd" stroke="#9a32cd" points="61.5001,-114.234 65,-124.234 68.5001,-114.234 61.5001,-114.234"/>
<text text-anchor="middle" x="70" y="-98" font-family="Helvetica,sans-Serif" font-size="10.00"> P</text>
</g>
<!-- Node6 -->
<g id="node4" class="node"><title>Node6</title>
<g id="a_node4"><a xlink:href="interfaceumontreal_1_1ssj_1_1rng_1_1RandomStream.html" target="_top" xlink:title="This interface defines the basic structures to handle multiple streams of uniform (pseudo)random numb...">
<polygon fill="none" stroke="black" points="23,-191.5 23,-210.5 107,-210.5 107,-191.5 23,-191.5"/>
<text text-anchor="middle" x="65" y="-198.5" font-family="Helvetica,sans-Serif" font-size="10.00">RandomStream</text>
</a>
</g>
</g>
<!-- Node6&#45;&gt;Node5 -->
<g id="edge3" class="edge"><title>Node6&#45;&gt;Node5</title>
<path fill="none" stroke="#9a32cd" stroke-dasharray="5,2" d="M65,-181.037C65,-168.67 65,-153.12 65,-143.627"/>
<polygon fill="#9a32cd" stroke="#9a32cd" points="61.5001,-181.234 65,-191.234 68.5001,-181.234 61.5001,-181.234"/>
<text text-anchor="middle" x="91.5" y="-165" font-family="Helvetica,sans-Serif" font-size="10.00"> shiftStream</text>
</g>
</g>
</svg>
