<?xml version="1.0" encoding="UTF-8" standalone="no"?>
<!DOCTYPE svg PUBLIC "-//W3C//DTD SVG 1.1//EN"
 "http://www.w3.org/Graphics/SVG/1.1/DTD/svg11.dtd">
<!-- Generated by graphviz version 2.38.0 (20140413.2041)
 -->
<!-- Title: ChiSquareNoncentralGen Pages: 1 -->
<svg width="348pt" height="140pt"
 viewBox="0.00 0.00 347.50 140.00" xmlns="http://www.w3.org/2000/svg" xmlns:xlink="http://www.w3.org/1999/xlink">
<g id="graph0" class="graph" transform="scale(1 1) rotate(0) translate(4 136)">
<title>ChiSquareNoncentralGen</title>
<!-- Node1 -->
<g id="node1" class="node"><title>Node1</title>
<polygon fill="#bfbfbf" stroke="black" points="100.5,-56.5 100.5,-75.5 239.5,-75.5 239.5,-56.5 100.5,-56.5"/>
<text text-anchor="middle" x="170" y="-63.5" font-family="Helvetica,sans-Serif" font-size="10.00">ChiSquareNoncentralGen</text>
</g>
<!-- Node3 -->
<g id="node3" class="node"><title>Node3</title>
<g id="a_node3"><a xlink:href="classumontreal_1_1ssj_1_1randvar_1_1ChiSquareNoncentralGamGen.html" target="_top" xlink:title="This class implements noncentral chi square random variate generators using the additive property of ...">
<polygon fill="none" stroke="black" points="0,-0.5 0,-19.5 162,-19.5 162,-0.5 0,-0.5"/>
<text text-anchor="middle" x="81" y="-7.5" font-family="Helvetica,sans-Serif" font-size="10.00">ChiSquareNoncentralGamGen</text>
</a>
</g>
</g>
<!-- Node1&#45;&gt;Node3 -->
<g id="edge2" class="edge"><title>Node1&#45;&gt;Node3</title>
<path fill="none" stroke="midnightblue" d="M146.762,-50.9005C130.442,-40.9986 109.135,-28.0705 95.2639,-19.6545"/>
<polygon fill="midnightblue" stroke="midnightblue" points="145.336,-54.1289 155.701,-56.324 148.967,-48.1444 145.336,-54.1289"/>
</g>
<!-- Node4 -->
<g id="node4" class="node"><title>Node4</title>
<g id="a_node4"><a xlink:href="classumontreal_1_1ssj_1_1randvar_1_1ChiSquareNoncentralPoisGen.html" target="_top" xlink:title="This class implements noncentral chi square random variate generators using Poisson and central chi s...">
<polygon fill="none" stroke="black" points="180.5,-0.5 180.5,-19.5 339.5,-19.5 339.5,-0.5 180.5,-0.5"/>
<text text-anchor="middle" x="260" y="-7.5" font-family="Helvetica,sans-Serif" font-size="10.00">ChiSquareNoncentralPoisGen</text>
</a>
</g>
</g>
<!-- Node1&#45;&gt;Node4 -->
<g id="edge3" class="edge"><title>Node1&#45;&gt;Node4</title>
<path fill="none" stroke="midnightblue" d="M193.038,-51.1774C209.599,-41.2407 231.418,-28.1492 245.576,-19.6545"/>
<polygon fill="midnightblue" stroke="midnightblue" points="191.234,-48.1777 184.46,-56.324 194.836,-54.1802 191.234,-48.1777"/>
</g>
<!-- Node2 -->
<g id="node2" class="node"><title>Node2</title>
<g id="a_node2"><a xlink:href="classumontreal_1_1ssj_1_1randvar_1_1RandomVariateGen.html" target="_top" xlink:title="This is the base class for all random variate generators over the real line. ">
<polygon fill="none" stroke="black" points="114,-112.5 114,-131.5 226,-131.5 226,-112.5 114,-112.5"/>
<text text-anchor="middle" x="170" y="-119.5" font-family="Helvetica,sans-Serif" font-size="10.00">RandomVariateGen</text>
</a>
</g>
</g>
<!-- Node2&#45;&gt;Node1 -->
<g id="edge1" class="edge"><title>Node2&#45;&gt;Node1</title>
<path fill="none" stroke="midnightblue" d="M170,-101.805C170,-92.9102 170,-82.7798 170,-75.7511"/>
<polygon fill="midnightblue" stroke="midnightblue" points="166.5,-102.083 170,-112.083 173.5,-102.083 166.5,-102.083"/>
</g>
</g>
</svg>
