<?xml version="1.0" encoding="UTF-8" standalone="no"?>
<!DOCTYPE svg PUBLIC "-//W3C//DTD SVG 1.1//EN"
 "http://www.w3.org/Graphics/SVG/1.1/DTD/svg11.dtd">
<!-- Generated by graphviz version 2.26.3 (20100126.1600)
 -->
<!-- Title: EmpiricalSeriesCollection Pages: 1 -->
<svg width="180pt" height="160pt"
 viewBox="0.00 0.00 180.00 160.00" xmlns="http://www.w3.org/2000/svg" xmlns:xlink="http://www.w3.org/1999/xlink">
<g id="graph1" class="graph" transform="scale(1 1) rotate(0) translate(4 156)">
<title>EmpiricalSeriesCollection</title>
<!-- Node1 -->
<g id="node1" class="node"><title>Node1</title>
<polygon fill="#bfbfbf" stroke="black" points="16,-1 16,-21 144,-21 144,-1 16,-1"/>
<text text-anchor="middle" x="80" y="-8" font-family="Helvetica,sans-Serif" font-size="10.00">EmpiricalSeriesCollection</text>
</g>
<!-- Node2 -->
<g id="node2" class="node"><title>Node2</title>
<a xlink:href="classumontreal_1_1ssj_1_1charts_1_1SSJXYSeriesCollection.html" target="_top" xlink:title="Stores data used in a XYChart. ">
<polygon fill="none" stroke="black" points="20.5,-61 20.5,-81 139.5,-81 139.5,-61 20.5,-61"/>
<text text-anchor="middle" x="80" y="-68" font-family="Helvetica,sans-Serif" font-size="10.00">SSJXYSeriesCollection</text>
</a>
</g>
<!-- Node2&#45;&gt;Node1 -->
<g id="edge2" class="edge"><title>Node2&#45;&gt;Node1</title>
<path fill="none" stroke="midnightblue" d="M80,-50.5155C80,-40.562 80,-29.0495 80,-21.0279"/>
<polygon fill="midnightblue" stroke="midnightblue" points="76.5001,-50.8218 80,-60.8218 83.5001,-50.8219 76.5001,-50.8218"/>
</g>
<!-- Node3 -->
<g id="node4" class="node"><title>Node3</title>
<polygon fill="none" stroke="#bfbfbf" points="0,-131 0,-151 64,-151 64,-131 0,-131"/>
<text text-anchor="middle" x="32" y="-138" font-family="Helvetica,sans-Serif" font-size="10.00">XYDataset</text>
</g>
<!-- Node3&#45;&gt;Node2 -->
<g id="edge4" class="edge"><title>Node3&#45;&gt;Node2</title>
<path fill="none" stroke="#9a32cd" stroke-dasharray="5,2" d="M28.7108,-120.707C28.5315,-113.744 29.4638,-106.159 33,-100 37.6783,-91.8512 45.6625,-85.6916 53.7358,-81.1922"/>
<polygon fill="#9a32cd" stroke="#9a32cd" points="25.2449,-121.229 29.6931,-130.845 32.2123,-120.554 25.2449,-121.229"/>
<text text-anchor="middle" x="69.5" y="-103" font-family="Helvetica,sans-Serif" font-size="10.00"> seriesCollection</text>
</g>
<!-- Node4 -->
<g id="node6" class="node"><title>Node4</title>
<polygon fill="none" stroke="#bfbfbf" points="83.5,-131 83.5,-151 172.5,-151 172.5,-131 83.5,-131"/>
<text text-anchor="middle" x="128" y="-138" font-family="Helvetica,sans-Serif" font-size="10.00">XYItemRenderer</text>
</g>
<!-- Node4&#45;&gt;Node2 -->
<g id="edge6" class="edge"><title>Node4&#45;&gt;Node2</title>
<path fill="none" stroke="#9a32cd" stroke-dasharray="5,2" d="M118.7,-121.41C115.079,-114.436 110.675,-106.665 106,-100 101.34,-93.357 95.3362,-86.5698 90.2719,-81.2331"/>
<polygon fill="#9a32cd" stroke="#9a32cd" points="115.801,-123.44 123.387,-130.835 122.068,-120.323 115.801,-123.44"/>
<text text-anchor="middle" x="132.5" y="-103" font-family="Helvetica,sans-Serif" font-size="10.00"> renderer</text>
</g>
</g>
</svg>
