<?xml version="1.0" encoding="UTF-8" standalone="no"?>
<!DOCTYPE svg PUBLIC "-//W3C//DTD SVG 1.1//EN"
 "http://www.w3.org/Graphics/SVG/1.1/DTD/svg11.dtd">
<!-- Generated by graphviz version 2.38.0 (20140413.2041)
 -->
<!-- Title: ExponentialInverseFromDensityGen Pages: 1 -->
<svg width="179pt" height="140pt"
 viewBox="0.00 0.00 179.00 140.00" xmlns="http://www.w3.org/2000/svg" xmlns:xlink="http://www.w3.org/1999/xlink">
<g id="graph0" class="graph" transform="scale(1 1) rotate(0) translate(4 136)">
<title>ExponentialInverseFromDensityGen</title>
<!-- Node0 -->
<g id="node1" class="node"><title>Node0</title>
<polygon fill="#bfbfbf" stroke="black" points="0,-0.5 0,-19.5 171,-19.5 171,-0.5 0,-0.5"/>
<text text-anchor="middle" x="85.5" y="-7.5" font-family="Helvetica,sans-Serif" font-size="10.00">ExponentialInverseFromDensityGen</text>
</g>
<!-- Node1 -->
<g id="node2" class="node"><title>Node1</title>
<g id="a_node2"><a xlink:href="classumontreal_1_1ssj_1_1randvar_1_1ExponentialGen.html" target="_top" xlink:title="This class implements random variate generators for the exponential distribution. ...">
<polygon fill="none" stroke="black" points="42.5,-56.5 42.5,-75.5 128.5,-75.5 128.5,-56.5 42.5,-56.5"/>
<text text-anchor="middle" x="85.5" y="-63.5" font-family="Helvetica,sans-Serif" font-size="10.00">ExponentialGen</text>
</a>
</g>
</g>
<!-- Node1&#45;&gt;Node0 -->
<g id="edge1" class="edge"><title>Node1&#45;&gt;Node0</title>
<path fill="none" stroke="midnightblue" d="M85.5,-45.8045C85.5,-36.9102 85.5,-26.7798 85.5,-19.7511"/>
<polygon fill="midnightblue" stroke="midnightblue" points="82.0001,-46.083 85.5,-56.083 89.0001,-46.083 82.0001,-46.083"/>
</g>
<!-- Node2 -->
<g id="node3" class="node"><title>Node2</title>
<g id="a_node3"><a xlink:href="classumontreal_1_1ssj_1_1randvar_1_1RandomVariateGen.html" target="_top" xlink:title="This is the base class for all random variate generators over the real line. ">
<polygon fill="none" stroke="black" points="35,-112.5 35,-131.5 136,-131.5 136,-112.5 35,-112.5"/>
<text text-anchor="middle" x="85.5" y="-119.5" font-family="Helvetica,sans-Serif" font-size="10.00">RandomVariateGen</text>
</a>
</g>
</g>
<!-- Node2&#45;&gt;Node1 -->
<g id="edge2" class="edge"><title>Node2&#45;&gt;Node1</title>
<path fill="none" stroke="midnightblue" d="M85.5,-101.805C85.5,-92.9102 85.5,-82.7798 85.5,-75.7511"/>
<polygon fill="midnightblue" stroke="midnightblue" points="82.0001,-102.083 85.5,-112.083 89.0001,-102.083 82.0001,-102.083"/>
</g>
</g>
</svg>
