<?xml version="1.0" encoding="UTF-8" standalone="no"?>
<!DOCTYPE svg PUBLIC "-//W3C//DTD SVG 1.1//EN"
 "http://www.w3.org/Graphics/SVG/1.1/DTD/svg11.dtd">
<!-- Generated by graphviz version 2.38.0 (20140413.2041)
 -->
<!-- Title: CycleBasedPointSetBase2 Pages: 1 -->
<svg width="382pt" height="196pt"
 viewBox="0.00 0.00 381.50 196.00" xmlns="http://www.w3.org/2000/svg" xmlns:xlink="http://www.w3.org/1999/xlink">
<g id="graph0" class="graph" transform="scale(1 1) rotate(0) translate(4 192)">
<title>CycleBasedPointSetBase2</title>
<!-- Node1 -->
<g id="node1" class="node"><title>Node1</title>
<polygon fill="#bfbfbf" stroke="black" points="103,-56.5 103,-75.5 238,-75.5 238,-56.5 103,-56.5"/>
<text text-anchor="middle" x="170.5" y="-63.5" font-family="Helvetica,sans-Serif" font-size="10.00">CycleBasedPointSetBase2</text>
</g>
<!-- Node4 -->
<g id="node4" class="node"><title>Node4</title>
<g id="a_node4"><a xlink:href="classumontreal_1_1ssj_1_1hups_1_1CycleBasedLFSR.html" target="_top" xlink:title="LFSR generators produce numbers by generating a sequence of bits from a linear recurrence modulo 2...">
<polygon fill="none" stroke="black" points="0,-0.5 0,-19.5 95,-19.5 95,-0.5 0,-0.5"/>
<text text-anchor="middle" x="47.5" y="-7.5" font-family="Helvetica,sans-Serif" font-size="10.00">CycleBasedLFSR</text>
</a>
</g>
</g>
<!-- Node1&#45;&gt;Node4 -->
<g id="edge3" class="edge"><title>Node1&#45;&gt;Node4</title>
<path fill="none" stroke="midnightblue" d="M141.727,-52.3678C118.693,-42.2553 87.0162,-28.3486 66.8985,-19.5164"/>
<polygon fill="midnightblue" stroke="midnightblue" points="140.447,-55.6283 151.01,-56.4435 143.261,-49.2188 140.447,-55.6283"/>
</g>
<!-- Node5 -->
<g id="node5" class="node"><title>Node5</title>
<g id="a_node5"><a xlink:href="classumontreal_1_1ssj_1_1hups_1_1F2wCycleBasedLFSR.html" target="_top" xlink:title="This class creates a point set based upon a linear feedback shift register sequence. ">
<polygon fill="none" stroke="black" points="113.5,-0.5 113.5,-19.5 227.5,-19.5 227.5,-0.5 113.5,-0.5"/>
<text text-anchor="middle" x="170.5" y="-7.5" font-family="Helvetica,sans-Serif" font-size="10.00">F2wCycleBasedLFSR</text>
</a>
</g>
</g>
<!-- Node1&#45;&gt;Node5 -->
<g id="edge4" class="edge"><title>Node1&#45;&gt;Node5</title>
<path fill="none" stroke="midnightblue" d="M170.5,-45.8045C170.5,-36.9102 170.5,-26.7798 170.5,-19.7511"/>
<polygon fill="midnightblue" stroke="midnightblue" points="167,-46.083 170.5,-56.083 174,-46.083 167,-46.083"/>
</g>
<!-- Node6 -->
<g id="node6" class="node"><title>Node6</title>
<g id="a_node6"><a xlink:href="classumontreal_1_1ssj_1_1hups_1_1F2wCycleBasedPolyLCG.html" target="_top" xlink:title="This class creates a point set based upon a linear congruential sequence in the finite field ...">
<polygon fill="none" stroke="black" points="245.5,-0.5 245.5,-19.5 373.5,-19.5 373.5,-0.5 245.5,-0.5"/>
<text text-anchor="middle" x="309.5" y="-7.5" font-family="Helvetica,sans-Serif" font-size="10.00">F2wCycleBasedPolyLCG</text>
</a>
</g>
</g>
<!-- Node1&#45;&gt;Node6 -->
<g id="edge5" class="edge"><title>Node1&#45;&gt;Node6</title>
<path fill="none" stroke="midnightblue" d="M201.976,-52.772C228.085,-42.6287 264.539,-28.4669 287.578,-19.5164"/>
<polygon fill="midnightblue" stroke="midnightblue" points="200.579,-49.5598 192.525,-56.4435 203.114,-56.0847 200.579,-49.5598"/>
</g>
<!-- Node2 -->
<g id="node2" class="node"><title>Node2</title>
<g id="a_node2"><a xlink:href="classumontreal_1_1ssj_1_1hups_1_1CycleBasedPointSet.html" target="_top" xlink:title="This abstract class provides the basic structures for storing and manipulating a highly uniform point...">
<polygon fill="none" stroke="black" points="117,-112.5 117,-131.5 224,-131.5 224,-112.5 117,-112.5"/>
<text text-anchor="middle" x="170.5" y="-119.5" font-family="Helvetica,sans-Serif" font-size="10.00">CycleBasedPointSet</text>
</a>
</g>
</g>
<!-- Node2&#45;&gt;Node1 -->
<g id="edge1" class="edge"><title>Node2&#45;&gt;Node1</title>
<path fill="none" stroke="midnightblue" d="M170.5,-101.805C170.5,-92.9102 170.5,-82.7798 170.5,-75.7511"/>
<polygon fill="midnightblue" stroke="midnightblue" points="167,-102.083 170.5,-112.083 174,-102.083 167,-102.083"/>
</g>
<!-- Node3 -->
<g id="node3" class="node"><title>Node3</title>
<g id="a_node3"><a xlink:href="classumontreal_1_1ssj_1_1hups_1_1PointSet.html" target="_top" xlink:title="This abstract class defines the basic methods for accessing and manipulating point sets...">
<polygon fill="none" stroke="black" points="143.5,-168.5 143.5,-187.5 197.5,-187.5 197.5,-168.5 143.5,-168.5"/>
<text text-anchor="middle" x="170.5" y="-175.5" font-family="Helvetica,sans-Serif" font-size="10.00">PointSet</text>
</a>
</g>
</g>
<!-- Node3&#45;&gt;Node2 -->
<g id="edge2" class="edge"><title>Node3&#45;&gt;Node2</title>
<path fill="none" stroke="midnightblue" d="M170.5,-157.805C170.5,-148.91 170.5,-138.78 170.5,-131.751"/>
<polygon fill="midnightblue" stroke="midnightblue" points="167,-158.083 170.5,-168.083 174,-158.083 167,-158.083"/>
</g>
</g>
</svg>
