<?xml version="1.0" encoding="UTF-8" standalone="no"?>
<!DOCTYPE svg PUBLIC "-//W3C//DTD SVG 1.1//EN"
 "http://www.w3.org/Graphics/SVG/1.1/DTD/svg11.dtd">
<!-- Generated by graphviz version 2.26.3 (20100126.1600)
 -->
<!-- Title: DigitalNetFromFile Pages: 1 -->
<svg width="110pt" height="220pt"
 viewBox="0.00 0.00 110.00 220.00" xmlns="http://www.w3.org/2000/svg" xmlns:xlink="http://www.w3.org/1999/xlink">
<g id="graph1" class="graph" transform="scale(1 1) rotate(0) translate(4 216)">
<title>DigitalNetFromFile</title>
<!-- Node1 -->
<g id="node1" class="node"><title>Node1</title>
<polygon fill="#bfbfbf" stroke="black" points="-0.5,-1 -0.5,-21 96.5,-21 96.5,-1 -0.5,-1"/>
<text text-anchor="middle" x="48" y="-8" font-family="Helvetica,sans-Serif" font-size="10.00">DigitalNetFromFile</text>
</g>
<!-- Node2 -->
<g id="node2" class="node"><title>Node2</title>
<a xlink:href="classumontreal_1_1ssj_1_1hups_1_1DigitalNet.html" target="_top" xlink:title="This class provides the basic structures for storing and manipulating linear digital nets in base ...">
<polygon fill="none" stroke="black" points="18.5,-61 18.5,-81 77.5,-81 77.5,-61 18.5,-61"/>
<text text-anchor="middle" x="48" y="-68" font-family="Helvetica,sans-Serif" font-size="10.00">DigitalNet</text>
</a>
</g>
<!-- Node2&#45;&gt;Node1 -->
<g id="edge2" class="edge"><title>Node2&#45;&gt;Node1</title>
<path fill="none" stroke="midnightblue" d="M48,-50.5155C48,-40.562 48,-29.0495 48,-21.0279"/>
<polygon fill="midnightblue" stroke="midnightblue" points="44.5001,-50.8218 48,-60.8218 51.5001,-50.8219 44.5001,-50.8218"/>
</g>
<!-- Node3 -->
<g id="node4" class="node"><title>Node3</title>
<a xlink:href="classumontreal_1_1ssj_1_1hups_1_1PointSet.html" target="_top" xlink:title="This abstract class defines the basic methods for accessing and manipulating point sets...">
<polygon fill="none" stroke="black" points="21,-121 21,-141 75,-141 75,-121 21,-121"/>
<text text-anchor="middle" x="48" y="-128" font-family="Helvetica,sans-Serif" font-size="10.00">PointSet</text>
</a>
</g>
<!-- Node3&#45;&gt;Node2 -->
<g id="edge4" class="edge"><title>Node3&#45;&gt;Node2</title>
<path fill="none" stroke="midnightblue" d="M48,-110.516C48,-100.562 48,-89.0495 48,-81.0279"/>
<polygon fill="midnightblue" stroke="midnightblue" points="44.5001,-110.822 48,-120.822 51.5001,-110.822 44.5001,-110.822"/>
</g>
<!-- Node4 -->
<g id="node6" class="node"><title>Node4</title>
<a xlink:href="interfaceumontreal_1_1ssj_1_1rng_1_1RandomStream.html" target="_top" xlink:title="This interface defines the basic structures to handle multiple streams of uniform (pseudo)random numb...">
<polygon fill="none" stroke="black" points="6,-191 6,-211 90,-211 90,-191 6,-191"/>
<text text-anchor="middle" x="48" y="-198" font-family="Helvetica,sans-Serif" font-size="10.00">RandomStream</text>
</a>
</g>
<!-- Node4&#45;&gt;Node3 -->
<g id="edge6" class="edge"><title>Node4&#45;&gt;Node3</title>
<path fill="none" stroke="#9a32cd" stroke-dasharray="5,2" d="M48,-180.613C48,-167.597 48,-151.296 48,-141.011"/>
<polygon fill="#9a32cd" stroke="#9a32cd" points="44.5001,-180.971 48,-190.971 51.5001,-180.971 44.5001,-180.971"/>
<text text-anchor="middle" x="75" y="-163" font-family="Helvetica,sans-Serif" font-size="10.00"> shiftStream</text>
</g>
</g>
</svg>
