<?xml version="1.0" encoding="UTF-8" standalone="no"?>
<!DOCTYPE svg PUBLIC "-//W3C//DTD SVG 1.1//EN"
 "http://www.w3.org/Graphics/SVG/1.1/DTD/svg11.dtd">
<!-- Generated by graphviz version 2.38.0 (20140413.2041)
 -->
<!-- Title: FunctionOfMultipleMeansTally Pages: 1 -->
<svg width="155pt" height="151pt"
 viewBox="0.00 0.00 155.00 151.00" xmlns="http://www.w3.org/2000/svg" xmlns:xlink="http://www.w3.org/1999/xlink">
<g id="graph0" class="graph" transform="scale(1 1) rotate(0) translate(4 147)">
<title>FunctionOfMultipleMeansTally</title>
<!-- Node0 -->
<g id="node1" class="node"><title>Node0</title>
<polygon fill="#bfbfbf" stroke="black" points="0,-67.5 0,-86.5 147,-86.5 147,-67.5 0,-67.5"/>
<text text-anchor="middle" x="73.5" y="-74.5" font-family="Helvetica,sans-Serif" font-size="10.00">FunctionOfMultipleMeansTally</text>
</g>
<!-- Node3 -->
<g id="node4" class="node"><title>Node3</title>
<g id="a_node4"><a xlink:href="classumontreal_1_1ssj_1_1stat_1_1list_1_1lincv_1_1FunctionOfMultipleMeansTallyWithCV.html" target="_top" xlink:title="Represents a function of multiple means tally for an estimator with linear control variables...">
<polygon fill="none" stroke="black" points="0,-0.5 0,-30.5 147,-30.5 147,-0.5 0,-0.5"/>
<text text-anchor="start" x="8" y="-18.5" font-family="Helvetica,sans-Serif" font-size="10.00">FunctionOfMultipleMeansTally</text>
<text text-anchor="middle" x="73.5" y="-7.5" font-family="Helvetica,sans-Serif" font-size="10.00">WithCV</text>
</a>
</g>
</g>
<!-- Node0&#45;&gt;Node3 -->
<g id="edge3" class="edge"><title>Node0&#45;&gt;Node3</title>
<path fill="none" stroke="midnightblue" d="M73.5,-57.2349C73.5,-48.5864 73.5,-38.4969 73.5,-30.523"/>
<polygon fill="midnightblue" stroke="midnightblue" points="70.0001,-57.4751 73.5,-67.4751 77.0001,-57.4751 70.0001,-57.4751"/>
</g>
<!-- Node1 -->
<g id="node2" class="node"><title>Node1</title>
<g id="a_node2"><a xlink:href="classumontreal_1_1ssj_1_1stat_1_1StatProbe.html" target="_top" xlink:title="The objects of this class are statistical probes or collectors, which are elementary devices for coll...">
<polygon fill="none" stroke="black" points="4.5,-123.5 4.5,-142.5 64.5,-142.5 64.5,-123.5 4.5,-123.5"/>
<text text-anchor="middle" x="34.5" y="-130.5" font-family="Helvetica,sans-Serif" font-size="10.00">StatProbe</text>
</a>
</g>
</g>
<!-- Node1&#45;&gt;Node0 -->
<g id="edge1" class="edge"><title>Node1&#45;&gt;Node0</title>
<path fill="none" stroke="midnightblue" d="M46.8822,-114.855C53.6354,-105.505 61.7086,-94.3265 67.1798,-86.7511"/>
<polygon fill="midnightblue" stroke="midnightblue" points="43.9576,-112.927 40.9401,-123.083 49.6324,-117.025 43.9576,-112.927"/>
</g>
<!-- Node2 -->
<g id="node3" class="node"><title>Node2</title>
<polygon fill="none" stroke="#bfbfbf" points="83,-123.5 83,-142.5 142,-142.5 142,-123.5 83,-123.5"/>
<text text-anchor="middle" x="112.5" y="-130.5" font-family="Helvetica,sans-Serif" font-size="10.00">Cloneable</text>
</g>
<!-- Node2&#45;&gt;Node0 -->
<g id="edge2" class="edge"><title>Node2&#45;&gt;Node0</title>
<path fill="none" stroke="midnightblue" d="M100.118,-114.855C93.3646,-105.505 85.2914,-94.3265 79.8202,-86.7511"/>
<polygon fill="midnightblue" stroke="midnightblue" points="97.3676,-117.025 106.06,-123.083 103.042,-112.927 97.3676,-117.025"/>
</g>
</g>
</svg>
