<?xml version="1.0" encoding="UTF-8" standalone="no"?>
<!DOCTYPE svg PUBLIC "-//W3C//DTD SVG 1.1//EN"
 "http://www.w3.org/Graphics/SVG/1.1/DTD/svg11.dtd">
<!-- Generated by graphviz version 2.38.0 (20140413.2041)
 -->
<!-- Title: DiscreteDistIntChart Pages: 1 -->
<svg width="294pt" height="308pt"
 viewBox="0.00 0.00 294.00 308.00" xmlns="http://www.w3.org/2000/svg" xmlns:xlink="http://www.w3.org/1999/xlink">
<g id="graph0" class="graph" transform="scale(1 1) rotate(0) translate(4 304)">
<title>DiscreteDistIntChart</title>
<!-- Node1 -->
<g id="node1" class="node"><title>Node1</title>
<polygon fill="#bfbfbf" stroke="black" points="107,-0.5 107,-19.5 211,-19.5 211,-0.5 107,-0.5"/>
<text text-anchor="middle" x="159" y="-7.5" font-family="Helvetica,sans-Serif" font-size="10.00">DiscreteDistIntChart</text>
</g>
<!-- Node2 -->
<g id="node2" class="node"><title>Node2</title>
<g id="a_node2"><a xlink:href="classumontreal_1_1ssj_1_1charts_1_1XYLineChart.html" target="_top" xlink:title="This class provides tools to create and manage curve plots. ">
<polygon fill="none" stroke="black" points="65,-78.5 65,-97.5 135,-97.5 135,-78.5 65,-78.5"/>
<text text-anchor="middle" x="100" y="-85.5" font-family="Helvetica,sans-Serif" font-size="10.00">XYLineChart</text>
</a>
</g>
</g>
<!-- Node2&#45;&gt;Node1 -->
<g id="edge1" class="edge"><title>Node2&#45;&gt;Node1</title>
<path fill="none" stroke="#9a32cd" stroke-dasharray="5,2" d="M108.899,-69.076C114.109,-59.4068 121.191,-47.5359 129,-38 134.594,-31.1693 141.949,-24.5219 147.976,-19.532"/>
<polygon fill="#9a32cd" stroke="#9a32cd" points="105.683,-67.6754 104.194,-78.1652 111.899,-70.893 105.683,-67.6754"/>
<text text-anchor="middle" x="152" y="-52" font-family="Helvetica,sans-Serif" font-size="10.00"> probChart</text>
<text text-anchor="middle" x="152" y="-41" font-family="Helvetica,sans-Serif" font-size="10.00">cdfChart</text>
</g>
<!-- Node3 -->
<g id="node3" class="node"><title>Node3</title>
<g id="a_node3"><a xlink:href="classumontreal_1_1ssj_1_1charts_1_1XYChart.html" target="_top" xlink:title="This class provides tools to create charts from data in a simple way. ">
<polygon fill="none" stroke="black" points="74,-135.5 74,-154.5 126,-154.5 126,-135.5 74,-135.5"/>
<text text-anchor="middle" x="100" y="-142.5" font-family="Helvetica,sans-Serif" font-size="10.00">XYChart</text>
</a>
</g>
</g>
<!-- Node3&#45;&gt;Node2 -->
<g id="edge2" class="edge"><title>Node3&#45;&gt;Node2</title>
<path fill="none" stroke="midnightblue" d="M100,-125.117C100,-115.817 100,-105.056 100,-97.7149"/>
<polygon fill="midnightblue" stroke="midnightblue" points="96.5001,-125.406 100,-135.406 103.5,-125.406 96.5001,-125.406"/>
</g>
<!-- Node4 -->
<g id="node4" class="node"><title>Node4</title>
<polygon fill="none" stroke="#bfbfbf" points="0,-213.5 0,-232.5 64,-232.5 64,-213.5 0,-213.5"/>
<text text-anchor="middle" x="32" y="-220.5" font-family="Helvetica,sans-Serif" font-size="10.00">JFreeChart</text>
</g>
<!-- Node4&#45;&gt;Node3 -->
<g id="edge3" class="edge"><title>Node4&#45;&gt;Node3</title>
<path fill="none" stroke="#9a32cd" stroke-dasharray="5,2" d="M44.3027,-205.303C51.7024,-195.584 61.5015,-183.264 71,-173 76.9805,-166.537 84.2305,-159.787 89.9853,-154.653"/>
<polygon fill="#9a32cd" stroke="#9a32cd" points="41.4578,-203.263 38.259,-213.363 47.0583,-207.462 41.4578,-203.263"/>
<text text-anchor="middle" x="83.5" y="-181.5" font-family="Helvetica,sans-Serif" font-size="10.00"> chart</text>
</g>
<!-- Node5 -->
<g id="node5" class="node"><title>Node5</title>
<g id="a_node5"><a xlink:href="classumontreal_1_1ssj_1_1charts_1_1Axis.html" target="_top" xlink:title="Represents an axis of a chart encapsulated by an instance of XYChart. ">
<polygon fill="none" stroke="black" points="82,-213.5 82,-232.5 118,-232.5 118,-213.5 82,-213.5"/>
<text text-anchor="middle" x="100" y="-220.5" font-family="Helvetica,sans-Serif" font-size="10.00">Axis</text>
</a>
</g>
</g>
<!-- Node5&#45;&gt;Node3 -->
<g id="edge4" class="edge"><title>Node5&#45;&gt;Node3</title>
<path fill="none" stroke="#9a32cd" stroke-dasharray="5,2" d="M100,-203.224C100,-187.697 100,-166.358 100,-154.616"/>
<polygon fill="#9a32cd" stroke="#9a32cd" points="96.5001,-203.282 100,-213.282 103.5,-203.282 96.5001,-203.282"/>
<text text-anchor="middle" x="114" y="-187" font-family="Helvetica,sans-Serif" font-size="10.00"> XAxis</text>
<text text-anchor="middle" x="114" y="-176" font-family="Helvetica,sans-Serif" font-size="10.00">YAxis</text>
</g>
<!-- Node6 -->
<g id="node6" class="node"><title>Node6</title>
<g id="a_node6"><a xlink:href="classumontreal_1_1ssj_1_1charts_1_1SSJXYSeriesCollection.html" target="_top" xlink:title="Stores data used in a XYChart. ">
<polygon fill="none" stroke="black" points="136.5,-213.5 136.5,-232.5 253.5,-232.5 253.5,-213.5 136.5,-213.5"/>
<text text-anchor="middle" x="195" y="-220.5" font-family="Helvetica,sans-Serif" font-size="10.00">SSJXYSeriesCollection</text>
</a>
</g>
</g>
<!-- Node6&#45;&gt;Node3 -->
<g id="edge5" class="edge"><title>Node6&#45;&gt;Node3</title>
<path fill="none" stroke="#9a32cd" stroke-dasharray="5,2" d="M176.175,-206.94C156.606,-191.285 126.659,-167.327 110.771,-154.616"/>
<polygon fill="#9a32cd" stroke="#9a32cd" points="174.107,-209.768 184.102,-213.282 178.48,-204.302 174.107,-209.768"/>
<text text-anchor="middle" x="177" y="-181.5" font-family="Helvetica,sans-Serif" font-size="10.00"> dataset</text>
</g>
<!-- Node7 -->
<g id="node7" class="node"><title>Node7</title>
<polygon fill="none" stroke="#bfbfbf" points="116,-280.5 116,-299.5 178,-299.5 178,-280.5 116,-280.5"/>
<text text-anchor="middle" x="147" y="-287.5" font-family="Helvetica,sans-Serif" font-size="10.00">XYDataset</text>
</g>
<!-- Node7&#45;&gt;Node6 -->
<g id="edge6" class="edge"><title>Node7&#45;&gt;Node6</title>
<path fill="none" stroke="#9a32cd" stroke-dasharray="5,2" d="M143.902,-270.415C143.706,-263.878 144.578,-256.737 148,-251 152.917,-242.757 161.377,-236.796 169.776,-232.607"/>
<polygon fill="#9a32cd" stroke="#9a32cd" points="140.436,-270.923 144.979,-280.494 147.396,-270.179 140.436,-270.923"/>
<text text-anchor="middle" x="184.5" y="-254" font-family="Helvetica,sans-Serif" font-size="10.00"> seriesCollection</text>
</g>
<!-- Node8 -->
<g id="node8" class="node"><title>Node8</title>
<polygon fill="none" stroke="#bfbfbf" points="200,-280.5 200,-299.5 286,-299.5 286,-280.5 200,-280.5"/>
<text text-anchor="middle" x="243" y="-287.5" font-family="Helvetica,sans-Serif" font-size="10.00">XYItemRenderer</text>
</g>
<!-- Node8&#45;&gt;Node6 -->
<g id="edge7" class="edge"><title>Node8&#45;&gt;Node6</title>
<path fill="none" stroke="#9a32cd" stroke-dasharray="5,2" d="M234.074,-271.571C230.367,-264.907 225.808,-257.382 221,-251 215.988,-244.347 209.488,-237.597 204.241,-232.51"/>
<polygon fill="#9a32cd" stroke="#9a32cd" points="231.033,-273.307 238.827,-280.483 237.21,-270.012 231.033,-273.307"/>
<text text-anchor="middle" x="248.5" y="-254" font-family="Helvetica,sans-Serif" font-size="10.00"> renderer</text>
</g>
<!-- Node9 -->
<g id="node9" class="node"><title>Node9</title>
<g id="a_node9"><a xlink:href="classumontreal_1_1ssj_1_1probdist_1_1DiscreteDistributionInt.html" target="_top" xlink:title="Classes implementing discrete distributions over the integers should inherit from this class...">
<polygon fill="none" stroke="black" points="153,-78.5 153,-97.5 265,-97.5 265,-78.5 153,-78.5"/>
<text text-anchor="middle" x="209" y="-85.5" font-family="Helvetica,sans-Serif" font-size="10.00">DiscreteDistributionInt</text>
</a>
</g>
</g>
<!-- Node9&#45;&gt;Node1 -->
<g id="edge8" class="edge"><title>Node9&#45;&gt;Node1</title>
<path fill="none" stroke="#9a32cd" stroke-dasharray="5,2" d="M197.53,-69.5654C187.256,-53.9486 172.619,-31.7002 164.669,-19.6165"/>
<polygon fill="#9a32cd" stroke="#9a32cd" points="194.844,-71.8513 203.264,-78.2818 200.692,-68.004 194.844,-71.8513"/>
<text text-anchor="middle" x="199.5" y="-46.5" font-family="Helvetica,sans-Serif" font-size="10.00"> dist</text>
</g>
<!-- Node10 -->
<g id="node10" class="node"><title>Node10</title>
<g id="a_node10"><a xlink:href="interfaceumontreal_1_1ssj_1_1probdist_1_1Distribution.html" target="_top" xlink:title="This interface should be implemented by all classes supporting discrete and continuous distributions...">
<polygon fill="none" stroke="black" points="176.5,-135.5 176.5,-154.5 241.5,-154.5 241.5,-135.5 176.5,-135.5"/>
<text text-anchor="middle" x="209" y="-142.5" font-family="Helvetica,sans-Serif" font-size="10.00">Distribution</text>
</a>
</g>
</g>
<!-- Node10&#45;&gt;Node9 -->
<g id="edge9" class="edge"><title>Node10&#45;&gt;Node9</title>
<path fill="none" stroke="midnightblue" d="M209,-125.117C209,-115.817 209,-105.056 209,-97.7149"/>
<polygon fill="midnightblue" stroke="midnightblue" points="205.5,-125.406 209,-135.406 212.5,-125.406 205.5,-125.406"/>
</g>
</g>
</svg>
