<?xml version="1.0" encoding="UTF-8" standalone="no"?>
<!DOCTYPE svg PUBLIC "-//W3C//DTD SVG 1.1//EN"
 "http://www.w3.org/Graphics/SVG/1.1/DTD/svg11.dtd">
<!-- Generated by graphviz version 2.38.0 (20140413.2041)
 -->
<!-- Title: ThreadCPUTimeChrono Pages: 1 -->
<svg width="213pt" height="95pt"
 viewBox="0.00 0.00 213.00 95.00" xmlns="http://www.w3.org/2000/svg" xmlns:xlink="http://www.w3.org/1999/xlink">
<g id="graph0" class="graph" transform="scale(1 1) rotate(0) translate(4 91)">
<title>ThreadCPUTimeChrono</title>
<!-- Node1 -->
<g id="node1" class="node"><title>Node1</title>
<polygon fill="#bfbfbf" stroke="black" points="35,-0.5 35,-19.5 165,-19.5 165,-0.5 35,-0.5"/>
<text text-anchor="middle" x="100" y="-7.5" font-family="Helvetica,sans-Serif" font-size="10.00">ThreadCPUTimeChrono</text>
</g>
<!-- Node2 -->
<g id="node2" class="node"><title>Node2</title>
<g id="a_node2"><a xlink:href="classumontreal_1_1ssj_1_1util_1_1AbstractChrono.html" target="_top" xlink:title="AbstractChrono is a class that acts as an interface to the system clock and calculates the CPU or sys...">
<polygon fill="none" stroke="black" points="0,-67.5 0,-86.5 92,-86.5 92,-67.5 0,-67.5"/>
<text text-anchor="middle" x="46" y="-74.5" font-family="Helvetica,sans-Serif" font-size="10.00">AbstractChrono</text>
</a>
</g>
</g>
<!-- Node2&#45;&gt;Node1 -->
<g id="edge1" class="edge"><title>Node2&#45;&gt;Node1</title>
<path fill="none" stroke="midnightblue" d="M59.8984,-59.2705C70.4269,-46.5972 84.4638,-29.701 92.8327,-19.6273"/>
<polygon fill="midnightblue" stroke="midnightblue" points="56.9807,-57.3053 53.2827,-67.2338 62.3651,-61.7785 56.9807,-57.3053"/>
</g>
<!-- Node3 -->
<g id="node3" class="node"><title>Node3</title>
<polygon fill="none" stroke="#bfbfbf" points="110,-67.5 110,-86.5 200,-86.5 200,-67.5 110,-67.5"/>
<text text-anchor="middle" x="155" y="-74.5" font-family="Helvetica,sans-Serif" font-size="10.00">ThreadMXBean</text>
</g>
<!-- Node3&#45;&gt;Node1 -->
<g id="edge2" class="edge"><title>Node3&#45;&gt;Node1</title>
<path fill="none" stroke="#9a32cd" stroke-dasharray="5,2" d="M140.844,-59.2705C130.121,-46.5972 115.824,-29.701 107.3,-19.6273"/>
<polygon fill="#9a32cd" stroke="#9a32cd" points="138.451,-61.8607 147.582,-67.2338 143.795,-57.3391 138.451,-61.8607"/>
<text text-anchor="middle" x="167.5" y="-41" font-family="Helvetica,sans-Serif" font-size="10.00"> threadMXBean</text>
</g>
</g>
</svg>
