<?xml version="1.0" encoding="UTF-8" standalone="no"?>
<!DOCTYPE svg PUBLIC "-//W3C//DTD SVG 1.1//EN"
 "http://www.w3.org/Graphics/SVG/1.1/DTD/svg11.dtd">
<!-- Generated by graphviz version 2.38.0 (20140413.2041)
 -->
<!-- Title: DigitalNet Pages: 1 -->
<!--zoomable 230 -->
<svg id="main" version="1.1" xmlns="http://www.w3.org/2000/svg" xmlns:xlink="http://www.w3.org/1999/xlink" xml:space="preserve" onload="init(evt)">
<style type="text/css"><![CDATA[
.edge:hover path { stroke: red; }
.edge:hover polygon { stroke: red; fill: red; }
]]></style>
<script type="text/javascript"><![CDATA[
var edges = document.getElementsByTagName('g');
if (edges && edges.length) {
  for (var i=0;i<edges.length;i++) {
    if (edges[i].id.substr(0,4)=='edge') {
      edges[i].setAttribute('class','edge');
    }
  }
}
]]></script>
        <defs>
                <circle id="rim" cx="0" cy="0" r="7"/>
                <circle id="rim2" cx="0" cy="0" r="3.5"/>
                <g id="zoomPlus">
                        <use xlink:href="#rim" fill="#404040">
                                <set attributeName="fill" to="#808080" begin="zoomplus.mouseover" end="zoomplus.mouseout"/>
                        </use>
                        <path d="M-4,0h8M0,-4v8" fill="none" stroke="white" stroke-width="1.5" pointer-events="none"/>
                </g>
                <g id="zoomMin">
                        <use xlink:href="#rim" fill="#404040">
                                <set attributeName="fill" to="#808080" begin="zoomminus.mouseover" end="zoomminus.mouseout"/>
                        </use>
                        <path d="M-4,0h8" fill="none" stroke="white" stroke-width="1.5" pointer-events="none"/>
                </g>
                <g id="dirArrow">
                        <path fill="none" stroke="white" stroke-width="1.5" d="M0,-3.0v7 M-2.5,-0.5L0,-3.0L2.5,-0.5"/>
                </g>
               <g id="resetDef">
                       <use xlink:href="#rim2" fill="#404040">
                               <set attributeName="fill" to="#808080" begin="reset.mouseover" end="reset.mouseout"/>
                       </use>
               </g>
        </defs>

<script type="text/javascript">
var viewWidth = 634;
var viewHeight = 230;
var sectionId = 'dynsection-0';
</script>
<script xlink:href="svgpan.js"/>
<svg id="graph" class="graph">
<g id="viewport">
<title>DigitalNet</title>
<!-- Node0 -->
<g id="node1" class="node"><title>Node0</title>
<polygon fill="#bfbfbf" stroke="black" points="90,-56.5 90,-75.5 150,-75.5 150,-56.5 90,-56.5"/>
<text text-anchor="middle" x="120" y="-63.5" font-family="Helvetica,sans-Serif" font-size="10.00">DigitalNet</text>
</g>
<!-- Node2 -->
<g id="node3" class="node"><title>Node2</title>
<g id="a_node3"><a xlink:href="classumontreal_1_1ssj_1_1hups_1_1DigitalNetBase2.html" target="_top" xlink:title="A special case of DigitalNet for the base . ">
<polygon fill="none" stroke="black" points="191,-107.5 191,-126.5 279,-126.5 279,-107.5 191,-107.5"/>
<text text-anchor="middle" x="235" y="-114.5" font-family="Helvetica,sans-Serif" font-size="10.00">DigitalNetBase2</text>
</a>
</g>
</g>
<!-- Node0&#45;&gt;Node2 -->
<g id="edge2" class="edge"><title>Node0&#45;&gt;Node2</title>
<path fill="none" stroke="midnightblue" d="M151.581,-79.802C170.981,-88.5576 195.585,-99.6623 212.841,-107.45"/>
<polygon fill="midnightblue" stroke="midnightblue" points="152.809,-76.5163 142.254,-75.5927 149.929,-82.8966 152.809,-76.5163"/>
</g>
<!-- Node11 -->
<g id="node12" class="node"><title>Node11</title>
<g id="a_node12"><a xlink:href="classumontreal_1_1ssj_1_1hups_1_1DigitalNetFromFile.html" target="_top" xlink:title="This class allows us to read the parameters defining a digital net either from a file, or from a URL address on the World Wide Web. ">
<polygon fill="none" stroke="black" points="186,-56.5 186,-75.5 284,-75.5 284,-56.5 186,-56.5"/>
<text text-anchor="middle" x="235" y="-63.5" font-family="Helvetica,sans-Serif" font-size="10.00">DigitalNetFromFile</text>
</a>
</g>
</g>
<!-- Node0&#45;&gt;Node11 -->
<g id="edge11" class="edge"><title>Node0&#45;&gt;Node11</title>
<path fill="none" stroke="midnightblue" d="M160.179,-66C168.413,-66 177.189,-66 185.712,-66"/>
<polygon fill="midnightblue" stroke="midnightblue" points="160.1,-62.5001 150.1,-66 160.1,-69.5001 160.1,-62.5001"/>
</g>
<!-- Node12 -->
<g id="node13" class="node"><title>Node12</title>
<g id="a_node13"><a xlink:href="classumontreal_1_1ssj_1_1hups_1_1DigitalSequence.html" target="_top" xlink:title="This abstract class describes methods specific to digital sequences. ">
<polygon fill="none" stroke="black" points="191,-12.5 191,-31.5 279,-31.5 279,-12.5 191,-12.5"/>
<text text-anchor="middle" x="235" y="-19.5" font-family="Helvetica,sans-Serif" font-size="10.00">DigitalSequence</text>
</a>
</g>
</g>
<!-- Node0&#45;&gt;Node12 -->
<g id="edge12" class="edge"><title>Node0&#45;&gt;Node12</title>
<path fill="none" stroke="midnightblue" d="M154.874,-52.8103C172.459,-45.963 193.546,-37.7519 209.529,-31.5287"/>
<polygon fill="midnightblue" stroke="midnightblue" points="153.568,-49.5627 145.519,-56.4527 156.108,-56.0856 153.568,-49.5627"/>
</g>
<!-- Node1 -->
<g id="node2" class="node"><title>Node1</title>
<g id="a_node2"><a xlink:href="classumontreal_1_1ssj_1_1hups_1_1PointSet.html" target="_top" xlink:title="This abstract class represents a general point set. ">
<polygon fill="none" stroke="black" points="0,-56.5 0,-75.5 54,-75.5 54,-56.5 0,-56.5"/>
<text text-anchor="middle" x="27" y="-63.5" font-family="Helvetica,sans-Serif" font-size="10.00">PointSet</text>
</a>
</g>
</g>
<!-- Node1&#45;&gt;Node0 -->
<g id="edge1" class="edge"><title>Node1&#45;&gt;Node0</title>
<path fill="none" stroke="midnightblue" d="M64.3573,-66C72.8333,-66 81.7508,-66 89.8668,-66"/>
<polygon fill="midnightblue" stroke="midnightblue" points="64.321,-62.5001 54.321,-66 64.3209,-69.5001 64.321,-62.5001"/>
</g>
<!-- Node3 -->
<g id="node4" class="node"><title>Node3</title>
<g id="a_node4"><a xlink:href="classumontreal_1_1ssj_1_1hups_1_1DigitalNetBase2FromFile.html" target="_top" xlink:title="This class allows us to read the parameters defining a digital net in base 2 either from a file...">
<polygon fill="none" stroke="black" points="328,-202.5 328,-221.5 454,-221.5 454,-202.5 328,-202.5"/>
<text text-anchor="middle" x="391" y="-209.5" font-family="Helvetica,sans-Serif" font-size="10.00">DigitalNetBase2FromFile</text>
</a>
</g>
</g>
<!-- Node2&#45;&gt;Node3 -->
<g id="edge3" class="edge"><title>Node2&#45;&gt;Node3</title>
<path fill="none" stroke="midnightblue" d="M250.726,-134.452C266.252,-151.765 292.268,-177.841 320,-193 327.072,-196.865 334.983,-199.986 342.871,-202.492"/>
<polygon fill="midnightblue" stroke="midnightblue" points="253.202,-131.967 243.985,-126.743 247.932,-136.575 253.202,-131.967"/>
</g>
<!-- Node4 -->
<g id="node5" class="node"><title>Node4</title>
<g id="a_node5"><a xlink:href="classumontreal_1_1ssj_1_1hups_1_1DigitalSequenceBase2.html" target="_top" xlink:title="This abstract class describes methods specific to digital sequences in base 2. ">
<polygon fill="none" stroke="black" points="333,-164.5 333,-183.5 449,-183.5 449,-164.5 333,-164.5"/>
<text text-anchor="middle" x="391" y="-171.5" font-family="Helvetica,sans-Serif" font-size="10.00">DigitalSequenceBase2</text>
</a>
</g>
</g>
<!-- Node2&#45;&gt;Node4 -->
<g id="edge4" class="edge"><title>Node2&#45;&gt;Node4</title>
<path fill="none" stroke="midnightblue" d="M264.349,-131.193C280.416,-138.887 301.039,-148.187 320,-155 329.718,-158.492 340.392,-161.696 350.413,-164.438"/>
<polygon fill="midnightblue" stroke="midnightblue" points="265.514,-127.867 254.99,-126.646 262.455,-134.164 265.514,-127.867"/>
</g>
<!-- Node8 -->
<g id="node9" class="node"><title>Node8</title>
<g id="a_node9"><a xlink:href="classumontreal_1_1ssj_1_1hups_1_1F2wNetLFSR.html" target="_top" xlink:title="This class implements a digital net in base 2 starting from a linear feedback shift register generato...">
<polygon fill="none" stroke="black" points="352.5,-126.5 352.5,-145.5 429.5,-145.5 429.5,-126.5 352.5,-126.5"/>
<text text-anchor="middle" x="391" y="-133.5" font-family="Helvetica,sans-Serif" font-size="10.00">F2wNetLFSR</text>
</a>
</g>
</g>
<!-- Node2&#45;&gt;Node8 -->
<g id="edge8" class="edge"><title>Node2&#45;&gt;Node8</title>
<path fill="none" stroke="midnightblue" d="M289.256,-123.57C309.999,-126.13 333.29,-129.003 352.249,-131.342"/>
<polygon fill="midnightblue" stroke="midnightblue" points="289.661,-120.094 279.307,-122.343 288.804,-127.041 289.661,-120.094"/>
</g>
<!-- Node9 -->
<g id="node10" class="node"><title>Node9</title>
<g id="a_node10"><a xlink:href="classumontreal_1_1ssj_1_1hups_1_1F2wNetPolyLCG.html" target="_top" xlink:title="This class implements a digital net in base 2 starting from a polynomial LCG in . ...">
<polygon fill="none" stroke="black" points="345.5,-88.5 345.5,-107.5 436.5,-107.5 436.5,-88.5 345.5,-88.5"/>
<text text-anchor="middle" x="391" y="-95.5" font-family="Helvetica,sans-Serif" font-size="10.00">F2wNetPolyLCG</text>
</a>
</g>
</g>
<!-- Node2&#45;&gt;Node9 -->
<g id="edge9" class="edge"><title>Node2&#45;&gt;Node9</title>
<path fill="none" stroke="midnightblue" d="M289.247,-110.431C307.56,-108.171 327.86,-105.667 345.412,-103.501"/>
<polygon fill="midnightblue" stroke="midnightblue" points="288.804,-106.959 279.307,-111.657 289.661,-113.906 288.804,-106.959"/>
</g>
<!-- Node10 -->
<g id="node11" class="node"><title>Node10</title>
<g id="a_node11"><a xlink:href="classumontreal_1_1ssj_1_1latnetbuilder_1_1DigitalNetSearch_1_1DigitalNetBase2FromLatNetBuilder.html" target="_top" xlink:title="Class for the construction od digital nets. ">
<polygon fill="none" stroke="black" points="320,-39 320,-69 462,-69 462,-39 320,-39"/>
<text text-anchor="start" x="328" y="-57" font-family="Helvetica,sans-Serif" font-size="10.00">DigitalNetSearch.Digital</text>
<text text-anchor="middle" x="391" y="-46" font-family="Helvetica,sans-Serif" font-size="10.00">NetBase2FromLatNetBuilder</text>
</a>
</g>
</g>
<!-- Node2&#45;&gt;Node10 -->
<g id="edge10" class="edge"><title>Node2&#45;&gt;Node10</title>
<path fill="none" stroke="midnightblue" d="M265.205,-103.079C281.243,-95.6144 301.565,-86.4474 320,-79 328.376,-75.6165 337.405,-72.2141 346.103,-69.0562"/>
<polygon fill="midnightblue" stroke="midnightblue" points="263.396,-100.061 255.829,-107.476 266.368,-106.399 263.396,-100.061"/>
</g>
<!-- Node5 -->
<g id="node6" class="node"><title>Node5</title>
<g id="a_node6"><a xlink:href="classumontreal_1_1ssj_1_1hups_1_1NiedSequenceBase2.html" target="_top" xlink:title="This class implements digital sequences constructed from the Niederreiter sequence in base 2...">
<polygon fill="none" stroke="black" points="508,-202.5 508,-221.5 616,-221.5 616,-202.5 508,-202.5"/>
<text text-anchor="middle" x="562" y="-209.5" font-family="Helvetica,sans-Serif" font-size="10.00">NiedSequenceBase2</text>
</a>
</g>
</g>
<!-- Node4&#45;&gt;Node5 -->
<g id="edge5" class="edge"><title>Node4&#45;&gt;Node5</title>
<path fill="none" stroke="midnightblue" d="M444.587,-185.824C468.413,-191.182 496.207,-197.431 518.661,-202.48"/>
<polygon fill="midnightblue" stroke="midnightblue" points="445.17,-182.368 434.646,-183.589 443.634,-189.198 445.17,-182.368"/>
</g>
<!-- Node6 -->
<g id="node7" class="node"><title>Node6</title>
<g id="a_node7"><a xlink:href="classumontreal_1_1ssj_1_1hups_1_1NiedXingSequenceBase2.html" target="_top" xlink:title="This class implements digital sequences based on the Niederreiter&#45;Xing sequence in base 2...">
<polygon fill="none" stroke="black" points="498,-164.5 498,-183.5 626,-183.5 626,-164.5 498,-164.5"/>
<text text-anchor="middle" x="562" y="-171.5" font-family="Helvetica,sans-Serif" font-size="10.00">NiedXingSequenceBase2</text>
</a>
</g>
</g>
<!-- Node4&#45;&gt;Node6 -->
<g id="edge6" class="edge"><title>Node4&#45;&gt;Node6</title>
<path fill="none" stroke="midnightblue" d="M459.256,-174C471.948,-174 485.183,-174 497.748,-174"/>
<polygon fill="midnightblue" stroke="midnightblue" points="459.216,-170.5 449.216,-174 459.216,-177.5 459.216,-170.5"/>
</g>
<!-- Node7 -->
<g id="node8" class="node"><title>Node7</title>
<g id="a_node8"><a xlink:href="classumontreal_1_1ssj_1_1hups_1_1SobolSequence.html" target="_top" xlink:title="This class implements digital nets or digital sequences in base 2 formed by the first &#160;points of a So...">
<polygon fill="none" stroke="black" points="519.5,-126.5 519.5,-145.5 604.5,-145.5 604.5,-126.5 519.5,-126.5"/>
<text text-anchor="middle" x="562" y="-133.5" font-family="Helvetica,sans-Serif" font-size="10.00">SobolSequence</text>
</a>
</g>
</g>
<!-- Node4&#45;&gt;Node7 -->
<g id="edge7" class="edge"><title>Node4&#45;&gt;Node7</title>
<path fill="none" stroke="midnightblue" d="M444.665,-162.158C468.68,-156.758 496.715,-150.455 519.245,-145.389"/>
<polygon fill="midnightblue" stroke="midnightblue" points="443.634,-158.802 434.646,-164.411 445.17,-165.632 443.634,-158.802"/>
</g>
<!-- Node13 -->
<g id="node14" class="node"><title>Node13</title>
<g id="a_node14"><a xlink:href="classumontreal_1_1ssj_1_1hups_1_1FaureSequence.html" target="_top" xlink:title="This class implements digital nets or digital sequences formed by the first &#160;points of the Faure sequ...">
<polygon fill="none" stroke="black" points="348.5,-0.5 348.5,-19.5 433.5,-19.5 433.5,-0.5 348.5,-0.5"/>
<text text-anchor="middle" x="391" y="-7.5" font-family="Helvetica,sans-Serif" font-size="10.00">FaureSequence</text>
</a>
</g>
</g>
<!-- Node12&#45;&gt;Node13 -->
<g id="edge13" class="edge"><title>Node12&#45;&gt;Node13</title>
<path fill="none" stroke="midnightblue" d="M289.463,-17.8341C308.749,-16.3312 330.215,-14.6585 348.344,-13.246"/>
<polygon fill="midnightblue" stroke="midnightblue" points="289.005,-14.359 279.307,-18.6254 289.549,-21.3379 289.005,-14.359"/>
</g>
</g>
</svg>
        <g id="navigator" transform="translate(0 0)" fill="#404254">
                <rect fill="#f2f5e9" fill-opacity="0.5" stroke="#606060" stroke-width=".5" x="0" y="0" width="60" height="60"/>
                <use id="zoomplus" xlink:href="#zoomPlus" x="17" y="9" onmousedown="handleZoom(evt,'in')"/>
                <use id="zoomminus" xlink:href="#zoomMin" x="42" y="9" onmousedown="handleZoom(evt,'out')"/>
                <use id="reset" xlink:href="#resetDef" x="30" y="36" onmousedown="handleReset()"/>
                <g id="arrowUp" xlink:href="#dirArrow" transform="translate(30 24)" onmousedown="handlePan(0,-1)">
                  <use xlink:href="#rim" fill="#404040">
                        <set attributeName="fill" to="#808080" begin="arrowUp.mouseover" end="arrowUp.mouseout"/>
                  </use>
                  <path fill="none" stroke="white" stroke-width="1.5" d="M0,-3.0v7 M-2.5,-0.5L0,-3.0L2.5,-0.5"/>
                </g>
                <g id="arrowRight" xlink:href="#dirArrow" transform="rotate(90) translate(36 -43)" onmousedown="handlePan(1,0)">
                  <use xlink:href="#rim" fill="#404040">
                        <set attributeName="fill" to="#808080" begin="arrowRight.mouseover" end="arrowRight.mouseout"/>
                  </use>
                  <path fill="none" stroke="white" stroke-width="1.5" d="M0,-3.0v7 M-2.5,-0.5L0,-3.0L2.5,-0.5"/>
                </g>
                <g id="arrowDown" xlink:href="#dirArrow" transform="rotate(180) translate(-30 -48)" onmousedown="handlePan(0,1)">
                  <use xlink:href="#rim" fill="#404040">
                        <set attributeName="fill" to="#808080" begin="arrowDown.mouseover" end="arrowDown.mouseout"/>
                  </use>
                  <path fill="none" stroke="white" stroke-width="1.5" d="M0,-3.0v7 M-2.5,-0.5L0,-3.0L2.5,-0.5"/>
                </g>
                <g id="arrowLeft" xlink:href="#dirArrow" transform="rotate(270) translate(-36 17)" onmousedown="handlePan(-1,0)">
                  <use xlink:href="#rim" fill="#404040">
                        <set attributeName="fill" to="#808080" begin="arrowLeft.mouseover" end="arrowLeft.mouseout"/>
                  </use>
                  <path fill="none" stroke="white" stroke-width="1.5" d="M0,-3.0v7 M-2.5,-0.5L0,-3.0L2.5,-0.5"/>
                </g>
        </g>
        <svg viewBox="0 0 15 15" width="100%" height="30px" preserveAspectRatio="xMaxYMin meet">
         <g id="arrow_out" transform="scale(0.3 0.3)">
          <a xlink:href="classumontreal_1_1ssj_1_1hups_1_1DigitalNet__inherit__graph_org.svg" target="_base">
           <rect id="button" ry="5" rx="5" y="6" x="6" height="38" width="38"
                fill="#f2f5e9" fill-opacity="0.5" stroke="#606060" stroke-width="1.0"/>
           <path id="arrow"
             d="M 11.500037,31.436501 C 11.940474,20.09759 22.043105,11.32322 32.158766,21.979434 L 37.068811,17.246167 C 37.068811,17.246167 37.088388,32 37.088388,32 L 22.160133,31.978069 C 22.160133,31.978069 26.997745,27.140456 26.997745,27.140456 C 18.528582,18.264221 13.291696,25.230495 11.500037,31.436501 z"
             style="fill:#404040;"/>
          </a>
         </g>
        </svg>
</svg>
