<?xml version="1.0" encoding="UTF-8" standalone="no"?>
<!DOCTYPE svg PUBLIC "-//W3C//DTD SVG 1.1//EN"
 "http://www.w3.org/Graphics/SVG/1.1/DTD/svg11.dtd">
<!-- Generated by graphviz version 2.26.3 (20100126.1600)
 -->
<!-- Title: TransformingList&lt; OE, IE &gt; Pages: 1 -->
<svg width="134pt" height="228pt"
 viewBox="0.00 0.00 134.00 228.00" xmlns="http://www.w3.org/2000/svg" xmlns:xlink="http://www.w3.org/1999/xlink">
<g id="graph1" class="graph" transform="scale(1 1) rotate(0) translate(4 224)">
<title>TransformingList&lt; OE, IE &gt;</title>
<!-- Node1 -->
<g id="node1" class="node"><title>Node1</title>
<polygon fill="#bfbfbf" stroke="black" points="5,-129 5,-161 121,-161 121,-129 5,-129"/>
<text text-anchor="start" x="13" y="-148" font-family="Helvetica,sans-Serif" font-size="10.00">TransformingList&lt; OE,</text>
<text text-anchor="middle" x="63" y="-136" font-family="Helvetica,sans-Serif" font-size="10.00"> IE &gt;</text>
</g>
<!-- Node3 -->
<g id="node5" class="node"><title>Node3</title>
<a xlink:href="classumontreal_1_1ssj_1_1simevents_1_1ListWithStat.html" target="_top" xlink:title="Implements a list with integrated statistical probes to provide automatic collection of statistics on...">
<polygon fill="none" stroke="black" points="-0.5,-59 -0.5,-91 126.5,-91 126.5,-59 -0.5,-59"/>
<text text-anchor="start" x="7.5" y="-78" font-family="Helvetica,sans-Serif" font-size="10.00">ListWithStat&lt; E, ListWith</text>
<text text-anchor="middle" x="63" y="-66" font-family="Helvetica,sans-Serif" font-size="10.00">Stat.Node&lt; E &gt; &gt;</text>
</a>
</g>
<!-- Node1&#45;&gt;Node3 -->
<g id="edge4" class="edge"><title>Node1&#45;&gt;Node3</title>
<path fill="none" stroke="midnightblue" d="M63,-118.508C63,-109.303 63,-99.2615 63,-91.1473"/>
<polygon fill="midnightblue" stroke="midnightblue" points="59.5001,-118.765 63,-128.765 66.5001,-118.765 59.5001,-118.765"/>
</g>
<!-- Node2 -->
<g id="node2" class="node"><title>Node2</title>
<polygon fill="none" stroke="#bfbfbf" points="12.5,-199 12.5,-219 113.5,-219 113.5,-199 12.5,-199"/>
<text text-anchor="middle" x="63" y="-206" font-family="Helvetica,sans-Serif" font-size="10.00">AbstractList&lt; OE &gt;</text>
</g>
<!-- Node2&#45;&gt;Node1 -->
<g id="edge2" class="edge"><title>Node2&#45;&gt;Node1</title>
<path fill="none" stroke="midnightblue" d="M63,-188.435C63,-179.549 63,-169.31 63,-161.005"/>
<polygon fill="midnightblue" stroke="midnightblue" points="59.5001,-188.717 63,-198.717 66.5001,-188.717 59.5001,-188.717"/>
</g>
<!-- Node4 -->
<g id="node7" class="node"><title>Node4</title>
<a xlink:href="classumontreal_1_1ssj_1_1simevents_1_1LinkedListStat.html" target="_top" xlink:title="This class extends ListWithStat, and uses a linked list as the internal data structure. ">
<polygon fill="none" stroke="black" points="11,-1 11,-21 115,-21 115,-1 11,-1"/>
<text text-anchor="middle" x="63" y="-8" font-family="Helvetica,sans-Serif" font-size="10.00">LinkedListStat&lt; E &gt;</text>
</a>
</g>
<!-- Node3&#45;&gt;Node4 -->
<g id="edge6" class="edge"><title>Node3&#45;&gt;Node4</title>
<path fill="none" stroke="midnightblue" d="M63,-48.7639C63,-39.0394 63,-28.5805 63,-21.141"/>
<polygon fill="midnightblue" stroke="midnightblue" points="59.5001,-48.8501 63,-58.8501 66.5001,-48.8501 59.5001,-48.8501"/>
</g>
</g>
</svg>
