<?xml version="1.0" encoding="UTF-8" standalone="no"?>
<!DOCTYPE svg PUBLIC "-//W3C//DTD SVG 1.1//EN"
 "http://www.w3.org/Graphics/SVG/1.1/DTD/svg11.dtd">
<!-- Generated by graphviz version 2.38.0 (20140413.2041)
 -->
<!-- Title: NormalInverseGaussianProcess Pages: 1 -->
<svg width="403pt" height="251pt"
 viewBox="0.00 0.00 403.00 251.00" xmlns="http://www.w3.org/2000/svg" xmlns:xlink="http://www.w3.org/1999/xlink">
<g id="graph0" class="graph" transform="scale(1 1) rotate(0) translate(4 247)">
<title>NormalInverseGaussianProcess</title>
<!-- Node1 -->
<g id="node1" class="node"><title>Node1</title>
<polygon fill="#bfbfbf" stroke="black" points="113.5,-0.5 113.5,-19.5 284.5,-19.5 284.5,-0.5 113.5,-0.5"/>
<text text-anchor="middle" x="199" y="-7.5" font-family="Helvetica,sans-Serif" font-size="10.00">NormalInverseGaussianProcess</text>
</g>
<!-- Node2 -->
<g id="node2" class="node"><title>Node2</title>
<g id="a_node2"><a xlink:href="classumontreal_1_1ssj_1_1stochprocess_1_1StochasticProcess.html" target="_top" xlink:title="Abstract base class for a stochastic process &#160;sampled (or observed) at a finite number of time points...">
<polygon fill="none" stroke="black" points="0,-156.5 0,-175.5 104,-175.5 104,-156.5 0,-156.5"/>
<text text-anchor="middle" x="52" y="-163.5" font-family="Helvetica,sans-Serif" font-size="10.00">StochasticProcess</text>
</a>
</g>
</g>
<!-- Node2&#45;&gt;Node1 -->
<g id="edge1" class="edge"><title>Node2&#45;&gt;Node1</title>
<path fill="none" stroke="midnightblue" d="M49.8039,-146.252C48.3418,-124.833 49.2718,-89.8084 67,-67 87.0892,-41.154 121.369,-27.0846 149.961,-19.513"/>
<polygon fill="midnightblue" stroke="midnightblue" points="46.3302,-146.698 50.7403,-156.332 53.3002,-146.051 46.3302,-146.698"/>
</g>
<!-- Node7 -->
<g id="node7" class="node"><title>Node7</title>
<g id="a_node7"><a xlink:href="classumontreal_1_1ssj_1_1stochprocess_1_1InverseGaussianProcess.html" target="_top" xlink:title="The inverse Gaussian process is a non&#45;decreasing process where the increments are additive and are gi...">
<polygon fill="none" stroke="black" points="76.5,-67.5 76.5,-86.5 211.5,-86.5 211.5,-67.5 76.5,-67.5"/>
<text text-anchor="middle" x="144" y="-74.5" font-family="Helvetica,sans-Serif" font-size="10.00">InverseGaussianProcess</text>
</a>
</g>
</g>
<!-- Node2&#45;&gt;Node7 -->
<g id="edge7" class="edge"><title>Node2&#45;&gt;Node7</title>
<path fill="none" stroke="midnightblue" d="M68.6663,-149.239C88.0865,-130.875 119.475,-101.192 134.879,-86.6249"/>
<polygon fill="midnightblue" stroke="midnightblue" points="66.0186,-146.926 61.1577,-156.34 70.8282,-152.012 66.0186,-146.926"/>
</g>
<!-- Node3 -->
<g id="node3" class="node"><title>Node3</title>
<g id="a_node3"><a xlink:href="classumontreal_1_1ssj_1_1randvar_1_1NormalGen.html" target="_top" xlink:title="This class implements methods for generating random variates from the normal distribution ...">
<polygon fill="none" stroke="black" points="285,-67.5 285,-86.5 357,-86.5 357,-67.5 285,-67.5"/>
<text text-anchor="middle" x="321" y="-74.5" font-family="Helvetica,sans-Serif" font-size="10.00">NormalGen</text>
</a>
</g>
</g>
<!-- Node3&#45;&gt;Node1 -->
<g id="edge2" class="edge"><title>Node3&#45;&gt;Node1</title>
<path fill="none" stroke="#9a32cd" stroke-dasharray="5,2" d="M297.848,-62.4186C285.028,-55.0123 268.747,-45.7927 254,-38 241.962,-31.6386 228.212,-24.8886 217.471,-19.729"/>
<polygon fill="#9a32cd" stroke="#9a32cd" points="296.095,-65.4479 306.5,-67.4447 299.611,-59.3951 296.095,-65.4479"/>
<text text-anchor="middle" x="302" y="-41" font-family="Helvetica,sans-Serif" font-size="10.00"> normalGen</text>
</g>
<!-- Node4 -->
<g id="node4" class="node"><title>Node4</title>
<g id="a_node4"><a xlink:href="classumontreal_1_1ssj_1_1randvar_1_1RandomVariateGen.html" target="_top" xlink:title="This is the base class for all random variate generators over the real line. ">
<polygon fill="none" stroke="black" points="283,-156.5 283,-175.5 395,-175.5 395,-156.5 283,-156.5"/>
<text text-anchor="middle" x="339" y="-163.5" font-family="Helvetica,sans-Serif" font-size="10.00">RandomVariateGen</text>
</a>
</g>
</g>
<!-- Node4&#45;&gt;Node3 -->
<g id="edge3" class="edge"><title>Node4&#45;&gt;Node3</title>
<path fill="none" stroke="midnightblue" d="M335.163,-146.455C331.344,-127.996 325.65,-100.477 322.784,-86.6249"/>
<polygon fill="midnightblue" stroke="midnightblue" points="331.755,-147.257 337.208,-156.34 338.61,-145.838 331.755,-147.257"/>
</g>
<!-- Node5 -->
<g id="node5" class="node"><title>Node5</title>
<g id="a_node5"><a xlink:href="interfaceumontreal_1_1ssj_1_1probdist_1_1Distribution.html" target="_top" xlink:title="This interface should be implemented by all classes supporting discrete and continuous distributions...">
<polygon fill="none" stroke="black" points="303,-223.5 303,-242.5 377,-242.5 377,-223.5 303,-223.5"/>
<text text-anchor="middle" x="340" y="-230.5" font-family="Helvetica,sans-Serif" font-size="10.00">Distribution</text>
</a>
</g>
</g>
<!-- Node5&#45;&gt;Node4 -->
<g id="edge4" class="edge"><title>Node5&#45;&gt;Node4</title>
<path fill="none" stroke="#9a32cd" stroke-dasharray="5,2" d="M339.708,-213.037C339.518,-200.67 339.279,-185.12 339.133,-175.627"/>
<polygon fill="#9a32cd" stroke="#9a32cd" points="336.212,-213.289 339.865,-223.234 343.211,-213.181 336.212,-213.289"/>
<text text-anchor="middle" x="351" y="-197" font-family="Helvetica,sans-Serif" font-size="10.00"> dist</text>
</g>
<!-- Node6 -->
<g id="node6" class="node"><title>Node6</title>
<g id="a_node6"><a xlink:href="interfaceumontreal_1_1ssj_1_1rng_1_1RandomStream.html" target="_top" xlink:title="This interface defines the basic structures to handle multiple streams of uniform (pseudo)random numb...">
<polygon fill="none" stroke="black" points="193,-223.5 193,-242.5 285,-242.5 285,-223.5 193,-223.5"/>
<text text-anchor="middle" x="239" y="-230.5" font-family="Helvetica,sans-Serif" font-size="10.00">RandomStream</text>
</a>
</g>
</g>
<!-- Node6&#45;&gt;Node1 -->
<g id="edge9" class="edge"><title>Node6&#45;&gt;Node1</title>
<path fill="none" stroke="#9a32cd" stroke-dasharray="5,2" d="M239.403,-213.012C240.04,-170.471 239.996,-68.8304 226,-38 222.712,-30.7565 216.574,-24.3712 210.98,-19.6311"/>
<polygon fill="#9a32cd" stroke="#9a32cd" points="235.902,-213.062 239.221,-223.123 242.901,-213.188 235.902,-213.062"/>
<text text-anchor="middle" x="281" y="-130" font-family="Helvetica,sans-Serif" font-size="10.00"> streamBrownian</text>
<text text-anchor="middle" x="281" y="-119" font-family="Helvetica,sans-Serif" font-size="10.00">streamIG1</text>
<text text-anchor="middle" x="281" y="-108" font-family="Helvetica,sans-Serif" font-size="10.00">streamIG2</text>
</g>
<!-- Node6&#45;&gt;Node4 -->
<g id="edge5" class="edge"><title>Node6&#45;&gt;Node4</title>
<path fill="none" stroke="#9a32cd" stroke-dasharray="5,2" d="M260.894,-217.769C280.688,-204.903 309.186,-186.379 325.727,-175.627"/>
<polygon fill="#9a32cd" stroke="#9a32cd" points="258.963,-214.849 252.486,-223.234 262.778,-220.718 258.963,-214.849"/>
<text text-anchor="middle" x="314" y="-197" font-family="Helvetica,sans-Serif" font-size="10.00"> stream</text>
</g>
<!-- Node6&#45;&gt;Node7 -->
<g id="edge8" class="edge"><title>Node6&#45;&gt;Node7</title>
<path fill="none" stroke="#9a32cd" stroke-dasharray="5,2" d="M222.158,-216.289C211.422,-205.648 197.747,-190.866 188,-176 167.957,-145.431 152.813,-104.225 146.815,-86.5889"/>
<polygon fill="#9a32cd" stroke="#9a32cd" points="219.735,-218.814 229.358,-223.247 224.6,-213.781 219.735,-218.814"/>
<text text-anchor="middle" x="207" y="-163.5" font-family="Helvetica,sans-Serif" font-size="10.00"> stream</text>
</g>
<!-- Node7&#45;&gt;Node1 -->
<g id="edge6" class="edge"><title>Node7&#45;&gt;Node1</title>
<path fill="none" stroke="#9a32cd" stroke-dasharray="5,2" d="M157.86,-59.4995C163.482,-52.8178 170.043,-45.0339 176,-38 181.253,-31.7976 187.204,-24.8129 191.736,-19.5018"/>
<polygon fill="#9a32cd" stroke="#9a32cd" points="155.114,-57.3275 151.358,-67.2342 160.472,-61.8321 155.114,-57.3275"/>
<text text-anchor="middle" x="201" y="-41" font-family="Helvetica,sans-Serif" font-size="10.00"> igProcess</text>
</g>
</g>
</svg>
