<?xml version="1.0" encoding="UTF-8" standalone="no"?>
<!DOCTYPE svg PUBLIC "-//W3C//DTD SVG 1.1//EN"
 "http://www.w3.org/Graphics/SVG/1.1/DTD/svg11.dtd">
<!-- Generated by graphviz version 2.38.0 (20140413.2041)
 -->
<!-- Title: ChiSquareNoncentralGen Pages: 1 -->
<svg width="320pt" height="140pt"
 viewBox="0.00 0.00 319.50 140.00" xmlns="http://www.w3.org/2000/svg" xmlns:xlink="http://www.w3.org/1999/xlink">
<g id="graph0" class="graph" transform="scale(1 1) rotate(0) translate(4 136)">
<title>ChiSquareNoncentralGen</title>
<!-- Node0 -->
<g id="node1" class="node"><title>Node0</title>
<polygon fill="#bfbfbf" stroke="black" points="92.5,-56.5 92.5,-75.5 218.5,-75.5 218.5,-56.5 92.5,-56.5"/>
<text text-anchor="middle" x="155.5" y="-63.5" font-family="Helvetica,sans-Serif" font-size="10.00">ChiSquareNoncentralGen</text>
</g>
<!-- Node2 -->
<g id="node3" class="node"><title>Node2</title>
<g id="a_node3"><a xlink:href="classumontreal_1_1ssj_1_1randvar_1_1ChiSquareNoncentralGamGen.html" target="_top" xlink:title="This class implements noncentral chi square random variate generators using the additive property of ...">
<polygon fill="none" stroke="black" points="0,-0.5 0,-19.5 147,-19.5 147,-0.5 0,-0.5"/>
<text text-anchor="middle" x="73.5" y="-7.5" font-family="Helvetica,sans-Serif" font-size="10.00">ChiSquareNoncentralGamGen</text>
</a>
</g>
</g>
<!-- Node0&#45;&gt;Node2 -->
<g id="edge2" class="edge"><title>Node0&#45;&gt;Node2</title>
<path fill="none" stroke="midnightblue" d="M133.667,-50.6221C118.687,-40.7574 99.3025,-27.9919 86.642,-19.6545"/>
<polygon fill="midnightblue" stroke="midnightblue" points="132.049,-53.7471 142.325,-56.324 135.899,-47.9009 132.049,-53.7471"/>
</g>
<!-- Node3 -->
<g id="node4" class="node"><title>Node3</title>
<g id="a_node4"><a xlink:href="classumontreal_1_1ssj_1_1randvar_1_1ChiSquareNoncentralPoisGen.html" target="_top" xlink:title="This class implements noncentral chi square random variate generators using Poisson and central chi s...">
<polygon fill="none" stroke="black" points="165.5,-0.5 165.5,-19.5 311.5,-19.5 311.5,-0.5 165.5,-0.5"/>
<text text-anchor="middle" x="238.5" y="-7.5" font-family="Helvetica,sans-Serif" font-size="10.00">ChiSquareNoncentralPoisGen</text>
</a>
</g>
</g>
<!-- Node0&#45;&gt;Node3 -->
<g id="edge3" class="edge"><title>Node0&#45;&gt;Node3</title>
<path fill="none" stroke="midnightblue" d="M177.599,-50.6221C192.762,-40.7574 212.383,-27.9919 225.198,-19.6545"/>
<polygon fill="midnightblue" stroke="midnightblue" points="175.309,-47.9367 168.835,-56.324 179.126,-53.8042 175.309,-47.9367"/>
</g>
<!-- Node1 -->
<g id="node2" class="node"><title>Node1</title>
<g id="a_node2"><a xlink:href="classumontreal_1_1ssj_1_1randvar_1_1RandomVariateGen.html" target="_top" xlink:title="This is the base class for all random variate generators over the real line. ">
<polygon fill="none" stroke="black" points="105,-112.5 105,-131.5 206,-131.5 206,-112.5 105,-112.5"/>
<text text-anchor="middle" x="155.5" y="-119.5" font-family="Helvetica,sans-Serif" font-size="10.00">RandomVariateGen</text>
</a>
</g>
</g>
<!-- Node1&#45;&gt;Node0 -->
<g id="edge1" class="edge"><title>Node1&#45;&gt;Node0</title>
<path fill="none" stroke="midnightblue" d="M155.5,-101.805C155.5,-92.9102 155.5,-82.7798 155.5,-75.7511"/>
<polygon fill="midnightblue" stroke="midnightblue" points="152,-102.083 155.5,-112.083 159,-102.083 152,-102.083"/>
</g>
</g>
</svg>
