<?xml version="1.0" encoding="UTF-8" standalone="no"?>
<!DOCTYPE svg PUBLIC "-//W3C//DTD SVG 1.1//EN"
 "http://www.w3.org/Graphics/SVG/1.1/DTD/svg11.dtd">
<!-- Generated by graphviz version 2.38.0 (20140413.2041)
 -->
<!-- Title: SortedAndCutPointSet Pages: 1 -->
<svg width="210pt" height="229pt"
 viewBox="0.00 0.00 209.50 229.00" xmlns="http://www.w3.org/2000/svg" xmlns:xlink="http://www.w3.org/1999/xlink">
<g id="graph0" class="graph" transform="scale(1 1) rotate(0) translate(4 225)">
<title>SortedAndCutPointSet</title>
<!-- Node3 -->
<g id="node1" class="node"><title>Node3</title>
<polygon fill="#bfbfbf" stroke="black" points="68,-0.5 68,-19.5 183,-19.5 183,-0.5 68,-0.5"/>
<text text-anchor="middle" x="125.5" y="-7.5" font-family="Helvetica,sans-Serif" font-size="10.00">SortedAndCutPointSet</text>
</g>
<!-- Node4 -->
<g id="node2" class="node"><title>Node4</title>
<g id="a_node2"><a xlink:href="classumontreal_1_1ssj_1_1hups_1_1CachedPointSet.html" target="_top" xlink:title="This container class caches a point set by precomputing and storing its points locally in an array...">
<polygon fill="none" stroke="black" points="0,-67.5 0,-86.5 87,-86.5 87,-67.5 0,-67.5"/>
<text text-anchor="middle" x="43.5" y="-74.5" font-family="Helvetica,sans-Serif" font-size="10.00">CachedPointSet</text>
</a>
</g>
</g>
<!-- Node4&#45;&gt;Node3 -->
<g id="edge1" class="edge"><title>Node4&#45;&gt;Node3</title>
<path fill="none" stroke="midnightblue" d="M62.7847,-60.7134C78.9404,-47.907 101.419,-30.0884 114.616,-19.6273"/>
<polygon fill="midnightblue" stroke="midnightblue" points="60.2213,-58.279 54.5589,-67.2338 64.5697,-63.7647 60.2213,-58.279"/>
</g>
<!-- Node5 -->
<g id="node3" class="node"><title>Node5</title>
<g id="a_node3"><a xlink:href="classumontreal_1_1ssj_1_1hups_1_1PointSet.html" target="_top" xlink:title="This abstract class represents a general point set. ">
<polygon fill="none" stroke="black" points="16.5,-134.5 16.5,-153.5 70.5,-153.5 70.5,-134.5 16.5,-134.5"/>
<text text-anchor="middle" x="43.5" y="-141.5" font-family="Helvetica,sans-Serif" font-size="10.00">PointSet</text>
</a>
</g>
</g>
<!-- Node5&#45;&gt;Node4 -->
<g id="edge2" class="edge"><title>Node5&#45;&gt;Node4</title>
<path fill="none" stroke="midnightblue" d="M41.9399,-124.382C41.7572,-121.575 41.6003,-118.713 41.5,-116 41.1288,-105.965 41.9035,-94.4502 42.5942,-86.7505"/>
<polygon fill="midnightblue" stroke="midnightblue" points="38.4607,-124.791 42.7083,-134.497 45.4406,-124.26 38.4607,-124.791"/>
</g>
<!-- Node5&#45;&gt;Node4 -->
<g id="edge4" class="edge"><title>Node5&#45;&gt;Node4</title>
<path fill="none" stroke="#9a32cd" stroke-dasharray="5,2" d="M43.5,-124.037C43.5,-111.67 43.5,-96.1198 43.5,-86.6273"/>
<polygon fill="#9a32cd" stroke="#9a32cd" points="40.0001,-124.234 43.5,-134.234 47.0001,-124.234 40.0001,-124.234"/>
<text text-anchor="middle" x="48.5" y="-108" font-family="Helvetica,sans-Serif" font-size="10.00"> P</text>
</g>
<!-- Node6 -->
<g id="node4" class="node"><title>Node6</title>
<g id="a_node4"><a xlink:href="interfaceumontreal_1_1ssj_1_1rng_1_1RandomStream.html" target="_top" xlink:title="This interface defines the basic structures to handle multiple streams of uniform (pseudo)random numb...">
<polygon fill="none" stroke="black" points="1.5,-201.5 1.5,-220.5 85.5,-220.5 85.5,-201.5 1.5,-201.5"/>
<text text-anchor="middle" x="43.5" y="-208.5" font-family="Helvetica,sans-Serif" font-size="10.00">RandomStream</text>
</a>
</g>
</g>
<!-- Node6&#45;&gt;Node5 -->
<g id="edge3" class="edge"><title>Node6&#45;&gt;Node5</title>
<path fill="none" stroke="#9a32cd" stroke-dasharray="5,2" d="M43.5,-191.037C43.5,-178.67 43.5,-163.12 43.5,-153.627"/>
<polygon fill="#9a32cd" stroke="#9a32cd" points="40.0001,-191.234 43.5,-201.234 47.0001,-191.234 40.0001,-191.234"/>
<text text-anchor="middle" x="70" y="-175" font-family="Helvetica,sans-Serif" font-size="10.00"> shiftStream</text>
</g>
<!-- Node7 -->
<g id="node5" class="node"><title>Node7</title>
<g id="a_node5"><a xlink:href="interfaceumontreal_1_1ssj_1_1util_1_1sort_1_1MultiDimSort.html" target="_top" xlink:title="This interface is meant to be implemented by certain multivariate sorting algorithms that sort object...">
<polygon fill="none" stroke="black" points="105.5,-67.5 105.5,-86.5 201.5,-86.5 201.5,-67.5 105.5,-67.5"/>
<text text-anchor="middle" x="153.5" y="-74.5" font-family="Helvetica,sans-Serif" font-size="10.00">MultiDimSort&lt; T &gt;</text>
</a>
</g>
</g>
<!-- Node7&#45;&gt;Node3 -->
<g id="edge5" class="edge"><title>Node7&#45;&gt;Node3</title>
<path fill="none" stroke="#9a32cd" stroke-dasharray="5,2" d="M145.656,-57.79C140.279,-45.3076 133.389,-29.3135 129.216,-19.6273"/>
<polygon fill="#9a32cd" stroke="#9a32cd" points="142.553,-59.4344 149.724,-67.2338 148.982,-56.665 142.553,-59.4344"/>
<text text-anchor="middle" x="151.5" y="-41" font-family="Helvetica,sans-Serif" font-size="10.00"> sort</text>
</g>
</g>
</svg>
