<?xml version="1.0" encoding="UTF-8" standalone="no"?>
<!DOCTYPE svg PUBLIC "-//W3C//DTD SVG 1.1//EN"
 "http://www.w3.org/Graphics/SVG/1.1/DTD/svg11.dtd">
<!-- Generated by graphviz version 2.38.0 (20140413.2041)
 -->
<!-- Title: MultivariateGeometricBrownianMotion Pages: 1 -->
<svg width="530pt" height="308pt"
 viewBox="0.00 0.00 529.50 308.00" xmlns="http://www.w3.org/2000/svg" xmlns:xlink="http://www.w3.org/1999/xlink">
<g id="graph0" class="graph" transform="scale(1 1) rotate(0) translate(4 304)">
<title>MultivariateGeometricBrownianMotion</title>
<!-- Node3 -->
<g id="node1" class="node"><title>Node3</title>
<polygon fill="#bfbfbf" stroke="black" points="180.5,-0.5 180.5,-30.5 330.5,-30.5 330.5,-0.5 180.5,-0.5"/>
<text text-anchor="start" x="188.5" y="-18.5" font-family="Helvetica,sans-Serif" font-size="10.00">MultivariateGeometricBrownian</text>
<text text-anchor="middle" x="255.5" y="-7.5" font-family="Helvetica,sans-Serif" font-size="10.00">Motion</text>
</g>
<!-- Node4 -->
<g id="node2" class="node"><title>Node4</title>
<g id="a_node2"><a xlink:href="classumontreal_1_1ssj_1_1stochprocess_1_1MultivariateStochasticProcess.html" target="_top" xlink:title="This class is a multivariate version of StochasticProcess where the process evolves in the &#45;dimension...">
<polygon fill="none" stroke="black" points="373.5,-156.5 373.5,-175.5 521.5,-175.5 521.5,-156.5 373.5,-156.5"/>
<text text-anchor="middle" x="447.5" y="-163.5" font-family="Helvetica,sans-Serif" font-size="10.00">MultivariateStochasticProcess</text>
</a>
</g>
</g>
<!-- Node4&#45;&gt;Node3 -->
<g id="edge1" class="edge"><title>Node4&#45;&gt;Node3</title>
<path fill="none" stroke="midnightblue" d="M435.191,-148.425C427.316,-138.418 416.537,-125.757 405.5,-116 365.581,-80.7098 312.299,-48.2914 281.161,-30.5733"/>
<polygon fill="midnightblue" stroke="midnightblue" points="432.437,-150.586 441.296,-156.397 437.994,-146.33 432.437,-150.586"/>
</g>
<!-- Node10 -->
<g id="node8" class="node"><title>Node10</title>
<g id="a_node8"><a xlink:href="classumontreal_1_1ssj_1_1stochprocess_1_1MultivariateBrownianMotion.html" target="_top" xlink:title="This class represents a multivariate Brownian motion process , sampled at times . ...">
<polygon fill="none" stroke="black" points="188.5,-78.5 188.5,-97.5 322.5,-97.5 322.5,-78.5 188.5,-78.5"/>
<text text-anchor="middle" x="255.5" y="-85.5" font-family="Helvetica,sans-Serif" font-size="10.00">MultivariateBrownianMotion</text>
</a>
</g>
</g>
<!-- Node4&#45;&gt;Node10 -->
<g id="edge8" class="edge"><title>Node4&#45;&gt;Node10</title>
<path fill="none" stroke="midnightblue" d="M428.57,-150.154C413.789,-139.238 392.33,-124.823 371.5,-116 351.889,-107.693 329.281,-101.7 309.262,-97.5033"/>
<polygon fill="midnightblue" stroke="midnightblue" points="426.759,-153.173 436.845,-156.418 430.984,-147.592 426.759,-153.173"/>
</g>
<!-- Node5 -->
<g id="node3" class="node"><title>Node5</title>
<g id="a_node3"><a xlink:href="classumontreal_1_1ssj_1_1stochprocess_1_1StochasticProcess.html" target="_top" xlink:title="Abstract base class for a stochastic process &#160;sampled (or observed) at a finite number of time points...">
<polygon fill="none" stroke="black" points="398,-213.5 398,-232.5 497,-232.5 497,-213.5 398,-213.5"/>
<text text-anchor="middle" x="447.5" y="-220.5" font-family="Helvetica,sans-Serif" font-size="10.00">StochasticProcess</text>
</a>
</g>
</g>
<!-- Node5&#45;&gt;Node4 -->
<g id="edge2" class="edge"><title>Node5&#45;&gt;Node4</title>
<path fill="none" stroke="midnightblue" d="M447.5,-203.117C447.5,-193.817 447.5,-183.056 447.5,-175.715"/>
<polygon fill="midnightblue" stroke="midnightblue" points="444,-203.406 447.5,-213.406 451,-203.406 444,-203.406"/>
</g>
<!-- Node6 -->
<g id="node4" class="node"><title>Node6</title>
<g id="a_node4"><a xlink:href="classumontreal_1_1ssj_1_1randvar_1_1NormalGen.html" target="_top" xlink:title="This class implements methods for generating random variates from the normal distribution ...">
<polygon fill="none" stroke="black" points="46,-156.5 46,-175.5 111,-175.5 111,-156.5 46,-156.5"/>
<text text-anchor="middle" x="78.5" y="-163.5" font-family="Helvetica,sans-Serif" font-size="10.00">NormalGen</text>
</a>
</g>
</g>
<!-- Node6&#45;&gt;Node3 -->
<g id="edge3" class="edge"><title>Node6&#45;&gt;Node3</title>
<path fill="none" stroke="#9a32cd" stroke-dasharray="5,2" d="M92.2447,-148.147C107.731,-129.729 134.191,-99.9247 160.5,-78 182.536,-59.6359 210.337,-42.2151 230.159,-30.6347"/>
<polygon fill="#9a32cd" stroke="#9a32cd" points="89.2636,-146.259 85.5723,-156.19 94.651,-150.728 89.2636,-146.259"/>
<text text-anchor="middle" x="170" y="-85.5" font-family="Helvetica,sans-Serif" font-size="10.00"> gen</text>
</g>
<!-- Node6&#45;&gt;Node10 -->
<g id="edge10" class="edge"><title>Node6&#45;&gt;Node10</title>
<path fill="none" stroke="#9a32cd" stroke-dasharray="5,2" d="M107.488,-152.53C130.526,-142.622 163.573,-128.415 192.5,-116 206.934,-109.805 223.233,-102.82 235.636,-97.5069"/>
<polygon fill="#9a32cd" stroke="#9a32cd" points="106.072,-149.329 98.2681,-156.496 108.837,-155.76 106.072,-149.329"/>
<text text-anchor="middle" x="202" y="-124.5" font-family="Helvetica,sans-Serif" font-size="10.00"> gen</text>
</g>
<!-- Node7 -->
<g id="node5" class="node"><title>Node7</title>
<g id="a_node5"><a xlink:href="classumontreal_1_1ssj_1_1randvar_1_1RandomVariateGen.html" target="_top" xlink:title="This is the base class for all random variate generators over the real line. ">
<polygon fill="none" stroke="black" points="28,-213.5 28,-232.5 129,-232.5 129,-213.5 28,-213.5"/>
<text text-anchor="middle" x="78.5" y="-220.5" font-family="Helvetica,sans-Serif" font-size="10.00">RandomVariateGen</text>
</a>
</g>
</g>
<!-- Node7&#45;&gt;Node6 -->
<g id="edge4" class="edge"><title>Node7&#45;&gt;Node6</title>
<path fill="none" stroke="midnightblue" d="M78.5,-203.117C78.5,-193.817 78.5,-183.056 78.5,-175.715"/>
<polygon fill="midnightblue" stroke="midnightblue" points="75.0001,-203.406 78.5,-213.406 82.0001,-203.406 75.0001,-203.406"/>
</g>
<!-- Node8 -->
<g id="node6" class="node"><title>Node8</title>
<g id="a_node6"><a xlink:href="interfaceumontreal_1_1ssj_1_1probdist_1_1Distribution.html" target="_top" xlink:title="This interface should be implemented by all classes supporting discrete and continuous distributions...">
<polygon fill="none" stroke="black" points="0,-280.5 0,-299.5 65,-299.5 65,-280.5 0,-280.5"/>
<text text-anchor="middle" x="32.5" y="-287.5" font-family="Helvetica,sans-Serif" font-size="10.00">Distribution</text>
</a>
</g>
</g>
<!-- Node8&#45;&gt;Node7 -->
<g id="edge5" class="edge"><title>Node8&#45;&gt;Node7</title>
<path fill="none" stroke="#9a32cd" stroke-dasharray="5,2" d="M44.5989,-271.904C53.5376,-259.273 65.334,-242.604 72.3945,-232.627"/>
<polygon fill="#9a32cd" stroke="#9a32cd" points="41.6235,-270.049 38.7038,-280.234 47.3375,-274.093 41.6235,-270.049"/>
<text text-anchor="middle" x="68" y="-254" font-family="Helvetica,sans-Serif" font-size="10.00"> dist</text>
</g>
<!-- Node9 -->
<g id="node7" class="node"><title>Node9</title>
<g id="a_node7"><a xlink:href="interfaceumontreal_1_1ssj_1_1rng_1_1RandomStream.html" target="_top" xlink:title="This interface defines the basic structures to handle multiple streams of uniform (pseudo)random numb...">
<polygon fill="none" stroke="black" points="83.5,-280.5 83.5,-299.5 167.5,-299.5 167.5,-280.5 83.5,-280.5"/>
<text text-anchor="middle" x="125.5" y="-287.5" font-family="Helvetica,sans-Serif" font-size="10.00">RandomStream</text>
</a>
</g>
</g>
<!-- Node9&#45;&gt;Node7 -->
<g id="edge6" class="edge"><title>Node9&#45;&gt;Node7</title>
<path fill="none" stroke="#9a32cd" stroke-dasharray="5,2" d="M113.138,-271.904C104.005,-259.273 91.9522,-242.604 84.7382,-232.627"/>
<polygon fill="#9a32cd" stroke="#9a32cd" points="110.466,-274.181 119.161,-280.234 116.138,-270.079 110.466,-274.181"/>
<text text-anchor="middle" x="122.5" y="-254" font-family="Helvetica,sans-Serif" font-size="10.00"> stream</text>
</g>
<!-- Node10&#45;&gt;Node3 -->
<g id="edge7" class="edge"><title>Node10&#45;&gt;Node3</title>
<path fill="none" stroke="#9a32cd" stroke-dasharray="5,2" d="M255.5,-68.2362C255.5,-56.4079 255.5,-41.3829 255.5,-30.5762"/>
<polygon fill="#9a32cd" stroke="#9a32cd" points="252,-68.3553 255.5,-78.3553 259,-68.3554 252,-68.3553"/>
<text text-anchor="middle" x="268" y="-52" font-family="Helvetica,sans-Serif" font-size="10.00"> mbm</text>
</g>
<!-- Node11 -->
<g id="node9" class="node"><title>Node11</title>
<polygon fill="none" stroke="#bfbfbf" points="129.5,-156.5 129.5,-175.5 251.5,-175.5 251.5,-156.5 129.5,-156.5"/>
<text text-anchor="middle" x="190.5" y="-163.5" font-family="Helvetica,sans-Serif" font-size="10.00">CholeskyDecomposition</text>
</g>
<!-- Node11&#45;&gt;Node10 -->
<g id="edge9" class="edge"><title>Node11&#45;&gt;Node10</title>
<path fill="none" stroke="#9a32cd" stroke-dasharray="5,2" d="M204.661,-148.442C218.046,-132.792 237.601,-109.928 248.131,-97.6165"/>
<polygon fill="#9a32cd" stroke="#9a32cd" points="201.796,-146.407 197.956,-156.282 207.116,-150.957 201.796,-146.407"/>
<text text-anchor="middle" x="250.5" y="-124.5" font-family="Helvetica,sans-Serif" font-size="10.00"> decomp</text>
</g>
<!-- Node12 -->
<g id="node10" class="node"><title>Node12</title>
<polygon fill="none" stroke="#bfbfbf" points="269.5,-156.5 269.5,-175.5 355.5,-175.5 355.5,-156.5 269.5,-156.5"/>
<text text-anchor="middle" x="312.5" y="-163.5" font-family="Helvetica,sans-Serif" font-size="10.00">DoubleMatrix2D</text>
</g>
<!-- Node12&#45;&gt;Node10 -->
<g id="edge11" class="edge"><title>Node12&#45;&gt;Node10</title>
<path fill="none" stroke="#9a32cd" stroke-dasharray="5,2" d="M299.754,-148.006C288.027,-132.369 271.111,-109.814 261.962,-97.6165"/>
<polygon fill="#9a32cd" stroke="#9a32cd" points="297.161,-150.382 305.961,-156.282 302.761,-146.182 297.161,-150.382"/>
<text text-anchor="middle" x="329.5" y="-130" font-family="Helvetica,sans-Serif" font-size="10.00"> covZ</text>
<text text-anchor="middle" x="329.5" y="-119" font-family="Helvetica,sans-Serif" font-size="10.00">covZCholDecomp</text>
</g>
</g>
</svg>
