<?xml version="1.0" encoding="UTF-8" standalone="no"?>
<!DOCTYPE svg PUBLIC "-//W3C//DTD SVG 1.1//EN"
 "http://www.w3.org/Graphics/SVG/1.1/DTD/svg11.dtd">
<!-- Generated by graphviz version 2.38.0 (20140413.2041)
 -->
<!-- Title: IIDMultivariateGen Pages: 1 -->
<svg width="189pt" height="219pt"
 viewBox="0.00 0.00 188.50 219.00" xmlns="http://www.w3.org/2000/svg" xmlns:xlink="http://www.w3.org/1999/xlink">
<g id="graph0" class="graph" transform="scale(1 1) rotate(0) translate(4 215)">
<title>IIDMultivariateGen</title>
<!-- Node1 -->
<g id="node1" class="node"><title>Node1</title>
<polygon fill="#bfbfbf" stroke="black" points="67,-0.5 67,-19.5 165,-19.5 165,-0.5 67,-0.5"/>
<text text-anchor="middle" x="116" y="-7.5" font-family="Helvetica,sans-Serif" font-size="10.00">IIDMultivariateGen</text>
</g>
<!-- Node2 -->
<g id="node2" class="node"><title>Node2</title>
<g id="a_node2"><a xlink:href="classumontreal_1_1ssj_1_1randvarmulti_1_1RandomMultivariateGen.html" target="_top" xlink:title="This class is the multivariate counterpart of umontreal.ssj.randvar.RandomVariateGen. ">
<polygon fill="none" stroke="black" points="55,-57.5 55,-76.5 177,-76.5 177,-57.5 55,-57.5"/>
<text text-anchor="middle" x="116" y="-64.5" font-family="Helvetica,sans-Serif" font-size="10.00">RandomMultivariateGen</text>
</a>
</g>
</g>
<!-- Node2&#45;&gt;Node1 -->
<g id="edge1" class="edge"><title>Node2&#45;&gt;Node1</title>
<path fill="none" stroke="midnightblue" d="M116,-47.1166C116,-37.8173 116,-27.0557 116,-19.7149"/>
<polygon fill="midnightblue" stroke="midnightblue" points="112.5,-47.4062 116,-57.4062 119.5,-47.4063 112.5,-47.4062"/>
</g>
<!-- Node3 -->
<g id="node3" class="node"><title>Node3</title>
<g id="a_node3"><a xlink:href="classumontreal_1_1ssj_1_1randvar_1_1RandomVariateGen.html" target="_top" xlink:title="This is the base class for all random variate generators over the real line. ">
<polygon fill="none" stroke="black" points="0,-124.5 0,-143.5 102,-143.5 102,-124.5 0,-124.5"/>
<text text-anchor="middle" x="51" y="-131.5" font-family="Helvetica,sans-Serif" font-size="10.00">RandomVariateGen</text>
</a>
</g>
</g>
<!-- Node3&#45;&gt;Node2 -->
<g id="edge2" class="edge"><title>Node3&#45;&gt;Node2</title>
<path fill="none" stroke="#9a32cd" stroke-dasharray="5,2" d="M67.0032,-116.997C79.7504,-104.25 97.1053,-86.8947 107.373,-76.6273"/>
<polygon fill="#9a32cd" stroke="#9a32cd" points="64.3624,-114.688 59.7662,-124.234 69.3122,-119.638 64.3624,-114.688"/>
<text text-anchor="middle" x="100.5" y="-98" font-family="Helvetica,sans-Serif" font-size="10.00"> gen1</text>
</g>
<!-- Node4 -->
<g id="node4" class="node"><title>Node4</title>
<g id="a_node4"><a xlink:href="interfaceumontreal_1_1ssj_1_1probdist_1_1Distribution.html" target="_top" xlink:title="This interface should be implemented by all classes supporting discrete and continuous distributions...">
<polygon fill="none" stroke="black" points="11,-191.5 11,-210.5 77,-210.5 77,-191.5 11,-191.5"/>
<text text-anchor="middle" x="44" y="-198.5" font-family="Helvetica,sans-Serif" font-size="10.00">Distribution</text>
</a>
</g>
</g>
<!-- Node4&#45;&gt;Node3 -->
<g id="edge3" class="edge"><title>Node4&#45;&gt;Node3</title>
<path fill="none" stroke="#9a32cd" stroke-dasharray="5,2" d="M45.2266,-181.227C45.6957,-175.09 46.2915,-168.247 47,-162 47.6835,-155.973 48.6835,-149.223 49.5126,-143.98"/>
<polygon fill="#9a32cd" stroke="#9a32cd" points="41.7334,-181.008 44.5218,-191.23 48.7161,-181.501 41.7334,-181.008"/>
<text text-anchor="middle" x="56.5" y="-165" font-family="Helvetica,sans-Serif" font-size="10.00"> dist</text>
</g>
<!-- Node5 -->
<g id="node5" class="node"><title>Node5</title>
<g id="a_node5"><a xlink:href="interfaceumontreal_1_1ssj_1_1rng_1_1RandomStream.html" target="_top" xlink:title="This interface defines the basic structures to handle multiple streams of uniform (pseudo)random numb...">
<polygon fill="none" stroke="black" points="95.5,-191.5 95.5,-210.5 180.5,-210.5 180.5,-191.5 95.5,-191.5"/>
<text text-anchor="middle" x="138" y="-198.5" font-family="Helvetica,sans-Serif" font-size="10.00">RandomStream</text>
</a>
</g>
</g>
<!-- Node5&#45;&gt;Node2 -->
<g id="edge5" class="edge"><title>Node5&#45;&gt;Node2</title>
<path fill="none" stroke="#9a32cd" stroke-dasharray="5,2" d="M134.879,-181.275C130.041,-152.246 120.923,-97.5381 117.42,-76.5212"/>
<polygon fill="#9a32cd" stroke="#9a32cd" points="131.46,-182.051 136.557,-191.339 138.365,-180.9 131.46,-182.051"/>
<text text-anchor="middle" x="146" y="-131.5" font-family="Helvetica,sans-Serif" font-size="10.00"> stream</text>
</g>
<!-- Node5&#45;&gt;Node3 -->
<g id="edge4" class="edge"><title>Node5&#45;&gt;Node3</title>
<path fill="none" stroke="#9a32cd" stroke-dasharray="5,2" d="M110.79,-186.312C103.787,-182.359 96.4209,-177.805 90,-173 78.041,-164.051 65.988,-151.674 58.5124,-143.508"/>
<polygon fill="#9a32cd" stroke="#9a32cd" points="109.53,-189.61 119.99,-191.296 112.865,-183.455 109.53,-189.61"/>
<text text-anchor="middle" x="107" y="-165" font-family="Helvetica,sans-Serif" font-size="10.00"> stream</text>
</g>
</g>
</svg>
