<?xml version="1.0" encoding="UTF-8" standalone="no"?>
<!DOCTYPE svg PUBLIC "-//W3C//DTD SVG 1.1//EN"
 "http://www.w3.org/Graphics/SVG/1.1/DTD/svg11.dtd">
<!-- Generated by graphviz version 2.26.3 (20100126.1600)
 -->
<!-- Title: CachedDataWriter Pages: 1 -->
<svg width="282pt" height="172pt"
 viewBox="0.00 0.00 282.00 172.00" xmlns="http://www.w3.org/2000/svg" xmlns:xlink="http://www.w3.org/1999/xlink">
<g id="graph1" class="graph" transform="scale(1 1) rotate(0) translate(4 168)">
<title>CachedDataWriter</title>
<!-- Node1 -->
<g id="node1" class="node"><title>Node1</title>
<polygon fill="#bfbfbf" stroke="black" points="110.5,-1 110.5,-21 205.5,-21 205.5,-1 110.5,-1"/>
<text text-anchor="middle" x="158" y="-8" font-family="Helvetica,sans-Serif" font-size="10.00">CachedDataWriter</text>
</g>
<!-- Node2 -->
<g id="node2" class="node"><title>Node2</title>
<a xlink:href="classumontreal_1_1ssj_1_1util_1_1io_1_1AbstractDataWriter.html" target="_top" xlink:title="This abstract class implements shared functionality for data writers. ">
<polygon fill="none" stroke="black" points="-0.5,-77 -0.5,-97 98.5,-97 98.5,-77 -0.5,-77"/>
<text text-anchor="middle" x="49" y="-84" font-family="Helvetica,sans-Serif" font-size="10.00">AbstractDataWriter</text>
</a>
</g>
<!-- Node2&#45;&gt;Node1 -->
<g id="edge2" class="edge"><title>Node2&#45;&gt;Node1</title>
<path fill="none" stroke="midnightblue" d="M71.9954,-70.9665C93.5983,-55.9039 125.259,-33.8284 143.533,-21.0873"/>
<polygon fill="midnightblue" stroke="midnightblue" points="69.9013,-68.1598 63.7002,-76.7503 73.905,-73.9018 69.9013,-68.1598"/>
</g>
<!-- Node3 -->
<g id="node4" class="node"><title>Node3</title>
<a xlink:href="interfaceumontreal_1_1ssj_1_1util_1_1io_1_1DataWriter.html" target="_top" xlink:title="Data writer interface. ">
<polygon fill="none" stroke="black" points="18,-143 18,-163 80,-163 80,-143 18,-143"/>
<text text-anchor="middle" x="49" y="-150" font-family="Helvetica,sans-Serif" font-size="10.00">DataWriter</text>
</a>
</g>
<!-- Node3&#45;&gt;Node2 -->
<g id="edge4" class="edge"><title>Node3&#45;&gt;Node2</title>
<path fill="none" stroke="midnightblue" d="M49,-132.694C49,-120.899 49,-106.552 49,-97.1183"/>
<polygon fill="midnightblue" stroke="midnightblue" points="45.5001,-132.976 49,-142.976 52.5001,-132.976 45.5001,-132.976"/>
</g>
<!-- Node4 -->
<g id="node6" class="node"><title>Node4</title>
<polygon fill="none" stroke="#bfbfbf" points="116,-71 116,-103 274,-103 274,-71 116,-71"/>
<text text-anchor="start" x="124" y="-90" font-family="Helvetica,sans-Serif" font-size="10.00">LinkedList&lt; umontreal.ssj.util.io.</text>
<text text-anchor="middle" x="195" y="-78" font-family="Helvetica,sans-Serif" font-size="10.00">DataField &gt;</text>
</g>
<!-- Node4&#45;&gt;Node1 -->
<g id="edge6" class="edge"><title>Node4&#45;&gt;Node1</title>
<path fill="none" stroke="#9a32cd" stroke-dasharray="5,2" d="M182.746,-61.83C176.018,-48.0098 168.041,-31.6244 163,-21.2694"/>
<polygon fill="#9a32cd" stroke="#9a32cd" points="179.629,-63.4233 187.153,-70.8824 185.923,-60.3592 179.629,-63.4233"/>
<text text-anchor="middle" x="190.5" y="-43" font-family="Helvetica,sans-Serif" font-size="10.00"> fields</text>
</g>
</g>
</svg>
