<?xml version="1.0" encoding="UTF-8" standalone="no"?>
<!DOCTYPE svg PUBLIC "-//W3C//DTD SVG 1.1//EN"
 "http://www.w3.org/Graphics/SVG/1.1/DTD/svg11.dtd">
<!-- Generated by graphviz version 2.38.0 (20140413.2041)
 -->
<!-- Title: DigitalNet.DigitalNetIteratorNoGray Pages: 1 -->
<svg width="142pt" height="274pt"
 viewBox="0.00 0.00 142.00 274.00" xmlns="http://www.w3.org/2000/svg" xmlns:xlink="http://www.w3.org/1999/xlink">
<g id="graph0" class="graph" transform="scale(1 1) rotate(0) translate(4 270)">
<title>DigitalNet.DigitalNetIteratorNoGray</title>
<!-- Node5 -->
<g id="node1" class="node"><title>Node5</title>
<polygon fill="#bfbfbf" stroke="black" points="0,-0.5 0,-30.5 134,-30.5 134,-0.5 0,-0.5"/>
<text text-anchor="start" x="8" y="-18.5" font-family="Helvetica,sans-Serif" font-size="10.00">DigitalNet.DigitalNetIterator</text>
<text text-anchor="middle" x="67" y="-7.5" font-family="Helvetica,sans-Serif" font-size="10.00">NoGray</text>
</g>
<!-- Node6 -->
<g id="node2" class="node"><title>Node6</title>
<g id="a_node2"><a xlink:href="classumontreal_1_1ssj_1_1hups_1_1DigitalNet_1_1DigitalNetIterator.html" target="_top" xlink:title="DigitalNet.DigitalNetIterator">
<polygon fill="none" stroke="black" points="0,-67.5 0,-86.5 134,-86.5 134,-67.5 0,-67.5"/>
<text text-anchor="middle" x="67" y="-74.5" font-family="Helvetica,sans-Serif" font-size="10.00">DigitalNet.DigitalNetIterator</text>
</a>
</g>
</g>
<!-- Node6&#45;&gt;Node5 -->
<g id="edge1" class="edge"><title>Node6&#45;&gt;Node5</title>
<path fill="none" stroke="midnightblue" d="M67,-57.2349C67,-48.5864 67,-38.4969 67,-30.523"/>
<polygon fill="midnightblue" stroke="midnightblue" points="63.5001,-57.4751 67,-67.4751 70.5001,-57.4751 63.5001,-57.4751"/>
</g>
<!-- Node7 -->
<g id="node3" class="node"><title>Node7</title>
<g id="a_node3"><a xlink:href="classumontreal_1_1ssj_1_1hups_1_1PointSet_1_1DefaultPointSetIterator.html" target="_top" xlink:title="This class implements a default point set iterator. ">
<polygon fill="none" stroke="black" points="4.5,-123.5 4.5,-153.5 129.5,-153.5 129.5,-123.5 4.5,-123.5"/>
<text text-anchor="start" x="12.5" y="-141.5" font-family="Helvetica,sans-Serif" font-size="10.00">PointSet.DefaultPointSet</text>
<text text-anchor="middle" x="67" y="-130.5" font-family="Helvetica,sans-Serif" font-size="10.00">Iterator</text>
</a>
</g>
</g>
<!-- Node7&#45;&gt;Node6 -->
<g id="edge2" class="edge"><title>Node7&#45;&gt;Node6</title>
<path fill="none" stroke="midnightblue" d="M67,-113.289C67,-103.857 67,-93.6548 67,-86.6578"/>
<polygon fill="midnightblue" stroke="midnightblue" points="63.5001,-113.399 67,-123.399 70.5001,-113.399 63.5001,-113.399"/>
</g>
<!-- Node8 -->
<g id="node4" class="node"><title>Node8</title>
<g id="a_node4"><a xlink:href="interfaceumontreal_1_1ssj_1_1hups_1_1PointSetIterator.html" target="_top" xlink:title="This is the interface for iterators that permit one to go through the points of a #PointSet and the s...">
<polygon fill="none" stroke="black" points="25,-190.5 25,-209.5 109,-209.5 109,-190.5 25,-190.5"/>
<text text-anchor="middle" x="67" y="-197.5" font-family="Helvetica,sans-Serif" font-size="10.00">PointSetIterator</text>
</a>
</g>
</g>
<!-- Node8&#45;&gt;Node7 -->
<g id="edge3" class="edge"><title>Node8&#45;&gt;Node7</title>
<path fill="none" stroke="midnightblue" d="M67,-180.235C67,-171.586 67,-161.497 67,-153.523"/>
<polygon fill="midnightblue" stroke="midnightblue" points="63.5001,-180.475 67,-190.475 70.5001,-180.475 63.5001,-180.475"/>
</g>
<!-- Node9 -->
<g id="node5" class="node"><title>Node9</title>
<g id="a_node5"><a xlink:href="interfaceumontreal_1_1ssj_1_1rng_1_1RandomStream.html" target="_top" xlink:title="This interface defines the basic structures to handle multiple streams of uniform (pseudo)random numb...">
<polygon fill="none" stroke="black" points="25,-246.5 25,-265.5 109,-265.5 109,-246.5 25,-246.5"/>
<text text-anchor="middle" x="67" y="-253.5" font-family="Helvetica,sans-Serif" font-size="10.00">RandomStream</text>
</a>
</g>
</g>
<!-- Node9&#45;&gt;Node8 -->
<g id="edge4" class="edge"><title>Node9&#45;&gt;Node8</title>
<path fill="none" stroke="midnightblue" d="M67,-235.805C67,-226.91 67,-216.78 67,-209.751"/>
<polygon fill="midnightblue" stroke="midnightblue" points="63.5001,-236.083 67,-246.083 70.5001,-236.083 63.5001,-236.083"/>
</g>
</g>
</svg>
