<?xml version="1.0" encoding="UTF-8" standalone="no"?>
<!DOCTYPE svg PUBLIC "-//W3C//DTD SVG 1.1//EN"
 "http://www.w3.org/Graphics/SVG/1.1/DTD/svg11.dtd">
<!-- Generated by graphviz version 2.26.3 (20100126.1600)
 -->
<!-- Title: BrownianMotionPCAEqualSteps Pages: 1 -->
<svg width="244pt" height="290pt"
 viewBox="0.00 0.00 244.00 290.00" xmlns="http://www.w3.org/2000/svg" xmlns:xlink="http://www.w3.org/1999/xlink">
<g id="graph1" class="graph" transform="scale(1 1) rotate(0) translate(4 286)">
<title>BrownianMotionPCAEqualSteps</title>
<!-- Node1 -->
<g id="node1" class="node"><title>Node1</title>
<polygon fill="#bfbfbf" stroke="black" points="4,-1 4,-21 160,-21 160,-1 4,-1"/>
<text text-anchor="middle" x="82" y="-8" font-family="Helvetica,sans-Serif" font-size="10.00">BrownianMotionPCAEqualSteps</text>
</g>
<!-- Node2 -->
<g id="node2" class="node"><title>Node2</title>
<a xlink:href="classumontreal_1_1ssj_1_1stochprocess_1_1BrownianMotion.html" target="_top" xlink:title="This class represents a Brownian motion process , sampled at times . ">
<polygon fill="none" stroke="black" points="39,-61 39,-81 125,-81 125,-61 39,-61"/>
<text text-anchor="middle" x="82" y="-68" font-family="Helvetica,sans-Serif" font-size="10.00">BrownianMotion</text>
</a>
</g>
<!-- Node2&#45;&gt;Node1 -->
<g id="edge2" class="edge"><title>Node2&#45;&gt;Node1</title>
<path fill="none" stroke="midnightblue" d="M82,-50.5155C82,-40.562 82,-29.0495 82,-21.0279"/>
<polygon fill="midnightblue" stroke="midnightblue" points="78.5001,-50.8218 82,-60.8218 85.5001,-50.8219 78.5001,-50.8218"/>
</g>
<!-- Node3 -->
<g id="node4" class="node"><title>Node3</title>
<a xlink:href="classumontreal_1_1ssj_1_1stochprocess_1_1StochasticProcess.html" target="_top" xlink:title="Abstract base class for a stochastic process &#160;sampled (or observed) at a finite number of time points...">
<polygon fill="none" stroke="black" points="-0.5,-131 -0.5,-151 98.5,-151 98.5,-131 -0.5,-131"/>
<text text-anchor="middle" x="49" y="-138" font-family="Helvetica,sans-Serif" font-size="10.00">StochasticProcess</text>
</a>
</g>
<!-- Node3&#45;&gt;Node2 -->
<g id="edge4" class="edge"><title>Node3&#45;&gt;Node2</title>
<path fill="none" stroke="midnightblue" d="M58.0578,-121.786C64.2787,-108.591 72.2852,-91.6072 77.2807,-81.0107"/>
<polygon fill="midnightblue" stroke="midnightblue" points="54.8265,-120.433 53.7281,-130.971 61.1582,-123.418 54.8265,-120.433"/>
</g>
<!-- Node4 -->
<g id="node6" class="node"><title>Node4</title>
<a xlink:href="classumontreal_1_1ssj_1_1randvar_1_1NormalGen.html" target="_top" xlink:title="This class implements methods for generating random variates from the normal distribution ...">
<polygon fill="none" stroke="black" points="115.5,-131 115.5,-151 180.5,-151 180.5,-131 115.5,-131"/>
<text text-anchor="middle" x="148" y="-138" font-family="Helvetica,sans-Serif" font-size="10.00">NormalGen</text>
</a>
</g>
<!-- Node4&#45;&gt;Node2 -->
<g id="edge6" class="edge"><title>Node4&#45;&gt;Node2</title>
<path fill="none" stroke="#9a32cd" stroke-dasharray="5,2" d="M131.331,-123.321C118.708,-109.932 101.821,-92.0228 91.4386,-81.0107"/>
<polygon fill="#9a32cd" stroke="#9a32cd" points="129.137,-126.096 138.544,-130.971 134.23,-121.294 129.137,-126.096"/>
<text text-anchor="middle" x="127.5" y="-103" font-family="Helvetica,sans-Serif" font-size="10.00"> gen</text>
</g>
<!-- Node5 -->
<g id="node8" class="node"><title>Node5</title>
<a xlink:href="classumontreal_1_1ssj_1_1randvar_1_1RandomVariateGen.html" target="_top" xlink:title="This is the base class for all random variate generators over the real line. ">
<polygon fill="none" stroke="black" points="97.5,-191 97.5,-211 198.5,-211 198.5,-191 97.5,-191"/>
<text text-anchor="middle" x="148" y="-198" font-family="Helvetica,sans-Serif" font-size="10.00">RandomVariateGen</text>
</a>
</g>
<!-- Node5&#45;&gt;Node4 -->
<g id="edge8" class="edge"><title>Node5&#45;&gt;Node4</title>
<path fill="none" stroke="midnightblue" d="M148,-180.516C148,-170.562 148,-159.05 148,-151.028"/>
<polygon fill="midnightblue" stroke="midnightblue" points="144.5,-180.822 148,-190.822 151.5,-180.822 144.5,-180.822"/>
</g>
<!-- Node6 -->
<g id="node10" class="node"><title>Node6</title>
<a xlink:href="interfaceumontreal_1_1ssj_1_1probdist_1_1Distribution.html" target="_top" xlink:title="This interface should be implemented by all classes supporting discrete and continuous distributions...">
<polygon fill="none" stroke="black" points="69.5,-261 69.5,-281 134.5,-281 134.5,-261 69.5,-261"/>
<text text-anchor="middle" x="102" y="-268" font-family="Helvetica,sans-Serif" font-size="10.00">Distribution</text>
</a>
</g>
<!-- Node6&#45;&gt;Node5 -->
<g id="edge10" class="edge"><title>Node6&#45;&gt;Node5</title>
<path fill="none" stroke="#9a32cd" stroke-dasharray="5,2" d="M114.119,-252.558C122.858,-239.259 134.322,-221.815 141.422,-211.011"/>
<polygon fill="#9a32cd" stroke="#9a32cd" points="111.158,-250.691 108.591,-260.971 117.007,-254.536 111.158,-250.691"/>
<text text-anchor="middle" x="136.5" y="-233" font-family="Helvetica,sans-Serif" font-size="10.00"> dist</text>
</g>
<!-- Node7 -->
<g id="node12" class="node"><title>Node7</title>
<a xlink:href="interfaceumontreal_1_1ssj_1_1rng_1_1RandomStream.html" target="_top" xlink:title="This interface defines the basic structures to handle multiple streams of uniform (pseudo)random numb...">
<polygon fill="none" stroke="black" points="152,-261 152,-281 236,-281 236,-261 152,-261"/>
<text text-anchor="middle" x="194" y="-268" font-family="Helvetica,sans-Serif" font-size="10.00">RandomStream</text>
</a>
</g>
<!-- Node7&#45;&gt;Node5 -->
<g id="edge12" class="edge"><title>Node7&#45;&gt;Node5</title>
<path fill="none" stroke="#9a32cd" stroke-dasharray="5,2" d="M181.881,-252.558C173.142,-239.259 161.678,-221.815 154.578,-211.011"/>
<polygon fill="#9a32cd" stroke="#9a32cd" points="178.993,-254.536 187.409,-260.971 184.842,-250.691 178.993,-254.536"/>
<text text-anchor="middle" x="190" y="-233" font-family="Helvetica,sans-Serif" font-size="10.00"> stream</text>
</g>
</g>
</svg>
