<?xml version="1.0" encoding="UTF-8" standalone="no"?>
<!DOCTYPE svg PUBLIC "-//W3C//DTD SVG 1.1//EN"
 "http://www.w3.org/Graphics/SVG/1.1/DTD/svg11.dtd">
<!-- Generated by graphviz version 2.26.3 (20100126.1600)
 -->
<!-- Title: InverseGaussianProcess Pages: 1 -->
<svg width="323pt" height="204pt"
 viewBox="0.00 0.00 323.00 204.00" xmlns="http://www.w3.org/2000/svg" xmlns:xlink="http://www.w3.org/1999/xlink">
<g id="graph1" class="graph" transform="scale(1 1) rotate(0) translate(4 200)">
<title>InverseGaussianProcess</title>
<!-- Node1 -->
<g id="node1" class="node"><title>Node1</title>
<polygon fill="#bfbfbf" stroke="black" points="96,-117 96,-137 222,-137 222,-117 96,-117"/>
<text text-anchor="middle" x="159" y="-124" font-family="Helvetica,sans-Serif" font-size="10.00">InverseGaussianProcess</text>
</g>
<!-- Node3 -->
<g id="node5" class="node"><title>Node3</title>
<a xlink:href="classumontreal_1_1ssj_1_1stochprocess_1_1InverseGaussianProcessMSH.html" target="_top" xlink:title="Uses a faster generating method (MSH)   than the simple inversion of the distribution function used ...">
<polygon fill="none" stroke="black" points="3,-59 3,-79 151,-79 151,-59 3,-59"/>
<text text-anchor="middle" x="77" y="-66" font-family="Helvetica,sans-Serif" font-size="10.00">InverseGaussianProcessMSH</text>
</a>
</g>
<!-- Node1&#45;&gt;Node3 -->
<g id="edge4" class="edge"><title>Node1&#45;&gt;Node3</title>
<path fill="none" stroke="midnightblue" d="M136.344,-110.975C121.974,-100.811 103.817,-87.9681 91.3948,-79.1817"/>
<polygon fill="midnightblue" stroke="midnightblue" points="134.531,-113.98 144.717,-116.897 138.574,-108.265 134.531,-113.98"/>
</g>
<!-- Node5 -->
<g id="node9" class="node"><title>Node5</title>
<a xlink:href="classumontreal_1_1ssj_1_1stochprocess_1_1InverseGaussianProcessPCA.html" target="_top" xlink:title="Approximates a principal component analysis (PCA) decomposition of the InverseGaussianProcess. ">
<polygon fill="none" stroke="black" points="169,-59 169,-79 315,-79 315,-59 169,-59"/>
<text text-anchor="middle" x="242" y="-66" font-family="Helvetica,sans-Serif" font-size="10.00">InverseGaussianProcessPCA</text>
</a>
</g>
<!-- Node1&#45;&gt;Node5 -->
<g id="edge8" class="edge"><title>Node1&#45;&gt;Node5</title>
<path fill="none" stroke="midnightblue" d="M181.932,-110.975C196.478,-100.811 214.856,-87.9681 227.43,-79.1817"/>
<polygon fill="midnightblue" stroke="midnightblue" points="179.65,-108.3 173.457,-116.897 183.659,-114.038 179.65,-108.3"/>
</g>
<!-- Node2 -->
<g id="node2" class="node"><title>Node2</title>
<a xlink:href="classumontreal_1_1ssj_1_1stochprocess_1_1StochasticProcess.html" target="_top" xlink:title="Abstract base class for a stochastic process &#160;sampled (or observed) at a finite number of time points...">
<polygon fill="none" stroke="black" points="109.5,-175 109.5,-195 208.5,-195 208.5,-175 109.5,-175"/>
<text text-anchor="middle" x="159" y="-182" font-family="Helvetica,sans-Serif" font-size="10.00">StochasticProcess</text>
</a>
</g>
<!-- Node2&#45;&gt;Node1 -->
<g id="edge2" class="edge"><title>Node2&#45;&gt;Node1</title>
<path fill="none" stroke="midnightblue" d="M159,-164.89C159,-155.62 159,-145.008 159,-137.378"/>
<polygon fill="midnightblue" stroke="midnightblue" points="155.5,-164.897 159,-174.897 162.5,-164.897 155.5,-164.897"/>
</g>
<!-- Node4 -->
<g id="node7" class="node"><title>Node4</title>
<a xlink:href="classumontreal_1_1ssj_1_1stochprocess_1_1InverseGaussianProcessBridge.html" target="_top" xlink:title="Samples the path by bridge sampling: first finding the process value at the final time and then the m...">
<polygon fill="none" stroke="black" points="0,-1 0,-21 154,-21 154,-1 0,-1"/>
<text text-anchor="middle" x="77" y="-8" font-family="Helvetica,sans-Serif" font-size="10.00">InverseGaussianProcessBridge</text>
</a>
</g>
<!-- Node3&#45;&gt;Node4 -->
<g id="edge6" class="edge"><title>Node3&#45;&gt;Node4</title>
<path fill="none" stroke="midnightblue" d="M77,-48.8902C77,-39.6201 77,-29.0083 77,-21.3776"/>
<polygon fill="midnightblue" stroke="midnightblue" points="73.5001,-48.8971 77,-58.8972 80.5001,-48.8972 73.5001,-48.8971"/>
</g>
</g>
</svg>
