<?xml version="1.0" encoding="UTF-8" standalone="no"?>
<!DOCTYPE svg PUBLIC "-//W3C//DTD SVG 1.1//EN"
 "http://www.w3.org/Graphics/SVG/1.1/DTD/svg11.dtd">
<!-- Generated by graphviz version 2.38.0 (20140413.2041)
 -->
<!-- Title: ContainerPointSet.ContainerPointSetIterator Pages: 1 -->
<svg width="248pt" height="163pt"
 viewBox="0.00 0.00 248.00 163.00" xmlns="http://www.w3.org/2000/svg" xmlns:xlink="http://www.w3.org/1999/xlink">
<g id="graph0" class="graph" transform="scale(1 1) rotate(0) translate(4 159)">
<title>ContainerPointSet.ContainerPointSetIterator</title>
<!-- Node1 -->
<g id="node1" class="node"><title>Node1</title>
<polygon fill="#bfbfbf" stroke="black" points="27,-0.5 27,-30.5 182,-30.5 182,-0.5 27,-0.5"/>
<text text-anchor="start" x="35" y="-18.5" font-family="Helvetica,sans-Serif" font-size="10.00">ContainerPointSet.Container</text>
<text text-anchor="middle" x="104.5" y="-7.5" font-family="Helvetica,sans-Serif" font-size="10.00">PointSetIterator</text>
</g>
<!-- Node2 -->
<g id="node2" class="node"><title>Node2</title>
<polygon fill="none" stroke="#bfbfbf" points="0,-78.5 0,-97.5 129,-97.5 129,-78.5 0,-78.5"/>
<text text-anchor="middle" x="64.5" y="-85.5" font-family="Helvetica,sans-Serif" font-size="10.00">DefaultPointSetIterator</text>
</g>
<!-- Node2&#45;&gt;Node1 -->
<g id="edge1" class="edge"><title>Node2&#45;&gt;Node1</title>
<path fill="none" stroke="midnightblue" d="M74.5288,-69.3243C81.3276,-57.3413 90.1924,-41.7171 96.5135,-30.5762"/>
<polygon fill="midnightblue" stroke="midnightblue" points="71.2955,-67.9305 69.4048,-78.3553 77.3838,-71.3849 71.2955,-67.9305"/>
</g>
<!-- Node3 -->
<g id="node3" class="node"><title>Node3</title>
<g id="a_node3"><a xlink:href="interfaceumontreal_1_1ssj_1_1hups_1_1PointSetIterator.html" target="_top" xlink:title="Objects of classes that implement this interface are iterators that permit one to enumerate (or obser...">
<polygon fill="none" stroke="black" points="147,-78.5 147,-97.5 240,-97.5 240,-78.5 147,-78.5"/>
<text text-anchor="middle" x="193.5" y="-85.5" font-family="Helvetica,sans-Serif" font-size="10.00">PointSetIterator</text>
</a>
</g>
</g>
<!-- Node3&#45;&gt;Node1 -->
<g id="edge2" class="edge"><title>Node3&#45;&gt;Node1</title>
<path fill="none" stroke="#9a32cd" stroke-dasharray="5,2" d="M174.723,-72.1262C159.251,-59.8698 137.46,-42.6084 122.27,-30.5762"/>
<polygon fill="#9a32cd" stroke="#9a32cd" points="172.575,-74.8895 182.587,-78.3553 176.921,-69.4025 172.575,-74.8895"/>
<text text-anchor="middle" x="188.5" y="-52" font-family="Helvetica,sans-Serif" font-size="10.00"> innerIterator</text>
</g>
<!-- Node4 -->
<g id="node4" class="node"><title>Node4</title>
<g id="a_node4"><a xlink:href="interfaceumontreal_1_1ssj_1_1rng_1_1RandomStream.html" target="_top" xlink:title="This interface defines the basic structures to handle multiple streams of uniform (pseudo)random numb...">
<polygon fill="none" stroke="black" points="147.5,-135.5 147.5,-154.5 239.5,-154.5 239.5,-135.5 147.5,-135.5"/>
<text text-anchor="middle" x="193.5" y="-142.5" font-family="Helvetica,sans-Serif" font-size="10.00">RandomStream</text>
</a>
</g>
</g>
<!-- Node4&#45;&gt;Node3 -->
<g id="edge3" class="edge"><title>Node4&#45;&gt;Node3</title>
<path fill="none" stroke="midnightblue" d="M193.5,-125.117C193.5,-115.817 193.5,-105.056 193.5,-97.7149"/>
<polygon fill="midnightblue" stroke="midnightblue" points="190,-125.406 193.5,-135.406 197,-125.406 190,-125.406"/>
</g>
</g>
</svg>
