<?xml version="1.0" encoding="UTF-8" standalone="no"?>
<!DOCTYPE svg PUBLIC "-//W3C//DTD SVG 1.1//EN"
 "http://www.w3.org/Graphics/SVG/1.1/DTD/svg11.dtd">
<!-- Generated by graphviz version 2.38.0 (20140413.2041)
 -->
<!-- Title: BinaryDataWriter Pages: 1 -->
<svg width="108pt" height="140pt"
 viewBox="0.00 0.00 108.00 140.00" xmlns="http://www.w3.org/2000/svg" xmlns:xlink="http://www.w3.org/1999/xlink">
<g id="graph0" class="graph" transform="scale(1 1) rotate(0) translate(4 136)">
<title>BinaryDataWriter</title>
<!-- Node3 -->
<g id="node1" class="node"><title>Node3</title>
<polygon fill="#bfbfbf" stroke="black" points="4.5,-0.5 4.5,-19.5 95.5,-19.5 95.5,-0.5 4.5,-0.5"/>
<text text-anchor="middle" x="50" y="-7.5" font-family="Helvetica,sans-Serif" font-size="10.00">BinaryDataWriter</text>
</g>
<!-- Node4 -->
<g id="node2" class="node"><title>Node4</title>
<g id="a_node2"><a xlink:href="classumontreal_1_1ssj_1_1util_1_1io_1_1AbstractDataWriter.html" target="_top" xlink:title="This abstract class implements shared functionality for data writers. ">
<polygon fill="none" stroke="black" points="0,-56.5 0,-75.5 100,-75.5 100,-56.5 0,-56.5"/>
<text text-anchor="middle" x="50" y="-63.5" font-family="Helvetica,sans-Serif" font-size="10.00">AbstractDataWriter</text>
</a>
</g>
</g>
<!-- Node4&#45;&gt;Node3 -->
<g id="edge1" class="edge"><title>Node4&#45;&gt;Node3</title>
<path fill="none" stroke="midnightblue" d="M50,-45.8045C50,-36.9102 50,-26.7798 50,-19.7511"/>
<polygon fill="midnightblue" stroke="midnightblue" points="46.5001,-46.083 50,-56.083 53.5001,-46.083 46.5001,-46.083"/>
</g>
<!-- Node5 -->
<g id="node3" class="node"><title>Node5</title>
<g id="a_node3"><a xlink:href="interfaceumontreal_1_1ssj_1_1util_1_1io_1_1DataWriter.html" target="_top" xlink:title="Data writer interface. ">
<polygon fill="none" stroke="black" points="18.5,-112.5 18.5,-131.5 81.5,-131.5 81.5,-112.5 18.5,-112.5"/>
<text text-anchor="middle" x="50" y="-119.5" font-family="Helvetica,sans-Serif" font-size="10.00">DataWriter</text>
</a>
</g>
</g>
<!-- Node5&#45;&gt;Node4 -->
<g id="edge2" class="edge"><title>Node5&#45;&gt;Node4</title>
<path fill="none" stroke="midnightblue" d="M50,-101.805C50,-92.9102 50,-82.7798 50,-75.7511"/>
<polygon fill="midnightblue" stroke="midnightblue" points="46.5001,-102.083 50,-112.083 53.5001,-102.083 46.5001,-102.083"/>
</g>
</g>
</svg>
