<?xml version="1.0" encoding="UTF-8" standalone="no"?>
<!DOCTYPE svg PUBLIC "-//W3C//DTD SVG 1.1//EN"
 "http://www.w3.org/Graphics/SVG/1.1/DTD/svg11.dtd">
<!-- Generated by graphviz version 2.38.0 (20140413.2041)
 -->
<!-- Title: DiscreteDistIntChart Pages: 1 -->
<svg width="298pt" height="308pt"
 viewBox="0.00 0.00 298.00 308.00" xmlns="http://www.w3.org/2000/svg" xmlns:xlink="http://www.w3.org/1999/xlink">
<g id="graph0" class="graph" transform="scale(1 1) rotate(0) translate(4 304)">
<title>DiscreteDistIntChart</title>
<!-- Node1 -->
<g id="node1" class="node"><title>Node1</title>
<polygon fill="#bfbfbf" stroke="black" points="108,-0.5 108,-19.5 215,-19.5 215,-0.5 108,-0.5"/>
<text text-anchor="middle" x="161.5" y="-7.5" font-family="Helvetica,sans-Serif" font-size="10.00">DiscreteDistIntChart</text>
</g>
<!-- Node2 -->
<g id="node2" class="node"><title>Node2</title>
<g id="a_node2"><a xlink:href="classumontreal_1_1ssj_1_1charts_1_1XYLineChart.html" target="_top" xlink:title="This class provides tools to create and manage curve plots. ">
<polygon fill="none" stroke="black" points="65.5,-78.5 65.5,-97.5 137.5,-97.5 137.5,-78.5 65.5,-78.5"/>
<text text-anchor="middle" x="101.5" y="-85.5" font-family="Helvetica,sans-Serif" font-size="10.00">XYLineChart</text>
</a>
</g>
</g>
<!-- Node2&#45;&gt;Node1 -->
<g id="edge1" class="edge"><title>Node2&#45;&gt;Node1</title>
<path fill="none" stroke="#9a32cd" stroke-dasharray="5,2" d="M110.805,-69.0974C116.225,-59.4346 123.548,-47.563 131.5,-38 137.145,-31.2114 144.501,-24.5646 150.516,-19.5646"/>
<polygon fill="#9a32cd" stroke="#9a32cd" points="107.574,-67.7163 105.9,-78.1781 113.732,-71.0437 107.574,-67.7163"/>
<text text-anchor="middle" x="154.5" y="-52" font-family="Helvetica,sans-Serif" font-size="10.00"> probChart</text>
<text text-anchor="middle" x="154.5" y="-41" font-family="Helvetica,sans-Serif" font-size="10.00">cdfChart</text>
</g>
<!-- Node3 -->
<g id="node3" class="node"><title>Node3</title>
<g id="a_node3"><a xlink:href="classumontreal_1_1ssj_1_1charts_1_1XYChart.html" target="_top" xlink:title="This class provides tools to create charts from data in a simple way. ">
<polygon fill="none" stroke="black" points="74.5,-135.5 74.5,-154.5 128.5,-154.5 128.5,-135.5 74.5,-135.5"/>
<text text-anchor="middle" x="101.5" y="-142.5" font-family="Helvetica,sans-Serif" font-size="10.00">XYChart</text>
</a>
</g>
</g>
<!-- Node3&#45;&gt;Node2 -->
<g id="edge2" class="edge"><title>Node3&#45;&gt;Node2</title>
<path fill="none" stroke="midnightblue" d="M101.5,-125.117C101.5,-115.817 101.5,-105.056 101.5,-97.7149"/>
<polygon fill="midnightblue" stroke="midnightblue" points="98.0001,-125.406 101.5,-135.406 105,-125.406 98.0001,-125.406"/>
</g>
<!-- Node4 -->
<g id="node4" class="node"><title>Node4</title>
<polygon fill="none" stroke="#bfbfbf" points="0,-213.5 0,-232.5 65,-232.5 65,-213.5 0,-213.5"/>
<text text-anchor="middle" x="32.5" y="-220.5" font-family="Helvetica,sans-Serif" font-size="10.00">JFreeChart</text>
</g>
<!-- Node4&#45;&gt;Node3 -->
<g id="edge3" class="edge"><title>Node4&#45;&gt;Node3</title>
<path fill="none" stroke="#9a32cd" stroke-dasharray="5,2" d="M45.1809,-205.335C52.7917,-195.627 62.8424,-183.308 72.5,-173 78.5203,-166.575 85.7703,-159.825 91.5152,-154.681"/>
<polygon fill="#9a32cd" stroke="#9a32cd" points="42.3061,-203.331 38.9586,-213.383 47.844,-207.612 42.3061,-203.331"/>
<text text-anchor="middle" x="85" y="-181.5" font-family="Helvetica,sans-Serif" font-size="10.00"> chart</text>
</g>
<!-- Node5 -->
<g id="node5" class="node"><title>Node5</title>
<g id="a_node5"><a xlink:href="classumontreal_1_1ssj_1_1charts_1_1Axis.html" target="_top" xlink:title="Represents an axis of a chart encapsulated by an instance of XYChart. ">
<polygon fill="none" stroke="black" points="83.5,-213.5 83.5,-232.5 119.5,-232.5 119.5,-213.5 83.5,-213.5"/>
<text text-anchor="middle" x="101.5" y="-220.5" font-family="Helvetica,sans-Serif" font-size="10.00">Axis</text>
</a>
</g>
</g>
<!-- Node5&#45;&gt;Node3 -->
<g id="edge4" class="edge"><title>Node5&#45;&gt;Node3</title>
<path fill="none" stroke="#9a32cd" stroke-dasharray="5,2" d="M101.5,-203.224C101.5,-187.697 101.5,-166.358 101.5,-154.616"/>
<polygon fill="#9a32cd" stroke="#9a32cd" points="98.0001,-203.282 101.5,-213.282 105,-203.282 98.0001,-203.282"/>
<text text-anchor="middle" x="116.5" y="-187" font-family="Helvetica,sans-Serif" font-size="10.00"> XAxis</text>
<text text-anchor="middle" x="116.5" y="-176" font-family="Helvetica,sans-Serif" font-size="10.00">YAxis</text>
</g>
<!-- Node6 -->
<g id="node6" class="node"><title>Node6</title>
<g id="a_node6"><a xlink:href="classumontreal_1_1ssj_1_1charts_1_1SSJXYSeriesCollection.html" target="_top" xlink:title="Stores data used in a XYChart. ">
<polygon fill="none" stroke="black" points="137.5,-213.5 137.5,-232.5 257.5,-232.5 257.5,-213.5 137.5,-213.5"/>
<text text-anchor="middle" x="197.5" y="-220.5" font-family="Helvetica,sans-Serif" font-size="10.00">SSJXYSeriesCollection</text>
</a>
</g>
</g>
<!-- Node6&#45;&gt;Node3 -->
<g id="edge5" class="edge"><title>Node6&#45;&gt;Node3</title>
<path fill="none" stroke="#9a32cd" stroke-dasharray="5,2" d="M178.477,-206.94C158.702,-191.285 128.44,-167.327 112.384,-154.616"/>
<polygon fill="#9a32cd" stroke="#9a32cd" points="176.475,-209.819 186.488,-213.282 180.82,-204.331 176.475,-209.819"/>
<text text-anchor="middle" x="179.5" y="-181.5" font-family="Helvetica,sans-Serif" font-size="10.00"> dataset</text>
</g>
<!-- Node7 -->
<g id="node7" class="node"><title>Node7</title>
<polygon fill="none" stroke="#bfbfbf" points="117,-280.5 117,-299.5 182,-299.5 182,-280.5 117,-280.5"/>
<text text-anchor="middle" x="149.5" y="-287.5" font-family="Helvetica,sans-Serif" font-size="10.00">XYDataset</text>
</g>
<!-- Node7&#45;&gt;Node6 -->
<g id="edge6" class="edge"><title>Node7&#45;&gt;Node6</title>
<path fill="none" stroke="#9a32cd" stroke-dasharray="5,2" d="M146.402,-270.415C146.206,-263.878 147.078,-256.737 150.5,-251 155.417,-242.757 163.877,-236.796 172.276,-232.607"/>
<polygon fill="#9a32cd" stroke="#9a32cd" points="142.936,-270.923 147.479,-280.494 149.896,-270.179 142.936,-270.923"/>
<text text-anchor="middle" x="187" y="-254" font-family="Helvetica,sans-Serif" font-size="10.00"> seriesCollection</text>
</g>
<!-- Node8 -->
<g id="node8" class="node"><title>Node8</title>
<polygon fill="none" stroke="#bfbfbf" points="201,-280.5 201,-299.5 290,-299.5 290,-280.5 201,-280.5"/>
<text text-anchor="middle" x="245.5" y="-287.5" font-family="Helvetica,sans-Serif" font-size="10.00">XYItemRenderer</text>
</g>
<!-- Node8&#45;&gt;Node6 -->
<g id="edge7" class="edge"><title>Node8&#45;&gt;Node6</title>
<path fill="none" stroke="#9a32cd" stroke-dasharray="5,2" d="M236.574,-271.571C232.867,-264.907 228.308,-257.382 223.5,-251 218.488,-244.347 211.988,-237.597 206.741,-232.51"/>
<polygon fill="#9a32cd" stroke="#9a32cd" points="233.533,-273.307 241.327,-280.483 239.71,-270.012 233.533,-273.307"/>
<text text-anchor="middle" x="251" y="-254" font-family="Helvetica,sans-Serif" font-size="10.00"> renderer</text>
</g>
<!-- Node9 -->
<g id="node9" class="node"><title>Node9</title>
<g id="a_node9"><a xlink:href="classumontreal_1_1ssj_1_1probdist_1_1DiscreteDistributionInt.html" target="_top" xlink:title="Classes implementing discrete distributions over the integers should inherit from this class...">
<polygon fill="none" stroke="black" points="155.5,-78.5 155.5,-97.5 269.5,-97.5 269.5,-78.5 155.5,-78.5"/>
<text text-anchor="middle" x="212.5" y="-85.5" font-family="Helvetica,sans-Serif" font-size="10.00">DiscreteDistributionInt</text>
</a>
</g>
</g>
<!-- Node9&#45;&gt;Node1 -->
<g id="edge8" class="edge"><title>Node9&#45;&gt;Node1</title>
<path fill="none" stroke="#9a32cd" stroke-dasharray="5,2" d="M200.8,-69.5654C190.321,-53.9486 175.391,-31.7002 167.282,-19.6165"/>
<polygon fill="#9a32cd" stroke="#9a32cd" points="198.171,-71.9284 206.65,-78.2818 203.984,-68.0279 198.171,-71.9284"/>
<text text-anchor="middle" x="203" y="-46.5" font-family="Helvetica,sans-Serif" font-size="10.00"> dist</text>
</g>
<!-- Node10 -->
<g id="node10" class="node"><title>Node10</title>
<g id="a_node10"><a xlink:href="interfaceumontreal_1_1ssj_1_1probdist_1_1Distribution.html" target="_top" xlink:title="This interface should be implemented by all classes supporting discrete and continuous distributions...">
<polygon fill="none" stroke="black" points="179.5,-135.5 179.5,-154.5 245.5,-154.5 245.5,-135.5 179.5,-135.5"/>
<text text-anchor="middle" x="212.5" y="-142.5" font-family="Helvetica,sans-Serif" font-size="10.00">Distribution</text>
</a>
</g>
</g>
<!-- Node10&#45;&gt;Node9 -->
<g id="edge9" class="edge"><title>Node10&#45;&gt;Node9</title>
<path fill="none" stroke="midnightblue" d="M212.5,-125.117C212.5,-115.817 212.5,-105.056 212.5,-97.7149"/>
<polygon fill="midnightblue" stroke="midnightblue" points="209,-125.406 212.5,-135.406 216,-125.406 209,-125.406"/>
</g>
</g>
</svg>
