<?xml version="1.0" encoding="UTF-8" standalone="no"?>
<!DOCTYPE svg PUBLIC "-//W3C//DTD SVG 1.1//EN"
 "http://www.w3.org/Graphics/SVG/1.1/DTD/svg11.dtd">
<!-- Generated by graphviz version 2.38.0 (20140413.2041)
 -->
<!-- Title: RandomStreamBase Pages: 1 -->
<svg width="611pt" height="427pt"
 viewBox="0.00 0.00 611.00 427.00" xmlns="http://www.w3.org/2000/svg" xmlns:xlink="http://www.w3.org/1999/xlink">
<g id="graph0" class="graph" transform="scale(1 1) rotate(0) translate(4 423)">
<title>RandomStreamBase</title>
<!-- Node1 -->
<g id="node1" class="node"><title>Node1</title>
<polygon fill="#bfbfbf" stroke="black" points="285,-209.5 285,-228.5 392,-228.5 392,-209.5 285,-209.5"/>
<text text-anchor="middle" x="338.5" y="-216.5" font-family="Helvetica,sans-Serif" font-size="10.00">RandomStreamBase</text>
</g>
<!-- Node6 -->
<g id="node6" class="node"><title>Node6</title>
<g id="a_node6"><a xlink:href="classumontreal_1_1ssj_1_1rng_1_1GenF2w32.html" target="_top" xlink:title="Implements the RandomStream interface via inheritance from RandomStreamBase. ">
<polygon fill="none" stroke="black" points="436,-399.5 436,-418.5 500,-418.5 500,-399.5 436,-399.5"/>
<text text-anchor="middle" x="468" y="-406.5" font-family="Helvetica,sans-Serif" font-size="10.00">GenF2w32</text>
</a>
</g>
</g>
<!-- Node1&#45;&gt;Node6 -->
<g id="edge5" class="edge"><title>Node1&#45;&gt;Node6</title>
<path fill="none" stroke="midnightblue" d="M345.138,-238.669C355.958,-273.32 382.67,-345.756 428,-390 431.773,-393.682 436.398,-396.772 441.128,-399.317"/>
<polygon fill="midnightblue" stroke="midnightblue" points="348.41,-237.399 342.179,-228.83 341.707,-239.414 348.41,-237.399"/>
</g>
<!-- Node7 -->
<g id="node7" class="node"><title>Node7</title>
<g id="a_node7"><a xlink:href="classumontreal_1_1ssj_1_1rng_1_1LFSR113.html" target="_top" xlink:title="Extends RandomStreamBase using a composite linear feedback shift register (LFSR) (or Tausworthe) RNG ...">
<polygon fill="none" stroke="black" points="439,-361.5 439,-380.5 497,-380.5 497,-361.5 439,-361.5"/>
<text text-anchor="middle" x="468" y="-368.5" font-family="Helvetica,sans-Serif" font-size="10.00">LFSR113</text>
</a>
</g>
</g>
<!-- Node1&#45;&gt;Node7 -->
<g id="edge6" class="edge"><title>Node1&#45;&gt;Node7</title>
<path fill="none" stroke="midnightblue" d="M347.953,-237.73C361.399,-265.751 390.066,-318.83 428,-352 432.196,-355.669 437.224,-358.804 442.254,-361.408"/>
<polygon fill="midnightblue" stroke="midnightblue" points="351.103,-236.202 343.699,-228.623 344.761,-239.165 351.103,-236.202"/>
</g>
<!-- Node8 -->
<g id="node8" class="node"><title>Node8</title>
<g id="a_node8"><a xlink:href="classumontreal_1_1ssj_1_1rng_1_1LFSR258.html" target="_top" xlink:title="Extends RandomStreamBase using a 64&#45;bit composite linear feedback shift register (LFSR) (or Tausworth...">
<polygon fill="none" stroke="black" points="439,-323.5 439,-342.5 497,-342.5 497,-323.5 439,-323.5"/>
<text text-anchor="middle" x="468" y="-330.5" font-family="Helvetica,sans-Serif" font-size="10.00">LFSR258</text>
</a>
</g>
</g>
<!-- Node1&#45;&gt;Node8 -->
<g id="edge7" class="edge"><title>Node1&#45;&gt;Node8</title>
<path fill="none" stroke="midnightblue" d="M352.857,-236.929C368.917,-257.551 397.538,-291.458 428,-314 432.843,-317.584 438.468,-320.784 443.913,-323.489"/>
<polygon fill="midnightblue" stroke="midnightblue" points="355.441,-234.546 346.588,-228.727 349.88,-238.797 355.441,-234.546"/>
</g>
<!-- Node9 -->
<g id="node9" class="node"><title>Node9</title>
<g id="a_node9"><a xlink:href="classumontreal_1_1ssj_1_1rng_1_1MRG31k3p.html" target="_top" xlink:title="Extends the abstract class RandomStreamBase, thus implementing the RandomStream interface indirectly...">
<polygon fill="none" stroke="black" points="435,-285.5 435,-304.5 501,-304.5 501,-285.5 435,-285.5"/>
<text text-anchor="middle" x="468" y="-292.5" font-family="Helvetica,sans-Serif" font-size="10.00">MRG31k3p</text>
</a>
</g>
</g>
<!-- Node1&#45;&gt;Node9 -->
<g id="edge8" class="edge"><title>Node1&#45;&gt;Node9</title>
<path fill="none" stroke="midnightblue" d="M361.738,-234.371C379.367,-246.299 404.81,-262.944 428,-276 433.775,-279.252 440.189,-282.513 446.119,-285.393"/>
<polygon fill="midnightblue" stroke="midnightblue" points="363.519,-231.349 353.284,-228.608 359.575,-237.133 363.519,-231.349"/>
</g>
<!-- Node10 -->
<g id="node10" class="node"><title>Node10</title>
<g id="a_node10"><a xlink:href="classumontreal_1_1ssj_1_1rng_1_1MRG32k3a.html" target="_top" xlink:title="Extends the abstract class RandomStreamBase by using as a backbone (or main) generator the combined m...">
<polygon fill="none" stroke="black" points="435,-247.5 435,-266.5 501,-266.5 501,-247.5 435,-247.5"/>
<text text-anchor="middle" x="468" y="-254.5" font-family="Helvetica,sans-Serif" font-size="10.00">MRG32k3a</text>
</a>
</g>
</g>
<!-- Node1&#45;&gt;Node10 -->
<g id="edge9" class="edge"><title>Node1&#45;&gt;Node10</title>
<path fill="none" stroke="midnightblue" d="M381.559,-231.535C398.904,-236.705 418.681,-242.599 434.837,-247.414"/>
<polygon fill="midnightblue" stroke="midnightblue" points="382.257,-228.091 371.674,-228.589 380.257,-234.8 382.257,-228.091"/>
</g>
<!-- Node11 -->
<g id="node11" class="node"><title>Node11</title>
<g id="a_node11"><a xlink:href="classumontreal_1_1ssj_1_1rng_1_1MRG32k3aL.html" target="_top" xlink:title="The same generator as MRG32k3a, except here it is implemented with type long instead of double...">
<polygon fill="none" stroke="black" points="432.5,-209.5 432.5,-228.5 503.5,-228.5 503.5,-209.5 432.5,-209.5"/>
<text text-anchor="middle" x="468" y="-216.5" font-family="Helvetica,sans-Serif" font-size="10.00">MRG32k3aL</text>
</a>
</g>
</g>
<!-- Node1&#45;&gt;Node11 -->
<g id="edge10" class="edge"><title>Node1&#45;&gt;Node11</title>
<path fill="none" stroke="midnightblue" d="M402.372,-219C412.7,-219 423.058,-219 432.363,-219"/>
<polygon fill="midnightblue" stroke="midnightblue" points="402.095,-215.5 392.095,-219 402.095,-222.5 402.095,-215.5"/>
</g>
<!-- Node12 -->
<g id="node12" class="node"><title>Node12</title>
<g id="a_node12"><a xlink:href="classumontreal_1_1ssj_1_1rng_1_1MT19937.html" target="_top" xlink:title="Implements the RandomStream interface via inheritance from RandomStreamBase. ">
<polygon fill="none" stroke="black" points="439.5,-171.5 439.5,-190.5 496.5,-190.5 496.5,-171.5 439.5,-171.5"/>
<text text-anchor="middle" x="468" y="-178.5" font-family="Helvetica,sans-Serif" font-size="10.00">MT19937</text>
</a>
</g>
</g>
<!-- Node1&#45;&gt;Node12 -->
<g id="edge11" class="edge"><title>Node1&#45;&gt;Node12</title>
<path fill="none" stroke="midnightblue" d="M381.292,-206.544C400.282,-200.884 422.234,-194.342 439.167,-189.295"/>
<polygon fill="midnightblue" stroke="midnightblue" points="380.257,-203.2 371.674,-209.411 382.257,-209.909 380.257,-203.2"/>
</g>
<!-- Node13 -->
<g id="node13" class="node"><title>Node13</title>
<g id="a_node13"><a xlink:href="classumontreal_1_1ssj_1_1rng_1_1RandRijndael.html" target="_top" xlink:title="Implements a RNG using the Rijndael block cipher algorithm (AES) with key and block lengths of 128 bi...">
<polygon fill="none" stroke="black" points="430.5,-133.5 430.5,-152.5 505.5,-152.5 505.5,-133.5 430.5,-133.5"/>
<text text-anchor="middle" x="468" y="-140.5" font-family="Helvetica,sans-Serif" font-size="10.00">RandRijndael</text>
</a>
</g>
</g>
<!-- Node1&#45;&gt;Node13 -->
<g id="edge12" class="edge"><title>Node1&#45;&gt;Node13</title>
<path fill="none" stroke="midnightblue" d="M361.738,-203.629C379.367,-191.701 404.81,-175.056 428,-162 433.775,-158.748 440.189,-155.487 446.119,-152.607"/>
<polygon fill="midnightblue" stroke="midnightblue" points="359.575,-200.867 353.284,-209.392 363.519,-206.651 359.575,-200.867"/>
</g>
<!-- Node14 -->
<g id="node14" class="node"><title>Node14</title>
<g id="a_node14"><a xlink:href="classumontreal_1_1ssj_1_1rng_1_1WELL1024.html" target="_top" xlink:title="Implements the RandomStream interface via inheritance from RandomStreamBase. ">
<polygon fill="none" stroke="black" points="435.5,-95.5 435.5,-114.5 500.5,-114.5 500.5,-95.5 435.5,-95.5"/>
<text text-anchor="middle" x="468" y="-102.5" font-family="Helvetica,sans-Serif" font-size="10.00">WELL1024</text>
</a>
</g>
</g>
<!-- Node1&#45;&gt;Node14 -->
<g id="edge13" class="edge"><title>Node1&#45;&gt;Node14</title>
<path fill="none" stroke="midnightblue" d="M352.857,-201.071C368.917,-180.449 397.538,-146.542 428,-124 432.843,-120.416 438.468,-117.216 443.913,-114.511"/>
<polygon fill="midnightblue" stroke="midnightblue" points="349.88,-199.203 346.588,-209.273 355.441,-203.454 349.88,-199.203"/>
</g>
<!-- Node15 -->
<g id="node15" class="node"><title>Node15</title>
<g id="a_node15"><a xlink:href="classumontreal_1_1ssj_1_1rng_1_1WELL512.html" target="_top" xlink:title="This class implements the RandomStream interface via inheritance from RandomStreamBase. ">
<polygon fill="none" stroke="black" points="438.5,-57.5 438.5,-76.5 497.5,-76.5 497.5,-57.5 438.5,-57.5"/>
<text text-anchor="middle" x="468" y="-64.5" font-family="Helvetica,sans-Serif" font-size="10.00">WELL512</text>
</a>
</g>
</g>
<!-- Node1&#45;&gt;Node15 -->
<g id="edge14" class="edge"><title>Node1&#45;&gt;Node15</title>
<path fill="none" stroke="midnightblue" d="M347.953,-200.27C361.399,-172.249 390.066,-119.17 428,-86 432.196,-82.3313 437.224,-79.196 442.254,-76.5922"/>
<polygon fill="midnightblue" stroke="midnightblue" points="344.761,-198.835 343.699,-209.377 351.103,-201.798 344.761,-198.835"/>
</g>
<!-- Node16 -->
<g id="node16" class="node"><title>Node16</title>
<g id="a_node16"><a xlink:href="classumontreal_1_1ssj_1_1rng_1_1WELL607base.html" target="_top" xlink:title="WELL607base">
<polygon fill="none" stroke="black" points="428,-19.5 428,-38.5 508,-38.5 508,-19.5 428,-19.5"/>
<text text-anchor="middle" x="468" y="-26.5" font-family="Helvetica,sans-Serif" font-size="10.00">WELL607base</text>
</a>
</g>
</g>
<!-- Node1&#45;&gt;Node16 -->
<g id="edge15" class="edge"><title>Node1&#45;&gt;Node16</title>
<path fill="none" stroke="midnightblue" d="M345.138,-199.331C355.958,-164.68 382.67,-92.2441 428,-48 431.773,-44.3175 436.398,-41.2283 441.128,-38.6832"/>
<polygon fill="midnightblue" stroke="midnightblue" points="341.707,-198.586 342.179,-209.17 348.41,-200.601 341.707,-198.586"/>
</g>
<!-- Node2 -->
<g id="node2" class="node"><title>Node2</title>
<g id="a_node2"><a xlink:href="interfaceumontreal_1_1ssj_1_1rng_1_1CloneableRandomStream.html" target="_top" xlink:title="CloneableRandomStream extends RandomStream and Cloneable. ">
<polygon fill="none" stroke="black" points="121,-228.5 121,-247.5 249,-247.5 249,-228.5 121,-228.5"/>
<text text-anchor="middle" x="185" y="-235.5" font-family="Helvetica,sans-Serif" font-size="10.00">CloneableRandomStream</text>
</a>
</g>
</g>
<!-- Node2&#45;&gt;Node1 -->
<g id="edge1" class="edge"><title>Node2&#45;&gt;Node1</title>
<path fill="none" stroke="midnightblue" d="M259.432,-228.791C268.04,-227.711 276.688,-226.627 284.931,-225.593"/>
<polygon fill="midnightblue" stroke="midnightblue" points="258.859,-225.335 249.372,-230.052 259.73,-232.281 258.859,-225.335"/>
</g>
<!-- Node3 -->
<g id="node3" class="node"><title>Node3</title>
<g id="a_node3"><a xlink:href="interfaceumontreal_1_1ssj_1_1rng_1_1RandomStream.html" target="_top" xlink:title="This interface defines the basic structures to handle multiple streams of uniform (pseudo)random numb...">
<polygon fill="none" stroke="black" points="0,-247.5 0,-266.5 85,-266.5 85,-247.5 0,-247.5"/>
<text text-anchor="middle" x="42.5" y="-254.5" font-family="Helvetica,sans-Serif" font-size="10.00">RandomStream</text>
</a>
</g>
</g>
<!-- Node3&#45;&gt;Node2 -->
<g id="edge2" class="edge"><title>Node3&#45;&gt;Node2</title>
<path fill="none" stroke="midnightblue" d="M95.2093,-250.007C103.535,-248.881 112.234,-247.705 120.793,-246.548"/>
<polygon fill="midnightblue" stroke="midnightblue" points="94.715,-246.542 85.2742,-251.351 95.6531,-253.479 94.715,-246.542"/>
</g>
<!-- Node4 -->
<g id="node4" class="node"><title>Node4</title>
<polygon fill="none" stroke="#bfbfbf" points="12.5,-209.5 12.5,-228.5 72.5,-228.5 72.5,-209.5 12.5,-209.5"/>
<text text-anchor="middle" x="42.5" y="-216.5" font-family="Helvetica,sans-Serif" font-size="10.00">Cloneable</text>
</g>
<!-- Node4&#45;&gt;Node2 -->
<g id="edge3" class="edge"><title>Node4&#45;&gt;Node2</title>
<path fill="none" stroke="midnightblue" d="M82.5895,-224.286C94.4289,-225.887 107.749,-227.689 120.747,-229.446"/>
<polygon fill="midnightblue" stroke="midnightblue" points="82.9906,-220.809 72.6117,-222.937 82.0524,-227.745 82.9906,-220.809"/>
</g>
<!-- Node5 -->
<g id="node5" class="node"><title>Node5</title>
<polygon fill="none" stroke="#bfbfbf" points="151.5,-190.5 151.5,-209.5 218.5,-209.5 218.5,-190.5 151.5,-190.5"/>
<text text-anchor="middle" x="185" y="-197.5" font-family="Helvetica,sans-Serif" font-size="10.00">Serializable</text>
</g>
<!-- Node5&#45;&gt;Node1 -->
<g id="edge4" class="edge"><title>Node5&#45;&gt;Node1</title>
<path fill="none" stroke="midnightblue" d="M228.909,-205.381C246.289,-207.561 266.529,-210.099 284.793,-212.39"/>
<polygon fill="midnightblue" stroke="midnightblue" points="228.858,-201.848 218.501,-204.076 227.987,-208.793 228.858,-201.848"/>
</g>
<!-- Node17 -->
<g id="node17" class="node"><title>Node17</title>
<g id="a_node17"><a xlink:href="classumontreal_1_1ssj_1_1rng_1_1F2NL607.html" target="_top" xlink:title="Implements the RandomStream interface by using as a backbone generator the combination of the WELL607...">
<polygon fill="none" stroke="black" points="545.5,-38.5 545.5,-57.5 601.5,-57.5 601.5,-38.5 545.5,-38.5"/>
<text text-anchor="middle" x="573.5" y="-45.5" font-family="Helvetica,sans-Serif" font-size="10.00">F2NL607</text>
</a>
</g>
</g>
<!-- Node16&#45;&gt;Node17 -->
<g id="edge16" class="edge"><title>Node16&#45;&gt;Node17</title>
<path fill="none" stroke="midnightblue" d="M518.141,-38.0211C527.463,-39.7323 536.897,-41.4641 545.23,-42.994"/>
<polygon fill="midnightblue" stroke="midnightblue" points="518.597,-34.5463 508.129,-36.1831 517.333,-41.4312 518.597,-34.5463"/>
</g>
<!-- Node18 -->
<g id="node18" class="node"><title>Node18</title>
<g id="a_node18"><a xlink:href="classumontreal_1_1ssj_1_1rng_1_1WELL607.html" target="_top" xlink:title="This class implements the RandomStream interface via inheritance from RandomStreamBase. ">
<polygon fill="none" stroke="black" points="544,-0.5 544,-19.5 603,-19.5 603,-0.5 544,-0.5"/>
<text text-anchor="middle" x="573.5" y="-7.5" font-family="Helvetica,sans-Serif" font-size="10.00">WELL607</text>
</a>
</g>
</g>
<!-- Node16&#45;&gt;Node18 -->
<g id="edge17" class="edge"><title>Node16&#45;&gt;Node18</title>
<path fill="none" stroke="midnightblue" d="M518.053,-19.995C526.933,-18.365 535.919,-16.7154 543.961,-15.239"/>
<polygon fill="midnightblue" stroke="midnightblue" points="517.333,-16.5688 508.129,-21.8169 518.597,-23.4537 517.333,-16.5688"/>
</g>
</g>
</svg>
