<?xml version="1.0" encoding="UTF-8" standalone="no"?>
<!DOCTYPE svg PUBLIC "-//W3C//DTD SVG 1.1//EN"
 "http://www.w3.org/Graphics/SVG/1.1/DTD/svg11.dtd">
<!-- Generated by graphviz version 2.38.0 (20140413.2041)
 -->
<!-- Title: ExponentialInverseFromDensityGen Pages: 1 -->
<svg width="201pt" height="209pt"
 viewBox="0.00 0.00 201.00 209.00" xmlns="http://www.w3.org/2000/svg" xmlns:xlink="http://www.w3.org/1999/xlink">
<g id="graph0" class="graph" transform="scale(1 1) rotate(0) translate(4 205)">
<title>ExponentialInverseFromDensityGen</title>
<!-- Node1 -->
<g id="node1" class="node"><title>Node1</title>
<polygon fill="#bfbfbf" stroke="black" points="0,-0.5 0,-19.5 192,-19.5 192,-0.5 0,-0.5"/>
<text text-anchor="middle" x="96" y="-7.5" font-family="Helvetica,sans-Serif" font-size="10.00">ExponentialInverseFromDensityGen</text>
</g>
<!-- Node2 -->
<g id="node2" class="node"><title>Node2</title>
<g id="a_node2"><a xlink:href="classumontreal_1_1ssj_1_1randvar_1_1ExponentialGen.html" target="_top" xlink:title="This class implements random variate generators for the exponential distribution. ...">
<polygon fill="none" stroke="black" points="49,-57.5 49,-76.5 143,-76.5 143,-57.5 49,-57.5"/>
<text text-anchor="middle" x="96" y="-64.5" font-family="Helvetica,sans-Serif" font-size="10.00">ExponentialGen</text>
</a>
</g>
</g>
<!-- Node2&#45;&gt;Node1 -->
<g id="edge1" class="edge"><title>Node2&#45;&gt;Node1</title>
<path fill="none" stroke="midnightblue" d="M96,-47.1166C96,-37.8173 96,-27.0557 96,-19.7149"/>
<polygon fill="midnightblue" stroke="midnightblue" points="92.5001,-47.4062 96,-57.4062 99.5001,-47.4063 92.5001,-47.4062"/>
</g>
<!-- Node3 -->
<g id="node3" class="node"><title>Node3</title>
<g id="a_node3"><a xlink:href="classumontreal_1_1ssj_1_1randvar_1_1RandomVariateGen.html" target="_top" xlink:title="This is the base class for all random variate generators over the real line. ">
<polygon fill="none" stroke="black" points="40,-114.5 40,-133.5 152,-133.5 152,-114.5 40,-114.5"/>
<text text-anchor="middle" x="96" y="-121.5" font-family="Helvetica,sans-Serif" font-size="10.00">RandomVariateGen</text>
</a>
</g>
</g>
<!-- Node3&#45;&gt;Node2 -->
<g id="edge2" class="edge"><title>Node3&#45;&gt;Node2</title>
<path fill="none" stroke="midnightblue" d="M96,-104.117C96,-94.8173 96,-84.0557 96,-76.7149"/>
<polygon fill="midnightblue" stroke="midnightblue" points="92.5001,-104.406 96,-114.406 99.5001,-104.406 92.5001,-104.406"/>
</g>
<!-- Node4 -->
<g id="node4" class="node"><title>Node4</title>
<g id="a_node4"><a xlink:href="interfaceumontreal_1_1ssj_1_1probdist_1_1Distribution.html" target="_top" xlink:title="This interface should be implemented by all classes supporting discrete and continuous distributions...">
<polygon fill="none" stroke="black" points="9,-181.5 9,-200.5 83,-200.5 83,-181.5 9,-181.5"/>
<text text-anchor="middle" x="46" y="-188.5" font-family="Helvetica,sans-Serif" font-size="10.00">Distribution</text>
</a>
</g>
</g>
<!-- Node4&#45;&gt;Node3 -->
<g id="edge3" class="edge"><title>Node4&#45;&gt;Node3</title>
<path fill="none" stroke="#9a32cd" stroke-dasharray="5,2" d="M58.8689,-173.27C68.6175,-160.597 81.6147,-143.701 89.3636,-133.627"/>
<polygon fill="#9a32cd" stroke="#9a32cd" points="56.0662,-171.174 52.7432,-181.234 61.6146,-175.442 56.0662,-171.174"/>
<text text-anchor="middle" x="85" y="-155" font-family="Helvetica,sans-Serif" font-size="10.00"> dist</text>
</g>
<!-- Node5 -->
<g id="node5" class="node"><title>Node5</title>
<g id="a_node5"><a xlink:href="interfaceumontreal_1_1ssj_1_1rng_1_1RandomStream.html" target="_top" xlink:title="This interface defines the basic structures to handle multiple streams of uniform (pseudo)random numb...">
<polygon fill="none" stroke="black" points="101,-181.5 101,-200.5 193,-200.5 193,-181.5 101,-181.5"/>
<text text-anchor="middle" x="147" y="-188.5" font-family="Helvetica,sans-Serif" font-size="10.00">RandomStream</text>
</a>
</g>
</g>
<!-- Node5&#45;&gt;Node3 -->
<g id="edge4" class="edge"><title>Node5&#45;&gt;Node3</title>
<path fill="none" stroke="#9a32cd" stroke-dasharray="5,2" d="M133.874,-173.27C123.93,-160.597 110.673,-143.701 102.769,-133.627"/>
<polygon fill="#9a32cd" stroke="#9a32cd" points="131.195,-175.527 140.122,-181.234 136.703,-171.206 131.195,-175.527"/>
<text text-anchor="middle" x="143" y="-155" font-family="Helvetica,sans-Serif" font-size="10.00"> stream</text>
</g>
</g>
</svg>
