<?xml version="1.0" encoding="UTF-8" standalone="no"?>
<!DOCTYPE svg PUBLIC "-//W3C//DTD SVG 1.1//EN"
 "http://www.w3.org/Graphics/SVG/1.1/DTD/svg11.dtd">
<!-- Generated by graphviz version 2.38.0 (20140413.2041)
 -->
<!-- Title: Event Pages: 1 -->
<svg width="290pt" height="219pt"
 viewBox="0.00 0.00 289.50 219.00" xmlns="http://www.w3.org/2000/svg" xmlns:xlink="http://www.w3.org/1999/xlink">
<g id="graph0" class="graph" transform="scale(1 1) rotate(0) translate(4 215)">
<title>Event</title>
<!-- Node1 -->
<g id="node1" class="node"><title>Node1</title>
<polygon fill="#bfbfbf" stroke="black" points="69.5,-0.5 69.5,-19.5 111.5,-19.5 111.5,-0.5 69.5,-0.5"/>
<text text-anchor="middle" x="90.5" y="-7.5" font-family="Helvetica,sans-Serif" font-size="10.00">Event</text>
</g>
<!-- Node2 -->
<g id="node2" class="node"><title>Node2</title>
<polygon fill="none" stroke="#bfbfbf" points="0,-67.5 0,-86.5 113,-86.5 113,-67.5 0,-67.5"/>
<text text-anchor="middle" x="56.5" y="-74.5" font-family="Helvetica,sans-Serif" font-size="10.00">Comparable&lt; Event &gt;</text>
</g>
<!-- Node2&#45;&gt;Node1 -->
<g id="edge1" class="edge"><title>Node2&#45;&gt;Node1</title>
<path fill="none" stroke="midnightblue" d="M65.8299,-58.1635C72.3868,-45.6281 80.87,-29.4104 85.9873,-19.6273"/>
<polygon fill="midnightblue" stroke="midnightblue" points="62.6191,-56.7506 61.0854,-67.2338 68.8218,-59.9951 62.6191,-56.7506"/>
</g>
<!-- Node3 -->
<g id="node3" class="node"><title>Node3</title>
<g id="a_node3"><a xlink:href="classumontreal_1_1ssj_1_1simevents_1_1Simulator.html" target="_top" xlink:title="Represents the executive of a discrete&#45;event simulator. ">
<polygon fill="none" stroke="black" points="131.5,-67.5 131.5,-86.5 189.5,-86.5 189.5,-67.5 131.5,-67.5"/>
<text text-anchor="middle" x="160.5" y="-74.5" font-family="Helvetica,sans-Serif" font-size="10.00">Simulator</text>
</a>
</g>
</g>
<!-- Node3&#45;&gt;Node1 -->
<g id="edge2" class="edge"><title>Node3&#45;&gt;Node1</title>
<path fill="none" stroke="#9a32cd" stroke-dasharray="5,2" d="M143.653,-60.3564C129.891,-47.5777 110.952,-29.9915 99.7909,-19.6273"/>
<polygon fill="#9a32cd" stroke="#9a32cd" points="141.35,-62.9941 151.059,-67.2338 146.113,-57.8645 141.35,-62.9941"/>
<text text-anchor="middle" x="139" y="-41" font-family="Helvetica,sans-Serif" font-size="10.00"> sim</text>
</g>
<!-- Node3&#45;&gt;Node3 -->
<g id="edge3" class="edge"><title>Node3&#45;&gt;Node3</title>
<path fill="none" stroke="#9a32cd" stroke-dasharray="5,2" d="M200.103,-82.0845C204.591,-81.1323 207.5,-79.4375 207.5,-77 207.5,-73 199.667,-71 189.875,-71"/>
<polygon fill="#9a32cd" stroke="#9a32cd" points="199.523,-78.6223 189.875,-83 200.147,-85.5944 199.523,-78.6223"/>
<text text-anchor="middle" x="244.5" y="-74.5" font-family="Helvetica,sans-Serif" font-size="10.00"> defaultSimulator</text>
</g>
<!-- Node4 -->
<g id="node4" class="node"><title>Node4</title>
<g id="a_node4"><a xlink:href="interfaceumontreal_1_1ssj_1_1simevents_1_1eventlist_1_1EventList.html" target="_top" xlink:title="An interface for implementations of event lists. ">
<polygon fill="none" stroke="black" points="79.5,-134.5 79.5,-153.5 137.5,-153.5 137.5,-134.5 79.5,-134.5"/>
<text text-anchor="middle" x="108.5" y="-141.5" font-family="Helvetica,sans-Serif" font-size="10.00">EventList</text>
</a>
</g>
</g>
<!-- Node4&#45;&gt;Node3 -->
<g id="edge4" class="edge"><title>Node4&#45;&gt;Node3</title>
<path fill="none" stroke="#9a32cd" stroke-dasharray="5,2" d="M117.19,-125.387C120.868,-118.7 125.467,-111.206 130.5,-105 136.061,-98.1426 143.415,-91.4947 149.451,-86.5113"/>
<polygon fill="#9a32cd" stroke="#9a32cd" points="114.031,-123.877 112.519,-134.363 120.24,-127.108 114.031,-123.877"/>
<text text-anchor="middle" x="152" y="-108" font-family="Helvetica,sans-Serif" font-size="10.00"> eventList</text>
</g>
<!-- Node5 -->
<g id="node5" class="node"><title>Node5</title>
<polygon fill="none" stroke="#bfbfbf" points="62.5,-191.5 62.5,-210.5 154.5,-210.5 154.5,-191.5 62.5,-191.5"/>
<text text-anchor="middle" x="108.5" y="-198.5" font-family="Helvetica,sans-Serif" font-size="10.00">Iterable&lt; Event &gt;</text>
</g>
<!-- Node5&#45;&gt;Node4 -->
<g id="edge5" class="edge"><title>Node5&#45;&gt;Node4</title>
<path fill="none" stroke="midnightblue" d="M108.5,-181.117C108.5,-171.817 108.5,-161.056 108.5,-153.715"/>
<polygon fill="midnightblue" stroke="midnightblue" points="105,-181.406 108.5,-191.406 112,-181.406 105,-181.406"/>
</g>
<!-- Node6 -->
<g id="node6" class="node"><title>Node6</title>
<g id="a_node6"><a xlink:href="classumontreal_1_1ssj_1_1simevents_1_1ContinuousState.html" target="_top" xlink:title="Represents the portion of the simulator’s state associated with continuous&#45;time simulation. ">
<polygon fill="none" stroke="black" points="155,-134.5 155,-153.5 244,-153.5 244,-134.5 155,-134.5"/>
<text text-anchor="middle" x="199.5" y="-141.5" font-family="Helvetica,sans-Serif" font-size="10.00">ContinuousState</text>
</a>
</g>
</g>
<!-- Node6&#45;&gt;Node3 -->
<g id="edge6" class="edge"><title>Node6&#45;&gt;Node3</title>
<path fill="none" stroke="#9a32cd" stroke-dasharray="5,2" d="M189.021,-125.535C181.47,-112.95 171.604,-96.5072 165.676,-86.6273"/>
<polygon fill="#9a32cd" stroke="#9a32cd" points="186.094,-127.46 194.24,-134.234 192.097,-123.858 186.094,-127.46"/>
<text text-anchor="middle" x="218.5" y="-108" font-family="Helvetica,sans-Serif" font-size="10.00"> continuousState</text>
</g>
</g>
</svg>
