<?xml version="1.0" encoding="UTF-8" standalone="no"?>
<!DOCTYPE svg PUBLIC "-//W3C//DTD SVG 1.1//EN"
 "http://www.w3.org/Graphics/SVG/1.1/DTD/svg11.dtd">
<!-- Generated by graphviz version 2.38.0 (20140413.2041)
 -->
<!-- Title: DigitalNet Pages: 1 -->
<svg width="584pt" height="252pt"
 viewBox="0.00 0.00 584.00 252.00" xmlns="http://www.w3.org/2000/svg" xmlns:xlink="http://www.w3.org/1999/xlink">
<g id="graph0" class="graph" transform="scale(1 1) rotate(0) translate(4 248)">
<title>DigitalNet</title>
<!-- Node1 -->
<g id="node1" class="node"><title>Node1</title>
<polygon fill="#bfbfbf" stroke="black" points="391,-168.5 391,-187.5 451,-187.5 451,-168.5 391,-168.5"/>
<text text-anchor="middle" x="421" y="-175.5" font-family="Helvetica,sans-Serif" font-size="10.00">DigitalNet</text>
</g>
<!-- Node3 -->
<g id="node3" class="node"><title>Node3</title>
<g id="a_node3"><a xlink:href="classumontreal_1_1ssj_1_1hups_1_1DigitalNetBase2.html" target="_top" xlink:title="A special case of DigitalNet for the base . ">
<polygon fill="none" stroke="black" points="266,-112.5 266,-131.5 354,-131.5 354,-112.5 266,-112.5"/>
<text text-anchor="middle" x="310" y="-119.5" font-family="Helvetica,sans-Serif" font-size="10.00">DigitalNetBase2</text>
</a>
</g>
</g>
<!-- Node1&#45;&gt;Node3 -->
<g id="edge2" class="edge"><title>Node1&#45;&gt;Node3</title>
<path fill="none" stroke="midnightblue" d="M393.995,-163.862C373.412,-153.849 345.655,-140.346 327.79,-131.655"/>
<polygon fill="midnightblue" stroke="midnightblue" points="392.642,-167.097 403.166,-168.324 395.705,-160.802 392.642,-167.097"/>
</g>
<!-- Node11 -->
<g id="node11" class="node"><title>Node11</title>
<g id="a_node11"><a xlink:href="classumontreal_1_1ssj_1_1hups_1_1DigitalNetFromFile.html" target="_top" xlink:title="This class allows us to read the parameters defining a digital net either from a file, or from a URL address on the World Wide Web. ">
<polygon fill="none" stroke="black" points="372,-112.5 372,-131.5 470,-131.5 470,-112.5 372,-112.5"/>
<text text-anchor="middle" x="421" y="-119.5" font-family="Helvetica,sans-Serif" font-size="10.00">DigitalNetFromFile</text>
</a>
</g>
</g>
<!-- Node1&#45;&gt;Node11 -->
<g id="edge10" class="edge"><title>Node1&#45;&gt;Node11</title>
<path fill="none" stroke="midnightblue" d="M421,-157.805C421,-148.91 421,-138.78 421,-131.751"/>
<polygon fill="midnightblue" stroke="midnightblue" points="417.5,-158.083 421,-168.083 424.5,-158.083 417.5,-158.083"/>
</g>
<!-- Node12 -->
<g id="node12" class="node"><title>Node12</title>
<g id="a_node12"><a xlink:href="classumontreal_1_1ssj_1_1hups_1_1DigitalSequence.html" target="_top" xlink:title="This abstract class describes methods specific to digital sequences. ">
<polygon fill="none" stroke="black" points="488,-112.5 488,-131.5 576,-131.5 576,-112.5 488,-112.5"/>
<text text-anchor="middle" x="532" y="-119.5" font-family="Helvetica,sans-Serif" font-size="10.00">DigitalSequence</text>
</a>
</g>
</g>
<!-- Node1&#45;&gt;Node12 -->
<g id="edge11" class="edge"><title>Node1&#45;&gt;Node12</title>
<path fill="none" stroke="midnightblue" d="M448.005,-163.862C468.588,-153.849 496.345,-140.346 514.21,-131.655"/>
<polygon fill="midnightblue" stroke="midnightblue" points="446.295,-160.802 438.834,-168.324 449.358,-167.097 446.295,-160.802"/>
</g>
<!-- Node2 -->
<g id="node2" class="node"><title>Node2</title>
<g id="a_node2"><a xlink:href="classumontreal_1_1ssj_1_1hups_1_1PointSet.html" target="_top" xlink:title="This abstract class defines the basic methods for accessing and manipulating point sets...">
<polygon fill="none" stroke="black" points="394,-224.5 394,-243.5 448,-243.5 448,-224.5 394,-224.5"/>
<text text-anchor="middle" x="421" y="-231.5" font-family="Helvetica,sans-Serif" font-size="10.00">PointSet</text>
</a>
</g>
</g>
<!-- Node2&#45;&gt;Node1 -->
<g id="edge1" class="edge"><title>Node2&#45;&gt;Node1</title>
<path fill="none" stroke="midnightblue" d="M421,-213.805C421,-204.91 421,-194.78 421,-187.751"/>
<polygon fill="midnightblue" stroke="midnightblue" points="417.5,-214.083 421,-224.083 424.5,-214.083 417.5,-214.083"/>
</g>
<!-- Node4 -->
<g id="node4" class="node"><title>Node4</title>
<g id="a_node4"><a xlink:href="classumontreal_1_1ssj_1_1hups_1_1DigitalNetBase2FromFile.html" target="_top" xlink:title="This class allows us to read the parameters defining a digital net in base 2 either from a file...">
<polygon fill="none" stroke="black" points="0,-56.5 0,-75.5 126,-75.5 126,-56.5 0,-56.5"/>
<text text-anchor="middle" x="63" y="-63.5" font-family="Helvetica,sans-Serif" font-size="10.00">DigitalNetBase2FromFile</text>
</a>
</g>
</g>
<!-- Node3&#45;&gt;Node4 -->
<g id="edge3" class="edge"><title>Node3&#45;&gt;Node4</title>
<path fill="none" stroke="midnightblue" d="M260.973,-110.281C214.296,-100.077 144.969,-84.9203 101.955,-75.5164"/>
<polygon fill="midnightblue" stroke="midnightblue" points="260.345,-113.727 270.862,-112.444 261.84,-106.888 260.345,-113.727"/>
</g>
<!-- Node5 -->
<g id="node5" class="node"><title>Node5</title>
<g id="a_node5"><a xlink:href="classumontreal_1_1ssj_1_1hups_1_1DigitalSequenceBase2.html" target="_top" xlink:title="This abstract class describes methods specific to digital sequences in base 2. ">
<polygon fill="none" stroke="black" points="144,-56.5 144,-75.5 260,-75.5 260,-56.5 144,-56.5"/>
<text text-anchor="middle" x="202" y="-63.5" font-family="Helvetica,sans-Serif" font-size="10.00">DigitalSequenceBase2</text>
</a>
</g>
</g>
<!-- Node3&#45;&gt;Node5 -->
<g id="edge4" class="edge"><title>Node3&#45;&gt;Node5</title>
<path fill="none" stroke="midnightblue" d="M283.452,-107.726C263.454,-97.7271 236.613,-84.3065 219.309,-75.6545"/>
<polygon fill="midnightblue" stroke="midnightblue" points="282.138,-110.982 292.648,-112.324 285.269,-104.721 282.138,-110.982"/>
</g>
<!-- Node9 -->
<g id="node9" class="node"><title>Node9</title>
<g id="a_node9"><a xlink:href="classumontreal_1_1ssj_1_1hups_1_1F2wNetLFSR.html" target="_top" xlink:title="This class implements a digital net in base 2 starting from a linear feedback shift register generato...">
<polygon fill="none" stroke="black" points="278.5,-56.5 278.5,-75.5 355.5,-75.5 355.5,-56.5 278.5,-56.5"/>
<text text-anchor="middle" x="317" y="-63.5" font-family="Helvetica,sans-Serif" font-size="10.00">F2wNetLFSR</text>
</a>
</g>
</g>
<!-- Node3&#45;&gt;Node9 -->
<g id="edge8" class="edge"><title>Node3&#45;&gt;Node9</title>
<path fill="none" stroke="midnightblue" d="M312.45,-102.101C313.612,-93.1357 314.944,-82.8579 315.866,-75.7511"/>
<polygon fill="midnightblue" stroke="midnightblue" points="308.971,-101.716 311.156,-112.083 315.912,-102.616 308.971,-101.716"/>
</g>
<!-- Node10 -->
<g id="node10" class="node"><title>Node10</title>
<g id="a_node10"><a xlink:href="classumontreal_1_1ssj_1_1hups_1_1F2wNetPolyLCG.html" target="_top" xlink:title="This class implements a digital net in base 2 starting from a polynomial LCG in . ...">
<polygon fill="none" stroke="black" points="373.5,-56.5 373.5,-75.5 464.5,-75.5 464.5,-56.5 373.5,-56.5"/>
<text text-anchor="middle" x="419" y="-63.5" font-family="Helvetica,sans-Serif" font-size="10.00">F2wNetPolyLCG</text>
</a>
</g>
</g>
<!-- Node3&#45;&gt;Node10 -->
<g id="edge9" class="edge"><title>Node3&#45;&gt;Node10</title>
<path fill="none" stroke="midnightblue" d="M336.519,-107.862C356.73,-97.8492 383.987,-84.3458 401.531,-75.6545"/>
<polygon fill="midnightblue" stroke="midnightblue" points="334.92,-104.748 327.513,-112.324 338.027,-111.021 334.92,-104.748"/>
</g>
<!-- Node6 -->
<g id="node6" class="node"><title>Node6</title>
<g id="a_node6"><a xlink:href="classumontreal_1_1ssj_1_1hups_1_1NiedSequenceBase2.html" target="_top" xlink:title="This class implements digital sequences constructed from the Niederreiter sequence in base 2...">
<polygon fill="none" stroke="black" points="12,-0.5 12,-19.5 120,-19.5 120,-0.5 12,-0.5"/>
<text text-anchor="middle" x="66" y="-7.5" font-family="Helvetica,sans-Serif" font-size="10.00">NiedSequenceBase2</text>
</a>
</g>
</g>
<!-- Node5&#45;&gt;Node6 -->
<g id="edge5" class="edge"><title>Node5&#45;&gt;Node6</title>
<path fill="none" stroke="midnightblue" d="M170.865,-52.6377C145.343,-42.504 109.891,-28.4274 87.4488,-19.5164"/>
<polygon fill="midnightblue" stroke="midnightblue" points="169.865,-56.0061 180.45,-56.4435 172.448,-49.5002 169.865,-56.0061"/>
</g>
<!-- Node7 -->
<g id="node7" class="node"><title>Node7</title>
<g id="a_node7"><a xlink:href="classumontreal_1_1ssj_1_1hups_1_1NiedXingSequenceBase2.html" target="_top" xlink:title="This class implements digital sequences based on the Niederreiter&#45;Xing sequence in base 2...">
<polygon fill="none" stroke="black" points="138,-0.5 138,-19.5 266,-19.5 266,-0.5 138,-0.5"/>
<text text-anchor="middle" x="202" y="-7.5" font-family="Helvetica,sans-Serif" font-size="10.00">NiedXingSequenceBase2</text>
</a>
</g>
</g>
<!-- Node5&#45;&gt;Node7 -->
<g id="edge6" class="edge"><title>Node5&#45;&gt;Node7</title>
<path fill="none" stroke="midnightblue" d="M202,-45.8045C202,-36.9102 202,-26.7798 202,-19.7511"/>
<polygon fill="midnightblue" stroke="midnightblue" points="198.5,-46.083 202,-56.083 205.5,-46.083 198.5,-46.083"/>
</g>
<!-- Node8 -->
<g id="node8" class="node"><title>Node8</title>
<g id="a_node8"><a xlink:href="classumontreal_1_1ssj_1_1hups_1_1SobolSequence.html" target="_top" xlink:title="This class implements digital nets or digital sequences in base 2 formed by the first &#160;points of a So...">
<polygon fill="none" stroke="black" points="284.5,-0.5 284.5,-19.5 369.5,-19.5 369.5,-0.5 284.5,-0.5"/>
<text text-anchor="middle" x="327" y="-7.5" font-family="Helvetica,sans-Serif" font-size="10.00">SobolSequence</text>
</a>
</g>
</g>
<!-- Node5&#45;&gt;Node8 -->
<g id="edge7" class="edge"><title>Node5&#45;&gt;Node8</title>
<path fill="none" stroke="midnightblue" d="M231.241,-52.3678C254.65,-42.2553 286.841,-28.3486 307.286,-19.5164"/>
<polygon fill="midnightblue" stroke="midnightblue" points="229.599,-49.2647 221.807,-56.4435 232.375,-55.6907 229.599,-49.2647"/>
</g>
<!-- Node13 -->
<g id="node13" class="node"><title>Node13</title>
<g id="a_node13"><a xlink:href="classumontreal_1_1ssj_1_1hups_1_1FaureSequence.html" target="_top" xlink:title="This class implements digital nets or digital sequences formed by the first &#160;points of the Faure sequ...">
<polygon fill="none" stroke="black" points="489.5,-56.5 489.5,-75.5 574.5,-75.5 574.5,-56.5 489.5,-56.5"/>
<text text-anchor="middle" x="532" y="-63.5" font-family="Helvetica,sans-Serif" font-size="10.00">FaureSequence</text>
</a>
</g>
</g>
<!-- Node12&#45;&gt;Node13 -->
<g id="edge12" class="edge"><title>Node12&#45;&gt;Node13</title>
<path fill="none" stroke="midnightblue" d="M532,-101.805C532,-92.9102 532,-82.7798 532,-75.7511"/>
<polygon fill="midnightblue" stroke="midnightblue" points="528.5,-102.083 532,-112.083 535.5,-102.083 528.5,-102.083"/>
</g>
</g>
</svg>
