<?xml version="1.0" encoding="UTF-8" standalone="no"?>
<!DOCTYPE svg PUBLIC "-//W3C//DTD SVG 1.1//EN"
 "http://www.w3.org/Graphics/SVG/1.1/DTD/svg11.dtd">
<!-- Generated by graphviz version 2.38.0 (20140413.2041)
 -->
<!-- Title: LognormalSpecialGen Pages: 1 -->
<svg width="192pt" height="219pt"
 viewBox="0.00 0.00 192.00 219.00" xmlns="http://www.w3.org/2000/svg" xmlns:xlink="http://www.w3.org/1999/xlink">
<g id="graph0" class="graph" transform="scale(1 1) rotate(0) translate(4 215)">
<title>LognormalSpecialGen</title>
<!-- Node1 -->
<g id="node1" class="node"><title>Node1</title>
<polygon fill="#bfbfbf" stroke="black" points="37.5,-0.5 37.5,-19.5 160.5,-19.5 160.5,-0.5 37.5,-0.5"/>
<text text-anchor="middle" x="99" y="-7.5" font-family="Helvetica,sans-Serif" font-size="10.00">LognormalSpecialGen</text>
</g>
<!-- Node2 -->
<g id="node2" class="node"><title>Node2</title>
<g id="a_node2"><a xlink:href="classumontreal_1_1ssj_1_1randvar_1_1RandomVariateGen.html" target="_top" xlink:title="This is the base class for all random variate generators over the real line. ">
<polygon fill="none" stroke="black" points="31,-124.5 31,-143.5 143,-143.5 143,-124.5 31,-124.5"/>
<text text-anchor="middle" x="87" y="-131.5" font-family="Helvetica,sans-Serif" font-size="10.00">RandomVariateGen</text>
</a>
</g>
</g>
<!-- Node2&#45;&gt;Node1 -->
<g id="edge1" class="edge"><title>Node2&#45;&gt;Node1</title>
<path fill="none" stroke="midnightblue" d="M88.85,-114.191C91.4855,-87.3972 96.215,-39.314 98.1448,-19.6944"/>
<polygon fill="midnightblue" stroke="midnightblue" points="85.3588,-113.931 87.863,-124.226 92.3252,-114.617 85.3588,-113.931"/>
</g>
<!-- Node5 -->
<g id="node5" class="node"><title>Node5</title>
<g id="a_node5"><a xlink:href="classumontreal_1_1ssj_1_1randvar_1_1NormalGen.html" target="_top" xlink:title="This class implements methods for generating random variates from the normal distribution ...">
<polygon fill="none" stroke="black" points="103,-67.5 103,-86.5 175,-86.5 175,-67.5 103,-67.5"/>
<text text-anchor="middle" x="139" y="-74.5" font-family="Helvetica,sans-Serif" font-size="10.00">NormalGen</text>
</a>
</g>
</g>
<!-- Node2&#45;&gt;Node5 -->
<g id="edge5" class="edge"><title>Node2&#45;&gt;Node5</title>
<path fill="none" stroke="midnightblue" d="M102.011,-117.123C111.37,-107.224 123.057,-94.8624 130.76,-86.7149"/>
<polygon fill="midnightblue" stroke="midnightblue" points="99.4519,-114.735 95.125,-124.406 104.538,-119.544 99.4519,-114.735"/>
</g>
<!-- Node3 -->
<g id="node3" class="node"><title>Node3</title>
<g id="a_node3"><a xlink:href="interfaceumontreal_1_1ssj_1_1probdist_1_1Distribution.html" target="_top" xlink:title="This interface should be implemented by all classes supporting discrete and continuous distributions...">
<polygon fill="none" stroke="black" points="0,-191.5 0,-210.5 74,-210.5 74,-191.5 0,-191.5"/>
<text text-anchor="middle" x="37" y="-198.5" font-family="Helvetica,sans-Serif" font-size="10.00">Distribution</text>
</a>
</g>
</g>
<!-- Node3&#45;&gt;Node2 -->
<g id="edge2" class="edge"><title>Node3&#45;&gt;Node2</title>
<path fill="none" stroke="#9a32cd" stroke-dasharray="5,2" d="M49.8689,-183.27C59.6175,-170.597 72.6147,-153.701 80.3636,-143.627"/>
<polygon fill="#9a32cd" stroke="#9a32cd" points="47.0662,-181.174 43.7432,-191.234 52.6146,-185.442 47.0662,-181.174"/>
<text text-anchor="middle" x="76" y="-165" font-family="Helvetica,sans-Serif" font-size="10.00"> dist</text>
</g>
<!-- Node4 -->
<g id="node4" class="node"><title>Node4</title>
<g id="a_node4"><a xlink:href="interfaceumontreal_1_1ssj_1_1rng_1_1RandomStream.html" target="_top" xlink:title="This interface defines the basic structures to handle multiple streams of uniform (pseudo)random numb...">
<polygon fill="none" stroke="black" points="92,-191.5 92,-210.5 184,-210.5 184,-191.5 92,-191.5"/>
<text text-anchor="middle" x="138" y="-198.5" font-family="Helvetica,sans-Serif" font-size="10.00">RandomStream</text>
</a>
</g>
</g>
<!-- Node4&#45;&gt;Node2 -->
<g id="edge3" class="edge"><title>Node4&#45;&gt;Node2</title>
<path fill="none" stroke="#9a32cd" stroke-dasharray="5,2" d="M124.874,-183.27C114.93,-170.597 101.673,-153.701 93.7691,-143.627"/>
<polygon fill="#9a32cd" stroke="#9a32cd" points="122.195,-185.527 131.122,-191.234 127.703,-181.206 122.195,-185.527"/>
<text text-anchor="middle" x="134" y="-165" font-family="Helvetica,sans-Serif" font-size="10.00"> stream</text>
</g>
<!-- Node5&#45;&gt;Node1 -->
<g id="edge4" class="edge"><title>Node5&#45;&gt;Node1</title>
<path fill="none" stroke="#9a32cd" stroke-dasharray="5,2" d="M128.252,-58.5347C120.508,-45.9499 110.389,-29.5072 104.309,-19.6273"/>
<polygon fill="#9a32cd" stroke="#9a32cd" points="125.384,-60.5516 133.605,-67.2338 131.345,-56.8829 125.384,-60.5516"/>
<text text-anchor="middle" x="140.5" y="-41" font-family="Helvetica,sans-Serif" font-size="10.00"> myGen</text>
</g>
</g>
</svg>
