<?xml version="1.0" encoding="UTF-8" standalone="no"?>
<!DOCTYPE svg PUBLIC "-//W3C//DTD SVG 1.1//EN"
 "http://www.w3.org/Graphics/SVG/1.1/DTD/svg11.dtd">
<!-- Generated by graphviz version 2.38.0 (20140413.2041)
 -->
<!-- Title: QueueEv Pages: 1 -->
<svg width="479pt" height="184pt"
 viewBox="0.00 0.00 479.00 184.00" xmlns="http://www.w3.org/2000/svg" xmlns:xlink="http://www.w3.org/1999/xlink">
<g id="graph0" class="graph" transform="scale(1 1) rotate(0) translate(4 180)">
<title>QueueEv</title>
<!-- Node1 -->
<g id="node1" class="node"><title>Node1</title>
<polygon fill="#bfbfbf" stroke="black" points="238,-0.5 238,-19.5 295,-19.5 295,-0.5 238,-0.5"/>
<text text-anchor="middle" x="266.5" y="-7.5" font-family="Helvetica,sans-Serif" font-size="10.00">QueueEv</text>
</g>
<!-- Node2 -->
<g id="node2" class="node"><title>Node2</title>
<g id="a_node2"><a xlink:href="classumontreal_1_1ssj_1_1randvar_1_1RandomVariateGen.html" target="_top" xlink:title="This is the base class for all random variate generators over the real line. ">
<polygon fill="none" stroke="black" points="77.5,-84 77.5,-103 179.5,-103 179.5,-84 77.5,-84"/>
<text text-anchor="middle" x="128.5" y="-91" font-family="Helvetica,sans-Serif" font-size="10.00">RandomVariateGen</text>
</a>
</g>
</g>
<!-- Node2&#45;&gt;Node1 -->
<g id="edge1" class="edge"><title>Node2&#45;&gt;Node1</title>
<path fill="none" stroke="#9a32cd" stroke-dasharray="5,2" d="M144.31,-76.5394C156.791,-64.6435 175.113,-48.675 193.5,-38 207.29,-29.9943 223.877,-23.6323 237.753,-19.0997"/>
<polygon fill="#9a32cd" stroke="#9a32cd" points="141.716,-74.1804 137.009,-83.6721 146.608,-79.1875 141.716,-74.1804"/>
<text text-anchor="middle" x="212" y="-52" font-family="Helvetica,sans-Serif" font-size="10.00"> genArr</text>
<text text-anchor="middle" x="212" y="-41" font-family="Helvetica,sans-Serif" font-size="10.00">genServ</text>
</g>
<!-- Node3 -->
<g id="node3" class="node"><title>Node3</title>
<g id="a_node3"><a xlink:href="interfaceumontreal_1_1ssj_1_1probdist_1_1Distribution.html" target="_top" xlink:title="This interface should be implemented by all classes supporting discrete and continuous distributions...">
<polygon fill="none" stroke="black" points="103.5,-156.5 103.5,-175.5 169.5,-175.5 169.5,-156.5 103.5,-156.5"/>
<text text-anchor="middle" x="136.5" y="-163.5" font-family="Helvetica,sans-Serif" font-size="10.00">Distribution</text>
</a>
</g>
</g>
<!-- Node3&#45;&gt;Node2 -->
<g id="edge2" class="edge"><title>Node3&#45;&gt;Node2</title>
<path fill="none" stroke="#9a32cd" stroke-dasharray="5,2" d="M134.385,-146.358C132.8,-132.395 130.704,-113.926 129.489,-103.215"/>
<polygon fill="#9a32cd" stroke="#9a32cd" points="130.914,-146.814 135.519,-156.355 137.869,-146.024 130.914,-146.814"/>
<text text-anchor="middle" x="143" y="-130" font-family="Helvetica,sans-Serif" font-size="10.00"> dist</text>
</g>
<!-- Node4 -->
<g id="node4" class="node"><title>Node4</title>
<g id="a_node4"><a xlink:href="interfaceumontreal_1_1ssj_1_1rng_1_1RandomStream.html" target="_top" xlink:title="This interface defines the basic structures to handle multiple streams of uniform (pseudo)random numb...">
<polygon fill="none" stroke="black" points="0,-156.5 0,-175.5 85,-175.5 85,-156.5 0,-156.5"/>
<text text-anchor="middle" x="42.5" y="-163.5" font-family="Helvetica,sans-Serif" font-size="10.00">RandomStream</text>
</a>
</g>
</g>
<!-- Node4&#45;&gt;Node2 -->
<g id="edge3" class="edge"><title>Node4&#45;&gt;Node2</title>
<path fill="none" stroke="#9a32cd" stroke-dasharray="5,2" d="M60.8289,-149.975C78.1826,-135.749 103.638,-114.881 117.868,-103.215"/>
<polygon fill="#9a32cd" stroke="#9a32cd" points="58.56,-147.309 53.0453,-156.355 62.9978,-152.722 58.56,-147.309"/>
<text text-anchor="middle" x="105.5" y="-130" font-family="Helvetica,sans-Serif" font-size="10.00"> stream</text>
</g>
<!-- Node5 -->
<g id="node5" class="node"><title>Node5</title>
<g id="a_node5"><a xlink:href="classumontreal_1_1ssj_1_1stat_1_1Tally.html" target="_top" xlink:title="A subclass of StatProbe. ">
<polygon fill="none" stroke="black" points="283.5,-84 283.5,-103 321.5,-103 321.5,-84 283.5,-84"/>
<text text-anchor="middle" x="302.5" y="-91" font-family="Helvetica,sans-Serif" font-size="10.00">Tally</text>
</a>
</g>
</g>
<!-- Node5&#45;&gt;Node1 -->
<g id="edge4" class="edge"><title>Node5&#45;&gt;Node1</title>
<path fill="none" stroke="#9a32cd" stroke-dasharray="5,2" d="M294.482,-74.3478C286.963,-57.3261 276.046,-32.6117 270.325,-19.6592"/>
<polygon fill="#9a32cd" stroke="#9a32cd" points="291.405,-76.0449 298.647,-83.7781 297.808,-73.2165 291.405,-76.0449"/>
<text text-anchor="middle" x="312.5" y="-46.5" font-family="Helvetica,sans-Serif" font-size="10.00"> custWaits</text>
</g>
<!-- Node6 -->
<g id="node6" class="node"><title>Node6</title>
<g id="a_node6"><a xlink:href="classumontreal_1_1ssj_1_1stat_1_1StatProbe.html" target="_top" xlink:title="The objects of this class are statistical probes or collectors, which are elementary devices for coll...">
<polygon fill="none" stroke="black" points="272.5,-156.5 272.5,-175.5 332.5,-175.5 332.5,-156.5 272.5,-156.5"/>
<text text-anchor="middle" x="302.5" y="-163.5" font-family="Helvetica,sans-Serif" font-size="10.00">StatProbe</text>
</a>
</g>
</g>
<!-- Node6&#45;&gt;Node5 -->
<g id="edge5" class="edge"><title>Node6&#45;&gt;Node5</title>
<path fill="none" stroke="midnightblue" d="M302.5,-145.942C302.5,-132.03 302.5,-113.82 302.5,-103.215"/>
<polygon fill="midnightblue" stroke="midnightblue" points="299,-146.355 302.5,-156.355 306,-146.355 299,-146.355"/>
</g>
<!-- Node9 -->
<g id="node9" class="node"><title>Node9</title>
<g id="a_node9"><a xlink:href="classumontreal_1_1ssj_1_1simevents_1_1Accumulate.html" target="_top" xlink:title="A subclass of umontreal.ssj.stat.StatProbe, for collecting statistics on a variable that evolves in s...">
<polygon fill="none" stroke="black" points="197.5,-84 197.5,-103 265.5,-103 265.5,-84 197.5,-84"/>
<text text-anchor="middle" x="231.5" y="-91" font-family="Helvetica,sans-Serif" font-size="10.00">Accumulate</text>
</a>
</g>
</g>
<!-- Node6&#45;&gt;Node9 -->
<g id="edge9" class="edge"><title>Node6&#45;&gt;Node9</title>
<path fill="none" stroke="midnightblue" d="M286.58,-149.192C272.28,-134.993 251.812,-114.669 240.277,-103.215"/>
<polygon fill="midnightblue" stroke="midnightblue" points="284.232,-151.793 293.794,-156.355 289.164,-146.826 284.232,-151.793"/>
</g>
<!-- Node7 -->
<g id="node7" class="node"><title>Node7</title>
<polygon fill="none" stroke="#bfbfbf" points="194.5,-156.5 194.5,-175.5 254.5,-175.5 254.5,-156.5 194.5,-156.5"/>
<text text-anchor="middle" x="224.5" y="-163.5" font-family="Helvetica,sans-Serif" font-size="10.00">Cloneable</text>
</g>
<!-- Node7&#45;&gt;Node5 -->
<g id="edge6" class="edge"><title>Node7&#45;&gt;Node5</title>
<path fill="none" stroke="midnightblue" d="M241.555,-149.585C257.282,-135.37 280.068,-114.775 292.857,-103.215"/>
<polygon fill="midnightblue" stroke="midnightblue" points="239.136,-147.053 234.064,-156.355 243.83,-152.246 239.136,-147.053"/>
</g>
<!-- Node7&#45;&gt;Node9 -->
<g id="edge10" class="edge"><title>Node7&#45;&gt;Node9</title>
<path fill="none" stroke="midnightblue" d="M226.351,-146.358C227.737,-132.395 229.571,-113.926 230.635,-103.215"/>
<polygon fill="midnightblue" stroke="midnightblue" points="222.864,-146.058 225.358,-156.355 229.829,-146.75 222.864,-146.058"/>
</g>
<!-- Node8 -->
<g id="node8" class="node"><title>Node8</title>
<polygon fill="none" stroke="#bfbfbf" points="351,-156.5 351,-175.5 424,-175.5 424,-156.5 351,-156.5"/>
<text text-anchor="middle" x="387.5" y="-163.5" font-family="Helvetica,sans-Serif" font-size="10.00">Tally.CIType</text>
</g>
<!-- Node8&#45;&gt;Node5 -->
<g id="edge7" class="edge"><title>Node8&#45;&gt;Node5</title>
<path fill="none" stroke="#9a32cd" stroke-dasharray="5,2" d="M368.915,-149.585C351.776,-135.37 326.945,-114.775 313.008,-103.215"/>
<polygon fill="#9a32cd" stroke="#9a32cd" points="367.146,-152.665 377.077,-156.355 371.615,-147.277 367.146,-152.665"/>
<text text-anchor="middle" x="395" y="-130" font-family="Helvetica,sans-Serif" font-size="10.00"> confidenceInterval</text>
</g>
<!-- Node9&#45;&gt;Node1 -->
<g id="edge8" class="edge"><title>Node9&#45;&gt;Node1</title>
<path fill="none" stroke="#9a32cd" stroke-dasharray="5,2" d="M232.336,-73.7977C233.443,-62.8783 235.938,-49.1084 241.5,-38 244.989,-31.031 250.831,-24.5723 255.99,-19.7203"/>
<polygon fill="#9a32cd" stroke="#9a32cd" points="228.835,-73.6902 231.614,-83.9139 235.817,-74.1883 228.835,-73.6902"/>
<text text-anchor="middle" x="259" y="-46.5" font-family="Helvetica,sans-Serif" font-size="10.00"> totWait</text>
</g>
<!-- Node10 -->
<g id="node10" class="node"><title>Node10</title>
<polygon fill="none" stroke="#bfbfbf" points="340,-78.5 340,-108.5 471,-108.5 471,-78.5 340,-78.5"/>
<text text-anchor="start" x="348" y="-96.5" font-family="Helvetica,sans-Serif" font-size="10.00">LinkedList&lt; tutorial.Queue</text>
<text text-anchor="middle" x="405.5" y="-85.5" font-family="Helvetica,sans-Serif" font-size="10.00">Ev.Customer &gt;</text>
</g>
<!-- Node10&#45;&gt;Node1 -->
<g id="edge11" class="edge"><title>Node10&#45;&gt;Node1</title>
<path fill="none" stroke="#9a32cd" stroke-dasharray="5,2" d="M384.289,-71.4419C372.231,-60.351 356.4,-47.1844 340.5,-38 326.408,-29.8601 309.427,-23.4536 295.288,-18.9278"/>
<polygon fill="#9a32cd" stroke="#9a32cd" points="381.955,-74.0513 391.63,-78.3677 386.758,-68.9596 381.955,-74.0513"/>
<text text-anchor="middle" x="390" y="-52" font-family="Helvetica,sans-Serif" font-size="10.00"> waitList</text>
<text text-anchor="middle" x="390" y="-41" font-family="Helvetica,sans-Serif" font-size="10.00">servList</text>
</g>
</g>
</svg>
