<?xml version="1.0" encoding="UTF-8" standalone="no"?>
<!DOCTYPE svg PUBLIC "-//W3C//DTD SVG 1.1//EN"
 "http://www.w3.org/Graphics/SVG/1.1/DTD/svg11.dtd">
<!-- Generated by graphviz version 2.38.0 (20140413.2041)
 -->
<!-- Title: HilbertCurveBatchSort&lt; T extends MultiDimComparable&lt;? super T &gt; Pages: 1 -->
<svg width="281pt" height="253pt"
 viewBox="0.00 0.00 280.50 253.00" xmlns="http://www.w3.org/2000/svg" xmlns:xlink="http://www.w3.org/1999/xlink">
<g id="graph0" class="graph" transform="scale(1 1) rotate(0) translate(4 249)">
<title>HilbertCurveBatchSort&lt; T extends MultiDimComparable&lt;? super T &gt;</title>
<!-- Node2 -->
<g id="node1" class="node"><title>Node2</title>
<polygon fill="#bfbfbf" stroke="black" points="44.5,-0.5 44.5,-41.5 205.5,-41.5 205.5,-0.5 44.5,-0.5"/>
<text text-anchor="start" x="52.5" y="-29.5" font-family="Helvetica,sans-Serif" font-size="10.00">HilbertCurveBatchSort</text>
<text text-anchor="start" x="52.5" y="-18.5" font-family="Helvetica,sans-Serif" font-size="10.00">&lt; T extends MultiDimComparable</text>
<text text-anchor="middle" x="125" y="-7.5" font-family="Helvetica,sans-Serif" font-size="10.00">&lt;? super T &gt;</text>
</g>
<!-- Node3 -->
<g id="node2" class="node"><title>Node3</title>
<g id="a_node2"><a xlink:href="interfaceumontreal_1_1ssj_1_1util_1_1sort_1_1MultiDimSortComparable.html" target="_top" xlink:title="MultiDimSortComparable\&lt; T \&gt;">
<polygon fill="none" stroke="black" points="0,-225.5 0,-244.5 148,-244.5 148,-225.5 0,-225.5"/>
<text text-anchor="middle" x="74" y="-232.5" font-family="Helvetica,sans-Serif" font-size="10.00">MultiDimSortComparable&lt; T &gt;</text>
</a>
</g>
</g>
<!-- Node3&#45;&gt;Node2 -->
<g id="edge1" class="edge"><title>Node3&#45;&gt;Node2</title>
<path fill="none" stroke="midnightblue" d="M69.6508,-215.605C63.8677,-187.188 56.2963,-131.46 74,-89 81.3697,-71.3247 94.5517,-54.1946 105.668,-41.6801"/>
<polygon fill="midnightblue" stroke="midnightblue" points="66.2343,-216.365 71.7959,-225.383 73.0717,-214.865 66.2343,-216.365"/>
</g>
<!-- Node5 -->
<g id="node4" class="node"><title>Node5</title>
<g id="a_node4"><a xlink:href="classumontreal_1_1ssj_1_1util_1_1sort_1_1BatchSort.html" target="_top" xlink:title="This class implements a MultiDimSortComparable that performs a batch sort on multivariate arrays...">
<polygon fill="none" stroke="black" points="75,-146.5 75,-187.5 191,-187.5 191,-146.5 75,-146.5"/>
<text text-anchor="start" x="83" y="-175.5" font-family="Helvetica,sans-Serif" font-size="10.00">BatchSort&lt; T extends</text>
<text text-anchor="start" x="83" y="-164.5" font-family="Helvetica,sans-Serif" font-size="10.00"> MultiDimComparable&lt;</text>
<text text-anchor="middle" x="133" y="-153.5" font-family="Helvetica,sans-Serif" font-size="10.00">? super T &gt;</text>
</a>
</g>
</g>
<!-- Node3&#45;&gt;Node5 -->
<g id="edge4" class="edge"><title>Node3&#45;&gt;Node5</title>
<path fill="none" stroke="midnightblue" d="M88.4794,-217.803C96.5949,-208.724 106.779,-197.332 115.358,-187.735"/>
<polygon fill="midnightblue" stroke="midnightblue" points="85.7685,-215.584 81.7132,-225.372 90.9873,-220.249 85.7685,-215.584"/>
</g>
<!-- Node4 -->
<g id="node3" class="node"><title>Node4</title>
<g id="a_node3"><a xlink:href="classumontreal_1_1ssj_1_1util_1_1sort_1_1BatchSortPow2.html" target="_top" xlink:title="This is a subclass of BatchSort for which the batch numbers &#160;are always powers of 2...">
<polygon fill="none" stroke="black" points="83,-89.5 83,-108.5 167,-108.5 167,-89.5 83,-89.5"/>
<text text-anchor="middle" x="125" y="-96.5" font-family="Helvetica,sans-Serif" font-size="10.00">BatchSortPow2</text>
</a>
</g>
</g>
<!-- Node4&#45;&gt;Node2 -->
<g id="edge2" class="edge"><title>Node4&#45;&gt;Node2</title>
<path fill="none" stroke="#9a32cd" stroke-dasharray="5,2" d="M125,-79.1372C125,-67.7291 125,-53.2071 125,-41.6584"/>
<polygon fill="#9a32cd" stroke="#9a32cd" points="121.5,-79.2818 125,-89.2818 128.5,-79.2819 121.5,-79.2818"/>
<text text-anchor="middle" x="137.5" y="-63" font-family="Helvetica,sans-Serif" font-size="10.00"> bsort</text>
</g>
<!-- Node5&#45;&gt;Node4 -->
<g id="edge3" class="edge"><title>Node5&#45;&gt;Node4</title>
<path fill="none" stroke="midnightblue" d="M129.378,-136.12C128.172,-126.17 126.92,-115.837 126.065,-108.786"/>
<polygon fill="midnightblue" stroke="midnightblue" points="125.922,-136.692 130.6,-146.198 132.871,-135.849 125.922,-136.692"/>
</g>
<!-- Node6 -->
<g id="node5" class="node"><title>Node6</title>
<g id="a_node5"><a xlink:href="classumontreal_1_1ssj_1_1util_1_1sort_1_1HilbertCurveMap.html" target="_top" xlink:title="This class implements the mapping of a Hilbert curve in the &#45;dimensional unit hypercube ...">
<polygon fill="none" stroke="black" points="185.5,-89.5 185.5,-108.5 272.5,-108.5 272.5,-89.5 185.5,-89.5"/>
<text text-anchor="middle" x="229" y="-96.5" font-family="Helvetica,sans-Serif" font-size="10.00">HilbertCurveMap</text>
</a>
</g>
</g>
<!-- Node6&#45;&gt;Node2 -->
<g id="edge5" class="edge"><title>Node6&#45;&gt;Node2</title>
<path fill="none" stroke="#9a32cd" stroke-dasharray="5,2" d="M208.826,-83.2574C192.608,-71.4061 169.68,-54.6507 151.901,-41.6584"/>
<polygon fill="#9a32cd" stroke="#9a32cd" points="206.931,-86.2075 217.07,-89.2818 211.061,-80.5558 206.931,-86.2075"/>
<text text-anchor="middle" x="206.5" y="-63" font-family="Helvetica,sans-Serif" font-size="10.00"> hcMap</text>
</g>
</g>
</svg>
