<?xml version="1.0" encoding="UTF-8" standalone="no"?>
<!DOCTYPE svg PUBLIC "-//W3C//DTD SVG 1.1//EN"
 "http://www.w3.org/Graphics/SVG/1.1/DTD/svg11.dtd">
<!-- Generated by graphviz version 2.38.0 (20140413.2041)
 -->
<!-- Title: TextDataWriter Pages: 1 -->
<svg width="385pt" height="230pt"
 viewBox="0.00 0.00 384.50 230.00" xmlns="http://www.w3.org/2000/svg" xmlns:xlink="http://www.w3.org/1999/xlink">
<g id="graph0" class="graph" transform="scale(1 1) rotate(0) translate(4 226)">
<title>TextDataWriter</title>
<!-- Node1 -->
<g id="node1" class="node"><title>Node1</title>
<polygon fill="#bfbfbf" stroke="black" points="232,-0.5 232,-19.5 324,-19.5 324,-0.5 232,-0.5"/>
<text text-anchor="middle" x="278" y="-7.5" font-family="Helvetica,sans-Serif" font-size="10.00">TextDataWriter</text>
</g>
<!-- Node2 -->
<g id="node2" class="node"><title>Node2</title>
<g id="a_node2"><a xlink:href="classumontreal_1_1ssj_1_1util_1_1io_1_1CachedDataWriter.html" target="_top" xlink:title="This abstract class implements shared functionality for data writers that store all fields in memory ...">
<polygon fill="none" stroke="black" points="123,-67.5 123,-86.5 229,-86.5 229,-67.5 123,-67.5"/>
<text text-anchor="middle" x="176" y="-74.5" font-family="Helvetica,sans-Serif" font-size="10.00">CachedDataWriter</text>
</a>
</g>
</g>
<!-- Node2&#45;&gt;Node1 -->
<g id="edge1" class="edge"><title>Node2&#45;&gt;Node1</title>
<path fill="none" stroke="midnightblue" d="M198.332,-61.7687C218.522,-48.9026 247.59,-30.379 264.462,-19.6273"/>
<polygon fill="midnightblue" stroke="midnightblue" points="196.308,-58.908 189.756,-67.2338 200.07,-64.8113 196.308,-58.908"/>
</g>
<!-- Node3 -->
<g id="node3" class="node"><title>Node3</title>
<g id="a_node3"><a xlink:href="classumontreal_1_1ssj_1_1util_1_1io_1_1AbstractDataWriter.html" target="_top" xlink:title="This abstract class implements shared functionality for data writers. ">
<polygon fill="none" stroke="black" points="0,-140 0,-159 110,-159 110,-140 0,-140"/>
<text text-anchor="middle" x="55" y="-147" font-family="Helvetica,sans-Serif" font-size="10.00">AbstractDataWriter</text>
</a>
</g>
</g>
<!-- Node3&#45;&gt;Node2 -->
<g id="edge2" class="edge"><title>Node3&#45;&gt;Node2</title>
<path fill="none" stroke="midnightblue" d="M78.4931,-134.812C102.909,-120.586 140.383,-98.7519 161.042,-86.7154"/>
<polygon fill="midnightblue" stroke="midnightblue" points="76.7154,-131.797 69.837,-139.855 80.2394,-137.845 76.7154,-131.797"/>
</g>
<!-- Node4 -->
<g id="node4" class="node"><title>Node4</title>
<g id="a_node4"><a xlink:href="interfaceumontreal_1_1ssj_1_1util_1_1io_1_1DataWriter.html" target="_top" xlink:title="Data writer interface. ">
<polygon fill="none" stroke="black" points="20,-202.5 20,-221.5 90,-221.5 90,-202.5 20,-202.5"/>
<text text-anchor="middle" x="55" y="-209.5" font-family="Helvetica,sans-Serif" font-size="10.00">DataWriter</text>
</a>
</g>
</g>
<!-- Node4&#45;&gt;Node3 -->
<g id="edge3" class="edge"><title>Node4&#45;&gt;Node3</title>
<path fill="none" stroke="midnightblue" d="M55,-192.003C55,-181 55,-167.682 55,-159.152"/>
<polygon fill="midnightblue" stroke="midnightblue" points="51.5001,-192.332 55,-202.332 58.5001,-192.332 51.5001,-192.332"/>
</g>
<!-- Node5 -->
<g id="node5" class="node"><title>Node5</title>
<polygon fill="none" stroke="#bfbfbf" points="128,-134.5 128,-164.5 306,-164.5 306,-134.5 128,-134.5"/>
<text text-anchor="start" x="136" y="-152.5" font-family="Helvetica,sans-Serif" font-size="10.00">LinkedList&lt; umontreal.ssj.util.io.</text>
<text text-anchor="middle" x="217" y="-141.5" font-family="Helvetica,sans-Serif" font-size="10.00">DataField &gt;</text>
</g>
<!-- Node5&#45;&gt;Node2 -->
<g id="edge4" class="edge"><title>Node5&#45;&gt;Node2</title>
<path fill="none" stroke="#9a32cd" stroke-dasharray="5,2" d="M203.475,-125.244C195.843,-112.12 186.745,-96.4765 181.172,-86.8932"/>
<polygon fill="#9a32cd" stroke="#9a32cd" points="200.65,-127.348 208.703,-134.233 206.701,-123.829 200.65,-127.348"/>
<text text-anchor="middle" x="213.5" y="-108" font-family="Helvetica,sans-Serif" font-size="10.00"> fields</text>
</g>
<!-- Node6 -->
<g id="node6" class="node"><title>Node6</title>
<g id="a_node6"><a xlink:href="enumumontreal_1_1ssj_1_1util_1_1io_1_1TextDataWriter_1_1Format.html" target="_top" xlink:title="Output format: organize fields as columns or as rows. ">
<polygon fill="none" stroke="black" points="247.5,-67.5 247.5,-86.5 376.5,-86.5 376.5,-67.5 247.5,-67.5"/>
<text text-anchor="middle" x="312" y="-74.5" font-family="Helvetica,sans-Serif" font-size="10.00">TextDataWriter.Format</text>
</a>
</g>
</g>
<!-- Node6&#45;&gt;Node1 -->
<g id="edge5" class="edge"><title>Node6&#45;&gt;Node1</title>
<path fill="none" stroke="#9a32cd" stroke-dasharray="5,2" d="M302.67,-58.1635C296.113,-45.6281 287.63,-29.4104 282.513,-19.6273"/>
<polygon fill="#9a32cd" stroke="#9a32cd" points="299.678,-59.9951 307.415,-67.2338 305.881,-56.7506 299.678,-59.9951"/>
<text text-anchor="middle" x="316.5" y="-41" font-family="Helvetica,sans-Serif" font-size="10.00"> format</text>
</g>
</g>
</svg>
