<?xml version="1.0" encoding="UTF-8" standalone="no"?>
<!DOCTYPE svg PUBLIC "-//W3C//DTD SVG 1.1//EN"
 "http://www.w3.org/Graphics/SVG/1.1/DTD/svg11.dtd">
<!-- Generated by graphviz version 2.38.0 (20140413.2041)
 -->
<!-- Title: HypoExponentialDistQuick Pages: 1 -->
<svg width="141pt" height="196pt"
 viewBox="0.00 0.00 141.00 196.00" xmlns="http://www.w3.org/2000/svg" xmlns:xlink="http://www.w3.org/1999/xlink">
<g id="graph0" class="graph" transform="scale(1 1) rotate(0) translate(4 192)">
<title>HypoExponentialDistQuick</title>
<!-- Node4 -->
<g id="node1" class="node"><title>Node4</title>
<polygon fill="#bfbfbf" stroke="black" points="0,-0.5 0,-19.5 133,-19.5 133,-0.5 0,-0.5"/>
<text text-anchor="middle" x="66.5" y="-7.5" font-family="Helvetica,sans-Serif" font-size="10.00">HypoExponentialDistQuick</text>
</g>
<!-- Node5 -->
<g id="node2" class="node"><title>Node5</title>
<g id="a_node2"><a xlink:href="classumontreal_1_1ssj_1_1probdist_1_1HypoExponentialDist.html" target="_top" xlink:title="This class implements the hypoexponential distribution, also called the generalized Erlang distributi...">
<polygon fill="none" stroke="black" points="13,-56.5 13,-75.5 120,-75.5 120,-56.5 13,-56.5"/>
<text text-anchor="middle" x="66.5" y="-63.5" font-family="Helvetica,sans-Serif" font-size="10.00">HypoExponentialDist</text>
</a>
</g>
</g>
<!-- Node5&#45;&gt;Node4 -->
<g id="edge1" class="edge"><title>Node5&#45;&gt;Node4</title>
<path fill="none" stroke="midnightblue" d="M66.5,-45.8045C66.5,-36.9102 66.5,-26.7798 66.5,-19.7511"/>
<polygon fill="midnightblue" stroke="midnightblue" points="63.0001,-46.083 66.5,-56.083 70.0001,-46.083 63.0001,-46.083"/>
</g>
<!-- Node6 -->
<g id="node3" class="node"><title>Node6</title>
<g id="a_node3"><a xlink:href="classumontreal_1_1ssj_1_1probdist_1_1ContinuousDistribution.html" target="_top" xlink:title="Classes implementing continuous distributions should inherit from this base class. ">
<polygon fill="none" stroke="black" points="9.5,-112.5 9.5,-131.5 123.5,-131.5 123.5,-112.5 9.5,-112.5"/>
<text text-anchor="middle" x="66.5" y="-119.5" font-family="Helvetica,sans-Serif" font-size="10.00">ContinuousDistribution</text>
</a>
</g>
</g>
<!-- Node6&#45;&gt;Node5 -->
<g id="edge2" class="edge"><title>Node6&#45;&gt;Node5</title>
<path fill="none" stroke="midnightblue" d="M66.5,-101.805C66.5,-92.9102 66.5,-82.7798 66.5,-75.7511"/>
<polygon fill="midnightblue" stroke="midnightblue" points="63.0001,-102.083 66.5,-112.083 70.0001,-102.083 63.0001,-102.083"/>
</g>
<!-- Node7 -->
<g id="node4" class="node"><title>Node7</title>
<g id="a_node4"><a xlink:href="interfaceumontreal_1_1ssj_1_1probdist_1_1Distribution.html" target="_top" xlink:title="This interface should be implemented by all classes supporting discrete and continuous distributions...">
<polygon fill="none" stroke="black" points="34,-168.5 34,-187.5 99,-187.5 99,-168.5 34,-168.5"/>
<text text-anchor="middle" x="66.5" y="-175.5" font-family="Helvetica,sans-Serif" font-size="10.00">Distribution</text>
</a>
</g>
</g>
<!-- Node7&#45;&gt;Node6 -->
<g id="edge3" class="edge"><title>Node7&#45;&gt;Node6</title>
<path fill="none" stroke="midnightblue" d="M66.5,-157.805C66.5,-148.91 66.5,-138.78 66.5,-131.751"/>
<polygon fill="midnightblue" stroke="midnightblue" points="63.0001,-158.083 66.5,-168.083 70.0001,-158.083 63.0001,-158.083"/>
</g>
</g>
</svg>
