<?xml version="1.0" encoding="UTF-8" standalone="no"?>
<!DOCTYPE svg PUBLIC "-//W3C//DTD SVG 1.1//EN"
 "http://www.w3.org/Graphics/SVG/1.1/DTD/svg11.dtd">
<!-- Generated by graphviz version 2.26.3 (20100126.1600)
 -->
<!-- Title: Rank1Lattice.Rank1LatticeIterator Pages: 1 -->
<svg width="142pt" height="228pt"
 viewBox="0.00 0.00 142.00 228.00" xmlns="http://www.w3.org/2000/svg" xmlns:xlink="http://www.w3.org/1999/xlink">
<g id="graph1" class="graph" transform="scale(1 1) rotate(0) translate(4 224)">
<title>Rank1Lattice.Rank1LatticeIterator</title>
<!-- Node1 -->
<g id="node1" class="node"><title>Node1</title>
<polygon fill="#bfbfbf" stroke="black" points="0,-1 0,-33 134,-33 134,-1 0,-1"/>
<text text-anchor="start" x="8" y="-20" font-family="Helvetica,sans-Serif" font-size="10.00">Rank1Lattice.Rank1Lattice</text>
<text text-anchor="middle" x="67" y="-8" font-family="Helvetica,sans-Serif" font-size="10.00">Iterator</text>
</g>
<!-- Node2 -->
<g id="node2" class="node"><title>Node2</title>
<a xlink:href="classumontreal_1_1ssj_1_1hups_1_1PointSet_1_1DefaultPointSetIterator.html" target="_top" xlink:title="PointSet.DefaultPointSet\lIterator">
<polygon fill="none" stroke="black" points="4.5,-71 4.5,-103 129.5,-103 129.5,-71 4.5,-71"/>
<text text-anchor="start" x="12.5" y="-90" font-family="Helvetica,sans-Serif" font-size="10.00">PointSet.DefaultPointSet</text>
<text text-anchor="middle" x="67" y="-78" font-family="Helvetica,sans-Serif" font-size="10.00">Iterator</text>
</a>
</g>
<!-- Node2&#45;&gt;Node1 -->
<g id="edge2" class="edge"><title>Node2&#45;&gt;Node1</title>
<path fill="none" stroke="midnightblue" d="M67,-60.5079C67,-51.3027 67,-41.2615 67,-33.1473"/>
<polygon fill="midnightblue" stroke="midnightblue" points="63.5001,-60.7646 67,-70.7646 70.5001,-60.7647 63.5001,-60.7646"/>
</g>
<!-- Node3 -->
<g id="node4" class="node"><title>Node3</title>
<a xlink:href="interfaceumontreal_1_1ssj_1_1hups_1_1PointSetIterator.html" target="_top" xlink:title="Objects of classes that implement this interface are iterators that permit one to enumerate (or obser...">
<polygon fill="none" stroke="black" points="24.5,-141 24.5,-161 109.5,-161 109.5,-141 24.5,-141"/>
<text text-anchor="middle" x="67" y="-148" font-family="Helvetica,sans-Serif" font-size="10.00">PointSetIterator</text>
</a>
</g>
<!-- Node3&#45;&gt;Node2 -->
<g id="edge4" class="edge"><title>Node3&#45;&gt;Node2</title>
<path fill="none" stroke="midnightblue" d="M67,-130.435C67,-121.549 67,-111.31 67,-103.005"/>
<polygon fill="midnightblue" stroke="midnightblue" points="63.5001,-130.717 67,-140.717 70.5001,-130.717 63.5001,-130.717"/>
</g>
<!-- Node4 -->
<g id="node6" class="node"><title>Node4</title>
<a xlink:href="interfaceumontreal_1_1ssj_1_1rng_1_1RandomStream.html" target="_top" xlink:title="This interface defines the basic structures to handle multiple streams of uniform (pseudo)random numb...">
<polygon fill="none" stroke="black" points="25,-199 25,-219 109,-219 109,-199 25,-199"/>
<text text-anchor="middle" x="67" y="-206" font-family="Helvetica,sans-Serif" font-size="10.00">RandomStream</text>
</a>
</g>
<!-- Node4&#45;&gt;Node3 -->
<g id="edge6" class="edge"><title>Node4&#45;&gt;Node3</title>
<path fill="none" stroke="midnightblue" d="M67,-188.89C67,-179.62 67,-169.008 67,-161.378"/>
<polygon fill="midnightblue" stroke="midnightblue" points="63.5001,-188.897 67,-198.897 70.5001,-188.897 63.5001,-188.897"/>
</g>
</g>
</svg>
