<?xml version="1.0" encoding="UTF-8" standalone="no"?>
<!DOCTYPE svg PUBLIC "-//W3C//DTD SVG 1.1//EN"
 "http://www.w3.org/Graphics/SVG/1.1/DTD/svg11.dtd">
<!-- Generated by graphviz version 2.38.0 (20140413.2041)
 -->
<!-- Title: CycleBasedPointSet Pages: 1 -->
<svg width="305pt" height="196pt"
 viewBox="0.00 0.00 304.50 196.00" xmlns="http://www.w3.org/2000/svg" xmlns:xlink="http://www.w3.org/1999/xlink">
<g id="graph0" class="graph" transform="scale(1 1) rotate(0) translate(4 192)">
<title>CycleBasedPointSet</title>
<!-- Node1 -->
<g id="node1" class="node"><title>Node1</title>
<polygon fill="#bfbfbf" stroke="black" points="136,-112.5 136,-131.5 250,-131.5 250,-112.5 136,-112.5"/>
<text text-anchor="middle" x="193" y="-119.5" font-family="Helvetica,sans-Serif" font-size="10.00">CycleBasedPointSet</text>
</g>
<!-- Node3 -->
<g id="node3" class="node"><title>Node3</title>
<g id="a_node3"><a xlink:href="classumontreal_1_1ssj_1_1hups_1_1CycleBasedPointSetBase2.html" target="_top" xlink:title="Similar to CycleBasedPointSet, except that the successive values in the cycles are stored as integers...">
<polygon fill="none" stroke="black" points="57,-56.5 57,-75.5 201,-75.5 201,-56.5 57,-56.5"/>
<text text-anchor="middle" x="129" y="-63.5" font-family="Helvetica,sans-Serif" font-size="10.00">CycleBasedPointSetBase2</text>
</a>
</g>
</g>
<!-- Node1&#45;&gt;Node3 -->
<g id="edge2" class="edge"><title>Node1&#45;&gt;Node3</title>
<path fill="none" stroke="midnightblue" d="M175.009,-105.82C163.542,-96.1452 149.087,-83.9481 139.47,-75.8339"/>
<polygon fill="midnightblue" stroke="midnightblue" points="172.817,-108.55 182.717,-112.324 177.331,-103.2 172.817,-108.55"/>
</g>
<!-- Node6 -->
<g id="node6" class="node"><title>Node6</title>
<g id="a_node6"><a xlink:href="classumontreal_1_1ssj_1_1hups_1_1LCGPointSet.html" target="_top" xlink:title="Implements a recurrence&#45;based point set defined via a linear congruential recurrence of the form &#160;and...">
<polygon fill="none" stroke="black" points="219.5,-56.5 219.5,-75.5 296.5,-75.5 296.5,-56.5 219.5,-56.5"/>
<text text-anchor="middle" x="258" y="-63.5" font-family="Helvetica,sans-Serif" font-size="10.00">LCGPointSet</text>
</a>
</g>
</g>
<!-- Node1&#45;&gt;Node6 -->
<g id="edge5" class="edge"><title>Node1&#45;&gt;Node6</title>
<path fill="none" stroke="midnightblue" d="M211.273,-105.82C222.918,-96.1452 237.599,-83.9481 247.367,-75.8339"/>
<polygon fill="midnightblue" stroke="midnightblue" points="208.899,-103.242 203.443,-112.324 213.372,-108.626 208.899,-103.242"/>
</g>
<!-- Node2 -->
<g id="node2" class="node"><title>Node2</title>
<g id="a_node2"><a xlink:href="classumontreal_1_1ssj_1_1hups_1_1PointSet.html" target="_top" xlink:title="This abstract class defines the basic methods for accessing and manipulating point sets...">
<polygon fill="none" stroke="black" points="164.5,-168.5 164.5,-187.5 221.5,-187.5 221.5,-168.5 164.5,-168.5"/>
<text text-anchor="middle" x="193" y="-175.5" font-family="Helvetica,sans-Serif" font-size="10.00">PointSet</text>
</a>
</g>
</g>
<!-- Node2&#45;&gt;Node1 -->
<g id="edge1" class="edge"><title>Node2&#45;&gt;Node1</title>
<path fill="none" stroke="midnightblue" d="M193,-157.805C193,-148.91 193,-138.78 193,-131.751"/>
<polygon fill="midnightblue" stroke="midnightblue" points="189.5,-158.083 193,-168.083 196.5,-158.083 189.5,-158.083"/>
</g>
<!-- Node4 -->
<g id="node4" class="node"><title>Node4</title>
<g id="a_node4"><a xlink:href="classumontreal_1_1ssj_1_1hups_1_1F2wCycleBasedLFSR.html" target="_top" xlink:title="This class creates a point set based upon a linear feedback shift register sequence. ">
<polygon fill="none" stroke="black" points="0,-0.5 0,-19.5 116,-19.5 116,-0.5 0,-0.5"/>
<text text-anchor="middle" x="58" y="-7.5" font-family="Helvetica,sans-Serif" font-size="10.00">F2wCycleBasedLFSR</text>
</a>
</g>
</g>
<!-- Node3&#45;&gt;Node4 -->
<g id="edge3" class="edge"><title>Node3&#45;&gt;Node4</title>
<path fill="none" stroke="midnightblue" d="M109.41,-50.1008C96.6324,-40.3824 80.3873,-28.0269 69.6149,-19.8339"/>
<polygon fill="midnightblue" stroke="midnightblue" points="107.514,-53.0561 117.593,-56.324 111.752,-47.4844 107.514,-53.0561"/>
</g>
<!-- Node5 -->
<g id="node5" class="node"><title>Node5</title>
<g id="a_node5"><a xlink:href="classumontreal_1_1ssj_1_1hups_1_1F2wCycleBasedPolyLCG.html" target="_top" xlink:title="This class creates a point set based upon a linear congruential sequence in the finite field ...">
<polygon fill="none" stroke="black" points="134,-0.5 134,-19.5 268,-19.5 268,-0.5 134,-0.5"/>
<text text-anchor="middle" x="201" y="-7.5" font-family="Helvetica,sans-Serif" font-size="10.00">F2wCycleBasedPolyLCG</text>
</a>
</g>
</g>
<!-- Node3&#45;&gt;Node5 -->
<g id="edge4" class="edge"><title>Node3&#45;&gt;Node5</title>
<path fill="none" stroke="midnightblue" d="M148.866,-50.1008C161.823,-40.3824 178.297,-28.0269 189.221,-19.8339"/>
<polygon fill="midnightblue" stroke="midnightblue" points="146.468,-47.5239 140.568,-56.324 150.668,-53.1239 146.468,-47.5239"/>
</g>
</g>
</svg>
