<?xml version="1.0" encoding="UTF-8" standalone="no"?>
<!DOCTYPE svg PUBLIC "-//W3C//DTD SVG 1.1//EN"
 "http://www.w3.org/Graphics/SVG/1.1/DTD/svg11.dtd">
<!-- Generated by graphviz version 2.38.0 (20140413.2041)
 -->
<!-- Title: DiscreteDistributionIntMulti Pages: 1 -->
<svg width="230pt" height="84pt"
 viewBox="0.00 0.00 229.50 84.00" xmlns="http://www.w3.org/2000/svg" xmlns:xlink="http://www.w3.org/1999/xlink">
<g id="graph0" class="graph" transform="scale(1 1) rotate(0) translate(4 80)">
<title>DiscreteDistributionIntMulti</title>
<!-- Node0 -->
<g id="node1" class="node"><title>Node0</title>
<polygon fill="#bfbfbf" stroke="black" points="35,-56.5 35,-75.5 168,-75.5 168,-56.5 35,-56.5"/>
<text text-anchor="middle" x="101.5" y="-63.5" font-family="Helvetica,sans-Serif" font-size="10.00">DiscreteDistributionIntMulti</text>
</g>
<!-- Node1 -->
<g id="node2" class="node"><title>Node1</title>
<g id="a_node2"><a xlink:href="classumontreal_1_1ssj_1_1probdistmulti_1_1MultinomialDist.html" target="_top" xlink:title="Implements the abstract class DiscreteDistributionIntMulti for the multinomial distribution with para...">
<polygon fill="none" stroke="black" points="0,-0.5 0,-19.5 83,-19.5 83,-0.5 0,-0.5"/>
<text text-anchor="middle" x="41.5" y="-7.5" font-family="Helvetica,sans-Serif" font-size="10.00">MultinomialDist</text>
</a>
</g>
</g>
<!-- Node0&#45;&gt;Node1 -->
<g id="edge1" class="edge"><title>Node0&#45;&gt;Node1</title>
<path fill="none" stroke="midnightblue" d="M84.3191,-49.5372C73.6208,-39.9087 60.2437,-27.8694 51.3154,-19.8339"/>
<polygon fill="midnightblue" stroke="midnightblue" points="82.0856,-52.2358 91.86,-56.324 86.7684,-47.0327 82.0856,-52.2358"/>
</g>
<!-- Node2 -->
<g id="node3" class="node"><title>Node2</title>
<g id="a_node3"><a xlink:href="classumontreal_1_1ssj_1_1probdistmulti_1_1NegativeMultinomialDist.html" target="_top" xlink:title="Implements the class DiscreteDistributionIntMulti for the negative multinomial distribution with para...">
<polygon fill="none" stroke="black" points="101.5,-0.5 101.5,-19.5 221.5,-19.5 221.5,-0.5 101.5,-0.5"/>
<text text-anchor="middle" x="161.5" y="-7.5" font-family="Helvetica,sans-Serif" font-size="10.00">NegativeMultinomialDist</text>
</a>
</g>
</g>
<!-- Node0&#45;&gt;Node2 -->
<g id="edge2" class="edge"><title>Node0&#45;&gt;Node2</title>
<path fill="none" stroke="midnightblue" d="M118.681,-49.5372C129.379,-39.9087 142.756,-27.8694 151.685,-19.8339"/>
<polygon fill="midnightblue" stroke="midnightblue" points="116.232,-47.0327 111.14,-56.324 120.914,-52.2358 116.232,-47.0327"/>
</g>
</g>
</svg>
