<?xml version="1.0" encoding="UTF-8" standalone="no"?>
<!DOCTYPE svg PUBLIC "-//W3C//DTD SVG 1.1//EN"
 "http://www.w3.org/Graphics/SVG/1.1/DTD/svg11.dtd">
<!-- Generated by graphviz version 2.38.0 (20140413.2041)
 -->
<!-- Title: SimExp Pages: 1 -->
<svg width="168pt" height="84pt"
 viewBox="0.00 0.00 167.50 84.00" xmlns="http://www.w3.org/2000/svg" xmlns:xlink="http://www.w3.org/1999/xlink">
<g id="graph0" class="graph" transform="scale(1 1) rotate(0) translate(4 80)">
<title>SimExp</title>
<!-- Node1 -->
<g id="node1" class="node"><title>Node1</title>
<polygon fill="#bfbfbf" stroke="black" points="63,-56.5 63,-75.5 114,-75.5 114,-56.5 63,-56.5"/>
<text text-anchor="middle" x="88.5" y="-63.5" font-family="Helvetica,sans-Serif" font-size="10.00">SimExp</text>
</g>
<!-- Node2 -->
<g id="node2" class="node"><title>Node2</title>
<g id="a_node2"><a xlink:href="classumontreal_1_1ssj_1_1simexp_1_1BatchMeansSim.html" target="_top" xlink:title="Performs a simulation experiment on an infinite horizon, for estimating steady&#45;state performance meas...">
<polygon fill="none" stroke="black" points="0,-0.5 0,-19.5 89,-19.5 89,-0.5 0,-0.5"/>
<text text-anchor="middle" x="44.5" y="-7.5" font-family="Helvetica,sans-Serif" font-size="10.00">BatchMeansSim</text>
</a>
</g>
</g>
<!-- Node1&#45;&gt;Node2 -->
<g id="edge1" class="edge"><title>Node1&#45;&gt;Node2</title>
<path fill="none" stroke="midnightblue" d="M74.7655,-48.144C67.0995,-38.7357 57.8667,-27.4046 51.6305,-19.7511"/>
<polygon fill="midnightblue" stroke="midnightblue" points="72.2042,-50.5415 81.2343,-56.083 77.6309,-46.1198 72.2042,-50.5415"/>
</g>
<!-- Node3 -->
<g id="node3" class="node"><title>Node3</title>
<g id="a_node3"><a xlink:href="classumontreal_1_1ssj_1_1simexp_1_1RepSim.html" target="_top" xlink:title="Performs a simulation experiment on a finite horizon, using a certain number of independent runs or r...">
<polygon fill="none" stroke="black" points="107.5,-0.5 107.5,-19.5 159.5,-19.5 159.5,-0.5 107.5,-0.5"/>
<text text-anchor="middle" x="133.5" y="-7.5" font-family="Helvetica,sans-Serif" font-size="10.00">RepSim</text>
</a>
</g>
</g>
<!-- Node1&#45;&gt;Node3 -->
<g id="edge2" class="edge"><title>Node1&#45;&gt;Node3</title>
<path fill="none" stroke="midnightblue" d="M102.547,-48.144C110.387,-38.7357 119.829,-27.4046 126.207,-19.7511"/>
<polygon fill="midnightblue" stroke="midnightblue" points="99.6439,-46.1601 95.9308,-56.083 105.021,-50.6414 99.6439,-46.1601"/>
</g>
</g>
</svg>
