<?xml version="1.0" encoding="UTF-8" standalone="no"?>
<!DOCTYPE svg PUBLIC "-//W3C//DTD SVG 1.1//EN"
 "http://www.w3.org/Graphics/SVG/1.1/DTD/svg11.dtd">
<!-- Generated by graphviz version 2.26.3 (20100126.1600)
 -->
<!-- Title: JohnsonSystem Pages: 1 -->
<svg width="294pt" height="204pt"
 viewBox="0.00 0.00 294.00 204.00" xmlns="http://www.w3.org/2000/svg" xmlns:xlink="http://www.w3.org/1999/xlink">
<g id="graph1" class="graph" transform="scale(1 1) rotate(0) translate(4 200)">
<title>JohnsonSystem</title>
<!-- Node1 -->
<g id="node1" class="node"><title>Node1</title>
<polygon fill="#bfbfbf" stroke="black" points="99.5,-59 99.5,-79 186.5,-79 186.5,-59 99.5,-59"/>
<text text-anchor="middle" x="143" y="-66" font-family="Helvetica,sans-Serif" font-size="10.00">JohnsonSystem</text>
</g>
<!-- Node4 -->
<g id="node7" class="node"><title>Node4</title>
<a xlink:href="classumontreal_1_1ssj_1_1probdist_1_1JohnsonSBDist.html" target="_top" xlink:title="Extends the class ContinuousDistribution for the Johnson &#160;distribution , ,   with shape parameters &#160;...">
<polygon fill="none" stroke="black" points="0,-1 0,-21 84,-21 84,-1 0,-1"/>
<text text-anchor="middle" x="42" y="-8" font-family="Helvetica,sans-Serif" font-size="10.00">JohnsonSBDist</text>
</a>
</g>
<!-- Node1&#45;&gt;Node4 -->
<g id="edge6" class="edge"><title>Node1&#45;&gt;Node4</title>
<path fill="none" stroke="midnightblue" d="M116.586,-53.8314C98.6663,-43.5411 75.4637,-30.2168 59.7301,-21.1817"/>
<polygon fill="midnightblue" stroke="midnightblue" points="114.992,-56.9524 125.407,-58.8972 118.478,-50.8821 114.992,-56.9524"/>
</g>
<!-- Node5 -->
<g id="node9" class="node"><title>Node5</title>
<a xlink:href="classumontreal_1_1ssj_1_1probdist_1_1JohnsonSLDist.html" target="_top" xlink:title="Extends the class ContinuousDistribution for the Johnson &#160;distribution (see ,  ). ">
<polygon fill="none" stroke="black" points="101.5,-1 101.5,-21 184.5,-21 184.5,-1 101.5,-1"/>
<text text-anchor="middle" x="143" y="-8" font-family="Helvetica,sans-Serif" font-size="10.00">JohnsonSLDist</text>
</a>
</g>
<!-- Node1&#45;&gt;Node5 -->
<g id="edge8" class="edge"><title>Node1&#45;&gt;Node5</title>
<path fill="none" stroke="midnightblue" d="M143,-48.8902C143,-39.6201 143,-29.0083 143,-21.3776"/>
<polygon fill="midnightblue" stroke="midnightblue" points="139.5,-48.8971 143,-58.8972 146.5,-48.8972 139.5,-48.8971"/>
</g>
<!-- Node6 -->
<g id="node11" class="node"><title>Node6</title>
<a xlink:href="classumontreal_1_1ssj_1_1probdist_1_1JohnsonSUDist.html" target="_top" xlink:title="Extends the class ContinuousDistribution for the Johnson &#160;distribution (see   (page 316))...">
<polygon fill="none" stroke="black" points="202,-1 202,-21 286,-21 286,-1 202,-1"/>
<text text-anchor="middle" x="244" y="-8" font-family="Helvetica,sans-Serif" font-size="10.00">JohnsonSUDist</text>
</a>
</g>
<!-- Node1&#45;&gt;Node6 -->
<g id="edge10" class="edge"><title>Node1&#45;&gt;Node6</title>
<path fill="none" stroke="midnightblue" d="M169.414,-53.8314C187.334,-43.5411 210.536,-30.2168 226.27,-21.1817"/>
<polygon fill="midnightblue" stroke="midnightblue" points="167.522,-50.8821 160.593,-58.8972 171.008,-56.9524 167.522,-50.8821"/>
</g>
<!-- Node2 -->
<g id="node2" class="node"><title>Node2</title>
<a xlink:href="classumontreal_1_1ssj_1_1probdist_1_1ContinuousDistribution.html" target="_top" xlink:title="Classes implementing continuous distributions should inherit from this base class. ">
<polygon fill="none" stroke="black" points="86,-117 86,-137 200,-137 200,-117 86,-117"/>
<text text-anchor="middle" x="143" y="-124" font-family="Helvetica,sans-Serif" font-size="10.00">ContinuousDistribution</text>
</a>
</g>
<!-- Node2&#45;&gt;Node1 -->
<g id="edge2" class="edge"><title>Node2&#45;&gt;Node1</title>
<path fill="none" stroke="midnightblue" d="M143,-106.89C143,-97.6201 143,-87.0083 143,-79.3776"/>
<polygon fill="midnightblue" stroke="midnightblue" points="139.5,-106.897 143,-116.897 146.5,-106.897 139.5,-106.897"/>
</g>
<!-- Node3 -->
<g id="node4" class="node"><title>Node3</title>
<a xlink:href="interfaceumontreal_1_1ssj_1_1probdist_1_1Distribution.html" target="_top" xlink:title="This interface should be implemented by all classes supporting discrete and continuous distributions...">
<polygon fill="none" stroke="black" points="110.5,-175 110.5,-195 175.5,-195 175.5,-175 110.5,-175"/>
<text text-anchor="middle" x="143" y="-182" font-family="Helvetica,sans-Serif" font-size="10.00">Distribution</text>
</a>
</g>
<!-- Node3&#45;&gt;Node2 -->
<g id="edge4" class="edge"><title>Node3&#45;&gt;Node2</title>
<path fill="none" stroke="midnightblue" d="M143,-164.89C143,-155.62 143,-145.008 143,-137.378"/>
<polygon fill="midnightblue" stroke="midnightblue" points="139.5,-164.897 143,-174.897 146.5,-164.897 139.5,-164.897"/>
</g>
</g>
</svg>
