<?xml version="1.0" encoding="UTF-8" standalone="no"?>
<!DOCTYPE svg PUBLIC "-//W3C//DTD SVG 1.1//EN"
 "http://www.w3.org/Graphics/SVG/1.1/DTD/svg11.dtd">
<!-- Generated by graphviz version 2.38.0 (20140413.2041)
 -->
<!-- Title: ssj Pages: 1 -->
<svg width="1236pt" height="111pt"
 viewBox="0.00 0.00 1236.00 111.00" xmlns="http://www.w3.org/2000/svg" xmlns:xlink="http://www.w3.org/1999/xlink">
<g id="graph0" class="graph" transform="scale(1 1) rotate(0) translate(4 107)">
<title>ssj</title>
<g id="clust1" class="cluster"><title>clusterdir_c8300a1f574a2409c22eec2aec032433</title>
<g id="a_clust1"><a xlink:href="dir_c8300a1f574a2409c22eec2aec032433.html" target="_top" xlink:title="umontreal">
<polygon fill="#ddddee" stroke="black" points="8,-8 8,-95 1220,-95 1220,-8 8,-8"/>
<text text-anchor="middle" x="614" y="-83" font-family="Helvetica,sans-Serif" font-size="10.00">umontreal</text>
</a>
</g>
</g>
<g id="clust2" class="cluster"><title>clusterdir_139b5ac59c3dbe066429680c6fc2a9c3</title>
<g id="a_clust2"><a xlink:href="dir_139b5ac59c3dbe066429680c6fc2a9c3.html" target="_top">
<polygon fill="#eeeeff" stroke="black" points="16,-16 16,-68 1212,-68 1212,-16 16,-16"/>
</a>
</g>
</g>
<!-- dir_139b5ac59c3dbe066429680c6fc2a9c3 -->
<g id="node1" class="node"><title>dir_139b5ac59c3dbe066429680c6fc2a9c3</title>
<text text-anchor="middle" x="1177" y="-39.5" font-family="Helvetica,sans-Serif" font-size="10.00">ssj</text>
</g>
<!-- dir_7f97c2a33908d022b5b4c36c939adc43 -->
<g id="node2" class="node"><title>dir_7f97c2a33908d022b5b4c36c939adc43</title>
<g id="a_node2"><a xlink:href="dir_7f97c2a33908d022b5b4c36c939adc43.html" target="_top" xlink:title="charts">
<polygon fill="white" stroke="black" points="1132,-60 1078,-60 1078,-24 1132,-24 1132,-60"/>
<text text-anchor="middle" x="1105" y="-39.5" font-family="Helvetica,sans-Serif" font-size="10.00">charts</text>
</a>
</g>
</g>
<!-- dir_e336d44f64fb4caa5049101ec2ef86b1 -->
<g id="node3" class="node"><title>dir_e336d44f64fb4caa5049101ec2ef86b1</title>
<g id="a_node3"><a xlink:href="dir_e336d44f64fb4caa5049101ec2ef86b1.html" target="_top" xlink:title="functionfit">
<polygon fill="white" stroke="black" points="1059.5,-60 992.5,-60 992.5,-24 1059.5,-24 1059.5,-60"/>
<text text-anchor="middle" x="1026" y="-39.5" font-family="Helvetica,sans-Serif" font-size="10.00">functionfit</text>
</a>
</g>
</g>
<!-- dir_03faf9d020247c1031ca19e0c8747826 -->
<g id="node4" class="node"><title>dir_03faf9d020247c1031ca19e0c8747826</title>
<g id="a_node4"><a xlink:href="dir_03faf9d020247c1031ca19e0c8747826.html" target="_top" xlink:title="functions">
<polygon fill="white" stroke="black" points="974,-60 912,-60 912,-24 974,-24 974,-60"/>
<text text-anchor="middle" x="943" y="-39.5" font-family="Helvetica,sans-Serif" font-size="10.00">functions</text>
</a>
</g>
</g>
<!-- dir_4a7e43cccf404aca54738295d20293a2 -->
<g id="node5" class="node"><title>dir_4a7e43cccf404aca54738295d20293a2</title>
<g id="a_node5"><a xlink:href="dir_4a7e43cccf404aca54738295d20293a2.html" target="_top" xlink:title="gof">
<polygon fill="white" stroke="black" points="894,-60 840,-60 840,-24 894,-24 894,-60"/>
<text text-anchor="middle" x="867" y="-39.5" font-family="Helvetica,sans-Serif" font-size="10.00">gof</text>
</a>
</g>
</g>
<!-- dir_88d77e545238ffe2e79ceacc04301699 -->
<g id="node6" class="node"><title>dir_88d77e545238ffe2e79ceacc04301699</title>
<g id="a_node6"><a xlink:href="dir_88d77e545238ffe2e79ceacc04301699.html" target="_top" xlink:title="hups">
<polygon fill="white" stroke="red" points="822,-60 768,-60 768,-24 822,-24 822,-60"/>
<text text-anchor="middle" x="795" y="-39.5" font-family="Helvetica,sans-Serif" font-size="10.00">hups</text>
</a>
</g>
</g>
<!-- dir_f85803f4943f9f78d27af3581bf3feeb -->
<g id="node7" class="node"><title>dir_f85803f4943f9f78d27af3581bf3feeb</title>
<g id="a_node7"><a xlink:href="dir_f85803f4943f9f78d27af3581bf3feeb.html" target="_top" xlink:title="probdist">
<polygon fill="white" stroke="black" points="750,-60 694,-60 694,-24 750,-24 750,-60"/>
<text text-anchor="middle" x="722" y="-39.5" font-family="Helvetica,sans-Serif" font-size="10.00">probdist</text>
</a>
</g>
</g>
<!-- dir_6636ebab5ecbaa81eb89a89dd8e023a4 -->
<g id="node8" class="node"><title>dir_6636ebab5ecbaa81eb89a89dd8e023a4</title>
<g id="a_node8"><a xlink:href="dir_6636ebab5ecbaa81eb89a89dd8e023a4.html" target="_top" xlink:title="probdistmulti">
<polygon fill="white" stroke="red" points="676,-60 594,-60 594,-24 676,-24 676,-60"/>
<text text-anchor="middle" x="635" y="-39.5" font-family="Helvetica,sans-Serif" font-size="10.00">probdistmulti</text>
</a>
</g>
</g>
<!-- dir_4ea54df0aa3d7a4283513296323b275f -->
<g id="node9" class="node"><title>dir_4ea54df0aa3d7a4283513296323b275f</title>
<g id="a_node9"><a xlink:href="dir_4ea54df0aa3d7a4283513296323b275f.html" target="_top" xlink:title="randvar">
<polygon fill="white" stroke="black" points="576,-60 522,-60 522,-24 576,-24 576,-60"/>
<text text-anchor="middle" x="549" y="-39.5" font-family="Helvetica,sans-Serif" font-size="10.00">randvar</text>
</a>
</g>
</g>
<!-- dir_27e8d0b8e03216d8fe34cc2ecfe49786 -->
<g id="node10" class="node"><title>dir_27e8d0b8e03216d8fe34cc2ecfe49786</title>
<g id="a_node10"><a xlink:href="dir_27e8d0b8e03216d8fe34cc2ecfe49786.html" target="_top" xlink:title="randvarmulti">
<polygon fill="white" stroke="black" points="504,-60 424,-60 424,-24 504,-24 504,-60"/>
<text text-anchor="middle" x="464" y="-39.5" font-family="Helvetica,sans-Serif" font-size="10.00">randvarmulti</text>
</a>
</g>
</g>
<!-- dir_ec6dbe28a92c3bf21a35dc1eec38dff5 -->
<g id="node11" class="node"><title>dir_ec6dbe28a92c3bf21a35dc1eec38dff5</title>
<g id="a_node11"><a xlink:href="dir_ec6dbe28a92c3bf21a35dc1eec38dff5.html" target="_top" xlink:title="rng">
<polygon fill="white" stroke="black" points="406,-60 352,-60 352,-24 406,-24 406,-60"/>
<text text-anchor="middle" x="379" y="-39.5" font-family="Helvetica,sans-Serif" font-size="10.00">rng</text>
</a>
</g>
</g>
<!-- dir_a17aa53628817856c157aeeb11341854 -->
<g id="node12" class="node"><title>dir_a17aa53628817856c157aeeb11341854</title>
<g id="a_node12"><a xlink:href="dir_a17aa53628817856c157aeeb11341854.html" target="_top" xlink:title="simevents">
<polygon fill="white" stroke="red" points="334,-60 266,-60 266,-24 334,-24 334,-60"/>
<text text-anchor="middle" x="300" y="-39.5" font-family="Helvetica,sans-Serif" font-size="10.00">simevents</text>
</a>
</g>
</g>
<!-- dir_c60d23727228c50c13c917014dee6fee -->
<g id="node13" class="node"><title>dir_c60d23727228c50c13c917014dee6fee</title>
<g id="a_node13"><a xlink:href="dir_c60d23727228c50c13c917014dee6fee.html" target="_top" xlink:title="stat">
<polygon fill="white" stroke="red" points="248,-60 194,-60 194,-24 248,-24 248,-60"/>
<text text-anchor="middle" x="221" y="-39.5" font-family="Helvetica,sans-Serif" font-size="10.00">stat</text>
</a>
</g>
</g>
<!-- dir_81f435be5cca14b00f577ec681cb84ee -->
<g id="node14" class="node"><title>dir_81f435be5cca14b00f577ec681cb84ee</title>
<g id="a_node14"><a xlink:href="dir_81f435be5cca14b00f577ec681cb84ee.html" target="_top" xlink:title="stochprocess">
<polygon fill="white" stroke="black" points="176,-60 96,-60 96,-24 176,-24 176,-60"/>
<text text-anchor="middle" x="136" y="-39.5" font-family="Helvetica,sans-Serif" font-size="10.00">stochprocess</text>
</a>
</g>
</g>
<!-- dir_cdc15c6492e2eab54f3d3992440383a9 -->
<g id="node15" class="node"><title>dir_cdc15c6492e2eab54f3d3992440383a9</title>
<g id="a_node15"><a xlink:href="dir_cdc15c6492e2eab54f3d3992440383a9.html" target="_top" xlink:title="util">
<polygon fill="white" stroke="red" points="78,-60 24,-60 24,-24 78,-24 78,-60"/>
<text text-anchor="middle" x="51" y="-39.5" font-family="Helvetica,sans-Serif" font-size="10.00">util</text>
</a>
</g>
</g>
</g>
</svg>
