<?xml version="1.0" encoding="UTF-8" standalone="no"?>
<!DOCTYPE svg PUBLIC "-//W3C//DTD SVG 1.1//EN"
 "http://www.w3.org/Graphics/SVG/1.1/DTD/svg11.dtd">
<!-- Generated by graphviz version 2.26.3 (20100126.1600)
 -->
<!-- Title: Graph Legend Pages: 1 -->
<svg width="504pt" height="164pt"
 viewBox="0.00 0.00 504.00 164.00" xmlns="http://www.w3.org/2000/svg" xmlns:xlink="http://www.w3.org/1999/xlink">
<g id="graph1" class="graph" transform="scale(1 1) rotate(0) translate(4 160)">
<title>Graph Legend</title>
<!-- Node9 -->
<g id="node1" class="node"><title>Node9</title>
<polygon fill="#bfbfbf" stroke="black" points="291,-20 237,-20 237,-1.06581e-14 291,-3.55271e-15 291,-20"/>
<text text-anchor="middle" x="264" y="-7" font-family="Helvetica,sans-Serif" font-size="10.00">Inherited</text>
</g>
<!-- Node10 -->
<g id="node2" class="node"><title>Node10</title>
<a xlink:href="$classPublicBase.html" xlink:title="PublicBase">
<polygon fill="none" stroke="black" points="66,-88 2.84217e-14,-88 0,-68 66,-68 66,-88"/>
<text text-anchor="middle" x="33" y="-75" font-family="Helvetica,sans-Serif" font-size="10.00">PublicBase</text>
</a>
</g>
<!-- Node10&#45;&gt;Node9 -->
<g id="edge2" class="edge"><title>Node10&#45;&gt;Node9</title>
<path fill="none" stroke="midnightblue" d="M75.6999,-65.4303C122.742,-51.5824 196.985,-29.7273 236.737,-18.0256"/>
<polygon fill="midnightblue" stroke="midnightblue" points="74.7013,-62.0757 66.0967,-68.2573 76.6781,-68.7908 74.7013,-62.0757"/>
</g>
<!-- Node11 -->
<g id="node4" class="node"><title>Node11</title>
<a xlink:href="$classTruncated.html" xlink:title="Truncated">
<polygon fill="none" stroke="red" points="63,-156 3,-156 3,-136 63,-136 63,-156"/>
<text text-anchor="middle" x="33" y="-143" font-family="Helvetica,sans-Serif" font-size="10.00">Truncated</text>
</a>
</g>
<!-- Node11&#45;&gt;Node10 -->
<g id="edge4" class="edge"><title>Node11&#45;&gt;Node10</title>
<path fill="none" stroke="midnightblue" d="M33,-125.633C33,-113.233 33,-97.9332 33,-88.0748"/>
<polygon fill="midnightblue" stroke="midnightblue" points="29.5001,-125.966 33,-135.966 36.5001,-125.966 29.5001,-125.966"/>
</g>
<!-- Node13 -->
<g id="node6" class="node"><title>Node13</title>
<a xlink:href="$classProtectedBase.html" xlink:title="ProtectedBase">
<polygon fill="none" stroke="black" points="164,-88 84,-88 84,-68 164,-68 164,-88"/>
<text text-anchor="middle" x="124" y="-75" font-family="Helvetica,sans-Serif" font-size="10.00">ProtectedBase</text>
</a>
</g>
<!-- Node13&#45;&gt;Node9 -->
<g id="edge6" class="edge"><title>Node13&#45;&gt;Node9</title>
<path fill="none" stroke="darkgreen" d="M153.98,-63.4383C180.878,-50.3737 219.647,-31.5428 243.258,-20.0748"/>
<polygon fill="darkgreen" stroke="darkgreen" points="152.123,-60.449 144.657,-67.9664 155.182,-66.7456 152.123,-60.449"/>
</g>
<!-- Node14 -->
<g id="node8" class="node"><title>Node14</title>
<a xlink:href="$classPrivateBase.html" xlink:title="PrivateBase">
<polygon fill="none" stroke="black" points="252,-88 182,-88 182,-68 252,-68 252,-88"/>
<text text-anchor="middle" x="217" y="-75" font-family="Helvetica,sans-Serif" font-size="10.00">PrivateBase</text>
</a>
</g>
<!-- Node14&#45;&gt;Node9 -->
<g id="edge8" class="edge"><title>Node14&#45;&gt;Node9</title>
<path fill="none" stroke="#8b1a1a" d="M229.782,-59.5072C238.559,-46.8082 249.875,-30.4362 257.037,-20.0748"/>
<polygon fill="#8b1a1a" stroke="#8b1a1a" points="226.742,-57.75 223.935,-67.9664 232.5,-61.7301 226.742,-57.75"/>
</g>
<!-- Node15 -->
<g id="node10" class="node"><title>Node15</title>
<polygon fill="none" stroke="#bfbfbf" points="352,-88 270,-88 270,-68 352,-68 352,-88"/>
<text text-anchor="middle" x="311" y="-75" font-family="Helvetica,sans-Serif" font-size="10.00">Undocumented</text>
</g>
<!-- Node15&#45;&gt;Node9 -->
<g id="edge10" class="edge"><title>Node15&#45;&gt;Node9</title>
<path fill="none" stroke="midnightblue" d="M298.218,-59.5072C289.441,-46.8082 278.125,-30.4362 270.963,-20.0748"/>
<polygon fill="midnightblue" stroke="midnightblue" points="295.5,-61.7301 304.065,-67.9664 301.258,-57.75 295.5,-61.7301"/>
</g>
<!-- Node16 -->
<g id="node12" class="node"><title>Node16</title>
<a xlink:href="$classTempl.html" xlink:title="Templ&lt; int &gt;">
<polygon fill="none" stroke="black" points="440,-88 370,-88 370,-68 440,-68 440,-88"/>
<text text-anchor="middle" x="405" y="-75" font-family="Helvetica,sans-Serif" font-size="10.00">Templ&lt; int &gt;</text>
</a>
</g>
<!-- Node16&#45;&gt;Node9 -->
<g id="edge12" class="edge"><title>Node16&#45;&gt;Node9</title>
<path fill="none" stroke="midnightblue" d="M375.162,-63.6099C348.059,-50.539 308.774,-31.5931 284.89,-20.0748"/>
<polygon fill="midnightblue" stroke="midnightblue" points="373.667,-66.7749 384.195,-67.9664 376.708,-60.4699 373.667,-66.7749"/>
</g>
<!-- Node17 -->
<g id="node14" class="node"><title>Node17</title>
<a xlink:href="$classTempl.html" xlink:title="Templ&lt; T &gt;">
<polygon fill="none" stroke="black" points="438,-156 372,-156 372,-136 438,-136 438,-156"/>
<text text-anchor="middle" x="405" y="-143" font-family="Helvetica,sans-Serif" font-size="10.00">Templ&lt; T &gt;</text>
</a>
</g>
<!-- Node17&#45;&gt;Node16 -->
<g id="edge14" class="edge"><title>Node17&#45;&gt;Node16</title>
<path fill="none" stroke="orange" stroke-dasharray="5,2" d="M405,-125.633C405,-113.233 405,-97.9332 405,-88.0748"/>
<polygon fill="orange" stroke="orange" points="401.5,-125.966 405,-135.966 408.5,-125.966 401.5,-125.966"/>
<text text-anchor="middle" x="419.5" y="-109" font-family="Helvetica,sans-Serif" font-size="10.00">&lt; int &gt;</text>
</g>
<!-- Node18 -->
<g id="node16" class="node"><title>Node18</title>
<a xlink:href="$classUsed.html" xlink:title="Used">
<polygon fill="none" stroke="black" points="496,-88 458,-88 458,-68 496,-68 496,-88"/>
<text text-anchor="middle" x="477" y="-75" font-family="Helvetica,sans-Serif" font-size="10.00">Used</text>
</a>
</g>
<!-- Node18&#45;&gt;Node9 -->
<g id="edge16" class="edge"><title>Node18&#45;&gt;Node9</title>
<path fill="none" stroke="#9a32cd" stroke-dasharray="5,2" d="M447.906,-67.7163C386.529,-47.2492 325.372,-28.4953 291.068,-18.1228"/>
<polygon fill="#9a32cd" stroke="#9a32cd" points="447.161,-71.1577 457.755,-71.0149 449.384,-64.5201 447.161,-71.1577"/>
<text text-anchor="middle" x="423" y="-41" font-family="Helvetica,sans-Serif" font-size="10.00">m_usedClass</text>
</g>
</g>
</svg>
