<?xml version="1.0" encoding="UTF-8" standalone="no"?>
<!DOCTYPE svg PUBLIC "-//W3C//DTD SVG 1.1//EN"
 "http://www.w3.org/Graphics/SVG/1.1/DTD/svg11.dtd">
<!-- Generated by graphviz version 2.38.0 (20140413.2041)
 -->
<!-- Title: Graphical Class Hierarchy Pages: 1 -->
<svg width="301pt" height="100pt"
 viewBox="0.00 0.00 301.00 99.50" xmlns="http://www.w3.org/2000/svg" xmlns:xlink="http://www.w3.org/1999/xlink">
<g id="graph0" class="graph" transform="scale(1 1) rotate(0) translate(4 95.5)">
<title>Graphical Class Hierarchy</title>
<!-- Node0 -->
<g id="node1" class="node"><title>Node0</title>
<g id="a_node1"><a xlink:href="interfaceumontreal_1_1ssj_1_1util_1_1sort_1_1MultiDimSort.html" target="_top" xlink:title="This interface is meant to be implemented by certain multivariate sorting algorithms that sort object...">
<polygon fill="none" stroke="black" points="0,-38.5 0,-57.5 96,-57.5 96,-38.5 0,-38.5"/>
<text text-anchor="middle" x="48" y="-45.5" font-family="Helvetica,sans-Serif" font-size="10.00">MultiDimSort&lt; T &gt;</text>
</a>
</g>
</g>
<!-- Node1 -->
<g id="node2" class="node"><title>Node1</title>
<g id="a_node2"><a xlink:href="interfaceumontreal_1_1ssj_1_1util_1_1sort_1_1MultiDimSort01.html" target="_top" xlink:title="This interface extends MultiDimSort&lt;T&gt; to implement multivariate sorting algorithms that sort points ...">
<polygon fill="none" stroke="black" points="145,-61 145,-91 280,-91 280,-61 145,-61"/>
<text text-anchor="start" x="153" y="-79" font-family="Helvetica,sans-Serif" font-size="10.00">MultiDimSort01&lt; T extends</text>
<text text-anchor="middle" x="212.5" y="-68" font-family="Helvetica,sans-Serif" font-size="10.00"> MultiDim01 &gt;</text>
</a>
</g>
</g>
<!-- Node0&#45;&gt;Node1 -->
<g id="edge1" class="edge"><title>Node0&#45;&gt;Node1</title>
<path fill="none" stroke="midnightblue" d="M105.908,-57.8057C118.524,-59.9795 132.002,-62.3019 144.964,-64.5353"/>
<polygon fill="midnightblue" stroke="midnightblue" points="106.451,-54.3477 96.0017,-56.0988 105.262,-61.2461 106.451,-54.3477"/>
</g>
<!-- Node2 -->
<g id="node3" class="node"><title>Node2</title>
<g id="a_node3"><a xlink:href="interfaceumontreal_1_1ssj_1_1util_1_1sort_1_1MultiDimSortComparable.html" target="_top" xlink:title="This interface extends MultiDimSort&lt;T&gt; to implement multivariate sorting algorithms that sort objects...">
<polygon fill="none" stroke="black" points="132,-0.5 132,-41.5 293,-41.5 293,-0.5 132,-0.5"/>
<text text-anchor="start" x="140" y="-29.5" font-family="Helvetica,sans-Serif" font-size="10.00">MultiDimSortComparable</text>
<text text-anchor="start" x="140" y="-18.5" font-family="Helvetica,sans-Serif" font-size="10.00">&lt; T extends MultiDimComparable</text>
<text text-anchor="middle" x="212.5" y="-7.5" font-family="Helvetica,sans-Serif" font-size="10.00">&lt;? super T &gt;</text>
</a>
</g>
</g>
<!-- Node0&#45;&gt;Node2 -->
<g id="edge2" class="edge"><title>Node0&#45;&gt;Node2</title>
<path fill="none" stroke="midnightblue" d="M105.998,-38.5296C114.368,-37.1388 123.117,-35.6851 131.842,-34.2355"/>
<polygon fill="midnightblue" stroke="midnightblue" points="105.293,-35.0987 96.0017,-40.1905 106.44,-42.004 105.293,-35.0987"/>
</g>
</g>
</svg>
