<?xml version="1.0" encoding="UTF-8" standalone="no"?>
<!DOCTYPE svg PUBLIC "-//W3C//DTD SVG 1.1//EN"
 "http://www.w3.org/Graphics/SVG/1.1/DTD/svg11.dtd">
<!-- Generated by graphviz version 2.26.3 (20100126.1600)
 -->
<!-- Title: Graphical Class Hierarchy Pages: 1 -->
<svg width="280pt" height="180pt"
 viewBox="0.00 0.00 280.00 180.00" xmlns="http://www.w3.org/2000/svg" xmlns:xlink="http://www.w3.org/1999/xlink">
<g id="graph1" class="graph" transform="scale(1 1) rotate(0) translate(4 176)">
<title>Graphical Class Hierarchy</title>
<!-- Node1 -->
<g id="node1" class="node"><title>Node1</title>
<a xlink:href="classumontreal_1_1ssj_1_1charts_1_1XYChart.html" target="_top" xlink:title="This class provides tools to create charts from data in a simple way. ">
<polygon fill="none" stroke="black" points="0.5,-95 0.5,-115 53.5,-115 53.5,-95 0.5,-95"/>
<text text-anchor="middle" x="27" y="-102" font-family="Helvetica,sans-Serif" font-size="10.00">XYChart</text>
</a>
</g>
<!-- Node2 -->
<g id="node3" class="node"><title>Node2</title>
<a xlink:href="classumontreal_1_1ssj_1_1charts_1_1EmpiricalChart.html" target="_top" xlink:title="This class provides additional tools to create and manage empirical plots. ">
<polygon fill="none" stroke="black" points="92,-152 92,-172 172,-172 172,-152 92,-152"/>
<text text-anchor="middle" x="132" y="-159" font-family="Helvetica,sans-Serif" font-size="10.00">EmpiricalChart</text>
</a>
</g>
<!-- Node1&#45;&gt;Node2 -->
<g id="edge2" class="edge"><title>Node1&#45;&gt;Node2</title>
<path fill="none" stroke="midnightblue" d="M51.1508,-120.482C62.7205,-127.661 76.8845,-136.109 90,-143 95.8094,-146.052 102.206,-149.099 108.218,-151.83"/>
<polygon fill="midnightblue" stroke="midnightblue" points="52.8283,-117.403 42.4978,-115.051 49.1069,-123.331 52.8283,-117.403"/>
</g>
<!-- Node3 -->
<g id="node5" class="node"><title>Node3</title>
<a xlink:href="classumontreal_1_1ssj_1_1charts_1_1HistogramChart.html" target="_top" xlink:title="This class provides tools to create and manage histograms. ">
<polygon fill="none" stroke="black" points="90,-114 90,-134 174,-134 174,-114 90,-114"/>
<text text-anchor="middle" x="132" y="-121" font-family="Helvetica,sans-Serif" font-size="10.00">HistogramChart</text>
</a>
</g>
<!-- Node1&#45;&gt;Node3 -->
<g id="edge4" class="edge"><title>Node1&#45;&gt;Node3</title>
<path fill="none" stroke="midnightblue" d="M63.6817,-111.638C72.1076,-113.162 81.1331,-114.796 89.7723,-116.359"/>
<polygon fill="midnightblue" stroke="midnightblue" points="64.2311,-108.18 53.7676,-109.844 62.9846,-115.068 64.2311,-108.18"/>
</g>
<!-- Node4 -->
<g id="node7" class="node"><title>Node4</title>
<a xlink:href="classumontreal_1_1ssj_1_1charts_1_1ScatterChart.html" target="_top" xlink:title="This class provides tools to create and manage scatter plots. ">
<polygon fill="none" stroke="black" points="96.5,-76 96.5,-96 167.5,-96 167.5,-76 96.5,-76"/>
<text text-anchor="middle" x="132" y="-83" font-family="Helvetica,sans-Serif" font-size="10.00">ScatterChart</text>
</a>
</g>
<!-- Node1&#45;&gt;Node4 -->
<g id="edge6" class="edge"><title>Node1&#45;&gt;Node4</title>
<path fill="none" stroke="midnightblue" d="M63.8732,-98.3277C74.3534,-96.4313 85.7479,-94.3694 96.1655,-92.4843"/>
<polygon fill="midnightblue" stroke="midnightblue" points="62.9846,-94.9316 53.7676,-100.156 64.231,-101.82 62.9846,-94.9316"/>
</g>
<!-- Node5 -->
<g id="node9" class="node"><title>Node5</title>
<a xlink:href="classumontreal_1_1ssj_1_1charts_1_1XYLineChart.html" target="_top" xlink:title="This class provides tools to create and manage curve plots. ">
<polygon fill="none" stroke="black" points="96.5,-38 96.5,-58 167.5,-58 167.5,-38 96.5,-38"/>
<text text-anchor="middle" x="132" y="-45" font-family="Helvetica,sans-Serif" font-size="10.00">XYLineChart</text>
</a>
</g>
<!-- Node1&#45;&gt;Node5 -->
<g id="edge8" class="edge"><title>Node1&#45;&gt;Node5</title>
<path fill="none" stroke="midnightblue" d="M51.1508,-89.518C62.7205,-82.3391 76.8845,-73.8914 90,-67 95.8094,-63.9475 102.206,-60.9011 108.218,-58.1701"/>
<polygon fill="midnightblue" stroke="midnightblue" points="49.1069,-86.6686 42.4978,-94.9494 52.8283,-92.5974 49.1069,-86.6686"/>
</g>
<!-- Node6 -->
<g id="node11" class="node"><title>Node6</title>
<a xlink:href="classumontreal_1_1ssj_1_1charts_1_1PPPlot.html" target="_top" xlink:title="This class implements PP&#45;plot (or probability&#45;probability plot) objects that compare two probability ...">
<polygon fill="none" stroke="black" points="217.5,-76 217.5,-96 264.5,-96 264.5,-76 217.5,-76"/>
<text text-anchor="middle" x="241" y="-83" font-family="Helvetica,sans-Serif" font-size="10.00">PPPlot</text>
</a>
</g>
<!-- Node5&#45;&gt;Node6 -->
<g id="edge10" class="edge"><title>Node5&#45;&gt;Node6</title>
<path fill="none" stroke="midnightblue" d="M170.388,-61.3828C186.078,-66.8528 203.726,-73.0052 217.453,-77.7911"/>
<polygon fill="midnightblue" stroke="midnightblue" points="171.519,-58.0706 160.924,-58.0835 169.214,-64.6805 171.519,-58.0706"/>
</g>
<!-- Node7 -->
<g id="node13" class="node"><title>Node7</title>
<a xlink:href="classumontreal_1_1ssj_1_1charts_1_1QQPlot.html" target="_top" xlink:title="This class implements QQ&#45;plot (or quantile&#45;quantile plot) objects that compare two probability distri...">
<polygon fill="none" stroke="black" points="216.5,-38 216.5,-58 265.5,-58 265.5,-38 216.5,-38"/>
<text text-anchor="middle" x="241" y="-45" font-family="Helvetica,sans-Serif" font-size="10.00">QQPlot</text>
</a>
</g>
<!-- Node5&#45;&gt;Node7 -->
<g id="edge12" class="edge"><title>Node5&#45;&gt;Node7</title>
<path fill="none" stroke="midnightblue" d="M178.014,-48C191.14,-48 204.94,-48 216.266,-48"/>
<polygon fill="midnightblue" stroke="midnightblue" points="177.691,-44.5001 167.691,-48 177.691,-51.5001 177.691,-44.5001"/>
</g>
<!-- Node8 -->
<g id="node15" class="node"><title>Node8</title>
<a xlink:href="classumontreal_1_1ssj_1_1charts_1_1YListChart.html" target="_top" xlink:title="This class extends the class umontreal.ssj.charts.XYLineChart. ">
<polygon fill="none" stroke="black" points="210,-0 210,-20 272,-20 272,-0 210,-0"/>
<text text-anchor="middle" x="241" y="-7" font-family="Helvetica,sans-Serif" font-size="10.00">YListChart</text>
</a>
</g>
<!-- Node5&#45;&gt;Node8 -->
<g id="edge14" class="edge"><title>Node5&#45;&gt;Node8</title>
<path fill="none" stroke="midnightblue" d="M170.53,-34.5674C184.153,-29.8181 199.236,-24.5599 211.941,-20.1307"/>
<polygon fill="midnightblue" stroke="midnightblue" points="169.214,-31.3196 160.924,-37.9165 171.519,-37.9294 169.214,-31.3196"/>
</g>
</g>
</svg>
