<?xml version="1.0" encoding="UTF-8" standalone="no"?>
<!DOCTYPE svg PUBLIC "-//W3C//DTD SVG 1.1//EN"
 "http://www.w3.org/Graphics/SVG/1.1/DTD/svg11.dtd">
<!-- Generated by graphviz version 2.38.0 (20140413.2041)
 -->
<!-- Title: Graphical Class Hierarchy Pages: 1 -->
<svg width="333pt" height="66pt"
 viewBox="0.00 0.00 333.00 66.00" xmlns="http://www.w3.org/2000/svg" xmlns:xlink="http://www.w3.org/1999/xlink">
<g id="graph0" class="graph" transform="scale(1 1) rotate(0) translate(4 62)">
<title>Graphical Class Hierarchy</title>
<!-- Node1 -->
<g id="node1" class="node"><title>Node1</title>
<g id="a_node1"><a xlink:href="classumontreal_1_1ssj_1_1probdistmulti_1_1DiscreteDistributionIntMulti.html" target="_top" xlink:title="Classes implementing multi&#45;dimensional discrete distributions over the integers should inherit from t...">
<polygon fill="none" stroke="black" points="0,-19.5 0,-38.5 151,-38.5 151,-19.5 0,-19.5"/>
<text text-anchor="middle" x="75.5" y="-26.5" font-family="Helvetica,sans-Serif" font-size="10.00">DiscreteDistributionIntMulti</text>
</a>
</g>
</g>
<!-- Node2 -->
<g id="node2" class="node"><title>Node2</title>
<g id="a_node2"><a xlink:href="classumontreal_1_1ssj_1_1probdistmulti_1_1MultinomialDist.html" target="_top" xlink:title="Implements the abstract class DiscreteDistributionIntMulti for the multinomial distribution with para...">
<polygon fill="none" stroke="black" points="209,-38.5 209,-57.5 303,-57.5 303,-38.5 209,-38.5"/>
<text text-anchor="middle" x="256" y="-45.5" font-family="Helvetica,sans-Serif" font-size="10.00">MultinomialDist</text>
</a>
</g>
</g>
<!-- Node1&#45;&gt;Node2 -->
<g id="edge1" class="edge"><title>Node1&#45;&gt;Node2</title>
<path fill="none" stroke="midnightblue" d="M161.33,-38.0295C177.727,-39.7748 194.323,-41.5414 208.898,-43.0927"/>
<polygon fill="midnightblue" stroke="midnightblue" points="161.48,-34.5258 151.166,-36.9476 160.739,-41.4865 161.48,-34.5258"/>
</g>
<!-- Node3 -->
<g id="node3" class="node"><title>Node3</title>
<g id="a_node3"><a xlink:href="classumontreal_1_1ssj_1_1probdistmulti_1_1NegativeMultinomialDist.html" target="_top" xlink:title="Implements the class DiscreteDistributionIntMulti for the negative multinomial distribution with para...">
<polygon fill="none" stroke="black" points="187,-0.5 187,-19.5 325,-19.5 325,-0.5 187,-0.5"/>
<text text-anchor="middle" x="256" y="-7.5" font-family="Helvetica,sans-Serif" font-size="10.00">NegativeMultinomialDist</text>
</a>
</g>
</g>
<!-- Node1&#45;&gt;Node3 -->
<g id="edge2" class="edge"><title>Node1&#45;&gt;Node3</title>
<path fill="none" stroke="midnightblue" d="M161.225,-19.9816C169.833,-19.0654 178.497,-18.1432 186.896,-17.2492"/>
<polygon fill="midnightblue" stroke="midnightblue" points="160.739,-16.5135 151.166,-21.0524 161.48,-23.4742 160.739,-16.5135"/>
</g>
</g>
</svg>
