<?xml version="1.0" encoding="UTF-8" standalone="no"?>
<!DOCTYPE svg PUBLIC "-//W3C//DTD SVG 1.1//EN"
 "http://www.w3.org/Graphics/SVG/1.1/DTD/svg11.dtd">
<!-- Generated by graphviz version 2.38.0 (20140413.2041)
 -->
<!-- Title: Graphical Class Hierarchy Pages: 1 -->
<svg width="531pt" height="332pt"
 viewBox="0.00 0.00 531.00 332.00" xmlns="http://www.w3.org/2000/svg" xmlns:xlink="http://www.w3.org/1999/xlink">
<g id="graph0" class="graph" transform="scale(1 1) rotate(0) translate(4 328)">
<title>Graphical Class Hierarchy</title>
<!-- Node0 -->
<g id="node1" class="node"><title>Node0</title>
<g id="a_node1"><a xlink:href="classumontreal_1_1ssj_1_1discrepancy_1_1Discrepancy.html" target="_top" xlink:title="This abstract class is the base class of all discrepancy classes. ">
<polygon fill="none" stroke="black" points="0,-152.5 0,-171.5 71,-171.5 71,-152.5 0,-152.5"/>
<text text-anchor="middle" x="35.5" y="-159.5" font-family="Helvetica,sans-Serif" font-size="10.00">Discrepancy</text>
</a>
</g>
</g>
<!-- Node1 -->
<g id="node2" class="node"><title>Node1</title>
<g id="a_node2"><a xlink:href="classumontreal_1_1ssj_1_1discrepancy_1_1BigDiscrepancy.html" target="_top" xlink:title="This abstract class is the base class of all discrepancy classes programmed with floating&#45;point numbe...">
<polygon fill="none" stroke="black" points="113.5,-304.5 113.5,-323.5 198.5,-323.5 198.5,-304.5 113.5,-304.5"/>
<text text-anchor="middle" x="156" y="-311.5" font-family="Helvetica,sans-Serif" font-size="10.00">BigDiscrepancy</text>
</a>
</g>
</g>
<!-- Node0&#45;&gt;Node1 -->
<g id="edge1" class="edge"><title>Node0&#45;&gt;Node1</title>
<path fill="none" stroke="midnightblue" d="M42.0492,-181.486C51.1319,-210.093 71.7777,-263.47 107,-295 111.274,-298.826 116.411,-301.926 121.712,-304.425"/>
<polygon fill="midnightblue" stroke="midnightblue" points="45.3743,-180.39 39.128,-171.832 38.6743,-182.417 45.3743,-180.39"/>
</g>
<!-- Node4 -->
<g id="node5" class="node"><title>Node4</title>
<g id="a_node5"><a xlink:href="classumontreal_1_1ssj_1_1discrepancy_1_1DiscL2Hickernell.html" target="_top" xlink:title="This class computes the Hickernell &#45;star discrepancy in   (eq. ">
<polygon fill="none" stroke="black" points="111.5,-266.5 111.5,-285.5 200.5,-285.5 200.5,-266.5 111.5,-266.5"/>
<text text-anchor="middle" x="156" y="-273.5" font-family="Helvetica,sans-Serif" font-size="10.00">DiscL2Hickernell</text>
</a>
</g>
</g>
<!-- Node0&#45;&gt;Node4 -->
<g id="edge4" class="edge"><title>Node0&#45;&gt;Node4</title>
<path fill="none" stroke="midnightblue" d="M46.1717,-180.71C57.9563,-201.857 79.7139,-236.057 107,-257 111.906,-260.765 117.654,-263.881 123.434,-266.424"/>
<polygon fill="midnightblue" stroke="midnightblue" points="49.167,-178.89 41.3407,-171.749 43.0054,-182.212 49.167,-178.89"/>
</g>
<!-- Node5 -->
<g id="node6" class="node"><title>Node5</title>
<g id="a_node6"><a xlink:href="classumontreal_1_1ssj_1_1discrepancy_1_1DiscL2Star.html" target="_top" xlink:title="This class computes the traditional &#45;star discrepancy &#160;for a set of &#160;points &#160;, ,  . ">
<polygon fill="none" stroke="black" points="123.5,-228.5 123.5,-247.5 188.5,-247.5 188.5,-228.5 123.5,-228.5"/>
<text text-anchor="middle" x="156" y="-235.5" font-family="Helvetica,sans-Serif" font-size="10.00">DiscL2Star</text>
</a>
</g>
</g>
<!-- Node0&#45;&gt;Node5 -->
<g id="edge5" class="edge"><title>Node0&#45;&gt;Node5</title>
<path fill="none" stroke="midnightblue" d="M53.9088,-178.598C67.5405,-190.945 87.4135,-207.566 107,-219 113.115,-222.57 120.026,-225.745 126.661,-228.431"/>
<polygon fill="midnightblue" stroke="midnightblue" points="56.004,-175.769 46.2861,-171.548 51.2509,-180.908 56.004,-175.769"/>
</g>
<!-- Node6 -->
<g id="node7" class="node"><title>Node6</title>
<g id="a_node7"><a xlink:href="classumontreal_1_1ssj_1_1discrepancy_1_1DiscL2Symmetric.html" target="_top" xlink:title="COMPLÉTER LA DOC ICI. ">
<polygon fill="none" stroke="black" points="109,-190.5 109,-209.5 203,-209.5 203,-190.5 109,-190.5"/>
<text text-anchor="middle" x="156" y="-197.5" font-family="Helvetica,sans-Serif" font-size="10.00">DiscL2Symmetric</text>
</a>
</g>
</g>
<!-- Node0&#45;&gt;Node6 -->
<g id="edge6" class="edge"><title>Node0&#45;&gt;Node6</title>
<path fill="none" stroke="midnightblue" d="M76.0429,-174.68C92.0542,-179.815 110.232,-185.644 125.107,-190.414"/>
<polygon fill="midnightblue" stroke="midnightblue" points="76.9937,-171.31 66.4026,-171.589 74.8562,-177.975 76.9937,-171.31"/>
</g>
<!-- Node7 -->
<g id="node8" class="node"><title>Node7</title>
<g id="a_node8"><a xlink:href="classumontreal_1_1ssj_1_1discrepancy_1_1DiscL2Unanchored.html" target="_top" xlink:title="A discrepancy is said to be reflection&#45;invariant if it has the same value when the points are reflect...">
<polygon fill="none" stroke="black" points="107,-152.5 107,-171.5 205,-171.5 205,-152.5 107,-152.5"/>
<text text-anchor="middle" x="156" y="-159.5" font-family="Helvetica,sans-Serif" font-size="10.00">DiscL2Unanchored</text>
</a>
</g>
</g>
<!-- Node0&#45;&gt;Node7 -->
<g id="edge7" class="edge"><title>Node0&#45;&gt;Node7</title>
<path fill="none" stroke="midnightblue" d="M81.1182,-162C89.5488,-162 98.401,-162 106.932,-162"/>
<polygon fill="midnightblue" stroke="midnightblue" points="81.0937,-158.5 71.0937,-162 81.0936,-165.5 81.0937,-158.5"/>
</g>
<!-- Node8 -->
<g id="node9" class="node"><title>Node8</title>
<g id="a_node9"><a xlink:href="classumontreal_1_1ssj_1_1discrepancy_1_1DiscShift1.html" target="_top" xlink:title="This class computes the discrepancy for randomly shifted points of a set &#160;  (eq. ...">
<polygon fill="none" stroke="black" points="125.5,-114.5 125.5,-133.5 186.5,-133.5 186.5,-114.5 125.5,-114.5"/>
<text text-anchor="middle" x="156" y="-121.5" font-family="Helvetica,sans-Serif" font-size="10.00">DiscShift1</text>
</a>
</g>
</g>
<!-- Node0&#45;&gt;Node8 -->
<g id="edge8" class="edge"><title>Node0&#45;&gt;Node8</title>
<path fill="none" stroke="midnightblue" d="M76.0429,-149.32C92.0542,-144.185 110.232,-138.356 125.107,-133.586"/>
<polygon fill="midnightblue" stroke="midnightblue" points="74.8562,-146.025 66.4026,-152.411 76.9937,-152.69 74.8562,-146.025"/>
</g>
<!-- Node10 -->
<g id="node11" class="node"><title>Node10</title>
<g id="a_node11"><a xlink:href="classumontreal_1_1ssj_1_1discrepancy_1_1DiscShift2.html" target="_top" xlink:title="This class computes the discrepancy in   (eq. ">
<polygon fill="none" stroke="black" points="125.5,-76.5 125.5,-95.5 186.5,-95.5 186.5,-76.5 125.5,-76.5"/>
<text text-anchor="middle" x="156" y="-83.5" font-family="Helvetica,sans-Serif" font-size="10.00">DiscShift2</text>
</a>
</g>
</g>
<!-- Node0&#45;&gt;Node10 -->
<g id="edge10" class="edge"><title>Node0&#45;&gt;Node10</title>
<path fill="none" stroke="midnightblue" d="M53.9088,-145.402C67.5405,-133.055 87.4135,-116.434 107,-105 113.115,-101.43 120.026,-98.2545 126.661,-95.5693"/>
<polygon fill="midnightblue" stroke="midnightblue" points="51.2509,-143.092 46.2861,-152.452 56.004,-148.231 51.2509,-143.092"/>
</g>
<!-- Node12 -->
<g id="node13" class="node"><title>Node12</title>
<g id="a_node13"><a xlink:href="classumontreal_1_1ssj_1_1discrepancy_1_1DiscShiftBaker1.html" target="_top" xlink:title="This class computes the discrepancy for randomly shifted, then baker folded points of a set ...">
<polygon fill="none" stroke="black" points="113,-38.5 113,-57.5 199,-57.5 199,-38.5 113,-38.5"/>
<text text-anchor="middle" x="156" y="-45.5" font-family="Helvetica,sans-Serif" font-size="10.00">DiscShiftBaker1</text>
</a>
</g>
</g>
<!-- Node0&#45;&gt;Node12 -->
<g id="edge12" class="edge"><title>Node0&#45;&gt;Node12</title>
<path fill="none" stroke="midnightblue" d="M46.1717,-143.29C57.9563,-122.143 79.7139,-87.9434 107,-67 111.906,-63.2347 117.654,-60.1188 123.434,-57.5758"/>
<polygon fill="midnightblue" stroke="midnightblue" points="43.0054,-141.788 41.3407,-152.251 49.167,-145.11 43.0054,-141.788"/>
</g>
<!-- Node14 -->
<g id="node15" class="node"><title>Node14</title>
<g id="a_node15"><a xlink:href="classumontreal_1_1ssj_1_1discrepancy_1_1Palpha.html" target="_top" xlink:title="Extends the class Discrepancy and implements the methods required to compute the &#160;figure of merit for...">
<polygon fill="none" stroke="black" points="132.5,-0.5 132.5,-19.5 179.5,-19.5 179.5,-0.5 132.5,-0.5"/>
<text text-anchor="middle" x="156" y="-7.5" font-family="Helvetica,sans-Serif" font-size="10.00">Palpha</text>
</a>
</g>
</g>
<!-- Node0&#45;&gt;Node14 -->
<g id="edge14" class="edge"><title>Node0&#45;&gt;Node14</title>
<path fill="none" stroke="midnightblue" d="M42.0492,-142.514C51.1319,-113.907 71.7777,-60.5302 107,-29 114.078,-22.6636 123.524,-18.317 132.164,-15.3988"/>
<polygon fill="midnightblue" stroke="midnightblue" points="38.6743,-141.583 39.128,-152.168 45.3743,-143.61 38.6743,-141.583"/>
</g>
<!-- Node2 -->
<g id="node3" class="node"><title>Node2</title>
<g id="a_node3"><a xlink:href="classumontreal_1_1ssj_1_1discrepancy_1_1BigDiscShiftBaker1.html" target="_top" xlink:title="This class computes the same discrepancy as in umontreal.ssj.discrepancy.DiscShiftBaker1 [see eq...">
<polygon fill="none" stroke="black" points="248.5,-304.5 248.5,-323.5 349.5,-323.5 349.5,-304.5 248.5,-304.5"/>
<text text-anchor="middle" x="299" y="-311.5" font-family="Helvetica,sans-Serif" font-size="10.00">BigDiscShiftBaker1</text>
</a>
</g>
</g>
<!-- Node1&#45;&gt;Node2 -->
<g id="edge2" class="edge"><title>Node1&#45;&gt;Node2</title>
<path fill="none" stroke="midnightblue" d="M208.681,-314C221.612,-314 235.455,-314 248.289,-314"/>
<polygon fill="midnightblue" stroke="midnightblue" points="208.542,-310.5 198.542,-314 208.542,-317.5 208.542,-310.5"/>
</g>
<!-- Node3 -->
<g id="node4" class="node"><title>Node3</title>
<g id="a_node4"><a xlink:href="classumontreal_1_1ssj_1_1discrepancy_1_1BigDiscShiftBaker1Lattice.html" target="_top" xlink:title="This class computes the same discrepancy as in umontreal.ssj.discrepancy.DiscShiftBaker1Lattice [see ...">
<polygon fill="none" stroke="black" points="393,-304.5 393,-323.5 523,-323.5 523,-304.5 393,-304.5"/>
<text text-anchor="middle" x="458" y="-311.5" font-family="Helvetica,sans-Serif" font-size="10.00">BigDiscShiftBaker1Lattice</text>
</a>
</g>
</g>
<!-- Node2&#45;&gt;Node3 -->
<g id="edge3" class="edge"><title>Node2&#45;&gt;Node3</title>
<path fill="none" stroke="midnightblue" d="M359.874,-314C370.702,-314 382.031,-314 392.972,-314"/>
<polygon fill="midnightblue" stroke="midnightblue" points="359.676,-310.5 349.676,-314 359.676,-317.5 359.676,-310.5"/>
</g>
<!-- Node9 -->
<g id="node10" class="node"><title>Node9</title>
<g id="a_node10"><a xlink:href="classumontreal_1_1ssj_1_1discrepancy_1_1DiscShift1Lattice.html" target="_top" xlink:title="This class computes the same discrepancy for randomly shifted points of a set &#160;as given in eq...">
<polygon fill="none" stroke="black" points="254,-114.5 254,-133.5 344,-133.5 344,-114.5 254,-114.5"/>
<text text-anchor="middle" x="299" y="-121.5" font-family="Helvetica,sans-Serif" font-size="10.00">DiscShift1Lattice</text>
</a>
</g>
</g>
<!-- Node8&#45;&gt;Node9 -->
<g id="edge9" class="edge"><title>Node8&#45;&gt;Node9</title>
<path fill="none" stroke="midnightblue" d="M196.606,-124C214.39,-124 235.443,-124 253.744,-124"/>
<polygon fill="midnightblue" stroke="midnightblue" points="196.558,-120.5 186.558,-124 196.558,-127.5 196.558,-120.5"/>
</g>
<!-- Node11 -->
<g id="node12" class="node"><title>Node11</title>
<g id="a_node12"><a xlink:href="classumontreal_1_1ssj_1_1discrepancy_1_1DiscShift2Lattice.html" target="_top" xlink:title="This class computes the same discrepancy for randomly shifted points of a set &#160;as given in eq...">
<polygon fill="none" stroke="black" points="254,-76.5 254,-95.5 344,-95.5 344,-76.5 254,-76.5"/>
<text text-anchor="middle" x="299" y="-83.5" font-family="Helvetica,sans-Serif" font-size="10.00">DiscShift2Lattice</text>
</a>
</g>
</g>
<!-- Node10&#45;&gt;Node11 -->
<g id="edge11" class="edge"><title>Node10&#45;&gt;Node11</title>
<path fill="none" stroke="midnightblue" d="M196.606,-86C214.39,-86 235.443,-86 253.744,-86"/>
<polygon fill="midnightblue" stroke="midnightblue" points="196.558,-82.5001 186.558,-86 196.558,-89.5001 196.558,-82.5001"/>
</g>
<!-- Node13 -->
<g id="node14" class="node"><title>Node13</title>
<g id="a_node14"><a xlink:href="classumontreal_1_1ssj_1_1discrepancy_1_1DiscShiftBaker1Lattice.html" target="_top" xlink:title="This class computes the same discrepancy in   (eq. ">
<polygon fill="none" stroke="black" points="241,-38.5 241,-57.5 357,-57.5 357,-38.5 241,-38.5"/>
<text text-anchor="middle" x="299" y="-45.5" font-family="Helvetica,sans-Serif" font-size="10.00">DiscShiftBaker1Lattice</text>
</a>
</g>
</g>
<!-- Node12&#45;&gt;Node13 -->
<g id="edge13" class="edge"><title>Node12&#45;&gt;Node13</title>
<path fill="none" stroke="midnightblue" d="M209.354,-48C219.623,-48 230.442,-48 240.858,-48"/>
<polygon fill="midnightblue" stroke="midnightblue" points="209.305,-44.5001 199.305,-48 209.305,-51.5001 209.305,-44.5001"/>
</g>
</g>
</svg>
