<?xml version="1.0" encoding="UTF-8" standalone="no"?>
<!DOCTYPE svg PUBLIC "-//W3C//DTD SVG 1.1//EN"
 "http://www.w3.org/Graphics/SVG/1.1/DTD/svg11.dtd">
<!-- Generated by graphviz version 2.38.0 (20140413.2041)
 -->
<!-- Title: Graphical Class Hierarchy Pages: 1 -->
<svg width="322pt" height="88pt"
 viewBox="0.00 0.00 322.00 88.00" xmlns="http://www.w3.org/2000/svg" xmlns:xlink="http://www.w3.org/1999/xlink">
<g id="graph0" class="graph" transform="scale(1 1) rotate(0) translate(4 84)">
<title>Graphical Class Hierarchy</title>
<!-- Node1 -->
<g id="node1" class="node"><title>Node1</title>
<polygon fill="none" stroke="#bfbfbf" points="0,-30 0,-49 119,-49 119,-30 0,-30"/>
<text text-anchor="middle" x="59.5" y="-37" font-family="Helvetica,sans-Serif" font-size="10.00">DigitalNetBase2Iterator</text>
</g>
<!-- Node2 -->
<g id="node2" class="node"><title>Node2</title>
<g id="a_node2"><a xlink:href="classumontreal_1_1ssj_1_1hups_1_1DigitalSequenceBase2_1_1DigitalNetBase2IteratorShiftGenerators.html" target="_top" xlink:title="DigitalSequenceBase2.Digital\lNetBase2IteratorShiftGenerators">
<polygon fill="none" stroke="black" points="155,-49.5 155,-79.5 314,-79.5 314,-49.5 155,-49.5"/>
<text text-anchor="start" x="163" y="-67.5" font-family="Helvetica,sans-Serif" font-size="10.00">DigitalSequenceBase2.Digital</text>
<text text-anchor="middle" x="234.5" y="-56.5" font-family="Helvetica,sans-Serif" font-size="10.00">NetBase2IteratorShiftGenerators</text>
</a>
</g>
</g>
<!-- Node1&#45;&gt;Node2 -->
<g id="edge1" class="edge"><title>Node1&#45;&gt;Node2</title>
<path fill="none" stroke="midnightblue" d="M129.177,-49.4244C137.577,-50.6383 146.211,-51.886 154.744,-53.119"/>
<polygon fill="midnightblue" stroke="midnightblue" points="129.468,-45.9302 119.07,-47.9639 128.466,-52.8582 129.468,-45.9302"/>
</g>
<!-- Node3 -->
<g id="node3" class="node"><title>Node3</title>
<g id="a_node3"><a xlink:href="classumontreal_1_1ssj_1_1hups_1_1DigitalSequenceBase2_1_1DigitalNetBase2IteratorShiftNoGray.html" target="_top" xlink:title="DigitalSequenceBase2.Digital\lNetBase2IteratorShiftNoGray">
<polygon fill="none" stroke="black" points="161.5,-0.5 161.5,-30.5 307.5,-30.5 307.5,-0.5 161.5,-0.5"/>
<text text-anchor="start" x="169.5" y="-18.5" font-family="Helvetica,sans-Serif" font-size="10.00">DigitalSequenceBase2.Digital</text>
<text text-anchor="middle" x="234.5" y="-7.5" font-family="Helvetica,sans-Serif" font-size="10.00">NetBase2IteratorShiftNoGray</text>
</a>
</g>
</g>
<!-- Node1&#45;&gt;Node3 -->
<g id="edge2" class="edge"><title>Node1&#45;&gt;Node3</title>
<path fill="none" stroke="midnightblue" d="M129.13,-29.9791C139.766,-28.5036 150.779,-26.9758 161.487,-25.4903"/>
<polygon fill="midnightblue" stroke="midnightblue" points="128.494,-26.5337 119.07,-31.3747 129.456,-33.4673 128.494,-26.5337"/>
</g>
</g>
</svg>
