<?xml version="1.0" encoding="UTF-8" standalone="no"?>
<!DOCTYPE svg PUBLIC "-//W3C//DTD SVG 1.1//EN"
 "http://www.w3.org/Graphics/SVG/1.1/DTD/svg11.dtd">
<!-- Generated by graphviz version 2.38.0 (20140413.2041)
 -->
<!-- Title: Graphical Class Hierarchy Pages: 1 -->
<svg width="196pt" height="66pt"
 viewBox="0.00 0.00 196.00 66.00" xmlns="http://www.w3.org/2000/svg" xmlns:xlink="http://www.w3.org/1999/xlink">
<g id="graph0" class="graph" transform="scale(1 1) rotate(0) translate(4 62)">
<title>Graphical Class Hierarchy</title>
<!-- Node1 -->
<g id="node1" class="node"><title>Node1</title>
<g id="a_node1"><a xlink:href="classumontreal_1_1ssj_1_1simevents_1_1Continuous.html" target="_top" xlink:title="Represents a variable in a continuous&#45;time simulation. ">
<polygon fill="none" stroke="black" points="0,-19.5 0,-38.5 66,-38.5 66,-19.5 0,-19.5"/>
<text text-anchor="middle" x="33" y="-26.5" font-family="Helvetica,sans-Serif" font-size="10.00">Continuous</text>
</a>
</g>
</g>
<!-- Node2 -->
<g id="node2" class="node"><title>Node2</title>
<g id="a_node2"><a xlink:href="classPreyPred_1_1Preds.html" target="_top" xlink:title="PreyPred.Preds">
<polygon fill="none" stroke="black" points="102,-38.5 102,-57.5 188,-57.5 188,-38.5 102,-38.5"/>
<text text-anchor="middle" x="145" y="-45.5" font-family="Helvetica,sans-Serif" font-size="10.00">PreyPred.Preds</text>
</a>
</g>
</g>
<!-- Node1&#45;&gt;Node2 -->
<g id="edge1" class="edge"><title>Node1&#45;&gt;Node2</title>
<path fill="none" stroke="midnightblue" d="M76.1172,-36.2748C84.5401,-37.7296 93.3901,-39.2583 101.815,-40.7135"/>
<polygon fill="midnightblue" stroke="midnightblue" points="76.5621,-32.7999 66.1123,-34.5467 75.3706,-39.6977 76.5621,-32.7999"/>
</g>
<!-- Node3 -->
<g id="node3" class="node"><title>Node3</title>
<g id="a_node3"><a xlink:href="classPreyPred_1_1Preys.html" target="_top" xlink:title="PreyPred.Preys">
<polygon fill="none" stroke="black" points="102,-0.5 102,-19.5 188,-19.5 188,-0.5 102,-0.5"/>
<text text-anchor="middle" x="145" y="-7.5" font-family="Helvetica,sans-Serif" font-size="10.00">PreyPred.Preys</text>
</a>
</g>
</g>
<!-- Node1&#45;&gt;Node3 -->
<g id="edge2" class="edge"><title>Node1&#45;&gt;Node3</title>
<path fill="none" stroke="midnightblue" d="M76.1172,-21.7252C84.5401,-20.2704 93.3901,-18.7417 101.815,-17.2865"/>
<polygon fill="midnightblue" stroke="midnightblue" points="75.3706,-18.3023 66.1123,-23.4533 76.5621,-25.2001 75.3706,-18.3023"/>
</g>
</g>
</svg>
