<?xml version="1.0" encoding="UTF-8" standalone="no"?>
<!DOCTYPE svg PUBLIC "-//W3C//DTD SVG 1.1//EN"
 "http://www.w3.org/Graphics/SVG/1.1/DTD/svg11.dtd">
<!-- Generated by graphviz version 2.38.0 (20140413.2041)
 -->
<!-- Title: Graphical Class Hierarchy Pages: 1 -->
<svg width="333pt" height="100pt"
 viewBox="0.00 0.00 333.00 99.50" xmlns="http://www.w3.org/2000/svg" xmlns:xlink="http://www.w3.org/1999/xlink">
<g id="graph0" class="graph" transform="scale(1 1) rotate(0) translate(4 95.5)">
<title>Graphical Class Hierarchy</title>
<!-- Node0 -->
<g id="node1" class="node"><title>Node0</title>
<g id="a_node1"><a xlink:href="classumontreal_1_1ssj_1_1stat_1_1matrix_1_1MatrixOfStatProbes.html" target="_top" xlink:title="MatrixOfStatProbes\&lt; E \&gt;">
<polygon fill="none" stroke="black" points="0,-33 0,-52 128,-52 128,-33 0,-33"/>
<text text-anchor="middle" x="64" y="-40" font-family="Helvetica,sans-Serif" font-size="10.00">MatrixOfStatProbes&lt; E &gt;</text>
</a>
</g>
</g>
<!-- Node1 -->
<g id="node2" class="node"><title>Node1</title>
<g id="a_node2"><a xlink:href="classumontreal_1_1ssj_1_1stat_1_1matrix_1_1MatrixOfFunctionOfMultipleMeansTallies.html" target="_top" xlink:title="Represents a matrix of statistical collectors for functions of multiple means. ">
<polygon fill="none" stroke="black" points="164,-50 164,-91 325,-91 325,-50 164,-50"/>
<text text-anchor="start" x="172" y="-79" font-family="Helvetica,sans-Serif" font-size="10.00">MatrixOfFunctionOfMultiple</text>
<text text-anchor="start" x="172" y="-68" font-family="Helvetica,sans-Serif" font-size="10.00">MeansTallies&lt; E extends</text>
<text text-anchor="middle" x="244.5" y="-57" font-family="Helvetica,sans-Serif" font-size="10.00"> FunctionOfMultipleMeansTally &gt;</text>
</a>
</g>
</g>
<!-- Node0&#45;&gt;Node1 -->
<g id="edge1" class="edge"><title>Node0&#45;&gt;Node1</title>
<path fill="none" stroke="midnightblue" d="M135.816,-53.6084C145.044,-55.0559 154.547,-56.5466 163.907,-58.0148"/>
<polygon fill="midnightblue" stroke="midnightblue" points="136.352,-50.1497 125.93,-52.0577 135.267,-57.0652 136.352,-50.1497"/>
</g>
<!-- Node2 -->
<g id="node3" class="node"><title>Node2</title>
<g id="a_node3"><a xlink:href="classumontreal_1_1ssj_1_1stat_1_1matrix_1_1MatrixOfTallies.html" target="_top" xlink:title="Represents a matrix of tally statistical collectors. ">
<polygon fill="none" stroke="black" points="195.5,-0.5 195.5,-30.5 293.5,-30.5 293.5,-0.5 195.5,-0.5"/>
<text text-anchor="start" x="203.5" y="-18.5" font-family="Helvetica,sans-Serif" font-size="10.00">MatrixOfTallies&lt; E</text>
<text text-anchor="middle" x="244.5" y="-7.5" font-family="Helvetica,sans-Serif" font-size="10.00"> extends Tally &gt;</text>
</a>
</g>
</g>
<!-- Node0&#45;&gt;Node2 -->
<g id="edge2" class="edge"><title>Node0&#45;&gt;Node2</title>
<path fill="none" stroke="midnightblue" d="M137.948,-31.4659C157.324,-28.5351 177.761,-25.4438 195.437,-22.7701"/>
<polygon fill="midnightblue" stroke="midnightblue" points="137.296,-28.0245 127.932,-32.9808 138.343,-34.9458 137.296,-28.0245"/>
</g>
</g>
</svg>
