<?xml version="1.0" encoding="UTF-8" standalone="no"?>
<!DOCTYPE svg PUBLIC "-//W3C//DTD SVG 1.1//EN"
 "http://www.w3.org/Graphics/SVG/1.1/DTD/svg11.dtd">
<!-- Generated by graphviz version 2.38.0 (20140413.2041)
 -->
<!-- Title: Graphical Class Hierarchy Pages: 1 -->
<svg width="300pt" height="66pt"
 viewBox="0.00 0.00 300.00 66.00" xmlns="http://www.w3.org/2000/svg" xmlns:xlink="http://www.w3.org/1999/xlink">
<g id="graph0" class="graph" transform="scale(1 1) rotate(0) translate(4 62)">
<title>Graphical Class Hierarchy</title>
<!-- Node0 -->
<g id="node1" class="node"><title>Node0</title>
<g id="a_node1"><a xlink:href="interfaceumontreal_1_1ssj_1_1stat_1_1ObservationListener.html" target="_top" xlink:title="Represents an object that can listen to observations broadcast by statistical probes. ">
<polygon fill="none" stroke="black" points="0,-19.5 0,-38.5 102,-38.5 102,-19.5 0,-19.5"/>
<text text-anchor="middle" x="51" y="-26.5" font-family="Helvetica,sans-Serif" font-size="10.00">ObservationListener</text>
</a>
</g>
</g>
<!-- Node1 -->
<g id="node2" class="node"><title>Node1</title>
<g id="a_node2"><a xlink:href="classtutorial_1_1QueueObs_1_1LargeWaitsCollector.html" target="_top" xlink:title="QueueObs.LargeWaitsCollector">
<polygon fill="none" stroke="black" points="138,-38.5 138,-57.5 292,-57.5 292,-38.5 138,-38.5"/>
<text text-anchor="middle" x="215" y="-45.5" font-family="Helvetica,sans-Serif" font-size="10.00">QueueObs.LargeWaitsCollector</text>
</a>
</g>
</g>
<!-- Node0&#45;&gt;Node1 -->
<g id="edge1" class="edge"><title>Node0&#45;&gt;Node1</title>
<path fill="none" stroke="midnightblue" d="M112.321,-36.0747C120.627,-37.0489 129.244,-38.0595 137.79,-39.0618"/>
<polygon fill="midnightblue" stroke="midnightblue" points="112.709,-32.5963 102.37,-34.9076 111.894,-39.5487 112.709,-32.5963"/>
</g>
<!-- Node2 -->
<g id="node3" class="node"><title>Node2</title>
<g id="a_node3"><a xlink:href="classtutorial_1_1QueueObs_1_1ObservationTrace.html" target="_top" xlink:title="QueueObs.ObservationTrace">
<polygon fill="none" stroke="black" points="144.5,-0.5 144.5,-19.5 285.5,-19.5 285.5,-0.5 144.5,-0.5"/>
<text text-anchor="middle" x="215" y="-7.5" font-family="Helvetica,sans-Serif" font-size="10.00">QueueObs.ObservationTrace</text>
</a>
</g>
</g>
<!-- Node0&#45;&gt;Node2 -->
<g id="edge2" class="edge"><title>Node0&#45;&gt;Node2</title>
<path fill="none" stroke="midnightblue" d="M112.546,-21.899C122.908,-20.6836 133.748,-19.4122 144.326,-18.1716"/>
<polygon fill="midnightblue" stroke="midnightblue" points="111.894,-18.4513 102.37,-23.0924 112.709,-25.4037 111.894,-18.4513"/>
</g>
</g>
</svg>
