<?xml version="1.0" encoding="UTF-8" standalone="no"?>
<!DOCTYPE svg PUBLIC "-//W3C//DTD SVG 1.1//EN"
 "http://www.w3.org/Graphics/SVG/1.1/DTD/svg11.dtd">
<!-- Generated by graphviz version 2.38.0 (20140413.2041)
 -->
<!-- Title: Graphical Class Hierarchy Pages: 1 -->
<svg width="416pt" height="39pt"
 viewBox="0.00 0.00 416.00 39.00" xmlns="http://www.w3.org/2000/svg" xmlns:xlink="http://www.w3.org/1999/xlink">
<g id="graph0" class="graph" transform="scale(1 1) rotate(0) translate(4 35)">
<title>Graphical Class Hierarchy</title>
<!-- Node0 -->
<g id="node1" class="node"><title>Node0</title>
<g id="a_node1"><a xlink:href="classumontreal_1_1ssj_1_1stat_1_1list_1_1ListOfTallies.html" target="_top" xlink:title="ListOfTallies\&lt; E \&gt;">
<polygon fill="none" stroke="black" points="0,-6 0,-25 95,-25 95,-6 0,-6"/>
<text text-anchor="middle" x="47.5" y="-13" font-family="Helvetica,sans-Serif" font-size="10.00">ListOfTallies&lt; E &gt;</text>
</a>
</g>
</g>
<!-- Node1 -->
<g id="node2" class="node"><title>Node1</title>
<g id="a_node2"><a xlink:href="classumontreal_1_1ssj_1_1stat_1_1list_1_1ListOfTalliesWithCovariance.html" target="_top" xlink:title="Extends ListOfTallies to add support for the computation of the sample covariance between each pair o...">
<polygon fill="none" stroke="black" points="131,-0.5 131,-30.5 268,-30.5 268,-0.5 131,-0.5"/>
<text text-anchor="start" x="139" y="-18.5" font-family="Helvetica,sans-Serif" font-size="10.00">ListOfTalliesWithCovariance</text>
<text text-anchor="middle" x="199.5" y="-7.5" font-family="Helvetica,sans-Serif" font-size="10.00">&lt; E extends Tally &gt;</text>
</a>
</g>
</g>
<!-- Node0&#45;&gt;Node1 -->
<g id="edge1" class="edge"><title>Node0&#45;&gt;Node1</title>
<path fill="none" stroke="midnightblue" d="M105.207,-15.5C113.62,-15.5 122.359,-15.5 130.967,-15.5"/>
<polygon fill="midnightblue" stroke="midnightblue" points="105.139,-12.0001 95.1387,-15.5 105.139,-19.0001 105.139,-12.0001"/>
</g>
<!-- Node2 -->
<g id="node3" class="node"><title>Node2</title>
<g id="a_node3"><a xlink:href="classumontreal_1_1ssj_1_1stat_1_1list_1_1lincv_1_1ListOfTalliesWithCV.html" target="_top" xlink:title="Represents a list of tallies with control variables that inherits the functionalities of a list of ta...">
<polygon fill="none" stroke="black" points="304,-0.5 304,-30.5 408,-30.5 408,-0.5 304,-0.5"/>
<text text-anchor="start" x="312" y="-18.5" font-family="Helvetica,sans-Serif" font-size="10.00">ListOfTalliesWithCV</text>
<text text-anchor="middle" x="356" y="-7.5" font-family="Helvetica,sans-Serif" font-size="10.00">&lt; E extends Tally &gt;</text>
</a>
</g>
</g>
<!-- Node1&#45;&gt;Node2 -->
<g id="edge2" class="edge"><title>Node1&#45;&gt;Node2</title>
<path fill="none" stroke="midnightblue" d="M278.3,-15.5C286.866,-15.5 295.422,-15.5 303.549,-15.5"/>
<polygon fill="midnightblue" stroke="midnightblue" points="278.266,-12.0001 268.266,-15.5 278.266,-19.0001 278.266,-12.0001"/>
</g>
</g>
</svg>
