<?xml version="1.0" encoding="UTF-8" standalone="no"?>
<!DOCTYPE svg PUBLIC "-//W3C//DTD SVG 1.1//EN"
 "http://www.w3.org/Graphics/SVG/1.1/DTD/svg11.dtd">
<!-- Generated by graphviz version 2.26.3 (20100126.1600)
 -->
<!-- Title: Graphical Class Hierarchy Pages: 1 -->
<svg width="300pt" height="66pt"
 viewBox="0.00 0.00 300.00 66.00" xmlns="http://www.w3.org/2000/svg" xmlns:xlink="http://www.w3.org/1999/xlink">
<g id="graph1" class="graph" transform="scale(1 1) rotate(0) translate(4 62)">
<title>Graphical Class Hierarchy</title>
<!-- Node1 -->
<g id="node1" class="node"><title>Node1</title>
<a xlink:href="classumontreal_1_1ssj_1_1probdistmulti_1_1DiscreteDistributionIntMulti.html" target="_top" xlink:title="Classes implementing multi&#45;dimensional discrete distributions over the integers should inherit from t...">
<polygon fill="none" stroke="black" points="0,-19 0,-39 134,-39 134,-19 0,-19"/>
<text text-anchor="middle" x="67" y="-26" font-family="Helvetica,sans-Serif" font-size="10.00">DiscreteDistributionIntMulti</text>
</a>
</g>
<!-- Node2 -->
<g id="node3" class="node"><title>Node2</title>
<a xlink:href="classumontreal_1_1ssj_1_1probdistmulti_1_1MultinomialDist.html" target="_top" xlink:title="Implements the abstract class DiscreteDistributionIntMulti for the multinomial distribution with para...">
<polygon fill="none" stroke="black" points="189.5,-38 189.5,-58 272.5,-58 272.5,-38 189.5,-38"/>
<text text-anchor="middle" x="231" y="-45" font-family="Helvetica,sans-Serif" font-size="10.00">MultinomialDist</text>
</a>
</g>
<!-- Node1&#45;&gt;Node2 -->
<g id="edge2" class="edge"><title>Node1&#45;&gt;Node2</title>
<path fill="none" stroke="midnightblue" d="M144.271,-37.9521C159.713,-39.7411 175.38,-41.5562 189.07,-43.1423"/>
<polygon fill="midnightblue" stroke="midnightblue" points="144.515,-34.457 134.178,-36.7828 143.709,-41.4105 144.515,-34.457"/>
</g>
<!-- Node3 -->
<g id="node5" class="node"><title>Node3</title>
<a xlink:href="classumontreal_1_1ssj_1_1probdistmulti_1_1NegativeMultinomialDist.html" target="_top" xlink:title="Implements the class DiscreteDistributionIntMulti for the negative multinomial distribution with para...">
<polygon fill="none" stroke="black" points="170,-0 170,-20 292,-20 292,-0 170,-0"/>
<text text-anchor="middle" x="231" y="-7" font-family="Helvetica,sans-Serif" font-size="10.00">NegativeMultinomialDist</text>
</a>
</g>
<!-- Node1&#45;&gt;Node3 -->
<g id="edge4" class="edge"><title>Node1&#45;&gt;Node3</title>
<path fill="none" stroke="midnightblue" d="M144.258,-20.0494C152.892,-19.0491 161.596,-18.0408 169.985,-17.0688"/>
<polygon fill="midnightblue" stroke="midnightblue" points="143.709,-16.5895 134.178,-21.2172 144.515,-23.543 143.709,-16.5895"/>
</g>
</g>
</svg>
