<?xml version="1.0" encoding="UTF-8" standalone="no"?>
<!DOCTYPE svg PUBLIC "-//W3C//DTD SVG 1.1//EN"
 "http://www.w3.org/Graphics/SVG/1.1/DTD/svg11.dtd">
<!-- Generated by graphviz version 2.38.0 (20140413.2041)
 -->
<!-- Title: Graphical Class Hierarchy Pages: 1 -->
<svg width="473pt" height="230pt"
 viewBox="0.00 0.00 473.00 230.00" xmlns="http://www.w3.org/2000/svg" xmlns:xlink="http://www.w3.org/1999/xlink">
<g id="graph0" class="graph" transform="scale(1 1) rotate(0) translate(4 226)">
<title>Graphical Class Hierarchy</title>
<!-- Node0 -->
<g id="node1" class="node"><title>Node0</title>
<g id="a_node1"><a xlink:href="interfaceumontreal_1_1ssj_1_1util_1_1sort_1_1MultiDimSortComparable.html" target="_top" xlink:title="MultiDimSortComparable\&lt; T \&gt;">
<polygon fill="none" stroke="black" points="0,-101.5 0,-120.5 148,-120.5 148,-101.5 0,-101.5"/>
<text text-anchor="middle" x="74" y="-108.5" font-family="Helvetica,sans-Serif" font-size="10.00">MultiDimSortComparable&lt; T &gt;</text>
</a>
</g>
</g>
<!-- Node1 -->
<g id="node2" class="node"><title>Node1</title>
<g id="a_node2"><a xlink:href="classumontreal_1_1ssj_1_1util_1_1sort_1_1BatchSort.html" target="_top" xlink:title="This class implements a MultiDimSortComparable that performs a batch sort on multivariate arrays...">
<polygon fill="none" stroke="black" points="206.5,-180.5 206.5,-221.5 322.5,-221.5 322.5,-180.5 206.5,-180.5"/>
<text text-anchor="start" x="214.5" y="-209.5" font-family="Helvetica,sans-Serif" font-size="10.00">BatchSort&lt; T extends</text>
<text text-anchor="start" x="214.5" y="-198.5" font-family="Helvetica,sans-Serif" font-size="10.00"> MultiDimComparable&lt;</text>
<text text-anchor="middle" x="264.5" y="-187.5" font-family="Helvetica,sans-Serif" font-size="10.00">? super T &gt;</text>
</a>
</g>
</g>
<!-- Node0&#45;&gt;Node1 -->
<g id="edge1" class="edge"><title>Node0&#45;&gt;Node1</title>
<path fill="none" stroke="midnightblue" d="M99.4813,-125.791C121.239,-138.617 154.134,-157.23 184,-171 191.1,-174.274 198.668,-177.478 206.206,-180.501"/>
<polygon fill="midnightblue" stroke="midnightblue" points="101.265,-122.78 90.8798,-120.68 97.6887,-128.798 101.265,-122.78"/>
</g>
<!-- Node3 -->
<g id="node4" class="node"><title>Node3</title>
<g id="a_node4"><a xlink:href="classumontreal_1_1ssj_1_1util_1_1sort_1_1HilbertCurveBatchSort.html" target="_top" xlink:title="This sort is similar to BatchSortPow2, except that after applying the batch sort, the objects are giv...">
<polygon fill="none" stroke="black" points="184,-120.5 184,-161.5 345,-161.5 345,-120.5 184,-120.5"/>
<text text-anchor="start" x="192" y="-149.5" font-family="Helvetica,sans-Serif" font-size="10.00">HilbertCurveBatchSort</text>
<text text-anchor="start" x="192" y="-138.5" font-family="Helvetica,sans-Serif" font-size="10.00">&lt; T extends MultiDimComparable</text>
<text text-anchor="middle" x="264.5" y="-127.5" font-family="Helvetica,sans-Serif" font-size="10.00">&lt;? super T &gt;</text>
</a>
</g>
</g>
<!-- Node0&#45;&gt;Node3 -->
<g id="edge3" class="edge"><title>Node0&#45;&gt;Node3</title>
<path fill="none" stroke="midnightblue" d="M144.898,-122.124C157.555,-124.139 170.842,-126.253 183.755,-128.309"/>
<polygon fill="midnightblue" stroke="midnightblue" points="145.327,-118.649 134.902,-120.533 144.227,-125.562 145.327,-118.649"/>
</g>
<!-- Node4 -->
<g id="node5" class="node"><title>Node4</title>
<g id="a_node5"><a xlink:href="classumontreal_1_1ssj_1_1util_1_1sort_1_1OneDimSort.html" target="_top" xlink:title="This class implements a MultiDimSortComparable that simply sorts the objects according to a given sor...">
<polygon fill="none" stroke="black" points="203.5,-60.5 203.5,-101.5 325.5,-101.5 325.5,-60.5 203.5,-60.5"/>
<text text-anchor="start" x="211.5" y="-89.5" font-family="Helvetica,sans-Serif" font-size="10.00">OneDimSort&lt; T extends</text>
<text text-anchor="start" x="211.5" y="-78.5" font-family="Helvetica,sans-Serif" font-size="10.00"> MultiDimComparable&lt;</text>
<text text-anchor="middle" x="264.5" y="-67.5" font-family="Helvetica,sans-Serif" font-size="10.00">? super T &gt;</text>
</a>
</g>
</g>
<!-- Node0&#45;&gt;Node4 -->
<g id="edge4" class="edge"><title>Node0&#45;&gt;Node4</title>
<path fill="none" stroke="midnightblue" d="M144.817,-99.8885C164.07,-96.8245 184.783,-93.528 203.431,-90.5601"/>
<polygon fill="midnightblue" stroke="midnightblue" points="144.227,-96.4383 134.902,-101.467 145.327,-103.351 144.227,-96.4383"/>
</g>
<!-- Node5 -->
<g id="node6" class="node"><title>Node5</title>
<g id="a_node6"><a xlink:href="classumontreal_1_1ssj_1_1util_1_1sort_1_1SplitSort.html" target="_top" xlink:title="Implements a MultiDimSortComparable that performs a split sort on a MultiDimComparable&lt;T&gt; array based...">
<polygon fill="none" stroke="black" points="206.5,-0.5 206.5,-41.5 322.5,-41.5 322.5,-0.5 206.5,-0.5"/>
<text text-anchor="start" x="214.5" y="-29.5" font-family="Helvetica,sans-Serif" font-size="10.00">SplitSort&lt; T extends</text>
<text text-anchor="start" x="214.5" y="-18.5" font-family="Helvetica,sans-Serif" font-size="10.00"> MultiDimComparable&lt;</text>
<text text-anchor="middle" x="264.5" y="-7.5" font-family="Helvetica,sans-Serif" font-size="10.00">? super T &gt;</text>
</a>
</g>
</g>
<!-- Node0&#45;&gt;Node5 -->
<g id="edge5" class="edge"><title>Node0&#45;&gt;Node5</title>
<path fill="none" stroke="midnightblue" d="M99.4813,-96.2085C121.239,-83.3834 154.134,-64.7702 184,-51 191.1,-47.7263 198.668,-44.5223 206.206,-41.4994"/>
<polygon fill="midnightblue" stroke="midnightblue" points="97.6887,-93.2024 90.8798,-101.32 101.265,-99.2201 97.6887,-93.2024"/>
</g>
<!-- Node2 -->
<g id="node3" class="node"><title>Node2</title>
<g id="a_node3"><a xlink:href="classumontreal_1_1ssj_1_1util_1_1sort_1_1BatchSortPow2.html" target="_top" xlink:title="This is a subclass of BatchSort for which the batch numbers &#160;are always powers of 2...">
<polygon fill="none" stroke="black" points="381,-191.5 381,-210.5 465,-210.5 465,-191.5 381,-191.5"/>
<text text-anchor="middle" x="423" y="-198.5" font-family="Helvetica,sans-Serif" font-size="10.00">BatchSortPow2</text>
</a>
</g>
</g>
<!-- Node1&#45;&gt;Node2 -->
<g id="edge2" class="edge"><title>Node1&#45;&gt;Node2</title>
<path fill="none" stroke="midnightblue" d="M332.916,-201C349.199,-201 366.12,-201 380.786,-201"/>
<polygon fill="midnightblue" stroke="midnightblue" points="332.886,-197.5 322.886,-201 332.886,-204.5 332.886,-197.5"/>
</g>
</g>
</svg>
