<?xml version="1.0" encoding="UTF-8" standalone="no"?>
<!DOCTYPE svg PUBLIC "-//W3C//DTD SVG 1.1//EN"
 "http://www.w3.org/Graphics/SVG/1.1/DTD/svg11.dtd">
<!-- Generated by graphviz version 2.38.0 (20140413.2041)
 -->
<!-- Title: Graphical Class Hierarchy Pages: 1 -->
<svg width="576pt" height="142pt"
 viewBox="0.00 0.00 576.00 142.00" xmlns="http://www.w3.org/2000/svg" xmlns:xlink="http://www.w3.org/1999/xlink">
<g id="graph0" class="graph" transform="scale(1 1) rotate(0) translate(4 138)">
<title>Graphical Class Hierarchy</title>
<!-- Node0 -->
<g id="node1" class="node"><title>Node0</title>
<g id="a_node1"><a xlink:href="classumontreal_1_1ssj_1_1probdistmulti_1_1ContinuousDistributionMulti.html" target="_top" xlink:title="Classes implementing continuous multi&#45;dimensional distributions should inherit from this class...">
<polygon fill="none" stroke="black" points="0,-38.5 0,-57.5 135,-57.5 135,-38.5 0,-38.5"/>
<text text-anchor="middle" x="67.5" y="-45.5" font-family="Helvetica,sans-Serif" font-size="10.00">ContinuousDistributionMulti</text>
</a>
</g>
</g>
<!-- Node1 -->
<g id="node2" class="node"><title>Node1</title>
<g id="a_node2"><a xlink:href="classumontreal_1_1ssj_1_1probdistmulti_1_1ContinuousDistribution2Dim.html" target="_top" xlink:title="Classes implementing 2&#45;dimensional continuous distributions should inherit from this class...">
<polygon fill="none" stroke="black" points="171,-76.5 171,-95.5 308,-95.5 308,-76.5 171,-76.5"/>
<text text-anchor="middle" x="239.5" y="-83.5" font-family="Helvetica,sans-Serif" font-size="10.00">ContinuousDistribution2Dim</text>
</a>
</g>
</g>
<!-- Node0&#45;&gt;Node1 -->
<g id="edge1" class="edge"><title>Node0&#45;&gt;Node1</title>
<path fill="none" stroke="midnightblue" d="M121.398,-59.8243C145.365,-65.1816 173.324,-71.4311 195.91,-76.4799"/>
<polygon fill="midnightblue" stroke="midnightblue" points="121.921,-56.3548 111.398,-57.589 120.394,-63.1862 121.921,-56.3548"/>
</g>
<!-- Node6 -->
<g id="node7" class="node"><title>Node6</title>
<g id="a_node7"><a xlink:href="classumontreal_1_1ssj_1_1probdistmulti_1_1DirichletDist.html" target="_top" xlink:title="Implements the abstract class ContinuousDistributionMulti for the Dirichlet distribution with paramet...">
<polygon fill="none" stroke="black" points="205,-38.5 205,-57.5 274,-57.5 274,-38.5 205,-38.5"/>
<text text-anchor="middle" x="239.5" y="-45.5" font-family="Helvetica,sans-Serif" font-size="10.00">DirichletDist</text>
</a>
</g>
</g>
<!-- Node0&#45;&gt;Node6 -->
<g id="edge6" class="edge"><title>Node0&#45;&gt;Node6</title>
<path fill="none" stroke="midnightblue" d="M145.344,-48C166.159,-48 187.633,-48 204.71,-48"/>
<polygon fill="midnightblue" stroke="midnightblue" points="145.201,-44.5001 135.201,-48 145.201,-51.5001 145.201,-44.5001"/>
</g>
<!-- Node7 -->
<g id="node8" class="node"><title>Node7</title>
<g id="a_node8"><a xlink:href="classumontreal_1_1ssj_1_1probdistmulti_1_1MultiNormalDist.html" target="_top" xlink:title="Implements the abstract class ContinuousDistributionMulti for the multinormal distribution with mean ...">
<polygon fill="none" stroke="black" points="196.5,-0.5 196.5,-19.5 282.5,-19.5 282.5,-0.5 196.5,-0.5"/>
<text text-anchor="middle" x="239.5" y="-7.5" font-family="Helvetica,sans-Serif" font-size="10.00">MultiNormalDist</text>
</a>
</g>
</g>
<!-- Node0&#45;&gt;Node7 -->
<g id="edge7" class="edge"><title>Node0&#45;&gt;Node7</title>
<path fill="none" stroke="midnightblue" d="M121.476,-36.1583C145.634,-30.7583 173.834,-24.4547 196.498,-19.3887"/>
<polygon fill="midnightblue" stroke="midnightblue" points="120.394,-32.8138 111.398,-38.411 121.921,-39.6452 120.394,-32.8138"/>
</g>
<!-- Node2 -->
<g id="node3" class="node"><title>Node2</title>
<g id="a_node3"><a xlink:href="classumontreal_1_1ssj_1_1probdistmulti_1_1BiNormalDist.html" target="_top" xlink:title="Extends the class ContinuousDistribution2Dim for the bivariate normal distribution   (page 84)...">
<polygon fill="none" stroke="black" points="345.5,-95.5 345.5,-114.5 419.5,-114.5 419.5,-95.5 345.5,-95.5"/>
<text text-anchor="middle" x="382.5" y="-102.5" font-family="Helvetica,sans-Serif" font-size="10.00">BiNormalDist</text>
</a>
</g>
</g>
<!-- Node1&#45;&gt;Node2 -->
<g id="edge2" class="edge"><title>Node1&#45;&gt;Node2</title>
<path fill="none" stroke="midnightblue" d="M318.054,-96.4506C327.566,-97.7323 336.904,-98.9906 345.368,-100.131"/>
<polygon fill="midnightblue" stroke="midnightblue" points="318.487,-92.9773 308.109,-95.1104 317.552,-99.9146 318.487,-92.9773"/>
</g>
<!-- Node5 -->
<g id="node6" class="node"><title>Node5</title>
<g id="a_node6"><a xlink:href="classumontreal_1_1ssj_1_1probdistmulti_1_1BiStudentDist.html" target="_top" xlink:title="Extends the class ContinuousDistribution2Dim for the standard bivariate Student’s &#160;distribution   (...">
<polygon fill="none" stroke="black" points="344,-57.5 344,-76.5 421,-76.5 421,-57.5 344,-57.5"/>
<text text-anchor="middle" x="382.5" y="-64.5" font-family="Helvetica,sans-Serif" font-size="10.00">BiStudentDist</text>
</a>
</g>
</g>
<!-- Node1&#45;&gt;Node5 -->
<g id="edge5" class="edge"><title>Node1&#45;&gt;Node5</title>
<path fill="none" stroke="midnightblue" d="M318.193,-75.5307C327.093,-74.3314 335.839,-73.1529 343.855,-72.0727"/>
<polygon fill="midnightblue" stroke="midnightblue" points="317.552,-72.0854 308.109,-76.8896 318.487,-79.0227 317.552,-72.0854"/>
</g>
<!-- Node3 -->
<g id="node4" class="node"><title>Node3</title>
<g id="a_node4"><a xlink:href="classumontreal_1_1ssj_1_1probdistmulti_1_1BiNormalDonnellyDist.html" target="_top" xlink:title="Extends the class BiNormalDist for the bivariate normal distribution   (page 84) using a translation...">
<polygon fill="none" stroke="black" points="457,-114.5 457,-133.5 568,-133.5 568,-114.5 457,-114.5"/>
<text text-anchor="middle" x="512.5" y="-121.5" font-family="Helvetica,sans-Serif" font-size="10.00">BiNormalDonnellyDist</text>
</a>
</g>
</g>
<!-- Node2&#45;&gt;Node3 -->
<g id="edge3" class="edge"><title>Node2&#45;&gt;Node3</title>
<path fill="none" stroke="midnightblue" d="M429.874,-111.884C438.649,-113.186 447.903,-114.56 456.903,-115.896"/>
<polygon fill="midnightblue" stroke="midnightblue" points="430.243,-108.4 419.837,-110.394 429.215,-115.324 430.243,-108.4"/>
</g>
<!-- Node4 -->
<g id="node5" class="node"><title>Node4</title>
<g id="a_node5"><a xlink:href="classumontreal_1_1ssj_1_1probdistmulti_1_1BiNormalGenzDist.html" target="_top" xlink:title="Extends the class BiNormalDist for the bivariate normal distribution   (page 84) using Genz’s algor...">
<polygon fill="none" stroke="black" points="464,-76.5 464,-95.5 561,-95.5 561,-76.5 464,-76.5"/>
<text text-anchor="middle" x="512.5" y="-83.5" font-family="Helvetica,sans-Serif" font-size="10.00">BiNormalGenzDist</text>
</a>
</g>
</g>
<!-- Node2&#45;&gt;Node4 -->
<g id="edge4" class="edge"><title>Node2&#45;&gt;Node4</title>
<path fill="none" stroke="midnightblue" d="M430.035,-98.0924C440.955,-96.4716 452.609,-94.7417 463.587,-93.1121"/>
<polygon fill="midnightblue" stroke="midnightblue" points="429.215,-94.6757 419.837,-99.6062 430.243,-101.6 429.215,-94.6757"/>
</g>
</g>
</svg>
