<?xml version="1.0" encoding="UTF-8" standalone="no"?>
<!DOCTYPE svg PUBLIC "-//W3C//DTD SVG 1.1//EN"
 "http://www.w3.org/Graphics/SVG/1.1/DTD/svg11.dtd">
<!-- Generated by graphviz version 2.38.0 (20140413.2041)
 -->
<!-- Title: Graphical Class Hierarchy Pages: 1 -->
<svg width="479pt" height="230pt"
 viewBox="0.00 0.00 479.00 230.00" xmlns="http://www.w3.org/2000/svg" xmlns:xlink="http://www.w3.org/1999/xlink">
<g id="graph0" class="graph" transform="scale(1 1) rotate(0) translate(4 226)">
<title>Graphical Class Hierarchy</title>
<!-- Node0 -->
<g id="node1" class="node"><title>Node0</title>
<g id="a_node1"><a xlink:href="interfaceumontreal_1_1ssj_1_1util_1_1sort_1_1MultiDimSortComparable.html" target="_top" xlink:title="MultiDimSortComparable\&lt; T \&gt;">
<polygon fill="none" stroke="black" points="0,-101.5 0,-120.5 150,-120.5 150,-101.5 0,-101.5"/>
<text text-anchor="middle" x="75" y="-108.5" font-family="Helvetica,sans-Serif" font-size="10.00">MultiDimSortComparable&lt; T &gt;</text>
</a>
</g>
</g>
<!-- Node1 -->
<g id="node2" class="node"><title>Node1</title>
<g id="a_node2"><a xlink:href="classumontreal_1_1ssj_1_1util_1_1sort_1_1BatchSort.html" target="_top" xlink:title="This class implements a MultiDimSortComparable that performs a batch sort on multivariate arrays...">
<polygon fill="none" stroke="black" points="209.5,-180.5 209.5,-221.5 326.5,-221.5 326.5,-180.5 209.5,-180.5"/>
<text text-anchor="start" x="217.5" y="-209.5" font-family="Helvetica,sans-Serif" font-size="10.00">BatchSort&lt; T extends</text>
<text text-anchor="start" x="217.5" y="-198.5" font-family="Helvetica,sans-Serif" font-size="10.00"> MultiDimComparable&lt;</text>
<text text-anchor="middle" x="268" y="-187.5" font-family="Helvetica,sans-Serif" font-size="10.00">? super T &gt;</text>
</a>
</g>
</g>
<!-- Node0&#45;&gt;Node1 -->
<g id="edge1" class="edge"><title>Node0&#45;&gt;Node1</title>
<path fill="none" stroke="midnightblue" d="M100.703,-125.818C122.659,-138.66 155.855,-157.283 186,-171 193.507,-174.416 201.527,-177.749 209.494,-180.877"/>
<polygon fill="midnightblue" stroke="midnightblue" points="102.415,-122.764 92.0236,-120.699 98.8594,-128.794 102.415,-122.764"/>
</g>
<!-- Node3 -->
<g id="node4" class="node"><title>Node3</title>
<g id="a_node4"><a xlink:href="classumontreal_1_1ssj_1_1util_1_1sort_1_1HilbertCurveBatchSort.html" target="_top" xlink:title="This sort is similar to BatchSortPow2, except that after applying the batch sort, the objects are giv...">
<polygon fill="none" stroke="black" points="186,-120.5 186,-161.5 350,-161.5 350,-120.5 186,-120.5"/>
<text text-anchor="start" x="194" y="-149.5" font-family="Helvetica,sans-Serif" font-size="10.00">HilbertCurveBatchSort</text>
<text text-anchor="start" x="194" y="-138.5" font-family="Helvetica,sans-Serif" font-size="10.00">&lt; T extends MultiDimComparable</text>
<text text-anchor="middle" x="268" y="-127.5" font-family="Helvetica,sans-Serif" font-size="10.00">&lt;? super T &gt;</text>
</a>
</g>
</g>
<!-- Node0&#45;&gt;Node3 -->
<g id="edge3" class="edge"><title>Node0&#45;&gt;Node3</title>
<path fill="none" stroke="midnightblue" d="M146.754,-122.113C159.487,-124.113 172.851,-126.212 185.852,-128.254"/>
<polygon fill="midnightblue" stroke="midnightblue" points="147.118,-118.628 136.696,-120.533 146.032,-125.543 147.118,-118.628"/>
</g>
<!-- Node4 -->
<g id="node5" class="node"><title>Node4</title>
<g id="a_node5"><a xlink:href="classumontreal_1_1ssj_1_1util_1_1sort_1_1OneDimSort.html" target="_top" xlink:title="This class implements a MultiDimSortComparable that simply sorts the objects according to a given sor...">
<polygon fill="none" stroke="black" points="206.5,-60.5 206.5,-101.5 329.5,-101.5 329.5,-60.5 206.5,-60.5"/>
<text text-anchor="start" x="214.5" y="-89.5" font-family="Helvetica,sans-Serif" font-size="10.00">OneDimSort&lt; T extends</text>
<text text-anchor="start" x="214.5" y="-78.5" font-family="Helvetica,sans-Serif" font-size="10.00"> MultiDimComparable&lt;</text>
<text text-anchor="middle" x="268" y="-67.5" font-family="Helvetica,sans-Serif" font-size="10.00">? super T &gt;</text>
</a>
</g>
</g>
<!-- Node0&#45;&gt;Node4 -->
<g id="edge4" class="edge"><title>Node0&#45;&gt;Node4</title>
<path fill="none" stroke="midnightblue" d="M146.794,-99.8806C166.4,-96.8011 187.498,-93.4873 206.462,-90.5086"/>
<polygon fill="midnightblue" stroke="midnightblue" points="146.032,-96.4572 136.696,-101.467 147.118,-103.372 146.032,-96.4572"/>
</g>
<!-- Node5 -->
<g id="node6" class="node"><title>Node5</title>
<g id="a_node6"><a xlink:href="classumontreal_1_1ssj_1_1util_1_1sort_1_1SplitSort.html" target="_top" xlink:title="Implements a MultiDimSortComparable that performs a split sort on a MultiDimComparable&lt;T&gt; array based...">
<polygon fill="none" stroke="black" points="209.5,-0.5 209.5,-41.5 326.5,-41.5 326.5,-0.5 209.5,-0.5"/>
<text text-anchor="start" x="217.5" y="-29.5" font-family="Helvetica,sans-Serif" font-size="10.00">SplitSort&lt; T extends</text>
<text text-anchor="start" x="217.5" y="-18.5" font-family="Helvetica,sans-Serif" font-size="10.00"> MultiDimComparable&lt;</text>
<text text-anchor="middle" x="268" y="-7.5" font-family="Helvetica,sans-Serif" font-size="10.00">? super T &gt;</text>
</a>
</g>
</g>
<!-- Node0&#45;&gt;Node5 -->
<g id="edge5" class="edge"><title>Node0&#45;&gt;Node5</title>
<path fill="none" stroke="midnightblue" d="M100.703,-96.1823C122.659,-83.3402 155.855,-64.717 186,-51 193.507,-47.584 201.527,-44.2511 209.494,-41.1233"/>
<polygon fill="midnightblue" stroke="midnightblue" points="98.8594,-93.2063 92.0236,-101.301 102.415,-99.2359 98.8594,-93.2063"/>
</g>
<!-- Node2 -->
<g id="node3" class="node"><title>Node2</title>
<g id="a_node3"><a xlink:href="classumontreal_1_1ssj_1_1util_1_1sort_1_1BatchSortPow2.html" target="_top" xlink:title="This is a subclass of BatchSort for which the batch numbers &#160;are always powers of 2...">
<polygon fill="none" stroke="black" points="386,-191.5 386,-210.5 471,-210.5 471,-191.5 386,-191.5"/>
<text text-anchor="middle" x="428.5" y="-198.5" font-family="Helvetica,sans-Serif" font-size="10.00">BatchSortPow2</text>
</a>
</g>
</g>
<!-- Node1&#45;&gt;Node2 -->
<g id="edge2" class="edge"><title>Node1&#45;&gt;Node2</title>
<path fill="none" stroke="midnightblue" d="M336.852,-201C353.386,-201 370.596,-201 385.522,-201"/>
<polygon fill="midnightblue" stroke="midnightblue" points="336.671,-197.5 326.671,-201 336.67,-204.5 336.671,-197.5"/>
</g>
</g>
</svg>
