<?xml version="1.0" encoding="UTF-8" standalone="no"?>
<!DOCTYPE svg PUBLIC "-//W3C//DTD SVG 1.1//EN"
 "http://www.w3.org/Graphics/SVG/1.1/DTD/svg11.dtd">
<!-- Generated by graphviz version 2.38.0 (20140413.2041)
 -->
<!-- Title: Graphical Class Hierarchy Pages: 1 -->
<svg width="474pt" height="100pt"
 viewBox="0.00 0.00 474.00 99.50" xmlns="http://www.w3.org/2000/svg" xmlns:xlink="http://www.w3.org/1999/xlink">
<g id="graph0" class="graph" transform="scale(1 1) rotate(0) translate(4 95.5)">
<title>Graphical Class Hierarchy</title>
<!-- Node0 -->
<g id="node1" class="node"><title>Node0</title>
<g id="a_node1"><a xlink:href="classumontreal_1_1ssj_1_1stat_1_1list_1_1ListOfStatProbes.html" target="_top" xlink:title="ListOfStatProbes\&lt; E \&gt;">
<polygon fill="none" stroke="black" points="0,-33 0,-52 116,-52 116,-33 0,-33"/>
<text text-anchor="middle" x="58" y="-40" font-family="Helvetica,sans-Serif" font-size="10.00">ListOfStatProbes&lt; E &gt;</text>
</a>
</g>
</g>
<!-- Node1 -->
<g id="node2" class="node"><title>Node1</title>
<g id="a_node2"><a xlink:href="classumontreal_1_1ssj_1_1stat_1_1list_1_1ListOfFunctionOfMultipleMeansTallies.html" target="_top" xlink:title="Represents a list of tally statistical collectors for a vector of functions of multiple means...">
<polygon fill="none" stroke="black" points="152,-50 152,-91 311,-91 311,-50 152,-50"/>
<text text-anchor="start" x="160" y="-79" font-family="Helvetica,sans-Serif" font-size="10.00">ListOfFunctionOfMultiple</text>
<text text-anchor="start" x="160" y="-68" font-family="Helvetica,sans-Serif" font-size="10.00">MeansTallies&lt; E extends</text>
<text text-anchor="middle" x="231.5" y="-57" font-family="Helvetica,sans-Serif" font-size="10.00"> FunctionOfMultipleMeansTally &gt;</text>
</a>
</g>
</g>
<!-- Node0&#45;&gt;Node1 -->
<g id="edge1" class="edge"><title>Node0&#45;&gt;Node1</title>
<path fill="none" stroke="midnightblue" d="M126.249,-53.4794C134.685,-54.8567 143.372,-56.275 151.961,-57.6773"/>
<polygon fill="midnightblue" stroke="midnightblue" points="126.54,-49.9807 116.107,-51.8236 125.412,-56.8893 126.54,-49.9807"/>
</g>
<!-- Node2 -->
<g id="node3" class="node"><title>Node2</title>
<g id="a_node3"><a xlink:href="classumontreal_1_1ssj_1_1stat_1_1list_1_1ListOfTallies.html" target="_top" xlink:title="Represents a list of tally statistical collectors. ">
<polygon fill="none" stroke="black" points="170,-0.5 170,-30.5 293,-30.5 293,-0.5 170,-0.5"/>
<text text-anchor="start" x="178" y="-18.5" font-family="Helvetica,sans-Serif" font-size="10.00">ListOfTallies&lt; E extends</text>
<text text-anchor="middle" x="231.5" y="-7.5" font-family="Helvetica,sans-Serif" font-size="10.00"> Tally &gt;</text>
</a>
</g>
</g>
<!-- Node0&#45;&gt;Node2 -->
<g id="edge2" class="edge"><title>Node0&#45;&gt;Node2</title>
<path fill="none" stroke="midnightblue" d="M126.388,-31.8908C140.715,-29.6352 155.76,-27.2667 169.819,-25.0533"/>
<polygon fill="midnightblue" stroke="midnightblue" points="125.441,-28.4967 116.107,-33.5094 126.53,-35.4115 125.441,-28.4967"/>
</g>
<!-- Node3 -->
<g id="node4" class="node"><title>Node3</title>
<g id="a_node4"><a xlink:href="classumontreal_1_1ssj_1_1mcqmctools_1_1anova_1_1AnovaVarianceCollector.html" target="_top" xlink:title="Extends ListOfTallies to collect ANOVA variances. ">
<polygon fill="none" stroke="black" points="347,-6 347,-25 466,-25 466,-6 347,-6"/>
<text text-anchor="middle" x="406.5" y="-13" font-family="Helvetica,sans-Serif" font-size="10.00">AnovaVarianceCollector</text>
</a>
</g>
</g>
<!-- Node2&#45;&gt;Node3 -->
<g id="edge3" class="edge"><title>Node2&#45;&gt;Node3</title>
<path fill="none" stroke="midnightblue" d="M303.38,-15.5C317.805,-15.5 332.829,-15.5 346.775,-15.5"/>
<polygon fill="midnightblue" stroke="midnightblue" points="303.007,-12.0001 293.007,-15.5 303.007,-19.0001 303.007,-12.0001"/>
</g>
</g>
</svg>
