<?xml version="1.0" encoding="UTF-8" standalone="no"?>
<!DOCTYPE svg PUBLIC "-//W3C//DTD SVG 1.1//EN"
 "http://www.w3.org/Graphics/SVG/1.1/DTD/svg11.dtd">
<!-- Generated by graphviz version 2.38.0 (20140413.2041)
 -->
<!-- Title: Graphical Class Hierarchy Pages: 1 -->
<svg width="279pt" height="180pt"
 viewBox="0.00 0.00 279.00 180.00" xmlns="http://www.w3.org/2000/svg" xmlns:xlink="http://www.w3.org/1999/xlink">
<g id="graph0" class="graph" transform="scale(1 1) rotate(0) translate(4 176)">
<title>Graphical Class Hierarchy</title>
<!-- Node1 -->
<g id="node1" class="node"><title>Node1</title>
<polygon fill="none" stroke="#bfbfbf" points="0,-76.5 0,-95.5 54,-95.5 54,-76.5 0,-76.5"/>
<text text-anchor="middle" x="27" y="-83.5" font-family="Helvetica,sans-Serif" font-size="10.00">Iterable</text>
</g>
<!-- Node2 -->
<g id="node2" class="node"><title>Node2</title>
<g id="a_node2"><a xlink:href="interfaceumontreal_1_1ssj_1_1simevents_1_1eventlist_1_1EventList.html" target="_top" xlink:title="An interface for implementations of event lists. ">
<polygon fill="none" stroke="black" points="90,-76.5 90,-95.5 152,-95.5 152,-76.5 90,-76.5"/>
<text text-anchor="middle" x="121" y="-83.5" font-family="Helvetica,sans-Serif" font-size="10.00">EventList</text>
</a>
</g>
</g>
<!-- Node1&#45;&gt;Node2 -->
<g id="edge1" class="edge"><title>Node1&#45;&gt;Node2</title>
<path fill="none" stroke="midnightblue" d="M64.1924,-86C72.712,-86 81.7023,-86 89.9195,-86"/>
<polygon fill="midnightblue" stroke="midnightblue" points="64.1175,-82.5001 54.1174,-86 64.1174,-89.5001 64.1175,-82.5001"/>
</g>
<!-- Node3 -->
<g id="node3" class="node"><title>Node3</title>
<g id="a_node3"><a xlink:href="classumontreal_1_1ssj_1_1simevents_1_1eventlist_1_1BinaryTree.html" target="_top" xlink:title="Implantation de l&#39;interface EventList ayant comme structure de donnees un arbre binaire. ">
<polygon fill="none" stroke="black" points="194.5,-152.5 194.5,-171.5 264.5,-171.5 264.5,-152.5 194.5,-152.5"/>
<text text-anchor="middle" x="229.5" y="-159.5" font-family="Helvetica,sans-Serif" font-size="10.00">BinaryTree</text>
</a>
</g>
</g>
<!-- Node2&#45;&gt;Node3 -->
<g id="edge2" class="edge"><title>Node2&#45;&gt;Node3</title>
<path fill="none" stroke="midnightblue" d="M139.123,-103.115C151.864,-115.249 170.079,-131.374 188,-143 193.343,-146.466 199.418,-149.661 205.209,-152.403"/>
<polygon fill="midnightblue" stroke="midnightblue" points="141.21,-100.263 131.598,-95.8057 136.332,-105.284 141.21,-100.263"/>
</g>
<!-- Node4 -->
<g id="node4" class="node"><title>Node4</title>
<g id="a_node4"><a xlink:href="classumontreal_1_1ssj_1_1simevents_1_1eventlist_1_1DoublyLinked.html" target="_top" xlink:title="An implementation of EventList using a doubly linked linear list. ">
<polygon fill="none" stroke="black" points="188,-114.5 188,-133.5 271,-133.5 271,-114.5 188,-114.5"/>
<text text-anchor="middle" x="229.5" y="-121.5" font-family="Helvetica,sans-Serif" font-size="10.00">DoublyLinked</text>
</a>
</g>
</g>
<!-- Node2&#45;&gt;Node4 -->
<g id="edge3" class="edge"><title>Node2&#45;&gt;Node4</title>
<path fill="none" stroke="midnightblue" d="M158.355,-98.9718C172.544,-104.034 188.518,-109.734 201.634,-114.414"/>
<polygon fill="midnightblue" stroke="midnightblue" points="159.469,-95.6532 148.874,-95.589 157.117,-102.246 159.469,-95.6532"/>
</g>
<!-- Node5 -->
<g id="node5" class="node"><title>Node5</title>
<g id="a_node5"><a xlink:href="classumontreal_1_1ssj_1_1simevents_1_1eventlist_1_1Henriksen.html" target="_top" xlink:title="An implementation of EventList using the doubly&#45;linked indexed list of Henriksen   (see also   (p...">
<polygon fill="none" stroke="black" points="196.5,-76.5 196.5,-95.5 262.5,-95.5 262.5,-76.5 196.5,-76.5"/>
<text text-anchor="middle" x="229.5" y="-83.5" font-family="Helvetica,sans-Serif" font-size="10.00">Henriksen</text>
</a>
</g>
</g>
<!-- Node2&#45;&gt;Node5 -->
<g id="edge4" class="edge"><title>Node2&#45;&gt;Node5</title>
<path fill="none" stroke="midnightblue" d="M162.276,-86C173.531,-86 185.61,-86 196.33,-86"/>
<polygon fill="midnightblue" stroke="midnightblue" points="162.234,-82.5001 152.234,-86 162.234,-89.5001 162.234,-82.5001"/>
</g>
<!-- Node6 -->
<g id="node6" class="node"><title>Node6</title>
<g id="a_node6"><a xlink:href="classumontreal_1_1ssj_1_1simevents_1_1eventlist_1_1RedblackTree.html" target="_top" xlink:title="An implementation of EventList using a red black tree, which is similar to a binary search tree excep...">
<polygon fill="none" stroke="black" points="188,-38.5 188,-57.5 271,-57.5 271,-38.5 188,-38.5"/>
<text text-anchor="middle" x="229.5" y="-45.5" font-family="Helvetica,sans-Serif" font-size="10.00">RedblackTree</text>
</a>
</g>
</g>
<!-- Node2&#45;&gt;Node6 -->
<g id="edge5" class="edge"><title>Node2&#45;&gt;Node6</title>
<path fill="none" stroke="midnightblue" d="M158.355,-73.0282C172.544,-67.9656 188.518,-62.2659 201.634,-57.5859"/>
<polygon fill="midnightblue" stroke="midnightblue" points="157.117,-69.7539 148.874,-76.411 159.469,-76.3468 157.117,-69.7539"/>
</g>
<!-- Node7 -->
<g id="node7" class="node"><title>Node7</title>
<g id="a_node7"><a xlink:href="classumontreal_1_1ssj_1_1simevents_1_1eventlist_1_1SplayTree.html" target="_top" xlink:title="An implementation of EventList using a splay tree  . ">
<polygon fill="none" stroke="black" points="197,-0.5 197,-19.5 262,-19.5 262,-0.5 197,-0.5"/>
<text text-anchor="middle" x="229.5" y="-7.5" font-family="Helvetica,sans-Serif" font-size="10.00">SplayTree</text>
</a>
</g>
</g>
<!-- Node2&#45;&gt;Node7 -->
<g id="edge6" class="edge"><title>Node2&#45;&gt;Node7</title>
<path fill="none" stroke="midnightblue" d="M139.123,-68.8848C151.864,-56.7515 170.079,-40.6263 188,-29 193.343,-25.5338 199.418,-22.3388 205.209,-19.5968"/>
<polygon fill="midnightblue" stroke="midnightblue" points="136.332,-66.7159 131.598,-76.1943 141.21,-71.7369 136.332,-66.7159"/>
</g>
</g>
</svg>
