<?xml version="1.0" encoding="UTF-8" standalone="no"?>
<!DOCTYPE svg PUBLIC "-//W3C//DTD SVG 1.1//EN"
 "http://www.w3.org/Graphics/SVG/1.1/DTD/svg11.dtd">
<!-- Generated by graphviz version 2.26.3 (20100126.1600)
 -->
<!-- Title: Graphical Class Hierarchy Pages: 1 -->
<svg width="320pt" height="484pt"
 viewBox="0.00 0.00 320.00 484.00" xmlns="http://www.w3.org/2000/svg" xmlns:xlink="http://www.w3.org/1999/xlink">
<g id="graph1" class="graph" transform="scale(1 1) rotate(0) translate(4 480)">
<title>Graphical Class Hierarchy</title>
<!-- Node1 -->
<g id="node1" class="node"><title>Node1</title>
<polygon fill="none" stroke="#bfbfbf" points="0,-228 0,-248 68,-248 68,-228 0,-228"/>
<text text-anchor="middle" x="34" y="-235" font-family="Helvetica,sans-Serif" font-size="10.00">Comparable</text>
</g>
<!-- Node2 -->
<g id="node3" class="node"><title>Node2</title>
<a xlink:href="classumontreal_1_1ssj_1_1simevents_1_1Event.html" target="_top" xlink:title="This abstract class provides event scheduling tools. ">
<polygon fill="none" stroke="black" points="104,-228 104,-248 146,-248 146,-228 104,-228"/>
<text text-anchor="middle" x="125" y="-235" font-family="Helvetica,sans-Serif" font-size="10.00">Event</text>
</a>
</g>
<!-- Node1&#45;&gt;Node2 -->
<g id="edge2" class="edge"><title>Node1&#45;&gt;Node2</title>
<path fill="none" stroke="midnightblue" d="M78.1684,-238C87.1391,-238 96.1789,-238 103.891,-238"/>
<polygon fill="midnightblue" stroke="midnightblue" points="78.144,-234.5 68.1439,-238 78.1439,-241.5 78.144,-234.5"/>
</g>
<!-- Node3 -->
<g id="node5" class="node"><title>Node3</title>
<a xlink:href="classBankEv_1_1Arrival.html" target="_top" xlink:title="BankEv.Arrival">
<polygon fill="none" stroke="black" points="206.5,-456 206.5,-476 287.5,-476 287.5,-456 206.5,-456"/>
<text text-anchor="middle" x="247" y="-463" font-family="Helvetica,sans-Serif" font-size="10.00">BankEv.Arrival</text>
</a>
</g>
<!-- Node2&#45;&gt;Node3 -->
<g id="edge4" class="edge"><title>Node2&#45;&gt;Node3</title>
<path fill="none" stroke="midnightblue" d="M127.955,-258.16C135.226,-305.117 155.347,-419.859 182,-447 188.59,-453.711 197.409,-458.083 206.42,-460.922"/>
<polygon fill="midnightblue" stroke="midnightblue" points="131.413,-257.617 126.458,-248.253 124.492,-258.664 131.413,-257.617"/>
</g>
<!-- Node4 -->
<g id="node7" class="node"><title>Node4</title>
<a xlink:href="classBankEv_1_1Departure.html" target="_top" xlink:title="BankEv.Departure">
<polygon fill="none" stroke="black" points="199.5,-418 199.5,-438 294.5,-438 294.5,-418 199.5,-418"/>
<text text-anchor="middle" x="247" y="-425" font-family="Helvetica,sans-Serif" font-size="10.00">BankEv.Departure</text>
</a>
</g>
<!-- Node2&#45;&gt;Node4 -->
<g id="edge6" class="edge"><title>Node2&#45;&gt;Node4</title>
<path fill="none" stroke="midnightblue" d="M129.282,-258.254C138.229,-298.765 159.91,-387.721 182,-409 186.911,-413.731 192.933,-417.293 199.311,-419.974"/>
<polygon fill="midnightblue" stroke="midnightblue" points="132.69,-257.454 127.152,-248.422 125.849,-258.936 132.69,-257.454"/>
</g>
<!-- Node5 -->
<g id="node9" class="node"><title>Node5</title>
<a xlink:href="classCallCenter_1_1Arrival.html" target="_top" xlink:title="CallCenter.Arrival">
<polygon fill="none" stroke="black" points="201,-380 201,-400 293,-400 293,-380 201,-380"/>
<text text-anchor="middle" x="247" y="-387" font-family="Helvetica,sans-Serif" font-size="10.00">CallCenter.Arrival</text>
</a>
</g>
<!-- Node2&#45;&gt;Node5 -->
<g id="edge8" class="edge"><title>Node2&#45;&gt;Node5</title>
<path fill="none" stroke="midnightblue" d="M128.132,-258.231C133.711,-287.384 148.141,-340.993 182,-371 187.455,-375.835 194.081,-379.442 200.99,-382.133"/>
<polygon fill="midnightblue" stroke="midnightblue" points="131.518,-257.276 126.353,-248.026 124.622,-258.479 131.518,-257.276"/>
</g>
<!-- Node6 -->
<g id="node11" class="node"><title>Node6</title>
<a xlink:href="classCallCenter_1_1CallCompletion.html" target="_top" xlink:title="CallCenter.CallCompletion">
<polygon fill="none" stroke="black" points="182.5,-342 182.5,-362 311.5,-362 311.5,-342 182.5,-342"/>
<text text-anchor="middle" x="247" y="-349" font-family="Helvetica,sans-Serif" font-size="10.00">CallCenter.CallCompletion</text>
</a>
</g>
<!-- Node2&#45;&gt;Node6 -->
<g id="edge10" class="edge"><title>Node2&#45;&gt;Node6</title>
<path fill="none" stroke="midnightblue" d="M131.701,-257.455C140.12,-279.041 156.616,-313.406 182,-333 186.653,-336.592 191.969,-339.506 197.51,-341.869"/>
<polygon fill="midnightblue" stroke="midnightblue" points="134.959,-256.175 128.213,-248.005 128.392,-258.599 134.959,-256.175"/>
</g>
<!-- Node7 -->
<g id="node13" class="node"><title>Node7</title>
<a xlink:href="classCallCenter_1_1NextPeriod.html" target="_top" xlink:title="CallCenter.NextPeriod">
<polygon fill="none" stroke="black" points="191,-304 191,-324 303,-324 303,-304 191,-304"/>
<text text-anchor="middle" x="247" y="-311" font-family="Helvetica,sans-Serif" font-size="10.00">CallCenter.NextPeriod</text>
</a>
</g>
<!-- Node2&#45;&gt;Node7 -->
<g id="edge12" class="edge"><title>Node2&#45;&gt;Node7</title>
<path fill="none" stroke="midnightblue" d="M139.178,-256.419C149.732,-268.959 165.174,-285.03 182,-295 188.069,-298.596 194.864,-301.55 201.71,-303.965"/>
<polygon fill="midnightblue" stroke="midnightblue" points="141.71,-253.985 132.695,-248.42 136.272,-258.393 141.71,-253.985"/>
</g>
<!-- Node8 -->
<g id="node15" class="node"><title>Node8</title>
<a xlink:href="classCallEv_1_1Arrival.html" target="_top" xlink:title="CallEv.Arrival">
<polygon fill="none" stroke="black" points="209.5,-266 209.5,-286 284.5,-286 284.5,-266 209.5,-266"/>
<text text-anchor="middle" x="247" y="-273" font-family="Helvetica,sans-Serif" font-size="10.00">CallEv.Arrival</text>
</a>
</g>
<!-- Node2&#45;&gt;Node8 -->
<g id="edge14" class="edge"><title>Node2&#45;&gt;Node8</title>
<path fill="none" stroke="midnightblue" d="M155.623,-248.441C164.142,-251.282 173.413,-254.315 182,-257 191.65,-260.018 202.152,-263.152 211.845,-265.984"/>
<polygon fill="midnightblue" stroke="midnightblue" points="156.647,-245.093 146.053,-245.226 154.418,-251.729 156.647,-245.093"/>
</g>
<!-- Node9 -->
<g id="node17" class="node"><title>Node9</title>
<a xlink:href="classCallEv_1_1CallCompletion.html" target="_top" xlink:title="CallEv.CallCompletion">
<polygon fill="none" stroke="black" points="190.5,-228 190.5,-248 303.5,-248 303.5,-228 190.5,-228"/>
<text text-anchor="middle" x="247" y="-235" font-family="Helvetica,sans-Serif" font-size="10.00">CallEv.CallCompletion</text>
</a>
</g>
<!-- Node2&#45;&gt;Node9 -->
<g id="edge16" class="edge"><title>Node2&#45;&gt;Node9</title>
<path fill="none" stroke="midnightblue" d="M156.443,-238C166.815,-238 178.691,-238 190.353,-238"/>
<polygon fill="midnightblue" stroke="midnightblue" points="156.251,-234.5 146.251,-238 156.251,-241.5 156.251,-234.5"/>
</g>
<!-- Node10 -->
<g id="node19" class="node"><title>Node10</title>
<a xlink:href="classCallEv_1_1NextPeriod.html" target="_top" xlink:title="CallEv.NextPeriod">
<polygon fill="none" stroke="black" points="199.5,-190 199.5,-210 294.5,-210 294.5,-190 199.5,-190"/>
<text text-anchor="middle" x="247" y="-197" font-family="Helvetica,sans-Serif" font-size="10.00">CallEv.NextPeriod</text>
</a>
</g>
<!-- Node2&#45;&gt;Node10 -->
<g id="edge18" class="edge"><title>Node2&#45;&gt;Node10</title>
<path fill="none" stroke="midnightblue" d="M155.623,-227.559C164.142,-224.718 173.413,-221.685 182,-219 191.65,-215.982 202.152,-212.848 211.845,-210.016"/>
<polygon fill="midnightblue" stroke="midnightblue" points="154.418,-224.271 146.053,-230.774 156.647,-230.907 154.418,-224.271"/>
</g>
<!-- Node11 -->
<g id="node21" class="node"><title>Node11</title>
<a xlink:href="classPreyPred_1_1EndOfSim.html" target="_top" xlink:title="PreyPred.EndOfSim">
<polygon fill="none" stroke="black" points="194.5,-152 194.5,-172 299.5,-172 299.5,-152 194.5,-152"/>
<text text-anchor="middle" x="247" y="-159" font-family="Helvetica,sans-Serif" font-size="10.00">PreyPred.EndOfSim</text>
</a>
</g>
<!-- Node2&#45;&gt;Node11 -->
<g id="edge20" class="edge"><title>Node2&#45;&gt;Node11</title>
<path fill="none" stroke="midnightblue" d="M139.178,-219.581C149.732,-207.041 165.174,-190.97 182,-181 188.069,-177.404 194.864,-174.45 201.71,-172.035"/>
<polygon fill="midnightblue" stroke="midnightblue" points="136.272,-217.607 132.695,-227.58 141.71,-222.015 136.272,-217.607"/>
</g>
<!-- Node12 -->
<g id="node23" class="node"><title>Node12</title>
<a xlink:href="classPreyPred_1_1PrintPoint.html" target="_top" xlink:title="PreyPred.PrintPoint">
<polygon fill="none" stroke="black" points="195.5,-114 195.5,-134 298.5,-134 298.5,-114 195.5,-114"/>
<text text-anchor="middle" x="247" y="-121" font-family="Helvetica,sans-Serif" font-size="10.00">PreyPred.PrintPoint</text>
</a>
</g>
<!-- Node2&#45;&gt;Node12 -->
<g id="edge22" class="edge"><title>Node2&#45;&gt;Node12</title>
<path fill="none" stroke="midnightblue" d="M131.701,-218.545C140.12,-196.959 156.616,-162.594 182,-143 186.653,-139.408 191.969,-136.494 197.51,-134.131"/>
<polygon fill="midnightblue" stroke="midnightblue" points="128.392,-217.401 128.213,-227.995 134.959,-219.825 128.392,-217.401"/>
</g>
<!-- Node13 -->
<g id="node25" class="node"><title>Node13</title>
<a xlink:href="classQueueEv_1_1Arrival.html" target="_top" xlink:title="QueueEv.Arrival">
<polygon fill="none" stroke="black" points="203.5,-76 203.5,-96 290.5,-96 290.5,-76 203.5,-76"/>
<text text-anchor="middle" x="247" y="-83" font-family="Helvetica,sans-Serif" font-size="10.00">QueueEv.Arrival</text>
</a>
</g>
<!-- Node2&#45;&gt;Node13 -->
<g id="edge24" class="edge"><title>Node2&#45;&gt;Node13</title>
<path fill="none" stroke="midnightblue" d="M128.132,-217.769C133.711,-188.616 148.141,-135.007 182,-105 188.071,-99.6196 195.592,-95.7592 203.339,-92.9904"/>
<polygon fill="midnightblue" stroke="midnightblue" points="124.622,-217.521 126.353,-227.974 131.518,-218.724 124.622,-217.521"/>
</g>
<!-- Node14 -->
<g id="node27" class="node"><title>Node14</title>
<a xlink:href="classQueueEv_1_1Departure.html" target="_top" xlink:title="QueueEv.Departure">
<polygon fill="none" stroke="black" points="196.5,-38 196.5,-58 297.5,-58 297.5,-38 196.5,-38"/>
<text text-anchor="middle" x="247" y="-45" font-family="Helvetica,sans-Serif" font-size="10.00">QueueEv.Departure</text>
</a>
</g>
<!-- Node2&#45;&gt;Node14 -->
<g id="edge26" class="edge"><title>Node2&#45;&gt;Node14</title>
<path fill="none" stroke="midnightblue" d="M129.282,-217.746C138.229,-177.235 159.91,-88.2793 182,-67 186.149,-63.0032 191.091,-59.8404 196.371,-57.3387"/>
<polygon fill="midnightblue" stroke="midnightblue" points="125.849,-217.064 127.152,-227.578 132.69,-218.546 125.849,-217.064"/>
</g>
<!-- Node15 -->
<g id="node29" class="node"><title>Node15</title>
<a xlink:href="classQueueEv_1_1EndOfSim.html" target="_top" xlink:title="QueueEv.EndOfSim">
<polygon fill="none" stroke="black" points="195,-0 195,-20 299,-20 299,-0 195,-0"/>
<text text-anchor="middle" x="247" y="-7" font-family="Helvetica,sans-Serif" font-size="10.00">QueueEv.EndOfSim</text>
</a>
</g>
<!-- Node2&#45;&gt;Node15 -->
<g id="edge28" class="edge"><title>Node2&#45;&gt;Node15</title>
<path fill="none" stroke="midnightblue" d="M127.955,-217.84C135.226,-170.883 155.347,-56.1406 182,-29 185.707,-25.2252 190.119,-22.1904 194.874,-19.7521"/>
<polygon fill="midnightblue" stroke="midnightblue" points="124.492,-217.336 126.458,-227.747 131.413,-218.383 124.492,-217.336"/>
</g>
</g>
</svg>
