<?xml version="1.0" encoding="UTF-8" standalone="no"?>
<!DOCTYPE svg PUBLIC "-//W3C//DTD SVG 1.1//EN"
 "http://www.w3.org/Graphics/SVG/1.1/DTD/svg11.dtd">
<!-- Generated by graphviz version 2.38.0 (20140413.2041)
 -->
<!-- Title: Graphical Class Hierarchy Pages: 1 -->
<svg width="194pt" height="66pt"
 viewBox="0.00 0.00 194.00 66.00" xmlns="http://www.w3.org/2000/svg" xmlns:xlink="http://www.w3.org/1999/xlink">
<g id="graph0" class="graph" transform="scale(1 1) rotate(0) translate(4 62)">
<title>Graphical Class Hierarchy</title>
<!-- Node569 -->
<g id="node1" class="node"><title>Node569</title>
<polygon fill="none" stroke="#bfbfbf" points="6,-38.5 6,-57.5 74,-57.5 74,-38.5 6,-38.5"/>
<text text-anchor="middle" x="40" y="-45.5" font-family="Helvetica,sans-Serif" font-size="10.00">Appendable</text>
</g>
<!-- Node0 -->
<g id="node2" class="node"><title>Node0</title>
<g id="a_node2"><a xlink:href="classumontreal_1_1ssj_1_1util_1_1PrintfFormat.html" target="_top" xlink:title="This class acts like a StringBuffer which defines new types of append methods. ">
<polygon fill="none" stroke="black" points="116,-19.5 116,-38.5 186,-38.5 186,-19.5 116,-19.5"/>
<text text-anchor="middle" x="151" y="-26.5" font-family="Helvetica,sans-Serif" font-size="10.00">PrintfFormat</text>
</a>
</g>
</g>
<!-- Node569&#45;&gt;Node0 -->
<g id="edge1" class="edge"><title>Node569&#45;&gt;Node0</title>
<path fill="none" stroke="midnightblue" d="M84.4627,-40.4239C94.8761,-38.6088 105.851,-36.6958 115.778,-34.9653"/>
<polygon fill="midnightblue" stroke="midnightblue" points="83.5463,-37.0308 74.2959,-42.1961 84.7484,-43.9268 83.5463,-37.0308"/>
</g>
<!-- Node555 -->
<g id="node3" class="node"><title>Node555</title>
<polygon fill="none" stroke="#bfbfbf" points="0,-0.5 0,-19.5 80,-19.5 80,-0.5 0,-0.5"/>
<text text-anchor="middle" x="40" y="-7.5" font-family="Helvetica,sans-Serif" font-size="10.00">CharSequence</text>
</g>
<!-- Node555&#45;&gt;Node0 -->
<g id="edge2" class="edge"><title>Node555&#45;&gt;Node0</title>
<path fill="none" stroke="midnightblue" d="M90.1327,-18.5644C98.8454,-20.0831 107.743,-21.6341 115.923,-23.0599"/>
<polygon fill="midnightblue" stroke="midnightblue" points="90.4961,-15.0751 80.0436,-16.8058 89.294,-21.9711 90.4961,-15.0751"/>
</g>
</g>
</svg>
