<?xml version="1.0" encoding="UTF-8" standalone="no"?>
<!DOCTYPE svg PUBLIC "-//W3C//DTD SVG 1.1//EN"
 "http://www.w3.org/Graphics/SVG/1.1/DTD/svg11.dtd">
<!-- Generated by graphviz version 2.38.0 (20140413.2041)
 -->
<!-- Title: Graphical Class Hierarchy Pages: 1 -->
<svg width="317pt" height="88pt"
 viewBox="0.00 0.00 317.00 88.00" xmlns="http://www.w3.org/2000/svg" xmlns:xlink="http://www.w3.org/1999/xlink">
<g id="graph0" class="graph" transform="scale(1 1) rotate(0) translate(4 84)">
<title>Graphical Class Hierarchy</title>
<!-- Node495 -->
<g id="node1" class="node"><title>Node495</title>
<polygon fill="none" stroke="#bfbfbf" points="0,-30 0,-49 116,-49 116,-30 0,-30"/>
<text text-anchor="middle" x="58" y="-37" font-family="Helvetica,sans-Serif" font-size="10.00">DigitalNetBase2Iterator</text>
</g>
<!-- Node0 -->
<g id="node2" class="node"><title>Node0</title>
<g id="a_node2"><a xlink:href="classumontreal_1_1ssj_1_1hups_1_1DigitalSequenceBase2_1_1DigitalNetBase2IteratorShiftGenerators.html" target="_top" xlink:title="DigitalSequenceBase2.Digital\lNetBase2IteratorShiftGenerators">
<polygon fill="none" stroke="black" points="152,-49.5 152,-79.5 309,-79.5 309,-49.5 152,-49.5"/>
<text text-anchor="start" x="160" y="-67.5" font-family="Helvetica,sans-Serif" font-size="10.00">DigitalSequenceBase2.Digital</text>
<text text-anchor="middle" x="230.5" y="-56.5" font-family="Helvetica,sans-Serif" font-size="10.00">NetBase2IteratorShiftGenerators</text>
</a>
</g>
</g>
<!-- Node495&#45;&gt;Node0 -->
<g id="edge1" class="edge"><title>Node495&#45;&gt;Node0</title>
<path fill="none" stroke="midnightblue" d="M126.314,-49.37C134.683,-50.5971 143.293,-51.8597 151.802,-53.1074"/>
<polygon fill="midnightblue" stroke="midnightblue" points="126.65,-45.8821 116.248,-47.8942 125.635,-52.808 126.65,-45.8821"/>
</g>
<!-- Node497 -->
<g id="node3" class="node"><title>Node497</title>
<g id="a_node3"><a xlink:href="classumontreal_1_1ssj_1_1hups_1_1DigitalSequenceBase2_1_1DigitalNetBase2IteratorShiftNoGray.html" target="_top" xlink:title="DigitalSequenceBase2.Digital\lNetBase2IteratorShiftNoGray">
<polygon fill="none" stroke="black" points="158,-0.5 158,-30.5 303,-30.5 303,-0.5 158,-0.5"/>
<text text-anchor="start" x="166" y="-18.5" font-family="Helvetica,sans-Serif" font-size="10.00">DigitalSequenceBase2.Digital</text>
<text text-anchor="middle" x="230.5" y="-7.5" font-family="Helvetica,sans-Serif" font-size="10.00">NetBase2IteratorShiftNoGray</text>
</a>
</g>
</g>
<!-- Node495&#45;&gt;Node497 -->
<g id="edge2" class="edge"><title>Node495&#45;&gt;Node497</title>
<path fill="none" stroke="midnightblue" d="M126.431,-30.0083C136.758,-28.5545 147.451,-27.0494 157.866,-25.5833"/>
<polygon fill="midnightblue" stroke="midnightblue" points="125.663,-26.5818 116.248,-31.4416 126.639,-33.5134 125.663,-26.5818"/>
</g>
</g>
</svg>
