<?xml version="1.0" encoding="UTF-8" standalone="no"?>
<!DOCTYPE svg PUBLIC "-//W3C//DTD SVG 1.1//EN"
 "http://www.w3.org/Graphics/SVG/1.1/DTD/svg11.dtd">
<!-- Generated by graphviz version 2.26.3 (20100126.1600)
 -->
<!-- Title: Graphical Class Hierarchy Pages: 1 -->
<svg width="300pt" height="128pt"
 viewBox="0.00 0.00 300.00 128.00" xmlns="http://www.w3.org/2000/svg" xmlns:xlink="http://www.w3.org/1999/xlink">
<g id="graph1" class="graph" transform="scale(1 1) rotate(0) translate(4 124)">
<title>Graphical Class Hierarchy</title>
<!-- Node1 -->
<g id="node1" class="node"><title>Node1</title>
<polygon fill="none" stroke="#bfbfbf" points="0,-56 0,-76 96,-76 96,-56 0,-56"/>
<text text-anchor="middle" x="48" y="-63" font-family="Helvetica,sans-Serif" font-size="10.00">RuntimeException</text>
</g>
<!-- Node2 -->
<g id="node3" class="node"><title>Node2</title>
<a xlink:href="classumontreal_1_1ssj_1_1randvar_1_1UnuranException.html" target="_top" xlink:title="This type of unchecked exception is thrown when an error occurs inside the UNURAN package...">
<polygon fill="none" stroke="black" points="166.5,-100 166.5,-120 257.5,-120 257.5,-100 166.5,-100"/>
<text text-anchor="middle" x="212" y="-107" font-family="Helvetica,sans-Serif" font-size="10.00">UnuranException</text>
</a>
</g>
<!-- Node1&#45;&gt;Node2 -->
<g id="edge2" class="edge"><title>Node1&#45;&gt;Node2</title>
<path fill="none" stroke="midnightblue" d="M90.0701,-79.0242C103.431,-83.0252 118.295,-87.3362 132,-91 143.584,-94.0969 156.18,-97.2071 167.876,-99.9885"/>
<polygon fill="midnightblue" stroke="midnightblue" points="90.7747,-75.581 80.1899,-76.041 88.7513,-82.2822 90.7747,-75.581"/>
</g>
<!-- Node3 -->
<g id="node5" class="node"><title>Node3</title>
<a xlink:href="classumontreal_1_1ssj_1_1rng_1_1RandomStreamInstantiationException.html" target="_top" xlink:title="This exception is thrown when a random stream factory cannot instantiate a stream on a call to its um...">
<polygon fill="none" stroke="black" points="143.5,-50 143.5,-82 280.5,-82 280.5,-50 143.5,-50"/>
<text text-anchor="start" x="151.5" y="-69" font-family="Helvetica,sans-Serif" font-size="10.00">RandomStreamInstantiation</text>
<text text-anchor="middle" x="212" y="-57" font-family="Helvetica,sans-Serif" font-size="10.00">Exception</text>
</a>
</g>
<!-- Node1&#45;&gt;Node3 -->
<g id="edge4" class="edge"><title>Node1&#45;&gt;Node3</title>
<path fill="none" stroke="midnightblue" d="M106.579,-66C118.498,-66 131.138,-66 143.37,-66"/>
<polygon fill="midnightblue" stroke="midnightblue" points="106.318,-62.5001 96.3184,-66 106.318,-69.5001 106.318,-62.5001"/>
</g>
<!-- Node4 -->
<g id="node7" class="node"><title>Node4</title>
<a xlink:href="classumontreal_1_1ssj_1_1util_1_1BitMatrix_1_1IncompatibleDimensionException.html" target="_top" xlink:title="Runtime exception raised when the dimensions of the BitMatrix are not appropriate for the operation...">
<polygon fill="none" stroke="black" points="132,-0 132,-32 292,-32 292,-0 132,-0"/>
<text text-anchor="start" x="140" y="-19" font-family="Helvetica,sans-Serif" font-size="10.00">BitMatrix.IncompatibleDimension</text>
<text text-anchor="middle" x="212" y="-7" font-family="Helvetica,sans-Serif" font-size="10.00">Exception</text>
</a>
</g>
<!-- Node1&#45;&gt;Node4 -->
<g id="edge6" class="edge"><title>Node1&#45;&gt;Node4</title>
<path fill="none" stroke="midnightblue" d="M90.8011,-52.9509C111.811,-46.5454 137.31,-38.7713 159.489,-32.0094"/>
<polygon fill="midnightblue" stroke="midnightblue" points="89.7325,-49.6176 81.1878,-55.8818 91.7739,-56.3133 89.7325,-49.6176"/>
</g>
</g>
</svg>
