<?xml version="1.0" encoding="UTF-8" standalone="no"?>
<!DOCTYPE svg PUBLIC "-//W3C//DTD SVG 1.1//EN"
 "http://www.w3.org/Graphics/SVG/1.1/DTD/svg11.dtd">
<!-- Generated by graphviz version 2.38.0 (20140413.2041)
 -->
<!-- Title: Graphical Class Hierarchy Pages: 1 -->
<svg width="443pt" height="104pt"
 viewBox="0.00 0.00 443.00 104.00" xmlns="http://www.w3.org/2000/svg" xmlns:xlink="http://www.w3.org/1999/xlink">
<g id="graph0" class="graph" transform="scale(1 1) rotate(0) translate(4 100)">
<title>Graphical Class Hierarchy</title>
<!-- Node1 -->
<g id="node1" class="node"><title>Node1</title>
<g id="a_node1"><a xlink:href="classumontreal_1_1ssj_1_1charts_1_1SSJXYSeriesCollection.html" target="_top" xlink:title="Stores data used in a XYChart. ">
<polygon fill="none" stroke="black" points="0,-38.5 0,-57.5 120,-57.5 120,-38.5 0,-38.5"/>
<text text-anchor="middle" x="60" y="-45.5" font-family="Helvetica,sans-Serif" font-size="10.00">SSJXYSeriesCollection</text>
</a>
</g>
</g>
<!-- Node2 -->
<g id="node2" class="node"><title>Node2</title>
<g id="a_node2"><a xlink:href="classumontreal_1_1ssj_1_1charts_1_1EmpiricalSeriesCollection.html" target="_top" xlink:title="Stores data used in a EmpiricalChart. ">
<polygon fill="none" stroke="black" points="158.5,-76.5 158.5,-95.5 286.5,-95.5 286.5,-76.5 158.5,-76.5"/>
<text text-anchor="middle" x="222.5" y="-83.5" font-family="Helvetica,sans-Serif" font-size="10.00">EmpiricalSeriesCollection</text>
</a>
</g>
</g>
<!-- Node1&#45;&gt;Node2 -->
<g id="edge1" class="edge"><title>Node1&#45;&gt;Node2</title>
<path fill="none" stroke="midnightblue" d="M111.245,-59.8961C133.805,-65.2374 160.061,-71.4537 181.29,-76.4799"/>
<polygon fill="midnightblue" stroke="midnightblue" points="112.038,-56.4871 101.501,-57.589 110.426,-63.2988 112.038,-56.4871"/>
</g>
<!-- Node3 -->
<g id="node3" class="node"><title>Node3</title>
<g id="a_node3"><a xlink:href="classumontreal_1_1ssj_1_1charts_1_1HistogramSeriesCollection.html" target="_top" xlink:title="Stores data used in a HistogramChart. ">
<polygon fill="none" stroke="black" points="156,-38.5 156,-57.5 289,-57.5 289,-38.5 156,-38.5"/>
<text text-anchor="middle" x="222.5" y="-45.5" font-family="Helvetica,sans-Serif" font-size="10.00">HistogramSeriesCollection</text>
</a>
</g>
</g>
<!-- Node1&#45;&gt;Node3 -->
<g id="edge2" class="edge"><title>Node1&#45;&gt;Node3</title>
<path fill="none" stroke="midnightblue" d="M130.507,-48C138.955,-48 147.565,-48 155.953,-48"/>
<polygon fill="midnightblue" stroke="midnightblue" points="130.308,-44.5001 120.308,-48 130.308,-51.5001 130.308,-44.5001"/>
</g>
<!-- Node4 -->
<g id="node4" class="node"><title>Node4</title>
<g id="a_node4"><a xlink:href="classumontreal_1_1ssj_1_1charts_1_1XYListSeriesCollection.html" target="_top" xlink:title="This class extends umontreal.ssj.charts.SSJXYSeriesCollection. ">
<polygon fill="none" stroke="black" points="164,-0.5 164,-19.5 281,-19.5 281,-0.5 164,-0.5"/>
<text text-anchor="middle" x="222.5" y="-7.5" font-family="Helvetica,sans-Serif" font-size="10.00">XYListSeriesCollection</text>
</a>
</g>
</g>
<!-- Node1&#45;&gt;Node4 -->
<g id="edge3" class="edge"><title>Node1&#45;&gt;Node4</title>
<path fill="none" stroke="midnightblue" d="M111.245,-36.1039C133.805,-30.7626 160.061,-24.5463 181.29,-19.5201"/>
<polygon fill="midnightblue" stroke="midnightblue" points="110.426,-32.7012 101.501,-38.411 112.038,-39.5129 110.426,-32.7012"/>
</g>
<!-- Node5 -->
<g id="node5" class="node"><title>Node5</title>
<g id="a_node5"><a xlink:href="classumontreal_1_1ssj_1_1charts_1_1YListSeriesCollection.html" target="_top" xlink:title="This class extends umontreal.ssj.charts.XYListSeriesCollection. ">
<polygon fill="none" stroke="black" points="325,-0.5 325,-19.5 435,-19.5 435,-0.5 325,-0.5"/>
<text text-anchor="middle" x="380" y="-7.5" font-family="Helvetica,sans-Serif" font-size="10.00">YListSeriesCollection</text>
</a>
</g>
</g>
<!-- Node4&#45;&gt;Node5 -->
<g id="edge4" class="edge"><title>Node4&#45;&gt;Node5</title>
<path fill="none" stroke="midnightblue" d="M291.55,-10C302.713,-10 314.146,-10 324.91,-10"/>
<polygon fill="midnightblue" stroke="midnightblue" points="291.402,-6.5001 281.402,-10 291.402,-13.5001 291.402,-6.5001"/>
</g>
</g>
</svg>
