<?xml version="1.0" encoding="UTF-8" standalone="no"?>
<!DOCTYPE svg PUBLIC "-//W3C//DTD SVG 1.1//EN"
 "http://www.w3.org/Graphics/SVG/1.1/DTD/svg11.dtd">
<!-- Generated by graphviz version 2.38.0 (20140413.2041)
 -->
<!-- Title: Graphical Class Hierarchy Pages: 1 -->
<svg width="498pt" height="137pt"
 viewBox="0.00 0.00 498.00 137.00" xmlns="http://www.w3.org/2000/svg" xmlns:xlink="http://www.w3.org/1999/xlink">
<g id="graph0" class="graph" transform="scale(1 1) rotate(0) translate(4 133)">
<title>Graphical Class Hierarchy</title>
<!-- Node503 -->
<g id="node1" class="node"><title>Node503</title>
<polygon fill="none" stroke="#bfbfbf" points="0,-30 0,-49 114,-49 114,-30 0,-30"/>
<text text-anchor="middle" x="57" y="-37" font-family="Helvetica,sans-Serif" font-size="10.00">DefaultPointSetIterator</text>
</g>
<!-- Node0 -->
<g id="node2" class="node"><title>Node0</title>
<g id="a_node2"><a xlink:href="classumontreal_1_1ssj_1_1hups_1_1ContainerPointSet_1_1ContainerPointSetIterator.html" target="_top" xlink:title="ContainerPointSet.Container\lPointSetIterator">
<polygon fill="none" stroke="black" points="150,-49.5 150,-79.5 290,-79.5 290,-49.5 150,-49.5"/>
<text text-anchor="start" x="158" y="-67.5" font-family="Helvetica,sans-Serif" font-size="10.00">ContainerPointSet.Container</text>
<text text-anchor="middle" x="220" y="-56.5" font-family="Helvetica,sans-Serif" font-size="10.00">PointSetIterator</text>
</a>
</g>
</g>
<!-- Node503&#45;&gt;Node0 -->
<g id="edge1" class="edge"><title>Node503&#45;&gt;Node0</title>
<path fill="none" stroke="midnightblue" d="M124.453,-49.8189C132.876,-51.1268 141.511,-52.4676 149.973,-53.7816"/>
<polygon fill="midnightblue" stroke="midnightblue" points="124.729,-46.3197 114.31,-48.2438 123.654,-53.2368 124.729,-46.3197"/>
</g>
<!-- Node507 -->
<g id="node5" class="node"><title>Node507</title>
<g id="a_node5"><a xlink:href="classumontreal_1_1ssj_1_1hups_1_1CycleBasedPointSet_1_1CycleBasedPointSetIterator.html" target="_top" xlink:title="CycleBasedPointSet.Cycle\lBasedPointSetIterator">
<polygon fill="none" stroke="black" points="153,-0.5 153,-30.5 287,-30.5 287,-0.5 153,-0.5"/>
<text text-anchor="start" x="161" y="-18.5" font-family="Helvetica,sans-Serif" font-size="10.00">CycleBasedPointSet.Cycle</text>
<text text-anchor="middle" x="220" y="-7.5" font-family="Helvetica,sans-Serif" font-size="10.00">BasedPointSetIterator</text>
</a>
</g>
</g>
<!-- Node503&#45;&gt;Node507 -->
<g id="edge4" class="edge"><title>Node503&#45;&gt;Node507</title>
<path fill="none" stroke="midnightblue" d="M124.364,-29.6073C133.748,-28.2084 143.397,-26.7701 152.778,-25.3716"/>
<polygon fill="midnightblue" stroke="midnightblue" points="123.685,-26.1697 114.31,-31.106 124.717,-33.0932 123.685,-26.1697"/>
</g>
<!-- Node1 -->
<g id="node3" class="node"><title>Node1</title>
<g id="a_node3"><a xlink:href="classumontreal_1_1ssj_1_1hups_1_1AntitheticPointSet_1_1AntitheticPointSetIterator.html" target="_top" xlink:title="AntitheticPointSet.Antithetic\lPointSetIterator">
<polygon fill="none" stroke="black" points="338,-98.5 338,-128.5 478,-128.5 478,-98.5 338,-98.5"/>
<text text-anchor="start" x="346" y="-116.5" font-family="Helvetica,sans-Serif" font-size="10.00">AntitheticPointSet.Antithetic</text>
<text text-anchor="middle" x="408" y="-105.5" font-family="Helvetica,sans-Serif" font-size="10.00">PointSetIterator</text>
</a>
</g>
</g>
<!-- Node0&#45;&gt;Node1 -->
<g id="edge2" class="edge"><title>Node0&#45;&gt;Node1</title>
<path fill="none" stroke="midnightblue" d="M287.895,-82.1229C308.244,-87.4837 330.408,-93.3225 350.038,-98.4938"/>
<polygon fill="midnightblue" stroke="midnightblue" points="288.632,-78.6977 278.07,-79.5346 286.849,-85.4667 288.632,-78.6977"/>
</g>
<!-- Node2 -->
<g id="node4" class="node"><title>Node2</title>
<g id="a_node4"><a xlink:href="classumontreal_1_1ssj_1_1hups_1_1BakerTransformedPointSet_1_1BakerTransformedPointSetIterator.html" target="_top" xlink:title="BakerTransformedPointSet.\lBakerTransformedPointSetIterator">
<polygon fill="none" stroke="black" points="326.5,-49.5 326.5,-79.5 489.5,-79.5 489.5,-49.5 326.5,-49.5"/>
<text text-anchor="start" x="334.5" y="-67.5" font-family="Helvetica,sans-Serif" font-size="10.00">BakerTransformedPointSet.</text>
<text text-anchor="middle" x="408" y="-56.5" font-family="Helvetica,sans-Serif" font-size="10.00">BakerTransformedPointSetIterator</text>
</a>
</g>
</g>
<!-- Node0&#45;&gt;Node2 -->
<g id="edge3" class="edge"><title>Node0&#45;&gt;Node2</title>
<path fill="none" stroke="midnightblue" d="M300.305,-64.5C308.941,-64.5 317.738,-64.5 326.39,-64.5"/>
<polygon fill="midnightblue" stroke="midnightblue" points="300.26,-61.0001 290.26,-64.5 300.259,-68.0001 300.26,-61.0001"/>
</g>
<!-- Node508 -->
<g id="node6" class="node"><title>Node508</title>
<g id="a_node6"><a xlink:href="classumontreal_1_1ssj_1_1hups_1_1CycleBasedPointSetBase2_1_1CycleBasedPointSetBase2Iterator.html" target="_top" xlink:title="CycleBasedPointSetBase2.\lCycleBasedPointSetBase2Iterator">
<polygon fill="none" stroke="black" points="326,-0.5 326,-30.5 490,-30.5 490,-0.5 326,-0.5"/>
<text text-anchor="start" x="334" y="-18.5" font-family="Helvetica,sans-Serif" font-size="10.00">CycleBasedPointSetBase2.</text>
<text text-anchor="middle" x="408" y="-7.5" font-family="Helvetica,sans-Serif" font-size="10.00">CycleBasedPointSetBase2Iterator</text>
</a>
</g>
</g>
<!-- Node507&#45;&gt;Node508 -->
<g id="edge5" class="edge"><title>Node507&#45;&gt;Node508</title>
<path fill="none" stroke="midnightblue" d="M297.217,-15.5C306.644,-15.5 316.309,-15.5 325.807,-15.5"/>
<polygon fill="midnightblue" stroke="midnightblue" points="297.1,-12.0001 287.1,-15.5 297.1,-19.0001 297.1,-12.0001"/>
</g>
</g>
</svg>
