<?xml version="1.0" encoding="UTF-8" standalone="no"?>
<!DOCTYPE svg PUBLIC "-//W3C//DTD SVG 1.1//EN"
 "http://www.w3.org/Graphics/SVG/1.1/DTD/svg11.dtd">
<!-- Generated by graphviz version 2.38.0 (20140413.2041)
 -->
<!-- Title: Graphical Class Hierarchy Pages: 1 -->
<svg width="420pt" height="142pt"
 viewBox="0.00 0.00 420.00 142.00" xmlns="http://www.w3.org/2000/svg" xmlns:xlink="http://www.w3.org/1999/xlink">
<g id="graph0" class="graph" transform="scale(1 1) rotate(0) translate(4 138)">
<title>Graphical Class Hierarchy</title>
<!-- Node0 -->
<g id="node1" class="node"><title>Node0</title>
<g id="a_node1"><a xlink:href="interfaceumontreal_1_1ssj_1_1hups_1_1PointSetRandomization.html" target="_top" xlink:title="This interface is for a randomization that can be used to randomize a umontreal.ssj.hups.PointSet. ">
<polygon fill="none" stroke="black" points="0,-57.5 0,-76.5 119,-76.5 119,-57.5 0,-57.5"/>
<text text-anchor="middle" x="59.5" y="-64.5" font-family="Helvetica,sans-Serif" font-size="10.00">PointSetRandomization</text>
</a>
</g>
</g>
<!-- Node1 -->
<g id="node2" class="node"><title>Node1</title>
<g id="a_node2"><a xlink:href="classumontreal_1_1ssj_1_1hups_1_1EmptyRandomization.html" target="_top" xlink:title="This class implements an empty umontreal.ssj.hups.PointSetRandomization. ">
<polygon fill="none" stroke="black" points="164.5,-114.5 164.5,-133.5 274.5,-133.5 274.5,-114.5 164.5,-114.5"/>
<text text-anchor="middle" x="219.5" y="-121.5" font-family="Helvetica,sans-Serif" font-size="10.00">EmptyRandomization</text>
</a>
</g>
</g>
<!-- Node0&#45;&gt;Node1 -->
<g id="edge1" class="edge"><title>Node0&#45;&gt;Node1</title>
<path fill="none" stroke="midnightblue" d="M92.0922,-80.5469C110.325,-88.1521 133.778,-97.5755 155,-105 164.45,-108.306 174.81,-111.559 184.372,-114.414"/>
<polygon fill="midnightblue" stroke="midnightblue" points="93.3858,-77.2941 82.8109,-76.6448 90.6728,-83.747 93.3858,-77.2941"/>
</g>
<!-- Node2 -->
<g id="node3" class="node"><title>Node2</title>
<g id="a_node3"><a xlink:href="classumontreal_1_1ssj_1_1hups_1_1NestedUniformScrambling.html" target="_top" xlink:title="This class implements a PointSetRandomization that performs Owen&#39;s nested uniform scrambling ...">
<polygon fill="none" stroke="black" points="155,-76.5 155,-95.5 284,-95.5 284,-76.5 155,-76.5"/>
<text text-anchor="middle" x="219.5" y="-83.5" font-family="Helvetica,sans-Serif" font-size="10.00">NestedUniformScrambling</text>
</a>
</g>
</g>
<!-- Node0&#45;&gt;Node2 -->
<g id="edge2" class="edge"><title>Node0&#45;&gt;Node2</title>
<path fill="none" stroke="midnightblue" d="M129.506,-75.2981C137.929,-76.3111 146.507,-77.3426 154.847,-78.3456"/>
<polygon fill="midnightblue" stroke="midnightblue" points="129.68,-71.7939 119.333,-74.0749 128.844,-78.7439 129.68,-71.7939"/>
</g>
<!-- Node3 -->
<g id="node4" class="node"><title>Node3</title>
<g id="a_node4"><a xlink:href="classumontreal_1_1ssj_1_1hups_1_1RandomShift.html" target="_top" xlink:title="This class implements a umontreal.ssj.hups.PointSetRandomization. ">
<polygon fill="none" stroke="black" points="183.5,-38.5 183.5,-57.5 255.5,-57.5 255.5,-38.5 183.5,-38.5"/>
<text text-anchor="middle" x="219.5" y="-45.5" font-family="Helvetica,sans-Serif" font-size="10.00">RandomShift</text>
</a>
</g>
</g>
<!-- Node0&#45;&gt;Node3 -->
<g id="edge3" class="edge"><title>Node0&#45;&gt;Node3</title>
<path fill="none" stroke="midnightblue" d="M129.323,-58.7239C148.035,-56.4736 167.522,-54.1302 183.49,-52.2101"/>
<polygon fill="midnightblue" stroke="midnightblue" points="128.844,-55.2561 119.333,-59.9251 129.68,-62.206 128.844,-55.2561"/>
</g>
<!-- Node6 -->
<g id="node7" class="node"><title>Node6</title>
<g id="a_node7"><a xlink:href="classumontreal_1_1ssj_1_1hups_1_1RandomStart.html" target="_top" xlink:title="This class implements a umontreal.ssj.hups.PointSetRandomization that randomizes a sequence simply by...">
<polygon fill="none" stroke="black" points="182.5,-0.5 182.5,-19.5 256.5,-19.5 256.5,-0.5 182.5,-0.5"/>
<text text-anchor="middle" x="219.5" y="-7.5" font-family="Helvetica,sans-Serif" font-size="10.00">RandomStart</text>
</a>
</g>
</g>
<!-- Node0&#45;&gt;Node6 -->
<g id="edge6" class="edge"><title>Node0&#45;&gt;Node6</title>
<path fill="none" stroke="midnightblue" d="M92.0922,-53.4531C110.325,-45.8479 133.778,-36.4245 155,-29 164.45,-25.6941 174.81,-22.4408 184.372,-19.5862"/>
<polygon fill="midnightblue" stroke="midnightblue" points="90.6728,-50.253 82.8109,-57.3552 93.3858,-56.7059 90.6728,-50.253"/>
</g>
<!-- Node4 -->
<g id="node5" class="node"><title>Node4</title>
<g id="a_node5"><a xlink:href="classumontreal_1_1ssj_1_1hups_1_1LMScrambleShift.html" target="_top" xlink:title="This class implements a umontreal.ssj.hups.PointSetRandomization that performs a left matrix scrambli...">
<polygon fill="none" stroke="black" points="320.5,-57.5 320.5,-76.5 411.5,-76.5 411.5,-57.5 320.5,-57.5"/>
<text text-anchor="middle" x="366" y="-64.5" font-family="Helvetica,sans-Serif" font-size="10.00">LMScrambleShift</text>
</a>
</g>
</g>
<!-- Node3&#45;&gt;Node4 -->
<g id="edge4" class="edge"><title>Node3&#45;&gt;Node4</title>
<path fill="none" stroke="midnightblue" d="M265.788,-53.9548C283.211,-56.2457 303.076,-58.8578 320.431,-61.1398"/>
<polygon fill="midnightblue" stroke="midnightblue" points="266.22,-50.4815 255.849,-52.6479 265.307,-57.4218 266.22,-50.4815"/>
</g>
<!-- Node5 -->
<g id="node6" class="node"><title>Node5</title>
<g id="a_node6"><a xlink:href="classumontreal_1_1ssj_1_1hups_1_1SMScrambleShift.html" target="_top" xlink:title="This class implements a umontreal.ssj.hups.PointSetRandomization that performs a striped matrix scram...">
<polygon fill="none" stroke="black" points="320,-19.5 320,-38.5 412,-38.5 412,-19.5 320,-19.5"/>
<text text-anchor="middle" x="366" y="-26.5" font-family="Helvetica,sans-Serif" font-size="10.00">SMScrambleShift</text>
</a>
</g>
</g>
<!-- Node3&#45;&gt;Node5 -->
<g id="edge5" class="edge"><title>Node3&#45;&gt;Node5</title>
<path fill="none" stroke="midnightblue" d="M266.184,-41.9931C283.333,-39.7383 302.801,-37.1785 319.896,-34.9306"/>
<polygon fill="midnightblue" stroke="midnightblue" points="265.307,-38.5782 255.849,-43.3521 266.22,-45.5185 265.307,-38.5782"/>
</g>
</g>
</svg>
