<?xml version="1.0" encoding="UTF-8" standalone="no"?>
<!DOCTYPE svg PUBLIC "-//W3C//DTD SVG 1.1//EN"
 "http://www.w3.org/Graphics/SVG/1.1/DTD/svg11.dtd">
<!-- Generated by graphviz version 2.38.0 (20140413.2041)
 -->
<!-- Title: Graphical Class Hierarchy Pages: 1 -->
<svg width="297pt" height="66pt"
 viewBox="0.00 0.00 297.00 66.00" xmlns="http://www.w3.org/2000/svg" xmlns:xlink="http://www.w3.org/1999/xlink">
<g id="graph0" class="graph" transform="scale(1 1) rotate(0) translate(4 62)">
<title>Graphical Class Hierarchy</title>
<!-- Node0 -->
<g id="node1" class="node"><title>Node0</title>
<g id="a_node1"><a xlink:href="classumontreal_1_1ssj_1_1probdistmulti_1_1DiscreteDistributionIntMulti.html" target="_top" xlink:title="Classes implementing multi&#45;dimensional discrete distributions over the integers should inherit from t...">
<polygon fill="none" stroke="black" points="0,-19.5 0,-38.5 133,-38.5 133,-19.5 0,-19.5"/>
<text text-anchor="middle" x="66.5" y="-26.5" font-family="Helvetica,sans-Serif" font-size="10.00">DiscreteDistributionIntMulti</text>
</a>
</g>
</g>
<!-- Node1 -->
<g id="node2" class="node"><title>Node1</title>
<g id="a_node2"><a xlink:href="classumontreal_1_1ssj_1_1probdistmulti_1_1MultinomialDist.html" target="_top" xlink:title="Implements the abstract class DiscreteDistributionIntMulti for the multinomial distribution with para...">
<polygon fill="none" stroke="black" points="187.5,-38.5 187.5,-57.5 270.5,-57.5 270.5,-38.5 187.5,-38.5"/>
<text text-anchor="middle" x="229" y="-45.5" font-family="Helvetica,sans-Serif" font-size="10.00">MultinomialDist</text>
</a>
</g>
</g>
<!-- Node0&#45;&gt;Node1 -->
<g id="edge1" class="edge"><title>Node0&#45;&gt;Node1</title>
<path fill="none" stroke="midnightblue" d="M143.216,-37.9633C158.474,-39.7695 173.951,-41.6016 187.431,-43.1974"/>
<polygon fill="midnightblue" stroke="midnightblue" points="143.587,-34.4828 133.245,-36.7828 142.764,-41.4343 143.587,-34.4828"/>
</g>
<!-- Node2 -->
<g id="node3" class="node"><title>Node2</title>
<g id="a_node3"><a xlink:href="classumontreal_1_1ssj_1_1probdistmulti_1_1NegativeMultinomialDist.html" target="_top" xlink:title="Implements the class DiscreteDistributionIntMulti for the negative multinomial distribution with para...">
<polygon fill="none" stroke="black" points="169,-0.5 169,-19.5 289,-19.5 289,-0.5 169,-0.5"/>
<text text-anchor="middle" x="229" y="-7.5" font-family="Helvetica,sans-Serif" font-size="10.00">NegativeMultinomialDist</text>
</a>
</g>
</g>
<!-- Node0&#45;&gt;Node2 -->
<g id="edge2" class="edge"><title>Node0&#45;&gt;Node2</title>
<path fill="none" stroke="midnightblue" d="M143.257,-20.0319C151.834,-19.0166 160.478,-17.9932 168.799,-17.0083"/>
<polygon fill="midnightblue" stroke="midnightblue" points="142.764,-16.5657 133.245,-21.2172 143.587,-23.5172 142.764,-16.5657"/>
</g>
</g>
</svg>
