<?xml version="1.0" encoding="UTF-8" standalone="no"?>
<!DOCTYPE svg PUBLIC "-//W3C//DTD SVG 1.1//EN"
 "http://www.w3.org/Graphics/SVG/1.1/DTD/svg11.dtd">
<!-- Generated by graphviz version 2.26.3 (20100126.1600)
 -->
<!-- Title: Graphical Class Hierarchy Pages: 1 -->
<svg width="456pt" height="66pt"
 viewBox="0.00 0.00 456.00 66.00" xmlns="http://www.w3.org/2000/svg" xmlns:xlink="http://www.w3.org/1999/xlink">
<g id="graph1" class="graph" transform="scale(1 1) rotate(0) translate(4 62)">
<title>Graphical Class Hierarchy</title>
<!-- Node1 -->
<g id="node1" class="node"><title>Node1</title>
<a xlink:href="interfaceumontreal_1_1ssj_1_1util_1_1io_1_1DataWriter.html" target="_top" xlink:title="Data writer interface. ">
<polygon fill="none" stroke="black" points="0,-19 0,-39 62,-39 62,-19 0,-19"/>
<text text-anchor="middle" x="31" y="-26" font-family="Helvetica,sans-Serif" font-size="10.00">DataWriter</text>
</a>
</g>
<!-- Node2 -->
<g id="node3" class="node"><title>Node2</title>
<a xlink:href="classumontreal_1_1ssj_1_1util_1_1io_1_1AbstractDataWriter.html" target="_top" xlink:title="This abstract class implements shared functionality for data writers. ">
<polygon fill="none" stroke="black" points="98.5,-19 98.5,-39 197.5,-39 197.5,-19 98.5,-19"/>
<text text-anchor="middle" x="148" y="-26" font-family="Helvetica,sans-Serif" font-size="10.00">AbstractDataWriter</text>
</a>
</g>
<!-- Node1&#45;&gt;Node2 -->
<g id="edge2" class="edge"><title>Node1&#45;&gt;Node2</title>
<path fill="none" stroke="midnightblue" d="M72.0485,-29C80.5104,-29 89.5086,-29 98.241,-29"/>
<polygon fill="midnightblue" stroke="midnightblue" points="72.0467,-25.5001 62.0467,-29 72.0466,-32.5001 72.0467,-25.5001"/>
</g>
<!-- Node3 -->
<g id="node5" class="node"><title>Node3</title>
<a xlink:href="classumontreal_1_1ssj_1_1util_1_1io_1_1BinaryDataWriter.html" target="_top" xlink:title="Binary data writer. ">
<polygon fill="none" stroke="black" points="237,-38 237,-58 327,-58 327,-38 237,-38"/>
<text text-anchor="middle" x="282" y="-45" font-family="Helvetica,sans-Serif" font-size="10.00">BinaryDataWriter</text>
</a>
</g>
<!-- Node2&#45;&gt;Node3 -->
<g id="edge4" class="edge"><title>Node2&#45;&gt;Node3</title>
<path fill="none" stroke="midnightblue" d="M207.582,-37.4482C217.349,-38.833 227.329,-40.2481 236.678,-41.5737"/>
<polygon fill="midnightblue" stroke="midnightblue" points="207.908,-33.9595 197.516,-36.0209 206.926,-40.8902 207.908,-33.9595"/>
</g>
<!-- Node4 -->
<g id="node7" class="node"><title>Node4</title>
<a xlink:href="classumontreal_1_1ssj_1_1util_1_1io_1_1CachedDataWriter.html" target="_top" xlink:title="This abstract class implements shared functionality for data writers that store all fields in memory ...">
<polygon fill="none" stroke="black" points="234.5,-0 234.5,-20 329.5,-20 329.5,-0 234.5,-0"/>
<text text-anchor="middle" x="282" y="-7" font-family="Helvetica,sans-Serif" font-size="10.00">CachedDataWriter</text>
</a>
</g>
<!-- Node2&#45;&gt;Node4 -->
<g id="edge6" class="edge"><title>Node2&#45;&gt;Node4</title>
<path fill="none" stroke="midnightblue" d="M207.571,-20.5534C216.576,-19.2765 225.763,-17.9739 234.469,-16.7394"/>
<polygon fill="midnightblue" stroke="midnightblue" points="206.926,-17.1098 197.516,-21.9791 207.908,-24.0405 206.926,-17.1098"/>
</g>
<!-- Node5 -->
<g id="node9" class="node"><title>Node5</title>
<a xlink:href="classumontreal_1_1ssj_1_1util_1_1io_1_1TextDataWriter.html" target="_top" xlink:title="Text data writer. ">
<polygon fill="none" stroke="black" points="366.5,-0 366.5,-20 447.5,-20 447.5,-0 366.5,-0"/>
<text text-anchor="middle" x="407" y="-7" font-family="Helvetica,sans-Serif" font-size="10.00">TextDataWriter</text>
</a>
</g>
<!-- Node4&#45;&gt;Node5 -->
<g id="edge8" class="edge"><title>Node4&#45;&gt;Node5</title>
<path fill="none" stroke="midnightblue" d="M339.713,-10C348.744,-10 357.909,-10 366.448,-10"/>
<polygon fill="midnightblue" stroke="midnightblue" points="339.614,-6.5001 329.614,-10 339.614,-13.5001 339.614,-6.5001"/>
</g>
</g>
</svg>
