<?xml version="1.0" encoding="UTF-8" standalone="no"?>
<!DOCTYPE svg PUBLIC "-//W3C//DTD SVG 1.1//EN"
 "http://www.w3.org/Graphics/SVG/1.1/DTD/svg11.dtd">
<!-- Generated by graphviz version 2.38.0 (20140413.2041)
 -->
<!-- Title: Graphical Class Hierarchy Pages: 1 -->
<svg width="419pt" height="123pt"
 viewBox="0.00 0.00 419.00 123.00" xmlns="http://www.w3.org/2000/svg" xmlns:xlink="http://www.w3.org/1999/xlink">
<g id="graph0" class="graph" transform="scale(1 1) rotate(0) translate(4 119)">
<title>Graphical Class Hierarchy</title>
<!-- Node0 -->
<g id="node1" class="node"><title>Node0</title>
<g id="a_node1"><a xlink:href="classumontreal_1_1ssj_1_1randvarmulti_1_1RandomMultivariateGen.html" target="_top" xlink:title="This class is the multivariate counterpart of umontreal.ssj.randvar.RandomVariateGen. ">
<polygon fill="none" stroke="black" points="0,-57.5 0,-76.5 119,-76.5 119,-57.5 0,-57.5"/>
<text text-anchor="middle" x="59.5" y="-64.5" font-family="Helvetica,sans-Serif" font-size="10.00">RandomMultivariateGen</text>
</a>
</g>
</g>
<!-- Node1 -->
<g id="node2" class="node"><title>Node1</title>
<g id="a_node2"><a xlink:href="classumontreal_1_1ssj_1_1randvarmulti_1_1DirichletGen.html" target="_top" xlink:title="Extends RandomMultivariateGen for a Dirichlet   distribution. ">
<polygon fill="none" stroke="black" points="167.5,-95.5 167.5,-114.5 237.5,-114.5 237.5,-95.5 167.5,-95.5"/>
<text text-anchor="middle" x="202.5" y="-102.5" font-family="Helvetica,sans-Serif" font-size="10.00">DirichletGen</text>
</a>
</g>
</g>
<!-- Node0&#45;&gt;Node1 -->
<g id="edge1" class="edge"><title>Node0&#45;&gt;Node1</title>
<path fill="none" stroke="midnightblue" d="M105.899,-79.2352C125.866,-84.6164 148.923,-90.8303 167.39,-95.8073"/>
<polygon fill="midnightblue" stroke="midnightblue" points="106.647,-75.8118 96.0803,-76.589 104.825,-82.5707 106.647,-75.8118"/>
</g>
<!-- Node2 -->
<g id="node3" class="node"><title>Node2</title>
<g id="a_node3"><a xlink:href="classumontreal_1_1ssj_1_1randvarmulti_1_1IIDMultivariateGen.html" target="_top" xlink:title="Extends RandomMultivariateGen for a vector of independent identically distributed (i...">
<polygon fill="none" stroke="black" points="155,-57.5 155,-76.5 250,-76.5 250,-57.5 155,-57.5"/>
<text text-anchor="middle" x="202.5" y="-64.5" font-family="Helvetica,sans-Serif" font-size="10.00">IIDMultivariateGen</text>
</a>
</g>
</g>
<!-- Node0&#45;&gt;Node2 -->
<g id="edge2" class="edge"><title>Node0&#45;&gt;Node2</title>
<path fill="none" stroke="midnightblue" d="M129.239,-67C137.94,-67 146.678,-67 154.921,-67"/>
<polygon fill="midnightblue" stroke="midnightblue" points="129.072,-63.5001 119.072,-67 129.072,-70.5001 129.072,-63.5001"/>
</g>
<!-- Node3 -->
<g id="node4" class="node"><title>Node3</title>
<g id="a_node4"><a xlink:href="classumontreal_1_1ssj_1_1randvarmulti_1_1MultinormalGen.html" target="_top" xlink:title="Extends RandomMultivariateGen for a multivariate normal (or multinormal) distribution  ...">
<polygon fill="none" stroke="black" points="160,-19.5 160,-38.5 245,-38.5 245,-19.5 160,-19.5"/>
<text text-anchor="middle" x="202.5" y="-26.5" font-family="Helvetica,sans-Serif" font-size="10.00">MultinormalGen</text>
</a>
</g>
</g>
<!-- Node0&#45;&gt;Node3 -->
<g id="edge3" class="edge"><title>Node0&#45;&gt;Node3</title>
<path fill="none" stroke="midnightblue" d="M105.94,-54.7538C125.375,-49.516 147.731,-43.4909 165.931,-38.5859"/>
<polygon fill="midnightblue" stroke="midnightblue" points="104.825,-51.4293 96.0803,-57.411 106.647,-58.1882 104.825,-51.4293"/>
</g>
<!-- Node4 -->
<g id="node5" class="node"><title>Node4</title>
<g id="a_node5"><a xlink:href="classumontreal_1_1ssj_1_1randvarmulti_1_1MultinormalCholeskyGen.html" target="_top" xlink:title="Extends MultinormalGen for a multivariate normal distribution  , generated via a Cholesky decomposit...">
<polygon fill="none" stroke="black" points="286,-38.5 286,-57.5 411,-57.5 411,-38.5 286,-38.5"/>
<text text-anchor="middle" x="348.5" y="-45.5" font-family="Helvetica,sans-Serif" font-size="10.00">MultinormalCholeskyGen</text>
</a>
</g>
</g>
<!-- Node3&#45;&gt;Node4 -->
<g id="edge4" class="edge"><title>Node3&#45;&gt;Node4</title>
<path fill="none" stroke="midnightblue" d="M255.253,-35.8285C265.175,-37.1376 275.655,-38.5204 285.852,-39.8659"/>
<polygon fill="midnightblue" stroke="midnightblue" points="255.523,-32.3339 245.151,-34.4956 254.607,-39.2737 255.523,-32.3339"/>
</g>
<!-- Node5 -->
<g id="node6" class="node"><title>Node5</title>
<g id="a_node6"><a xlink:href="classumontreal_1_1ssj_1_1randvarmulti_1_1MultinormalPCAGen.html" target="_top" xlink:title="Extends MultinormalGen for a multivariate normal distribution  , generated via the method of princip...">
<polygon fill="none" stroke="black" points="296,-0.5 296,-19.5 401,-19.5 401,-0.5 296,-0.5"/>
<text text-anchor="middle" x="348.5" y="-7.5" font-family="Helvetica,sans-Serif" font-size="10.00">MultinormalPCAGen</text>
</a>
</g>
</g>
<!-- Node3&#45;&gt;Node5 -->
<g id="edge5" class="edge"><title>Node3&#45;&gt;Node5</title>
<path fill="none" stroke="midnightblue" d="M255.083,-22.1939C268.373,-20.4404 282.675,-18.5534 295.962,-16.8001"/>
<polygon fill="midnightblue" stroke="midnightblue" points="254.607,-18.7263 245.151,-23.5044 255.523,-25.6661 254.607,-18.7263"/>
</g>
</g>
</svg>
