<?xml version="1.0" encoding="UTF-8" standalone="no"?>
<!DOCTYPE svg PUBLIC "-//W3C//DTD SVG 1.1//EN"
 "http://www.w3.org/Graphics/SVG/1.1/DTD/svg11.dtd">
<!-- Generated by graphviz version 2.38.0 (20140413.2041)
 -->
<!-- Title: Graphical Class Hierarchy Pages: 1 -->
<svg width="463pt" height="123pt"
 viewBox="0.00 0.00 463.00 123.00" xmlns="http://www.w3.org/2000/svg" xmlns:xlink="http://www.w3.org/1999/xlink">
<g id="graph0" class="graph" transform="scale(1 1) rotate(0) translate(4 119)">
<title>Graphical Class Hierarchy</title>
<!-- Node1 -->
<g id="node1" class="node"><title>Node1</title>
<g id="a_node1"><a xlink:href="classumontreal_1_1ssj_1_1randvarmulti_1_1RandomMultivariateGen.html" target="_top" xlink:title="This class is the multivariate counterpart of umontreal.ssj.randvar.RandomVariateGen. ">
<polygon fill="none" stroke="black" points="0,-57.5 0,-76.5 135,-76.5 135,-57.5 0,-57.5"/>
<text text-anchor="middle" x="67.5" y="-64.5" font-family="Helvetica,sans-Serif" font-size="10.00">RandomMultivariateGen</text>
</a>
</g>
</g>
<!-- Node2 -->
<g id="node2" class="node"><title>Node2</title>
<g id="a_node2"><a xlink:href="classumontreal_1_1ssj_1_1randvarmulti_1_1DirichletGen.html" target="_top" xlink:title="Extends RandomMultivariateGen for a Dirichlet   distribution. ">
<polygon fill="none" stroke="black" points="186.5,-95.5 186.5,-114.5 263.5,-114.5 263.5,-95.5 186.5,-95.5"/>
<text text-anchor="middle" x="225" y="-102.5" font-family="Helvetica,sans-Serif" font-size="10.00">DirichletGen</text>
</a>
</g>
</g>
<!-- Node1&#45;&gt;Node2 -->
<g id="edge1" class="edge"><title>Node1&#45;&gt;Node2</title>
<path fill="none" stroke="midnightblue" d="M117.665,-79.0145C139.891,-84.4459 165.737,-90.7622 186.383,-95.8073"/>
<polygon fill="midnightblue" stroke="midnightblue" points="118.284,-75.563 107.739,-76.589 116.622,-82.3629 118.284,-75.563"/>
</g>
<!-- Node3 -->
<g id="node3" class="node"><title>Node3</title>
<g id="a_node3"><a xlink:href="classumontreal_1_1ssj_1_1randvarmulti_1_1IIDMultivariateGen.html" target="_top" xlink:title="Extends RandomMultivariateGen for a vector of independent identically distributed (i...">
<polygon fill="none" stroke="black" points="171,-57.5 171,-76.5 279,-76.5 279,-57.5 171,-57.5"/>
<text text-anchor="middle" x="225" y="-64.5" font-family="Helvetica,sans-Serif" font-size="10.00">IIDMultivariateGen</text>
</a>
</g>
</g>
<!-- Node1&#45;&gt;Node3 -->
<g id="edge2" class="edge"><title>Node1&#45;&gt;Node3</title>
<path fill="none" stroke="midnightblue" d="M145.407,-67C154.001,-67 162.61,-67 170.812,-67"/>
<polygon fill="midnightblue" stroke="midnightblue" points="145.348,-63.5001 135.348,-67 145.348,-70.5001 145.348,-63.5001"/>
</g>
<!-- Node4 -->
<g id="node4" class="node"><title>Node4</title>
<g id="a_node4"><a xlink:href="classumontreal_1_1ssj_1_1randvarmulti_1_1MultinormalGen.html" target="_top" xlink:title="Extends RandomMultivariateGen for a multivariate normal (or multinormal) distribution  ...">
<polygon fill="none" stroke="black" points="177.5,-19.5 177.5,-38.5 272.5,-38.5 272.5,-19.5 177.5,-19.5"/>
<text text-anchor="middle" x="225" y="-26.5" font-family="Helvetica,sans-Serif" font-size="10.00">MultinormalGen</text>
</a>
</g>
</g>
<!-- Node1&#45;&gt;Node4 -->
<g id="edge3" class="edge"><title>Node1&#45;&gt;Node4</title>
<path fill="none" stroke="midnightblue" d="M117.474,-55.032C139.265,-49.7069 164.567,-43.5238 185.043,-38.5201"/>
<polygon fill="midnightblue" stroke="midnightblue" points="116.622,-51.6371 107.739,-57.411 118.284,-58.437 116.622,-51.6371"/>
</g>
<!-- Node5 -->
<g id="node5" class="node"><title>Node5</title>
<g id="a_node5"><a xlink:href="classumontreal_1_1ssj_1_1randvarmulti_1_1MultinormalCholeskyGen.html" target="_top" xlink:title="Extends MultinormalGen for a multivariate normal distribution  , generated via a Cholesky decomposit...">
<polygon fill="none" stroke="black" points="315,-38.5 315,-57.5 455,-57.5 455,-38.5 315,-38.5"/>
<text text-anchor="middle" x="385" y="-45.5" font-family="Helvetica,sans-Serif" font-size="10.00">MultinormalCholeskyGen</text>
</a>
</g>
</g>
<!-- Node4&#45;&gt;Node5 -->
<g id="edge4" class="edge"><title>Node4&#45;&gt;Node5</title>
<path fill="none" stroke="midnightblue" d="M282.766,-35.8263C293.199,-37.0809 304.196,-38.4033 314.943,-39.6957"/>
<polygon fill="midnightblue" stroke="midnightblue" points="282.897,-32.3169 272.551,-34.5979 282.061,-39.2668 282.897,-32.3169"/>
</g>
<!-- Node6 -->
<g id="node6" class="node"><title>Node6</title>
<g id="a_node6"><a xlink:href="classumontreal_1_1ssj_1_1randvarmulti_1_1MultinormalPCAGen.html" target="_top" xlink:title="Extends MultinormalGen for a multivariate normal distribution  , generated via the method of princip...">
<polygon fill="none" stroke="black" points="328,-0.5 328,-19.5 442,-19.5 442,-0.5 328,-0.5"/>
<text text-anchor="middle" x="385" y="-7.5" font-family="Helvetica,sans-Serif" font-size="10.00">MultinormalPCAGen</text>
</a>
</g>
</g>
<!-- Node4&#45;&gt;Node6 -->
<g id="edge5" class="edge"><title>Node4&#45;&gt;Node6</title>
<path fill="none" stroke="midnightblue" d="M282.516,-22.2038C297.212,-20.4365 313.041,-18.533 327.725,-16.7672"/>
<polygon fill="midnightblue" stroke="midnightblue" points="282.061,-18.7332 272.551,-23.4021 282.897,-25.6831 282.061,-18.7332"/>
</g>
</g>
</svg>
