<?xml version="1.0" encoding="UTF-8" standalone="no"?>
<!DOCTYPE svg PUBLIC "-//W3C//DTD SVG 1.1//EN"
 "http://www.w3.org/Graphics/SVG/1.1/DTD/svg11.dtd">
<!-- Generated by graphviz version 2.38.0 (20140413.2041)
 -->
<!-- Title: Graphical Class Hierarchy Pages: 1 -->
<svg width="631pt" height="142pt"
 viewBox="0.00 0.00 631.00 142.00" xmlns="http://www.w3.org/2000/svg" xmlns:xlink="http://www.w3.org/1999/xlink">
<g id="graph0" class="graph" transform="scale(1 1) rotate(0) translate(4 138)">
<title>Graphical Class Hierarchy</title>
<!-- Node1 -->
<g id="node1" class="node"><title>Node1</title>
<g id="a_node1"><a xlink:href="classumontreal_1_1ssj_1_1probdistmulti_1_1ContinuousDistributionMulti.html" target="_top" xlink:title="Classes implementing continuous multi&#45;dimensional distributions should inherit from this class...">
<polygon fill="none" stroke="black" points="0,-38.5 0,-57.5 152,-57.5 152,-38.5 0,-38.5"/>
<text text-anchor="middle" x="76" y="-45.5" font-family="Helvetica,sans-Serif" font-size="10.00">ContinuousDistributionMulti</text>
</a>
</g>
</g>
<!-- Node2 -->
<g id="node2" class="node"><title>Node2</title>
<g id="a_node2"><a xlink:href="classumontreal_1_1ssj_1_1probdistmulti_1_1ContinuousDistribution2Dim.html" target="_top" xlink:title="Classes implementing 2&#45;dimensional continuous distributions should inherit from this class...">
<polygon fill="none" stroke="black" points="188,-76.5 188,-95.5 343,-95.5 343,-76.5 188,-76.5"/>
<text text-anchor="middle" x="265.5" y="-83.5" font-family="Helvetica,sans-Serif" font-size="10.00">ContinuousDistribution2Dim</text>
</a>
</g>
</g>
<!-- Node1&#45;&gt;Node2 -->
<g id="edge1" class="edge"><title>Node1&#45;&gt;Node2</title>
<path fill="none" stroke="midnightblue" d="M134.284,-59.6095C160.951,-65.014 192.281,-71.3635 217.526,-76.4799"/>
<polygon fill="midnightblue" stroke="midnightblue" points="134.81,-56.1451 124.314,-57.589 133.42,-63.0056 134.81,-56.1451"/>
</g>
<!-- Node7 -->
<g id="node7" class="node"><title>Node7</title>
<g id="a_node7"><a xlink:href="classumontreal_1_1ssj_1_1probdistmulti_1_1DirichletDist.html" target="_top" xlink:title="Implements the abstract class ContinuousDistributionMulti for the Dirichlet distribution with paramet...">
<polygon fill="none" stroke="black" points="227,-38.5 227,-57.5 304,-57.5 304,-38.5 227,-38.5"/>
<text text-anchor="middle" x="265.5" y="-45.5" font-family="Helvetica,sans-Serif" font-size="10.00">DirichletDist</text>
</a>
</g>
</g>
<!-- Node1&#45;&gt;Node7 -->
<g id="edge6" class="edge"><title>Node1&#45;&gt;Node7</title>
<path fill="none" stroke="midnightblue" d="M162.191,-48C184.873,-48 208.228,-48 226.888,-48"/>
<polygon fill="midnightblue" stroke="midnightblue" points="162.183,-44.5001 152.183,-48 162.183,-51.5001 162.183,-44.5001"/>
</g>
<!-- Node8 -->
<g id="node8" class="node"><title>Node8</title>
<g id="a_node8"><a xlink:href="classumontreal_1_1ssj_1_1probdistmulti_1_1MultiNormalDist.html" target="_top" xlink:title="Implements the abstract class ContinuousDistributionMulti for the multinormal distribution with mean ...">
<polygon fill="none" stroke="black" points="217.5,-0.5 217.5,-19.5 313.5,-19.5 313.5,-0.5 217.5,-0.5"/>
<text text-anchor="middle" x="265.5" y="-7.5" font-family="Helvetica,sans-Serif" font-size="10.00">MultiNormalDist</text>
</a>
</g>
</g>
<!-- Node1&#45;&gt;Node8 -->
<g id="edge7" class="edge"><title>Node1&#45;&gt;Node8</title>
<path fill="none" stroke="midnightblue" d="M134.284,-36.3905C160.951,-30.986 192.281,-24.6365 217.526,-19.5201"/>
<polygon fill="midnightblue" stroke="midnightblue" points="133.42,-32.9944 124.314,-38.411 134.81,-39.8549 133.42,-32.9944"/>
</g>
<!-- Node3 -->
<g id="node3" class="node"><title>Node3</title>
<g id="a_node3"><a xlink:href="classumontreal_1_1ssj_1_1probdistmulti_1_1BiNormalDist.html" target="_top" xlink:title="Extends the class ContinuousDistribution2Dim for the bivariate normal distribution   (page 84)...">
<polygon fill="none" stroke="black" points="379.5,-95.5 379.5,-114.5 461.5,-114.5 461.5,-95.5 379.5,-95.5"/>
<text text-anchor="middle" x="420.5" y="-102.5" font-family="Helvetica,sans-Serif" font-size="10.00">BiNormalDist</text>
</a>
</g>
</g>
<!-- Node2&#45;&gt;Node3 -->
<g id="edge2" class="edge"><title>Node2&#45;&gt;Node3</title>
<path fill="none" stroke="midnightblue" d="M353.552,-96.8103C362.45,-97.9154 371.155,-98.9964 379.171,-99.9919"/>
<polygon fill="midnightblue" stroke="midnightblue" points="353.803,-93.3148 343.448,-95.5557 352.941,-100.261 353.803,-93.3148"/>
</g>
<!-- Node6 -->
<g id="node6" class="node"><title>Node6</title>
<g id="a_node6"><a xlink:href="classumontreal_1_1ssj_1_1probdistmulti_1_1BiStudentDist.html" target="_top" xlink:title="Extends the class ContinuousDistribution2Dim for the standard bivariate Student’s &#160;distribution   (...">
<polygon fill="none" stroke="black" points="379,-57.5 379,-76.5 462,-76.5 462,-57.5 379,-57.5"/>
<text text-anchor="middle" x="420.5" y="-64.5" font-family="Helvetica,sans-Serif" font-size="10.00">BiStudentDist</text>
</a>
</g>
</g>
<!-- Node2&#45;&gt;Node6 -->
<g id="edge5" class="edge"><title>Node2&#45;&gt;Node6</title>
<path fill="none" stroke="midnightblue" d="M353.43,-75.2047C362.224,-74.1127 370.83,-73.044 378.772,-72.0577"/>
<polygon fill="midnightblue" stroke="midnightblue" points="352.941,-71.7386 343.448,-76.4443 353.803,-78.6852 352.941,-71.7386"/>
</g>
<!-- Node4 -->
<g id="node4" class="node"><title>Node4</title>
<g id="a_node4"><a xlink:href="classumontreal_1_1ssj_1_1probdistmulti_1_1BiNormalDonnellyDist.html" target="_top" xlink:title="Extends the class BiNormalDist for the bivariate normal distribution   (page 84) using a translation...">
<polygon fill="none" stroke="black" points="498,-114.5 498,-133.5 623,-133.5 623,-114.5 498,-114.5"/>
<text text-anchor="middle" x="560.5" y="-121.5" font-family="Helvetica,sans-Serif" font-size="10.00">BiNormalDonnellyDist</text>
</a>
</g>
</g>
<!-- Node3&#45;&gt;Node4 -->
<g id="edge3" class="edge"><title>Node3&#45;&gt;Node4</title>
<path fill="none" stroke="midnightblue" d="M471.858,-111.933C480.311,-113.097 489.166,-114.316 497.864,-115.514"/>
<polygon fill="midnightblue" stroke="midnightblue" points="472.17,-108.443 461.786,-110.547 471.215,-115.378 472.17,-108.443"/>
</g>
<!-- Node5 -->
<g id="node5" class="node"><title>Node5</title>
<g id="a_node5"><a xlink:href="classumontreal_1_1ssj_1_1probdistmulti_1_1BiNormalGenzDist.html" target="_top" xlink:title="Extends the class BiNormalDist for the bivariate normal distribution   (page 84) using Genz’s algor...">
<polygon fill="none" stroke="black" points="507,-76.5 507,-95.5 614,-95.5 614,-76.5 507,-76.5"/>
<text text-anchor="middle" x="560.5" y="-83.5" font-family="Helvetica,sans-Serif" font-size="10.00">BiNormalGenzDist</text>
</a>
</g>
</g>
<!-- Node3&#45;&gt;Node5 -->
<g id="edge4" class="edge"><title>Node3&#45;&gt;Node5</title>
<path fill="none" stroke="midnightblue" d="M471.968,-98.0515C483.319,-96.4887 495.392,-94.8264 506.831,-93.2516"/>
<polygon fill="midnightblue" stroke="midnightblue" points="471.215,-94.622 461.786,-99.4533 472.17,-101.557 471.215,-94.622"/>
</g>
</g>
</svg>
