<?xml version="1.0" encoding="UTF-8" standalone="no"?>
<!DOCTYPE svg PUBLIC "-//W3C//DTD SVG 1.1//EN"
 "http://www.w3.org/Graphics/SVG/1.1/DTD/svg11.dtd">
<!-- Generated by graphviz version 2.38.0 (20140413.2041)
 -->
<!-- Title: Graphical Class Hierarchy Pages: 1 -->
<svg width="432pt" height="104pt"
 viewBox="0.00 0.00 432.00 104.00" xmlns="http://www.w3.org/2000/svg" xmlns:xlink="http://www.w3.org/1999/xlink">
<g id="graph0" class="graph" transform="scale(1 1) rotate(0) translate(4 100)">
<title>Graphical Class Hierarchy</title>
<!-- Node1 -->
<g id="node1" class="node"><title>Node1</title>
<g id="a_node1"><a xlink:href="interfaceumontreal_1_1ssj_1_1hups_1_1PointSetRandomization.html" target="_top" xlink:title="This interface is used to randomize a umontreal.ssj.hups.PointSet. ">
<polygon fill="none" stroke="black" points="0,-38.5 0,-57.5 131,-57.5 131,-38.5 0,-38.5"/>
<text text-anchor="middle" x="65.5" y="-45.5" font-family="Helvetica,sans-Serif" font-size="10.00">PointSetRandomization</text>
</a>
</g>
</g>
<!-- Node2 -->
<g id="node2" class="node"><title>Node2</title>
<g id="a_node2"><a xlink:href="classumontreal_1_1ssj_1_1hups_1_1EmptyRandomization.html" target="_top" xlink:title="This class implements an empty umontreal.ssj.hups.PointSetRandomization. ">
<polygon fill="none" stroke="black" points="167,-76.5 167,-95.5 289,-95.5 289,-76.5 167,-76.5"/>
<text text-anchor="middle" x="228" y="-83.5" font-family="Helvetica,sans-Serif" font-size="10.00">EmptyRandomization</text>
</a>
</g>
</g>
<!-- Node1&#45;&gt;Node2 -->
<g id="edge1" class="edge"><title>Node1&#45;&gt;Node2</title>
<path fill="none" stroke="midnightblue" d="M116.745,-59.8961C139.305,-65.2374 165.561,-71.4537 186.79,-76.4799"/>
<polygon fill="midnightblue" stroke="midnightblue" points="117.538,-56.4871 107.001,-57.589 115.926,-63.2988 117.538,-56.4871"/>
</g>
<!-- Node3 -->
<g id="node3" class="node"><title>Node3</title>
<g id="a_node3"><a xlink:href="classumontreal_1_1ssj_1_1hups_1_1RandomShift.html" target="_top" xlink:title="This class implements a umontreal.ssj.hups.PointSetRandomization. ">
<polygon fill="none" stroke="black" points="188,-38.5 188,-57.5 268,-57.5 268,-38.5 188,-38.5"/>
<text text-anchor="middle" x="228" y="-45.5" font-family="Helvetica,sans-Serif" font-size="10.00">RandomShift</text>
</a>
</g>
</g>
<!-- Node1&#45;&gt;Node3 -->
<g id="edge2" class="edge"><title>Node1&#45;&gt;Node3</title>
<path fill="none" stroke="midnightblue" d="M141.728,-48C157.666,-48 173.87,-48 187.811,-48"/>
<polygon fill="midnightblue" stroke="midnightblue" points="141.319,-44.5001 131.319,-48 141.319,-51.5001 141.319,-44.5001"/>
</g>
<!-- Node6 -->
<g id="node6" class="node"><title>Node6</title>
<g id="a_node6"><a xlink:href="classumontreal_1_1ssj_1_1hups_1_1RandomStart.html" target="_top" xlink:title="This class implements a umontreal.ssj.hups.PointSetRandomization that randomizes a sequence with a ra...">
<polygon fill="none" stroke="black" points="188,-0.5 188,-19.5 268,-19.5 268,-0.5 188,-0.5"/>
<text text-anchor="middle" x="228" y="-7.5" font-family="Helvetica,sans-Serif" font-size="10.00">RandomStart</text>
</a>
</g>
</g>
<!-- Node1&#45;&gt;Node6 -->
<g id="edge5" class="edge"><title>Node1&#45;&gt;Node6</title>
<path fill="none" stroke="midnightblue" d="M116.898,-36.0678C139.818,-30.6413 166.526,-24.3178 187.898,-19.2579"/>
<polygon fill="midnightblue" stroke="midnightblue" points="115.926,-32.7012 107.001,-38.411 117.538,-39.5129 115.926,-32.7012"/>
</g>
<!-- Node4 -->
<g id="node4" class="node"><title>Node4</title>
<g id="a_node4"><a xlink:href="classumontreal_1_1ssj_1_1hups_1_1LMScrambleShift.html" target="_top" xlink:title="This class implements a umontreal.ssj.hups.PointSetRandomization that performs a left matrix scrambli...">
<polygon fill="none" stroke="black" points="325.5,-57.5 325.5,-76.5 423.5,-76.5 423.5,-57.5 325.5,-57.5"/>
<text text-anchor="middle" x="374.5" y="-64.5" font-family="Helvetica,sans-Serif" font-size="10.00">LMScrambleShift</text>
</a>
</g>
</g>
<!-- Node3&#45;&gt;Node4 -->
<g id="edge3" class="edge"><title>Node3&#45;&gt;Node4</title>
<path fill="none" stroke="midnightblue" d="M278.341,-54.4877C293.53,-56.4849 310.226,-58.6803 325.336,-60.667"/>
<polygon fill="midnightblue" stroke="midnightblue" points="278.475,-50.9753 268.104,-53.1417 277.562,-57.9155 278.475,-50.9753"/>
</g>
<!-- Node5 -->
<g id="node5" class="node"><title>Node5</title>
<g id="a_node5"><a xlink:href="classumontreal_1_1ssj_1_1hups_1_1SMScrambleShift.html" target="_top" xlink:title="This class implements a umontreal.ssj.hups.PointSetRandomization that performs a striped matrix scram...">
<polygon fill="none" stroke="black" points="325,-19.5 325,-38.5 424,-38.5 424,-19.5 325,-19.5"/>
<text text-anchor="middle" x="374.5" y="-26.5" font-family="Helvetica,sans-Serif" font-size="10.00">SMScrambleShift</text>
</a>
</g>
</g>
<!-- Node3&#45;&gt;Node5 -->
<g id="edge4" class="edge"><title>Node3&#45;&gt;Node5</title>
<path fill="none" stroke="midnightblue" d="M278.241,-41.5254C293.28,-39.548 309.804,-37.3753 324.806,-35.4026"/>
<polygon fill="midnightblue" stroke="midnightblue" points="277.562,-38.0845 268.104,-42.8583 278.475,-45.0247 277.562,-38.0845"/>
</g>
</g>
</svg>
