<?xml version="1.0" encoding="UTF-8" standalone="no"?>
<!DOCTYPE svg PUBLIC "-//W3C//DTD SVG 1.1//EN"
 "http://www.w3.org/Graphics/SVG/1.1/DTD/svg11.dtd">
<!-- Generated by graphviz version 2.26.3 (20100126.1600)
 -->
<!-- Title: Graphical Class Hierarchy Pages: 1 -->
<svg width="196pt" height="66pt"
 viewBox="0.00 0.00 196.00 66.00" xmlns="http://www.w3.org/2000/svg" xmlns:xlink="http://www.w3.org/1999/xlink">
<g id="graph1" class="graph" transform="scale(1 1) rotate(0) translate(4 62)">
<title>Graphical Class Hierarchy</title>
<!-- Node1 -->
<g id="node1" class="node"><title>Node1</title>
<a xlink:href="classumontreal_1_1ssj_1_1simevents_1_1Continuous.html" target="_top" xlink:title="Represents a variable in a continuous&#45;time simulation. ">
<polygon fill="none" stroke="black" points="0.5,-19 0.5,-39 65.5,-39 65.5,-19 0.5,-19"/>
<text text-anchor="middle" x="33" y="-26" font-family="Helvetica,sans-Serif" font-size="10.00">Continuous</text>
</a>
</g>
<!-- Node2 -->
<g id="node3" class="node"><title>Node2</title>
<a xlink:href="classPreyPred_1_1Preds.html" target="_top" xlink:title="PreyPred.Preds">
<polygon fill="none" stroke="black" points="102,-38 102,-58 188,-58 188,-38 102,-38"/>
<text text-anchor="middle" x="145" y="-45" font-family="Helvetica,sans-Serif" font-size="10.00">PreyPred.Preds</text>
</a>
</g>
<!-- Node1&#45;&gt;Node2 -->
<g id="edge2" class="edge"><title>Node1&#45;&gt;Node2</title>
<path fill="none" stroke="midnightblue" d="M75.7641,-36.2546C84.2387,-37.6923 93.1422,-39.2027 101.637,-40.6437"/>
<polygon fill="midnightblue" stroke="midnightblue" points="76.1407,-32.7686 65.6961,-34.5467 74.9698,-39.67 76.1407,-32.7686"/>
</g>
<!-- Node3 -->
<g id="node5" class="node"><title>Node3</title>
<a xlink:href="classPreyPred_1_1Preys.html" target="_top" xlink:title="PreyPred.Preys">
<polygon fill="none" stroke="black" points="102,-0 102,-20 188,-20 188,-0 102,-0"/>
<text text-anchor="middle" x="145" y="-7" font-family="Helvetica,sans-Serif" font-size="10.00">PreyPred.Preys</text>
</a>
</g>
<!-- Node1&#45;&gt;Node3 -->
<g id="edge4" class="edge"><title>Node1&#45;&gt;Node3</title>
<path fill="none" stroke="midnightblue" d="M75.7641,-21.7454C84.2387,-20.3077 93.1422,-18.7973 101.637,-17.3563"/>
<polygon fill="midnightblue" stroke="midnightblue" points="74.9698,-18.33 65.6961,-23.4533 76.1407,-25.2314 74.9698,-18.33"/>
</g>
</g>
</svg>
