<?xml version="1.0" encoding="UTF-8" standalone="no"?>
<!DOCTYPE svg PUBLIC "-//W3C//DTD SVG 1.1//EN"
 "http://www.w3.org/Graphics/SVG/1.1/DTD/svg11.dtd">
<!-- Generated by graphviz version 2.38.0 (20140413.2041)
 -->
<!-- Title: Graphical Class Hierarchy Pages: 1 -->
<svg width="276pt" height="176pt"
 viewBox="0.00 0.00 276.00 176.00" xmlns="http://www.w3.org/2000/svg" xmlns:xlink="http://www.w3.org/1999/xlink">
<g id="graph0" class="graph" transform="scale(1 1) rotate(0) translate(4 172)">
<title>Graphical Class Hierarchy</title>
<!-- Node585 -->
<g id="node1" class="node"><title>Node585</title>
<polygon fill="none" stroke="#bfbfbf" points="0,-88.5 0,-107.5 67,-107.5 67,-88.5 0,-88.5"/>
<text text-anchor="middle" x="33.5" y="-95.5" font-family="Helvetica,sans-Serif" font-size="10.00">Comparator</text>
</g>
<!-- Node0 -->
<g id="node2" class="node"><title>Node0</title>
<g id="a_node2"><a xlink:href="classumontreal_1_1ssj_1_1hups_1_1DigitalNetFromFile_1_1NetComparator.html" target="_top" xlink:title="DigitalNetFromFile.NetComparator">
<polygon fill="none" stroke="black" points="103,-148.5 103,-167.5 268,-167.5 268,-148.5 103,-148.5"/>
<text text-anchor="middle" x="185.5" y="-155.5" font-family="Helvetica,sans-Serif" font-size="10.00">DigitalNetFromFile.NetComparator</text>
</a>
</g>
</g>
<!-- Node585&#45;&gt;Node0 -->
<g id="edge1" class="edge"><title>Node585&#45;&gt;Node0</title>
<path fill="none" stroke="midnightblue" d="M56.0534,-113.274C69.1099,-121.91 86.4001,-132.289 103,-139 112.294,-142.757 122.499,-145.87 132.448,-148.411"/>
<polygon fill="midnightblue" stroke="midnightblue" points="57.9912,-110.36 47.7512,-107.641 54.0607,-116.152 57.9912,-110.36"/>
</g>
<!-- Node587 -->
<g id="node3" class="node"><title>Node587</title>
<g id="a_node3"><a xlink:href="classumontreal_1_1ssj_1_1util_1_1sort_1_1DoubleArrayComparator.html" target="_top" xlink:title="This provides an implementation of Comparator in which arrays of double in &#160;dimensions are compared b...">
<polygon fill="none" stroke="black" points="125.5,-110.5 125.5,-129.5 245.5,-129.5 245.5,-110.5 125.5,-110.5"/>
<text text-anchor="middle" x="185.5" y="-117.5" font-family="Helvetica,sans-Serif" font-size="10.00">DoubleArrayComparator</text>
</a>
</g>
</g>
<!-- Node585&#45;&gt;Node587 -->
<g id="edge2" class="edge"><title>Node585&#45;&gt;Node587</title>
<path fill="none" stroke="midnightblue" d="M77.0661,-104.243C92.0898,-106.447 109.264,-108.965 125.408,-111.333"/>
<polygon fill="midnightblue" stroke="midnightblue" points="77.4498,-100.762 67.0478,-102.774 76.434,-107.688 77.4498,-100.762"/>
</g>
<!-- Node588 -->
<g id="node4" class="node"><title>Node588</title>
<g id="a_node4"><a xlink:href="classumontreal_1_1ssj_1_1util_1_1sort_1_1HilbertCurveSort_1_1LongIndexComparator2.html" target="_top" xlink:title="The comparator class used by sortIndexOfLong2. ">
<polygon fill="none" stroke="black" points="118.5,-61 118.5,-91 252.5,-91 252.5,-61 118.5,-61"/>
<text text-anchor="start" x="126.5" y="-79" font-family="Helvetica,sans-Serif" font-size="10.00">HilbertCurveSort.LongIndex</text>
<text text-anchor="middle" x="185.5" y="-68" font-family="Helvetica,sans-Serif" font-size="10.00">Comparator2</text>
</a>
</g>
</g>
<!-- Node585&#45;&gt;Node588 -->
<g id="edge3" class="edge"><title>Node585&#45;&gt;Node588</title>
<path fill="none" stroke="midnightblue" d="M77.007,-91.7656C89.8977,-89.875 104.376,-87.7515 118.43,-85.6903"/>
<polygon fill="midnightblue" stroke="midnightblue" points="76.434,-88.3121 67.0478,-93.2263 77.4498,-95.2381 76.434,-88.3121"/>
</g>
<!-- Node589 -->
<g id="node5" class="node"><title>Node589</title>
<g id="a_node5"><a xlink:href="classumontreal_1_1ssj_1_1util_1_1sort_1_1MultiDimComparator.html" target="_top" xlink:title="This class is useful if one wishes to perform an ordinary one&#45;dimensional sort on MultiDimComparable&lt;...">
<polygon fill="none" stroke="black" points="105,-0.5 105,-41.5 266,-41.5 266,-0.5 105,-0.5"/>
<text text-anchor="start" x="113" y="-29.5" font-family="Helvetica,sans-Serif" font-size="10.00">MultiDimComparator</text>
<text text-anchor="start" x="113" y="-18.5" font-family="Helvetica,sans-Serif" font-size="10.00">&lt; T extends MultiDimComparable</text>
<text text-anchor="middle" x="185.5" y="-7.5" font-family="Helvetica,sans-Serif" font-size="10.00">&lt;? super T &gt;</text>
</a>
</g>
</g>
<!-- Node585&#45;&gt;Node589 -->
<g id="edge4" class="edge"><title>Node585&#45;&gt;Node589</title>
<path fill="none" stroke="midnightblue" d="M55.4365,-82.1118C68.6186,-72.579 86.253,-60.6637 103,-52 110.126,-48.3134 117.795,-44.8246 125.476,-41.6096"/>
<polygon fill="midnightblue" stroke="midnightblue" points="53.0633,-79.5128 47.0874,-88.2615 57.2148,-85.1489 53.0633,-79.5128"/>
</g>
</g>
</svg>
