<?xml version="1.0" encoding="UTF-8" standalone="no"?>
<!DOCTYPE svg PUBLIC "-//W3C//DTD SVG 1.1//EN"
 "http://www.w3.org/Graphics/SVG/1.1/DTD/svg11.dtd">
<!-- Generated by graphviz version 2.38.0 (20140413.2041)
 -->
<!-- Title: Graphical Class Hierarchy Pages: 1 -->
<svg width="468pt" height="104pt"
 viewBox="0.00 0.00 468.00 104.00" xmlns="http://www.w3.org/2000/svg" xmlns:xlink="http://www.w3.org/1999/xlink">
<g id="graph0" class="graph" transform="scale(1 1) rotate(0) translate(4 100)">
<title>Graphical Class Hierarchy</title>
<!-- Node1 -->
<g id="node1" class="node"><title>Node1</title>
<g id="a_node1"><a xlink:href="classumontreal_1_1ssj_1_1charts_1_1SSJXYSeriesCollection.html" target="_top" xlink:title="Stores data used in a XYChart. ">
<polygon fill="none" stroke="black" points="0,-38.5 0,-57.5 123,-57.5 123,-38.5 0,-38.5"/>
<text text-anchor="middle" x="61.5" y="-45.5" font-family="Helvetica,sans-Serif" font-size="10.00">SSJXYSeriesCollection</text>
</a>
</g>
</g>
<!-- Node2 -->
<g id="node2" class="node"><title>Node2</title>
<g id="a_node2"><a xlink:href="classumontreal_1_1ssj_1_1charts_1_1EmpiricalSeriesCollection.html" target="_top" xlink:title="Stores data used in a EmpiricalChart. ">
<polygon fill="none" stroke="black" points="161.5,-76.5 161.5,-95.5 302.5,-95.5 302.5,-76.5 161.5,-76.5"/>
<text text-anchor="middle" x="232" y="-83.5" font-family="Helvetica,sans-Serif" font-size="10.00">EmpiricalSeriesCollection</text>
</a>
</g>
</g>
<!-- Node1&#45;&gt;Node2 -->
<g id="edge1" class="edge"><title>Node1&#45;&gt;Node2</title>
<path fill="none" stroke="midnightblue" d="M114.931,-59.8243C138.687,-65.1816 166.399,-71.4311 188.786,-76.4799"/>
<polygon fill="midnightblue" stroke="midnightblue" points="115.545,-56.3748 105.02,-57.589 114.005,-63.2033 115.545,-56.3748"/>
</g>
<!-- Node3 -->
<g id="node3" class="node"><title>Node3</title>
<g id="a_node3"><a xlink:href="classumontreal_1_1ssj_1_1charts_1_1HistogramSeriesCollection.html" target="_top" xlink:title="Stores data used in a HistogramChart. ">
<polygon fill="none" stroke="black" points="159,-38.5 159,-57.5 305,-57.5 305,-38.5 159,-38.5"/>
<text text-anchor="middle" x="232" y="-45.5" font-family="Helvetica,sans-Serif" font-size="10.00">HistogramSeriesCollection</text>
</a>
</g>
</g>
<!-- Node1&#45;&gt;Node3 -->
<g id="edge2" class="edge"><title>Node1&#45;&gt;Node3</title>
<path fill="none" stroke="midnightblue" d="M133.441,-48C141.82,-48 150.38,-48 158.777,-48"/>
<polygon fill="midnightblue" stroke="midnightblue" points="133.332,-44.5001 123.332,-48 133.332,-51.5001 133.332,-44.5001"/>
</g>
<!-- Node4 -->
<g id="node4" class="node"><title>Node4</title>
<g id="a_node4"><a xlink:href="classumontreal_1_1ssj_1_1charts_1_1XYListSeriesCollection.html" target="_top" xlink:title="This class extends umontreal.ssj.charts.SSJXYSeriesCollection. ">
<polygon fill="none" stroke="black" points="169.5,-0.5 169.5,-19.5 294.5,-19.5 294.5,-0.5 169.5,-0.5"/>
<text text-anchor="middle" x="232" y="-7.5" font-family="Helvetica,sans-Serif" font-size="10.00">XYListSeriesCollection</text>
</a>
</g>
</g>
<!-- Node1&#45;&gt;Node4 -->
<g id="edge3" class="edge"><title>Node1&#45;&gt;Node4</title>
<path fill="none" stroke="midnightblue" d="M114.931,-36.1757C138.687,-30.8184 166.399,-24.5689 188.786,-19.5201"/>
<polygon fill="midnightblue" stroke="midnightblue" points="114.005,-32.7967 105.02,-38.411 115.545,-39.6252 114.005,-32.7967"/>
</g>
<!-- Node5 -->
<g id="node5" class="node"><title>Node5</title>
<g id="a_node5"><a xlink:href="classumontreal_1_1ssj_1_1charts_1_1YListSeriesCollection.html" target="_top" xlink:title="This class extends umontreal.ssj.charts.XYListSeriesCollection. ">
<polygon fill="none" stroke="black" points="341,-0.5 341,-19.5 460,-19.5 460,-0.5 341,-0.5"/>
<text text-anchor="middle" x="400.5" y="-7.5" font-family="Helvetica,sans-Serif" font-size="10.00">YListSeriesCollection</text>
</a>
</g>
</g>
<!-- Node4&#45;&gt;Node5 -->
<g id="edge4" class="edge"><title>Node4&#45;&gt;Node5</title>
<path fill="none" stroke="midnightblue" d="M304.621,-10C316.762,-10 329.239,-10 340.992,-10"/>
<polygon fill="midnightblue" stroke="midnightblue" points="304.525,-6.5001 294.525,-10 304.525,-13.5001 304.525,-6.5001"/>
</g>
</g>
</svg>
