<?xml version="1.0" encoding="UTF-8" standalone="no"?>
<!DOCTYPE svg PUBLIC "-//W3C//DTD SVG 1.1//EN"
 "http://www.w3.org/Graphics/SVG/1.1/DTD/svg11.dtd">
<!-- Generated by graphviz version 2.38.0 (20140413.2041)
 -->
<!-- Title: Graphical Class Hierarchy Pages: 1 -->
<svg width="416pt" height="104pt"
 viewBox="0.00 0.00 416.00 104.00" xmlns="http://www.w3.org/2000/svg" xmlns:xlink="http://www.w3.org/1999/xlink">
<g id="graph0" class="graph" transform="scale(1 1) rotate(0) translate(4 100)">
<title>Graphical Class Hierarchy</title>
<!-- Node0 -->
<g id="node1" class="node"><title>Node0</title>
<g id="a_node1"><a xlink:href="classumontreal_1_1ssj_1_1stat_1_1density_1_1DensityEstimator.html" target="_top" xlink:title="This abstract class represents a univariate density estimator (DE). ">
<polygon fill="none" stroke="black" points="0,-38.5 0,-57.5 92,-57.5 92,-38.5 0,-38.5"/>
<text text-anchor="middle" x="46" y="-45.5" font-family="Helvetica,sans-Serif" font-size="10.00">DensityEstimator</text>
</a>
</g>
</g>
<!-- Node1 -->
<g id="node2" class="node"><title>Node1</title>
<g id="a_node2"><a xlink:href="classumontreal_1_1ssj_1_1stat_1_1density_1_1DEHistogram.html" target="_top" xlink:title="Histogram density estimator for a univariate density. ">
<polygon fill="none" stroke="black" points="157,-76.5 157,-95.5 231,-95.5 231,-76.5 157,-76.5"/>
<text text-anchor="middle" x="194" y="-83.5" font-family="Helvetica,sans-Serif" font-size="10.00">DEHistogram</text>
</a>
</g>
</g>
<!-- Node0&#45;&gt;Node1 -->
<g id="edge1" class="edge"><title>Node0&#45;&gt;Node1</title>
<path fill="none" stroke="midnightblue" d="M93.6119,-60.1319C114.108,-65.4665 137.811,-71.6358 156.928,-76.6113"/>
<polygon fill="midnightblue" stroke="midnightblue" points="94.4012,-56.7207 83.842,-57.589 92.6379,-63.4951 94.4012,-56.7207"/>
</g>
<!-- Node2 -->
<g id="node3" class="node"><title>Node2</title>
<g id="a_node3"><a xlink:href="classumontreal_1_1ssj_1_1stat_1_1density_1_1DEKernelDensity.html" target="_top" xlink:title="This class provides methods to construct a kernel density estimator (KDE) for univariate densities fr...">
<polygon fill="none" stroke="black" points="148.5,-38.5 148.5,-57.5 239.5,-57.5 239.5,-38.5 148.5,-38.5"/>
<text text-anchor="middle" x="194" y="-45.5" font-family="Helvetica,sans-Serif" font-size="10.00">DEKernelDensity</text>
</a>
</g>
</g>
<!-- Node0&#45;&gt;Node2 -->
<g id="edge2" class="edge"><title>Node0&#45;&gt;Node2</title>
<path fill="none" stroke="midnightblue" d="M102.662,-48C117.784,-48 133.96,-48 148.385,-48"/>
<polygon fill="midnightblue" stroke="midnightblue" points="102.395,-44.5001 92.395,-48 102.395,-51.5001 102.395,-44.5001"/>
</g>
<!-- Node3 -->
<g id="node4" class="node"><title>Node3</title>
<g id="a_node4"><a xlink:href="classumontreal_1_1ssj_1_1stat_1_1density_1_1DensityDerivativeEstimator.html" target="_top" xlink:title="This class implements a density derivative estimator (DDE) based on a kernel density estimator (KDE) ...">
<polygon fill="none" stroke="black" points="128,-0.5 128,-19.5 260,-19.5 260,-0.5 128,-0.5"/>
<text text-anchor="middle" x="194" y="-7.5" font-family="Helvetica,sans-Serif" font-size="10.00">DensityDerivativeEstimator</text>
</a>
</g>
</g>
<!-- Node0&#45;&gt;Node3 -->
<g id="edge3" class="edge"><title>Node0&#45;&gt;Node3</title>
<path fill="none" stroke="midnightblue" d="M93.536,-35.8879C113.87,-30.5956 137.371,-24.4787 156.423,-19.5201"/>
<polygon fill="midnightblue" stroke="midnightblue" points="92.6379,-32.5049 83.842,-38.411 94.4012,-39.2793 92.6379,-32.5049"/>
</g>
<!-- Node4 -->
<g id="node5" class="node"><title>Node4</title>
<g id="a_node5"><a xlink:href="classumontreal_1_1ssj_1_1stat_1_1density_1_1DEDerivativeGaussian.html" target="_top" xlink:title="This class implements a density derivative estimator (DDE) with a Gaussian ( i.e., standard normal) kernel function. ">
<polygon fill="none" stroke="black" points="296,-0.5 296,-19.5 408,-19.5 408,-0.5 296,-0.5"/>
<text text-anchor="middle" x="352" y="-7.5" font-family="Helvetica,sans-Serif" font-size="10.00">DEDerivativeGaussian</text>
</a>
</g>
</g>
<!-- Node3&#45;&gt;Node4 -->
<g id="edge4" class="edge"><title>Node3&#45;&gt;Node4</title>
<path fill="none" stroke="midnightblue" d="M270.328,-10C278.948,-10 287.612,-10 295.897,-10"/>
<polygon fill="midnightblue" stroke="midnightblue" points="270.254,-6.5001 260.254,-10 270.254,-13.5001 270.254,-6.5001"/>
</g>
</g>
</svg>
