<?xml version="1.0" encoding="UTF-8" standalone="no"?>
<!DOCTYPE svg PUBLIC "-//W3C//DTD SVG 1.1//EN"
 "http://www.w3.org/Graphics/SVG/1.1/DTD/svg11.dtd">
<!-- Generated by graphviz version 2.38.0 (20140413.2041)
 -->
<!-- Title: Graphical Class Hierarchy Pages: 1 -->
<svg width="307pt" height="104pt"
 viewBox="0.00 0.00 307.00 104.00" xmlns="http://www.w3.org/2000/svg" xmlns:xlink="http://www.w3.org/1999/xlink">
<g id="graph0" class="graph" transform="scale(1 1) rotate(0) translate(4 100)">
<title>Graphical Class Hierarchy</title>
<!-- Node0 -->
<g id="node1" class="node"><title>Node0</title>
<g id="a_node1"><a xlink:href="interfaceumontreal_1_1ssj_1_1mcqmctools_1_1MonteCarloModel.html" target="_top" xlink:title="An interface for a simple simulation model for which Monte Carlo (MC) or RQMC experiments are to be p...">
<polygon fill="none" stroke="black" points="0,-38.5 0,-57.5 117,-57.5 117,-38.5 0,-38.5"/>
<text text-anchor="middle" x="58.5" y="-45.5" font-family="Helvetica,sans-Serif" font-size="10.00">MonteCarloModel&lt; E &gt;</text>
</a>
</g>
</g>
<!-- Node1 -->
<g id="node2" class="node"><title>Node1</title>
<g id="a_node2"><a xlink:href="classumontreal_1_1ssj_1_1mcqmctools_1_1anova_1_1AnovaVarianceEstimator.html" target="_top" xlink:title="ANOVA variance estimator. ">
<polygon fill="none" stroke="black" points="164.5,-76.5 164.5,-95.5 287.5,-95.5 287.5,-76.5 164.5,-76.5"/>
<text text-anchor="middle" x="226" y="-83.5" font-family="Helvetica,sans-Serif" font-size="10.00">AnovaVarianceEstimator</text>
</a>
</g>
</g>
<!-- Node0&#45;&gt;Node1 -->
<g id="edge1" class="edge"><title>Node0&#45;&gt;Node1</title>
<path fill="none" stroke="midnightblue" d="M111.311,-59.8961C134.573,-65.2374 161.647,-71.4537 183.538,-76.4799"/>
<polygon fill="midnightblue" stroke="midnightblue" points="111.792,-56.4157 101.263,-57.589 110.226,-63.2382 111.792,-56.4157"/>
</g>
<!-- Node2 -->
<g id="node3" class="node"><title>Node2</title>
<g id="a_node3"><a xlink:href="interfaceumontreal_1_1ssj_1_1mcqmctools_1_1anova_1_1MonteCarloModelRQMC.html" target="_top" xlink:title="An interface for a simple simulation model for which Monte Carlo (MC) or RQMC experiments are to be p...">
<polygon fill="none" stroke="black" points="153,-38.5 153,-57.5 299,-57.5 299,-38.5 153,-38.5"/>
<text text-anchor="middle" x="226" y="-45.5" font-family="Helvetica,sans-Serif" font-size="10.00">MonteCarloModelRQMC&lt; E &gt;</text>
</a>
</g>
</g>
<!-- Node0&#45;&gt;Node2 -->
<g id="edge2" class="edge"><title>Node0&#45;&gt;Node2</title>
<path fill="none" stroke="midnightblue" d="M127.478,-48C135.859,-48 144.448,-48 152.887,-48"/>
<polygon fill="midnightblue" stroke="midnightblue" points="127.384,-44.5001 117.384,-48 127.384,-51.5001 127.384,-44.5001"/>
</g>
<!-- Node3 -->
<g id="node4" class="node"><title>Node3</title>
<g id="a_node4"><a xlink:href="classumontreal_1_1ssj_1_1mcqmctools_1_1anova_1_1PartialVarianceEstimator.html" target="_top" xlink:title="Partial variance estimator. ">
<polygon fill="none" stroke="black" points="163.5,-0.5 163.5,-19.5 288.5,-19.5 288.5,-0.5 163.5,-0.5"/>
<text text-anchor="middle" x="226" y="-7.5" font-family="Helvetica,sans-Serif" font-size="10.00">PartialVarianceEstimator</text>
</a>
</g>
</g>
<!-- Node0&#45;&gt;Node3 -->
<g id="edge3" class="edge"><title>Node0&#45;&gt;Node3</title>
<path fill="none" stroke="midnightblue" d="M111.311,-36.1039C134.573,-30.7626 161.647,-24.5463 183.538,-19.5201"/>
<polygon fill="midnightblue" stroke="midnightblue" points="110.226,-32.7618 101.263,-38.411 111.792,-39.5843 110.226,-32.7618"/>
</g>
</g>
</svg>
