<?xml version="1.0" encoding="UTF-8" standalone="no"?>
<!DOCTYPE svg PUBLIC "-//W3C//DTD SVG 1.1//EN"
 "http://www.w3.org/Graphics/SVG/1.1/DTD/svg11.dtd">
<!-- Generated by graphviz version 2.26.3 (20100126.1600)
 -->
<!-- Title: Graphical Class Hierarchy Pages: 1 -->
<svg width="266pt" height="180pt"
 viewBox="0.00 0.00 266.00 180.00" xmlns="http://www.w3.org/2000/svg" xmlns:xlink="http://www.w3.org/1999/xlink">
<g id="graph1" class="graph" transform="scale(1 1) rotate(0) translate(4 176)">
<title>Graphical Class Hierarchy</title>
<!-- Node1 -->
<g id="node1" class="node"><title>Node1</title>
<polygon fill="none" stroke="#bfbfbf" points="0.5,-76 0.5,-96 49.5,-96 49.5,-76 0.5,-76"/>
<text text-anchor="middle" x="25" y="-83" font-family="Helvetica,sans-Serif" font-size="10.00">Iterable</text>
</g>
<!-- Node2 -->
<g id="node3" class="node"><title>Node2</title>
<a xlink:href="interfaceumontreal_1_1ssj_1_1simevents_1_1eventlist_1_1EventList.html" target="_top" xlink:title="An interface for implementations of event lists. ">
<polygon fill="none" stroke="black" points="86,-76 86,-96 144,-96 144,-76 86,-76"/>
<text text-anchor="middle" x="115" y="-83" font-family="Helvetica,sans-Serif" font-size="10.00">EventList</text>
</a>
</g>
<!-- Node1&#45;&gt;Node2 -->
<g id="edge2" class="edge"><title>Node1&#45;&gt;Node2</title>
<path fill="none" stroke="midnightblue" d="M59.7898,-86C68.4412,-86 77.6241,-86 85.966,-86"/>
<polygon fill="midnightblue" stroke="midnightblue" points="59.5929,-82.5001 49.5929,-86 59.5929,-89.5001 59.5929,-82.5001"/>
</g>
<!-- Node3 -->
<g id="node5" class="node"><title>Node3</title>
<a xlink:href="classumontreal_1_1ssj_1_1simevents_1_1eventlist_1_1BinaryTree.html" target="_top" xlink:title="Implantation de l&#39;interface EventList ayant comme structure de donnees un arbre binaire. ">
<polygon fill="none" stroke="black" points="187,-152 187,-172 251,-172 251,-152 187,-152"/>
<text text-anchor="middle" x="219" y="-159" font-family="Helvetica,sans-Serif" font-size="10.00">BinaryTree</text>
</a>
</g>
<!-- Node2&#45;&gt;Node3 -->
<g id="edge4" class="edge"><title>Node2&#45;&gt;Node3</title>
<path fill="none" stroke="midnightblue" d="M132.311,-103.481C144.84,-115.536 162.569,-131.414 180,-143 184.892,-146.252 190.424,-149.286 195.751,-151.933"/>
<polygon fill="midnightblue" stroke="midnightblue" points="134.473,-100.699 124.884,-96.1942 129.571,-105.696 134.473,-100.699"/>
</g>
<!-- Node4 -->
<g id="node7" class="node"><title>Node4</title>
<a xlink:href="classumontreal_1_1ssj_1_1simevents_1_1eventlist_1_1DoublyLinked.html" target="_top" xlink:title="An implementation of EventList using a doubly linked linear list. ">
<polygon fill="none" stroke="black" points="181.5,-114 181.5,-134 256.5,-134 256.5,-114 181.5,-114"/>
<text text-anchor="middle" x="219" y="-121" font-family="Helvetica,sans-Serif" font-size="10.00">DoublyLinked</text>
</a>
</g>
<!-- Node2&#45;&gt;Node4 -->
<g id="edge6" class="edge"><title>Node2&#45;&gt;Node4</title>
<path fill="none" stroke="midnightblue" d="M152.142,-99.5711C165.04,-104.284 179.27,-109.483 191.274,-113.869"/>
<polygon fill="midnightblue" stroke="midnightblue" points="153.191,-96.2281 142.597,-96.0835 150.789,-102.803 153.191,-96.2281"/>
</g>
<!-- Node5 -->
<g id="node9" class="node"><title>Node5</title>
<a xlink:href="classumontreal_1_1ssj_1_1simevents_1_1eventlist_1_1Henriksen.html" target="_top" xlink:title="An implementation of EventList using the doubly&#45;linked indexed list of Henriksen   (see also   (p...">
<polygon fill="none" stroke="black" points="189,-76 189,-96 249,-96 249,-76 189,-76"/>
<text text-anchor="middle" x="219" y="-83" font-family="Helvetica,sans-Serif" font-size="10.00">Henriksen</text>
</a>
</g>
<!-- Node2&#45;&gt;Node5 -->
<g id="edge8" class="edge"><title>Node2&#45;&gt;Node5</title>
<path fill="none" stroke="midnightblue" d="M154.426,-86C165.849,-86 178.133,-86 188.888,-86"/>
<polygon fill="midnightblue" stroke="midnightblue" points="154.247,-82.5001 144.247,-86 154.247,-89.5001 154.247,-82.5001"/>
</g>
<!-- Node6 -->
<g id="node11" class="node"><title>Node6</title>
<a xlink:href="classumontreal_1_1ssj_1_1simevents_1_1eventlist_1_1RedblackTree.html" target="_top" xlink:title="An implementation of EventList using a red black tree, which is similar to a binary search tree excep...">
<polygon fill="none" stroke="black" points="180.5,-38 180.5,-58 257.5,-58 257.5,-38 180.5,-38"/>
<text text-anchor="middle" x="219" y="-45" font-family="Helvetica,sans-Serif" font-size="10.00">RedblackTree</text>
</a>
</g>
<!-- Node2&#45;&gt;Node6 -->
<g id="edge10" class="edge"><title>Node2&#45;&gt;Node6</title>
<path fill="none" stroke="midnightblue" d="M152.142,-72.4289C165.04,-67.7161 179.27,-62.5169 191.274,-58.1307"/>
<polygon fill="midnightblue" stroke="midnightblue" points="150.789,-69.197 142.597,-75.9165 153.191,-75.7719 150.789,-69.197"/>
</g>
<!-- Node7 -->
<g id="node13" class="node"><title>Node7</title>
<a xlink:href="classumontreal_1_1ssj_1_1simevents_1_1eventlist_1_1SplayTree.html" target="_top" xlink:title="An implementation of EventList using a splay tree  . ">
<polygon fill="none" stroke="black" points="188.5,-0 188.5,-20 249.5,-20 249.5,-0 188.5,-0"/>
<text text-anchor="middle" x="219" y="-7" font-family="Helvetica,sans-Serif" font-size="10.00">SplayTree</text>
</a>
</g>
<!-- Node2&#45;&gt;Node7 -->
<g id="edge12" class="edge"><title>Node2&#45;&gt;Node7</title>
<path fill="none" stroke="midnightblue" d="M132.311,-68.5192C144.84,-56.4638 162.569,-40.5863 180,-29 184.892,-25.7481 190.424,-22.7139 195.751,-20.0667"/>
<polygon fill="midnightblue" stroke="midnightblue" points="129.571,-66.3042 124.884,-75.8058 134.473,-71.3011 129.571,-66.3042"/>
</g>
</g>
</svg>
