<?xml version="1.0" encoding="UTF-8" standalone="no"?>
<!DOCTYPE svg PUBLIC "-//W3C//DTD SVG 1.1//EN"
 "http://www.w3.org/Graphics/SVG/1.1/DTD/svg11.dtd">
<!-- Generated by graphviz version 2.26.3 (20100126.1600)
 -->
<!-- Title: Graphical Class Hierarchy Pages: 1 -->
<svg width="434pt" height="140pt"
 viewBox="0.00 0.00 434.00 140.00" xmlns="http://www.w3.org/2000/svg" xmlns:xlink="http://www.w3.org/1999/xlink">
<g id="graph1" class="graph" transform="scale(1 1) rotate(0) translate(4 136)">
<title>Graphical Class Hierarchy</title>
<!-- Node1 -->
<g id="node1" class="node"><title>Node1</title>
<polygon fill="none" stroke="#bfbfbf" points="0.5,-56 0.5,-76 89.5,-76 89.5,-56 0.5,-56"/>
<text text-anchor="middle" x="45" y="-63" font-family="Helvetica,sans-Serif" font-size="10.00">DigitalNetIterator</text>
</g>
<!-- Node2 -->
<g id="node3" class="node"><title>Node2</title>
<a xlink:href="classumontreal_1_1ssj_1_1hups_1_1DigitalNetBase2_1_1DigitalNetBase2Iterator.html" target="_top" xlink:title="DigitalNetBase2.DigitalNet\lBase2Iterator">
<polygon fill="none" stroke="black" points="126.5,-100 126.5,-132 257.5,-132 257.5,-100 126.5,-100"/>
<text text-anchor="start" x="134.5" y="-119" font-family="Helvetica,sans-Serif" font-size="10.00">DigitalNetBase2.DigitalNet</text>
<text text-anchor="middle" x="192" y="-107" font-family="Helvetica,sans-Serif" font-size="10.00">Base2Iterator</text>
</a>
</g>
<!-- Node1&#45;&gt;Node2 -->
<g id="edge2" class="edge"><title>Node1&#45;&gt;Node2</title>
<path fill="none" stroke="midnightblue" d="M84.3908,-79.3982C103.023,-85.7356 125.412,-93.3511 144.932,-99.9906"/>
<polygon fill="midnightblue" stroke="midnightblue" points="85.3421,-76.0249 74.7476,-76.1182 83.0879,-82.6521 85.3421,-76.0249"/>
</g>
<!-- Node4 -->
<g id="node7" class="node"><title>Node4</title>
<a xlink:href="classumontreal_1_1ssj_1_1hups_1_1DigitalSequence_1_1DigitalNetIteratorShiftGenerators.html" target="_top" xlink:title="DigitalSequence.DigitalNet\lIteratorShiftGenerators">
<polygon fill="none" stroke="black" points="126,-50 126,-82 258,-82 258,-50 126,-50"/>
<text text-anchor="start" x="134" y="-69" font-family="Helvetica,sans-Serif" font-size="10.00">DigitalSequence.DigitalNet</text>
<text text-anchor="middle" x="192" y="-57" font-family="Helvetica,sans-Serif" font-size="10.00">IteratorShiftGenerators</text>
</a>
</g>
<!-- Node1&#45;&gt;Node4 -->
<g id="edge6" class="edge"><title>Node1&#45;&gt;Node4</title>
<path fill="none" stroke="midnightblue" d="M99.7182,-66C108.268,-66 117.181,-66 125.951,-66"/>
<polygon fill="midnightblue" stroke="midnightblue" points="99.5038,-62.5001 89.5038,-66 99.5037,-69.5001 99.5038,-62.5001"/>
</g>
<!-- Node5 -->
<g id="node9" class="node"><title>Node5</title>
<a xlink:href="classumontreal_1_1ssj_1_1hups_1_1DigitalSequence_1_1DigitalNetIteratorShiftNoGray.html" target="_top" xlink:title="DigitalSequence.DigitalNet\lIteratorShiftNoGray">
<polygon fill="none" stroke="black" points="126,-0 126,-32 258,-32 258,-0 126,-0"/>
<text text-anchor="start" x="134" y="-19" font-family="Helvetica,sans-Serif" font-size="10.00">DigitalSequence.DigitalNet</text>
<text text-anchor="middle" x="192" y="-7" font-family="Helvetica,sans-Serif" font-size="10.00">IteratorShiftNoGray</text>
</a>
</g>
<!-- Node1&#45;&gt;Node5 -->
<g id="edge8" class="edge"><title>Node1&#45;&gt;Node5</title>
<path fill="none" stroke="midnightblue" d="M84.3908,-52.6018C103.023,-46.2644 125.412,-38.6489 144.932,-32.0094"/>
<polygon fill="midnightblue" stroke="midnightblue" points="83.0879,-49.3479 74.7476,-55.8818 85.3421,-55.9751 83.0879,-49.3479"/>
</g>
<!-- Node3 -->
<g id="node5" class="node"><title>Node3</title>
<a xlink:href="classumontreal_1_1ssj_1_1hups_1_1DigitalNetBase2_1_1DigitalNetBase2IteratorNoGray.html" target="_top" xlink:title="DigitalNetBase2.DigitalNet\lBase2IteratorNoGray">
<polygon fill="none" stroke="black" points="294.5,-100 294.5,-132 425.5,-132 425.5,-100 294.5,-100"/>
<text text-anchor="start" x="302.5" y="-119" font-family="Helvetica,sans-Serif" font-size="10.00">DigitalNetBase2.DigitalNet</text>
<text text-anchor="middle" x="360" y="-107" font-family="Helvetica,sans-Serif" font-size="10.00">Base2IteratorNoGray</text>
</a>
</g>
<!-- Node2&#45;&gt;Node3 -->
<g id="edge4" class="edge"><title>Node2&#45;&gt;Node3</title>
<path fill="none" stroke="midnightblue" d="M268.098,-116C276.836,-116 285.689,-116 294.274,-116"/>
<polygon fill="midnightblue" stroke="midnightblue" points="267.916,-112.5 257.916,-116 267.916,-119.5 267.916,-112.5"/>
</g>
</g>
</svg>
