<?xml version="1.0" encoding="UTF-8" standalone="no"?>
<!DOCTYPE svg PUBLIC "-//W3C//DTD SVG 1.1//EN"
 "http://www.w3.org/Graphics/SVG/1.1/DTD/svg11.dtd">
<!-- Generated by graphviz version 2.38.0 (20140413.2041)
 -->
<!-- Title: Graphical Class Hierarchy Pages: 1 -->
<svg width="205pt" height="66pt"
 viewBox="0.00 0.00 205.00 66.00" xmlns="http://www.w3.org/2000/svg" xmlns:xlink="http://www.w3.org/1999/xlink">
<g id="graph0" class="graph" transform="scale(1 1) rotate(0) translate(4 62)">
<title>Graphical Class Hierarchy</title>
<!-- Node1 -->
<g id="node1" class="node"><title>Node1</title>
<g id="a_node1"><a xlink:href="classumontreal_1_1ssj_1_1simevents_1_1Continuous.html" target="_top" xlink:title="Represents a variable in a continuous&#45;time simulation. ">
<polygon fill="none" stroke="black" points="0,-19.5 0,-38.5 71,-38.5 71,-19.5 0,-19.5"/>
<text text-anchor="middle" x="35.5" y="-26.5" font-family="Helvetica,sans-Serif" font-size="10.00">Continuous</text>
</a>
</g>
</g>
<!-- Node2 -->
<g id="node2" class="node"><title>Node2</title>
<g id="a_node2"><a xlink:href="classPreyPred_1_1Preds.html" target="_top" xlink:title="PreyPred.Preds">
<polygon fill="none" stroke="black" points="107,-38.5 107,-57.5 197,-57.5 197,-38.5 107,-38.5"/>
<text text-anchor="middle" x="152" y="-45.5" font-family="Helvetica,sans-Serif" font-size="10.00">PreyPred.Preds</text>
</a>
</g>
</g>
<!-- Node1&#45;&gt;Node2 -->
<g id="edge1" class="edge"><title>Node1&#45;&gt;Node2</title>
<path fill="none" stroke="midnightblue" d="M81.1598,-36.4108C89.551,-37.8032 98.3218,-39.2586 106.702,-40.6492"/>
<polygon fill="midnightblue" stroke="midnightblue" points="81.6026,-32.9365 71.1645,-34.7522 80.4566,-39.8421 81.6026,-32.9365"/>
</g>
<!-- Node3 -->
<g id="node3" class="node"><title>Node3</title>
<g id="a_node3"><a xlink:href="classPreyPred_1_1Preys.html" target="_top" xlink:title="PreyPred.Preys">
<polygon fill="none" stroke="black" points="107,-0.5 107,-19.5 197,-19.5 197,-0.5 107,-0.5"/>
<text text-anchor="middle" x="152" y="-7.5" font-family="Helvetica,sans-Serif" font-size="10.00">PreyPred.Preys</text>
</a>
</g>
</g>
<!-- Node1&#45;&gt;Node3 -->
<g id="edge2" class="edge"><title>Node1&#45;&gt;Node3</title>
<path fill="none" stroke="midnightblue" d="M81.1598,-21.5892C89.551,-20.1968 98.3218,-18.7414 106.702,-17.3508"/>
<polygon fill="midnightblue" stroke="midnightblue" points="80.4566,-18.1579 71.1645,-23.2478 81.6026,-25.0635 80.4566,-18.1579"/>
</g>
</g>
</svg>
