<?xml version="1.0" encoding="UTF-8" standalone="no"?>
<!DOCTYPE svg PUBLIC "-//W3C//DTD SVG 1.1//EN"
 "http://www.w3.org/Graphics/SVG/1.1/DTD/svg11.dtd">
<!-- Generated by graphviz version 2.38.0 (20140413.2041)
 -->
<!-- Title: MultiDimSort&lt; T &gt; Pages: 1 -->
<svg width="627pt" height="268pt"
 viewBox="0.00 0.00 627.00 268.00" xmlns="http://www.w3.org/2000/svg" xmlns:xlink="http://www.w3.org/1999/xlink">
<g id="graph0" class="graph" transform="scale(1 1) rotate(0) translate(4 264)">
<title>MultiDimSort&lt; T &gt;</title>
<!-- Node1 -->
<g id="node1" class="node"><title>Node1</title>
<polygon fill="#bfbfbf" stroke="black" points="0,-171.5 0,-190.5 98,-190.5 98,-171.5 0,-171.5"/>
<text text-anchor="middle" x="49" y="-178.5" font-family="Helvetica,sans-Serif" font-size="10.00">MultiDimSort&lt; T &gt;</text>
</g>
<!-- Node2 -->
<g id="node2" class="node"><title>Node2</title>
<g id="a_node2"><a xlink:href="interfaceumontreal_1_1ssj_1_1util_1_1sort_1_1MultiDimSort01_3_01T_01extends_01MultiDim01_01_4.html" target="_top" xlink:title="This interface extends MultiDimSort&lt;T&gt; to implement multivariate sorting algorithms that sort points ...">
<polygon fill="none" stroke="black" points="147.5,-207 147.5,-237 284.5,-237 284.5,-207 147.5,-207"/>
<text text-anchor="start" x="155.5" y="-225" font-family="Helvetica,sans-Serif" font-size="10.00">MultiDimSort01&lt; T extends</text>
<text text-anchor="middle" x="216" y="-214" font-family="Helvetica,sans-Serif" font-size="10.00"> MultiDim01 &gt;</text>
</a>
</g>
</g>
<!-- Node1&#45;&gt;Node2 -->
<g id="edge1" class="edge"><title>Node1&#45;&gt;Node2</title>
<path fill="none" stroke="midnightblue" d="M98.2729,-192.995C115.808,-197.352 135.851,-202.333 154.322,-206.922"/>
<polygon fill="midnightblue" stroke="midnightblue" points="98.818,-189.524 88.269,-190.509 97.1299,-196.318 98.818,-189.524"/>
</g>
<!-- Node4 -->
<g id="node4" class="node"><title>Node4</title>
<g id="a_node4"><a xlink:href="interfaceumontreal_1_1ssj_1_1util_1_1sort_1_1MultiDimSortComparable_3_01T_01extends_01MultiDimCo45d0e8774cd123522345c6e0f6ef4062.html" target="_top" xlink:title="This interface extends MultiDimSort&lt;T&gt; to implement multivariate sorting algorithms that sort objects...">
<polygon fill="none" stroke="black" points="134,-120.5 134,-161.5 298,-161.5 298,-120.5 134,-120.5"/>
<text text-anchor="start" x="142" y="-149.5" font-family="Helvetica,sans-Serif" font-size="10.00">MultiDimSortComparable</text>
<text text-anchor="start" x="142" y="-138.5" font-family="Helvetica,sans-Serif" font-size="10.00">&lt; T extends MultiDimComparable</text>
<text text-anchor="middle" x="216" y="-127.5" font-family="Helvetica,sans-Serif" font-size="10.00">&lt;?super T &gt; &gt;</text>
</a>
</g>
</g>
<!-- Node1&#45;&gt;Node4 -->
<g id="edge3" class="edge"><title>Node1&#45;&gt;Node4</title>
<path fill="none" stroke="midnightblue" d="M99.5555,-168.987C110.34,-166.372 122.023,-163.54 133.674,-160.715"/>
<polygon fill="midnightblue" stroke="midnightblue" points="98.4155,-165.661 89.5216,-171.419 100.065,-172.464 98.4155,-165.661"/>
</g>
<!-- Node3 -->
<g id="node3" class="node"><title>Node3</title>
<g id="a_node3"><a xlink:href="classumontreal_1_1ssj_1_1util_1_1sort_1_1HilbertCurveSort.html" target="_top" xlink:title="This class implements a MultiDimSort01&lt;T extends MultiDim01&gt; that can sort an array of points in the ...">
<polygon fill="none" stroke="black" points="371.5,-240.5 371.5,-259.5 460.5,-259.5 460.5,-240.5 371.5,-240.5"/>
<text text-anchor="middle" x="416" y="-247.5" font-family="Helvetica,sans-Serif" font-size="10.00">HilbertCurveSort</text>
</a>
</g>
</g>
<!-- Node2&#45;&gt;Node3 -->
<g id="edge2" class="edge"><title>Node2&#45;&gt;Node3</title>
<path fill="none" stroke="midnightblue" d="M294.813,-233.004C320.809,-236.68 348.85,-240.645 371.303,-243.821"/>
<polygon fill="midnightblue" stroke="midnightblue" points="294.978,-229.492 284.587,-231.558 293.998,-236.424 294.978,-229.492"/>
</g>
<!-- Node5 -->
<g id="node5" class="node"><title>Node5</title>
<g id="a_node5"><a xlink:href="classumontreal_1_1ssj_1_1util_1_1sort_1_1BatchSort_3_01T_01extends_01MultiDimComparable_3_04super_01T_01_4_01_4.html" target="_top" xlink:title="This class implements a MultiDimSortComparable that performs a batch sort on multivariate arrays...">
<polygon fill="none" stroke="black" points="357.5,-180.5 357.5,-221.5 474.5,-221.5 474.5,-180.5 357.5,-180.5"/>
<text text-anchor="start" x="365.5" y="-209.5" font-family="Helvetica,sans-Serif" font-size="10.00">BatchSort&lt; T extends</text>
<text text-anchor="start" x="365.5" y="-198.5" font-family="Helvetica,sans-Serif" font-size="10.00"> MultiDimComparable&lt;</text>
<text text-anchor="middle" x="416" y="-187.5" font-family="Helvetica,sans-Serif" font-size="10.00">?super T &gt; &gt;</text>
</a>
</g>
</g>
<!-- Node4&#45;&gt;Node5 -->
<g id="edge4" class="edge"><title>Node4&#45;&gt;Node5</title>
<path fill="none" stroke="midnightblue" d="M294.683,-164.54C315.597,-170.878 337.842,-177.619 357.443,-183.558"/>
<polygon fill="midnightblue" stroke="midnightblue" points="295.449,-161.115 284.863,-161.565 293.419,-167.814 295.449,-161.115"/>
</g>
<!-- Node7 -->
<g id="node7" class="node"><title>Node7</title>
<g id="a_node7"><a xlink:href="classumontreal_1_1ssj_1_1util_1_1sort_1_1HilbertCurveBatchSort_3_01T_01extends_01MultiDimComparable_3_04super_01T_01_4_01_4.html" target="_top" xlink:title="This sort is similar to BatchSortPow2, except that after applying the batch sort, the objects are giv...">
<polygon fill="none" stroke="black" points="334,-120.5 334,-161.5 498,-161.5 498,-120.5 334,-120.5"/>
<text text-anchor="start" x="342" y="-149.5" font-family="Helvetica,sans-Serif" font-size="10.00">HilbertCurveBatchSort</text>
<text text-anchor="start" x="342" y="-138.5" font-family="Helvetica,sans-Serif" font-size="10.00">&lt; T extends MultiDimComparable</text>
<text text-anchor="middle" x="416" y="-127.5" font-family="Helvetica,sans-Serif" font-size="10.00">&lt;?super T &gt; &gt;</text>
</a>
</g>
</g>
<!-- Node4&#45;&gt;Node7 -->
<g id="edge6" class="edge"><title>Node4&#45;&gt;Node7</title>
<path fill="none" stroke="midnightblue" d="M308.363,-141C316.817,-141 325.346,-141 333.7,-141"/>
<polygon fill="midnightblue" stroke="midnightblue" points="308.106,-137.5 298.105,-141 308.105,-144.5 308.106,-137.5"/>
</g>
<!-- Node8 -->
<g id="node8" class="node"><title>Node8</title>
<g id="a_node8"><a xlink:href="classumontreal_1_1ssj_1_1util_1_1sort_1_1OneDimSort_3_01T_01extends_01MultiDimComparable_3_04super_01T_01_4_01_4.html" target="_top" xlink:title="This class implements a MultiDimSortComparable that simply sorts the objects according to a given sor...">
<polygon fill="none" stroke="black" points="354.5,-60.5 354.5,-101.5 477.5,-101.5 477.5,-60.5 354.5,-60.5"/>
<text text-anchor="start" x="362.5" y="-89.5" font-family="Helvetica,sans-Serif" font-size="10.00">OneDimSort&lt; T extends</text>
<text text-anchor="start" x="362.5" y="-78.5" font-family="Helvetica,sans-Serif" font-size="10.00"> MultiDimComparable&lt;</text>
<text text-anchor="middle" x="416" y="-67.5" font-family="Helvetica,sans-Serif" font-size="10.00">?super T &gt; &gt;</text>
</a>
</g>
</g>
<!-- Node4&#45;&gt;Node8 -->
<g id="edge7" class="edge"><title>Node4&#45;&gt;Node8</title>
<path fill="none" stroke="midnightblue" d="M294.483,-117.52C314.307,-111.513 335.34,-105.139 354.191,-99.4268"/>
<polygon fill="midnightblue" stroke="midnightblue" points="293.419,-114.186 284.863,-120.435 295.449,-120.885 293.419,-114.186"/>
</g>
<!-- Node9 -->
<g id="node9" class="node"><title>Node9</title>
<g id="a_node9"><a xlink:href="classumontreal_1_1ssj_1_1util_1_1sort_1_1SplitSort_3_01T_01extends_01MultiDimComparable_3_04super_01T_01_4_01_4.html" target="_top" xlink:title="Implements a MultiDimSortComparable that performs a split sort on a MultiDimComparable&lt;T&gt; array based...">
<polygon fill="none" stroke="black" points="357.5,-0.5 357.5,-41.5 474.5,-41.5 474.5,-0.5 357.5,-0.5"/>
<text text-anchor="start" x="365.5" y="-29.5" font-family="Helvetica,sans-Serif" font-size="10.00">SplitSort&lt; T extends</text>
<text text-anchor="start" x="365.5" y="-18.5" font-family="Helvetica,sans-Serif" font-size="10.00"> MultiDimComparable&lt;</text>
<text text-anchor="middle" x="416" y="-7.5" font-family="Helvetica,sans-Serif" font-size="10.00">?super T &gt; &gt;</text>
</a>
</g>
</g>
<!-- Node4&#45;&gt;Node9 -->
<g id="edge8" class="edge"><title>Node4&#45;&gt;Node9</title>
<path fill="none" stroke="midnightblue" d="M247.314,-113.558C269.944,-94.1361 302.305,-68.5299 334,-51 341.349,-46.9356 349.358,-43.2139 357.388,-39.8793"/>
<polygon fill="midnightblue" stroke="midnightblue" points="244.985,-110.945 239.733,-120.146 249.577,-116.229 244.985,-110.945"/>
</g>
<!-- Node6 -->
<g id="node6" class="node"><title>Node6</title>
<g id="a_node6"><a xlink:href="classumontreal_1_1ssj_1_1util_1_1sort_1_1BatchSortPow2.html" target="_top" xlink:title="This is a subclass of BatchSort for which the batch numbers &#160;are always powers of 2...">
<polygon fill="none" stroke="black" points="534,-191.5 534,-210.5 619,-210.5 619,-191.5 534,-191.5"/>
<text text-anchor="middle" x="576.5" y="-198.5" font-family="Helvetica,sans-Serif" font-size="10.00">BatchSortPow2</text>
</a>
</g>
</g>
<!-- Node5&#45;&gt;Node6 -->
<g id="edge5" class="edge"><title>Node5&#45;&gt;Node6</title>
<path fill="none" stroke="midnightblue" d="M484.852,-201C501.386,-201 518.596,-201 533.522,-201"/>
<polygon fill="midnightblue" stroke="midnightblue" points="484.671,-197.5 474.671,-201 484.67,-204.5 484.671,-197.5"/>
</g>
</g>
</svg>
