<?xml version="1.0" encoding="UTF-8" standalone="no"?>
<!DOCTYPE svg PUBLIC "-//W3C//DTD SVG 1.1//EN"
 "http://www.w3.org/Graphics/SVG/1.1/DTD/svg11.dtd">
<!-- Generated by graphviz version 2.26.3 (20100126.1600)
 -->
<!-- Title: RandomStream Pages: 1 -->
<!--zoomable 521 -->
<svg id="main" version="1.1" xmlns="http://www.w3.org/2000/svg" xmlns:xlink="http://www.w3.org/1999/xlink" xml:space="preserve" onload="init(evt)">
<style type="text/css"><![CDATA[
.edge:hover path { stroke: red; }
.edge:hover polygon { stroke: red; fill: red; }
]]></style>
<script type="text/javascript"><![CDATA[
var edges = document.getElementsByTagName('g');
if (edges && edges.length) {
  for (var i=0;i<edges.length;i++) {
    if (edges[i].id.substr(0,4)=='edge') {
      edges[i].setAttribute('class','edge');
    }
  }
}
]]></script>
        <defs>
                <circle id="rim" cx="0" cy="0" r="7"/>
                <circle id="rim2" cx="0" cy="0" r="3.5"/>
                <g id="zoomPlus">
                        <use xlink:href="#rim" fill="#404040">
                                <set attributeName="fill" to="#808080" begin="zoomplus.mouseover" end="zoomplus.mouseout"/>
                        </use>
                        <path d="M-4,0h8M0,-4v8" fill="none" stroke="white" stroke-width="1.5" pointer-events="none"/>
                </g>
                <g id="zoomMin">
                        <use xlink:href="#rim" fill="#404040">
                                <set attributeName="fill" to="#808080" begin="zoomminus.mouseover" end="zoomminus.mouseout"/>
                        </use>
                        <path d="M-4,0h8" fill="none" stroke="white" stroke-width="1.5" pointer-events="none"/>
                </g>
                <g id="dirArrow">
                        <path fill="none" stroke="white" stroke-width="1.5" d="M0,-3.0v7 M-2.5,-0.5L0,-3.0L2.5,-0.5"/>
                </g>
               <g id="resetDef">
                       <use xlink:href="#rim2" fill="#404040">
                               <set attributeName="fill" to="#808080" begin="reset.mouseover" end="reset.mouseout"/>
                       </use>
               </g>
        </defs>

<script type="text/javascript">
var viewWidth = 782;
var viewHeight = 521;
var sectionId = 'dynsection-0';
</script>
<script xlink:href="svgpan.js"/>
<svg id="graph" class="graph">
<g id="viewport">
<title>RandomStream</title>
<!-- Node1 -->
<g id="node1" class="node"><title>Node1</title>
<polygon fill="#bfbfbf" stroke="black" points="0,-268 0,-288 84,-288 84,-268 0,-268"/>
<text text-anchor="middle" x="42" y="-275" font-family="Helvetica,sans-Serif" font-size="10.00">RandomStream</text>
</g>
<!-- Node2 -->
<g id="node3" class="node"><title>Node2</title>
<a xlink:href="interfaceumontreal_1_1ssj_1_1hups_1_1PointSetIterator.html" target="_top" xlink:title="Objects of classes that implement this interface are iterators that permit one to enumerate (or obser...">
<polygon fill="none" stroke="black" points="153.5,-402 153.5,-422 238.5,-422 238.5,-402 153.5,-402"/>
<text text-anchor="middle" x="196" y="-409" font-family="Helvetica,sans-Serif" font-size="10.00">PointSetIterator</text>
</a>
</g>
<!-- Node1&#45;&gt;Node2 -->
<g id="edge2" class="edge"><title>Node1&#45;&gt;Node2</title>
<path fill="none" stroke="midnightblue" d="M53.7939,-296.536C67.6675,-317.217 92.3437,-350.693 120,-373 135.122,-385.197 154.669,-395.123 170.152,-401.909"/>
<polygon fill="midnightblue" stroke="midnightblue" points="56.6194,-294.462 48.2078,-288.021 50.7664,-298.302 56.6194,-294.462"/>
</g>
<!-- Node7 -->
<g id="node13" class="node"><title>Node7</title>
<a xlink:href="classumontreal_1_1ssj_1_1rng_1_1AntitheticStream.html" target="_top" xlink:title="This container class allows the user to force any RandomStream to return antithetic variates...">
<polygon fill="none" stroke="black" points="151.5,-344 151.5,-364 240.5,-364 240.5,-344 151.5,-344"/>
<text text-anchor="middle" x="196" y="-351" font-family="Helvetica,sans-Serif" font-size="10.00">AntitheticStream</text>
</a>
</g>
<!-- Node1&#45;&gt;Node7 -->
<g id="edge12" class="edge"><title>Node1&#45;&gt;Node7</title>
<path fill="none" stroke="midnightblue" d="M60.8158,-295.005C75.8397,-307.739 97.9575,-324.676 120,-335 129.73,-339.557 140.692,-343.111 151.2,-345.847"/>
<polygon fill="midnightblue" stroke="midnightblue" points="63.0903,-292.344 53.2445,-288.431 58.501,-297.63 63.0903,-292.344"/>
</g>
<!-- Node8 -->
<g id="node15" class="node"><title>Node8</title>
<a xlink:href="classumontreal_1_1ssj_1_1rng_1_1BakerTransformedStream.html" target="_top" xlink:title="This container class permits one to apply the baker’s transformation to the output of any RandomStre...">
<polygon fill="none" stroke="black" points="132,-306 132,-326 260,-326 260,-306 132,-306"/>
<text text-anchor="middle" x="196" y="-313" font-family="Helvetica,sans-Serif" font-size="10.00">BakerTransformedStream</text>
</a>
</g>
<!-- Node1&#45;&gt;Node8 -->
<g id="edge14" class="edge"><title>Node1&#45;&gt;Node8</title>
<path fill="none" stroke="midnightblue" d="M92.5833,-290.482C112.897,-295.494 136.001,-301.195 155.212,-305.935"/>
<polygon fill="midnightblue" stroke="midnightblue" points="93.4122,-287.081 82.8649,-288.084 91.7351,-293.877 93.4122,-287.081"/>
</g>
<!-- Node9 -->
<g id="node17" class="node"><title>Node9</title>
<a xlink:href="interfaceumontreal_1_1ssj_1_1rng_1_1CloneableRandomStream.html" target="_top" xlink:title="CloneableRandomStream extends RandomStream and Cloneable. ">
<polygon fill="none" stroke="black" points="132.5,-268 132.5,-288 259.5,-288 259.5,-268 132.5,-268"/>
<text text-anchor="middle" x="196" y="-275" font-family="Helvetica,sans-Serif" font-size="10.00">CloneableRandomStream</text>
</a>
</g>
<!-- Node1&#45;&gt;Node9 -->
<g id="edge16" class="edge"><title>Node1&#45;&gt;Node9</title>
<path fill="none" stroke="midnightblue" d="M94.126,-278C106.386,-278 119.588,-278 132.292,-278"/>
<polygon fill="midnightblue" stroke="midnightblue" points="94.0812,-274.5 84.0812,-278 94.0811,-281.5 94.0812,-274.5"/>
</g>
<!-- Node25 -->
<g id="node49" class="node"><title>Node25</title>
<a xlink:href="classumontreal_1_1ssj_1_1rng_1_1RandomStreamWithCache.html" target="_top" xlink:title="This class represents a random stream whose uniforms are cached for more efficiency when using common...">
<polygon fill="none" stroke="black" points="130.5,-230 130.5,-250 261.5,-250 261.5,-230 130.5,-230"/>
<text text-anchor="middle" x="196" y="-237" font-family="Helvetica,sans-Serif" font-size="10.00">RandomStreamWithCache</text>
</a>
</g>
<!-- Node1&#45;&gt;Node25 -->
<g id="edge48" class="edge"><title>Node1&#45;&gt;Node25</title>
<path fill="none" stroke="midnightblue" d="M92.5833,-265.518C112.897,-260.506 136.001,-254.805 155.212,-250.065"/>
<polygon fill="midnightblue" stroke="midnightblue" points="91.7351,-262.123 82.8649,-267.916 93.4122,-268.919 91.7351,-262.123"/>
</g>
<!-- Node26 -->
<g id="node51" class="node"><title>Node26</title>
<a xlink:href="classumontreal_1_1ssj_1_1rng_1_1TruncatedRandomStream.html" target="_top" xlink:title="Represents a container random stream generating numbers in an interval &#160;instead of in ...">
<polygon fill="none" stroke="black" points="132,-192 132,-212 260,-212 260,-192 132,-192"/>
<text text-anchor="middle" x="196" y="-199" font-family="Helvetica,sans-Serif" font-size="10.00">TruncatedRandomStream</text>
</a>
</g>
<!-- Node1&#45;&gt;Node26 -->
<g id="edge50" class="edge"><title>Node1&#45;&gt;Node26</title>
<path fill="none" stroke="midnightblue" d="M60.8158,-260.995C75.8397,-248.261 97.9575,-231.324 120,-221 127.636,-217.423 136.031,-214.465 144.37,-212.035"/>
<polygon fill="midnightblue" stroke="midnightblue" points="58.501,-258.37 53.2445,-267.569 63.0903,-263.656 58.501,-258.37"/>
</g>
<!-- Node27 -->
<g id="node53" class="node"><title>Node27</title>
<a xlink:href="classumontreal_1_1ssj_1_1stochprocess_1_1InverseGaussianProcessMSH_1_1NonRandomStream.html" target="_top" xlink:title="NonRandomStream: Given a double array, this class will return those values as if it where a random st...">
<polygon fill="none" stroke="black" points="120.5,-142 120.5,-174 271.5,-174 271.5,-142 120.5,-142"/>
<text text-anchor="start" x="128.5" y="-161" font-family="Helvetica,sans-Serif" font-size="10.00">InverseGaussianProcessMSH.</text>
<text text-anchor="middle" x="196" y="-149" font-family="Helvetica,sans-Serif" font-size="10.00">NonRandomStream</text>
</a>
</g>
<!-- Node1&#45;&gt;Node27 -->
<g id="edge52" class="edge"><title>Node1&#45;&gt;Node27</title>
<path fill="none" stroke="midnightblue" d="M52.9789,-258.981C66.257,-237.582 90.5337,-203.184 120,-183 124.928,-179.625 130.344,-176.678 135.946,-174.111"/>
<polygon fill="midnightblue" stroke="midnightblue" points="49.829,-257.427 47.673,-267.8 55.8272,-261.036 49.829,-257.427"/>
</g>
<!-- Node3 -->
<g id="node5" class="node"><title>Node3</title>
<a xlink:href="classumontreal_1_1ssj_1_1hups_1_1PointSet_1_1DefaultPointSetIterator.html" target="_top" xlink:title="PointSet.DefaultPointSet\lIterator">
<polygon fill="none" stroke="black" points="308.5,-437 308.5,-469 433.5,-469 433.5,-437 308.5,-437"/>
<text text-anchor="start" x="316.5" y="-456" font-family="Helvetica,sans-Serif" font-size="10.00">PointSet.DefaultPointSet</text>
<text text-anchor="middle" x="371" y="-444" font-family="Helvetica,sans-Serif" font-size="10.00">Iterator</text>
</a>
</g>
<!-- Node2&#45;&gt;Node3 -->
<g id="edge4" class="edge"><title>Node2&#45;&gt;Node3</title>
<path fill="none" stroke="midnightblue" d="M248.683,-424.343C267.502,-428.752 288.889,-433.763 308.459,-438.348"/>
<polygon fill="midnightblue" stroke="midnightblue" points="249.345,-420.903 238.81,-422.03 247.748,-427.719 249.345,-420.903"/>
</g>
<!-- Node4 -->
<g id="node7" class="node"><title>Node4</title>
<a xlink:href="classumontreal_1_1ssj_1_1hups_1_1DigitalNet_1_1DigitalNetIterator.html" target="_top" xlink:title="DigitalNet.DigitalNetIterator">
<polygon fill="none" stroke="black" points="470,-487 470,-507 604,-507 604,-487 470,-487"/>
<text text-anchor="middle" x="537" y="-494" font-family="Helvetica,sans-Serif" font-size="10.00">DigitalNet.DigitalNetIterator</text>
</a>
</g>
<!-- Node3&#45;&gt;Node4 -->
<g id="edge6" class="edge"><title>Node3&#45;&gt;Node4</title>
<path fill="none" stroke="midnightblue" d="M441.336,-471.643C461.153,-476.896 481.956,-482.41 499.082,-486.949"/>
<polygon fill="midnightblue" stroke="midnightblue" points="441.962,-468.189 431.399,-469.009 440.169,-474.955 441.962,-468.189"/>
</g>
<!-- Node6 -->
<g id="node11" class="node"><title>Node6</title>
<a xlink:href="classumontreal_1_1ssj_1_1hups_1_1Rank1Lattice_1_1Rank1LatticeIterator.html" target="_top" xlink:title="Rank1Lattice.Rank1Lattice\lIterator">
<polygon fill="none" stroke="black" points="470,-437 470,-469 604,-469 604,-437 470,-437"/>
<text text-anchor="start" x="478" y="-456" font-family="Helvetica,sans-Serif" font-size="10.00">Rank1Lattice.Rank1Lattice</text>
<text text-anchor="middle" x="537" y="-444" font-family="Helvetica,sans-Serif" font-size="10.00">Iterator</text>
</a>
</g>
<!-- Node3&#45;&gt;Node6 -->
<g id="edge10" class="edge"><title>Node3&#45;&gt;Node6</title>
<path fill="none" stroke="midnightblue" d="M443.866,-453C452.557,-453 461.397,-453 469.999,-453"/>
<polygon fill="midnightblue" stroke="midnightblue" points="443.758,-449.5 433.757,-453 443.757,-456.5 443.758,-449.5"/>
</g>
<!-- Node5 -->
<g id="node9" class="node"><title>Node5</title>
<a xlink:href="classumontreal_1_1ssj_1_1hups_1_1DigitalNet_1_1DigitalNetIteratorNoGray.html" target="_top" xlink:title="DigitalNet.DigitalNetIterator\lNoGray">
<polygon fill="none" stroke="black" points="640,-481 640,-513 774,-513 774,-481 640,-481"/>
<text text-anchor="start" x="648" y="-500" font-family="Helvetica,sans-Serif" font-size="10.00">DigitalNet.DigitalNetIterator</text>
<text text-anchor="middle" x="707" y="-488" font-family="Helvetica,sans-Serif" font-size="10.00">NoGray</text>
</a>
</g>
<!-- Node4&#45;&gt;Node5 -->
<g id="edge8" class="edge"><title>Node4&#45;&gt;Node5</title>
<path fill="none" stroke="midnightblue" d="M614.425,-497C622.876,-497 631.428,-497 639.743,-497"/>
<polygon fill="midnightblue" stroke="midnightblue" points="614.189,-493.5 604.189,-497 614.188,-500.5 614.189,-493.5"/>
</g>
<!-- Node10 -->
<g id="node19" class="node"><title>Node10</title>
<a xlink:href="classumontreal_1_1ssj_1_1rng_1_1RandMrg.html" target="_top" xlink:title="USE MRG32k3a INSTEAD of this class. ">
<polygon fill="none" stroke="black" points="343,-268 343,-288 399,-288 399,-268 343,-268"/>
<text text-anchor="middle" x="371" y="-275" font-family="Helvetica,sans-Serif" font-size="10.00">RandMrg</text>
</a>
</g>
<!-- Node9&#45;&gt;Node10 -->
<g id="edge18" class="edge"><title>Node9&#45;&gt;Node10</title>
<path fill="none" stroke="midnightblue" d="M269.836,-278C295.622,-278 323.032,-278 342.807,-278"/>
<polygon fill="midnightblue" stroke="midnightblue" points="269.674,-274.5 259.674,-278 269.674,-281.5 269.674,-274.5"/>
</g>
<!-- Node11 -->
<g id="node21" class="node"><title>Node11</title>
<a xlink:href="classumontreal_1_1ssj_1_1rng_1_1RandomStreamBase.html" target="_top" xlink:title="This class provides a convenient foundation on which RNGs can be built. ">
<polygon fill="none" stroke="black" points="317.5,-219 317.5,-239 424.5,-239 424.5,-219 317.5,-219"/>
<text text-anchor="middle" x="371" y="-226" font-family="Helvetica,sans-Serif" font-size="10.00">RandomStreamBase</text>
</a>
</g>
<!-- Node9&#45;&gt;Node11 -->
<g id="edge20" class="edge"><title>Node9&#45;&gt;Node11</title>
<path fill="none" stroke="midnightblue" d="M247.716,-265.435C255.859,-263.351 264.171,-261.163 272,-259 294.504,-252.781 319.682,-245.142 339.015,-239.129"/>
<polygon fill="midnightblue" stroke="midnightblue" points="246.746,-262.07 237.909,-267.915 248.462,-268.856 246.746,-262.07"/>
</g>
<!-- Node12 -->
<g id="node23" class="node"><title>Node12</title>
<a xlink:href="classumontreal_1_1ssj_1_1rng_1_1GenF2w32.html" target="_top" xlink:title="Implements the RandomStream interface via inheritance from RandomStreamBase. ">
<polygon fill="none" stroke="black" points="505.5,-399 505.5,-419 568.5,-419 568.5,-399 505.5,-399"/>
<text text-anchor="middle" x="537" y="-406" font-family="Helvetica,sans-Serif" font-size="10.00">GenF2w32</text>
</a>
</g>
<!-- Node11&#45;&gt;Node12 -->
<g id="edge22" class="edge"><title>Node11&#45;&gt;Node12</title>
<path fill="none" stroke="midnightblue" d="M414.629,-243.647C421.887,-247.683 428.749,-252.731 434,-259 472.773,-305.287 427.478,-347.131 470,-390 479.281,-399.357 492.805,-404.19 505.276,-406.656"/>
<polygon fill="midnightblue" stroke="midnightblue" points="415.833,-240.338 405.315,-239.06 412.74,-246.618 415.833,-240.338"/>
</g>
<!-- Node13 -->
<g id="node25" class="node"><title>Node13</title>
<a xlink:href="classumontreal_1_1ssj_1_1rng_1_1LFSR113.html" target="_top" xlink:title="Extends RandomStreamBase using a composite linear feedback shift register (LFSR) (or Tausworthe) RNG ...">
<polygon fill="none" stroke="black" points="509,-361 509,-381 565,-381 565,-361 509,-361"/>
<text text-anchor="middle" x="537" y="-368" font-family="Helvetica,sans-Serif" font-size="10.00">LFSR113</text>
</a>
</g>
<!-- Node11&#45;&gt;Node13 -->
<g id="edge24" class="edge"><title>Node11&#45;&gt;Node13</title>
<path fill="none" stroke="midnightblue" d="M412.935,-243.451C420.667,-247.556 428.138,-252.68 434,-259 464.142,-291.495 437.237,-322.15 470,-352 480.546,-361.608 495.605,-366.396 508.776,-368.765"/>
<polygon fill="midnightblue" stroke="midnightblue" points="414.35,-240.248 403.819,-239.089 411.329,-246.562 414.35,-240.248"/>
</g>
<!-- Node14 -->
<g id="node27" class="node"><title>Node14</title>
<a xlink:href="classumontreal_1_1ssj_1_1rng_1_1LFSR258.html" target="_top" xlink:title="Extends RandomStreamBase using a 64&#45;bit composite linear feedback shift register (LFSR) (or Tausworth...">
<polygon fill="none" stroke="black" points="508.5,-323 508.5,-343 565.5,-343 565.5,-323 508.5,-323"/>
<text text-anchor="middle" x="537" y="-330" font-family="Helvetica,sans-Serif" font-size="10.00">LFSR258</text>
</a>
</g>
<!-- Node11&#45;&gt;Node14 -->
<g id="edge26" class="edge"><title>Node11&#45;&gt;Node14</title>
<path fill="none" stroke="midnightblue" d="M409.747,-243.353C418.288,-247.593 426.897,-252.797 434,-259 456.006,-278.216 446.459,-296.699 470,-314 481.107,-322.162 495.608,-326.823 508.278,-329.482"/>
<polygon fill="midnightblue" stroke="midnightblue" points="411.126,-240.135 400.579,-239.13 408.197,-246.493 411.126,-240.135"/>
</g>
<!-- Node15 -->
<g id="node29" class="node"><title>Node15</title>
<a xlink:href="classumontreal_1_1ssj_1_1rng_1_1MRG31k3p.html" target="_top" xlink:title="Extends the abstract class RandomStreamBase, thus implementing the RandomStream interface indirectly...">
<polygon fill="none" stroke="black" points="504.5,-285 504.5,-305 569.5,-305 569.5,-285 504.5,-285"/>
<text text-anchor="middle" x="537" y="-292" font-family="Helvetica,sans-Serif" font-size="10.00">MRG31k3p</text>
</a>
</g>
<!-- Node11&#45;&gt;Node15 -->
<g id="edge28" class="edge"><title>Node11&#45;&gt;Node15</title>
<path fill="none" stroke="midnightblue" d="M401.508,-243.52C430.265,-257.202 469.105,-275.663 470,-276 480.977,-280.129 493.255,-283.857 504.271,-286.895"/>
<polygon fill="midnightblue" stroke="midnightblue" points="402.745,-240.233 392.211,-239.097 399.737,-246.554 402.745,-240.233"/>
</g>
<!-- Node16 -->
<g id="node31" class="node"><title>Node16</title>
<a xlink:href="classumontreal_1_1ssj_1_1rng_1_1MRG32k3a.html" target="_top" xlink:title="Extends the abstract class RandomStreamBase by using as a backbone (or main) generator the combined m...">
<polygon fill="none" stroke="black" points="504.5,-247 504.5,-267 569.5,-267 569.5,-247 504.5,-247"/>
<text text-anchor="middle" x="537" y="-254" font-family="Helvetica,sans-Serif" font-size="10.00">MRG32k3a</text>
</a>
</g>
<!-- Node11&#45;&gt;Node16 -->
<g id="edge30" class="edge"><title>Node11&#45;&gt;Node16</title>
<path fill="none" stroke="midnightblue" d="M434.876,-239.774C458.534,-243.765 484.384,-248.125 504.157,-251.46"/>
<polygon fill="midnightblue" stroke="midnightblue" points="435.338,-236.303 424.895,-238.091 434.174,-243.205 435.338,-236.303"/>
</g>
<!-- Node17 -->
<g id="node33" class="node"><title>Node17</title>
<a xlink:href="classumontreal_1_1ssj_1_1rng_1_1MRG32k3aL.html" target="_top" xlink:title="The same generator as MRG32k3a, except here it is implemented with type long instead of double...">
<polygon fill="none" stroke="black" points="501.5,-209 501.5,-229 572.5,-229 572.5,-209 501.5,-209"/>
<text text-anchor="middle" x="537" y="-216" font-family="Helvetica,sans-Serif" font-size="10.00">MRG32k3aL</text>
</a>
</g>
<!-- Node11&#45;&gt;Node17 -->
<g id="edge32" class="edge"><title>Node11&#45;&gt;Node17</title>
<path fill="none" stroke="midnightblue" d="M435.081,-225.14C457.605,-223.783 482.092,-222.308 501.418,-221.143"/>
<polygon fill="midnightblue" stroke="midnightblue" points="434.667,-221.658 424.895,-225.753 435.088,-228.646 434.667,-221.658"/>
</g>
<!-- Node18 -->
<g id="node35" class="node"><title>Node18</title>
<a xlink:href="classumontreal_1_1ssj_1_1rng_1_1MT19937.html" target="_top" xlink:title="Implements the RandomStream interface via inheritance from RandomStreamBase. ">
<polygon fill="none" stroke="black" points="508.5,-171 508.5,-191 565.5,-191 565.5,-171 508.5,-171"/>
<text text-anchor="middle" x="537" y="-178" font-family="Helvetica,sans-Serif" font-size="10.00">MT19937</text>
</a>
</g>
<!-- Node11&#45;&gt;Node18 -->
<g id="edge34" class="edge"><title>Node11&#45;&gt;Node18</title>
<path fill="none" stroke="midnightblue" d="M414.677,-216.118C431.905,-211.059 451.874,-205.225 470,-200 482.547,-196.383 496.432,-192.437 508.293,-189.082"/>
<polygon fill="midnightblue" stroke="midnightblue" points="413.493,-212.818 404.885,-218.996 415.466,-219.534 413.493,-212.818"/>
</g>
<!-- Node19 -->
<g id="node37" class="node"><title>Node19</title>
<a xlink:href="classumontreal_1_1ssj_1_1rng_1_1RandRijndael.html" target="_top" xlink:title="Implements a RNG using the Rijndael block cipher algorithm (AES) with key and block lengths of 128 bi...">
<polygon fill="none" stroke="black" points="500,-133 500,-153 574,-153 574,-133 500,-133"/>
<text text-anchor="middle" x="537" y="-140" font-family="Helvetica,sans-Serif" font-size="10.00">RandRijndael</text>
</a>
</g>
<!-- Node11&#45;&gt;Node19 -->
<g id="edge36" class="edge"><title>Node11&#45;&gt;Node19</title>
<path fill="none" stroke="midnightblue" d="M391.046,-212.598C410.27,-197.58 440.631,-175.671 470,-162 479.317,-157.663 489.833,-154.112 499.726,-151.302"/>
<polygon fill="midnightblue" stroke="midnightblue" points="388.693,-209.998 383.041,-218.959 393.047,-215.478 388.693,-209.998"/>
</g>
<!-- Node20 -->
<g id="node39" class="node"><title>Node20</title>
<a xlink:href="classumontreal_1_1ssj_1_1rng_1_1WELL1024.html" target="_top" xlink:title="Implements the RandomStream interface via inheritance from RandomStreamBase. ">
<polygon fill="none" stroke="black" points="505,-95 505,-115 569,-115 569,-95 505,-95"/>
<text text-anchor="middle" x="537" y="-102" font-family="Helvetica,sans-Serif" font-size="10.00">WELL1024</text>
</a>
</g>
<!-- Node11&#45;&gt;Node20 -->
<g id="edge38" class="edge"><title>Node11&#45;&gt;Node20</title>
<path fill="none" stroke="midnightblue" d="M383.52,-210.51C400.423,-186.959 432.752,-146.61 470,-124 480.542,-117.601 493.32,-113.285 504.878,-110.407"/>
<polygon fill="midnightblue" stroke="midnightblue" points="380.499,-208.722 377.628,-218.92 386.233,-212.738 380.499,-208.722"/>
</g>
<!-- Node21 -->
<g id="node41" class="node"><title>Node21</title>
<a xlink:href="classumontreal_1_1ssj_1_1rng_1_1WELL512.html" target="_top" xlink:title="This class implements the RandomStream interface via inheritance from RandomStreamBase. ">
<polygon fill="none" stroke="black" points="507.5,-57 507.5,-77 566.5,-77 566.5,-57 507.5,-57"/>
<text text-anchor="middle" x="537" y="-64" font-family="Helvetica,sans-Serif" font-size="10.00">WELL512</text>
</a>
</g>
<!-- Node11&#45;&gt;Node21 -->
<g id="edge40" class="edge"><title>Node11&#45;&gt;Node21</title>
<path fill="none" stroke="midnightblue" d="M379.118,-209.64C393.068,-178.754 424.542,-118.507 470,-86 480.917,-78.1935 494.963,-73.5847 507.372,-70.8681"/>
<polygon fill="midnightblue" stroke="midnightblue" points="375.866,-208.342 375.064,-218.906 382.279,-211.148 375.866,-208.342"/>
</g>
<!-- Node22 -->
<g id="node43" class="node"><title>Node22</title>
<a xlink:href="classumontreal_1_1ssj_1_1rng_1_1WELL607base.html" target="_top" xlink:title="WELL607base">
<polygon fill="none" stroke="black" points="497,-19 497,-39 577,-39 577,-19 497,-19"/>
<text text-anchor="middle" x="537" y="-26" font-family="Helvetica,sans-Serif" font-size="10.00">WELL607base</text>
</a>
</g>
<!-- Node11&#45;&gt;Node22 -->
<g id="edge42" class="edge"><title>Node11&#45;&gt;Node22</title>
<path fill="none" stroke="midnightblue" d="M376.225,-209.315C387.147,-172.053 415.972,-91.0953 470,-48 477.751,-41.8177 487.41,-37.6465 496.961,-34.8324"/>
<polygon fill="midnightblue" stroke="midnightblue" points="372.841,-208.42 373.508,-218.993 379.581,-210.312 372.841,-208.42"/>
</g>
<!-- Node23 -->
<g id="node45" class="node"><title>Node23</title>
<a xlink:href="classumontreal_1_1ssj_1_1rng_1_1F2NL607.html" target="_top" xlink:title="Implements the RandomStream interface by using as a backbone generator the combination of the WELL607...">
<polygon fill="none" stroke="black" points="679,-38 679,-58 735,-58 735,-38 679,-38"/>
<text text-anchor="middle" x="707" y="-45" font-family="Helvetica,sans-Serif" font-size="10.00">F2NL607</text>
</a>
</g>
<!-- Node22&#45;&gt;Node23 -->
<g id="edge44" class="edge"><title>Node22&#45;&gt;Node23</title>
<path fill="none" stroke="midnightblue" d="M587.545,-34.6491C617.438,-37.9901 654.175,-42.096 678.953,-44.8654"/>
<polygon fill="midnightblue" stroke="midnightblue" points="587.615,-31.1352 577.288,-33.5027 586.837,-38.0919 587.615,-31.1352"/>
</g>
<!-- Node24 -->
<g id="node47" class="node"><title>Node24</title>
<a xlink:href="classumontreal_1_1ssj_1_1rng_1_1WELL607.html" target="_top" xlink:title="This class implements the RandomStream interface via inheritance from RandomStreamBase. ">
<polygon fill="none" stroke="black" points="677.5,-0 677.5,-20 736.5,-20 736.5,-0 677.5,-0"/>
<text text-anchor="middle" x="707" y="-7" font-family="Helvetica,sans-Serif" font-size="10.00">WELL607</text>
</a>
</g>
<!-- Node22&#45;&gt;Node24 -->
<g id="edge46" class="edge"><title>Node22&#45;&gt;Node24</title>
<path fill="none" stroke="midnightblue" d="M587.346,-23.3731C616.647,-20.0983 652.577,-16.0825 677.375,-13.3111"/>
<polygon fill="midnightblue" stroke="midnightblue" points="586.837,-19.9081 577.288,-24.4973 587.615,-26.8648 586.837,-19.9081"/>
</g>
</g>
</svg>
        <g id="navigator" transform="translate(0 0)" fill="#404254">
                <rect fill="#f2f5e9" fill-opacity="0.5" stroke="#606060" stroke-width=".5" x="0" y="0" width="60" height="60"/>
                <use id="zoomplus" xlink:href="#zoomPlus" x="17" y="9" onmousedown="handleZoom(evt,'in')"/>
                <use id="zoomminus" xlink:href="#zoomMin" x="42" y="9" onmousedown="handleZoom(evt,'out')"/>
                <use id="reset" xlink:href="#resetDef" x="30" y="36" onmousedown="handleReset()"/>
                <g id="arrowUp" xlink:href="#dirArrow" transform="translate(30 24)" onmousedown="handlePan(0,-1)">
                  <use xlink:href="#rim" fill="#404040">
                        <set attributeName="fill" to="#808080" begin="arrowUp.mouseover" end="arrowUp.mouseout"/>
                  </use>
                  <path fill="none" stroke="white" stroke-width="1.5" d="M0,-3.0v7 M-2.5,-0.5L0,-3.0L2.5,-0.5"/>
                </g>
                <g id="arrowRight" xlink:href="#dirArrow" transform="rotate(90) translate(36 -43)" onmousedown="handlePan(1,0)">
                  <use xlink:href="#rim" fill="#404040">
                        <set attributeName="fill" to="#808080" begin="arrowRight.mouseover" end="arrowRight.mouseout"/>
                  </use>
                  <path fill="none" stroke="white" stroke-width="1.5" d="M0,-3.0v7 M-2.5,-0.5L0,-3.0L2.5,-0.5"/>
                </g>
                <g id="arrowDown" xlink:href="#dirArrow" transform="rotate(180) translate(-30 -48)" onmousedown="handlePan(0,1)">
                  <use xlink:href="#rim" fill="#404040">
                        <set attributeName="fill" to="#808080" begin="arrowDown.mouseover" end="arrowDown.mouseout"/>
                  </use>
                  <path fill="none" stroke="white" stroke-width="1.5" d="M0,-3.0v7 M-2.5,-0.5L0,-3.0L2.5,-0.5"/>
                </g>
                <g id="arrowLeft" xlink:href="#dirArrow" transform="rotate(270) translate(-36 17)" onmousedown="handlePan(-1,0)">
                  <use xlink:href="#rim" fill="#404040">
                        <set attributeName="fill" to="#808080" begin="arrowLeft.mouseover" end="arrowLeft.mouseout"/>
                  </use>
                  <path fill="none" stroke="white" stroke-width="1.5" d="M0,-3.0v7 M-2.5,-0.5L0,-3.0L2.5,-0.5"/>
                </g>
        </g>
        <svg viewBox="0 0 15 15" width="100%" height="30px" preserveAspectRatio="xMaxYMin meet">
         <g id="arrow_out" transform="scale(0.3 0.3)">
          <a xlink:href="interfaceumontreal_1_1ssj_1_1rng_1_1RandomStream__inherit__graph_org.svg" target="_base">
           <rect id="button" ry="5" rx="5" y="6" x="6" height="38" width="38"
                fill="#f2f5e9" fill-opacity="0.5" stroke="#606060" stroke-width="1.0"/>
           <path id="arrow"
             d="M 11.500037,31.436501 C 11.940474,20.09759 22.043105,11.32322 32.158766,21.979434 L 37.068811,17.246167 C 37.068811,17.246167 37.088388,32 37.088388,32 L 22.160133,31.978069 C 22.160133,31.978069 26.997745,27.140456 26.997745,27.140456 C 18.528582,18.264221 13.291696,25.230495 11.500037,31.436501 z"
             style="fill:#404040;"/>
          </a>
         </g>
        </svg>
</svg>
