<?xml version="1.0" encoding="UTF-8" standalone="no"?>
<!DOCTYPE svg PUBLIC "-//W3C//DTD SVG 1.1//EN"
 "http://www.w3.org/Graphics/SVG/1.1/DTD/svg11.dtd">
<!-- Generated by graphviz version 2.38.0 (20140413.2041)
 -->
<!-- Title: PointSetIterator Pages: 1 -->
<svg width="725pt" height="176pt"
 viewBox="0.00 0.00 725.00 176.00" xmlns="http://www.w3.org/2000/svg" xmlns:xlink="http://www.w3.org/1999/xlink">
<g id="graph0" class="graph" transform="scale(1 1) rotate(0) translate(4 172)">
<title>PointSetIterator</title>
<!-- Node0 -->
<g id="node1" class="node"><title>Node0</title>
<polygon fill="#bfbfbf" stroke="black" points="120,-77 120,-96 204,-96 204,-77 120,-77"/>
<text text-anchor="middle" x="162" y="-84" font-family="Helvetica,sans-Serif" font-size="10.00">PointSetIterator</text>
</g>
<!-- Node2 -->
<g id="node3" class="node"><title>Node2</title>
<g id="a_node3"><a xlink:href="classumontreal_1_1ssj_1_1hups_1_1PointSet_1_1DefaultPointSetIterator.html" target="_top" xlink:title="This class implements a default point set iterator. ">
<polygon fill="none" stroke="black" points="240,-71.5 240,-101.5 365,-101.5 365,-71.5 240,-71.5"/>
<text text-anchor="start" x="248" y="-89.5" font-family="Helvetica,sans-Serif" font-size="10.00">PointSet.DefaultPointSet</text>
<text text-anchor="middle" x="302.5" y="-78.5" font-family="Helvetica,sans-Serif" font-size="10.00">Iterator</text>
</a>
</g>
</g>
<!-- Node0&#45;&gt;Node2 -->
<g id="edge2" class="edge"><title>Node0&#45;&gt;Node2</title>
<path fill="none" stroke="midnightblue" d="M214.191,-86.5C222.583,-86.5 231.355,-86.5 239.967,-86.5"/>
<polygon fill="midnightblue" stroke="midnightblue" points="214.18,-83.0001 204.18,-86.5 214.18,-90.0001 214.18,-83.0001"/>
</g>
<!-- Node1 -->
<g id="node2" class="node"><title>Node1</title>
<g id="a_node2"><a xlink:href="interfaceumontreal_1_1ssj_1_1rng_1_1RandomStream.html" target="_top" xlink:title="This interface defines the basic structures to handle multiple streams of uniform (pseudo)random numb...">
<polygon fill="none" stroke="black" points="0,-77 0,-96 84,-96 84,-77 0,-77"/>
<text text-anchor="middle" x="42" y="-84" font-family="Helvetica,sans-Serif" font-size="10.00">RandomStream</text>
</a>
</g>
</g>
<!-- Node1&#45;&gt;Node0 -->
<g id="edge1" class="edge"><title>Node1&#45;&gt;Node0</title>
<path fill="none" stroke="midnightblue" d="M94.5014,-86.5C103.015,-86.5 111.74,-86.5 119.952,-86.5"/>
<polygon fill="midnightblue" stroke="midnightblue" points="94.2707,-83.0001 84.2707,-86.5 94.2706,-90.0001 94.2707,-83.0001"/>
</g>
<!-- Node3 -->
<g id="node4" class="node"><title>Node3</title>
<g id="a_node4"><a xlink:href="classumontreal_1_1ssj_1_1hups_1_1CachedPointSet_1_1CachedPointSetIterator.html" target="_top" xlink:title="This class implements a CachedPointSet iterator which takes the value directly in the array x in whic...">
<polygon fill="none" stroke="black" points="401,-137.5 401,-167.5 547,-167.5 547,-137.5 401,-137.5"/>
<text text-anchor="start" x="409" y="-155.5" font-family="Helvetica,sans-Serif" font-size="10.00">CachedPointSet.CachedPoint</text>
<text text-anchor="middle" x="474" y="-144.5" font-family="Helvetica,sans-Serif" font-size="10.00">SetIterator</text>
</a>
</g>
</g>
<!-- Node2&#45;&gt;Node3 -->
<g id="edge3" class="edge"><title>Node2&#45;&gt;Node3</title>
<path fill="none" stroke="midnightblue" d="M347.514,-105.711C364.174,-112.797 383.371,-120.741 401,-127.5 409.772,-130.863 419.217,-134.284 428.286,-137.472"/>
<polygon fill="midnightblue" stroke="midnightblue" points="348.599,-102.368 338.028,-101.653 345.846,-108.804 348.599,-102.368"/>
</g>
<!-- Node4 -->
<g id="node5" class="node"><title>Node4</title>
<g id="a_node5"><a xlink:href="classumontreal_1_1ssj_1_1hups_1_1DigitalNet_1_1DigitalNetIterator.html" target="_top" xlink:title="DigitalNet.DigitalNetIterator">
<polygon fill="none" stroke="black" points="407,-99 407,-118 541,-118 541,-99 407,-99"/>
<text text-anchor="middle" x="474" y="-106" font-family="Helvetica,sans-Serif" font-size="10.00">DigitalNet.DigitalNetIterator</text>
</a>
</g>
</g>
<!-- Node2&#45;&gt;Node4 -->
<g id="edge4" class="edge"><title>Node2&#45;&gt;Node4</title>
<path fill="none" stroke="midnightblue" d="M375.135,-95.7978C385.637,-97.1609 396.414,-98.5597 406.8,-99.9077"/>
<polygon fill="midnightblue" stroke="midnightblue" points="375.54,-92.3211 365.173,-94.5047 374.639,-99.2629 375.54,-92.3211"/>
</g>
<!-- Node6 -->
<g id="node7" class="node"><title>Node6</title>
<g id="a_node7"><a xlink:href="classumontreal_1_1ssj_1_1hups_1_1Rank1Lattice_1_1Rank1LatticeIterator.html" target="_top" xlink:title="Rank1Lattice.Rank1Lattice\lIterator">
<polygon fill="none" stroke="black" points="407,-49.5 407,-79.5 541,-79.5 541,-49.5 407,-49.5"/>
<text text-anchor="start" x="415" y="-67.5" font-family="Helvetica,sans-Serif" font-size="10.00">Rank1Lattice.Rank1Lattice</text>
<text text-anchor="middle" x="474" y="-56.5" font-family="Helvetica,sans-Serif" font-size="10.00">Iterator</text>
</a>
</g>
</g>
<!-- Node2&#45;&gt;Node6 -->
<g id="edge6" class="edge"><title>Node2&#45;&gt;Node6</title>
<path fill="none" stroke="midnightblue" d="M375.135,-77.2022C385.637,-75.8391 396.414,-74.4403 406.8,-73.0923"/>
<polygon fill="midnightblue" stroke="midnightblue" points="374.639,-73.7371 365.173,-78.4953 375.54,-80.6789 374.639,-73.7371"/>
</g>
<!-- Node7 -->
<g id="node8" class="node"><title>Node7</title>
<g id="a_node8"><a xlink:href="classumontreal_1_1ssj_1_1hups_1_1SortedAndCutPointSet_1_1SortedAndCutPointSetIterator.html" target="_top" xlink:title="SortedAndCutPointSet.Sorted\lAndCutPointSetIterator">
<polygon fill="none" stroke="black" points="401,-0.5 401,-30.5 547,-30.5 547,-0.5 401,-0.5"/>
<text text-anchor="start" x="409" y="-18.5" font-family="Helvetica,sans-Serif" font-size="10.00">SortedAndCutPointSet.Sorted</text>
<text text-anchor="middle" x="474" y="-7.5" font-family="Helvetica,sans-Serif" font-size="10.00">AndCutPointSetIterator</text>
</a>
</g>
</g>
<!-- Node2&#45;&gt;Node7 -->
<g id="edge7" class="edge"><title>Node2&#45;&gt;Node7</title>
<path fill="none" stroke="midnightblue" d="M341.446,-66.8177C359.282,-57.9278 380.983,-47.6224 401,-39.5 408.692,-36.3789 416.958,-33.3405 425.051,-30.533"/>
<polygon fill="midnightblue" stroke="midnightblue" points="339.86,-63.6972 332.501,-71.3184 343.007,-69.9504 339.86,-63.6972"/>
</g>
<!-- Node5 -->
<g id="node6" class="node"><title>Node5</title>
<g id="a_node6"><a xlink:href="classumontreal_1_1ssj_1_1hups_1_1DigitalNet_1_1DigitalNetIteratorNoGray.html" target="_top" xlink:title="DigitalNet.DigitalNetIterator\lNoGray">
<polygon fill="none" stroke="black" points="583,-93.5 583,-123.5 717,-123.5 717,-93.5 583,-93.5"/>
<text text-anchor="start" x="591" y="-111.5" font-family="Helvetica,sans-Serif" font-size="10.00">DigitalNet.DigitalNetIterator</text>
<text text-anchor="middle" x="650" y="-100.5" font-family="Helvetica,sans-Serif" font-size="10.00">NoGray</text>
</a>
</g>
</g>
<!-- Node4&#45;&gt;Node5 -->
<g id="edge5" class="edge"><title>Node4&#45;&gt;Node5</title>
<path fill="none" stroke="midnightblue" d="M551.293,-108.5C561.828,-108.5 572.576,-108.5 582.906,-108.5"/>
<polygon fill="midnightblue" stroke="midnightblue" points="551.278,-105 541.278,-108.5 551.278,-112 551.278,-105"/>
</g>
</g>
</svg>
