<?xml version="1.0" encoding="UTF-8" standalone="no"?>
<!DOCTYPE svg PUBLIC "-//W3C//DTD SVG 1.1//EN"
 "http://www.w3.org/Graphics/SVG/1.1/DTD/svg11.dtd">
<!-- Generated by graphviz version 2.38.0 (20140413.2041)
 -->
<!-- Title: RandomStream Pages: 1 -->
<svg width="851pt" height="483pt"
 viewBox="0.00 0.00 851.00 482.50" xmlns="http://www.w3.org/2000/svg" xmlns:xlink="http://www.w3.org/1999/xlink">
<g id="graph0" class="graph" transform="scale(1 1) rotate(0) translate(4 478.5)">
<title>RandomStream</title>
<!-- Node1 -->
<g id="node1" class="node"><title>Node1</title>
<polygon fill="#bfbfbf" stroke="black" points="0,-258.5 0,-277.5 92,-277.5 92,-258.5 0,-258.5"/>
<text text-anchor="middle" x="46" y="-265.5" font-family="Helvetica,sans-Serif" font-size="10.00">RandomStream</text>
</g>
<!-- Node2 -->
<g id="node2" class="node"><title>Node2</title>
<g id="a_node2"><a xlink:href="interfaceumontreal_1_1ssj_1_1hups_1_1PointSetIterator.html" target="_top" xlink:title="Objects of classes that implement this interface are iterators that permit one to enumerate (or obser...">
<polygon fill="none" stroke="black" points="161.5,-383.5 161.5,-402.5 254.5,-402.5 254.5,-383.5 161.5,-383.5"/>
<text text-anchor="middle" x="208" y="-390.5" font-family="Helvetica,sans-Serif" font-size="10.00">PointSetIterator</text>
</a>
</g>
</g>
<!-- Node1&#45;&gt;Node2 -->
<g id="edge1" class="edge"><title>Node1&#45;&gt;Node2</title>
<path fill="none" stroke="midnightblue" d="M58.5233,-286.435C72.5813,-307.571 98.1933,-341.996 128,-363 140.712,-371.958 156.441,-378.641 170.51,-383.397"/>
<polygon fill="midnightblue" stroke="midnightblue" points="61.2764,-284.248 52.9036,-277.756 55.4004,-288.052 61.2764,-284.248"/>
</g>
<!-- Node7 -->
<g id="node7" class="node"><title>Node7</title>
<g id="a_node7"><a xlink:href="classumontreal_1_1ssj_1_1rng_1_1AntitheticStream.html" target="_top" xlink:title="This container class allows the user to force any RandomStream to return antithetic variates...">
<polygon fill="none" stroke="black" points="158.5,-334.5 158.5,-353.5 257.5,-353.5 257.5,-334.5 158.5,-334.5"/>
<text text-anchor="middle" x="208" y="-341.5" font-family="Helvetica,sans-Serif" font-size="10.00">AntitheticStream</text>
</a>
</g>
</g>
<!-- Node1&#45;&gt;Node7 -->
<g id="edge6" class="edge"><title>Node1&#45;&gt;Node7</title>
<path fill="none" stroke="midnightblue" d="M65.5451,-284.147C81.2031,-296.985 104.732,-314.48 128,-325 137.512,-329.3 148.125,-332.702 158.409,-335.366"/>
<polygon fill="midnightblue" stroke="midnightblue" points="67.617,-281.316 57.7076,-277.568 63.1163,-286.678 67.617,-281.316"/>
</g>
<!-- Node8 -->
<g id="node8" class="node"><title>Node8</title>
<g id="a_node8"><a xlink:href="classumontreal_1_1ssj_1_1rng_1_1BakerTransformedStream.html" target="_top" xlink:title="This container class permits one to apply the baker’s transformation to the output of any RandomStre...">
<polygon fill="none" stroke="black" points="136.5,-296.5 136.5,-315.5 279.5,-315.5 279.5,-296.5 136.5,-296.5"/>
<text text-anchor="middle" x="208" y="-303.5" font-family="Helvetica,sans-Serif" font-size="10.00">BakerTransformedStream</text>
</a>
</g>
</g>
<!-- Node1&#45;&gt;Node8 -->
<g id="edge7" class="edge"><title>Node1&#45;&gt;Node8</title>
<path fill="none" stroke="midnightblue" d="M97.3915,-279.968C119.813,-285.293 145.847,-291.476 166.916,-296.48"/>
<polygon fill="midnightblue" stroke="midnightblue" points="97.9129,-276.495 87.3748,-277.589 96.2953,-283.305 97.9129,-276.495"/>
</g>
<!-- Node9 -->
<g id="node9" class="node"><title>Node9</title>
<g id="a_node9"><a xlink:href="interfaceumontreal_1_1ssj_1_1rng_1_1CloneableRandomStream.html" target="_top" xlink:title="CloneableRandomStream extends RandomStream and Cloneable. ">
<polygon fill="none" stroke="black" points="137.5,-258.5 137.5,-277.5 278.5,-277.5 278.5,-258.5 137.5,-258.5"/>
<text text-anchor="middle" x="208" y="-265.5" font-family="Helvetica,sans-Serif" font-size="10.00">CloneableRandomStream</text>
</a>
</g>
</g>
<!-- Node1&#45;&gt;Node9 -->
<g id="edge8" class="edge"><title>Node1&#45;&gt;Node9</title>
<path fill="none" stroke="midnightblue" d="M102.488,-268C113.698,-268 125.62,-268 137.247,-268"/>
<polygon fill="midnightblue" stroke="midnightblue" points="102.422,-264.5 92.4216,-268 102.422,-271.5 102.422,-264.5"/>
</g>
<!-- Node24 -->
<g id="node24" class="node"><title>Node24</title>
<g id="a_node24"><a xlink:href="classumontreal_1_1ssj_1_1rng_1_1RandomStreamWithCache.html" target="_top" xlink:title="This class represents a random stream whose uniforms are cached for more efficiency when using common...">
<polygon fill="none" stroke="black" points="135.5,-220.5 135.5,-239.5 280.5,-239.5 280.5,-220.5 135.5,-220.5"/>
<text text-anchor="middle" x="208" y="-227.5" font-family="Helvetica,sans-Serif" font-size="10.00">RandomStreamWithCache</text>
</a>
</g>
</g>
<!-- Node1&#45;&gt;Node24 -->
<g id="edge23" class="edge"><title>Node1&#45;&gt;Node24</title>
<path fill="none" stroke="midnightblue" d="M97.3915,-256.032C119.813,-250.707 145.847,-244.524 166.916,-239.52"/>
<polygon fill="midnightblue" stroke="midnightblue" points="96.2953,-252.695 87.3748,-258.411 97.9129,-259.505 96.2953,-252.695"/>
</g>
<!-- Node25 -->
<g id="node25" class="node"><title>Node25</title>
<g id="a_node25"><a xlink:href="classumontreal_1_1ssj_1_1rng_1_1TruncatedRandomStream.html" target="_top" xlink:title="Represents a container random stream generating numbers in an interval &#160;instead of in ...">
<polygon fill="none" stroke="black" points="137.5,-182.5 137.5,-201.5 278.5,-201.5 278.5,-182.5 137.5,-182.5"/>
<text text-anchor="middle" x="208" y="-189.5" font-family="Helvetica,sans-Serif" font-size="10.00">TruncatedRandomStream</text>
</a>
</g>
</g>
<!-- Node1&#45;&gt;Node25 -->
<g id="edge24" class="edge"><title>Node1&#45;&gt;Node25</title>
<path fill="none" stroke="midnightblue" d="M65.5451,-251.853C81.2031,-239.015 104.732,-221.52 128,-211 136.483,-207.164 145.844,-204.044 155.064,-201.524"/>
<polygon fill="midnightblue" stroke="midnightblue" points="63.1163,-249.322 57.7076,-258.432 67.617,-254.684 63.1163,-249.322"/>
</g>
<!-- Node26 -->
<g id="node26" class="node"><title>Node26</title>
<g id="a_node26"><a xlink:href="classumontreal_1_1ssj_1_1stochprocess_1_1InverseGaussianProcessMSH_1_1NonRandomStream.html" target="_top" xlink:title="NonRandomStream: Given a double array, this class will return those values as if it where a random st...">
<polygon fill="none" stroke="black" points="128,-133 128,-163 288,-163 288,-133 128,-133"/>
<text text-anchor="start" x="136" y="-151" font-family="Helvetica,sans-Serif" font-size="10.00">InverseGaussianProcessMSH.</text>
<text text-anchor="middle" x="208" y="-140" font-family="Helvetica,sans-Serif" font-size="10.00">NonRandomStream</text>
</a>
</g>
</g>
<!-- Node1&#45;&gt;Node26 -->
<g id="edge25" class="edge"><title>Node1&#45;&gt;Node26</title>
<path fill="none" stroke="midnightblue" d="M57.919,-249.883C71.6911,-228.52 97.3183,-193.349 128,-173 133.754,-169.183 140.128,-165.919 146.687,-163.134"/>
<polygon fill="midnightblue" stroke="midnightblue" points="54.9469,-248.035 52.6058,-258.368 60.8797,-251.75 54.9469,-248.035"/>
</g>
<!-- Node3 -->
<g id="node3" class="node"><title>Node3</title>
<g id="a_node3"><a xlink:href="classumontreal_1_1ssj_1_1hups_1_1PointSet_1_1DefaultPointSetIterator.html" target="_top" xlink:title="PointSet.DefaultPointSet\lIterator">
<polygon fill="none" stroke="black" points="324,-400 324,-430 461,-430 461,-400 324,-400"/>
<text text-anchor="start" x="332" y="-418" font-family="Helvetica,sans-Serif" font-size="10.00">PointSet.DefaultPointSet</text>
<text text-anchor="middle" x="392.5" y="-407" font-family="Helvetica,sans-Serif" font-size="10.00">Iterator</text>
</a>
</g>
</g>
<!-- Node2&#45;&gt;Node3 -->
<g id="edge2" class="edge"><title>Node2&#45;&gt;Node3</title>
<path fill="none" stroke="midnightblue" d="M264.671,-399.711C283.312,-401.958 304.302,-404.488 323.761,-406.834"/>
<polygon fill="midnightblue" stroke="midnightblue" points="264.929,-396.217 254.582,-398.495 264.091,-403.167 264.929,-396.217"/>
</g>
<!-- Node4 -->
<g id="node4" class="node"><title>Node4</title>
<g id="a_node4"><a xlink:href="classumontreal_1_1ssj_1_1hups_1_1DigitalNet_1_1DigitalNetIterator.html" target="_top" xlink:title="DigitalNet.DigitalNetIterator">
<polygon fill="none" stroke="black" points="497,-449.5 497,-468.5 652,-468.5 652,-449.5 497,-449.5"/>
<text text-anchor="middle" x="574.5" y="-456.5" font-family="Helvetica,sans-Serif" font-size="10.00">DigitalNet.DigitalNetIterator</text>
</a>
</g>
</g>
<!-- Node3&#45;&gt;Node4 -->
<g id="edge3" class="edge"><title>Node3&#45;&gt;Node4</title>
<path fill="none" stroke="midnightblue" d="M464.667,-432.396C488.493,-438.221 514.163,-444.495 534.586,-449.488"/>
<polygon fill="midnightblue" stroke="midnightblue" points="465.487,-428.994 454.942,-430.019 463.825,-435.794 465.487,-428.994"/>
</g>
<!-- Node6 -->
<g id="node6" class="node"><title>Node6</title>
<g id="a_node6"><a xlink:href="classumontreal_1_1ssj_1_1hups_1_1Rank1Lattice_1_1Rank1LatticeIterator.html" target="_top" xlink:title="Rank1Lattice.Rank1Lattice\lIterator">
<polygon fill="none" stroke="black" points="501,-400 501,-430 648,-430 648,-400 501,-400"/>
<text text-anchor="start" x="509" y="-418" font-family="Helvetica,sans-Serif" font-size="10.00">Rank1Lattice.Rank1Lattice</text>
<text text-anchor="middle" x="574.5" y="-407" font-family="Helvetica,sans-Serif" font-size="10.00">Iterator</text>
</a>
</g>
</g>
<!-- Node3&#45;&gt;Node6 -->
<g id="edge5" class="edge"><title>Node3&#45;&gt;Node6</title>
<path fill="none" stroke="midnightblue" d="M471.18,-415C481.002,-415 491.023,-415 500.763,-415"/>
<polygon fill="midnightblue" stroke="midnightblue" points="471.038,-411.5 461.037,-415 471.037,-418.5 471.038,-411.5"/>
</g>
<!-- Node5 -->
<g id="node5" class="node"><title>Node5</title>
<g id="a_node5"><a xlink:href="classumontreal_1_1ssj_1_1hups_1_1DigitalNet_1_1DigitalNetIteratorNoGray.html" target="_top" xlink:title="DigitalNet.DigitalNetIterator\lNoGray">
<polygon fill="none" stroke="black" points="688,-444 688,-474 843,-474 843,-444 688,-444"/>
<text text-anchor="start" x="696" y="-462" font-family="Helvetica,sans-Serif" font-size="10.00">DigitalNet.DigitalNetIterator</text>
<text text-anchor="middle" x="765.5" y="-451" font-family="Helvetica,sans-Serif" font-size="10.00">NoGray</text>
</a>
</g>
</g>
<!-- Node4&#45;&gt;Node5 -->
<g id="edge4" class="edge"><title>Node4&#45;&gt;Node5</title>
<path fill="none" stroke="midnightblue" d="M662.104,-459C670.674,-459 679.33,-459 687.79,-459"/>
<polygon fill="midnightblue" stroke="midnightblue" points="662.101,-455.5 652.101,-459 662.101,-462.5 662.101,-455.5"/>
</g>
<!-- Node10 -->
<g id="node10" class="node"><title>Node10</title>
<g id="a_node10"><a xlink:href="classumontreal_1_1ssj_1_1rng_1_1RandMrg.html" target="_top" xlink:title="USE MRG32k3a INSTEAD of this class. ">
<polygon fill="none" stroke="black" points="363,-258.5 363,-277.5 422,-277.5 422,-258.5 363,-258.5"/>
<text text-anchor="middle" x="392.5" y="-265.5" font-family="Helvetica,sans-Serif" font-size="10.00">RandMrg</text>
</a>
</g>
</g>
<!-- Node9&#45;&gt;Node10 -->
<g id="edge9" class="edge"><title>Node9&#45;&gt;Node10</title>
<path fill="none" stroke="midnightblue" d="M288.546,-268C314.936,-268 342.653,-268 362.672,-268"/>
<polygon fill="midnightblue" stroke="midnightblue" points="288.516,-264.5 278.516,-268 288.516,-271.5 288.516,-264.5"/>
</g>
<!-- Node11 -->
<g id="node11" class="node"><title>Node11</title>
<g id="a_node11"><a xlink:href="classumontreal_1_1ssj_1_1rng_1_1RandomStreamBase.html" target="_top" xlink:title="This class provides a convenient foundation on which RNGs can be built. ">
<polygon fill="none" stroke="black" points="334.5,-209.5 334.5,-228.5 450.5,-228.5 450.5,-209.5 334.5,-209.5"/>
<text text-anchor="middle" x="392.5" y="-216.5" font-family="Helvetica,sans-Serif" font-size="10.00">RandomStreamBase</text>
</a>
</g>
</g>
<!-- Node9&#45;&gt;Node11 -->
<g id="edge10" class="edge"><title>Node9&#45;&gt;Node11</title>
<path fill="none" stroke="midnightblue" d="M260.043,-256.089C269.363,-253.81 278.988,-251.389 288,-249 312.233,-242.578 339.454,-234.659 359.897,-228.57"/>
<polygon fill="midnightblue" stroke="midnightblue" points="258.989,-252.743 250.093,-258.497 260.636,-259.546 258.989,-252.743"/>
</g>
<!-- Node12 -->
<g id="node12" class="node"><title>Node12</title>
<g id="a_node12"><a xlink:href="classumontreal_1_1ssj_1_1rng_1_1GenF2w32.html" target="_top" xlink:title="Implements the RandomStream interface via inheritance from RandomStreamBase. ">
<polygon fill="none" stroke="black" points="540.5,-361.5 540.5,-380.5 608.5,-380.5 608.5,-361.5 540.5,-361.5"/>
<text text-anchor="middle" x="574.5" y="-368.5" font-family="Helvetica,sans-Serif" font-size="10.00">GenF2w32</text>
</a>
</g>
</g>
<!-- Node11&#45;&gt;Node12 -->
<g id="edge11" class="edge"><title>Node11&#45;&gt;Node12</title>
<path fill="none" stroke="midnightblue" d="M438.301,-232.696C446.675,-236.87 454.747,-242.212 461,-249 493.856,-284.666 461.156,-319.337 497,-352 508.733,-362.692 525.541,-367.596 540.414,-369.761"/>
<polygon fill="midnightblue" stroke="midnightblue" points="439.725,-229.499 429.167,-228.614 436.869,-235.89 439.725,-229.499"/>
</g>
<!-- Node13 -->
<g id="node13" class="node"><title>Node13</title>
<g id="a_node13"><a xlink:href="classumontreal_1_1ssj_1_1rng_1_1LFSR113.html" target="_top" xlink:title="Extends RandomStreamBase using a composite linear feedback shift register (LFSR) (or Tausworthe) RNG ...">
<polygon fill="none" stroke="black" points="545.5,-323.5 545.5,-342.5 603.5,-342.5 603.5,-323.5 545.5,-323.5"/>
<text text-anchor="middle" x="574.5" y="-330.5" font-family="Helvetica,sans-Serif" font-size="10.00">LFSR113</text>
</a>
</g>
</g>
<!-- Node11&#45;&gt;Node13 -->
<g id="edge12" class="edge"><title>Node11&#45;&gt;Node13</title>
<path fill="none" stroke="midnightblue" d="M435.347,-232.554C444.493,-236.829 453.631,-242.249 461,-249 485.351,-271.307 470.795,-293.904 497,-314 510.791,-324.576 529.726,-329.335 545.307,-331.445"/>
<polygon fill="midnightblue" stroke="midnightblue" points="436.456,-229.222 425.885,-228.506 433.703,-235.657 436.456,-229.222"/>
</g>
<!-- Node14 -->
<g id="node14" class="node"><title>Node14</title>
<g id="a_node14"><a xlink:href="classumontreal_1_1ssj_1_1rng_1_1LFSR258.html" target="_top" xlink:title="Extends RandomStreamBase using a 64&#45;bit composite linear feedback shift register (LFSR) (or Tausworth...">
<polygon fill="none" stroke="black" points="545.5,-285.5 545.5,-304.5 603.5,-304.5 603.5,-285.5 545.5,-285.5"/>
<text text-anchor="middle" x="574.5" y="-292.5" font-family="Helvetica,sans-Serif" font-size="10.00">LFSR258</text>
</a>
</g>
</g>
<!-- Node11&#45;&gt;Node14 -->
<g id="edge13" class="edge"><title>Node11&#45;&gt;Node14</title>
<path fill="none" stroke="midnightblue" d="M427.768,-232.45C438.652,-237.188 450.565,-242.874 461,-249 478.247,-259.126 478.935,-267.418 497,-276 512.204,-283.222 530.458,-287.891 545.321,-290.792"/>
<polygon fill="midnightblue" stroke="midnightblue" points="429.105,-229.215 418.531,-228.543 426.378,-235.662 429.105,-229.215"/>
</g>
<!-- Node15 -->
<g id="node15" class="node"><title>Node15</title>
<g id="a_node15"><a xlink:href="classumontreal_1_1ssj_1_1rng_1_1MRG31k3p.html" target="_top" xlink:title="Extends the abstract class RandomStreamBase, thus implementing the RandomStream interface indirectly...">
<polygon fill="none" stroke="black" points="540,-247.5 540,-266.5 609,-266.5 609,-247.5 540,-247.5"/>
<text text-anchor="middle" x="574.5" y="-254.5" font-family="Helvetica,sans-Serif" font-size="10.00">MRG31k3p</text>
</a>
</g>
</g>
<!-- Node11&#45;&gt;Node15 -->
<g id="edge14" class="edge"><title>Node11&#45;&gt;Node15</title>
<path fill="none" stroke="midnightblue" d="M448.749,-230.664C478.469,-236.938 514.163,-244.473 539.742,-249.873"/>
<polygon fill="midnightblue" stroke="midnightblue" points="449.429,-227.23 438.922,-228.589 447.983,-234.079 449.429,-227.23"/>
</g>
<!-- Node16 -->
<g id="node16" class="node"><title>Node16</title>
<g id="a_node16"><a xlink:href="classumontreal_1_1ssj_1_1rng_1_1MRG32k3a.html" target="_top" xlink:title="Extends the abstract class RandomStreamBase by using as a backbone (or main) generator the combined m...">
<polygon fill="none" stroke="black" points="540,-209.5 540,-228.5 609,-228.5 609,-209.5 540,-209.5"/>
<text text-anchor="middle" x="574.5" y="-216.5" font-family="Helvetica,sans-Serif" font-size="10.00">MRG32k3a</text>
</a>
</g>
</g>
<!-- Node11&#45;&gt;Node16 -->
<g id="edge15" class="edge"><title>Node11&#45;&gt;Node16</title>
<path fill="none" stroke="midnightblue" d="M461.096,-219C487.997,-219 517.749,-219 539.883,-219"/>
<polygon fill="midnightblue" stroke="midnightblue" points="460.948,-215.5 450.948,-219 460.948,-222.5 460.948,-215.5"/>
</g>
<!-- Node17 -->
<g id="node17" class="node"><title>Node17</title>
<g id="a_node17"><a xlink:href="classumontreal_1_1ssj_1_1rng_1_1MRG32k3aL.html" target="_top" xlink:title="The same generator as MRG32k3a, except here it is implemented with type long instead of double...">
<polygon fill="none" stroke="black" points="537.5,-171.5 537.5,-190.5 611.5,-190.5 611.5,-171.5 537.5,-171.5"/>
<text text-anchor="middle" x="574.5" y="-178.5" font-family="Helvetica,sans-Serif" font-size="10.00">MRG32k3aL</text>
</a>
</g>
</g>
<!-- Node11&#45;&gt;Node17 -->
<g id="edge16" class="edge"><title>Node11&#45;&gt;Node17</title>
<path fill="none" stroke="midnightblue" d="M448.858,-207.313C477.677,-201.229 512.089,-193.965 537.446,-188.611"/>
<polygon fill="midnightblue" stroke="midnightblue" points="447.983,-203.921 438.922,-209.411 449.429,-210.77 447.983,-203.921"/>
</g>
<!-- Node18 -->
<g id="node18" class="node"><title>Node18</title>
<g id="a_node18"><a xlink:href="classumontreal_1_1ssj_1_1rng_1_1MT19937.html" target="_top" xlink:title="Implements the RandomStream interface via inheritance from RandomStreamBase. ">
<polygon fill="none" stroke="black" points="544,-133.5 544,-152.5 605,-152.5 605,-133.5 544,-133.5"/>
<text text-anchor="middle" x="574.5" y="-140.5" font-family="Helvetica,sans-Serif" font-size="10.00">MT19937</text>
</a>
</g>
</g>
<!-- Node11&#45;&gt;Node18 -->
<g id="edge17" class="edge"><title>Node11&#45;&gt;Node18</title>
<path fill="none" stroke="midnightblue" d="M416.59,-203.993C437.023,-191.279 468.015,-173.357 497,-162 512.035,-156.109 529.463,-151.612 543.884,-148.476"/>
<polygon fill="midnightblue" stroke="midnightblue" points="414.575,-201.125 407.989,-209.425 418.313,-207.044 414.575,-201.125"/>
</g>
<!-- Node19 -->
<g id="node19" class="node"><title>Node19</title>
<g id="a_node19"><a xlink:href="classumontreal_1_1ssj_1_1rng_1_1WELL1024.html" target="_top" xlink:title="Implements the RandomStream interface via inheritance from RandomStreamBase. ">
<polygon fill="none" stroke="black" points="541,-95.5 541,-114.5 608,-114.5 608,-95.5 541,-95.5"/>
<text text-anchor="middle" x="574.5" y="-102.5" font-family="Helvetica,sans-Serif" font-size="10.00">WELL1024</text>
</a>
</g>
</g>
<!-- Node11&#45;&gt;Node19 -->
<g id="edge18" class="edge"><title>Node11&#45;&gt;Node19</title>
<path fill="none" stroke="midnightblue" d="M407.633,-201.496C425.968,-179.977 460.013,-143.872 497,-124 510.502,-116.746 526.832,-112.202 540.931,-109.386"/>
<polygon fill="midnightblue" stroke="midnightblue" points="404.907,-199.301 401.193,-209.223 410.284,-203.783 404.907,-199.301"/>
</g>
<!-- Node20 -->
<g id="node20" class="node"><title>Node20</title>
<g id="a_node20"><a xlink:href="classumontreal_1_1ssj_1_1rng_1_1WELL512.html" target="_top" xlink:title="This class implements the RandomStream interface via inheritance from RandomStreamBase. ">
<polygon fill="none" stroke="black" points="544,-57.5 544,-76.5 605,-76.5 605,-57.5 544,-57.5"/>
<text text-anchor="middle" x="574.5" y="-64.5" font-family="Helvetica,sans-Serif" font-size="10.00">WELL512</text>
</a>
</g>
</g>
<!-- Node11&#45;&gt;Node20 -->
<g id="edge19" class="edge"><title>Node11&#45;&gt;Node20</title>
<path fill="none" stroke="midnightblue" d="M402.902,-200.024C418.371,-170.837 452.017,-115.244 497,-86 510.883,-76.9745 528.732,-72.2363 543.697,-69.7488"/>
<polygon fill="midnightblue" stroke="midnightblue" points="399.664,-198.667 398.199,-209.16 405.888,-201.871 399.664,-198.667"/>
</g>
<!-- Node21 -->
<g id="node21" class="node"><title>Node21</title>
<g id="a_node21"><a xlink:href="classumontreal_1_1ssj_1_1rng_1_1WELL607base.html" target="_top" xlink:title="WELL607base">
<polygon fill="none" stroke="black" points="532.5,-19.5 532.5,-38.5 616.5,-38.5 616.5,-19.5 532.5,-19.5"/>
<text text-anchor="middle" x="574.5" y="-26.5" font-family="Helvetica,sans-Serif" font-size="10.00">WELL607base</text>
</a>
</g>
</g>
<!-- Node11&#45;&gt;Node21 -->
<g id="edge20" class="edge"><title>Node11&#45;&gt;Node21</title>
<path fill="none" stroke="midnightblue" d="M399.59,-199.761C411.92,-164.047 443.324,-87.5466 497,-48 507.246,-40.451 520.144,-35.8793 532.414,-33.118"/>
<polygon fill="midnightblue" stroke="midnightblue" points="396.203,-198.856 396.372,-209.449 402.846,-201.062 396.203,-198.856"/>
</g>
<!-- Node22 -->
<g id="node22" class="node"><title>Node22</title>
<g id="a_node22"><a xlink:href="classumontreal_1_1ssj_1_1rng_1_1F2NL607.html" target="_top" xlink:title="Implements the RandomStream interface by using as a backbone generator the combination of the WELL607...">
<polygon fill="none" stroke="black" points="736,-38.5 736,-57.5 795,-57.5 795,-38.5 736,-38.5"/>
<text text-anchor="middle" x="765.5" y="-45.5" font-family="Helvetica,sans-Serif" font-size="10.00">F2NL607</text>
</a>
</g>
</g>
<!-- Node21&#45;&gt;Node22 -->
<g id="edge21" class="edge"><title>Node21&#45;&gt;Node22</title>
<path fill="none" stroke="midnightblue" d="M626.575,-34.1345C661.653,-37.6609 706.934,-42.2129 735.853,-45.1201"/>
<polygon fill="midnightblue" stroke="midnightblue" points="626.81,-30.6406 616.51,-33.1227 626.11,-37.6055 626.81,-30.6406"/>
</g>
<!-- Node23 -->
<g id="node23" class="node"><title>Node23</title>
<g id="a_node23"><a xlink:href="classumontreal_1_1ssj_1_1rng_1_1WELL607.html" target="_top" xlink:title="This class implements the RandomStream interface via inheritance from RandomStreamBase. ">
<polygon fill="none" stroke="black" points="735,-0.5 735,-19.5 796,-19.5 796,-0.5 735,-0.5"/>
<text text-anchor="middle" x="765.5" y="-7.5" font-family="Helvetica,sans-Serif" font-size="10.00">WELL607</text>
</a>
</g>
</g>
<!-- Node21&#45;&gt;Node23 -->
<g id="edge22" class="edge"><title>Node21&#45;&gt;Node23</title>
<path fill="none" stroke="midnightblue" d="M626.481,-23.875C661.225,-20.3822 706.01,-15.88 734.987,-12.967"/>
<polygon fill="midnightblue" stroke="midnightblue" points="626.11,-20.3945 616.51,-24.8773 626.81,-27.3594 626.11,-20.3945"/>
</g>
</g>
</svg>
