<?xml version="1.0" encoding="UTF-8" standalone="no"?>
<!DOCTYPE svg PUBLIC "-//W3C//DTD SVG 1.1//EN"
 "http://www.w3.org/Graphics/SVG/1.1/DTD/svg11.dtd">
<!-- Generated by graphviz version 2.26.3 (20100126.1600)
 -->
<!-- Title: MathFunctionWithDerivative Pages: 1 -->
<!--zoomable 218 -->
<svg id="main" version="1.1" xmlns="http://www.w3.org/2000/svg" xmlns:xlink="http://www.w3.org/1999/xlink" xml:space="preserve" onload="init(evt)">
<style type="text/css"><![CDATA[
.edge:hover path { stroke: red; }
.edge:hover polygon { stroke: red; fill: red; }
]]></style>
<script type="text/javascript"><![CDATA[
var edges = document.getElementsByTagName('g');
if (edges && edges.length) {
  for (var i=0;i<edges.length;i++) {
    if (edges[i].id.substr(0,4)=='edge') {
      edges[i].setAttribute('class','edge');
    }
  }
}
]]></script>
        <defs>
                <circle id="rim" cx="0" cy="0" r="7"/>
                <circle id="rim2" cx="0" cy="0" r="3.5"/>
                <g id="zoomPlus">
                        <use xlink:href="#rim" fill="#404040">
                                <set attributeName="fill" to="#808080" begin="zoomplus.mouseover" end="zoomplus.mouseout"/>
                        </use>
                        <path d="M-4,0h8M0,-4v8" fill="none" stroke="white" stroke-width="1.5" pointer-events="none"/>
                </g>
                <g id="zoomMin">
                        <use xlink:href="#rim" fill="#404040">
                                <set attributeName="fill" to="#808080" begin="zoomminus.mouseover" end="zoomminus.mouseout"/>
                        </use>
                        <path d="M-4,0h8" fill="none" stroke="white" stroke-width="1.5" pointer-events="none"/>
                </g>
                <g id="dirArrow">
                        <path fill="none" stroke="white" stroke-width="1.5" d="M0,-3.0v7 M-2.5,-0.5L0,-3.0L2.5,-0.5"/>
                </g>
               <g id="resetDef">
                       <use xlink:href="#rim2" fill="#404040">
                               <set attributeName="fill" to="#808080" begin="reset.mouseover" end="reset.mouseout"/>
                       </use>
               </g>
        </defs>

<script type="text/javascript">
var viewWidth = 504;
var viewHeight = 218;
var sectionId = 'dynsection-0';
</script>
<script xlink:href="svgpan.js"/>
<svg id="graph" class="graph">
<g id="viewport">
<title>MathFunctionWithDerivative</title>
<!-- Node1 -->
<g id="node1" class="node"><title>Node1</title>
<polygon fill="#bfbfbf" stroke="black" points="112.5,-95 112.5,-115 251.5,-115 251.5,-95 112.5,-95"/>
<text text-anchor="middle" x="182" y="-102" font-family="Helvetica,sans-Serif" font-size="10.00">MathFunctionWithDerivative</text>
</g>
<!-- Node3 -->
<g id="node5" class="node"><title>Node3</title>
<a xlink:href="classumontreal_1_1ssj_1_1functionfit_1_1BSpline.html" target="_top" xlink:title="Represents a B&#45;spline with control points at . ">
<polygon fill="none" stroke="black" points="321,-190 321,-210 371,-210 371,-190 321,-190"/>
<text text-anchor="middle" x="346" y="-197" font-family="Helvetica,sans-Serif" font-size="10.00">BSpline</text>
</a>
</g>
<!-- Node1&#45;&gt;Node3 -->
<g id="edge4" class="edge"><title>Node1&#45;&gt;Node3</title>
<path fill="none" stroke="midnightblue" d="M201.525,-121.818C221.942,-138.703 255.485,-164.512 288,-181 298.301,-186.223 310.345,-190.443 320.78,-193.567"/>
<polygon fill="midnightblue" stroke="midnightblue" points="203.529,-118.931 193.62,-115.182 199.028,-124.292 203.529,-118.931"/>
</g>
<!-- Node4 -->
<g id="node7" class="node"><title>Node4</title>
<a xlink:href="classumontreal_1_1ssj_1_1functionfit_1_1SmoothingCubicSpline.html" target="_top" xlink:title="Represents a cubic spline with nodes at &#160;computed with the smoothing cubic spline algorithm of Schoen...">
<polygon fill="none" stroke="black" points="288.5,-152 288.5,-172 403.5,-172 403.5,-152 288.5,-152"/>
<text text-anchor="middle" x="346" y="-159" font-family="Helvetica,sans-Serif" font-size="10.00">SmoothingCubicSpline</text>
</a>
</g>
<!-- Node1&#45;&gt;Node4 -->
<g id="edge6" class="edge"><title>Node1&#45;&gt;Node4</title>
<path fill="none" stroke="midnightblue" d="M218.895,-118.509C239.232,-125.884 264.957,-135.097 288,-143 296.62,-145.956 305.994,-149.07 314.642,-151.903"/>
<polygon fill="midnightblue" stroke="midnightblue" points="219.974,-115.178 209.38,-115.05 217.583,-121.756 219.974,-115.178"/>
</g>
<!-- Node5 -->
<g id="node9" class="node"><title>Node5</title>
<a xlink:href="classumontreal_1_1ssj_1_1functions_1_1AverageMathFunction.html" target="_top" xlink:title="Represents a function computing the average of several functions. ">
<polygon fill="none" stroke="black" points="290,-114 290,-134 402,-134 402,-114 290,-114"/>
<text text-anchor="middle" x="346" y="-121" font-family="Helvetica,sans-Serif" font-size="10.00">AverageMathFunction</text>
</a>
</g>
<!-- Node1&#45;&gt;Node5 -->
<g id="edge8" class="edge"><title>Node1&#45;&gt;Node5</title>
<path fill="none" stroke="midnightblue" d="M261.771,-114.242C271.226,-115.337 280.72,-116.437 289.751,-117.483"/>
<polygon fill="midnightblue" stroke="midnightblue" points="261.887,-110.732 251.551,-113.058 261.081,-117.685 261.887,-110.732"/>
</g>
<!-- Node6 -->
<g id="node11" class="node"><title>Node6</title>
<a xlink:href="classumontreal_1_1ssj_1_1functions_1_1IdentityMathFunction.html" target="_top" xlink:title="Represents the identity function . ">
<polygon fill="none" stroke="black" points="292,-76 292,-96 400,-96 400,-76 292,-76"/>
<text text-anchor="middle" x="346" y="-83" font-family="Helvetica,sans-Serif" font-size="10.00">IdentityMathFunction</text>
</a>
</g>
<!-- Node1&#45;&gt;Node6 -->
<g id="edge10" class="edge"><title>Node1&#45;&gt;Node6</title>
<path fill="none" stroke="midnightblue" d="M261.696,-95.7669C271.881,-94.5869 282.113,-93.4015 291.764,-92.2834"/>
<polygon fill="midnightblue" stroke="midnightblue" points="261.081,-92.3146 251.551,-96.9423 261.887,-99.2681 261.081,-92.3146"/>
</g>
<!-- Node7 -->
<g id="node13" class="node"><title>Node7</title>
<a xlink:href="classumontreal_1_1ssj_1_1functions_1_1Polynomial.html" target="_top" xlink:title="Represents a polynomial of degree &#160;in power form. ">
<polygon fill="none" stroke="black" points="313.5,-38 313.5,-58 378.5,-58 378.5,-38 313.5,-38"/>
<text text-anchor="middle" x="346" y="-45" font-family="Helvetica,sans-Serif" font-size="10.00">Polynomial</text>
</a>
</g>
<!-- Node1&#45;&gt;Node7 -->
<g id="edge12" class="edge"><title>Node1&#45;&gt;Node7</title>
<path fill="none" stroke="midnightblue" d="M218.895,-91.4906C239.232,-84.1157 264.957,-74.903 288,-67 296.62,-64.0438 305.994,-60.9295 314.642,-58.097"/>
<polygon fill="midnightblue" stroke="midnightblue" points="217.583,-88.2437 209.38,-94.9496 219.974,-94.8224 217.583,-88.2437"/>
</g>
<!-- Node9 -->
<g id="node17" class="node"><title>Node9</title>
<a xlink:href="classumontreal_1_1ssj_1_1functions_1_1ShiftedMathFunction.html" target="_top" xlink:title="Represents a function computing &#160;for a user&#45;defined function &#160;and shift . ">
<polygon fill="none" stroke="black" points="292.5,-0 292.5,-20 399.5,-20 399.5,-0 292.5,-0"/>
<text text-anchor="middle" x="346" y="-7" font-family="Helvetica,sans-Serif" font-size="10.00">ShiftedMathFunction</text>
</a>
</g>
<!-- Node1&#45;&gt;Node9 -->
<g id="edge16" class="edge"><title>Node1&#45;&gt;Node9</title>
<path fill="none" stroke="midnightblue" d="M201.525,-88.1815C221.942,-71.297 255.485,-45.4881 288,-29 294.71,-25.5976 302.159,-22.6209 309.422,-20.0957"/>
<polygon fill="midnightblue" stroke="midnightblue" points="199.028,-85.7077 193.62,-94.8181 203.529,-91.069 199.028,-85.7077"/>
</g>
<!-- Node2 -->
<g id="node2" class="node"><title>Node2</title>
<a xlink:href="interfaceumontreal_1_1ssj_1_1functions_1_1MathFunction.html" target="_top" xlink:title="This interface should be implemented by classes which represent univariate mathematical functions...">
<polygon fill="none" stroke="black" points="0,-95 0,-115 76,-115 76,-95 0,-95"/>
<text text-anchor="middle" x="38" y="-102" font-family="Helvetica,sans-Serif" font-size="10.00">MathFunction</text>
</a>
</g>
<!-- Node2&#45;&gt;Node1 -->
<g id="edge2" class="edge"><title>Node2&#45;&gt;Node1</title>
<path fill="none" stroke="midnightblue" d="M86.4867,-105C94.8296,-105 103.646,-105 112.414,-105"/>
<polygon fill="midnightblue" stroke="midnightblue" points="86.2113,-101.5 76.2113,-105 86.2113,-108.5 86.2113,-101.5"/>
</g>
<!-- Node8 -->
<g id="node15" class="node"><title>Node8</title>
<a xlink:href="classumontreal_1_1ssj_1_1functionfit_1_1PolInterp.html" target="_top" xlink:title="Represents a polynomial that interpolates through a set of points. ">
<polygon fill="none" stroke="black" points="440,-38 440,-58 496,-58 496,-38 440,-38"/>
<text text-anchor="middle" x="468" y="-45" font-family="Helvetica,sans-Serif" font-size="10.00">PolInterp</text>
</a>
</g>
<!-- Node7&#45;&gt;Node8 -->
<g id="edge14" class="edge"><title>Node7&#45;&gt;Node8</title>
<path fill="none" stroke="midnightblue" d="M388.888,-48C405.766,-48 424.678,-48 439.778,-48"/>
<polygon fill="midnightblue" stroke="midnightblue" points="388.694,-44.5001 378.694,-48 388.694,-51.5001 388.694,-44.5001"/>
</g>
</g>
</svg>
        <g id="navigator" transform="translate(0 0)" fill="#404254">
                <rect fill="#f2f5e9" fill-opacity="0.5" stroke="#606060" stroke-width=".5" x="0" y="0" width="60" height="60"/>
                <use id="zoomplus" xlink:href="#zoomPlus" x="17" y="9" onmousedown="handleZoom(evt,'in')"/>
                <use id="zoomminus" xlink:href="#zoomMin" x="42" y="9" onmousedown="handleZoom(evt,'out')"/>
                <use id="reset" xlink:href="#resetDef" x="30" y="36" onmousedown="handleReset()"/>
                <g id="arrowUp" xlink:href="#dirArrow" transform="translate(30 24)" onmousedown="handlePan(0,-1)">
                  <use xlink:href="#rim" fill="#404040">
                        <set attributeName="fill" to="#808080" begin="arrowUp.mouseover" end="arrowUp.mouseout"/>
                  </use>
                  <path fill="none" stroke="white" stroke-width="1.5" d="M0,-3.0v7 M-2.5,-0.5L0,-3.0L2.5,-0.5"/>
                </g>
                <g id="arrowRight" xlink:href="#dirArrow" transform="rotate(90) translate(36 -43)" onmousedown="handlePan(1,0)">
                  <use xlink:href="#rim" fill="#404040">
                        <set attributeName="fill" to="#808080" begin="arrowRight.mouseover" end="arrowRight.mouseout"/>
                  </use>
                  <path fill="none" stroke="white" stroke-width="1.5" d="M0,-3.0v7 M-2.5,-0.5L0,-3.0L2.5,-0.5"/>
                </g>
                <g id="arrowDown" xlink:href="#dirArrow" transform="rotate(180) translate(-30 -48)" onmousedown="handlePan(0,1)">
                  <use xlink:href="#rim" fill="#404040">
                        <set attributeName="fill" to="#808080" begin="arrowDown.mouseover" end="arrowDown.mouseout"/>
                  </use>
                  <path fill="none" stroke="white" stroke-width="1.5" d="M0,-3.0v7 M-2.5,-0.5L0,-3.0L2.5,-0.5"/>
                </g>
                <g id="arrowLeft" xlink:href="#dirArrow" transform="rotate(270) translate(-36 17)" onmousedown="handlePan(-1,0)">
                  <use xlink:href="#rim" fill="#404040">
                        <set attributeName="fill" to="#808080" begin="arrowLeft.mouseover" end="arrowLeft.mouseout"/>
                  </use>
                  <path fill="none" stroke="white" stroke-width="1.5" d="M0,-3.0v7 M-2.5,-0.5L0,-3.0L2.5,-0.5"/>
                </g>
        </g>
        <svg viewBox="0 0 15 15" width="100%" height="30px" preserveAspectRatio="xMaxYMin meet">
         <g id="arrow_out" transform="scale(0.3 0.3)">
          <a xlink:href="interfaceumontreal_1_1ssj_1_1functions_1_1MathFunctionWithDerivative__inherit__graph_org.svg" target="_base">
           <rect id="button" ry="5" rx="5" y="6" x="6" height="38" width="38"
                fill="#f2f5e9" fill-opacity="0.5" stroke="#606060" stroke-width="1.0"/>
           <path id="arrow"
             d="M 11.500037,31.436501 C 11.940474,20.09759 22.043105,11.32322 32.158766,21.979434 L 37.068811,17.246167 C 37.068811,17.246167 37.088388,32 37.088388,32 L 22.160133,31.978069 C 22.160133,31.978069 26.997745,27.140456 26.997745,27.140456 C 18.528582,18.264221 13.291696,25.230495 11.500037,31.436501 z"
             style="fill:#404040;"/>
          </a>
         </g>
        </svg>
</svg>
