<?xml version="1.0" encoding="UTF-8" standalone="no"?>
<!DOCTYPE svg PUBLIC "-//W3C//DTD SVG 1.1//EN"
 "http://www.w3.org/Graphics/SVG/1.1/DTD/svg11.dtd">
<!-- Generated by graphviz version 2.38.0 (20140413.2041)
 -->
<!-- Title: MultiDimSortComparable&lt; T extends MultiDimComparable&lt;?super T &gt; &gt; Pages: 1 -->
<!--zoomable 230 -->
<svg id="main" version="1.1" xmlns="http://www.w3.org/2000/svg" xmlns:xlink="http://www.w3.org/1999/xlink" xml:space="preserve" onload="init(evt)">
<style type="text/css"><![CDATA[
.edge:hover path { stroke: red; }
.edge:hover polygon { stroke: red; fill: red; }
]]></style>
<script type="text/javascript"><![CDATA[
var edges = document.getElementsByTagName('g');
if (edges && edges.length) {
  for (var i=0;i<edges.length;i++) {
    if (edges[i].id.substr(0,4)=='edge') {
      edges[i].setAttribute('class','edge');
    }
  }
}
]]></script>
        <defs>
                <circle id="rim" cx="0" cy="0" r="7"/>
                <circle id="rim2" cx="0" cy="0" r="3.5"/>
                <g id="zoomPlus">
                        <use xlink:href="#rim" fill="#404040">
                                <set attributeName="fill" to="#808080" begin="zoomplus.mouseover" end="zoomplus.mouseout"/>
                        </use>
                        <path d="M-4,0h8M0,-4v8" fill="none" stroke="white" stroke-width="1.5" pointer-events="none"/>
                </g>
                <g id="zoomMin">
                        <use xlink:href="#rim" fill="#404040">
                                <set attributeName="fill" to="#808080" begin="zoomminus.mouseover" end="zoomminus.mouseout"/>
                        </use>
                        <path d="M-4,0h8" fill="none" stroke="white" stroke-width="1.5" pointer-events="none"/>
                </g>
                <g id="dirArrow">
                        <path fill="none" stroke="white" stroke-width="1.5" d="M0,-3.0v7 M-2.5,-0.5L0,-3.0L2.5,-0.5"/>
                </g>
               <g id="resetDef">
                       <use xlink:href="#rim2" fill="#404040">
                               <set attributeName="fill" to="#808080" begin="reset.mouseover" end="reset.mouseout"/>
                       </use>
               </g>
        </defs>

<script type="text/javascript">
var viewWidth = 627;
var viewHeight = 230;
var sectionId = 'dynsection-0';
</script>
<script xlink:href="svgpan.js"/>
<svg id="graph" class="graph">
<g id="viewport">
<title>MultiDimSortComparable&lt; T extends MultiDimComparable&lt;?super T &gt; &gt;</title>
<!-- Node1 -->
<g id="node1" class="node"><title>Node1</title>
<polygon fill="#bfbfbf" stroke="black" points="134,-90.5 134,-131.5 298,-131.5 298,-90.5 134,-90.5"/>
<text text-anchor="start" x="142" y="-119.5" font-family="Helvetica,sans-Serif" font-size="10.00">MultiDimSortComparable</text>
<text text-anchor="start" x="142" y="-108.5" font-family="Helvetica,sans-Serif" font-size="10.00">&lt; T extends MultiDimComparable</text>
<text text-anchor="middle" x="216" y="-97.5" font-family="Helvetica,sans-Serif" font-size="10.00">&lt;?super T &gt; &gt;</text>
</g>
<!-- Node3 -->
<g id="node3" class="node"><title>Node3</title>
<g id="a_node3"><a xlink:href="classumontreal_1_1ssj_1_1util_1_1sort_1_1BatchSort_3_01T_01extends_01MultiDimComparable_3_04super_01T_01_4_01_4.html" target="_top" xlink:title="This class implements a MultiDimSortComparable that performs a batch sort on multivariate arrays...">
<polygon fill="none" stroke="black" points="357.5,-180.5 357.5,-221.5 474.5,-221.5 474.5,-180.5 357.5,-180.5"/>
<text text-anchor="start" x="365.5" y="-209.5" font-family="Helvetica,sans-Serif" font-size="10.00">BatchSort&lt; T extends</text>
<text text-anchor="start" x="365.5" y="-198.5" font-family="Helvetica,sans-Serif" font-size="10.00"> MultiDimComparable&lt;</text>
<text text-anchor="middle" x="416" y="-187.5" font-family="Helvetica,sans-Serif" font-size="10.00">?super T &gt; &gt;</text>
</a>
</g>
</g>
<!-- Node1&#45;&gt;Node3 -->
<g id="edge2" class="edge"><title>Node1&#45;&gt;Node3</title>
<path fill="none" stroke="midnightblue" d="M263.496,-136.458C284.714,-147.654 310.336,-160.594 334,-171 341.413,-174.26 349.302,-177.479 357.138,-180.53"/>
<polygon fill="midnightblue" stroke="midnightblue" points="264.859,-133.219 254.387,-131.616 261.574,-139.4 264.859,-133.219"/>
</g>
<!-- Node5 -->
<g id="node5" class="node"><title>Node5</title>
<g id="a_node5"><a xlink:href="classumontreal_1_1ssj_1_1util_1_1sort_1_1HilbertCurveBatchSort_3_01T_01extends_01MultiDimComparable_3_04super_01T_01_4_01_4.html" target="_top" xlink:title="This sort is similar to BatchSortPow2, except that after applying the batch sort, the objects are giv...">
<polygon fill="none" stroke="black" points="334,-120.5 334,-161.5 498,-161.5 498,-120.5 334,-120.5"/>
<text text-anchor="start" x="342" y="-149.5" font-family="Helvetica,sans-Serif" font-size="10.00">HilbertCurveBatchSort</text>
<text text-anchor="start" x="342" y="-138.5" font-family="Helvetica,sans-Serif" font-size="10.00">&lt; T extends MultiDimComparable</text>
<text text-anchor="middle" x="416" y="-127.5" font-family="Helvetica,sans-Serif" font-size="10.00">&lt;?super T &gt; &gt;</text>
</a>
</g>
</g>
<!-- Node1&#45;&gt;Node5 -->
<g id="edge4" class="edge"><title>Node1&#45;&gt;Node5</title>
<path fill="none" stroke="midnightblue" d="M308.085,-124.801C316.63,-126.095 325.254,-127.402 333.7,-128.682"/>
<polygon fill="midnightblue" stroke="midnightblue" points="308.517,-121.326 298.105,-123.289 307.468,-128.247 308.517,-121.326"/>
</g>
<!-- Node6 -->
<g id="node6" class="node"><title>Node6</title>
<g id="a_node6"><a xlink:href="classumontreal_1_1ssj_1_1util_1_1sort_1_1OneDimSort_3_01T_01extends_01MultiDimComparable_3_04super_01T_01_4_01_4.html" target="_top" xlink:title="This class implements a MultiDimSortComparable that simply sorts the objects according to a given sor...">
<polygon fill="none" stroke="black" points="354.5,-60.5 354.5,-101.5 477.5,-101.5 477.5,-60.5 354.5,-60.5"/>
<text text-anchor="start" x="362.5" y="-89.5" font-family="Helvetica,sans-Serif" font-size="10.00">OneDimSort&lt; T extends</text>
<text text-anchor="start" x="362.5" y="-78.5" font-family="Helvetica,sans-Serif" font-size="10.00"> MultiDimComparable&lt;</text>
<text text-anchor="middle" x="416" y="-67.5" font-family="Helvetica,sans-Serif" font-size="10.00">?super T &gt; &gt;</text>
</a>
</g>
</g>
<!-- Node1&#45;&gt;Node6 -->
<g id="edge5" class="edge"><title>Node1&#45;&gt;Node6</title>
<path fill="none" stroke="midnightblue" d="M308.308,-97.1655C323.914,-94.8009 339.777,-92.3975 354.332,-90.1921"/>
<polygon fill="midnightblue" stroke="midnightblue" points="307.468,-93.7527 298.105,-98.7113 308.517,-100.674 307.468,-93.7527"/>
</g>
<!-- Node7 -->
<g id="node7" class="node"><title>Node7</title>
<g id="a_node7"><a xlink:href="classumontreal_1_1ssj_1_1util_1_1sort_1_1SplitSort_3_01T_01extends_01MultiDimComparable_3_04super_01T_01_4_01_4.html" target="_top" xlink:title="Implements a MultiDimSortComparable that performs a split sort on a MultiDimComparable&lt;T&gt; array based...">
<polygon fill="none" stroke="black" points="357.5,-0.5 357.5,-41.5 474.5,-41.5 474.5,-0.5 357.5,-0.5"/>
<text text-anchor="start" x="365.5" y="-29.5" font-family="Helvetica,sans-Serif" font-size="10.00">SplitSort&lt; T extends</text>
<text text-anchor="start" x="365.5" y="-18.5" font-family="Helvetica,sans-Serif" font-size="10.00"> MultiDimComparable&lt;</text>
<text text-anchor="middle" x="416" y="-7.5" font-family="Helvetica,sans-Serif" font-size="10.00">?super T &gt; &gt;</text>
</a>
</g>
</g>
<!-- Node1&#45;&gt;Node7 -->
<g id="edge6" class="edge"><title>Node1&#45;&gt;Node7</title>
<path fill="none" stroke="midnightblue" d="M263.496,-85.5422C284.714,-74.3459 310.336,-61.4056 334,-51 341.413,-47.7404 349.302,-44.5211 357.138,-41.4701"/>
<polygon fill="midnightblue" stroke="midnightblue" points="261.574,-82.6002 254.387,-90.3844 264.859,-88.7813 261.574,-82.6002"/>
</g>
<!-- Node2 -->
<g id="node2" class="node"><title>Node2</title>
<g id="a_node2"><a xlink:href="interfaceumontreal_1_1ssj_1_1util_1_1sort_1_1MultiDimSort_3_01T_01_4.html" target="_top" xlink:title="This interface is meant to be implemented by certain multivariate sorting algorithms that sort object...">
<polygon fill="none" stroke="black" points="0,-101.5 0,-120.5 98,-120.5 98,-101.5 0,-101.5"/>
<text text-anchor="middle" x="49" y="-108.5" font-family="Helvetica,sans-Serif" font-size="10.00">MultiDimSort&lt; T &gt;</text>
</a>
</g>
</g>
<!-- Node2&#45;&gt;Node1 -->
<g id="edge1" class="edge"><title>Node2&#45;&gt;Node1</title>
<path fill="none" stroke="midnightblue" d="M108.41,-111C116.666,-111 125.276,-111 133.865,-111"/>
<polygon fill="midnightblue" stroke="midnightblue" points="108.168,-107.5 98.1684,-111 108.168,-114.5 108.168,-107.5"/>
</g>
<!-- Node4 -->
<g id="node4" class="node"><title>Node4</title>
<g id="a_node4"><a xlink:href="classumontreal_1_1ssj_1_1util_1_1sort_1_1BatchSortPow2.html" target="_top" xlink:title="This is a subclass of BatchSort for which the batch numbers &#160;are always powers of 2...">
<polygon fill="none" stroke="black" points="534,-191.5 534,-210.5 619,-210.5 619,-191.5 534,-191.5"/>
<text text-anchor="middle" x="576.5" y="-198.5" font-family="Helvetica,sans-Serif" font-size="10.00">BatchSortPow2</text>
</a>
</g>
</g>
<!-- Node3&#45;&gt;Node4 -->
<g id="edge3" class="edge"><title>Node3&#45;&gt;Node4</title>
<path fill="none" stroke="midnightblue" d="M484.852,-201C501.386,-201 518.596,-201 533.522,-201"/>
<polygon fill="midnightblue" stroke="midnightblue" points="484.671,-197.5 474.671,-201 484.67,-204.5 484.671,-197.5"/>
</g>
</g>
</svg>
        <g id="navigator" transform="translate(0 0)" fill="#404254">
                <rect fill="#f2f5e9" fill-opacity="0.5" stroke="#606060" stroke-width=".5" x="0" y="0" width="60" height="60"/>
                <use id="zoomplus" xlink:href="#zoomPlus" x="17" y="9" onmousedown="handleZoom(evt,'in')"/>
                <use id="zoomminus" xlink:href="#zoomMin" x="42" y="9" onmousedown="handleZoom(evt,'out')"/>
                <use id="reset" xlink:href="#resetDef" x="30" y="36" onmousedown="handleReset()"/>
                <g id="arrowUp" xlink:href="#dirArrow" transform="translate(30 24)" onmousedown="handlePan(0,-1)">
                  <use xlink:href="#rim" fill="#404040">
                        <set attributeName="fill" to="#808080" begin="arrowUp.mouseover" end="arrowUp.mouseout"/>
                  </use>
                  <path fill="none" stroke="white" stroke-width="1.5" d="M0,-3.0v7 M-2.5,-0.5L0,-3.0L2.5,-0.5"/>
                </g>
                <g id="arrowRight" xlink:href="#dirArrow" transform="rotate(90) translate(36 -43)" onmousedown="handlePan(1,0)">
                  <use xlink:href="#rim" fill="#404040">
                        <set attributeName="fill" to="#808080" begin="arrowRight.mouseover" end="arrowRight.mouseout"/>
                  </use>
                  <path fill="none" stroke="white" stroke-width="1.5" d="M0,-3.0v7 M-2.5,-0.5L0,-3.0L2.5,-0.5"/>
                </g>
                <g id="arrowDown" xlink:href="#dirArrow" transform="rotate(180) translate(-30 -48)" onmousedown="handlePan(0,1)">
                  <use xlink:href="#rim" fill="#404040">
                        <set attributeName="fill" to="#808080" begin="arrowDown.mouseover" end="arrowDown.mouseout"/>
                  </use>
                  <path fill="none" stroke="white" stroke-width="1.5" d="M0,-3.0v7 M-2.5,-0.5L0,-3.0L2.5,-0.5"/>
                </g>
                <g id="arrowLeft" xlink:href="#dirArrow" transform="rotate(270) translate(-36 17)" onmousedown="handlePan(-1,0)">
                  <use xlink:href="#rim" fill="#404040">
                        <set attributeName="fill" to="#808080" begin="arrowLeft.mouseover" end="arrowLeft.mouseout"/>
                  </use>
                  <path fill="none" stroke="white" stroke-width="1.5" d="M0,-3.0v7 M-2.5,-0.5L0,-3.0L2.5,-0.5"/>
                </g>
        </g>
        <svg viewBox="0 0 15 15" width="100%" height="30px" preserveAspectRatio="xMaxYMin meet">
         <g id="arrow_out" transform="scale(0.3 0.3)">
          <a xlink:href="interfaceumontreal_1_1ssj_1_1util_1_1sort_1_1MultiDimSortComparable_3_01T_01extends_01MultiDimCo01311f6e8596e35eea1d6dda2357c6ae_org.svg" target="_base">
           <rect id="button" ry="5" rx="5" y="6" x="6" height="38" width="38"
                fill="#f2f5e9" fill-opacity="0.5" stroke="#606060" stroke-width="1.0"/>
           <path id="arrow"
             d="M 11.500037,31.436501 C 11.940474,20.09759 22.043105,11.32322 32.158766,21.979434 L 37.068811,17.246167 C 37.068811,17.246167 37.088388,32 37.088388,32 L 22.160133,31.978069 C 22.160133,31.978069 26.997745,27.140456 26.997745,27.140456 C 18.528582,18.264221 13.291696,25.230495 11.500037,31.436501 z"
             style="fill:#404040;"/>
          </a>
         </g>
        </svg>
</svg>
