<?xml version="1.0" encoding="UTF-8" standalone="no"?>
<!DOCTYPE svg PUBLIC "-//W3C//DTD SVG 1.1//EN"
 "http://www.w3.org/Graphics/SVG/1.1/DTD/svg11.dtd">
<!-- Generated by graphviz version 2.38.0 (20140413.2041)
 -->
<!-- Title: MathFunctionWithFirstDerivative Pages: 1 -->
<svg width="524pt" height="294pt"
 viewBox="0.00 0.00 524.00 294.00" xmlns="http://www.w3.org/2000/svg" xmlns:xlink="http://www.w3.org/1999/xlink">
<g id="graph0" class="graph" transform="scale(1 1) rotate(0) translate(4 290)">
<title>MathFunctionWithFirstDerivative</title>
<!-- Node0 -->
<g id="node1" class="node"><title>Node0</title>
<polygon fill="#bfbfbf" stroke="black" points="112,-133.5 112,-152.5 272,-152.5 272,-133.5 112,-133.5"/>
<text text-anchor="middle" x="192" y="-140.5" font-family="Helvetica,sans-Serif" font-size="10.00">MathFunctionWithFirstDerivative</text>
</g>
<!-- Node2 -->
<g id="node3" class="node"><title>Node2</title>
<g id="a_node3"><a xlink:href="classumontreal_1_1ssj_1_1functionfit_1_1BSpline.html" target="_top" xlink:title="Represents a B&#45;spline with control points at . ">
<polygon fill="none" stroke="black" points="341,-266.5 341,-285.5 391,-285.5 391,-266.5 341,-266.5"/>
<text text-anchor="middle" x="366" y="-273.5" font-family="Helvetica,sans-Serif" font-size="10.00">BSpline</text>
</a>
</g>
</g>
<!-- Node0&#45;&gt;Node2 -->
<g id="edge2" class="edge"><title>Node0&#45;&gt;Node2</title>
<path fill="none" stroke="midnightblue" d="M206.61,-160.947C226.373,-185.848 265.346,-230.767 308,-257 318.04,-263.175 330.323,-267.601 340.912,-270.618"/>
<polygon fill="midnightblue" stroke="midnightblue" points="209.132,-158.489 200.226,-152.75 203.609,-162.79 209.132,-158.489"/>
</g>
<!-- Node3 -->
<g id="node4" class="node"><title>Node3</title>
<g id="a_node4"><a xlink:href="classumontreal_1_1ssj_1_1functionfit_1_1SmoothingCubicSpline.html" target="_top" xlink:title="Represents a cubic spline with nodes at &#160;computed with the smoothing cubic spline algorithm of Schoen...">
<polygon fill="none" stroke="black" points="308,-228.5 308,-247.5 424,-247.5 424,-228.5 308,-228.5"/>
<text text-anchor="middle" x="366" y="-235.5" font-family="Helvetica,sans-Serif" font-size="10.00">SmoothingCubicSpline</text>
</a>
</g>
</g>
<!-- Node0&#45;&gt;Node3 -->
<g id="edge3" class="edge"><title>Node0&#45;&gt;Node3</title>
<path fill="none" stroke="midnightblue" d="M213.126,-158.676C235.346,-175.402 272.665,-201.806 308,-219 315.41,-222.606 323.675,-225.795 331.561,-228.482"/>
<polygon fill="midnightblue" stroke="midnightblue" points="215.19,-155.849 205.115,-152.571 210.947,-161.416 215.19,-155.849"/>
</g>
<!-- Node4 -->
<g id="node5" class="node"><title>Node4</title>
<g id="a_node5"><a xlink:href="classumontreal_1_1ssj_1_1functions_1_1AverageMathFunction.html" target="_top" xlink:title="Represents a function computing the average of several functions. ">
<polygon fill="none" stroke="black" points="310,-190.5 310,-209.5 422,-209.5 422,-190.5 310,-190.5"/>
<text text-anchor="middle" x="366" y="-197.5" font-family="Helvetica,sans-Serif" font-size="10.00">AverageMathFunction</text>
</a>
</g>
</g>
<!-- Node0&#45;&gt;Node4 -->
<g id="edge4" class="edge"><title>Node0&#45;&gt;Node4</title>
<path fill="none" stroke="midnightblue" d="M231.6,-155.792C263.278,-166.29 307.434,-180.923 336.117,-190.428"/>
<polygon fill="midnightblue" stroke="midnightblue" points="232.382,-152.364 221.789,-152.541 230.18,-159.009 232.382,-152.364"/>
</g>
<!-- Node5 -->
<g id="node6" class="node"><title>Node5</title>
<g id="a_node6"><a xlink:href="classumontreal_1_1ssj_1_1functions_1_1IdentityMathFunction.html" target="_top" xlink:title="Represents the identity function . ">
<polygon fill="none" stroke="black" points="312,-152.5 312,-171.5 420,-171.5 420,-152.5 312,-152.5"/>
<text text-anchor="middle" x="366" y="-159.5" font-family="Helvetica,sans-Serif" font-size="10.00">IdentityMathFunction</text>
</a>
</g>
</g>
<!-- Node0&#45;&gt;Node5 -->
<g id="edge5" class="edge"><title>Node0&#45;&gt;Node5</title>
<path fill="none" stroke="midnightblue" d="M282.276,-152.862C292.348,-153.975 302.361,-155.081 311.76,-156.119"/>
<polygon fill="midnightblue" stroke="midnightblue" points="282.527,-149.368 272.204,-151.749 281.759,-156.326 282.527,-149.368"/>
</g>
<!-- Node6 -->
<g id="node7" class="node"><title>Node6</title>
<g id="a_node7"><a xlink:href="classumontreal_1_1ssj_1_1functions_1_1Polynomial.html" target="_top" xlink:title="Represents a polynomial of degree &#160;in power form. ">
<polygon fill="none" stroke="black" points="333.5,-114.5 333.5,-133.5 398.5,-133.5 398.5,-114.5 333.5,-114.5"/>
<text text-anchor="middle" x="366" y="-121.5" font-family="Helvetica,sans-Serif" font-size="10.00">Polynomial</text>
</a>
</g>
</g>
<!-- Node0&#45;&gt;Node6 -->
<g id="edge6" class="edge"><title>Node0&#45;&gt;Node6</title>
<path fill="none" stroke="midnightblue" d="M282.392,-133.125C300.73,-131.1 318.863,-129.097 333.447,-127.485"/>
<polygon fill="midnightblue" stroke="midnightblue" points="281.759,-129.674 272.204,-134.251 282.527,-136.632 281.759,-129.674"/>
</g>
<!-- Node8 -->
<g id="node9" class="node"><title>Node8</title>
<g id="a_node9"><a xlink:href="classumontreal_1_1ssj_1_1functions_1_1PowerMathFunction.html" target="_top" xlink:title="Represents a function computing &#160;for a user&#45;defined function &#160;and power . ">
<polygon fill="none" stroke="black" points="314,-76.5 314,-95.5 418,-95.5 418,-76.5 314,-76.5"/>
<text text-anchor="middle" x="366" y="-83.5" font-family="Helvetica,sans-Serif" font-size="10.00">PowerMathFunction</text>
</a>
</g>
</g>
<!-- Node0&#45;&gt;Node8 -->
<g id="edge8" class="edge"><title>Node0&#45;&gt;Node8</title>
<path fill="none" stroke="midnightblue" d="M231.6,-130.208C263.278,-119.71 307.434,-105.077 336.117,-95.5716"/>
<polygon fill="midnightblue" stroke="midnightblue" points="230.18,-126.991 221.789,-133.459 232.382,-133.636 230.18,-126.991"/>
</g>
<!-- Node9 -->
<g id="node10" class="node"><title>Node9</title>
<g id="a_node10"><a xlink:href="classumontreal_1_1ssj_1_1functions_1_1ShiftedMathFunction.html" target="_top" xlink:title="Represents a function computing &#160;for a user&#45;defined function &#160;and shift . ">
<polygon fill="none" stroke="black" points="312.5,-38.5 312.5,-57.5 419.5,-57.5 419.5,-38.5 312.5,-38.5"/>
<text text-anchor="middle" x="366" y="-45.5" font-family="Helvetica,sans-Serif" font-size="10.00">ShiftedMathFunction</text>
</a>
</g>
</g>
<!-- Node0&#45;&gt;Node9 -->
<g id="edge9" class="edge"><title>Node0&#45;&gt;Node9</title>
<path fill="none" stroke="midnightblue" d="M213.126,-127.324C235.346,-110.598 272.665,-84.1936 308,-67 315.41,-63.3944 323.675,-60.2047 331.561,-57.5177"/>
<polygon fill="midnightblue" stroke="midnightblue" points="210.947,-124.584 205.115,-133.429 215.19,-130.151 210.947,-124.584"/>
</g>
<!-- Node10 -->
<g id="node11" class="node"><title>Node10</title>
<g id="a_node11"><a xlink:href="classumontreal_1_1ssj_1_1functions_1_1SquareMathFunction.html" target="_top" xlink:title="Represents a function computing &#160;for a user&#45;defined function . ">
<polygon fill="none" stroke="black" points="312.5,-0.5 312.5,-19.5 419.5,-19.5 419.5,-0.5 312.5,-0.5"/>
<text text-anchor="middle" x="366" y="-7.5" font-family="Helvetica,sans-Serif" font-size="10.00">SquareMathFunction</text>
</a>
</g>
</g>
<!-- Node0&#45;&gt;Node10 -->
<g id="edge10" class="edge"><title>Node0&#45;&gt;Node10</title>
<path fill="none" stroke="midnightblue" d="M206.61,-125.053C226.373,-100.152 265.346,-55.2333 308,-29 314.131,-25.2294 321.098,-22.1112 328.004,-19.5674"/>
<polygon fill="midnightblue" stroke="midnightblue" points="203.609,-123.21 200.226,-133.25 209.132,-127.511 203.609,-123.21"/>
</g>
<!-- Node1 -->
<g id="node2" class="node"><title>Node1</title>
<g id="a_node2"><a xlink:href="interfaceumontreal_1_1ssj_1_1functions_1_1MathFunction.html" target="_top" xlink:title="This interface should be implemented by classes which represent univariate mathematical functions...">
<polygon fill="none" stroke="black" points="0,-133.5 0,-152.5 76,-152.5 76,-133.5 0,-133.5"/>
<text text-anchor="middle" x="38" y="-140.5" font-family="Helvetica,sans-Serif" font-size="10.00">MathFunction</text>
</a>
</g>
</g>
<!-- Node1&#45;&gt;Node0 -->
<g id="edge1" class="edge"><title>Node1&#45;&gt;Node0</title>
<path fill="none" stroke="midnightblue" d="M86.2394,-143C94.4267,-143 103.136,-143 111.901,-143"/>
<polygon fill="midnightblue" stroke="midnightblue" points="86.1834,-139.5 76.1834,-143 86.1833,-146.5 86.1834,-139.5"/>
</g>
<!-- Node7 -->
<g id="node8" class="node"><title>Node7</title>
<g id="a_node8"><a xlink:href="classumontreal_1_1ssj_1_1functionfit_1_1PolInterp.html" target="_top" xlink:title="Represents a polynomial that interpolates through a set of points. ">
<polygon fill="none" stroke="black" points="460,-114.5 460,-133.5 516,-133.5 516,-114.5 460,-114.5"/>
<text text-anchor="middle" x="488" y="-121.5" font-family="Helvetica,sans-Serif" font-size="10.00">PolInterp</text>
</a>
</g>
</g>
<!-- Node6&#45;&gt;Node7 -->
<g id="edge7" class="edge"><title>Node6&#45;&gt;Node7</title>
<path fill="none" stroke="midnightblue" d="M408.725,-124C425.634,-124 444.683,-124 459.756,-124"/>
<polygon fill="midnightblue" stroke="midnightblue" points="408.529,-120.5 398.529,-124 408.529,-127.5 408.529,-120.5"/>
</g>
</g>
</svg>
