<?xml version="1.0" encoding="UTF-8" standalone="no"?>
<!DOCTYPE svg PUBLIC "-//W3C//DTD SVG 1.1//EN"
 "http://www.w3.org/Graphics/SVG/1.1/DTD/svg11.dtd">
<!-- Generated by graphviz version 2.38.0 (20140413.2041)
 -->
<!-- Title: MonteCarloModel&lt; E &gt; Pages: 1 -->
<svg width="307pt" height="127pt"
 viewBox="0.00 0.00 307.00 127.00" xmlns="http://www.w3.org/2000/svg" xmlns:xlink="http://www.w3.org/1999/xlink">
<g id="graph0" class="graph" transform="scale(1 1) rotate(0) translate(4 123)">
<title>MonteCarloModel&lt; E &gt;</title>
<!-- Node0 -->
<g id="node1" class="node"><title>Node0</title>
<polygon fill="#bfbfbf" stroke="black" points="0,-50 0,-69 117,-69 117,-50 0,-50"/>
<text text-anchor="middle" x="58.5" y="-57" font-family="Helvetica,sans-Serif" font-size="10.00">MonteCarloModel&lt; E &gt;</text>
</g>
<!-- Node1 -->
<g id="node2" class="node"><title>Node1</title>
<g id="a_node2"><a xlink:href="classumontreal_1_1ssj_1_1mcqmctools_1_1anova_1_1AnovaVarianceEstimator.html" target="_top" xlink:title="ANOVA variance estimator. ">
<polygon fill="none" stroke="black" points="164.5,-88.5 164.5,-118.5 287.5,-118.5 287.5,-88.5 164.5,-88.5"/>
<text text-anchor="start" x="172.5" y="-106.5" font-family="Helvetica,sans-Serif" font-size="10.00">AnovaVarianceEstimator</text>
<text text-anchor="middle" x="226" y="-95.5" font-family="Helvetica,sans-Serif" font-size="10.00">&lt; double[]&gt;</text>
</a>
</g>
</g>
<!-- Node0&#45;&gt;Node1 -->
<g id="edge1" class="edge"><title>Node0&#45;&gt;Node1</title>
<path fill="none" stroke="midnightblue" d="M105.271,-71.6687C124.787,-76.8574 147.759,-82.9646 168.334,-88.4346"/>
<polygon fill="midnightblue" stroke="midnightblue" points="105.975,-68.2343 95.411,-69.0473 104.176,-74.9993 105.975,-68.2343"/>
</g>
<!-- Node2 -->
<g id="node3" class="node"><title>Node2</title>
<g id="a_node3"><a xlink:href="interfaceumontreal_1_1ssj_1_1mcqmctools_1_1anova_1_1MonteCarloModelRQMC.html" target="_top" xlink:title="An interface for a simple simulation model for which Monte Carlo (MC) or RQMC experiments are to be p...">
<polygon fill="none" stroke="black" points="153,-50 153,-69 299,-69 299,-50 153,-50"/>
<text text-anchor="middle" x="226" y="-57" font-family="Helvetica,sans-Serif" font-size="10.00">MonteCarloModelRQMC&lt; E &gt;</text>
</a>
</g>
</g>
<!-- Node0&#45;&gt;Node2 -->
<g id="edge2" class="edge"><title>Node0&#45;&gt;Node2</title>
<path fill="none" stroke="midnightblue" d="M127.478,-59.5C135.859,-59.5 144.448,-59.5 152.887,-59.5"/>
<polygon fill="midnightblue" stroke="midnightblue" points="127.384,-56.0001 117.384,-59.5 127.384,-63.0001 127.384,-56.0001"/>
</g>
<!-- Node3 -->
<g id="node4" class="node"><title>Node3</title>
<g id="a_node4"><a xlink:href="classumontreal_1_1ssj_1_1mcqmctools_1_1anova_1_1PartialVarianceEstimator.html" target="_top" xlink:title="Partial variance estimator. ">
<polygon fill="none" stroke="black" points="163.5,-0.5 163.5,-30.5 288.5,-30.5 288.5,-0.5 163.5,-0.5"/>
<text text-anchor="start" x="171.5" y="-18.5" font-family="Helvetica,sans-Serif" font-size="10.00">PartialVarianceEstimator</text>
<text text-anchor="middle" x="226" y="-7.5" font-family="Helvetica,sans-Serif" font-size="10.00">&lt; double[]&gt;</text>
</a>
</g>
</g>
<!-- Node0&#45;&gt;Node3 -->
<g id="edge3" class="edge"><title>Node0&#45;&gt;Node3</title>
<path fill="none" stroke="midnightblue" d="M105.271,-47.3313C124.787,-42.1426 147.759,-36.0354 168.334,-30.5654"/>
<polygon fill="midnightblue" stroke="midnightblue" points="104.176,-44.0007 95.411,-49.9527 105.975,-50.7657 104.176,-44.0007"/>
</g>
</g>
</svg>
