<?xml version="1.0" encoding="UTF-8" standalone="no"?>
<!DOCTYPE svg PUBLIC "-//W3C//DTD SVG 1.1//EN"
 "http://www.w3.org/Graphics/SVG/1.1/DTD/svg11.dtd">
<!-- Generated by graphviz version 2.38.0 (20140413.2041)
 -->
<!-- Title: MultiDimSort&lt; T &gt; Pages: 1 -->
<svg width="282pt" height="84pt"
 viewBox="0.00 0.00 281.50 84.00" xmlns="http://www.w3.org/2000/svg" xmlns:xlink="http://www.w3.org/1999/xlink">
<g id="graph0" class="graph" transform="scale(1 1) rotate(0) translate(4 80)">
<title>MultiDimSort&lt; T &gt;</title>
<!-- Node0 -->
<g id="node1" class="node"><title>Node0</title>
<polygon fill="#bfbfbf" stroke="black" points="78.5,-56.5 78.5,-75.5 174.5,-75.5 174.5,-56.5 78.5,-56.5"/>
<text text-anchor="middle" x="126.5" y="-63.5" font-family="Helvetica,sans-Serif" font-size="10.00">MultiDimSort&lt; T &gt;</text>
</g>
<!-- Node1 -->
<g id="node2" class="node"><title>Node1</title>
<g id="a_node2"><a xlink:href="interfaceumontreal_1_1ssj_1_1util_1_1sort_1_1MultiDimSort01.html" target="_top" xlink:title="This interface extends MultiDimSort&lt;T&gt; to implement multivariate sorting algorithms that sort points ...">
<polygon fill="none" stroke="black" points="0,-0.5 0,-19.5 107,-19.5 107,-0.5 0,-0.5"/>
<text text-anchor="middle" x="53.5" y="-7.5" font-family="Helvetica,sans-Serif" font-size="10.00">MultiDimSort01&lt; T &gt;</text>
</a>
</g>
</g>
<!-- Node0&#45;&gt;Node1 -->
<g id="edge1" class="edge"><title>Node0&#45;&gt;Node1</title>
<path fill="none" stroke="midnightblue" d="M106.358,-50.1008C93.2207,-40.3824 76.5179,-28.0269 65.4421,-19.8339"/>
<polygon fill="midnightblue" stroke="midnightblue" points="104.65,-53.1907 114.771,-56.324 108.813,-47.5631 104.65,-53.1907"/>
</g>
<!-- Node2 -->
<g id="node3" class="node"><title>Node2</title>
<g id="a_node3"><a xlink:href="interfaceumontreal_1_1ssj_1_1util_1_1sort_1_1MultiDimSortComparable.html" target="_top" xlink:title="This interface extends MultiDimSort&lt;T&gt; to implement multivariate sorting algorithms that sort objects...">
<polygon fill="none" stroke="black" points="125.5,-0.5 125.5,-19.5 273.5,-19.5 273.5,-0.5 125.5,-0.5"/>
<text text-anchor="middle" x="199.5" y="-7.5" font-family="Helvetica,sans-Serif" font-size="10.00">MultiDimSortComparable&lt; T &gt;</text>
</a>
</g>
</g>
<!-- Node0&#45;&gt;Node2 -->
<g id="edge2" class="edge"><title>Node0&#45;&gt;Node2</title>
<path fill="none" stroke="midnightblue" d="M146.642,-50.1008C159.779,-40.3824 176.482,-28.0269 187.558,-19.8339"/>
<polygon fill="midnightblue" stroke="midnightblue" points="144.187,-47.5631 138.229,-56.324 148.35,-53.1907 144.187,-47.5631"/>
</g>
</g>
</svg>
