<?xml version="1.0" encoding="UTF-8" standalone="no"?>
<!DOCTYPE svg PUBLIC "-//W3C//DTD SVG 1.1//EN"
 "http://www.w3.org/Graphics/SVG/1.1/DTD/svg11.dtd">
<!-- Generated by graphviz version 2.38.0 (20140413.2041)
 -->
<!-- Title: Distribution Pages: 1 -->
<!--zoomable 1700 -->
<svg id="main" version="1.1" xmlns="http://www.w3.org/2000/svg" xmlns:xlink="http://www.w3.org/1999/xlink" xml:space="preserve" onload="init(evt)">
<style type="text/css"><![CDATA[
.edge:hover path { stroke: red; }
.edge:hover polygon { stroke: red; fill: red; }
]]></style>
<script type="text/javascript"><![CDATA[
var edges = document.getElementsByTagName('g');
if (edges && edges.length) {
  for (var i=0;i<edges.length;i++) {
    if (edges[i].id.substr(0,4)=='edge') {
      edges[i].setAttribute('class','edge');
    }
  }
}
]]></script>
        <defs>
                <circle id="rim" cx="0" cy="0" r="7"/>
                <circle id="rim2" cx="0" cy="0" r="3.5"/>
                <g id="zoomPlus">
                        <use xlink:href="#rim" fill="#404040">
                                <set attributeName="fill" to="#808080" begin="zoomplus.mouseover" end="zoomplus.mouseout"/>
                        </use>
                        <path d="M-4,0h8M0,-4v8" fill="none" stroke="white" stroke-width="1.5" pointer-events="none"/>
                </g>
                <g id="zoomMin">
                        <use xlink:href="#rim" fill="#404040">
                                <set attributeName="fill" to="#808080" begin="zoomminus.mouseover" end="zoomminus.mouseout"/>
                        </use>
                        <path d="M-4,0h8" fill="none" stroke="white" stroke-width="1.5" pointer-events="none"/>
                </g>
                <g id="dirArrow">
                        <path fill="none" stroke="white" stroke-width="1.5" d="M0,-3.0v7 M-2.5,-0.5L0,-3.0L2.5,-0.5"/>
                </g>
               <g id="resetDef">
                       <use xlink:href="#rim2" fill="#404040">
                               <set attributeName="fill" to="#808080" begin="reset.mouseover" end="reset.mouseout"/>
                       </use>
               </g>
        </defs>

<script type="text/javascript">
var viewWidth = 404;
var viewHeight = 1700;
var sectionId = 'dynsection-0';
</script>
<script xlink:href="svgpan.js"/>
<svg id="graph" class="graph">
<g id="viewport">
<title>Distribution</title>
<!-- Node0 -->
<g id="node1" class="node"><title>Node0</title>
<polygon fill="#bfbfbf" stroke="black" points="0,-399.5 0,-418.5 65,-418.5 65,-399.5 0,-399.5"/>
<text text-anchor="middle" x="32.5" y="-406.5" font-family="Helvetica,sans-Serif" font-size="10.00">Distribution</text>
</g>
<!-- Node1 -->
<g id="node2" class="node"><title>Node1</title>
<g id="a_node2"><a xlink:href="classumontreal_1_1ssj_1_1probdist_1_1ContinuousDistribution.html" target="_top" xlink:title="Classes implementing continuous distributions should inherit from this base class. ">
<polygon fill="none" stroke="black" points="101,-836.5 101,-855.5 215,-855.5 215,-836.5 101,-836.5"/>
<text text-anchor="middle" x="158" y="-843.5" font-family="Helvetica,sans-Serif" font-size="10.00">ContinuousDistribution</text>
</a>
</g>
</g>
<!-- Node0&#45;&gt;Node1 -->
<g id="edge1" class="edge"><title>Node0&#45;&gt;Node1</title>
<path fill="none" stroke="midnightblue" d="M38.9264,-428.201C60.3323,-503.945 138.513,-780.586 154.235,-836.216"/>
<polygon fill="midnightblue" stroke="midnightblue" points="42.2821,-427.205 36.1943,-418.534 35.5459,-429.109 42.2821,-427.205"/>
</g>
<!-- Node61 -->
<g id="node47" class="node"><title>Node61</title>
<g id="a_node47"><a xlink:href="classumontreal_1_1ssj_1_1probdist_1_1DiscreteDistribution.html" target="_top" xlink:title="This class implements discrete distributions over a finite set of real numbers (also over integers as...">
<polygon fill="none" stroke="red" points="107.5,-399.5 107.5,-418.5 208.5,-418.5 208.5,-399.5 107.5,-399.5"/>
<text text-anchor="middle" x="158" y="-406.5" font-family="Helvetica,sans-Serif" font-size="10.00">DiscreteDistribution</text>
</a>
</g>
</g>
<!-- Node0&#45;&gt;Node61 -->
<g id="edge46" class="edge"><title>Node0&#45;&gt;Node61</title>
<path fill="none" stroke="midnightblue" d="M75.5367,-409C85.6821,-409 96.6206,-409 107.088,-409"/>
<polygon fill="midnightblue" stroke="midnightblue" points="75.3044,-405.5 65.3043,-409 75.3043,-412.5 75.3044,-405.5"/>
</g>
<!-- Node64 -->
<g id="node49" class="node"><title>Node64</title>
<g id="a_node49"><a xlink:href="classumontreal_1_1ssj_1_1probdist_1_1DiscreteDistributionInt.html" target="_top" xlink:title="Classes implementing discrete distributions over the integers should inherit from this class...">
<polygon fill="none" stroke="red" points="102,-361.5 102,-380.5 214,-380.5 214,-361.5 102,-361.5"/>
<text text-anchor="middle" x="158" y="-368.5" font-family="Helvetica,sans-Serif" font-size="10.00">DiscreteDistributionInt</text>
</a>
</g>
</g>
<!-- Node0&#45;&gt;Node64 -->
<g id="edge48" class="edge"><title>Node0&#45;&gt;Node64</title>
<path fill="none" stroke="midnightblue" d="M74.2397,-396.465C91.0405,-391.295 110.197,-385.401 125.846,-380.586"/>
<polygon fill="midnightblue" stroke="midnightblue" points="73.1927,-393.125 64.6643,-399.411 75.2514,-399.815 73.1927,-393.125"/>
</g>
<!-- Node2 -->
<g id="node3" class="node"><title>Node2</title>
<g id="a_node3"><a xlink:href="classumontreal_1_1ssj_1_1probdist_1_1AndersonDarlingDist.html" target="_top" xlink:title="Extends the class ContinuousDistribution for the Anderson–Darling distribution (see ...">
<polygon fill="none" stroke="red" points="271,-1672.5 271,-1691.5 376,-1691.5 376,-1672.5 271,-1672.5"/>
<text text-anchor="middle" x="323.5" y="-1679.5" font-family="Helvetica,sans-Serif" font-size="10.00">AndersonDarlingDist</text>
</a>
</g>
</g>
<!-- Node1&#45;&gt;Node2 -->
<g id="edge2" class="edge"><title>Node1&#45;&gt;Node2</title>
<path fill="none" stroke="midnightblue" d="M159.917,-865.98C165.562,-985.288 197.156,-1600.56 251,-1663 256.284,-1669.13 263.298,-1673.39 270.87,-1676.33"/>
<polygon fill="midnightblue" stroke="midnightblue" points="163.402,-865.576 159.439,-855.75 156.409,-865.902 163.402,-865.576"/>
</g>
<!-- Node4 -->
<g id="node4" class="node"><title>Node4</title>
<g id="a_node4"><a xlink:href="classumontreal_1_1ssj_1_1probdist_1_1BetaDist.html" target="_top" xlink:title="Extends the class ContinuousDistribution for the beta distribution   (page 210) with shape parameter...">
<polygon fill="none" stroke="red" points="296.5,-1634.5 296.5,-1653.5 350.5,-1653.5 350.5,-1634.5 296.5,-1634.5"/>
<text text-anchor="middle" x="323.5" y="-1641.5" font-family="Helvetica,sans-Serif" font-size="10.00">BetaDist</text>
</a>
</g>
</g>
<!-- Node1&#45;&gt;Node4 -->
<g id="edge3" class="edge"><title>Node1&#45;&gt;Node4</title>
<path fill="none" stroke="midnightblue" d="M160.02,-865.761C166.15,-981.239 199.573,-1565.69 251,-1625 262.107,-1637.81 280.769,-1642.46 296.243,-1643.96"/>
<polygon fill="midnightblue" stroke="midnightblue" points="163.504,-865.366 159.485,-855.563 156.514,-865.733 163.504,-865.366"/>
</g>
<!-- Node6 -->
<g id="node5" class="node"><title>Node6</title>
<g id="a_node5"><a xlink:href="classumontreal_1_1ssj_1_1probdist_1_1CauchyDist.html" target="_top" xlink:title="Extends the class ContinuousDistribution for the Cauchy distribution   (page 299) with location para...">
<polygon fill="none" stroke="black" points="290,-1596.5 290,-1615.5 357,-1615.5 357,-1596.5 290,-1596.5"/>
<text text-anchor="middle" x="323.5" y="-1603.5" font-family="Helvetica,sans-Serif" font-size="10.00">CauchyDist</text>
</a>
</g>
</g>
<!-- Node1&#45;&gt;Node6 -->
<g id="edge4" class="edge"><title>Node1&#45;&gt;Node6</title>
<path fill="none" stroke="midnightblue" d="M158.585,-866.04C156.786,-972.949 153.67,-1475.42 251,-1587 260.625,-1598.03 275.856,-1603.01 289.792,-1605.13"/>
<polygon fill="midnightblue" stroke="midnightblue" points="162.09,-865.79 158.776,-855.726 155.091,-865.66 162.09,-865.79"/>
</g>
<!-- Node7 -->
<g id="node6" class="node"><title>Node7</title>
<g id="a_node6"><a xlink:href="classumontreal_1_1ssj_1_1probdist_1_1ChiDist.html" target="_top" xlink:title="Extends the class ContinuousDistribution for the chi distribution   (page 417) with shape parameter ...">
<polygon fill="none" stroke="black" points="299.5,-1558.5 299.5,-1577.5 347.5,-1577.5 347.5,-1558.5 299.5,-1558.5"/>
<text text-anchor="middle" x="323.5" y="-1565.5" font-family="Helvetica,sans-Serif" font-size="10.00">ChiDist</text>
</a>
</g>
</g>
<!-- Node1&#45;&gt;Node7 -->
<g id="edge5" class="edge"><title>Node1&#45;&gt;Node7</title>
<path fill="none" stroke="midnightblue" d="M158.735,-865.981C157.772,-969.458 158.523,-1443.69 251,-1549 262.95,-1562.61 283.426,-1566.99 299.412,-1568.18"/>
<polygon fill="midnightblue" stroke="midnightblue" points="162.237,-865.75 158.848,-855.712 155.238,-865.672 162.237,-865.75"/>
</g>
<!-- Node8 -->
<g id="node7" class="node"><title>Node8</title>
<g id="a_node7"><a xlink:href="classumontreal_1_1ssj_1_1probdist_1_1ChiSquareDist.html" target="_top" xlink:title="Extends the class ContinuousDistribution for the chi&#45;square distribution with &#160;degrees of freedom...">
<polygon fill="none" stroke="red" points="284,-1520.5 284,-1539.5 363,-1539.5 363,-1520.5 284,-1520.5"/>
<text text-anchor="middle" x="323.5" y="-1527.5" font-family="Helvetica,sans-Serif" font-size="10.00">ChiSquareDist</text>
</a>
</g>
</g>
<!-- Node1&#45;&gt;Node8 -->
<g id="edge6" class="edge"><title>Node1&#45;&gt;Node8</title>
<path fill="none" stroke="midnightblue" d="M158.9,-865.838C158.804,-965.637 163.345,-1411.92 251,-1511 259.34,-1520.43 271.773,-1525.42 283.942,-1527.99"/>
<polygon fill="midnightblue" stroke="midnightblue" points="162.4,-865.666 158.928,-855.656 155.4,-865.646 162.4,-865.666"/>
</g>
<!-- Node10 -->
<g id="node8" class="node"><title>Node10</title>
<g id="a_node8"><a xlink:href="classumontreal_1_1ssj_1_1probdist_1_1ChiSquareNoncentralDist.html" target="_top" xlink:title="Extends the class ContinuousDistribution for the noncentral chi&#45;square distribution with &#160;degrees of ...">
<polygon fill="none" stroke="black" points="261,-1482.5 261,-1501.5 386,-1501.5 386,-1482.5 261,-1482.5"/>
<text text-anchor="middle" x="323.5" y="-1489.5" font-family="Helvetica,sans-Serif" font-size="10.00">ChiSquareNoncentralDist</text>
</a>
</g>
</g>
<!-- Node1&#45;&gt;Node10 -->
<g id="edge7" class="edge"><title>Node1&#45;&gt;Node10</title>
<path fill="none" stroke="midnightblue" d="M159.081,-865.607C159.881,-961.486 168.133,-1380.1 251,-1473 254.42,-1476.83 258.517,-1479.93 262.995,-1482.43"/>
<polygon fill="midnightblue" stroke="midnightblue" points="162.581,-865.535 159.016,-855.558 155.581,-865.581 162.581,-865.535"/>
</g>
<!-- Node11 -->
<g id="node9" class="node"><title>Node11</title>
<g id="a_node9"><a xlink:href="classumontreal_1_1ssj_1_1probdist_1_1CramerVonMisesDist.html" target="_top" xlink:title="Extends the class ContinuousDistribution for the Cramér&#45;von Mises distribution (see ...">
<polygon fill="none" stroke="black" points="269,-1444.5 269,-1463.5 378,-1463.5 378,-1444.5 269,-1444.5"/>
<text text-anchor="middle" x="323.5" y="-1451.5" font-family="Helvetica,sans-Serif" font-size="10.00">CramerVonMisesDist</text>
</a>
</g>
</g>
<!-- Node1&#45;&gt;Node11 -->
<g id="edge8" class="edge"><title>Node1&#45;&gt;Node11</title>
<path fill="none" stroke="midnightblue" d="M159.291,-865.875C161.052,-958.671 173.055,-1348.43 251,-1435 255.899,-1440.44 262.16,-1444.4 268.936,-1447.27"/>
<polygon fill="midnightblue" stroke="midnightblue" points="162.79,-865.796 159.12,-855.857 155.791,-865.916 162.79,-865.796"/>
</g>
<!-- Node12 -->
<g id="node10" class="node"><title>Node12</title>
<g id="a_node10"><a xlink:href="classumontreal_1_1ssj_1_1probdist_1_1ExponentialDist.html" target="_top" xlink:title="Extends the class ContinuousDistribution for the exponential distribution   (page 494) with mean &#160;wh...">
<polygon fill="none" stroke="red" points="281,-1406.5 281,-1425.5 366,-1425.5 366,-1406.5 281,-1406.5"/>
<text text-anchor="middle" x="323.5" y="-1413.5" font-family="Helvetica,sans-Serif" font-size="10.00">ExponentialDist</text>
</a>
</g>
</g>
<!-- Node1&#45;&gt;Node12 -->
<g id="edge9" class="edge"><title>Node1&#45;&gt;Node12</title>
<path fill="none" stroke="midnightblue" d="M159.52,-865.703C162.263,-954.494 177.841,-1316.6 251,-1397 258.693,-1405.45 269.679,-1410.33 280.738,-1413.09"/>
<polygon fill="midnightblue" stroke="midnightblue" points="163.017,-865.544 159.23,-855.649 156.02,-865.746 163.017,-865.544"/>
</g>
<!-- Node14 -->
<g id="node11" class="node"><title>Node14</title>
<g id="a_node11"><a xlink:href="classumontreal_1_1ssj_1_1probdist_1_1ExtremeValueDist.html" target="_top" xlink:title="This class has been replaced by GumbelDist . ">
<polygon fill="none" stroke="black" points="276,-1368.5 276,-1387.5 371,-1387.5 371,-1368.5 276,-1368.5"/>
<text text-anchor="middle" x="323.5" y="-1375.5" font-family="Helvetica,sans-Serif" font-size="10.00">ExtremeValueDist</text>
</a>
</g>
</g>
<!-- Node1&#45;&gt;Node14 -->
<g id="edge10" class="edge"><title>Node1&#45;&gt;Node14</title>
<path fill="none" stroke="midnightblue" d="M159.797,-865.95C163.611,-951.317 182.729,-1284.87 251,-1359 257.613,-1366.18 266.601,-1370.77 275.971,-1373.68"/>
<polygon fill="midnightblue" stroke="midnightblue" points="163.288,-865.643 159.365,-855.801 156.294,-865.941 163.288,-865.643"/>
</g>
<!-- Node15 -->
<g id="node12" class="node"><title>Node15</title>
<g id="a_node12"><a xlink:href="classumontreal_1_1ssj_1_1probdist_1_1FatigueLifeDist.html" target="_top" xlink:title="Extends the class ContinuousDistribution for the fatigue life distribution   with location parameter...">
<polygon fill="none" stroke="black" points="283,-1330.5 283,-1349.5 364,-1349.5 364,-1330.5 283,-1330.5"/>
<text text-anchor="middle" x="323.5" y="-1337.5" font-family="Helvetica,sans-Serif" font-size="10.00">FatigueLifeDist</text>
</a>
</g>
</g>
<!-- Node1&#45;&gt;Node15 -->
<g id="edge11" class="edge"><title>Node1&#45;&gt;Node15</title>
<path fill="none" stroke="midnightblue" d="M160.128,-866.265C165.089,-948.11 187.615,-1253.12 251,-1321 259.24,-1329.82 271.069,-1334.73 282.74,-1337.4"/>
<polygon fill="midnightblue" stroke="midnightblue" points="163.598,-865.643 159.521,-855.864 156.61,-866.051 163.598,-865.643"/>
</g>
<!-- Node16 -->
<g id="node13" class="node"><title>Node16</title>
<g id="a_node13"><a xlink:href="classumontreal_1_1ssj_1_1probdist_1_1FisherFDist.html" target="_top" xlink:title="Extends the class ContinuousDistribution for the Fisher F distribution with &#160;and &#160;degrees of freedom...">
<polygon fill="none" stroke="black" points="290,-1292.5 290,-1311.5 357,-1311.5 357,-1292.5 290,-1292.5"/>
<text text-anchor="middle" x="323.5" y="-1299.5" font-family="Helvetica,sans-Serif" font-size="10.00">FisherFDist</text>
</a>
</g>
</g>
<!-- Node1&#45;&gt;Node16 -->
<g id="edge12" class="edge"><title>Node1&#45;&gt;Node16</title>
<path fill="none" stroke="midnightblue" d="M160.487,-866.12C166.609,-943.573 192.365,-1221.22 251,-1283 260.991,-1293.53 276.093,-1298.46 289.847,-1300.69"/>
<polygon fill="midnightblue" stroke="midnightblue" points="163.952,-865.533 159.697,-855.83 156.972,-866.069 163.952,-865.533"/>
</g>
<!-- Node17 -->
<g id="node14" class="node"><title>Node17</title>
<g id="a_node14"><a xlink:href="classumontreal_1_1ssj_1_1probdist_1_1FoldedNormalDist.html" target="_top" xlink:title="Extends the class ContinuousDistribution for the folded normal distribution with parameters &#160;and ...">
<polygon fill="none" stroke="black" points="276.5,-1254.5 276.5,-1273.5 370.5,-1273.5 370.5,-1254.5 276.5,-1254.5"/>
<text text-anchor="middle" x="323.5" y="-1261.5" font-family="Helvetica,sans-Serif" font-size="10.00">FoldedNormalDist</text>
</a>
</g>
</g>
<!-- Node1&#45;&gt;Node17 -->
<g id="edge13" class="edge"><title>Node1&#45;&gt;Node17</title>
<path fill="none" stroke="midnightblue" d="M160.886,-865.762C168.206,-938.393 197.044,-1189.23 251,-1245 257.787,-1252.02 266.846,-1256.54 276.23,-1259.43"/>
<polygon fill="midnightblue" stroke="midnightblue" points="164.358,-865.302 159.895,-855.693 157.391,-865.987 164.358,-865.302"/>
</g>
<!-- Node18 -->
<g id="node15" class="node"><title>Node18</title>
<g id="a_node15"><a xlink:href="classumontreal_1_1ssj_1_1probdist_1_1FrechetDist.html" target="_top" xlink:title="Extends the class ContinuousDistribution for the Fréchet distribution   (page 3), with location parameter , scale parameter , and shape parameter , where we use the notation . ">
<polygon fill="none" stroke="black" points="290,-1216.5 290,-1235.5 357,-1235.5 357,-1216.5 290,-1216.5"/>
<text text-anchor="middle" x="323.5" y="-1223.5" font-family="Helvetica,sans-Serif" font-size="10.00">FrechetDist</text>
</a>
</g>
</g>
<!-- Node1&#45;&gt;Node18 -->
<g id="edge14" class="edge"><title>Node1&#45;&gt;Node18</title>
<path fill="none" stroke="midnightblue" d="M161.437,-866.047C170.147,-934.477 201.859,-1157.36 251,-1207 261.12,-1217.22 276.07,-1222.14 289.688,-1224.43"/>
<polygon fill="midnightblue" stroke="midnightblue" points="164.868,-865.274 160.157,-855.784 157.921,-866.14 164.868,-865.274"/>
</g>
<!-- Node19 -->
<g id="node16" class="node"><title>Node19</title>
<g id="a_node16"><a xlink:href="classumontreal_1_1ssj_1_1probdist_1_1GammaDist.html" target="_top" xlink:title="Extends the class ContinuousDistribution for the gamma distribution   (page 337) with shape paramete...">
<polygon fill="none" stroke="red" points="289.5,-1178.5 289.5,-1197.5 357.5,-1197.5 357.5,-1178.5 289.5,-1178.5"/>
<text text-anchor="middle" x="323.5" y="-1185.5" font-family="Helvetica,sans-Serif" font-size="10.00">GammaDist</text>
</a>
</g>
</g>
<!-- Node1&#45;&gt;Node19 -->
<g id="edge15" class="edge"><title>Node1&#45;&gt;Node19</title>
<path fill="none" stroke="midnightblue" d="M158.375,-865.927C157.753,-922.163 164.018,-1083.55 251,-1169 261.17,-1178.99 275.963,-1183.89 289.458,-1186.23"/>
<polygon fill="midnightblue" stroke="midnightblue" points="161.881,-865.658 158.586,-855.588 154.883,-865.515 161.881,-865.658"/>
</g>
<!-- Node22 -->
<g id="node17" class="node"><title>Node22</title>
<g id="a_node17"><a xlink:href="classumontreal_1_1ssj_1_1probdist_1_1GumbelDist.html" target="_top" xlink:title="Extends the class ContinuousDistribution for the Gumbel distribution   (page 2), with location param...">
<polygon fill="none" stroke="black" points="289.5,-1140.5 289.5,-1159.5 357.5,-1159.5 357.5,-1140.5 289.5,-1140.5"/>
<text text-anchor="middle" x="323.5" y="-1147.5" font-family="Helvetica,sans-Serif" font-size="10.00">GumbelDist</text>
</a>
</g>
</g>
<!-- Node1&#45;&gt;Node22 -->
<g id="edge16" class="edge"><title>Node1&#45;&gt;Node22</title>
<path fill="none" stroke="midnightblue" d="M159.256,-865.639C161.031,-917.129 173.155,-1057.14 251,-1131 261.249,-1140.72 275.892,-1145.6 289.259,-1148"/>
<polygon fill="midnightblue" stroke="midnightblue" points="162.752,-865.453 159.006,-855.542 155.754,-865.625 162.752,-865.453"/>
</g>
<!-- Node23 -->
<g id="node18" class="node"><title>Node23</title>
<g id="a_node18"><a xlink:href="classumontreal_1_1ssj_1_1probdist_1_1HalfNormalDist.html" target="_top" xlink:title="Extends the class ContinuousDistribution for the half&#45;normal distribution with parameters &#160;and ...">
<polygon fill="none" stroke="black" points="283,-1102.5 283,-1121.5 364,-1121.5 364,-1102.5 283,-1102.5"/>
<text text-anchor="middle" x="323.5" y="-1109.5" font-family="Helvetica,sans-Serif" font-size="10.00">HalfNormalDist</text>
</a>
</g>
</g>
<!-- Node1&#45;&gt;Node23 -->
<g id="edge17" class="edge"><title>Node1&#45;&gt;Node23</title>
<path fill="none" stroke="midnightblue" d="M160.366,-865.501C164.707,-912.094 182.288,-1030.64 251,-1093 259.75,-1100.94 271.445,-1105.63 282.839,-1108.38"/>
<polygon fill="midnightblue" stroke="midnightblue" points="163.853,-865.193 159.541,-855.515 156.877,-865.769 163.853,-865.193"/>
</g>
<!-- Node24 -->
<g id="node19" class="node"><title>Node24</title>
<g id="a_node19"><a xlink:href="classumontreal_1_1ssj_1_1probdist_1_1HyperbolicSecantDist.html" target="_top" xlink:title="Extends the class ContinuousDistribution for the hyperbolic secant distribution with location paramet...">
<polygon fill="none" stroke="black" points="268.5,-1064.5 268.5,-1083.5 378.5,-1083.5 378.5,-1064.5 268.5,-1064.5"/>
<text text-anchor="middle" x="323.5" y="-1071.5" font-family="Helvetica,sans-Serif" font-size="10.00">HyperbolicSecantDist</text>
</a>
</g>
</g>
<!-- Node1&#45;&gt;Node24 -->
<g id="edge18" class="edge"><title>Node1&#45;&gt;Node24</title>
<path fill="none" stroke="midnightblue" d="M161.859,-865.551C168.975,-906.984 191.408,-1003.99 251,-1055 256.074,-1059.34 262.037,-1062.71 268.318,-1065.31"/>
<polygon fill="midnightblue" stroke="midnightblue" points="165.309,-864.956 160.272,-855.635 158.397,-866.062 165.309,-864.956"/>
</g>
<!-- Node25 -->
<g id="node20" class="node"><title>Node25</title>
<g id="a_node20"><a xlink:href="classumontreal_1_1ssj_1_1probdist_1_1HypoExponentialDist.html" target="_top" xlink:title="This class implements the hypoexponential distribution, also called the generalized Erlang distributi...">
<polygon fill="none" stroke="red" points="270,-1026.5 270,-1045.5 377,-1045.5 377,-1026.5 270,-1026.5"/>
<text text-anchor="middle" x="323.5" y="-1033.5" font-family="Helvetica,sans-Serif" font-size="10.00">HypoExponentialDist</text>
</a>
</g>
</g>
<!-- Node1&#45;&gt;Node25 -->
<g id="edge19" class="edge"><title>Node1&#45;&gt;Node25</title>
<path fill="none" stroke="midnightblue" d="M163.974,-865.633C174.067,-901.373 200.412,-977.047 251,-1017 256.544,-1021.38 263.006,-1024.75 269.736,-1027.35"/>
<polygon fill="midnightblue" stroke="midnightblue" points="167.335,-864.653 161.354,-855.907 160.575,-866.473 167.335,-864.653"/>
</g>
<!-- Node28 -->
<g id="node21" class="node"><title>Node28</title>
<g id="a_node21"><a xlink:href="classumontreal_1_1ssj_1_1probdist_1_1InverseDistFromDensity.html" target="_top" xlink:title="Implements a method for computing the inverse of an arbitrary continuous distribution function when o...">
<polygon fill="none" stroke="black" points="264,-988.5 264,-1007.5 383,-1007.5 383,-988.5 264,-988.5"/>
<text text-anchor="middle" x="323.5" y="-995.5" font-family="Helvetica,sans-Serif" font-size="10.00">InverseDistFromDensity</text>
</a>
</g>
</g>
<!-- Node1&#45;&gt;Node28 -->
<g id="edge20" class="edge"><title>Node1&#45;&gt;Node28</title>
<path fill="none" stroke="midnightblue" d="M167.013,-865.271C180.149,-894.441 209.063,-949.521 251,-979 256.569,-982.915 262.897,-986.023 269.43,-988.491"/>
<polygon fill="midnightblue" stroke="midnightblue" points="170.089,-863.567 162.893,-855.792 163.669,-866.358 170.089,-863.567"/>
</g>
<!-- Node29 -->
<g id="node22" class="node"><title>Node29</title>
<g id="a_node22"><a xlink:href="classumontreal_1_1ssj_1_1probdist_1_1InverseGammaDist.html" target="_top" xlink:title="Extends the class ContinuousDistribution for the inverse gamma distribution with shape parameter &#160;and...">
<polygon fill="none" stroke="black" points="274.5,-950.5 274.5,-969.5 372.5,-969.5 372.5,-950.5 274.5,-950.5"/>
<text text-anchor="middle" x="323.5" y="-957.5" font-family="Helvetica,sans-Serif" font-size="10.00">InverseGammaDist</text>
</a>
</g>
</g>
<!-- Node1&#45;&gt;Node29 -->
<g id="edge21" class="edge"><title>Node1&#45;&gt;Node29</title>
<path fill="none" stroke="midnightblue" d="M171.598,-864.036C187.594,-885.576 217.212,-921.176 251,-941 258.09,-945.16 266.104,-948.427 274.136,-950.988"/>
<polygon fill="midnightblue" stroke="midnightblue" points="174.302,-861.802 165.604,-855.752 168.631,-865.905 174.302,-861.802"/>
</g>
<!-- Node30 -->
<g id="node23" class="node"><title>Node30</title>
<g id="a_node23"><a xlink:href="classumontreal_1_1ssj_1_1probdist_1_1InverseGaussianDist.html" target="_top" xlink:title="Extends the class ContinuousDistribution for the inverse Gaussian distribution with location paramete...">
<polygon fill="none" stroke="black" points="271,-912.5 271,-931.5 376,-931.5 376,-912.5 271,-912.5"/>
<text text-anchor="middle" x="323.5" y="-919.5" font-family="Helvetica,sans-Serif" font-size="10.00">InverseGaussianDist</text>
</a>
</g>
</g>
<!-- Node1&#45;&gt;Node30 -->
<g id="edge22" class="edge"><title>Node1&#45;&gt;Node30</title>
<path fill="none" stroke="midnightblue" d="M180.3,-861.732C198.336,-874.416 225.289,-891.911 251,-903 259.609,-906.713 269.123,-909.854 278.324,-912.446"/>
<polygon fill="midnightblue" stroke="midnightblue" points="181.902,-858.575 171.735,-855.597 177.826,-864.266 181.902,-858.575"/>
</g>
<!-- Node31 -->
<g id="node24" class="node"><title>Node31</title>
<g id="a_node24"><a xlink:href="classumontreal_1_1ssj_1_1probdist_1_1JohnsonSystem.html" target="_top" xlink:title="This class contains common parameters and methods for the Johnson system of distributions ...">
<polygon fill="none" stroke="red" points="280.5,-874.5 280.5,-893.5 366.5,-893.5 366.5,-874.5 280.5,-874.5"/>
<text text-anchor="middle" x="323.5" y="-881.5" font-family="Helvetica,sans-Serif" font-size="10.00">JohnsonSystem</text>
</a>
</g>
</g>
<!-- Node1&#45;&gt;Node31 -->
<g id="edge23" class="edge"><title>Node1&#45;&gt;Node31</title>
<path fill="none" stroke="midnightblue" d="M210.184,-857.896C233.166,-863.237 259.913,-869.454 281.539,-874.48"/>
<polygon fill="midnightblue" stroke="midnightblue" points="210.791,-854.444 200.258,-855.589 209.206,-861.262 210.791,-854.444"/>
</g>
<!-- Node35 -->
<g id="node25" class="node"><title>Node35</title>
<g id="a_node25"><a xlink:href="classumontreal_1_1ssj_1_1probdist_1_1KolmogorovSmirnovDist.html" target="_top" xlink:title="Extends the class ContinuousDistribution for the Kolmogorov&#45;Smirnov distribution with parameter &#160; ...">
<polygon fill="none" stroke="red" points="264,-836.5 264,-855.5 383,-855.5 383,-836.5 264,-836.5"/>
<text text-anchor="middle" x="323.5" y="-843.5" font-family="Helvetica,sans-Serif" font-size="10.00">KolmogorovSmirnovDist</text>
</a>
</g>
</g>
<!-- Node1&#45;&gt;Node35 -->
<g id="edge24" class="edge"><title>Node1&#45;&gt;Node35</title>
<path fill="none" stroke="midnightblue" d="M225.366,-846C238.127,-846 251.408,-846 263.902,-846"/>
<polygon fill="midnightblue" stroke="midnightblue" points="225.267,-842.5 215.267,-846 225.267,-849.5 225.267,-842.5"/>
</g>
<!-- Node37 -->
<g id="node26" class="node"><title>Node37</title>
<g id="a_node26"><a xlink:href="classumontreal_1_1ssj_1_1probdist_1_1KolmogorovSmirnovPlusDist.html" target="_top" xlink:title="Extends the class ContinuousDistribution for the Kolmogorov–Smirnov+ distribution (see ...">
<polygon fill="none" stroke="black" points="254.5,-798.5 254.5,-817.5 392.5,-817.5 392.5,-798.5 254.5,-798.5"/>
<text text-anchor="middle" x="323.5" y="-805.5" font-family="Helvetica,sans-Serif" font-size="10.00">KolmogorovSmirnovPlusDist</text>
</a>
</g>
</g>
<!-- Node1&#45;&gt;Node37 -->
<g id="edge25" class="edge"><title>Node1&#45;&gt;Node37</title>
<path fill="none" stroke="midnightblue" d="M210.184,-834.104C233.166,-828.763 259.913,-822.546 281.539,-817.52"/>
<polygon fill="midnightblue" stroke="midnightblue" points="209.206,-830.738 200.258,-836.411 210.791,-837.556 209.206,-830.738"/>
</g>
<!-- Node38 -->
<g id="node27" class="node"><title>Node38</title>
<g id="a_node27"><a xlink:href="classumontreal_1_1ssj_1_1probdist_1_1LaplaceDist.html" target="_top" xlink:title="Extends the class ContinuousDistribution for the Laplace distribution (see, e.g.,   (page 165))...">
<polygon fill="none" stroke="black" points="289.5,-760.5 289.5,-779.5 357.5,-779.5 357.5,-760.5 289.5,-760.5"/>
<text text-anchor="middle" x="323.5" y="-767.5" font-family="Helvetica,sans-Serif" font-size="10.00">LaplaceDist</text>
</a>
</g>
</g>
<!-- Node1&#45;&gt;Node38 -->
<g id="edge26" class="edge"><title>Node1&#45;&gt;Node38</title>
<path fill="none" stroke="midnightblue" d="M180.3,-830.268C198.336,-817.584 225.289,-800.089 251,-789 263.148,-783.761 277.095,-779.662 289.427,-776.633"/>
<polygon fill="midnightblue" stroke="midnightblue" points="177.826,-827.734 171.735,-836.403 181.902,-833.425 177.826,-827.734"/>
</g>
<!-- Node39 -->
<g id="node28" class="node"><title>Node39</title>
<g id="a_node28"><a xlink:href="classumontreal_1_1ssj_1_1probdist_1_1LogisticDist.html" target="_top" xlink:title="Extends the class ContinuousDistribution for the logistic distribution (e.g.,   (page 115))...">
<polygon fill="none" stroke="black" points="289.5,-722.5 289.5,-741.5 357.5,-741.5 357.5,-722.5 289.5,-722.5"/>
<text text-anchor="middle" x="323.5" y="-729.5" font-family="Helvetica,sans-Serif" font-size="10.00">LogisticDist</text>
</a>
</g>
</g>
<!-- Node1&#45;&gt;Node39 -->
<g id="edge27" class="edge"><title>Node1&#45;&gt;Node39</title>
<path fill="none" stroke="midnightblue" d="M171.598,-827.964C187.594,-806.424 217.212,-770.824 251,-751 262.632,-744.175 276.75,-739.753 289.359,-736.91"/>
<polygon fill="midnightblue" stroke="midnightblue" points="168.631,-826.095 165.604,-836.248 174.302,-830.198 168.631,-826.095"/>
</g>
<!-- Node40 -->
<g id="node29" class="node"><title>Node40</title>
<g id="a_node29"><a xlink:href="classumontreal_1_1ssj_1_1probdist_1_1LoglogisticDist.html" target="_top" xlink:title="Extends the class ContinuousDistribution for the Log&#45;Logistic distribution with shape parameter &#160;and ...">
<polygon fill="none" stroke="black" points="283.5,-684.5 283.5,-703.5 363.5,-703.5 363.5,-684.5 283.5,-684.5"/>
<text text-anchor="middle" x="323.5" y="-691.5" font-family="Helvetica,sans-Serif" font-size="10.00">LoglogisticDist</text>
</a>
</g>
</g>
<!-- Node1&#45;&gt;Node40 -->
<g id="edge28" class="edge"><title>Node1&#45;&gt;Node40</title>
<path fill="none" stroke="midnightblue" d="M167.013,-826.729C180.149,-797.559 209.063,-742.479 251,-713 260.457,-706.352 272.102,-702.031 283.227,-699.221"/>
<polygon fill="midnightblue" stroke="midnightblue" points="163.669,-825.642 162.893,-836.208 170.089,-828.433 163.669,-825.642"/>
</g>
<!-- Node41 -->
<g id="node30" class="node"><title>Node41</title>
<g id="a_node30"><a xlink:href="classumontreal_1_1ssj_1_1probdist_1_1LognormalDist.html" target="_top" xlink:title="Extends the class ContinuousDistribution for the lognormal distribution  . ">
<polygon fill="none" stroke="red" points="284,-646.5 284,-665.5 363,-665.5 363,-646.5 284,-646.5"/>
<text text-anchor="middle" x="323.5" y="-653.5" font-family="Helvetica,sans-Serif" font-size="10.00">LognormalDist</text>
</a>
</g>
</g>
<!-- Node1&#45;&gt;Node41 -->
<g id="edge29" class="edge"><title>Node1&#45;&gt;Node41</title>
<path fill="none" stroke="midnightblue" d="M163.974,-826.367C174.067,-790.627 200.412,-714.953 251,-675 260.374,-667.597 272.373,-663.065 283.853,-660.295"/>
<polygon fill="midnightblue" stroke="midnightblue" points="160.575,-825.527 161.354,-836.093 167.335,-827.347 160.575,-825.527"/>
</g>
<!-- Node43 -->
<g id="node31" class="node"><title>Node43</title>
<g id="a_node31"><a xlink:href="classumontreal_1_1ssj_1_1probdist_1_1NakagamiDist.html" target="_top" xlink:title="Extends the class ContinuousDistribution for the Nakagami distribution with location parameter ...">
<polygon fill="none" stroke="black" points="285,-608.5 285,-627.5 362,-627.5 362,-608.5 285,-608.5"/>
<text text-anchor="middle" x="323.5" y="-615.5" font-family="Helvetica,sans-Serif" font-size="10.00">NakagamiDist</text>
</a>
</g>
</g>
<!-- Node1&#45;&gt;Node43 -->
<g id="edge30" class="edge"><title>Node1&#45;&gt;Node43</title>
<path fill="none" stroke="midnightblue" d="M161.859,-826.449C168.975,-785.016 191.408,-688.007 251,-637 260.465,-628.899 273.023,-624.209 284.97,-621.508"/>
<polygon fill="midnightblue" stroke="midnightblue" points="158.397,-825.938 160.272,-836.365 165.309,-827.044 158.397,-825.938"/>
</g>
<!-- Node44 -->
<g id="node32" class="node"><title>Node44</title>
<g id="a_node32"><a xlink:href="classumontreal_1_1ssj_1_1probdist_1_1NormalDist.html" target="_top" xlink:title="Extends the class ContinuousDistribution for the normal distribution (e.g.,   (page 80))...">
<polygon fill="none" stroke="red" points="291,-570.5 291,-589.5 356,-589.5 356,-570.5 291,-570.5"/>
<text text-anchor="middle" x="323.5" y="-577.5" font-family="Helvetica,sans-Serif" font-size="10.00">NormalDist</text>
</a>
</g>
</g>
<!-- Node1&#45;&gt;Node44 -->
<g id="edge31" class="edge"><title>Node1&#45;&gt;Node44</title>
<path fill="none" stroke="midnightblue" d="M160.366,-826.499C164.707,-779.906 182.288,-661.362 251,-599 261.842,-589.16 277.207,-584.316 290.916,-581.969"/>
<polygon fill="midnightblue" stroke="midnightblue" points="156.877,-826.231 159.541,-836.485 163.853,-826.807 156.877,-826.231"/>
</g>
<!-- Node46 -->
<g id="node33" class="node"><title>Node46</title>
<g id="a_node33"><a xlink:href="classumontreal_1_1ssj_1_1probdist_1_1NormalInverseGaussianDist.html" target="_top" xlink:title="Extends the class ContinuousDistribution for the normal inverse gaussian distribution with location p...">
<polygon fill="none" stroke="black" points="255.5,-532.5 255.5,-551.5 391.5,-551.5 391.5,-532.5 255.5,-532.5"/>
<text text-anchor="middle" x="323.5" y="-539.5" font-family="Helvetica,sans-Serif" font-size="10.00">NormalInverseGaussianDist</text>
</a>
</g>
</g>
<!-- Node1&#45;&gt;Node46 -->
<g id="edge32" class="edge"><title>Node1&#45;&gt;Node46</title>
<path fill="none" stroke="midnightblue" d="M159.256,-826.361C161.031,-774.871 173.155,-634.861 251,-561 255.1,-557.11 259.902,-553.996 265.045,-551.506"/>
<polygon fill="midnightblue" stroke="midnightblue" points="155.754,-826.375 159.006,-836.458 162.752,-826.547 155.754,-826.375"/>
</g>
<!-- Node47 -->
<g id="node34" class="node"><title>Node47</title>
<g id="a_node34"><a xlink:href="classumontreal_1_1ssj_1_1probdist_1_1ParetoDist.html" target="_top" xlink:title="Extends the class ContinuousDistribution for a distribution from the Pareto family, with shape parameter &#160;and location parameter &#160;  (page 574). ">
<polygon fill="none" stroke="black" points="292.5,-494.5 292.5,-513.5 354.5,-513.5 354.5,-494.5 292.5,-494.5"/>
<text text-anchor="middle" x="323.5" y="-501.5" font-family="Helvetica,sans-Serif" font-size="10.00">ParetoDist</text>
</a>
</g>
</g>
<!-- Node1&#45;&gt;Node47 -->
<g id="edge33" class="edge"><title>Node1&#45;&gt;Node47</title>
<path fill="none" stroke="midnightblue" d="M158.375,-826.073C157.753,-769.837 164.018,-608.452 251,-523 261.903,-512.289 278.119,-507.43 292.353,-505.297"/>
<polygon fill="midnightblue" stroke="midnightblue" points="154.883,-826.485 158.586,-836.412 161.881,-826.342 154.883,-826.485"/>
</g>
<!-- Node48 -->
<g id="node35" class="node"><title>Node48</title>
<g id="a_node35"><a xlink:href="classumontreal_1_1ssj_1_1probdist_1_1Pearson5Dist.html" target="_top" xlink:title="THIS CLASS HAS BEEN RENAMED InverseGammaDist . ">
<polygon fill="none" stroke="black" points="286,-456.5 286,-475.5 361,-475.5 361,-456.5 286,-456.5"/>
<text text-anchor="middle" x="323.5" y="-463.5" font-family="Helvetica,sans-Serif" font-size="10.00">Pearson5Dist</text>
</a>
</g>
</g>
<!-- Node1&#45;&gt;Node48 -->
<g id="edge34" class="edge"><title>Node1&#45;&gt;Node48</title>
<path fill="none" stroke="midnightblue" d="M161.437,-825.953C170.147,-757.523 201.859,-534.644 251,-485 260.126,-475.78 273.18,-470.878 285.643,-468.322"/>
<polygon fill="midnightblue" stroke="midnightblue" points="157.921,-825.86 160.157,-836.216 164.868,-826.726 157.921,-825.86"/>
</g>
<!-- Node49 -->
<g id="node36" class="node"><title>Node49</title>
<g id="a_node36"><a xlink:href="classumontreal_1_1ssj_1_1probdist_1_1Pearson6Dist.html" target="_top" xlink:title="Extends the class ContinuousDistribution for the Pearson type VI distribution with shape parameters &#160;...">
<polygon fill="none" stroke="black" points="286,-418.5 286,-437.5 361,-437.5 361,-418.5 286,-418.5"/>
<text text-anchor="middle" x="323.5" y="-425.5" font-family="Helvetica,sans-Serif" font-size="10.00">Pearson6Dist</text>
</a>
</g>
</g>
<!-- Node1&#45;&gt;Node49 -->
<g id="edge35" class="edge"><title>Node1&#45;&gt;Node49</title>
<path fill="none" stroke="midnightblue" d="M160.886,-826.238C168.206,-753.607 197.044,-502.773 251,-447 260.109,-437.584 273.31,-432.655 285.896,-430.133"/>
<polygon fill="midnightblue" stroke="midnightblue" points="157.391,-826.013 159.895,-836.307 164.358,-826.698 157.391,-826.013"/>
</g>
<!-- Node50 -->
<g id="node37" class="node"><title>Node50</title>
<g id="a_node37"><a xlink:href="classumontreal_1_1ssj_1_1probdist_1_1PiecewiseLinearEmpiricalDist.html" target="_top" xlink:title="Extends the class ContinuousDistribution for a piecewise&#45;linear approximation of the empirical distri...">
<polygon fill="none" stroke="black" points="251,-380.5 251,-399.5 396,-399.5 396,-380.5 251,-380.5"/>
<text text-anchor="middle" x="323.5" y="-387.5" font-family="Helvetica,sans-Serif" font-size="10.00">PiecewiseLinearEmpiricalDist</text>
</a>
</g>
</g>
<!-- Node1&#45;&gt;Node50 -->
<g id="edge36" class="edge"><title>Node1&#45;&gt;Node50</title>
<path fill="none" stroke="midnightblue" d="M160.487,-825.88C166.609,-748.427 192.365,-470.781 251,-409 254.625,-405.18 258.923,-402.097 263.585,-399.612"/>
<polygon fill="midnightblue" stroke="midnightblue" points="156.972,-825.931 159.697,-836.17 163.952,-826.467 156.972,-825.931"/>
</g>
<!-- Node51 -->
<g id="node38" class="node"><title>Node51</title>
<g id="a_node38"><a xlink:href="classumontreal_1_1ssj_1_1probdist_1_1PowerDist.html" target="_top" xlink:title="Extends the class ContinuousDistribution for the power distribution   (page 161) with shape paramete...">
<polygon fill="none" stroke="black" points="293,-342.5 293,-361.5 354,-361.5 354,-342.5 293,-342.5"/>
<text text-anchor="middle" x="323.5" y="-349.5" font-family="Helvetica,sans-Serif" font-size="10.00">PowerDist</text>
</a>
</g>
</g>
<!-- Node1&#45;&gt;Node51 -->
<g id="edge37" class="edge"><title>Node1&#45;&gt;Node51</title>
<path fill="none" stroke="midnightblue" d="M160.128,-825.735C165.089,-743.89 187.615,-438.877 251,-371 261.607,-359.641 278.16,-354.775 292.669,-352.802"/>
<polygon fill="midnightblue" stroke="midnightblue" points="156.61,-825.949 159.521,-836.136 163.598,-826.357 156.61,-825.949"/>
</g>
<!-- Node52 -->
<g id="node39" class="node"><title>Node52</title>
<g id="a_node39"><a xlink:href="classumontreal_1_1ssj_1_1probdist_1_1RayleighDist.html" target="_top" xlink:title="This class extends the class ContinuousDistribution for the Rayleigh distribution   with location pa...">
<polygon fill="none" stroke="black" points="288,-304.5 288,-323.5 359,-323.5 359,-304.5 288,-304.5"/>
<text text-anchor="middle" x="323.5" y="-311.5" font-family="Helvetica,sans-Serif" font-size="10.00">RayleighDist</text>
</a>
</g>
</g>
<!-- Node1&#45;&gt;Node52 -->
<g id="edge38" class="edge"><title>Node1&#45;&gt;Node52</title>
<path fill="none" stroke="midnightblue" d="M161.287,-826.19C171.821,-736.395 216.613,-370.34 251,-333 260.397,-322.796 274.591,-317.82 287.861,-315.477"/>
<polygon fill="midnightblue" stroke="midnightblue" points="157.808,-825.81 160.127,-836.148 164.761,-826.62 157.808,-825.81"/>
</g>
<!-- Node53 -->
<g id="node40" class="node"><title>Node53</title>
<g id="a_node40"><a xlink:href="classumontreal_1_1ssj_1_1probdist_1_1StudentDist.html" target="_top" xlink:title="Extends the class ContinuousDistribution for the Student &#45;distribution   (page 362) with &#160;degrees of...">
<polygon fill="none" stroke="red" points="289.5,-266.5 289.5,-285.5 357.5,-285.5 357.5,-266.5 289.5,-266.5"/>
<text text-anchor="middle" x="323.5" y="-273.5" font-family="Helvetica,sans-Serif" font-size="10.00">StudentDist</text>
</a>
</g>
</g>
<!-- Node1&#45;&gt;Node53 -->
<g id="edge39" class="edge"><title>Node1&#45;&gt;Node53</title>
<path fill="none" stroke="midnightblue" d="M161.682,-826.292C174.824,-730.278 232.537,-315.292 251,-295 260.681,-284.36 275.577,-279.393 289.271,-277.172"/>
<polygon fill="midnightblue" stroke="midnightblue" points="158.191,-825.991 160.306,-836.372 165.126,-826.938 158.191,-825.991"/>
</g>
<!-- Node55 -->
<g id="node41" class="node"><title>Node55</title>
<g id="a_node41"><a xlink:href="classumontreal_1_1ssj_1_1probdist_1_1TriangularDist.html" target="_top" xlink:title="Extends the class ContinuousDistribution for the triangular distribution (see   (page 297) and   (p...">
<polygon fill="none" stroke="black" points="285.5,-228.5 285.5,-247.5 361.5,-247.5 361.5,-228.5 285.5,-228.5"/>
<text text-anchor="middle" x="323.5" y="-235.5" font-family="Helvetica,sans-Serif" font-size="10.00">TriangularDist</text>
</a>
</g>
</g>
<!-- Node1&#45;&gt;Node55 -->
<g id="edge40" class="edge"><title>Node1&#45;&gt;Node55</title>
<path fill="none" stroke="midnightblue" d="M161.477,-826.199C174.089,-726.01 231.329,-278.848 251,-257 259.68,-247.359 272.64,-242.368 285.152,-239.859"/>
<polygon fill="midnightblue" stroke="midnightblue" points="157.996,-825.834 160.223,-836.192 164.941,-826.706 157.996,-825.834"/>
</g>
<!-- Node56 -->
<g id="node42" class="node"><title>Node56</title>
<g id="a_node42"><a xlink:href="classumontreal_1_1ssj_1_1probdist_1_1TruncatedDist.html" target="_top" xlink:title="This container class takes an arbitrary continuous distribution and truncates it to an interval ...">
<polygon fill="none" stroke="black" points="285,-190.5 285,-209.5 362,-209.5 362,-190.5 285,-190.5"/>
<text text-anchor="middle" x="323.5" y="-197.5" font-family="Helvetica,sans-Serif" font-size="10.00">TruncatedDist</text>
</a>
</g>
</g>
<!-- Node1&#45;&gt;Node56 -->
<g id="edge41" class="edge"><title>Node1&#45;&gt;Node56</title>
<path fill="none" stroke="midnightblue" d="M161.606,-826.167C175.493,-720.775 240.544,-230.722 251,-219 259.55,-209.415 272.33,-204.419 284.731,-201.89"/>
<polygon fill="midnightblue" stroke="midnightblue" points="158.101,-825.981 160.266,-836.352 165.041,-826.895 158.101,-825.981"/>
</g>
<!-- Node57 -->
<g id="node43" class="node"><title>Node57</title>
<g id="a_node43"><a xlink:href="classumontreal_1_1ssj_1_1probdist_1_1UniformDist.html" target="_top" xlink:title="Extends the class ContinuousDistribution for the uniform distribution   (page 276) over the interval...">
<polygon fill="none" stroke="black" points="290,-152.5 290,-171.5 357,-171.5 357,-152.5 290,-152.5"/>
<text text-anchor="middle" x="323.5" y="-159.5" font-family="Helvetica,sans-Serif" font-size="10.00">UniformDist</text>
</a>
</g>
</g>
<!-- Node1&#45;&gt;Node57 -->
<g id="edge42" class="edge"><title>Node1&#45;&gt;Node57</title>
<path fill="none" stroke="midnightblue" d="M161.64,-826.376C176.41,-716.672 248.229,-184.132 251,-181 260.702,-170.033 275.942,-165.066 289.863,-162.93"/>
<polygon fill="midnightblue" stroke="midnightblue" points="158.158,-826.015 160.292,-836.392 165.095,-826.949 158.158,-826.015"/>
</g>
<!-- Node58 -->
<g id="node44" class="node"><title>Node58</title>
<g id="a_node44"><a xlink:href="classumontreal_1_1ssj_1_1probdist_1_1WatsonGDist.html" target="_top" xlink:title="Extends the class ContinuousDistribution for the Watson &#160;distribution (see ,  ). ...">
<polygon fill="none" stroke="black" points="286,-114.5 286,-133.5 361,-133.5 361,-114.5 286,-114.5"/>
<text text-anchor="middle" x="323.5" y="-121.5" font-family="Helvetica,sans-Serif" font-size="10.00">WatsonGDist</text>
</a>
</g>
</g>
<!-- Node1&#45;&gt;Node58 -->
<g id="edge43" class="edge"><title>Node1&#45;&gt;Node58</title>
<path fill="none" stroke="midnightblue" d="M161.691,-826.316C169.858,-766.481 195.027,-581.471 215,-428 223.238,-364.697 208.986,-191.062 251,-143 259.707,-133.04 272.982,-128.019 285.74,-125.575"/>
<polygon fill="midnightblue" stroke="midnightblue" points="158.215,-825.901 160.329,-836.283 165.151,-826.848 158.215,-825.901"/>
</g>
<!-- Node59 -->
<g id="node45" class="node"><title>Node59</title>
<g id="a_node45"><a xlink:href="classumontreal_1_1ssj_1_1probdist_1_1WatsonUDist.html" target="_top" xlink:title="Extends the class ContinuousDistribution for the Watson U distribution (see , ,  ). ">
<polygon fill="none" stroke="black" points="286.5,-76.5 286.5,-95.5 360.5,-95.5 360.5,-76.5 286.5,-76.5"/>
<text text-anchor="middle" x="323.5" y="-83.5" font-family="Helvetica,sans-Serif" font-size="10.00">WatsonUDist</text>
</a>
</g>
</g>
<!-- Node1&#45;&gt;Node59 -->
<g id="edge44" class="edge"><title>Node1&#45;&gt;Node59</title>
<path fill="none" stroke="midnightblue" d="M161.793,-826.329C170.25,-766.531 196.152,-581.614 215,-428 223.796,-356.315 203.867,-159.722 251,-105 259.801,-94.7817 273.411,-89.7492 286.404,-87.3676"/>
<polygon fill="midnightblue" stroke="midnightblue" points="158.319,-825.897 160.382,-836.289 165.25,-826.879 158.319,-825.897"/>
</g>
<!-- Node60 -->
<g id="node46" class="node"><title>Node60</title>
<g id="a_node46"><a xlink:href="classumontreal_1_1ssj_1_1probdist_1_1WeibullDist.html" target="_top" xlink:title="This class extends the class ContinuousDistribution for the Weibull distribution   (page 628) with s...">
<polygon fill="none" stroke="black" points="290.5,-38.5 290.5,-57.5 356.5,-57.5 356.5,-38.5 290.5,-38.5"/>
<text text-anchor="middle" x="323.5" y="-45.5" font-family="Helvetica,sans-Serif" font-size="10.00">WeibullDist</text>
</a>
</g>
</g>
<!-- Node1&#45;&gt;Node60 -->
<g id="edge45" class="edge"><title>Node1&#45;&gt;Node60</title>
<path fill="none" stroke="midnightblue" d="M161.875,-826.338C170.561,-766.568 197.043,-581.72 215,-428 224.354,-347.924 198.741,-128.389 251,-67 260.658,-55.6549 276.244,-50.6902 290.402,-48.653"/>
<polygon fill="midnightblue" stroke="midnightblue" points="158.402,-825.894 160.424,-836.294 165.329,-826.904 158.402,-825.894"/>
</g>
<!-- Node62 -->
<g id="node48" class="node"><title>Node62</title>
<g id="a_node48"><a xlink:href="classumontreal_1_1ssj_1_1probdist_1_1ConstantDist.html" target="_top" xlink:title="Represents a constant discrete distribution taking a single real value with probability 1...">
<polygon fill="none" stroke="black" points="287,-0.5 287,-19.5 360,-19.5 360,-0.5 287,-0.5"/>
<text text-anchor="middle" x="323.5" y="-7.5" font-family="Helvetica,sans-Serif" font-size="10.00">ConstantDist</text>
</a>
</g>
</g>
<!-- Node61&#45;&gt;Node62 -->
<g id="edge47" class="edge"><title>Node61&#45;&gt;Node62</title>
<path fill="none" stroke="midnightblue" d="M211.898,-393.393C213.004,-392.335 214.042,-391.206 215,-390 315.323,-263.771 146.483,-151.778 251,-29 259.825,-18.633 273.6,-13.5936 286.714,-11.2474"/>
<polygon fill="midnightblue" stroke="midnightblue" points="209.731,-390.642 203.76,-399.394 213.885,-396.277 209.731,-390.642"/>
</g>
</g>
</svg>
        <g id="navigator" transform="translate(0 0)" fill="#404254">
                <rect fill="#f2f5e9" fill-opacity="0.5" stroke="#606060" stroke-width=".5" x="0" y="0" width="60" height="60"/>
                <use id="zoomplus" xlink:href="#zoomPlus" x="17" y="9" onmousedown="handleZoom(evt,'in')"/>
                <use id="zoomminus" xlink:href="#zoomMin" x="42" y="9" onmousedown="handleZoom(evt,'out')"/>
                <use id="reset" xlink:href="#resetDef" x="30" y="36" onmousedown="handleReset()"/>
                <g id="arrowUp" xlink:href="#dirArrow" transform="translate(30 24)" onmousedown="handlePan(0,-1)">
                  <use xlink:href="#rim" fill="#404040">
                        <set attributeName="fill" to="#808080" begin="arrowUp.mouseover" end="arrowUp.mouseout"/>
                  </use>
                  <path fill="none" stroke="white" stroke-width="1.5" d="M0,-3.0v7 M-2.5,-0.5L0,-3.0L2.5,-0.5"/>
                </g>
                <g id="arrowRight" xlink:href="#dirArrow" transform="rotate(90) translate(36 -43)" onmousedown="handlePan(1,0)">
                  <use xlink:href="#rim" fill="#404040">
                        <set attributeName="fill" to="#808080" begin="arrowRight.mouseover" end="arrowRight.mouseout"/>
                  </use>
                  <path fill="none" stroke="white" stroke-width="1.5" d="M0,-3.0v7 M-2.5,-0.5L0,-3.0L2.5,-0.5"/>
                </g>
                <g id="arrowDown" xlink:href="#dirArrow" transform="rotate(180) translate(-30 -48)" onmousedown="handlePan(0,1)">
                  <use xlink:href="#rim" fill="#404040">
                        <set attributeName="fill" to="#808080" begin="arrowDown.mouseover" end="arrowDown.mouseout"/>
                  </use>
                  <path fill="none" stroke="white" stroke-width="1.5" d="M0,-3.0v7 M-2.5,-0.5L0,-3.0L2.5,-0.5"/>
                </g>
                <g id="arrowLeft" xlink:href="#dirArrow" transform="rotate(270) translate(-36 17)" onmousedown="handlePan(-1,0)">
                  <use xlink:href="#rim" fill="#404040">
                        <set attributeName="fill" to="#808080" begin="arrowLeft.mouseover" end="arrowLeft.mouseout"/>
                  </use>
                  <path fill="none" stroke="white" stroke-width="1.5" d="M0,-3.0v7 M-2.5,-0.5L0,-3.0L2.5,-0.5"/>
                </g>
        </g>
        <svg viewBox="0 0 15 15" width="100%" height="30px" preserveAspectRatio="xMaxYMin meet">
         <g id="arrow_out" transform="scale(0.3 0.3)">
          <a xlink:href="interfaceumontreal_1_1ssj_1_1probdist_1_1Distribution__inherit__graph_org.svg" target="_base">
           <rect id="button" ry="5" rx="5" y="6" x="6" height="38" width="38"
                fill="#f2f5e9" fill-opacity="0.5" stroke="#606060" stroke-width="1.0"/>
           <path id="arrow"
             d="M 11.500037,31.436501 C 11.940474,20.09759 22.043105,11.32322 32.158766,21.979434 L 37.068811,17.246167 C 37.068811,17.246167 37.088388,32 37.088388,32 L 22.160133,31.978069 C 22.160133,31.978069 26.997745,27.140456 26.997745,27.140456 C 18.528582,18.264221 13.291696,25.230495 11.500037,31.436501 z"
             style="fill:#404040;"/>
          </a>
         </g>
        </svg>
</svg>
