<?xml version="1.0" encoding="UTF-8" standalone="no"?>
<!DOCTYPE svg PUBLIC "-//W3C//DTD SVG 1.1//EN"
 "http://www.w3.org/Graphics/SVG/1.1/DTD/svg11.dtd">
<!-- Generated by graphviz version 2.26.3 (20100126.1600)
 -->
<!-- Title: MathFunctionWithFirstDerivative Pages: 1 -->
<svg width="522pt" height="294pt"
 viewBox="0.00 0.00 522.00 294.00" xmlns="http://www.w3.org/2000/svg" xmlns:xlink="http://www.w3.org/1999/xlink">
<g id="graph1" class="graph" transform="scale(1 1) rotate(0) translate(4 290)">
<title>MathFunctionWithFirstDerivative</title>
<!-- Node1 -->
<g id="node1" class="node"><title>Node1</title>
<polygon fill="#bfbfbf" stroke="black" points="112,-133 112,-153 270,-153 270,-133 112,-133"/>
<text text-anchor="middle" x="191" y="-140" font-family="Helvetica,sans-Serif" font-size="10.00">MathFunctionWithFirstDerivative</text>
</g>
<!-- Node3 -->
<g id="node5" class="node"><title>Node3</title>
<a xlink:href="classumontreal_1_1ssj_1_1functionfit_1_1BSpline.html" target="_top" xlink:title="Represents a B&#45;spline with control points at . ">
<polygon fill="none" stroke="black" points="339,-266 339,-286 389,-286 389,-266 339,-266"/>
<text text-anchor="middle" x="364" y="-273" font-family="Helvetica,sans-Serif" font-size="10.00">BSpline</text>
</a>
</g>
<!-- Node1&#45;&gt;Node3 -->
<g id="edge4" class="edge"><title>Node1&#45;&gt;Node3</title>
<path fill="none" stroke="midnightblue" d="M204.628,-161.025C224.382,-185.972 263.305,-230.894 306,-257 316.034,-263.136 328.271,-267.523 338.914,-270.524"/>
<polygon fill="midnightblue" stroke="midnightblue" points="207.367,-158.845 198.466,-153.098 201.84,-163.141 207.367,-158.845"/>
</g>
<!-- Node4 -->
<g id="node7" class="node"><title>Node4</title>
<a xlink:href="classumontreal_1_1ssj_1_1functionfit_1_1SmoothingCubicSpline.html" target="_top" xlink:title="Represents a cubic spline with nodes at &#160;computed with the smoothing cubic spline algorithm of Schoen...">
<polygon fill="none" stroke="black" points="306.5,-228 306.5,-248 421.5,-248 421.5,-228 306.5,-228"/>
<text text-anchor="middle" x="364" y="-235" font-family="Helvetica,sans-Serif" font-size="10.00">SmoothingCubicSpline</text>
</a>
</g>
<!-- Node1&#45;&gt;Node4 -->
<g id="edge6" class="edge"><title>Node1&#45;&gt;Node4</title>
<path fill="none" stroke="midnightblue" d="M211.83,-159.255C234.116,-176.035 271.001,-202.082 306,-219 312.964,-222.366 320.673,-225.358 328.135,-227.914"/>
<polygon fill="midnightblue" stroke="midnightblue" points="213.84,-156.386 203.765,-153.106 209.595,-161.952 213.84,-156.386"/>
</g>
<!-- Node5 -->
<g id="node9" class="node"><title>Node5</title>
<a xlink:href="classumontreal_1_1ssj_1_1functions_1_1AverageMathFunction.html" target="_top" xlink:title="Represents a function computing the average of several functions. ">
<polygon fill="none" stroke="black" points="308,-190 308,-210 420,-210 420,-190 308,-190"/>
<text text-anchor="middle" x="364" y="-197" font-family="Helvetica,sans-Serif" font-size="10.00">AverageMathFunction</text>
</a>
</g>
<!-- Node1&#45;&gt;Node5 -->
<g id="edge8" class="edge"><title>Node1&#45;&gt;Node5</title>
<path fill="none" stroke="midnightblue" d="M230.974,-156.237C253.086,-163.552 281.058,-172.794 306,-181 314.857,-183.914 324.479,-187.07 333.292,-189.957"/>
<polygon fill="midnightblue" stroke="midnightblue" points="231.852,-152.841 221.259,-153.022 229.653,-159.486 231.852,-152.841"/>
</g>
<!-- Node6 -->
<g id="node11" class="node"><title>Node6</title>
<a xlink:href="classumontreal_1_1ssj_1_1functions_1_1IdentityMathFunction.html" target="_top" xlink:title="Represents the identity function . ">
<polygon fill="none" stroke="black" points="310,-152 310,-172 418,-172 418,-152 310,-152"/>
<text text-anchor="middle" x="364" y="-159" font-family="Helvetica,sans-Serif" font-size="10.00">IdentityMathFunction</text>
</a>
</g>
<!-- Node1&#45;&gt;Node6 -->
<g id="edge10" class="edge"><title>Node1&#45;&gt;Node6</title>
<path fill="none" stroke="midnightblue" d="M280.259,-152.803C290.363,-153.913 300.416,-155.017 309.867,-156.055"/>
<polygon fill="midnightblue" stroke="midnightblue" points="280.481,-149.306 270.159,-151.694 279.717,-156.265 280.481,-149.306"/>
</g>
<!-- Node7 -->
<g id="node13" class="node"><title>Node7</title>
<a xlink:href="classumontreal_1_1ssj_1_1functions_1_1Polynomial.html" target="_top" xlink:title="Represents a polynomial of degree &#160;in power form. ">
<polygon fill="none" stroke="black" points="331.5,-114 331.5,-134 396.5,-134 396.5,-114 331.5,-114"/>
<text text-anchor="middle" x="364" y="-121" font-family="Helvetica,sans-Serif" font-size="10.00">Polynomial</text>
</a>
</g>
<!-- Node1&#45;&gt;Node7 -->
<g id="edge12" class="edge"><title>Node1&#45;&gt;Node7</title>
<path fill="none" stroke="midnightblue" d="M280.276,-133.195C298.492,-131.194 316.545,-129.212 331.197,-127.603"/>
<polygon fill="midnightblue" stroke="midnightblue" points="279.717,-129.735 270.159,-134.306 280.481,-136.694 279.717,-129.735"/>
</g>
<!-- Node9 -->
<g id="node17" class="node"><title>Node9</title>
<a xlink:href="classumontreal_1_1ssj_1_1functions_1_1PowerMathFunction.html" target="_top" xlink:title="Represents a function computing &#160;for a user&#45;defined function &#160;and power . ">
<polygon fill="none" stroke="black" points="312.5,-76 312.5,-96 415.5,-96 415.5,-76 312.5,-76"/>
<text text-anchor="middle" x="364" y="-83" font-family="Helvetica,sans-Serif" font-size="10.00">PowerMathFunction</text>
</a>
</g>
<!-- Node1&#45;&gt;Node9 -->
<g id="edge16" class="edge"><title>Node1&#45;&gt;Node9</title>
<path fill="none" stroke="midnightblue" d="M230.974,-129.763C253.086,-122.448 281.058,-113.206 306,-105 314.857,-102.086 324.479,-98.93 333.292,-96.0431"/>
<polygon fill="midnightblue" stroke="midnightblue" points="229.653,-126.514 221.259,-132.978 231.852,-133.159 229.653,-126.514"/>
</g>
<!-- Node10 -->
<g id="node19" class="node"><title>Node10</title>
<a xlink:href="classumontreal_1_1ssj_1_1functions_1_1ShiftedMathFunction.html" target="_top" xlink:title="Represents a function computing &#160;for a user&#45;defined function &#160;and shift . ">
<polygon fill="none" stroke="black" points="310.5,-38 310.5,-58 417.5,-58 417.5,-38 310.5,-38"/>
<text text-anchor="middle" x="364" y="-45" font-family="Helvetica,sans-Serif" font-size="10.00">ShiftedMathFunction</text>
</a>
</g>
<!-- Node1&#45;&gt;Node10 -->
<g id="edge18" class="edge"><title>Node1&#45;&gt;Node10</title>
<path fill="none" stroke="midnightblue" d="M211.83,-126.745C234.116,-109.965 271.001,-83.9182 306,-67 312.964,-63.6336 320.673,-60.6421 328.135,-58.0855"/>
<polygon fill="midnightblue" stroke="midnightblue" points="209.595,-124.048 203.765,-132.894 213.84,-129.614 209.595,-124.048"/>
</g>
<!-- Node11 -->
<g id="node21" class="node"><title>Node11</title>
<a xlink:href="classumontreal_1_1ssj_1_1functions_1_1SquareMathFunction.html" target="_top" xlink:title="Represents a function computing &#160;for a user&#45;defined function . ">
<polygon fill="none" stroke="black" points="310.5,-0 310.5,-20 417.5,-20 417.5,-0 310.5,-0"/>
<text text-anchor="middle" x="364" y="-7" font-family="Helvetica,sans-Serif" font-size="10.00">SquareMathFunction</text>
</a>
</g>
<!-- Node1&#45;&gt;Node11 -->
<g id="edge20" class="edge"><title>Node1&#45;&gt;Node11</title>
<path fill="none" stroke="midnightblue" d="M204.628,-124.975C224.382,-100.028 263.305,-55.1061 306,-29 311.786,-25.4624 318.303,-22.5061 324.826,-20.0615"/>
<polygon fill="midnightblue" stroke="midnightblue" points="201.84,-122.859 198.466,-132.902 207.367,-127.155 201.84,-122.859"/>
</g>
<!-- Node2 -->
<g id="node2" class="node"><title>Node2</title>
<a xlink:href="interfaceumontreal_1_1ssj_1_1functions_1_1MathFunction.html" target="_top" xlink:title="This interface should be implemented by classes which represent univariate mathematical functions...">
<polygon fill="none" stroke="black" points="0,-133 0,-153 76,-153 76,-133 0,-133"/>
<text text-anchor="middle" x="38" y="-140" font-family="Helvetica,sans-Serif" font-size="10.00">MathFunction</text>
</a>
</g>
<!-- Node2&#45;&gt;Node1 -->
<g id="edge2" class="edge"><title>Node2&#45;&gt;Node1</title>
<path fill="none" stroke="midnightblue" d="M86.2443,-143C94.4006,-143 103.055,-143 111.758,-143"/>
<polygon fill="midnightblue" stroke="midnightblue" points="86.2137,-139.5 76.2137,-143 86.2137,-146.5 86.2137,-139.5"/>
</g>
<!-- Node8 -->
<g id="node15" class="node"><title>Node8</title>
<a xlink:href="classumontreal_1_1ssj_1_1functionfit_1_1PolInterp.html" target="_top" xlink:title="Represents a polynomial that interpolates through a set of points. ">
<polygon fill="none" stroke="black" points="458,-114 458,-134 514,-134 514,-114 458,-114"/>
<text text-anchor="middle" x="486" y="-121" font-family="Helvetica,sans-Serif" font-size="10.00">PolInterp</text>
</a>
</g>
<!-- Node7&#45;&gt;Node8 -->
<g id="edge14" class="edge"><title>Node7&#45;&gt;Node8</title>
<path fill="none" stroke="midnightblue" d="M406.888,-124C423.766,-124 442.678,-124 457.778,-124"/>
<polygon fill="midnightblue" stroke="midnightblue" points="406.694,-120.5 396.694,-124 406.694,-127.5 406.694,-120.5"/>
</g>
</g>
</svg>
