<?xml version="1.0" encoding="UTF-8" standalone="no"?>
<!DOCTYPE svg PUBLIC "-//W3C//DTD SVG 1.1//EN"
 "http://www.w3.org/Graphics/SVG/1.1/DTD/svg11.dtd">
<!-- Generated by graphviz version 2.26.3 (20100126.1600)
 -->
<!-- Title: ObservationListener Pages: 1 -->
<svg width="320pt" height="88pt"
 viewBox="0.00 0.00 320.00 88.00" xmlns="http://www.w3.org/2000/svg" xmlns:xlink="http://www.w3.org/1999/xlink">
<g id="graph1" class="graph" transform="scale(1 1) rotate(0) translate(4 84)">
<title>ObservationListener</title>
<!-- Node1 -->
<g id="node1" class="node"><title>Node1</title>
<polygon fill="#bfbfbf" stroke="black" points="106,-59 106,-79 210,-79 210,-59 106,-59"/>
<text text-anchor="middle" x="158" y="-66" font-family="Helvetica,sans-Serif" font-size="10.00">ObservationListener</text>
</g>
<!-- Node2 -->
<g id="node3" class="node"><title>Node2</title>
<a xlink:href="classQueueObs_1_1LargeWaitsCollector.html" target="_top" xlink:title="QueueObs.LargeWaitsCollector">
<polygon fill="none" stroke="black" points="-0.5,-1 -0.5,-21 152.5,-21 152.5,-1 -0.5,-1"/>
<text text-anchor="middle" x="76" y="-8" font-family="Helvetica,sans-Serif" font-size="10.00">QueueObs.LargeWaitsCollector</text>
</a>
</g>
<!-- Node1&#45;&gt;Node2 -->
<g id="edge2" class="edge"><title>Node1&#45;&gt;Node2</title>
<path fill="none" stroke="midnightblue" d="M135.344,-52.975C120.974,-42.8109 102.817,-29.9681 90.3948,-21.1817"/>
<polygon fill="midnightblue" stroke="midnightblue" points="133.531,-55.9799 143.717,-58.8972 137.574,-50.265 133.531,-55.9799"/>
</g>
<!-- Node3 -->
<g id="node5" class="node"><title>Node3</title>
<a xlink:href="classQueueObs_1_1ObservationTrace.html" target="_top" xlink:title="QueueObs.ObservationTrace">
<polygon fill="none" stroke="black" points="169.5,-1 169.5,-21 312.5,-21 312.5,-1 169.5,-1"/>
<text text-anchor="middle" x="241" y="-8" font-family="Helvetica,sans-Serif" font-size="10.00">QueueObs.ObservationTrace</text>
</a>
</g>
<!-- Node1&#45;&gt;Node3 -->
<g id="edge4" class="edge"><title>Node1&#45;&gt;Node3</title>
<path fill="none" stroke="midnightblue" d="M180.932,-52.975C195.478,-42.8109 213.856,-29.9681 226.43,-21.1817"/>
<polygon fill="midnightblue" stroke="midnightblue" points="178.65,-50.3002 172.457,-58.8972 182.659,-56.0381 178.65,-50.3002"/>
</g>
</g>
</svg>
