<?xml version="1.0" encoding="UTF-8" standalone="no"?>
<!DOCTYPE svg PUBLIC "-//W3C//DTD SVG 1.1//EN"
 "http://www.w3.org/Graphics/SVG/1.1/DTD/svg11.dtd">
<!-- Generated by graphviz version 2.26.3 (20100126.1600)
 -->
<!-- Title: Distribution Pages: 1 -->
<svg width="406pt" height="1700pt"
 viewBox="0.00 0.00 406.00 1700.00" xmlns="http://www.w3.org/2000/svg" xmlns:xlink="http://www.w3.org/1999/xlink">
<g id="graph1" class="graph" transform="scale(1 1) rotate(0) translate(4 1696)">
<title>Distribution</title>
<!-- Node1 -->
<g id="node1" class="node"><title>Node1</title>
<polygon fill="#bfbfbf" stroke="black" points="0.5,-399 0.5,-419 65.5,-419 65.5,-399 0.5,-399"/>
<text text-anchor="middle" x="33" y="-406" font-family="Helvetica,sans-Serif" font-size="10.00">Distribution</text>
</g>
<!-- Node2 -->
<g id="node3" class="node"><title>Node2</title>
<a xlink:href="classumontreal_1_1ssj_1_1probdist_1_1ContinuousDistribution.html" target="_top" xlink:title="Classes implementing continuous distributions should inherit from this base class. ">
<polygon fill="none" stroke="black" points="102,-836 102,-856 216,-856 216,-836 102,-836"/>
<text text-anchor="middle" x="159" y="-843" font-family="Helvetica,sans-Serif" font-size="10.00">ContinuousDistribution</text>
</a>
</g>
<!-- Node1&#45;&gt;Node2 -->
<g id="edge2" class="edge"><title>Node1&#45;&gt;Node2</title>
<path fill="none" stroke="midnightblue" d="M38.8455,-429.274C61.0782,-506.382 139.932,-779.868 156.093,-835.918"/>
<polygon fill="midnightblue" stroke="midnightblue" points="42.1239,-428.01 35.9903,-419.371 35.3979,-429.95 42.1239,-428.01"/>
</g>
<!-- Node47 -->
<g id="node93" class="node"><title>Node47</title>
<a xlink:href="classumontreal_1_1ssj_1_1probdist_1_1DiscreteDistribution.html" target="_top" xlink:title="This class implements discrete distributions over a finite set of real numbers (also over integers as...">
<polygon fill="none" stroke="red" points="108.5,-399 108.5,-419 209.5,-419 209.5,-399 108.5,-399"/>
<text text-anchor="middle" x="159" y="-406" font-family="Helvetica,sans-Serif" font-size="10.00">DiscreteDistribution</text>
</a>
</g>
<!-- Node1&#45;&gt;Node47 -->
<g id="edge92" class="edge"><title>Node1&#45;&gt;Node47</title>
<path fill="none" stroke="midnightblue" d="M75.8821,-409C86.3109,-409 97.5615,-409 108.314,-409"/>
<polygon fill="midnightblue" stroke="midnightblue" points="75.7761,-405.5 65.7761,-409 75.7761,-412.5 75.7761,-405.5"/>
</g>
<!-- Node49 -->
<g id="node97" class="node"><title>Node49</title>
<a xlink:href="classumontreal_1_1ssj_1_1probdist_1_1DiscreteDistributionInt.html" target="_top" xlink:title="Classes implementing discrete distributions over the integers should inherit from this class...">
<polygon fill="none" stroke="red" points="102.5,-361 102.5,-381 215.5,-381 215.5,-361 102.5,-361"/>
<text text-anchor="middle" x="159" y="-368" font-family="Helvetica,sans-Serif" font-size="10.00">DiscreteDistributionInt</text>
</a>
</g>
<!-- Node1&#45;&gt;Node49 -->
<g id="edge96" class="edge"><title>Node1&#45;&gt;Node49</title>
<path fill="none" stroke="midnightblue" d="M75.604,-396.151C91.8833,-391.242 110.199,-385.718 125.511,-381.1"/>
<polygon fill="midnightblue" stroke="midnightblue" points="74.3395,-392.877 65.7761,-399.115 76.3608,-399.579 74.3395,-392.877"/>
</g>
<!-- Node3 -->
<g id="node5" class="node"><title>Node3</title>
<a xlink:href="classumontreal_1_1ssj_1_1probdist_1_1AndersonDarlingDist.html" target="_top" xlink:title="Extends the class ContinuousDistribution for the Anderson–Darling distribution (see ...">
<polygon fill="none" stroke="red" points="272.5,-1672 272.5,-1692 377.5,-1692 377.5,-1672 272.5,-1672"/>
<text text-anchor="middle" x="325" y="-1679" font-family="Helvetica,sans-Serif" font-size="10.00">AndersonDarlingDist</text>
</a>
</g>
<!-- Node2&#45;&gt;Node3 -->
<g id="edge4" class="edge"><title>Node2&#45;&gt;Node3</title>
<path fill="none" stroke="midnightblue" d="M159.956,-866.361C165.775,-986.608 198.008,-1600.79 252,-1663 257.408,-1669.23 264.575,-1673.55 272.308,-1676.51"/>
<polygon fill="midnightblue" stroke="midnightblue" points="163.435,-865.852 159.462,-856.03 156.443,-866.186 163.435,-865.852"/>
</g>
<!-- Node4 -->
<g id="node7" class="node"><title>Node4</title>
<a xlink:href="classumontreal_1_1ssj_1_1probdist_1_1BetaDist.html" target="_top" xlink:title="Extends the class ContinuousDistribution for the beta distribution   (page 210) with shape parameter...">
<polygon fill="none" stroke="red" points="298,-1634 298,-1654 352,-1654 352,-1634 298,-1634"/>
<text text-anchor="middle" x="325" y="-1641" font-family="Helvetica,sans-Serif" font-size="10.00">BetaDist</text>
</a>
</g>
<!-- Node2&#45;&gt;Node4 -->
<g id="edge6" class="edge"><title>Node2&#45;&gt;Node4</title>
<path fill="none" stroke="midnightblue" d="M160.062,-866.145C166.374,-982.542 200.433,-1565.91 252,-1625 263.28,-1637.93 282.131,-1642.6 297.851,-1644.08"/>
<polygon fill="midnightblue" stroke="midnightblue" points="163.555,-865.905 159.524,-856.107 156.565,-866.28 163.555,-865.905"/>
</g>
<!-- Node5 -->
<g id="node9" class="node"><title>Node5</title>
<a xlink:href="classumontreal_1_1ssj_1_1probdist_1_1CauchyDist.html" target="_top" xlink:title="Extends the class ContinuousDistribution for the Cauchy distribution   (page 299) with location para...">
<polygon fill="none" stroke="black" points="291.5,-1596 291.5,-1616 358.5,-1616 358.5,-1596 291.5,-1596"/>
<text text-anchor="middle" x="325" y="-1603" font-family="Helvetica,sans-Serif" font-size="10.00">CauchyDist</text>
</a>
</g>
<!-- Node2&#45;&gt;Node5 -->
<g id="edge8" class="edge"><title>Node2&#45;&gt;Node5</title>
<path fill="none" stroke="midnightblue" d="M160.195,-866.21C167.061,-979.348 202.896,-1531.07 252,-1587 261.763,-1598.12 277.131,-1603.13 291.253,-1605.25"/>
<polygon fill="midnightblue" stroke="midnightblue" points="163.684,-865.916 159.591,-856.144 156.697,-866.335 163.684,-865.916"/>
</g>
<!-- Node6 -->
<g id="node11" class="node"><title>Node6</title>
<a xlink:href="classumontreal_1_1ssj_1_1probdist_1_1ChiDist.html" target="_top" xlink:title="Extends the class ContinuousDistribution for the chi distribution   (page 417) with shape parameter ...">
<polygon fill="none" stroke="black" points="301,-1558 301,-1578 349,-1578 349,-1558 301,-1558"/>
<text text-anchor="middle" x="325" y="-1565" font-family="Helvetica,sans-Serif" font-size="10.00">ChiDist</text>
</a>
</g>
<!-- Node2&#45;&gt;Node6 -->
<g id="edge10" class="edge"><title>Node2&#45;&gt;Node6</title>
<path fill="none" stroke="midnightblue" d="M160.337,-866.192C167.77,-975.787 205.342,-1496.21 252,-1549 264.056,-1562.64 284.541,-1567.07 300.748,-1568.27"/>
<polygon fill="midnightblue" stroke="midnightblue" points="163.825,-865.882 159.662,-856.139 156.84,-866.351 163.825,-865.882"/>
</g>
<!-- Node7 -->
<g id="node13" class="node"><title>Node7</title>
<a xlink:href="classumontreal_1_1ssj_1_1probdist_1_1ChiSquareDist.html" target="_top" xlink:title="Extends the class ContinuousDistribution for the chi&#45;square distribution with &#160;degrees of freedom...">
<polygon fill="none" stroke="red" points="285.5,-1520 285.5,-1540 364.5,-1540 364.5,-1520 285.5,-1520"/>
<text text-anchor="middle" x="325" y="-1527" font-family="Helvetica,sans-Serif" font-size="10.00">ChiSquareDist</text>
</a>
</g>
<!-- Node2&#45;&gt;Node7 -->
<g id="edge12" class="edge"><title>Node2&#45;&gt;Node7</title>
<path fill="none" stroke="midnightblue" d="M160.489,-866.086C168.501,-971.863 207.773,-1461.34 252,-1511 260.448,-1520.49 272.975,-1525.51 285.276,-1528.09"/>
<polygon fill="midnightblue" stroke="midnightblue" points="163.977,-865.802 159.739,-856.092 156.997,-866.325 163.977,-865.802"/>
</g>
<!-- Node8 -->
<g id="node15" class="node"><title>Node8</title>
<a xlink:href="classumontreal_1_1ssj_1_1probdist_1_1ChiSquareNoncentralDist.html" target="_top" xlink:title="Extends the class ContinuousDistribution for the noncentral chi&#45;square distribution with &#160;degrees of ...">
<polygon fill="none" stroke="black" points="262.5,-1482 262.5,-1502 387.5,-1502 387.5,-1482 262.5,-1482"/>
<text text-anchor="middle" x="325" y="-1489" font-family="Helvetica,sans-Serif" font-size="10.00">ChiSquareNoncentralDist</text>
</a>
</g>
<!-- Node2&#45;&gt;Node8 -->
<g id="edge14" class="edge"><title>Node2&#45;&gt;Node8</title>
<path fill="none" stroke="midnightblue" d="M160.677,-866.212C169.34,-968.548 210.231,-1426.49 252,-1473 255.237,-1476.61 259.064,-1479.57 263.242,-1481.99"/>
<polygon fill="midnightblue" stroke="midnightblue" points="164.164,-865.915 159.84,-856.243 157.189,-866.501 164.164,-865.915"/>
</g>
<!-- Node9 -->
<g id="node17" class="node"><title>Node9</title>
<a xlink:href="classumontreal_1_1ssj_1_1probdist_1_1CramerVonMisesDist.html" target="_top" xlink:title="Extends the class ContinuousDistribution for the Cramér&#45;von Mises distribution (see ...">
<polygon fill="none" stroke="black" points="271,-1444 271,-1464 379,-1464 379,-1444 271,-1444"/>
<text text-anchor="middle" x="325" y="-1451" font-family="Helvetica,sans-Serif" font-size="10.00">CramerVonMisesDist</text>
</a>
</g>
<!-- Node2&#45;&gt;Node9 -->
<g id="edge16" class="edge"><title>Node2&#45;&gt;Node9</title>
<path fill="none" stroke="midnightblue" d="M159.329,-866.484C161.257,-960.391 173.909,-1348.85 252,-1435 257.101,-1440.63 263.638,-1444.68 270.698,-1447.58"/>
<polygon fill="midnightblue" stroke="midnightblue" points="162.826,-866.247 159.14,-856.314 155.827,-866.377 162.826,-866.247"/>
</g>
<!-- Node10 -->
<g id="node19" class="node"><title>Node10</title>
<a xlink:href="classumontreal_1_1ssj_1_1probdist_1_1ExponentialDist.html" target="_top" xlink:title="Extends the class ContinuousDistribution for the exponential distribution   (page 494) with mean &#160;wh...">
<polygon fill="none" stroke="red" points="282.5,-1406 282.5,-1426 367.5,-1426 367.5,-1406 282.5,-1406"/>
<text text-anchor="middle" x="325" y="-1413" font-family="Helvetica,sans-Serif" font-size="10.00">ExponentialDist</text>
</a>
</g>
<!-- Node2&#45;&gt;Node10 -->
<g id="edge18" class="edge"><title>Node2&#45;&gt;Node10</title>
<path fill="none" stroke="midnightblue" d="M159.567,-866.287C162.491,-956.097 178.7,-1317 252,-1397 259.874,-1405.59 271.096,-1410.51 282.386,-1413.26"/>
<polygon fill="midnightblue" stroke="midnightblue" points="163.06,-865.974 159.256,-856.086 156.063,-866.188 163.06,-865.974"/>
</g>
<!-- Node11 -->
<g id="node21" class="node"><title>Node11</title>
<a xlink:href="classumontreal_1_1ssj_1_1probdist_1_1ExtremeValueDist.html" target="_top" xlink:title="This class has been replaced by GumbelDist . ">
<polygon fill="none" stroke="black" points="277.5,-1368 277.5,-1388 372.5,-1388 372.5,-1368 277.5,-1368"/>
<text text-anchor="middle" x="325" y="-1375" font-family="Helvetica,sans-Serif" font-size="10.00">ExtremeValueDist</text>
</a>
</g>
<!-- Node2&#45;&gt;Node11 -->
<g id="edge20" class="edge"><title>Node2&#45;&gt;Node11</title>
<path fill="none" stroke="midnightblue" d="M159.843,-866.251C163.825,-952.124 183.524,-1285.16 252,-1359 258.679,-1366.2 267.71,-1370.81 277.142,-1373.74"/>
<polygon fill="midnightblue" stroke="midnightblue" points="163.338,-866.06 159.398,-856.225 156.345,-866.37 163.338,-866.06"/>
</g>
<!-- Node12 -->
<g id="node23" class="node"><title>Node12</title>
<a xlink:href="classumontreal_1_1ssj_1_1probdist_1_1FatigueLifeDist.html" target="_top" xlink:title="Extends the class ContinuousDistribution for the fatigue life distribution   with location parameter...">
<polygon fill="none" stroke="black" points="284,-1330 284,-1350 366,-1350 366,-1330 284,-1330"/>
<text text-anchor="middle" x="325" y="-1337" font-family="Helvetica,sans-Serif" font-size="10.00">FatigueLifeDist</text>
</a>
</g>
<!-- Node2&#45;&gt;Node12 -->
<g id="edge22" class="edge"><title>Node2&#45;&gt;Node12</title>
<path fill="none" stroke="midnightblue" d="M160.165,-866.303C165.275,-948.232 188.355,-1253.33 252,-1321 260.254,-1329.78 272.004,-1334.7 283.67,-1337.4"/>
<polygon fill="midnightblue" stroke="midnightblue" points="163.656,-866.044 159.561,-856.272 156.669,-866.465 163.656,-866.044"/>
</g>
<!-- Node13 -->
<g id="node25" class="node"><title>Node13</title>
<a xlink:href="classumontreal_1_1ssj_1_1probdist_1_1FisherFDist.html" target="_top" xlink:title="Extends the class ContinuousDistribution for the Fisher F distribution with &#160;and &#160;degrees of freedom...">
<polygon fill="none" stroke="black" points="291.5,-1292 291.5,-1312 358.5,-1312 358.5,-1292 291.5,-1292"/>
<text text-anchor="middle" x="325" y="-1299" font-family="Helvetica,sans-Serif" font-size="10.00">FisherFDist</text>
</a>
</g>
<!-- Node2&#45;&gt;Node13 -->
<g id="edge24" class="edge"><title>Node2&#45;&gt;Node13</title>
<path fill="none" stroke="midnightblue" d="M160.567,-866.637C166.915,-944.827 193.24,-1221.54 252,-1283 262.136,-1293.6 277.375,-1298.56 291.313,-1300.79"/>
<polygon fill="midnightblue" stroke="midnightblue" points="164.021,-865.914 159.746,-856.221 157.043,-866.465 164.021,-865.914"/>
</g>
<!-- Node14 -->
<g id="node27" class="node"><title>Node14</title>
<a xlink:href="classumontreal_1_1ssj_1_1probdist_1_1FoldedNormalDist.html" target="_top" xlink:title="Extends the class ContinuousDistribution for the folded normal distribution with parameters &#160;and ...">
<polygon fill="none" stroke="black" points="278,-1254 278,-1274 372,-1274 372,-1254 278,-1254"/>
<text text-anchor="middle" x="325" y="-1261" font-family="Helvetica,sans-Serif" font-size="10.00">FoldedNormalDist</text>
</a>
</g>
<!-- Node2&#45;&gt;Node14 -->
<g id="edge26" class="edge"><title>Node2&#45;&gt;Node14</title>
<path fill="none" stroke="midnightblue" d="M160.978,-866.25C168.537,-939.534 197.924,-1189.52 252,-1245 258.947,-1252.13 268.203,-1256.7 277.785,-1259.6"/>
<polygon fill="midnightblue" stroke="midnightblue" points="164.437,-865.661 159.952,-856.062 157.472,-866.363 164.437,-865.661"/>
</g>
<!-- Node15 -->
<g id="node29" class="node"><title>Node15</title>
<a xlink:href="classumontreal_1_1ssj_1_1probdist_1_1FrechetDist.html" target="_top" xlink:title="Extends the class ContinuousDistribution for the Fréchet distribution   (page 3), with location parameter , scale parameter , and shape parameter , where we use the notation . ">
<polygon fill="none" stroke="black" points="291.5,-1216 291.5,-1236 358.5,-1236 358.5,-1216 291.5,-1216"/>
<text text-anchor="middle" x="325" y="-1223" font-family="Helvetica,sans-Serif" font-size="10.00">FrechetDist</text>
</a>
</g>
<!-- Node2&#45;&gt;Node15 -->
<g id="edge28" class="edge"><title>Node2&#45;&gt;Node15</title>
<path fill="none" stroke="midnightblue" d="M161.489,-866.084C170.373,-934.583 202.642,-1157.52 252,-1207 262.266,-1217.29 277.354,-1222.23 291.152,-1224.52"/>
<polygon fill="midnightblue" stroke="midnightblue" points="164.958,-865.615 160.224,-856.136 158.014,-866.498 164.958,-865.615"/>
</g>
<!-- Node16 -->
<g id="node31" class="node"><title>Node16</title>
<a xlink:href="classumontreal_1_1ssj_1_1probdist_1_1GammaDist.html" target="_top" xlink:title="Extends the class ContinuousDistribution for the gamma distribution   (page 337) with shape paramete...">
<polygon fill="none" stroke="red" points="291,-1178 291,-1198 359,-1198 359,-1178 291,-1178"/>
<text text-anchor="middle" x="325" y="-1185" font-family="Helvetica,sans-Serif" font-size="10.00">GammaDist</text>
</a>
</g>
<!-- Node2&#45;&gt;Node16 -->
<g id="edge30" class="edge"><title>Node2&#45;&gt;Node16</title>
<path fill="none" stroke="midnightblue" d="M162.125,-866.003C172.448,-929.594 207.353,-1125.49 252,-1169 262.316,-1179.05 277.245,-1183.98 290.918,-1186.32"/>
<polygon fill="midnightblue" stroke="midnightblue" points="165.568,-865.365 160.535,-856.041 158.655,-866.468 165.568,-865.365"/>
</g>
<!-- Node17 -->
<g id="node33" class="node"><title>Node17</title>
<a xlink:href="classumontreal_1_1ssj_1_1probdist_1_1GumbelDist.html" target="_top" xlink:title="Extends the class ContinuousDistribution for the Gumbel distribution   (page 2), with location param...">
<polygon fill="none" stroke="black" points="291,-1140 291,-1160 359,-1160 359,-1140 291,-1140"/>
<text text-anchor="middle" x="325" y="-1147" font-family="Helvetica,sans-Serif" font-size="10.00">GumbelDist</text>
</a>
</g>
<!-- Node2&#45;&gt;Node17 -->
<g id="edge32" class="edge"><title>Node2&#45;&gt;Node17</title>
<path fill="none" stroke="midnightblue" d="M162.919,-865.912C174.796,-924.309 212.029,-1093.39 252,-1131 262.396,-1140.78 277.173,-1145.68 290.716,-1148.08"/>
<polygon fill="midnightblue" stroke="midnightblue" points="166.343,-865.182 160.945,-856.065 159.479,-866.558 166.343,-865.182"/>
</g>
<!-- Node18 -->
<g id="node35" class="node"><title>Node18</title>
<a xlink:href="classumontreal_1_1ssj_1_1probdist_1_1HalfNormalDist.html" target="_top" xlink:title="Extends the class ContinuousDistribution for the half&#45;normal distribution with parameters &#160;and ...">
<polygon fill="none" stroke="black" points="284,-1102 284,-1122 366,-1122 366,-1102 284,-1102"/>
<text text-anchor="middle" x="325" y="-1109" font-family="Helvetica,sans-Serif" font-size="10.00">HalfNormalDist</text>
</a>
</g>
<!-- Node2&#45;&gt;Node18 -->
<g id="edge34" class="edge"><title>Node2&#45;&gt;Node18</title>
<path fill="none" stroke="midnightblue" d="M160.493,-866.171C165.094,-913.263 183.241,-1031.14 252,-1093 260.762,-1100.88 272.386,-1105.57 283.776,-1108.34"/>
<polygon fill="midnightblue" stroke="midnightblue" points="163.965,-865.695 159.611,-856.037 156.992,-866.303 163.965,-865.695"/>
</g>
<!-- Node19 -->
<g id="node37" class="node"><title>Node19</title>
<a xlink:href="classumontreal_1_1ssj_1_1probdist_1_1HyperbolicSecantDist.html" target="_top" xlink:title="Extends the class ContinuousDistribution for the hyperbolic secant distribution with location paramet...">
<polygon fill="none" stroke="black" points="270,-1064 270,-1084 380,-1084 380,-1064 270,-1064"/>
<text text-anchor="middle" x="325" y="-1071" font-family="Helvetica,sans-Serif" font-size="10.00">HyperbolicSecantDist</text>
</a>
</g>
<!-- Node2&#45;&gt;Node19 -->
<g id="edge36" class="edge"><title>Node2&#45;&gt;Node19</title>
<path fill="none" stroke="midnightblue" d="M162.041,-866.159C169.437,-907.965 192.348,-1004.41 252,-1055 257.194,-1059.4 263.289,-1062.8 269.706,-1065.42"/>
<polygon fill="midnightblue" stroke="midnightblue" points="165.465,-865.411 160.381,-856.116 158.558,-866.552 165.465,-865.411"/>
</g>
<!-- Node20 -->
<g id="node39" class="node"><title>Node20</title>
<a xlink:href="classumontreal_1_1ssj_1_1probdist_1_1HypoExponentialDist.html" target="_top" xlink:title="This class implements the hypoexponential distribution, also called the generalized Erlang distributi...">
<polygon fill="none" stroke="red" points="271.5,-1026 271.5,-1046 378.5,-1046 378.5,-1026 271.5,-1026"/>
<text text-anchor="middle" x="325" y="-1033" font-family="Helvetica,sans-Serif" font-size="10.00">HypoExponentialDist</text>
</a>
</g>
<!-- Node2&#45;&gt;Node20 -->
<g id="edge38" class="edge"><title>Node2&#45;&gt;Node20</title>
<path fill="none" stroke="midnightblue" d="M164.22,-866.173C174.603,-902.165 201.337,-977.383 252,-1017 257.674,-1021.44 264.279,-1024.84 271.154,-1027.46"/>
<polygon fill="midnightblue" stroke="midnightblue" points="167.543,-865.057 161.514,-856.345 160.794,-866.915 167.543,-865.057"/>
</g>
<!-- Node21 -->
<g id="node41" class="node"><title>Node21</title>
<a xlink:href="classumontreal_1_1ssj_1_1probdist_1_1InverseDistFromDensity.html" target="_top" xlink:title="Implements a method for computing the inverse of an arbitrary continuous distribution function when o...">
<polygon fill="none" stroke="black" points="264,-988 264,-1008 386,-1008 386,-988 264,-988"/>
<text text-anchor="middle" x="325" y="-995" font-family="Helvetica,sans-Serif" font-size="10.00">InverseDistFromDensity</text>
</a>
</g>
<!-- Node2&#45;&gt;Node21 -->
<g id="edge40" class="edge"><title>Node2&#45;&gt;Node21</title>
<path fill="none" stroke="midnightblue" d="M167.16,-865.343C180.499,-894.561 209.787,-949.647 252,-979 257.161,-982.589 262.953,-985.5 268.958,-987.861"/>
<polygon fill="midnightblue" stroke="midnightblue" points="170.352,-863.907 163.111,-856.172 163.948,-866.733 170.352,-863.907"/>
</g>
<!-- Node22 -->
<g id="node43" class="node"><title>Node22</title>
<a xlink:href="classumontreal_1_1ssj_1_1probdist_1_1InverseGammaDist.html" target="_top" xlink:title="Extends the class ContinuousDistribution for the inverse gamma distribution with shape parameter &#160;and...">
<polygon fill="none" stroke="black" points="274.5,-950 274.5,-970 375.5,-970 375.5,-950 274.5,-950"/>
<text text-anchor="middle" x="325" y="-957" font-family="Helvetica,sans-Serif" font-size="10.00">InverseGammaDist</text>
</a>
</g>
<!-- Node2&#45;&gt;Node22 -->
<g id="edge42" class="edge"><title>Node2&#45;&gt;Node22</title>
<path fill="none" stroke="midnightblue" d="M172.014,-864.394C188.269,-885.991 218.104,-921.352 252,-941 258.911,-945.006 266.674,-948.182 274.489,-950.696"/>
<polygon fill="midnightblue" stroke="midnightblue" points="174.642,-862.06 165.906,-856.066 168.998,-866.2 174.642,-862.06"/>
</g>
<!-- Node23 -->
<g id="node45" class="node"><title>Node23</title>
<a xlink:href="classumontreal_1_1ssj_1_1probdist_1_1InverseGaussianDist.html" target="_top" xlink:title="Extends the class ContinuousDistribution for the inverse Gaussian distribution with location paramete...">
<polygon fill="none" stroke="black" points="271.5,-912 271.5,-932 378.5,-932 378.5,-912 271.5,-912"/>
<text text-anchor="middle" x="325" y="-919" font-family="Helvetica,sans-Serif" font-size="10.00">InverseGaussianDist</text>
</a>
</g>
<!-- Node2&#45;&gt;Node23 -->
<g id="edge44" class="edge"><title>Node2&#45;&gt;Node23</title>
<path fill="none" stroke="midnightblue" d="M180.672,-861.844C198.911,-874.534 226.093,-891.978 252,-903 260.194,-906.486 269.186,-909.461 277.974,-911.95"/>
<polygon fill="midnightblue" stroke="midnightblue" points="182.666,-858.967 172.482,-856.045 178.621,-864.68 182.666,-858.967"/>
</g>
<!-- Node24 -->
<g id="node47" class="node"><title>Node24</title>
<a xlink:href="classumontreal_1_1ssj_1_1probdist_1_1JohnsonSystem.html" target="_top" xlink:title="This class contains common parameters and methods for the Johnson system of distributions ...">
<polygon fill="none" stroke="red" points="281.5,-874 281.5,-894 368.5,-894 368.5,-874 281.5,-874"/>
<text text-anchor="middle" x="325" y="-881" font-family="Helvetica,sans-Serif" font-size="10.00">JohnsonSystem</text>
</a>
</g>
<!-- Node2&#45;&gt;Node24 -->
<g id="edge46" class="edge"><title>Node2&#45;&gt;Node24</title>
<path fill="none" stroke="midnightblue" d="M212.969,-858.354C235.1,-863.42 260.382,-869.208 281.321,-874.001"/>
<polygon fill="midnightblue" stroke="midnightblue" points="213.578,-854.903 203.049,-856.084 212.016,-861.727 213.578,-854.903"/>
</g>
<!-- Node25 -->
<g id="node49" class="node"><title>Node25</title>
<a xlink:href="classumontreal_1_1ssj_1_1probdist_1_1KolmogorovSmirnovDist.html" target="_top" xlink:title="Extends the class ContinuousDistribution for the Kolmogorov&#45;Smirnov distribution with parameter &#160; ...">
<polygon fill="none" stroke="red" points="264,-836 264,-856 386,-856 386,-836 264,-836"/>
<text text-anchor="middle" x="325" y="-843" font-family="Helvetica,sans-Serif" font-size="10.00">KolmogorovSmirnovDist</text>
</a>
</g>
<!-- Node2&#45;&gt;Node25 -->
<g id="edge48" class="edge"><title>Node2&#45;&gt;Node25</title>
<path fill="none" stroke="midnightblue" d="M226.385,-846C238.761,-846 251.617,-846 263.799,-846"/>
<polygon fill="midnightblue" stroke="midnightblue" points="226.128,-842.5 216.128,-846 226.128,-849.5 226.128,-842.5"/>
</g>
<!-- Node26 -->
<g id="node51" class="node"><title>Node26</title>
<a xlink:href="classumontreal_1_1ssj_1_1probdist_1_1KolmogorovSmirnovPlusDist.html" target="_top" xlink:title="Extends the class ContinuousDistribution for the Kolmogorov–Smirnov+ distribution (see ...">
<polygon fill="none" stroke="black" points="254.5,-798 254.5,-818 395.5,-818 395.5,-798 254.5,-798"/>
<text text-anchor="middle" x="325" y="-805" font-family="Helvetica,sans-Serif" font-size="10.00">KolmogorovSmirnovPlusDist</text>
</a>
</g>
<!-- Node2&#45;&gt;Node26 -->
<g id="edge50" class="edge"><title>Node2&#45;&gt;Node26</title>
<path fill="none" stroke="midnightblue" d="M212.928,-833.655C234.968,-828.61 260.138,-822.848 281.033,-818.065"/>
<polygon fill="midnightblue" stroke="midnightblue" points="212.016,-830.273 203.049,-835.916 213.578,-837.097 212.016,-830.273"/>
</g>
<!-- Node27 -->
<g id="node53" class="node"><title>Node27</title>
<a xlink:href="classumontreal_1_1ssj_1_1probdist_1_1LaplaceDist.html" target="_top" xlink:title="Extends the class ContinuousDistribution for the Laplace distribution (see, e.g.,   (page 165))...">
<polygon fill="none" stroke="black" points="291,-760 291,-780 359,-780 359,-760 291,-760"/>
<text text-anchor="middle" x="325" y="-767" font-family="Helvetica,sans-Serif" font-size="10.00">LaplaceDist</text>
</a>
</g>
<!-- Node2&#45;&gt;Node27 -->
<g id="edge52" class="edge"><title>Node2&#45;&gt;Node27</title>
<path fill="none" stroke="midnightblue" d="M180.672,-830.156C198.911,-817.466 226.093,-800.022 252,-789 264.292,-783.771 278.377,-779.692 290.876,-776.678"/>
<polygon fill="midnightblue" stroke="midnightblue" points="178.621,-827.32 172.482,-835.955 182.666,-833.033 178.621,-827.32"/>
</g>
<!-- Node28 -->
<g id="node55" class="node"><title>Node28</title>
<a xlink:href="classumontreal_1_1ssj_1_1probdist_1_1LogisticDist.html" target="_top" xlink:title="Extends the class ContinuousDistribution for the logistic distribution (e.g.,   (page 115))...">
<polygon fill="none" stroke="black" points="291,-722 291,-742 359,-742 359,-722 291,-722"/>
<text text-anchor="middle" x="325" y="-729" font-family="Helvetica,sans-Serif" font-size="10.00">LogisticDist</text>
</a>
</g>
<!-- Node2&#45;&gt;Node28 -->
<g id="edge54" class="edge"><title>Node2&#45;&gt;Node28</title>
<path fill="none" stroke="midnightblue" d="M172.014,-827.606C188.269,-806.009 218.104,-770.648 252,-751 263.783,-744.17 278.04,-739.753 290.817,-736.917"/>
<polygon fill="midnightblue" stroke="midnightblue" points="168.998,-825.8 165.906,-835.934 174.642,-829.94 168.998,-825.8"/>
</g>
<!-- Node29 -->
<g id="node57" class="node"><title>Node29</title>
<a xlink:href="classumontreal_1_1ssj_1_1probdist_1_1LoglogisticDist.html" target="_top" xlink:title="Extends the class ContinuousDistribution for the Log&#45;Logistic distribution with shape parameter &#160;and ...">
<polygon fill="none" stroke="black" points="285,-684 285,-704 365,-704 365,-684 285,-684"/>
<text text-anchor="middle" x="325" y="-691" font-family="Helvetica,sans-Serif" font-size="10.00">LoglogisticDist</text>
</a>
</g>
<!-- Node2&#45;&gt;Node29 -->
<g id="edge56" class="edge"><title>Node2&#45;&gt;Node29</title>
<path fill="none" stroke="midnightblue" d="M167.16,-826.657C180.499,-797.439 209.787,-742.353 252,-713 261.677,-706.271 273.572,-701.925 284.93,-699.118"/>
<polygon fill="midnightblue" stroke="midnightblue" points="163.948,-825.267 163.111,-835.828 170.352,-828.093 163.948,-825.267"/>
</g>
<!-- Node30 -->
<g id="node59" class="node"><title>Node30</title>
<a xlink:href="classumontreal_1_1ssj_1_1probdist_1_1LognormalDist.html" target="_top" xlink:title="Extends the class ContinuousDistribution for the lognormal distribution  . ">
<polygon fill="none" stroke="red" points="285.5,-646 285.5,-666 364.5,-666 364.5,-646 285.5,-646"/>
<text text-anchor="middle" x="325" y="-653" font-family="Helvetica,sans-Serif" font-size="10.00">LognormalDist</text>
</a>
</g>
<!-- Node2&#45;&gt;Node30 -->
<g id="edge58" class="edge"><title>Node2&#45;&gt;Node30</title>
<path fill="none" stroke="midnightblue" d="M164.22,-825.827C174.603,-789.835 201.337,-714.617 252,-675 261.491,-667.578 273.588,-663.037 285.193,-660.265"/>
<polygon fill="midnightblue" stroke="midnightblue" points="160.794,-825.085 161.514,-835.655 167.543,-826.943 160.794,-825.085"/>
</g>
<!-- Node31 -->
<g id="node61" class="node"><title>Node31</title>
<a xlink:href="classumontreal_1_1ssj_1_1probdist_1_1NakagamiDist.html" target="_top" xlink:title="Extends the class ContinuousDistribution for the Nakagami distribution with location parameter ...">
<polygon fill="none" stroke="black" points="286.5,-608 286.5,-628 363.5,-628 363.5,-608 286.5,-608"/>
<text text-anchor="middle" x="325" y="-615" font-family="Helvetica,sans-Serif" font-size="10.00">NakagamiDist</text>
</a>
</g>
<!-- Node2&#45;&gt;Node31 -->
<g id="edge60" class="edge"><title>Node2&#45;&gt;Node31</title>
<path fill="none" stroke="midnightblue" d="M162.041,-825.841C169.437,-784.035 192.348,-687.59 252,-637 261.588,-628.868 274.251,-624.164 286.334,-621.459"/>
<polygon fill="midnightblue" stroke="midnightblue" points="158.558,-825.448 160.381,-835.884 165.465,-826.589 158.558,-825.448"/>
</g>
<!-- Node32 -->
<g id="node63" class="node"><title>Node32</title>
<a xlink:href="classumontreal_1_1ssj_1_1probdist_1_1NormalDist.html" target="_top" xlink:title="Extends the class ContinuousDistribution for the normal distribution (e.g.,   (page 80))...">
<polygon fill="none" stroke="red" points="292.5,-570 292.5,-590 357.5,-590 357.5,-570 292.5,-570"/>
<text text-anchor="middle" x="325" y="-577" font-family="Helvetica,sans-Serif" font-size="10.00">NormalDist</text>
</a>
</g>
<!-- Node2&#45;&gt;Node32 -->
<g id="edge62" class="edge"><title>Node2&#45;&gt;Node32</title>
<path fill="none" stroke="midnightblue" d="M160.493,-825.829C165.094,-778.737 183.241,-660.863 252,-599 263.001,-589.102 278.513,-584.24 292.411,-581.897"/>
<polygon fill="midnightblue" stroke="midnightblue" points="156.992,-825.697 159.611,-835.963 163.965,-826.305 156.992,-825.697"/>
</g>
<!-- Node33 -->
<g id="node65" class="node"><title>Node33</title>
<a xlink:href="classumontreal_1_1ssj_1_1probdist_1_1NormalInverseGaussianDist.html" target="_top" xlink:title="Extends the class ContinuousDistribution for the normal inverse gaussian distribution with location p...">
<polygon fill="none" stroke="black" points="256,-532 256,-552 394,-552 394,-532 256,-532"/>
<text text-anchor="middle" x="325" y="-539" font-family="Helvetica,sans-Serif" font-size="10.00">NormalInverseGaussianDist</text>
</a>
</g>
<!-- Node2&#45;&gt;Node33 -->
<g id="edge64" class="edge"><title>Node2&#45;&gt;Node33</title>
<path fill="none" stroke="midnightblue" d="M162.919,-826.088C174.796,-767.691 212.029,-598.612 252,-561 255.815,-557.41 260.22,-554.478 264.937,-552.087"/>
<polygon fill="midnightblue" stroke="midnightblue" points="159.479,-825.442 160.945,-835.935 166.343,-826.818 159.479,-825.442"/>
</g>
<!-- Node34 -->
<g id="node67" class="node"><title>Node34</title>
<a xlink:href="classumontreal_1_1ssj_1_1probdist_1_1ParetoDist.html" target="_top" xlink:title="Extends the class ContinuousDistribution for a distribution from the Pareto family, with shape parameter &#160;and location parameter &#160;  (page 574). ">
<polygon fill="none" stroke="black" points="294,-494 294,-514 356,-514 356,-494 294,-494"/>
<text text-anchor="middle" x="325" y="-501" font-family="Helvetica,sans-Serif" font-size="10.00">ParetoDist</text>
</a>
</g>
<!-- Node2&#45;&gt;Node34 -->
<g id="edge66" class="edge"><title>Node2&#45;&gt;Node34</title>
<path fill="none" stroke="midnightblue" d="M162.125,-825.997C172.448,-762.406 207.353,-566.513 252,-523 263.067,-512.214 279.441,-507.335 293.879,-505.209"/>
<polygon fill="midnightblue" stroke="midnightblue" points="158.655,-825.532 160.535,-835.959 165.568,-826.635 158.655,-825.532"/>
</g>
<!-- Node35 -->
<g id="node69" class="node"><title>Node35</title>
<a xlink:href="classumontreal_1_1ssj_1_1probdist_1_1Pearson5Dist.html" target="_top" xlink:title="THIS CLASS HAS BEEN RENAMED InverseGammaDist . ">
<polygon fill="none" stroke="black" points="287.5,-456 287.5,-476 362.5,-476 362.5,-456 287.5,-456"/>
<text text-anchor="middle" x="325" y="-463" font-family="Helvetica,sans-Serif" font-size="10.00">Pearson5Dist</text>
</a>
</g>
<!-- Node2&#45;&gt;Node35 -->
<g id="edge68" class="edge"><title>Node2&#45;&gt;Node35</title>
<path fill="none" stroke="midnightblue" d="M161.489,-825.916C170.373,-757.417 202.642,-534.481 252,-485 261.341,-475.636 274.674,-470.703 287.396,-468.163"/>
<polygon fill="midnightblue" stroke="midnightblue" points="158.014,-825.502 160.224,-835.864 164.958,-826.385 158.014,-825.502"/>
</g>
<!-- Node36 -->
<g id="node71" class="node"><title>Node36</title>
<a xlink:href="classumontreal_1_1ssj_1_1probdist_1_1Pearson6Dist.html" target="_top" xlink:title="Extends the class ContinuousDistribution for the Pearson type VI distribution with shape parameters &#160;...">
<polygon fill="none" stroke="black" points="287.5,-418 287.5,-438 362.5,-438 362.5,-418 287.5,-418"/>
<text text-anchor="middle" x="325" y="-425" font-family="Helvetica,sans-Serif" font-size="10.00">Pearson6Dist</text>
</a>
</g>
<!-- Node2&#45;&gt;Node36 -->
<g id="edge70" class="edge"><title>Node2&#45;&gt;Node36</title>
<path fill="none" stroke="midnightblue" d="M160.978,-825.75C168.537,-752.466 197.924,-502.48 252,-447 261.232,-437.528 274.542,-432.573 287.276,-430.044"/>
<polygon fill="midnightblue" stroke="midnightblue" points="157.472,-825.637 159.952,-835.938 164.437,-826.339 157.472,-825.637"/>
</g>
<!-- Node37 -->
<g id="node73" class="node"><title>Node37</title>
<a xlink:href="classumontreal_1_1ssj_1_1probdist_1_1PiecewiseLinearEmpiricalDist.html" target="_top" xlink:title="Extends the class ContinuousDistribution for a piecewise&#45;linear approximation of the empirical distri...">
<polygon fill="none" stroke="black" points="252.5,-380 252.5,-400 397.5,-400 397.5,-380 252.5,-380"/>
<text text-anchor="middle" x="325" y="-387" font-family="Helvetica,sans-Serif" font-size="10.00">PiecewiseLinearEmpiricalDist</text>
</a>
</g>
<!-- Node2&#45;&gt;Node37 -->
<g id="edge72" class="edge"><title>Node2&#45;&gt;Node37</title>
<path fill="none" stroke="midnightblue" d="M160.567,-825.363C166.915,-747.173 193.24,-470.462 252,-409 255.439,-405.403 259.465,-402.455 263.829,-400.043"/>
<polygon fill="midnightblue" stroke="midnightblue" points="157.043,-825.535 159.746,-835.779 164.021,-826.086 157.043,-825.535"/>
</g>
<!-- Node38 -->
<g id="node75" class="node"><title>Node38</title>
<a xlink:href="classumontreal_1_1ssj_1_1probdist_1_1PowerDist.html" target="_top" xlink:title="Extends the class ContinuousDistribution for the power distribution   (page 161) with shape paramete...">
<polygon fill="none" stroke="black" points="294.5,-342 294.5,-362 355.5,-362 355.5,-342 294.5,-342"/>
<text text-anchor="middle" x="325" y="-349" font-family="Helvetica,sans-Serif" font-size="10.00">PowerDist</text>
</a>
</g>
<!-- Node2&#45;&gt;Node38 -->
<g id="edge74" class="edge"><title>Node2&#45;&gt;Node38</title>
<path fill="none" stroke="midnightblue" d="M160.165,-825.697C165.275,-743.768 188.355,-438.669 252,-371 262.767,-359.553 279.479,-354.662 294.198,-352.697"/>
<polygon fill="midnightblue" stroke="midnightblue" points="156.669,-825.535 159.561,-835.728 163.656,-825.956 156.669,-825.535"/>
</g>
<!-- Node39 -->
<g id="node77" class="node"><title>Node39</title>
<a xlink:href="classumontreal_1_1ssj_1_1probdist_1_1RayleighDist.html" target="_top" xlink:title="This class extends the class ContinuousDistribution for the Rayleigh distribution   with location pa...">
<polygon fill="none" stroke="black" points="289.5,-304 289.5,-324 360.5,-324 360.5,-304 289.5,-304"/>
<text text-anchor="middle" x="325" y="-311" font-family="Helvetica,sans-Serif" font-size="10.00">RayleighDist</text>
</a>
</g>
<!-- Node2&#45;&gt;Node39 -->
<g id="edge76" class="edge"><title>Node2&#45;&gt;Node39</title>
<path fill="none" stroke="midnightblue" d="M161.392,-825.605C172.211,-734.806 217.544,-370.152 252,-333 261.528,-322.726 275.845,-317.721 289.282,-315.375"/>
<polygon fill="midnightblue" stroke="midnightblue" points="157.896,-825.364 160.196,-835.706 164.847,-826.187 157.896,-825.364"/>
</g>
<!-- Node40 -->
<g id="node79" class="node"><title>Node40</title>
<a xlink:href="classumontreal_1_1ssj_1_1probdist_1_1StudentDist.html" target="_top" xlink:title="Extends the class ContinuousDistribution for the Student &#45;distribution   (page 362) with &#160;degrees of...">
<polygon fill="none" stroke="red" points="291,-266 291,-286 359,-286 359,-266 291,-266"/>
<text text-anchor="middle" x="325" y="-273" font-family="Helvetica,sans-Serif" font-size="10.00">StudentDist</text>
</a>
</g>
<!-- Node2&#45;&gt;Node40 -->
<g id="edge78" class="edge"><title>Node2&#45;&gt;Node40</title>
<path fill="none" stroke="midnightblue" d="M161.761,-825.969C175.155,-729.345 233.482,-315.212 252,-295 261.82,-284.282 276.848,-279.286 290.722,-277.066"/>
<polygon fill="midnightblue" stroke="midnightblue" points="158.289,-825.524 160.386,-835.909 165.223,-826.483 158.289,-825.524"/>
</g>
<!-- Node41 -->
<g id="node81" class="node"><title>Node41</title>
<a xlink:href="classumontreal_1_1ssj_1_1probdist_1_1TriangularDist.html" target="_top" xlink:title="Extends the class ContinuousDistribution for the triangular distribution (see   (page 297) and   (p...">
<polygon fill="none" stroke="black" points="286.5,-228 286.5,-248 363.5,-248 363.5,-228 286.5,-228"/>
<text text-anchor="middle" x="325" y="-235" font-family="Helvetica,sans-Serif" font-size="10.00">TriangularDist</text>
</a>
</g>
<!-- Node2&#45;&gt;Node41 -->
<g id="edge80" class="edge"><title>Node2&#45;&gt;Node41</title>
<path fill="none" stroke="midnightblue" d="M161.591,-825.555C174.529,-724.104 232.292,-278.741 252,-257 260.707,-247.394 273.597,-242.377 286.133,-239.835"/>
<polygon fill="midnightblue" stroke="midnightblue" points="158.09,-825.347 160.3,-835.708 165.034,-826.23 158.09,-825.347"/>
</g>
<!-- Node42 -->
<g id="node83" class="node"><title>Node42</title>
<a xlink:href="classumontreal_1_1ssj_1_1probdist_1_1TruncatedDist.html" target="_top" xlink:title="This container class takes an arbitrary continuous distribution and truncates it to an interval ...">
<polygon fill="none" stroke="black" points="286.5,-190 286.5,-210 363.5,-210 363.5,-190 286.5,-190"/>
<text text-anchor="middle" x="325" y="-197" font-family="Helvetica,sans-Serif" font-size="10.00">TruncatedDist</text>
</a>
</g>
<!-- Node2&#45;&gt;Node42 -->
<g id="edge82" class="edge"><title>Node2&#45;&gt;Node42</title>
<path fill="none" stroke="midnightblue" d="M161.684,-825.817C175.832,-719.692 241.514,-230.677 252,-219 260.75,-209.256 273.803,-204.226 286.462,-201.713"/>
<polygon fill="midnightblue" stroke="midnightblue" points="158.198,-825.476 160.347,-835.851 165.137,-826.401 158.198,-825.476"/>
</g>
<!-- Node43 -->
<g id="node85" class="node"><title>Node43</title>
<a xlink:href="classumontreal_1_1ssj_1_1probdist_1_1UniformDist.html" target="_top" xlink:title="Extends the class ContinuousDistribution for the uniform distribution   (page 276) over the interval...">
<polygon fill="none" stroke="black" points="291,-152 291,-172 359,-172 359,-152 291,-152"/>
<text text-anchor="middle" x="325" y="-159" font-family="Helvetica,sans-Serif" font-size="10.00">UniformDist</text>
</a>
</g>
<!-- Node2&#45;&gt;Node43 -->
<g id="edge84" class="edge"><title>Node2&#45;&gt;Node43</title>
<path fill="none" stroke="midnightblue" d="M161.765,-825.678C176.909,-714.433 249.224,-184.117 252,-181 261.755,-170.046 276.946,-165.041 290.951,-162.875"/>
<polygon fill="midnightblue" stroke="midnightblue" points="158.258,-825.492 160.377,-835.872 165.194,-826.436 158.258,-825.492"/>
</g>
<!-- Node44 -->
<g id="node87" class="node"><title>Node44</title>
<a xlink:href="classumontreal_1_1ssj_1_1probdist_1_1WatsonGDist.html" target="_top" xlink:title="Extends the class ContinuousDistribution for the Watson &#160;distribution (see ,  ). ...">
<polygon fill="none" stroke="black" points="288,-114 288,-134 362,-134 362,-114 288,-114"/>
<text text-anchor="middle" x="325" y="-121" font-family="Helvetica,sans-Serif" font-size="10.00">WatsonGDist</text>
</a>
</g>
<!-- Node2&#45;&gt;Node44 -->
<g id="edge86" class="edge"><title>Node2&#45;&gt;Node44</title>
<path fill="none" stroke="midnightblue" d="M161.81,-825.917C170.226,-765.668 195.885,-581.155 216,-428 224.313,-364.707 209.863,-190.954 252,-143 260.99,-132.769 274.723,-127.715 287.863,-125.32"/>
<polygon fill="midnightblue" stroke="midnightblue" points="158.322,-825.588 160.404,-835.976 165.255,-826.557 158.322,-825.588"/>
</g>
<!-- Node45 -->
<g id="node89" class="node"><title>Node45</title>
<a xlink:href="classumontreal_1_1ssj_1_1probdist_1_1WatsonUDist.html" target="_top" xlink:title="Extends the class ContinuousDistribution for the Watson U distribution (see , ,  ). ">
<polygon fill="none" stroke="black" points="288,-76 288,-96 362,-96 362,-76 288,-76"/>
<text text-anchor="middle" x="325" y="-83" font-family="Helvetica,sans-Serif" font-size="10.00">WatsonUDist</text>
</a>
</g>
<!-- Node2&#45;&gt;Node45 -->
<g id="edge88" class="edge"><title>Node2&#45;&gt;Node45</title>
<path fill="none" stroke="midnightblue" d="M161.915,-825.931C170.621,-765.718 197.008,-581.299 216,-428 224.88,-356.326 204.727,-159.601 252,-105 260.915,-94.7032 274.634,-89.6369 287.783,-87.2505"/>
<polygon fill="midnightblue" stroke="midnightblue" points="158.428,-825.585 160.458,-835.983 165.356,-826.588 158.428,-825.585"/>
</g>
<!-- Node46 -->
<g id="node91" class="node"><title>Node46</title>
<a xlink:href="classumontreal_1_1ssj_1_1probdist_1_1WeibullDist.html" target="_top" xlink:title="This class extends the class ContinuousDistribution for the Weibull distribution   (page 628) with s...">
<polygon fill="none" stroke="black" points="292.5,-38 292.5,-58 357.5,-58 357.5,-38 292.5,-38"/>
<text text-anchor="middle" x="325" y="-45" font-family="Helvetica,sans-Serif" font-size="10.00">WeibullDist</text>
</a>
</g>
<!-- Node2&#45;&gt;Node46 -->
<g id="edge90" class="edge"><title>Node2&#45;&gt;Node46</title>
<path fill="none" stroke="midnightblue" d="M161.998,-825.941C170.935,-765.756 197.897,-581.406 216,-428 225.448,-347.935 199.585,-128.256 252,-67 261.877,-55.4577 277.791,-50.4744 292.244,-48.476"/>
<polygon fill="midnightblue" stroke="midnightblue" points="158.512,-825.582 160.501,-835.988 165.436,-826.613 158.512,-825.582"/>
</g>
<!-- Node48 -->
<g id="node95" class="node"><title>Node48</title>
<a xlink:href="classumontreal_1_1ssj_1_1probdist_1_1ConstantDist.html" target="_top" xlink:title="Represents a constant discrete distribution taking a single real value with probability 1...">
<polygon fill="none" stroke="black" points="288.5,-0 288.5,-20 361.5,-20 361.5,-0 288.5,-0"/>
<text text-anchor="middle" x="325" y="-7" font-family="Helvetica,sans-Serif" font-size="10.00">ConstantDist</text>
</a>
</g>
<!-- Node47&#45;&gt;Node48 -->
<g id="edge94" class="edge"><title>Node47&#45;&gt;Node48</title>
<path fill="none" stroke="midnightblue" d="M213.725,-392.565C214.524,-391.751 215.284,-390.896 216,-390 316.66,-264.04 147.17,-151.511 252,-29 261.025,-18.4527 275.092,-13.3824 288.478,-11.0617"/>
<polygon fill="midnightblue" stroke="midnightblue" points="211.372,-389.962 205.632,-398.867 215.673,-395.485 211.372,-389.962"/>
</g>
</g>
</svg>
